<?xml version="1.0" encoding="us-ascii" standalone="no"?><svg xmlns="http://www.w3.org/2000/svg" xmlns:xlink="http://www.w3.org/1999/xlink" contentStyleType="text/css" height="730px" preserveAspectRatio="none" style="width:1018px;height:730px;background:#FFFFFF;" version="1.1" viewBox="0 0 1018 730" width="1018px" zoomAndPan="magnify"><defs/><g><text fill="#000000" font-family="sans-serif" font-size="14" font-weight="bold" lengthAdjust="spacing" textLength="347" x="336.75" y="27.9951">Cancellazione di una richiesta di pagamento</text><rect fill="none" height="519.7344" style="stroke:#000000;stroke-width:1.5;" width="1001.5" x="10" y="158.1875"/><rect fill="none" height="147.1406" style="stroke:#000000;stroke-width:1.5;" width="771" x="230.5" y="303.8516"/><line style="stroke:#181818;stroke-width:0.5;stroke-dasharray:5.0,5.0;" x1="335.5" x2="335.5" y1="141.1875" y2="694.9219"/><line style="stroke:#181818;stroke-width:0.5;stroke-dasharray:5.0,5.0;" x1="897.5" x2="897.5" y1="141.1875" y2="694.9219"/><rect fill="#E2E2F0" height="30.2969" rx="2.5" ry="2.5" style="stroke:#181818;stroke-width:0.5;" width="191" x="240.5" y="109.8906"/><text fill="#000000" font-family="sans-serif" font-size="14" lengthAdjust="spacing" textLength="177" x="247.5" y="129.8857">Service Provicer Creditore</text><rect fill="#E2E2F0" height="30.2969" rx="2.5" ry="2.5" style="stroke:#181818;stroke-width:0.5;" width="191" x="240.5" y="693.9219"/><text fill="#000000" font-family="sans-serif" font-size="14" lengthAdjust="spacing" textLength="177" x="247.5" y="713.917">Service Provicer Creditore</text><rect fill="#E2E2F0" height="30.2969" rx="2.5" ry="2.5" style="stroke:#181818;stroke-width:0.5;" width="187" x="804.5" y="109.8906"/><text fill="#000000" font-family="sans-serif" font-size="14" lengthAdjust="spacing" textLength="173" x="811.5" y="129.8857">Service Provicer Debitore</text><rect fill="#E2E2F0" height="30.2969" rx="2.5" ry="2.5" style="stroke:#181818;stroke-width:0.5;" width="187" x="804.5" y="693.9219"/><text fill="#000000" font-family="sans-serif" font-size="14" lengthAdjust="spacing" textLength="173" x="811.5" y="713.917">Service Provicer Debitore</text><path d="M10,158.1875 L74,158.1875 L74,165.3203 L64,175.3203 L10,175.3203 L10,158.1875 " fill="#EEEEEE" style="stroke:#000000;stroke-width:1.5;"/><rect fill="none" height="519.7344" style="stroke:#000000;stroke-width:1.5;" width="1001.5" x="10" y="158.1875"/><text fill="#000000" font-family="sans-serif" font-size="13" font-weight="bold" lengthAdjust="spacing" textLength="19" x="25" y="171.2544">alt</text><polygon fill="#181818" points="324,192.4531,334,196.4531,324,200.4531,328,196.4531" style="stroke:#181818;stroke-width:1.0;"/><line style="stroke:#181818;stroke-width:1.0;" x1="0" x2="330" y1="196.4531" y2="196.4531"/><text fill="#000000" font-family="sans-serif" font-size="13" lengthAdjust="spacing" textLength="97" x="7" y="191.3872">payed (receipt)</text><path d="M20,209.4531 L20,249.4531 L652,249.4531 L652,219.4531 L642,209.4531 L20,209.4531 " fill="#FEFFDD" style="stroke:#181818;stroke-width:0.5;"/><path d="M642,209.4531 L642,219.4531 L652,219.4531 L642,209.4531 " fill="#FEFFDD" style="stroke:#181818;stroke-width:0.5;"/><text fill="#000000" font-family="sans-serif" font-size="13" lengthAdjust="spacing" textLength="216" x="26" y="226.52">Payment Notice has been payed ,</text><text fill="#000000" font-family="sans-serif" font-size="13" lengthAdjust="spacing" textLength="607" x="30" y="241.6528">SP should evaluate if the payment has been made by the same PSP associated with SP Debtor</text><line style="stroke:#181818;stroke-width:1.0;" x1="336" x2="378" y1="275.8516" y2="275.8516"/><line style="stroke:#181818;stroke-width:1.0;" x1="378" x2="378" y1="275.8516" y2="288.8516"/><line style="stroke:#181818;stroke-width:1.0;" x1="337" x2="378" y1="288.8516" y2="288.8516"/><polygon fill="#181818" points="347,284.8516,337,288.8516,347,292.8516,343,288.8516" style="stroke:#181818;stroke-width:1.0;"/><text fill="#000000" font-family="sans-serif" font-size="13" lengthAdjust="spacing" textLength="108" x="343" y="270.7856">evaluate request</text><path d="M230.5,303.8516 L294.5,303.8516 L294.5,310.9844 L284.5,320.9844 L230.5,320.9844 L230.5,303.8516 " fill="#EEEEEE" style="stroke:#000000;stroke-width:1.5;"/><rect fill="none" height="147.1406" style="stroke:#000000;stroke-width:1.5;" width="771" x="230.5" y="303.8516"/><text fill="#000000" font-family="sans-serif" font-size="13" font-weight="bold" lengthAdjust="spacing" textLength="19" x="245.5" y="316.9185">alt</text><text fill="#000000" font-family="sans-serif" font-size="11" font-weight="bold" lengthAdjust="spacing" textLength="230" x="309.5" y="316.062">["receipt.agoPA Channel == false "]</text><polygon fill="#181818" points="886,338.1172,896,342.1172,886,346.1172,890,342.1172" style="stroke:#181818;stroke-width:1.0;"/><line style="stroke:#181818;stroke-width:1.0;" x1="336" x2="892" y1="342.1172" y2="342.1172"/><text fill="#000000" font-family="sans-serif" font-size="13" lengthAdjust="spacing" textLength="293" x="343" y="337.0513">SEPA Request for Cancellation (reason : PAID)</text><polygon fill="#181818" points="347,367.25,337,371.25,347,375.25,343,371.25" style="stroke:#181818;stroke-width:1.0;"/><line style="stroke:#181818;stroke-width:1.0;stroke-dasharray:2.0,2.0;" x1="341" x2="897" y1="371.25" y2="371.25"/><text fill="#000000" font-family="sans-serif" font-size="13" lengthAdjust="spacing" textLength="17" x="353" y="366.1841">Ok</text><line style="stroke:#000000;stroke-width:1.0;stroke-dasharray:2.0,2.0;" x1="230.5" x2="1001.5" y1="380.25" y2="380.25"/><text fill="#000000" font-family="sans-serif" font-size="11" font-weight="bold" lengthAdjust="spacing" textLength="228" x="235.5" y="390.4604">["receipt.pagoPA Channel == true"]</text><line style="stroke:#181818;stroke-width:1.0;" x1="336" x2="378" y1="415.1875" y2="415.1875"/><line style="stroke:#181818;stroke-width:1.0;" x1="378" x2="378" y1="415.1875" y2="428.1875"/><line style="stroke:#181818;stroke-width:1.0;" x1="337" x2="378" y1="428.1875" y2="428.1875"/><polygon fill="#181818" points="347,424.1875,337,428.1875,347,432.1875,343,428.1875" style="stroke:#181818;stroke-width:1.0;"/><text fill="#000000" font-family="sans-serif" font-size="13" lengthAdjust="spacing" textLength="26" x="343" y="410.1216">void</text><line style="stroke:#000000;stroke-width:1.0;stroke-dasharray:2.0,2.0;" x1="230.5" x2="1001.5" y1="437.1875" y2="437.1875"/><text fill="#000000" font-family="sans-serif" font-size="11" font-weight="bold" lengthAdjust="spacing" textLength="109" x="235.5" y="447.3979">["receipt==null"]</text><line style="stroke:#000000;stroke-width:1.0;stroke-dasharray:2.0,2.0;" x1="10" x2="1011.5" y1="458.9922" y2="458.9922"/><path d="M183,464.9922 L183,489.9922 L489,489.9922 L489,474.9922 L479,464.9922 L183,464.9922 " fill="#FEFFDD" style="stroke:#181818;stroke-width:0.5;"/><path d="M479,464.9922 L479,474.9922 L489,474.9922 L479,464.9922 " fill="#FEFFDD" style="stroke:#181818;stroke-width:0.5;"/><text fill="#000000" font-family="sans-serif" font-size="13" lengthAdjust="spacing" textLength="285" x="189" y="482.0591">Creditor should cancel an RTP for any reason</text><polygon fill="#181818" points="324,512.2578,334,516.2578,324,520.2578,328,516.2578" style="stroke:#181818;stroke-width:1.0;"/><line style="stroke:#181818;stroke-width:1.0;" x1="0" x2="330" y1="516.2578" y2="516.2578"/><text fill="#000000" font-family="sans-serif" font-size="13" lengthAdjust="spacing" textLength="99" x="7" y="511.1919">cancel (reason)</text><polygon fill="#181818" points="886,541.3906,896,545.3906,886,549.3906,890,545.3906" style="stroke:#181818;stroke-width:1.0;"/><line style="stroke:#181818;stroke-width:1.0;" x1="336" x2="892" y1="545.3906" y2="545.3906"/><text fill="#000000" font-family="sans-serif" font-size="13" lengthAdjust="spacing" textLength="538" x="343" y="540.3247">SEPA Request for Cancellation (reason: [AC02,AM09,BE16,DRTP,DT01,MODT,TECH] )</text><polygon fill="#181818" points="347,570.5234,337,574.5234,347,578.5234,343,574.5234" style="stroke:#181818;stroke-width:1.0;"/><line style="stroke:#181818;stroke-width:1.0;stroke-dasharray:2.0,2.0;" x1="341" x2="897" y1="574.5234" y2="574.5234"/><text fill="#000000" font-family="sans-serif" font-size="13" lengthAdjust="spacing" textLength="17" x="353" y="569.4575">Ok</text><line style="stroke:#000000;stroke-width:1.0;stroke-dasharray:2.0,2.0;" x1="10" x2="1011.5" y1="583.5234" y2="583.5234"/><path d="M103,589.5234 L103,614.5234 L569,614.5234 L569,599.5234 L559,589.5234 L103,589.5234 " fill="#FEFFDD" style="stroke:#181818;stroke-width:0.5;"/><path d="M559,589.5234 L559,599.5234 L569,599.5234 L559,589.5234 " fill="#FEFFDD" style="stroke:#181818;stroke-width:0.5;"/><text fill="#000000" font-family="sans-serif" font-size="13" lengthAdjust="spacing" textLength="445" x="109" y="606.5903">Creditor SP can initiate a Request for cancellation for technical reason</text><polygon fill="#181818" points="886,636.7891,896,640.7891,886,644.7891,890,640.7891" style="stroke:#181818;stroke-width:1.0;"/><line style="stroke:#181818;stroke-width:1.0;" x1="336" x2="892" y1="640.7891" y2="640.7891"/><text fill="#000000" font-family="sans-serif" font-size="13" lengthAdjust="spacing" textLength="489" x="343" y="635.7231">SEPA Request for Cancellation (reason:[AC02,AM09,BE16,DRTP,FRAD,TECH])</text><polygon fill="#181818" points="347,665.9219,337,669.9219,347,673.9219,343,669.9219" style="stroke:#181818;stroke-width:1.0;"/><line style="stroke:#181818;stroke-width:1.0;stroke-dasharray:2.0,2.0;" x1="341" x2="897" y1="669.9219" y2="669.9219"/><text fill="#000000" font-family="sans-serif" font-size="13" lengthAdjust="spacing" textLength="17" x="353" y="664.856">Ok</text><rect fill="#DDDDDD" height="42.5938" id="_legend" rx="7.5" ry="7.5" style="stroke:#000000;stroke-width:1.0;" width="723" x="148.75" y="54.2969"/><text fill="#000000" font-family="sans-serif" font-size="14" lengthAdjust="spacing" textLength="713" x="153.75" y="72.292">on onBoarding Process, a service provider shall declare pagoPA Channel that it will be used on payment</text><text fill="#000000" font-family="sans-serif" font-size="14" lengthAdjust="spacing" textLength="4" x="153.75" y="88.5889">&#160;</text><!--SRC=[fLDBRzim3BxhLn2vR07S8TrXm09aG1fds0vTZIItTXWOYOc5AP8doHwoNp_A3pHhqXuwNmnBvFSY7NKq16A1Lf8n-4SxIw0qr1R1Qrbg2X7JGOLxF92DJf1L4BisOMZVVhfAE0lEtZZqIjiz5Dv92Y43X42-qPAWygxHYZo44eq1HTAWfmJiYZaiIhIM3CGI8-W8lpNNR0dgG8g1kUoOw4MYxrd5cyBJWLbm2g907xNK5Te8eVf14Z30QDrp5ubRClV2azBHUHezxL2qlToIqxRl409D5C3F_TMdZcMQXB72jvuawIgEeRstBXAu9fdjgefEFdnpCO6NpBGbidrtzc1XNN0mhZOAg45J8mFe7ST1W_N7fWCgWksnlGmy5IYu6KDmKdERuknYcV1OEGll57MP3B9X-iZYwLVDKswhs1-CUYll_XtCR0OxD85WT8R7qKrXlUJYLOS5EwOTTYhoJgLyCF2RavX_pSS3H0hzwaJKtS_sXbgUGKTr9YJwcaQNRJLEgtECsSpMndGjl3gYlRmygM53Xcd8rWQWXTMcQ8sXFK9dv-akzBMzsJ7yHr9Jk9yl9k-p-UtaOtQplFwGvSoVvPl9TNPxbs-opNBnvJkybEIp9k749Qy9gmPjTKpBm__hgJ9vgYmTH9AbrHBDQGAljNZHuUVLFE_ClUZDghy0]--></g></svg>