<?xml version="1.0" encoding="us-ascii" standalone="no"?><svg xmlns="http://www.w3.org/2000/svg" xmlns:xlink="http://www.w3.org/1999/xlink" contentStyleType="text/css" height="1935.4167px" preserveAspectRatio="none" style="width:1913px;height:1935px;" version="1.1" viewBox="0 0 1913 1935" width="1913.5417px" zoomAndPan="magnify"><defs><linearGradient id="gwl111v5agd6p0" x1="50%" x2="50%" y1="0%" y2="100%"><stop offset="0%" stop-color="#FFFFFF"/><stop offset="100%" stop-color="#FFFFFF"/></linearGradient><filter height="300%" id="fwl111v5agd6p" width="300%" x="-1" y="-1"><feGaussianBlur result="blurOut" stdDeviation="2.0833333333333335"/><feColorMatrix in="blurOut" result="blurOut2" type="matrix" values="0 0 0 0 0 0 0 0 0 0 0 0 0 0 0 0 0 0 .4 0"/><feOffset dx="4.166666666666667" dy="4.166666666666667" in="blurOut2" result="blurOut3"/><feBlend in="SourceGraphic" in2="blurOut3" mode="normal"/></filter><linearGradient id="gwl111v5agd6p1" x1="50%" x2="50%" y1="0%" y2="100%"><stop offset="0%" stop-color="#4DABF5"/><stop offset="100%" stop-color="#2196F3"/></linearGradient><linearGradient id="gwl111v5agd6p2" x1="50%" x2="50%" y1="0%" y2="100%"><stop offset="0%" stop-color="#B052C0"/><stop offset="100%" stop-color="#9C27B0"/></linearGradient></defs><g><rect fill="url(#gwl111v5agd6p0)" height="57.5846" id="_title" rx="4.1667" ry="4.1667" style="stroke:#CCCCCC;stroke-width:1.0416666666666667;" width="478.125" x="719.0104" y="20.8333"/><text fill="#2196F3" font-family="Verdana" font-size="20.8333" font-weight="bold" lengthAdjust="spacing" textLength="444.7917" x="735.6771" y="56.838">RTP Activation API: POST /activations</text><rect fill="#FFFFFF" filter="url(#fwl111v5agd6p)" height="1558.2031" style="stroke:#CCCCCC;stroke-width:1.0416666666666667;" width="10.4167" x="889.0625" y="258.5286"/><rect fill="#FFFFFF" filter="url(#fwl111v5agd6p)" height="49.9674" style="stroke:#CCCCCC;stroke-width:1.0416666666666667;" width="10.4167" x="1440.1042" y="573.9258"/><rect fill="#FFFFFF" filter="url(#fwl111v5agd6p)" height="49.9674" style="stroke:#CCCCCC;stroke-width:1.0416666666666667;" width="10.4167" x="1440.1042" y="976.7578"/><rect fill="#98FB98" filter="url(#fwl111v5agd6p)" height="1397.8841" rx="4.1667" ry="4.1667" style="stroke:#2196F3;stroke-width:1.0416666666666667;" width="1876.5625" x="19.7917" y="411.556"/><path d="M19.7917,834.1471 L1896.3542,834.1471 L1896.3542,1292.1549 A4.1667,4.1667 0 0 1 1892.1875,1296.3216 L23.9583,1296.3216 A4.1667,4.1667 0 0 1 19.7917,1292.1549 L19.7917,834.1471 " fill="#FFFFE0" style="stroke:none;stroke-width:1.0416666666666667;"/><path d="M19.7917,1296.3216 L1896.3542,1296.3216 L1896.3542,1805.2734 A4.1667,4.1667 0 0 1 1892.1875,1809.4401 L23.9583,1809.4401 A4.1667,4.1667 0 0 1 19.7917,1805.2734 L19.7917,1296.3216 " fill="#8B0000" style="stroke:none;stroke-width:1.0416666666666667;"/><rect fill="url(#gwl111v5agd6p0)" filter="url(#fwl111v5agd6p)" height="295.5404" rx="4.1667" ry="4.1667" style="stroke:#2196F3;stroke-width:1.0416666666666667;" width="705.7292" x="325" y="1341.0807"/><rect fill="url(#gwl111v5agd6p0)" filter="url(#fwl111v5agd6p)" height="150.944" rx="4.1667" ry="4.1667" style="stroke:#2196F3;stroke-width:1.0416666666666667;" width="1339.0625" x="325" y="1651.2044"/><line style="stroke:#CCCCCC;stroke-width:1.0416666666666667;stroke-dasharray:5.0,5.0;" x1="437.5" x2="437.5" y1="191.9271" y2="1827.1484"/><line style="stroke:#CCCCCC;stroke-width:1.0416666666666667;stroke-dasharray:5.0,5.0;" x1="894.2708" x2="894.2708" y1="191.9271" y2="1827.1484"/><line style="stroke:#CCCCCC;stroke-width:1.0416666666666667;stroke-dasharray:5.0,5.0;" x1="1444.7917" x2="1444.7917" y1="191.9271" y2="1827.1484"/><text fill="#222222" font-family="Verdana" font-size="12.5" font-weight="bold" lengthAdjust="spacing" textLength="178.125" x="345.8333" y="178.5624">Payer's Service Provider</text><ellipse cx="438.0208" cy="99.2513" fill="url(#gwl111v5agd6p1)" filter="url(#fwl111v5agd6p)" rx="8.3333" ry="8.3333" style="stroke:#2196F3;stroke-width:1.0416666666666667;"/><path d="M438.0208,107.5846 L438.0208,135.7096 M424.4792,115.918 L451.5625,115.918 M438.0208,135.7096 L424.4792,151.3346 M438.0208,135.7096 L451.5625,151.3346 " fill="none" filter="url(#fwl111v5agd6p)" style="stroke:#2196F3;stroke-width:1.0416666666666667;"/><text fill="#222222" font-family="Verdana" font-size="12.5" font-weight="bold" lengthAdjust="spacing" textLength="178.125" x="345.8333" y="1848.1262">Payer's Service Provider</text><ellipse cx="438.0208" cy="1870.8659" fill="url(#gwl111v5agd6p1)" filter="url(#fwl111v5agd6p)" rx="8.3333" ry="8.3333" style="stroke:#2196F3;stroke-width:1.0416666666666667;"/><path d="M438.0208,1879.1992 L438.0208,1907.3242 M424.4792,1887.5326 L451.5625,1887.5326 M438.0208,1907.3242 L424.4792,1922.9492 M438.0208,1907.3242 L451.5625,1922.9492 " fill="none" filter="url(#fwl111v5agd6p)" style="stroke:#2196F3;stroke-width:1.0416666666666667;"/><rect fill="url(#gwl111v5agd6p1)" filter="url(#fwl111v5agd6p)" height="49.9674" rx="4.1667" ry="4.1667" style="stroke:#2196F3;stroke-width:1.0416666666666667;" width="165.625" x="809.8958" y="137.793"/><text fill="#FFFFFF" font-family="Verdana" font-size="12.5" font-weight="bold" lengthAdjust="spacing" textLength="130.2083" x="827.6042" y="167.1041">Activation Service</text><rect fill="url(#gwl111v5agd6p1)" filter="url(#fwl111v5agd6p)" height="49.9674" rx="4.1667" ry="4.1667" style="stroke:#2196F3;stroke-width:1.0416666666666667;" width="165.625" x="809.8958" y="1826.1068"/><text fill="#FFFFFF" font-family="Verdana" font-size="12.5" font-weight="bold" lengthAdjust="spacing" textLength="130.2083" x="827.6042" y="1855.4179">Activation Service</text><text fill="#222222" font-family="Verdana" font-size="12.5" font-weight="bold" lengthAdjust="spacing" textLength="71.875" x="1406.25" y="178.5624">Database</text><path d="M1426.5625,119.043 C1426.5625,108.6263 1445.3125,108.6263 1445.3125,108.6263 C1445.3125,108.6263 1464.0625,108.6263 1464.0625,119.043 L1464.0625,146.1263 C1464.0625,156.543 1445.3125,156.543 1445.3125,156.543 C1445.3125,156.543 1426.5625,156.543 1426.5625,146.1263 L1426.5625,119.043 " fill="url(#gwl111v5agd6p1)" filter="url(#fwl111v5agd6p)" style="stroke:#2196F3;stroke-width:1.5625;"/><path d="M1426.5625,119.043 C1426.5625,129.4596 1445.3125,129.4596 1445.3125,129.4596 C1445.3125,129.4596 1464.0625,129.4596 1464.0625,119.043 " fill="none" style="stroke:#2196F3;stroke-width:1.5625;"/><text fill="#222222" font-family="Verdana" font-size="12.5" font-weight="bold" lengthAdjust="spacing" textLength="71.875" x="1406.25" y="1848.1262">Database</text><path d="M1426.5625,1871.9076 C1426.5625,1861.4909 1445.3125,1861.4909 1445.3125,1861.4909 C1445.3125,1861.4909 1464.0625,1861.4909 1464.0625,1871.9076 L1464.0625,1898.9909 C1464.0625,1909.4076 1445.3125,1909.4076 1445.3125,1909.4076 C1445.3125,1909.4076 1426.5625,1909.4076 1426.5625,1898.9909 L1426.5625,1871.9076 " fill="url(#gwl111v5agd6p1)" filter="url(#fwl111v5agd6p)" style="stroke:#2196F3;stroke-width:1.5625;"/><path d="M1426.5625,1871.9076 C1426.5625,1882.3242 1445.3125,1882.3242 1445.3125,1882.3242 C1445.3125,1882.3242 1464.0625,1882.3242 1464.0625,1871.9076 " fill="none" style="stroke:#2196F3;stroke-width:1.5625;"/><rect fill="#FFFFFF" filter="url(#fwl111v5agd6p)" height="1558.2031" style="stroke:#CCCCCC;stroke-width:1.0416666666666667;" width="10.4167" x="889.0625" y="258.5286"/><rect fill="#FFFFFF" filter="url(#fwl111v5agd6p)" height="49.9674" style="stroke:#CCCCCC;stroke-width:1.0416666666666667;" width="10.4167" x="1440.1042" y="573.9258"/><rect fill="#FFFFFF" filter="url(#fwl111v5agd6p)" height="49.9674" style="stroke:#CCCCCC;stroke-width:1.0416666666666667;" width="10.4167" x="1440.1042" y="976.7578"/><polygon fill="#2196F3" points="876.5625,254.362,886.9792,258.5286,876.5625,262.6953,880.7292,258.5286" style="stroke:#2196F3;stroke-width:1.0416666666666667;"/><line style="stroke:#2196F3;stroke-width:3.125;" x1="438.0208" x2="882.8125" y1="258.5286" y2="258.5286"/><text fill="#222222" font-family="Verdana" font-size="12.5" font-weight="bold" lengthAdjust="spacing" textLength="18.75" x="455.7292" y="235.8053">[1]</text><text fill="#222222" font-family="Verdana" font-size="12.5" font-weight="bold" lengthAdjust="spacing" textLength="38.5417" x="499.4792" y="228.5299">POST</text><text fill="#222222" font-family="Verdana" font-size="12.5" lengthAdjust="spacing" textLength="75" x="542.1875" y="228.5299">/activations</text><text fill="#222222" font-family="Verdana" font-size="12.5" lengthAdjust="spacing" textLength="165.625" x="499.4792" y="243.0806">(Activate RTP for a Payer)</text><path d="M904.1667,276.237 L904.1667,327.2786 A4.1667,4.1667 0 0 0 908.3333,331.4453 L1333.3333,331.4453 A4.1667,4.1667 0 0 0 1337.5,327.2786 L1337.5,282.487 L1327.0833,272.0703 L908.3333,272.0703 A4.1667,4.1667 0 0 0 904.1667,276.237 " fill="url(#gwl111v5agd6p2)" filter="url(#fwl111v5agd6p)" style="stroke:#9C27B0;stroke-width:1.0416666666666667;"/><path d="M1327.0833,272.0703 L1327.0833,280.4036 A2.0833,2.0833 0 0 0 1329.1667,282.487 L1337.5,282.487 L1327.0833,272.0703 " fill="url(#gwl111v5agd6p2)" style="stroke:#9C27B0;stroke-width:1.0416666666666667;"/><text fill="#FFFFFF" font-family="Verdana" font-size="12.5" font-weight="bold" lengthAdjust="spacing" textLength="80.2083" x="920.8333" y="299.2981">Operation:</text><text fill="#FFFFFF" font-family="Verdana" font-size="12.5" lengthAdjust="spacing" textLength="101.0417" x="1005.2083" y="299.2981">`activatePayer`</text><text fill="#FFFFFF" font-family="Verdana" font-size="12.5" lengthAdjust="spacing" textLength="390.625" x="920.8333" y="313.8489">A Payer's SP calls this to register a user for the RTP service.</text><line style="stroke:#2196F3;stroke-width:3.125;" x1="899.4792" x2="943.2292" y1="382.3893" y2="382.3893"/><line style="stroke:#2196F3;stroke-width:3.125;" x1="943.2292" x2="943.2292" y1="382.3893" y2="395.931"/><line style="stroke:#2196F3;stroke-width:3.125;" x1="900.5208" x2="943.2292" y1="395.931" y2="395.931"/><polygon fill="#2196F3" points="910.9375,391.7643,900.5208,395.931,910.9375,400.0977,906.7708,395.931" style="stroke:#2196F3;stroke-width:1.0416666666666667;"/><text fill="#222222" font-family="Verdana" font-size="12.5" font-weight="bold" lengthAdjust="spacing" textLength="18.75" x="917.1875" y="366.9413">[2]</text><text fill="#222222" font-family="Verdana" font-size="12.5" lengthAdjust="spacing" textLength="226.0417" x="960.9375" y="366.9413">Validate Request &amp; Security Token</text><path d="M23.9583,411.556 L107.2917,411.556 L107.2917,438.6068 L96.875,449.0234 L19.7917,449.0234 L19.7917,415.7227 A4.1667,4.1667 0 0 1 23.9583,411.556 " fill="#FFFFFF" style="stroke:#666666;stroke-width:1.0416666666666667;"/><rect fill="none" height="1397.8841" rx="4.1667" ry="4.1667" style="stroke:#2196F3;stroke-width:1.0416666666666667;" width="1876.5625" x="19.7917" y="411.556"/><text fill="#9C27B0" font-family="Verdana" font-size="12.5" font-weight="bold" lengthAdjust="spacing" textLength="19.7917" x="45.8333" y="434.6171">alt</text><text fill="#222222" font-family="Verdana" font-size="12.5" font-weight="bold" lengthAdjust="spacing" textLength="5.2083" x="133.3333" y="435.6588">[</text><text fill="#222222" font-family="Verdana" font-size="12.5" font-weight="bold" lengthAdjust="spacing" textLength="245.8333" x="138.5417" y="435.6588">Success Case: Activation Created</text><text fill="#222222" font-family="Verdana" font-size="12.5" font-weight="bold" lengthAdjust="spacing" textLength="5.2083" x="384.375" y="435.6588">]</text><line style="stroke:#2196F3;stroke-width:3.125;" x1="899.4792" x2="943.2292" y1="510.4167" y2="510.4167"/><line style="stroke:#2196F3;stroke-width:3.125;" x1="943.2292" x2="943.2292" y1="510.4167" y2="523.9583"/><line style="stroke:#2196F3;stroke-width:3.125;" x1="900.5208" x2="943.2292" y1="523.9583" y2="523.9583"/><polygon fill="#2196F3" points="910.9375,519.7917,900.5208,523.9583,910.9375,528.125,906.7708,523.9583" style="stroke:#2196F3;stroke-width:1.0416666666666667;"/><text fill="#222222" font-family="Verdana" font-size="12.5" font-weight="bold" lengthAdjust="spacing" textLength="18.75" x="917.1875" y="494.9687">[3]</text><text fill="#222222" font-family="Verdana" font-size="12.5" lengthAdjust="spacing" textLength="461.4583" x="960.9375" y="494.9687">Create `Payer` object with a new `ActivationID` and current timestamp</text><path d="M1444.7917,480.2409 L1444.7917,516.6992 A4.1667,4.1667 0 0 0 1448.9583,520.8659 L1867.7083,520.8659 A4.1667,4.1667 0 0 0 1871.875,516.6992 L1871.875,486.4909 L1861.4583,476.0742 L1448.9583,476.0742 A4.1667,4.1667 0 0 0 1444.7917,480.2409 " fill="url(#gwl111v5agd6p2)" filter="url(#fwl111v5agd6p)" style="stroke:#9C27B0;stroke-width:1.0416666666666667;"/><path d="M1861.4583,476.0742 L1861.4583,484.4076 A2.0833,2.0833 0 0 0 1863.5417,486.4909 L1871.875,486.4909 L1861.4583,476.0742 " fill="url(#gwl111v5agd6p2)" style="stroke:#9C27B0;stroke-width:1.0416666666666667;"/><text fill="#FFFFFF" font-family="Verdana" font-size="12.5" lengthAdjust="spacing" textLength="384.375" x="1461.4583" y="503.302">As per `new Payer(activationID, serviceProviderDebtor, ...)`</text><polygon fill="#2196F3" points="1427.6042,569.7591,1438.0208,573.9258,1427.6042,578.0924,1431.7708,573.9258" style="stroke:#2196F3;stroke-width:1.0416666666666667;"/><line style="stroke:#2196F3;stroke-width:3.125;" x1="899.4792" x2="1433.8542" y1="573.9258" y2="573.9258"/><text fill="#222222" font-family="Verdana" font-size="12.5" font-weight="bold" lengthAdjust="spacing" textLength="18.75" x="917.1875" y="558.4778">[4]</text><text fill="#222222" font-family="Verdana" font-size="12.5" lengthAdjust="spacing" textLength="89.5833" x="960.9375" y="558.4778">`save(payer)`</text><polygon fill="#2196F3" points="910.9375,619.7266,900.5208,623.8932,910.9375,628.0599,906.7708,623.8932" style="stroke:#2196F3;stroke-width:1.0416666666666667;"/><line style="stroke:#2196F3;stroke-width:3.125;stroke-dasharray:2.0,2.0;" x1="904.6875" x2="1444.2708" y1="623.8932" y2="623.8932"/><text fill="#222222" font-family="Verdana" font-size="12.5" font-weight="bold" lengthAdjust="spacing" textLength="18.75" x="927.6042" y="608.4452">[5]</text><text fill="#222222" font-family="Verdana" font-size="12.5" lengthAdjust="spacing" textLength="161.4583" x="971.3542" y="608.4452">Payer saved successfully</text><line style="stroke:#2196F3;stroke-width:3.125;" x1="899.4792" x2="943.2292" y1="673.8607" y2="673.8607"/><line style="stroke:#2196F3;stroke-width:3.125;" x1="943.2292" x2="943.2292" y1="673.8607" y2="687.4023"/><line style="stroke:#2196F3;stroke-width:3.125;" x1="900.5208" x2="943.2292" y1="687.4023" y2="687.4023"/><polygon fill="#2196F3" points="910.9375,683.2357,900.5208,687.4023,910.9375,691.569,906.7708,687.4023" style="stroke:#2196F3;stroke-width:1.0416666666666667;"/><text fill="#222222" font-family="Verdana" font-size="12.5" font-weight="bold" lengthAdjust="spacing" textLength="18.75" x="917.1875" y="658.4127">[6]</text><text fill="#222222" font-family="Verdana" font-size="12.5" lengthAdjust="spacing" textLength="163.5417" x="960.9375" y="658.4127">Log successful activation</text><path d="M1146.875,643.6849 L1146.875,680.1432 A4.1667,4.1667 0 0 0 1151.0417,684.3099 L1359.375,684.3099 A4.1667,4.1667 0 0 0 1363.5417,680.1432 L1363.5417,649.9349 L1353.125,639.5182 L1151.0417,639.5182 A4.1667,4.1667 0 0 0 1146.875,643.6849 " fill="url(#gwl111v5agd6p2)" filter="url(#fwl111v5agd6p)" style="stroke:#9C27B0;stroke-width:1.0416666666666667;"/><path d="M1353.125,639.5182 L1353.125,647.8516 A2.0833,2.0833 0 0 0 1355.2083,649.9349 L1363.5417,649.9349 L1353.125,639.5182 " fill="url(#gwl111v5agd6p2)" style="stroke:#9C27B0;stroke-width:1.0416666666666667;"/><text fill="#FFFFFF" font-family="Verdana" font-size="12.5" lengthAdjust="spacing" textLength="173.9583" x="1163.5417" y="666.746">As per `.doOnSuccess(...)`</text><polygon fill="#2196F3" points="449.4792,747.7539,439.0625,751.9206,449.4792,756.0872,445.3125,751.9206" style="stroke:#2196F3;stroke-width:1.0416666666666667;"/><line style="stroke:#2196F3;stroke-width:3.125;stroke-dasharray:2.0,2.0;" x1="443.2292" x2="888.0208" y1="751.9206" y2="751.9206"/><text fill="#222222" font-family="Verdana" font-size="12.5" font-weight="bold" lengthAdjust="spacing" textLength="18.75" x="466.1458" y="729.1972">[7]</text><text fill="#222222" font-family="Verdana" font-size="12.5" font-weight="bold" lengthAdjust="spacing" textLength="88.5417" x="509.8958" y="721.9218">201 Created</text><text fill="#222222" font-family="Verdana" font-size="12.5" lengthAdjust="spacing" textLength="329.1667" x="509.8958" y="736.4726">Header: `Location: /activations/{newActivationId}`</text><path d="M172.9167,769.6289 L172.9167,820.6706 A4.1667,4.1667 0 0 0 177.0833,824.8372 L425,824.8372 A4.1667,4.1667 0 0 0 429.1667,820.6706 L429.1667,775.8789 L418.75,765.4622 L177.0833,765.4622 A4.1667,4.1667 0 0 0 172.9167,769.6289 " fill="url(#gwl111v5agd6p2)" filter="url(#fwl111v5agd6p)" style="stroke:#9C27B0;stroke-width:1.0416666666666667;"/><path d="M418.75,765.4622 L418.75,773.7956 A2.0833,2.0833 0 0 0 420.8333,775.8789 L429.1667,775.8789 L418.75,765.4622 " fill="url(#gwl111v5agd6p2)" style="stroke:#9C27B0;stroke-width:1.0416666666666667;"/><text fill="#FFFFFF" font-family="Verdana" font-size="12.5" lengthAdjust="spacing" textLength="197.9167" x="189.5833" y="792.69">The activation was successful.</text><text fill="#FFFFFF" font-family="Verdana" font-size="12.5" lengthAdjust="spacing" textLength="213.5417" x="189.5833" y="807.2408">The Payer can now receive RTPs.</text><line style="stroke:#2196F3;stroke-width:1.0416666666666667;stroke-dasharray:2.0,2.0;" x1="19.7917" x2="1896.3542" y1="835.1888" y2="835.1888"/><text fill="#222222" font-family="Verdana" font-size="12.5" font-weight="bold" lengthAdjust="spacing" textLength="5.2083" x="35.4167" y="857.2083">[</text><text fill="#222222" font-family="Verdana" font-size="12.5" font-weight="bold" lengthAdjust="spacing" textLength="214.5833" x="40.625" y="857.2083">Conflict: Payer Already Exists</text><text fill="#222222" font-family="Verdana" font-size="12.5" font-weight="bold" lengthAdjust="spacing" textLength="5.2083" x="255.2083" y="857.2083">]</text><line style="stroke:#2196F3;stroke-width:3.125;" x1="899.4792" x2="943.2292" y1="913.2487" y2="913.2487"/><line style="stroke:#2196F3;stroke-width:3.125;" x1="943.2292" x2="943.2292" y1="913.2487" y2="926.7904"/><line style="stroke:#2196F3;stroke-width:3.125;" x1="900.5208" x2="943.2292" y1="926.7904" y2="926.7904"/><polygon fill="#2196F3" points="910.9375,922.6237,900.5208,926.7904,910.9375,930.957,906.7708,926.7904" style="stroke:#2196F3;stroke-width:1.0416666666666667;"/><text fill="#222222" font-family="Verdana" font-size="12.5" font-weight="bold" lengthAdjust="spacing" textLength="18.75" x="917.1875" y="897.8007">[8]</text><text fill="#222222" font-family="Verdana" font-size="12.5" lengthAdjust="spacing" textLength="461.4583" x="960.9375" y="897.8007">Create `Payer` object with a new `ActivationID` and current timestamp</text><polygon fill="#2196F3" points="1427.6042,972.5911,1438.0208,976.7578,1427.6042,980.9245,1431.7708,976.7578" style="stroke:#2196F3;stroke-width:1.0416666666666667;"/><line style="stroke:#2196F3;stroke-width:3.125;" x1="899.4792" x2="1433.8542" y1="976.7578" y2="976.7578"/><text fill="#222222" font-family="Verdana" font-size="12.5" font-weight="bold" lengthAdjust="spacing" textLength="18.75" x="917.1875" y="961.3098">[9]</text><text fill="#222222" font-family="Verdana" font-size="12.5" lengthAdjust="spacing" textLength="89.5833" x="960.9375" y="961.3098">`save(payer)`</text><polygon fill="#2196F3" points="910.9375,1022.5586,900.5208,1026.7253,910.9375,1030.8919,906.7708,1026.7253" style="stroke:#2196F3;stroke-width:1.0416666666666667;"/><line style="stroke:#2196F3;stroke-width:3.125;stroke-dasharray:2.0,2.0;" x1="904.6875" x2="1444.2708" y1="1026.7253" y2="1026.7253"/><text fill="#222222" font-family="Verdana" font-size="12.5" font-weight="bold" lengthAdjust="spacing" textLength="27.0833" x="927.6042" y="1011.2773">[10]</text><text fill="#222222" font-family="Verdana" font-size="12.5" font-weight="bold" lengthAdjust="spacing" textLength="41.6667" x="979.6875" y="1011.2773">Error:</text><text fill="#222222" font-family="Verdana" font-size="12.5" lengthAdjust="spacing" textLength="159.375" x="1025.5208" y="1011.2773">`DuplicateKeyException`</text><path d="M904.1667,1044.4336 L904.1667,1080.8919 A4.1667,4.1667 0 0 0 908.3333,1085.0586 L1429.1667,1085.0586 A4.1667,4.1667 0 0 0 1433.3333,1080.8919 L1433.3333,1050.6836 L1422.9167,1040.2669 L908.3333,1040.2669 A4.1667,4.1667 0 0 0 904.1667,1044.4336 " fill="url(#gwl111v5agd6p2)" filter="url(#fwl111v5agd6p)" style="stroke:#9C27B0;stroke-width:1.0416666666666667;"/><path d="M1422.9167,1040.2669 L1422.9167,1048.6003 A2.0833,2.0833 0 0 0 1425,1050.6836 L1433.3333,1050.6836 L1422.9167,1040.2669 " fill="url(#gwl111v5agd6p2)" style="stroke:#9C27B0;stroke-width:1.0416666666666667;"/><text fill="#FFFFFF" font-family="Verdana" font-size="12.5" lengthAdjust="spacing" textLength="486.4583" x="920.8333" y="1067.4947">A unique key constraint (e.g., on fiscalCode) was violated in the database.</text><line style="stroke:#2196F3;stroke-width:3.125;" x1="899.4792" x2="943.2292" y1="1136.0352" y2="1136.0352"/><line style="stroke:#2196F3;stroke-width:3.125;" x1="943.2292" x2="943.2292" y1="1136.0352" y2="1149.5768"/><line style="stroke:#2196F3;stroke-width:3.125;" x1="900.5208" x2="943.2292" y1="1149.5768" y2="1149.5768"/><polygon fill="#2196F3" points="910.9375,1145.4102,900.5208,1149.5768,910.9375,1153.7435,906.7708,1149.5768" style="stroke:#2196F3;stroke-width:1.0416666666666667;"/><text fill="#222222" font-family="Verdana" font-size="12.5" font-weight="bold" lengthAdjust="spacing" textLength="27.0833" x="917.1875" y="1120.5872">[11]</text><text fill="#222222" font-family="Verdana" font-size="12.5" lengthAdjust="spacing" textLength="383.3333" x="969.2708" y="1120.5872">Map `DuplicateKeyException` to `PayerAlreadyExists` error</text><path d="M1375,1105.8594 L1375,1142.3177 A4.1667,4.1667 0 0 0 1379.1667,1146.4844 L1575,1146.4844 A4.1667,4.1667 0 0 0 1579.1667,1142.3177 L1579.1667,1112.1094 L1568.75,1101.6927 L1379.1667,1101.6927 A4.1667,4.1667 0 0 0 1375,1105.8594 " fill="url(#gwl111v5agd6p2)" filter="url(#fwl111v5agd6p)" style="stroke:#9C27B0;stroke-width:1.0416666666666667;"/><path d="M1568.75,1101.6927 L1568.75,1110.026 A2.0833,2.0833 0 0 0 1570.8333,1112.1094 L1579.1667,1112.1094 L1568.75,1101.6927 " fill="url(#gwl111v5agd6p2)" style="stroke:#9C27B0;stroke-width:1.0416666666666667;"/><text fill="#FFFFFF" font-family="Verdana" font-size="12.5" lengthAdjust="spacing" textLength="161.4583" x="1391.6667" y="1128.9205">As per `.onErrorMap(...)`</text><polygon fill="#2196F3" points="449.4792,1209.9284,439.0625,1214.0951,449.4792,1218.2617,445.3125,1214.0951" style="stroke:#2196F3;stroke-width:1.0416666666666667;"/><line style="stroke:#2196F3;stroke-width:3.125;stroke-dasharray:2.0,2.0;" x1="443.2292" x2="888.0208" y1="1214.0951" y2="1214.0951"/><text fill="#222222" font-family="Verdana" font-size="12.5" font-weight="bold" lengthAdjust="spacing" textLength="27.0833" x="466.1458" y="1191.3717">[12]</text><text fill="#222222" font-family="Verdana" font-size="12.5" font-weight="bold" lengthAdjust="spacing" textLength="84.375" x="518.2292" y="1184.0963">409 Conflict</text><text fill="#222222" font-family="Verdana" font-size="12.5" lengthAdjust="spacing" textLength="353.125" x="518.2292" y="1198.6471">Header: `Location: /activations/{existingActivationId}`</text><path d="M30.2083,1231.8034 L30.2083,1282.8451 A4.1667,4.1667 0 0 0 34.375,1287.0117 L425,1287.0117 A4.1667,4.1667 0 0 0 429.1667,1282.8451 L429.1667,1238.0534 L418.75,1227.6367 L34.375,1227.6367 A4.1667,4.1667 0 0 0 30.2083,1231.8034 " fill="url(#gwl111v5agd6p2)" filter="url(#fwl111v5agd6p)" style="stroke:#9C27B0;stroke-width:1.0416666666666667;"/><path d="M418.75,1227.6367 L418.75,1235.9701 A2.0833,2.0833 0 0 0 420.8333,1238.0534 L429.1667,1238.0534 L418.75,1227.6367 " fill="url(#gwl111v5agd6p2)" style="stroke:#9C27B0;stroke-width:1.0416666666666667;"/><text fill="#FFFFFF" font-family="Verdana" font-size="12.5" lengthAdjust="spacing" textLength="272.9167" x="46.875" y="1254.8645">An activation for this Payer already exists.</text><text fill="#FFFFFF" font-family="Verdana" font-size="12.5" lengthAdjust="spacing" textLength="356.25" x="46.875" y="1269.4153">The `Location` header points to the existing resource.</text><line style="stroke:#2196F3;stroke-width:1.0416666666666667;stroke-dasharray:2.0,2.0;" x1="19.7917" x2="1896.3542" y1="1297.3633" y2="1297.3633"/><text fill="#222222" font-family="Verdana" font-size="12.5" font-weight="bold" lengthAdjust="spacing" textLength="5.2083" x="35.4167" y="1319.3827">[</text><text fill="#222222" font-family="Verdana" font-size="12.5" font-weight="bold" lengthAdjust="spacing" textLength="91.6667" x="40.625" y="1319.3827">Other Errors</text><text fill="#222222" font-family="Verdana" font-size="12.5" font-weight="bold" lengthAdjust="spacing" textLength="5.2083" x="132.2917" y="1319.3827">]</text><path d="M329.1667,1341.0807 L521.875,1341.0807 L521.875,1368.1315 L511.4583,1378.5482 L325,1378.5482 L325,1345.2474 A4.1667,4.1667 0 0 1 329.1667,1341.0807 " fill="#FFFFFF" style="stroke:#666666;stroke-width:1.0416666666666667;"/><rect fill="none" height="295.5404" rx="4.1667" ry="4.1667" style="stroke:#2196F3;stroke-width:1.0416666666666667;" width="705.7292" x="325" y="1341.0807"/><text fill="#9C27B0" font-family="Verdana" font-size="12.5" font-weight="bold" lengthAdjust="spacing" textLength="129.1667" x="351.0417" y="1364.1418">Client-Side Errors</text><polygon fill="#2196F3" points="449.4792,1430.5664,439.0625,1434.7331,449.4792,1438.8997,445.3125,1434.7331" style="stroke:#2196F3;stroke-width:1.0416666666666667;"/><line style="stroke:#2196F3;stroke-width:3.125;stroke-dasharray:2.0,2.0;" x1="443.2292" x2="888.0208" y1="1434.7331" y2="1434.7331"/><text fill="#222222" font-family="Verdana" font-size="12.5" font-weight="bold" lengthAdjust="spacing" textLength="27.0833" x="466.1458" y="1412.0097">[13]</text><text fill="#222222" font-family="Verdana" font-size="12.5" font-weight="bold" lengthAdjust="spacing" textLength="122.9167" x="518.2292" y="1404.7343">400 Bad Request</text><text fill="#222222" font-family="Verdana" font-size="12.5" lengthAdjust="spacing" textLength="254.1667" x="518.2292" y="1419.2851">(e.g., Invalid fiscal code, missing fields)</text><polygon fill="#2196F3" points="449.4792,1495.0846,439.0625,1499.2513,449.4792,1503.418,445.3125,1499.2513" style="stroke:#2196F3;stroke-width:1.0416666666666667;"/><line style="stroke:#2196F3;stroke-width:3.125;stroke-dasharray:2.0,2.0;" x1="443.2292" x2="888.0208" y1="1499.2513" y2="1499.2513"/><text fill="#222222" font-family="Verdana" font-size="12.5" font-weight="bold" lengthAdjust="spacing" textLength="27.0833" x="466.1458" y="1476.5279">[14]</text><text fill="#222222" font-family="Verdana" font-size="12.5" font-weight="bold" lengthAdjust="spacing" textLength="130.2083" x="518.2292" y="1469.2525">401 Unauthorized</text><text fill="#222222" font-family="Verdana" font-size="12.5" lengthAdjust="spacing" textLength="251.0417" x="518.2292" y="1483.8033">(e.g., Invalid or expired security token)</text><polygon fill="#2196F3" points="449.4792,1559.6029,439.0625,1563.7695,449.4792,1567.9362,445.3125,1563.7695" style="stroke:#2196F3;stroke-width:1.0416666666666667;"/><line style="stroke:#2196F3;stroke-width:3.125;stroke-dasharray:2.0,2.0;" x1="443.2292" x2="888.0208" y1="1563.7695" y2="1563.7695"/><text fill="#222222" font-family="Verdana" font-size="12.5" font-weight="bold" lengthAdjust="spacing" textLength="27.0833" x="466.1458" y="1541.0461">[15]</text><text fill="#222222" font-family="Verdana" font-size="12.5" font-weight="bold" lengthAdjust="spacing" textLength="104.1667" x="518.2292" y="1533.7708">403 Forbidden</text><text fill="#222222" font-family="Verdana" font-size="12.5" lengthAdjust="spacing" textLength="196.875" x="518.2292" y="1548.3215">(e.g., Insufficient permissions)</text><polygon fill="#2196F3" points="449.4792,1624.1211,439.0625,1628.2878,449.4792,1632.4544,445.3125,1628.2878" style="stroke:#2196F3;stroke-width:1.0416666666666667;"/><line style="stroke:#2196F3;stroke-width:3.125;stroke-dasharray:2.0,2.0;" x1="443.2292" x2="888.0208" y1="1628.2878" y2="1628.2878"/><text fill="#222222" font-family="Verdana" font-size="12.5" font-weight="bold" lengthAdjust="spacing" textLength="27.0833" x="466.1458" y="1605.5644">[16]</text><text fill="#222222" font-family="Verdana" font-size="12.5" font-weight="bold" lengthAdjust="spacing" textLength="173.9583" x="518.2292" y="1598.289">429 Too Many Requests</text><text fill="#222222" font-family="Verdana" font-size="12.5" lengthAdjust="spacing" textLength="171.875" x="518.2292" y="1612.8398">(e.g., Rate limit exceeded)</text><path d="M329.1667,1651.2044 L518.75,1651.2044 L518.75,1678.2552 L508.3333,1688.6719 L325,1688.6719 L325,1655.3711 A4.1667,4.1667 0 0 1 329.1667,1651.2044 " fill="#FFFFFF" style="stroke:#666666;stroke-width:1.0416666666666667;"/><rect fill="none" height="150.944" rx="4.1667" ry="4.1667" style="stroke:#2196F3;stroke-width:1.0416666666666667;" width="1339.0625" x="325" y="1651.2044"/><text fill="#9C27B0" font-family="Verdana" font-size="12.5" font-weight="bold" lengthAdjust="spacing" textLength="126.0417" x="351.0417" y="1674.2655">Server-Side Error</text><line style="stroke:#2196F3;stroke-width:3.125;" x1="899.4792" x2="943.2292" y1="1730.306" y2="1730.306"/><line style="stroke:#2196F3;stroke-width:3.125;" x1="943.2292" x2="943.2292" y1="1730.306" y2="1743.8477"/><line style="stroke:#2196F3;stroke-width:3.125;" x1="900.5208" x2="943.2292" y1="1743.8477" y2="1743.8477"/><polygon fill="#2196F3" points="910.9375,1739.681,900.5208,1743.8477,910.9375,1748.0143,906.7708,1743.8477" style="stroke:#2196F3;stroke-width:1.0416666666666667;"/><text fill="#222222" font-family="Verdana" font-size="12.5" font-weight="bold" lengthAdjust="spacing" textLength="27.0833" x="917.1875" y="1714.858">[17]</text><text fill="#222222" font-family="Verdana" font-size="12.5" lengthAdjust="spacing" textLength="236.4583" x="969.2708" y="1714.858">An unexpected internal error occurs</text><path d="M1228.125,1700.1302 L1228.125,1736.5885 A4.1667,4.1667 0 0 0 1232.2917,1740.7552 L1635.4167,1740.7552 A4.1667,4.1667 0 0 0 1639.5833,1736.5885 L1639.5833,1706.3802 L1629.1667,1695.9635 L1232.2917,1695.9635 A4.1667,4.1667 0 0 0 1228.125,1700.1302 " fill="url(#gwl111v5agd6p2)" filter="url(#fwl111v5agd6p)" style="stroke:#9C27B0;stroke-width:1.0416666666666667;"/><path d="M1629.1667,1695.9635 L1629.1667,1704.2969 A2.0833,2.0833 0 0 0 1631.25,1706.3802 L1639.5833,1706.3802 L1629.1667,1695.9635 " fill="url(#gwl111v5agd6p2)" style="stroke:#9C27B0;stroke-width:1.0416666666666667;"/><text fill="#FFFFFF" font-family="Verdana" font-size="12.5" lengthAdjust="spacing" textLength="368.75" x="1244.7917" y="1723.1913">e.g., Database connection failure, unhandled exception.</text><polygon fill="#2196F3" points="449.4792,1789.6484,439.0625,1793.8151,449.4792,1797.9818,445.3125,1793.8151" style="stroke:#2196F3;stroke-width:1.0416666666666667;"/><line style="stroke:#2196F3;stroke-width:3.125;stroke-dasharray:2.0,2.0;" x1="443.2292" x2="888.0208" y1="1793.8151" y2="1793.8151"/><text fill="#222222" font-family="Verdana" font-size="12.5" font-weight="bold" lengthAdjust="spacing" textLength="27.0833" x="466.1458" y="1778.3671">[18]</text><text fill="#222222" font-family="Verdana" font-size="12.5" font-weight="bold" lengthAdjust="spacing" textLength="180.2083" x="518.2292" y="1778.3671">500 Internal Server Error</text><!--SRC=[jLRHRkCs47pNLsnpG2yH4bqkRH_EA0vmuXHDcqECi-zUUWL4IskR3Ksg9EN4BVhl7LAIBHinqAAedsIHd9sTdLtnDOsLqFxJXtiQIR6mOaLpO-dZT4p3mikryD9e6exlajSqbLxnW3vfEPTS7kwPyEyrwu8x71pupDPXQK1NsMLsYHSZTeMLbOylfqlfg6o3kgLvSkINJ2Lx8HNmAsiATYxo4MqSlI11Ox5XUmwulTzAFeVb006wv2ekmBDeo3r9lunB0Ag5ef_4Mf1ZkvOWhCn25bcIV8KDAwQLy6obI18Vydr1YW6D7oPJUYEsRrsIu0zudgHfPFVQGOy6VMpDMfPiq_I4XAFnP9nKmdfPo0h2XnDx8iP3xTxX92c55pFXEEmRjS_jwkWQKMjlTBsQCK9_Ftl_o-Ml9qc247Jn7gS713gWcgPxPB_eqpPaarqKk57rB17T2e8dsk31oiNIavc7DmJ4Xufj11e0D-_sn-CvDWnfgy2O2g5KA2igxGrPNaW7SH6jXlWnS2XA8D4M8qjObnJY9ibmqgNnMIXPHhh1PCxJrr2ggAtq6vgQHzPGGdbwLGd52ykiGNDI5z4-Dr1iqA_WZML0bMcQ9C4tkoZD0kLDAcHclt7X6-i8qln4-GxbRfIJ05EGi8moUha2Bx6g8kPEDqHs1C4e3m0H-LJqKCwxn3kRZ7W68vrJbcLdUP_Xw7f0kHDhFgrYfVAujYqNt13-Zwxfeaqd1gDmeYJNY36lbTh4VINtJnu8SMyMlHEqutiqkQmq3xfL_FI0Ea3XoE35gyktE_M_w1zP865aTM-QDXtisVJDdv2iftZvLxwBhtWUFHdQgPi0qwQ_kpe_eKTsMMHxsnfj2g61zWHV5YpNqOUksRSp8IiqtoiLqjsmKjYTfZT6pvKiVAVnK26fSaEtpx2t-x-CzL-yaAQtrXeREtPKLohCHVwPDxVF1STndB_WYlrYDnC09QTQItGXFVA62jJ9Mo51z9IpHNPE47uk7Vh-nfHy5ekmbaQ5cfFKpOHlvrXsgDC7KHsZ5yP7eryhTgDrJXpoEkvBesFYG3vkosyltr5Nqd_aImwnyR7vD-OSwhutcyc7gTWOIBG6Yi1ktwfR5Zaj8p6g3FIE0pMesP61YvsfRHYXBpcu5FRHeWQOtpXbASgozUh2chgY6oLXkOi9vb2xlgD_eDWbNOko6yT1jBRyTteTPdNh0VYZv7DycfqB375jKAKxEmhw5dSBVD6Mnie_cX5nW0hL-BcI8G_NpNyVvlznp6_e1sDdiYnPxm6wUexRGSWtE2KoH6sFubozmuV6mA5wqsNjUdWVGyiekP8U10lcaikpRHcYk7sTmrUURK_dlQXDBy0ljKQoc1InS_3Pr10qsfrCWUHtnUaxl-7JNHL2Wsf0HC_XMbLRbAFMIqoOSCNYhh-o8tb_XqBVTR4RsWrZ6ESWFJmcIM-0uBRmDm00]--></g></svg>