<?xml version="1.0" encoding="us-ascii" standalone="no"?><svg xmlns="http://www.w3.org/2000/svg" xmlns:xlink="http://www.w3.org/1999/xlink" contentStyleType="text/css" height="2057.2917px" preserveAspectRatio="none" style="width:1645px;height:2057px;" version="1.1" viewBox="0 0 1645 2057" width="1645.8333px" zoomAndPan="magnify"><defs><linearGradient id="g1karzodik5nb50" x1="50%" x2="50%" y1="0%" y2="100%"><stop offset="0%" stop-color="#FFFFFF"/><stop offset="100%" stop-color="#FFFFFF"/></linearGradient><filter height="300%" id="f1karzodik5nb5" width="300%" x="-1" y="-1"><feGaussianBlur result="blurOut" stdDeviation="2.0833333333333335"/><feColorMatrix in="blurOut" result="blurOut2" type="matrix" values="0 0 0 0 0 0 0 0 0 0 0 0 0 0 0 0 0 0 .4 0"/><feOffset dx="4.166666666666667" dy="4.166666666666667" in="blurOut2" result="blurOut3"/><feBlend in="SourceGraphic" in2="blurOut3" mode="normal"/></filter><linearGradient id="g1karzodik5nb51" x1="50%" x2="50%" y1="0%" y2="100%"><stop offset="0%" stop-color="#4DABF5"/><stop offset="100%" stop-color="#2196F3"/></linearGradient><linearGradient id="g1karzodik5nb52" x1="50%" x2="50%" y1="0%" y2="100%"><stop offset="0%" stop-color="#B052C0"/><stop offset="100%" stop-color="#9C27B0"/></linearGradient></defs><g><rect fill="url(#g1karzodik5nb50)" height="57.5846" id="_title" rx="4.1667" ry="4.1667" style="stroke:#CCCCCC;stroke-width:1.0416666666666667;" width="478.125" x="586.4583" y="20.8333"/><text fill="#2196F3" font-family="Verdana" font-size="20.8333" font-weight="bold" lengthAdjust="spacing" textLength="444.7917" x="603.125" y="56.838">RTP Activation API: POST /activations</text><rect fill="#FFFFFF" filter="url(#f1karzodik5nb5)" height="1681.0221" style="stroke:#CCCCCC;stroke-width:1.0416666666666667;" width="10.4167" x="870.3125" y="258.5286"/><rect fill="#98FB98" filter="url(#f1karzodik5nb5)" height="1584.2122" rx="4.1667" ry="4.1667" style="stroke:#2196F3;stroke-width:1.0416666666666667;" width="1290.625" x="19.7917" y="348.0469"/><path d="M19.7917,793.5547 L1310.4167,793.5547 L1310.4167,1151.6276 A4.1667,4.1667 0 0 1 1306.25,1155.7943 L23.9583,1155.7943 A4.1667,4.1667 0 0 1 19.7917,1151.6276 L19.7917,793.5547 " fill="#FFFFE0" style="stroke:none;stroke-width:1.0416666666666667;"/><path d="M19.7917,1155.7943 L1310.4167,1155.7943 L1310.4167,1717.806 A4.1667,4.1667 0 0 1 1306.25,1721.9727 L23.9583,1721.9727 A4.1667,4.1667 0 0 1 19.7917,1717.806 L19.7917,1155.7943 " fill="#F08080" style="stroke:none;stroke-width:1.0416666666666667;"/><rect fill="url(#g1karzodik5nb50)" filter="url(#f1karzodik5nb5)" height="166.5039" rx="4.1667" ry="4.1667" style="stroke:#2196F3;stroke-width:1.0416666666666667;" width="668.2292" x="336.4583" y="1200.5534"/><rect fill="url(#g1karzodik5nb50)" filter="url(#f1karzodik5nb5)" height="231.0221" rx="4.1667" ry="4.1667" style="stroke:#2196F3;stroke-width:1.0416666666666667;" width="668.2292" x="336.4583" y="1381.6406"/><rect fill="url(#g1karzodik5nb50)" filter="url(#f1karzodik5nb5)" height="87.4349" rx="4.1667" ry="4.1667" style="stroke:#2196F3;stroke-width:1.0416666666666667;" width="668.2292" x="336.4583" y="1627.2461"/><path d="M19.7917,1721.9727 L1310.4167,1721.9727 L1310.4167,1928.0924 A4.1667,4.1667 0 0 1 1306.25,1932.2591 L23.9583,1932.2591 A4.1667,4.1667 0 0 1 19.7917,1928.0924 L19.7917,1721.9727 " fill="#8B0000" style="stroke:none;stroke-width:1.0416666666666667;"/><line style="stroke:#CCCCCC;stroke-width:1.0416666666666667;stroke-dasharray:5.0,5.0;" x1="437.5" x2="437.5" y1="191.9271" y2="1949.9674"/><line style="stroke:#CCCCCC;stroke-width:1.0416666666666667;stroke-dasharray:5.0,5.0;" x1="875.5208" x2="875.5208" y1="191.9271" y2="1949.9674"/><text fill="#222222" font-family="Verdana" font-size="12.5" lengthAdjust="spacing" textLength="155.2083" x="357.2917" y="178.5624">Payer's Service Provider</text><ellipse cx="438.0208" cy="99.2513" fill="url(#g1karzodik5nb51)" filter="url(#f1karzodik5nb5)" rx="8.3333" ry="8.3333" style="stroke:#2196F3;stroke-width:1.0416666666666667;"/><path d="M438.0208,107.5846 L438.0208,135.7096 M424.4792,115.918 L451.5625,115.918 M438.0208,135.7096 L424.4792,151.3346 M438.0208,135.7096 L451.5625,151.3346 " fill="none" filter="url(#f1karzodik5nb5)" style="stroke:#2196F3;stroke-width:1.0416666666666667;"/><text fill="#222222" font-family="Verdana" font-size="12.5" lengthAdjust="spacing" textLength="155.2083" x="357.2917" y="1970.9452">Payer's Service Provider</text><ellipse cx="438.0208" cy="1993.6849" fill="url(#g1karzodik5nb51)" filter="url(#f1karzodik5nb5)" rx="8.3333" ry="8.3333" style="stroke:#2196F3;stroke-width:1.0416666666666667;"/><path d="M438.0208,2002.0182 L438.0208,2030.1432 M424.4792,2010.3516 L451.5625,2010.3516 M438.0208,2030.1432 L424.4792,2045.7682 M438.0208,2030.1432 L451.5625,2045.7682 " fill="none" filter="url(#f1karzodik5nb5)" style="stroke:#2196F3;stroke-width:1.0416666666666667;"/><rect fill="url(#g1karzodik5nb51)" filter="url(#f1karzodik5nb5)" height="49.9674" rx="4.1667" ry="4.1667" style="stroke:#2196F3;stroke-width:1.0416666666666667;" width="151.0417" x="798.4375" y="137.793"/><text fill="#FFFFFF" font-family="Verdana" font-size="12.5" lengthAdjust="spacing" textLength="115.625" x="816.1458" y="167.1041">RTP Activation API</text><rect fill="url(#g1karzodik5nb51)" filter="url(#f1karzodik5nb5)" height="49.9674" rx="4.1667" ry="4.1667" style="stroke:#2196F3;stroke-width:1.0416666666666667;" width="151.0417" x="798.4375" y="1948.9258"/><text fill="#FFFFFF" font-family="Verdana" font-size="12.5" lengthAdjust="spacing" textLength="115.625" x="816.1458" y="1978.2369">RTP Activation API</text><rect fill="#FFFFFF" filter="url(#f1karzodik5nb5)" height="1681.0221" style="stroke:#CCCCCC;stroke-width:1.0416666666666667;" width="10.4167" x="870.3125" y="258.5286"/><polygon fill="#2196F3" points="857.8125,254.362,868.2292,258.5286,857.8125,262.6953,861.9792,258.5286" style="stroke:#2196F3;stroke-width:1.0416666666666667;"/><line style="stroke:#2196F3;stroke-width:3.125;" x1="438.0208" x2="864.0625" y1="258.5286" y2="258.5286"/><text fill="#222222" font-family="Verdana" font-size="12.5" font-weight="bold" lengthAdjust="spacing" textLength="8.3333" x="455.7292" y="235.8053">1</text><text fill="#222222" font-family="Verdana" font-size="12.5" lengthAdjust="spacing" textLength="112.5" x="489.0625" y="228.5299">POST /activations</text><text fill="#222222" font-family="Verdana" font-size="12.5" lengthAdjust="spacing" textLength="165.625" x="489.0625" y="243.0806">(Activate RTP for a Payer)</text><path d="M885.4167,276.237 L885.4167,327.2786 A4.1667,4.1667 0 0 0 889.5833,331.4453 L1629.1667,331.4453 A4.1667,4.1667 0 0 0 1633.3333,327.2786 L1633.3333,282.487 L1622.9167,272.0703 L889.5833,272.0703 A4.1667,4.1667 0 0 0 885.4167,276.237 " fill="url(#g1karzodik5nb52)" filter="url(#f1karzodik5nb5)" style="stroke:#9C27B0;stroke-width:1.0416666666666667;"/><path d="M1622.9167,272.0703 L1622.9167,280.4036 A2.0833,2.0833 0 0 0 1625,282.487 L1633.3333,282.487 L1622.9167,272.0703 " fill="url(#g1karzodik5nb52)" style="stroke:#9C27B0;stroke-width:1.0416666666666667;"/><text fill="#FFFFFF" font-family="Verdana" font-size="12.5" font-weight="bold" lengthAdjust="spacing" textLength="80.2083" x="902.0833" y="299.2981">Operation:</text><text fill="#FFFFFF" font-family="Verdana" font-size="12.5" lengthAdjust="spacing" textLength="64.5833" x="986.4583" y="299.2981">`activate`</text><text fill="#FFFFFF" font-family="Verdana" font-size="12.5" font-weight="bold" lengthAdjust="spacing" textLength="89.5833" x="902.0833" y="313.8489">Description:</text><text fill="#FFFFFF" font-family="Verdana" font-size="12.5" lengthAdjust="spacing" textLength="611.4583" x="995.8333" y="313.8489">A Payer's Service Provider calls this to register one of their users (Payers) for the RTP service.</text><path d="M23.9583,348.0469 L107.2917,348.0469 L107.2917,375.0977 L96.875,385.5143 L19.7917,385.5143 L19.7917,352.2135 A4.1667,4.1667 0 0 1 23.9583,348.0469 " fill="#FFFFFF" style="stroke:#666666;stroke-width:1.0416666666666667;"/><rect fill="none" height="1584.2122" rx="4.1667" ry="4.1667" style="stroke:#2196F3;stroke-width:1.0416666666666667;" width="1290.625" x="19.7917" y="348.0469"/><text fill="#9C27B0" font-family="Verdana" font-size="12.5" font-weight="bold" lengthAdjust="spacing" textLength="19.7917" x="45.8333" y="371.108">alt</text><text fill="#222222" font-family="Verdana" font-size="12.5" font-weight="bold" lengthAdjust="spacing" textLength="110.4167" x="133.3333" y="372.1497">[Success Case]</text><line style="stroke:#2196F3;stroke-width:3.125;" x1="880.7292" x2="924.4792" y1="446.9076" y2="446.9076"/><line style="stroke:#2196F3;stroke-width:3.125;" x1="924.4792" x2="924.4792" y1="446.9076" y2="460.4492"/><line style="stroke:#2196F3;stroke-width:3.125;" x1="881.7708" x2="924.4792" y1="460.4492" y2="460.4492"/><polygon fill="#2196F3" points="892.1875,456.2826,881.7708,460.4492,892.1875,464.6159,888.0208,460.4492" style="stroke:#2196F3;stroke-width:1.0416666666666667;"/><text fill="#222222" font-family="Verdana" font-size="12.5" font-weight="bold" lengthAdjust="spacing" textLength="8.3333" x="898.4375" y="431.4596">2</text><text fill="#222222" font-family="Verdana" font-size="12.5" lengthAdjust="spacing" textLength="242.7083" x="931.7708" y="431.4596">1. Validate Request &amp; Security Token</text><line style="stroke:#2196F3;stroke-width:3.125;" x1="880.7292" x2="924.4792" y1="510.4167" y2="510.4167"/><line style="stroke:#2196F3;stroke-width:3.125;" x1="924.4792" x2="924.4792" y1="510.4167" y2="523.9583"/><line style="stroke:#2196F3;stroke-width:3.125;" x1="881.7708" x2="924.4792" y1="523.9583" y2="523.9583"/><polygon fill="#2196F3" points="892.1875,519.7917,881.7708,523.9583,892.1875,528.125,888.0208,523.9583" style="stroke:#2196F3;stroke-width:1.0416666666666667;"/><text fill="#222222" font-family="Verdana" font-size="12.5" font-weight="bold" lengthAdjust="spacing" textLength="8.3333" x="898.4375" y="494.9687">3</text><text fill="#222222" font-family="Verdana" font-size="12.5" lengthAdjust="spacing" textLength="288.5417" x="931.7708" y="494.9687">2. Check for existing activation for the Payer</text><path d="M885.4167,541.6667 L885.4167,578.125 A4.1667,4.1667 0 0 0 889.5833,582.2917 L1109.375,582.2917 A4.1667,4.1667 0 0 0 1113.5417,578.125 L1113.5417,547.9167 L1103.125,537.5 L889.5833,537.5 A4.1667,4.1667 0 0 0 885.4167,541.6667 " fill="url(#g1karzodik5nb52)" filter="url(#f1karzodik5nb5)" style="stroke:#9C27B0;stroke-width:1.0416666666666667;"/><path d="M1103.125,537.5 L1103.125,545.8333 A2.0833,2.0833 0 0 0 1105.2083,547.9167 L1113.5417,547.9167 L1103.125,537.5 " fill="url(#g1karzodik5nb52)" style="stroke:#9C27B0;stroke-width:1.0416666666666667;"/><text fill="#FFFFFF" font-family="Verdana" font-size="12.5" lengthAdjust="spacing" textLength="185.4167" x="902.0833" y="564.7278">No existing activation found.</text><line style="stroke:#2196F3;stroke-width:3.125;" x1="880.7292" x2="924.4792" y1="633.2682" y2="633.2682"/><line style="stroke:#2196F3;stroke-width:3.125;" x1="924.4792" x2="924.4792" y1="633.2682" y2="646.8099"/><line style="stroke:#2196F3;stroke-width:3.125;" x1="881.7708" x2="924.4792" y1="646.8099" y2="646.8099"/><polygon fill="#2196F3" points="892.1875,642.6432,881.7708,646.8099,892.1875,650.9766,888.0208,646.8099" style="stroke:#2196F3;stroke-width:1.0416666666666667;"/><text fill="#222222" font-family="Verdana" font-size="12.5" font-weight="bold" lengthAdjust="spacing" textLength="8.3333" x="898.4375" y="617.8202">4</text><text fill="#222222" font-family="Verdana" font-size="12.5" lengthAdjust="spacing" textLength="313.5417" x="931.7708" y="617.8202">3. Create new activation record in the database</text><polygon fill="#2196F3" points="449.4792,707.1615,439.0625,711.3281,449.4792,715.4948,445.3125,711.3281" style="stroke:#2196F3;stroke-width:1.0416666666666667;"/><line style="stroke:#2196F3;stroke-width:3.125;stroke-dasharray:2.0,2.0;" x1="443.2292" x2="869.2708" y1="711.3281" y2="711.3281"/><text fill="#222222" font-family="Verdana" font-size="12.5" font-weight="bold" lengthAdjust="spacing" textLength="8.3333" x="466.1458" y="688.6047">5</text><text fill="#222222" font-family="Verdana" font-size="12.5" font-weight="bold" lengthAdjust="spacing" textLength="88.5417" x="499.4792" y="681.3293">201 Created</text><text fill="#222222" font-family="Verdana" font-size="12.5" lengthAdjust="spacing" textLength="303.125" x="499.4792" y="695.8801">Header: `Location: /activations/{activationId}`</text><path d="M172.9167,729.0365 L172.9167,780.0781 A4.1667,4.1667 0 0 0 177.0833,784.2448 L425,784.2448 A4.1667,4.1667 0 0 0 429.1667,780.0781 L429.1667,735.2865 L418.75,724.8698 L177.0833,724.8698 A4.1667,4.1667 0 0 0 172.9167,729.0365 " fill="url(#g1karzodik5nb52)" filter="url(#f1karzodik5nb5)" style="stroke:#9C27B0;stroke-width:1.0416666666666667;"/><path d="M418.75,724.8698 L418.75,733.2031 A2.0833,2.0833 0 0 0 420.8333,735.2865 L429.1667,735.2865 L418.75,724.8698 " fill="url(#g1karzodik5nb52)" style="stroke:#9C27B0;stroke-width:1.0416666666666667;"/><text fill="#FFFFFF" font-family="Verdana" font-size="12.5" lengthAdjust="spacing" textLength="197.9167" x="189.5833" y="752.0976">The activation was successful.</text><text fill="#FFFFFF" font-family="Verdana" font-size="12.5" lengthAdjust="spacing" textLength="213.5417" x="189.5833" y="766.6484">The Payer can now receive RTPs.</text><line style="stroke:#2196F3;stroke-width:1.0416666666666667;stroke-dasharray:2.0,2.0;" x1="19.7917" x2="1310.4167" y1="794.5964" y2="794.5964"/><text fill="#222222" font-family="Verdana" font-size="12.5" font-weight="bold" lengthAdjust="spacing" textLength="65.625" x="35.4167" y="816.6158">[Conflict]</text><line style="stroke:#2196F3;stroke-width:3.125;" x1="880.7292" x2="924.4792" y1="872.6563" y2="872.6563"/><line style="stroke:#2196F3;stroke-width:3.125;" x1="924.4792" x2="924.4792" y1="872.6563" y2="886.1979"/><line style="stroke:#2196F3;stroke-width:3.125;" x1="881.7708" x2="924.4792" y1="886.1979" y2="886.1979"/><polygon fill="#2196F3" points="892.1875,882.0313,881.7708,886.1979,892.1875,890.3646,888.0208,886.1979" style="stroke:#2196F3;stroke-width:1.0416666666666667;"/><text fill="#222222" font-family="Verdana" font-size="12.5" font-weight="bold" lengthAdjust="spacing" textLength="8.3333" x="898.4375" y="857.2083">6</text><text fill="#222222" font-family="Verdana" font-size="12.5" lengthAdjust="spacing" textLength="242.7083" x="931.7708" y="857.2083">1. Validate Request &amp; Security Token</text><line style="stroke:#2196F3;stroke-width:3.125;" x1="880.7292" x2="924.4792" y1="936.1654" y2="936.1654"/><line style="stroke:#2196F3;stroke-width:3.125;" x1="924.4792" x2="924.4792" y1="936.1654" y2="949.707"/><line style="stroke:#2196F3;stroke-width:3.125;" x1="881.7708" x2="924.4792" y1="949.707" y2="949.707"/><polygon fill="#2196F3" points="892.1875,945.5404,881.7708,949.707,892.1875,953.8737,888.0208,949.707" style="stroke:#2196F3;stroke-width:1.0416666666666667;"/><text fill="#222222" font-family="Verdana" font-size="12.5" font-weight="bold" lengthAdjust="spacing" textLength="8.3333" x="898.4375" y="920.7174">7</text><text fill="#222222" font-family="Verdana" font-size="12.5" lengthAdjust="spacing" textLength="288.5417" x="931.7708" y="920.7174">2. Check for existing activation for the Payer</text><path d="M885.4167,967.4154 L885.4167,1003.8737 A4.1667,4.1667 0 0 0 889.5833,1008.0404 L1196.875,1008.0404 A4.1667,4.1667 0 0 0 1201.0417,1003.8737 L1201.0417,973.6654 L1190.625,963.2487 L889.5833,963.2487 A4.1667,4.1667 0 0 0 885.4167,967.4154 " fill="url(#g1karzodik5nb52)" filter="url(#f1karzodik5nb5)" style="stroke:#9C27B0;stroke-width:1.0416666666666667;"/><path d="M1190.625,963.2487 L1190.625,971.582 A2.0833,2.0833 0 0 0 1192.7083,973.6654 L1201.0417,973.6654 L1190.625,963.2487 " fill="url(#g1karzodik5nb52)" style="stroke:#9C27B0;stroke-width:1.0416666666666667;"/><text fill="#FFFFFF" font-family="Verdana" font-size="12.5" lengthAdjust="spacing" textLength="272.9167" x="902.0833" y="990.4765">An activation for this Payer already exists.</text><polygon fill="#2196F3" points="449.4792,1069.401,439.0625,1073.5677,449.4792,1077.7344,445.3125,1073.5677" style="stroke:#2196F3;stroke-width:1.0416666666666667;"/><line style="stroke:#2196F3;stroke-width:3.125;stroke-dasharray:2.0,2.0;" x1="443.2292" x2="869.2708" y1="1073.5677" y2="1073.5677"/><text fill="#222222" font-family="Verdana" font-size="12.5" font-weight="bold" lengthAdjust="spacing" textLength="8.3333" x="466.1458" y="1050.8443">8</text><text fill="#222222" font-family="Verdana" font-size="12.5" font-weight="bold" lengthAdjust="spacing" textLength="84.375" x="499.4792" y="1043.5689">409 Conflict</text><text fill="#222222" font-family="Verdana" font-size="12.5" lengthAdjust="spacing" textLength="353.125" x="499.4792" y="1058.1197">Header: `Location: /activations/{existingActivationId}`</text><path d="M30.2083,1091.276 L30.2083,1142.3177 A4.1667,4.1667 0 0 0 34.375,1146.4844 L425,1146.4844 A4.1667,4.1667 0 0 0 429.1667,1142.3177 L429.1667,1097.526 L418.75,1087.1094 L34.375,1087.1094 A4.1667,4.1667 0 0 0 30.2083,1091.276 " fill="url(#g1karzodik5nb52)" filter="url(#f1karzodik5nb5)" style="stroke:#9C27B0;stroke-width:1.0416666666666667;"/><path d="M418.75,1087.1094 L418.75,1095.4427 A2.0833,2.0833 0 0 0 420.8333,1097.526 L429.1667,1097.526 L418.75,1087.1094 " fill="url(#g1karzodik5nb52)" style="stroke:#9C27B0;stroke-width:1.0416666666666667;"/><text fill="#FFFFFF" font-family="Verdana" font-size="12.5" lengthAdjust="spacing" textLength="272.9167" x="46.875" y="1114.3372">An activation for this Payer already exists.</text><text fill="#FFFFFF" font-family="Verdana" font-size="12.5" lengthAdjust="spacing" textLength="356.25" x="46.875" y="1128.8879">The `Location` header points to the existing resource.</text><line style="stroke:#2196F3;stroke-width:1.0416666666666667;stroke-dasharray:2.0,2.0;" x1="19.7917" x2="1310.4167" y1="1156.8359" y2="1156.8359"/><text fill="#222222" font-family="Verdana" font-size="12.5" font-weight="bold" lengthAdjust="spacing" textLength="139.5833" x="35.4167" y="1178.8554">[Client-Side Errors]</text><path d="M340.625,1200.5534 L676.0417,1200.5534 L676.0417,1227.6042 L665.625,1238.0208 L336.4583,1238.0208 L336.4583,1204.7201 A4.1667,4.1667 0 0 1 340.625,1200.5534 " fill="#FFFFFF" style="stroke:#666666;stroke-width:1.0416666666666667;"/><rect fill="none" height="166.5039" rx="4.1667" ry="4.1667" style="stroke:#2196F3;stroke-width:1.0416666666666667;" width="668.2292" x="336.4583" y="1200.5534"/><text fill="#9C27B0" font-family="Verdana" font-size="12.5" font-weight="bold" lengthAdjust="spacing" textLength="271.875" x="362.5" y="1223.6145">Authentication / Authorization Errors</text><polygon fill="#2196F3" points="449.4792,1290.0391,439.0625,1294.2057,449.4792,1298.3724,445.3125,1294.2057" style="stroke:#2196F3;stroke-width:1.0416666666666667;"/><line style="stroke:#2196F3;stroke-width:3.125;stroke-dasharray:2.0,2.0;" x1="443.2292" x2="869.2708" y1="1294.2057" y2="1294.2057"/><text fill="#222222" font-family="Verdana" font-size="12.5" font-weight="bold" lengthAdjust="spacing" textLength="8.3333" x="466.1458" y="1271.4823">9</text><text fill="#222222" font-family="Verdana" font-size="12.5" font-weight="bold" lengthAdjust="spacing" textLength="130.2083" x="499.4792" y="1264.2069">401 Unauthorized</text><text fill="#222222" font-family="Verdana" font-size="12.5" lengthAdjust="spacing" textLength="195.8333" x="499.4792" y="1278.7577">(e.g., Invalid or expired token)</text><polygon fill="#2196F3" points="449.4792,1354.5573,439.0625,1358.724,449.4792,1362.8906,445.3125,1358.724" style="stroke:#2196F3;stroke-width:1.0416666666666667;"/><line style="stroke:#2196F3;stroke-width:3.125;stroke-dasharray:2.0,2.0;" x1="443.2292" x2="869.2708" y1="1358.724" y2="1358.724"/><text fill="#222222" font-family="Verdana" font-size="12.5" font-weight="bold" lengthAdjust="spacing" textLength="16.6667" x="466.1458" y="1336.0006">10</text><text fill="#222222" font-family="Verdana" font-size="12.5" font-weight="bold" lengthAdjust="spacing" textLength="104.1667" x="507.8125" y="1328.7252">403 Forbidden</text><text fill="#222222" font-family="Verdana" font-size="12.5" lengthAdjust="spacing" textLength="297.9167" x="507.8125" y="1343.276">(e.g., Insufficient permissions or ID mismatch)</text><path d="M340.625,1381.6406 L598.9583,1381.6406 L598.9583,1408.6914 L588.5417,1419.1081 L336.4583,1419.1081 L336.4583,1385.8073 A4.1667,4.1667 0 0 1 340.625,1381.6406 " fill="#FFFFFF" style="stroke:#666666;stroke-width:1.0416666666666667;"/><rect fill="none" height="231.0221" rx="4.1667" ry="4.1667" style="stroke:#2196F3;stroke-width:1.0416666666666667;" width="668.2292" x="336.4583" y="1381.6406"/><text fill="#9C27B0" font-family="Verdana" font-size="12.5" font-weight="bold" lengthAdjust="spacing" textLength="194.7917" x="362.5" y="1404.7017">Validation &amp; Format Errors</text><polygon fill="#2196F3" points="449.4792,1471.1263,439.0625,1475.293,449.4792,1479.4596,445.3125,1475.293" style="stroke:#2196F3;stroke-width:1.0416666666666667;"/><line style="stroke:#2196F3;stroke-width:3.125;stroke-dasharray:2.0,2.0;" x1="443.2292" x2="869.2708" y1="1475.293" y2="1475.293"/><text fill="#222222" font-family="Verdana" font-size="12.5" font-weight="bold" lengthAdjust="spacing" textLength="16.6667" x="466.1458" y="1452.5696">11</text><text fill="#222222" font-family="Verdana" font-size="12.5" font-weight="bold" lengthAdjust="spacing" textLength="122.9167" x="507.8125" y="1445.2942">400 Bad Request</text><text fill="#222222" font-family="Verdana" font-size="12.5" lengthAdjust="spacing" textLength="254.1667" x="507.8125" y="1459.845">(e.g., Invalid fiscal code, missing fields)</text><polygon fill="#2196F3" points="449.4792,1535.6445,439.0625,1539.8112,449.4792,1543.9779,445.3125,1539.8112" style="stroke:#2196F3;stroke-width:1.0416666666666667;"/><line style="stroke:#2196F3;stroke-width:3.125;stroke-dasharray:2.0,2.0;" x1="443.2292" x2="869.2708" y1="1539.8112" y2="1539.8112"/><text fill="#222222" font-family="Verdana" font-size="12.5" font-weight="bold" lengthAdjust="spacing" textLength="16.6667" x="466.1458" y="1517.0878">12</text><text fill="#222222" font-family="Verdana" font-size="12.5" font-weight="bold" lengthAdjust="spacing" textLength="140.625" x="507.8125" y="1509.8124">406 Not Acceptable</text><text fill="#222222" font-family="Verdana" font-size="12.5" lengthAdjust="spacing" textLength="235.4167" x="507.8125" y="1524.3632">(e.g., Unsupported 'Accept' header)</text><polygon fill="#2196F3" points="449.4792,1600.1628,439.0625,1604.3294,449.4792,1608.4961,445.3125,1604.3294" style="stroke:#2196F3;stroke-width:1.0416666666666667;"/><line style="stroke:#2196F3;stroke-width:3.125;stroke-dasharray:2.0,2.0;" x1="443.2292" x2="869.2708" y1="1604.3294" y2="1604.3294"/><text fill="#222222" font-family="Verdana" font-size="12.5" font-weight="bold" lengthAdjust="spacing" textLength="16.6667" x="466.1458" y="1581.606">13</text><text fill="#222222" font-family="Verdana" font-size="12.5" font-weight="bold" lengthAdjust="spacing" textLength="214.5833" x="507.8125" y="1574.3306">415 Unsupported Media Type</text><text fill="#222222" font-family="Verdana" font-size="12.5" lengthAdjust="spacing" textLength="181.25" x="507.8125" y="1588.8814">(e.g., Invalid 'Content-Type')</text><path d="M340.625,1627.2461 L501.0417,1627.2461 L501.0417,1654.2969 L490.625,1664.7135 L336.4583,1664.7135 L336.4583,1631.4128 A4.1667,4.1667 0 0 1 340.625,1627.2461 " fill="#FFFFFF" style="stroke:#666666;stroke-width:1.0416666666666667;"/><rect fill="none" height="87.4349" rx="4.1667" ry="4.1667" style="stroke:#2196F3;stroke-width:1.0416666666666667;" width="668.2292" x="336.4583" y="1627.2461"/><text fill="#9C27B0" font-family="Verdana" font-size="12.5" font-weight="bold" lengthAdjust="spacing" textLength="96.875" x="362.5" y="1650.3072">Rate Limiting</text><polygon fill="#2196F3" points="449.4792,1702.181,439.0625,1706.3477,449.4792,1710.5143,445.3125,1706.3477" style="stroke:#2196F3;stroke-width:1.0416666666666667;"/><line style="stroke:#2196F3;stroke-width:3.125;stroke-dasharray:2.0,2.0;" x1="443.2292" x2="869.2708" y1="1706.3477" y2="1706.3477"/><text fill="#222222" font-family="Verdana" font-size="12.5" font-weight="bold" lengthAdjust="spacing" textLength="16.6667" x="466.1458" y="1690.8997">14</text><text fill="#222222" font-family="Verdana" font-size="12.5" font-weight="bold" lengthAdjust="spacing" textLength="173.9583" x="507.8125" y="1690.8997">429 Too Many Requests</text><line style="stroke:#2196F3;stroke-width:1.0416666666666667;stroke-dasharray:2.0,2.0;" x1="19.7917" x2="1310.4167" y1="1723.0143" y2="1723.0143"/><text fill="#222222" font-family="Verdana" font-size="12.5" font-weight="bold" lengthAdjust="spacing" textLength="136.4583" x="35.4167" y="1745.0338">[Server-Side Error]</text><line style="stroke:#2196F3;stroke-width:3.125;" x1="880.7292" x2="924.4792" y1="1801.0742" y2="1801.0742"/><line style="stroke:#2196F3;stroke-width:3.125;" x1="924.4792" x2="924.4792" y1="1801.0742" y2="1814.6159"/><line style="stroke:#2196F3;stroke-width:3.125;" x1="881.7708" x2="924.4792" y1="1814.6159" y2="1814.6159"/><polygon fill="#2196F3" points="892.1875,1810.4492,881.7708,1814.6159,892.1875,1818.7826,888.0208,1814.6159" style="stroke:#2196F3;stroke-width:1.0416666666666667;"/><text fill="#222222" font-family="Verdana" font-size="12.5" font-weight="bold" lengthAdjust="spacing" textLength="16.6667" x="898.4375" y="1785.6262">15</text><text fill="#222222" font-family="Verdana" font-size="12.5" lengthAdjust="spacing" textLength="236.4583" x="940.1042" y="1785.6262">An unexpected internal error occurs</text><path d="M885.4167,1832.3242 L885.4167,1868.7826 A4.1667,4.1667 0 0 0 889.5833,1872.9492 L1292.7083,1872.9492 A4.1667,4.1667 0 0 0 1296.875,1868.7826 L1296.875,1838.5742 L1286.4583,1828.1576 L889.5833,1828.1576 A4.1667,4.1667 0 0 0 885.4167,1832.3242 " fill="url(#g1karzodik5nb52)" filter="url(#f1karzodik5nb5)" style="stroke:#9C27B0;stroke-width:1.0416666666666667;"/><path d="M1286.4583,1828.1576 L1286.4583,1836.4909 A2.0833,2.0833 0 0 0 1288.5417,1838.5742 L1296.875,1838.5742 L1286.4583,1828.1576 " fill="url(#g1karzodik5nb52)" style="stroke:#9C27B0;stroke-width:1.0416666666666667;"/><text fill="#FFFFFF" font-family="Verdana" font-size="12.5" lengthAdjust="spacing" textLength="368.75" x="902.0833" y="1855.3853">e.g., Database connection failure, unhandled exception.</text><polygon fill="#2196F3" points="449.4792,1919.7591,439.0625,1923.9258,449.4792,1928.0924,445.3125,1923.9258" style="stroke:#2196F3;stroke-width:1.0416666666666667;"/><line style="stroke:#2196F3;stroke-width:3.125;stroke-dasharray:2.0,2.0;" x1="443.2292" x2="869.2708" y1="1923.9258" y2="1923.9258"/><text fill="#222222" font-family="Verdana" font-size="12.5" font-weight="bold" lengthAdjust="spacing" textLength="16.6667" x="466.1458" y="1908.4778">16</text><text fill="#222222" font-family="Verdana" font-size="12.5" font-weight="bold" lengthAdjust="spacing" textLength="180.2083" x="507.8125" y="1908.4778">500 Internal Server Error</text><!--SRC=[pLN1RXit5BplLxmwG6GByLfocWBHeO1gDwW0kn4YEQSSHE- -bGXJv8Raob62_7k7NAqiMTgqkTKNUSd7uRoP8TcXiHBQtztUqBKKSokMD6VDLdZEgR1cIH-cOnfcNgw4bqRJS3oYzoNhy3ifEKiwD9LUyU1vuOG_LwmpRd1H-96jmzI0-calxM7WcbrcPUdZu7GX7UKR4cvX7Xtv1LDfJSREKM4i2HgBDTkE0xfTIO2FhLd9d2t0zlwy8L5puOWIoBdDceYaYNL-Nc4iJP9VKB9aMgBQIf4aFdHqfFC1ZTzFfdGXjgCkIV01m9CsPYSa78qduwGKrijCbf2RJWwnOnr-0LXvewlbFRfAi93EVs_P-vC-7JPD1i0TYSwIRViHKnlyP-LyuSaKSOYesuMHDa8DkbsQDIjcSMxN6ymEMwMdJ2WLl89zaDtoN3heI4Pps0lIIaj1Q4Ud4SETHQRFR4aJ64A19nHGdbwKGl7SCYDALHOZS2KS9eEz8NsDBFsKFWebywX229tpz18iiyfAlwQfUM1ziEWofQi5Pm-H2Ny1OwddzAJjbc5a79SVI3YWlqtBsahdwS6Uhx6dvK1Jy-DklUNCs9oaZZkY4N4VEjsk1m1oC80fbxt-1YFlTZ_flrZ0W07DRanM-xYNZujlJn-Z_FligGt5HUmYvB8vCbFilKFg4N5qjV15fTAziYWAVDT0UmpqMQwYcQwkUtAIbMDweO9gQrOArLT65qfc_dzbv50VBa6Swpw5WkBvkaPtwJ5VVksztJRsdunfc0v_mg2V9jdOjMKneqKaHgMHsiVZ6gJPocRPcSg6izZg8f8g55qfoTgVJt3-wKzhZNMrdNDhgfA65L0rBhkQwKKSC5P-hRyt2xPjFPUoJtTQR5RKEJ_bT9w-ef5UXNnGTBgK5a-K3w4uQyTwJU-ClPTvpdeFo5L5WSiOB0btu5Awy32vW3ow9dpYASWMPriPOb-xBMw26jfv6RP0_R_srQC_HDua-qXRXNIuIYapER-YI0cM599LxdxGuM-uXJpUaenBt1kATu3lq6PP6XlUyavTqTaae1sm_sPltItZIQRfkkGZZ3l8l0z12FET7yZr8Ppf6xcK8MQjMr- -nI4tT2lqkf79TRlFKUimvi8-X024ruZjJX8FxnMScqeZC9o5XX1yjXewSwWca-5wSMttGjtkzUP6XZLQ0oKUFo5LPM5KfHT2vmh8_2KeZCcZLyGR-3zgzgvPruJHONZwaYJdlJVx7m00]--></g></svg>