<?xml version="1.0" encoding="us-ascii" standalone="no"?><svg xmlns="http://www.w3.org/2000/svg" xmlns:xlink="http://www.w3.org/1999/xlink" contentStyleType="text/css" height="2288.5417px" preserveAspectRatio="none" style="width:1909px;height:2288px;" version="1.1" viewBox="0 0 1909 2288" width="1909.375px" zoomAndPan="magnify"><defs><linearGradient id="g1wdpl356frj340" x1="50%" x2="50%" y1="0%" y2="100%"><stop offset="0%" stop-color="#FFFFFF"/><stop offset="100%" stop-color="#FFFFFF"/></linearGradient><filter height="300%" id="f1wdpl356frj34" width="300%" x="-1" y="-1"><feGaussianBlur result="blurOut" stdDeviation="2.0833333333333335"/><feColorMatrix in="blurOut" result="blurOut2" type="matrix" values="0 0 0 0 0 0 0 0 0 0 0 0 0 0 0 0 0 0 .4 0"/><feOffset dx="4.166666666666667" dy="4.166666666666667" in="blurOut2" result="blurOut3"/><feBlend in="SourceGraphic" in2="blurOut3" mode="normal"/></filter><linearGradient id="g1wdpl356frj341" x1="50%" x2="50%" y1="0%" y2="100%"><stop offset="0%" stop-color="#4DABF5"/><stop offset="100%" stop-color="#2196F3"/></linearGradient><linearGradient id="g1wdpl356frj342" x1="50%" x2="50%" y1="0%" y2="100%"><stop offset="0%" stop-color="#B052C0"/><stop offset="100%" stop-color="#9C27B0"/></linearGradient></defs><g><rect fill="url(#g1wdpl356frj340)" height="57.5846" id="_title" rx="4.1667" ry="4.1667" style="stroke:#CCCCCC;stroke-width:1.0416666666666667;" width="478.125" x="716.9271" y="20.8333"/><text fill="#2196F3" font-family="Verdana" font-size="20.8333" font-weight="bold" lengthAdjust="spacing" textLength="444.7917" x="733.5938" y="56.838">RTP Activation API: POST /activations</text><rect fill="#FFFFFF" filter="url(#f1wdpl356frj34)" height="1912.0768" style="stroke:#CCCCCC;stroke-width:1.0416666666666667;" width="10.4167" x="984.8958" y="258.5286"/><rect fill="#FFFFFF" filter="url(#f1wdpl356frj34)" height="49.9674" style="stroke:#CCCCCC;stroke-width:1.0416666666666667;" width="10.4167" x="1535.9375" y="573.9258"/><rect fill="#FFFFFF" filter="url(#f1wdpl356frj34)" height="49.9674" style="stroke:#CCCCCC;stroke-width:1.0416666666666667;" width="10.4167" x="1535.9375" y="976.7578"/><rect fill="#FFFFFF" filter="url(#f1wdpl356frj34)" height="76.4811" style="stroke:#CCCCCC;stroke-width:1.0416666666666667;" width="10.4167" x="1535.9375" y="1400.4557"/><rect fill="#98FB98" filter="url(#f1wdpl356frj34)" height="1751.7578" rx="4.1667" ry="4.1667" style="stroke:#2196F3;stroke-width:1.0416666666666667;" width="1872.3958" x="19.7917" y="411.556"/><path d="M19.7917,834.1471 L1892.1875,834.1471 L1892.1875,1646.0286 A4.1667,4.1667 0 0 1 1888.0208,1650.1953 L23.9583,1650.1953 A4.1667,4.1667 0 0 1 19.7917,1646.0286 L19.7917,834.1471 " fill="#FFFFE0" style="stroke:none;stroke-width:1.0416666666666667;"/><path d="M19.7917,1650.1953 L1892.1875,1650.1953 L1892.1875,2159.1471 A4.1667,4.1667 0 0 1 1888.0208,2163.3138 L23.9583,2163.3138 A4.1667,4.1667 0 0 1 19.7917,2159.1471 L19.7917,1650.1953 " fill="#8B0000" style="stroke:none;stroke-width:1.0416666666666667;"/><rect fill="url(#g1wdpl356frj340)" filter="url(#f1wdpl356frj34)" height="295.5404" rx="4.1667" ry="4.1667" style="stroke:#2196F3;stroke-width:1.0416666666666667;" width="673.4375" x="453.125" y="1694.9544"/><rect fill="url(#g1wdpl356frj340)" filter="url(#f1wdpl356frj34)" height="150.944" rx="4.1667" ry="4.1667" style="stroke:#2196F3;stroke-width:1.0416666666666667;" width="1306.7708" x="453.125" y="2005.0781"/><line style="stroke:#CCCCCC;stroke-width:1.0416666666666667;stroke-dasharray:5.0,5.0;" x1="565.625" x2="565.625" y1="191.9271" y2="2181.0221"/><line style="stroke:#CCCCCC;stroke-width:1.0416666666666667;stroke-dasharray:5.0,5.0;" x1="990.1042" x2="990.1042" y1="191.9271" y2="2181.0221"/><line style="stroke:#CCCCCC;stroke-width:1.0416666666666667;stroke-dasharray:5.0,5.0;" x1="1540.625" x2="1540.625" y1="191.9271" y2="2181.0221"/><text fill="#222222" font-family="Verdana" font-size="12.5" font-weight="bold" lengthAdjust="spacing" textLength="178.125" x="473.9583" y="178.5624">Payer's Service Provider</text><ellipse cx="566.1458" cy="99.2513" fill="url(#g1wdpl356frj341)" filter="url(#f1wdpl356frj34)" rx="8.3333" ry="8.3333" style="stroke:#2196F3;stroke-width:1.0416666666666667;"/><path d="M566.1458,107.5846 L566.1458,135.7096 M552.6042,115.918 L579.6875,115.918 M566.1458,135.7096 L552.6042,151.3346 M566.1458,135.7096 L579.6875,151.3346 " fill="none" filter="url(#f1wdpl356frj34)" style="stroke:#2196F3;stroke-width:1.0416666666666667;"/><text fill="#222222" font-family="Verdana" font-size="12.5" font-weight="bold" lengthAdjust="spacing" textLength="178.125" x="473.9583" y="2201.9999">Payer's Service Provider</text><ellipse cx="566.1458" cy="2224.7396" fill="url(#g1wdpl356frj341)" filter="url(#f1wdpl356frj34)" rx="8.3333" ry="8.3333" style="stroke:#2196F3;stroke-width:1.0416666666666667;"/><path d="M566.1458,2233.0729 L566.1458,2261.1979 M552.6042,2241.4063 L579.6875,2241.4063 M566.1458,2261.1979 L552.6042,2276.8229 M566.1458,2261.1979 L579.6875,2276.8229 " fill="none" filter="url(#f1wdpl356frj34)" style="stroke:#2196F3;stroke-width:1.0416666666666667;"/><rect fill="url(#g1wdpl356frj341)" filter="url(#f1wdpl356frj34)" height="49.9674" rx="4.1667" ry="4.1667" style="stroke:#2196F3;stroke-width:1.0416666666666667;" width="165.625" x="905.7292" y="137.793"/><text fill="#FFFFFF" font-family="Verdana" font-size="12.5" font-weight="bold" lengthAdjust="spacing" textLength="130.2083" x="923.4375" y="167.1041">Activation Service</text><rect fill="url(#g1wdpl356frj341)" filter="url(#f1wdpl356frj34)" height="49.9674" rx="4.1667" ry="4.1667" style="stroke:#2196F3;stroke-width:1.0416666666666667;" width="165.625" x="905.7292" y="2179.9805"/><text fill="#FFFFFF" font-family="Verdana" font-size="12.5" font-weight="bold" lengthAdjust="spacing" textLength="130.2083" x="923.4375" y="2209.2916">Activation Service</text><text fill="#222222" font-family="Verdana" font-size="12.5" font-weight="bold" lengthAdjust="spacing" textLength="71.875" x="1502.0833" y="178.5624">Database</text><path d="M1522.3958,119.043 C1522.3958,108.6263 1541.1458,108.6263 1541.1458,108.6263 C1541.1458,108.6263 1559.8958,108.6263 1559.8958,119.043 L1559.8958,146.1263 C1559.8958,156.543 1541.1458,156.543 1541.1458,156.543 C1541.1458,156.543 1522.3958,156.543 1522.3958,146.1263 L1522.3958,119.043 " fill="url(#g1wdpl356frj341)" filter="url(#f1wdpl356frj34)" style="stroke:#2196F3;stroke-width:1.5625;"/><path d="M1522.3958,119.043 C1522.3958,129.4596 1541.1458,129.4596 1541.1458,129.4596 C1541.1458,129.4596 1559.8958,129.4596 1559.8958,119.043 " fill="none" style="stroke:#2196F3;stroke-width:1.5625;"/><text fill="#222222" font-family="Verdana" font-size="12.5" font-weight="bold" lengthAdjust="spacing" textLength="71.875" x="1502.0833" y="2201.9999">Database</text><path d="M1522.3958,2225.7813 C1522.3958,2215.3646 1541.1458,2215.3646 1541.1458,2215.3646 C1541.1458,2215.3646 1559.8958,2215.3646 1559.8958,2225.7813 L1559.8958,2252.8646 C1559.8958,2263.2813 1541.1458,2263.2813 1541.1458,2263.2813 C1541.1458,2263.2813 1522.3958,2263.2813 1522.3958,2252.8646 L1522.3958,2225.7813 " fill="url(#g1wdpl356frj341)" filter="url(#f1wdpl356frj34)" style="stroke:#2196F3;stroke-width:1.5625;"/><path d="M1522.3958,2225.7813 C1522.3958,2236.1979 1541.1458,2236.1979 1541.1458,2236.1979 C1541.1458,2236.1979 1559.8958,2236.1979 1559.8958,2225.7813 " fill="none" style="stroke:#2196F3;stroke-width:1.5625;"/><rect fill="#FFFFFF" filter="url(#f1wdpl356frj34)" height="1912.0768" style="stroke:#CCCCCC;stroke-width:1.0416666666666667;" width="10.4167" x="984.8958" y="258.5286"/><rect fill="#FFFFFF" filter="url(#f1wdpl356frj34)" height="49.9674" style="stroke:#CCCCCC;stroke-width:1.0416666666666667;" width="10.4167" x="1535.9375" y="573.9258"/><rect fill="#FFFFFF" filter="url(#f1wdpl356frj34)" height="49.9674" style="stroke:#CCCCCC;stroke-width:1.0416666666666667;" width="10.4167" x="1535.9375" y="976.7578"/><rect fill="#FFFFFF" filter="url(#f1wdpl356frj34)" height="76.4811" style="stroke:#CCCCCC;stroke-width:1.0416666666666667;" width="10.4167" x="1535.9375" y="1400.4557"/><polygon fill="#2196F3" points="972.3958,254.362,982.8125,258.5286,972.3958,262.6953,976.5625,258.5286" style="stroke:#2196F3;stroke-width:1.0416666666666667;"/><line style="stroke:#2196F3;stroke-width:3.125;" x1="566.1458" x2="978.6458" y1="258.5286" y2="258.5286"/><text fill="#222222" font-family="Verdana" font-size="12.5" font-weight="bold" lengthAdjust="spacing" textLength="18.75" x="583.8542" y="235.8053">[1]</text><text fill="#222222" font-family="Verdana" font-size="12.5" font-weight="bold" lengthAdjust="spacing" textLength="38.5417" x="627.6042" y="228.5299">POST</text><text fill="#222222" font-family="Verdana" font-size="12.5" lengthAdjust="spacing" textLength="75" x="670.3125" y="228.5299">/activations</text><text fill="#222222" font-family="Verdana" font-size="12.5" lengthAdjust="spacing" textLength="165.625" x="627.6042" y="243.0806">(Activate RTP for a Payer)</text><path d="M1000,276.237 L1000,327.2786 A4.1667,4.1667 0 0 0 1004.1667,331.4453 L1429.1667,331.4453 A4.1667,4.1667 0 0 0 1433.3333,327.2786 L1433.3333,282.487 L1422.9167,272.0703 L1004.1667,272.0703 A4.1667,4.1667 0 0 0 1000,276.237 " fill="url(#g1wdpl356frj342)" filter="url(#f1wdpl356frj34)" style="stroke:#9C27B0;stroke-width:1.0416666666666667;"/><path d="M1422.9167,272.0703 L1422.9167,280.4036 A2.0833,2.0833 0 0 0 1425,282.487 L1433.3333,282.487 L1422.9167,272.0703 " fill="url(#g1wdpl356frj342)" style="stroke:#9C27B0;stroke-width:1.0416666666666667;"/><text fill="#FFFFFF" font-family="Verdana" font-size="12.5" font-weight="bold" lengthAdjust="spacing" textLength="80.2083" x="1016.6667" y="299.2981">Operation:</text><text fill="#FFFFFF" font-family="Verdana" font-size="12.5" lengthAdjust="spacing" textLength="64.5833" x="1101.0417" y="299.2981">`activate`</text><text fill="#FFFFFF" font-family="Verdana" font-size="12.5" lengthAdjust="spacing" textLength="390.625" x="1016.6667" y="313.8489">A Payer's SP calls this to register a user for the RTP service.</text><line style="stroke:#2196F3;stroke-width:3.125;" x1="995.3125" x2="1039.0625" y1="382.3893" y2="382.3893"/><line style="stroke:#2196F3;stroke-width:3.125;" x1="1039.0625" x2="1039.0625" y1="382.3893" y2="395.931"/><line style="stroke:#2196F3;stroke-width:3.125;" x1="996.3542" x2="1039.0625" y1="395.931" y2="395.931"/><polygon fill="#2196F3" points="1006.7708,391.7643,996.3542,395.931,1006.7708,400.0977,1002.6042,395.931" style="stroke:#2196F3;stroke-width:1.0416666666666667;"/><text fill="#222222" font-family="Verdana" font-size="12.5" font-weight="bold" lengthAdjust="spacing" textLength="18.75" x="1013.0208" y="366.9413">[2]</text><text fill="#222222" font-family="Verdana" font-size="12.5" lengthAdjust="spacing" textLength="226.0417" x="1056.7708" y="366.9413">Validate Request &amp; Security Token</text><path d="M23.9583,411.556 L107.2917,411.556 L107.2917,438.6068 L96.875,449.0234 L19.7917,449.0234 L19.7917,415.7227 A4.1667,4.1667 0 0 1 23.9583,411.556 " fill="#FFFFFF" style="stroke:#666666;stroke-width:1.0416666666666667;"/><rect fill="none" height="1751.7578" rx="4.1667" ry="4.1667" style="stroke:#2196F3;stroke-width:1.0416666666666667;" width="1872.3958" x="19.7917" y="411.556"/><text fill="#9C27B0" font-family="Verdana" font-size="12.5" font-weight="bold" lengthAdjust="spacing" textLength="19.7917" x="45.8333" y="434.6171">alt</text><text fill="#222222" font-family="Verdana" font-size="12.5" font-weight="bold" lengthAdjust="spacing" textLength="5.2083" x="133.3333" y="435.6588">[</text><text fill="#222222" font-family="Verdana" font-size="12.5" font-weight="bold" lengthAdjust="spacing" textLength="265.625" x="138.5417" y="435.6588">Success Case: New Payer Activation</text><text fill="#222222" font-family="Verdana" font-size="12.5" font-weight="bold" lengthAdjust="spacing" textLength="5.2083" x="404.1667" y="435.6588">]</text><line style="stroke:#2196F3;stroke-width:3.125;" x1="995.3125" x2="1039.0625" y1="510.4167" y2="510.4167"/><line style="stroke:#2196F3;stroke-width:3.125;" x1="1039.0625" x2="1039.0625" y1="510.4167" y2="523.9583"/><line style="stroke:#2196F3;stroke-width:3.125;" x1="996.3542" x2="1039.0625" y1="523.9583" y2="523.9583"/><polygon fill="#2196F3" points="1006.7708,519.7917,996.3542,523.9583,1006.7708,528.125,1002.6042,523.9583" style="stroke:#2196F3;stroke-width:1.0416666666666667;"/><text fill="#222222" font-family="Verdana" font-size="12.5" font-weight="bold" lengthAdjust="spacing" textLength="18.75" x="1013.0208" y="494.9687">[3]</text><text fill="#222222" font-family="Verdana" font-size="12.5" lengthAdjust="spacing" textLength="461.4583" x="1056.7708" y="494.9687">Create `Payer` object with a new `ActivationID` and current timestamp</text><path d="M1540.625,480.2409 L1540.625,516.6992 A4.1667,4.1667 0 0 0 1544.7917,520.8659 L1727.0833,520.8659 A4.1667,4.1667 0 0 0 1731.25,516.6992 L1731.25,486.4909 L1720.8333,476.0742 L1544.7917,476.0742 A4.1667,4.1667 0 0 0 1540.625,480.2409 " fill="url(#g1wdpl356frj342)" filter="url(#f1wdpl356frj34)" style="stroke:#9C27B0;stroke-width:1.0416666666666667;"/><path d="M1720.8333,476.0742 L1720.8333,484.4076 A2.0833,2.0833 0 0 0 1722.9167,486.4909 L1731.25,486.4909 L1720.8333,476.0742 " fill="url(#g1wdpl356frj342)" style="stroke:#9C27B0;stroke-width:1.0416666666666667;"/><text fill="#FFFFFF" font-family="Verdana" font-size="12.5" lengthAdjust="spacing" textLength="147.9167" x="1557.2917" y="503.302">As per `new Payer(...)`</text><polygon fill="#2196F3" points="1523.4375,569.7591,1533.8542,573.9258,1523.4375,578.0924,1527.6042,573.9258" style="stroke:#2196F3;stroke-width:1.0416666666666667;"/><line style="stroke:#2196F3;stroke-width:3.125;" x1="995.3125" x2="1529.6875" y1="573.9258" y2="573.9258"/><text fill="#222222" font-family="Verdana" font-size="12.5" font-weight="bold" lengthAdjust="spacing" textLength="18.75" x="1013.0208" y="558.4778">[4]</text><text fill="#222222" font-family="Verdana" font-size="12.5" lengthAdjust="spacing" textLength="89.5833" x="1056.7708" y="558.4778">`save(payer)`</text><polygon fill="#2196F3" points="1006.7708,619.7266,996.3542,623.8932,1006.7708,628.0599,1002.6042,623.8932" style="stroke:#2196F3;stroke-width:1.0416666666666667;"/><line style="stroke:#2196F3;stroke-width:3.125;stroke-dasharray:2.0,2.0;" x1="1000.5208" x2="1540.1042" y1="623.8932" y2="623.8932"/><text fill="#222222" font-family="Verdana" font-size="12.5" font-weight="bold" lengthAdjust="spacing" textLength="18.75" x="1023.4375" y="608.4452">[5]</text><text fill="#222222" font-family="Verdana" font-size="12.5" lengthAdjust="spacing" textLength="161.4583" x="1067.1875" y="608.4452">Payer saved successfully</text><line style="stroke:#2196F3;stroke-width:3.125;" x1="995.3125" x2="1039.0625" y1="673.8607" y2="673.8607"/><line style="stroke:#2196F3;stroke-width:3.125;" x1="1039.0625" x2="1039.0625" y1="673.8607" y2="687.4023"/><line style="stroke:#2196F3;stroke-width:3.125;" x1="996.3542" x2="1039.0625" y1="687.4023" y2="687.4023"/><polygon fill="#2196F3" points="1006.7708,683.2357,996.3542,687.4023,1006.7708,691.569,1002.6042,687.4023" style="stroke:#2196F3;stroke-width:1.0416666666666667;"/><text fill="#222222" font-family="Verdana" font-size="12.5" font-weight="bold" lengthAdjust="spacing" textLength="18.75" x="1013.0208" y="658.4127">[6]</text><text fill="#222222" font-family="Verdana" font-size="12.5" lengthAdjust="spacing" textLength="163.5417" x="1056.7708" y="658.4127">Log successful activation</text><path d="M1242.7083,643.6849 L1242.7083,680.1432 A4.1667,4.1667 0 0 0 1246.875,684.3099 L1455.2083,684.3099 A4.1667,4.1667 0 0 0 1459.375,680.1432 L1459.375,649.9349 L1448.9583,639.5182 L1246.875,639.5182 A4.1667,4.1667 0 0 0 1242.7083,643.6849 " fill="url(#g1wdpl356frj342)" filter="url(#f1wdpl356frj34)" style="stroke:#9C27B0;stroke-width:1.0416666666666667;"/><path d="M1448.9583,639.5182 L1448.9583,647.8516 A2.0833,2.0833 0 0 0 1451.0417,649.9349 L1459.375,649.9349 L1448.9583,639.5182 " fill="url(#g1wdpl356frj342)" style="stroke:#9C27B0;stroke-width:1.0416666666666667;"/><text fill="#FFFFFF" font-family="Verdana" font-size="12.5" lengthAdjust="spacing" textLength="173.9583" x="1259.375" y="666.746">As per `.doOnSuccess(...)`</text><polygon fill="#2196F3" points="577.6042,747.7539,567.1875,751.9206,577.6042,756.0872,573.4375,751.9206" style="stroke:#2196F3;stroke-width:1.0416666666666667;"/><line style="stroke:#2196F3;stroke-width:3.125;stroke-dasharray:2.0,2.0;" x1="571.3542" x2="983.8542" y1="751.9206" y2="751.9206"/><text fill="#222222" font-family="Verdana" font-size="12.5" font-weight="bold" lengthAdjust="spacing" textLength="18.75" x="594.2708" y="729.1972">[7]</text><text fill="#222222" font-family="Verdana" font-size="12.5" font-weight="bold" lengthAdjust="spacing" textLength="88.5417" x="638.0208" y="721.9218">201 Created</text><text fill="#222222" font-family="Verdana" font-size="12.5" lengthAdjust="spacing" textLength="329.1667" x="638.0208" y="736.4726">Header: `Location: /activations/{newActivationId}`</text><path d="M301.0417,769.6289 L301.0417,820.6706 A4.1667,4.1667 0 0 0 305.2083,824.8372 L553.125,824.8372 A4.1667,4.1667 0 0 0 557.2917,820.6706 L557.2917,775.8789 L546.875,765.4622 L305.2083,765.4622 A4.1667,4.1667 0 0 0 301.0417,769.6289 " fill="url(#g1wdpl356frj342)" filter="url(#f1wdpl356frj34)" style="stroke:#9C27B0;stroke-width:1.0416666666666667;"/><path d="M546.875,765.4622 L546.875,773.7956 A2.0833,2.0833 0 0 0 548.9583,775.8789 L557.2917,775.8789 L546.875,765.4622 " fill="url(#g1wdpl356frj342)" style="stroke:#9C27B0;stroke-width:1.0416666666666667;"/><text fill="#FFFFFF" font-family="Verdana" font-size="12.5" lengthAdjust="spacing" textLength="197.9167" x="317.7083" y="792.69">The activation was successful.</text><text fill="#FFFFFF" font-family="Verdana" font-size="12.5" lengthAdjust="spacing" textLength="213.5417" x="317.7083" y="807.2408">The Payer can now receive RTPs.</text><line style="stroke:#2196F3;stroke-width:1.0416666666666667;stroke-dasharray:2.0,2.0;" x1="19.7917" x2="1892.1875" y1="835.1888" y2="835.1888"/><text fill="#222222" font-family="Verdana" font-size="12.5" font-weight="bold" lengthAdjust="spacing" textLength="5.2083" x="35.4167" y="857.2083">[</text><text fill="#222222" font-family="Verdana" font-size="12.5" font-weight="bold" lengthAdjust="spacing" textLength="341.6667" x="40.625" y="857.2083">Conflict: Payer Already Exists -&gt; Generate OTP</text><text fill="#222222" font-family="Verdana" font-size="12.5" font-weight="bold" lengthAdjust="spacing" textLength="5.2083" x="382.2917" y="857.2083">]</text><line style="stroke:#2196F3;stroke-width:3.125;" x1="995.3125" x2="1039.0625" y1="913.2487" y2="913.2487"/><line style="stroke:#2196F3;stroke-width:3.125;" x1="1039.0625" x2="1039.0625" y1="913.2487" y2="926.7904"/><line style="stroke:#2196F3;stroke-width:3.125;" x1="996.3542" x2="1039.0625" y1="926.7904" y2="926.7904"/><polygon fill="#2196F3" points="1006.7708,922.6237,996.3542,926.7904,1006.7708,930.957,1002.6042,926.7904" style="stroke:#2196F3;stroke-width:1.0416666666666667;"/><text fill="#222222" font-family="Verdana" font-size="12.5" font-weight="bold" lengthAdjust="spacing" textLength="18.75" x="1013.0208" y="897.8007">[8]</text><text fill="#222222" font-family="Verdana" font-size="12.5" lengthAdjust="spacing" textLength="277.0833" x="1056.7708" y="897.8007">Create `Payer` object to attempt insertion</text><polygon fill="#2196F3" points="1523.4375,972.5911,1533.8542,976.7578,1523.4375,980.9245,1527.6042,976.7578" style="stroke:#2196F3;stroke-width:1.0416666666666667;"/><line style="stroke:#2196F3;stroke-width:3.125;" x1="995.3125" x2="1529.6875" y1="976.7578" y2="976.7578"/><text fill="#222222" font-family="Verdana" font-size="12.5" font-weight="bold" lengthAdjust="spacing" textLength="18.75" x="1013.0208" y="961.3098">[9]</text><text fill="#222222" font-family="Verdana" font-size="12.5" lengthAdjust="spacing" textLength="89.5833" x="1056.7708" y="961.3098">`save(payer)`</text><polygon fill="#2196F3" points="1006.7708,1022.5586,996.3542,1026.7253,1006.7708,1030.8919,1002.6042,1026.7253" style="stroke:#2196F3;stroke-width:1.0416666666666667;"/><line style="stroke:#2196F3;stroke-width:3.125;stroke-dasharray:2.0,2.0;" x1="1000.5208" x2="1540.1042" y1="1026.7253" y2="1026.7253"/><text fill="#222222" font-family="Verdana" font-size="12.5" font-weight="bold" lengthAdjust="spacing" textLength="27.0833" x="1023.4375" y="1011.2773">[10]</text><text fill="#222222" font-family="Verdana" font-size="12.5" font-weight="bold" lengthAdjust="spacing" textLength="41.6667" x="1075.5208" y="1011.2773">Error:</text><text fill="#222222" font-family="Verdana" font-size="12.5" lengthAdjust="spacing" textLength="159.375" x="1121.3542" y="1011.2773">`DuplicateKeyException`</text><path d="M1000,1044.4336 L1000,1080.8919 A4.1667,4.1667 0 0 0 1004.1667,1085.0586 L1372.9167,1085.0586 A4.1667,4.1667 0 0 0 1377.0833,1080.8919 L1377.0833,1050.6836 L1366.6667,1040.2669 L1004.1667,1040.2669 A4.1667,4.1667 0 0 0 1000,1044.4336 " fill="url(#g1wdpl356frj342)" filter="url(#f1wdpl356frj34)" style="stroke:#9C27B0;stroke-width:1.0416666666666667;"/><path d="M1366.6667,1040.2669 L1366.6667,1048.6003 A2.0833,2.0833 0 0 0 1368.75,1050.6836 L1377.0833,1050.6836 L1366.6667,1040.2669 " fill="url(#g1wdpl356frj342)" style="stroke:#9C27B0;stroke-width:1.0416666666666667;"/><text fill="#FFFFFF" font-family="Verdana" font-size="12.5" lengthAdjust="spacing" textLength="334.375" x="1016.6667" y="1067.4947">A unique key constraint on fiscalCode was violated.</text><line style="stroke:#2196F3;stroke-width:3.125;" x1="995.3125" x2="1039.0625" y1="1136.0352" y2="1136.0352"/><line style="stroke:#2196F3;stroke-width:3.125;" x1="1039.0625" x2="1039.0625" y1="1136.0352" y2="1149.5768"/><line style="stroke:#2196F3;stroke-width:3.125;" x1="996.3542" x2="1039.0625" y1="1149.5768" y2="1149.5768"/><polygon fill="#2196F3" points="1006.7708,1145.4102,996.3542,1149.5768,1006.7708,1153.7435,1002.6042,1149.5768" style="stroke:#2196F3;stroke-width:1.0416666666666667;"/><text fill="#222222" font-family="Verdana" font-size="12.5" font-weight="bold" lengthAdjust="spacing" textLength="27.0833" x="1013.0208" y="1120.5872">[11]</text><text fill="#222222" font-family="Verdana" font-size="12.5" lengthAdjust="spacing" textLength="383.3333" x="1065.1042" y="1120.5872">Map `DuplicateKeyException` to `PayerAlreadyExists` error</text><path d="M1470.8333,1105.8594 L1470.8333,1142.3177 A4.1667,4.1667 0 0 0 1475,1146.4844 L1863.5417,1146.4844 A4.1667,4.1667 0 0 0 1867.7083,1142.3177 L1867.7083,1112.1094 L1857.2917,1101.6927 L1475,1101.6927 A4.1667,4.1667 0 0 0 1470.8333,1105.8594 " fill="url(#g1wdpl356frj342)" filter="url(#f1wdpl356frj34)" style="stroke:#9C27B0;stroke-width:1.0416666666666667;"/><path d="M1857.2917,1101.6927 L1857.2917,1110.026 A2.0833,2.0833 0 0 0 1859.375,1112.1094 L1867.7083,1112.1094 L1857.2917,1101.6927 " fill="url(#g1wdpl356frj342)" style="stroke:#9C27B0;stroke-width:1.0416666666666667;"/><text fill="#FFFFFF" font-family="Verdana" font-size="12.5" lengthAdjust="spacing" textLength="354.1667" x="1487.5" y="1128.9205">As per `.onErrorResume(PayerAlreadyExists.class, ...)`</text><line style="stroke:#2196F3;stroke-width:3.125;" x1="995.3125" x2="1039.0625" y1="1204.7363" y2="1204.7363"/><line style="stroke:#2196F3;stroke-width:3.125;" x1="1039.0625" x2="1039.0625" y1="1204.7363" y2="1218.278"/><line style="stroke:#2196F3;stroke-width:3.125;" x1="996.3542" x2="1039.0625" y1="1218.278" y2="1218.278"/><polygon fill="#2196F3" points="1006.7708,1214.1113,996.3542,1218.278,1006.7708,1222.4447,1002.6042,1218.278" style="stroke:#2196F3;stroke-width:1.0416666666666667;"/><text fill="#222222" font-family="Verdana" font-size="12.5" font-weight="bold" lengthAdjust="spacing" textLength="27.0833" x="1013.0208" y="1189.2883">[12]</text><text fill="#222222" font-family="Verdana" font-size="12.5" font-weight="bold" lengthAdjust="spacing" textLength="219.7917" x="1065.1042" y="1189.2883">Call `generateTakeOverOtp()`</text><path d="M1307.2917,1167.2852 L1307.2917,1218.3268 A4.1667,4.1667 0 0 0 1311.4583,1222.4935 L1654.1667,1222.4935 A4.1667,4.1667 0 0 0 1658.3333,1218.3268 L1658.3333,1173.5352 L1647.9167,1163.1185 L1311.4583,1163.1185 A4.1667,4.1667 0 0 0 1307.2917,1167.2852 " fill="url(#g1wdpl356frj342)" filter="url(#f1wdpl356frj34)" style="stroke:#9C27B0;stroke-width:1.0416666666666667;"/><path d="M1647.9167,1163.1185 L1647.9167,1171.4518 A2.0833,2.0833 0 0 0 1650,1173.5352 L1658.3333,1173.5352 L1647.9167,1163.1185 " fill="url(#g1wdpl356frj342)" style="stroke:#9C27B0;stroke-width:1.0416666666666667;"/><text fill="#FFFFFF" font-family="Verdana" font-size="12.5" lengthAdjust="spacing" textLength="162.5" x="1323.9583" y="1190.3463">The payer already exists.</text><text fill="#FFFFFF" font-family="Verdana" font-size="12.5" lengthAdjust="spacing" textLength="308.3333" x="1323.9583" y="1204.8971">The service now initiates the takeover process.</text><line style="stroke:#2196F3;stroke-width:3.125;" x1="995.3125" x2="1039.0625" y1="1273.4375" y2="1273.4375"/><line style="stroke:#2196F3;stroke-width:3.125;" x1="1039.0625" x2="1039.0625" y1="1273.4375" y2="1286.9792"/><line style="stroke:#2196F3;stroke-width:3.125;" x1="996.3542" x2="1039.0625" y1="1286.9792" y2="1286.9792"/><polygon fill="#2196F3" points="1006.7708,1282.8125,996.3542,1286.9792,1006.7708,1291.1458,1002.6042,1286.9792" style="stroke:#2196F3;stroke-width:1.0416666666666667;"/><text fill="#222222" font-family="Verdana" font-size="12.5" font-weight="bold" lengthAdjust="spacing" textLength="27.0833" x="1013.0208" y="1257.9895">[13]</text><text fill="#222222" font-family="Verdana" font-size="12.5" lengthAdjust="spacing" textLength="236.4583" x="1065.1042" y="1257.9895">Generate takeover OTP (plain value)</text><line style="stroke:#2196F3;stroke-width:3.125;" x1="995.3125" x2="1039.0625" y1="1336.9466" y2="1336.9466"/><line style="stroke:#2196F3;stroke-width:3.125;" x1="1039.0625" x2="1039.0625" y1="1336.9466" y2="1350.4883"/><line style="stroke:#2196F3;stroke-width:3.125;" x1="996.3542" x2="1039.0625" y1="1350.4883" y2="1350.4883"/><polygon fill="#2196F3" points="1006.7708,1346.3216,996.3542,1350.4883,1006.7708,1354.6549,1002.6042,1350.4883" style="stroke:#2196F3;stroke-width:1.0416666666666667;"/><text fill="#222222" font-family="Verdana" font-size="12.5" font-weight="bold" lengthAdjust="spacing" textLength="27.0833" x="1013.0208" y="1321.4986">[14]</text><text fill="#222222" font-family="Verdana" font-size="12.5" lengthAdjust="spacing" textLength="200" x="1065.1042" y="1321.4986">Compute SHA-256 hash of OTP</text><polygon fill="#2196F3" points="1523.4375,1396.2891,1533.8542,1400.4557,1523.4375,1404.6224,1527.6042,1400.4557" style="stroke:#2196F3;stroke-width:1.0416666666666667;"/><line style="stroke:#2196F3;stroke-width:3.125;" x1="995.3125" x2="1529.6875" y1="1400.4557" y2="1400.4557"/><text fill="#222222" font-family="Verdana" font-size="12.5" font-weight="bold" lengthAdjust="spacing" textLength="27.0833" x="1013.0208" y="1385.0077">[15]</text><text fill="#222222" font-family="Verdana" font-size="12.5" lengthAdjust="spacing" textLength="383.3333" x="1065.1042" y="1385.0077">Create and save `TakeOverOtp` (otpHash = SHA-256(otp))</text><polygon fill="#2196F3" points="1006.7708,1472.7702,996.3542,1476.9368,1006.7708,1481.1035,1002.6042,1476.9368" style="stroke:#2196F3;stroke-width:1.0416666666666667;"/><line style="stroke:#2196F3;stroke-width:3.125;stroke-dasharray:2.0,2.0;" x1="1000.5208" x2="1540.1042" y1="1476.9368" y2="1476.9368"/><text fill="#222222" font-family="Verdana" font-size="12.5" font-weight="bold" lengthAdjust="spacing" textLength="27.0833" x="1023.4375" y="1461.4889">[16]</text><text fill="#222222" font-family="Verdana" font-size="12.5" lengthAdjust="spacing" textLength="126.0417" x="1075.5208" y="1461.4889">TakeOverOtp saved</text><path d="M1551.0417,1418.1641 L1551.0417,1498.3724 A4.1667,4.1667 0 0 0 1555.2083,1502.5391 L1841.6667,1502.5391 A4.1667,4.1667 0 0 0 1845.8333,1498.3724 L1845.8333,1424.4141 L1835.4167,1413.9974 L1555.2083,1413.9974 A4.1667,4.1667 0 0 0 1551.0417,1418.1641 " fill="url(#g1wdpl356frj342)" filter="url(#f1wdpl356frj34)" style="stroke:#9C27B0;stroke-width:1.0416666666666667;"/><path d="M1835.4167,1413.9974 L1835.4167,1422.3307 A2.0833,2.0833 0 0 0 1837.5,1424.4141 L1845.8333,1424.4141 L1835.4167,1413.9974 " fill="url(#g1wdpl356frj342)" style="stroke:#9C27B0;stroke-width:1.0416666666666667;"/><text fill="#FFFFFF" font-family="Verdana" font-size="12.5" lengthAdjust="spacing" textLength="225" x="1567.7083" y="1441.2252">The OTP is generated in plain form</text><text fill="#FFFFFF" font-family="Verdana" font-size="12.5" lengthAdjust="spacing" textLength="252.0833" x="1567.7083" y="1455.776">but only its SHA-256 hash is persisted.</text><text fill="#FFFFFF" font-family="Verdana" font-size="12.5" lengthAdjust="spacing" textLength="247.9167" x="1567.7083" y="1470.3267">The plain OTP is returned to the caller</text><text fill="#FFFFFF" font-family="Verdana" font-size="12.5" lengthAdjust="spacing" textLength="116.6667" x="1567.7083" y="1484.8775">and never stored.</text><polygon fill="#2196F3" points="577.6042,1563.8021,567.1875,1567.9688,577.6042,1572.1354,573.4375,1567.9688" style="stroke:#2196F3;stroke-width:1.0416666666666667;"/><line style="stroke:#2196F3;stroke-width:3.125;stroke-dasharray:2.0,2.0;" x1="571.3542" x2="983.8542" y1="1567.9688" y2="1567.9688"/><text fill="#222222" font-family="Verdana" font-size="12.5" font-weight="bold" lengthAdjust="spacing" textLength="27.0833" x="594.2708" y="1545.2454">[17]</text><text fill="#222222" font-family="Verdana" font-size="12.5" font-weight="bold" lengthAdjust="spacing" textLength="84.375" x="646.3542" y="1537.97">409 Conflict</text><text fill="#222222" font-family="Verdana" font-size="12.5" lengthAdjust="spacing" textLength="236.4583" x="646.3542" y="1552.5208">Header: `Location: /takeover/{otp}`</text><path d="M30.2083,1585.6771 L30.2083,1636.7188 A4.1667,4.1667 0 0 0 34.375,1640.8854 L553.125,1640.8854 A4.1667,4.1667 0 0 0 557.2917,1636.7188 L557.2917,1591.9271 L546.875,1581.5104 L34.375,1581.5104 A4.1667,4.1667 0 0 0 30.2083,1585.6771 " fill="url(#g1wdpl356frj342)" filter="url(#f1wdpl356frj34)" style="stroke:#9C27B0;stroke-width:1.0416666666666667;"/><path d="M546.875,1581.5104 L546.875,1589.8438 A2.0833,2.0833 0 0 0 548.9583,1591.9271 L557.2917,1591.9271 L546.875,1581.5104 " fill="url(#g1wdpl356frj342)" style="stroke:#9C27B0;stroke-width:1.0416666666666667;"/><text fill="#FFFFFF" font-family="Verdana" font-size="12.5" lengthAdjust="spacing" textLength="272.9167" x="46.875" y="1608.7382">An activation for this Payer already exists.</text><text fill="#FFFFFF" font-family="Verdana" font-size="12.5" lengthAdjust="spacing" textLength="484.375" x="46.875" y="1623.289">The `Location` header points to the takeover URI with the generated OTP.</text><line style="stroke:#2196F3;stroke-width:1.0416666666666667;stroke-dasharray:2.0,2.0;" x1="19.7917" x2="1892.1875" y1="1651.237" y2="1651.237"/><text fill="#222222" font-family="Verdana" font-size="12.5" font-weight="bold" lengthAdjust="spacing" textLength="5.2083" x="35.4167" y="1673.2564">[</text><text fill="#222222" font-family="Verdana" font-size="12.5" font-weight="bold" lengthAdjust="spacing" textLength="91.6667" x="40.625" y="1673.2564">Other Errors</text><text fill="#222222" font-family="Verdana" font-size="12.5" font-weight="bold" lengthAdjust="spacing" textLength="5.2083" x="132.2917" y="1673.2564">]</text><path d="M457.2917,1694.9544 L650,1694.9544 L650,1722.0052 L639.5833,1732.4219 L453.125,1732.4219 L453.125,1699.1211 A4.1667,4.1667 0 0 1 457.2917,1694.9544 " fill="#FFFFFF" style="stroke:#666666;stroke-width:1.0416666666666667;"/><rect fill="none" height="295.5404" rx="4.1667" ry="4.1667" style="stroke:#2196F3;stroke-width:1.0416666666666667;" width="673.4375" x="453.125" y="1694.9544"/><text fill="#9C27B0" font-family="Verdana" font-size="12.5" font-weight="bold" lengthAdjust="spacing" textLength="129.1667" x="479.1667" y="1718.0155">Client-Side Errors</text><polygon fill="#2196F3" points="577.6042,1784.4401,567.1875,1788.6068,577.6042,1792.7734,573.4375,1788.6068" style="stroke:#2196F3;stroke-width:1.0416666666666667;"/><line style="stroke:#2196F3;stroke-width:3.125;stroke-dasharray:2.0,2.0;" x1="571.3542" x2="983.8542" y1="1788.6068" y2="1788.6068"/><text fill="#222222" font-family="Verdana" font-size="12.5" font-weight="bold" lengthAdjust="spacing" textLength="27.0833" x="594.2708" y="1765.8834">[18]</text><text fill="#222222" font-family="Verdana" font-size="12.5" font-weight="bold" lengthAdjust="spacing" textLength="122.9167" x="646.3542" y="1758.608">400 Bad Request</text><text fill="#222222" font-family="Verdana" font-size="12.5" lengthAdjust="spacing" textLength="254.1667" x="646.3542" y="1773.1588">(e.g., Invalid fiscal code, missing fields)</text><polygon fill="#2196F3" points="577.6042,1848.9583,567.1875,1853.125,577.6042,1857.2917,573.4375,1853.125" style="stroke:#2196F3;stroke-width:1.0416666666666667;"/><line style="stroke:#2196F3;stroke-width:3.125;stroke-dasharray:2.0,2.0;" x1="571.3542" x2="983.8542" y1="1853.125" y2="1853.125"/><text fill="#222222" font-family="Verdana" font-size="12.5" font-weight="bold" lengthAdjust="spacing" textLength="27.0833" x="594.2708" y="1830.4016">[19]</text><text fill="#222222" font-family="Verdana" font-size="12.5" font-weight="bold" lengthAdjust="spacing" textLength="130.2083" x="646.3542" y="1823.1262">401 Unauthorized</text><text fill="#222222" font-family="Verdana" font-size="12.5" lengthAdjust="spacing" textLength="251.0417" x="646.3542" y="1837.677">(e.g., Invalid or expired security token)</text><polygon fill="#2196F3" points="577.6042,1913.4766,567.1875,1917.6432,577.6042,1921.8099,573.4375,1917.6432" style="stroke:#2196F3;stroke-width:1.0416666666666667;"/><line style="stroke:#2196F3;stroke-width:3.125;stroke-dasharray:2.0,2.0;" x1="571.3542" x2="983.8542" y1="1917.6432" y2="1917.6432"/><text fill="#222222" font-family="Verdana" font-size="12.5" font-weight="bold" lengthAdjust="spacing" textLength="27.0833" x="594.2708" y="1894.9198">[20]</text><text fill="#222222" font-family="Verdana" font-size="12.5" font-weight="bold" lengthAdjust="spacing" textLength="104.1667" x="646.3542" y="1887.6444">403 Forbidden</text><text fill="#222222" font-family="Verdana" font-size="12.5" lengthAdjust="spacing" textLength="196.875" x="646.3542" y="1902.1952">(e.g., Insufficient permissions)</text><polygon fill="#2196F3" points="577.6042,1977.9948,567.1875,1982.1615,577.6042,1986.3281,573.4375,1982.1615" style="stroke:#2196F3;stroke-width:1.0416666666666667;"/><line style="stroke:#2196F3;stroke-width:3.125;stroke-dasharray:2.0,2.0;" x1="571.3542" x2="983.8542" y1="1982.1615" y2="1982.1615"/><text fill="#222222" font-family="Verdana" font-size="12.5" font-weight="bold" lengthAdjust="spacing" textLength="27.0833" x="594.2708" y="1959.4381">[21]</text><text fill="#222222" font-family="Verdana" font-size="12.5" font-weight="bold" lengthAdjust="spacing" textLength="173.9583" x="646.3542" y="1952.1627">429 Too Many Requests</text><text fill="#222222" font-family="Verdana" font-size="12.5" lengthAdjust="spacing" textLength="171.875" x="646.3542" y="1966.7135">(e.g., Rate limit exceeded)</text><path d="M457.2917,2005.0781 L646.875,2005.0781 L646.875,2032.1289 L636.4583,2042.5456 L453.125,2042.5456 L453.125,2009.2448 A4.1667,4.1667 0 0 1 457.2917,2005.0781 " fill="#FFFFFF" style="stroke:#666666;stroke-width:1.0416666666666667;"/><rect fill="none" height="150.944" rx="4.1667" ry="4.1667" style="stroke:#2196F3;stroke-width:1.0416666666666667;" width="1306.7708" x="453.125" y="2005.0781"/><text fill="#9C27B0" font-family="Verdana" font-size="12.5" font-weight="bold" lengthAdjust="spacing" textLength="126.0417" x="479.1667" y="2028.1392">Server-Side Error</text><line style="stroke:#2196F3;stroke-width:3.125;" x1="995.3125" x2="1039.0625" y1="2084.1797" y2="2084.1797"/><line style="stroke:#2196F3;stroke-width:3.125;" x1="1039.0625" x2="1039.0625" y1="2084.1797" y2="2097.7214"/><line style="stroke:#2196F3;stroke-width:3.125;" x1="996.3542" x2="1039.0625" y1="2097.7214" y2="2097.7214"/><polygon fill="#2196F3" points="1006.7708,2093.5547,996.3542,2097.7214,1006.7708,2101.888,1002.6042,2097.7214" style="stroke:#2196F3;stroke-width:1.0416666666666667;"/><text fill="#222222" font-family="Verdana" font-size="12.5" font-weight="bold" lengthAdjust="spacing" textLength="27.0833" x="1013.0208" y="2068.7317">[22]</text><text fill="#222222" font-family="Verdana" font-size="12.5" lengthAdjust="spacing" textLength="236.4583" x="1065.1042" y="2068.7317">An unexpected internal error occurs</text><path d="M1323.9583,2054.0039 L1323.9583,2090.4622 A4.1667,4.1667 0 0 0 1328.125,2094.6289 L1731.25,2094.6289 A4.1667,4.1667 0 0 0 1735.4167,2090.4622 L1735.4167,2060.2539 L1725,2049.8372 L1328.125,2049.8372 A4.1667,4.1667 0 0 0 1323.9583,2054.0039 " fill="url(#g1wdpl356frj342)" filter="url(#f1wdpl356frj34)" style="stroke:#9C27B0;stroke-width:1.0416666666666667;"/><path d="M1725,2049.8372 L1725,2058.1706 A2.0833,2.0833 0 0 0 1727.0833,2060.2539 L1735.4167,2060.2539 L1725,2049.8372 " fill="url(#g1wdpl356frj342)" style="stroke:#9C27B0;stroke-width:1.0416666666666667;"/><text fill="#FFFFFF" font-family="Verdana" font-size="12.5" lengthAdjust="spacing" textLength="368.75" x="1340.625" y="2077.065">e.g., Database connection failure, unhandled exception.</text><polygon fill="#2196F3" points="577.6042,2143.5221,567.1875,2147.6888,577.6042,2151.8555,573.4375,2147.6888" style="stroke:#2196F3;stroke-width:1.0416666666666667;"/><line style="stroke:#2196F3;stroke-width:3.125;stroke-dasharray:2.0,2.0;" x1="571.3542" x2="983.8542" y1="2147.6888" y2="2147.6888"/><text fill="#222222" font-family="Verdana" font-size="12.5" font-weight="bold" lengthAdjust="spacing" textLength="27.0833" x="594.2708" y="2132.2408">[23]</text><text fill="#222222" font-family="Verdana" font-size="12.5" font-weight="bold" lengthAdjust="spacing" textLength="180.2083" x="646.3542" y="2132.2408">500 Internal Server Error</text><!--SRC=[fLPTRzis57tNhxXBWTKM6ZNDrW4rjW9EtAt1siM8tRwi0yH8rpONcTH8ogbNxB_la99ioOdH0SjBB8dtwznpp-LJcXP2kG_ltz54YgKHQrfeGpVpAOqp9pV2IQreFBsAdj9Ske97z479XUJyyCoC_wfOPRppSo_TYgvnQ2xkM6_OmCL7DXQ7HtIUl4ZEy6B2DZEoTE7bV2KjvOsvNUbxIsx5bBCJia34qkYChGqPYYQoMfAWgTYoIU2kztUr2ERX8ud2iCYtn9-bTVOPZ5oJLiWHWPUis0Z7UH95ty1mpRJ6ev4YYfml_H5KHZIzditfkTYzjL641oHu4iSXybCBQCn60fcfqHkPiudZ4nAMfhDfL0hZP2PBzC1RzF0CHitPyIpAXHEtmh8_Dsb-Dryd5uXQEQsgzIqAEldnzlNlPt-SH152qEbhM8y8wI3LEEub-qaDcf1rTG7P6h5X9Del21ufZHz6BbUEzCA_8NYyBZrYldVmcxRdKtmRqwxuAMMYA7mh0RBJP7Y95lYMK6NnpyVqVVBnRLrq4h7AoOUCel6ihU2ZA6GUClLKiuw-1KXPPQJRqbpViG88XQCdfIXuQPWLCfnLMQ3C9S0QqMzytz1X3tGSHv5dopxE9PY2A6aucPA-_PCpLzDPa8ABT6zzDKb985UaOHWzT7ADpCIw33xte8reR0beKQhQ70P9aWpJRl39nOXIApOyA4C7ql1jrmPqsJzFBkYqoRIknLlaPEjA5rLHRCEvdBkM1pM-qykE1UqfSJJl9DVNge7pC7Ku1TCynyxFNZJuvN7yIRt5pB51LUzqLXEbHx_dNu161ypydtGVl-15u9eVatQav-39tfxkmVrz5KdlM8rD9XIytODq6SjD89cjp-qPnWM6wadXozroKU1q75zgjIXavbgCnuryl0douL7yfP4BBn__bKDWlt2ErwKZgS3r0FZ_8K0Slp56cp1-awf4nZZtAs_VVCuuY6hw21Nw7Qx76NscIadC5TtnbZ8qnnaXmMZ0l90M8tofSmw8RwGk6fti5_rUbCVIyANNO3H8ra2cn3x_uwJJAXHumxPQy-2XWoGhX8MSFvYb6frBA0-bhRBxHNGDnRzsvM2Oecdzi3twb8ziZJx16gqAz99AEea8zSBQRPPcOHqIhf_bZaYzXJGe2y1F6r5KF3mabrwN5GncRyUdvoz_e9MmAzz6s1sogU6XboZFAqex6AGqqAvywur_QdtvDyFXrsZNSLAhpp71UG2k1-vmtm8zggl5AbWt1syhJxrYInBZrYjK1cvOlqFofEEsTj4uD-mge-0RlFCjyIk8JNFQew7O8ssngLil3_kpbxNlprvHAmd7TArjt_ClmF1hGZPMNHshLo3IddwLTRk8AQr24bHgZAbj2zsHwCFDLRsp_Dizri3dSVtBXRa35dwhmy9Gc3lRAjlIwAgaoq9YoPtES8bflkyBEi3hZ2v4tcvg3zc0asNoZAxKng_nHbCWD3a_exMqrj_aSAyiSZiywlG5Bf-uvwoqaN_N2-R0At3apwNqTTZsQk3yrU2up-_ePsrkPPwpwZcqrMA1cvbVwg1Ro12YUDJF-IlSGJGaK6tRgct7tusVYaAkfKE26NFE-N3NXW1k5sT_zsFJmRaNjPv1CAXIA1Px9OmGRbGAW0Oz9PsX-7rpkj9QvzDU8BtIAxW8BCGjkp9eHwLM615_u-PMm9CZTRz4ew_Qs7NQTSQDkdRAmyyewcZ4UFOl]--></g></svg>