<?xml version="1.0" encoding="us-ascii" standalone="no"?><svg xmlns="http://www.w3.org/2000/svg" xmlns:xlink="http://www.w3.org/1999/xlink" contentStyleType="text/css" height="220px" preserveAspectRatio="none" style="width:371px;height:220px;background:#FFFFFF;" version="1.1" viewBox="0 0 371 220" width="371px" zoomAndPan="magnify"><defs><filter height="300%" id="fl8m1fn24t318" width="300%" x="-1" y="-1"><feGaussianBlur result="blurOut" stdDeviation="2.0"/><feColorMatrix in="blurOut" result="blurOut2" type="matrix" values="0 0 0 0 0 0 0 0 0 0 0 0 0 0 0 0 0 0 .4 0"/><feOffset dx="4.0" dy="4.0" in="blurOut2" result="blurOut3"/><feBlend in="SourceGraphic" in2="blurOut3" mode="normal"/></filter></defs><g><rect fill="#FFFFFF" filter="url(#fl8m1fn24t318)" height="87.3984" style="stroke:#A80036;stroke-width:1.0;" width="10" x="186" y="71.4297"/><line style="stroke:#A80036;stroke-width:1.0;stroke-dasharray:5.0,5.0;" x1="55" x2="55" y1="40.2969" y2="176.8281"/><line style="stroke:#A80036;stroke-width:1.0;stroke-dasharray:5.0,5.0;" x1="191" x2="191" y1="40.2969" y2="176.8281"/><line style="stroke:#A80036;stroke-width:1.0;stroke-dasharray:5.0,5.0;" x1="319" x2="319" y1="40.2969" y2="176.8281"/><rect fill="#FEFECE" filter="url(#fl8m1fn24t318)" height="30.2969" style="stroke:#A80036;stroke-width:1.5;" width="96" x="5" y="5"/><text fill="#000000" font-family="sans-serif" font-size="14" lengthAdjust="spacing" textLength="82" x="12" y="24.9951">SP Debitore</text><rect fill="#FEFECE" filter="url(#fl8m1fn24t318)" height="30.2969" style="stroke:#A80036;stroke-width:1.5;" width="96" x="5" y="175.8281"/><text fill="#000000" font-family="sans-serif" font-size="14" lengthAdjust="spacing" textLength="82" x="12" y="195.8232">SP Debitore</text><rect fill="#FEFECE" filter="url(#fl8m1fn24t318)" height="30.2969" style="stroke:#A80036;stroke-width:1.5;" width="148" x="115" y="5"/><text fill="#000000" font-family="sans-serif" font-size="14" lengthAdjust="spacing" textLength="134" x="122" y="24.9951">Gestore Repository</text><rect fill="#FEFECE" filter="url(#fl8m1fn24t318)" height="30.2969" style="stroke:#A80036;stroke-width:1.5;" width="148" x="115" y="175.8281"/><text fill="#000000" font-family="sans-serif" font-size="14" lengthAdjust="spacing" textLength="134" x="122" y="195.8232">Gestore Repository</text><rect fill="#FEFECE" filter="url(#fl8m1fn24t318)" height="30.2969" style="stroke:#A80036;stroke-width:1.5;" width="80" x="277" y="5"/><text fill="#000000" font-family="sans-serif" font-size="14" lengthAdjust="spacing" textLength="66" x="284" y="24.9951">Database</text><rect fill="#FEFECE" filter="url(#fl8m1fn24t318)" height="30.2969" style="stroke:#A80036;stroke-width:1.5;" width="80" x="277" y="175.8281"/><text fill="#000000" font-family="sans-serif" font-size="14" lengthAdjust="spacing" textLength="66" x="284" y="195.8232">Database</text><rect fill="#FFFFFF" filter="url(#fl8m1fn24t318)" height="87.3984" style="stroke:#A80036;stroke-width:1.0;" width="10" x="186" y="71.4297"/><polygon fill="#A80036" points="174,67.4297,184,71.4297,174,75.4297,178,71.4297" style="stroke:#A80036;stroke-width:1.0;"/><line style="stroke:#A80036;stroke-width:1.0;" x1="55" x2="180" y1="71.4297" y2="71.4297"/><text fill="#000000" font-family="sans-serif" font-size="13" lengthAdjust="spacing" textLength="111" x="62" y="66.3638">POST /activations</text><polygon fill="#A80036" points="307,96.5625,317,100.5625,307,104.5625,311,100.5625" style="stroke:#A80036;stroke-width:1.0;"/><line style="stroke:#A80036;stroke-width:1.0;" x1="196" x2="313" y1="100.5625" y2="100.5625"/><text fill="#000000" font-family="sans-serif" font-size="13" lengthAdjust="spacing" textLength="30" x="203" y="95.4966">save</text><polygon fill="#A80036" points="207,125.6953,197,129.6953,207,133.6953,203,129.6953" style="stroke:#A80036;stroke-width:1.0;"/><line style="stroke:#A80036;stroke-width:1.0;stroke-dasharray:2.0,2.0;" x1="201" x2="318" y1="129.6953" y2="129.6953"/><text fill="#000000" font-family="sans-serif" font-size="13" lengthAdjust="spacing" textLength="70" x="213" y="124.6294">saved user</text><polygon fill="#A80036" points="66,154.8281,56,158.8281,66,162.8281,62,158.8281" style="stroke:#A80036;stroke-width:1.0;"/><line style="stroke:#A80036;stroke-width:1.0;stroke-dasharray:2.0,2.0;" x1="60" x2="190" y1="158.8281" y2="158.8281"/><text fill="#000000" font-family="sans-serif" font-size="13" lengthAdjust="spacing" textLength="46" x="72" y="153.7622">200 OK</text><!--SRC=[LSmn3eCm38NXtQTuOaT57HawH94OEe12Bs30GrI9e3WWzVObXQ6CjZ__-lOpOb2XXMFoerzuJYZw3bO6dqAK0gpeEti5ZMW-miaIDBlFppNkoYmd7bYFY3L4UmZbOtSrkhP_uSPZyXid7sObEWV97MfSbjRKKDw4h45vVkPvmgeI3xMlSxV6lQhGFeac-Izz0G00]--></g></svg>