<?xml version="1.0" encoding="us-ascii" standalone="no"?><svg xmlns="http://www.w3.org/2000/svg" xmlns:xlink="http://www.w3.org/1999/xlink" contentStyleType="text/css" height="2108.3333px" preserveAspectRatio="none" style="width:1909px;height:2108px;" version="1.1" viewBox="0 0 1909 2108" width="1909.375px" zoomAndPan="magnify"><defs><linearGradient id="gyzo4f3hb3iys0" x1="50%" x2="50%" y1="0%" y2="100%"><stop offset="0%" stop-color="#FFFFFF"/><stop offset="100%" stop-color="#FFFFFF"/></linearGradient><filter height="300%" id="fyzo4f3hb3iys" width="300%" x="-1" y="-1"><feGaussianBlur result="blurOut" stdDeviation="2.0833333333333335"/><feColorMatrix in="blurOut" result="blurOut2" type="matrix" values="0 0 0 0 0 0 0 0 0 0 0 0 0 0 0 0 0 0 .4 0"/><feOffset dx="4.166666666666667" dy="4.166666666666667" in="blurOut2" result="blurOut3"/><feBlend in="SourceGraphic" in2="blurOut3" mode="normal"/></filter><linearGradient id="gyzo4f3hb3iys1" x1="50%" x2="50%" y1="0%" y2="100%"><stop offset="0%" stop-color="#4DABF5"/><stop offset="100%" stop-color="#2196F3"/></linearGradient><linearGradient id="gyzo4f3hb3iys2" x1="50%" x2="50%" y1="0%" y2="100%"><stop offset="0%" stop-color="#B052C0"/><stop offset="100%" stop-color="#9C27B0"/></linearGradient></defs><g><rect fill="url(#gyzo4f3hb3iys0)" height="57.5846" id="_title" rx="4.1667" ry="4.1667" style="stroke:#CCCCCC;stroke-width:1.0416666666666667;" width="478.125" x="716.9271" y="20.8333"/><text fill="#2196F3" font-family="Verdana" font-size="20.8333" font-weight="bold" lengthAdjust="spacing" textLength="444.7917" x="733.5938" y="56.838">RTP Activation API: POST /activations</text><rect fill="#FFFFFF" filter="url(#fyzo4f3hb3iys)" height="1732.0313" style="stroke:#CCCCCC;stroke-width:1.0416666666666667;" width="10.4167" x="984.8958" y="258.5286"/><rect fill="#FFFFFF" filter="url(#fyzo4f3hb3iys)" height="49.9674" style="stroke:#CCCCCC;stroke-width:1.0416666666666667;" width="10.4167" x="1535.9375" y="573.9258"/><rect fill="#FFFFFF" filter="url(#fyzo4f3hb3iys)" height="49.9674" style="stroke:#CCCCCC;stroke-width:1.0416666666666667;" width="10.4167" x="1535.9375" y="976.7578"/><rect fill="#FFFFFF" filter="url(#fyzo4f3hb3iys)" height="49.9674" style="stroke:#CCCCCC;stroke-width:1.0416666666666667;" width="10.4167" x="1535.9375" y="1273.4375"/><rect fill="#98FB98" filter="url(#fyzo4f3hb3iys)" height="1571.7122" rx="4.1667" ry="4.1667" style="stroke:#2196F3;stroke-width:1.0416666666666667;" width="1872.3958" x="19.7917" y="411.556"/><path d="M19.7917,834.1471 L1892.1875,834.1471 L1892.1875,1465.9831 A4.1667,4.1667 0 0 1 1888.0208,1470.1497 L23.9583,1470.1497 A4.1667,4.1667 0 0 1 19.7917,1465.9831 L19.7917,834.1471 " fill="#FFFFE0" style="stroke:none;stroke-width:1.0416666666666667;"/><path d="M19.7917,1470.1497 L1892.1875,1470.1497 L1892.1875,1979.1016 A4.1667,4.1667 0 0 1 1888.0208,1983.2682 L23.9583,1983.2682 A4.1667,4.1667 0 0 1 19.7917,1979.1016 L19.7917,1470.1497 " fill="#8B0000" style="stroke:none;stroke-width:1.0416666666666667;"/><rect fill="url(#gyzo4f3hb3iys0)" filter="url(#fyzo4f3hb3iys)" height="295.5404" rx="4.1667" ry="4.1667" style="stroke:#2196F3;stroke-width:1.0416666666666667;" width="673.4375" x="453.125" y="1514.9089"/><rect fill="url(#gyzo4f3hb3iys0)" filter="url(#fyzo4f3hb3iys)" height="150.944" rx="4.1667" ry="4.1667" style="stroke:#2196F3;stroke-width:1.0416666666666667;" width="1306.7708" x="453.125" y="1825.0326"/><line style="stroke:#CCCCCC;stroke-width:1.0416666666666667;stroke-dasharray:5.0,5.0;" x1="565.625" x2="565.625" y1="191.9271" y2="2000.9766"/><line style="stroke:#CCCCCC;stroke-width:1.0416666666666667;stroke-dasharray:5.0,5.0;" x1="990.1042" x2="990.1042" y1="191.9271" y2="2000.9766"/><line style="stroke:#CCCCCC;stroke-width:1.0416666666666667;stroke-dasharray:5.0,5.0;" x1="1540.625" x2="1540.625" y1="191.9271" y2="2000.9766"/><text fill="#222222" font-family="Verdana" font-size="12.5" font-weight="bold" lengthAdjust="spacing" textLength="178.125" x="473.9583" y="178.5624">Payer's Service Provider</text><ellipse cx="566.1458" cy="99.2513" fill="url(#gyzo4f3hb3iys1)" filter="url(#fyzo4f3hb3iys)" rx="8.3333" ry="8.3333" style="stroke:#2196F3;stroke-width:1.0416666666666667;"/><path d="M566.1458,107.5846 L566.1458,135.7096 M552.6042,115.918 L579.6875,115.918 M566.1458,135.7096 L552.6042,151.3346 M566.1458,135.7096 L579.6875,151.3346 " fill="none" filter="url(#fyzo4f3hb3iys)" style="stroke:#2196F3;stroke-width:1.0416666666666667;"/><text fill="#222222" font-family="Verdana" font-size="12.5" font-weight="bold" lengthAdjust="spacing" textLength="178.125" x="473.9583" y="2021.9543">Payer's Service Provider</text><ellipse cx="566.1458" cy="2044.694" fill="url(#gyzo4f3hb3iys1)" filter="url(#fyzo4f3hb3iys)" rx="8.3333" ry="8.3333" style="stroke:#2196F3;stroke-width:1.0416666666666667;"/><path d="M566.1458,2053.0273 L566.1458,2081.1523 M552.6042,2061.3607 L579.6875,2061.3607 M566.1458,2081.1523 L552.6042,2096.7773 M566.1458,2081.1523 L579.6875,2096.7773 " fill="none" filter="url(#fyzo4f3hb3iys)" style="stroke:#2196F3;stroke-width:1.0416666666666667;"/><rect fill="url(#gyzo4f3hb3iys1)" filter="url(#fyzo4f3hb3iys)" height="49.9674" rx="4.1667" ry="4.1667" style="stroke:#2196F3;stroke-width:1.0416666666666667;" width="165.625" x="905.7292" y="137.793"/><text fill="#FFFFFF" font-family="Verdana" font-size="12.5" font-weight="bold" lengthAdjust="spacing" textLength="130.2083" x="923.4375" y="167.1041">Activation Service</text><rect fill="url(#gyzo4f3hb3iys1)" filter="url(#fyzo4f3hb3iys)" height="49.9674" rx="4.1667" ry="4.1667" style="stroke:#2196F3;stroke-width:1.0416666666666667;" width="165.625" x="905.7292" y="1999.9349"/><text fill="#FFFFFF" font-family="Verdana" font-size="12.5" font-weight="bold" lengthAdjust="spacing" textLength="130.2083" x="923.4375" y="2029.246">Activation Service</text><text fill="#222222" font-family="Verdana" font-size="12.5" font-weight="bold" lengthAdjust="spacing" textLength="71.875" x="1502.0833" y="178.5624">Database</text><path d="M1522.3958,119.043 C1522.3958,108.6263 1541.1458,108.6263 1541.1458,108.6263 C1541.1458,108.6263 1559.8958,108.6263 1559.8958,119.043 L1559.8958,146.1263 C1559.8958,156.543 1541.1458,156.543 1541.1458,156.543 C1541.1458,156.543 1522.3958,156.543 1522.3958,146.1263 L1522.3958,119.043 " fill="url(#gyzo4f3hb3iys1)" filter="url(#fyzo4f3hb3iys)" style="stroke:#2196F3;stroke-width:1.5625;"/><path d="M1522.3958,119.043 C1522.3958,129.4596 1541.1458,129.4596 1541.1458,129.4596 C1541.1458,129.4596 1559.8958,129.4596 1559.8958,119.043 " fill="none" style="stroke:#2196F3;stroke-width:1.5625;"/><text fill="#222222" font-family="Verdana" font-size="12.5" font-weight="bold" lengthAdjust="spacing" textLength="71.875" x="1502.0833" y="2021.9543">Database</text><path d="M1522.3958,2045.7357 C1522.3958,2035.319 1541.1458,2035.319 1541.1458,2035.319 C1541.1458,2035.319 1559.8958,2035.319 1559.8958,2045.7357 L1559.8958,2072.819 C1559.8958,2083.2357 1541.1458,2083.2357 1541.1458,2083.2357 C1541.1458,2083.2357 1522.3958,2083.2357 1522.3958,2072.819 L1522.3958,2045.7357 " fill="url(#gyzo4f3hb3iys1)" filter="url(#fyzo4f3hb3iys)" style="stroke:#2196F3;stroke-width:1.5625;"/><path d="M1522.3958,2045.7357 C1522.3958,2056.1523 1541.1458,2056.1523 1541.1458,2056.1523 C1541.1458,2056.1523 1559.8958,2056.1523 1559.8958,2045.7357 " fill="none" style="stroke:#2196F3;stroke-width:1.5625;"/><rect fill="#FFFFFF" filter="url(#fyzo4f3hb3iys)" height="1732.0313" style="stroke:#CCCCCC;stroke-width:1.0416666666666667;" width="10.4167" x="984.8958" y="258.5286"/><rect fill="#FFFFFF" filter="url(#fyzo4f3hb3iys)" height="49.9674" style="stroke:#CCCCCC;stroke-width:1.0416666666666667;" width="10.4167" x="1535.9375" y="573.9258"/><rect fill="#FFFFFF" filter="url(#fyzo4f3hb3iys)" height="49.9674" style="stroke:#CCCCCC;stroke-width:1.0416666666666667;" width="10.4167" x="1535.9375" y="976.7578"/><rect fill="#FFFFFF" filter="url(#fyzo4f3hb3iys)" height="49.9674" style="stroke:#CCCCCC;stroke-width:1.0416666666666667;" width="10.4167" x="1535.9375" y="1273.4375"/><polygon fill="#2196F3" points="972.3958,254.362,982.8125,258.5286,972.3958,262.6953,976.5625,258.5286" style="stroke:#2196F3;stroke-width:1.0416666666666667;"/><line style="stroke:#2196F3;stroke-width:3.125;" x1="566.1458" x2="978.6458" y1="258.5286" y2="258.5286"/><text fill="#222222" font-family="Verdana" font-size="12.5" font-weight="bold" lengthAdjust="spacing" textLength="18.75" x="583.8542" y="235.8053">[1]</text><text fill="#222222" font-family="Verdana" font-size="12.5" font-weight="bold" lengthAdjust="spacing" textLength="38.5417" x="627.6042" y="228.5299">POST</text><text fill="#222222" font-family="Verdana" font-size="12.5" lengthAdjust="spacing" textLength="75" x="670.3125" y="228.5299">/activations</text><text fill="#222222" font-family="Verdana" font-size="12.5" lengthAdjust="spacing" textLength="165.625" x="627.6042" y="243.0806">(Activate RTP for a Payer)</text><path d="M1000,276.237 L1000,327.2786 A4.1667,4.1667 0 0 0 1004.1667,331.4453 L1429.1667,331.4453 A4.1667,4.1667 0 0 0 1433.3333,327.2786 L1433.3333,282.487 L1422.9167,272.0703 L1004.1667,272.0703 A4.1667,4.1667 0 0 0 1000,276.237 " fill="url(#gyzo4f3hb3iys2)" filter="url(#fyzo4f3hb3iys)" style="stroke:#9C27B0;stroke-width:1.0416666666666667;"/><path d="M1422.9167,272.0703 L1422.9167,280.4036 A2.0833,2.0833 0 0 0 1425,282.487 L1433.3333,282.487 L1422.9167,272.0703 " fill="url(#gyzo4f3hb3iys2)" style="stroke:#9C27B0;stroke-width:1.0416666666666667;"/><text fill="#FFFFFF" font-family="Verdana" font-size="12.5" font-weight="bold" lengthAdjust="spacing" textLength="80.2083" x="1016.6667" y="299.2981">Operation:</text><text fill="#FFFFFF" font-family="Verdana" font-size="12.5" lengthAdjust="spacing" textLength="64.5833" x="1101.0417" y="299.2981">`activate`</text><text fill="#FFFFFF" font-family="Verdana" font-size="12.5" lengthAdjust="spacing" textLength="390.625" x="1016.6667" y="313.8489">A Payer's SP calls this to register a user for the RTP service.</text><line style="stroke:#2196F3;stroke-width:3.125;" x1="995.3125" x2="1039.0625" y1="382.3893" y2="382.3893"/><line style="stroke:#2196F3;stroke-width:3.125;" x1="1039.0625" x2="1039.0625" y1="382.3893" y2="395.931"/><line style="stroke:#2196F3;stroke-width:3.125;" x1="996.3542" x2="1039.0625" y1="395.931" y2="395.931"/><polygon fill="#2196F3" points="1006.7708,391.7643,996.3542,395.931,1006.7708,400.0977,1002.6042,395.931" style="stroke:#2196F3;stroke-width:1.0416666666666667;"/><text fill="#222222" font-family="Verdana" font-size="12.5" font-weight="bold" lengthAdjust="spacing" textLength="18.75" x="1013.0208" y="366.9413">[2]</text><text fill="#222222" font-family="Verdana" font-size="12.5" lengthAdjust="spacing" textLength="226.0417" x="1056.7708" y="366.9413">Validate Request &amp; Security Token</text><path d="M23.9583,411.556 L107.2917,411.556 L107.2917,438.6068 L96.875,449.0234 L19.7917,449.0234 L19.7917,415.7227 A4.1667,4.1667 0 0 1 23.9583,411.556 " fill="#FFFFFF" style="stroke:#666666;stroke-width:1.0416666666666667;"/><rect fill="none" height="1571.7122" rx="4.1667" ry="4.1667" style="stroke:#2196F3;stroke-width:1.0416666666666667;" width="1872.3958" x="19.7917" y="411.556"/><text fill="#9C27B0" font-family="Verdana" font-size="12.5" font-weight="bold" lengthAdjust="spacing" textLength="19.7917" x="45.8333" y="434.6171">alt</text><text fill="#222222" font-family="Verdana" font-size="12.5" font-weight="bold" lengthAdjust="spacing" textLength="5.2083" x="133.3333" y="435.6588">[</text><text fill="#222222" font-family="Verdana" font-size="12.5" font-weight="bold" lengthAdjust="spacing" textLength="265.625" x="138.5417" y="435.6588">Success Case: New Payer Activation</text><text fill="#222222" font-family="Verdana" font-size="12.5" font-weight="bold" lengthAdjust="spacing" textLength="5.2083" x="404.1667" y="435.6588">]</text><line style="stroke:#2196F3;stroke-width:3.125;" x1="995.3125" x2="1039.0625" y1="510.4167" y2="510.4167"/><line style="stroke:#2196F3;stroke-width:3.125;" x1="1039.0625" x2="1039.0625" y1="510.4167" y2="523.9583"/><line style="stroke:#2196F3;stroke-width:3.125;" x1="996.3542" x2="1039.0625" y1="523.9583" y2="523.9583"/><polygon fill="#2196F3" points="1006.7708,519.7917,996.3542,523.9583,1006.7708,528.125,1002.6042,523.9583" style="stroke:#2196F3;stroke-width:1.0416666666666667;"/><text fill="#222222" font-family="Verdana" font-size="12.5" font-weight="bold" lengthAdjust="spacing" textLength="18.75" x="1013.0208" y="494.9687">[3]</text><text fill="#222222" font-family="Verdana" font-size="12.5" lengthAdjust="spacing" textLength="461.4583" x="1056.7708" y="494.9687">Create `Payer` object with a new `ActivationID` and current timestamp</text><path d="M1540.625,480.2409 L1540.625,516.6992 A4.1667,4.1667 0 0 0 1544.7917,520.8659 L1727.0833,520.8659 A4.1667,4.1667 0 0 0 1731.25,516.6992 L1731.25,486.4909 L1720.8333,476.0742 L1544.7917,476.0742 A4.1667,4.1667 0 0 0 1540.625,480.2409 " fill="url(#gyzo4f3hb3iys2)" filter="url(#fyzo4f3hb3iys)" style="stroke:#9C27B0;stroke-width:1.0416666666666667;"/><path d="M1720.8333,476.0742 L1720.8333,484.4076 A2.0833,2.0833 0 0 0 1722.9167,486.4909 L1731.25,486.4909 L1720.8333,476.0742 " fill="url(#gyzo4f3hb3iys2)" style="stroke:#9C27B0;stroke-width:1.0416666666666667;"/><text fill="#FFFFFF" font-family="Verdana" font-size="12.5" lengthAdjust="spacing" textLength="147.9167" x="1557.2917" y="503.302">As per `new Payer(...)`</text><polygon fill="#2196F3" points="1523.4375,569.7591,1533.8542,573.9258,1523.4375,578.0924,1527.6042,573.9258" style="stroke:#2196F3;stroke-width:1.0416666666666667;"/><line style="stroke:#2196F3;stroke-width:3.125;" x1="995.3125" x2="1529.6875" y1="573.9258" y2="573.9258"/><text fill="#222222" font-family="Verdana" font-size="12.5" font-weight="bold" lengthAdjust="spacing" textLength="18.75" x="1013.0208" y="558.4778">[4]</text><text fill="#222222" font-family="Verdana" font-size="12.5" lengthAdjust="spacing" textLength="89.5833" x="1056.7708" y="558.4778">`save(payer)`</text><polygon fill="#2196F3" points="1006.7708,619.7266,996.3542,623.8932,1006.7708,628.0599,1002.6042,623.8932" style="stroke:#2196F3;stroke-width:1.0416666666666667;"/><line style="stroke:#2196F3;stroke-width:3.125;stroke-dasharray:2.0,2.0;" x1="1000.5208" x2="1540.1042" y1="623.8932" y2="623.8932"/><text fill="#222222" font-family="Verdana" font-size="12.5" font-weight="bold" lengthAdjust="spacing" textLength="18.75" x="1023.4375" y="608.4452">[5]</text><text fill="#222222" font-family="Verdana" font-size="12.5" lengthAdjust="spacing" textLength="161.4583" x="1067.1875" y="608.4452">Payer saved successfully</text><line style="stroke:#2196F3;stroke-width:3.125;" x1="995.3125" x2="1039.0625" y1="673.8607" y2="673.8607"/><line style="stroke:#2196F3;stroke-width:3.125;" x1="1039.0625" x2="1039.0625" y1="673.8607" y2="687.4023"/><line style="stroke:#2196F3;stroke-width:3.125;" x1="996.3542" x2="1039.0625" y1="687.4023" y2="687.4023"/><polygon fill="#2196F3" points="1006.7708,683.2357,996.3542,687.4023,1006.7708,691.569,1002.6042,687.4023" style="stroke:#2196F3;stroke-width:1.0416666666666667;"/><text fill="#222222" font-family="Verdana" font-size="12.5" font-weight="bold" lengthAdjust="spacing" textLength="18.75" x="1013.0208" y="658.4127">[6]</text><text fill="#222222" font-family="Verdana" font-size="12.5" lengthAdjust="spacing" textLength="163.5417" x="1056.7708" y="658.4127">Log successful activation</text><path d="M1242.7083,643.6849 L1242.7083,680.1432 A4.1667,4.1667 0 0 0 1246.875,684.3099 L1455.2083,684.3099 A4.1667,4.1667 0 0 0 1459.375,680.1432 L1459.375,649.9349 L1448.9583,639.5182 L1246.875,639.5182 A4.1667,4.1667 0 0 0 1242.7083,643.6849 " fill="url(#gyzo4f3hb3iys2)" filter="url(#fyzo4f3hb3iys)" style="stroke:#9C27B0;stroke-width:1.0416666666666667;"/><path d="M1448.9583,639.5182 L1448.9583,647.8516 A2.0833,2.0833 0 0 0 1451.0417,649.9349 L1459.375,649.9349 L1448.9583,639.5182 " fill="url(#gyzo4f3hb3iys2)" style="stroke:#9C27B0;stroke-width:1.0416666666666667;"/><text fill="#FFFFFF" font-family="Verdana" font-size="12.5" lengthAdjust="spacing" textLength="173.9583" x="1259.375" y="666.746">As per `.doOnSuccess(...)`</text><polygon fill="#2196F3" points="577.6042,747.7539,567.1875,751.9206,577.6042,756.0872,573.4375,751.9206" style="stroke:#2196F3;stroke-width:1.0416666666666667;"/><line style="stroke:#2196F3;stroke-width:3.125;stroke-dasharray:2.0,2.0;" x1="571.3542" x2="983.8542" y1="751.9206" y2="751.9206"/><text fill="#222222" font-family="Verdana" font-size="12.5" font-weight="bold" lengthAdjust="spacing" textLength="18.75" x="594.2708" y="729.1972">[7]</text><text fill="#222222" font-family="Verdana" font-size="12.5" font-weight="bold" lengthAdjust="spacing" textLength="88.5417" x="638.0208" y="721.9218">201 Created</text><text fill="#222222" font-family="Verdana" font-size="12.5" lengthAdjust="spacing" textLength="329.1667" x="638.0208" y="736.4726">Header: `Location: /activations/{newActivationId}`</text><path d="M301.0417,769.6289 L301.0417,820.6706 A4.1667,4.1667 0 0 0 305.2083,824.8372 L553.125,824.8372 A4.1667,4.1667 0 0 0 557.2917,820.6706 L557.2917,775.8789 L546.875,765.4622 L305.2083,765.4622 A4.1667,4.1667 0 0 0 301.0417,769.6289 " fill="url(#gyzo4f3hb3iys2)" filter="url(#fyzo4f3hb3iys)" style="stroke:#9C27B0;stroke-width:1.0416666666666667;"/><path d="M546.875,765.4622 L546.875,773.7956 A2.0833,2.0833 0 0 0 548.9583,775.8789 L557.2917,775.8789 L546.875,765.4622 " fill="url(#gyzo4f3hb3iys2)" style="stroke:#9C27B0;stroke-width:1.0416666666666667;"/><text fill="#FFFFFF" font-family="Verdana" font-size="12.5" lengthAdjust="spacing" textLength="197.9167" x="317.7083" y="792.69">The activation was successful.</text><text fill="#FFFFFF" font-family="Verdana" font-size="12.5" lengthAdjust="spacing" textLength="213.5417" x="317.7083" y="807.2408">The Payer can now receive RTPs.</text><line style="stroke:#2196F3;stroke-width:1.0416666666666667;stroke-dasharray:2.0,2.0;" x1="19.7917" x2="1892.1875" y1="835.1888" y2="835.1888"/><text fill="#222222" font-family="Verdana" font-size="12.5" font-weight="bold" lengthAdjust="spacing" textLength="5.2083" x="35.4167" y="857.2083">[</text><text fill="#222222" font-family="Verdana" font-size="12.5" font-weight="bold" lengthAdjust="spacing" textLength="341.6667" x="40.625" y="857.2083">Conflict: Payer Already Exists -&gt; Generate OTP</text><text fill="#222222" font-family="Verdana" font-size="12.5" font-weight="bold" lengthAdjust="spacing" textLength="5.2083" x="382.2917" y="857.2083">]</text><line style="stroke:#2196F3;stroke-width:3.125;" x1="995.3125" x2="1039.0625" y1="913.2487" y2="913.2487"/><line style="stroke:#2196F3;stroke-width:3.125;" x1="1039.0625" x2="1039.0625" y1="913.2487" y2="926.7904"/><line style="stroke:#2196F3;stroke-width:3.125;" x1="996.3542" x2="1039.0625" y1="926.7904" y2="926.7904"/><polygon fill="#2196F3" points="1006.7708,922.6237,996.3542,926.7904,1006.7708,930.957,1002.6042,926.7904" style="stroke:#2196F3;stroke-width:1.0416666666666667;"/><text fill="#222222" font-family="Verdana" font-size="12.5" font-weight="bold" lengthAdjust="spacing" textLength="18.75" x="1013.0208" y="897.8007">[8]</text><text fill="#222222" font-family="Verdana" font-size="12.5" lengthAdjust="spacing" textLength="277.0833" x="1056.7708" y="897.8007">Create `Payer` object to attempt insertion</text><polygon fill="#2196F3" points="1523.4375,972.5911,1533.8542,976.7578,1523.4375,980.9245,1527.6042,976.7578" style="stroke:#2196F3;stroke-width:1.0416666666666667;"/><line style="stroke:#2196F3;stroke-width:3.125;" x1="995.3125" x2="1529.6875" y1="976.7578" y2="976.7578"/><text fill="#222222" font-family="Verdana" font-size="12.5" font-weight="bold" lengthAdjust="spacing" textLength="18.75" x="1013.0208" y="961.3098">[9]</text><text fill="#222222" font-family="Verdana" font-size="12.5" lengthAdjust="spacing" textLength="89.5833" x="1056.7708" y="961.3098">`save(payer)`</text><polygon fill="#2196F3" points="1006.7708,1022.5586,996.3542,1026.7253,1006.7708,1030.8919,1002.6042,1026.7253" style="stroke:#2196F3;stroke-width:1.0416666666666667;"/><line style="stroke:#2196F3;stroke-width:3.125;stroke-dasharray:2.0,2.0;" x1="1000.5208" x2="1540.1042" y1="1026.7253" y2="1026.7253"/><text fill="#222222" font-family="Verdana" font-size="12.5" font-weight="bold" lengthAdjust="spacing" textLength="27.0833" x="1023.4375" y="1011.2773">[10]</text><text fill="#222222" font-family="Verdana" font-size="12.5" font-weight="bold" lengthAdjust="spacing" textLength="41.6667" x="1075.5208" y="1011.2773">Error:</text><text fill="#222222" font-family="Verdana" font-size="12.5" lengthAdjust="spacing" textLength="159.375" x="1121.3542" y="1011.2773">`DuplicateKeyException`</text><path d="M1000,1044.4336 L1000,1080.8919 A4.1667,4.1667 0 0 0 1004.1667,1085.0586 L1372.9167,1085.0586 A4.1667,4.1667 0 0 0 1377.0833,1080.8919 L1377.0833,1050.6836 L1366.6667,1040.2669 L1004.1667,1040.2669 A4.1667,4.1667 0 0 0 1000,1044.4336 " fill="url(#gyzo4f3hb3iys2)" filter="url(#fyzo4f3hb3iys)" style="stroke:#9C27B0;stroke-width:1.0416666666666667;"/><path d="M1366.6667,1040.2669 L1366.6667,1048.6003 A2.0833,2.0833 0 0 0 1368.75,1050.6836 L1377.0833,1050.6836 L1366.6667,1040.2669 " fill="url(#gyzo4f3hb3iys2)" style="stroke:#9C27B0;stroke-width:1.0416666666666667;"/><text fill="#FFFFFF" font-family="Verdana" font-size="12.5" lengthAdjust="spacing" textLength="334.375" x="1016.6667" y="1067.4947">A unique key constraint on fiscalCode was violated.</text><line style="stroke:#2196F3;stroke-width:3.125;" x1="995.3125" x2="1039.0625" y1="1136.0352" y2="1136.0352"/><line style="stroke:#2196F3;stroke-width:3.125;" x1="1039.0625" x2="1039.0625" y1="1136.0352" y2="1149.5768"/><line style="stroke:#2196F3;stroke-width:3.125;" x1="996.3542" x2="1039.0625" y1="1149.5768" y2="1149.5768"/><polygon fill="#2196F3" points="1006.7708,1145.4102,996.3542,1149.5768,1006.7708,1153.7435,1002.6042,1149.5768" style="stroke:#2196F3;stroke-width:1.0416666666666667;"/><text fill="#222222" font-family="Verdana" font-size="12.5" font-weight="bold" lengthAdjust="spacing" textLength="27.0833" x="1013.0208" y="1120.5872">[11]</text><text fill="#222222" font-family="Verdana" font-size="12.5" lengthAdjust="spacing" textLength="383.3333" x="1065.1042" y="1120.5872">Map `DuplicateKeyException` to `PayerAlreadyExists` error</text><path d="M1470.8333,1105.8594 L1470.8333,1142.3177 A4.1667,4.1667 0 0 0 1475,1146.4844 L1863.5417,1146.4844 A4.1667,4.1667 0 0 0 1867.7083,1142.3177 L1867.7083,1112.1094 L1857.2917,1101.6927 L1475,1101.6927 A4.1667,4.1667 0 0 0 1470.8333,1105.8594 " fill="url(#gyzo4f3hb3iys2)" filter="url(#fyzo4f3hb3iys)" style="stroke:#9C27B0;stroke-width:1.0416666666666667;"/><path d="M1857.2917,1101.6927 L1857.2917,1110.026 A2.0833,2.0833 0 0 0 1859.375,1112.1094 L1867.7083,1112.1094 L1857.2917,1101.6927 " fill="url(#gyzo4f3hb3iys2)" style="stroke:#9C27B0;stroke-width:1.0416666666666667;"/><text fill="#FFFFFF" font-family="Verdana" font-size="12.5" lengthAdjust="spacing" textLength="354.1667" x="1487.5" y="1128.9205">As per `.onErrorResume(PayerAlreadyExists.class, ...)`</text><line style="stroke:#2196F3;stroke-width:3.125;" x1="995.3125" x2="1039.0625" y1="1204.7363" y2="1204.7363"/><line style="stroke:#2196F3;stroke-width:3.125;" x1="1039.0625" x2="1039.0625" y1="1204.7363" y2="1218.278"/><line style="stroke:#2196F3;stroke-width:3.125;" x1="996.3542" x2="1039.0625" y1="1218.278" y2="1218.278"/><polygon fill="#2196F3" points="1006.7708,1214.1113,996.3542,1218.278,1006.7708,1222.4447,1002.6042,1218.278" style="stroke:#2196F3;stroke-width:1.0416666666666667;"/><text fill="#222222" font-family="Verdana" font-size="12.5" font-weight="bold" lengthAdjust="spacing" textLength="27.0833" x="1013.0208" y="1189.2883">[12]</text><text fill="#222222" font-family="Verdana" font-size="12.5" font-weight="bold" lengthAdjust="spacing" textLength="219.7917" x="1065.1042" y="1189.2883">Call `generateTakeOverOtp()`</text><path d="M1307.2917,1167.2852 L1307.2917,1218.3268 A4.1667,4.1667 0 0 0 1311.4583,1222.4935 L1654.1667,1222.4935 A4.1667,4.1667 0 0 0 1658.3333,1218.3268 L1658.3333,1173.5352 L1647.9167,1163.1185 L1311.4583,1163.1185 A4.1667,4.1667 0 0 0 1307.2917,1167.2852 " fill="url(#gyzo4f3hb3iys2)" filter="url(#fyzo4f3hb3iys)" style="stroke:#9C27B0;stroke-width:1.0416666666666667;"/><path d="M1647.9167,1163.1185 L1647.9167,1171.4518 A2.0833,2.0833 0 0 0 1650,1173.5352 L1658.3333,1173.5352 L1647.9167,1163.1185 " fill="url(#gyzo4f3hb3iys2)" style="stroke:#9C27B0;stroke-width:1.0416666666666667;"/><text fill="#FFFFFF" font-family="Verdana" font-size="12.5" lengthAdjust="spacing" textLength="162.5" x="1323.9583" y="1190.3463">The payer already exists.</text><text fill="#FFFFFF" font-family="Verdana" font-size="12.5" lengthAdjust="spacing" textLength="308.3333" x="1323.9583" y="1204.8971">The service now initiates the takeover process.</text><polygon fill="#2196F3" points="1523.4375,1269.2708,1533.8542,1273.4375,1523.4375,1277.6042,1527.6042,1273.4375" style="stroke:#2196F3;stroke-width:1.0416666666666667;"/><line style="stroke:#2196F3;stroke-width:3.125;" x1="995.3125" x2="1529.6875" y1="1273.4375" y2="1273.4375"/><text fill="#222222" font-family="Verdana" font-size="12.5" font-weight="bold" lengthAdjust="spacing" textLength="27.0833" x="1013.0208" y="1257.9895">[13]</text><text fill="#222222" font-family="Verdana" font-size="12.5" lengthAdjust="spacing" textLength="207.2917" x="1065.1042" y="1257.9895">Create and save `TakeOverOtp`</text><polygon fill="#2196F3" points="1006.7708,1319.2383,996.3542,1323.4049,1006.7708,1327.5716,1002.6042,1323.4049" style="stroke:#2196F3;stroke-width:1.0416666666666667;"/><line style="stroke:#2196F3;stroke-width:3.125;stroke-dasharray:2.0,2.0;" x1="1000.5208" x2="1540.1042" y1="1323.4049" y2="1323.4049"/><text fill="#222222" font-family="Verdana" font-size="12.5" font-weight="bold" lengthAdjust="spacing" textLength="27.0833" x="1023.4375" y="1307.9569">[14]</text><text fill="#222222" font-family="Verdana" font-size="12.5" lengthAdjust="spacing" textLength="115.625" x="1075.5208" y="1307.9569">Return new `OTP`</text><polygon fill="#2196F3" points="577.6042,1383.7565,567.1875,1387.9232,577.6042,1392.0898,573.4375,1387.9232" style="stroke:#2196F3;stroke-width:1.0416666666666667;"/><line style="stroke:#2196F3;stroke-width:3.125;stroke-dasharray:2.0,2.0;" x1="571.3542" x2="983.8542" y1="1387.9232" y2="1387.9232"/><text fill="#222222" font-family="Verdana" font-size="12.5" font-weight="bold" lengthAdjust="spacing" textLength="27.0833" x="594.2708" y="1365.1998">[15]</text><text fill="#222222" font-family="Verdana" font-size="12.5" font-weight="bold" lengthAdjust="spacing" textLength="84.375" x="646.3542" y="1357.9244">409 Conflict</text><text fill="#222222" font-family="Verdana" font-size="12.5" lengthAdjust="spacing" textLength="236.4583" x="646.3542" y="1372.4752">Header: `Location: /takeover/{otp}`</text><path d="M30.2083,1405.6315 L30.2083,1456.6732 A4.1667,4.1667 0 0 0 34.375,1460.8398 L553.125,1460.8398 A4.1667,4.1667 0 0 0 557.2917,1456.6732 L557.2917,1411.8815 L546.875,1401.4648 L34.375,1401.4648 A4.1667,4.1667 0 0 0 30.2083,1405.6315 " fill="url(#gyzo4f3hb3iys2)" filter="url(#fyzo4f3hb3iys)" style="stroke:#9C27B0;stroke-width:1.0416666666666667;"/><path d="M546.875,1401.4648 L546.875,1409.7982 A2.0833,2.0833 0 0 0 548.9583,1411.8815 L557.2917,1411.8815 L546.875,1401.4648 " fill="url(#gyzo4f3hb3iys2)" style="stroke:#9C27B0;stroke-width:1.0416666666666667;"/><text fill="#FFFFFF" font-family="Verdana" font-size="12.5" lengthAdjust="spacing" textLength="272.9167" x="46.875" y="1428.6926">An activation for this Payer already exists.</text><text fill="#FFFFFF" font-family="Verdana" font-size="12.5" lengthAdjust="spacing" textLength="484.375" x="46.875" y="1443.2434">The `Location` header points to the takeover URI with the generated OTP.</text><line style="stroke:#2196F3;stroke-width:1.0416666666666667;stroke-dasharray:2.0,2.0;" x1="19.7917" x2="1892.1875" y1="1471.1914" y2="1471.1914"/><text fill="#222222" font-family="Verdana" font-size="12.5" font-weight="bold" lengthAdjust="spacing" textLength="5.2083" x="35.4167" y="1493.2109">[</text><text fill="#222222" font-family="Verdana" font-size="12.5" font-weight="bold" lengthAdjust="spacing" textLength="91.6667" x="40.625" y="1493.2109">Other Errors</text><text fill="#222222" font-family="Verdana" font-size="12.5" font-weight="bold" lengthAdjust="spacing" textLength="5.2083" x="132.2917" y="1493.2109">]</text><path d="M457.2917,1514.9089 L650,1514.9089 L650,1541.9596 L639.5833,1552.3763 L453.125,1552.3763 L453.125,1519.0755 A4.1667,4.1667 0 0 1 457.2917,1514.9089 " fill="#FFFFFF" style="stroke:#666666;stroke-width:1.0416666666666667;"/><rect fill="none" height="295.5404" rx="4.1667" ry="4.1667" style="stroke:#2196F3;stroke-width:1.0416666666666667;" width="673.4375" x="453.125" y="1514.9089"/><text fill="#9C27B0" font-family="Verdana" font-size="12.5" font-weight="bold" lengthAdjust="spacing" textLength="129.1667" x="479.1667" y="1537.97">Client-Side Errors</text><polygon fill="#2196F3" points="577.6042,1604.3945,567.1875,1608.5612,577.6042,1612.7279,573.4375,1608.5612" style="stroke:#2196F3;stroke-width:1.0416666666666667;"/><line style="stroke:#2196F3;stroke-width:3.125;stroke-dasharray:2.0,2.0;" x1="571.3542" x2="983.8542" y1="1608.5612" y2="1608.5612"/><text fill="#222222" font-family="Verdana" font-size="12.5" font-weight="bold" lengthAdjust="spacing" textLength="27.0833" x="594.2708" y="1585.8378">[16]</text><text fill="#222222" font-family="Verdana" font-size="12.5" font-weight="bold" lengthAdjust="spacing" textLength="122.9167" x="646.3542" y="1578.5624">400 Bad Request</text><text fill="#222222" font-family="Verdana" font-size="12.5" lengthAdjust="spacing" textLength="254.1667" x="646.3542" y="1593.1132">(e.g., Invalid fiscal code, missing fields)</text><polygon fill="#2196F3" points="577.6042,1668.9128,567.1875,1673.0794,577.6042,1677.2461,573.4375,1673.0794" style="stroke:#2196F3;stroke-width:1.0416666666666667;"/><line style="stroke:#2196F3;stroke-width:3.125;stroke-dasharray:2.0,2.0;" x1="571.3542" x2="983.8542" y1="1673.0794" y2="1673.0794"/><text fill="#222222" font-family="Verdana" font-size="12.5" font-weight="bold" lengthAdjust="spacing" textLength="27.0833" x="594.2708" y="1650.356">[17]</text><text fill="#222222" font-family="Verdana" font-size="12.5" font-weight="bold" lengthAdjust="spacing" textLength="130.2083" x="646.3542" y="1643.0806">401 Unauthorized</text><text fill="#222222" font-family="Verdana" font-size="12.5" lengthAdjust="spacing" textLength="251.0417" x="646.3542" y="1657.6314">(e.g., Invalid or expired security token)</text><polygon fill="#2196F3" points="577.6042,1733.431,567.1875,1737.5977,577.6042,1741.7643,573.4375,1737.5977" style="stroke:#2196F3;stroke-width:1.0416666666666667;"/><line style="stroke:#2196F3;stroke-width:3.125;stroke-dasharray:2.0,2.0;" x1="571.3542" x2="983.8542" y1="1737.5977" y2="1737.5977"/><text fill="#222222" font-family="Verdana" font-size="12.5" font-weight="bold" lengthAdjust="spacing" textLength="27.0833" x="594.2708" y="1714.8743">[18]</text><text fill="#222222" font-family="Verdana" font-size="12.5" font-weight="bold" lengthAdjust="spacing" textLength="104.1667" x="646.3542" y="1707.5989">403 Forbidden</text><text fill="#222222" font-family="Verdana" font-size="12.5" lengthAdjust="spacing" textLength="196.875" x="646.3542" y="1722.1497">(e.g., Insufficient permissions)</text><polygon fill="#2196F3" points="577.6042,1797.9492,567.1875,1802.1159,577.6042,1806.2826,573.4375,1802.1159" style="stroke:#2196F3;stroke-width:1.0416666666666667;"/><line style="stroke:#2196F3;stroke-width:3.125;stroke-dasharray:2.0,2.0;" x1="571.3542" x2="983.8542" y1="1802.1159" y2="1802.1159"/><text fill="#222222" font-family="Verdana" font-size="12.5" font-weight="bold" lengthAdjust="spacing" textLength="27.0833" x="594.2708" y="1779.3925">[19]</text><text fill="#222222" font-family="Verdana" font-size="12.5" font-weight="bold" lengthAdjust="spacing" textLength="173.9583" x="646.3542" y="1772.1171">429 Too Many Requests</text><text fill="#222222" font-family="Verdana" font-size="12.5" lengthAdjust="spacing" textLength="171.875" x="646.3542" y="1786.6679">(e.g., Rate limit exceeded)</text><path d="M457.2917,1825.0326 L646.875,1825.0326 L646.875,1852.0833 L636.4583,1862.5 L453.125,1862.5 L453.125,1829.1992 A4.1667,4.1667 0 0 1 457.2917,1825.0326 " fill="#FFFFFF" style="stroke:#666666;stroke-width:1.0416666666666667;"/><rect fill="none" height="150.944" rx="4.1667" ry="4.1667" style="stroke:#2196F3;stroke-width:1.0416666666666667;" width="1306.7708" x="453.125" y="1825.0326"/><text fill="#9C27B0" font-family="Verdana" font-size="12.5" font-weight="bold" lengthAdjust="spacing" textLength="126.0417" x="479.1667" y="1848.0937">Server-Side Error</text><line style="stroke:#2196F3;stroke-width:3.125;" x1="995.3125" x2="1039.0625" y1="1904.1341" y2="1904.1341"/><line style="stroke:#2196F3;stroke-width:3.125;" x1="1039.0625" x2="1039.0625" y1="1904.1341" y2="1917.6758"/><line style="stroke:#2196F3;stroke-width:3.125;" x1="996.3542" x2="1039.0625" y1="1917.6758" y2="1917.6758"/><polygon fill="#2196F3" points="1006.7708,1913.5091,996.3542,1917.6758,1006.7708,1921.8424,1002.6042,1917.6758" style="stroke:#2196F3;stroke-width:1.0416666666666667;"/><text fill="#222222" font-family="Verdana" font-size="12.5" font-weight="bold" lengthAdjust="spacing" textLength="27.0833" x="1013.0208" y="1888.6861">[20]</text><text fill="#222222" font-family="Verdana" font-size="12.5" lengthAdjust="spacing" textLength="236.4583" x="1065.1042" y="1888.6861">An unexpected internal error occurs</text><path d="M1323.9583,1873.9583 L1323.9583,1910.4167 A4.1667,4.1667 0 0 0 1328.125,1914.5833 L1731.25,1914.5833 A4.1667,4.1667 0 0 0 1735.4167,1910.4167 L1735.4167,1880.2083 L1725,1869.7917 L1328.125,1869.7917 A4.1667,4.1667 0 0 0 1323.9583,1873.9583 " fill="url(#gyzo4f3hb3iys2)" filter="url(#fyzo4f3hb3iys)" style="stroke:#9C27B0;stroke-width:1.0416666666666667;"/><path d="M1725,1869.7917 L1725,1878.125 A2.0833,2.0833 0 0 0 1727.0833,1880.2083 L1735.4167,1880.2083 L1725,1869.7917 " fill="url(#gyzo4f3hb3iys2)" style="stroke:#9C27B0;stroke-width:1.0416666666666667;"/><text fill="#FFFFFF" font-family="Verdana" font-size="12.5" lengthAdjust="spacing" textLength="368.75" x="1340.625" y="1897.0194">e.g., Database connection failure, unhandled exception.</text><polygon fill="#2196F3" points="577.6042,1963.4766,567.1875,1967.6432,577.6042,1971.8099,573.4375,1967.6432" style="stroke:#2196F3;stroke-width:1.0416666666666667;"/><line style="stroke:#2196F3;stroke-width:3.125;stroke-dasharray:2.0,2.0;" x1="571.3542" x2="983.8542" y1="1967.6432" y2="1967.6432"/><text fill="#222222" font-family="Verdana" font-size="12.5" font-weight="bold" lengthAdjust="spacing" textLength="27.0833" x="594.2708" y="1952.1952">[21]</text><text fill="#222222" font-family="Verdana" font-size="12.5" font-weight="bold" lengthAdjust="spacing" textLength="180.2083" x="646.3542" y="1952.1952">500 Internal Server Error</text><!--SRC=[fLPDR-Cs4BthLqopGDSH4kMZxM6DOW4dJjkWsTg8dRrq2uYHnZORcTIIb1DtqV_UHqgohMpS56WkiIJEp9itRsRubiQ5KExkmmqDfPWRiQIPDdGx7TCWSt8bdDIA1kFhw2rDfIkuJtTApYJdpyzC-7F5AkEDdqVf5ZJ2eQbuOBrY0nSVsLWSxjDvSfQSuiMGRMPawSBBwK9QoXjpkz2Fbjo2AMSdP868fT4PMniGYYQocfEWiLYpIU2kytSz2-RX8ud2iCZNn4_IEdi48zV02XWHUCwAZN2S9r7q3GoNJ4iy6YcYoFdKNs2bJ-FHP4edOlFMHX4U0F0WZaFajnRKc9K4CsEZLp9d4yS792oD9-Ee5CR9J9QeWRVey1cCchE3IPGB9-w5PNzksFnklWul4BLoMbNBUoHqyEFz-zzF_pY88eIWu_UmxXFW06eSTy1-KhqcP9rTOBPcx30IxHS4ZvJ63oFd2qTwvjyGF8vApvYl7VocxVaKtmQqINvCcIWANqgGx3GPdgC4lYHKMVppCNsTV7nR9vr4h7Bo8QDeC6ap-2WAcGUaNchMqRSWAQkCT6kQwWTM8A5mzAOK1SyDimB2IPK5oLo2h3xzne-D7BP4nt4KURLiurn2AOYIXfCfwVi_ENErd0Kfk4YtrjV3b0Im0ePXrD399P29PHbyRadhqy0IsA9KjHXwIP8Sfhl1XnTzIgrOSQyC5KZ3jqqPK6N_FBoWumPfdOktoCdMcSwgebY7SpdlMZxByKRFToneAuczk9DSZrH3vtFeS0gbUOsTdvur_ELn_4dzWfvZWwnkT5OBfIE_aozWOuVC_Ezq6x_WMT2QRvEsfQVGoTQU7g7zRHP9vrZDJIOKl3r2T1dBLH2PhSzj5SO5ckfDuTDTSr7WT1nVQZKhPEPQZWVD-BWAuyEp-7CpBlpu-AyQWlg5Sxmi7Ka5hGV2_uy0ulZA66r2-msh4eXnxbTUNprb78Pg-e8KkXMksnbrfaf9z1Kzy9eo5CSP8Q5eq3oJ5YrygNCEZA-aBfevsKtwWoZtmV2frsGqJDP4fiGU_txHQHKIl6LRBRdtjOCaAuJ5EF-gbsfsBZ5vA6qdkrz48qpyaIjxXocArWtRaK_vmjRe2goPLK5UKaad4Q5UM9lDqYoivuBh5hoHYfyYllIKxi1yLG2tx2gZwga48QR_rldRBlt-z1sr2j_NfcqI9r-qAr_hou7QRSjwecFQZrybSHCnfKK0GQM6wiAYw51vTtjTZs3_ThEgVVEztCwvC0y61x2aO64eoCYsZJetkYhfif2OsSSJxEJc-pQXPtoTqeN8syNZAUjnCa-Ew5gj_5PgMWHza_CHBQMr_cA2QrAHsyEzJizmbyBQNcWZ_whdvJElu96VIkdpiEscStxJxVVv7VsapRtCSrOTXxQQpN3Hy3iAdHKGeiVt-Zb_XvMgqT5gtMPjT_pTUcqLSYaT06RCEUU7cp84SdTvzbSPDZiyTwBMGeQ2AeLaCIQHBIJ0He7GC1v8PqX-MvpTIL7ZQUz3Vd0fk0WgnAMnCYX7fHPeBd-1v7OU9Nlo_W65lcvZrx1hnCsms4aFFwDefzC6aty0]--></g></svg>