<?xml version="1.0" encoding="us-ascii" standalone="no"?><svg xmlns="http://www.w3.org/2000/svg" xmlns:xlink="http://www.w3.org/1999/xlink" contentStyleType="text/css" height="728px" preserveAspectRatio="none" style="width:828px;height:728px;background:#FFFFFF;" version="1.1" viewBox="0 0 828 728" width="828px" zoomAndPan="magnify"><defs/><g><text fill="#000000" font-family="sans-serif" font-size="14" font-weight="bold" lengthAdjust="spacing" textLength="386" x="217" y="27.9951">SEPA Request-To-Pay - Callback Processing Flow</text><rect fill="#FFFFFF" height="458.5313" style="stroke:#181818;stroke-width:1.0;" width="10" x="508" y="181.8594"/><rect fill="#FFFFFF" height="384.2656" style="stroke:#181818;stroke-width:1.0;" width="10" x="744" y="256.125"/><rect fill="none" height="333.1328" style="stroke:#000000;stroke-width:1.5;" width="498" x="313" y="300.2578"/><line style="stroke:#181818;stroke-width:0.5;stroke-dasharray:5.0,5.0;" x1="365" x2="365" y1="104.5938" y2="650.3906"/><line style="stroke:#181818;stroke-width:0.5;stroke-dasharray:5.0,5.0;" x1="513" x2="513" y1="104.5938" y2="650.3906"/><line style="stroke:#181818;stroke-width:0.5;stroke-dasharray:5.0,5.0;" x1="749" x2="749" y1="104.5938" y2="650.3906"/><rect fill="#E2E2F0" height="30.2969" rx="2.5" ry="2.5" style="stroke:#181818;stroke-width:0.5;" width="84" x="323" y="73.2969"/><text fill="#000000" font-family="sans-serif" font-size="14" lengthAdjust="spacing" textLength="70" x="330" y="93.292">SP Debtor</text><rect fill="#E2E2F0" height="30.2969" rx="2.5" ry="2.5" style="stroke:#181818;stroke-width:0.5;" width="84" x="323" y="649.3906"/><text fill="#000000" font-family="sans-serif" font-size="14" lengthAdjust="spacing" textLength="70" x="330" y="669.3857">SP Debtor</text><rect fill="#E2E2F0" height="30.2969" rx="2.5" ry="2.5" style="stroke:#181818;stroke-width:0.5;" width="96" x="465" y="73.2969"/><text fill="#000000" font-family="sans-serif" font-size="14" lengthAdjust="spacing" textLength="82" x="472" y="93.292">RTP Service</text><rect fill="#E2E2F0" height="30.2969" rx="2.5" ry="2.5" style="stroke:#181818;stroke-width:0.5;" width="96" x="465" y="649.3906"/><text fill="#000000" font-family="sans-serif" font-size="14" lengthAdjust="spacing" textLength="82" x="472" y="669.3857">RTP Service</text><text fill="#000000" font-family="sans-serif" font-size="14" lengthAdjust="spacing" textLength="98" x="697" y="101.292">RTP Database</text><path d="M731,52.2969 C731,42.2969 749,42.2969 749,42.2969 C749,42.2969 767,42.2969 767,52.2969 L767,78.2969 C767,88.2969 749,88.2969 749,88.2969 C749,88.2969 731,88.2969 731,78.2969 L731,52.2969 " fill="#E2E2F0" style="stroke:#181818;stroke-width:1.5;"/><path d="M731,52.2969 C731,62.2969 749,62.2969 749,62.2969 C749,62.2969 767,62.2969 767,52.2969 " fill="none" style="stroke:#181818;stroke-width:1.5;"/><text fill="#000000" font-family="sans-serif" font-size="14" lengthAdjust="spacing" textLength="98" x="697" y="662.3857">RTP Database</text><path d="M731,675.6875 C731,665.6875 749,665.6875 749,665.6875 C749,665.6875 767,665.6875 767,675.6875 L767,701.6875 C767,711.6875 749,711.6875 749,711.6875 C749,711.6875 731,711.6875 731,701.6875 L731,675.6875 " fill="#E2E2F0" style="stroke:#181818;stroke-width:1.5;"/><path d="M731,675.6875 C731,685.6875 749,685.6875 749,685.6875 C749,685.6875 767,685.6875 767,675.6875 " fill="none" style="stroke:#181818;stroke-width:1.5;"/><rect fill="#FFFFFF" height="458.5313" style="stroke:#181818;stroke-width:1.0;" width="10" x="508" y="181.8594"/><rect fill="#FFFFFF" height="384.2656" style="stroke:#181818;stroke-width:1.0;" width="10" x="744" y="256.125"/><rect fill="#EEEEEE" height="3" style="stroke:#EEEEEE;stroke-width:1.0;" width="821" x="0" y="135.1602"/><line style="stroke:#000000;stroke-width:1.0;" x1="0" x2="821" y1="135.1602" y2="135.1602"/><line style="stroke:#000000;stroke-width:1.0;" x1="0" x2="821" y1="138.1602" y2="138.1602"/><rect fill="#EEEEEE" height="23.1328" style="stroke:#000000;stroke-width:2.0;" width="364" x="228.5" y="124.5938"/><text fill="#000000" font-family="sans-serif" font-size="13" font-weight="bold" lengthAdjust="spacing" textLength="345" x="234.5" y="140.6606">Callback Processing (Asynchronous Response)</text><polygon fill="#181818" points="496,177.8594,506,181.8594,496,185.8594,500,181.8594" style="stroke:#181818;stroke-width:1.0;"/><line style="stroke:#181818;stroke-width:1.0;" x1="365" x2="502" y1="181.8594" y2="181.8594"/><text fill="#000000" font-family="sans-serif" font-size="13" lengthAdjust="spacing" textLength="124" x="372" y="176.7935">POST to callbackUrl</text><path d="M5,162.7266 L5,187.7266 L360,187.7266 L360,172.7266 L350,162.7266 L5,162.7266 " fill="#FEFFDD" style="stroke:#181818;stroke-width:0.5;"/><path d="M350,162.7266 L350,172.7266 L360,172.7266 L350,162.7266 " fill="#FEFFDD" style="stroke:#181818;stroke-width:0.5;"/><text fill="#000000" font-family="sans-serif" font-size="13" lengthAdjust="spacing" textLength="334" x="11" y="179.7935">AsynchronousSepaRequestToPayResponseResource</text><line style="stroke:#181818;stroke-width:1.0;" x1="518" x2="560" y1="213.9922" y2="213.9922"/><line style="stroke:#181818;stroke-width:1.0;" x1="560" x2="560" y1="213.9922" y2="226.9922"/><line style="stroke:#181818;stroke-width:1.0;" x1="519" x2="560" y1="226.9922" y2="226.9922"/><polygon fill="#181818" points="529,222.9922,519,226.9922,529,230.9922,525,226.9922" style="stroke:#181818;stroke-width:1.0;"/><text fill="#000000" font-family="sans-serif" font-size="13" lengthAdjust="spacing" textLength="108" x="525" y="208.9263">parseResponse()</text><polygon fill="#181818" points="732,252.125,742,256.125,732,260.125,736,256.125" style="stroke:#181818;stroke-width:1.0;"/><line style="stroke:#181818;stroke-width:1.0;" x1="518" x2="738" y1="256.125" y2="256.125"/><text fill="#000000" font-family="sans-serif" font-size="13" lengthAdjust="spacing" textLength="207" x="525" y="251.0591">findRtpByResourceId(resourceId)</text><polygon fill="#181818" points="529,281.2578,519,285.2578,529,289.2578,525,285.2578" style="stroke:#181818;stroke-width:1.0;"/><line style="stroke:#181818;stroke-width:1.0;stroke-dasharray:2.0,2.0;" x1="523" x2="743" y1="285.2578" y2="285.2578"/><text fill="#000000" font-family="sans-serif" font-size="13" lengthAdjust="spacing" textLength="66" x="535" y="280.1919">return RTP</text><path d="M313,300.2578 L377,300.2578 L377,307.3906 L367,317.3906 L313,317.3906 L313,300.2578 " fill="#EEEEEE" style="stroke:#000000;stroke-width:1.5;"/><rect fill="none" height="333.1328" style="stroke:#000000;stroke-width:1.5;" width="498" x="313" y="300.2578"/><text fill="#000000" font-family="sans-serif" font-size="13" font-weight="bold" lengthAdjust="spacing" textLength="19" x="328" y="313.3247">alt</text><text fill="#000000" font-family="sans-serif" font-size="11" font-weight="bold" lengthAdjust="spacing" textLength="125" x="392" y="312.4683">[Request Accepted]</text><line style="stroke:#181818;stroke-width:1.0;" x1="518" x2="560" y1="338.5234" y2="338.5234"/><line style="stroke:#181818;stroke-width:1.0;" x1="560" x2="560" y1="338.5234" y2="351.5234"/><line style="stroke:#181818;stroke-width:1.0;" x1="519" x2="560" y1="351.5234" y2="351.5234"/><polygon fill="#181818" points="529,347.5234,519,351.5234,529,355.5234,525,351.5234" style="stroke:#181818;stroke-width:1.0;"/><text fill="#000000" font-family="sans-serif" font-size="13" lengthAdjust="spacing" textLength="150" x="525" y="333.4575">setStatus("ACCEPTED")</text><polygon fill="#181818" points="732,376.6563,742,380.6563,732,384.6563,736,380.6563" style="stroke:#181818;stroke-width:1.0;"/><line style="stroke:#181818;stroke-width:1.0;" x1="518" x2="738" y1="380.6563" y2="380.6563"/><text fill="#000000" font-family="sans-serif" font-size="13" lengthAdjust="spacing" textLength="94" x="525" y="375.5903">updateRtp(rtp)</text><polygon fill="#181818" points="529,405.7891,519,409.7891,529,413.7891,525,409.7891" style="stroke:#181818;stroke-width:1.0;"/><line style="stroke:#181818;stroke-width:1.0;stroke-dasharray:2.0,2.0;" x1="523" x2="743" y1="409.7891" y2="409.7891"/><text fill="#000000" font-family="sans-serif" font-size="13" lengthAdjust="spacing" textLength="127" x="535" y="404.7231">updateConfirmation</text><polygon fill="#181818" points="376,434.9219,366,438.9219,376,442.9219,372,438.9219" style="stroke:#181818;stroke-width:1.0;"/><line style="stroke:#181818;stroke-width:1.0;stroke-dasharray:2.0,2.0;" x1="370" x2="507" y1="438.9219" y2="438.9219"/><text fill="#000000" font-family="sans-serif" font-size="13" lengthAdjust="spacing" textLength="46" x="382" y="433.856">200 OK</text><line style="stroke:#000000;stroke-width:1.0;stroke-dasharray:2.0,2.0;" x1="313" x2="811" y1="447.9219" y2="447.9219"/><text fill="#000000" font-family="sans-serif" font-size="11" font-weight="bold" lengthAdjust="spacing" textLength="122" x="318" y="458.1323">[Request Rejected]</text><line style="stroke:#181818;stroke-width:1.0;" x1="518" x2="560" y1="482.8594" y2="482.8594"/><line style="stroke:#181818;stroke-width:1.0;" x1="560" x2="560" y1="482.8594" y2="495.8594"/><line style="stroke:#181818;stroke-width:1.0;" x1="519" x2="560" y1="495.8594" y2="495.8594"/><polygon fill="#181818" points="529,491.8594,519,495.8594,529,499.8594,525,495.8594" style="stroke:#181818;stroke-width:1.0;"/><text fill="#000000" font-family="sans-serif" font-size="13" lengthAdjust="spacing" textLength="143" x="525" y="477.7935">setStatus("REJECTED")</text><line style="stroke:#181818;stroke-width:1.0;" x1="518" x2="560" y1="524.9922" y2="524.9922"/><line style="stroke:#181818;stroke-width:1.0;" x1="560" x2="560" y1="524.9922" y2="537.9922"/><line style="stroke:#181818;stroke-width:1.0;" x1="519" x2="560" y1="537.9922" y2="537.9922"/><polygon fill="#181818" points="529,533.9922,519,537.9922,529,541.9922,525,537.9922" style="stroke:#181818;stroke-width:1.0;"/><text fill="#000000" font-family="sans-serif" font-size="13" lengthAdjust="spacing" textLength="179" x="525" y="519.9263">setRejectionReason(reason)</text><polygon fill="#181818" points="732,563.125,742,567.125,732,571.125,736,567.125" style="stroke:#181818;stroke-width:1.0;"/><line style="stroke:#181818;stroke-width:1.0;" x1="518" x2="738" y1="567.125" y2="567.125"/><text fill="#000000" font-family="sans-serif" font-size="13" lengthAdjust="spacing" textLength="94" x="525" y="562.0591">updateRtp(rtp)</text><polygon fill="#181818" points="529,592.2578,519,596.2578,529,600.2578,525,596.2578" style="stroke:#181818;stroke-width:1.0;"/><line style="stroke:#181818;stroke-width:1.0;stroke-dasharray:2.0,2.0;" x1="523" x2="743" y1="596.2578" y2="596.2578"/><text fill="#000000" font-family="sans-serif" font-size="13" lengthAdjust="spacing" textLength="127" x="535" y="591.1919">updateConfirmation</text><polygon fill="#181818" points="376,621.3906,366,625.3906,376,629.3906,372,625.3906" style="stroke:#181818;stroke-width:1.0;"/><line style="stroke:#181818;stroke-width:1.0;stroke-dasharray:2.0,2.0;" x1="370" x2="507" y1="625.3906" y2="625.3906"/><text fill="#000000" font-family="sans-serif" font-size="13" lengthAdjust="spacing" textLength="46" x="382" y="620.3247">200 OK</text><!--SRC=[lPBFJiCm3CRlUGfhf_PGQU9OgKZzXpGuB6hB0sIf1u6IbCGTsjkJjIjqqmwSo2MEzFdpptP8KOTGbpo52Zy7T1Gr9kBY217aekjsGhu3jqQYSqg_m4DdlXZhXIKbLIyqmQhcKE2EZ5s1S53p8kMRIqNLSAZH7fJ4IJF5h1KaTiBXf2ZEhr5IP8mboKs487L7BL-jqMPmdjhrHZiC8KaOcwf3T3_NY85lwmR8W3nRFTkEQKC87UufXgLPZRquJw4nVWQpjx_DO3smaAGEmkVE7R1pS57HzpxcZBb1kDGKMGnxfTkA-kmussxQmFw4uMyHFuCYWsXfRP46gy6FYp7HqRmpIAN4dh1buCyj9eTKaw311QiqpqlUbCKgl5QVw8RURmKzNs2fdnJN49CaDtglx8SWPVIbqKaxxY66k_KQjayCEx_acRN2DvH_PAtAnpA_oRfKJuwUeqBXZFRJF5t_s9vk6MjnkRZ5Q_uhtm00]--></g></svg>