<svg xmlns="http://www.w3.org/2000/svg" xmlns:xlink="http://www.w3.org/1999/xlink" contentStyleType="text/css" data-diagram-type="SEQUENCE" height="728px" preserveAspectRatio="none" style="width:845px;height:728px;background:#FFFFFF;" version="1.1" viewBox="0 0 845 728" width="845px" zoomAndPan="magnify"><title>SEPA Request-To-Pay - Callback Processing Flow</title><defs/><g><text fill="#000000" font-family="sans-serif" font-size="14" font-weight="bold" lengthAdjust="spacing" textLength="384.6719" x="226.4036" y="27.9951">SEPA Request-To-Pay - Callback Processing Flow</text><g><title>RTP Service</title><rect fill="#FFFFFF" height="458.5313" style="stroke:#181818;stroke-width:1;" width="10" x="517.2183" y="181.8594"/></g><g><title>RTP Database</title><rect fill="#FFFFFF" height="384.2656" style="stroke:#181818;stroke-width:1;" width="10" x="761.4927" y="256.125"/></g><rect fill="none" height="333.1328" style="stroke:#000000;stroke-width:1.5;" width="509.479" x="319" y="300.2578"/><g><title>SP Debtor</title><rect fill="#000000" fill-opacity="0.00000" height="545.7969" width="8" x="366.9351" y="104.5938"/><line style="stroke:#181818;stroke-width:0.5;stroke-dasharray:5.0,5.0;" x1="370" x2="370" y1="104.5938" y2="650.3906"/></g><g><title>RTP Service</title><rect fill="#000000" fill-opacity="0.00000" height="545.7969" width="8" x="518.2183" y="104.5938"/><line style="stroke:#181818;stroke-width:0.5;stroke-dasharray:5.0,5.0;" x1="521.7617" x2="521.7617" y1="104.5938" y2="650.3906"/></g><g><title>RTP Database</title><rect fill="#000000" fill-opacity="0.00000" height="545.7969" width="8" x="762.4927" y="104.5938"/><line style="stroke:#181818;stroke-width:0.5;stroke-dasharray:5.0,5.0;" x1="765.5063" x2="765.5063" y1="104.5938" y2="650.3906"/></g><g class="participant participant-head" data-participant="SPDAPI"><rect fill="#E2E2F0" height="30.2969" rx="2.5" ry="2.5" style="stroke:#181818;stroke-width:0.5;" width="83.8701" x="329" y="73.2969"/><text fill="#000000" font-family="sans-serif" font-size="14" lengthAdjust="spacing" textLength="69.8701" x="336" y="93.292">SP Debtor</text></g><g class="participant participant-tail" data-participant="SPDAPI"><rect fill="#E2E2F0" height="30.2969" rx="2.5" ry="2.5" style="stroke:#181818;stroke-width:0.5;" width="83.8701" x="329" y="649.3906"/><text fill="#000000" font-family="sans-serif" font-size="14" lengthAdjust="spacing" textLength="69.8701" x="336" y="669.3857">SP Debtor</text></g><g class="participant participant-head" data-participant="Service"><rect fill="#E2E2F0" height="30.2969" rx="2.5" ry="2.5" style="stroke:#181818;stroke-width:0.5;" width="96.9131" x="473.7617" y="73.2969"/><text fill="#000000" font-family="sans-serif" font-size="14" lengthAdjust="spacing" textLength="82.9131" x="480.7617" y="93.292">RTP Service</text></g><g class="participant participant-tail" data-participant="Service"><rect fill="#E2E2F0" height="30.2969" rx="2.5" ry="2.5" style="stroke:#181818;stroke-width:0.5;" width="96.9131" x="473.7617" y="649.3906"/><text fill="#000000" font-family="sans-serif" font-size="14" lengthAdjust="spacing" textLength="82.9131" x="480.7617" y="669.3857">RTP Service</text></g><g class="participant participant-head" data-participant="DB"><text fill="#000000" font-family="sans-serif" font-size="14" lengthAdjust="spacing" textLength="97.9727" x="714.5063" y="101.292">RTP Database</text><path d="M748.4927,52.2969 C748.4927,42.2969 766.4927,42.2969 766.4927,42.2969 C766.4927,42.2969 784.4927,42.2969 784.4927,52.2969 L784.4927,78.2969 C784.4927,88.2969 766.4927,88.2969 766.4927,88.2969 C766.4927,88.2969 748.4927,88.2969 748.4927,78.2969 L748.4927,52.2969" fill="#E2E2F0" style="stroke:#181818;stroke-width:1.5;"/><path d="M748.4927,52.2969 C748.4927,62.2969 766.4927,62.2969 766.4927,62.2969 C766.4927,62.2969 784.4927,62.2969 784.4927,52.2969" fill="none" style="stroke:#181818;stroke-width:1.5;"/></g><g class="participant participant-tail" data-participant="DB"><text fill="#000000" font-family="sans-serif" font-size="14" lengthAdjust="spacing" textLength="97.9727" x="714.5063" y="662.3857">RTP Database</text><path d="M748.4927,675.6875 C748.4927,665.6875 766.4927,665.6875 766.4927,665.6875 C766.4927,665.6875 784.4927,665.6875 784.4927,675.6875 L784.4927,701.6875 C784.4927,711.6875 766.4927,711.6875 766.4927,711.6875 C766.4927,711.6875 748.4927,711.6875 748.4927,701.6875 L748.4927,675.6875" fill="#E2E2F0" style="stroke:#181818;stroke-width:1.5;"/><path d="M748.4927,675.6875 C748.4927,685.6875 766.4927,685.6875 766.4927,685.6875 C766.4927,685.6875 784.4927,685.6875 784.4927,675.6875" fill="none" style="stroke:#181818;stroke-width:1.5;"/></g><g><title>RTP Service</title><rect fill="#FFFFFF" height="458.5313" style="stroke:#181818;stroke-width:1;" width="10" x="517.2183" y="181.8594"/></g><g><title>RTP Database</title><rect fill="#FFFFFF" height="384.2656" style="stroke:#181818;stroke-width:1;" width="10" x="761.4927" y="256.125"/></g><rect fill="#EEEEEE" height="3" style="stroke:#EEEEEE;stroke-width:1;" width="838.479" x="0" y="135.1602"/><line style="stroke:#000000;stroke-width:1;" x1="0" x2="838.479" y1="135.1602" y2="135.1602"/><line style="stroke:#000000;stroke-width:1;" x1="0" x2="838.479" y1="138.1602" y2="138.1602"/><rect fill="#EEEEEE" height="23.1328" style="stroke:#000000;stroke-width:2;" width="359.1475" x="239.6658" y="124.5938"/><text fill="#000000" font-family="sans-serif" font-size="13" font-weight="bold" lengthAdjust="spacing" textLength="340.6216" x="245.6658" y="140.6606">Callback Processing (Asynchronous Response)</text><g class="message" data-participant-1="SPDAPI" data-participant-2="Service"><polygon fill="#181818" points="505.2183,177.8594,515.2183,181.8594,505.2183,185.8594,509.2183,181.8594" style="stroke:#181818;stroke-width:1;"/><line style="stroke:#181818;stroke-width:1;" x1="370.9351" x2="511.2183" y1="181.8594" y2="181.8594"/><text fill="#000000" font-family="sans-serif" font-size="13" lengthAdjust="spacing" textLength="127.2832" x="377.9351" y="176.7935">POST to callbackUrl</text></g><path d="M5,162.7266 L5,187.7266 L366,187.7266 L366,172.7266 L356,162.7266 L5,162.7266" fill="#FEFFDD" style="stroke:#181818;stroke-width:0.5;"/><path d="M356,162.7266 L356,172.7266 L366,172.7266 L356,162.7266" fill="#FEFFDD" style="stroke:#181818;stroke-width:0.5;"/><text fill="#000000" font-family="sans-serif" font-size="13" lengthAdjust="spacing" textLength="340.2471" x="11" y="179.7935">AsynchronousSepaRequestToPayResponseResource</text><g class="message" data-participant-1="Service" data-participant-2="Service"><line style="stroke:#181818;stroke-width:1;" x1="527.2183" x2="569.2183" y1="213.9922" y2="213.9922"/><line style="stroke:#181818;stroke-width:1;" x1="569.2183" x2="569.2183" y1="213.9922" y2="226.9922"/><line style="stroke:#181818;stroke-width:1;" x1="528.2183" x2="569.2183" y1="226.9922" y2="226.9922"/><polygon fill="#181818" points="538.2183,222.9922,528.2183,226.9922,538.2183,230.9922,534.2183,226.9922" style="stroke:#181818;stroke-width:1;"/><text fill="#000000" font-family="sans-serif" font-size="13" lengthAdjust="spacing" textLength="109.4971" x="534.2183" y="208.9263">parseResponse()</text></g><g class="message" data-participant-1="Service" data-participant-2="DB"><polygon fill="#181818" points="749.4927,252.125,759.4927,256.125,749.4927,260.125,753.4927,256.125" style="stroke:#181818;stroke-width:1;"/><line style="stroke:#181818;stroke-width:1;" x1="527.2183" x2="755.4927" y1="256.125" y2="256.125"/><text fill="#000000" font-family="sans-serif" font-size="13" lengthAdjust="spacing" textLength="215.2744" x="534.2183" y="251.0591">findRtpByResourceId(resourceId)</text></g><g class="message" data-participant-1="DB" data-participant-2="Service"><polygon fill="#181818" points="538.2183,281.2578,528.2183,285.2578,538.2183,289.2578,534.2183,285.2578" style="stroke:#181818;stroke-width:1;"/><line style="stroke:#181818;stroke-width:1;stroke-dasharray:2.0,2.0;" x1="532.2183" x2="760.4927" y1="285.2578" y2="285.2578"/><text fill="#000000" font-family="sans-serif" font-size="13" lengthAdjust="spacing" textLength="69.2085" x="544.2183" y="280.1919">return RTP</text></g><path d="M319,300.2578 L383.4429,300.2578 L383.4429,307.3906 L373.4429,317.3906 L319,317.3906 L319,300.2578" fill="#EEEEEE" style="stroke:#000000;stroke-width:1.5;"/><rect fill="none" height="333.1328" style="stroke:#000000;stroke-width:1.5;" width="509.479" x="319" y="300.2578"/><text fill="#000000" font-family="sans-serif" font-size="13" font-weight="bold" lengthAdjust="spacing" textLength="19.4429" x="334" y="313.3247">alt</text><text fill="#000000" font-family="sans-serif" font-size="11" font-weight="bold" lengthAdjust="spacing" textLength="122.2676" x="398.4429" y="312.4683">[Request Accepted]</text><g class="message" data-participant-1="Service" data-participant-2="Service"><line style="stroke:#181818;stroke-width:1;" x1="527.2183" x2="569.2183" y1="338.5234" y2="338.5234"/><line style="stroke:#181818;stroke-width:1;" x1="569.2183" x2="569.2183" y1="338.5234" y2="351.5234"/><line style="stroke:#181818;stroke-width:1;" x1="528.2183" x2="569.2183" y1="351.5234" y2="351.5234"/><polygon fill="#181818" points="538.2183,347.5234,528.2183,351.5234,538.2183,355.5234,534.2183,351.5234" style="stroke:#181818;stroke-width:1;"/><text fill="#000000" font-family="sans-serif" font-size="13" lengthAdjust="spacing" textLength="152.6611" x="534.2183" y="333.4575">setStatus("ACCEPTED")</text></g><g class="message" data-participant-1="Service" data-participant-2="DB"><polygon fill="#181818" points="749.4927,376.6563,759.4927,380.6563,749.4927,384.6563,753.4927,380.6563" style="stroke:#181818;stroke-width:1;"/><line style="stroke:#181818;stroke-width:1;" x1="527.2183" x2="755.4927" y1="380.6563" y2="380.6563"/><text fill="#000000" font-family="sans-serif" font-size="13" lengthAdjust="spacing" textLength="97.0239" x="534.2183" y="375.5903">updateRtp(rtp)</text></g><g class="message" data-participant-1="DB" data-participant-2="Service"><polygon fill="#181818" points="538.2183,405.7891,528.2183,409.7891,538.2183,413.7891,534.2183,409.7891" style="stroke:#181818;stroke-width:1;"/><line style="stroke:#181818;stroke-width:1;stroke-dasharray:2.0,2.0;" x1="532.2183" x2="760.4927" y1="409.7891" y2="409.7891"/><text fill="#000000" font-family="sans-serif" font-size="13" lengthAdjust="spacing" textLength="130.1396" x="544.2183" y="404.7231">updateConfirmation</text></g><g class="message" data-participant-1="Service" data-participant-2="SPDAPI"><polygon fill="#181818" points="381.9351,434.9219,371.9351,438.9219,381.9351,442.9219,377.9351,438.9219" style="stroke:#181818;stroke-width:1;"/><line style="stroke:#181818;stroke-width:1;stroke-dasharray:2.0,2.0;" x1="375.9351" x2="516.2183" y1="438.9219" y2="438.9219"/><text fill="#000000" font-family="sans-serif" font-size="13" lengthAdjust="spacing" textLength="47.7026" x="387.9351" y="433.856">200 OK</text></g><line style="stroke:#000000;stroke-width:1;stroke-dasharray:2.0,2.0;" x1="319" x2="828.479" y1="447.9219" y2="447.9219"/><text fill="#000000" font-family="sans-serif" font-size="11" font-weight="bold" lengthAdjust="spacing" textLength="119.061" x="324" y="458.1323">[Request Rejected]</text><g class="message" data-participant-1="Service" data-participant-2="Service"><line style="stroke:#181818;stroke-width:1;" x1="527.2183" x2="569.2183" y1="482.8594" y2="482.8594"/><line style="stroke:#181818;stroke-width:1;" x1="569.2183" x2="569.2183" y1="482.8594" y2="495.8594"/><line style="stroke:#181818;stroke-width:1;" x1="528.2183" x2="569.2183" y1="495.8594" y2="495.8594"/><polygon fill="#181818" points="538.2183,491.8594,528.2183,495.8594,538.2183,499.8594,534.2183,495.8594" style="stroke:#181818;stroke-width:1;"/><text fill="#000000" font-family="sans-serif" font-size="13" lengthAdjust="spacing" textLength="147.9321" x="534.2183" y="477.7935">setStatus("REJECTED")</text></g><g class="message" data-participant-1="Service" data-participant-2="Service"><line style="stroke:#181818;stroke-width:1;" x1="527.2183" x2="569.2183" y1="524.9922" y2="524.9922"/><line style="stroke:#181818;stroke-width:1;" x1="569.2183" x2="569.2183" y1="524.9922" y2="537.9922"/><line style="stroke:#181818;stroke-width:1;" x1="528.2183" x2="569.2183" y1="537.9922" y2="537.9922"/><polygon fill="#181818" points="538.2183,533.9922,528.2183,537.9922,538.2183,541.9922,534.2183,537.9922" style="stroke:#181818;stroke-width:1;"/><text fill="#000000" font-family="sans-serif" font-size="13" lengthAdjust="spacing" textLength="182.9395" x="534.2183" y="519.9263">setRejectionReason(reason)</text></g><g class="message" data-participant-1="Service" data-participant-2="DB"><polygon fill="#181818" points="749.4927,563.125,759.4927,567.125,749.4927,571.125,753.4927,567.125" style="stroke:#181818;stroke-width:1;"/><line style="stroke:#181818;stroke-width:1;" x1="527.2183" x2="755.4927" y1="567.125" y2="567.125"/><text fill="#000000" font-family="sans-serif" font-size="13" lengthAdjust="spacing" textLength="97.0239" x="534.2183" y="562.0591">updateRtp(rtp)</text></g><g class="message" data-participant-1="DB" data-participant-2="Service"><polygon fill="#181818" points="538.2183,592.2578,528.2183,596.2578,538.2183,600.2578,534.2183,596.2578" style="stroke:#181818;stroke-width:1;"/><line style="stroke:#181818;stroke-width:1;stroke-dasharray:2.0,2.0;" x1="532.2183" x2="760.4927" y1="596.2578" y2="596.2578"/><text fill="#000000" font-family="sans-serif" font-size="13" lengthAdjust="spacing" textLength="130.1396" x="544.2183" y="591.1919">updateConfirmation</text></g><g class="message" data-participant-1="Service" data-participant-2="SPDAPI"><polygon fill="#181818" points="381.9351,621.3906,371.9351,625.3906,381.9351,629.3906,377.9351,625.3906" style="stroke:#181818;stroke-width:1;"/><line style="stroke:#181818;stroke-width:1;stroke-dasharray:2.0,2.0;" x1="375.9351" x2="516.2183" y1="625.3906" y2="625.3906"/><text fill="#000000" font-family="sans-serif" font-size="13" lengthAdjust="spacing" textLength="47.7026" x="387.9351" y="620.3247">200 OK</text></g><!--SRC=[lP5DJyCm38Rl-HLMJ-sXqiHnqf3wXJGuB6hB3yXI3m8bAOaxj7zFrW_efXquaKjiwVNhnpOfQX6gWYTGucUFZkBQn5oS88PCjErUo7VWraXqJkaNU6ZD5sETiAIaweGc22eEEUx9s024Wuhd2TzUAigQGuNsg2IEcZ5cZI2n5mv7HJvbWoHF6TjiRYA4YJjf-MgDDhtprAupsc44cmrZOtU8x-SUQ-2xgWOo82UhPzioRGYXnGEjOMbMOIUcBTJ6xs3szh_fhGSMajHH-Dfv0ZO55ntzx4FDK1j6IqsUhk6WT5DIbvvcssqJsfym-ctYTv2d42-jBL9lDVXrCIPQccy6YPJO4JOC_Bl5v90g4jIxC4YohE1raGVHjVfCrtV-AkZvGalTgBY662MPqGTbFmGfeo-DpjhX3ckuMwrWzyImzKUUMKjyG_b7rh9uBBARh4lrwEWvIXJEQB_Dy_UFu-c6iGQNXrjaK-4t]--></g></svg>