<?xml version="1.0" encoding="us-ascii" standalone="no"?><svg xmlns="http://www.w3.org/2000/svg" xmlns:xlink="http://www.w3.org/1999/xlink" contentStyleType="text/css" height="2812.5px" preserveAspectRatio="none" style="width:1435px;height:2812px;" version="1.1" viewBox="0 0 1435 2812" width="1435.4167px" zoomAndPan="magnify"><defs><linearGradient id="g1gtd2bic5xbfs0" x1="50%" x2="50%" y1="0%" y2="100%"><stop offset="0%" stop-color="#FFFFFF"/><stop offset="100%" stop-color="#FFFFFF"/></linearGradient><filter height="300%" id="f1gtd2bic5xbfs" width="300%" x="-1" y="-1"><feGaussianBlur result="blurOut" stdDeviation="2.0833333333333335"/><feColorMatrix in="blurOut" result="blurOut2" type="matrix" values="0 0 0 0 0 0 0 0 0 0 0 0 0 0 0 0 0 0 .4 0"/><feOffset dx="4.166666666666667" dy="4.166666666666667" in="blurOut2" result="blurOut3"/><feBlend in="SourceGraphic" in2="blurOut3" mode="normal"/></filter><linearGradient id="g1gtd2bic5xbfs1" x1="50%" x2="50%" y1="0%" y2="100%"><stop offset="0%" stop-color="#4DABF5"/><stop offset="100%" stop-color="#2196F3"/></linearGradient><linearGradient id="g1gtd2bic5xbfs2" x1="50%" x2="50%" y1="0%" y2="100%"><stop offset="0%" stop-color="#B052C0"/><stop offset="100%" stop-color="#9C27B0"/></linearGradient></defs><g><rect fill="url(#g1gtd2bic5xbfs0)" height="57.5846" id="_title" rx="4.1667" ry="4.1667" style="stroke:#CCCCCC;stroke-width:1.0416666666666667;" width="228.125" x="604.9479" y="20.8333"/><text fill="#2196F3" font-family="Verdana" font-size="20.8333" font-weight="bold" lengthAdjust="spacing" textLength="194.7917" x="621.6146" y="56.838">RTP Delete Flow</text><rect fill="#FFFFFF" filter="url(#f1gtd2bic5xbfs)" height="2413.8672" style="stroke:#CCCCCC;stroke-width:1.0416666666666667;" width="10.4167" x="491.6667" y="268.8802"/><rect fill="#FFFFFF" filter="url(#f1gtd2bic5xbfs)" height="114.4857" style="stroke:#CCCCCC;stroke-width:1.0416666666666667;" width="10.4167" x="844.7917" y="318.8477"/><rect fill="#FFFFFF" filter="url(#f1gtd2bic5xbfs)" height="49.9674" style="stroke:#CCCCCC;stroke-width:1.0416666666666667;" width="10.4167" x="997.9167" y="921.5495"/><rect fill="#FFFFFF" filter="url(#f1gtd2bic5xbfs)" height="49.9674" style="stroke:#CCCCCC;stroke-width:1.0416666666666667;" width="10.4167" x="997.9167" y="1771.9076"/><rect fill="#FFFFFF" filter="url(#f1gtd2bic5xbfs)" height="49.9674" style="stroke:#CCCCCC;stroke-width:1.0416666666666667;" width="10.4167" x="997.9167" y="2009.2448"/><rect fill="#FFFFFF" filter="url(#f1gtd2bic5xbfs)" height="49.9674" style="stroke:#CCCCCC;stroke-width:1.0416666666666667;" width="10.4167" x="997.9167" y="2346.5169"/><rect fill="#FFFFFF" filter="url(#f1gtd2bic5xbfs)" height="49.9674" style="stroke:#CCCCCC;stroke-width:1.0416666666666667;" width="10.4167" x="1135.4167" y="1086.0026"/><rect fill="#FFFFFF" filter="url(#f1gtd2bic5xbfs)" height="49.9674" style="stroke:#CCCCCC;stroke-width:1.0416666666666667;" width="10.4167" x="1135.4167" y="2246.582"/><rect fill="#FFFFFF" filter="url(#f1gtd2bic5xbfs)" height="913.9648" style="stroke:#CCCCCC;stroke-width:1.0416666666666667;" width="10.4167" x="1297.3958" y="1548.112"/><rect fill="url(#g1gtd2bic5xbfs0)" filter="url(#f1gtd2bic5xbfs)" height="2340.9831" rx="4.1667" ry="4.1667" style="stroke:#2196F3;stroke-width:1.0416666666666667;" width="1397.3958" x="20.8333" y="334.4727"/><path d="M20.8333,629.0365 L1418.2292,629.0365 L1418.2292,2671.2891 A4.1667,4.1667 0 0 1 1414.0625,2675.4557 L25,2675.4557 A4.1667,4.1667 0 0 1 20.8333,2671.2891 L20.8333,629.0365 " fill="url(#g1gtd2bic5xbfs0)" style="stroke:none;stroke-width:1.0416666666666667;"/><rect fill="url(#g1gtd2bic5xbfs0)" filter="url(#f1gtd2bic5xbfs)" height="157.1615" rx="4.1667" ry="4.1667" style="stroke:#2196F3;stroke-width:1.0416666666666667;" width="840.625" x="388.0208" y="987.1419"/><rect fill="url(#g1gtd2bic5xbfs0)" filter="url(#f1gtd2bic5xbfs)" height="1449.9349" rx="4.1667" ry="4.1667" style="stroke:#2196F3;stroke-width:1.0416666666666667;" width="1376.5625" x="31.25" y="1218.2292"/><rect fill="url(#g1gtd2bic5xbfs0)" filter="url(#f1gtd2bic5xbfs)" height="1138.737" rx="4.1667" ry="4.1667" style="stroke:#2196F3;stroke-width:1.0416666666666667;" width="1355.7292" x="41.6667" y="1434.7005"/><rect fill="url(#g1gtd2bic5xbfs0)" filter="url(#f1gtd2bic5xbfs)" height="831.7057" rx="4.1667" ry="4.1667" style="stroke:#2196F3;stroke-width:1.0416666666666667;" width="1334.8958" x="52.0833" y="1623.0794"/><path d="M52.0833,1880.1758 L1386.9792,1880.1758 L1386.9792,2113.3464 A4.1667,4.1667 0 0 1 1382.8125,2117.513 L56.25,2117.513 A4.1667,4.1667 0 0 1 52.0833,2113.3464 L52.0833,1880.1758 " fill="url(#g1gtd2bic5xbfs0)" style="stroke:none;stroke-width:1.0416666666666667;"/><path d="M52.0833,2117.513 L1386.9792,2117.513 L1386.9792,2450.6185 A4.1667,4.1667 0 0 1 1382.8125,2454.7852 L56.25,2454.7852 A4.1667,4.1667 0 0 1 52.0833,2450.6185 L52.0833,2117.513 " fill="url(#g1gtd2bic5xbfs0)" style="stroke:none;stroke-width:1.0416666666666667;"/><path d="M41.6667,2462.0768 L1397.3958,2462.0768 L1397.3958,2569.2708 A4.1667,4.1667 0 0 1 1393.2292,2573.4375 L45.8333,2573.4375 A4.1667,4.1667 0 0 1 41.6667,2569.2708 L41.6667,2462.0768 " fill="url(#g1gtd2bic5xbfs0)" style="stroke:none;stroke-width:1.0416666666666667;"/><path d="M31.25,2580.7292 L1407.8125,2580.7292 L1407.8125,2663.9974 A4.1667,4.1667 0 0 1 1403.6458,2668.1641 L35.4167,2668.1641 A4.1667,4.1667 0 0 1 31.25,2663.9974 L31.25,2580.7292 " fill="url(#g1gtd2bic5xbfs0)" style="stroke:none;stroke-width:1.0416666666666667;"/><line style="stroke:#CCCCCC;stroke-width:1.0416666666666667;stroke-dasharray:5.0,5.0;" x1="170.8333" x2="170.8333" y1="187.7279" y2="2693.1641"/><line style="stroke:#CCCCCC;stroke-width:1.0416666666666667;stroke-dasharray:5.0,5.0;" x1="496.3542" x2="496.3542" y1="187.7279" y2="2693.1641"/><line style="stroke:#CCCCCC;stroke-width:1.0416666666666667;stroke-dasharray:5.0,5.0;" x1="849.4792" x2="849.4792" y1="187.7279" y2="2693.1641"/><line style="stroke:#CCCCCC;stroke-width:1.0416666666666667;stroke-dasharray:5.0,5.0;" x1="1002.6042" x2="1002.6042" y1="187.7279" y2="2693.1641"/><line style="stroke:#CCCCCC;stroke-width:1.0416666666666667;stroke-dasharray:5.0,5.0;" x1="1140.1042" x2="1140.1042" y1="187.7279" y2="2693.1641"/><line style="stroke:#CCCCCC;stroke-width:1.0416666666666667;stroke-dasharray:5.0,5.0;" x1="1302.6042" x2="1302.6042" y1="187.7279" y2="2693.1641"/><rect fill="url(#g1gtd2bic5xbfs1)" filter="url(#f1gtd2bic5xbfs)" height="49.9674" rx="4.1667" ry="4.1667" style="stroke:#2196F3;stroke-width:1.0416666666666667;" width="130.2083" x="104.1667" y="133.5938"/><text fill="#FFFFFF" font-family="Verdana" font-size="12.5" lengthAdjust="spacing" textLength="94.7917" x="121.875" y="162.9049">MS-CONSUMER</text><rect fill="url(#g1gtd2bic5xbfs1)" filter="url(#f1gtd2bic5xbfs)" height="49.9674" rx="4.1667" ry="4.1667" style="stroke:#2196F3;stroke-width:1.0416666666666667;" width="130.2083" x="104.1667" y="2692.1224"/><text fill="#FFFFFF" font-family="Verdana" font-size="12.5" lengthAdjust="spacing" textLength="94.7917" x="121.875" y="2721.4335">MS-CONSUMER</text><rect fill="url(#g1gtd2bic5xbfs1)" filter="url(#f1gtd2bic5xbfs)" height="49.9674" rx="4.1667" ry="4.1667" style="stroke:#2196F3;stroke-width:1.0416666666666667;" width="110.4167" x="440.1042" y="133.5938"/><text fill="#FFFFFF" font-family="Verdana" font-size="12.5" lengthAdjust="spacing" textLength="75" x="457.8125" y="162.9049">MS-SENDER</text><rect fill="url(#g1gtd2bic5xbfs1)" filter="url(#f1gtd2bic5xbfs)" height="49.9674" rx="4.1667" ry="4.1667" style="stroke:#2196F3;stroke-width:1.0416666666666667;" width="110.4167" x="440.1042" y="2692.1224"/><text fill="#FFFFFF" font-family="Verdana" font-size="12.5" lengthAdjust="spacing" textLength="75" x="457.8125" y="2721.4335">MS-SENDER</text><text fill="#222222" font-family="Verdana" font-size="12.5" lengthAdjust="spacing" textLength="35.4167" x="829.1667" y="159.8124">Redis</text><text fill="#222222" font-family="Verdana" font-size="12.5" lengthAdjust="spacing" textLength="159.375" x="767.1875" y="174.3632">(Idempotency Key Store)</text><path d="M831.25,100.293 C831.25,89.8763 850,89.8763 850,89.8763 C850,89.8763 868.75,89.8763 868.75,100.293 L868.75,127.3763 C868.75,137.793 850,137.793 850,137.793 C850,137.793 831.25,137.793 831.25,127.3763 L831.25,100.293 " fill="url(#g1gtd2bic5xbfs1)" filter="url(#f1gtd2bic5xbfs)" style="stroke:#2196F3;stroke-width:1.5625;"/><path d="M831.25,100.293 C831.25,110.7096 850,110.7096 850,110.7096 C850,110.7096 868.75,110.7096 868.75,100.293 " fill="none" style="stroke:#2196F3;stroke-width:1.5625;"/><text fill="#222222" font-family="Verdana" font-size="12.5" lengthAdjust="spacing" textLength="35.4167" x="829.1667" y="2714.1418">Redis</text><text fill="#222222" font-family="Verdana" font-size="12.5" lengthAdjust="spacing" textLength="159.375" x="767.1875" y="2728.6926">(Idempotency Key Store)</text><path d="M831.25,2752.474 C831.25,2742.0573 850,2742.0573 850,2742.0573 C850,2742.0573 868.75,2742.0573 868.75,2752.474 L868.75,2779.5573 C868.75,2789.974 850,2789.974 850,2789.974 C850,2789.974 831.25,2789.974 831.25,2779.5573 L831.25,2752.474 " fill="url(#g1gtd2bic5xbfs1)" filter="url(#f1gtd2bic5xbfs)" style="stroke:#2196F3;stroke-width:1.5625;"/><path d="M831.25,2752.474 C831.25,2762.8906 850,2762.8906 850,2762.8906 C850,2762.8906 868.75,2762.8906 868.75,2752.474 " fill="none" style="stroke:#2196F3;stroke-width:1.5625;"/><text fill="#222222" font-family="Verdana" font-size="12.5" lengthAdjust="spacing" textLength="32.2917" x="983.8542" y="159.8124">RTPS</text><text fill="#222222" font-family="Verdana" font-size="12.5" lengthAdjust="spacing" textLength="71.875" x="964.0625" y="174.3632">(MongoDB)</text><path d="M984.375,100.293 C984.375,89.8763 1003.125,89.8763 1003.125,89.8763 C1003.125,89.8763 1021.875,89.8763 1021.875,100.293 L1021.875,127.3763 C1021.875,137.793 1003.125,137.793 1003.125,137.793 C1003.125,137.793 984.375,137.793 984.375,127.3763 L984.375,100.293 " fill="url(#g1gtd2bic5xbfs1)" filter="url(#f1gtd2bic5xbfs)" style="stroke:#2196F3;stroke-width:1.5625;"/><path d="M984.375,100.293 C984.375,110.7096 1003.125,110.7096 1003.125,110.7096 C1003.125,110.7096 1021.875,110.7096 1021.875,100.293 " fill="none" style="stroke:#2196F3;stroke-width:1.5625;"/><text fill="#222222" font-family="Verdana" font-size="12.5" lengthAdjust="spacing" textLength="32.2917" x="983.8542" y="2714.1418">RTPS</text><text fill="#222222" font-family="Verdana" font-size="12.5" lengthAdjust="spacing" textLength="71.875" x="964.0625" y="2728.6926">(MongoDB)</text><path d="M984.375,2752.474 C984.375,2742.0573 1003.125,2742.0573 1003.125,2742.0573 C1003.125,2742.0573 1021.875,2742.0573 1021.875,2752.474 L1021.875,2779.5573 C1021.875,2789.974 1003.125,2789.974 1003.125,2789.974 C1003.125,2789.974 984.375,2789.974 984.375,2779.5573 L984.375,2752.474 " fill="url(#g1gtd2bic5xbfs1)" filter="url(#f1gtd2bic5xbfs)" style="stroke:#2196F3;stroke-width:1.5625;"/><path d="M984.375,2752.474 C984.375,2762.8906 1003.125,2762.8906 1003.125,2762.8906 C1003.125,2762.8906 1021.875,2762.8906 1021.875,2752.474 " fill="none" style="stroke:#2196F3;stroke-width:1.5625;"/><text fill="#222222" font-family="Verdana" font-size="12.5" lengthAdjust="spacing" textLength="128.125" x="1073.4375" y="159.8124">Azure Data Explorer</text><text fill="#222222" font-family="Verdana" font-size="12.5" lengthAdjust="spacing" textLength="42.7083" x="1116.1458" y="174.3632">(SRTP)</text><path d="M1121.875,100.293 C1121.875,89.8763 1140.625,89.8763 1140.625,89.8763 C1140.625,89.8763 1159.375,89.8763 1159.375,100.293 L1159.375,127.3763 C1159.375,137.793 1140.625,137.793 1140.625,137.793 C1140.625,137.793 1121.875,137.793 1121.875,127.3763 L1121.875,100.293 " fill="url(#g1gtd2bic5xbfs1)" filter="url(#f1gtd2bic5xbfs)" style="stroke:#2196F3;stroke-width:1.5625;"/><path d="M1121.875,100.293 C1121.875,110.7096 1140.625,110.7096 1140.625,110.7096 C1140.625,110.7096 1159.375,110.7096 1159.375,100.293 " fill="none" style="stroke:#2196F3;stroke-width:1.5625;"/><text fill="#222222" font-family="Verdana" font-size="12.5" lengthAdjust="spacing" textLength="128.125" x="1073.4375" y="2714.1418">Azure Data Explorer</text><text fill="#222222" font-family="Verdana" font-size="12.5" lengthAdjust="spacing" textLength="42.7083" x="1116.1458" y="2728.6926">(SRTP)</text><path d="M1121.875,2752.474 C1121.875,2742.0573 1140.625,2742.0573 1140.625,2742.0573 C1140.625,2742.0573 1159.375,2742.0573 1159.375,2752.474 L1159.375,2779.5573 C1159.375,2789.974 1140.625,2789.974 1140.625,2789.974 C1140.625,2789.974 1121.875,2789.974 1121.875,2779.5573 L1121.875,2752.474 " fill="url(#g1gtd2bic5xbfs1)" filter="url(#f1gtd2bic5xbfs)" style="stroke:#2196F3;stroke-width:1.5625;"/><path d="M1121.875,2752.474 C1121.875,2762.8906 1140.625,2762.8906 1140.625,2762.8906 C1140.625,2762.8906 1159.375,2762.8906 1159.375,2752.474 " fill="none" style="stroke:#2196F3;stroke-width:1.5625;"/><rect fill="url(#g1gtd2bic5xbfs1)" filter="url(#f1gtd2bic5xbfs)" height="49.9674" rx="4.1667" ry="4.1667" style="stroke:#2196F3;stroke-width:1.0416666666666667;" width="61.4583" x="1270.3125" y="133.5938"/><text fill="#FFFFFF" font-family="Verdana" font-size="12.5" lengthAdjust="spacing" textLength="26.0417" x="1288.0208" y="162.9049">DSP</text><rect fill="url(#g1gtd2bic5xbfs1)" filter="url(#f1gtd2bic5xbfs)" height="49.9674" rx="4.1667" ry="4.1667" style="stroke:#2196F3;stroke-width:1.0416666666666667;" width="61.4583" x="1270.3125" y="2692.1224"/><text fill="#FFFFFF" font-family="Verdana" font-size="12.5" lengthAdjust="spacing" textLength="26.0417" x="1288.0208" y="2721.4335">DSP</text><rect fill="#FFFFFF" filter="url(#f1gtd2bic5xbfs)" height="2413.8672" style="stroke:#CCCCCC;stroke-width:1.0416666666666667;" width="10.4167" x="491.6667" y="268.8802"/><rect fill="#FFFFFF" filter="url(#f1gtd2bic5xbfs)" height="114.4857" style="stroke:#CCCCCC;stroke-width:1.0416666666666667;" width="10.4167" x="844.7917" y="318.8477"/><rect fill="#FFFFFF" filter="url(#f1gtd2bic5xbfs)" height="49.9674" style="stroke:#CCCCCC;stroke-width:1.0416666666666667;" width="10.4167" x="997.9167" y="921.5495"/><rect fill="#FFFFFF" filter="url(#f1gtd2bic5xbfs)" height="49.9674" style="stroke:#CCCCCC;stroke-width:1.0416666666666667;" width="10.4167" x="997.9167" y="1771.9076"/><rect fill="#FFFFFF" filter="url(#f1gtd2bic5xbfs)" height="49.9674" style="stroke:#CCCCCC;stroke-width:1.0416666666666667;" width="10.4167" x="997.9167" y="2009.2448"/><rect fill="#FFFFFF" filter="url(#f1gtd2bic5xbfs)" height="49.9674" style="stroke:#CCCCCC;stroke-width:1.0416666666666667;" width="10.4167" x="997.9167" y="2346.5169"/><rect fill="#FFFFFF" filter="url(#f1gtd2bic5xbfs)" height="49.9674" style="stroke:#CCCCCC;stroke-width:1.0416666666666667;" width="10.4167" x="1135.4167" y="1086.0026"/><rect fill="#FFFFFF" filter="url(#f1gtd2bic5xbfs)" height="49.9674" style="stroke:#CCCCCC;stroke-width:1.0416666666666667;" width="10.4167" x="1135.4167" y="2246.582"/><rect fill="#FFFFFF" filter="url(#f1gtd2bic5xbfs)" height="913.9648" style="stroke:#CCCCCC;stroke-width:1.0416666666666667;" width="10.4167" x="1297.3958" y="1548.112"/><polygon fill="#2196F3" points="479.1667,264.7135,489.5833,268.8802,479.1667,273.0469,483.3333,268.8802" style="stroke:#2196F3;stroke-width:1.0416666666666667;"/><line style="stroke:#2196F3;stroke-width:3.125;" x1="170.8333" x2="485.4167" y1="268.8802" y2="268.8802"/><text fill="#222222" font-family="Verdana" font-size="12.5" font-weight="bold" lengthAdjust="spacing" textLength="8.3333" x="188.5417" y="238.8814">1</text><text fill="#222222" font-family="Verdana" font-size="12.5" font-weight="bold" lengthAdjust="spacing" textLength="52.0833" x="221.875" y="224.3306">DELETE</text><text fill="#222222" font-family="Verdana" font-size="12.5" lengthAdjust="spacing" textLength="79.1667" x="278.125" y="224.3306">RTP request</text><text fill="#222222" font-family="Verdana" font-size="12.5" lengthAdjust="spacing" textLength="246.875" x="221.875" y="238.8814">Headers: Idempotency-Key, RequestId</text><text fill="#222222" font-family="Verdana" font-size="12.5" lengthAdjust="spacing" textLength="201.0417" x="221.875" y="253.4322">Payload: RTP cancellation data</text><polygon fill="#2196F3" points="832.2917,314.681,842.7083,318.8477,832.2917,323.0143,836.4583,318.8477" style="stroke:#2196F3;stroke-width:1.0416666666666667;"/><line style="stroke:#2196F3;stroke-width:3.125;" x1="502.0833" x2="838.5417" y1="318.8477" y2="318.8477"/><text fill="#222222" font-family="Verdana" font-size="12.5" font-weight="bold" lengthAdjust="spacing" textLength="8.3333" x="519.7917" y="303.3997">2</text><text fill="#222222" font-family="Verdana" font-size="12.5" lengthAdjust="spacing" textLength="152.0833" x="553.125" y="303.3997">check Idempotency-Key</text><path d="M25,334.4727 L108.3333,334.4727 L108.3333,361.5234 L97.9167,371.9401 L20.8333,371.9401 L20.8333,338.6393 A4.1667,4.1667 0 0 1 25,334.4727 " fill="#FFFFFF" style="stroke:#666666;stroke-width:1.0416666666666667;"/><rect fill="none" height="2340.9831" rx="4.1667" ry="4.1667" style="stroke:#2196F3;stroke-width:1.0416666666666667;" width="1397.3958" x="20.8333" y="334.4727"/><text fill="#9C27B0" font-family="Verdana" font-size="12.5" font-weight="bold" lengthAdjust="spacing" textLength="19.7917" x="46.875" y="357.5338">alt</text><text fill="#222222" font-family="Verdana" font-size="12.5" font-weight="bold" lengthAdjust="spacing" textLength="5.2083" x="134.375" y="358.5754">[</text><text fill="#222222" font-family="Verdana" font-size="12.5" font-weight="bold" lengthAdjust="spacing" textLength="342.7083" x="139.5833" y="358.5754">[DUPLICATE] Idempotency-Key already present</text><text fill="#222222" font-family="Verdana" font-size="12.5" font-weight="bold" lengthAdjust="spacing" textLength="5.2083" x="482.2917" y="358.5754">]</text><polygon fill="#2196F3" points="513.5417,429.1667,503.125,433.3333,513.5417,437.5,509.375,433.3333" style="stroke:#2196F3;stroke-width:1.0416666666666667;"/><line style="stroke:#2196F3;stroke-width:3.125;stroke-dasharray:2.0,2.0;" x1="507.2917" x2="848.9583" y1="433.3333" y2="433.3333"/><text fill="#222222" font-family="Verdana" font-size="12.5" font-weight="bold" lengthAdjust="spacing" textLength="8.3333" x="530.2083" y="417.8853">3</text><text fill="#222222" font-family="Verdana" font-size="12.5" lengthAdjust="spacing" textLength="63.5417" x="563.5417" y="417.8853">key found</text><line style="stroke:#2196F3;stroke-width:3.125;" x1="502.0833" x2="545.8333" y1="483.3008" y2="483.3008"/><line style="stroke:#2196F3;stroke-width:3.125;" x1="545.8333" x2="545.8333" y1="483.3008" y2="496.8424"/><line style="stroke:#2196F3;stroke-width:3.125;" x1="503.125" x2="545.8333" y1="496.8424" y2="496.8424"/><polygon fill="#2196F3" points="513.5417,492.6758,503.125,496.8424,513.5417,501.0091,509.375,496.8424" style="stroke:#2196F3;stroke-width:1.0416666666666667;"/><text fill="#222222" font-family="Verdana" font-size="12.5" font-weight="bold" lengthAdjust="spacing" textLength="8.3333" x="519.7917" y="467.8528">4</text><text fill="#222222" font-family="Verdana" font-size="12.5" lengthAdjust="spacing" textLength="184.375" x="553.125" y="467.8528">discard duplicated message</text><path d="M507.2917,514.5508 L507.2917,565.5924 A4.1667,4.1667 0 0 0 511.4583,569.7591 L776.0417,569.7591 A4.1667,4.1667 0 0 0 780.2083,565.5924 L780.2083,520.8008 L769.7917,510.3841 L511.4583,510.3841 A4.1667,4.1667 0 0 0 507.2917,514.5508 " fill="url(#g1gtd2bic5xbfs2)" filter="url(#f1gtd2bic5xbfs)" style="stroke:#9C27B0;stroke-width:1.0416666666666667;"/><path d="M769.7917,510.3841 L769.7917,518.7174 A2.0833,2.0833 0 0 0 771.875,520.8008 L780.2083,520.8008 L769.7917,510.3841 " fill="url(#g1gtd2bic5xbfs2)" style="stroke:#9C27B0;stroke-width:1.0416666666666667;"/><text fill="#FFFFFF" font-family="Verdana" font-size="12.5" lengthAdjust="spacing" textLength="137.5" x="523.9583" y="537.6119">Duplicated message:</text><text fill="#FFFFFF" font-family="Verdana" font-size="12.5" lengthAdjust="spacing" textLength="230.2083" x="523.9583" y="552.1627">already processed or in processing</text><polygon fill="#2196F3" points="182.2917,616.5365,171.875,620.7031,182.2917,624.8698,178.125,620.7031" style="stroke:#2196F3;stroke-width:1.0416666666666667;"/><line style="stroke:#2196F3;stroke-width:3.125;stroke-dasharray:2.0,2.0;" x1="176.0417" x2="490.625" y1="620.7031" y2="620.7031"/><text fill="#222222" font-family="Verdana" font-size="12.5" font-weight="bold" lengthAdjust="spacing" textLength="8.3333" x="198.9583" y="605.2551">5</text><text fill="#222222" font-family="Verdana" font-size="12.5" font-weight="bold" lengthAdjust="spacing" textLength="84.375" x="232.2917" y="605.2551">409 Conflict</text><line style="stroke:#2196F3;stroke-width:1.0416666666666667;stroke-dasharray:2.0,2.0;" x1="20.8333" x2="1418.2292" y1="630.0781" y2="630.0781"/><text fill="#222222" font-family="Verdana" font-size="12.5" font-weight="bold" lengthAdjust="spacing" textLength="5.2083" x="36.4583" y="652.0976">[</text><text fill="#222222" font-family="Verdana" font-size="12.5" font-weight="bold" lengthAdjust="spacing" textLength="266.6667" x="41.6667" y="652.0976">[NEW] Idempotency-Key not present</text><text fill="#222222" font-family="Verdana" font-size="12.5" font-weight="bold" lengthAdjust="spacing" textLength="5.2083" x="308.3333" y="652.0976">]</text><polygon fill="#2196F3" points="513.5417,703.9714,503.125,708.138,513.5417,712.3047,509.375,708.138" style="stroke:#2196F3;stroke-width:1.0416666666666667;"/><line style="stroke:#2196F3;stroke-width:3.125;stroke-dasharray:2.0,2.0;" x1="507.2917" x2="848.9583" y1="708.138" y2="708.138"/><text fill="#222222" font-family="Verdana" font-size="12.5" font-weight="bold" lengthAdjust="spacing" textLength="8.3333" x="530.2083" y="692.69">6</text><text fill="#222222" font-family="Verdana" font-size="12.5" lengthAdjust="spacing" textLength="89.5833" x="563.5417" y="692.69">key not found</text><polygon fill="#2196F3" points="837.5,753.9388,847.9167,758.1055,837.5,762.2721,841.6667,758.1055" style="stroke:#2196F3;stroke-width:1.0416666666666667;"/><line style="stroke:#2196F3;stroke-width:3.125;" x1="502.0833" x2="843.75" y1="758.1055" y2="758.1055"/><text fill="#222222" font-family="Verdana" font-size="12.5" font-weight="bold" lengthAdjust="spacing" textLength="8.3333" x="519.7917" y="742.6575">7</text><text fill="#222222" font-family="Verdana" font-size="12.5" lengthAdjust="spacing" textLength="143.75" x="553.125" y="742.6575">save Idempotency-Key</text><polygon fill="#2196F3" points="513.5417,803.9063,503.125,808.0729,513.5417,812.2396,509.375,808.0729" style="stroke:#2196F3;stroke-width:1.0416666666666667;"/><line style="stroke:#2196F3;stroke-width:3.125;stroke-dasharray:2.0,2.0;" x1="507.2917" x2="848.9583" y1="808.0729" y2="808.0729"/><text fill="#222222" font-family="Verdana" font-size="12.5" font-weight="bold" lengthAdjust="spacing" textLength="8.3333" x="530.2083" y="792.6249">8</text><text fill="#222222" font-family="Verdana" font-size="12.5" lengthAdjust="spacing" textLength="64.5833" x="563.5417" y="792.6249">key saved</text><line style="stroke:#2196F3;stroke-width:3.125;" x1="502.0833" x2="545.8333" y1="858.0404" y2="858.0404"/><line style="stroke:#2196F3;stroke-width:3.125;" x1="545.8333" x2="545.8333" y1="858.0404" y2="871.582"/><line style="stroke:#2196F3;stroke-width:3.125;" x1="503.125" x2="545.8333" y1="871.582" y2="871.582"/><polygon fill="#2196F3" points="513.5417,867.4154,503.125,871.582,513.5417,875.7487,509.375,871.582" style="stroke:#2196F3;stroke-width:1.0416666666666667;"/><text fill="#222222" font-family="Verdana" font-size="12.5" font-weight="bold" lengthAdjust="spacing" textLength="8.3333" x="519.7917" y="842.5924">9</text><text fill="#222222" font-family="Verdana" font-size="12.5" lengthAdjust="spacing" textLength="273.9583" x="553.125" y="842.5924">validate message &amp; operation == DELETE</text><polygon fill="#2196F3" points="985.4167,917.3828,995.8333,921.5495,985.4167,925.7161,989.5833,921.5495" style="stroke:#2196F3;stroke-width:1.0416666666666667;"/><line style="stroke:#2196F3;stroke-width:3.125;" x1="502.0833" x2="991.6667" y1="921.5495" y2="921.5495"/><text fill="#222222" font-family="Verdana" font-size="12.5" font-weight="bold" lengthAdjust="spacing" textLength="16.6667" x="519.7917" y="906.1015">10</text><text fill="#222222" font-family="Verdana" font-size="12.5" lengthAdjust="spacing" textLength="217.7083" x="561.4583" y="906.1015">findRtpByOperationDispatcherKey</text><polygon fill="#2196F3" points="513.5417,967.3503,503.125,971.5169,513.5417,975.6836,509.375,971.5169" style="stroke:#2196F3;stroke-width:1.0416666666666667;"/><line style="stroke:#2196F3;stroke-width:3.125;stroke-dasharray:2.0,2.0;" x1="507.2917" x2="1002.0833" y1="971.5169" y2="971.5169"/><text fill="#222222" font-family="Verdana" font-size="12.5" font-weight="bold" lengthAdjust="spacing" textLength="16.6667" x="530.2083" y="956.0689">11</text><text fill="#222222" font-family="Verdana" font-size="12.5" lengthAdjust="spacing" textLength="184.375" x="571.875" y="956.0689">result (RTP record or empty)</text><path d="M392.1875,987.1419 L475.5208,987.1419 L475.5208,1014.1927 L465.1042,1024.6094 L388.0208,1024.6094 L388.0208,991.3086 A4.1667,4.1667 0 0 1 392.1875,987.1419 " fill="#FFFFFF" style="stroke:#666666;stroke-width:1.0416666666666667;"/><rect fill="none" height="157.1615" rx="4.1667" ry="4.1667" style="stroke:#2196F3;stroke-width:1.0416666666666667;" width="840.625" x="388.0208" y="987.1419"/><text fill="#9C27B0" font-family="Verdana" font-size="12.5" font-weight="bold" lengthAdjust="spacing" textLength="19.7917" x="414.0625" y="1010.203">alt</text><text fill="#222222" font-family="Verdana" font-size="12.5" font-weight="bold" lengthAdjust="spacing" textLength="5.2083" x="501.5625" y="1011.2447">[</text><text fill="#222222" font-family="Verdana" font-size="12.5" font-weight="bold" lengthAdjust="spacing" textLength="161.4583" x="506.7708" y="1011.2447">RTP not found in SRTP</text><text fill="#222222" font-family="Verdana" font-size="12.5" font-weight="bold" lengthAdjust="spacing" textLength="5.2083" x="668.2292" y="1011.2447">]</text><polygon fill="#2196F3" points="1122.9167,1081.8359,1133.3333,1086.0026,1122.9167,1090.1693,1127.0833,1086.0026" style="stroke:#2196F3;stroke-width:1.0416666666666667;"/><line style="stroke:#2196F3;stroke-width:3.125;" x1="502.0833" x2="1129.1667" y1="1086.0026" y2="1086.0026"/><text fill="#222222" font-family="Verdana" font-size="12.5" font-weight="bold" lengthAdjust="spacing" textLength="16.6667" x="519.7917" y="1070.5546">12</text><text fill="#222222" font-family="Verdana" font-size="12.5" lengthAdjust="spacing" textLength="217.7083" x="561.4583" y="1070.5546">findRtpByOperationDispatcherKey</text><polygon fill="#2196F3" points="513.5417,1131.8034,503.125,1135.9701,513.5417,1140.1367,509.375,1135.9701" style="stroke:#2196F3;stroke-width:1.0416666666666667;"/><line style="stroke:#2196F3;stroke-width:3.125;stroke-dasharray:2.0,2.0;" x1="507.2917" x2="1139.5833" y1="1135.9701" y2="1135.9701"/><text fill="#222222" font-family="Verdana" font-size="12.5" font-weight="bold" lengthAdjust="spacing" textLength="16.6667" x="530.2083" y="1120.5221">13</text><text fill="#222222" font-family="Verdana" font-size="12.5" lengthAdjust="spacing" textLength="184.375" x="571.875" y="1120.5221">result (RTP record or empty)</text><path d="M507.2917,1160.9701 L507.2917,1197.4284 A4.1667,4.1667 0 0 0 511.4583,1201.5951 L823.9583,1201.5951 A4.1667,4.1667 0 0 0 828.125,1197.4284 L828.125,1167.2201 L817.7083,1156.8034 L511.4583,1156.8034 A4.1667,4.1667 0 0 0 507.2917,1160.9701 " fill="url(#g1gtd2bic5xbfs2)" filter="url(#f1gtd2bic5xbfs)" style="stroke:#9C27B0;stroke-width:1.0416666666666667;"/><path d="M817.7083,1156.8034 L817.7083,1165.1367 A2.0833,2.0833 0 0 0 819.7917,1167.2201 L828.125,1167.2201 L817.7083,1156.8034 " fill="url(#g1gtd2bic5xbfs2)" style="stroke:#9C27B0;stroke-width:1.0416666666666667;"/><text fill="#FFFFFF" font-family="Verdana" font-size="12.5" lengthAdjust="spacing" textLength="278.125" x="523.9583" y="1184.0312">RTP record resolved (SRTP or ADX fallback)</text><path d="M35.4167,1218.2292 L118.75,1218.2292 L118.75,1245.2799 L108.3333,1255.6966 L31.25,1255.6966 L31.25,1222.3958 A4.1667,4.1667 0 0 1 35.4167,1218.2292 " fill="#FFFFFF" style="stroke:#666666;stroke-width:1.0416666666666667;"/><rect fill="none" height="1449.9349" rx="4.1667" ry="4.1667" style="stroke:#2196F3;stroke-width:1.0416666666666667;" width="1376.5625" x="31.25" y="1218.2292"/><text fill="#9C27B0" font-family="Verdana" font-size="12.5" font-weight="bold" lengthAdjust="spacing" textLength="19.7917" x="57.2917" y="1241.2903">alt</text><text fill="#222222" font-family="Verdana" font-size="12.5" font-weight="bold" lengthAdjust="spacing" textLength="5.2083" x="144.7917" y="1242.3319">[</text><text fill="#222222" font-family="Verdana" font-size="12.5" font-weight="bold" lengthAdjust="spacing" textLength="192.7083" x="150" y="1242.3319">[FOUND] RTP record exists</text><text fill="#222222" font-family="Verdana" font-size="12.5" font-weight="bold" lengthAdjust="spacing" textLength="5.2083" x="342.7083" y="1242.3319">]</text><line style="stroke:#2196F3;stroke-width:3.125;" x1="502.0833" x2="545.8333" y1="1317.0898" y2="1317.0898"/><line style="stroke:#2196F3;stroke-width:3.125;" x1="545.8333" x2="545.8333" y1="1317.0898" y2="1330.6315"/><line style="stroke:#2196F3;stroke-width:3.125;" x1="503.125" x2="545.8333" y1="1330.6315" y2="1330.6315"/><polygon fill="#2196F3" points="513.5417,1326.4648,503.125,1330.6315,513.5417,1334.7982,509.375,1330.6315" style="stroke:#2196F3;stroke-width:1.0416666666666667;"/><text fill="#222222" font-family="Verdana" font-size="12.5" font-weight="bold" lengthAdjust="spacing" textLength="16.6667" x="519.7917" y="1301.6418">14</text><text fill="#222222" font-family="Verdana" font-size="12.5" lengthAdjust="spacing" textLength="125" x="561.4583" y="1301.6418">validate RTP status</text><path d="M507.2917,1348.3398 L507.2917,1413.9648 A4.1667,4.1667 0 0 0 511.4583,1418.1315 L728.125,1418.1315 A4.1667,4.1667 0 0 0 732.2917,1413.9648 L732.2917,1354.5898 L721.875,1344.1732 L511.4583,1344.1732 A4.1667,4.1667 0 0 0 507.2917,1348.3398 " fill="url(#g1gtd2bic5xbfs2)" filter="url(#f1gtd2bic5xbfs)" style="stroke:#9C27B0;stroke-width:1.0416666666666667;"/><path d="M721.875,1344.1732 L721.875,1352.5065 A2.0833,2.0833 0 0 0 723.9583,1354.5898 L732.2917,1354.5898 L721.875,1344.1732 " fill="url(#g1gtd2bic5xbfs2)" style="stroke:#9C27B0;stroke-width:1.0416666666666667;"/><text fill="#FFFFFF" font-family="Verdana" font-size="12.5" lengthAdjust="spacing" textLength="127.0833" x="523.9583" y="1371.401">Accepted statuses:</text><text fill="#FFFFFF" font-family="Verdana" font-size="12.5" lengthAdjust="spacing" textLength="104.1667" x="523.9583" y="1385.9517">CREATED, SENT,</text><text fill="#FFFFFF" font-family="Verdana" font-size="12.5" lengthAdjust="spacing" textLength="182.2917" x="523.9583" y="1400.5025">ACCEPTED, USER_ACCEPTED</text><path d="M45.8333,1434.7005 L129.1667,1434.7005 L129.1667,1461.7513 L118.75,1472.168 L41.6667,1472.168 L41.6667,1438.8672 A4.1667,4.1667 0 0 1 45.8333,1434.7005 " fill="#FFFFFF" style="stroke:#666666;stroke-width:1.0416666666666667;"/><rect fill="none" height="1138.737" rx="4.1667" ry="4.1667" style="stroke:#2196F3;stroke-width:1.0416666666666667;" width="1355.7292" x="41.6667" y="1434.7005"/><text fill="#9C27B0" font-family="Verdana" font-size="12.5" font-weight="bold" lengthAdjust="spacing" textLength="19.7917" x="67.7083" y="1457.7616">alt</text><text fill="#222222" font-family="Verdana" font-size="12.5" font-weight="bold" lengthAdjust="spacing" textLength="5.2083" x="155.2083" y="1458.8033">[</text><text fill="#222222" font-family="Verdana" font-size="12.5" font-weight="bold" lengthAdjust="spacing" textLength="251.0417" x="160.4167" y="1458.8033">[VALID] Status allows cancellation</text><text fill="#222222" font-family="Verdana" font-size="12.5" font-weight="bold" lengthAdjust="spacing" textLength="5.2083" x="411.4583" y="1458.8033">]</text><polygon fill="#2196F3" points="1284.8958,1543.9453,1295.3125,1548.112,1284.8958,1552.2786,1289.0625,1548.112" style="stroke:#2196F3;stroke-width:1.0416666666666667;"/><line style="stroke:#2196F3;stroke-width:3.125;" x1="502.0833" x2="1291.1458" y1="1548.112" y2="1548.112"/><text fill="#222222" font-family="Verdana" font-size="12.5" font-weight="bold" lengthAdjust="spacing" textLength="16.6667" x="519.7917" y="1525.3886">15</text><text fill="#222222" font-family="Verdana" font-size="12.5" lengthAdjust="spacing" textLength="236.4583" x="561.4583" y="1518.1132">POST /sepa-request-to-pay-requests</text><text fill="#222222" font-family="Verdana" font-size="12.5" lengthAdjust="spacing" textLength="236.4583" x="561.4583" y="1532.664">/{resourceId}/cancellation-requests</text><path d="M1161.4583,1565.8203 L1161.4583,1602.2786 A4.1667,4.1667 0 0 0 1165.625,1606.4453 L1284.375,1606.4453 A4.1667,4.1667 0 0 0 1288.5417,1602.2786 L1288.5417,1572.0703 L1278.125,1561.6536 L1165.625,1561.6536 A4.1667,4.1667 0 0 0 1161.4583,1565.8203 " fill="url(#g1gtd2bic5xbfs2)" filter="url(#f1gtd2bic5xbfs)" style="stroke:#9C27B0;stroke-width:1.0416666666666667;"/><path d="M1278.125,1561.6536 L1278.125,1569.987 A2.0833,2.0833 0 0 0 1280.2083,1572.0703 L1288.5417,1572.0703 L1278.125,1561.6536 " fill="url(#g1gtd2bic5xbfs2)" style="stroke:#9C27B0;stroke-width:1.0416666666666667;"/><text fill="#FFFFFF" font-family="Verdana" font-size="12.5" lengthAdjust="spacing" textLength="84.375" x="1178.125" y="1588.8814">Retry if failed</text><path d="M56.25,1623.0794 L139.5833,1623.0794 L139.5833,1650.1302 L129.1667,1660.5469 L52.0833,1660.5469 L52.0833,1627.2461 A4.1667,4.1667 0 0 1 56.25,1623.0794 " fill="#FFFFFF" style="stroke:#666666;stroke-width:1.0416666666666667;"/><rect fill="none" height="831.7057" rx="4.1667" ry="4.1667" style="stroke:#2196F3;stroke-width:1.0416666666666667;" width="1334.8958" x="52.0833" y="1623.0794"/><text fill="#9C27B0" font-family="Verdana" font-size="12.5" font-weight="bold" lengthAdjust="spacing" textLength="19.7917" x="78.125" y="1646.1405">alt</text><text fill="#222222" font-family="Verdana" font-size="12.5" font-weight="bold" lengthAdjust="spacing" textLength="5.2083" x="165.625" y="1647.1822">[</text><text fill="#222222" font-family="Verdana" font-size="12.5" font-weight="bold" lengthAdjust="spacing" textLength="119.7917" x="170.8333" y="1647.1822">Async flow (EPC)</text><text fill="#222222" font-family="Verdana" font-size="12.5" font-weight="bold" lengthAdjust="spacing" textLength="5.2083" x="290.625" y="1647.1822">]</text><polygon fill="#2196F3" points="513.5417,1717.7734,503.125,1721.9401,513.5417,1726.1068,509.375,1721.9401" style="stroke:#2196F3;stroke-width:1.0416666666666667;"/><line style="stroke:#2196F3;stroke-width:3.125;stroke-dasharray:2.0,2.0;" x1="507.2917" x2="1296.3542" y1="1721.9401" y2="1721.9401"/><text fill="#222222" font-family="Verdana" font-size="12.5" font-weight="bold" lengthAdjust="spacing" textLength="16.6667" x="530.2083" y="1706.4921">16</text><text fill="#222222" font-family="Verdana" font-size="12.5" lengthAdjust="spacing" textLength="135.4167" x="571.875" y="1706.4921">200 OK (empty body)</text><polygon fill="#2196F3" points="985.4167,1767.7409,995.8333,1771.9076,985.4167,1776.0742,989.5833,1771.9076" style="stroke:#2196F3;stroke-width:1.0416666666666667;"/><line style="stroke:#2196F3;stroke-width:3.125;" x1="502.0833" x2="991.6667" y1="1771.9076" y2="1771.9076"/><text fill="#222222" font-family="Verdana" font-size="12.5" font-weight="bold" lengthAdjust="spacing" textLength="16.6667" x="519.7917" y="1756.4596">17</text><text fill="#222222" font-family="Verdana" font-size="12.5" lengthAdjust="spacing" textLength="175" x="561.4583" y="1756.4596">update status &#8594; RFC_SENT</text><polygon fill="#2196F3" points="513.5417,1817.7083,503.125,1821.875,513.5417,1826.0417,509.375,1821.875" style="stroke:#2196F3;stroke-width:1.0416666666666667;"/><line style="stroke:#2196F3;stroke-width:3.125;stroke-dasharray:2.0,2.0;" x1="507.2917" x2="1002.0833" y1="1821.875" y2="1821.875"/><text fill="#222222" font-family="Verdana" font-size="12.5" font-weight="bold" lengthAdjust="spacing" textLength="16.6667" x="530.2083" y="1806.427">18</text><text fill="#222222" font-family="Verdana" font-size="12.5" lengthAdjust="spacing" textLength="47.9167" x="571.875" y="1806.427">confirm</text><polygon fill="#2196F3" points="182.2917,1867.6758,171.875,1871.8424,182.2917,1876.0091,178.125,1871.8424" style="stroke:#2196F3;stroke-width:1.0416666666666667;"/><line style="stroke:#2196F3;stroke-width:3.125;stroke-dasharray:2.0,2.0;" x1="176.0417" x2="490.625" y1="1871.8424" y2="1871.8424"/><text fill="#222222" font-family="Verdana" font-size="12.5" font-weight="bold" lengthAdjust="spacing" textLength="16.6667" x="198.9583" y="1856.3944">19</text><text fill="#222222" font-family="Verdana" font-size="12.5" font-weight="bold" lengthAdjust="spacing" textLength="112.5" x="240.625" y="1856.3944">204 No Content</text><line style="stroke:#2196F3;stroke-width:1.0416666666666667;stroke-dasharray:2.0,2.0;" x1="52.0833" x2="1386.9792" y1="1881.2174" y2="1881.2174"/><text fill="#222222" font-family="Verdana" font-size="12.5" font-weight="bold" lengthAdjust="spacing" textLength="5.2083" x="67.7083" y="1903.2369">[</text><text fill="#222222" font-family="Verdana" font-size="12.5" font-weight="bold" lengthAdjust="spacing" textLength="111.4583" x="72.9167" y="1903.2369">Sync flow (EPC)</text><text fill="#222222" font-family="Verdana" font-size="12.5" font-weight="bold" lengthAdjust="spacing" textLength="5.2083" x="184.375" y="1903.2369">]</text><polygon fill="#2196F3" points="513.5417,1955.1107,503.125,1959.2773,513.5417,1963.444,509.375,1959.2773" style="stroke:#2196F3;stroke-width:1.0416666666666667;"/><line style="stroke:#2196F3;stroke-width:3.125;stroke-dasharray:2.0,2.0;" x1="507.2917" x2="1296.3542" y1="1959.2773" y2="1959.2773"/><text fill="#222222" font-family="Verdana" font-size="12.5" font-weight="bold" lengthAdjust="spacing" textLength="16.6667" x="530.2083" y="1943.8293">20</text><text fill="#222222" font-family="Verdana" font-size="12.5" lengthAdjust="spacing" textLength="111.4583" x="571.875" y="1943.8293">200 OK (payload)</text><polygon fill="#2196F3" points="985.4167,2005.0781,995.8333,2009.2448,985.4167,2013.4115,989.5833,2009.2448" style="stroke:#2196F3;stroke-width:1.0416666666666667;"/><line style="stroke:#2196F3;stroke-width:3.125;" x1="502.0833" x2="991.6667" y1="2009.2448" y2="2009.2448"/><text fill="#222222" font-family="Verdana" font-size="12.5" font-weight="bold" lengthAdjust="spacing" textLength="16.6667" x="519.7917" y="1993.7968">21</text><text fill="#222222" font-family="Verdana" font-size="12.5" lengthAdjust="spacing" textLength="184.375" x="561.4583" y="1993.7968">update status &#8594; CANCELLED</text><polygon fill="#2196F3" points="513.5417,2055.0456,503.125,2059.2122,513.5417,2063.3789,509.375,2059.2122" style="stroke:#2196F3;stroke-width:1.0416666666666667;"/><line style="stroke:#2196F3;stroke-width:3.125;stroke-dasharray:2.0,2.0;" x1="507.2917" x2="1002.0833" y1="2059.2122" y2="2059.2122"/><text fill="#222222" font-family="Verdana" font-size="12.5" font-weight="bold" lengthAdjust="spacing" textLength="16.6667" x="530.2083" y="2043.7642">22</text><text fill="#222222" font-family="Verdana" font-size="12.5" lengthAdjust="spacing" textLength="47.9167" x="571.875" y="2043.7642">confirm</text><polygon fill="#2196F3" points="182.2917,2105.013,171.875,2109.1797,182.2917,2113.3464,178.125,2109.1797" style="stroke:#2196F3;stroke-width:1.0416666666666667;"/><line style="stroke:#2196F3;stroke-width:3.125;stroke-dasharray:2.0,2.0;" x1="176.0417" x2="490.625" y1="2109.1797" y2="2109.1797"/><text fill="#222222" font-family="Verdana" font-size="12.5" font-weight="bold" lengthAdjust="spacing" textLength="16.6667" x="198.9583" y="2093.7317">23</text><text fill="#222222" font-family="Verdana" font-size="12.5" font-weight="bold" lengthAdjust="spacing" textLength="50" x="240.625" y="2093.7317">200 OK</text><line style="stroke:#2196F3;stroke-width:1.0416666666666667;stroke-dasharray:2.0,2.0;" x1="52.0833" x2="1386.9792" y1="2118.5547" y2="2118.5547"/><text fill="#222222" font-family="Verdana" font-size="12.5" font-weight="bold" lengthAdjust="spacing" textLength="5.2083" x="67.7083" y="2140.5741">[</text><text fill="#222222" font-family="Verdana" font-size="12.5" font-weight="bold" lengthAdjust="spacing" textLength="110.4167" x="72.9167" y="2140.5741">Error response</text><text fill="#222222" font-family="Verdana" font-size="12.5" font-weight="bold" lengthAdjust="spacing" textLength="5.2083" x="183.3333" y="2140.5741">]</text><polygon fill="#2196F3" points="513.5417,2192.4479,503.125,2196.6146,513.5417,2200.7813,509.375,2196.6146" style="stroke:#2196F3;stroke-width:1.0416666666666667;"/><line style="stroke:#2196F3;stroke-width:3.125;stroke-dasharray:2.0,2.0;" x1="507.2917" x2="1296.3542" y1="2196.6146" y2="2196.6146"/><text fill="#222222" font-family="Verdana" font-size="12.5" font-weight="bold" lengthAdjust="spacing" textLength="16.6667" x="530.2083" y="2181.1666">24</text><text fill="#222222" font-family="Verdana" font-size="12.5" lengthAdjust="spacing" textLength="32.2917" x="571.875" y="2181.1666">Error</text><polygon fill="#2196F3" points="1122.9167,2242.4154,1133.3333,2246.582,1122.9167,2250.7487,1127.0833,2246.582" style="stroke:#2196F3;stroke-width:1.0416666666666667;"/><line style="stroke:#2196F3;stroke-width:3.125;" x1="502.0833" x2="1129.1667" y1="2246.582" y2="2246.582"/><text fill="#222222" font-family="Verdana" font-size="12.5" font-weight="bold" lengthAdjust="spacing" textLength="16.6667" x="519.7917" y="2231.134">25</text><text fill="#222222" font-family="Verdana" font-size="12.5" lengthAdjust="spacing" textLength="217.7083" x="561.4583" y="2231.134">save RTP record (ERROR_CANCEL)</text><polygon fill="#2196F3" points="513.5417,2292.3828,503.125,2296.5495,513.5417,2300.7161,509.375,2296.5495" style="stroke:#2196F3;stroke-width:1.0416666666666667;"/><line style="stroke:#2196F3;stroke-width:3.125;stroke-dasharray:2.0,2.0;" x1="507.2917" x2="1139.5833" y1="2296.5495" y2="2296.5495"/><text fill="#222222" font-family="Verdana" font-size="12.5" font-weight="bold" lengthAdjust="spacing" textLength="16.6667" x="530.2083" y="2281.1015">26</text><text fill="#222222" font-family="Verdana" font-size="12.5" lengthAdjust="spacing" textLength="47.9167" x="571.875" y="2281.1015">confirm</text><polygon fill="#2196F3" points="985.4167,2342.3503,995.8333,2346.5169,985.4167,2350.6836,989.5833,2346.5169" style="stroke:#2196F3;stroke-width:1.0416666666666667;"/><line style="stroke:#2196F3;stroke-width:3.125;" x1="502.0833" x2="991.6667" y1="2346.5169" y2="2346.5169"/><text fill="#222222" font-family="Verdana" font-size="12.5" font-weight="bold" lengthAdjust="spacing" textLength="16.6667" x="519.7917" y="2331.0689">27</text><text fill="#222222" font-family="Verdana" font-size="12.5" lengthAdjust="spacing" textLength="116.6667" x="561.4583" y="2331.0689">delete RTP record</text><polygon fill="#2196F3" points="513.5417,2392.3177,503.125,2396.4844,513.5417,2400.651,509.375,2396.4844" style="stroke:#2196F3;stroke-width:1.0416666666666667;"/><line style="stroke:#2196F3;stroke-width:3.125;stroke-dasharray:2.0,2.0;" x1="507.2917" x2="1002.0833" y1="2396.4844" y2="2396.4844"/><text fill="#222222" font-family="Verdana" font-size="12.5" font-weight="bold" lengthAdjust="spacing" textLength="16.6667" x="530.2083" y="2381.0364">28</text><text fill="#222222" font-family="Verdana" font-size="12.5" lengthAdjust="spacing" textLength="47.9167" x="571.875" y="2381.0364">confirm</text><polygon fill="#2196F3" points="182.2917,2442.2852,171.875,2446.4518,182.2917,2450.6185,178.125,2446.4518" style="stroke:#2196F3;stroke-width:1.0416666666666667;"/><line style="stroke:#2196F3;stroke-width:3.125;stroke-dasharray:2.0,2.0;" x1="176.0417" x2="490.625" y1="2446.4518" y2="2446.4518"/><text fill="#222222" font-family="Verdana" font-size="12.5" font-weight="bold" lengthAdjust="spacing" textLength="16.6667" x="198.9583" y="2431.0038">29</text><text fill="#222222" font-family="Verdana" font-size="12.5" font-weight="bold" lengthAdjust="spacing" textLength="22.9167" x="240.625" y="2431.0038">4xx</text><text fill="#222222" font-family="Verdana" font-size="12.5" lengthAdjust="spacing" textLength="103.125" x="267.7083" y="2431.0038">/ business error</text><line style="stroke:#2196F3;stroke-width:1.0416666666666667;stroke-dasharray:2.0,2.0;" x1="41.6667" x2="1397.3958" y1="2463.1185" y2="2463.1185"/><text fill="#222222" font-family="Verdana" font-size="12.5" font-weight="bold" lengthAdjust="spacing" textLength="5.2083" x="57.2917" y="2485.1379">[</text><text fill="#222222" font-family="Verdana" font-size="12.5" font-weight="bold" lengthAdjust="spacing" textLength="327.0833" x="62.5" y="2485.1379">[INVALID] Status does not allow cancellation</text><text fill="#222222" font-family="Verdana" font-size="12.5" font-weight="bold" lengthAdjust="spacing" textLength="5.2083" x="389.5833" y="2485.1379">]</text><polygon fill="#2196F3" points="182.2917,2548.9746,171.875,2553.1413,182.2917,2557.3079,178.125,2553.1413" style="stroke:#2196F3;stroke-width:1.0416666666666667;"/><line style="stroke:#2196F3;stroke-width:3.125;stroke-dasharray:2.0,2.0;" x1="176.0417" x2="490.625" y1="2553.1413" y2="2553.1413"/><text fill="#222222" font-family="Verdana" font-size="12.5" font-weight="bold" lengthAdjust="spacing" textLength="16.6667" x="198.9583" y="2537.6933">30</text><text fill="#222222" font-family="Verdana" font-size="12.5" font-weight="bold" lengthAdjust="spacing" textLength="186.4583" x="240.625" y="2537.6933">422 Unprocessable Entity</text><path d="M507.2917,2508.9193 L507.2917,2559.9609 A4.1667,4.1667 0 0 0 511.4583,2564.1276 L707.2917,2564.1276 A4.1667,4.1667 0 0 0 711.4583,2559.9609 L711.4583,2515.1693 L701.0417,2504.7526 L511.4583,2504.7526 A4.1667,4.1667 0 0 0 507.2917,2508.9193 " fill="url(#g1gtd2bic5xbfs2)" filter="url(#f1gtd2bic5xbfs)" style="stroke:#9C27B0;stroke-width:1.0416666666666667;"/><path d="M701.0417,2504.7526 L701.0417,2513.0859 A2.0833,2.0833 0 0 0 703.125,2515.1693 L711.4583,2515.1693 L701.0417,2504.7526 " fill="url(#g1gtd2bic5xbfs2)" style="stroke:#9C27B0;stroke-width:1.0416666666666667;"/><text fill="#FFFFFF" font-family="Verdana" font-size="12.5" lengthAdjust="spacing" textLength="161.4583" x="523.9583" y="2531.9804">RTP already in final state</text><text fill="#FFFFFF" font-family="Verdana" font-size="12.5" lengthAdjust="spacing" textLength="142.7083" x="523.9583" y="2546.5312">(e.g., PAID, REJECTED)</text><line style="stroke:#2196F3;stroke-width:1.0416666666666667;stroke-dasharray:2.0,2.0;" x1="31.25" x2="1407.8125" y1="2581.7708" y2="2581.7708"/><text fill="#222222" font-family="Verdana" font-size="12.5" font-weight="bold" lengthAdjust="spacing" textLength="5.2083" x="46.875" y="2603.7903">[</text><text fill="#222222" font-family="Verdana" font-size="12.5" font-weight="bold" lengthAdjust="spacing" textLength="267.7083" x="52.0833" y="2603.7903">[NOT FOUND] RTP not in SRTP or ADX</text><text fill="#222222" font-family="Verdana" font-size="12.5" font-weight="bold" lengthAdjust="spacing" textLength="5.2083" x="319.7917" y="2603.7903">]</text><polygon fill="#2196F3" points="182.2917,2655.6641,171.875,2659.8307,182.2917,2663.9974,178.125,2659.8307" style="stroke:#2196F3;stroke-width:1.0416666666666667;"/><line style="stroke:#2196F3;stroke-width:3.125;stroke-dasharray:2.0,2.0;" x1="176.0417" x2="490.625" y1="2659.8307" y2="2659.8307"/><text fill="#222222" font-family="Verdana" font-size="12.5" font-weight="bold" lengthAdjust="spacing" textLength="16.6667" x="198.9583" y="2644.3827">31</text><text fill="#222222" font-family="Verdana" font-size="12.5" font-weight="bold" lengthAdjust="spacing" textLength="105.2083" x="240.625" y="2644.3827">404 Not Found</text><!--SRC=[pLVDRjj64BxpAQO-D99WsQhXImcaW4BIg1fP8aWfBM07neeSoOGfBhjSEbQBNFC0VSG-IMUNfCGVAr1pYWwMo9rlTkQRNxy1DsQ9NDvEmOxOHh0jhBa0R-62nP80uvZ9Y2SmTYV66rX4CaOJbacqZZ3iIlduPuxqNEaYo0SK6HsPyDF5w69a63_8HzmYR9b44J73a4gbrcHZZ1BX9kQV32DbGaP1b99jS7Rh3wtvp5_UEjuPi0ogXuwKxypiKgRuQOHCiXNB4Cuy3AFiFkbDGjocN9APEtYFE_0b5zZN6C-n9tuTid1zGjpoPCFjTuMCJozh8kE_Sa7kqZCuBsbCgWGXb50XFhR_Q5ff-wu-e6_3OBdaIRvTeJ2CoYaO_b8QRy9WO3jJP-4C1feXeUZDv7toAxAGU3MXvioGd3a7hn2PXFU9otOnPw6feK4zJCfyWmKoUgOeL4mPnRUwNlDWGl28mLFxYWEkOCjWiIGxx-obEvrOuuNpiOq05WkoTmUfm0mJEHWOG1yDXs7DsoUINVCy2VLvYAsRrCk3ZHM8WXem4KAOft4Ka7G8Mymoja4DICWE4D7cKG9VLww2_jWTX5cU70pc0PsG09L4b5JFKRBHWfY4Md_3CZAjYgIAt_NePx1uigQRbEC6nfGrHDVC-RrB52axYIGbTo2g4xUCFMCdRCUrAV4Zb1_X_9d5KQYaIjxWH-0fYYAvthw58caxQCf34zPH4deoVRURLmWxob8cATb4PUSXDLMnQIqgX-k64qiv9LwlA8k02nqZSbdk-crVj9P2iSvLXTbJgEAg14h2coPJzPvcSSDgLVFLI_hz_-nksLxfmZBOh-Mp2JLjT06FAQ2Wcv1IhanOipXUiU2fN-VXxcQ-dDaVwsXyYJAPgKJjaj69li9baiaysqj_fTmq6q60gIgu0eQPMJkqF8VQXtskO8lpEigo75UVB7t7UwWUznBxEZo4el3lmtWw8VzyVHczfCcIDJfXBUXDNwaxc-3E_GLSPfYoOTbvXv8FKxQh7ccSNFwj2Cz5W9FmysLTzrweSSK-iAh_rmyqSp6kDN7wUW-bs46qfk15CLLeKu_sS9pjaW3Mv1Vq7DVgj_pHNSvl5ixLQ0Jpzz3JAGSh7jRoxfMOwvhDKntl8cZmxvT_mBkn7bIOEj1kwJOKjyiueDOOYMr7i5sznoniTTkhqJNCk6guikYX3M3PU_rlvYmj9kgt46QDPvOpdTQozdjXJBbsX2b72EeVbE0fJp8yWIWD-0exkf_gyLJhEJt7y-RUGy5G_pW_zRPwhBsUmCvhQjhn2ujLz63aTnQrwvSNMWalOPNJCa8p6B13l1eOnf6hzExPYlNTPDPibo77J8z9tJTFQPjj8w-kw3-5ScTYAzhodOIs_LqBVHWPnHohbY-QopHvMQoh26cfnelDnJcuumaD0i_vpR5e1lIDZh_x3Mk-WDg0KvwKexuSYgzC_Cxofjg9X1krA9JY-XxzfnwxOj3z1m00]--></g></svg>