<?xml version="1.0" encoding="us-ascii" standalone="no"?><svg xmlns="http://www.w3.org/2000/svg" xmlns:xlink="http://www.w3.org/1999/xlink" contentStyleType="text/css" height="1768.75px" preserveAspectRatio="none" style="width:1625px;height:1768px;" version="1.1" viewBox="0 0 1625 1768" width="1625px" zoomAndPan="magnify"><defs><linearGradient id="g100lkpuucy9z00" x1="50%" x2="50%" y1="0%" y2="100%"><stop offset="0%" stop-color="#FFFFFF"/><stop offset="100%" stop-color="#FFFFFF"/></linearGradient><filter height="300%" id="f100lkpuucy9z0" width="300%" x="-1" y="-1"><feGaussianBlur result="blurOut" stdDeviation="2.0833333333333335"/><feColorMatrix in="blurOut" result="blurOut2" type="matrix" values="0 0 0 0 0 0 0 0 0 0 0 0 0 0 0 0 0 0 .4 0"/><feOffset dx="4.166666666666667" dy="4.166666666666667" in="blurOut2" result="blurOut3"/><feBlend in="SourceGraphic" in2="blurOut3" mode="normal"/></filter><linearGradient id="g100lkpuucy9z01" x1="50%" x2="50%" y1="0%" y2="100%"><stop offset="0%" stop-color="#4DABF5"/><stop offset="100%" stop-color="#2196F3"/></linearGradient><linearGradient id="g100lkpuucy9z02" x1="50%" x2="50%" y1="0%" y2="100%"><stop offset="0%" stop-color="#B052C0"/><stop offset="100%" stop-color="#9C27B0"/></linearGradient></defs><g><rect fill="url(#g100lkpuucy9z00)" height="57.5846" id="_title" rx="4.1667" ry="4.1667" style="stroke:#CCCCCC;stroke-width:1.0416666666666667;" width="714.5833" x="457.8125" y="20.8333"/><text fill="#2196F3" font-family="Verdana" font-size="20.8333" font-weight="bold" lengthAdjust="spacing" textLength="681.25" x="474.4792" y="56.838">RTP Deactivation API: DELETE /activations/{activationId}</text><rect fill="#FFFFFF" filter="url(#f100lkpuucy9z0)" height="1391.7643" style="stroke:#CCCCCC;stroke-width:1.0416666666666667;" width="10.4167" x="908.8542" y="258.5286"/><rect fill="#98FB98" filter="url(#f100lkpuucy9z0)" height="1294.9544" rx="4.1667" ry="4.1667" style="stroke:#2196F3;stroke-width:1.0416666666666667;" width="1329.1667" x="19.7917" y="348.0469"/><path d="M19.7917,779.0039 L1348.9583,779.0039 L1348.9583,1107.9753 A4.1667,4.1667 0 0 1 1344.7917,1112.1419 L23.9583,1112.1419 A4.1667,4.1667 0 0 1 19.7917,1107.9753 L19.7917,779.0039 " fill="#FFFFE0" style="stroke:none;stroke-width:1.0416666666666667;"/><path d="M19.7917,1112.1419 L1348.9583,1112.1419 L1348.9583,1428.5482 A4.1667,4.1667 0 0 1 1344.7917,1432.7148 L23.9583,1432.7148 A4.1667,4.1667 0 0 1 19.7917,1428.5482 L19.7917,1112.1419 " fill="#F08080" style="stroke:none;stroke-width:1.0416666666666667;"/><rect fill="url(#g100lkpuucy9z00)" filter="url(#f100lkpuucy9z0)" height="166.5039" rx="4.1667" ry="4.1667" style="stroke:#2196F3;stroke-width:1.0416666666666667;" width="776.5625" x="266.6667" y="1156.901"/><rect fill="url(#g100lkpuucy9z00)" filter="url(#f100lkpuucy9z0)" height="87.4349" rx="4.1667" ry="4.1667" style="stroke:#2196F3;stroke-width:1.0416666666666667;" width="776.5625" x="266.6667" y="1337.9883"/><path d="M19.7917,1432.7148 L1348.9583,1432.7148 L1348.9583,1638.8346 A4.1667,4.1667 0 0 1 1344.7917,1643.0013 L23.9583,1643.0013 A4.1667,4.1667 0 0 1 19.7917,1638.8346 L19.7917,1432.7148 " fill="#8B0000" style="stroke:none;stroke-width:1.0416666666666667;"/><line style="stroke:#CCCCCC;stroke-width:1.0416666666666667;stroke-dasharray:5.0,5.0;" x1="367.7083" x2="367.7083" y1="191.9271" y2="1660.7096"/><line style="stroke:#CCCCCC;stroke-width:1.0416666666666667;stroke-dasharray:5.0,5.0;" x1="914.0625" x2="914.0625" y1="191.9271" y2="1660.7096"/><text fill="#222222" font-family="Verdana" font-size="12.5" lengthAdjust="spacing" textLength="155.2083" x="287.5" y="178.5624">Payer's Service Provider</text><ellipse cx="368.2292" cy="99.2513" fill="url(#g100lkpuucy9z01)" filter="url(#f100lkpuucy9z0)" rx="8.3333" ry="8.3333" style="stroke:#2196F3;stroke-width:1.0416666666666667;"/><path d="M368.2292,107.5846 L368.2292,135.7096 M354.6875,115.918 L381.7708,115.918 M368.2292,135.7096 L354.6875,151.3346 M368.2292,135.7096 L381.7708,151.3346 " fill="none" filter="url(#f100lkpuucy9z0)" style="stroke:#2196F3;stroke-width:1.0416666666666667;"/><text fill="#222222" font-family="Verdana" font-size="12.5" lengthAdjust="spacing" textLength="155.2083" x="287.5" y="1681.6874">Payer's Service Provider</text><ellipse cx="368.2292" cy="1704.4271" fill="url(#g100lkpuucy9z01)" filter="url(#f100lkpuucy9z0)" rx="8.3333" ry="8.3333" style="stroke:#2196F3;stroke-width:1.0416666666666667;"/><path d="M368.2292,1712.7604 L368.2292,1740.8854 M354.6875,1721.0938 L381.7708,1721.0938 M368.2292,1740.8854 L354.6875,1756.5104 M368.2292,1740.8854 L381.7708,1756.5104 " fill="none" filter="url(#f100lkpuucy9z0)" style="stroke:#2196F3;stroke-width:1.0416666666666667;"/><rect fill="url(#g100lkpuucy9z01)" filter="url(#f100lkpuucy9z0)" height="49.9674" rx="4.1667" ry="4.1667" style="stroke:#2196F3;stroke-width:1.0416666666666667;" width="151.0417" x="836.9792" y="137.793"/><text fill="#FFFFFF" font-family="Verdana" font-size="12.5" lengthAdjust="spacing" textLength="115.625" x="854.6875" y="167.1041">RTP Activation API</text><rect fill="url(#g100lkpuucy9z01)" filter="url(#f100lkpuucy9z0)" height="49.9674" rx="4.1667" ry="4.1667" style="stroke:#2196F3;stroke-width:1.0416666666666667;" width="151.0417" x="836.9792" y="1659.668"/><text fill="#FFFFFF" font-family="Verdana" font-size="12.5" lengthAdjust="spacing" textLength="115.625" x="854.6875" y="1688.9791">RTP Activation API</text><rect fill="#FFFFFF" filter="url(#f100lkpuucy9z0)" height="1391.7643" style="stroke:#CCCCCC;stroke-width:1.0416666666666667;" width="10.4167" x="908.8542" y="258.5286"/><polygon fill="#2196F3" points="896.3542,254.362,906.7708,258.5286,896.3542,262.6953,900.5208,258.5286" style="stroke:#2196F3;stroke-width:1.0416666666666667;"/><line style="stroke:#2196F3;stroke-width:3.125;" x1="368.2292" x2="902.6042" y1="258.5286" y2="258.5286"/><text fill="#222222" font-family="Verdana" font-size="12.5" font-weight="bold" lengthAdjust="spacing" textLength="8.3333" x="385.9375" y="235.8053">1</text><text fill="#222222" font-family="Verdana" font-size="12.5" lengthAdjust="spacing" textLength="222.9167" x="419.2708" y="228.5299">DELETE /activations/{activationId}</text><text fill="#222222" font-family="Verdana" font-size="12.5" lengthAdjust="spacing" textLength="183.3333" x="419.2708" y="243.0806">(Deactivate RTP for a Payer)</text><path d="M923.9583,276.237 L923.9583,327.2786 A4.1667,4.1667 0 0 0 928.125,331.4453 L1608.3333,331.4453 A4.1667,4.1667 0 0 0 1612.5,327.2786 L1612.5,282.487 L1602.0833,272.0703 L928.125,272.0703 A4.1667,4.1667 0 0 0 923.9583,276.237 " fill="url(#g100lkpuucy9z02)" filter="url(#f100lkpuucy9z0)" style="stroke:#9C27B0;stroke-width:1.0416666666666667;"/><path d="M1602.0833,272.0703 L1602.0833,280.4036 A2.0833,2.0833 0 0 0 1604.1667,282.487 L1612.5,282.487 L1602.0833,272.0703 " fill="url(#g100lkpuucy9z02)" style="stroke:#9C27B0;stroke-width:1.0416666666666667;"/><text fill="#FFFFFF" font-family="Verdana" font-size="12.5" font-weight="bold" lengthAdjust="spacing" textLength="80.2083" x="940.625" y="299.2981">Operation:</text><text fill="#FFFFFF" font-family="Verdana" font-size="12.5" lengthAdjust="spacing" textLength="81.25" x="1025" y="299.2981">`deactivate`</text><text fill="#FFFFFF" font-family="Verdana" font-size="12.5" font-weight="bold" lengthAdjust="spacing" textLength="89.5833" x="940.625" y="313.8489">Description:</text><text fill="#FFFFFF" font-family="Verdana" font-size="12.5" lengthAdjust="spacing" textLength="552.0833" x="1034.375" y="313.8489">A Payer's Service Provider calls this to remove the registration for one of their users.</text><path d="M23.9583,348.0469 L107.2917,348.0469 L107.2917,375.0977 L96.875,385.5143 L19.7917,385.5143 L19.7917,352.2135 A4.1667,4.1667 0 0 1 23.9583,348.0469 " fill="#FFFFFF" style="stroke:#666666;stroke-width:1.0416666666666667;"/><rect fill="none" height="1294.9544" rx="4.1667" ry="4.1667" style="stroke:#2196F3;stroke-width:1.0416666666666667;" width="1329.1667" x="19.7917" y="348.0469"/><text fill="#9C27B0" font-family="Verdana" font-size="12.5" font-weight="bold" lengthAdjust="spacing" textLength="19.7917" x="45.8333" y="371.108">alt</text><text fill="#222222" font-family="Verdana" font-size="12.5" font-weight="bold" lengthAdjust="spacing" textLength="110.4167" x="133.3333" y="372.1497">[Success Case]</text><line style="stroke:#2196F3;stroke-width:3.125;" x1="919.2708" x2="963.0208" y1="446.9076" y2="446.9076"/><line style="stroke:#2196F3;stroke-width:3.125;" x1="963.0208" x2="963.0208" y1="446.9076" y2="460.4492"/><line style="stroke:#2196F3;stroke-width:3.125;" x1="920.3125" x2="963.0208" y1="460.4492" y2="460.4492"/><polygon fill="#2196F3" points="930.7292,456.2826,920.3125,460.4492,930.7292,464.6159,926.5625,460.4492" style="stroke:#2196F3;stroke-width:1.0416666666666667;"/><text fill="#222222" font-family="Verdana" font-size="12.5" font-weight="bold" lengthAdjust="spacing" textLength="8.3333" x="936.9792" y="431.4596">2</text><text fill="#222222" font-family="Verdana" font-size="12.5" lengthAdjust="spacing" textLength="242.7083" x="970.3125" y="431.4596">1. Validate Request &amp; Security Token</text><line style="stroke:#2196F3;stroke-width:3.125;" x1="919.2708" x2="963.0208" y1="510.4167" y2="510.4167"/><line style="stroke:#2196F3;stroke-width:3.125;" x1="963.0208" x2="963.0208" y1="510.4167" y2="523.9583"/><line style="stroke:#2196F3;stroke-width:3.125;" x1="920.3125" x2="963.0208" y1="523.9583" y2="523.9583"/><polygon fill="#2196F3" points="930.7292,519.7917,920.3125,523.9583,930.7292,528.125,926.5625,523.9583" style="stroke:#2196F3;stroke-width:1.0416666666666667;"/><text fill="#222222" font-family="Verdana" font-size="12.5" font-weight="bold" lengthAdjust="spacing" textLength="8.3333" x="936.9792" y="494.9687">3</text><text fill="#222222" font-family="Verdana" font-size="12.5" lengthAdjust="spacing" textLength="200" x="970.3125" y="494.9687">2. Find the specified activation</text><path d="M923.9583,541.6667 L923.9583,578.125 A4.1667,4.1667 0 0 0 928.125,582.2917 L1071.875,582.2917 A4.1667,4.1667 0 0 0 1076.0417,578.125 L1076.0417,547.9167 L1065.625,537.5 L928.125,537.5 A4.1667,4.1667 0 0 0 923.9583,541.6667 " fill="url(#g100lkpuucy9z02)" filter="url(#f100lkpuucy9z0)" style="stroke:#9C27B0;stroke-width:1.0416666666666667;"/><path d="M1065.625,537.5 L1065.625,545.8333 A2.0833,2.0833 0 0 0 1067.7083,547.9167 L1076.0417,547.9167 L1065.625,537.5 " fill="url(#g100lkpuucy9z02)" style="stroke:#9C27B0;stroke-width:1.0416666666666667;"/><text fill="#FFFFFF" font-family="Verdana" font-size="12.5" lengthAdjust="spacing" textLength="109.375" x="940.625" y="564.7278">Activation found.</text><line style="stroke:#2196F3;stroke-width:3.125;" x1="919.2708" x2="963.0208" y1="633.2682" y2="633.2682"/><line style="stroke:#2196F3;stroke-width:3.125;" x1="963.0208" x2="963.0208" y1="633.2682" y2="646.8099"/><line style="stroke:#2196F3;stroke-width:3.125;" x1="920.3125" x2="963.0208" y1="646.8099" y2="646.8099"/><polygon fill="#2196F3" points="930.7292,642.6432,920.3125,646.8099,930.7292,650.9766,926.5625,646.8099" style="stroke:#2196F3;stroke-width:1.0416666666666667;"/><text fill="#222222" font-family="Verdana" font-size="12.5" font-weight="bold" lengthAdjust="spacing" textLength="8.3333" x="936.9792" y="617.8202">4</text><text fill="#222222" font-family="Verdana" font-size="12.5" lengthAdjust="spacing" textLength="300" x="970.3125" y="617.8202">3. Delete activation record from the database</text><polygon fill="#2196F3" points="379.6875,692.6107,369.2708,696.7773,379.6875,700.944,375.5208,696.7773" style="stroke:#2196F3;stroke-width:1.0416666666666667;"/><line style="stroke:#2196F3;stroke-width:3.125;stroke-dasharray:2.0,2.0;" x1="373.4375" x2="907.8125" y1="696.7773" y2="696.7773"/><text fill="#222222" font-family="Verdana" font-size="12.5" font-weight="bold" lengthAdjust="spacing" textLength="8.3333" x="396.3542" y="681.3293">5</text><text fill="#222222" font-family="Verdana" font-size="12.5" font-weight="bold" lengthAdjust="spacing" textLength="112.5" x="429.6875" y="681.3293">204 No Content</text><path d="M66.6667,714.4857 L66.6667,765.5273 A4.1667,4.1667 0 0 0 70.8333,769.694 L355.2083,769.694 A4.1667,4.1667 0 0 0 359.375,765.5273 L359.375,720.7357 L348.9583,710.319 L70.8333,710.319 A4.1667,4.1667 0 0 0 66.6667,714.4857 " fill="url(#g100lkpuucy9z02)" filter="url(#f100lkpuucy9z0)" style="stroke:#9C27B0;stroke-width:1.0416666666666667;"/><path d="M348.9583,710.319 L348.9583,718.6523 A2.0833,2.0833 0 0 0 351.0417,720.7357 L359.375,720.7357 L348.9583,710.319 " fill="url(#g100lkpuucy9z02)" style="stroke:#9C27B0;stroke-width:1.0416666666666667;"/><text fill="#FFFFFF" font-family="Verdana" font-size="12.5" lengthAdjust="spacing" textLength="214.5833" x="83.3333" y="737.5468">The deactivation was successful.</text><text fill="#FFFFFF" font-family="Verdana" font-size="12.5" lengthAdjust="spacing" textLength="250" x="83.3333" y="752.0976">The Payer can no longer receive RTPs.</text><line style="stroke:#2196F3;stroke-width:1.0416666666666667;stroke-dasharray:2.0,2.0;" x1="19.7917" x2="1348.9583" y1="780.0456" y2="780.0456"/><text fill="#222222" font-family="Verdana" font-size="12.5" font-weight="bold" lengthAdjust="spacing" textLength="86.4583" x="35.4167" y="802.065">[Not Found]</text><line style="stroke:#2196F3;stroke-width:3.125;" x1="919.2708" x2="963.0208" y1="858.1055" y2="858.1055"/><line style="stroke:#2196F3;stroke-width:3.125;" x1="963.0208" x2="963.0208" y1="858.1055" y2="871.6471"/><line style="stroke:#2196F3;stroke-width:3.125;" x1="920.3125" x2="963.0208" y1="871.6471" y2="871.6471"/><polygon fill="#2196F3" points="930.7292,867.4805,920.3125,871.6471,930.7292,875.8138,926.5625,871.6471" style="stroke:#2196F3;stroke-width:1.0416666666666667;"/><text fill="#222222" font-family="Verdana" font-size="12.5" font-weight="bold" lengthAdjust="spacing" textLength="8.3333" x="936.9792" y="842.6575">6</text><text fill="#222222" font-family="Verdana" font-size="12.5" lengthAdjust="spacing" textLength="242.7083" x="970.3125" y="842.6575">1. Validate Request &amp; Security Token</text><line style="stroke:#2196F3;stroke-width:3.125;" x1="919.2708" x2="963.0208" y1="921.6146" y2="921.6146"/><line style="stroke:#2196F3;stroke-width:3.125;" x1="963.0208" x2="963.0208" y1="921.6146" y2="935.1563"/><line style="stroke:#2196F3;stroke-width:3.125;" x1="920.3125" x2="963.0208" y1="935.1563" y2="935.1563"/><polygon fill="#2196F3" points="930.7292,930.9896,920.3125,935.1563,930.7292,939.3229,926.5625,935.1563" style="stroke:#2196F3;stroke-width:1.0416666666666667;"/><text fill="#222222" font-family="Verdana" font-size="12.5" font-weight="bold" lengthAdjust="spacing" textLength="8.3333" x="936.9792" y="906.1666">7</text><text fill="#222222" font-family="Verdana" font-size="12.5" lengthAdjust="spacing" textLength="200" x="970.3125" y="906.1666">2. Find the specified activation</text><path d="M923.9583,952.8646 L923.9583,989.3229 A4.1667,4.1667 0 0 0 928.125,993.4896 L1238.5417,993.4896 A4.1667,4.1667 0 0 0 1242.7083,989.3229 L1242.7083,959.1146 L1232.2917,948.6979 L928.125,948.6979 A4.1667,4.1667 0 0 0 923.9583,952.8646 " fill="url(#g100lkpuucy9z02)" filter="url(#f100lkpuucy9z0)" style="stroke:#9C27B0;stroke-width:1.0416666666666667;"/><path d="M1232.2917,948.6979 L1232.2917,957.0313 A2.0833,2.0833 0 0 0 1234.375,959.1146 L1242.7083,959.1146 L1232.2917,948.6979 " fill="url(#g100lkpuucy9z02)" style="stroke:#9C27B0;stroke-width:1.0416666666666667;"/><text fill="#FFFFFF" font-family="Verdana" font-size="12.5" lengthAdjust="spacing" textLength="276.0417" x="940.625" y="975.9257">Activation with the given ID does not exist.</text><polygon fill="#2196F3" points="379.6875,1040.2995,369.2708,1044.4661,379.6875,1048.6328,375.5208,1044.4661" style="stroke:#2196F3;stroke-width:1.0416666666666667;"/><line style="stroke:#2196F3;stroke-width:3.125;stroke-dasharray:2.0,2.0;" x1="373.4375" x2="907.8125" y1="1044.4661" y2="1044.4661"/><text fill="#222222" font-family="Verdana" font-size="12.5" font-weight="bold" lengthAdjust="spacing" textLength="8.3333" x="396.3542" y="1029.0181">8</text><text fill="#222222" font-family="Verdana" font-size="12.5" font-weight="bold" lengthAdjust="spacing" textLength="105.2083" x="429.6875" y="1029.0181">404 Not Found</text><path d="M30.2083,1062.1745 L30.2083,1098.6328 A4.1667,4.1667 0 0 0 34.375,1102.7995 L355.2083,1102.7995 A4.1667,4.1667 0 0 0 359.375,1098.6328 L359.375,1068.4245 L348.9583,1058.0078 L34.375,1058.0078 A4.1667,4.1667 0 0 0 30.2083,1062.1745 " fill="url(#g100lkpuucy9z02)" filter="url(#f100lkpuucy9z0)" style="stroke:#9C27B0;stroke-width:1.0416666666666667;"/><path d="M348.9583,1058.0078 L348.9583,1066.3411 A2.0833,2.0833 0 0 0 351.0417,1068.4245 L359.375,1068.4245 L348.9583,1058.0078 " fill="url(#g100lkpuucy9z02)" style="stroke:#9C27B0;stroke-width:1.0416666666666667;"/><text fill="#FFFFFF" font-family="Verdana" font-size="12.5" lengthAdjust="spacing" textLength="286.4583" x="46.875" y="1085.2356">The specified activation could not be found.</text><line style="stroke:#2196F3;stroke-width:1.0416666666666667;stroke-dasharray:2.0,2.0;" x1="19.7917" x2="1348.9583" y1="1113.1836" y2="1113.1836"/><text fill="#222222" font-family="Verdana" font-size="12.5" font-weight="bold" lengthAdjust="spacing" textLength="139.5833" x="35.4167" y="1135.203">[Client-Side Errors]</text><path d="M270.8333,1156.901 L606.25,1156.901 L606.25,1183.9518 L595.8333,1194.3685 L266.6667,1194.3685 L266.6667,1161.0677 A4.1667,4.1667 0 0 1 270.8333,1156.901 " fill="#FFFFFF" style="stroke:#666666;stroke-width:1.0416666666666667;"/><rect fill="none" height="166.5039" rx="4.1667" ry="4.1667" style="stroke:#2196F3;stroke-width:1.0416666666666667;" width="776.5625" x="266.6667" y="1156.901"/><text fill="#9C27B0" font-family="Verdana" font-size="12.5" font-weight="bold" lengthAdjust="spacing" textLength="271.875" x="292.7083" y="1179.9622">Authentication / Authorization Errors</text><polygon fill="#2196F3" points="379.6875,1246.3867,369.2708,1250.5534,379.6875,1254.7201,375.5208,1250.5534" style="stroke:#2196F3;stroke-width:1.0416666666666667;"/><line style="stroke:#2196F3;stroke-width:3.125;stroke-dasharray:2.0,2.0;" x1="373.4375" x2="907.8125" y1="1250.5534" y2="1250.5534"/><text fill="#222222" font-family="Verdana" font-size="12.5" font-weight="bold" lengthAdjust="spacing" textLength="8.3333" x="396.3542" y="1227.83">9</text><text fill="#222222" font-family="Verdana" font-size="12.5" font-weight="bold" lengthAdjust="spacing" textLength="130.2083" x="429.6875" y="1220.5546">401 Unauthorized</text><text fill="#222222" font-family="Verdana" font-size="12.5" lengthAdjust="spacing" textLength="195.8333" x="429.6875" y="1235.1054">(e.g., Invalid or expired token)</text><polygon fill="#2196F3" points="379.6875,1310.9049,369.2708,1315.0716,379.6875,1319.2383,375.5208,1315.0716" style="stroke:#2196F3;stroke-width:1.0416666666666667;"/><line style="stroke:#2196F3;stroke-width:3.125;stroke-dasharray:2.0,2.0;" x1="373.4375" x2="907.8125" y1="1315.0716" y2="1315.0716"/><text fill="#222222" font-family="Verdana" font-size="12.5" font-weight="bold" lengthAdjust="spacing" textLength="16.6667" x="396.3542" y="1292.3482">10</text><text fill="#222222" font-family="Verdana" font-size="12.5" font-weight="bold" lengthAdjust="spacing" textLength="104.1667" x="438.0208" y="1285.0728">403 Forbidden</text><text fill="#222222" font-family="Verdana" font-size="12.5" lengthAdjust="spacing" textLength="453.125" x="438.0208" y="1299.6236">(e.g., Insufficient permissions or trying to delete another's activation)</text><path d="M270.8333,1337.9883 L431.25,1337.9883 L431.25,1365.0391 L420.8333,1375.4557 L266.6667,1375.4557 L266.6667,1342.1549 A4.1667,4.1667 0 0 1 270.8333,1337.9883 " fill="#FFFFFF" style="stroke:#666666;stroke-width:1.0416666666666667;"/><rect fill="none" height="87.4349" rx="4.1667" ry="4.1667" style="stroke:#2196F3;stroke-width:1.0416666666666667;" width="776.5625" x="266.6667" y="1337.9883"/><text fill="#9C27B0" font-family="Verdana" font-size="12.5" font-weight="bold" lengthAdjust="spacing" textLength="96.875" x="292.7083" y="1361.0494">Rate Limiting</text><polygon fill="#2196F3" points="379.6875,1412.9232,369.2708,1417.0898,379.6875,1421.2565,375.5208,1417.0898" style="stroke:#2196F3;stroke-width:1.0416666666666667;"/><line style="stroke:#2196F3;stroke-width:3.125;stroke-dasharray:2.0,2.0;" x1="373.4375" x2="907.8125" y1="1417.0898" y2="1417.0898"/><text fill="#222222" font-family="Verdana" font-size="12.5" font-weight="bold" lengthAdjust="spacing" textLength="16.6667" x="396.3542" y="1401.6418">11</text><text fill="#222222" font-family="Verdana" font-size="12.5" font-weight="bold" lengthAdjust="spacing" textLength="173.9583" x="438.0208" y="1401.6418">429 Too Many Requests</text><line style="stroke:#2196F3;stroke-width:1.0416666666666667;stroke-dasharray:2.0,2.0;" x1="19.7917" x2="1348.9583" y1="1433.7565" y2="1433.7565"/><text fill="#222222" font-family="Verdana" font-size="12.5" font-weight="bold" lengthAdjust="spacing" textLength="136.4583" x="35.4167" y="1455.776">[Server-Side Error]</text><line style="stroke:#2196F3;stroke-width:3.125;" x1="919.2708" x2="963.0208" y1="1511.8164" y2="1511.8164"/><line style="stroke:#2196F3;stroke-width:3.125;" x1="963.0208" x2="963.0208" y1="1511.8164" y2="1525.3581"/><line style="stroke:#2196F3;stroke-width:3.125;" x1="920.3125" x2="963.0208" y1="1525.3581" y2="1525.3581"/><polygon fill="#2196F3" points="930.7292,1521.1914,920.3125,1525.3581,930.7292,1529.5247,926.5625,1525.3581" style="stroke:#2196F3;stroke-width:1.0416666666666667;"/><text fill="#222222" font-family="Verdana" font-size="12.5" font-weight="bold" lengthAdjust="spacing" textLength="16.6667" x="936.9792" y="1496.3684">12</text><text fill="#222222" font-family="Verdana" font-size="12.5" lengthAdjust="spacing" textLength="236.4583" x="978.6458" y="1496.3684">An unexpected internal error occurs</text><path d="M923.9583,1543.0664 L923.9583,1579.5247 A4.1667,4.1667 0 0 0 928.125,1583.6914 L1331.25,1583.6914 A4.1667,4.1667 0 0 0 1335.4167,1579.5247 L1335.4167,1549.3164 L1325,1538.8997 L928.125,1538.8997 A4.1667,4.1667 0 0 0 923.9583,1543.0664 " fill="url(#g100lkpuucy9z02)" filter="url(#f100lkpuucy9z0)" style="stroke:#9C27B0;stroke-width:1.0416666666666667;"/><path d="M1325,1538.8997 L1325,1547.2331 A2.0833,2.0833 0 0 0 1327.0833,1549.3164 L1335.4167,1549.3164 L1325,1538.8997 " fill="url(#g100lkpuucy9z02)" style="stroke:#9C27B0;stroke-width:1.0416666666666667;"/><text fill="#FFFFFF" font-family="Verdana" font-size="12.5" lengthAdjust="spacing" textLength="368.75" x="940.625" y="1566.1275">e.g., Database connection failure, unhandled exception.</text><polygon fill="#2196F3" points="379.6875,1630.5013,369.2708,1634.668,379.6875,1638.8346,375.5208,1634.668" style="stroke:#2196F3;stroke-width:1.0416666666666667;"/><line style="stroke:#2196F3;stroke-width:3.125;stroke-dasharray:2.0,2.0;" x1="373.4375" x2="907.8125" y1="1634.668" y2="1634.668"/><text fill="#222222" font-family="Verdana" font-size="12.5" font-weight="bold" lengthAdjust="spacing" textLength="16.6667" x="396.3542" y="1619.22">13</text><text fill="#222222" font-family="Verdana" font-size="12.5" font-weight="bold" lengthAdjust="spacing" textLength="180.2083" x="438.0208" y="1619.22">500 Internal Server Error</text><!--SRC=[pLN1Rjiw4BphAxOfq3H6epXfUtW-533Y50YGjaRYzjH36Mab4wL9TKavyNleltT8sR42sq2FBwU8v0vdPuRhOveQPSFNJpSqqQeMjQ3A2TtEfZHXLGIzL44xI-FfTNPCCnqCZtPtx_XNoxRW3GQEVcFns1hHUJxCXrYOi2z4Do4jpkRQKxc-qC_TWwSmPsh45Unzeg1egbOinnxeijG0dufRwf85OC_-WgDomuOJJYJerrK9onBRyhJ5MfvbBt1amRJ0QT4goqBiQc_B8vfStLpDhkXik-xF_jj-N9U_imoVkEFe4DqZKfwcTzEiKH9qeHleJKVnkl6pozAvg7Ecsk1ikxX7gnaAwVJ3tvBvRbzFjbB4EtfIdcHFE-aQw_2Vw7eUo5LfYMWm-DAm9BZHO40_jiB-IBjz5x4_FcWI5SgOw2gCXa722xVip16kjG_T7OcUinm9O4yBHOzydi4kYlmWXWdqib66Qs56rDeYHUHIUMn6-q7yIQ7pdBufeylKVGob3_GAt8fMT5ZHpFrakrDqaTD7ZViYETzmeIlD9MrrJGKxOetwzbMkjMM-W_msHwGCexANA-72IKcLk4Mw4cJLVUpcgHhbi7q4kI-6x-Ypeqjd0zim66of6AuIanYipKEOHRH-X1-GADy9LhKcVtOm6GUNBF38E5lZ2zHOBrDmV7TwwmCRp_JIH0LMR8nx0B507sFZ_nyV7dIOf_eQRLYwdb3fsCSYuaUaBjydyhiayhgNlz5u7pagN6kILdJF_JpiLH09K8OkZOQhftTuBtGbuiHtIjRYseR6BHgnc1WT_bbQSAB_xRxN1HjUEpsTqrUhrXMCjZ0QEA_pDtHjbz4QmilZnqOBsWZHZvF3M6-XZTphicJx3CYtLOM91fQ4gR7GFevy7v63hBIjkz7SFG1eC4-JOglPoPD0gUD-yxSnEJTweGDW3XAx-0THSlH9sTKcPdvjO0-rqxrKyZFs6WSLIq_qtVIEBRKMsd0HKA3nziJ2BewdoHK8iJ-KnKwPoVf98nJM0YMD2ALDA_m6q7DbImDaVYmuZTAziNm_74BYzTqTwuumEeppCSjwltfnUly1]--></g></svg>