<?xml version="1.0" encoding="us-ascii" standalone="no"?><svg xmlns="http://www.w3.org/2000/svg" xmlns:xlink="http://www.w3.org/1999/xlink" contentStyleType="text/css" height="2500px" preserveAspectRatio="none" style="width:1378px;height:2500px;" version="1.1" viewBox="0 0 1378 2500" width="1378.125px" zoomAndPan="magnify"><defs><linearGradient id="g7ke90fm3vb1m0" x1="50%" x2="50%" y1="0%" y2="100%"><stop offset="0%" stop-color="#FFFFFF"/><stop offset="100%" stop-color="#FFFFFF"/></linearGradient><filter height="300%" id="f7ke90fm3vb1m" width="300%" x="-1" y="-1"><feGaussianBlur result="blurOut" stdDeviation="2.0833333333333335"/><feColorMatrix in="blurOut" result="blurOut2" type="matrix" values="0 0 0 0 0 0 0 0 0 0 0 0 0 0 0 0 0 0 .4 0"/><feOffset dx="4.166666666666667" dy="4.166666666666667" in="blurOut2" result="blurOut3"/><feBlend in="SourceGraphic" in2="blurOut3" mode="normal"/></filter><linearGradient id="g7ke90fm3vb1m1" x1="50%" x2="50%" y1="0%" y2="100%"><stop offset="0%" stop-color="#4DABF5"/><stop offset="100%" stop-color="#2196F3"/></linearGradient><linearGradient id="g7ke90fm3vb1m2" x1="50%" x2="50%" y1="0%" y2="100%"><stop offset="0%" stop-color="#B052C0"/><stop offset="100%" stop-color="#9C27B0"/></linearGradient></defs><g><rect fill="url(#g7ke90fm3vb1m0)" height="57.5846" id="_title" rx="4.1667" ry="4.1667" style="stroke:#CCCCCC;stroke-width:1.0416666666666667;" width="228.125" x="576.0417" y="20.8333"/><text fill="#2196F3" font-family="Verdana" font-size="20.8333" font-weight="bold" lengthAdjust="spacing" textLength="194.7917" x="592.7083" y="56.838">RTP Delete Flow</text><rect fill="#FFFFFF" filter="url(#f7ke90fm3vb1m)" height="2101.5951" style="stroke:#CCCCCC;stroke-width:1.0416666666666667;" width="10.4167" x="491.6667" y="268.8802"/><rect fill="#FFFFFF" filter="url(#f7ke90fm3vb1m)" height="114.4857" style="stroke:#CCCCCC;stroke-width:1.0416666666666667;" width="10.4167" x="812.5" y="318.8477"/><rect fill="#FFFFFF" filter="url(#f7ke90fm3vb1m)" height="114.4857" style="stroke:#CCCCCC;stroke-width:1.0416666666666667;" width="10.4167" x="945.8333" y="999.6094"/><rect fill="#FFFFFF" filter="url(#f7ke90fm3vb1m)" height="704.7526" style="stroke:#CCCCCC;stroke-width:1.0416666666666667;" width="10.4167" x="1239.5833" y="1395.0846"/><rect fill="url(#g7ke90fm3vb1m0)" filter="url(#f7ke90fm3vb1m)" height="2028.7109" rx="4.1667" ry="4.1667" style="stroke:#2196F3;stroke-width:1.0416666666666667;" width="1339.5833" x="20.8333" y="334.4727"/><path d="M20.8333,643.5872 L1360.4167,643.5872 L1360.4167,2359.0169 A4.1667,4.1667 0 0 1 1356.25,2363.1836 L25,2363.1836 A4.1667,4.1667 0 0 1 20.8333,2359.0169 L20.8333,643.5872 " fill="url(#g7ke90fm3vb1m0)" style="stroke:none;stroke-width:1.0416666666666667;"/><rect fill="url(#g7ke90fm3vb1m0)" filter="url(#f7ke90fm3vb1m)" height="1340.6576" rx="4.1667" ry="4.1667" style="stroke:#2196F3;stroke-width:1.0416666666666667;" width="1318.75" x="31.25" y="1015.2344"/><rect fill="url(#g7ke90fm3vb1m0)" filter="url(#f7ke90fm3vb1m)" height="929.5247" rx="4.1667" ry="4.1667" style="stroke:#2196F3;stroke-width:1.0416666666666667;" width="1297.9167" x="41.6667" y="1281.6732"/><rect fill="url(#g7ke90fm3vb1m0)" filter="url(#f7ke90fm3vb1m)" height="622.4935" rx="4.1667" ry="4.1667" style="stroke:#2196F3;stroke-width:1.0416666666666667;" width="1277.0833" x="52.0833" y="1470.0521"/><path d="M52.0833,1690.7227 L1329.1667,1690.7227 L1329.1667,1887.4674 A4.1667,4.1667 0 0 1 1325,1891.6341 L56.25,1891.6341 A4.1667,4.1667 0 0 1 52.0833,1887.4674 L52.0833,1690.7227 " fill="url(#g7ke90fm3vb1m0)" style="stroke:none;stroke-width:1.0416666666666667;"/><path d="M52.0833,1891.6341 L1329.1667,1891.6341 L1329.1667,2088.3789 A4.1667,4.1667 0 0 1 1325,2092.5456 L56.25,2092.5456 A4.1667,4.1667 0 0 1 52.0833,2088.3789 L52.0833,1891.6341 " fill="url(#g7ke90fm3vb1m0)" style="stroke:none;stroke-width:1.0416666666666667;"/><path d="M41.6667,2099.8372 L1339.5833,2099.8372 L1339.5833,2207.0313 A4.1667,4.1667 0 0 1 1335.4167,2211.1979 L45.8333,2211.1979 A4.1667,4.1667 0 0 1 41.6667,2207.0313 L41.6667,2099.8372 " fill="url(#g7ke90fm3vb1m0)" style="stroke:none;stroke-width:1.0416666666666667;"/><path d="M31.25,2218.4896 L1350,2218.4896 L1350,2351.7253 A4.1667,4.1667 0 0 1 1345.8333,2355.8919 L35.4167,2355.8919 A4.1667,4.1667 0 0 1 31.25,2351.7253 L31.25,2218.4896 " fill="url(#g7ke90fm3vb1m0)" style="stroke:none;stroke-width:1.0416666666666667;"/><line style="stroke:#CCCCCC;stroke-width:1.0416666666666667;stroke-dasharray:5.0,5.0;" x1="170.8333" x2="170.8333" y1="187.7279" y2="2380.8919"/><line style="stroke:#CCCCCC;stroke-width:1.0416666666666667;stroke-dasharray:5.0,5.0;" x1="496.3542" x2="496.3542" y1="187.7279" y2="2380.8919"/><line style="stroke:#CCCCCC;stroke-width:1.0416666666666667;stroke-dasharray:5.0,5.0;" x1="817.1875" x2="817.1875" y1="187.7279" y2="2380.8919"/><line style="stroke:#CCCCCC;stroke-width:1.0416666666666667;stroke-dasharray:5.0,5.0;" x1="950.5208" x2="950.5208" y1="187.7279" y2="2380.8919"/><line style="stroke:#CCCCCC;stroke-width:1.0416666666666667;stroke-dasharray:5.0,5.0;" x1="1244.7917" x2="1244.7917" y1="187.7279" y2="2380.8919"/><rect fill="url(#g7ke90fm3vb1m1)" filter="url(#f7ke90fm3vb1m)" height="49.9674" rx="4.1667" ry="4.1667" style="stroke:#2196F3;stroke-width:1.0416666666666667;" width="130.2083" x="104.1667" y="133.5938"/><text fill="#FFFFFF" font-family="Verdana" font-size="12.5" lengthAdjust="spacing" textLength="94.7917" x="121.875" y="162.9049">MS-CONSUMER</text><rect fill="url(#g7ke90fm3vb1m1)" filter="url(#f7ke90fm3vb1m)" height="49.9674" rx="4.1667" ry="4.1667" style="stroke:#2196F3;stroke-width:1.0416666666666667;" width="130.2083" x="104.1667" y="2379.8503"/><text fill="#FFFFFF" font-family="Verdana" font-size="12.5" lengthAdjust="spacing" textLength="94.7917" x="121.875" y="2409.1614">MS-CONSUMER</text><rect fill="url(#g7ke90fm3vb1m1)" filter="url(#f7ke90fm3vb1m)" height="49.9674" rx="4.1667" ry="4.1667" style="stroke:#2196F3;stroke-width:1.0416666666666667;" width="110.4167" x="440.1042" y="133.5938"/><text fill="#FFFFFF" font-family="Verdana" font-size="12.5" lengthAdjust="spacing" textLength="75" x="457.8125" y="162.9049">MS-SENDER</text><rect fill="url(#g7ke90fm3vb1m1)" filter="url(#f7ke90fm3vb1m)" height="49.9674" rx="4.1667" ry="4.1667" style="stroke:#2196F3;stroke-width:1.0416666666666667;" width="110.4167" x="440.1042" y="2379.8503"/><text fill="#FFFFFF" font-family="Verdana" font-size="12.5" lengthAdjust="spacing" textLength="75" x="457.8125" y="2409.1614">MS-SENDER</text><text fill="#222222" font-family="Verdana" font-size="12.5" lengthAdjust="spacing" textLength="35.4167" x="796.875" y="159.8124">Redis</text><text fill="#222222" font-family="Verdana" font-size="12.5" lengthAdjust="spacing" textLength="159.375" x="734.8958" y="174.3632">(Idempotency Key Store)</text><path d="M798.9583,100.293 C798.9583,89.8763 817.7083,89.8763 817.7083,89.8763 C817.7083,89.8763 836.4583,89.8763 836.4583,100.293 L836.4583,127.3763 C836.4583,137.793 817.7083,137.793 817.7083,137.793 C817.7083,137.793 798.9583,137.793 798.9583,127.3763 L798.9583,100.293 " fill="url(#g7ke90fm3vb1m1)" filter="url(#f7ke90fm3vb1m)" style="stroke:#2196F3;stroke-width:1.5625;"/><path d="M798.9583,100.293 C798.9583,110.7096 817.7083,110.7096 817.7083,110.7096 C817.7083,110.7096 836.4583,110.7096 836.4583,100.293 " fill="none" style="stroke:#2196F3;stroke-width:1.5625;"/><text fill="#222222" font-family="Verdana" font-size="12.5" lengthAdjust="spacing" textLength="35.4167" x="796.875" y="2401.8697">Redis</text><text fill="#222222" font-family="Verdana" font-size="12.5" lengthAdjust="spacing" textLength="159.375" x="734.8958" y="2416.4205">(Idempotency Key Store)</text><path d="M798.9583,2440.2018 C798.9583,2429.7852 817.7083,2429.7852 817.7083,2429.7852 C817.7083,2429.7852 836.4583,2429.7852 836.4583,2440.2018 L836.4583,2467.2852 C836.4583,2477.7018 817.7083,2477.7018 817.7083,2477.7018 C817.7083,2477.7018 798.9583,2477.7018 798.9583,2467.2852 L798.9583,2440.2018 " fill="url(#g7ke90fm3vb1m1)" filter="url(#f7ke90fm3vb1m)" style="stroke:#2196F3;stroke-width:1.5625;"/><path d="M798.9583,2440.2018 C798.9583,2450.6185 817.7083,2450.6185 817.7083,2450.6185 C817.7083,2450.6185 836.4583,2450.6185 836.4583,2440.2018 " fill="none" style="stroke:#2196F3;stroke-width:1.5625;"/><text fill="#222222" font-family="Verdana" font-size="12.5" lengthAdjust="spacing" textLength="32.2917" x="931.7708" y="174.3632">RTPS</text><path d="M932.2917,114.8438 C932.2917,104.4271 951.0417,104.4271 951.0417,104.4271 C951.0417,104.4271 969.7917,104.4271 969.7917,114.8438 L969.7917,141.9271 C969.7917,152.3438 951.0417,152.3438 951.0417,152.3438 C951.0417,152.3438 932.2917,152.3438 932.2917,141.9271 L932.2917,114.8438 " fill="url(#g7ke90fm3vb1m1)" filter="url(#f7ke90fm3vb1m)" style="stroke:#2196F3;stroke-width:1.5625;"/><path d="M932.2917,114.8438 C932.2917,125.2604 951.0417,125.2604 951.0417,125.2604 C951.0417,125.2604 969.7917,125.2604 969.7917,114.8438 " fill="none" style="stroke:#2196F3;stroke-width:1.5625;"/><text fill="#222222" font-family="Verdana" font-size="12.5" lengthAdjust="spacing" textLength="32.2917" x="931.7708" y="2401.8697">RTPS</text><path d="M932.2917,2425.651 C932.2917,2415.2344 951.0417,2415.2344 951.0417,2415.2344 C951.0417,2415.2344 969.7917,2415.2344 969.7917,2425.651 L969.7917,2452.7344 C969.7917,2463.151 951.0417,2463.151 951.0417,2463.151 C951.0417,2463.151 932.2917,2463.151 932.2917,2452.7344 L932.2917,2425.651 " fill="url(#g7ke90fm3vb1m1)" filter="url(#f7ke90fm3vb1m)" style="stroke:#2196F3;stroke-width:1.5625;"/><path d="M932.2917,2425.651 C932.2917,2436.0677 951.0417,2436.0677 951.0417,2436.0677 C951.0417,2436.0677 969.7917,2436.0677 969.7917,2425.651 " fill="none" style="stroke:#2196F3;stroke-width:1.5625;"/><rect fill="url(#g7ke90fm3vb1m1)" filter="url(#f7ke90fm3vb1m)" height="49.9674" rx="4.1667" ry="4.1667" style="stroke:#2196F3;stroke-width:1.0416666666666667;" width="61.4583" x="1212.5" y="133.5938"/><text fill="#FFFFFF" font-family="Verdana" font-size="12.5" lengthAdjust="spacing" textLength="26.0417" x="1230.2083" y="162.9049">DSP</text><rect fill="url(#g7ke90fm3vb1m1)" filter="url(#f7ke90fm3vb1m)" height="49.9674" rx="4.1667" ry="4.1667" style="stroke:#2196F3;stroke-width:1.0416666666666667;" width="61.4583" x="1212.5" y="2379.8503"/><text fill="#FFFFFF" font-family="Verdana" font-size="12.5" lengthAdjust="spacing" textLength="26.0417" x="1230.2083" y="2409.1614">DSP</text><rect fill="#FFFFFF" filter="url(#f7ke90fm3vb1m)" height="2101.5951" style="stroke:#CCCCCC;stroke-width:1.0416666666666667;" width="10.4167" x="491.6667" y="268.8802"/><rect fill="#FFFFFF" filter="url(#f7ke90fm3vb1m)" height="114.4857" style="stroke:#CCCCCC;stroke-width:1.0416666666666667;" width="10.4167" x="812.5" y="318.8477"/><rect fill="#FFFFFF" filter="url(#f7ke90fm3vb1m)" height="114.4857" style="stroke:#CCCCCC;stroke-width:1.0416666666666667;" width="10.4167" x="945.8333" y="999.6094"/><rect fill="#FFFFFF" filter="url(#f7ke90fm3vb1m)" height="704.7526" style="stroke:#CCCCCC;stroke-width:1.0416666666666667;" width="10.4167" x="1239.5833" y="1395.0846"/><polygon fill="#2196F3" points="479.1667,264.7135,489.5833,268.8802,479.1667,273.0469,483.3333,268.8802" style="stroke:#2196F3;stroke-width:1.0416666666666667;"/><line style="stroke:#2196F3;stroke-width:3.125;" x1="170.8333" x2="485.4167" y1="268.8802" y2="268.8802"/><text fill="#222222" font-family="Verdana" font-size="12.5" font-weight="bold" lengthAdjust="spacing" textLength="8.3333" x="188.5417" y="238.8814">1</text><text fill="#222222" font-family="Verdana" font-size="12.5" lengthAdjust="spacing" textLength="131.25" x="221.875" y="224.3306">DELETE RTP request</text><text fill="#222222" font-family="Verdana" font-size="12.5" lengthAdjust="spacing" textLength="246.875" x="221.875" y="238.8814">Headers: Idempotency-Key, RequestId</text><text fill="#222222" font-family="Verdana" font-size="12.5" lengthAdjust="spacing" textLength="201.0417" x="221.875" y="253.4322">Payload: RTP cancellation data</text><polygon fill="#2196F3" points="800,314.681,810.4167,318.8477,800,323.0143,804.1667,318.8477" style="stroke:#2196F3;stroke-width:1.0416666666666667;"/><line style="stroke:#2196F3;stroke-width:3.125;" x1="502.0833" x2="806.25" y1="318.8477" y2="318.8477"/><text fill="#222222" font-family="Verdana" font-size="12.5" font-weight="bold" lengthAdjust="spacing" textLength="8.3333" x="519.7917" y="303.3997">2</text><text fill="#222222" font-family="Verdana" font-size="12.5" lengthAdjust="spacing" textLength="152.0833" x="553.125" y="303.3997">check Idempotency-Key</text><path d="M25,334.4727 L108.3333,334.4727 L108.3333,361.5234 L97.9167,371.9401 L20.8333,371.9401 L20.8333,338.6393 A4.1667,4.1667 0 0 1 25,334.4727 " fill="#FFFFFF" style="stroke:#666666;stroke-width:1.0416666666666667;"/><rect fill="none" height="2028.7109" rx="4.1667" ry="4.1667" style="stroke:#2196F3;stroke-width:1.0416666666666667;" width="1339.5833" x="20.8333" y="334.4727"/><text fill="#9C27B0" font-family="Verdana" font-size="12.5" font-weight="bold" lengthAdjust="spacing" textLength="19.7917" x="46.875" y="357.5338">alt</text><text fill="#222222" font-family="Verdana" font-size="12.5" font-weight="bold" lengthAdjust="spacing" textLength="260.4167" x="134.375" y="358.5754">[Idempotency-Key already present]</text><polygon fill="#2196F3" points="513.5417,429.1667,503.125,433.3333,513.5417,437.5,509.375,433.3333" style="stroke:#2196F3;stroke-width:1.0416666666666667;"/><line style="stroke:#2196F3;stroke-width:3.125;stroke-dasharray:2.0,2.0;" x1="507.2917" x2="816.6667" y1="433.3333" y2="433.3333"/><text fill="#222222" font-family="Verdana" font-size="12.5" font-weight="bold" lengthAdjust="spacing" textLength="8.3333" x="530.2083" y="417.8853">3</text><text fill="#222222" font-family="Verdana" font-size="12.5" lengthAdjust="spacing" textLength="63.5417" x="563.5417" y="417.8853">key found</text><line style="stroke:#2196F3;stroke-width:3.125;" x1="502.0833" x2="545.8333" y1="483.3008" y2="483.3008"/><line style="stroke:#2196F3;stroke-width:3.125;" x1="545.8333" x2="545.8333" y1="483.3008" y2="496.8424"/><line style="stroke:#2196F3;stroke-width:3.125;" x1="503.125" x2="545.8333" y1="496.8424" y2="496.8424"/><polygon fill="#2196F3" points="513.5417,492.6758,503.125,496.8424,513.5417,501.0091,509.375,496.8424" style="stroke:#2196F3;stroke-width:1.0416666666666667;"/><text fill="#222222" font-family="Verdana" font-size="12.5" font-weight="bold" lengthAdjust="spacing" textLength="8.3333" x="519.7917" y="467.8528">4</text><text fill="#222222" font-family="Verdana" font-size="12.5" lengthAdjust="spacing" textLength="184.375" x="553.125" y="467.8528">discard duplicated message</text><path d="M507.2917,514.5508 L507.2917,580.1758 A4.1667,4.1667 0 0 0 511.4583,584.3424 L703.125,584.3424 A4.1667,4.1667 0 0 0 707.2917,580.1758 L707.2917,520.8008 L696.875,510.3841 L511.4583,510.3841 A4.1667,4.1667 0 0 0 507.2917,514.5508 " fill="url(#g7ke90fm3vb1m2)" filter="url(#f7ke90fm3vb1m)" style="stroke:#9C27B0;stroke-width:1.0416666666666667;"/><path d="M696.875,510.3841 L696.875,518.7174 A2.0833,2.0833 0 0 0 698.9583,520.8008 L707.2917,520.8008 L696.875,510.3841 " fill="url(#g7ke90fm3vb1m2)" style="stroke:#9C27B0;stroke-width:1.0416666666666667;"/><text fill="#FFFFFF" font-family="Verdana" font-size="12.5" lengthAdjust="spacing" textLength="137.5" x="523.9583" y="537.6119">Duplicated message:</text><text fill="#FFFFFF" font-family="Verdana" font-size="12.5" lengthAdjust="spacing" textLength="120.8333" x="523.9583" y="552.1627">already processed</text><text fill="#FFFFFF" font-family="Verdana" font-size="12.5" lengthAdjust="spacing" textLength="157.2917" x="523.9583" y="566.7135">or already in processing</text><polygon fill="#2196F3" points="182.2917,631.0872,171.875,635.2539,182.2917,639.4206,178.125,635.2539" style="stroke:#2196F3;stroke-width:1.0416666666666667;"/><line style="stroke:#2196F3;stroke-width:3.125;stroke-dasharray:2.0,2.0;" x1="176.0417" x2="490.625" y1="635.2539" y2="635.2539"/><text fill="#222222" font-family="Verdana" font-size="12.5" font-weight="bold" lengthAdjust="spacing" textLength="8.3333" x="198.9583" y="619.8059">5</text><text fill="#222222" font-family="Verdana" font-size="12.5" lengthAdjust="spacing" textLength="77.0833" x="232.2917" y="619.8059">409 Conflict</text><line style="stroke:#2196F3;stroke-width:1.0416666666666667;stroke-dasharray:2.0,2.0;" x1="20.8333" x2="1360.4167" y1="644.6289" y2="644.6289"/><text fill="#222222" font-family="Verdana" font-size="12.5" font-weight="bold" lengthAdjust="spacing" textLength="229.1667" x="36.4583" y="666.6484">[Idempotency-Key not present]</text><polygon fill="#2196F3" points="513.5417,718.5221,503.125,722.6888,513.5417,726.8555,509.375,722.6888" style="stroke:#2196F3;stroke-width:1.0416666666666667;"/><line style="stroke:#2196F3;stroke-width:3.125;stroke-dasharray:2.0,2.0;" x1="507.2917" x2="816.6667" y1="722.6888" y2="722.6888"/><text fill="#222222" font-family="Verdana" font-size="12.5" font-weight="bold" lengthAdjust="spacing" textLength="8.3333" x="530.2083" y="707.2408">6</text><text fill="#222222" font-family="Verdana" font-size="12.5" lengthAdjust="spacing" textLength="89.5833" x="563.5417" y="707.2408">key not found</text><polygon fill="#2196F3" points="805.2083,768.4896,815.625,772.6563,805.2083,776.8229,809.375,772.6563" style="stroke:#2196F3;stroke-width:1.0416666666666667;"/><line style="stroke:#2196F3;stroke-width:3.125;" x1="502.0833" x2="811.4583" y1="772.6563" y2="772.6563"/><text fill="#222222" font-family="Verdana" font-size="12.5" font-weight="bold" lengthAdjust="spacing" textLength="8.3333" x="519.7917" y="757.2083">7</text><text fill="#222222" font-family="Verdana" font-size="12.5" lengthAdjust="spacing" textLength="143.75" x="553.125" y="757.2083">save Idempotency-Key</text><polygon fill="#2196F3" points="513.5417,818.457,503.125,822.6237,513.5417,826.7904,509.375,822.6237" style="stroke:#2196F3;stroke-width:1.0416666666666667;"/><line style="stroke:#2196F3;stroke-width:3.125;stroke-dasharray:2.0,2.0;" x1="507.2917" x2="816.6667" y1="822.6237" y2="822.6237"/><text fill="#222222" font-family="Verdana" font-size="12.5" font-weight="bold" lengthAdjust="spacing" textLength="8.3333" x="530.2083" y="807.1757">8</text><text fill="#222222" font-family="Verdana" font-size="12.5" lengthAdjust="spacing" textLength="64.5833" x="563.5417" y="807.1757">key saved</text><line style="stroke:#2196F3;stroke-width:3.125;" x1="502.0833" x2="545.8333" y1="872.5911" y2="872.5911"/><line style="stroke:#2196F3;stroke-width:3.125;" x1="545.8333" x2="545.8333" y1="872.5911" y2="886.1328"/><line style="stroke:#2196F3;stroke-width:3.125;" x1="503.125" x2="545.8333" y1="886.1328" y2="886.1328"/><polygon fill="#2196F3" points="513.5417,881.9661,503.125,886.1328,513.5417,890.2995,509.375,886.1328" style="stroke:#2196F3;stroke-width:1.0416666666666667;"/><text fill="#222222" font-family="Verdana" font-size="12.5" font-weight="bold" lengthAdjust="spacing" textLength="8.3333" x="519.7917" y="857.1431">9</text><text fill="#222222" font-family="Verdana" font-size="12.5" lengthAdjust="spacing" textLength="114.5833" x="553.125" y="857.1431">validate message</text><line style="stroke:#2196F3;stroke-width:3.125;" x1="502.0833" x2="545.8333" y1="936.1003" y2="936.1003"/><line style="stroke:#2196F3;stroke-width:3.125;" x1="545.8333" x2="545.8333" y1="936.1003" y2="949.6419"/><line style="stroke:#2196F3;stroke-width:3.125;" x1="503.125" x2="545.8333" y1="949.6419" y2="949.6419"/><polygon fill="#2196F3" points="513.5417,945.4753,503.125,949.6419,513.5417,953.8086,509.375,949.6419" style="stroke:#2196F3;stroke-width:1.0416666666666667;"/><text fill="#222222" font-family="Verdana" font-size="12.5" font-weight="bold" lengthAdjust="spacing" textLength="16.6667" x="519.7917" y="920.6523">10</text><text fill="#222222" font-family="Verdana" font-size="12.5" lengthAdjust="spacing" textLength="195.8333" x="561.4583" y="920.6523">validate operation == DELETE</text><polygon fill="#2196F3" points="933.3333,995.4427,943.75,999.6094,933.3333,1003.776,937.5,999.6094" style="stroke:#2196F3;stroke-width:1.0416666666666667;"/><line style="stroke:#2196F3;stroke-width:3.125;" x1="502.0833" x2="939.5833" y1="999.6094" y2="999.6094"/><text fill="#222222" font-family="Verdana" font-size="12.5" font-weight="bold" lengthAdjust="spacing" textLength="16.6667" x="519.7917" y="984.1614">11</text><text fill="#222222" font-family="Verdana" font-size="12.5" lengthAdjust="spacing" textLength="217.7083" x="561.4583" y="984.1614">findRtpByOperationDispatcherKey</text><path d="M35.4167,1015.2344 L118.75,1015.2344 L118.75,1042.2852 L108.3333,1052.7018 L31.25,1052.7018 L31.25,1019.401 A4.1667,4.1667 0 0 1 35.4167,1015.2344 " fill="#FFFFFF" style="stroke:#666666;stroke-width:1.0416666666666667;"/><rect fill="none" height="1340.6576" rx="4.1667" ry="4.1667" style="stroke:#2196F3;stroke-width:1.0416666666666667;" width="1318.75" x="31.25" y="1015.2344"/><text fill="#9C27B0" font-family="Verdana" font-size="12.5" font-weight="bold" lengthAdjust="spacing" textLength="19.7917" x="57.2917" y="1038.2955">alt</text><text fill="#222222" font-family="Verdana" font-size="12.5" font-weight="bold" lengthAdjust="spacing" textLength="87.5" x="144.7917" y="1039.3372">[RTP Found]</text><polygon fill="#2196F3" points="513.5417,1109.9284,503.125,1114.0951,513.5417,1118.2617,509.375,1114.0951" style="stroke:#2196F3;stroke-width:1.0416666666666667;"/><line style="stroke:#2196F3;stroke-width:3.125;stroke-dasharray:2.0,2.0;" x1="507.2917" x2="950" y1="1114.0951" y2="1114.0951"/><text fill="#222222" font-family="Verdana" font-size="12.5" font-weight="bold" lengthAdjust="spacing" textLength="16.6667" x="530.2083" y="1098.6471">12</text><text fill="#222222" font-family="Verdana" font-size="12.5" lengthAdjust="spacing" textLength="68.75" x="571.875" y="1098.6471">RTP Found</text><line style="stroke:#2196F3;stroke-width:3.125;" x1="502.0833" x2="545.8333" y1="1164.0625" y2="1164.0625"/><line style="stroke:#2196F3;stroke-width:3.125;" x1="545.8333" x2="545.8333" y1="1164.0625" y2="1177.6042"/><line style="stroke:#2196F3;stroke-width:3.125;" x1="503.125" x2="545.8333" y1="1177.6042" y2="1177.6042"/><polygon fill="#2196F3" points="513.5417,1173.4375,503.125,1177.6042,513.5417,1181.7708,509.375,1177.6042" style="stroke:#2196F3;stroke-width:1.0416666666666667;"/><text fill="#222222" font-family="Verdana" font-size="12.5" font-weight="bold" lengthAdjust="spacing" textLength="16.6667" x="519.7917" y="1148.6145">13</text><text fill="#222222" font-family="Verdana" font-size="12.5" lengthAdjust="spacing" textLength="125" x="561.4583" y="1148.6145">validate RTP status</text><path d="M507.2917,1195.3125 L507.2917,1260.9375 A4.1667,4.1667 0 0 0 511.4583,1265.1042 L728.125,1265.1042 A4.1667,4.1667 0 0 0 732.2917,1260.9375 L732.2917,1201.5625 L721.875,1191.1458 L511.4583,1191.1458 A4.1667,4.1667 0 0 0 507.2917,1195.3125 " fill="url(#g7ke90fm3vb1m2)" filter="url(#f7ke90fm3vb1m)" style="stroke:#9C27B0;stroke-width:1.0416666666666667;"/><path d="M721.875,1191.1458 L721.875,1199.4792 A2.0833,2.0833 0 0 0 723.9583,1201.5625 L732.2917,1201.5625 L721.875,1191.1458 " fill="url(#g7ke90fm3vb1m2)" style="stroke:#9C27B0;stroke-width:1.0416666666666667;"/><text fill="#FFFFFF" font-family="Verdana" font-size="12.5" lengthAdjust="spacing" textLength="127.0833" x="523.9583" y="1218.3736">Accepted statuses:</text><text fill="#FFFFFF" font-family="Verdana" font-size="12.5" lengthAdjust="spacing" textLength="104.1667" x="523.9583" y="1232.9244">CREATED, SENT,</text><text fill="#FFFFFF" font-family="Verdana" font-size="12.5" lengthAdjust="spacing" textLength="182.2917" x="523.9583" y="1247.4752">ACCEPTED, USER_ACCEPTED</text><path d="M45.8333,1281.6732 L129.1667,1281.6732 L129.1667,1308.724 L118.75,1319.1406 L41.6667,1319.1406 L41.6667,1285.8398 A4.1667,4.1667 0 0 1 45.8333,1281.6732 " fill="#FFFFFF" style="stroke:#666666;stroke-width:1.0416666666666667;"/><rect fill="none" height="929.5247" rx="4.1667" ry="4.1667" style="stroke:#2196F3;stroke-width:1.0416666666666667;" width="1297.9167" x="41.6667" y="1281.6732"/><text fill="#9C27B0" font-family="Verdana" font-size="12.5" font-weight="bold" lengthAdjust="spacing" textLength="19.7917" x="67.7083" y="1304.7343">alt</text><text fill="#222222" font-family="Verdana" font-size="12.5" font-weight="bold" lengthAdjust="spacing" textLength="114.5833" x="155.2083" y="1305.776">[Status is valid]</text><polygon fill="#2196F3" points="1227.0833,1390.918,1237.5,1395.0846,1227.0833,1399.2513,1231.25,1395.0846" style="stroke:#2196F3;stroke-width:1.0416666666666667;"/><line style="stroke:#2196F3;stroke-width:3.125;" x1="502.0833" x2="1233.3333" y1="1395.0846" y2="1395.0846"/><text fill="#222222" font-family="Verdana" font-size="12.5" font-weight="bold" lengthAdjust="spacing" textLength="16.6667" x="519.7917" y="1372.3612">14</text><text fill="#222222" font-family="Verdana" font-size="12.5" lengthAdjust="spacing" textLength="171.875" x="561.4583" y="1365.0859">Send cancellation request</text><text fill="#222222" font-family="Verdana" font-size="12.5" lengthAdjust="spacing" textLength="655.2083" x="561.4583" y="1379.6366">POST /sepa-request-to-pay-requests/{sepaRequestToPayRequestResourceId}/cancellation-requests</text><path d="M1104.1667,1412.793 L1104.1667,1449.2513 A4.1667,4.1667 0 0 0 1108.3333,1453.418 L1227.0833,1453.418 A4.1667,4.1667 0 0 0 1231.25,1449.2513 L1231.25,1419.043 L1220.8333,1408.6263 L1108.3333,1408.6263 A4.1667,4.1667 0 0 0 1104.1667,1412.793 " fill="url(#g7ke90fm3vb1m2)" filter="url(#f7ke90fm3vb1m)" style="stroke:#9C27B0;stroke-width:1.0416666666666667;"/><path d="M1220.8333,1408.6263 L1220.8333,1416.9596 A2.0833,2.0833 0 0 0 1222.9167,1419.043 L1231.25,1419.043 L1220.8333,1408.6263 " fill="url(#g7ke90fm3vb1m2)" style="stroke:#9C27B0;stroke-width:1.0416666666666667;"/><text fill="#FFFFFF" font-family="Verdana" font-size="12.5" lengthAdjust="spacing" textLength="84.375" x="1120.8333" y="1435.8541">Retry if failed</text><path d="M56.25,1470.0521 L139.5833,1470.0521 L139.5833,1497.1029 L129.1667,1507.5195 L52.0833,1507.5195 L52.0833,1474.2188 A4.1667,4.1667 0 0 1 56.25,1470.0521 " fill="#FFFFFF" style="stroke:#666666;stroke-width:1.0416666666666667;"/><rect fill="none" height="622.4935" rx="4.1667" ry="4.1667" style="stroke:#2196F3;stroke-width:1.0416666666666667;" width="1277.0833" x="52.0833" y="1470.0521"/><text fill="#9C27B0" font-family="Verdana" font-size="12.5" font-weight="bold" lengthAdjust="spacing" textLength="19.7917" x="78.125" y="1493.1132">alt</text><text fill="#222222" font-family="Verdana" font-size="12.5" font-weight="bold" lengthAdjust="spacing" textLength="119.7917" x="165.625" y="1494.1549">[Async flow EPC]</text><polygon fill="#2196F3" points="513.5417,1564.7461,503.125,1568.9128,513.5417,1573.0794,509.375,1568.9128" style="stroke:#2196F3;stroke-width:1.0416666666666667;"/><line style="stroke:#2196F3;stroke-width:3.125;stroke-dasharray:2.0,2.0;" x1="507.2917" x2="1238.5417" y1="1568.9128" y2="1568.9128"/><text fill="#222222" font-family="Verdana" font-size="12.5" font-weight="bold" lengthAdjust="spacing" textLength="16.6667" x="530.2083" y="1553.4648">15</text><text fill="#222222" font-family="Verdana" font-size="12.5" lengthAdjust="spacing" textLength="95.8333" x="571.875" y="1553.4648">OK empty body</text><line style="stroke:#2196F3;stroke-width:3.125;" x1="502.0833" x2="545.8333" y1="1618.8802" y2="1618.8802"/><line style="stroke:#2196F3;stroke-width:3.125;" x1="545.8333" x2="545.8333" y1="1618.8802" y2="1632.4219"/><line style="stroke:#2196F3;stroke-width:3.125;" x1="503.125" x2="545.8333" y1="1632.4219" y2="1632.4219"/><polygon fill="#2196F3" points="513.5417,1628.2552,503.125,1632.4219,513.5417,1636.5885,509.375,1632.4219" style="stroke:#2196F3;stroke-width:1.0416666666666667;"/><text fill="#222222" font-family="Verdana" font-size="12.5" font-weight="bold" lengthAdjust="spacing" textLength="16.6667" x="519.7917" y="1603.4322">16</text><text fill="#222222" font-family="Verdana" font-size="12.5" lengthAdjust="spacing" textLength="198.9583" x="561.4583" y="1603.4322">update RTP status (RFC_SENT)</text><polygon fill="#2196F3" points="182.2917,1678.2227,171.875,1682.3893,182.2917,1686.556,178.125,1682.3893" style="stroke:#2196F3;stroke-width:1.0416666666666667;"/><line style="stroke:#2196F3;stroke-width:3.125;stroke-dasharray:2.0,2.0;" x1="176.0417" x2="490.625" y1="1682.3893" y2="1682.3893"/><text fill="#222222" font-family="Verdana" font-size="12.5" font-weight="bold" lengthAdjust="spacing" textLength="16.6667" x="198.9583" y="1666.9413">17</text><text fill="#222222" font-family="Verdana" font-size="12.5" lengthAdjust="spacing" textLength="103.125" x="240.625" y="1666.9413">204 No Content</text><line style="stroke:#2196F3;stroke-width:1.0416666666666667;stroke-dasharray:2.0,2.0;" x1="52.0833" x2="1329.1667" y1="1691.7643" y2="1691.7643"/><text fill="#222222" font-family="Verdana" font-size="12.5" font-weight="bold" lengthAdjust="spacing" textLength="111.4583" x="67.7083" y="1713.7838">[Sync flow EPC]</text><polygon fill="#2196F3" points="513.5417,1765.6576,503.125,1769.8242,513.5417,1773.9909,509.375,1769.8242" style="stroke:#2196F3;stroke-width:1.0416666666666667;"/><line style="stroke:#2196F3;stroke-width:3.125;stroke-dasharray:2.0,2.0;" x1="507.2917" x2="1238.5417" y1="1769.8242" y2="1769.8242"/><text fill="#222222" font-family="Verdana" font-size="12.5" font-weight="bold" lengthAdjust="spacing" textLength="16.6667" x="530.2083" y="1754.3762">18</text><text fill="#222222" font-family="Verdana" font-size="12.5" lengthAdjust="spacing" textLength="71.875" x="571.875" y="1754.3762">OK payload</text><line style="stroke:#2196F3;stroke-width:3.125;" x1="502.0833" x2="545.8333" y1="1819.7917" y2="1819.7917"/><line style="stroke:#2196F3;stroke-width:3.125;" x1="545.8333" x2="545.8333" y1="1819.7917" y2="1833.3333"/><line style="stroke:#2196F3;stroke-width:3.125;" x1="503.125" x2="545.8333" y1="1833.3333" y2="1833.3333"/><polygon fill="#2196F3" points="513.5417,1829.1667,503.125,1833.3333,513.5417,1837.5,509.375,1833.3333" style="stroke:#2196F3;stroke-width:1.0416666666666667;"/><text fill="#222222" font-family="Verdana" font-size="12.5" font-weight="bold" lengthAdjust="spacing" textLength="16.6667" x="519.7917" y="1804.3437">19</text><text fill="#222222" font-family="Verdana" font-size="12.5" lengthAdjust="spacing" textLength="208.3333" x="561.4583" y="1804.3437">update RTP status (CANCELLED)</text><polygon fill="#2196F3" points="182.2917,1879.1341,171.875,1883.3008,182.2917,1887.4674,178.125,1883.3008" style="stroke:#2196F3;stroke-width:1.0416666666666667;"/><line style="stroke:#2196F3;stroke-width:3.125;stroke-dasharray:2.0,2.0;" x1="176.0417" x2="490.625" y1="1883.3008" y2="1883.3008"/><text fill="#222222" font-family="Verdana" font-size="12.5" font-weight="bold" lengthAdjust="spacing" textLength="16.6667" x="198.9583" y="1867.8528">20</text><text fill="#222222" font-family="Verdana" font-size="12.5" lengthAdjust="spacing" textLength="45.8333" x="240.625" y="1867.8528">200 OK</text><line style="stroke:#2196F3;stroke-width:1.0416666666666667;stroke-dasharray:2.0,2.0;" x1="52.0833" x2="1329.1667" y1="1892.6758" y2="1892.6758"/><text fill="#222222" font-family="Verdana" font-size="12.5" font-weight="bold" lengthAdjust="spacing" textLength="162.5" x="67.7083" y="1914.6952">[Error Sync Response]</text><polygon fill="#2196F3" points="513.5417,1966.569,503.125,1970.7357,513.5417,1974.9023,509.375,1970.7357" style="stroke:#2196F3;stroke-width:1.0416666666666667;"/><line style="stroke:#2196F3;stroke-width:3.125;stroke-dasharray:2.0,2.0;" x1="507.2917" x2="1238.5417" y1="1970.7357" y2="1970.7357"/><text fill="#222222" font-family="Verdana" font-size="12.5" font-weight="bold" lengthAdjust="spacing" textLength="16.6667" x="530.2083" y="1955.2877">21</text><text fill="#222222" font-family="Verdana" font-size="12.5" lengthAdjust="spacing" textLength="32.2917" x="571.875" y="1955.2877">Error</text><line style="stroke:#2196F3;stroke-width:3.125;" x1="502.0833" x2="545.8333" y1="2020.7031" y2="2020.7031"/><line style="stroke:#2196F3;stroke-width:3.125;" x1="545.8333" x2="545.8333" y1="2020.7031" y2="2034.2448"/><line style="stroke:#2196F3;stroke-width:3.125;" x1="503.125" x2="545.8333" y1="2034.2448" y2="2034.2448"/><polygon fill="#2196F3" points="513.5417,2030.0781,503.125,2034.2448,513.5417,2038.4115,509.375,2034.2448" style="stroke:#2196F3;stroke-width:1.0416666666666667;"/><text fill="#222222" font-family="Verdana" font-size="12.5" font-weight="bold" lengthAdjust="spacing" textLength="16.6667" x="519.7917" y="2005.2551">22</text><text fill="#222222" font-family="Verdana" font-size="12.5" lengthAdjust="spacing" textLength="233.3333" x="561.4583" y="2005.2551">update RTP status (ERROR_CANCEL)</text><polygon fill="#2196F3" points="182.2917,2080.0456,171.875,2084.2122,182.2917,2088.3789,178.125,2084.2122" style="stroke:#2196F3;stroke-width:1.0416666666666667;"/><line style="stroke:#2196F3;stroke-width:3.125;stroke-dasharray:2.0,2.0;" x1="176.0417" x2="490.625" y1="2084.2122" y2="2084.2122"/><text fill="#222222" font-family="Verdana" font-size="12.5" font-weight="bold" lengthAdjust="spacing" textLength="16.6667" x="198.9583" y="2068.7642">23</text><text fill="#222222" font-family="Verdana" font-size="12.5" lengthAdjust="spacing" textLength="128.125" x="240.625" y="2068.7642">4xx / business error</text><line style="stroke:#2196F3;stroke-width:1.0416666666666667;stroke-dasharray:2.0,2.0;" x1="41.6667" x2="1339.5833" y1="2100.8789" y2="2100.8789"/><text fill="#222222" font-family="Verdana" font-size="12.5" font-weight="bold" lengthAdjust="spacing" textLength="141.6667" x="57.2917" y="2122.8984">[Invalid RTP status]</text><polygon fill="#2196F3" points="182.2917,2186.735,171.875,2190.9017,182.2917,2195.0684,178.125,2190.9017" style="stroke:#2196F3;stroke-width:1.0416666666666667;"/><line style="stroke:#2196F3;stroke-width:3.125;stroke-dasharray:2.0,2.0;" x1="176.0417" x2="490.625" y1="2190.9017" y2="2190.9017"/><text fill="#222222" font-family="Verdana" font-size="12.5" font-weight="bold" lengthAdjust="spacing" textLength="16.6667" x="198.9583" y="2175.4537">24</text><text fill="#222222" font-family="Verdana" font-size="12.5" lengthAdjust="spacing" textLength="167.7083" x="240.625" y="2175.4537">422 Unprocessable Entity</text><path d="M507.2917,2146.6797 L507.2917,2197.7214 A4.1667,4.1667 0 0 0 511.4583,2201.888 L707.2917,2201.888 A4.1667,4.1667 0 0 0 711.4583,2197.7214 L711.4583,2152.9297 L701.0417,2142.513 L511.4583,2142.513 A4.1667,4.1667 0 0 0 507.2917,2146.6797 " fill="url(#g7ke90fm3vb1m2)" filter="url(#f7ke90fm3vb1m)" style="stroke:#9C27B0;stroke-width:1.0416666666666667;"/><path d="M701.0417,2142.513 L701.0417,2150.8464 A2.0833,2.0833 0 0 0 703.125,2152.9297 L711.4583,2152.9297 L701.0417,2142.513 " fill="url(#g7ke90fm3vb1m2)" style="stroke:#9C27B0;stroke-width:1.0416666666666667;"/><text fill="#FFFFFF" font-family="Verdana" font-size="12.5" lengthAdjust="spacing" textLength="161.4583" x="523.9583" y="2169.7408">RTP already in final state</text><text fill="#FFFFFF" font-family="Verdana" font-size="12.5" lengthAdjust="spacing" textLength="142.7083" x="523.9583" y="2184.2916">(e.g., PAID, REJECTED)</text><line style="stroke:#2196F3;stroke-width:1.0416666666666667;stroke-dasharray:2.0,2.0;" x1="31.25" x2="1350" y1="2219.5313" y2="2219.5313"/><text fill="#222222" font-family="Verdana" font-size="12.5" font-weight="bold" lengthAdjust="spacing" textLength="117.7083" x="46.875" y="2241.5507">[RTP Not Found]</text><polygon fill="#2196F3" points="513.5417,2293.4245,503.125,2297.5911,513.5417,2301.7578,509.375,2297.5911" style="stroke:#2196F3;stroke-width:1.0416666666666667;"/><line style="stroke:#2196F3;stroke-width:3.125;stroke-dasharray:2.0,2.0;" x1="507.2917" x2="950" y1="2297.5911" y2="2297.5911"/><text fill="#222222" font-family="Verdana" font-size="12.5" font-weight="bold" lengthAdjust="spacing" textLength="16.6667" x="530.2083" y="2282.1431">25</text><text fill="#222222" font-family="Verdana" font-size="12.5" lengthAdjust="spacing" textLength="63.5417" x="571.875" y="2282.1431">not found</text><polygon fill="#2196F3" points="182.2917,2343.3919,171.875,2347.5586,182.2917,2351.7253,178.125,2347.5586" style="stroke:#2196F3;stroke-width:1.0416666666666667;"/><line style="stroke:#2196F3;stroke-width:3.125;stroke-dasharray:2.0,2.0;" x1="176.0417" x2="490.625" y1="2347.5586" y2="2347.5586"/><text fill="#222222" font-family="Verdana" font-size="12.5" font-weight="bold" lengthAdjust="spacing" textLength="16.6667" x="198.9583" y="2332.1106">26</text><text fill="#222222" font-family="Verdana" font-size="12.5" lengthAdjust="spacing" textLength="96.875" x="240.625" y="2332.1106">404 Not Found</text><!--SRC=[dLRRRgD847tdAshoCXafJhnHNXPfLl82qNeciH6GVOeKjUd2QGrk6Bh935hjlszrOsmkkUtm0dJTJXsgJ_CHmfn9VNTx0xvWsuhj82igY98GF2PJp7EcHI5X4IwTZv08dQCBTr9a0ldKAyRlDT9xbuj2_iPAaSc5tyxdvtF7-Q0VSOUmOnehmHn7cvGsauyvQeJhlFZXE2Mhj4X5ITZWv3QUUUjLV7SRH2V057Gl4wyuMFbxd_RHuKop3LC89n5oeUxbwPBZhYmqmMpWApOGwwB2JpOc2lnbt0z9mhXDHa_3OduSMWlT7OVLkf3rReELutJOOFR77eCBVd0J985jiZ8CANql_qB6YHeNUdXcXESCejPboUzbo9gyODoreMcVQGFIOQaMJqHarwpJtarfsueBwIEctyObZd5jmmxBzTW7M5uHmWRA2XLAxG1TrXrclSw-aMTMr99REyTHPhDunDG5qNT8MSM1rsKkKlBci4Ebs1PjW2GKK8djeuOYwre3U_cJ27TlES8jKh8Wtw_JB7Sc8Jkha5jhHibjjG5E0jfzGnUkvh-3LyYCgch7mPocOamK9NW7ISRhIDJaEodsDCdyIZRZ_WBbBt3-n7B1ZLUVwLVSYXAhTj8-VzxFxpY4PjA5J4WUwVBFPjq5-4ALJDFWLLqFnp4rswXTeeapCtrzeCGcDqlzNgSklNwFsTxenMHHckbQ7RnVcJ5pBT8KIpDbRHWgjsVqec2H1FwP2KlE-b6U5uJMSXS7qKFtUl0uZDjXnT0Gsn8WL0kubw_V5EcCI_9A6GOoS92JS1qdSA6mPBFzsamNiv8rtQkw-CTOz-AI52Gj- -S8LL5NAIxvlnVzv8V80QG3_LRv-XRBQOwPfTHOON15g2lQX1baJEGux7FAJCVEGZKoXOpE10X2RvGIJ9d1mAo_0kqXtS2cuCt4UpeZTJcQ43YDhhq7ysK_lHW-K8ZB-HMi2YCIsYZ0i2sZ5_7_RQ1iHV_Nq7kBbHVSt0J-k-7FgUOpi8Eg8ksqu6b0oa8gV1EyZVart44KhQE75lqxeL_z_0aNiAb9padJ02V5QQg6ZVN4Op2zhQvBk_-UKukN8LnUqi_G_bHX6_gH2IJzq3JJVM6rPhmZg5BlS28fPRajFMRw5C-tvsSGBfQaBL7m9V2IyGSU76M3vcrpfjIAZg0tz7PuIZsdjw_JOVT2luf1OP7qyxHg-ny0]--></g></svg>