<?xml version="1.0" encoding="us-ascii" standalone="no"?><svg xmlns="http://www.w3.org/2000/svg" xmlns:xlink="http://www.w3.org/1999/xlink" contentStyleType="text/css" height="843px" preserveAspectRatio="none" style="width:1369px;height:843px;background:#FFFFFF;" version="1.1" viewBox="0 0 1369 843" width="1369px" zoomAndPan="magnify"><defs/><g><text fill="#000000" font-family="sans-serif" font-size="14" font-weight="bold" lengthAdjust="spacing" textLength="157" x="607.25" y="27.9951">Cancel RTP Process</text><rect fill="#FFFFFF" height="600" style="stroke:#181818;stroke-width:1.0;" width="10" x="232.5" y="152.7266"/><rect fill="#FFFFFF" height="567.8672" style="stroke:#181818;stroke-width:1.0;" width="10" x="397.5" y="184.8594"/><rect fill="#FFFFFF" height="538.7344" style="stroke:#181818;stroke-width:1.0;" width="10" x="573.5" y="213.9922"/><rect fill="#FFFFFF" height="338.1328" style="stroke:#181818;stroke-width:1.0;" width="10" x="1064.5" y="299.3906"/><rect fill="none" height="516.7344" style="stroke:#000000;stroke-width:1.5;" width="1352.5" x="10" y="228.9922"/><rect fill="none" height="313.1328" style="stroke:#000000;stroke-width:1.5;" width="1114" x="20" y="317.3906"/><line style="stroke:#181818;stroke-width:0.5;stroke-dasharray:5.0,5.0;" x1="52" x2="52" y1="118.5938" y2="762.7266"/><line style="stroke:#181818;stroke-width:0.5;stroke-dasharray:5.0,5.0;" x1="237" x2="237" y1="118.5938" y2="762.7266"/><line style="stroke:#181818;stroke-width:0.5;stroke-dasharray:5.0,5.0;" x1="402.5" x2="402.5" y1="118.5938" y2="762.7266"/><line style="stroke:#181818;stroke-width:0.5;stroke-dasharray:5.0,5.0;" x1="578.5" x2="578.5" y1="118.5938" y2="762.7266"/><line style="stroke:#181818;stroke-width:0.5;stroke-dasharray:5.0,5.0;" x1="1069" x2="1069" y1="118.5938" y2="762.7266"/><text fill="#000000" font-family="sans-serif" font-size="14" lengthAdjust="spacing" textLength="39" x="30" y="115.292">Client</text><ellipse cx="52.5" cy="50.7969" fill="#E2E2F0" rx="8" ry="8" style="stroke:#181818;stroke-width:0.5;"/><path d="M52.5,58.7969 L52.5,85.7969 M39.5,66.7969 L65.5,66.7969 M52.5,85.7969 L39.5,100.7969 M52.5,85.7969 L65.5,100.7969 " fill="none" style="stroke:#181818;stroke-width:0.5;"/><text fill="#000000" font-family="sans-serif" font-size="14" lengthAdjust="spacing" textLength="39" x="30" y="774.7217">Client</text><ellipse cx="52.5" cy="786.5234" fill="#E2E2F0" rx="8" ry="8" style="stroke:#181818;stroke-width:0.5;"/><path d="M52.5,794.5234 L52.5,821.5234 M39.5,802.5234 L65.5,802.5234 M52.5,821.5234 L39.5,836.5234 M52.5,821.5234 L65.5,836.5234 " fill="none" style="stroke:#181818;stroke-width:0.5;"/><rect fill="#E2E2F0" height="30.2969" rx="2.5" ry="2.5" style="stroke:#181818;stroke-width:0.5;" width="67" x="204" y="87.2969"/><text fill="#000000" font-family="sans-serif" font-size="14" lengthAdjust="spacing" textLength="53" x="211" y="107.292">RTP API</text><rect fill="#E2E2F0" height="30.2969" rx="2.5" ry="2.5" style="stroke:#181818;stroke-width:0.5;" width="67" x="204" y="761.7266"/><text fill="#000000" font-family="sans-serif" font-size="14" lengthAdjust="spacing" textLength="53" x="211" y="781.7217">RTP API</text><rect fill="#E2E2F0" height="30.2969" rx="2.5" ry="2.5" style="stroke:#181818;stroke-width:0.5;" width="96" x="354.5" y="87.2969"/><text fill="#000000" font-family="sans-serif" font-size="14" lengthAdjust="spacing" textLength="82" x="361.5" y="107.292">RTP Service</text><rect fill="#E2E2F0" height="30.2969" rx="2.5" ry="2.5" style="stroke:#181818;stroke-width:0.5;" width="96" x="354.5" y="761.7266"/><text fill="#000000" font-family="sans-serif" font-size="14" lengthAdjust="spacing" textLength="82" x="361.5" y="781.7217">RTP Service</text><text fill="#000000" font-family="sans-serif" font-size="14" lengthAdjust="spacing" textLength="66" x="542.5" y="115.292">Database</text><path d="M560.5,66.2969 C560.5,56.2969 578.5,56.2969 578.5,56.2969 C578.5,56.2969 596.5,56.2969 596.5,66.2969 L596.5,92.2969 C596.5,102.2969 578.5,102.2969 578.5,102.2969 C578.5,102.2969 560.5,102.2969 560.5,92.2969 L560.5,66.2969 " fill="#E2E2F0" style="stroke:#181818;stroke-width:1.5;"/><path d="M560.5,66.2969 C560.5,76.2969 578.5,76.2969 578.5,76.2969 C578.5,76.2969 596.5,76.2969 596.5,66.2969 " fill="none" style="stroke:#181818;stroke-width:1.5;"/><text fill="#000000" font-family="sans-serif" font-size="14" lengthAdjust="spacing" textLength="66" x="542.5" y="774.7217">Database</text><path d="M560.5,788.0234 C560.5,778.0234 578.5,778.0234 578.5,778.0234 C578.5,778.0234 596.5,778.0234 596.5,788.0234 L596.5,814.0234 C596.5,824.0234 578.5,824.0234 578.5,824.0234 C578.5,824.0234 560.5,824.0234 560.5,814.0234 L560.5,788.0234 " fill="#E2E2F0" style="stroke:#181818;stroke-width:1.5;"/><path d="M560.5,788.0234 C560.5,798.0234 578.5,798.0234 578.5,798.0234 C578.5,798.0234 596.5,798.0234 596.5,788.0234 " fill="none" style="stroke:#181818;stroke-width:1.5;"/><rect fill="#E2E2F0" height="30.2969" rx="2.5" ry="2.5" style="stroke:#181818;stroke-width:0.5;" width="109" x="1015" y="87.2969"/><text fill="#000000" font-family="sans-serif" font-size="14" lengthAdjust="spacing" textLength="95" x="1022" y="107.292">SP Debtor API</text><rect fill="#E2E2F0" height="30.2969" rx="2.5" ry="2.5" style="stroke:#181818;stroke-width:0.5;" width="109" x="1015" y="761.7266"/><text fill="#000000" font-family="sans-serif" font-size="14" lengthAdjust="spacing" textLength="95" x="1022" y="781.7217">SP Debtor API</text><rect fill="#FFFFFF" height="600" style="stroke:#181818;stroke-width:1.0;" width="10" x="232.5" y="152.7266"/><rect fill="#FFFFFF" height="567.8672" style="stroke:#181818;stroke-width:1.0;" width="10" x="397.5" y="184.8594"/><rect fill="#FFFFFF" height="538.7344" style="stroke:#181818;stroke-width:1.0;" width="10" x="573.5" y="213.9922"/><rect fill="#FFFFFF" height="338.1328" style="stroke:#181818;stroke-width:1.0;" width="10" x="1064.5" y="299.3906"/><polygon fill="#181818" points="220.5,148.7266,230.5,152.7266,220.5,156.7266,224.5,152.7266" style="stroke:#181818;stroke-width:1.0;"/><line style="stroke:#181818;stroke-width:1.0;" x1="52.5" x2="226.5" y1="152.7266" y2="152.7266"/><text fill="#000000" font-family="sans-serif" font-size="13" lengthAdjust="spacing" textLength="161" x="59.5" y="147.6606">POST /rtps/{rtpId}/cancel</text><path d="M247,133.5938 L247,158.5938 L452,158.5938 L452,143.5938 L442,133.5938 L247,133.5938 " fill="#FEFFDD" style="stroke:#181818;stroke-width:0.5;"/><path d="M442,133.5938 L442,143.5938 L452,143.5938 L442,133.5938 " fill="#FEFFDD" style="stroke:#181818;stroke-width:0.5;"/><text fill="#000000" font-family="sans-serif" font-size="13" lengthAdjust="spacing" textLength="184" x="253" y="150.6606">With rtpId as path parameter</text><polygon fill="#181818" points="385.5,180.8594,395.5,184.8594,385.5,188.8594,389.5,184.8594" style="stroke:#181818;stroke-width:1.0;"/><line style="stroke:#181818;stroke-width:1.0;" x1="242.5" x2="391.5" y1="184.8594" y2="184.8594"/><text fill="#000000" font-family="sans-serif" font-size="13" lengthAdjust="spacing" textLength="101" x="249.5" y="179.7935">cancelRtp(rtpId)</text><polygon fill="#181818" points="561.5,209.9922,571.5,213.9922,561.5,217.9922,565.5,213.9922" style="stroke:#181818;stroke-width:1.0;"/><line style="stroke:#181818;stroke-width:1.0;" x1="407.5" x2="567.5" y1="213.9922" y2="213.9922"/><text fill="#000000" font-family="sans-serif" font-size="13" lengthAdjust="spacing" textLength="110" x="414.5" y="208.9263">findRtpById(rtpId)</text><path d="M10,228.9922 L74,228.9922 L74,236.125 L64,246.125 L10,246.125 L10,228.9922 " fill="#EEEEEE" style="stroke:#000000;stroke-width:1.5;"/><rect fill="none" height="516.7344" style="stroke:#000000;stroke-width:1.5;" width="1352.5" x="10" y="228.9922"/><text fill="#000000" font-family="sans-serif" font-size="13" font-weight="bold" lengthAdjust="spacing" textLength="19" x="25" y="242.0591">alt</text><text fill="#000000" font-family="sans-serif" font-size="11" font-weight="bold" lengthAdjust="spacing" textLength="76" x="89" y="241.2026">[RTP exists]</text><polygon fill="#181818" points="418.5,263.2578,408.5,267.2578,418.5,271.2578,414.5,267.2578" style="stroke:#181818;stroke-width:1.0;"/><line style="stroke:#181818;stroke-width:1.0;stroke-dasharray:2.0,2.0;" x1="412.5" x2="572.5" y1="267.2578" y2="267.2578"/><text fill="#000000" font-family="sans-serif" font-size="13" lengthAdjust="spacing" textLength="66" x="424.5" y="262.1919">return RTP</text><polygon fill="#181818" points="1052.5,295.3906,1062.5,299.3906,1052.5,303.3906,1056.5,299.3906" style="stroke:#181818;stroke-width:1.0;"/><line style="stroke:#181818;stroke-width:1.0;" x1="407.5" x2="1058.5" y1="299.3906" y2="299.3906"/><text fill="#000000" font-family="sans-serif" font-size="13" lengthAdjust="spacing" textLength="638" x="414.5" y="294.3247">POST /sepa-request-to-pay-requests/{sepaRequestToPayRequestResourceId}/cancellation-requests</text><path d="M1079,280.2578 L1079,305.2578 L1352,305.2578 L1352,290.2578 L1342,280.2578 L1079,280.2578 " fill="#FEFFDD" style="stroke:#181818;stroke-width:0.5;"/><path d="M1342,280.2578 L1342,290.2578 L1352,290.2578 L1342,280.2578 " fill="#FEFFDD" style="stroke:#181818;stroke-width:0.5;"/><text fill="#000000" font-family="sans-serif" font-size="13" lengthAdjust="spacing" textLength="252" x="1085" y="297.3247">Send cancellation request to SP Debtor</text><path d="M20,317.3906 L84,317.3906 L84,324.5234 L74,334.5234 L20,334.5234 L20,317.3906 " fill="#EEEEEE" style="stroke:#000000;stroke-width:1.5;"/><rect fill="none" height="313.1328" style="stroke:#000000;stroke-width:1.5;" width="1114" x="20" y="317.3906"/><text fill="#000000" font-family="sans-serif" font-size="13" font-weight="bold" lengthAdjust="spacing" textLength="19" x="35" y="330.4575">alt</text><text fill="#000000" font-family="sans-serif" font-size="11" font-weight="bold" lengthAdjust="spacing" textLength="210" x="99" y="329.6011">[SP Debtor accepts cancellation]</text><polygon fill="#181818" points="418.5,351.6563,408.5,355.6563,418.5,359.6563,414.5,355.6563" style="stroke:#181818;stroke-width:1.0;"/><line style="stroke:#181818;stroke-width:1.0;stroke-dasharray:2.0,2.0;" x1="412.5" x2="1063.5" y1="355.6563" y2="355.6563"/><text fill="#000000" font-family="sans-serif" font-size="13" lengthAdjust="spacing" textLength="234" x="424.5" y="350.5903">201 Created (Cancellation accepted)</text><line style="stroke:#181818;stroke-width:1.0;" x1="407.5" x2="449.5" y1="384.7891" y2="384.7891"/><line style="stroke:#181818;stroke-width:1.0;" x1="449.5" x2="449.5" y1="384.7891" y2="397.7891"/><line style="stroke:#181818;stroke-width:1.0;" x1="408.5" x2="449.5" y1="397.7891" y2="397.7891"/><polygon fill="#181818" points="418.5,393.7891,408.5,397.7891,418.5,401.7891,414.5,397.7891" style="stroke:#181818;stroke-width:1.0;"/><text fill="#000000" font-family="sans-serif" font-size="13" lengthAdjust="spacing" textLength="152" x="414.5" y="379.7231">setStatus("CANCELED")</text><polygon fill="#181818" points="561.5,422.9219,571.5,426.9219,561.5,430.9219,565.5,426.9219" style="stroke:#181818;stroke-width:1.0;"/><line style="stroke:#181818;stroke-width:1.0;" x1="407.5" x2="567.5" y1="426.9219" y2="426.9219"/><text fill="#000000" font-family="sans-serif" font-size="13" lengthAdjust="spacing" textLength="79" x="414.5" y="421.856">saveRtp(rtp)</text><polygon fill="#181818" points="418.5,452.0547,408.5,456.0547,418.5,460.0547,414.5,456.0547" style="stroke:#181818;stroke-width:1.0;"/><line style="stroke:#181818;stroke-width:1.0;stroke-dasharray:2.0,2.0;" x1="412.5" x2="572.5" y1="456.0547" y2="456.0547"/><text fill="#000000" font-family="sans-serif" font-size="13" lengthAdjust="spacing" textLength="112" x="424.5" y="450.9888">saveConfirmation</text><polygon fill="#181818" points="253.5,481.1875,243.5,485.1875,253.5,489.1875,249.5,485.1875" style="stroke:#181818;stroke-width:1.0;"/><line style="stroke:#181818;stroke-width:1.0;stroke-dasharray:2.0,2.0;" x1="247.5" x2="396.5" y1="485.1875" y2="485.1875"/><text fill="#000000" font-family="sans-serif" font-size="13" lengthAdjust="spacing" textLength="51" x="259.5" y="480.1216">success</text><polygon fill="#181818" points="63.5,510.3203,53.5,514.3203,63.5,518.3203,59.5,514.3203" style="stroke:#181818;stroke-width:1.0;"/><line style="stroke:#181818;stroke-width:1.0;stroke-dasharray:2.0,2.0;" x1="57.5" x2="231.5" y1="514.3203" y2="514.3203"/><text fill="#000000" font-family="sans-serif" font-size="13" lengthAdjust="spacing" textLength="101" x="69.5" y="509.2544">204 No Content</text><line style="stroke:#000000;stroke-width:1.0;stroke-dasharray:2.0,2.0;" x1="20" x2="1134" y1="523.3203" y2="523.3203"/><text fill="#000000" font-family="sans-serif" font-size="11" font-weight="bold" lengthAdjust="spacing" textLength="204" x="25" y="533.5308">[SP Debtor rejects cancellation]</text><polygon fill="#181818" points="418.5,554.2578,408.5,558.2578,418.5,562.2578,414.5,558.2578" style="stroke:#181818;stroke-width:1.0;"/><line style="stroke:#181818;stroke-width:1.0;stroke-dasharray:2.0,2.0;" x1="412.5" x2="1063.5" y1="558.2578" y2="558.2578"/><text fill="#000000" font-family="sans-serif" font-size="13" lengthAdjust="spacing" textLength="94" x="424.5" y="553.1919">Error response</text><polygon fill="#181818" points="253.5,583.3906,243.5,587.3906,253.5,591.3906,249.5,587.3906" style="stroke:#181818;stroke-width:1.0;"/><line style="stroke:#181818;stroke-width:1.0;stroke-dasharray:2.0,2.0;" x1="247.5" x2="396.5" y1="587.3906" y2="587.3906"/><text fill="#000000" font-family="sans-serif" font-size="13" lengthAdjust="spacing" textLength="131" x="259.5" y="582.3247">cancellationRejected</text><polygon fill="#181818" points="63.5,615.5234,53.5,619.5234,63.5,623.5234,59.5,619.5234" style="stroke:#181818;stroke-width:1.0;"/><line style="stroke:#181818;stroke-width:1.0;stroke-dasharray:2.0,2.0;" x1="57.5" x2="231.5" y1="619.5234" y2="619.5234"/><text fill="#000000" font-family="sans-serif" font-size="13" lengthAdjust="spacing" textLength="87" x="69.5" y="614.4575">400/422 Error</text><path d="M247,600.3906 L247,625.3906 L573,625.3906 L573,610.3906 L563,600.3906 L247,600.3906 " fill="#FEFFDD" style="stroke:#181818;stroke-width:0.5;"/><path d="M563,600.3906 L563,610.3906 L573,610.3906 L563,600.3906 " fill="#FEFFDD" style="stroke:#181818;stroke-width:0.5;"/><text fill="#000000" font-family="sans-serif" font-size="13" lengthAdjust="spacing" textLength="305" x="253" y="617.4575">Appropriate error based on SP Debtor response</text><line style="stroke:#000000;stroke-width:1.0;stroke-dasharray:2.0,2.0;" x1="10" x2="1362.5" y1="638.5234" y2="638.5234"/><text fill="#000000" font-family="sans-serif" font-size="11" font-weight="bold" lengthAdjust="spacing" textLength="100" x="15" y="648.7339">[RTP not found]</text><polygon fill="#181818" points="418.5,669.4609,408.5,673.4609,418.5,677.4609,414.5,673.4609" style="stroke:#181818;stroke-width:1.0;"/><line style="stroke:#181818;stroke-width:1.0;stroke-dasharray:2.0,2.0;" x1="412.5" x2="572.5" y1="673.4609" y2="673.4609"/><text fill="#000000" font-family="sans-serif" font-size="13" lengthAdjust="spacing" textLength="65" x="424.5" y="668.395">return null</text><polygon fill="#181818" points="253.5,698.5938,243.5,702.5938,253.5,706.5938,249.5,702.5938" style="stroke:#181818;stroke-width:1.0;"/><line style="stroke:#181818;stroke-width:1.0;stroke-dasharray:2.0,2.0;" x1="247.5" x2="396.5" y1="702.5938" y2="702.5938"/><text fill="#000000" font-family="sans-serif" font-size="13" lengthAdjust="spacing" textLength="80" x="259.5" y="697.5278">rtpNotFound</text><polygon fill="#181818" points="63.5,730.7266,53.5,734.7266,63.5,738.7266,59.5,734.7266" style="stroke:#181818;stroke-width:1.0;"/><line style="stroke:#181818;stroke-width:1.0;stroke-dasharray:2.0,2.0;" x1="57.5" x2="231.5" y1="734.7266" y2="734.7266"/><text fill="#000000" font-family="sans-serif" font-size="13" lengthAdjust="spacing" textLength="94" x="69.5" y="729.6606">404 Not Found</text><path d="M247,715.5938 L247,740.5938 L530,740.5938 L530,725.5938 L520,715.5938 L247,715.5938 " fill="#FEFFDD" style="stroke:#181818;stroke-width:0.5;"/><path d="M520,715.5938 L520,725.5938 L530,725.5938 L520,715.5938 " fill="#FEFFDD" style="stroke:#181818;stroke-width:0.5;"/><text fill="#000000" font-family="sans-serif" font-size="13" lengthAdjust="spacing" textLength="262" x="253" y="732.6606">Error response as defined in the API spec</text><!--SRC=[bLJ1Zjem4BtxAqQSs0E28auSAYq9bP0g6W5IprvdAAwojcjFK57LVw_jnCGiS2Y7OCjltinxCpP9QX0AhWGsi3jKK5ajq3d6k21jeMWaAcA6Mv926gu8HW7sMcr6m5tulp_SeprBWH7GhrdDYRznXr2cXJyiLxV1-mfAV0jv4_- -AaCArjK1ay_XP0dLj_q1ffQCc_xntqtzTogY1gOq8LZvuqHB-2xf1F4uK1dkTpuTVqT26mNAC_VecC1_0djVxX8wkXsPSIHu6U194UiN8QnSBU4eLUtngykclelnGXblA3gClwKZny3_oXLCygGMgRKgeE9n_6HPEZEIUeU6Jop-Qj7HXFJ4y4lQUbV2wQxR7NJ5B_rwXqwtLk3WMCD9QdMDZ3bp4_UeQiYXq4E1D5mR5iC6YxgkNJK4wKDlkH1eoDsGHbYK6qDlRPdFFa5XqJFNC2xoKZegz5Qd-84eyoqHEQGzSMhTU5IyRelrrtKvUdaK4Vhf-1dx_W-OZnqBe4AhexJl7tGaiZIohXNnOYL0KjbDTX2vWAq6JqRXnWK8DWuptop-HF4_lgsjZM7EQENmUMavuIucmVffdOlPRBgOpploAogVc5TZh3PMXad0M4AuxpNuVkLYighyY0t3KkF3EOfcXFlZKy5Hjtt8aokasgPX3yNwTcurVRaItEiBVI0O4BcsMql3irAZl_XUdLH0f_YOW3CeMD34CYt-2SYLfMSHRvwXVm00]--></g></svg>