<?xml version="1.0" encoding="us-ascii" standalone="no"?><svg xmlns="http://www.w3.org/2000/svg" xmlns:xlink="http://www.w3.org/1999/xlink" contentStyleType="text/css" height="1297.9167px" preserveAspectRatio="none" style="width:1031px;height:1297px;" version="1.1" viewBox="0 0 1031 1297" width="1031.25px" zoomAndPan="magnify"><defs><linearGradient id="g2yb282b17t0h0" x1="50%" x2="50%" y1="0%" y2="100%"><stop offset="0%" stop-color="#FFFFFF"/><stop offset="100%" stop-color="#FFFFFF"/></linearGradient><filter height="300%" id="f2yb282b17t0h" width="300%" x="-1" y="-1"><feGaussianBlur result="blurOut" stdDeviation="2.0833333333333335"/><feColorMatrix in="blurOut" result="blurOut2" type="matrix" values="0 0 0 0 0 0 0 0 0 0 0 0 0 0 0 0 0 0 .4 0"/><feOffset dx="4.166666666666667" dy="4.166666666666667" in="blurOut2" result="blurOut3"/><feBlend in="SourceGraphic" in2="blurOut3" mode="normal"/></filter><linearGradient id="g2yb282b17t0h1" x1="50%" x2="50%" y1="0%" y2="100%"><stop offset="0%" stop-color="#4DABF5"/><stop offset="100%" stop-color="#2196F3"/></linearGradient><linearGradient id="g2yb282b17t0h2" x1="50%" x2="50%" y1="0%" y2="100%"><stop offset="0%" stop-color="#B052C0"/><stop offset="100%" stop-color="#9C27B0"/></linearGradient></defs><g><rect fill="url(#g2yb282b17t0h0)" height="58.6528" id="_title" rx="4.1667" ry="4.1667" style="stroke:#CCCCCC;stroke-width:1.0416666666666667;" width="226.0417" x="403.9063" y="20.8333"/><text fill="#2196F3" font-family="Verdana" font-size="20.8333" font-weight="bold" lengthAdjust="spacing" textLength="192.7083" x="420.5729" y="58.4452">RTP Delete Flow</text><rect fill="#FFFFFF" filter="url(#f2yb282b17t0h)" height="954.8747" style="stroke:#CCCCCC;stroke-width:1.0416666666666667;" width="10.4167" x="212.5" y="227.5777"/><rect fill="#FFFFFF" filter="url(#f2yb282b17t0h)" height="116.4083" style="stroke:#CCCCCC;stroke-width:1.0416666666666667;" width="10.4167" x="530.2083" y="278.186"/><rect fill="#FFFFFF" filter="url(#f2yb282b17t0h)" height="538.9832" style="stroke:#CCCCCC;stroke-width:1.0416666666666667;" width="10.4167" x="914.5833" y="524.5443"/><rect fill="url(#g2yb282b17t0h0)" filter="url(#f2yb282b17t0h)" height="881.3497" rx="4.1667" ry="4.1667" style="stroke:#2196F3;stroke-width:1.0416666666666667;" width="916.1458" x="97.9167" y="293.811"/><rect fill="url(#g2yb282b17t0h0)" filter="url(#f2yb282b17t0h)" height="478.9998" rx="4.1667" ry="4.1667" style="stroke:#2196F3;stroke-width:1.0416666666666667;" width="895.3125" x="108.3333" y="600.1526"/><path d="M108.3333,773.4192 L1003.6458,773.4192 L1003.6458,922.1191 A4.1667,4.1667 0 0 1 999.4792,926.2858 L112.5,926.2858 A4.1667,4.1667 0 0 1 108.3333,922.1191 L108.3333,773.4192 " fill="url(#g2yb282b17t0h0)" style="stroke:none;stroke-width:1.0416666666666667;"/><path d="M108.3333,926.2858 L1003.6458,926.2858 L1003.6458,1074.9858 A4.1667,4.1667 0 0 1 999.4792,1079.1524 L112.5,1079.1524 A4.1667,4.1667 0 0 1 108.3333,1074.9858 L108.3333,926.2858 " fill="url(#g2yb282b17t0h0)" style="stroke:none;stroke-width:1.0416666666666667;"/><path d="M97.9167,1086.4441 L1014.0625,1086.4441 L1014.0625,1170.9941 A4.1667,4.1667 0 0 1 1009.8958,1175.1607 L102.0833,1175.1607 A4.1667,4.1667 0 0 1 97.9167,1170.9941 L97.9167,1086.4441 " fill="url(#g2yb282b17t0h0)" style="stroke:none;stroke-width:1.0416666666666667;"/><line style="stroke:#CCCCCC;stroke-width:1.0416666666666667;stroke-dasharray:5.0,5.0;" x1="217.7083" x2="217.7083" y1="174.8861" y2="1192.8691"/><line style="stroke:#CCCCCC;stroke-width:1.0416666666666667;stroke-dasharray:5.0,5.0;" x1="535.4167" x2="535.4167" y1="174.8861" y2="1192.8691"/><line style="stroke:#CCCCCC;stroke-width:1.0416666666666667;stroke-dasharray:5.0,5.0;" x1="919.2708" x2="919.2708" y1="174.8861" y2="1192.8691"/><rect fill="url(#g2yb282b17t0h1)" filter="url(#f2yb282b17t0h)" height="50.6083" rx="4.1667" ry="4.1667" style="stroke:#2196F3;stroke-width:1.0416666666666667;" width="111.4583" x="160.4167" y="120.1111"/><text fill="#FFFFFF" font-family="Verdana" font-size="12.5" lengthAdjust="spacing" textLength="76.0417" x="178.125" y="150.3866">MS-SENDER</text><rect fill="url(#g2yb282b17t0h1)" filter="url(#f2yb282b17t0h)" height="50.6083" rx="4.1667" ry="4.1667" style="stroke:#2196F3;stroke-width:1.0416666666666667;" width="111.4583" x="160.4167" y="1191.8274"/><text fill="#FFFFFF" font-family="Verdana" font-size="12.5" lengthAdjust="spacing" textLength="76.0417" x="178.125" y="1222.1029">MS-SENDER</text><text fill="#222222" font-family="Verdana" font-size="12.5" lengthAdjust="spacing" textLength="31.25" x="516.6667" y="161.8449">RTPS</text><path d="M516.6667,101.3611 C516.6667,90.9444 535.4167,90.9444 535.4167,90.9444 C535.4167,90.9444 554.1667,90.9444 554.1667,101.3611 L554.1667,128.4444 C554.1667,138.8611 535.4167,138.8611 535.4167,138.8611 C535.4167,138.8611 516.6667,138.8611 516.6667,128.4444 L516.6667,101.3611 " fill="url(#g2yb282b17t0h1)" filter="url(#f2yb282b17t0h)" style="stroke:#2196F3;stroke-width:1.5625;"/><path d="M516.6667,101.3611 C516.6667,111.7778 535.4167,111.7778 535.4167,111.7778 C535.4167,111.7778 554.1667,111.7778 554.1667,101.3611 " fill="none" style="stroke:#2196F3;stroke-width:1.5625;"/><text fill="#222222" font-family="Verdana" font-size="12.5" lengthAdjust="spacing" textLength="31.25" x="516.6667" y="1214.8112">RTPS</text><path d="M516.6667,1238.269 C516.6667,1227.8524 535.4167,1227.8524 535.4167,1227.8524 C535.4167,1227.8524 554.1667,1227.8524 554.1667,1238.269 L554.1667,1265.3524 C554.1667,1275.769 535.4167,1275.769 535.4167,1275.769 C535.4167,1275.769 516.6667,1275.769 516.6667,1265.3524 L516.6667,1238.269 " fill="url(#g2yb282b17t0h1)" filter="url(#f2yb282b17t0h)" style="stroke:#2196F3;stroke-width:1.5625;"/><path d="M516.6667,1238.269 C516.6667,1248.6857 535.4167,1248.6857 535.4167,1248.6857 C535.4167,1248.6857 554.1667,1248.6857 554.1667,1238.269 " fill="none" style="stroke:#2196F3;stroke-width:1.5625;"/><rect fill="url(#g2yb282b17t0h1)" filter="url(#f2yb282b17t0h)" height="50.6083" rx="4.1667" ry="4.1667" style="stroke:#2196F3;stroke-width:1.0416666666666667;" width="60.4167" x="888.0208" y="120.1111"/><text fill="#FFFFFF" font-family="Verdana" font-size="12.5" lengthAdjust="spacing" textLength="25" x="905.7292" y="150.3866">DSP</text><rect fill="url(#g2yb282b17t0h1)" filter="url(#f2yb282b17t0h)" height="50.6083" rx="4.1667" ry="4.1667" style="stroke:#2196F3;stroke-width:1.0416666666666667;" width="60.4167" x="888.0208" y="1191.8274"/><text fill="#FFFFFF" font-family="Verdana" font-size="12.5" lengthAdjust="spacing" textLength="25" x="905.7292" y="1222.1029">DSP</text><rect fill="#FFFFFF" filter="url(#f2yb282b17t0h)" height="954.8747" style="stroke:#CCCCCC;stroke-width:1.0416666666666667;" width="10.4167" x="212.5" y="227.5777"/><rect fill="#FFFFFF" filter="url(#f2yb282b17t0h)" height="116.4083" style="stroke:#CCCCCC;stroke-width:1.0416666666666667;" width="10.4167" x="530.2083" y="278.186"/><rect fill="#FFFFFF" filter="url(#f2yb282b17t0h)" height="538.9832" style="stroke:#CCCCCC;stroke-width:1.0416666666666667;" width="10.4167" x="914.5833" y="524.5443"/><ellipse cx="18.2292" cy="226.7965" fill="none" rx="4.1667" ry="4.1667" style="stroke:#2196F3;stroke-width:1.5625;"/><polygon fill="#2196F3" points="200,223.4111,210.4167,227.5777,200,231.7444,204.1667,227.5777" style="stroke:#2196F3;stroke-width:1.0416666666666667;"/><line style="stroke:#2196F3;stroke-width:3.125;" x1="22.9167" x2="206.25" y1="227.5777" y2="227.5777"/><text fill="#222222" font-family="Verdana" font-size="12.5" font-weight="bold" lengthAdjust="spacing" textLength="9.375" x="36.4583" y="212.4532">1</text><text fill="#222222" font-family="Verdana" font-size="12.5" lengthAdjust="spacing" textLength="118.75" x="70.8333" y="212.4532">GDP DELETE event</text><polygon fill="#2196F3" points="517.7083,274.0194,528.125,278.186,517.7083,282.3527,521.875,278.186" style="stroke:#2196F3;stroke-width:1.0416666666666667;"/><line style="stroke:#2196F3;stroke-width:3.125;" x1="222.9167" x2="523.9583" y1="278.186" y2="278.186"/><text fill="#222222" font-family="Verdana" font-size="12.5" font-weight="bold" lengthAdjust="spacing" textLength="9.375" x="240.625" y="263.0615">2</text><text fill="#222222" font-family="Verdana" font-size="12.5" lengthAdjust="spacing" textLength="208.3333" x="275" y="263.0615">findRtpByOperationDispatcherKey</text><path d="M102.0833,293.811 L183.3333,293.811 L183.3333,321.5027 L172.9167,331.9194 L97.9167,331.9194 L97.9167,297.9777 A4.1667,4.1667 0 0 1 102.0833,293.811 " fill="#FFFFFF" style="stroke:#666666;stroke-width:1.0416666666666667;"/><rect fill="none" height="881.3497" rx="4.1667" ry="4.1667" style="stroke:#2196F3;stroke-width:1.0416666666666667;" width="916.1458" x="97.9167" y="293.811"/><text fill="#9C27B0" font-family="Verdana" font-size="12.5" font-weight="bold" lengthAdjust="spacing" textLength="17.7083" x="123.9583" y="317.8365">alt</text><text fill="#222222" font-family="Verdana" font-size="12.5" font-weight="bold" lengthAdjust="spacing" textLength="89.5833" x="209.375" y="318.8782">[RTP Found]</text><polygon fill="#2196F3" points="234.375,390.4277,223.9583,394.5943,234.375,398.761,230.2083,394.5943" style="stroke:#2196F3;stroke-width:1.0416666666666667;"/><line style="stroke:#2196F3;stroke-width:3.125;stroke-dasharray:2.0,2.0;" x1="228.125" x2="534.375" y1="394.5943" y2="394.5943"/><text fill="#222222" font-family="Verdana" font-size="12.5" font-weight="bold" lengthAdjust="spacing" textLength="9.375" x="251.0417" y="379.4698">3</text><text fill="#222222" font-family="Verdana" font-size="12.5" lengthAdjust="spacing" textLength="65.625" x="285.4167" y="379.4698">RTP Found</text><line style="stroke:#2196F3;stroke-width:3.125;" x1="222.9167" x2="266.6667" y1="445.2026" y2="445.2026"/><line style="stroke:#2196F3;stroke-width:3.125;" x1="266.6667" x2="266.6667" y1="445.2026" y2="458.7443"/><line style="stroke:#2196F3;stroke-width:3.125;" x1="223.9583" x2="266.6667" y1="458.7443" y2="458.7443"/><polygon fill="#2196F3" points="234.375,454.5776,223.9583,458.7443,234.375,462.911,230.2083,458.7443" style="stroke:#2196F3;stroke-width:1.0416666666666667;"/><text fill="#222222" font-family="Verdana" font-size="12.5" font-weight="bold" lengthAdjust="spacing" textLength="9.375" x="240.625" y="430.0781">4</text><text fill="#222222" font-family="Verdana" font-size="12.5" lengthAdjust="spacing" textLength="117.7083" x="275" y="430.0781">validate RTP status</text><path d="M415.625,414.386 L415.625,451.886 A4.1667,4.1667 0 0 0 419.7917,456.0527 L634.375,456.0527 A4.1667,4.1667 0 0 0 638.5417,451.886 L638.5417,420.636 L628.125,410.2193 L419.7917,410.2193 A4.1667,4.1667 0 0 0 415.625,414.386 " fill="url(#g2yb282b17t0h2)" filter="url(#f2yb282b17t0h)" style="stroke:#9C27B0;stroke-width:1.0416666666666667;"/><path d="M628.125,410.2193 L628.125,418.5527 A2.0833,2.0833 0 0 0 630.2083,420.636 L638.5417,420.636 L628.125,410.2193 " fill="url(#g2yb282b17t0h2)" style="stroke:#9C27B0;stroke-width:1.0416666666666667;"/><text fill="#FFFFFF" font-family="Verdana" font-size="12.5" lengthAdjust="spacing" textLength="180.2083" x="432.2917" y="438.4115">Cancellation request initiated</text><polygon fill="#2196F3" points="902.0833,520.3776,912.5,524.5443,902.0833,528.7109,906.25,524.5443" style="stroke:#2196F3;stroke-width:1.0416666666666667;"/><line style="stroke:#2196F3;stroke-width:3.125;" x1="222.9167" x2="908.3333" y1="524.5443" y2="524.5443"/><text fill="#222222" font-family="Verdana" font-size="12.5" font-weight="bold" lengthAdjust="spacing" textLength="9.375" x="240.625" y="501.8239">5</text><text fill="#222222" font-family="Verdana" font-size="12.5" lengthAdjust="spacing" textLength="175" x="275" y="494.2281">Send request of cancellation</text><text fill="#222222" font-family="Verdana" font-size="12.5" lengthAdjust="spacing" textLength="616.6667" x="275" y="509.4198">POST /sepa-request-to-pay-requests/{sepaRequestToPayRequestResourceId}/cancellation-requests</text><path d="M782.2917,542.2526 L782.2917,579.7526 A4.1667,4.1667 0 0 0 786.4583,583.9193 L902.0833,583.9193 A4.1667,4.1667 0 0 0 906.25,579.7526 L906.25,548.5026 L895.8333,538.0859 L786.4583,538.0859 A4.1667,4.1667 0 0 0 782.2917,542.2526 " fill="url(#g2yb282b17t0h2)" filter="url(#f2yb282b17t0h)" style="stroke:#9C27B0;stroke-width:1.0416666666666667;"/><path d="M895.8333,538.0859 L895.8333,546.4193 A2.0833,2.0833 0 0 0 897.9167,548.5026 L906.25,548.5026 L895.8333,538.0859 " fill="url(#g2yb282b17t0h2)" style="stroke:#9C27B0;stroke-width:1.0416666666666667;"/><text fill="#FFFFFF" font-family="Verdana" font-size="12.5" lengthAdjust="spacing" textLength="81.25" x="798.9583" y="566.2781">Retry if failed</text><path d="M112.5,600.1526 L193.75,600.1526 L193.75,627.8442 L183.3333,638.2609 L108.3333,638.2609 L108.3333,604.3193 A4.1667,4.1667 0 0 1 112.5,600.1526 " fill="#FFFFFF" style="stroke:#666666;stroke-width:1.0416666666666667;"/><rect fill="none" height="478.9998" rx="4.1667" ry="4.1667" style="stroke:#2196F3;stroke-width:1.0416666666666667;" width="895.3125" x="108.3333" y="600.1526"/><text fill="#9C27B0" font-family="Verdana" font-size="12.5" font-weight="bold" lengthAdjust="spacing" textLength="17.7083" x="134.375" y="624.1781">alt</text><text fill="#222222" font-family="Verdana" font-size="12.5" font-weight="bold" lengthAdjust="spacing" textLength="121.875" x="219.7917" y="625.2197">[Async flow EPC]</text><polygon fill="#2196F3" points="234.375,696.7692,223.9583,700.9359,234.375,705.1025,230.2083,700.9359" style="stroke:#2196F3;stroke-width:1.0416666666666667;"/><line style="stroke:#2196F3;stroke-width:3.125;stroke-dasharray:2.0,2.0;" x1="228.125" x2="913.5417" y1="700.9359" y2="700.9359"/><text fill="#222222" font-family="Verdana" font-size="12.5" font-weight="bold" lengthAdjust="spacing" textLength="9.375" x="251.0417" y="685.8114">6</text><text fill="#222222" font-family="Verdana" font-size="12.5" lengthAdjust="spacing" textLength="95.8333" x="285.4167" y="685.8114">OK empty Body</text><line style="stroke:#2196F3;stroke-width:3.125;" x1="222.9167" x2="266.6667" y1="751.5442" y2="751.5442"/><line style="stroke:#2196F3;stroke-width:3.125;" x1="266.6667" x2="266.6667" y1="751.5442" y2="765.0859"/><line style="stroke:#2196F3;stroke-width:3.125;" x1="223.9583" x2="266.6667" y1="765.0859" y2="765.0859"/><polygon fill="#2196F3" points="234.375,760.9192,223.9583,765.0859,234.375,769.2525,230.2083,765.0859" style="stroke:#2196F3;stroke-width:1.0416666666666667;"/><text fill="#222222" font-family="Verdana" font-size="12.5" font-weight="bold" lengthAdjust="spacing" textLength="9.375" x="240.625" y="736.4197">7</text><text fill="#222222" font-family="Verdana" font-size="12.5" lengthAdjust="spacing" textLength="192.7083" x="275" y="736.4197">update RTP status (RFC_SENT)</text><line style="stroke:#2196F3;stroke-width:1.0416666666666667;stroke-dasharray:2.0,2.0;" x1="108.3333" x2="1003.6458" y1="774.4609" y2="774.4609"/><text fill="#222222" font-family="Verdana" font-size="12.5" font-weight="bold" lengthAdjust="spacing" textLength="114.5833" x="123.9583" y="797.4447">[Sync flow EPC]</text><polygon fill="#2196F3" points="234.375,849.6358,223.9583,853.8025,234.375,857.9692,230.2083,853.8025" style="stroke:#2196F3;stroke-width:1.0416666666666667;"/><line style="stroke:#2196F3;stroke-width:3.125;stroke-dasharray:2.0,2.0;" x1="228.125" x2="913.5417" y1="853.8025" y2="853.8025"/><text fill="#222222" font-family="Verdana" font-size="12.5" font-weight="bold" lengthAdjust="spacing" textLength="9.375" x="251.0417" y="838.678">8</text><text fill="#222222" font-family="Verdana" font-size="12.5" lengthAdjust="spacing" textLength="68.75" x="285.4167" y="838.678">OK payload</text><line style="stroke:#2196F3;stroke-width:3.125;" x1="222.9167" x2="266.6667" y1="904.4108" y2="904.4108"/><line style="stroke:#2196F3;stroke-width:3.125;" x1="266.6667" x2="266.6667" y1="904.4108" y2="917.9525"/><line style="stroke:#2196F3;stroke-width:3.125;" x1="223.9583" x2="266.6667" y1="917.9525" y2="917.9525"/><polygon fill="#2196F3" points="234.375,913.7858,223.9583,917.9525,234.375,922.1191,230.2083,917.9525" style="stroke:#2196F3;stroke-width:1.0416666666666667;"/><text fill="#222222" font-family="Verdana" font-size="12.5" font-weight="bold" lengthAdjust="spacing" textLength="9.375" x="240.625" y="889.2863">9</text><text fill="#222222" font-family="Verdana" font-size="12.5" lengthAdjust="spacing" textLength="202.0833" x="275" y="889.2863">update RTP status (CANCELLED)</text><line style="stroke:#2196F3;stroke-width:1.0416666666666667;stroke-dasharray:2.0,2.0;" x1="108.3333" x2="1003.6458" y1="927.3275" y2="927.3275"/><text fill="#222222" font-family="Verdana" font-size="12.5" font-weight="bold" lengthAdjust="spacing" textLength="159.375" x="123.9583" y="950.3113">[Error Sync Response]</text><polygon fill="#2196F3" points="234.375,1002.5024,223.9583,1006.6691,234.375,1010.8358,230.2083,1006.6691" style="stroke:#2196F3;stroke-width:1.0416666666666667;"/><line style="stroke:#2196F3;stroke-width:3.125;stroke-dasharray:2.0,2.0;" x1="228.125" x2="913.5417" y1="1006.6691" y2="1006.6691"/><text fill="#222222" font-family="Verdana" font-size="12.5" font-weight="bold" lengthAdjust="spacing" textLength="18.75" x="251.0417" y="991.5446">10</text><text fill="#222222" font-family="Verdana" font-size="12.5" lengthAdjust="spacing" textLength="31.25" x="294.7917" y="991.5446">Error</text><line style="stroke:#2196F3;stroke-width:3.125;" x1="222.9167" x2="266.6667" y1="1062.4858" y2="1062.4858"/><line style="stroke:#2196F3;stroke-width:3.125;" x1="266.6667" x2="266.6667" y1="1062.4858" y2="1076.0274"/><line style="stroke:#2196F3;stroke-width:3.125;" x1="217.7083" x2="266.6667" y1="1076.0274" y2="1076.0274"/><polygon fill="#2196F3" points="228.125,1071.8608,217.7083,1076.0274,228.125,1080.1941,223.9583,1076.0274" style="stroke:#2196F3;stroke-width:1.0416666666666667;"/><text fill="#222222" font-family="Verdana" font-size="12.5" font-weight="bold" lengthAdjust="spacing" textLength="18.75" x="240.625" y="1047.3612">11</text><text fill="#222222" font-family="Verdana" font-size="12.5" lengthAdjust="spacing" textLength="228.125" x="284.375" y="1047.3612">update RTP status (ERROR_CANCEL)</text><line style="stroke:#2196F3;stroke-width:1.0416666666666667;stroke-dasharray:2.0,2.0;" x1="97.9167" x2="1014.0625" y1="1087.4858" y2="1087.4858"/><text fill="#222222" font-family="Verdana" font-size="12.5" font-weight="bold" lengthAdjust="spacing" textLength="117.7083" x="113.5417" y="1110.4696">[RTP Not Found]</text><polygon fill="#2196F3" points="234.375,1162.6607,223.9583,1166.8274,234.375,1170.9941,230.2083,1166.8274" style="stroke:#2196F3;stroke-width:1.0416666666666667;"/><line style="stroke:#2196F3;stroke-width:3.125;stroke-dasharray:2.0,2.0;" x1="228.125" x2="534.375" y1="1166.8274" y2="1166.8274"/><text fill="#222222" font-family="Verdana" font-size="12.5" font-weight="bold" lengthAdjust="spacing" textLength="18.75" x="251.0417" y="1151.7029">12</text><text fill="#222222" font-family="Verdana" font-size="12.5" lengthAdjust="spacing" textLength="60.4167" x="294.7917" y="1151.7029">not found</text><!--SRC=[bLHTJzim57tthxZZXI6jm5xxCAaqOM8K6YLXBvk4J7BJMdBjpBufYwRzzrqxARIWJICliU_7ESV7Dpc6J4j3TpSBI9HSERc1nZh8ompcqbIejIHb3SooAt4CfIADKxWpgb5Olwugy4U7lDzXSSjNT9vJK_XuUdvwpe44VULKIp5OhfM7UYJsQ_leWTO8DP9KcXbQPolqFcgg1YPbLY1DuFx0Q0VFHlqCsO30Ui6tMB7GQj3sg6WTKxAYJchu8hSIFBgjOhtIr51PGyvgZGwqNQdgL8XtNBz1s4X2fwGG5CuVZvsWHaAurFPHY5OwKfLgsKWukYacHNgRfFaHI0_3KjIIv8Fq24VSN0mPNXrs9aKMC_mMGdPaJRTvG2V4DplvD29DuNF2xEaYBLF0BHhYqehKbYNko8ONX1xcc4AZJ9rJUz4lMtJHZ4JvLbArHdUDlG1uHWYYXDGK3tbfErEBu6o8msHFnM6wnaE4sFAiOkpPIgtgK1EQFKdgVAmqbcDEhTOqFHmd5yR94oYZI75Z_GAOZPhopF7TxIfjinkJYF3TPCkYX3EFhPoCDHEoarRskwq_-nMo-R0hRIRxSPsZjvshyAh-VROF-jGPrJmTFDpQqsaqDb7CBWYG8xaUL0DDdEmO3Sf3kHYGsFMPxqq53KyLfDbyR6MG0- -Nru2Rbdgui7K_rhnsksjVU0tlyylvFQVBau5TypmM_yV7XcahwxUGpMUtytInI9CzjjGv_f0Z9xlRMkFnBvonyYrqQPuly_k1zEJbKEwk8HW-Q60h13zHLO2vjVIlSUTRudzGI3C4z-qF_F3H_G40]--></g></svg>