<?xml version="1.0" encoding="us-ascii" standalone="no"?><svg xmlns="http://www.w3.org/2000/svg" xmlns:xlink="http://www.w3.org/1999/xlink" contentStyleType="text/css" height="2693.75px" preserveAspectRatio="none" style="width:2163px;height:2693px;" version="1.1" viewBox="0 0 2163 2693" width="2163.5417px" zoomAndPan="magnify"><defs><linearGradient id="g14bdrxwynhayw0" x1="50%" x2="50%" y1="0%" y2="100%"><stop offset="0%" stop-color="#FFFFFF"/><stop offset="100%" stop-color="#FFFFFF"/></linearGradient><filter height="300%" id="f14bdrxwynhayw" width="300%" x="-1" y="-1"><feGaussianBlur result="blurOut" stdDeviation="2.0833333333333335"/><feColorMatrix in="blurOut" result="blurOut2" type="matrix" values="0 0 0 0 0 0 0 0 0 0 0 0 0 0 0 0 0 0 .4 0"/><feOffset dx="4.166666666666667" dy="4.166666666666667" in="blurOut2" result="blurOut3"/><feBlend in="SourceGraphic" in2="blurOut3" mode="normal"/></filter><linearGradient id="g14bdrxwynhayw1" x1="50%" x2="50%" y1="0%" y2="100%"><stop offset="0%" stop-color="#4DABF5"/><stop offset="100%" stop-color="#2196F3"/></linearGradient><linearGradient id="g14bdrxwynhayw2" x1="50%" x2="50%" y1="0%" y2="100%"><stop offset="0%" stop-color="#B052C0"/><stop offset="100%" stop-color="#9C27B0"/></linearGradient></defs><g><rect fill="url(#g14bdrxwynhayw0)" height="57.5846" id="_title" rx="4.1667" ry="4.1667" style="stroke:#CCCCCC;stroke-width:1.0416666666666667;" width="666.6667" x="749.4792" y="20.8333"/><text fill="#2196F3" font-family="Verdana" font-size="20.8333" font-weight="bold" lengthAdjust="spacing" textLength="633.3333" x="766.1458" y="56.838">RTP Cancellation API: POST /rtps/{rtpId}/cancellation</text><rect fill="#FFFFFF" filter="url(#f14bdrxwynhayw)" height="2331.8685" style="stroke:#CCCCCC;stroke-width:1.0416666666666667;" width="10.4167" x="748.4375" y="243.9779"/><rect fill="#FFFFFF" filter="url(#f14bdrxwynhayw)" height="615.2344" style="stroke:#CCCCCC;stroke-width:1.0416666666666667;" width="10.4167" x="1057.8125" y="431.3477"/><rect fill="#FFFFFF" filter="url(#f14bdrxwynhayw)" height="109.3099" style="stroke:#CCCCCC;stroke-width:1.0416666666666667;" width="10.4167" x="1357.8125" y="764.4531"/><rect fill="#FFFFFF" filter="url(#f14bdrxwynhayw)" height="49.9674" style="stroke:#CCCCCC;stroke-width:1.0416666666666667;" width="10.4167" x="1357.8125" y="1371.3542"/><rect fill="#FFFFFF" filter="url(#f14bdrxwynhayw)" height="173.8281" style="stroke:#CCCCCC;stroke-width:1.0416666666666667;" width="10.4167" x="1551.0417" y="540.6576"/><rect fill="#98FB98" filter="url(#f14bdrxwynhayw)" height="1952.9297" rx="4.1667" ry="4.1667" style="stroke:#2196F3;stroke-width:1.0416666666666667;" width="2126.0417" x="19.7917" y="615.625"/><path d="M19.7917,1242.2852 L2145.8333,1242.2852 L2145.8333,1830.4688 A4.1667,4.1667 0 0 1 2141.6667,1834.6354 L23.9583,1834.6354 A4.1667,4.1667 0 0 1 19.7917,1830.4688 L19.7917,1242.2852 " fill="#FFFFE0" style="stroke:none;stroke-width:1.0416666666666667;"/><path d="M19.7917,1834.6354 L2145.8333,1834.6354 L2145.8333,2263.5417 A4.1667,4.1667 0 0 1 2141.6667,2267.7083 L23.9583,2267.7083 A4.1667,4.1667 0 0 1 19.7917,2263.5417 L19.7917,1834.6354 " fill="#FFA500" style="stroke:none;stroke-width:1.0416666666666667;"/><path d="M19.7917,2267.7083 L2145.8333,2267.7083 L2145.8333,2564.388 A4.1667,4.1667 0 0 1 2141.6667,2568.5547 L23.9583,2568.5547 A4.1667,4.1667 0 0 1 19.7917,2564.388 L19.7917,2267.7083 " fill="#8B0000" style="stroke:none;stroke-width:1.0416666666666667;"/><rect fill="url(#g14bdrxwynhayw0)" filter="url(#f14bdrxwynhayw)" height="146.7773" rx="4.1667" ry="4.1667" style="stroke:#2196F3;stroke-width:1.0416666666666667;" width="839.5833" x="290.625" y="2312.4674"/><rect fill="url(#g14bdrxwynhayw0)" filter="url(#f14bdrxwynhayw)" height="87.4349" rx="4.1667" ry="4.1667" style="stroke:#2196F3;stroke-width:1.0416666666666667;" width="589.5833" x="290.625" y="2473.8281"/><line style="stroke:#CCCCCC;stroke-width:1.0416666666666667;stroke-dasharray:5.0,5.0;" x1="403.125" x2="403.125" y1="191.9271" y2="2586.263"/><line style="stroke:#CCCCCC;stroke-width:1.0416666666666667;stroke-dasharray:5.0,5.0;" x1="753.125" x2="753.125" y1="191.9271" y2="2586.263"/><line style="stroke:#CCCCCC;stroke-width:1.0416666666666667;stroke-dasharray:5.0,5.0;" x1="1062.5" x2="1062.5" y1="191.9271" y2="2586.263"/><line style="stroke:#CCCCCC;stroke-width:1.0416666666666667;stroke-dasharray:5.0,5.0;" x1="1363.0208" x2="1363.0208" y1="191.9271" y2="2586.263"/><line style="stroke:#CCCCCC;stroke-width:1.0416666666666667;stroke-dasharray:5.0,5.0;" x1="1555.7292" x2="1555.7292" y1="191.9271" y2="2586.263"/><line style="stroke:#CCCCCC;stroke-width:1.0416666666666667;stroke-dasharray:5.0,5.0;" x1="1702.6042" x2="1702.6042" y1="191.9271" y2="2586.263"/><text fill="#222222" font-family="Verdana" font-size="12.5" font-weight="bold" lengthAdjust="spacing" textLength="178.125" x="311.4583" y="178.5624">Payer's Service Provider</text><ellipse cx="403.6458" cy="99.2513" fill="url(#g14bdrxwynhayw1)" filter="url(#f14bdrxwynhayw)" rx="8.3333" ry="8.3333" style="stroke:#2196F3;stroke-width:1.0416666666666667;"/><path d="M403.6458,107.5846 L403.6458,135.7096 M390.1042,115.918 L417.1875,115.918 M403.6458,135.7096 L390.1042,151.3346 M403.6458,135.7096 L417.1875,151.3346 " fill="none" filter="url(#f14bdrxwynhayw)" style="stroke:#2196F3;stroke-width:1.0416666666666667;"/><text fill="#222222" font-family="Verdana" font-size="12.5" font-weight="bold" lengthAdjust="spacing" textLength="178.125" x="311.4583" y="2607.2408">Payer's Service Provider</text><ellipse cx="403.6458" cy="2629.9805" fill="url(#g14bdrxwynhayw1)" filter="url(#f14bdrxwynhayw)" rx="8.3333" ry="8.3333" style="stroke:#2196F3;stroke-width:1.0416666666666667;"/><path d="M403.6458,2638.3138 L403.6458,2666.4388 M390.1042,2646.6471 L417.1875,2646.6471 M403.6458,2666.4388 L390.1042,2682.0638 M403.6458,2666.4388 L417.1875,2682.0638 " fill="none" filter="url(#f14bdrxwynhayw)" style="stroke:#2196F3;stroke-width:1.0416666666666667;"/><rect fill="url(#g14bdrxwynhayw1)" filter="url(#f14bdrxwynhayw)" height="64.5182" rx="4.1667" ry="4.1667" style="stroke:#2196F3;stroke-width:1.0416666666666667;" width="145.8333" x="679.1667" y="123.2422"/><rect fill="#FFFFFF" height="3.6458" style="stroke:#FFFFFF;stroke-width:0.0;" width="3.6458" x="715.625" y="145.0846"/><text fill="#FFFFFF" font-family="Verdana" font-size="12.5" lengthAdjust="spacing" textLength="75" x="722.9167" y="152.5533">RTP Service</text><text fill="#FFFFFF" font-family="Verdana" font-size="12.5" lengthAdjust="spacing" textLength="110.4167" x="696.875" y="167.1041">(API/Controller)**</text><rect fill="url(#g14bdrxwynhayw1)" filter="url(#f14bdrxwynhayw)" height="64.5182" rx="4.1667" ry="4.1667" style="stroke:#2196F3;stroke-width:1.0416666666666667;" width="145.8333" x="679.1667" y="2585.2214"/><rect fill="#FFFFFF" height="3.6458" style="stroke:#FFFFFF;stroke-width:0.0;" width="3.6458" x="715.625" y="2607.0638"/><text fill="#FFFFFF" font-family="Verdana" font-size="12.5" lengthAdjust="spacing" textLength="75" x="722.9167" y="2614.5325">RTP Service</text><text fill="#FFFFFF" font-family="Verdana" font-size="12.5" lengthAdjust="spacing" textLength="110.4167" x="696.875" y="2629.0833">(API/Controller)**</text><rect fill="url(#g14bdrxwynhayw1)" filter="url(#f14bdrxwynhayw)" height="64.5182" rx="4.1667" ry="4.1667" style="stroke:#2196F3;stroke-width:1.0416666666666667;" width="164.5833" x="979.1667" y="123.2422"/><rect fill="#FFFFFF" height="3.6458" style="stroke:#FFFFFF;stroke-width:0.0;" width="3.6458" x="1006.25" y="145.0846"/><text fill="#FFFFFF" font-family="Verdana" font-size="12.5" lengthAdjust="spacing" textLength="112.5" x="1013.5417" y="152.5533">Send RTP Service</text><text fill="#FFFFFF" font-family="Verdana" font-size="12.5" lengthAdjust="spacing" textLength="118.75" x="1002.0833" y="167.1041">(Business Logic)**</text><rect fill="url(#g14bdrxwynhayw1)" filter="url(#f14bdrxwynhayw)" height="64.5182" rx="4.1667" ry="4.1667" style="stroke:#2196F3;stroke-width:1.0416666666666667;" width="164.5833" x="979.1667" y="2585.2214"/><rect fill="#FFFFFF" height="3.6458" style="stroke:#FFFFFF;stroke-width:0.0;" width="3.6458" x="1006.25" y="2607.0638"/><text fill="#FFFFFF" font-family="Verdana" font-size="12.5" lengthAdjust="spacing" textLength="112.5" x="1013.5417" y="2614.5325">Send RTP Service</text><text fill="#FFFFFF" font-family="Verdana" font-size="12.5" lengthAdjust="spacing" textLength="118.75" x="1002.0833" y="2629.0833">(Business Logic)**</text><rect fill="url(#g14bdrxwynhayw1)" filter="url(#f14bdrxwynhayw)" height="49.9674" rx="4.1667" ry="4.1667" style="stroke:#2196F3;stroke-width:1.0416666666666667;" width="180.2083" x="1271.3542" y="137.793"/><text fill="#FFFFFF" font-family="Verdana" font-size="12.5" font-weight="bold" lengthAdjust="spacing" textLength="144.7917" x="1289.0625" y="167.1041">RTP Status Updater</text><rect fill="url(#g14bdrxwynhayw1)" filter="url(#f14bdrxwynhayw)" height="49.9674" rx="4.1667" ry="4.1667" style="stroke:#2196F3;stroke-width:1.0416666666666667;" width="180.2083" x="1271.3542" y="2585.2214"/><text fill="#FFFFFF" font-family="Verdana" font-size="12.5" font-weight="bold" lengthAdjust="spacing" textLength="144.7917" x="1289.0625" y="2614.5325">RTP Status Updater</text><text fill="#222222" font-family="Verdana" font-size="12.5" font-weight="bold" lengthAdjust="spacing" textLength="71.875" x="1517.1875" y="178.5624">Database</text><path d="M1537.5,119.043 C1537.5,108.6263 1556.25,108.6263 1556.25,108.6263 C1556.25,108.6263 1575,108.6263 1575,119.043 L1575,146.1263 C1575,156.543 1556.25,156.543 1556.25,156.543 C1556.25,156.543 1537.5,156.543 1537.5,146.1263 L1537.5,119.043 " fill="url(#g14bdrxwynhayw1)" filter="url(#f14bdrxwynhayw)" style="stroke:#2196F3;stroke-width:1.5625;"/><path d="M1537.5,119.043 C1537.5,129.4596 1556.25,129.4596 1556.25,129.4596 C1556.25,129.4596 1575,129.4596 1575,119.043 " fill="none" style="stroke:#2196F3;stroke-width:1.5625;"/><text fill="#222222" font-family="Verdana" font-size="12.5" font-weight="bold" lengthAdjust="spacing" textLength="71.875" x="1517.1875" y="2607.2408">Database</text><path d="M1537.5,2631.0221 C1537.5,2620.6055 1556.25,2620.6055 1556.25,2620.6055 C1556.25,2620.6055 1575,2620.6055 1575,2631.0221 L1575,2658.1055 C1575,2668.5221 1556.25,2668.5221 1556.25,2668.5221 C1556.25,2668.5221 1537.5,2668.5221 1537.5,2658.1055 L1537.5,2631.0221 " fill="url(#g14bdrxwynhayw1)" filter="url(#f14bdrxwynhayw)" style="stroke:#2196F3;stroke-width:1.5625;"/><path d="M1537.5,2631.0221 C1537.5,2641.4388 1556.25,2641.4388 1556.25,2641.4388 C1556.25,2641.4388 1575,2641.4388 1575,2631.0221 " fill="none" style="stroke:#2196F3;stroke-width:1.5625;"/><path d="M1621.3542,146.1263 L1784.8958,146.1263 C1790.1042,146.1263 1790.1042,169.0267 1790.1042,169.0267 C1790.1042,169.0267 1790.1042,191.9271 1784.8958,191.9271 L1621.3542,191.9271 C1616.1458,191.9271 1616.1458,169.0267 1616.1458,169.0267 C1616.1458,169.0267 1616.1458,146.1263 1621.3542,146.1263 " fill="url(#g14bdrxwynhayw1)" filter="url(#f14bdrxwynhayw)" style="stroke:#2196F3;stroke-width:1.0416666666666667;"/><path d="M1784.8958,146.1263 C1779.6875,146.1263 1779.6875,169.0267 1779.6875,169.0267 C1779.6875,191.9271 1784.8958,191.9271 1784.8958,191.9271 " fill="none" style="stroke:#2196F3;stroke-width:1.0416666666666667;"/><text fill="#FFFFFF" font-family="Verdana" font-size="12.5" font-weight="bold" lengthAdjust="spacing" textLength="132.2917" x="1631.7708" y="173.3541">SP Debtor System</text><path d="M1621.3542,2585.2214 L1784.8958,2585.2214 C1790.1042,2585.2214 1790.1042,2608.1217 1790.1042,2608.1217 C1790.1042,2608.1217 1790.1042,2631.0221 1784.8958,2631.0221 L1621.3542,2631.0221 C1616.1458,2631.0221 1616.1458,2608.1217 1616.1458,2608.1217 C1616.1458,2608.1217 1616.1458,2585.2214 1621.3542,2585.2214 " fill="url(#g14bdrxwynhayw1)" filter="url(#f14bdrxwynhayw)" style="stroke:#2196F3;stroke-width:1.0416666666666667;"/><path d="M1784.8958,2585.2214 C1779.6875,2585.2214 1779.6875,2608.1217 1779.6875,2608.1217 C1779.6875,2631.0221 1784.8958,2631.0221 1784.8958,2631.0221 " fill="none" style="stroke:#2196F3;stroke-width:1.0416666666666667;"/><text fill="#FFFFFF" font-family="Verdana" font-size="12.5" font-weight="bold" lengthAdjust="spacing" textLength="132.2917" x="1631.7708" y="2612.4491">SP Debtor System</text><rect fill="#FFFFFF" filter="url(#f14bdrxwynhayw)" height="2331.8685" style="stroke:#CCCCCC;stroke-width:1.0416666666666667;" width="10.4167" x="748.4375" y="243.9779"/><rect fill="#FFFFFF" filter="url(#f14bdrxwynhayw)" height="615.2344" style="stroke:#CCCCCC;stroke-width:1.0416666666666667;" width="10.4167" x="1057.8125" y="431.3477"/><rect fill="#FFFFFF" filter="url(#f14bdrxwynhayw)" height="109.3099" style="stroke:#CCCCCC;stroke-width:1.0416666666666667;" width="10.4167" x="1357.8125" y="764.4531"/><rect fill="#FFFFFF" filter="url(#f14bdrxwynhayw)" height="49.9674" style="stroke:#CCCCCC;stroke-width:1.0416666666666667;" width="10.4167" x="1357.8125" y="1371.3542"/><rect fill="#FFFFFF" filter="url(#f14bdrxwynhayw)" height="173.8281" style="stroke:#CCCCCC;stroke-width:1.0416666666666667;" width="10.4167" x="1551.0417" y="540.6576"/><polygon fill="#2196F3" points="735.9375,239.8112,746.3542,243.9779,735.9375,248.1445,740.1042,243.9779" style="stroke:#2196F3;stroke-width:1.0416666666666667;"/><line style="stroke:#2196F3;stroke-width:3.125;" x1="403.6458" x2="742.1875" y1="243.9779" y2="243.9779"/><text fill="#222222" font-family="Verdana" font-size="12.5" font-weight="bold" lengthAdjust="spacing" textLength="18.75" x="421.3542" y="228.5299">[1]</text><text fill="#222222" font-family="Verdana" font-size="12.5" font-weight="bold" lengthAdjust="spacing" textLength="38.5417" x="465.1042" y="228.5299">POST</text><text fill="#222222" font-family="Verdana" font-size="12.5" lengthAdjust="spacing" textLength="164.5833" x="507.8125" y="228.5299">/rtps/{rtpId}/cancellation</text><line style="stroke:#2196F3;stroke-width:3.125;" x1="758.8542" x2="802.6042" y1="293.9453" y2="293.9453"/><line style="stroke:#2196F3;stroke-width:3.125;" x1="802.6042" x2="802.6042" y1="293.9453" y2="307.487"/><line style="stroke:#2196F3;stroke-width:3.125;" x1="759.8958" x2="802.6042" y1="307.487" y2="307.487"/><polygon fill="#2196F3" points="770.3125,303.3203,759.8958,307.487,770.3125,311.6536,766.1458,307.487" style="stroke:#2196F3;stroke-width:1.0416666666666667;"/><text fill="#222222" font-family="Verdana" font-size="12.5" font-weight="bold" lengthAdjust="spacing" textLength="18.75" x="776.5625" y="278.4973">[2]</text><text fill="#222222" font-family="Verdana" font-size="12.5" font-weight="bold" lengthAdjust="spacing" textLength="159.375" x="820.3125" y="278.4973">Security &amp; Role Check</text><path d="M763.5417,325.1953 L763.5417,376.237 A4.1667,4.1667 0 0 0 767.7083,380.4036 L1204.1667,380.4036 A4.1667,4.1667 0 0 0 1208.3333,376.237 L1208.3333,331.4453 L1197.9167,321.0286 L767.7083,321.0286 A4.1667,4.1667 0 0 0 763.5417,325.1953 " fill="url(#g14bdrxwynhayw2)" filter="url(#f14bdrxwynhayw)" style="stroke:#9C27B0;stroke-width:1.0416666666666667;"/><path d="M1197.9167,321.0286 L1197.9167,329.362 A2.0833,2.0833 0 0 0 1200,331.4453 L1208.3333,331.4453 L1197.9167,321.0286 " fill="url(#g14bdrxwynhayw2)" style="stroke:#9C27B0;stroke-width:1.0416666666666667;"/><text fill="#FFFFFF" font-family="Verdana" font-size="12.5" lengthAdjust="spacing" textLength="256.25" x="780.2083" y="348.2564">Framework validates token &amp; user role.</text><text fill="#FFFFFF" font-family="Verdana" font-size="12.5" lengthAdjust="spacing" textLength="402.0833" x="780.2083" y="362.8072">Corresponds to `@PreAuthorize("hasRole('write_rtp_send')")`.</text><polygon fill="#2196F3" points="1045.3125,427.181,1055.7292,431.3477,1045.3125,435.5143,1049.4792,431.3477" style="stroke:#2196F3;stroke-width:1.0416666666666667;"/><line style="stroke:#2196F3;stroke-width:3.125;" x1="758.8542" x2="1051.5625" y1="431.3477" y2="431.3477"/><text fill="#222222" font-family="Verdana" font-size="12.5" font-weight="bold" lengthAdjust="spacing" textLength="18.75" x="776.5625" y="415.8997">[3]</text><text fill="#222222" font-family="Verdana" font-size="12.5" lengthAdjust="spacing" textLength="143.75" x="820.3125" y="415.8997">`cancelRtpById(rtpId)`</text><path d="M763.5417,449.056 L763.5417,485.5143 A4.1667,4.1667 0 0 0 767.7083,489.681 L1068.75,489.681 A4.1667,4.1667 0 0 0 1072.9167,485.5143 L1072.9167,455.306 L1062.5,444.8893 L767.7083,444.8893 A4.1667,4.1667 0 0 0 763.5417,449.056 " fill="url(#g14bdrxwynhayw2)" filter="url(#f14bdrxwynhayw)" style="stroke:#9C27B0;stroke-width:1.0416666666666667;"/><path d="M1062.5,444.8893 L1062.5,453.2227 A2.0833,2.0833 0 0 0 1064.5833,455.306 L1072.9167,455.306 L1062.5,444.8893 " fill="url(#g14bdrxwynhayw2)" style="stroke:#9C27B0;stroke-width:1.0416666666666667;"/><text fill="#FFFFFF" font-family="Verdana" font-size="12.5" lengthAdjust="spacing" textLength="266.6667" x="780.2083" y="472.1171">Controller delegates to the service layer.</text><polygon fill="#2196F3" points="1538.5417,536.4909,1548.9583,540.6576,1538.5417,544.8242,1542.7083,540.6576" style="stroke:#2196F3;stroke-width:1.0416666666666667;"/><line style="stroke:#2196F3;stroke-width:3.125;" x1="1068.2292" x2="1544.7917" y1="540.6576" y2="540.6576"/><text fill="#222222" font-family="Verdana" font-size="12.5" font-weight="bold" lengthAdjust="spacing" textLength="18.75" x="1085.9375" y="525.2096">[4]</text><text fill="#222222" font-family="Verdana" font-size="12.5" lengthAdjust="spacing" textLength="90.625" x="1129.6875" y="525.2096">findById(rtpId)</text><path d="M1072.9167,558.3659 L1072.9167,594.8242 A4.1667,4.1667 0 0 0 1077.0833,598.9909 L1401.0417,598.9909 A4.1667,4.1667 0 0 0 1405.2083,594.8242 L1405.2083,564.6159 L1394.7917,554.1992 L1077.0833,554.1992 A4.1667,4.1667 0 0 0 1072.9167,558.3659 " fill="url(#g14bdrxwynhayw2)" filter="url(#f14bdrxwynhayw)" style="stroke:#9C27B0;stroke-width:1.0416666666666667;"/><path d="M1394.7917,554.1992 L1394.7917,562.5326 A2.0833,2.0833 0 0 0 1396.875,564.6159 L1405.2083,564.6159 L1394.7917,554.1992 " fill="url(#g14bdrxwynhayw2)" style="stroke:#9C27B0;stroke-width:1.0416666666666667;"/><text fill="#FFFFFF" font-family="Verdana" font-size="12.5" lengthAdjust="spacing" textLength="289.5833" x="1089.5833" y="581.427">Service must first retrieve the RTP to cancel.</text><path d="M23.9583,615.625 L107.2917,615.625 L107.2917,642.6758 L96.875,653.0924 L19.7917,653.0924 L19.7917,619.7917 A4.1667,4.1667 0 0 1 23.9583,615.625 " fill="#FFFFFF" style="stroke:#666666;stroke-width:1.0416666666666667;"/><rect fill="none" height="1952.9297" rx="4.1667" ry="4.1667" style="stroke:#2196F3;stroke-width:1.0416666666666667;" width="2126.0417" x="19.7917" y="615.625"/><text fill="#9C27B0" font-family="Verdana" font-size="12.5" font-weight="bold" lengthAdjust="spacing" textLength="19.7917" x="45.8333" y="638.6861">alt</text><text fill="#222222" font-family="Verdana" font-size="12.5" font-weight="bold" lengthAdjust="spacing" textLength="5.2083" x="133.3333" y="639.7278">[</text><text fill="#222222" font-family="Verdana" font-size="12.5" font-weight="bold" lengthAdjust="spacing" textLength="239.5833" x="138.5417" y="639.7278">Success Case: Cancellation Sent</text><text fill="#222222" font-family="Verdana" font-size="12.5" font-weight="bold" lengthAdjust="spacing" textLength="5.2083" x="378.125" y="639.7278">]</text><polygon fill="#2196F3" points="1079.6875,710.319,1069.2708,714.4857,1079.6875,718.6523,1075.5208,714.4857" style="stroke:#2196F3;stroke-width:1.0416666666666667;"/><line style="stroke:#2196F3;stroke-width:3.125;stroke-dasharray:2.0,2.0;" x1="1073.4375" x2="1555.2083" y1="714.4857" y2="714.4857"/><text fill="#222222" font-family="Verdana" font-size="12.5" font-weight="bold" lengthAdjust="spacing" textLength="18.75" x="1096.3542" y="699.0377">[5]</text><text fill="#222222" font-family="Verdana" font-size="12.5" lengthAdjust="spacing" textLength="110.4167" x="1140.1042" y="699.0377">Rtp record found</text><polygon fill="#2196F3" points="1345.3125,760.2865,1355.7292,764.4531,1345.3125,768.6198,1349.4792,764.4531" style="stroke:#2196F3;stroke-width:1.0416666666666667;"/><line style="stroke:#2196F3;stroke-width:3.125;" x1="1068.2292" x2="1351.5625" y1="764.4531" y2="764.4531"/><text fill="#222222" font-family="Verdana" font-size="12.5" font-weight="bold" lengthAdjust="spacing" textLength="18.75" x="1085.9375" y="749.0051">[6]</text><text fill="#222222" font-family="Verdana" font-size="12.5" lengthAdjust="spacing" textLength="112.5" x="1129.6875" y="749.0051">`canCancel(Rtp)`</text><path d="M1072.9167,782.1615 L1072.9167,818.6198 A4.1667,4.1667 0 0 0 1077.0833,822.7865 L1437.5,822.7865 A4.1667,4.1667 0 0 0 1441.6667,818.6198 L1441.6667,788.4115 L1431.25,777.9948 L1077.0833,777.9948 A4.1667,4.1667 0 0 0 1072.9167,782.1615 " fill="url(#g14bdrxwynhayw2)" filter="url(#f14bdrxwynhayw)" style="stroke:#9C27B0;stroke-width:1.0416666666666667;"/><path d="M1431.25,777.9948 L1431.25,786.3281 A2.0833,2.0833 0 0 0 1433.3333,788.4115 L1441.6667,788.4115 L1431.25,777.9948 " fill="url(#g14bdrxwynhayw2)" style="stroke:#9C27B0;stroke-width:1.0416666666666667;"/><text fill="#FFFFFF" font-family="Verdana" font-size="12.5" lengthAdjust="spacing" textLength="326.0417" x="1089.5833" y="805.2226">Service checks if the RTP is in a cancellable state.</text><polygon fill="#2196F3" points="1079.6875,869.5964,1069.2708,873.763,1079.6875,877.9297,1075.5208,873.763" style="stroke:#2196F3;stroke-width:1.0416666666666667;"/><line style="stroke:#2196F3;stroke-width:3.125;stroke-dasharray:2.0,2.0;" x1="1073.4375" x2="1361.9792" y1="873.763" y2="873.763"/><text fill="#222222" font-family="Verdana" font-size="12.5" font-weight="bold" lengthAdjust="spacing" textLength="18.75" x="1096.3542" y="858.315">[7]</text><text fill="#222222" font-family="Verdana" font-size="12.5" lengthAdjust="spacing" textLength="39.5833" x="1140.1042" y="858.315">`true`</text><line style="stroke:#2196F3;stroke-width:3.125;" x1="1068.2292" x2="1111.9792" y1="923.7305" y2="923.7305"/><line style="stroke:#2196F3;stroke-width:3.125;" x1="1111.9792" x2="1111.9792" y1="923.7305" y2="937.2721"/><line style="stroke:#2196F3;stroke-width:3.125;" x1="1069.2708" x2="1111.9792" y1="937.2721" y2="937.2721"/><polygon fill="#2196F3" points="1079.6875,933.1055,1069.2708,937.2721,1079.6875,941.4388,1075.5208,937.2721" style="stroke:#2196F3;stroke-width:1.0416666666666667;"/><text fill="#222222" font-family="Verdana" font-size="12.5" font-weight="bold" lengthAdjust="spacing" textLength="18.75" x="1085.9375" y="908.2825">[8]</text><text fill="#222222" font-family="Verdana" font-size="12.5" lengthAdjust="spacing" textLength="210.4167" x="1129.6875" y="908.2825">Map Rtp to SEPA cancel request</text><path d="M1362.5,893.5547 L1362.5,930.013 A4.1667,4.1667 0 0 0 1366.6667,934.1797 L1811.4583,934.1797 A4.1667,4.1667 0 0 0 1815.625,930.013 L1815.625,899.8047 L1805.2083,889.388 L1366.6667,889.388 A4.1667,4.1667 0 0 0 1362.5,893.5547 " fill="url(#g14bdrxwynhayw2)" filter="url(#f14bdrxwynhayw)" style="stroke:#9C27B0;stroke-width:1.0416666666666667;"/><path d="M1805.2083,889.388 L1805.2083,897.7214 A2.0833,2.0833 0 0 0 1807.2917,899.8047 L1815.625,899.8047 L1805.2083,889.388 " fill="url(#g14bdrxwynhayw2)" style="stroke:#9C27B0;stroke-width:1.0416666666666667;"/><text fill="#FFFFFF" font-family="Verdana" font-size="12.5" lengthAdjust="spacing" textLength="410.4167" x="1379.1667" y="916.6158">As per `sepaRequestToPayMapper.toEpcRequestToCancel(...)`</text><polygon fill="#2196F3" points="1690.625,987.7604,1701.0417,991.9271,1690.625,996.0938,1694.7917,991.9271" style="stroke:#2196F3;stroke-width:1.0416666666666667;"/><line style="stroke:#2196F3;stroke-width:3.125;" x1="1068.2292" x2="1696.875" y1="991.9271" y2="991.9271"/><text fill="#222222" font-family="Verdana" font-size="12.5" font-weight="bold" lengthAdjust="spacing" textLength="18.75" x="1085.9375" y="976.4791">[9]</text><text fill="#222222" font-family="Verdana" font-size="12.5" lengthAdjust="spacing" textLength="208.3333" x="1129.6875" y="976.4791">Send RTP Cancellation Message</text><path d="M1708.3333,954.9805 L1708.3333,991.4388 A4.1667,4.1667 0 0 0 1712.5,995.6055 L2122.9167,995.6055 A4.1667,4.1667 0 0 0 2127.0833,991.4388 L2127.0833,961.2305 L2116.6667,950.8138 L1712.5,950.8138 A4.1667,4.1667 0 0 0 1708.3333,954.9805 " fill="url(#g14bdrxwynhayw2)" filter="url(#f14bdrxwynhayw)" style="stroke:#9C27B0;stroke-width:1.0416666666666667;"/><path d="M2116.6667,950.8138 L2116.6667,959.1471 A2.0833,2.0833 0 0 0 2118.75,961.2305 L2127.0833,961.2305 L2116.6667,950.8138 " fill="url(#g14bdrxwynhayw2)" style="stroke:#9C27B0;stroke-width:1.0416666666666667;"/><text fill="#FFFFFF" font-family="Verdana" font-size="12.5" lengthAdjust="spacing" textLength="376.0417" x="1725" y="978.0416">As per `sendRtpCancellationToServiceProviderDebtor(...)`</text><polygon fill="#2196F3" points="770.3125,1042.4154,759.8958,1046.582,770.3125,1050.7487,766.1458,1046.582" style="stroke:#2196F3;stroke-width:1.0416666666666667;"/><line style="stroke:#2196F3;stroke-width:3.125;stroke-dasharray:2.0,2.0;" x1="764.0625" x2="1061.9792" y1="1046.582" y2="1046.582"/><text fill="#222222" font-family="Verdana" font-size="12.5" font-weight="bold" lengthAdjust="spacing" textLength="27.0833" x="786.9792" y="1031.134">[10]</text><text fill="#222222" font-family="Verdana" font-size="12.5" lengthAdjust="spacing" textLength="90.625" x="839.0625" y="1031.134">`Mono&lt;Rtp&gt;`</text><line style="stroke:#2196F3;stroke-width:3.125;" x1="758.8542" x2="802.6042" y1="1096.5495" y2="1096.5495"/><line style="stroke:#2196F3;stroke-width:3.125;" x1="802.6042" x2="802.6042" y1="1096.5495" y2="1110.0911"/><line style="stroke:#2196F3;stroke-width:3.125;" x1="759.8958" x2="802.6042" y1="1110.0911" y2="1110.0911"/><polygon fill="#2196F3" points="770.3125,1105.9245,759.8958,1110.0911,770.3125,1114.2578,766.1458,1110.0911" style="stroke:#2196F3;stroke-width:1.0416666666666667;"/><text fill="#222222" font-family="Verdana" font-size="12.5" font-weight="bold" lengthAdjust="spacing" textLength="27.0833" x="776.5625" y="1081.1015">[11]</text><text fill="#222222" font-family="Verdana" font-size="12.5" lengthAdjust="spacing" textLength="183.3333" x="828.6458" y="1081.1015">Map result to final response</text><polygon fill="#2196F3" points="415.1042,1155.8919,404.6875,1160.0586,415.1042,1164.2253,410.9375,1160.0586" style="stroke:#2196F3;stroke-width:1.0416666666666667;"/><line style="stroke:#2196F3;stroke-width:3.125;stroke-dasharray:2.0,2.0;" x1="408.8542" x2="747.3958" y1="1160.0586" y2="1160.0586"/><text fill="#222222" font-family="Verdana" font-size="12.5" font-weight="bold" lengthAdjust="spacing" textLength="27.0833" x="431.7708" y="1144.6106">[12]</text><text fill="#222222" font-family="Verdana" font-size="12.5" font-weight="bold" lengthAdjust="spacing" textLength="112.5" x="483.8542" y="1144.6106">204 No Content</text><path d="M78.125,1177.7669 L78.125,1228.8086 A4.1667,4.1667 0 0 0 82.2917,1232.9753 L390.625,1232.9753 A4.1667,4.1667 0 0 0 394.7917,1228.8086 L394.7917,1184.0169 L384.375,1173.6003 L82.2917,1173.6003 A4.1667,4.1667 0 0 0 78.125,1177.7669 " fill="url(#g14bdrxwynhayw2)" filter="url(#f14bdrxwynhayw)" style="stroke:#9C27B0;stroke-width:1.0416666666666667;"/><path d="M384.375,1173.6003 L384.375,1181.9336 A2.0833,2.0833 0 0 0 386.4583,1184.0169 L394.7917,1184.0169 L384.375,1173.6003 " fill="url(#g14bdrxwynhayw2)" style="stroke:#9C27B0;stroke-width:1.0416666666666667;"/><text fill="#FFFFFF" font-family="Verdana" font-size="12.5" lengthAdjust="spacing" textLength="273.9583" x="94.7917" y="1200.828">The cancellation request was successfully</text><text fill="#FFFFFF" font-family="Verdana" font-size="12.5" lengthAdjust="spacing" textLength="135.4167" x="94.7917" y="1215.3788">processed and sent.</text><line style="stroke:#2196F3;stroke-width:1.0416666666666667;stroke-dasharray:2.0,2.0;" x1="19.7917" x2="2145.8333" y1="1243.3268" y2="1243.3268"/><text fill="#222222" font-family="Verdana" font-size="12.5" font-weight="bold" lengthAdjust="spacing" textLength="5.2083" x="35.4167" y="1265.3463">[</text><text fill="#222222" font-family="Verdana" font-size="12.5" font-weight="bold" lengthAdjust="spacing" textLength="203.125" x="40.625" y="1265.3463">Error: Unprocessable Entity</text><text fill="#222222" font-family="Verdana" font-size="12.5" font-weight="bold" lengthAdjust="spacing" textLength="5.2083" x="243.75" y="1265.3463">]</text><polygon fill="#2196F3" points="1074.4792,1317.2201,1064.0625,1321.3867,1074.4792,1325.5534,1070.3125,1321.3867" style="stroke:#2196F3;stroke-width:1.0416666666666667;"/><line style="stroke:#2196F3;stroke-width:3.125;stroke-dasharray:2.0,2.0;" x1="1068.2292" x2="1555.2083" y1="1321.3867" y2="1321.3867"/><text fill="#222222" font-family="Verdana" font-size="12.5" font-weight="bold" lengthAdjust="spacing" textLength="27.0833" x="1091.1458" y="1305.9387">[13]</text><text fill="#222222" font-family="Verdana" font-size="12.5" lengthAdjust="spacing" textLength="110.4167" x="1143.2292" y="1305.9387">Rtp record found</text><polygon fill="#2196F3" points="1345.3125,1367.1875,1355.7292,1371.3542,1345.3125,1375.5208,1349.4792,1371.3542" style="stroke:#2196F3;stroke-width:1.0416666666666667;"/><line style="stroke:#2196F3;stroke-width:3.125;" x1="1063.0208" x2="1351.5625" y1="1371.3542" y2="1371.3542"/><text fill="#222222" font-family="Verdana" font-size="12.5" font-weight="bold" lengthAdjust="spacing" textLength="27.0833" x="1080.7292" y="1355.9062">[14]</text><text fill="#222222" font-family="Verdana" font-size="12.5" lengthAdjust="spacing" textLength="112.5" x="1132.8125" y="1355.9062">`canCancel(Rtp)`</text><polygon fill="#2196F3" points="1074.4792,1417.1549,1064.0625,1421.3216,1074.4792,1425.4883,1070.3125,1421.3216" style="stroke:#2196F3;stroke-width:1.0416666666666667;"/><line style="stroke:#2196F3;stroke-width:3.125;stroke-dasharray:2.0,2.0;" x1="1068.2292" x2="1361.9792" y1="1421.3216" y2="1421.3216"/><text fill="#222222" font-family="Verdana" font-size="12.5" font-weight="bold" lengthAdjust="spacing" textLength="27.0833" x="1091.1458" y="1405.8736">[15]</text><text fill="#222222" font-family="Verdana" font-size="12.5" lengthAdjust="spacing" textLength="43.75" x="1143.2292" y="1405.8736">`false`</text><line style="stroke:#2196F3;stroke-width:3.125;" x1="1063.0208" x2="1106.7708" y1="1471.2891" y2="1471.2891"/><line style="stroke:#2196F3;stroke-width:3.125;" x1="1106.7708" x2="1106.7708" y1="1471.2891" y2="1484.8307"/><line style="stroke:#2196F3;stroke-width:3.125;" x1="1064.0625" x2="1106.7708" y1="1484.8307" y2="1484.8307"/><polygon fill="#2196F3" points="1074.4792,1480.6641,1064.0625,1484.8307,1074.4792,1488.9974,1070.3125,1484.8307" style="stroke:#2196F3;stroke-width:1.0416666666666667;"/><text fill="#222222" font-family="Verdana" font-size="12.5" font-weight="bold" lengthAdjust="spacing" textLength="27.0833" x="1080.7292" y="1455.8411">[16]</text><text fill="#222222" font-family="Verdana" font-size="12.5" lengthAdjust="spacing" textLength="191.6667" x="1132.8125" y="1455.8411">Throw `IllegalStateException`</text><path d="M1067.7083,1502.5391 L1067.7083,1538.9974 A4.1667,4.1667 0 0 0 1071.875,1543.1641 L1392.7083,1543.1641 A4.1667,4.1667 0 0 0 1396.875,1538.9974 L1396.875,1508.7891 L1386.4583,1498.3724 L1071.875,1498.3724 A4.1667,4.1667 0 0 0 1067.7083,1502.5391 " fill="url(#g14bdrxwynhayw2)" filter="url(#f14bdrxwynhayw)" style="stroke:#9C27B0;stroke-width:1.0416666666666667;"/><path d="M1386.4583,1498.3724 L1386.4583,1506.7057 A2.0833,2.0833 0 0 0 1388.5417,1508.7891 L1396.875,1508.7891 L1386.4583,1498.3724 " fill="url(#g14bdrxwynhayw2)" style="stroke:#9C27B0;stroke-width:1.0416666666666667;"/><text fill="#FFFFFF" font-family="Verdana" font-size="12.5" lengthAdjust="spacing" textLength="286.4583" x="1084.375" y="1525.6002">As per `.switchIfEmpty(...)` check on status.</text><polygon fill="#2196F3" points="770.3125,1589.974,759.8958,1594.1406,770.3125,1598.3073,766.1458,1594.1406" style="stroke:#2196F3;stroke-width:1.0416666666666667;"/><line style="stroke:#2196F3;stroke-width:3.125;stroke-dasharray:2.0,2.0;" x1="764.0625" x2="1061.9792" y1="1594.1406" y2="1594.1406"/><text fill="#222222" font-family="Verdana" font-size="12.5" font-weight="bold" lengthAdjust="spacing" textLength="27.0833" x="786.9792" y="1578.6926">[17]</text><text fill="#222222" font-family="Verdana" font-size="12.5" lengthAdjust="spacing" textLength="189.5833" x="839.0625" y="1578.6926">Error: `IllegalStateException`</text><line style="stroke:#2196F3;stroke-width:3.125;" x1="758.8542" x2="802.6042" y1="1644.1081" y2="1644.1081"/><line style="stroke:#2196F3;stroke-width:3.125;" x1="802.6042" x2="802.6042" y1="1644.1081" y2="1657.6497"/><line style="stroke:#2196F3;stroke-width:3.125;" x1="759.8958" x2="802.6042" y1="1657.6497" y2="1657.6497"/><polygon fill="#2196F3" points="770.3125,1653.4831,759.8958,1657.6497,770.3125,1661.8164,766.1458,1657.6497" style="stroke:#2196F3;stroke-width:1.0416666666666667;"/><text fill="#222222" font-family="Verdana" font-size="12.5" font-weight="bold" lengthAdjust="spacing" textLength="27.0833" x="776.5625" y="1628.6601">[18]</text><text fill="#222222" font-family="Verdana" font-size="12.5" lengthAdjust="spacing" textLength="198.9583" x="828.6458" y="1628.6601">Handle `IllegalStateException`</text><path d="M763.5417,1675.3581 L763.5417,1711.8164 A4.1667,4.1667 0 0 0 767.7083,1715.9831 L1162.5,1715.9831 A4.1667,4.1667 0 0 0 1166.6667,1711.8164 L1166.6667,1681.6081 L1156.25,1671.1914 L767.7083,1671.1914 A4.1667,4.1667 0 0 0 763.5417,1675.3581 " fill="url(#g14bdrxwynhayw2)" filter="url(#f14bdrxwynhayw)" style="stroke:#9C27B0;stroke-width:1.0416666666666667;"/><path d="M1156.25,1671.1914 L1156.25,1679.5247 A2.0833,2.0833 0 0 0 1158.3333,1681.6081 L1166.6667,1681.6081 L1156.25,1671.1914 " fill="url(#g14bdrxwynhayw2)" style="stroke:#9C27B0;stroke-width:1.0416666666666667;"/><text fill="#FFFFFF" font-family="Verdana" font-size="12.5" lengthAdjust="spacing" textLength="360.4167" x="780.2083" y="1698.4192">As per `.onErrorReturn(IllegalStateException.class, ...)`</text><polygon fill="#2196F3" points="415.1042,1762.793,404.6875,1766.9596,415.1042,1771.1263,410.9375,1766.9596" style="stroke:#2196F3;stroke-width:1.0416666666666667;"/><line style="stroke:#2196F3;stroke-width:3.125;stroke-dasharray:2.0,2.0;" x1="408.8542" x2="747.3958" y1="1766.9596" y2="1766.9596"/><text fill="#222222" font-family="Verdana" font-size="12.5" font-weight="bold" lengthAdjust="spacing" textLength="27.0833" x="431.7708" y="1751.5116">[19]</text><text fill="#222222" font-family="Verdana" font-size="12.5" font-weight="bold" lengthAdjust="spacing" textLength="186.4583" x="483.8542" y="1751.5116">422 Unprocessable Entity</text><path d="M30.2083,1784.668 L30.2083,1821.1263 A4.1667,4.1667 0 0 0 34.375,1825.293 L390.625,1825.293 A4.1667,4.1667 0 0 0 394.7917,1821.1263 L394.7917,1790.918 L384.375,1780.5013 L34.375,1780.5013 A4.1667,4.1667 0 0 0 30.2083,1784.668 " fill="url(#g14bdrxwynhayw2)" filter="url(#f14bdrxwynhayw)" style="stroke:#9C27B0;stroke-width:1.0416666666666667;"/><path d="M384.375,1780.5013 L384.375,1788.8346 A2.0833,2.0833 0 0 0 386.4583,1790.918 L394.7917,1790.918 L384.375,1780.5013 " fill="url(#g14bdrxwynhayw2)" style="stroke:#9C27B0;stroke-width:1.0416666666666667;"/><text fill="#FFFFFF" font-family="Verdana" font-size="12.5" lengthAdjust="spacing" textLength="321.875" x="46.875" y="1807.7291">The RTP is not in a state that allows cancellation.</text><line style="stroke:#2196F3;stroke-width:1.0416666666666667;stroke-dasharray:2.0,2.0;" x1="19.7917" x2="2145.8333" y1="1835.6771" y2="1835.6771"/><text fill="#222222" font-family="Verdana" font-size="12.5" font-weight="bold" lengthAdjust="spacing" textLength="5.2083" x="35.4167" y="1857.6965">[</text><text fill="#222222" font-family="Verdana" font-size="12.5" font-weight="bold" lengthAdjust="spacing" textLength="121.875" x="40.625" y="1857.6965">Error: Not Found</text><text fill="#222222" font-family="Verdana" font-size="12.5" font-weight="bold" lengthAdjust="spacing" textLength="5.2083" x="162.5" y="1857.6965">]</text><polygon fill="#2196F3" points="1074.4792,1909.5703,1064.0625,1913.737,1074.4792,1917.9036,1070.3125,1913.737" style="stroke:#2196F3;stroke-width:1.0416666666666667;"/><line style="stroke:#2196F3;stroke-width:3.125;stroke-dasharray:2.0,2.0;" x1="1068.2292" x2="1555.2083" y1="1913.737" y2="1913.737"/><text fill="#222222" font-family="Verdana" font-size="12.5" font-weight="bold" lengthAdjust="spacing" textLength="27.0833" x="1091.1458" y="1898.289">[20]</text><text fill="#222222" font-family="Verdana" font-size="12.5" lengthAdjust="spacing" textLength="39.5833" x="1143.2292" y="1898.289">empty</text><line style="stroke:#2196F3;stroke-width:3.125;" x1="1063.0208" x2="1106.7708" y1="1963.7044" y2="1963.7044"/><line style="stroke:#2196F3;stroke-width:3.125;" x1="1106.7708" x2="1106.7708" y1="1963.7044" y2="1977.2461"/><line style="stroke:#2196F3;stroke-width:3.125;" x1="1064.0625" x2="1106.7708" y1="1977.2461" y2="1977.2461"/><polygon fill="#2196F3" points="1074.4792,1973.0794,1064.0625,1977.2461,1074.4792,1981.4128,1070.3125,1977.2461" style="stroke:#2196F3;stroke-width:1.0416666666666667;"/><text fill="#222222" font-family="Verdana" font-size="12.5" font-weight="bold" lengthAdjust="spacing" textLength="27.0833" x="1080.7292" y="1948.2564">[21]</text><text fill="#222222" font-family="Verdana" font-size="12.5" lengthAdjust="spacing" textLength="204.1667" x="1132.8125" y="1948.2564">Throw `RtpNotFoundException`</text><polygon fill="#2196F3" points="770.3125,2023.0469,759.8958,2027.2135,770.3125,2031.3802,766.1458,2027.2135" style="stroke:#2196F3;stroke-width:1.0416666666666667;"/><line style="stroke:#2196F3;stroke-width:3.125;stroke-dasharray:2.0,2.0;" x1="764.0625" x2="1061.9792" y1="2027.2135" y2="2027.2135"/><text fill="#222222" font-family="Verdana" font-size="12.5" font-weight="bold" lengthAdjust="spacing" textLength="27.0833" x="786.9792" y="2011.7655">[22]</text><text fill="#222222" font-family="Verdana" font-size="12.5" lengthAdjust="spacing" textLength="202.0833" x="839.0625" y="2011.7655">Error: `RtpNotFoundException`</text><line style="stroke:#2196F3;stroke-width:3.125;" x1="758.8542" x2="802.6042" y1="2077.181" y2="2077.181"/><line style="stroke:#2196F3;stroke-width:3.125;" x1="802.6042" x2="802.6042" y1="2077.181" y2="2090.7227"/><line style="stroke:#2196F3;stroke-width:3.125;" x1="759.8958" x2="802.6042" y1="2090.7227" y2="2090.7227"/><polygon fill="#2196F3" points="770.3125,2086.556,759.8958,2090.7227,770.3125,2094.8893,766.1458,2090.7227" style="stroke:#2196F3;stroke-width:1.0416666666666667;"/><text fill="#222222" font-family="Verdana" font-size="12.5" font-weight="bold" lengthAdjust="spacing" textLength="27.0833" x="776.5625" y="2061.733">[23]</text><text fill="#222222" font-family="Verdana" font-size="12.5" lengthAdjust="spacing" textLength="211.4583" x="828.6458" y="2061.733">Handle `RtpNotFoundException`</text><path d="M763.5417,2108.431 L763.5417,2144.8893 A4.1667,4.1667 0 0 0 767.7083,2149.056 L1175,2149.056 A4.1667,4.1667 0 0 0 1179.1667,2144.8893 L1179.1667,2114.681 L1168.75,2104.2643 L767.7083,2104.2643 A4.1667,4.1667 0 0 0 763.5417,2108.431 " fill="url(#g14bdrxwynhayw2)" filter="url(#f14bdrxwynhayw)" style="stroke:#9C27B0;stroke-width:1.0416666666666667;"/><path d="M1168.75,2104.2643 L1168.75,2112.5977 A2.0833,2.0833 0 0 0 1170.8333,2114.681 L1179.1667,2114.681 L1168.75,2104.2643 " fill="url(#g14bdrxwynhayw2)" style="stroke:#9C27B0;stroke-width:1.0416666666666667;"/><text fill="#FFFFFF" font-family="Verdana" font-size="12.5" lengthAdjust="spacing" textLength="372.9167" x="780.2083" y="2131.4921">As per `.onErrorReturn(RtpNotFoundException.class, ...)`</text><polygon fill="#2196F3" points="415.1042,2195.8659,404.6875,2200.0326,415.1042,2204.1992,410.9375,2200.0326" style="stroke:#2196F3;stroke-width:1.0416666666666667;"/><line style="stroke:#2196F3;stroke-width:3.125;stroke-dasharray:2.0,2.0;" x1="408.8542" x2="747.3958" y1="2200.0326" y2="2200.0326"/><text fill="#222222" font-family="Verdana" font-size="12.5" font-weight="bold" lengthAdjust="spacing" textLength="27.0833" x="431.7708" y="2184.5846">[24]</text><text fill="#222222" font-family="Verdana" font-size="12.5" font-weight="bold" lengthAdjust="spacing" textLength="105.2083" x="483.8542" y="2184.5846">404 Not Found</text><path d="M105.2083,2217.7409 L105.2083,2254.1992 A4.1667,4.1667 0 0 0 109.375,2258.3659 L390.625,2258.3659 A4.1667,4.1667 0 0 0 394.7917,2254.1992 L394.7917,2223.9909 L384.375,2213.5742 L109.375,2213.5742 A4.1667,4.1667 0 0 0 105.2083,2217.7409 " fill="url(#g14bdrxwynhayw2)" filter="url(#f14bdrxwynhayw)" style="stroke:#9C27B0;stroke-width:1.0416666666666667;"/><path d="M384.375,2213.5742 L384.375,2221.9076 A2.0833,2.0833 0 0 0 386.4583,2223.9909 L394.7917,2223.9909 L384.375,2213.5742 " fill="url(#g14bdrxwynhayw2)" style="stroke:#9C27B0;stroke-width:1.0416666666666667;"/><text fill="#FFFFFF" font-family="Verdana" font-size="12.5" lengthAdjust="spacing" textLength="246.875" x="121.875" y="2240.802">The specified RTP could not be found.</text><line style="stroke:#2196F3;stroke-width:1.0416666666666667;stroke-dasharray:2.0,2.0;" x1="19.7917" x2="2145.8333" y1="2268.75" y2="2268.75"/><text fill="#222222" font-family="Verdana" font-size="12.5" font-weight="bold" lengthAdjust="spacing" textLength="5.2083" x="35.4167" y="2290.7694">[</text><text fill="#222222" font-family="Verdana" font-size="12.5" font-weight="bold" lengthAdjust="spacing" textLength="91.6667" x="40.625" y="2290.7694">Other Errors</text><text fill="#222222" font-family="Verdana" font-size="12.5" font-weight="bold" lengthAdjust="spacing" textLength="5.2083" x="132.2917" y="2290.7694">]</text><path d="M294.7917,2312.4674 L581.25,2312.4674 L581.25,2339.5182 L570.8333,2349.9349 L290.625,2349.9349 L290.625,2316.6341 A4.1667,4.1667 0 0 1 294.7917,2312.4674 " fill="#FFFFFF" style="stroke:#666666;stroke-width:1.0416666666666667;"/><rect fill="none" height="146.7773" rx="4.1667" ry="4.1667" style="stroke:#2196F3;stroke-width:1.0416666666666667;" width="839.5833" x="290.625" y="2312.4674"/><text fill="#9C27B0" font-family="Verdana" font-size="12.5" font-weight="bold" lengthAdjust="spacing" textLength="222.9167" x="316.6667" y="2335.5286">Authentication / Authorization</text><polygon fill="#2196F3" points="415.1042,2387.4023,404.6875,2391.569,415.1042,2395.7357,410.9375,2391.569" style="stroke:#2196F3;stroke-width:1.0416666666666667;"/><line style="stroke:#2196F3;stroke-width:3.125;stroke-dasharray:2.0,2.0;" x1="408.8542" x2="747.3958" y1="2391.569" y2="2391.569"/><text fill="#222222" font-family="Verdana" font-size="12.5" font-weight="bold" lengthAdjust="spacing" textLength="27.0833" x="431.7708" y="2376.121">[25]</text><text fill="#222222" font-family="Verdana" font-size="12.5" font-weight="bold" lengthAdjust="spacing" textLength="130.2083" x="483.8542" y="2376.121">401 Unauthorized</text><text fill="#222222" font-family="Verdana" font-size="12.5" lengthAdjust="spacing" textLength="4.1667" x="618.2292" y="2376.121">/</text><text fill="#222222" font-family="Verdana" font-size="12.5" font-weight="bold" lengthAdjust="spacing" textLength="104.1667" x="626.5625" y="2376.121">403 Forbidden</text><path d="M763.5417,2409.2773 L763.5417,2445.7357 A4.1667,4.1667 0 0 0 767.7083,2449.9023 L1112.5,2449.9023 A4.1667,4.1667 0 0 0 1116.6667,2445.7357 L1116.6667,2415.5273 L1106.25,2405.1107 L767.7083,2405.1107 A4.1667,4.1667 0 0 0 763.5417,2409.2773 " fill="url(#g14bdrxwynhayw2)" filter="url(#f14bdrxwynhayw)" style="stroke:#9C27B0;stroke-width:1.0416666666666667;"/><path d="M1106.25,2405.1107 L1106.25,2413.444 A2.0833,2.0833 0 0 0 1108.3333,2415.5273 L1116.6667,2415.5273 L1106.25,2405.1107 " fill="url(#g14bdrxwynhayw2)" style="stroke:#9C27B0;stroke-width:1.0416666666666667;"/><text fill="#FFFFFF" font-family="Verdana" font-size="12.5" lengthAdjust="spacing" textLength="310.4167" x="780.2083" y="2432.3385">Occurs if the initial `@PreAuthorize` check fails.</text><path d="M294.7917,2473.8281 L484.375,2473.8281 L484.375,2500.8789 L473.9583,2511.2956 L290.625,2511.2956 L290.625,2477.9948 A4.1667,4.1667 0 0 1 294.7917,2473.8281 " fill="#FFFFFF" style="stroke:#666666;stroke-width:1.0416666666666667;"/><rect fill="none" height="87.4349" rx="4.1667" ry="4.1667" style="stroke:#2196F3;stroke-width:1.0416666666666667;" width="589.5833" x="290.625" y="2473.8281"/><text fill="#9C27B0" font-family="Verdana" font-size="12.5" font-weight="bold" lengthAdjust="spacing" textLength="126.0417" x="316.6667" y="2496.8892">Server-Side Error</text><polygon fill="#2196F3" points="415.1042,2548.763,404.6875,2552.9297,415.1042,2557.0964,410.9375,2552.9297" style="stroke:#2196F3;stroke-width:1.0416666666666667;"/><line style="stroke:#2196F3;stroke-width:3.125;stroke-dasharray:2.0,2.0;" x1="408.8542" x2="747.3958" y1="2552.9297" y2="2552.9297"/><text fill="#222222" font-family="Verdana" font-size="12.5" font-weight="bold" lengthAdjust="spacing" textLength="27.0833" x="431.7708" y="2537.4817">[26]</text><text fill="#222222" font-family="Verdana" font-size="12.5" font-weight="bold" lengthAdjust="spacing" textLength="180.2083" x="483.8542" y="2537.4817">500 Internal Server Error</text><!--SRC=[lLRVRo8t47xVlyBbf8QWooQNNb_GAIhvSIhLvRBAGbzwrM5s1x2os5lRcnoj-h_tixqB2u5Sdie30dl6tymttunzn9A2Ipk-_SIk1PzhlcGpfTdzA65NN6PK5DmA9TaW6KP7R2HiGNqsbc8cA7zkbT9V5U5_SnPSVYTjiDLdx-Ap-0mBrsGoBKhh5qSBOLXU0vk5UZBCBeZbPBaeW51gbP4nFgOi80avPrmwxBSuRUkp5D_ShZi1yJ9JKeP0in3Rax0BlyKpM_62_SOVEJEa7mNYvJ9dcP9Mgw8WpGer5raSHJ_0VabioIrfmQF8klptajDdoLqwOgVQbkRq7tmFytzFivPH504NMNHwlOIlI1yPi1N04wqUHKwwr-imRbYI9b79jHMPA54Qv-4GQ-iliWkuqwjriCUrso3TzKf9XXfjN2yh8wGZz9FBi75Dqxs0bjlAi76Pk_GRqt64ltpA3Jcxw_ftlNjz6K40bTzA4vHwwb9ELyRIiZaW-HgMGKXbbQoMKn3U-J2z-EFipquK8NjsSe5i-WnCWTDUxoLMGQfuH7mk_MYGRbnJoYejx8hzoEuLYdQreEoXrukaWh4MyuLbQkPjFq9xzAJq0tlaXN39GeJgWIHSAmY4WMUAlyWhfJMPKidSxRF9BuccGMKNIek_gTjPSEE0kaTFWAMl2FQhGG6EZZl7axY9BGNU92HmRylBrJ3l-goE9vjCK8tdGMxgZUOeQ5v7wGNTYBXmkW9Kwg6kB_ji9cJU0jbWe53R62wmHe_BobYuQdnhibhG8taS9mf0Xl21mmlBtfGSqMW2M-2yodotNa4H_Tt982tOZroRNb-oaveBa02CJEaSBLx9tE_dr8xJBuMKqd5WBvpSXJDuSziRxiR-_-7SCYS3myHidH46a92CD-E5Jo4M0-bJ7937ws0dLbSqsGqHaEqGONVBIvyOk4flaa5zCl94RnYx4s2V3GmhKTQ9ePBV1vkHmep0CLYFhRefi_LwdNeSnqYzZTkqbKjLxXdDjoWCdzCBw397q6sVaQfPQmPKGDW5hrjkSgka-e0ZBfvJb0RhJNywYj1C5HG4bY1JxlXnpMLeRGfRJ0FNpETdxzbdvPiWw6YTHK4pNsCtD9jhO8JAjeT4mpnxmlmnGQEpgYXMQu_wci65uou2K653yHsJ3YQAgC30UrCupbOuLpqXgXkj7TzZMRjxwTn8N1Ah_q_gRNtEEA9yXK172uq49iF23PB2pNcw-PQHlvCd1ngeqKbiS95cY-7iPbdQLT12w2e6fes_C-9dugYfUWdoHRtyYhg0tDU7F6Y7hAJ7loTRQTdTUqQS5ToOjwobxMq9lZy_FrJfVMBiUnNMymMROSRukOB9motZJaHcIwTn8pEbkPpJHc6VuV_HQMQFhCYLuJjQsfGSEi9X_gmT-lOKwx3ngsfrsFtLfTftnFShvOV5Xh73vQaVYFLBDbDLuTkTJIcqwBeWETSF6cQztXsk3HqOCaqrjjbmAtEjgfAvnm56IVC0FMNDQo4yNPhXinlzE-YCD- -At3r__F9FI4XFHPwJh9FQJ-LTXeVF-eOJKbY1uRhzMcawTePNjjcCEXzsrCh0pN_I9oc6VyZvGD0_dvsn8MQpTdCyE0NxEjBMuVWPHIt6y6xx3m00]--></g></svg>