<?xml version="1.0" encoding="us-ascii" standalone="no"?><svg xmlns="http://www.w3.org/2000/svg" xmlns:xlink="http://www.w3.org/1999/xlink" contentStyleType="text/css" height="2709.375px" preserveAspectRatio="none" style="width:1378px;height:2709px;" version="1.1" viewBox="0 0 1378 2709" width="1378.125px" zoomAndPan="magnify"><defs><linearGradient id="g9jtyjyhih9m80" x1="50%" x2="50%" y1="0%" y2="100%"><stop offset="0%" stop-color="#FFFFFF"/><stop offset="100%" stop-color="#FFFFFF"/></linearGradient><filter height="300%" id="f9jtyjyhih9m8" width="300%" x="-1" y="-1"><feGaussianBlur result="blurOut" stdDeviation="2.0833333333333335"/><feColorMatrix in="blurOut" result="blurOut2" type="matrix" values="0 0 0 0 0 0 0 0 0 0 0 0 0 0 0 0 0 0 .4 0"/><feOffset dx="4.166666666666667" dy="4.166666666666667" in="blurOut2" result="blurOut3"/><feBlend in="SourceGraphic" in2="blurOut3" mode="normal"/></filter><linearGradient id="g9jtyjyhih9m81" x1="50%" x2="50%" y1="0%" y2="100%"><stop offset="0%" stop-color="#4DABF5"/><stop offset="100%" stop-color="#2196F3"/></linearGradient><linearGradient id="g9jtyjyhih9m82" x1="50%" x2="50%" y1="0%" y2="100%"><stop offset="0%" stop-color="#B052C0"/><stop offset="100%" stop-color="#9C27B0"/></linearGradient></defs><g><rect fill="url(#g9jtyjyhih9m80)" height="57.5846" id="_title" rx="4.1667" ry="4.1667" style="stroke:#CCCCCC;stroke-width:1.0416666666666667;" width="228.125" x="576.0417" y="20.8333"/><text fill="#2196F3" font-family="Verdana" font-size="20.8333" font-weight="bold" lengthAdjust="spacing" textLength="194.7917" x="592.7083" y="56.838">RTP Delete Flow</text><rect fill="#FFFFFF" filter="url(#f9jtyjyhih9m8)" height="2310.8073" style="stroke:#CCCCCC;stroke-width:1.0416666666666667;" width="10.4167" x="491.6667" y="268.8802"/><rect fill="#FFFFFF" filter="url(#f9jtyjyhih9m8)" height="114.4857" style="stroke:#CCCCCC;stroke-width:1.0416666666666667;" width="10.4167" x="775" y="318.8477"/><rect fill="#FFFFFF" filter="url(#f9jtyjyhih9m8)" height="114.4857" style="stroke:#CCCCCC;stroke-width:1.0416666666666667;" width="10.4167" x="908.3333" y="999.6094"/><rect fill="#FFFFFF" filter="url(#f9jtyjyhih9m8)" height="49.9674" style="stroke:#CCCCCC;stroke-width:1.0416666666666667;" width="10.4167" x="908.3333" y="1618.8802"/><rect fill="#FFFFFF" filter="url(#f9jtyjyhih9m8)" height="49.9674" style="stroke:#CCCCCC;stroke-width:1.0416666666666667;" width="10.4167" x="908.3333" y="1856.2174"/><rect fill="#FFFFFF" filter="url(#f9jtyjyhih9m8)" height="49.9674" style="stroke:#CCCCCC;stroke-width:1.0416666666666667;" width="10.4167" x="908.3333" y="2193.4896"/><rect fill="#FFFFFF" filter="url(#f9jtyjyhih9m8)" height="49.9674" style="stroke:#CCCCCC;stroke-width:1.0416666666666667;" width="10.4167" x="1026.0417" y="2093.5547"/><rect fill="#FFFFFF" filter="url(#f9jtyjyhih9m8)" height="913.9648" style="stroke:#CCCCCC;stroke-width:1.0416666666666667;" width="10.4167" x="1239.5833" y="1395.0846"/><rect fill="url(#g9jtyjyhih9m80)" filter="url(#f9jtyjyhih9m8)" height="2237.9232" rx="4.1667" ry="4.1667" style="stroke:#2196F3;stroke-width:1.0416666666666667;" width="1339.5833" x="20.8333" y="334.4727"/><path d="M20.8333,643.5872 L1360.4167,643.5872 L1360.4167,2568.2292 A4.1667,4.1667 0 0 1 1356.25,2572.3958 L25,2572.3958 A4.1667,4.1667 0 0 1 20.8333,2568.2292 L20.8333,643.5872 " fill="url(#g9jtyjyhih9m80)" style="stroke:none;stroke-width:1.0416666666666667;"/><rect fill="url(#g9jtyjyhih9m80)" filter="url(#f9jtyjyhih9m8)" height="1549.8698" rx="4.1667" ry="4.1667" style="stroke:#2196F3;stroke-width:1.0416666666666667;" width="1318.75" x="31.25" y="1015.2344"/><rect fill="url(#g9jtyjyhih9m80)" filter="url(#f9jtyjyhih9m8)" height="1138.737" rx="4.1667" ry="4.1667" style="stroke:#2196F3;stroke-width:1.0416666666666667;" width="1297.9167" x="41.6667" y="1281.6732"/><rect fill="url(#g9jtyjyhih9m80)" filter="url(#f9jtyjyhih9m8)" height="831.7057" rx="4.1667" ry="4.1667" style="stroke:#2196F3;stroke-width:1.0416666666666667;" width="1277.0833" x="52.0833" y="1470.0521"/><path d="M52.0833,1727.1484 L1329.1667,1727.1484 L1329.1667,1960.319 A4.1667,4.1667 0 0 1 1325,1964.4857 L56.25,1964.4857 A4.1667,4.1667 0 0 1 52.0833,1960.319 L52.0833,1727.1484 " fill="url(#g9jtyjyhih9m80)" style="stroke:none;stroke-width:1.0416666666666667;"/><path d="M52.0833,1964.4857 L1329.1667,1964.4857 L1329.1667,2297.5911 A4.1667,4.1667 0 0 1 1325,2301.7578 L56.25,2301.7578 A4.1667,4.1667 0 0 1 52.0833,2297.5911 L52.0833,1964.4857 " fill="url(#g9jtyjyhih9m80)" style="stroke:none;stroke-width:1.0416666666666667;"/><path d="M41.6667,2309.0495 L1339.5833,2309.0495 L1339.5833,2416.2435 A4.1667,4.1667 0 0 1 1335.4167,2420.4102 L45.8333,2420.4102 A4.1667,4.1667 0 0 1 41.6667,2416.2435 L41.6667,2309.0495 " fill="url(#g9jtyjyhih9m80)" style="stroke:none;stroke-width:1.0416666666666667;"/><path d="M31.25,2427.7018 L1350,2427.7018 L1350,2560.9375 A4.1667,4.1667 0 0 1 1345.8333,2565.1042 L35.4167,2565.1042 A4.1667,4.1667 0 0 1 31.25,2560.9375 L31.25,2427.7018 " fill="url(#g9jtyjyhih9m80)" style="stroke:none;stroke-width:1.0416666666666667;"/><line style="stroke:#CCCCCC;stroke-width:1.0416666666666667;stroke-dasharray:5.0,5.0;" x1="170.8333" x2="170.8333" y1="187.7279" y2="2590.1042"/><line style="stroke:#CCCCCC;stroke-width:1.0416666666666667;stroke-dasharray:5.0,5.0;" x1="496.3542" x2="496.3542" y1="187.7279" y2="2590.1042"/><line style="stroke:#CCCCCC;stroke-width:1.0416666666666667;stroke-dasharray:5.0,5.0;" x1="779.6875" x2="779.6875" y1="187.7279" y2="2590.1042"/><line style="stroke:#CCCCCC;stroke-width:1.0416666666666667;stroke-dasharray:5.0,5.0;" x1="913.0208" x2="913.0208" y1="187.7279" y2="2590.1042"/><line style="stroke:#CCCCCC;stroke-width:1.0416666666666667;stroke-dasharray:5.0,5.0;" x1="1030.7292" x2="1030.7292" y1="187.7279" y2="2590.1042"/><line style="stroke:#CCCCCC;stroke-width:1.0416666666666667;stroke-dasharray:5.0,5.0;" x1="1244.7917" x2="1244.7917" y1="187.7279" y2="2590.1042"/><rect fill="url(#g9jtyjyhih9m81)" filter="url(#f9jtyjyhih9m8)" height="49.9674" rx="4.1667" ry="4.1667" style="stroke:#2196F3;stroke-width:1.0416666666666667;" width="130.2083" x="104.1667" y="133.5938"/><text fill="#FFFFFF" font-family="Verdana" font-size="12.5" lengthAdjust="spacing" textLength="94.7917" x="121.875" y="162.9049">MS-CONSUMER</text><rect fill="url(#g9jtyjyhih9m81)" filter="url(#f9jtyjyhih9m8)" height="49.9674" rx="4.1667" ry="4.1667" style="stroke:#2196F3;stroke-width:1.0416666666666667;" width="130.2083" x="104.1667" y="2589.0625"/><text fill="#FFFFFF" font-family="Verdana" font-size="12.5" lengthAdjust="spacing" textLength="94.7917" x="121.875" y="2618.3736">MS-CONSUMER</text><rect fill="url(#g9jtyjyhih9m81)" filter="url(#f9jtyjyhih9m8)" height="49.9674" rx="4.1667" ry="4.1667" style="stroke:#2196F3;stroke-width:1.0416666666666667;" width="110.4167" x="440.1042" y="133.5938"/><text fill="#FFFFFF" font-family="Verdana" font-size="12.5" lengthAdjust="spacing" textLength="75" x="457.8125" y="162.9049">MS-SENDER</text><rect fill="url(#g9jtyjyhih9m81)" filter="url(#f9jtyjyhih9m8)" height="49.9674" rx="4.1667" ry="4.1667" style="stroke:#2196F3;stroke-width:1.0416666666666667;" width="110.4167" x="440.1042" y="2589.0625"/><text fill="#FFFFFF" font-family="Verdana" font-size="12.5" lengthAdjust="spacing" textLength="75" x="457.8125" y="2618.3736">MS-SENDER</text><text fill="#222222" font-family="Verdana" font-size="12.5" lengthAdjust="spacing" textLength="35.4167" x="759.375" y="159.8124">Redis</text><text fill="#222222" font-family="Verdana" font-size="12.5" lengthAdjust="spacing" textLength="159.375" x="697.3958" y="174.3632">(Idempotency Key Store)</text><path d="M761.4583,100.293 C761.4583,89.8763 780.2083,89.8763 780.2083,89.8763 C780.2083,89.8763 798.9583,89.8763 798.9583,100.293 L798.9583,127.3763 C798.9583,137.793 780.2083,137.793 780.2083,137.793 C780.2083,137.793 761.4583,137.793 761.4583,127.3763 L761.4583,100.293 " fill="url(#g9jtyjyhih9m81)" filter="url(#f9jtyjyhih9m8)" style="stroke:#2196F3;stroke-width:1.5625;"/><path d="M761.4583,100.293 C761.4583,110.7096 780.2083,110.7096 780.2083,110.7096 C780.2083,110.7096 798.9583,110.7096 798.9583,100.293 " fill="none" style="stroke:#2196F3;stroke-width:1.5625;"/><text fill="#222222" font-family="Verdana" font-size="12.5" lengthAdjust="spacing" textLength="35.4167" x="759.375" y="2611.0819">Redis</text><text fill="#222222" font-family="Verdana" font-size="12.5" lengthAdjust="spacing" textLength="159.375" x="697.3958" y="2625.6327">(Idempotency Key Store)</text><path d="M761.4583,2649.4141 C761.4583,2638.9974 780.2083,2638.9974 780.2083,2638.9974 C780.2083,2638.9974 798.9583,2638.9974 798.9583,2649.4141 L798.9583,2676.4974 C798.9583,2686.9141 780.2083,2686.9141 780.2083,2686.9141 C780.2083,2686.9141 761.4583,2686.9141 761.4583,2676.4974 L761.4583,2649.4141 " fill="url(#g9jtyjyhih9m81)" filter="url(#f9jtyjyhih9m8)" style="stroke:#2196F3;stroke-width:1.5625;"/><path d="M761.4583,2649.4141 C761.4583,2659.8307 780.2083,2659.8307 780.2083,2659.8307 C780.2083,2659.8307 798.9583,2659.8307 798.9583,2649.4141 " fill="none" style="stroke:#2196F3;stroke-width:1.5625;"/><text fill="#222222" font-family="Verdana" font-size="12.5" lengthAdjust="spacing" textLength="32.2917" x="894.2708" y="174.3632">RTPS</text><path d="M894.7917,114.8438 C894.7917,104.4271 913.5417,104.4271 913.5417,104.4271 C913.5417,104.4271 932.2917,104.4271 932.2917,114.8438 L932.2917,141.9271 C932.2917,152.3438 913.5417,152.3438 913.5417,152.3438 C913.5417,152.3438 894.7917,152.3438 894.7917,141.9271 L894.7917,114.8438 " fill="url(#g9jtyjyhih9m81)" filter="url(#f9jtyjyhih9m8)" style="stroke:#2196F3;stroke-width:1.5625;"/><path d="M894.7917,114.8438 C894.7917,125.2604 913.5417,125.2604 913.5417,125.2604 C913.5417,125.2604 932.2917,125.2604 932.2917,114.8438 " fill="none" style="stroke:#2196F3;stroke-width:1.5625;"/><text fill="#222222" font-family="Verdana" font-size="12.5" lengthAdjust="spacing" textLength="32.2917" x="894.2708" y="2611.0819">RTPS</text><path d="M894.7917,2634.8633 C894.7917,2624.4466 913.5417,2624.4466 913.5417,2624.4466 C913.5417,2624.4466 932.2917,2624.4466 932.2917,2634.8633 L932.2917,2661.9466 C932.2917,2672.3633 913.5417,2672.3633 913.5417,2672.3633 C913.5417,2672.3633 894.7917,2672.3633 894.7917,2661.9466 L894.7917,2634.8633 " fill="url(#g9jtyjyhih9m81)" filter="url(#f9jtyjyhih9m8)" style="stroke:#2196F3;stroke-width:1.5625;"/><path d="M894.7917,2634.8633 C894.7917,2645.2799 913.5417,2645.2799 913.5417,2645.2799 C913.5417,2645.2799 932.2917,2645.2799 932.2917,2634.8633 " fill="none" style="stroke:#2196F3;stroke-width:1.5625;"/><text fill="#222222" font-family="Verdana" font-size="12.5" lengthAdjust="spacing" textLength="128.125" x="964.0625" y="159.8124">Azure Data Explorer</text><text fill="#222222" font-family="Verdana" font-size="12.5" lengthAdjust="spacing" textLength="36.4583" x="1009.8958" y="174.3632">(srtp)</text><path d="M1012.5,100.293 C1012.5,89.8763 1031.25,89.8763 1031.25,89.8763 C1031.25,89.8763 1050,89.8763 1050,100.293 L1050,127.3763 C1050,137.793 1031.25,137.793 1031.25,137.793 C1031.25,137.793 1012.5,137.793 1012.5,127.3763 L1012.5,100.293 " fill="url(#g9jtyjyhih9m81)" filter="url(#f9jtyjyhih9m8)" style="stroke:#2196F3;stroke-width:1.5625;"/><path d="M1012.5,100.293 C1012.5,110.7096 1031.25,110.7096 1031.25,110.7096 C1031.25,110.7096 1050,110.7096 1050,100.293 " fill="none" style="stroke:#2196F3;stroke-width:1.5625;"/><text fill="#222222" font-family="Verdana" font-size="12.5" lengthAdjust="spacing" textLength="128.125" x="964.0625" y="2611.0819">Azure Data Explorer</text><text fill="#222222" font-family="Verdana" font-size="12.5" lengthAdjust="spacing" textLength="36.4583" x="1009.8958" y="2625.6327">(srtp)</text><path d="M1012.5,2649.4141 C1012.5,2638.9974 1031.25,2638.9974 1031.25,2638.9974 C1031.25,2638.9974 1050,2638.9974 1050,2649.4141 L1050,2676.4974 C1050,2686.9141 1031.25,2686.9141 1031.25,2686.9141 C1031.25,2686.9141 1012.5,2686.9141 1012.5,2676.4974 L1012.5,2649.4141 " fill="url(#g9jtyjyhih9m81)" filter="url(#f9jtyjyhih9m8)" style="stroke:#2196F3;stroke-width:1.5625;"/><path d="M1012.5,2649.4141 C1012.5,2659.8307 1031.25,2659.8307 1031.25,2659.8307 C1031.25,2659.8307 1050,2659.8307 1050,2649.4141 " fill="none" style="stroke:#2196F3;stroke-width:1.5625;"/><rect fill="url(#g9jtyjyhih9m81)" filter="url(#f9jtyjyhih9m8)" height="49.9674" rx="4.1667" ry="4.1667" style="stroke:#2196F3;stroke-width:1.0416666666666667;" width="61.4583" x="1212.5" y="133.5938"/><text fill="#FFFFFF" font-family="Verdana" font-size="12.5" lengthAdjust="spacing" textLength="26.0417" x="1230.2083" y="162.9049">DSP</text><rect fill="url(#g9jtyjyhih9m81)" filter="url(#f9jtyjyhih9m8)" height="49.9674" rx="4.1667" ry="4.1667" style="stroke:#2196F3;stroke-width:1.0416666666666667;" width="61.4583" x="1212.5" y="2589.0625"/><text fill="#FFFFFF" font-family="Verdana" font-size="12.5" lengthAdjust="spacing" textLength="26.0417" x="1230.2083" y="2618.3736">DSP</text><rect fill="#FFFFFF" filter="url(#f9jtyjyhih9m8)" height="2310.8073" style="stroke:#CCCCCC;stroke-width:1.0416666666666667;" width="10.4167" x="491.6667" y="268.8802"/><rect fill="#FFFFFF" filter="url(#f9jtyjyhih9m8)" height="114.4857" style="stroke:#CCCCCC;stroke-width:1.0416666666666667;" width="10.4167" x="775" y="318.8477"/><rect fill="#FFFFFF" filter="url(#f9jtyjyhih9m8)" height="114.4857" style="stroke:#CCCCCC;stroke-width:1.0416666666666667;" width="10.4167" x="908.3333" y="999.6094"/><rect fill="#FFFFFF" filter="url(#f9jtyjyhih9m8)" height="49.9674" style="stroke:#CCCCCC;stroke-width:1.0416666666666667;" width="10.4167" x="908.3333" y="1618.8802"/><rect fill="#FFFFFF" filter="url(#f9jtyjyhih9m8)" height="49.9674" style="stroke:#CCCCCC;stroke-width:1.0416666666666667;" width="10.4167" x="908.3333" y="1856.2174"/><rect fill="#FFFFFF" filter="url(#f9jtyjyhih9m8)" height="49.9674" style="stroke:#CCCCCC;stroke-width:1.0416666666666667;" width="10.4167" x="908.3333" y="2193.4896"/><rect fill="#FFFFFF" filter="url(#f9jtyjyhih9m8)" height="49.9674" style="stroke:#CCCCCC;stroke-width:1.0416666666666667;" width="10.4167" x="1026.0417" y="2093.5547"/><rect fill="#FFFFFF" filter="url(#f9jtyjyhih9m8)" height="913.9648" style="stroke:#CCCCCC;stroke-width:1.0416666666666667;" width="10.4167" x="1239.5833" y="1395.0846"/><polygon fill="#2196F3" points="479.1667,264.7135,489.5833,268.8802,479.1667,273.0469,483.3333,268.8802" style="stroke:#2196F3;stroke-width:1.0416666666666667;"/><line style="stroke:#2196F3;stroke-width:3.125;" x1="170.8333" x2="485.4167" y1="268.8802" y2="268.8802"/><text fill="#222222" font-family="Verdana" font-size="12.5" font-weight="bold" lengthAdjust="spacing" textLength="8.3333" x="188.5417" y="238.8814">1</text><text fill="#222222" font-family="Verdana" font-size="12.5" lengthAdjust="spacing" textLength="131.25" x="221.875" y="224.3306">DELETE RTP request</text><text fill="#222222" font-family="Verdana" font-size="12.5" lengthAdjust="spacing" textLength="246.875" x="221.875" y="238.8814">Headers: Idempotency-Key, RequestId</text><text fill="#222222" font-family="Verdana" font-size="12.5" lengthAdjust="spacing" textLength="201.0417" x="221.875" y="253.4322">Payload: RTP cancellation data</text><polygon fill="#2196F3" points="762.5,314.681,772.9167,318.8477,762.5,323.0143,766.6667,318.8477" style="stroke:#2196F3;stroke-width:1.0416666666666667;"/><line style="stroke:#2196F3;stroke-width:3.125;" x1="502.0833" x2="768.75" y1="318.8477" y2="318.8477"/><text fill="#222222" font-family="Verdana" font-size="12.5" font-weight="bold" lengthAdjust="spacing" textLength="8.3333" x="519.7917" y="303.3997">2</text><text fill="#222222" font-family="Verdana" font-size="12.5" lengthAdjust="spacing" textLength="152.0833" x="553.125" y="303.3997">check Idempotency-Key</text><path d="M25,334.4727 L108.3333,334.4727 L108.3333,361.5234 L97.9167,371.9401 L20.8333,371.9401 L20.8333,338.6393 A4.1667,4.1667 0 0 1 25,334.4727 " fill="#FFFFFF" style="stroke:#666666;stroke-width:1.0416666666666667;"/><rect fill="none" height="2237.9232" rx="4.1667" ry="4.1667" style="stroke:#2196F3;stroke-width:1.0416666666666667;" width="1339.5833" x="20.8333" y="334.4727"/><text fill="#9C27B0" font-family="Verdana" font-size="12.5" font-weight="bold" lengthAdjust="spacing" textLength="19.7917" x="46.875" y="357.5338">alt</text><text fill="#222222" font-family="Verdana" font-size="12.5" font-weight="bold" lengthAdjust="spacing" textLength="260.4167" x="134.375" y="358.5754">[Idempotency-Key already present]</text><polygon fill="#2196F3" points="513.5417,429.1667,503.125,433.3333,513.5417,437.5,509.375,433.3333" style="stroke:#2196F3;stroke-width:1.0416666666666667;"/><line style="stroke:#2196F3;stroke-width:3.125;stroke-dasharray:2.0,2.0;" x1="507.2917" x2="779.1667" y1="433.3333" y2="433.3333"/><text fill="#222222" font-family="Verdana" font-size="12.5" font-weight="bold" lengthAdjust="spacing" textLength="8.3333" x="530.2083" y="417.8853">3</text><text fill="#222222" font-family="Verdana" font-size="12.5" lengthAdjust="spacing" textLength="63.5417" x="563.5417" y="417.8853">key found</text><line style="stroke:#2196F3;stroke-width:3.125;" x1="502.0833" x2="545.8333" y1="483.3008" y2="483.3008"/><line style="stroke:#2196F3;stroke-width:3.125;" x1="545.8333" x2="545.8333" y1="483.3008" y2="496.8424"/><line style="stroke:#2196F3;stroke-width:3.125;" x1="503.125" x2="545.8333" y1="496.8424" y2="496.8424"/><polygon fill="#2196F3" points="513.5417,492.6758,503.125,496.8424,513.5417,501.0091,509.375,496.8424" style="stroke:#2196F3;stroke-width:1.0416666666666667;"/><text fill="#222222" font-family="Verdana" font-size="12.5" font-weight="bold" lengthAdjust="spacing" textLength="8.3333" x="519.7917" y="467.8528">4</text><text fill="#222222" font-family="Verdana" font-size="12.5" lengthAdjust="spacing" textLength="184.375" x="553.125" y="467.8528">discard duplicated message</text><path d="M507.2917,514.5508 L507.2917,580.1758 A4.1667,4.1667 0 0 0 511.4583,584.3424 L703.125,584.3424 A4.1667,4.1667 0 0 0 707.2917,580.1758 L707.2917,520.8008 L696.875,510.3841 L511.4583,510.3841 A4.1667,4.1667 0 0 0 507.2917,514.5508 " fill="url(#g9jtyjyhih9m82)" filter="url(#f9jtyjyhih9m8)" style="stroke:#9C27B0;stroke-width:1.0416666666666667;"/><path d="M696.875,510.3841 L696.875,518.7174 A2.0833,2.0833 0 0 0 698.9583,520.8008 L707.2917,520.8008 L696.875,510.3841 " fill="url(#g9jtyjyhih9m82)" style="stroke:#9C27B0;stroke-width:1.0416666666666667;"/><text fill="#FFFFFF" font-family="Verdana" font-size="12.5" lengthAdjust="spacing" textLength="137.5" x="523.9583" y="537.6119">Duplicated message:</text><text fill="#FFFFFF" font-family="Verdana" font-size="12.5" lengthAdjust="spacing" textLength="120.8333" x="523.9583" y="552.1627">already processed</text><text fill="#FFFFFF" font-family="Verdana" font-size="12.5" lengthAdjust="spacing" textLength="157.2917" x="523.9583" y="566.7135">or already in processing</text><polygon fill="#2196F3" points="182.2917,631.0872,171.875,635.2539,182.2917,639.4206,178.125,635.2539" style="stroke:#2196F3;stroke-width:1.0416666666666667;"/><line style="stroke:#2196F3;stroke-width:3.125;stroke-dasharray:2.0,2.0;" x1="176.0417" x2="490.625" y1="635.2539" y2="635.2539"/><text fill="#222222" font-family="Verdana" font-size="12.5" font-weight="bold" lengthAdjust="spacing" textLength="8.3333" x="198.9583" y="619.8059">5</text><text fill="#222222" font-family="Verdana" font-size="12.5" lengthAdjust="spacing" textLength="77.0833" x="232.2917" y="619.8059">409 Conflict</text><line style="stroke:#2196F3;stroke-width:1.0416666666666667;stroke-dasharray:2.0,2.0;" x1="20.8333" x2="1360.4167" y1="644.6289" y2="644.6289"/><text fill="#222222" font-family="Verdana" font-size="12.5" font-weight="bold" lengthAdjust="spacing" textLength="229.1667" x="36.4583" y="666.6484">[Idempotency-Key not present]</text><polygon fill="#2196F3" points="513.5417,718.5221,503.125,722.6888,513.5417,726.8555,509.375,722.6888" style="stroke:#2196F3;stroke-width:1.0416666666666667;"/><line style="stroke:#2196F3;stroke-width:3.125;stroke-dasharray:2.0,2.0;" x1="507.2917" x2="779.1667" y1="722.6888" y2="722.6888"/><text fill="#222222" font-family="Verdana" font-size="12.5" font-weight="bold" lengthAdjust="spacing" textLength="8.3333" x="530.2083" y="707.2408">6</text><text fill="#222222" font-family="Verdana" font-size="12.5" lengthAdjust="spacing" textLength="89.5833" x="563.5417" y="707.2408">key not found</text><polygon fill="#2196F3" points="767.7083,768.4896,778.125,772.6563,767.7083,776.8229,771.875,772.6563" style="stroke:#2196F3;stroke-width:1.0416666666666667;"/><line style="stroke:#2196F3;stroke-width:3.125;" x1="502.0833" x2="773.9583" y1="772.6563" y2="772.6563"/><text fill="#222222" font-family="Verdana" font-size="12.5" font-weight="bold" lengthAdjust="spacing" textLength="8.3333" x="519.7917" y="757.2083">7</text><text fill="#222222" font-family="Verdana" font-size="12.5" lengthAdjust="spacing" textLength="143.75" x="553.125" y="757.2083">save Idempotency-Key</text><polygon fill="#2196F3" points="513.5417,818.457,503.125,822.6237,513.5417,826.7904,509.375,822.6237" style="stroke:#2196F3;stroke-width:1.0416666666666667;"/><line style="stroke:#2196F3;stroke-width:3.125;stroke-dasharray:2.0,2.0;" x1="507.2917" x2="779.1667" y1="822.6237" y2="822.6237"/><text fill="#222222" font-family="Verdana" font-size="12.5" font-weight="bold" lengthAdjust="spacing" textLength="8.3333" x="530.2083" y="807.1757">8</text><text fill="#222222" font-family="Verdana" font-size="12.5" lengthAdjust="spacing" textLength="64.5833" x="563.5417" y="807.1757">key saved</text><line style="stroke:#2196F3;stroke-width:3.125;" x1="502.0833" x2="545.8333" y1="872.5911" y2="872.5911"/><line style="stroke:#2196F3;stroke-width:3.125;" x1="545.8333" x2="545.8333" y1="872.5911" y2="886.1328"/><line style="stroke:#2196F3;stroke-width:3.125;" x1="503.125" x2="545.8333" y1="886.1328" y2="886.1328"/><polygon fill="#2196F3" points="513.5417,881.9661,503.125,886.1328,513.5417,890.2995,509.375,886.1328" style="stroke:#2196F3;stroke-width:1.0416666666666667;"/><text fill="#222222" font-family="Verdana" font-size="12.5" font-weight="bold" lengthAdjust="spacing" textLength="8.3333" x="519.7917" y="857.1431">9</text><text fill="#222222" font-family="Verdana" font-size="12.5" lengthAdjust="spacing" textLength="114.5833" x="553.125" y="857.1431">validate message</text><line style="stroke:#2196F3;stroke-width:3.125;" x1="502.0833" x2="545.8333" y1="936.1003" y2="936.1003"/><line style="stroke:#2196F3;stroke-width:3.125;" x1="545.8333" x2="545.8333" y1="936.1003" y2="949.6419"/><line style="stroke:#2196F3;stroke-width:3.125;" x1="503.125" x2="545.8333" y1="949.6419" y2="949.6419"/><polygon fill="#2196F3" points="513.5417,945.4753,503.125,949.6419,513.5417,953.8086,509.375,949.6419" style="stroke:#2196F3;stroke-width:1.0416666666666667;"/><text fill="#222222" font-family="Verdana" font-size="12.5" font-weight="bold" lengthAdjust="spacing" textLength="16.6667" x="519.7917" y="920.6523">10</text><text fill="#222222" font-family="Verdana" font-size="12.5" lengthAdjust="spacing" textLength="195.8333" x="561.4583" y="920.6523">validate operation == DELETE</text><polygon fill="#2196F3" points="895.8333,995.4427,906.25,999.6094,895.8333,1003.776,900,999.6094" style="stroke:#2196F3;stroke-width:1.0416666666666667;"/><line style="stroke:#2196F3;stroke-width:3.125;" x1="502.0833" x2="902.0833" y1="999.6094" y2="999.6094"/><text fill="#222222" font-family="Verdana" font-size="12.5" font-weight="bold" lengthAdjust="spacing" textLength="16.6667" x="519.7917" y="984.1614">11</text><text fill="#222222" font-family="Verdana" font-size="12.5" lengthAdjust="spacing" textLength="217.7083" x="561.4583" y="984.1614">findRtpByOperationDispatcherKey</text><path d="M35.4167,1015.2344 L118.75,1015.2344 L118.75,1042.2852 L108.3333,1052.7018 L31.25,1052.7018 L31.25,1019.401 A4.1667,4.1667 0 0 1 35.4167,1015.2344 " fill="#FFFFFF" style="stroke:#666666;stroke-width:1.0416666666666667;"/><rect fill="none" height="1549.8698" rx="4.1667" ry="4.1667" style="stroke:#2196F3;stroke-width:1.0416666666666667;" width="1318.75" x="31.25" y="1015.2344"/><text fill="#9C27B0" font-family="Verdana" font-size="12.5" font-weight="bold" lengthAdjust="spacing" textLength="19.7917" x="57.2917" y="1038.2955">alt</text><text fill="#222222" font-family="Verdana" font-size="12.5" font-weight="bold" lengthAdjust="spacing" textLength="87.5" x="144.7917" y="1039.3372">[RTP Found]</text><polygon fill="#2196F3" points="513.5417,1109.9284,503.125,1114.0951,513.5417,1118.2617,509.375,1114.0951" style="stroke:#2196F3;stroke-width:1.0416666666666667;"/><line style="stroke:#2196F3;stroke-width:3.125;stroke-dasharray:2.0,2.0;" x1="507.2917" x2="912.5" y1="1114.0951" y2="1114.0951"/><text fill="#222222" font-family="Verdana" font-size="12.5" font-weight="bold" lengthAdjust="spacing" textLength="16.6667" x="530.2083" y="1098.6471">12</text><text fill="#222222" font-family="Verdana" font-size="12.5" lengthAdjust="spacing" textLength="68.75" x="571.875" y="1098.6471">RTP Found</text><line style="stroke:#2196F3;stroke-width:3.125;" x1="502.0833" x2="545.8333" y1="1164.0625" y2="1164.0625"/><line style="stroke:#2196F3;stroke-width:3.125;" x1="545.8333" x2="545.8333" y1="1164.0625" y2="1177.6042"/><line style="stroke:#2196F3;stroke-width:3.125;" x1="503.125" x2="545.8333" y1="1177.6042" y2="1177.6042"/><polygon fill="#2196F3" points="513.5417,1173.4375,503.125,1177.6042,513.5417,1181.7708,509.375,1177.6042" style="stroke:#2196F3;stroke-width:1.0416666666666667;"/><text fill="#222222" font-family="Verdana" font-size="12.5" font-weight="bold" lengthAdjust="spacing" textLength="16.6667" x="519.7917" y="1148.6145">13</text><text fill="#222222" font-family="Verdana" font-size="12.5" lengthAdjust="spacing" textLength="125" x="561.4583" y="1148.6145">validate RTP status</text><path d="M507.2917,1195.3125 L507.2917,1260.9375 A4.1667,4.1667 0 0 0 511.4583,1265.1042 L728.125,1265.1042 A4.1667,4.1667 0 0 0 732.2917,1260.9375 L732.2917,1201.5625 L721.875,1191.1458 L511.4583,1191.1458 A4.1667,4.1667 0 0 0 507.2917,1195.3125 " fill="url(#g9jtyjyhih9m82)" filter="url(#f9jtyjyhih9m8)" style="stroke:#9C27B0;stroke-width:1.0416666666666667;"/><path d="M721.875,1191.1458 L721.875,1199.4792 A2.0833,2.0833 0 0 0 723.9583,1201.5625 L732.2917,1201.5625 L721.875,1191.1458 " fill="url(#g9jtyjyhih9m82)" style="stroke:#9C27B0;stroke-width:1.0416666666666667;"/><text fill="#FFFFFF" font-family="Verdana" font-size="12.5" lengthAdjust="spacing" textLength="127.0833" x="523.9583" y="1218.3736">Accepted statuses:</text><text fill="#FFFFFF" font-family="Verdana" font-size="12.5" lengthAdjust="spacing" textLength="104.1667" x="523.9583" y="1232.9244">CREATED, SENT,</text><text fill="#FFFFFF" font-family="Verdana" font-size="12.5" lengthAdjust="spacing" textLength="182.2917" x="523.9583" y="1247.4752">ACCEPTED, USER_ACCEPTED</text><path d="M45.8333,1281.6732 L129.1667,1281.6732 L129.1667,1308.724 L118.75,1319.1406 L41.6667,1319.1406 L41.6667,1285.8398 A4.1667,4.1667 0 0 1 45.8333,1281.6732 " fill="#FFFFFF" style="stroke:#666666;stroke-width:1.0416666666666667;"/><rect fill="none" height="1138.737" rx="4.1667" ry="4.1667" style="stroke:#2196F3;stroke-width:1.0416666666666667;" width="1297.9167" x="41.6667" y="1281.6732"/><text fill="#9C27B0" font-family="Verdana" font-size="12.5" font-weight="bold" lengthAdjust="spacing" textLength="19.7917" x="67.7083" y="1304.7343">alt</text><text fill="#222222" font-family="Verdana" font-size="12.5" font-weight="bold" lengthAdjust="spacing" textLength="114.5833" x="155.2083" y="1305.776">[Status is valid]</text><polygon fill="#2196F3" points="1227.0833,1390.918,1237.5,1395.0846,1227.0833,1399.2513,1231.25,1395.0846" style="stroke:#2196F3;stroke-width:1.0416666666666667;"/><line style="stroke:#2196F3;stroke-width:3.125;" x1="502.0833" x2="1233.3333" y1="1395.0846" y2="1395.0846"/><text fill="#222222" font-family="Verdana" font-size="12.5" font-weight="bold" lengthAdjust="spacing" textLength="16.6667" x="519.7917" y="1372.3612">14</text><text fill="#222222" font-family="Verdana" font-size="12.5" lengthAdjust="spacing" textLength="171.875" x="561.4583" y="1365.0859">Send cancellation request</text><text fill="#222222" font-family="Verdana" font-size="12.5" lengthAdjust="spacing" textLength="655.2083" x="561.4583" y="1379.6366">POST /sepa-request-to-pay-requests/{sepaRequestToPayRequestResourceId}/cancellation-requests</text><path d="M1104.1667,1412.793 L1104.1667,1449.2513 A4.1667,4.1667 0 0 0 1108.3333,1453.418 L1227.0833,1453.418 A4.1667,4.1667 0 0 0 1231.25,1449.2513 L1231.25,1419.043 L1220.8333,1408.6263 L1108.3333,1408.6263 A4.1667,4.1667 0 0 0 1104.1667,1412.793 " fill="url(#g9jtyjyhih9m82)" filter="url(#f9jtyjyhih9m8)" style="stroke:#9C27B0;stroke-width:1.0416666666666667;"/><path d="M1220.8333,1408.6263 L1220.8333,1416.9596 A2.0833,2.0833 0 0 0 1222.9167,1419.043 L1231.25,1419.043 L1220.8333,1408.6263 " fill="url(#g9jtyjyhih9m82)" style="stroke:#9C27B0;stroke-width:1.0416666666666667;"/><text fill="#FFFFFF" font-family="Verdana" font-size="12.5" lengthAdjust="spacing" textLength="84.375" x="1120.8333" y="1435.8541">Retry if failed</text><path d="M56.25,1470.0521 L139.5833,1470.0521 L139.5833,1497.1029 L129.1667,1507.5195 L52.0833,1507.5195 L52.0833,1474.2188 A4.1667,4.1667 0 0 1 56.25,1470.0521 " fill="#FFFFFF" style="stroke:#666666;stroke-width:1.0416666666666667;"/><rect fill="none" height="831.7057" rx="4.1667" ry="4.1667" style="stroke:#2196F3;stroke-width:1.0416666666666667;" width="1277.0833" x="52.0833" y="1470.0521"/><text fill="#9C27B0" font-family="Verdana" font-size="12.5" font-weight="bold" lengthAdjust="spacing" textLength="19.7917" x="78.125" y="1493.1132">alt</text><text fill="#222222" font-family="Verdana" font-size="12.5" font-weight="bold" lengthAdjust="spacing" textLength="119.7917" x="165.625" y="1494.1549">[Async flow EPC]</text><polygon fill="#2196F3" points="513.5417,1564.7461,503.125,1568.9128,513.5417,1573.0794,509.375,1568.9128" style="stroke:#2196F3;stroke-width:1.0416666666666667;"/><line style="stroke:#2196F3;stroke-width:3.125;stroke-dasharray:2.0,2.0;" x1="507.2917" x2="1238.5417" y1="1568.9128" y2="1568.9128"/><text fill="#222222" font-family="Verdana" font-size="12.5" font-weight="bold" lengthAdjust="spacing" textLength="16.6667" x="530.2083" y="1553.4648">15</text><text fill="#222222" font-family="Verdana" font-size="12.5" lengthAdjust="spacing" textLength="95.8333" x="571.875" y="1553.4648">OK empty body</text><polygon fill="#2196F3" points="895.8333,1614.7135,906.25,1618.8802,895.8333,1623.0469,900,1618.8802" style="stroke:#2196F3;stroke-width:1.0416666666666667;"/><line style="stroke:#2196F3;stroke-width:3.125;" x1="502.0833" x2="902.0833" y1="1618.8802" y2="1618.8802"/><text fill="#222222" font-family="Verdana" font-size="12.5" font-weight="bold" lengthAdjust="spacing" textLength="16.6667" x="519.7917" y="1603.4322">16</text><text fill="#222222" font-family="Verdana" font-size="12.5" lengthAdjust="spacing" textLength="198.9583" x="561.4583" y="1603.4322">update RTP status (RFC_SENT)</text><polygon fill="#2196F3" points="513.5417,1664.681,503.125,1668.8477,513.5417,1673.0143,509.375,1668.8477" style="stroke:#2196F3;stroke-width:1.0416666666666667;"/><line style="stroke:#2196F3;stroke-width:3.125;stroke-dasharray:2.0,2.0;" x1="507.2917" x2="912.5" y1="1668.8477" y2="1668.8477"/><text fill="#222222" font-family="Verdana" font-size="12.5" font-weight="bold" lengthAdjust="spacing" textLength="16.6667" x="530.2083" y="1653.3997">17</text><text fill="#222222" font-family="Verdana" font-size="12.5" lengthAdjust="spacing" textLength="98.9583" x="571.875" y="1653.3997">confirm update</text><polygon fill="#2196F3" points="182.2917,1714.6484,171.875,1718.8151,182.2917,1722.9818,178.125,1718.8151" style="stroke:#2196F3;stroke-width:1.0416666666666667;"/><line style="stroke:#2196F3;stroke-width:3.125;stroke-dasharray:2.0,2.0;" x1="176.0417" x2="490.625" y1="1718.8151" y2="1718.8151"/><text fill="#222222" font-family="Verdana" font-size="12.5" font-weight="bold" lengthAdjust="spacing" textLength="16.6667" x="198.9583" y="1703.3671">18</text><text fill="#222222" font-family="Verdana" font-size="12.5" lengthAdjust="spacing" textLength="103.125" x="240.625" y="1703.3671">204 No Content</text><line style="stroke:#2196F3;stroke-width:1.0416666666666667;stroke-dasharray:2.0,2.0;" x1="52.0833" x2="1329.1667" y1="1728.1901" y2="1728.1901"/><text fill="#222222" font-family="Verdana" font-size="12.5" font-weight="bold" lengthAdjust="spacing" textLength="111.4583" x="67.7083" y="1750.2096">[Sync flow EPC]</text><polygon fill="#2196F3" points="513.5417,1802.0833,503.125,1806.25,513.5417,1810.4167,509.375,1806.25" style="stroke:#2196F3;stroke-width:1.0416666666666667;"/><line style="stroke:#2196F3;stroke-width:3.125;stroke-dasharray:2.0,2.0;" x1="507.2917" x2="1238.5417" y1="1806.25" y2="1806.25"/><text fill="#222222" font-family="Verdana" font-size="12.5" font-weight="bold" lengthAdjust="spacing" textLength="16.6667" x="530.2083" y="1790.802">19</text><text fill="#222222" font-family="Verdana" font-size="12.5" lengthAdjust="spacing" textLength="71.875" x="571.875" y="1790.802">OK payload</text><polygon fill="#2196F3" points="895.8333,1852.0508,906.25,1856.2174,895.8333,1860.3841,900,1856.2174" style="stroke:#2196F3;stroke-width:1.0416666666666667;"/><line style="stroke:#2196F3;stroke-width:3.125;" x1="502.0833" x2="902.0833" y1="1856.2174" y2="1856.2174"/><text fill="#222222" font-family="Verdana" font-size="12.5" font-weight="bold" lengthAdjust="spacing" textLength="16.6667" x="519.7917" y="1840.7694">20</text><text fill="#222222" font-family="Verdana" font-size="12.5" lengthAdjust="spacing" textLength="208.3333" x="561.4583" y="1840.7694">update RTP status (CANCELLED)</text><polygon fill="#2196F3" points="513.5417,1902.0182,503.125,1906.1849,513.5417,1910.3516,509.375,1906.1849" style="stroke:#2196F3;stroke-width:1.0416666666666667;"/><line style="stroke:#2196F3;stroke-width:3.125;stroke-dasharray:2.0,2.0;" x1="507.2917" x2="912.5" y1="1906.1849" y2="1906.1849"/><text fill="#222222" font-family="Verdana" font-size="12.5" font-weight="bold" lengthAdjust="spacing" textLength="16.6667" x="530.2083" y="1890.7369">21</text><text fill="#222222" font-family="Verdana" font-size="12.5" lengthAdjust="spacing" textLength="98.9583" x="571.875" y="1890.7369">confirm update</text><polygon fill="#2196F3" points="182.2917,1951.9857,171.875,1956.1523,182.2917,1960.319,178.125,1956.1523" style="stroke:#2196F3;stroke-width:1.0416666666666667;"/><line style="stroke:#2196F3;stroke-width:3.125;stroke-dasharray:2.0,2.0;" x1="176.0417" x2="490.625" y1="1956.1523" y2="1956.1523"/><text fill="#222222" font-family="Verdana" font-size="12.5" font-weight="bold" lengthAdjust="spacing" textLength="16.6667" x="198.9583" y="1940.7043">22</text><text fill="#222222" font-family="Verdana" font-size="12.5" lengthAdjust="spacing" textLength="45.8333" x="240.625" y="1940.7043">200 OK</text><line style="stroke:#2196F3;stroke-width:1.0416666666666667;stroke-dasharray:2.0,2.0;" x1="52.0833" x2="1329.1667" y1="1965.5273" y2="1965.5273"/><text fill="#222222" font-family="Verdana" font-size="12.5" font-weight="bold" lengthAdjust="spacing" textLength="162.5" x="67.7083" y="1987.5468">[Error Sync Response]</text><polygon fill="#2196F3" points="513.5417,2039.4206,503.125,2043.5872,513.5417,2047.7539,509.375,2043.5872" style="stroke:#2196F3;stroke-width:1.0416666666666667;"/><line style="stroke:#2196F3;stroke-width:3.125;stroke-dasharray:2.0,2.0;" x1="507.2917" x2="1238.5417" y1="2043.5872" y2="2043.5872"/><text fill="#222222" font-family="Verdana" font-size="12.5" font-weight="bold" lengthAdjust="spacing" textLength="16.6667" x="530.2083" y="2028.1392">23</text><text fill="#222222" font-family="Verdana" font-size="12.5" lengthAdjust="spacing" textLength="32.2917" x="571.875" y="2028.1392">Error</text><polygon fill="#2196F3" points="1013.5417,2089.388,1023.9583,2093.5547,1013.5417,2097.7214,1017.7083,2093.5547" style="stroke:#2196F3;stroke-width:1.0416666666666667;"/><line style="stroke:#2196F3;stroke-width:3.125;" x1="502.0833" x2="1019.7917" y1="2093.5547" y2="2093.5547"/><text fill="#222222" font-family="Verdana" font-size="12.5" font-weight="bold" lengthAdjust="spacing" textLength="16.6667" x="519.7917" y="2078.1067">24</text><text fill="#222222" font-family="Verdana" font-size="12.5" lengthAdjust="spacing" textLength="217.7083" x="561.4583" y="2078.1067">save RTP record (ERROR_CANCEL)</text><polygon fill="#2196F3" points="513.5417,2139.3555,503.125,2143.5221,513.5417,2147.6888,509.375,2143.5221" style="stroke:#2196F3;stroke-width:1.0416666666666667;"/><line style="stroke:#2196F3;stroke-width:3.125;stroke-dasharray:2.0,2.0;" x1="507.2917" x2="1030.2083" y1="2143.5221" y2="2143.5221"/><text fill="#222222" font-family="Verdana" font-size="12.5" font-weight="bold" lengthAdjust="spacing" textLength="16.6667" x="530.2083" y="2128.0741">25</text><text fill="#222222" font-family="Verdana" font-size="12.5" lengthAdjust="spacing" textLength="82.2917" x="571.875" y="2128.0741">confirm save</text><polygon fill="#2196F3" points="895.8333,2189.3229,906.25,2193.4896,895.8333,2197.6563,900,2193.4896" style="stroke:#2196F3;stroke-width:1.0416666666666667;"/><line style="stroke:#2196F3;stroke-width:3.125;" x1="502.0833" x2="902.0833" y1="2193.4896" y2="2193.4896"/><text fill="#222222" font-family="Verdana" font-size="12.5" font-weight="bold" lengthAdjust="spacing" textLength="16.6667" x="519.7917" y="2178.0416">26</text><text fill="#222222" font-family="Verdana" font-size="12.5" lengthAdjust="spacing" textLength="116.6667" x="561.4583" y="2178.0416">delete RTP record</text><polygon fill="#2196F3" points="513.5417,2239.2904,503.125,2243.457,513.5417,2247.6237,509.375,2243.457" style="stroke:#2196F3;stroke-width:1.0416666666666667;"/><line style="stroke:#2196F3;stroke-width:3.125;stroke-dasharray:2.0,2.0;" x1="507.2917" x2="912.5" y1="2243.457" y2="2243.457"/><text fill="#222222" font-family="Verdana" font-size="12.5" font-weight="bold" lengthAdjust="spacing" textLength="16.6667" x="530.2083" y="2228.009">27</text><text fill="#222222" font-family="Verdana" font-size="12.5" lengthAdjust="spacing" textLength="93.75" x="571.875" y="2228.009">confirm delete</text><polygon fill="#2196F3" points="182.2917,2289.2578,171.875,2293.4245,182.2917,2297.5911,178.125,2293.4245" style="stroke:#2196F3;stroke-width:1.0416666666666667;"/><line style="stroke:#2196F3;stroke-width:3.125;stroke-dasharray:2.0,2.0;" x1="176.0417" x2="490.625" y1="2293.4245" y2="2293.4245"/><text fill="#222222" font-family="Verdana" font-size="12.5" font-weight="bold" lengthAdjust="spacing" textLength="16.6667" x="198.9583" y="2277.9765">28</text><text fill="#222222" font-family="Verdana" font-size="12.5" lengthAdjust="spacing" textLength="128.125" x="240.625" y="2277.9765">4xx / business error</text><line style="stroke:#2196F3;stroke-width:1.0416666666666667;stroke-dasharray:2.0,2.0;" x1="41.6667" x2="1339.5833" y1="2310.0911" y2="2310.0911"/><text fill="#222222" font-family="Verdana" font-size="12.5" font-weight="bold" lengthAdjust="spacing" textLength="141.6667" x="57.2917" y="2332.1106">[Invalid RTP status]</text><polygon fill="#2196F3" points="182.2917,2395.9473,171.875,2400.1139,182.2917,2404.2806,178.125,2400.1139" style="stroke:#2196F3;stroke-width:1.0416666666666667;"/><line style="stroke:#2196F3;stroke-width:3.125;stroke-dasharray:2.0,2.0;" x1="176.0417" x2="490.625" y1="2400.1139" y2="2400.1139"/><text fill="#222222" font-family="Verdana" font-size="12.5" font-weight="bold" lengthAdjust="spacing" textLength="16.6667" x="198.9583" y="2384.6659">29</text><text fill="#222222" font-family="Verdana" font-size="12.5" lengthAdjust="spacing" textLength="167.7083" x="240.625" y="2384.6659">422 Unprocessable Entity</text><path d="M507.2917,2355.8919 L507.2917,2406.9336 A4.1667,4.1667 0 0 0 511.4583,2411.1003 L707.2917,2411.1003 A4.1667,4.1667 0 0 0 711.4583,2406.9336 L711.4583,2362.1419 L701.0417,2351.7253 L511.4583,2351.7253 A4.1667,4.1667 0 0 0 507.2917,2355.8919 " fill="url(#g9jtyjyhih9m82)" filter="url(#f9jtyjyhih9m8)" style="stroke:#9C27B0;stroke-width:1.0416666666666667;"/><path d="M701.0417,2351.7253 L701.0417,2360.0586 A2.0833,2.0833 0 0 0 703.125,2362.1419 L711.4583,2362.1419 L701.0417,2351.7253 " fill="url(#g9jtyjyhih9m82)" style="stroke:#9C27B0;stroke-width:1.0416666666666667;"/><text fill="#FFFFFF" font-family="Verdana" font-size="12.5" lengthAdjust="spacing" textLength="161.4583" x="523.9583" y="2378.953">RTP already in final state</text><text fill="#FFFFFF" font-family="Verdana" font-size="12.5" lengthAdjust="spacing" textLength="142.7083" x="523.9583" y="2393.5038">(e.g., PAID, REJECTED)</text><line style="stroke:#2196F3;stroke-width:1.0416666666666667;stroke-dasharray:2.0,2.0;" x1="31.25" x2="1350" y1="2428.7435" y2="2428.7435"/><text fill="#222222" font-family="Verdana" font-size="12.5" font-weight="bold" lengthAdjust="spacing" textLength="117.7083" x="46.875" y="2450.7629">[RTP Not Found]</text><polygon fill="#2196F3" points="513.5417,2502.6367,503.125,2506.8034,513.5417,2510.9701,509.375,2506.8034" style="stroke:#2196F3;stroke-width:1.0416666666666667;"/><line style="stroke:#2196F3;stroke-width:3.125;stroke-dasharray:2.0,2.0;" x1="507.2917" x2="912.5" y1="2506.8034" y2="2506.8034"/><text fill="#222222" font-family="Verdana" font-size="12.5" font-weight="bold" lengthAdjust="spacing" textLength="16.6667" x="530.2083" y="2491.3554">30</text><text fill="#222222" font-family="Verdana" font-size="12.5" lengthAdjust="spacing" textLength="63.5417" x="571.875" y="2491.3554">not found</text><polygon fill="#2196F3" points="182.2917,2552.6042,171.875,2556.7708,182.2917,2560.9375,178.125,2556.7708" style="stroke:#2196F3;stroke-width:1.0416666666666667;"/><line style="stroke:#2196F3;stroke-width:3.125;stroke-dasharray:2.0,2.0;" x1="176.0417" x2="490.625" y1="2556.7708" y2="2556.7708"/><text fill="#222222" font-family="Verdana" font-size="12.5" font-weight="bold" lengthAdjust="spacing" textLength="16.6667" x="198.9583" y="2541.3228">31</text><text fill="#222222" font-family="Verdana" font-size="12.5" lengthAdjust="spacing" textLength="96.875" x="240.625" y="2541.3228">404 Not Found</text><!--SRC=[pLRTRwD647_dhvZcvN9IdBXHNefqbLmWgdk9ZS2f-X0fMiFWh0ulT7UT2wtwltTs0PkFs6chUoWli3lVlnbcvWE4EHFwuVuEVCusacqXAoH4gn0y9XBCSwPv8M0MpfqFiE8wHnSU1CyufcEk67_V8PrRNIJoAqf591U-lvnUJXtdE_sCMuGjqoWvSnnjL5fDFkQe4MxpuglZb4ngdl2IV8Ep-tZYBHVnmtqGdG5Jq1v6N76my1kU-jD9cMPhfX3E8aovUXJdynItPQ79pGe-OmMnBYH-j39HuC_ZhiWgZ6jbzDMvd_snanGZdI5uBNEIbwHOILtMUcR-RttN_3Yq17ex3jlfGkosQvIEqqO2anyRZrtmWxjW5LX8fC5JwKVnCxAKW7IXu_s4lB-0g6QPfuyYP5LUiDIreaatByPrXoMQln3iBJHE_JQcRU0k9C-OV1cQECZLy3WirqCUOBaa3oie9IeKsW5wB3jCEf5z8Swis8dKqbCSQ3QN1vzQ8SfQmcGAwQxCUKBSAMnHARP1Ao382v1yywoXoDhGm3x-IC9jA0TtYuGec3RtLFajYOkMoiN6ab6arbhFJtAqpQ4BDzCVm2j4HbQrus1EjJ84YXJy0v0Crm6eKPuKUnbfFg7Di1-1_0ZcBopdgU7g8ds2hIXHrfNswLDJlqCHgaaNCYxII9S_LSjMmEUgP9eAJxOn7ChK_7Jr5LMSgUdRFIHMkRdgnZfcwSHxqFPEB4QBqaplr9xxH8sPPvOaM9eggyLGkHsY5mMpLU1V6B7LHLVAyuBGKXxY87fgZtkEVRdjRmmCiJK1NDKET_HrWw8-ur8p9WszDh1l9-4oNi6Lmf9Dchk9BYObgzgZklhJK9lciYgejJJV4QfY9nESftzTTPNl9NikxU6tdQzBiPZcc5b83HLwJuHQqa-OGSPuZlqunyYqwCnK9HB8Q89047e3bM3Cz0fc-Hde7z8Lh8kq6d4FYtTN3ke3pgDRxydazUD8k5zt8zN3qaseQt2vRMoC-8TrVCpLNZUwdjx0eZ0DIPjkquVGzARutu9LrWFclo3bpHPUS7SN-FzJgAOKtniG1LBIJB10KU6NXL3uBb1MvWH6j1qqBRmUyKb1q-qyYA9bz5J3T08ZireCYNJt9aB6nYbytj8rJ6LQBsK7JxzL-ch5toPzDw-lS0Nh7OrgcbU0emHGn-WdjsEcrvdgcIriRtrh4XntuVgQrk9cOs1hMca3GQjjDUvvTeuCknrPwYmUD2PPRaqF0Jh7oytb1OIpESsDAFWby5R3NwgtflI2jy4PKmjQBzwPfVqDv5HcZcn2DmChnWlhILTFFKd_1W00]--></g></svg>