<?xml version="1.0" encoding="us-ascii" standalone="no"?><svg xmlns="http://www.w3.org/2000/svg" xmlns:xlink="http://www.w3.org/1999/xlink" contentStyleType="text/css" height="1345.8333px" preserveAspectRatio="none" style="width:1069px;height:1345px;" version="1.1" viewBox="0 0 1069 1345" width="1069.7917px" zoomAndPan="magnify"><defs><linearGradient id="g1jhp1tqh33pn80" x1="50%" x2="50%" y1="0%" y2="100%"><stop offset="0%" stop-color="#FFFFFF"/><stop offset="100%" stop-color="#FFFFFF"/></linearGradient><filter height="300%" id="f1jhp1tqh33pn8" width="300%" x="-1" y="-1"><feGaussianBlur result="blurOut" stdDeviation="2.0833333333333335"/><feColorMatrix in="blurOut" result="blurOut2" type="matrix" values="0 0 0 0 0 0 0 0 0 0 0 0 0 0 0 0 0 0 .4 0"/><feOffset dx="4.166666666666667" dy="4.166666666666667" in="blurOut2" result="blurOut3"/><feBlend in="SourceGraphic" in2="blurOut3" mode="normal"/></filter><linearGradient id="g1jhp1tqh33pn81" x1="50%" x2="50%" y1="0%" y2="100%"><stop offset="0%" stop-color="#4DABF5"/><stop offset="100%" stop-color="#2196F3"/></linearGradient><linearGradient id="g1jhp1tqh33pn82" x1="50%" x2="50%" y1="0%" y2="100%"><stop offset="0%" stop-color="#B052C0"/><stop offset="100%" stop-color="#9C27B0"/></linearGradient></defs><g><rect fill="url(#g1jhp1tqh33pn80)" height="57.5846" id="_title" rx="4.1667" ry="4.1667" style="stroke:#CCCCCC;stroke-width:1.0416666666666667;" width="228.125" x="421.875" y="20.8333"/><text fill="#2196F3" font-family="Verdana" font-size="20.8333" font-weight="bold" lengthAdjust="spacing" textLength="194.7917" x="438.5417" y="56.838">RTP Delete Flow</text><rect fill="#FFFFFF" filter="url(#f1jhp1tqh33pn8)" height="1005.5664" style="stroke:#CCCCCC;stroke-width:1.0416666666666667;" width="10.4167" x="212.5" y="225.2279"/><rect fill="#FFFFFF" filter="url(#f1jhp1tqh33pn8)" height="114.4857" style="stroke:#CCCCCC;stroke-width:1.0416666666666667;" width="10.4167" x="533.3333" y="275.1953"/><rect fill="#FFFFFF" filter="url(#f1jhp1tqh33pn8)" height="531.9336" style="stroke:#CCCCCC;stroke-width:1.0416666666666667;" width="10.4167" x="952.0833" y="581.2174"/><rect fill="url(#g1jhp1tqh33pn80)" filter="url(#f1jhp1tqh33pn8)" height="932.6823" rx="4.1667" ry="4.1667" style="stroke:#2196F3;stroke-width:1.0416666666666667;" width="953.6458" x="98.4375" y="290.8203"/><rect fill="url(#g1jhp1tqh33pn80)" filter="url(#f1jhp1tqh33pn8)" height="472.5911" rx="4.1667" ry="4.1667" style="stroke:#2196F3;stroke-width:1.0416666666666667;" width="932.8125" x="108.8542" y="656.1849"/><path d="M108.8542,826.888 L1041.6667,826.888 L1041.6667,973.6654 A4.1667,4.1667 0 0 1 1037.5,977.832 L113.0208,977.832 A4.1667,4.1667 0 0 1 108.8542,973.6654 L108.8542,826.888 " fill="url(#g1jhp1tqh33pn80)" style="stroke:none;stroke-width:1.0416666666666667;"/><path d="M108.8542,977.832 L1041.6667,977.832 L1041.6667,1124.6094 A4.1667,4.1667 0 0 1 1037.5,1128.776 L113.0208,1128.776 A4.1667,4.1667 0 0 1 108.8542,1124.6094 L108.8542,977.832 " fill="url(#g1jhp1tqh33pn80)" style="stroke:none;stroke-width:1.0416666666666667;"/><path d="M98.4375,1136.0677 L1052.0833,1136.0677 L1052.0833,1219.3359 A4.1667,4.1667 0 0 1 1047.9167,1223.5026 L102.6042,1223.5026 A4.1667,4.1667 0 0 1 98.4375,1219.3359 L98.4375,1136.0677 " fill="url(#g1jhp1tqh33pn80)" style="stroke:none;stroke-width:1.0416666666666667;"/><line style="stroke:#CCCCCC;stroke-width:1.0416666666666667;stroke-dasharray:5.0,5.0;" x1="217.1875" x2="217.1875" y1="173.1771" y2="1241.2109"/><line style="stroke:#CCCCCC;stroke-width:1.0416666666666667;stroke-dasharray:5.0,5.0;" x1="538.0208" x2="538.0208" y1="173.1771" y2="1241.2109"/><line style="stroke:#CCCCCC;stroke-width:1.0416666666666667;stroke-dasharray:5.0,5.0;" x1="957.2917" x2="957.2917" y1="173.1771" y2="1241.2109"/><rect fill="url(#g1jhp1tqh33pn81)" filter="url(#f1jhp1tqh33pn8)" height="49.9674" rx="4.1667" ry="4.1667" style="stroke:#2196F3;stroke-width:1.0416666666666667;" width="110.4167" x="160.9375" y="119.043"/><text fill="#FFFFFF" font-family="Verdana" font-size="12.5" lengthAdjust="spacing" textLength="75" x="178.6458" y="148.3541">MS-SENDER</text><rect fill="url(#g1jhp1tqh33pn81)" filter="url(#f1jhp1tqh33pn8)" height="49.9674" rx="4.1667" ry="4.1667" style="stroke:#2196F3;stroke-width:1.0416666666666667;" width="110.4167" x="160.9375" y="1240.1693"/><text fill="#FFFFFF" font-family="Verdana" font-size="12.5" lengthAdjust="spacing" textLength="75" x="178.6458" y="1269.4804">MS-SENDER</text><text fill="#222222" font-family="Verdana" font-size="12.5" lengthAdjust="spacing" textLength="32.2917" x="519.2708" y="159.8124">RTPS</text><path d="M519.7917,100.293 C519.7917,89.8763 538.5417,89.8763 538.5417,89.8763 C538.5417,89.8763 557.2917,89.8763 557.2917,100.293 L557.2917,127.3763 C557.2917,137.793 538.5417,137.793 538.5417,137.793 C538.5417,137.793 519.7917,137.793 519.7917,127.3763 L519.7917,100.293 " fill="url(#g1jhp1tqh33pn81)" filter="url(#f1jhp1tqh33pn8)" style="stroke:#2196F3;stroke-width:1.5625;"/><path d="M519.7917,100.293 C519.7917,110.7096 538.5417,110.7096 538.5417,110.7096 C538.5417,110.7096 557.2917,110.7096 557.2917,100.293 " fill="none" style="stroke:#2196F3;stroke-width:1.5625;"/><text fill="#222222" font-family="Verdana" font-size="12.5" lengthAdjust="spacing" textLength="32.2917" x="519.2708" y="1262.1887">RTPS</text><path d="M519.7917,1285.9701 C519.7917,1275.5534 538.5417,1275.5534 538.5417,1275.5534 C538.5417,1275.5534 557.2917,1275.5534 557.2917,1285.9701 L557.2917,1313.0534 C557.2917,1323.4701 538.5417,1323.4701 538.5417,1323.4701 C538.5417,1323.4701 519.7917,1323.4701 519.7917,1313.0534 L519.7917,1285.9701 " fill="url(#g1jhp1tqh33pn81)" filter="url(#f1jhp1tqh33pn8)" style="stroke:#2196F3;stroke-width:1.5625;"/><path d="M519.7917,1285.9701 C519.7917,1296.3867 538.5417,1296.3867 538.5417,1296.3867 C538.5417,1296.3867 557.2917,1296.3867 557.2917,1285.9701 " fill="none" style="stroke:#2196F3;stroke-width:1.5625;"/><rect fill="url(#g1jhp1tqh33pn81)" filter="url(#f1jhp1tqh33pn8)" height="49.9674" rx="4.1667" ry="4.1667" style="stroke:#2196F3;stroke-width:1.0416666666666667;" width="61.4583" x="925" y="119.043"/><text fill="#FFFFFF" font-family="Verdana" font-size="12.5" lengthAdjust="spacing" textLength="26.0417" x="942.7083" y="148.3541">DSP</text><rect fill="url(#g1jhp1tqh33pn81)" filter="url(#f1jhp1tqh33pn8)" height="49.9674" rx="4.1667" ry="4.1667" style="stroke:#2196F3;stroke-width:1.0416666666666667;" width="61.4583" x="925" y="1240.1693"/><text fill="#FFFFFF" font-family="Verdana" font-size="12.5" lengthAdjust="spacing" textLength="26.0417" x="942.7083" y="1269.4804">DSP</text><rect fill="#FFFFFF" filter="url(#f1jhp1tqh33pn8)" height="1005.5664" style="stroke:#CCCCCC;stroke-width:1.0416666666666667;" width="10.4167" x="212.5" y="225.2279"/><rect fill="#FFFFFF" filter="url(#f1jhp1tqh33pn8)" height="114.4857" style="stroke:#CCCCCC;stroke-width:1.0416666666666667;" width="10.4167" x="533.3333" y="275.1953"/><rect fill="#FFFFFF" filter="url(#f1jhp1tqh33pn8)" height="531.9336" style="stroke:#CCCCCC;stroke-width:1.0416666666666667;" width="10.4167" x="952.0833" y="581.2174"/><ellipse cx="18.2292" cy="224.4466" fill="none" rx="4.1667" ry="4.1667" style="stroke:#2196F3;stroke-width:1.5625;"/><polygon fill="#2196F3" points="200,221.0612,210.4167,225.2279,200,229.3945,204.1667,225.2279" style="stroke:#2196F3;stroke-width:1.0416666666666667;"/><line style="stroke:#2196F3;stroke-width:3.125;" x1="22.9167" x2="206.25" y1="225.2279" y2="225.2279"/><text fill="#222222" font-family="Verdana" font-size="12.5" font-weight="bold" lengthAdjust="spacing" textLength="8.3333" x="36.4583" y="209.7799">1</text><text fill="#222222" font-family="Verdana" font-size="12.5" lengthAdjust="spacing" textLength="119.7917" x="69.7917" y="209.7799">GDP DELETE event</text><polygon fill="#2196F3" points="520.8333,271.0286,531.25,275.1953,520.8333,279.362,525,275.1953" style="stroke:#2196F3;stroke-width:1.0416666666666667;"/><line style="stroke:#2196F3;stroke-width:3.125;" x1="222.9167" x2="527.0833" y1="275.1953" y2="275.1953"/><text fill="#222222" font-family="Verdana" font-size="12.5" font-weight="bold" lengthAdjust="spacing" textLength="8.3333" x="240.625" y="259.7473">2</text><text fill="#222222" font-family="Verdana" font-size="12.5" lengthAdjust="spacing" textLength="217.7083" x="273.9583" y="259.7473">findRtpByOperationDispatcherKey</text><path d="M102.6042,290.8203 L185.9375,290.8203 L185.9375,317.8711 L175.5208,328.2878 L98.4375,328.2878 L98.4375,294.987 A4.1667,4.1667 0 0 1 102.6042,290.8203 " fill="#FFFFFF" style="stroke:#666666;stroke-width:1.0416666666666667;"/><rect fill="none" height="932.6823" rx="4.1667" ry="4.1667" style="stroke:#2196F3;stroke-width:1.0416666666666667;" width="953.6458" x="98.4375" y="290.8203"/><text fill="#9C27B0" font-family="Verdana" font-size="12.5" font-weight="bold" lengthAdjust="spacing" textLength="19.7917" x="124.4792" y="313.8814">alt</text><text fill="#222222" font-family="Verdana" font-size="12.5" font-weight="bold" lengthAdjust="spacing" textLength="87.5" x="211.9792" y="314.9231">[RTP Found]</text><polygon fill="#2196F3" points="234.375,385.5143,223.9583,389.681,234.375,393.8477,230.2083,389.681" style="stroke:#2196F3;stroke-width:1.0416666666666667;"/><line style="stroke:#2196F3;stroke-width:3.125;stroke-dasharray:2.0,2.0;" x1="228.125" x2="537.5" y1="389.681" y2="389.681"/><text fill="#222222" font-family="Verdana" font-size="12.5" font-weight="bold" lengthAdjust="spacing" textLength="8.3333" x="251.0417" y="374.233">3</text><text fill="#222222" font-family="Verdana" font-size="12.5" lengthAdjust="spacing" textLength="68.75" x="284.375" y="374.233">RTP Found</text><line style="stroke:#2196F3;stroke-width:3.125;" x1="222.9167" x2="266.6667" y1="439.6484" y2="439.6484"/><line style="stroke:#2196F3;stroke-width:3.125;" x1="266.6667" x2="266.6667" y1="439.6484" y2="453.1901"/><line style="stroke:#2196F3;stroke-width:3.125;" x1="223.9583" x2="266.6667" y1="453.1901" y2="453.1901"/><polygon fill="#2196F3" points="234.375,449.0234,223.9583,453.1901,234.375,457.3568,230.2083,453.1901" style="stroke:#2196F3;stroke-width:1.0416666666666667;"/><text fill="#222222" font-family="Verdana" font-size="12.5" font-weight="bold" lengthAdjust="spacing" textLength="8.3333" x="240.625" y="424.2004">4</text><text fill="#222222" font-family="Verdana" font-size="12.5" lengthAdjust="spacing" textLength="125" x="273.9583" y="424.2004">validate RTP status</text><line style="stroke:#2196F3;stroke-width:3.125;" x1="222.9167" x2="266.6667" y1="503.1576" y2="503.1576"/><line style="stroke:#2196F3;stroke-width:3.125;" x1="266.6667" x2="266.6667" y1="503.1576" y2="516.6992"/><line style="stroke:#2196F3;stroke-width:3.125;" x1="223.9583" x2="266.6667" y1="516.6992" y2="516.6992"/><polygon fill="#2196F3" points="234.375,512.5326,223.9583,516.6992,234.375,520.8659,230.2083,516.6992" style="stroke:#2196F3;stroke-width:1.0416666666666667;"/><text fill="#222222" font-family="Verdana" font-size="12.5" font-weight="bold" lengthAdjust="spacing" textLength="8.3333" x="240.625" y="487.7096">5</text><text fill="#222222" font-family="Verdana" font-size="12.5" lengthAdjust="spacing" textLength="198.9583" x="273.9583" y="487.7096">update RTP status (RFC_SENT)</text><path d="M495.8333,472.9818 L495.8333,509.4401 A4.1667,4.1667 0 0 0 500,513.6068 L727.0833,513.6068 A4.1667,4.1667 0 0 0 731.25,509.4401 L731.25,479.2318 L720.8333,468.8151 L500,468.8151 A4.1667,4.1667 0 0 0 495.8333,472.9818 " fill="url(#g1jhp1tqh33pn82)" filter="url(#f1jhp1tqh33pn8)" style="stroke:#9C27B0;stroke-width:1.0416666666666667;"/><path d="M720.8333,468.8151 L720.8333,477.1484 A2.0833,2.0833 0 0 0 722.9167,479.2318 L731.25,479.2318 L720.8333,468.8151 " fill="url(#g1jhp1tqh33pn82)" style="stroke:#9C27B0;stroke-width:1.0416666666666667;"/><text fill="#FFFFFF" font-family="Verdana" font-size="12.5" lengthAdjust="spacing" textLength="192.7083" x="512.5" y="496.0429">Cancellation request initiated</text><polygon fill="#2196F3" points="939.5833,577.0508,950,581.2174,939.5833,585.3841,943.75,581.2174" style="stroke:#2196F3;stroke-width:1.0416666666666667;"/><line style="stroke:#2196F3;stroke-width:3.125;" x1="222.9167" x2="945.8333" y1="581.2174" y2="581.2174"/><text fill="#222222" font-family="Verdana" font-size="12.5" font-weight="bold" lengthAdjust="spacing" textLength="8.3333" x="240.625" y="558.4941">6</text><text fill="#222222" font-family="Verdana" font-size="12.5" lengthAdjust="spacing" textLength="188.5417" x="273.9583" y="551.2187">Send request of cancellation</text><text fill="#222222" font-family="Verdana" font-size="12.5" lengthAdjust="spacing" textLength="655.2083" x="273.9583" y="565.7694">POST /sepa-request-to-pay-requests/{sepaRequestToPayRequestResourceId}/cancellation-requests</text><path d="M816.6667,598.9258 L816.6667,635.3841 A4.1667,4.1667 0 0 0 820.8333,639.5508 L939.5833,639.5508 A4.1667,4.1667 0 0 0 943.75,635.3841 L943.75,605.1758 L933.3333,594.7591 L820.8333,594.7591 A4.1667,4.1667 0 0 0 816.6667,598.9258 " fill="url(#g1jhp1tqh33pn82)" filter="url(#f1jhp1tqh33pn8)" style="stroke:#9C27B0;stroke-width:1.0416666666666667;"/><path d="M933.3333,594.7591 L933.3333,603.0924 A2.0833,2.0833 0 0 0 935.4167,605.1758 L943.75,605.1758 L933.3333,594.7591 " fill="url(#g1jhp1tqh33pn82)" style="stroke:#9C27B0;stroke-width:1.0416666666666667;"/><text fill="#FFFFFF" font-family="Verdana" font-size="12.5" lengthAdjust="spacing" textLength="84.375" x="833.3333" y="621.9869">Retry if failed</text><path d="M113.0208,656.1849 L196.3542,656.1849 L196.3542,683.2357 L185.9375,693.6523 L108.8542,693.6523 L108.8542,660.3516 A4.1667,4.1667 0 0 1 113.0208,656.1849 " fill="#FFFFFF" style="stroke:#666666;stroke-width:1.0416666666666667;"/><rect fill="none" height="472.5911" rx="4.1667" ry="4.1667" style="stroke:#2196F3;stroke-width:1.0416666666666667;" width="932.8125" x="108.8542" y="656.1849"/><text fill="#9C27B0" font-family="Verdana" font-size="12.5" font-weight="bold" lengthAdjust="spacing" textLength="19.7917" x="134.8958" y="679.246">alt</text><text fill="#222222" font-family="Verdana" font-size="12.5" font-weight="bold" lengthAdjust="spacing" textLength="119.7917" x="222.3958" y="680.2877">[Async flow EPC]</text><polygon fill="#2196F3" points="234.375,750.8789,223.9583,755.0456,234.375,759.2122,230.2083,755.0456" style="stroke:#2196F3;stroke-width:1.0416666666666667;"/><line style="stroke:#2196F3;stroke-width:3.125;stroke-dasharray:2.0,2.0;" x1="228.125" x2="951.0417" y1="755.0456" y2="755.0456"/><text fill="#222222" font-family="Verdana" font-size="12.5" font-weight="bold" lengthAdjust="spacing" textLength="8.3333" x="251.0417" y="739.5976">7</text><text fill="#222222" font-family="Verdana" font-size="12.5" lengthAdjust="spacing" textLength="95.8333" x="284.375" y="739.5976">OK empty Body</text><line style="stroke:#2196F3;stroke-width:3.125;" x1="222.9167" x2="266.6667" y1="805.013" y2="805.013"/><line style="stroke:#2196F3;stroke-width:3.125;" x1="266.6667" x2="266.6667" y1="805.013" y2="818.5547"/><line style="stroke:#2196F3;stroke-width:3.125;" x1="223.9583" x2="266.6667" y1="818.5547" y2="818.5547"/><polygon fill="#2196F3" points="234.375,814.388,223.9583,818.5547,234.375,822.7214,230.2083,818.5547" style="stroke:#2196F3;stroke-width:1.0416666666666667;"/><text fill="#222222" font-family="Verdana" font-size="12.5" font-weight="bold" lengthAdjust="spacing" textLength="8.3333" x="240.625" y="789.565">8</text><text fill="#222222" font-family="Verdana" font-size="12.5" lengthAdjust="spacing" textLength="198.9583" x="273.9583" y="789.565">update RTP status (RFC_SENT)</text><line style="stroke:#2196F3;stroke-width:1.0416666666666667;stroke-dasharray:2.0,2.0;" x1="108.8542" x2="1041.6667" y1="827.9297" y2="827.9297"/><text fill="#222222" font-family="Verdana" font-size="12.5" font-weight="bold" lengthAdjust="spacing" textLength="111.4583" x="124.4792" y="849.9491">[Sync flow EPC]</text><polygon fill="#2196F3" points="234.375,901.8229,223.9583,905.9896,234.375,910.1563,230.2083,905.9896" style="stroke:#2196F3;stroke-width:1.0416666666666667;"/><line style="stroke:#2196F3;stroke-width:3.125;stroke-dasharray:2.0,2.0;" x1="228.125" x2="951.0417" y1="905.9896" y2="905.9896"/><text fill="#222222" font-family="Verdana" font-size="12.5" font-weight="bold" lengthAdjust="spacing" textLength="8.3333" x="251.0417" y="890.5416">9</text><text fill="#222222" font-family="Verdana" font-size="12.5" lengthAdjust="spacing" textLength="71.875" x="284.375" y="890.5416">OK payload</text><line style="stroke:#2196F3;stroke-width:3.125;" x1="222.9167" x2="266.6667" y1="955.957" y2="955.957"/><line style="stroke:#2196F3;stroke-width:3.125;" x1="266.6667" x2="266.6667" y1="955.957" y2="969.4987"/><line style="stroke:#2196F3;stroke-width:3.125;" x1="223.9583" x2="266.6667" y1="969.4987" y2="969.4987"/><polygon fill="#2196F3" points="234.375,965.332,223.9583,969.4987,234.375,973.6654,230.2083,969.4987" style="stroke:#2196F3;stroke-width:1.0416666666666667;"/><text fill="#222222" font-family="Verdana" font-size="12.5" font-weight="bold" lengthAdjust="spacing" textLength="16.6667" x="240.625" y="940.509">10</text><text fill="#222222" font-family="Verdana" font-size="12.5" lengthAdjust="spacing" textLength="208.3333" x="282.2917" y="940.509">update RTP status (CANCELLED)</text><line style="stroke:#2196F3;stroke-width:1.0416666666666667;stroke-dasharray:2.0,2.0;" x1="108.8542" x2="1041.6667" y1="978.8737" y2="978.8737"/><text fill="#222222" font-family="Verdana" font-size="12.5" font-weight="bold" lengthAdjust="spacing" textLength="162.5" x="124.4792" y="1000.8931">[Error Sync Response]</text><polygon fill="#2196F3" points="234.375,1052.7669,223.9583,1056.9336,234.375,1061.1003,230.2083,1056.9336" style="stroke:#2196F3;stroke-width:1.0416666666666667;"/><line style="stroke:#2196F3;stroke-width:3.125;stroke-dasharray:2.0,2.0;" x1="228.125" x2="951.0417" y1="1056.9336" y2="1056.9336"/><text fill="#222222" font-family="Verdana" font-size="12.5" font-weight="bold" lengthAdjust="spacing" textLength="16.6667" x="251.0417" y="1041.4856">11</text><text fill="#222222" font-family="Verdana" font-size="12.5" lengthAdjust="spacing" textLength="32.2917" x="292.7083" y="1041.4856">Error</text><line style="stroke:#2196F3;stroke-width:3.125;" x1="222.9167" x2="266.6667" y1="1112.1094" y2="1112.1094"/><line style="stroke:#2196F3;stroke-width:3.125;" x1="266.6667" x2="266.6667" y1="1112.1094" y2="1125.651"/><line style="stroke:#2196F3;stroke-width:3.125;" x1="217.7083" x2="266.6667" y1="1125.651" y2="1125.651"/><polygon fill="#2196F3" points="228.125,1121.4844,217.7083,1125.651,228.125,1129.8177,223.9583,1125.651" style="stroke:#2196F3;stroke-width:1.0416666666666667;"/><text fill="#222222" font-family="Verdana" font-size="12.5" font-weight="bold" lengthAdjust="spacing" textLength="16.6667" x="240.625" y="1096.6614">12</text><text fill="#222222" font-family="Verdana" font-size="12.5" lengthAdjust="spacing" textLength="233.3333" x="282.2917" y="1096.6614">update RTP status (ERROR_CANCEL)</text><line style="stroke:#2196F3;stroke-width:1.0416666666666667;stroke-dasharray:2.0,2.0;" x1="98.4375" x2="1052.0833" y1="1137.1094" y2="1137.1094"/><text fill="#222222" font-family="Verdana" font-size="12.5" font-weight="bold" lengthAdjust="spacing" textLength="117.7083" x="114.0625" y="1159.1288">[RTP Not Found]</text><polygon fill="#2196F3" points="234.375,1211.0026,223.9583,1215.1693,234.375,1219.3359,230.2083,1215.1693" style="stroke:#2196F3;stroke-width:1.0416666666666667;"/><line style="stroke:#2196F3;stroke-width:3.125;stroke-dasharray:2.0,2.0;" x1="228.125" x2="537.5" y1="1215.1693" y2="1215.1693"/><text fill="#222222" font-family="Verdana" font-size="12.5" font-weight="bold" lengthAdjust="spacing" textLength="16.6667" x="251.0417" y="1199.7213">13</text><text fill="#222222" font-family="Verdana" font-size="12.5" lengthAdjust="spacing" textLength="63.5417" x="292.7083" y="1199.7213">not found</text><!--SRC=[dLJ1Rjim3BthAxXSkXxS53lcC22DdQ5ecXYsjyi65AfD9m8KoPFa5CQmVnybssaIeCCwNooBVEzHZvIl89LSkQ-FAuW5tng-XreRo8eKSbGLpDDxTWM5S19d4AFZGcBr6ixnPukgn15CkT_GMA7L33xTtDxSqaQCjZIYSM6ps0aBrQ1aT_h5WjiXL2EpK0wDuX8QeqkqDbHZIKgeBN6TFLo5GdXD4FWIfw0RDDphm85BKONb3MCVI66FiEUK9pXZpfycG6EKw12MKhymrd3ZH2aQiWCcZtcK9-iuoIR0BVHBHepycLk42O7pFaAhSsISfo52RyPuwxHgzyze6Fkkeyy3qooK6oUhf4W03wWSfPPE7AZ4KQn_WSUGnWngeQhCDNVTPZnbB6p3NRb3yu0T8p-E3BuengKBXrpgLbNC6-Rt8JgfuZnSuJb3WBnMCM06Qti3hUEkjMzajir57dpCbeid2XVN0Q8qXOtOxjmC5fp6ICg-VSQFbNKq3S89ugWk5CZRMJ-0OwQkeJnX-A7IJLx0r6B3eo4dSZfgU3T-skal7ytwhqAdl1lM6LhTcXBlgz_JKz8ZCbHpzCet-dWQYNKePjm4oD2P3aGDTPZmiEihz-ciPw96pMsdIgXf42595mEKICxQjNa0t3UkWpjTTKFEVzYEaaOu_pSzCangNhr7R35VBvBLAebFr19Zw1u7JNAtqShY6veXyproIPPjigTUzFfoZiSsUCFx6iWAHa-eojEijVlR3Q4kqI_8Xuc2SATtfB-dVm00]--></g></svg>