<svg xmlns="http://www.w3.org/2000/svg" xmlns:xlink="http://www.w3.org/1999/xlink" contentStyleType="text/css" data-diagram-type="SEQUENCE" height="639px" preserveAspectRatio="none" style="width:609px;height:639px;background:#FFFFFF;" version="1.1" viewBox="0 0 609 639" width="609px" zoomAndPan="magnify"><title>Cancel RTP Process</title><defs/><g><text fill="#000000" font-family="sans-serif" font-size="14" font-weight="bold" lengthAdjust="spacing" textLength="153.8633" x="228.7507" y="27.9951">Cancel RTP Process</text><g><title>RTP API</title><rect fill="#FFFFFF" height="396.3984" style="stroke:#181818;stroke-width:1;" width="10" x="228.7007" y="152.7266"/></g><g><title>RTP Service</title><rect fill="#FFFFFF" height="364.2656" style="stroke:#181818;stroke-width:1;" width="10" x="363.1162" y="184.8594"/></g><g><title>Database</title><rect fill="#FFFFFF" height="335.1328" style="stroke:#181818;stroke-width:1;" width="10" x="550.9644" y="213.9922"/></g><rect fill="transparent" height="313.1328" style="stroke:#000000;stroke-width:1.5;" width="592.3647" x="10" y="228.9922"/><g><title>Client</title><rect fill="transparent" height="440.5313" width="8" x="39.2651" y="118.5938"/><line style="stroke:#181818;stroke-width:0.5;stroke-dasharray:5.0,5.0;" x1="43" x2="43" y1="118.5938" y2="559.125"/></g><g><title>RTP API</title><rect fill="transparent" height="440.5313" width="8" x="229.7007" y="118.5938"/><line style="stroke:#181818;stroke-width:0.5;stroke-dasharray:5.0,5.0;" x1="233.0405" x2="233.0405" y1="118.5938" y2="559.125"/></g><g><title>RTP Service</title><rect fill="transparent" height="440.5313" width="8" x="364.1162" y="118.5938"/><line style="stroke:#181818;stroke-width:0.5;stroke-dasharray:5.0,5.0;" x1="367.6597" x2="367.6597" y1="118.5938" y2="559.125"/></g><g><title>Database</title><rect fill="transparent" height="440.5313" width="8" x="551.9644" y="118.5938"/><line style="stroke:#181818;stroke-width:0.5;stroke-dasharray:5.0,5.0;" x1="555.564" x2="555.564" y1="118.5938" y2="559.125"/></g><text fill="#000000" font-family="sans-serif" font-size="14" lengthAdjust="spacing" textLength="40.5303" x="20" y="115.292">Client</text><ellipse cx="43.2651" cy="50.7969" fill="#E2E2F0" rx="8" ry="8" style="stroke:#181818;stroke-width:0.5;"/><path d="M43.2651,58.7969 L43.2651,85.7969 M30.2651,66.7969 L56.2651,66.7969 M43.2651,85.7969 L30.2651,100.7969 M43.2651,85.7969 L56.2651,100.7969 " fill="transparent" style="stroke:#181818;stroke-width:0.5;"/><text fill="#000000" font-family="sans-serif" font-size="14" lengthAdjust="spacing" textLength="40.5303" x="20" y="571.1201">Client</text><ellipse cx="43.2651" cy="582.9219" fill="#E2E2F0" rx="8" ry="8" style="stroke:#181818;stroke-width:0.5;"/><path d="M43.2651,590.9219 L43.2651,617.9219 M30.2651,598.9219 L56.2651,598.9219 M43.2651,617.9219 L30.2651,632.9219 M43.2651,617.9219 L56.2651,632.9219 " fill="transparent" style="stroke:#181818;stroke-width:0.5;"/><rect fill="#E2E2F0" height="30.2969" rx="2.5" ry="2.5" style="stroke:#181818;stroke-width:0.5;" width="67.3203" x="200.0405" y="87.2969"/><text fill="#000000" font-family="sans-serif" font-size="14" lengthAdjust="spacing" textLength="53.3203" x="207.0405" y="107.292">RTP API</text><rect fill="#E2E2F0" height="30.2969" rx="2.5" ry="2.5" style="stroke:#181818;stroke-width:0.5;" width="67.3203" x="200.0405" y="558.125"/><text fill="#000000" font-family="sans-serif" font-size="14" lengthAdjust="spacing" textLength="53.3203" x="207.0405" y="578.1201">RTP API</text><rect fill="#E2E2F0" height="30.2969" rx="2.5" ry="2.5" style="stroke:#181818;stroke-width:0.5;" width="96.9131" x="319.6597" y="87.2969"/><text fill="#000000" font-family="sans-serif" font-size="14" lengthAdjust="spacing" textLength="82.9131" x="326.6597" y="107.292">RTP Service</text><rect fill="#E2E2F0" height="30.2969" rx="2.5" ry="2.5" style="stroke:#181818;stroke-width:0.5;" width="96.9131" x="319.6597" y="558.125"/><text fill="#000000" font-family="sans-serif" font-size="14" lengthAdjust="spacing" textLength="82.9131" x="326.6597" y="578.1201">RTP Service</text><text fill="#000000" font-family="sans-serif" font-size="14" lengthAdjust="spacing" textLength="66.8008" x="519.564" y="115.292">Database</text><path d="M537.9644,66.2969 C537.9644,56.2969 555.9644,56.2969 555.9644,56.2969 C555.9644,56.2969 573.9644,56.2969 573.9644,66.2969 L573.9644,92.2969 C573.9644,102.2969 555.9644,102.2969 555.9644,102.2969 C555.9644,102.2969 537.9644,102.2969 537.9644,92.2969 L537.9644,66.2969 " fill="#E2E2F0" style="stroke:#181818;stroke-width:1.5;"/><path d="M537.9644,66.2969 C537.9644,76.2969 555.9644,76.2969 555.9644,76.2969 C555.9644,76.2969 573.9644,76.2969 573.9644,66.2969 " fill="transparent" style="stroke:#181818;stroke-width:1.5;"/><text fill="#000000" font-family="sans-serif" font-size="14" lengthAdjust="spacing" textLength="66.8008" x="519.564" y="571.1201">Database</text><path d="M537.9644,584.4219 C537.9644,574.4219 555.9644,574.4219 555.9644,574.4219 C555.9644,574.4219 573.9644,574.4219 573.9644,584.4219 L573.9644,610.4219 C573.9644,620.4219 555.9644,620.4219 555.9644,620.4219 C555.9644,620.4219 537.9644,620.4219 537.9644,610.4219 L537.9644,584.4219 " fill="#E2E2F0" style="stroke:#181818;stroke-width:1.5;"/><path d="M537.9644,584.4219 C537.9644,594.4219 555.9644,594.4219 555.9644,594.4219 C555.9644,594.4219 573.9644,594.4219 573.9644,584.4219 " fill="transparent" style="stroke:#181818;stroke-width:1.5;"/><g><title>RTP API</title><rect fill="#FFFFFF" height="396.3984" style="stroke:#181818;stroke-width:1;" width="10" x="228.7007" y="152.7266"/></g><g><title>RTP Service</title><rect fill="#FFFFFF" height="364.2656" style="stroke:#181818;stroke-width:1;" width="10" x="363.1162" y="184.8594"/></g><g><title>Database</title><rect fill="#FFFFFF" height="335.1328" style="stroke:#181818;stroke-width:1;" width="10" x="550.9644" y="213.9922"/></g><polygon fill="#181818" points="216.7007,148.7266,226.7007,152.7266,216.7007,156.7266,220.7007,152.7266" style="stroke:#181818;stroke-width:1;"/><line style="stroke:#181818;stroke-width:1;" x1="43.2651" x2="222.7007" y1="152.7266" y2="152.7266"/><text fill="#000000" font-family="sans-serif" font-size="13" lengthAdjust="spacing" textLength="166.4355" x="50.2651" y="147.6606">POST /rtps/{rtpId}/cancel</text><path d="M243,133.5938 L243,158.5938 L454,158.5938 L454,143.5938 L444,133.5938 L243,133.5938 " fill="#FEFFDD" style="stroke:#181818;stroke-width:0.5;"/><path d="M444,133.5938 L444,143.5938 L454,143.5938 L444,133.5938 " fill="#FEFFDD" style="stroke:#181818;stroke-width:0.5;"/><text fill="#000000" font-family="sans-serif" font-size="13" lengthAdjust="spacing" textLength="190.0361" x="249" y="150.6606">With rtpId as path parameter</text><polygon fill="#181818" points="351.1162,180.8594,361.1162,184.8594,351.1162,188.8594,355.1162,184.8594" style="stroke:#181818;stroke-width:1;"/><line style="stroke:#181818;stroke-width:1;" x1="238.7007" x2="357.1162" y1="184.8594" y2="184.8594"/><text fill="#000000" font-family="sans-serif" font-size="13" lengthAdjust="spacing" textLength="105.4155" x="245.7007" y="179.7935">cancelRtp(rtpId)</text><polygon fill="#181818" points="538.9644,209.9922,548.9644,213.9922,538.9644,217.9922,542.9644,213.9922" style="stroke:#181818;stroke-width:1;"/><line style="stroke:#181818;stroke-width:1;" x1="373.1162" x2="544.9644" y1="213.9922" y2="213.9922"/><text fill="#000000" font-family="sans-serif" font-size="13" lengthAdjust="spacing" textLength="116.6826" x="380.1162" y="208.9263">findRtpById(rtpId)</text><path d="M10,228.9922 L74.4429,228.9922 L74.4429,236.125 L64.4429,246.125 L10,246.125 L10,228.9922 " fill="#EEEEEE" style="stroke:#000000;stroke-width:1.5;"/><rect fill="transparent" height="313.1328" style="stroke:#000000;stroke-width:1.5;" width="592.3647" x="10" y="228.9922"/><text fill="#000000" font-family="sans-serif" font-size="13" font-weight="bold" lengthAdjust="spacing" textLength="19.4429" x="25" y="242.0591">alt</text><text fill="#000000" font-family="sans-serif" font-size="11" font-weight="bold" lengthAdjust="spacing" textLength="74.5991" x="89.4429" y="241.2026">[RTP exists]</text><polygon fill="#181818" points="384.1162,263.2578,374.1162,267.2578,384.1162,271.2578,380.1162,267.2578" style="stroke:#181818;stroke-width:1;"/><line style="stroke:#181818;stroke-width:1;stroke-dasharray:2.0,2.0;" x1="378.1162" x2="549.9644" y1="267.2578" y2="267.2578"/><text fill="#000000" font-family="sans-serif" font-size="13" lengthAdjust="spacing" textLength="69.2085" x="390.1162" y="262.1919">return RTP</text><line style="stroke:#181818;stroke-width:1;" x1="373.1162" x2="415.1162" y1="296.3906" y2="296.3906"/><line style="stroke:#181818;stroke-width:1;" x1="415.1162" x2="415.1162" y1="296.3906" y2="309.3906"/><line style="stroke:#181818;stroke-width:1;" x1="374.1162" x2="415.1162" y1="309.3906" y2="309.3906"/><polygon fill="#181818" points="384.1162,305.3906,374.1162,309.3906,384.1162,313.3906,380.1162,309.3906" style="stroke:#181818;stroke-width:1;"/><text fill="#000000" font-family="sans-serif" font-size="13" lengthAdjust="spacing" textLength="153.8481" x="380.1162" y="291.3247">setStatus("CANCELED")</text><polygon fill="#181818" points="538.9644,334.5234,548.9644,338.5234,538.9644,342.5234,542.9644,338.5234" style="stroke:#181818;stroke-width:1;"/><line style="stroke:#181818;stroke-width:1;" x1="373.1162" x2="544.9644" y1="338.5234" y2="338.5234"/><text fill="#000000" font-family="sans-serif" font-size="13" lengthAdjust="spacing" textLength="81.6499" x="380.1162" y="333.4575">saveRtp(rtp)</text><polygon fill="#181818" points="384.1162,363.6563,374.1162,367.6563,384.1162,371.6563,380.1162,367.6563" style="stroke:#181818;stroke-width:1;"/><line style="stroke:#181818;stroke-width:1;stroke-dasharray:2.0,2.0;" x1="378.1162" x2="549.9644" y1="367.6563" y2="367.6563"/><text fill="#000000" font-family="sans-serif" font-size="13" lengthAdjust="spacing" textLength="114.7656" x="390.1162" y="362.5903">saveConfirmation</text><polygon fill="#181818" points="249.7007,392.7891,239.7007,396.7891,249.7007,400.7891,245.7007,396.7891" style="stroke:#181818;stroke-width:1;"/><line style="stroke:#181818;stroke-width:1;stroke-dasharray:2.0,2.0;" x1="243.7007" x2="362.1162" y1="396.7891" y2="396.7891"/><text fill="#000000" font-family="sans-serif" font-size="13" lengthAdjust="spacing" textLength="50.8511" x="255.7007" y="391.7231">success</text><polygon fill="#181818" points="54.2651,421.9219,44.2651,425.9219,54.2651,429.9219,50.2651,425.9219" style="stroke:#181818;stroke-width:1;"/><line style="stroke:#181818;stroke-width:1;stroke-dasharray:2.0,2.0;" x1="48.2651" x2="227.7007" y1="425.9219" y2="425.9219"/><text fill="#000000" font-family="sans-serif" font-size="13" lengthAdjust="spacing" textLength="102.4575" x="60.2651" y="420.856">204 No Content</text><line style="stroke:#000000;stroke-width:1;stroke-dasharray:2.0,2.0;" x1="10" x2="602.3647" y1="434.9219" y2="434.9219"/><text fill="#000000" font-family="sans-serif" font-size="11" font-weight="bold" lengthAdjust="spacing" textLength="98.2749" x="15" y="445.1323">[RTP not found]</text><polygon fill="#181818" points="384.1162,465.8594,374.1162,469.8594,384.1162,473.8594,380.1162,469.8594" style="stroke:#181818;stroke-width:1;"/><line style="stroke:#181818;stroke-width:1;stroke-dasharray:2.0,2.0;" x1="378.1162" x2="549.9644" y1="469.8594" y2="469.8594"/><text fill="#000000" font-family="sans-serif" font-size="13" lengthAdjust="spacing" textLength="68.0977" x="390.1162" y="464.7935">return null</text><polygon fill="#181818" points="249.7007,494.9922,239.7007,498.9922,249.7007,502.9922,245.7007,498.9922" style="stroke:#181818;stroke-width:1;"/><line style="stroke:#181818;stroke-width:1;stroke-dasharray:2.0,2.0;" x1="243.7007" x2="362.1162" y1="498.9922" y2="498.9922"/><text fill="#000000" font-family="sans-serif" font-size="13" lengthAdjust="spacing" textLength="81.6309" x="255.7007" y="493.9263">rtpNotFound</text><polygon fill="#181818" points="54.2651,527.125,44.2651,531.125,54.2651,535.125,50.2651,531.125" style="stroke:#181818;stroke-width:1;"/><line style="stroke:#181818;stroke-width:1;stroke-dasharray:2.0,2.0;" x1="48.2651" x2="227.7007" y1="531.125" y2="531.125"/><text fill="#000000" font-family="sans-serif" font-size="13" lengthAdjust="spacing" textLength="96.0146" x="60.2651" y="526.0591">404 Not Found</text><path d="M243,511.9922 L243,536.9922 L532,536.9922 L532,521.9922 L522,511.9922 L243,511.9922 " fill="#FEFFDD" style="stroke:#181818;stroke-width:0.5;"/><path d="M522,511.9922 L522,521.9922 L532,521.9922 L522,511.9922 " fill="#FEFFDD" style="stroke:#181818;stroke-width:0.5;"/><text fill="#000000" font-family="sans-serif" font-size="13" lengthAdjust="spacing" textLength="268.0488" x="249" y="529.0591">Error response as defined in the API spec</text><!--SRC=[VLBHQi8m57tFLrpwf0_Y63xrOM1R1y9mHOKzP-br1cfIablP6FlttQHLEvNr8KsuvvvpadD9KusGIwEmXlMsXD9PXTuB8HLP1tcjqP1ef2EjT2CDGH9WytAPWFJXVrlSe3jgXH7GxqKbIRvBZr2SDbmiCY4w1PWy1QuKojVD5gQE6Z_zvdLP_KnLT2UC9GIdF_QKmfkcFSHoe6aadzY5F22XYzRrKJ8wk1Ey1FRUI0eTtPgQKIGON-0dhwBVXBOYIs6dJSNux6jPtVI4AyYQujlXf_Ra1V1NP30PYZgarfc0YkM1m1dYaJOagVMZ99-lyiNBeaZ6r-XWnyiZzlR7TyK28BTcfzr1ahRcBydffNshOjAX6D-82rqOAJm-p61bWKaen8yrvnLko1d0phQc-k-Ifgth-vBiU6Nf-KnmBJkBiWGNn33qXNCyaGvzOqqtFnLoD5Y1Da3x63Vu1fL0xXOL3aCQdCuZYSD1-GK0]--></g></svg>