<?xml version="1.0" encoding="us-ascii" standalone="no"?><svg xmlns="http://www.w3.org/2000/svg" xmlns:xlink="http://www.w3.org/1999/xlink" contentStyleType="text/css" height="1744.7917px" preserveAspectRatio="none" style="width:1088px;height:1744px;" version="1.1" viewBox="0 0 1088 1744" width="1088.5417px" zoomAndPan="magnify"><defs><linearGradient id="gkigfsbwap86x0" x1="50%" x2="50%" y1="0%" y2="100%"><stop offset="0%" stop-color="#FFFFFF"/><stop offset="100%" stop-color="#FFFFFF"/></linearGradient><filter height="300%" id="fkigfsbwap86x" width="300%" x="-1" y="-1"><feGaussianBlur result="blurOut" stdDeviation="2.0833333333333335"/><feColorMatrix in="blurOut" result="blurOut2" type="matrix" values="0 0 0 0 0 0 0 0 0 0 0 0 0 0 0 0 0 0 .4 0"/><feOffset dx="4.166666666666667" dy="4.166666666666667" in="blurOut2" result="blurOut3"/><feBlend in="SourceGraphic" in2="blurOut3" mode="normal"/></filter><linearGradient id="gkigfsbwap86x1" x1="50%" x2="50%" y1="0%" y2="100%"><stop offset="0%" stop-color="#4DABF5"/><stop offset="100%" stop-color="#2196F3"/></linearGradient><linearGradient id="gkigfsbwap86x2" x1="50%" x2="50%" y1="0%" y2="100%"><stop offset="0%" stop-color="#B052C0"/><stop offset="100%" stop-color="#9C27B0"/></linearGradient></defs><g><rect fill="url(#gkigfsbwap86x0)" height="57.5846" id="_title" rx="4.1667" ry="4.1667" style="stroke:#CCCCCC;stroke-width:1.0416666666666667;" width="228.125" x="431.25" y="20.8333"/><text fill="#2196F3" font-family="Verdana" font-size="20.8333" font-weight="bold" lengthAdjust="spacing" textLength="194.7917" x="447.9167" y="56.838">RTP Delete Flow</text><rect fill="#FFFFFF" filter="url(#fkigfsbwap86x)" height="1375.0651" style="stroke:#CCCCCC;stroke-width:1.0416666666666667;" width="10.4167" x="212.5" y="239.7786"/><rect fill="#FFFFFF" filter="url(#fkigfsbwap86x)" height="114.4857" style="stroke:#CCCCCC;stroke-width:1.0416666666666667;" width="10.4167" x="533.3333" y="289.7461"/><rect fill="#FFFFFF" filter="url(#fkigfsbwap86x)" height="114.4857" style="stroke:#CCCCCC;stroke-width:1.0416666666666667;" width="10.4167" x="666.6667" y="715.4622"/><rect fill="#FFFFFF" filter="url(#fkigfsbwap86x)" height="554.8503" style="stroke:#CCCCCC;stroke-width:1.0416666666666667;" width="10.4167" x="960.4167" y="957.9753"/><rect fill="url(#gkigfsbwap86x0)" filter="url(#fkigfsbwap86x)" height="1302.181" rx="4.1667" ry="4.1667" style="stroke:#2196F3;stroke-width:1.0416666666666667;" width="982.8125" x="88.0208" y="305.3711"/><path d="M88.0208,486.4583 L1070.8333,486.4583 L1070.8333,1603.3854 A4.1667,4.1667 0 0 1 1066.6667,1607.5521 L92.1875,1607.5521 A4.1667,4.1667 0 0 1 88.0208,1603.3854 L88.0208,486.4583 " fill="url(#gkigfsbwap86x0)" style="stroke:none;stroke-width:1.0416666666666667;"/><rect fill="url(#gkigfsbwap86x0)" filter="url(#fkigfsbwap86x)" height="869.1732" rx="4.1667" ry="4.1667" style="stroke:#2196F3;stroke-width:1.0416666666666667;" width="961.9792" x="98.4375" y="731.0872"/><rect fill="url(#gkigfsbwap86x0)" filter="url(#fkigfsbwap86x)" height="472.5911" rx="4.1667" ry="4.1667" style="stroke:#2196F3;stroke-width:1.0416666666666667;" width="941.1458" x="108.8542" y="1032.9427"/><path d="M108.8542,1203.6458 L1050,1203.6458 L1050,1350.4232 A4.1667,4.1667 0 0 1 1045.8333,1354.5898 L113.0208,1354.5898 A4.1667,4.1667 0 0 1 108.8542,1350.4232 L108.8542,1203.6458 " fill="url(#gkigfsbwap86x0)" style="stroke:none;stroke-width:1.0416666666666667;"/><path d="M108.8542,1354.5898 L1050,1354.5898 L1050,1501.3672 A4.1667,4.1667 0 0 1 1045.8333,1505.5339 L113.0208,1505.5339 A4.1667,4.1667 0 0 1 108.8542,1501.3672 L108.8542,1354.5898 " fill="url(#gkigfsbwap86x0)" style="stroke:none;stroke-width:1.0416666666666667;"/><path d="M98.4375,1512.8255 L1060.4167,1512.8255 L1060.4167,1596.0938 A4.1667,4.1667 0 0 1 1056.25,1600.2604 L102.6042,1600.2604 A4.1667,4.1667 0 0 1 98.4375,1596.0938 L98.4375,1512.8255 " fill="url(#gkigfsbwap86x0)" style="stroke:none;stroke-width:1.0416666666666667;"/><line style="stroke:#CCCCCC;stroke-width:1.0416666666666667;stroke-dasharray:5.0,5.0;" x1="217.1875" x2="217.1875" y1="187.7279" y2="1625.2604"/><line style="stroke:#CCCCCC;stroke-width:1.0416666666666667;stroke-dasharray:5.0,5.0;" x1="538.0208" x2="538.0208" y1="187.7279" y2="1625.2604"/><line style="stroke:#CCCCCC;stroke-width:1.0416666666666667;stroke-dasharray:5.0,5.0;" x1="671.3542" x2="671.3542" y1="187.7279" y2="1625.2604"/><line style="stroke:#CCCCCC;stroke-width:1.0416666666666667;stroke-dasharray:5.0,5.0;" x1="965.625" x2="965.625" y1="187.7279" y2="1625.2604"/><rect fill="url(#gkigfsbwap86x1)" filter="url(#fkigfsbwap86x)" height="49.9674" rx="4.1667" ry="4.1667" style="stroke:#2196F3;stroke-width:1.0416666666666667;" width="110.4167" x="160.9375" y="133.5938"/><text fill="#FFFFFF" font-family="Verdana" font-size="12.5" lengthAdjust="spacing" textLength="75" x="178.6458" y="162.9049">MS-SENDER</text><rect fill="url(#gkigfsbwap86x1)" filter="url(#fkigfsbwap86x)" height="49.9674" rx="4.1667" ry="4.1667" style="stroke:#2196F3;stroke-width:1.0416666666666667;" width="110.4167" x="160.9375" y="1624.2188"/><text fill="#FFFFFF" font-family="Verdana" font-size="12.5" lengthAdjust="spacing" textLength="75" x="178.6458" y="1653.5299">MS-SENDER</text><text fill="#222222" font-family="Verdana" font-size="12.5" lengthAdjust="spacing" textLength="35.4167" x="517.7083" y="159.8124">Redis</text><text fill="#222222" font-family="Verdana" font-size="12.5" lengthAdjust="spacing" textLength="159.375" x="455.7292" y="174.3632">(Idempotency Key Store)</text><path d="M519.7917,100.293 C519.7917,89.8763 538.5417,89.8763 538.5417,89.8763 C538.5417,89.8763 557.2917,89.8763 557.2917,100.293 L557.2917,127.3763 C557.2917,137.793 538.5417,137.793 538.5417,137.793 C538.5417,137.793 519.7917,137.793 519.7917,127.3763 L519.7917,100.293 " fill="url(#gkigfsbwap86x1)" filter="url(#fkigfsbwap86x)" style="stroke:#2196F3;stroke-width:1.5625;"/><path d="M519.7917,100.293 C519.7917,110.7096 538.5417,110.7096 538.5417,110.7096 C538.5417,110.7096 557.2917,110.7096 557.2917,100.293 " fill="none" style="stroke:#2196F3;stroke-width:1.5625;"/><text fill="#222222" font-family="Verdana" font-size="12.5" lengthAdjust="spacing" textLength="35.4167" x="517.7083" y="1646.2382">Redis</text><text fill="#222222" font-family="Verdana" font-size="12.5" lengthAdjust="spacing" textLength="159.375" x="455.7292" y="1660.789">(Idempotency Key Store)</text><path d="M519.7917,1684.5703 C519.7917,1674.1536 538.5417,1674.1536 538.5417,1674.1536 C538.5417,1674.1536 557.2917,1674.1536 557.2917,1684.5703 L557.2917,1711.6536 C557.2917,1722.0703 538.5417,1722.0703 538.5417,1722.0703 C538.5417,1722.0703 519.7917,1722.0703 519.7917,1711.6536 L519.7917,1684.5703 " fill="url(#gkigfsbwap86x1)" filter="url(#fkigfsbwap86x)" style="stroke:#2196F3;stroke-width:1.5625;"/><path d="M519.7917,1684.5703 C519.7917,1694.987 538.5417,1694.987 538.5417,1694.987 C538.5417,1694.987 557.2917,1694.987 557.2917,1684.5703 " fill="none" style="stroke:#2196F3;stroke-width:1.5625;"/><text fill="#222222" font-family="Verdana" font-size="12.5" lengthAdjust="spacing" textLength="32.2917" x="652.6042" y="174.3632">RTPS</text><path d="M653.125,114.8438 C653.125,104.4271 671.875,104.4271 671.875,104.4271 C671.875,104.4271 690.625,104.4271 690.625,114.8438 L690.625,141.9271 C690.625,152.3438 671.875,152.3438 671.875,152.3438 C671.875,152.3438 653.125,152.3438 653.125,141.9271 L653.125,114.8438 " fill="url(#gkigfsbwap86x1)" filter="url(#fkigfsbwap86x)" style="stroke:#2196F3;stroke-width:1.5625;"/><path d="M653.125,114.8438 C653.125,125.2604 671.875,125.2604 671.875,125.2604 C671.875,125.2604 690.625,125.2604 690.625,114.8438 " fill="none" style="stroke:#2196F3;stroke-width:1.5625;"/><text fill="#222222" font-family="Verdana" font-size="12.5" lengthAdjust="spacing" textLength="32.2917" x="652.6042" y="1646.2382">RTPS</text><path d="M653.125,1670.0195 C653.125,1659.6029 671.875,1659.6029 671.875,1659.6029 C671.875,1659.6029 690.625,1659.6029 690.625,1670.0195 L690.625,1697.1029 C690.625,1707.5195 671.875,1707.5195 671.875,1707.5195 C671.875,1707.5195 653.125,1707.5195 653.125,1697.1029 L653.125,1670.0195 " fill="url(#gkigfsbwap86x1)" filter="url(#fkigfsbwap86x)" style="stroke:#2196F3;stroke-width:1.5625;"/><path d="M653.125,1670.0195 C653.125,1680.4362 671.875,1680.4362 671.875,1680.4362 C671.875,1680.4362 690.625,1680.4362 690.625,1670.0195 " fill="none" style="stroke:#2196F3;stroke-width:1.5625;"/><rect fill="url(#gkigfsbwap86x1)" filter="url(#fkigfsbwap86x)" height="49.9674" rx="4.1667" ry="4.1667" style="stroke:#2196F3;stroke-width:1.0416666666666667;" width="61.4583" x="933.3333" y="133.5938"/><text fill="#FFFFFF" font-family="Verdana" font-size="12.5" lengthAdjust="spacing" textLength="26.0417" x="951.0417" y="162.9049">DSP</text><rect fill="url(#gkigfsbwap86x1)" filter="url(#fkigfsbwap86x)" height="49.9674" rx="4.1667" ry="4.1667" style="stroke:#2196F3;stroke-width:1.0416666666666667;" width="61.4583" x="933.3333" y="1624.2188"/><text fill="#FFFFFF" font-family="Verdana" font-size="12.5" lengthAdjust="spacing" textLength="26.0417" x="951.0417" y="1653.5299">DSP</text><rect fill="#FFFFFF" filter="url(#fkigfsbwap86x)" height="1375.0651" style="stroke:#CCCCCC;stroke-width:1.0416666666666667;" width="10.4167" x="212.5" y="239.7786"/><rect fill="#FFFFFF" filter="url(#fkigfsbwap86x)" height="114.4857" style="stroke:#CCCCCC;stroke-width:1.0416666666666667;" width="10.4167" x="533.3333" y="289.7461"/><rect fill="#FFFFFF" filter="url(#fkigfsbwap86x)" height="114.4857" style="stroke:#CCCCCC;stroke-width:1.0416666666666667;" width="10.4167" x="666.6667" y="715.4622"/><rect fill="#FFFFFF" filter="url(#fkigfsbwap86x)" height="554.8503" style="stroke:#CCCCCC;stroke-width:1.0416666666666667;" width="10.4167" x="960.4167" y="957.9753"/><ellipse cx="18.2292" cy="238.9974" fill="none" rx="4.1667" ry="4.1667" style="stroke:#2196F3;stroke-width:1.5625;"/><polygon fill="#2196F3" points="200,235.612,210.4167,239.7786,200,243.9453,204.1667,239.7786" style="stroke:#2196F3;stroke-width:1.0416666666666667;"/><line style="stroke:#2196F3;stroke-width:3.125;" x1="22.9167" x2="206.25" y1="239.7786" y2="239.7786"/><text fill="#222222" font-family="Verdana" font-size="12.5" font-weight="bold" lengthAdjust="spacing" textLength="8.3333" x="36.4583" y="224.3306">1</text><text fill="#222222" font-family="Verdana" font-size="12.5" lengthAdjust="spacing" textLength="119.7917" x="69.7917" y="224.3306">GDP DELETE event</text><polygon fill="#2196F3" points="520.8333,285.5794,531.25,289.7461,520.8333,293.9128,525,289.7461" style="stroke:#2196F3;stroke-width:1.0416666666666667;"/><line style="stroke:#2196F3;stroke-width:3.125;" x1="222.9167" x2="527.0833" y1="289.7461" y2="289.7461"/><text fill="#222222" font-family="Verdana" font-size="12.5" font-weight="bold" lengthAdjust="spacing" textLength="8.3333" x="240.625" y="274.2981">2</text><text fill="#222222" font-family="Verdana" font-size="12.5" lengthAdjust="spacing" textLength="152.0833" x="273.9583" y="274.2981">check Idempotency-Key</text><path d="M92.1875,305.3711 L175.5208,305.3711 L175.5208,332.4219 L165.1042,342.8385 L88.0208,342.8385 L88.0208,309.5378 A4.1667,4.1667 0 0 1 92.1875,305.3711 " fill="#FFFFFF" style="stroke:#666666;stroke-width:1.0416666666666667;"/><rect fill="none" height="1302.181" rx="4.1667" ry="4.1667" style="stroke:#2196F3;stroke-width:1.0416666666666667;" width="982.8125" x="88.0208" y="305.3711"/><text fill="#9C27B0" font-family="Verdana" font-size="12.5" font-weight="bold" lengthAdjust="spacing" textLength="19.7917" x="114.0625" y="328.4322">alt</text><text fill="#222222" font-family="Verdana" font-size="12.5" font-weight="bold" lengthAdjust="spacing" textLength="260.4167" x="201.5625" y="329.4739">[Idempotency-Key already present]</text><polygon fill="#2196F3" points="234.375,400.0651,223.9583,404.2318,234.375,408.3984,230.2083,404.2318" style="stroke:#2196F3;stroke-width:1.0416666666666667;"/><line style="stroke:#2196F3;stroke-width:3.125;stroke-dasharray:2.0,2.0;" x1="228.125" x2="537.5" y1="404.2318" y2="404.2318"/><text fill="#222222" font-family="Verdana" font-size="12.5" font-weight="bold" lengthAdjust="spacing" textLength="8.3333" x="251.0417" y="388.7838">3</text><text fill="#222222" font-family="Verdana" font-size="12.5" lengthAdjust="spacing" textLength="63.5417" x="284.375" y="388.7838">key found</text><line style="stroke:#2196F3;stroke-width:3.125;" x1="222.9167" x2="266.6667" y1="459.3913" y2="459.3913"/><line style="stroke:#2196F3;stroke-width:3.125;" x1="266.6667" x2="266.6667" y1="459.3913" y2="472.9329"/><line style="stroke:#2196F3;stroke-width:3.125;" x1="223.9583" x2="266.6667" y1="472.9329" y2="472.9329"/><polygon fill="#2196F3" points="234.375,468.7663,223.9583,472.9329,234.375,477.0996,230.2083,472.9329" style="stroke:#2196F3;stroke-width:1.0416666666666667;"/><text fill="#222222" font-family="Verdana" font-size="12.5" font-weight="bold" lengthAdjust="spacing" textLength="8.3333" x="240.625" y="443.9433">4</text><text fill="#222222" font-family="Verdana" font-size="12.5" lengthAdjust="spacing" textLength="184.375" x="273.9583" y="443.9433">discard duplicated message</text><path d="M481.25,421.9401 L481.25,472.9818 A4.1667,4.1667 0 0 0 485.4167,477.1484 L703.125,477.1484 A4.1667,4.1667 0 0 0 707.2917,472.9818 L707.2917,428.1901 L696.875,417.7734 L485.4167,417.7734 A4.1667,4.1667 0 0 0 481.25,421.9401 " fill="url(#gkigfsbwap86x2)" filter="url(#fkigfsbwap86x)" style="stroke:#9C27B0;stroke-width:1.0416666666666667;"/><path d="M696.875,417.7734 L696.875,426.1068 A2.0833,2.0833 0 0 0 698.9583,428.1901 L707.2917,428.1901 L696.875,417.7734 " fill="url(#gkigfsbwap86x2)" style="stroke:#9C27B0;stroke-width:1.0416666666666667;"/><text fill="#FFFFFF" font-family="Verdana" font-size="12.5" lengthAdjust="spacing" textLength="183.3333" x="497.9167" y="445.0012">Message already processed</text><text fill="#FFFFFF" font-family="Verdana" font-size="12.5" lengthAdjust="spacing" textLength="157.2917" x="497.9167" y="459.552">or already in processing</text><line style="stroke:#2196F3;stroke-width:1.0416666666666667;stroke-dasharray:2.0,2.0;" x1="88.0208" x2="1070.8333" y1="487.5" y2="487.5"/><text fill="#222222" font-family="Verdana" font-size="12.5" font-weight="bold" lengthAdjust="spacing" textLength="229.1667" x="103.6458" y="509.5194">[Idempotency-Key not present]</text><polygon fill="#2196F3" points="234.375,561.3932,223.9583,565.5599,234.375,569.7266,230.2083,565.5599" style="stroke:#2196F3;stroke-width:1.0416666666666667;"/><line style="stroke:#2196F3;stroke-width:3.125;stroke-dasharray:2.0,2.0;" x1="228.125" x2="537.5" y1="565.5599" y2="565.5599"/><text fill="#222222" font-family="Verdana" font-size="12.5" font-weight="bold" lengthAdjust="spacing" textLength="8.3333" x="251.0417" y="550.1119">5</text><text fill="#222222" font-family="Verdana" font-size="12.5" lengthAdjust="spacing" textLength="89.5833" x="284.375" y="550.1119">key not found</text><polygon fill="#2196F3" points="526.0417,611.3607,536.4583,615.5273,526.0417,619.694,530.2083,615.5273" style="stroke:#2196F3;stroke-width:1.0416666666666667;"/><line style="stroke:#2196F3;stroke-width:3.125;" x1="222.9167" x2="532.2917" y1="615.5273" y2="615.5273"/><text fill="#222222" font-family="Verdana" font-size="12.5" font-weight="bold" lengthAdjust="spacing" textLength="8.3333" x="240.625" y="600.0793">6</text><text fill="#222222" font-family="Verdana" font-size="12.5" lengthAdjust="spacing" textLength="143.75" x="273.9583" y="600.0793">save Idempotency-Key</text><polygon fill="#2196F3" points="234.375,661.3281,223.9583,665.4948,234.375,669.6615,230.2083,665.4948" style="stroke:#2196F3;stroke-width:1.0416666666666667;"/><line style="stroke:#2196F3;stroke-width:3.125;stroke-dasharray:2.0,2.0;" x1="228.125" x2="537.5" y1="665.4948" y2="665.4948"/><text fill="#222222" font-family="Verdana" font-size="12.5" font-weight="bold" lengthAdjust="spacing" textLength="8.3333" x="251.0417" y="650.0468">7</text><text fill="#222222" font-family="Verdana" font-size="12.5" lengthAdjust="spacing" textLength="64.5833" x="284.375" y="650.0468">key saved</text><polygon fill="#2196F3" points="654.1667,711.2956,664.5833,715.4622,654.1667,719.6289,658.3333,715.4622" style="stroke:#2196F3;stroke-width:1.0416666666666667;"/><line style="stroke:#2196F3;stroke-width:3.125;" x1="222.9167" x2="660.4167" y1="715.4622" y2="715.4622"/><text fill="#222222" font-family="Verdana" font-size="12.5" font-weight="bold" lengthAdjust="spacing" textLength="8.3333" x="240.625" y="700.0142">8</text><text fill="#222222" font-family="Verdana" font-size="12.5" lengthAdjust="spacing" textLength="217.7083" x="273.9583" y="700.0142">findRtpByOperationDispatcherKey</text><path d="M102.6042,731.0872 L185.9375,731.0872 L185.9375,758.138 L175.5208,768.5547 L98.4375,768.5547 L98.4375,735.2539 A4.1667,4.1667 0 0 1 102.6042,731.0872 " fill="#FFFFFF" style="stroke:#666666;stroke-width:1.0416666666666667;"/><rect fill="none" height="869.1732" rx="4.1667" ry="4.1667" style="stroke:#2196F3;stroke-width:1.0416666666666667;" width="961.9792" x="98.4375" y="731.0872"/><text fill="#9C27B0" font-family="Verdana" font-size="12.5" font-weight="bold" lengthAdjust="spacing" textLength="19.7917" x="124.4792" y="754.1484">alt</text><text fill="#222222" font-family="Verdana" font-size="12.5" font-weight="bold" lengthAdjust="spacing" textLength="87.5" x="211.9792" y="755.19">[RTP Found]</text><polygon fill="#2196F3" points="234.375,825.7813,223.9583,829.9479,234.375,834.1146,230.2083,829.9479" style="stroke:#2196F3;stroke-width:1.0416666666666667;"/><line style="stroke:#2196F3;stroke-width:3.125;stroke-dasharray:2.0,2.0;" x1="228.125" x2="670.8333" y1="829.9479" y2="829.9479"/><text fill="#222222" font-family="Verdana" font-size="12.5" font-weight="bold" lengthAdjust="spacing" textLength="8.3333" x="251.0417" y="814.4999">9</text><text fill="#222222" font-family="Verdana" font-size="12.5" lengthAdjust="spacing" textLength="68.75" x="284.375" y="814.4999">RTP Found</text><line style="stroke:#2196F3;stroke-width:3.125;" x1="222.9167" x2="266.6667" y1="879.9154" y2="879.9154"/><line style="stroke:#2196F3;stroke-width:3.125;" x1="266.6667" x2="266.6667" y1="879.9154" y2="893.457"/><line style="stroke:#2196F3;stroke-width:3.125;" x1="223.9583" x2="266.6667" y1="893.457" y2="893.457"/><polygon fill="#2196F3" points="234.375,889.2904,223.9583,893.457,234.375,897.6237,230.2083,893.457" style="stroke:#2196F3;stroke-width:1.0416666666666667;"/><text fill="#222222" font-family="Verdana" font-size="12.5" font-weight="bold" lengthAdjust="spacing" textLength="16.6667" x="240.625" y="864.4674">10</text><text fill="#222222" font-family="Verdana" font-size="12.5" lengthAdjust="spacing" textLength="125" x="282.2917" y="864.4674">validate RTP status</text><path d="M430.2083,849.7396 L430.2083,886.1979 A4.1667,4.1667 0 0 0 434.375,890.3646 L661.4583,890.3646 A4.1667,4.1667 0 0 0 665.625,886.1979 L665.625,855.9896 L655.2083,845.5729 L434.375,845.5729 A4.1667,4.1667 0 0 0 430.2083,849.7396 " fill="url(#gkigfsbwap86x2)" filter="url(#fkigfsbwap86x)" style="stroke:#9C27B0;stroke-width:1.0416666666666667;"/><path d="M655.2083,845.5729 L655.2083,853.9063 A2.0833,2.0833 0 0 0 657.2917,855.9896 L665.625,855.9896 L655.2083,845.5729 " fill="url(#gkigfsbwap86x2)" style="stroke:#9C27B0;stroke-width:1.0416666666666667;"/><text fill="#FFFFFF" font-family="Verdana" font-size="12.5" lengthAdjust="spacing" textLength="192.7083" x="446.875" y="872.8007">Cancellation request initiated</text><polygon fill="#2196F3" points="947.9167,953.8086,958.3333,957.9753,947.9167,962.1419,952.0833,957.9753" style="stroke:#2196F3;stroke-width:1.0416666666666667;"/><line style="stroke:#2196F3;stroke-width:3.125;" x1="222.9167" x2="954.1667" y1="957.9753" y2="957.9753"/><text fill="#222222" font-family="Verdana" font-size="12.5" font-weight="bold" lengthAdjust="spacing" textLength="16.6667" x="240.625" y="935.2519">11</text><text fill="#222222" font-family="Verdana" font-size="12.5" lengthAdjust="spacing" textLength="188.5417" x="282.2917" y="927.9765">Send request of cancellation</text><text fill="#222222" font-family="Verdana" font-size="12.5" lengthAdjust="spacing" textLength="655.2083" x="282.2917" y="942.5273">POST /sepa-request-to-pay-requests/{sepaRequestToPayRequestResourceId}/cancellation-requests</text><path d="M825,975.6836 L825,1012.1419 A4.1667,4.1667 0 0 0 829.1667,1016.3086 L947.9167,1016.3086 A4.1667,4.1667 0 0 0 952.0833,1012.1419 L952.0833,981.9336 L941.6667,971.5169 L829.1667,971.5169 A4.1667,4.1667 0 0 0 825,975.6836 " fill="url(#gkigfsbwap86x2)" filter="url(#fkigfsbwap86x)" style="stroke:#9C27B0;stroke-width:1.0416666666666667;"/><path d="M941.6667,971.5169 L941.6667,979.8503 A2.0833,2.0833 0 0 0 943.75,981.9336 L952.0833,981.9336 L941.6667,971.5169 " fill="url(#gkigfsbwap86x2)" style="stroke:#9C27B0;stroke-width:1.0416666666666667;"/><text fill="#FFFFFF" font-family="Verdana" font-size="12.5" lengthAdjust="spacing" textLength="84.375" x="841.6667" y="998.7447">Retry if failed</text><path d="M113.0208,1032.9427 L196.3542,1032.9427 L196.3542,1059.9935 L185.9375,1070.4102 L108.8542,1070.4102 L108.8542,1037.1094 A4.1667,4.1667 0 0 1 113.0208,1032.9427 " fill="#FFFFFF" style="stroke:#666666;stroke-width:1.0416666666666667;"/><rect fill="none" height="472.5911" rx="4.1667" ry="4.1667" style="stroke:#2196F3;stroke-width:1.0416666666666667;" width="941.1458" x="108.8542" y="1032.9427"/><text fill="#9C27B0" font-family="Verdana" font-size="12.5" font-weight="bold" lengthAdjust="spacing" textLength="19.7917" x="134.8958" y="1056.0038">alt</text><text fill="#222222" font-family="Verdana" font-size="12.5" font-weight="bold" lengthAdjust="spacing" textLength="119.7917" x="222.3958" y="1057.0455">[Async flow EPC]</text><polygon fill="#2196F3" points="234.375,1127.6367,223.9583,1131.8034,234.375,1135.9701,230.2083,1131.8034" style="stroke:#2196F3;stroke-width:1.0416666666666667;"/><line style="stroke:#2196F3;stroke-width:3.125;stroke-dasharray:2.0,2.0;" x1="228.125" x2="959.375" y1="1131.8034" y2="1131.8034"/><text fill="#222222" font-family="Verdana" font-size="12.5" font-weight="bold" lengthAdjust="spacing" textLength="16.6667" x="251.0417" y="1116.3554">12</text><text fill="#222222" font-family="Verdana" font-size="12.5" lengthAdjust="spacing" textLength="95.8333" x="292.7083" y="1116.3554">OK empty Body</text><line style="stroke:#2196F3;stroke-width:3.125;" x1="222.9167" x2="266.6667" y1="1181.7708" y2="1181.7708"/><line style="stroke:#2196F3;stroke-width:3.125;" x1="266.6667" x2="266.6667" y1="1181.7708" y2="1195.3125"/><line style="stroke:#2196F3;stroke-width:3.125;" x1="223.9583" x2="266.6667" y1="1195.3125" y2="1195.3125"/><polygon fill="#2196F3" points="234.375,1191.1458,223.9583,1195.3125,234.375,1199.4792,230.2083,1195.3125" style="stroke:#2196F3;stroke-width:1.0416666666666667;"/><text fill="#222222" font-family="Verdana" font-size="12.5" font-weight="bold" lengthAdjust="spacing" textLength="16.6667" x="240.625" y="1166.3228">13</text><text fill="#222222" font-family="Verdana" font-size="12.5" lengthAdjust="spacing" textLength="198.9583" x="282.2917" y="1166.3228">update RTP status (RFC_SENT)</text><line style="stroke:#2196F3;stroke-width:1.0416666666666667;stroke-dasharray:2.0,2.0;" x1="108.8542" x2="1050" y1="1204.6875" y2="1204.6875"/><text fill="#222222" font-family="Verdana" font-size="12.5" font-weight="bold" lengthAdjust="spacing" textLength="111.4583" x="124.4792" y="1226.7069">[Sync flow EPC]</text><polygon fill="#2196F3" points="234.375,1278.5807,223.9583,1282.7474,234.375,1286.9141,230.2083,1282.7474" style="stroke:#2196F3;stroke-width:1.0416666666666667;"/><line style="stroke:#2196F3;stroke-width:3.125;stroke-dasharray:2.0,2.0;" x1="228.125" x2="959.375" y1="1282.7474" y2="1282.7474"/><text fill="#222222" font-family="Verdana" font-size="12.5" font-weight="bold" lengthAdjust="spacing" textLength="16.6667" x="251.0417" y="1267.2994">14</text><text fill="#222222" font-family="Verdana" font-size="12.5" lengthAdjust="spacing" textLength="71.875" x="292.7083" y="1267.2994">OK payload</text><line style="stroke:#2196F3;stroke-width:3.125;" x1="222.9167" x2="266.6667" y1="1332.7148" y2="1332.7148"/><line style="stroke:#2196F3;stroke-width:3.125;" x1="266.6667" x2="266.6667" y1="1332.7148" y2="1346.2565"/><line style="stroke:#2196F3;stroke-width:3.125;" x1="223.9583" x2="266.6667" y1="1346.2565" y2="1346.2565"/><polygon fill="#2196F3" points="234.375,1342.0898,223.9583,1346.2565,234.375,1350.4232,230.2083,1346.2565" style="stroke:#2196F3;stroke-width:1.0416666666666667;"/><text fill="#222222" font-family="Verdana" font-size="12.5" font-weight="bold" lengthAdjust="spacing" textLength="16.6667" x="240.625" y="1317.2668">15</text><text fill="#222222" font-family="Verdana" font-size="12.5" lengthAdjust="spacing" textLength="208.3333" x="282.2917" y="1317.2668">update RTP status (CANCELLED)</text><line style="stroke:#2196F3;stroke-width:1.0416666666666667;stroke-dasharray:2.0,2.0;" x1="108.8542" x2="1050" y1="1355.6315" y2="1355.6315"/><text fill="#222222" font-family="Verdana" font-size="12.5" font-weight="bold" lengthAdjust="spacing" textLength="162.5" x="124.4792" y="1377.651">[Error Sync Response]</text><polygon fill="#2196F3" points="234.375,1429.5247,223.9583,1433.6914,234.375,1437.8581,230.2083,1433.6914" style="stroke:#2196F3;stroke-width:1.0416666666666667;"/><line style="stroke:#2196F3;stroke-width:3.125;stroke-dasharray:2.0,2.0;" x1="228.125" x2="959.375" y1="1433.6914" y2="1433.6914"/><text fill="#222222" font-family="Verdana" font-size="12.5" font-weight="bold" lengthAdjust="spacing" textLength="16.6667" x="251.0417" y="1418.2434">16</text><text fill="#222222" font-family="Verdana" font-size="12.5" lengthAdjust="spacing" textLength="32.2917" x="292.7083" y="1418.2434">Error</text><line style="stroke:#2196F3;stroke-width:3.125;" x1="222.9167" x2="266.6667" y1="1483.6589" y2="1483.6589"/><line style="stroke:#2196F3;stroke-width:3.125;" x1="266.6667" x2="266.6667" y1="1483.6589" y2="1497.2005"/><line style="stroke:#2196F3;stroke-width:3.125;" x1="223.9583" x2="266.6667" y1="1497.2005" y2="1497.2005"/><polygon fill="#2196F3" points="234.375,1493.0339,223.9583,1497.2005,234.375,1501.3672,230.2083,1497.2005" style="stroke:#2196F3;stroke-width:1.0416666666666667;"/><text fill="#222222" font-family="Verdana" font-size="12.5" font-weight="bold" lengthAdjust="spacing" textLength="16.6667" x="240.625" y="1468.2109">17</text><text fill="#222222" font-family="Verdana" font-size="12.5" lengthAdjust="spacing" textLength="233.3333" x="282.2917" y="1468.2109">update RTP status (ERROR_CANCEL)</text><line style="stroke:#2196F3;stroke-width:1.0416666666666667;stroke-dasharray:2.0,2.0;" x1="98.4375" x2="1060.4167" y1="1513.8672" y2="1513.8672"/><text fill="#222222" font-family="Verdana" font-size="12.5" font-weight="bold" lengthAdjust="spacing" textLength="117.7083" x="114.0625" y="1535.8866">[RTP Not Found]</text><polygon fill="#2196F3" points="234.375,1587.7604,223.9583,1591.9271,234.375,1596.0938,230.2083,1591.9271" style="stroke:#2196F3;stroke-width:1.0416666666666667;"/><line style="stroke:#2196F3;stroke-width:3.125;stroke-dasharray:2.0,2.0;" x1="228.125" x2="670.8333" y1="1591.9271" y2="1591.9271"/><text fill="#222222" font-family="Verdana" font-size="12.5" font-weight="bold" lengthAdjust="spacing" textLength="16.6667" x="251.0417" y="1576.4791">18</text><text fill="#222222" font-family="Verdana" font-size="12.5" lengthAdjust="spacing" textLength="63.5417" x="292.7083" y="1576.4791">not found</text><!--SRC=[bLJBRjiw4DtpAwRPj07gfDrwKI2rb29j7eRaTdC355DnP1EbIPMad0f5_xr3Ah9bExVtHXj9dCSvCsSuBs6kqOJFDzUGALmwN4Dj7HIBESpGLAGr1cKDNColn4jOgA1f2f-DgXN9Ow-IVhJ4_qCk3lb2phDf2c_FtfozuOECVELK4zBXOgKyo4TWlx8F7iAAG590fHcXSROYxnEdgaTIPWbe8lPhphRthDNFQ8qPc2_uXYecMlNS7bHO9HDMeKKD7t63uCbj5FD58w6o9ZYhDJdGTgcgCo5UiF-QO8s1d48XGgm_bPsHfa1mgUs340swe2hLS2FXvAQSbFbjbXSdW1xwJo4nu3Vq12S5IUNlpQihIUl61kvM1v-eWp9OHwSffiYpgt8SifYNVJB-sWVBodcoy5i8R8CrxVeREI7-iPDtZ-1J-90nuVmwN-H06pA1NQkWDbpLm4_qR-2WX3w5QaNLTnYnd33BNLpFKQ0EXpw0sX7AZhKZ7y6YCiaT9YDEtzcpjgsHoIxf87Cyt74QWhXr5Je9icrqr9KdPCtZWKjA0OPPW5FBLPZ2JNy-OfCcYUIzuLaQJfKP33muWZIt-x0SJle_IebUktAEkkbnSvJvBzcY-xyqvh0pF19Jg9MHHMZUTtSDkJJkcV8D1XRH3KWxoUCKzKUiNXpcootnb3mUZHaTkunOxR8zBTa6jPA9FcVn0KFhjzvZlVRsY8jxn0UMHmKLPNuAWMT-oXk7R-xWRkjXIQGqzsP-LoxWt5E3aqUVIR2J1hlXrv__YjQY_rlOENQFtmLvsxgAhkJlyt7IRUIMqROLyHBkbQQfJgJ61fQSWkF9gw5EEsvhYPN4i5sjKPyBtvaAQjupaCzdOhpkEEsUJdUVW0SiTF3UocxFyrYMjZaG1LuLbxElR5wSxXZ5-r0-1vzRgotAvuFFBcvd-VLrdXsWvyxnTKqSM9766az_vP3ydm-V5yLTyRKdSJfMH3mrysdRRYd6FBTy_V_Z5krlYATkqG2POCV6VaV_0G00]--></g></svg>