<svg xmlns="http://www.w3.org/2000/svg" xmlns:xlink="http://www.w3.org/1999/xlink" contentStyleType="text/css" data-diagram-type="SEQUENCE" height="843px" preserveAspectRatio="none" style="width:1396px;height:843px;background:#FFFFFF;" version="1.1" viewBox="0 0 1396 843" width="1396px" zoomAndPan="magnify"><title>Cancel RTP Process</title><defs/><g><text fill="#000000" font-family="sans-serif" font-size="14" font-weight="bold" lengthAdjust="spacing" textLength="153.8633" x="622.2598" y="27.9951">Cancel RTP Process</text><g><title>RTP API</title><rect fill="#FFFFFF" height="600" style="stroke:#181818;stroke-width:1;" width="10" x="238.7007" y="152.7266"/></g><g><title>RTP Service</title><rect fill="#FFFFFF" height="567.8672" style="stroke:#181818;stroke-width:1;" width="10" x="408.4263" y="184.8594"/></g><g><title>Database</title><rect fill="#FFFFFF" height="538.7344" style="stroke:#181818;stroke-width:1;" width="10" x="596.2744" y="213.9922"/></g><g><title>SP Debtor API</title><rect fill="#FFFFFF" height="338.1328" style="stroke:#181818;stroke-width:1;" width="10" x="1087.8896" y="299.3906"/></g><rect fill="none" height="516.7344" style="stroke:#000000;stroke-width:1.5;" width="1379.3828" x="10" y="228.9922"/><rect fill="none" height="313.1328" style="stroke:#000000;stroke-width:1.5;" width="1138.124" x="20" y="317.3906"/><g><title>Client</title><rect fill="#000000" fill-opacity="0.00000" height="644.1328" width="8" x="49.2651" y="118.5938"/><line style="stroke:#181818;stroke-width:0.5;stroke-dasharray:5.0,5.0;" x1="53" x2="53" y1="118.5938" y2="762.7266"/></g><g><title>RTP API</title><rect fill="#000000" fill-opacity="0.00000" height="644.1328" width="8" x="239.7007" y="118.5938"/><line style="stroke:#181818;stroke-width:0.5;stroke-dasharray:5.0,5.0;" x1="243.0405" x2="243.0405" y1="118.5938" y2="762.7266"/></g><g><title>RTP Service</title><rect fill="#000000" fill-opacity="0.00000" height="644.1328" width="8" x="409.4263" y="118.5938"/><line style="stroke:#181818;stroke-width:0.5;stroke-dasharray:5.0,5.0;" x1="412.9697" x2="412.9697" y1="118.5938" y2="762.7266"/></g><g><title>Database</title><rect fill="#000000" fill-opacity="0.00000" height="644.1328" width="8" x="597.2744" y="118.5938"/><line style="stroke:#181818;stroke-width:0.5;stroke-dasharray:5.0,5.0;" x1="600.874" x2="600.874" y1="118.5938" y2="762.7266"/></g><g><title>SP Debtor API</title><rect fill="#000000" fill-opacity="0.00000" height="644.1328" width="8" x="1088.8896" y="118.5938"/><line style="stroke:#181818;stroke-width:0.5;stroke-dasharray:5.0,5.0;" x1="1092.6553" x2="1092.6553" y1="118.5938" y2="762.7266"/></g><g class="participant participant-head" data-participant="Client"><text fill="#000000" font-family="sans-serif" font-size="14" lengthAdjust="spacing" textLength="40.5303" x="30" y="115.292">Client</text><ellipse cx="53.2651" cy="50.7969" fill="#E2E2F0" rx="8" ry="8" style="stroke:#181818;stroke-width:0.5;"/><path d="M53.2651,58.7969 L53.2651,85.7969 M40.2651,66.7969 L66.2651,66.7969 M53.2651,85.7969 L40.2651,100.7969 M53.2651,85.7969 L66.2651,100.7969" fill="none" style="stroke:#181818;stroke-width:0.5;"/></g><g class="participant participant-tail" data-participant="Client"><text fill="#000000" font-family="sans-serif" font-size="14" lengthAdjust="spacing" textLength="40.5303" x="30" y="774.7217">Client</text><ellipse cx="53.2651" cy="786.5234" fill="#E2E2F0" rx="8" ry="8" style="stroke:#181818;stroke-width:0.5;"/><path d="M53.2651,794.5234 L53.2651,821.5234 M40.2651,802.5234 L66.2651,802.5234 M53.2651,821.5234 L40.2651,836.5234 M53.2651,821.5234 L66.2651,836.5234" fill="none" style="stroke:#181818;stroke-width:0.5;"/></g><g class="participant participant-head" data-participant="API"><rect fill="#E2E2F0" height="30.2969" rx="2.5" ry="2.5" style="stroke:#181818;stroke-width:0.5;" width="67.3203" x="210.0405" y="87.2969"/><text fill="#000000" font-family="sans-serif" font-size="14" lengthAdjust="spacing" textLength="53.3203" x="217.0405" y="107.292">RTP API</text></g><g class="participant participant-tail" data-participant="API"><rect fill="#E2E2F0" height="30.2969" rx="2.5" ry="2.5" style="stroke:#181818;stroke-width:0.5;" width="67.3203" x="210.0405" y="761.7266"/><text fill="#000000" font-family="sans-serif" font-size="14" lengthAdjust="spacing" textLength="53.3203" x="217.0405" y="781.7217">RTP API</text></g><g class="participant participant-head" data-participant="Service"><rect fill="#E2E2F0" height="30.2969" rx="2.5" ry="2.5" style="stroke:#181818;stroke-width:0.5;" width="96.9131" x="364.9697" y="87.2969"/><text fill="#000000" font-family="sans-serif" font-size="14" lengthAdjust="spacing" textLength="82.9131" x="371.9697" y="107.292">RTP Service</text></g><g class="participant participant-tail" data-participant="Service"><rect fill="#E2E2F0" height="30.2969" rx="2.5" ry="2.5" style="stroke:#181818;stroke-width:0.5;" width="96.9131" x="364.9697" y="761.7266"/><text fill="#000000" font-family="sans-serif" font-size="14" lengthAdjust="spacing" textLength="82.9131" x="371.9697" y="781.7217">RTP Service</text></g><g class="participant participant-head" data-participant="DB"><text fill="#000000" font-family="sans-serif" font-size="14" lengthAdjust="spacing" textLength="66.8008" x="564.874" y="115.292">Database</text><path d="M583.2744,66.2969 C583.2744,56.2969 601.2744,56.2969 601.2744,56.2969 C601.2744,56.2969 619.2744,56.2969 619.2744,66.2969 L619.2744,92.2969 C619.2744,102.2969 601.2744,102.2969 601.2744,102.2969 C601.2744,102.2969 583.2744,102.2969 583.2744,92.2969 L583.2744,66.2969" fill="#E2E2F0" style="stroke:#181818;stroke-width:1.5;"/><path d="M583.2744,66.2969 C583.2744,76.2969 601.2744,76.2969 601.2744,76.2969 C601.2744,76.2969 619.2744,76.2969 619.2744,66.2969" fill="none" style="stroke:#181818;stroke-width:1.5;"/></g><g class="participant participant-tail" data-participant="DB"><text fill="#000000" font-family="sans-serif" font-size="14" lengthAdjust="spacing" textLength="66.8008" x="564.874" y="774.7217">Database</text><path d="M583.2744,788.0234 C583.2744,778.0234 601.2744,778.0234 601.2744,778.0234 C601.2744,778.0234 619.2744,778.0234 619.2744,788.0234 L619.2744,814.0234 C619.2744,824.0234 601.2744,824.0234 601.2744,824.0234 C601.2744,824.0234 583.2744,824.0234 583.2744,814.0234 L583.2744,788.0234" fill="#E2E2F0" style="stroke:#181818;stroke-width:1.5;"/><path d="M583.2744,788.0234 C583.2744,798.0234 601.2744,798.0234 601.2744,798.0234 C601.2744,798.0234 619.2744,798.0234 619.2744,788.0234" fill="none" style="stroke:#181818;stroke-width:1.5;"/></g><g class="participant participant-head" data-participant="SPDAPI"><rect fill="#E2E2F0" height="30.2969" rx="2.5" ry="2.5" style="stroke:#181818;stroke-width:0.5;" width="110.4688" x="1037.6553" y="87.2969"/><text fill="#000000" font-family="sans-serif" font-size="14" lengthAdjust="spacing" textLength="96.4688" x="1044.6553" y="107.292">SP Debtor API</text></g><g class="participant participant-tail" data-participant="SPDAPI"><rect fill="#E2E2F0" height="30.2969" rx="2.5" ry="2.5" style="stroke:#181818;stroke-width:0.5;" width="110.4688" x="1037.6553" y="761.7266"/><text fill="#000000" font-family="sans-serif" font-size="14" lengthAdjust="spacing" textLength="96.4688" x="1044.6553" y="781.7217">SP Debtor API</text></g><g><title>RTP API</title><rect fill="#FFFFFF" height="600" style="stroke:#181818;stroke-width:1;" width="10" x="238.7007" y="152.7266"/></g><g><title>RTP Service</title><rect fill="#FFFFFF" height="567.8672" style="stroke:#181818;stroke-width:1;" width="10" x="408.4263" y="184.8594"/></g><g><title>Database</title><rect fill="#FFFFFF" height="538.7344" style="stroke:#181818;stroke-width:1;" width="10" x="596.2744" y="213.9922"/></g><g><title>SP Debtor API</title><rect fill="#FFFFFF" height="338.1328" style="stroke:#181818;stroke-width:1;" width="10" x="1087.8896" y="299.3906"/></g><g class="message" data-participant-1="Client" data-participant-2="API"><polygon fill="#181818" points="226.7007,148.7266,236.7007,152.7266,226.7007,156.7266,230.7007,152.7266" style="stroke:#181818;stroke-width:1;"/><line style="stroke:#181818;stroke-width:1;" x1="53.2651" x2="232.7007" y1="152.7266" y2="152.7266"/><text fill="#000000" font-family="sans-serif" font-size="13" lengthAdjust="spacing" textLength="166.4355" x="60.2651" y="147.6606">POST /rtps/{rtpId}/cancel</text></g><path d="M253,133.5938 L253,158.5938 L464,158.5938 L464,143.5938 L454,133.5938 L253,133.5938" fill="#FEFFDD" style="stroke:#181818;stroke-width:0.5;"/><path d="M454,133.5938 L454,143.5938 L464,143.5938 L454,133.5938" fill="#FEFFDD" style="stroke:#181818;stroke-width:0.5;"/><text fill="#000000" font-family="sans-serif" font-size="13" lengthAdjust="spacing" textLength="190.0361" x="259" y="150.6606">With rtpId as path parameter</text><g class="message" data-participant-1="API" data-participant-2="Service"><polygon fill="#181818" points="396.4263,180.8594,406.4263,184.8594,396.4263,188.8594,400.4263,184.8594" style="stroke:#181818;stroke-width:1;"/><line style="stroke:#181818;stroke-width:1;" x1="248.7007" x2="402.4263" y1="184.8594" y2="184.8594"/><text fill="#000000" font-family="sans-serif" font-size="13" lengthAdjust="spacing" textLength="105.4155" x="255.7007" y="179.7935">cancelRtp(rtpId)</text></g><g class="message" data-participant-1="Service" data-participant-2="DB"><polygon fill="#181818" points="584.2744,209.9922,594.2744,213.9922,584.2744,217.9922,588.2744,213.9922" style="stroke:#181818;stroke-width:1;"/><line style="stroke:#181818;stroke-width:1;" x1="418.4263" x2="590.2744" y1="213.9922" y2="213.9922"/><text fill="#000000" font-family="sans-serif" font-size="13" lengthAdjust="spacing" textLength="116.6826" x="425.4263" y="208.9263">findRtpById(rtpId)</text></g><path d="M10,228.9922 L74.4429,228.9922 L74.4429,236.125 L64.4429,246.125 L10,246.125 L10,228.9922" fill="#EEEEEE" style="stroke:#000000;stroke-width:1.5;"/><rect fill="none" height="516.7344" style="stroke:#000000;stroke-width:1.5;" width="1379.3828" x="10" y="228.9922"/><text fill="#000000" font-family="sans-serif" font-size="13" font-weight="bold" lengthAdjust="spacing" textLength="19.4429" x="25" y="242.0591">alt</text><text fill="#000000" font-family="sans-serif" font-size="11" font-weight="bold" lengthAdjust="spacing" textLength="74.5991" x="89.4429" y="241.2026">[RTP exists]</text><g class="message" data-participant-1="DB" data-participant-2="Service"><polygon fill="#181818" points="429.4263,263.2578,419.4263,267.2578,429.4263,271.2578,425.4263,267.2578" style="stroke:#181818;stroke-width:1;"/><line style="stroke:#181818;stroke-width:1;stroke-dasharray:2.0,2.0;" x1="423.4263" x2="595.2744" y1="267.2578" y2="267.2578"/><text fill="#000000" font-family="sans-serif" font-size="13" lengthAdjust="spacing" textLength="69.2085" x="435.4263" y="262.1919">return RTP</text></g><g class="message" data-participant-1="Service" data-participant-2="SPDAPI"><polygon fill="#181818" points="1075.8896,295.3906,1085.8896,299.3906,1075.8896,303.3906,1079.8896,299.3906" style="stroke:#181818;stroke-width:1;"/><line style="stroke:#181818;stroke-width:1;" x1="418.4263" x2="1081.8896" y1="299.3906" y2="299.3906"/><text fill="#000000" font-family="sans-serif" font-size="13" lengthAdjust="spacing" textLength="650.4634" x="425.4263" y="294.3247">POST /sepa-request-to-pay-requests/{sepaRequestToPayRequestResourceId}/cancellation-requests</text></g><path d="M1102,280.2578 L1102,305.2578 L1378,305.2578 L1378,290.2578 L1368,280.2578 L1102,280.2578" fill="#FEFFDD" style="stroke:#181818;stroke-width:0.5;"/><path d="M1368,280.2578 L1368,290.2578 L1378,290.2578 L1368,280.2578" fill="#FEFFDD" style="stroke:#181818;stroke-width:0.5;"/><text fill="#000000" font-family="sans-serif" font-size="13" lengthAdjust="spacing" textLength="255.4932" x="1108" y="297.3247">Send cancellation request to SP Debtor</text><path d="M20,317.3906 L84.4429,317.3906 L84.4429,324.5234 L74.4429,334.5234 L20,334.5234 L20,317.3906" fill="#EEEEEE" style="stroke:#000000;stroke-width:1.5;"/><rect fill="none" height="313.1328" style="stroke:#000000;stroke-width:1.5;" width="1138.124" x="20" y="317.3906"/><text fill="#000000" font-family="sans-serif" font-size="13" font-weight="bold" lengthAdjust="spacing" textLength="19.4429" x="35" y="330.4575">alt</text><text fill="#000000" font-family="sans-serif" font-size="11" font-weight="bold" lengthAdjust="spacing" textLength="202.9736" x="99.4429" y="329.6011">[SP Debtor accepts cancellation]</text><g class="message" data-participant-1="SPDAPI" data-participant-2="Service"><polygon fill="#181818" points="429.4263,351.6563,419.4263,355.6563,429.4263,359.6563,425.4263,355.6563" style="stroke:#181818;stroke-width:1;"/><line style="stroke:#181818;stroke-width:1;stroke-dasharray:2.0,2.0;" x1="423.4263" x2="1086.8896" y1="355.6563" y2="355.6563"/><text fill="#000000" font-family="sans-serif" font-size="13" lengthAdjust="spacing" textLength="239.4653" x="435.4263" y="350.5903">201 Created (Cancellation accepted)</text></g><g class="message" data-participant-1="Service" data-participant-2="Service"><line style="stroke:#181818;stroke-width:1;" x1="418.4263" x2="460.4263" y1="384.7891" y2="384.7891"/><line style="stroke:#181818;stroke-width:1;" x1="460.4263" x2="460.4263" y1="384.7891" y2="397.7891"/><line style="stroke:#181818;stroke-width:1;" x1="419.4263" x2="460.4263" y1="397.7891" y2="397.7891"/><polygon fill="#181818" points="429.4263,393.7891,419.4263,397.7891,429.4263,401.7891,425.4263,397.7891" style="stroke:#181818;stroke-width:1;"/><text fill="#000000" font-family="sans-serif" font-size="13" lengthAdjust="spacing" textLength="153.8481" x="425.4263" y="379.7231">setStatus("CANCELED")</text></g><g class="message" data-participant-1="Service" data-participant-2="DB"><polygon fill="#181818" points="584.2744,422.9219,594.2744,426.9219,584.2744,430.9219,588.2744,426.9219" style="stroke:#181818;stroke-width:1;"/><line style="stroke:#181818;stroke-width:1;" x1="418.4263" x2="590.2744" y1="426.9219" y2="426.9219"/><text fill="#000000" font-family="sans-serif" font-size="13" lengthAdjust="spacing" textLength="81.6499" x="425.4263" y="421.856">saveRtp(rtp)</text></g><g class="message" data-participant-1="DB" data-participant-2="Service"><polygon fill="#181818" points="429.4263,452.0547,419.4263,456.0547,429.4263,460.0547,425.4263,456.0547" style="stroke:#181818;stroke-width:1;"/><line style="stroke:#181818;stroke-width:1;stroke-dasharray:2.0,2.0;" x1="423.4263" x2="595.2744" y1="456.0547" y2="456.0547"/><text fill="#000000" font-family="sans-serif" font-size="13" lengthAdjust="spacing" textLength="114.7656" x="435.4263" y="450.9888">saveConfirmation</text></g><g class="message" data-participant-1="Service" data-participant-2="API"><polygon fill="#181818" points="259.7007,481.1875,249.7007,485.1875,259.7007,489.1875,255.7007,485.1875" style="stroke:#181818;stroke-width:1;"/><line style="stroke:#181818;stroke-width:1;stroke-dasharray:2.0,2.0;" x1="253.7007" x2="407.4263" y1="485.1875" y2="485.1875"/><text fill="#000000" font-family="sans-serif" font-size="13" lengthAdjust="spacing" textLength="50.8511" x="265.7007" y="480.1216">success</text></g><g class="message" data-participant-1="API" data-participant-2="Client"><polygon fill="#181818" points="64.2651,510.3203,54.2651,514.3203,64.2651,518.3203,60.2651,514.3203" style="stroke:#181818;stroke-width:1;"/><line style="stroke:#181818;stroke-width:1;stroke-dasharray:2.0,2.0;" x1="58.2651" x2="237.7007" y1="514.3203" y2="514.3203"/><text fill="#000000" font-family="sans-serif" font-size="13" lengthAdjust="spacing" textLength="102.4575" x="70.2651" y="509.2544">204 No Content</text></g><line style="stroke:#000000;stroke-width:1;stroke-dasharray:2.0,2.0;" x1="20" x2="1158.124" y1="523.3203" y2="523.3203"/><text fill="#000000" font-family="sans-serif" font-size="11" font-weight="bold" lengthAdjust="spacing" textLength="197.812" x="25" y="533.5308">[SP Debtor rejects cancellation]</text><g class="message" data-participant-1="SPDAPI" data-participant-2="Service"><polygon fill="#181818" points="429.4263,554.2578,419.4263,558.2578,429.4263,562.2578,425.4263,558.2578" style="stroke:#181818;stroke-width:1;"/><line style="stroke:#181818;stroke-width:1;stroke-dasharray:2.0,2.0;" x1="423.4263" x2="1086.8896" y1="558.2578" y2="558.2578"/><text fill="#000000" font-family="sans-serif" font-size="13" lengthAdjust="spacing" textLength="95.6655" x="435.4263" y="553.1919">Error response</text></g><g class="message" data-participant-1="Service" data-participant-2="API"><polygon fill="#181818" points="259.7007,583.3906,249.7007,587.3906,259.7007,591.3906,255.7007,587.3906" style="stroke:#181818;stroke-width:1;"/><line style="stroke:#181818;stroke-width:1;stroke-dasharray:2.0,2.0;" x1="253.7007" x2="407.4263" y1="587.3906" y2="587.3906"/><text fill="#000000" font-family="sans-serif" font-size="13" lengthAdjust="spacing" textLength="135.7256" x="265.7007" y="582.3247">cancellationRejected</text></g><g class="message" data-participant-1="API" data-participant-2="Client"><polygon fill="#181818" points="64.2651,615.5234,54.2651,619.5234,64.2651,623.5234,60.2651,619.5234" style="stroke:#181818;stroke-width:1;"/><line style="stroke:#181818;stroke-width:1;stroke-dasharray:2.0,2.0;" x1="58.2651" x2="237.7007" y1="619.5234" y2="619.5234"/><text fill="#000000" font-family="sans-serif" font-size="13" lengthAdjust="spacing" textLength="90.3398" x="70.2651" y="614.4575">400/422 Error</text></g><path d="M253,600.3906 L253,625.3906 L583,625.3906 L583,610.3906 L573,600.3906 L253,600.3906" fill="#FEFFDD" style="stroke:#181818;stroke-width:0.5;"/><path d="M573,600.3906 L573,610.3906 L583,610.3906 L573,600.3906" fill="#FEFFDD" style="stroke:#181818;stroke-width:0.5;"/><text fill="#000000" font-family="sans-serif" font-size="13" lengthAdjust="spacing" textLength="309.2578" x="259" y="617.4575">Appropriate error based on SP Debtor response</text><line style="stroke:#000000;stroke-width:1;stroke-dasharray:2.0,2.0;" x1="10" x2="1389.3828" y1="638.5234" y2="638.5234"/><text fill="#000000" font-family="sans-serif" font-size="11" font-weight="bold" lengthAdjust="spacing" textLength="98.2749" x="15" y="648.7339">[RTP not found]</text><g class="message" data-participant-1="DB" data-participant-2="Service"><polygon fill="#181818" points="429.4263,669.4609,419.4263,673.4609,429.4263,677.4609,425.4263,673.4609" style="stroke:#181818;stroke-width:1;"/><line style="stroke:#181818;stroke-width:1;stroke-dasharray:2.0,2.0;" x1="423.4263" x2="595.2744" y1="673.4609" y2="673.4609"/><text fill="#000000" font-family="sans-serif" font-size="13" lengthAdjust="spacing" textLength="68.0977" x="435.4263" y="668.395">return null</text></g><g class="message" data-participant-1="Service" data-participant-2="API"><polygon fill="#181818" points="259.7007,698.5938,249.7007,702.5938,259.7007,706.5938,255.7007,702.5938" style="stroke:#181818;stroke-width:1;"/><line style="stroke:#181818;stroke-width:1;stroke-dasharray:2.0,2.0;" x1="253.7007" x2="407.4263" y1="702.5938" y2="702.5938"/><text fill="#000000" font-family="sans-serif" font-size="13" lengthAdjust="spacing" textLength="81.6309" x="265.7007" y="697.5278">rtpNotFound</text></g><g class="message" data-participant-1="API" data-participant-2="Client"><polygon fill="#181818" points="64.2651,730.7266,54.2651,734.7266,64.2651,738.7266,60.2651,734.7266" style="stroke:#181818;stroke-width:1;"/><line style="stroke:#181818;stroke-width:1;stroke-dasharray:2.0,2.0;" x1="58.2651" x2="237.7007" y1="734.7266" y2="734.7266"/><text fill="#000000" font-family="sans-serif" font-size="13" lengthAdjust="spacing" textLength="96.0146" x="70.2651" y="729.6606">404 Not Found</text></g><path d="M253,715.5938 L253,740.5938 L542,740.5938 L542,725.5938 L532,715.5938 L253,715.5938" fill="#FEFFDD" style="stroke:#181818;stroke-width:0.5;"/><path d="M532,715.5938 L532,725.5938 L542,725.5938 L532,715.5938" fill="#FEFFDD" style="stroke:#181818;stroke-width:0.5;"/><text fill="#000000" font-family="sans-serif" font-size="13" lengthAdjust="spacing" textLength="268.0488" x="259" y="732.6606">Error response as defined in the API spec</text><!--SRC=[bLJ1Zjem4BtxAqQSs0E28auSAYq9bP0g6W5IprvdAAwojcjFK57LVw_jnCGiS2Y7OCjltinxCpP9QX0AhWGsi3jKK5ajq3d6k21jeMWaAcA6Mv926gu8HW7sMcr6m5tulp_SeprBWH7GhrdDYRznXr2cXJyiLxV1-mfAV0jv4_- -AaCArjK1ay_XP0dLj_q1ffQCc_xntqtzTogY1gOq8LZvuqHB-2xf1F4uK1dkTpuTVqT26mNAC_VecC1_0djVxX8wkXsPSIHu6U194UiN8QnSBU4eLUtngykclelnGXblA3gClwKZny3_oXLCygGMgRKgeE9n_6HPEZEIUeU6Jop-Qj7HXFJ4y4lQUbV2wQxR7NJ5B_rwXqwtLk3WMCD9QdMDZ3bp4_UeQiYXq4E1D5mR5iC6YxgkNJK4wKDlkH1eoDsGHbYK6qDlRPdFFa5XqJFNC2xoKZegz5Qd-84eyoqHEQGzSMhTU5IyRelrrtKvUdaK4Vhf-1dx_W-OZnqBe4AhexJl7tGaiZIohXNnOYL0KjbDTX2vWAq6JqRXnWK8DWuptop-HF4_lgsjZM7EQENmUMavuIucmVffdOlPRBgOpploAogVc5TZh3PMXad0M4AuxpNuVkLYighyY0t3KkF3EOfcXFlZKy5Hjtt8aokasgPX3yNwTcurVRaItEiBVI0O4BcsMql3irAZl_XUdLH0f_YOW3CeMD34CYt-2SYLfMSHysVe7m00]--></g></svg>