<?xml version="1.0" encoding="us-ascii" standalone="no"?><svg xmlns="http://www.w3.org/2000/svg" xmlns:xlink="http://www.w3.org/1999/xlink" contentStyleType="text/css" height="843px" preserveAspectRatio="none" style="width:1388px;height:843px;background:#FFFFFF;" version="1.1" viewBox="0 0 1388 843" width="1388px" zoomAndPan="magnify"><defs/><g><text fill="#000000" font-family="sans-serif" font-size="14" font-weight="bold" lengthAdjust="spacing" textLength="157" x="616.75" y="27.9951">Cancel RTP Process</text><rect fill="#FFFFFF" height="600" style="stroke:#181818;stroke-width:1.0;" width="10" x="251.5" y="152.7266"/><rect fill="#FFFFFF" height="567.8672" style="stroke:#181818;stroke-width:1.0;" width="10" x="416.5" y="184.8594"/><rect fill="#FFFFFF" height="538.7344" style="stroke:#181818;stroke-width:1.0;" width="10" x="592.5" y="213.9922"/><rect fill="#FFFFFF" height="338.1328" style="stroke:#181818;stroke-width:1.0;" width="10" x="1083.5" y="299.3906"/><rect fill="none" height="516.7344" style="stroke:#000000;stroke-width:1.5;" width="1371.5" x="10" y="228.9922"/><rect fill="none" height="313.1328" style="stroke:#000000;stroke-width:1.5;" width="1133" x="20" y="317.3906"/><line style="stroke:#181818;stroke-width:0.5;stroke-dasharray:5.0,5.0;" x1="71" x2="71" y1="118.5938" y2="762.7266"/><line style="stroke:#181818;stroke-width:0.5;stroke-dasharray:5.0,5.0;" x1="256" x2="256" y1="118.5938" y2="762.7266"/><line style="stroke:#181818;stroke-width:0.5;stroke-dasharray:5.0,5.0;" x1="421.5" x2="421.5" y1="118.5938" y2="762.7266"/><line style="stroke:#181818;stroke-width:0.5;stroke-dasharray:5.0,5.0;" x1="597.5" x2="597.5" y1="118.5938" y2="762.7266"/><line style="stroke:#181818;stroke-width:0.5;stroke-dasharray:5.0,5.0;" x1="1088" x2="1088" y1="118.5938" y2="762.7266"/><text fill="#000000" font-family="sans-serif" font-size="14" lengthAdjust="spacing" textLength="77" x="30" y="115.292">SP Creditor</text><ellipse cx="71.5" cy="50.7969" fill="#E2E2F0" rx="8" ry="8" style="stroke:#181818;stroke-width:0.5;"/><path d="M71.5,58.7969 L71.5,85.7969 M58.5,66.7969 L84.5,66.7969 M71.5,85.7969 L58.5,100.7969 M71.5,85.7969 L84.5,100.7969 " fill="none" style="stroke:#181818;stroke-width:0.5;"/><text fill="#000000" font-family="sans-serif" font-size="14" lengthAdjust="spacing" textLength="77" x="30" y="774.7217">SP Creditor</text><ellipse cx="71.5" cy="786.5234" fill="#E2E2F0" rx="8" ry="8" style="stroke:#181818;stroke-width:0.5;"/><path d="M71.5,794.5234 L71.5,821.5234 M58.5,802.5234 L84.5,802.5234 M71.5,821.5234 L58.5,836.5234 M71.5,821.5234 L84.5,836.5234 " fill="none" style="stroke:#181818;stroke-width:0.5;"/><rect fill="#E2E2F0" height="30.2969" rx="2.5" ry="2.5" style="stroke:#181818;stroke-width:0.5;" width="67" x="223" y="87.2969"/><text fill="#000000" font-family="sans-serif" font-size="14" lengthAdjust="spacing" textLength="53" x="230" y="107.292">RTP API</text><rect fill="#E2E2F0" height="30.2969" rx="2.5" ry="2.5" style="stroke:#181818;stroke-width:0.5;" width="67" x="223" y="761.7266"/><text fill="#000000" font-family="sans-serif" font-size="14" lengthAdjust="spacing" textLength="53" x="230" y="781.7217">RTP API</text><rect fill="#E2E2F0" height="30.2969" rx="2.5" ry="2.5" style="stroke:#181818;stroke-width:0.5;" width="96" x="373.5" y="87.2969"/><text fill="#000000" font-family="sans-serif" font-size="14" lengthAdjust="spacing" textLength="82" x="380.5" y="107.292">RTP Service</text><rect fill="#E2E2F0" height="30.2969" rx="2.5" ry="2.5" style="stroke:#181818;stroke-width:0.5;" width="96" x="373.5" y="761.7266"/><text fill="#000000" font-family="sans-serif" font-size="14" lengthAdjust="spacing" textLength="82" x="380.5" y="781.7217">RTP Service</text><text fill="#000000" font-family="sans-serif" font-size="14" lengthAdjust="spacing" textLength="66" x="561.5" y="115.292">Database</text><path d="M579.5,66.2969 C579.5,56.2969 597.5,56.2969 597.5,56.2969 C597.5,56.2969 615.5,56.2969 615.5,66.2969 L615.5,92.2969 C615.5,102.2969 597.5,102.2969 597.5,102.2969 C597.5,102.2969 579.5,102.2969 579.5,92.2969 L579.5,66.2969 " fill="#E2E2F0" style="stroke:#181818;stroke-width:1.5;"/><path d="M579.5,66.2969 C579.5,76.2969 597.5,76.2969 597.5,76.2969 C597.5,76.2969 615.5,76.2969 615.5,66.2969 " fill="none" style="stroke:#181818;stroke-width:1.5;"/><text fill="#000000" font-family="sans-serif" font-size="14" lengthAdjust="spacing" textLength="66" x="561.5" y="774.7217">Database</text><path d="M579.5,788.0234 C579.5,778.0234 597.5,778.0234 597.5,778.0234 C597.5,778.0234 615.5,778.0234 615.5,788.0234 L615.5,814.0234 C615.5,824.0234 597.5,824.0234 597.5,824.0234 C597.5,824.0234 579.5,824.0234 579.5,814.0234 L579.5,788.0234 " fill="#E2E2F0" style="stroke:#181818;stroke-width:1.5;"/><path d="M579.5,788.0234 C579.5,798.0234 597.5,798.0234 597.5,798.0234 C597.5,798.0234 615.5,798.0234 615.5,788.0234 " fill="none" style="stroke:#181818;stroke-width:1.5;"/><rect fill="#E2E2F0" height="30.2969" rx="2.5" ry="2.5" style="stroke:#181818;stroke-width:0.5;" width="109" x="1034" y="87.2969"/><text fill="#000000" font-family="sans-serif" font-size="14" lengthAdjust="spacing" textLength="95" x="1041" y="107.292">SP Debtor API</text><rect fill="#E2E2F0" height="30.2969" rx="2.5" ry="2.5" style="stroke:#181818;stroke-width:0.5;" width="109" x="1034" y="761.7266"/><text fill="#000000" font-family="sans-serif" font-size="14" lengthAdjust="spacing" textLength="95" x="1041" y="781.7217">SP Debtor API</text><rect fill="#FFFFFF" height="600" style="stroke:#181818;stroke-width:1.0;" width="10" x="251.5" y="152.7266"/><rect fill="#FFFFFF" height="567.8672" style="stroke:#181818;stroke-width:1.0;" width="10" x="416.5" y="184.8594"/><rect fill="#FFFFFF" height="538.7344" style="stroke:#181818;stroke-width:1.0;" width="10" x="592.5" y="213.9922"/><rect fill="#FFFFFF" height="338.1328" style="stroke:#181818;stroke-width:1.0;" width="10" x="1083.5" y="299.3906"/><polygon fill="#181818" points="239.5,148.7266,249.5,152.7266,239.5,156.7266,243.5,152.7266" style="stroke:#181818;stroke-width:1.0;"/><line style="stroke:#181818;stroke-width:1.0;" x1="71.5" x2="245.5" y1="152.7266" y2="152.7266"/><text fill="#000000" font-family="sans-serif" font-size="13" lengthAdjust="spacing" textLength="161" x="78.5" y="147.6606">POST /rtps/{rtpId}/cancel</text><path d="M266,133.5938 L266,158.5938 L471,158.5938 L471,143.5938 L461,133.5938 L266,133.5938 " fill="#FEFFDD" style="stroke:#181818;stroke-width:0.5;"/><path d="M461,133.5938 L461,143.5938 L471,143.5938 L461,133.5938 " fill="#FEFFDD" style="stroke:#181818;stroke-width:0.5;"/><text fill="#000000" font-family="sans-serif" font-size="13" lengthAdjust="spacing" textLength="184" x="272" y="150.6606">With rtpId as path parameter</text><polygon fill="#181818" points="404.5,180.8594,414.5,184.8594,404.5,188.8594,408.5,184.8594" style="stroke:#181818;stroke-width:1.0;"/><line style="stroke:#181818;stroke-width:1.0;" x1="261.5" x2="410.5" y1="184.8594" y2="184.8594"/><text fill="#000000" font-family="sans-serif" font-size="13" lengthAdjust="spacing" textLength="101" x="268.5" y="179.7935">cancelRtp(rtpId)</text><polygon fill="#181818" points="580.5,209.9922,590.5,213.9922,580.5,217.9922,584.5,213.9922" style="stroke:#181818;stroke-width:1.0;"/><line style="stroke:#181818;stroke-width:1.0;" x1="426.5" x2="586.5" y1="213.9922" y2="213.9922"/><text fill="#000000" font-family="sans-serif" font-size="13" lengthAdjust="spacing" textLength="110" x="433.5" y="208.9263">findRtpById(rtpId)</text><path d="M10,228.9922 L74,228.9922 L74,236.125 L64,246.125 L10,246.125 L10,228.9922 " fill="#EEEEEE" style="stroke:#000000;stroke-width:1.5;"/><rect fill="none" height="516.7344" style="stroke:#000000;stroke-width:1.5;" width="1371.5" x="10" y="228.9922"/><text fill="#000000" font-family="sans-serif" font-size="13" font-weight="bold" lengthAdjust="spacing" textLength="19" x="25" y="242.0591">alt</text><text fill="#000000" font-family="sans-serif" font-size="11" font-weight="bold" lengthAdjust="spacing" textLength="76" x="89" y="241.2026">[RTP exists]</text><polygon fill="#181818" points="437.5,263.2578,427.5,267.2578,437.5,271.2578,433.5,267.2578" style="stroke:#181818;stroke-width:1.0;"/><line style="stroke:#181818;stroke-width:1.0;stroke-dasharray:2.0,2.0;" x1="431.5" x2="591.5" y1="267.2578" y2="267.2578"/><text fill="#000000" font-family="sans-serif" font-size="13" lengthAdjust="spacing" textLength="66" x="443.5" y="262.1919">return RTP</text><polygon fill="#181818" points="1071.5,295.3906,1081.5,299.3906,1071.5,303.3906,1075.5,299.3906" style="stroke:#181818;stroke-width:1.0;"/><line style="stroke:#181818;stroke-width:1.0;" x1="426.5" x2="1077.5" y1="299.3906" y2="299.3906"/><text fill="#000000" font-family="sans-serif" font-size="13" lengthAdjust="spacing" textLength="638" x="433.5" y="294.3247">POST /sepa-request-to-pay-requests/{sepaRequestToPayRequestResourceId}/cancellation-requests</text><path d="M1098,280.2578 L1098,305.2578 L1371,305.2578 L1371,290.2578 L1361,280.2578 L1098,280.2578 " fill="#FEFFDD" style="stroke:#181818;stroke-width:0.5;"/><path d="M1361,280.2578 L1361,290.2578 L1371,290.2578 L1361,280.2578 " fill="#FEFFDD" style="stroke:#181818;stroke-width:0.5;"/><text fill="#000000" font-family="sans-serif" font-size="13" lengthAdjust="spacing" textLength="252" x="1104" y="297.3247">Send cancellation request to SP Debtor</text><path d="M20,317.3906 L84,317.3906 L84,324.5234 L74,334.5234 L20,334.5234 L20,317.3906 " fill="#EEEEEE" style="stroke:#000000;stroke-width:1.5;"/><rect fill="none" height="313.1328" style="stroke:#000000;stroke-width:1.5;" width="1133" x="20" y="317.3906"/><text fill="#000000" font-family="sans-serif" font-size="13" font-weight="bold" lengthAdjust="spacing" textLength="19" x="35" y="330.4575">alt</text><text fill="#000000" font-family="sans-serif" font-size="11" font-weight="bold" lengthAdjust="spacing" textLength="210" x="99" y="329.6011">[SP Debtor accepts cancellation]</text><polygon fill="#181818" points="437.5,351.6563,427.5,355.6563,437.5,359.6563,433.5,355.6563" style="stroke:#181818;stroke-width:1.0;"/><line style="stroke:#181818;stroke-width:1.0;stroke-dasharray:2.0,2.0;" x1="431.5" x2="1082.5" y1="355.6563" y2="355.6563"/><text fill="#000000" font-family="sans-serif" font-size="13" lengthAdjust="spacing" textLength="234" x="443.5" y="350.5903">201 Created (Cancellation accepted)</text><line style="stroke:#181818;stroke-width:1.0;" x1="426.5" x2="468.5" y1="384.7891" y2="384.7891"/><line style="stroke:#181818;stroke-width:1.0;" x1="468.5" x2="468.5" y1="384.7891" y2="397.7891"/><line style="stroke:#181818;stroke-width:1.0;" x1="427.5" x2="468.5" y1="397.7891" y2="397.7891"/><polygon fill="#181818" points="437.5,393.7891,427.5,397.7891,437.5,401.7891,433.5,397.7891" style="stroke:#181818;stroke-width:1.0;"/><text fill="#000000" font-family="sans-serif" font-size="13" lengthAdjust="spacing" textLength="152" x="433.5" y="379.7231">setStatus("CANCELED")</text><polygon fill="#181818" points="580.5,422.9219,590.5,426.9219,580.5,430.9219,584.5,426.9219" style="stroke:#181818;stroke-width:1.0;"/><line style="stroke:#181818;stroke-width:1.0;" x1="426.5" x2="586.5" y1="426.9219" y2="426.9219"/><text fill="#000000" font-family="sans-serif" font-size="13" lengthAdjust="spacing" textLength="79" x="433.5" y="421.856">saveRtp(rtp)</text><polygon fill="#181818" points="437.5,452.0547,427.5,456.0547,437.5,460.0547,433.5,456.0547" style="stroke:#181818;stroke-width:1.0;"/><line style="stroke:#181818;stroke-width:1.0;stroke-dasharray:2.0,2.0;" x1="431.5" x2="591.5" y1="456.0547" y2="456.0547"/><text fill="#000000" font-family="sans-serif" font-size="13" lengthAdjust="spacing" textLength="112" x="443.5" y="450.9888">saveConfirmation</text><polygon fill="#181818" points="272.5,481.1875,262.5,485.1875,272.5,489.1875,268.5,485.1875" style="stroke:#181818;stroke-width:1.0;"/><line style="stroke:#181818;stroke-width:1.0;stroke-dasharray:2.0,2.0;" x1="266.5" x2="415.5" y1="485.1875" y2="485.1875"/><text fill="#000000" font-family="sans-serif" font-size="13" lengthAdjust="spacing" textLength="51" x="278.5" y="480.1216">success</text><polygon fill="#181818" points="82.5,510.3203,72.5,514.3203,82.5,518.3203,78.5,514.3203" style="stroke:#181818;stroke-width:1.0;"/><line style="stroke:#181818;stroke-width:1.0;stroke-dasharray:2.0,2.0;" x1="76.5" x2="250.5" y1="514.3203" y2="514.3203"/><text fill="#000000" font-family="sans-serif" font-size="13" lengthAdjust="spacing" textLength="101" x="88.5" y="509.2544">204 No Content</text><line style="stroke:#000000;stroke-width:1.0;stroke-dasharray:2.0,2.0;" x1="20" x2="1153" y1="523.3203" y2="523.3203"/><text fill="#000000" font-family="sans-serif" font-size="11" font-weight="bold" lengthAdjust="spacing" textLength="204" x="25" y="533.5308">[SP Debtor rejects cancellation]</text><polygon fill="#181818" points="437.5,554.2578,427.5,558.2578,437.5,562.2578,433.5,558.2578" style="stroke:#181818;stroke-width:1.0;"/><line style="stroke:#181818;stroke-width:1.0;stroke-dasharray:2.0,2.0;" x1="431.5" x2="1082.5" y1="558.2578" y2="558.2578"/><text fill="#000000" font-family="sans-serif" font-size="13" lengthAdjust="spacing" textLength="94" x="443.5" y="553.1919">Error response</text><polygon fill="#181818" points="272.5,583.3906,262.5,587.3906,272.5,591.3906,268.5,587.3906" style="stroke:#181818;stroke-width:1.0;"/><line style="stroke:#181818;stroke-width:1.0;stroke-dasharray:2.0,2.0;" x1="266.5" x2="415.5" y1="587.3906" y2="587.3906"/><text fill="#000000" font-family="sans-serif" font-size="13" lengthAdjust="spacing" textLength="131" x="278.5" y="582.3247">cancellationRejected</text><polygon fill="#181818" points="82.5,615.5234,72.5,619.5234,82.5,623.5234,78.5,619.5234" style="stroke:#181818;stroke-width:1.0;"/><line style="stroke:#181818;stroke-width:1.0;stroke-dasharray:2.0,2.0;" x1="76.5" x2="250.5" y1="619.5234" y2="619.5234"/><text fill="#000000" font-family="sans-serif" font-size="13" lengthAdjust="spacing" textLength="87" x="88.5" y="614.4575">400/422 Error</text><path d="M266,600.3906 L266,625.3906 L592,625.3906 L592,610.3906 L582,600.3906 L266,600.3906 " fill="#FEFFDD" style="stroke:#181818;stroke-width:0.5;"/><path d="M582,600.3906 L582,610.3906 L592,610.3906 L582,600.3906 " fill="#FEFFDD" style="stroke:#181818;stroke-width:0.5;"/><text fill="#000000" font-family="sans-serif" font-size="13" lengthAdjust="spacing" textLength="305" x="272" y="617.4575">Appropriate error based on SP Debtor response</text><line style="stroke:#000000;stroke-width:1.0;stroke-dasharray:2.0,2.0;" x1="10" x2="1381.5" y1="638.5234" y2="638.5234"/><text fill="#000000" font-family="sans-serif" font-size="11" font-weight="bold" lengthAdjust="spacing" textLength="100" x="15" y="648.7339">[RTP not found]</text><polygon fill="#181818" points="437.5,669.4609,427.5,673.4609,437.5,677.4609,433.5,673.4609" style="stroke:#181818;stroke-width:1.0;"/><line style="stroke:#181818;stroke-width:1.0;stroke-dasharray:2.0,2.0;" x1="431.5" x2="591.5" y1="673.4609" y2="673.4609"/><text fill="#000000" font-family="sans-serif" font-size="13" lengthAdjust="spacing" textLength="65" x="443.5" y="668.395">return null</text><polygon fill="#181818" points="272.5,698.5938,262.5,702.5938,272.5,706.5938,268.5,702.5938" style="stroke:#181818;stroke-width:1.0;"/><line style="stroke:#181818;stroke-width:1.0;stroke-dasharray:2.0,2.0;" x1="266.5" x2="415.5" y1="702.5938" y2="702.5938"/><text fill="#000000" font-family="sans-serif" font-size="13" lengthAdjust="spacing" textLength="80" x="278.5" y="697.5278">rtpNotFound</text><polygon fill="#181818" points="82.5,730.7266,72.5,734.7266,82.5,738.7266,78.5,734.7266" style="stroke:#181818;stroke-width:1.0;"/><line style="stroke:#181818;stroke-width:1.0;stroke-dasharray:2.0,2.0;" x1="76.5" x2="250.5" y1="734.7266" y2="734.7266"/><text fill="#000000" font-family="sans-serif" font-size="13" lengthAdjust="spacing" textLength="94" x="88.5" y="729.6606">404 Not Found</text><path d="M266,715.5938 L266,740.5938 L549,740.5938 L549,725.5938 L539,715.5938 L266,715.5938 " fill="#FEFFDD" style="stroke:#181818;stroke-width:0.5;"/><path d="M539,715.5938 L539,725.5938 L549,725.5938 L539,715.5938 " fill="#FEFFDD" style="stroke:#181818;stroke-width:0.5;"/><text fill="#000000" font-family="sans-serif" font-size="13" lengthAdjust="spacing" textLength="262" x="272" y="732.6606">Error response as defined in the API spec</text><!--SRC=[bLJ1Zjem4BtxAqQSs0E28auSAa529QIAHWIfPwyp55VPsBKdgAZglzTsuiJiiYkLGx3bDs_clHcR9DK86My4rd0y5L0O9T1QnhWWPM1I5f0PhAJRJ83ROSCqDoI5rBmXcFZ8JR4F2FV_zh14SvK20w1ViueJV-OM8OyBTvXlxuDT_XoVVIcHlonoduB5Ic3ssP-jeVXMdc1kIDlv7_VTLt_d8WXZZI848tzSQ0tV9LqW77iopTtE9UGlI6Y2Qddb3XrIk8zdxmjUGqTt93qD14yZF6fY_SA7vTird6LJEVpsjg_Un3YfZDSKRCVVqf9bu7xv5cPfKeFKciQZmd7u95awEw9wYvhF3FvgqTACr4ppMzmwL_pfiTkTLC5l_Vg8LhL6uEXOpKcgPeWCELCJIsmgIA7GGu4K32qBOQD5NTy63Lxws5qk16goTwG15kI6q7jRbejFVXWTSmNJB2sbeq9dTOmVYHBV8f55AebJQwUJR7F8Tbzt-UJfKOJlf-LNxFi_Obvtp8CorPobUNcb8vB5aRMj2BSj0gBAEDjUvWeE2XmTOKC1YBN5n3c3Fr7yZtCxOqAOrQgn-7vnAU4n9C7gWqfNYyLyjLnsz0CkdPgDraPf8_qqO2Z2t_eANCzIEKbTRip6WQdmuIm5E_mTSgdWhDe-v9rhrBHrpHxATIqzAFeo43nIw7j1C69ITVUs-iUbGdVzdJxP05t2am9Mes1U5KlKk8SWrHQVHxnxZFu1]--></g></svg>