<?xml version="1.0" encoding="us-ascii" standalone="no"?><svg xmlns="http://www.w3.org/2000/svg" xmlns:xlink="http://www.w3.org/1999/xlink" contentStyleType="text/css" height="2160.4167px" preserveAspectRatio="none" style="width:1357px;height:2160px;" version="1.1" viewBox="0 0 1357 2160" width="1357.2917px" zoomAndPan="magnify"><defs><linearGradient id="gmdd93vzwohev0" x1="50%" x2="50%" y1="0%" y2="100%"><stop offset="0%" stop-color="#FFFFFF"/><stop offset="100%" stop-color="#FFFFFF"/></linearGradient><filter height="300%" id="fmdd93vzwohev" width="300%" x="-1" y="-1"><feGaussianBlur result="blurOut" stdDeviation="2.0833333333333335"/><feColorMatrix in="blurOut" result="blurOut2" type="matrix" values="0 0 0 0 0 0 0 0 0 0 0 0 0 0 0 0 0 0 .4 0"/><feOffset dx="4.166666666666667" dy="4.166666666666667" in="blurOut2" result="blurOut3"/><feBlend in="SourceGraphic" in2="blurOut3" mode="normal"/></filter><linearGradient id="gmdd93vzwohev1" x1="50%" x2="50%" y1="0%" y2="100%"><stop offset="0%" stop-color="#4DABF5"/><stop offset="100%" stop-color="#2196F3"/></linearGradient><linearGradient id="gmdd93vzwohev2" x1="50%" x2="50%" y1="0%" y2="100%"><stop offset="0%" stop-color="#B052C0"/><stop offset="100%" stop-color="#9C27B0"/></linearGradient></defs><g><rect fill="url(#gmdd93vzwohev0)" height="57.5846" id="_title" rx="4.1667" ry="4.1667" style="stroke:#CCCCCC;stroke-width:1.0416666666666667;" width="228.125" x="565.625" y="20.8333"/><text fill="#2196F3" font-family="Verdana" font-size="20.8333" font-weight="bold" lengthAdjust="spacing" textLength="194.7917" x="582.2917" y="56.838">RTP Delete Flow</text><rect fill="#FFFFFF" filter="url(#fmdd93vzwohev)" height="1762.3047" style="stroke:#CCCCCC;stroke-width:1.0416666666666667;" width="10.4167" x="481.25" y="268.8802"/><rect fill="#FFFFFF" filter="url(#fmdd93vzwohev)" height="114.4857" style="stroke:#CCCCCC;stroke-width:1.0416666666666667;" width="10.4167" x="802.0833" y="318.8477"/><rect fill="#FFFFFF" filter="url(#fmdd93vzwohev)" height="114.4857" style="stroke:#CCCCCC;stroke-width:1.0416666666666667;" width="10.4167" x="935.4167" y="872.5911"/><rect fill="#FFFFFF" filter="url(#fmdd93vzwohev)" height="704.7526" style="stroke:#CCCCCC;stroke-width:1.0416666666666667;" width="10.4167" x="1229.1667" y="1174.4466"/><rect fill="url(#gmdd93vzwohev0)" filter="url(#fmdd93vzwohev)" height="1689.4206" rx="4.1667" ry="4.1667" style="stroke:#2196F3;stroke-width:1.0416666666666667;" width="1318.75" x="20.8333" y="334.4727"/><path d="M20.8333,643.5872 L1339.5833,643.5872 L1339.5833,2019.7266 A4.1667,4.1667 0 0 1 1335.4167,2023.8932 L25,2023.8932 A4.1667,4.1667 0 0 1 20.8333,2019.7266 L20.8333,643.5872 " fill="url(#gmdd93vzwohev0)" style="stroke:none;stroke-width:1.0416666666666667;"/><rect fill="url(#gmdd93vzwohev0)" filter="url(#fmdd93vzwohev)" height="1128.3854" rx="4.1667" ry="4.1667" style="stroke:#2196F3;stroke-width:1.0416666666666667;" width="1297.9167" x="31.25" y="888.2161"/><rect fill="url(#gmdd93vzwohev0)" filter="url(#fmdd93vzwohev)" height="622.4935" rx="4.1667" ry="4.1667" style="stroke:#2196F3;stroke-width:1.0416666666666667;" width="1277.0833" x="41.6667" y="1249.4141"/><path d="M41.6667,1470.0846 L1318.75,1470.0846 L1318.75,1666.8294 A4.1667,4.1667 0 0 1 1314.5833,1670.9961 L45.8333,1670.9961 A4.1667,4.1667 0 0 1 41.6667,1666.8294 L41.6667,1470.0846 " fill="url(#gmdd93vzwohev0)" style="stroke:none;stroke-width:1.0416666666666667;"/><path d="M41.6667,1670.9961 L1318.75,1670.9961 L1318.75,1867.7409 A4.1667,4.1667 0 0 1 1314.5833,1871.9076 L45.8333,1871.9076 A4.1667,4.1667 0 0 1 41.6667,1867.7409 L41.6667,1670.9961 " fill="url(#gmdd93vzwohev0)" style="stroke:none;stroke-width:1.0416666666666667;"/><path d="M31.25,1879.1992 L1329.1667,1879.1992 L1329.1667,2012.4349 A4.1667,4.1667 0 0 1 1325,2016.6016 L35.4167,2016.6016 A4.1667,4.1667 0 0 1 31.25,2012.4349 L31.25,1879.1992 " fill="url(#gmdd93vzwohev0)" style="stroke:none;stroke-width:1.0416666666666667;"/><line style="stroke:#CCCCCC;stroke-width:1.0416666666666667;stroke-dasharray:5.0,5.0;" x1="160.4167" x2="160.4167" y1="187.7279" y2="2041.6016"/><line style="stroke:#CCCCCC;stroke-width:1.0416666666666667;stroke-dasharray:5.0,5.0;" x1="485.9375" x2="485.9375" y1="187.7279" y2="2041.6016"/><line style="stroke:#CCCCCC;stroke-width:1.0416666666666667;stroke-dasharray:5.0,5.0;" x1="806.7708" x2="806.7708" y1="187.7279" y2="2041.6016"/><line style="stroke:#CCCCCC;stroke-width:1.0416666666666667;stroke-dasharray:5.0,5.0;" x1="940.1042" x2="940.1042" y1="187.7279" y2="2041.6016"/><line style="stroke:#CCCCCC;stroke-width:1.0416666666666667;stroke-dasharray:5.0,5.0;" x1="1234.375" x2="1234.375" y1="187.7279" y2="2041.6016"/><rect fill="url(#gmdd93vzwohev1)" filter="url(#fmdd93vzwohev)" height="49.9674" rx="4.1667" ry="4.1667" style="stroke:#2196F3;stroke-width:1.0416666666666667;" width="130.2083" x="93.75" y="133.5938"/><text fill="#FFFFFF" font-family="Verdana" font-size="12.5" lengthAdjust="spacing" textLength="94.7917" x="111.4583" y="162.9049">MS-CONSUMER</text><rect fill="url(#gmdd93vzwohev1)" filter="url(#fmdd93vzwohev)" height="49.9674" rx="4.1667" ry="4.1667" style="stroke:#2196F3;stroke-width:1.0416666666666667;" width="130.2083" x="93.75" y="2040.5599"/><text fill="#FFFFFF" font-family="Verdana" font-size="12.5" lengthAdjust="spacing" textLength="94.7917" x="111.4583" y="2069.871">MS-CONSUMER</text><rect fill="url(#gmdd93vzwohev1)" filter="url(#fmdd93vzwohev)" height="49.9674" rx="4.1667" ry="4.1667" style="stroke:#2196F3;stroke-width:1.0416666666666667;" width="110.4167" x="429.6875" y="133.5938"/><text fill="#FFFFFF" font-family="Verdana" font-size="12.5" lengthAdjust="spacing" textLength="75" x="447.3958" y="162.9049">MS-SENDER</text><rect fill="url(#gmdd93vzwohev1)" filter="url(#fmdd93vzwohev)" height="49.9674" rx="4.1667" ry="4.1667" style="stroke:#2196F3;stroke-width:1.0416666666666667;" width="110.4167" x="429.6875" y="2040.5599"/><text fill="#FFFFFF" font-family="Verdana" font-size="12.5" lengthAdjust="spacing" textLength="75" x="447.3958" y="2069.871">MS-SENDER</text><text fill="#222222" font-family="Verdana" font-size="12.5" lengthAdjust="spacing" textLength="35.4167" x="786.4583" y="159.8124">Redis</text><text fill="#222222" font-family="Verdana" font-size="12.5" lengthAdjust="spacing" textLength="159.375" x="724.4792" y="174.3632">(Idempotency Key Store)</text><path d="M788.5417,100.293 C788.5417,89.8763 807.2917,89.8763 807.2917,89.8763 C807.2917,89.8763 826.0417,89.8763 826.0417,100.293 L826.0417,127.3763 C826.0417,137.793 807.2917,137.793 807.2917,137.793 C807.2917,137.793 788.5417,137.793 788.5417,127.3763 L788.5417,100.293 " fill="url(#gmdd93vzwohev1)" filter="url(#fmdd93vzwohev)" style="stroke:#2196F3;stroke-width:1.5625;"/><path d="M788.5417,100.293 C788.5417,110.7096 807.2917,110.7096 807.2917,110.7096 C807.2917,110.7096 826.0417,110.7096 826.0417,100.293 " fill="none" style="stroke:#2196F3;stroke-width:1.5625;"/><text fill="#222222" font-family="Verdana" font-size="12.5" lengthAdjust="spacing" textLength="35.4167" x="786.4583" y="2062.5793">Redis</text><text fill="#222222" font-family="Verdana" font-size="12.5" lengthAdjust="spacing" textLength="159.375" x="724.4792" y="2077.1301">(Idempotency Key Store)</text><path d="M788.5417,2100.9115 C788.5417,2090.4948 807.2917,2090.4948 807.2917,2090.4948 C807.2917,2090.4948 826.0417,2090.4948 826.0417,2100.9115 L826.0417,2127.9948 C826.0417,2138.4115 807.2917,2138.4115 807.2917,2138.4115 C807.2917,2138.4115 788.5417,2138.4115 788.5417,2127.9948 L788.5417,2100.9115 " fill="url(#gmdd93vzwohev1)" filter="url(#fmdd93vzwohev)" style="stroke:#2196F3;stroke-width:1.5625;"/><path d="M788.5417,2100.9115 C788.5417,2111.3281 807.2917,2111.3281 807.2917,2111.3281 C807.2917,2111.3281 826.0417,2111.3281 826.0417,2100.9115 " fill="none" style="stroke:#2196F3;stroke-width:1.5625;"/><text fill="#222222" font-family="Verdana" font-size="12.5" lengthAdjust="spacing" textLength="32.2917" x="921.3542" y="174.3632">RTPS</text><path d="M921.875,114.8438 C921.875,104.4271 940.625,104.4271 940.625,104.4271 C940.625,104.4271 959.375,104.4271 959.375,114.8438 L959.375,141.9271 C959.375,152.3438 940.625,152.3438 940.625,152.3438 C940.625,152.3438 921.875,152.3438 921.875,141.9271 L921.875,114.8438 " fill="url(#gmdd93vzwohev1)" filter="url(#fmdd93vzwohev)" style="stroke:#2196F3;stroke-width:1.5625;"/><path d="M921.875,114.8438 C921.875,125.2604 940.625,125.2604 940.625,125.2604 C940.625,125.2604 959.375,125.2604 959.375,114.8438 " fill="none" style="stroke:#2196F3;stroke-width:1.5625;"/><text fill="#222222" font-family="Verdana" font-size="12.5" lengthAdjust="spacing" textLength="32.2917" x="921.3542" y="2062.5793">RTPS</text><path d="M921.875,2086.3607 C921.875,2075.944 940.625,2075.944 940.625,2075.944 C940.625,2075.944 959.375,2075.944 959.375,2086.3607 L959.375,2113.444 C959.375,2123.8607 940.625,2123.8607 940.625,2123.8607 C940.625,2123.8607 921.875,2123.8607 921.875,2113.444 L921.875,2086.3607 " fill="url(#gmdd93vzwohev1)" filter="url(#fmdd93vzwohev)" style="stroke:#2196F3;stroke-width:1.5625;"/><path d="M921.875,2086.3607 C921.875,2096.7773 940.625,2096.7773 940.625,2096.7773 C940.625,2096.7773 959.375,2096.7773 959.375,2086.3607 " fill="none" style="stroke:#2196F3;stroke-width:1.5625;"/><rect fill="url(#gmdd93vzwohev1)" filter="url(#fmdd93vzwohev)" height="49.9674" rx="4.1667" ry="4.1667" style="stroke:#2196F3;stroke-width:1.0416666666666667;" width="61.4583" x="1202.0833" y="133.5938"/><text fill="#FFFFFF" font-family="Verdana" font-size="12.5" lengthAdjust="spacing" textLength="26.0417" x="1219.7917" y="162.9049">DSP</text><rect fill="url(#gmdd93vzwohev1)" filter="url(#fmdd93vzwohev)" height="49.9674" rx="4.1667" ry="4.1667" style="stroke:#2196F3;stroke-width:1.0416666666666667;" width="61.4583" x="1202.0833" y="2040.5599"/><text fill="#FFFFFF" font-family="Verdana" font-size="12.5" lengthAdjust="spacing" textLength="26.0417" x="1219.7917" y="2069.871">DSP</text><rect fill="#FFFFFF" filter="url(#fmdd93vzwohev)" height="1762.3047" style="stroke:#CCCCCC;stroke-width:1.0416666666666667;" width="10.4167" x="481.25" y="268.8802"/><rect fill="#FFFFFF" filter="url(#fmdd93vzwohev)" height="114.4857" style="stroke:#CCCCCC;stroke-width:1.0416666666666667;" width="10.4167" x="802.0833" y="318.8477"/><rect fill="#FFFFFF" filter="url(#fmdd93vzwohev)" height="114.4857" style="stroke:#CCCCCC;stroke-width:1.0416666666666667;" width="10.4167" x="935.4167" y="872.5911"/><rect fill="#FFFFFF" filter="url(#fmdd93vzwohev)" height="704.7526" style="stroke:#CCCCCC;stroke-width:1.0416666666666667;" width="10.4167" x="1229.1667" y="1174.4466"/><polygon fill="#2196F3" points="468.75,264.7135,479.1667,268.8802,468.75,273.0469,472.9167,268.8802" style="stroke:#2196F3;stroke-width:1.0416666666666667;"/><line style="stroke:#2196F3;stroke-width:3.125;" x1="160.4167" x2="475" y1="268.8802" y2="268.8802"/><text fill="#222222" font-family="Verdana" font-size="12.5" font-weight="bold" lengthAdjust="spacing" textLength="8.3333" x="178.125" y="238.8814">1</text><text fill="#222222" font-family="Verdana" font-size="12.5" lengthAdjust="spacing" textLength="131.25" x="211.4583" y="224.3306">DELETE RTP request</text><text fill="#222222" font-family="Verdana" font-size="12.5" lengthAdjust="spacing" textLength="246.875" x="211.4583" y="238.8814">Headers: Idempotency-Key, RequestId</text><text fill="#222222" font-family="Verdana" font-size="12.5" lengthAdjust="spacing" textLength="201.0417" x="211.4583" y="253.4322">Payload: RTP cancellation data</text><polygon fill="#2196F3" points="789.5833,314.681,800,318.8477,789.5833,323.0143,793.75,318.8477" style="stroke:#2196F3;stroke-width:1.0416666666666667;"/><line style="stroke:#2196F3;stroke-width:3.125;" x1="491.6667" x2="795.8333" y1="318.8477" y2="318.8477"/><text fill="#222222" font-family="Verdana" font-size="12.5" font-weight="bold" lengthAdjust="spacing" textLength="8.3333" x="509.375" y="303.3997">2</text><text fill="#222222" font-family="Verdana" font-size="12.5" lengthAdjust="spacing" textLength="152.0833" x="542.7083" y="303.3997">check Idempotency-Key</text><path d="M25,334.4727 L108.3333,334.4727 L108.3333,361.5234 L97.9167,371.9401 L20.8333,371.9401 L20.8333,338.6393 A4.1667,4.1667 0 0 1 25,334.4727 " fill="#FFFFFF" style="stroke:#666666;stroke-width:1.0416666666666667;"/><rect fill="none" height="1689.4206" rx="4.1667" ry="4.1667" style="stroke:#2196F3;stroke-width:1.0416666666666667;" width="1318.75" x="20.8333" y="334.4727"/><text fill="#9C27B0" font-family="Verdana" font-size="12.5" font-weight="bold" lengthAdjust="spacing" textLength="19.7917" x="46.875" y="357.5338">alt</text><text fill="#222222" font-family="Verdana" font-size="12.5" font-weight="bold" lengthAdjust="spacing" textLength="260.4167" x="134.375" y="358.5754">[Idempotency-Key already present]</text><polygon fill="#2196F3" points="503.125,429.1667,492.7083,433.3333,503.125,437.5,498.9583,433.3333" style="stroke:#2196F3;stroke-width:1.0416666666666667;"/><line style="stroke:#2196F3;stroke-width:3.125;stroke-dasharray:2.0,2.0;" x1="496.875" x2="806.25" y1="433.3333" y2="433.3333"/><text fill="#222222" font-family="Verdana" font-size="12.5" font-weight="bold" lengthAdjust="spacing" textLength="8.3333" x="519.7917" y="417.8853">3</text><text fill="#222222" font-family="Verdana" font-size="12.5" lengthAdjust="spacing" textLength="63.5417" x="553.125" y="417.8853">key found</text><line style="stroke:#2196F3;stroke-width:3.125;" x1="491.6667" x2="535.4167" y1="483.3008" y2="483.3008"/><line style="stroke:#2196F3;stroke-width:3.125;" x1="535.4167" x2="535.4167" y1="483.3008" y2="496.8424"/><line style="stroke:#2196F3;stroke-width:3.125;" x1="492.7083" x2="535.4167" y1="496.8424" y2="496.8424"/><polygon fill="#2196F3" points="503.125,492.6758,492.7083,496.8424,503.125,501.0091,498.9583,496.8424" style="stroke:#2196F3;stroke-width:1.0416666666666667;"/><text fill="#222222" font-family="Verdana" font-size="12.5" font-weight="bold" lengthAdjust="spacing" textLength="8.3333" x="509.375" y="467.8528">4</text><text fill="#222222" font-family="Verdana" font-size="12.5" lengthAdjust="spacing" textLength="184.375" x="542.7083" y="467.8528">discard duplicated message</text><path d="M496.875,514.5508 L496.875,580.1758 A4.1667,4.1667 0 0 0 501.0417,584.3424 L692.7083,584.3424 A4.1667,4.1667 0 0 0 696.875,580.1758 L696.875,520.8008 L686.4583,510.3841 L501.0417,510.3841 A4.1667,4.1667 0 0 0 496.875,514.5508 " fill="url(#gmdd93vzwohev2)" filter="url(#fmdd93vzwohev)" style="stroke:#9C27B0;stroke-width:1.0416666666666667;"/><path d="M686.4583,510.3841 L686.4583,518.7174 A2.0833,2.0833 0 0 0 688.5417,520.8008 L696.875,520.8008 L686.4583,510.3841 " fill="url(#gmdd93vzwohev2)" style="stroke:#9C27B0;stroke-width:1.0416666666666667;"/><text fill="#FFFFFF" font-family="Verdana" font-size="12.5" lengthAdjust="spacing" textLength="137.5" x="513.5417" y="537.6119">Duplicated message:</text><text fill="#FFFFFF" font-family="Verdana" font-size="12.5" lengthAdjust="spacing" textLength="120.8333" x="513.5417" y="552.1627">already processed</text><text fill="#FFFFFF" font-family="Verdana" font-size="12.5" lengthAdjust="spacing" textLength="157.2917" x="513.5417" y="566.7135">or already in processing</text><polygon fill="#2196F3" points="171.875,631.0872,161.4583,635.2539,171.875,639.4206,167.7083,635.2539" style="stroke:#2196F3;stroke-width:1.0416666666666667;"/><line style="stroke:#2196F3;stroke-width:3.125;stroke-dasharray:2.0,2.0;" x1="165.625" x2="480.2083" y1="635.2539" y2="635.2539"/><text fill="#222222" font-family="Verdana" font-size="12.5" font-weight="bold" lengthAdjust="spacing" textLength="8.3333" x="188.5417" y="619.8059">5</text><text fill="#222222" font-family="Verdana" font-size="12.5" lengthAdjust="spacing" textLength="77.0833" x="221.875" y="619.8059">409 Conflict</text><line style="stroke:#2196F3;stroke-width:1.0416666666666667;stroke-dasharray:2.0,2.0;" x1="20.8333" x2="1339.5833" y1="644.6289" y2="644.6289"/><text fill="#222222" font-family="Verdana" font-size="12.5" font-weight="bold" lengthAdjust="spacing" textLength="229.1667" x="36.4583" y="666.6484">[Idempotency-Key not present]</text><polygon fill="#2196F3" points="503.125,718.5221,492.7083,722.6888,503.125,726.8555,498.9583,722.6888" style="stroke:#2196F3;stroke-width:1.0416666666666667;"/><line style="stroke:#2196F3;stroke-width:3.125;stroke-dasharray:2.0,2.0;" x1="496.875" x2="806.25" y1="722.6888" y2="722.6888"/><text fill="#222222" font-family="Verdana" font-size="12.5" font-weight="bold" lengthAdjust="spacing" textLength="8.3333" x="519.7917" y="707.2408">6</text><text fill="#222222" font-family="Verdana" font-size="12.5" lengthAdjust="spacing" textLength="89.5833" x="553.125" y="707.2408">key not found</text><polygon fill="#2196F3" points="794.7917,768.4896,805.2083,772.6563,794.7917,776.8229,798.9583,772.6563" style="stroke:#2196F3;stroke-width:1.0416666666666667;"/><line style="stroke:#2196F3;stroke-width:3.125;" x1="491.6667" x2="801.0417" y1="772.6563" y2="772.6563"/><text fill="#222222" font-family="Verdana" font-size="12.5" font-weight="bold" lengthAdjust="spacing" textLength="8.3333" x="509.375" y="757.2083">7</text><text fill="#222222" font-family="Verdana" font-size="12.5" lengthAdjust="spacing" textLength="143.75" x="542.7083" y="757.2083">save Idempotency-Key</text><polygon fill="#2196F3" points="503.125,818.457,492.7083,822.6237,503.125,826.7904,498.9583,822.6237" style="stroke:#2196F3;stroke-width:1.0416666666666667;"/><line style="stroke:#2196F3;stroke-width:3.125;stroke-dasharray:2.0,2.0;" x1="496.875" x2="806.25" y1="822.6237" y2="822.6237"/><text fill="#222222" font-family="Verdana" font-size="12.5" font-weight="bold" lengthAdjust="spacing" textLength="8.3333" x="519.7917" y="807.1757">8</text><text fill="#222222" font-family="Verdana" font-size="12.5" lengthAdjust="spacing" textLength="64.5833" x="553.125" y="807.1757">key saved</text><polygon fill="#2196F3" points="922.9167,868.4245,933.3333,872.5911,922.9167,876.7578,927.0833,872.5911" style="stroke:#2196F3;stroke-width:1.0416666666666667;"/><line style="stroke:#2196F3;stroke-width:3.125;" x1="491.6667" x2="929.1667" y1="872.5911" y2="872.5911"/><text fill="#222222" font-family="Verdana" font-size="12.5" font-weight="bold" lengthAdjust="spacing" textLength="8.3333" x="509.375" y="857.1431">9</text><text fill="#222222" font-family="Verdana" font-size="12.5" lengthAdjust="spacing" textLength="217.7083" x="542.7083" y="857.1431">findRtpByOperationDispatcherKey</text><path d="M35.4167,888.2161 L118.75,888.2161 L118.75,915.2669 L108.3333,925.6836 L31.25,925.6836 L31.25,892.3828 A4.1667,4.1667 0 0 1 35.4167,888.2161 " fill="#FFFFFF" style="stroke:#666666;stroke-width:1.0416666666666667;"/><rect fill="none" height="1128.3854" rx="4.1667" ry="4.1667" style="stroke:#2196F3;stroke-width:1.0416666666666667;" width="1297.9167" x="31.25" y="888.2161"/><text fill="#9C27B0" font-family="Verdana" font-size="12.5" font-weight="bold" lengthAdjust="spacing" textLength="19.7917" x="57.2917" y="911.2773">alt</text><text fill="#222222" font-family="Verdana" font-size="12.5" font-weight="bold" lengthAdjust="spacing" textLength="87.5" x="144.7917" y="912.3189">[RTP Found]</text><polygon fill="#2196F3" points="503.125,982.9102,492.7083,987.0768,503.125,991.2435,498.9583,987.0768" style="stroke:#2196F3;stroke-width:1.0416666666666667;"/><line style="stroke:#2196F3;stroke-width:3.125;stroke-dasharray:2.0,2.0;" x1="496.875" x2="939.5833" y1="987.0768" y2="987.0768"/><text fill="#222222" font-family="Verdana" font-size="12.5" font-weight="bold" lengthAdjust="spacing" textLength="16.6667" x="519.7917" y="971.6288">10</text><text fill="#222222" font-family="Verdana" font-size="12.5" lengthAdjust="spacing" textLength="68.75" x="561.4583" y="971.6288">RTP Found</text><line style="stroke:#2196F3;stroke-width:3.125;" x1="491.6667" x2="535.4167" y1="1037.0443" y2="1037.0443"/><line style="stroke:#2196F3;stroke-width:3.125;" x1="535.4167" x2="535.4167" y1="1037.0443" y2="1050.5859"/><line style="stroke:#2196F3;stroke-width:3.125;" x1="492.7083" x2="535.4167" y1="1050.5859" y2="1050.5859"/><polygon fill="#2196F3" points="503.125,1046.4193,492.7083,1050.5859,503.125,1054.7526,498.9583,1050.5859" style="stroke:#2196F3;stroke-width:1.0416666666666667;"/><text fill="#222222" font-family="Verdana" font-size="12.5" font-weight="bold" lengthAdjust="spacing" textLength="16.6667" x="509.375" y="1021.5963">11</text><text fill="#222222" font-family="Verdana" font-size="12.5" lengthAdjust="spacing" textLength="125" x="551.0417" y="1021.5963">validate RTP status</text><path d="M496.875,1068.2943 L496.875,1104.7526 A4.1667,4.1667 0 0 0 501.0417,1108.9193 L728.125,1108.9193 A4.1667,4.1667 0 0 0 732.2917,1104.7526 L732.2917,1074.5443 L721.875,1064.1276 L501.0417,1064.1276 A4.1667,4.1667 0 0 0 496.875,1068.2943 " fill="url(#gmdd93vzwohev2)" filter="url(#fmdd93vzwohev)" style="stroke:#9C27B0;stroke-width:1.0416666666666667;"/><path d="M721.875,1064.1276 L721.875,1072.4609 A2.0833,2.0833 0 0 0 723.9583,1074.5443 L732.2917,1074.5443 L721.875,1064.1276 " fill="url(#gmdd93vzwohev2)" style="stroke:#9C27B0;stroke-width:1.0416666666666667;"/><text fill="#FFFFFF" font-family="Verdana" font-size="12.5" lengthAdjust="spacing" textLength="192.7083" x="513.5417" y="1091.3554">Cancellation request initiated</text><polygon fill="#2196F3" points="1216.6667,1170.2799,1227.0833,1174.4466,1216.6667,1178.6133,1220.8333,1174.4466" style="stroke:#2196F3;stroke-width:1.0416666666666667;"/><line style="stroke:#2196F3;stroke-width:3.125;" x1="491.6667" x2="1222.9167" y1="1174.4466" y2="1174.4466"/><text fill="#222222" font-family="Verdana" font-size="12.5" font-weight="bold" lengthAdjust="spacing" textLength="16.6667" x="509.375" y="1151.7232">12</text><text fill="#222222" font-family="Verdana" font-size="12.5" lengthAdjust="spacing" textLength="171.875" x="551.0417" y="1144.4478">Send cancellation request</text><text fill="#222222" font-family="Verdana" font-size="12.5" lengthAdjust="spacing" textLength="655.2083" x="551.0417" y="1158.9986">POST /sepa-request-to-pay-requests/{sepaRequestToPayRequestResourceId}/cancellation-requests</text><path d="M1093.75,1192.1549 L1093.75,1228.6133 A4.1667,4.1667 0 0 0 1097.9167,1232.7799 L1216.6667,1232.7799 A4.1667,4.1667 0 0 0 1220.8333,1228.6133 L1220.8333,1198.4049 L1210.4167,1187.9883 L1097.9167,1187.9883 A4.1667,4.1667 0 0 0 1093.75,1192.1549 " fill="url(#gmdd93vzwohev2)" filter="url(#fmdd93vzwohev)" style="stroke:#9C27B0;stroke-width:1.0416666666666667;"/><path d="M1210.4167,1187.9883 L1210.4167,1196.3216 A2.0833,2.0833 0 0 0 1212.5,1198.4049 L1220.8333,1198.4049 L1210.4167,1187.9883 " fill="url(#gmdd93vzwohev2)" style="stroke:#9C27B0;stroke-width:1.0416666666666667;"/><text fill="#FFFFFF" font-family="Verdana" font-size="12.5" lengthAdjust="spacing" textLength="84.375" x="1110.4167" y="1215.2161">Retry if failed</text><path d="M45.8333,1249.4141 L129.1667,1249.4141 L129.1667,1276.4648 L118.75,1286.8815 L41.6667,1286.8815 L41.6667,1253.5807 A4.1667,4.1667 0 0 1 45.8333,1249.4141 " fill="#FFFFFF" style="stroke:#666666;stroke-width:1.0416666666666667;"/><rect fill="none" height="622.4935" rx="4.1667" ry="4.1667" style="stroke:#2196F3;stroke-width:1.0416666666666667;" width="1277.0833" x="41.6667" y="1249.4141"/><text fill="#9C27B0" font-family="Verdana" font-size="12.5" font-weight="bold" lengthAdjust="spacing" textLength="19.7917" x="67.7083" y="1272.4752">alt</text><text fill="#222222" font-family="Verdana" font-size="12.5" font-weight="bold" lengthAdjust="spacing" textLength="119.7917" x="155.2083" y="1273.5168">[Async flow EPC]</text><polygon fill="#2196F3" points="503.125,1344.1081,492.7083,1348.2747,503.125,1352.4414,498.9583,1348.2747" style="stroke:#2196F3;stroke-width:1.0416666666666667;"/><line style="stroke:#2196F3;stroke-width:3.125;stroke-dasharray:2.0,2.0;" x1="496.875" x2="1228.125" y1="1348.2747" y2="1348.2747"/><text fill="#222222" font-family="Verdana" font-size="12.5" font-weight="bold" lengthAdjust="spacing" textLength="16.6667" x="519.7917" y="1332.8267">13</text><text fill="#222222" font-family="Verdana" font-size="12.5" lengthAdjust="spacing" textLength="95.8333" x="561.4583" y="1332.8267">OK empty body</text><line style="stroke:#2196F3;stroke-width:3.125;" x1="491.6667" x2="535.4167" y1="1398.2422" y2="1398.2422"/><line style="stroke:#2196F3;stroke-width:3.125;" x1="535.4167" x2="535.4167" y1="1398.2422" y2="1411.7839"/><line style="stroke:#2196F3;stroke-width:3.125;" x1="492.7083" x2="535.4167" y1="1411.7839" y2="1411.7839"/><polygon fill="#2196F3" points="503.125,1407.6172,492.7083,1411.7839,503.125,1415.9505,498.9583,1411.7839" style="stroke:#2196F3;stroke-width:1.0416666666666667;"/><text fill="#222222" font-family="Verdana" font-size="12.5" font-weight="bold" lengthAdjust="spacing" textLength="16.6667" x="509.375" y="1382.7942">14</text><text fill="#222222" font-family="Verdana" font-size="12.5" lengthAdjust="spacing" textLength="198.9583" x="551.0417" y="1382.7942">update RTP status (RFC_SENT)</text><polygon fill="#2196F3" points="171.875,1457.5846,161.4583,1461.7513,171.875,1465.918,167.7083,1461.7513" style="stroke:#2196F3;stroke-width:1.0416666666666667;"/><line style="stroke:#2196F3;stroke-width:3.125;stroke-dasharray:2.0,2.0;" x1="165.625" x2="480.2083" y1="1461.7513" y2="1461.7513"/><text fill="#222222" font-family="Verdana" font-size="12.5" font-weight="bold" lengthAdjust="spacing" textLength="16.6667" x="188.5417" y="1446.3033">15</text><text fill="#222222" font-family="Verdana" font-size="12.5" lengthAdjust="spacing" textLength="103.125" x="230.2083" y="1446.3033">204 No Content</text><line style="stroke:#2196F3;stroke-width:1.0416666666666667;stroke-dasharray:2.0,2.0;" x1="41.6667" x2="1318.75" y1="1471.1263" y2="1471.1263"/><text fill="#222222" font-family="Verdana" font-size="12.5" font-weight="bold" lengthAdjust="spacing" textLength="111.4583" x="57.2917" y="1493.1458">[Sync flow EPC]</text><polygon fill="#2196F3" points="503.125,1545.0195,492.7083,1549.1862,503.125,1553.3529,498.9583,1549.1862" style="stroke:#2196F3;stroke-width:1.0416666666666667;"/><line style="stroke:#2196F3;stroke-width:3.125;stroke-dasharray:2.0,2.0;" x1="496.875" x2="1228.125" y1="1549.1862" y2="1549.1862"/><text fill="#222222" font-family="Verdana" font-size="12.5" font-weight="bold" lengthAdjust="spacing" textLength="16.6667" x="519.7917" y="1533.7382">16</text><text fill="#222222" font-family="Verdana" font-size="12.5" lengthAdjust="spacing" textLength="71.875" x="561.4583" y="1533.7382">OK payload</text><line style="stroke:#2196F3;stroke-width:3.125;" x1="491.6667" x2="535.4167" y1="1599.1536" y2="1599.1536"/><line style="stroke:#2196F3;stroke-width:3.125;" x1="535.4167" x2="535.4167" y1="1599.1536" y2="1612.6953"/><line style="stroke:#2196F3;stroke-width:3.125;" x1="492.7083" x2="535.4167" y1="1612.6953" y2="1612.6953"/><polygon fill="#2196F3" points="503.125,1608.5286,492.7083,1612.6953,503.125,1616.862,498.9583,1612.6953" style="stroke:#2196F3;stroke-width:1.0416666666666667;"/><text fill="#222222" font-family="Verdana" font-size="12.5" font-weight="bold" lengthAdjust="spacing" textLength="16.6667" x="509.375" y="1583.7056">17</text><text fill="#222222" font-family="Verdana" font-size="12.5" lengthAdjust="spacing" textLength="208.3333" x="551.0417" y="1583.7056">update RTP status (CANCELLED)</text><polygon fill="#2196F3" points="171.875,1658.4961,161.4583,1662.6628,171.875,1666.8294,167.7083,1662.6628" style="stroke:#2196F3;stroke-width:1.0416666666666667;"/><line style="stroke:#2196F3;stroke-width:3.125;stroke-dasharray:2.0,2.0;" x1="165.625" x2="480.2083" y1="1662.6628" y2="1662.6628"/><text fill="#222222" font-family="Verdana" font-size="12.5" font-weight="bold" lengthAdjust="spacing" textLength="16.6667" x="188.5417" y="1647.2148">18</text><text fill="#222222" font-family="Verdana" font-size="12.5" lengthAdjust="spacing" textLength="45.8333" x="230.2083" y="1647.2148">200 OK</text><line style="stroke:#2196F3;stroke-width:1.0416666666666667;stroke-dasharray:2.0,2.0;" x1="41.6667" x2="1318.75" y1="1672.0378" y2="1672.0378"/><text fill="#222222" font-family="Verdana" font-size="12.5" font-weight="bold" lengthAdjust="spacing" textLength="162.5" x="57.2917" y="1694.0572">[Error Sync Response]</text><polygon fill="#2196F3" points="503.125,1745.931,492.7083,1750.0977,503.125,1754.2643,498.9583,1750.0977" style="stroke:#2196F3;stroke-width:1.0416666666666667;"/><line style="stroke:#2196F3;stroke-width:3.125;stroke-dasharray:2.0,2.0;" x1="496.875" x2="1228.125" y1="1750.0977" y2="1750.0977"/><text fill="#222222" font-family="Verdana" font-size="12.5" font-weight="bold" lengthAdjust="spacing" textLength="16.6667" x="519.7917" y="1734.6497">19</text><text fill="#222222" font-family="Verdana" font-size="12.5" lengthAdjust="spacing" textLength="32.2917" x="561.4583" y="1734.6497">Error</text><line style="stroke:#2196F3;stroke-width:3.125;" x1="491.6667" x2="535.4167" y1="1800.0651" y2="1800.0651"/><line style="stroke:#2196F3;stroke-width:3.125;" x1="535.4167" x2="535.4167" y1="1800.0651" y2="1813.6068"/><line style="stroke:#2196F3;stroke-width:3.125;" x1="492.7083" x2="535.4167" y1="1813.6068" y2="1813.6068"/><polygon fill="#2196F3" points="503.125,1809.4401,492.7083,1813.6068,503.125,1817.7734,498.9583,1813.6068" style="stroke:#2196F3;stroke-width:1.0416666666666667;"/><text fill="#222222" font-family="Verdana" font-size="12.5" font-weight="bold" lengthAdjust="spacing" textLength="16.6667" x="509.375" y="1784.6171">20</text><text fill="#222222" font-family="Verdana" font-size="12.5" lengthAdjust="spacing" textLength="233.3333" x="551.0417" y="1784.6171">update RTP status (ERROR_CANCEL)</text><polygon fill="#2196F3" points="171.875,1859.4076,161.4583,1863.5742,171.875,1867.7409,167.7083,1863.5742" style="stroke:#2196F3;stroke-width:1.0416666666666667;"/><line style="stroke:#2196F3;stroke-width:3.125;stroke-dasharray:2.0,2.0;" x1="165.625" x2="480.2083" y1="1863.5742" y2="1863.5742"/><text fill="#222222" font-family="Verdana" font-size="12.5" font-weight="bold" lengthAdjust="spacing" textLength="16.6667" x="188.5417" y="1848.1262">21</text><text fill="#222222" font-family="Verdana" font-size="12.5" lengthAdjust="spacing" textLength="128.125" x="230.2083" y="1848.1262">4xx / business error</text><line style="stroke:#2196F3;stroke-width:1.0416666666666667;stroke-dasharray:2.0,2.0;" x1="31.25" x2="1329.1667" y1="1880.2409" y2="1880.2409"/><text fill="#222222" font-family="Verdana" font-size="12.5" font-weight="bold" lengthAdjust="spacing" textLength="117.7083" x="46.875" y="1902.2603">[RTP Not Found]</text><polygon fill="#2196F3" points="503.125,1954.1341,492.7083,1958.3008,503.125,1962.4674,498.9583,1958.3008" style="stroke:#2196F3;stroke-width:1.0416666666666667;"/><line style="stroke:#2196F3;stroke-width:3.125;stroke-dasharray:2.0,2.0;" x1="496.875" x2="939.5833" y1="1958.3008" y2="1958.3008"/><text fill="#222222" font-family="Verdana" font-size="12.5" font-weight="bold" lengthAdjust="spacing" textLength="16.6667" x="519.7917" y="1942.8528">22</text><text fill="#222222" font-family="Verdana" font-size="12.5" lengthAdjust="spacing" textLength="63.5417" x="561.4583" y="1942.8528">not found</text><polygon fill="#2196F3" points="171.875,2004.1016,161.4583,2008.2682,171.875,2012.4349,167.7083,2008.2682" style="stroke:#2196F3;stroke-width:1.0416666666666667;"/><line style="stroke:#2196F3;stroke-width:3.125;stroke-dasharray:2.0,2.0;" x1="165.625" x2="480.2083" y1="2008.2682" y2="2008.2682"/><text fill="#222222" font-family="Verdana" font-size="12.5" font-weight="bold" lengthAdjust="spacing" textLength="16.6667" x="188.5417" y="1992.8202">23</text><text fill="#222222" font-family="Verdana" font-size="12.5" lengthAdjust="spacing" textLength="96.875" x="230.2083" y="1992.8202">404 Not Found</text><!--SRC=[bLJVRzCm47xtNt7i1P3eLj1Uo0FIQ39HiRLLql4q2NdnPREMsi5s1X7YV-ViD6tIbhBv9R7lrtTttzrhM9HSkPlhAuWblpTy1OKsa2uNCE4gnxBaJce55uifUmrBwKgCu4R9GgBOryhmHurqxtoHoJSqbaGHl3yTduuPU-KUS8MmuWwDv8mvxp9uYh54Xt1Pwf-CLTmucSkAiC79TJQQp6VPpNMIdW2tq5tsjB9a5gzrsbyckEDtt2ASf2YalLLlfW9NbNO4iu6ls43cjC6tmIPDucdMDrakijOP_Gs3nTaYIEZB6A-TLlNg3WrZ7JOOVLfZY21Ehf9b4f8qlaBMtQelo0ML9e8UdX7XUGTfgp8Ljsh1cr9p4GNJl5zf3vBntCadAcINB6k_FdH89OBy0VF7tH1RkpPXnaktgmEyD8ImWSgWHUKOq0dgCEfbzaYQXQwL27A1EvxzunPJPqHzoBaH8Eggb3bf2rYXjVmUWu4Y563a_OC3NNIfGJZndaMqbcpXwfmaADRlnELE95KdbUe-Y56946s0au1sFOpWVFmH9beL5DKnXYMnOhTGvE0PHV9QsqBjzSdofptFHxnvzN-KVBVcn9m82gb4wghFpRn24mWKIrjnH_GmNQGjcJpPsoVYXMVUvGPuSEwV-eZsLNgejjuEa-69br84-EJ5Ekvgkz4-mWH_1gjdFLZKPUcaPyX6STFb0oXeV2FQMgIH7t160pZFbd1ciUAZzTl8wL75c-vgptvxwNfcbvecTlsVejMroN4g_fprdMyiDt0sjGhBP91yYKN8tKksYQVe3F6vW8BBycYcleCNjb4v5BHM8LbCUcx0knrqSluLY8AkWJijce7cVkFgQgTjy2Qzd7mdyVBjGTF1O7qOdyDC-zboVd2sAVWHoru2k6ftvClHJYvca-JgAecV1NTCiNPW9iRGUWbWgTcLLXQFWWtwByUPfEay_TwYVGRKyr-_u0pkQjfojEe01q698UpGb6wO5nBpqMUqiFupzyETTcZkZmCD5EX7yUW2mhwVTkh_0W00]--></g></svg>