<?xml version="1.0" encoding="us-ascii" standalone="no"?><svg xmlns="http://www.w3.org/2000/svg" xmlns:xlink="http://www.w3.org/1999/xlink" contentStyleType="text/css" height="1282.2917px" preserveAspectRatio="none" style="width:1069px;height:1282px;" version="1.1" viewBox="0 0 1069 1282" width="1069.7917px" zoomAndPan="magnify"><defs><linearGradient id="g2yb282b17t0h0" x1="50%" x2="50%" y1="0%" y2="100%"><stop offset="0%" stop-color="#FFFFFF"/><stop offset="100%" stop-color="#FFFFFF"/></linearGradient><filter height="300%" id="f2yb282b17t0h" width="300%" x="-1" y="-1"><feGaussianBlur result="blurOut" stdDeviation="2.0833333333333335"/><feColorMatrix in="blurOut" result="blurOut2" type="matrix" values="0 0 0 0 0 0 0 0 0 0 0 0 0 0 0 0 0 0 .4 0"/><feOffset dx="4.166666666666667" dy="4.166666666666667" in="blurOut2" result="blurOut3"/><feBlend in="SourceGraphic" in2="blurOut3" mode="normal"/></filter><linearGradient id="g2yb282b17t0h1" x1="50%" x2="50%" y1="0%" y2="100%"><stop offset="0%" stop-color="#4DABF5"/><stop offset="100%" stop-color="#2196F3"/></linearGradient><linearGradient id="g2yb282b17t0h2" x1="50%" x2="50%" y1="0%" y2="100%"><stop offset="0%" stop-color="#B052C0"/><stop offset="100%" stop-color="#9C27B0"/></linearGradient></defs><g><rect fill="url(#g2yb282b17t0h0)" height="57.5846" id="_title" rx="4.1667" ry="4.1667" style="stroke:#CCCCCC;stroke-width:1.0416666666666667;" width="228.125" x="421.875" y="20.8333"/><text fill="#2196F3" font-family="Verdana" font-size="20.8333" font-weight="bold" lengthAdjust="spacing" textLength="194.7917" x="438.5417" y="56.838">RTP Delete Flow</text><rect fill="#FFFFFF" filter="url(#f2yb282b17t0h)" height="942.0573" style="stroke:#CCCCCC;stroke-width:1.0416666666666667;" width="10.4167" x="212.5" y="225.2279"/><rect fill="#FFFFFF" filter="url(#f2yb282b17t0h)" height="114.4857" style="stroke:#CCCCCC;stroke-width:1.0416666666666667;" width="10.4167" x="533.3333" y="275.1953"/><rect fill="#FFFFFF" filter="url(#f2yb282b17t0h)" height="531.9336" style="stroke:#CCCCCC;stroke-width:1.0416666666666667;" width="10.4167" x="952.0833" y="517.7083"/><rect fill="url(#g2yb282b17t0h0)" filter="url(#f2yb282b17t0h)" height="869.1732" rx="4.1667" ry="4.1667" style="stroke:#2196F3;stroke-width:1.0416666666666667;" width="953.6458" x="98.4375" y="290.8203"/><rect fill="url(#g2yb282b17t0h0)" filter="url(#f2yb282b17t0h)" height="472.5911" rx="4.1667" ry="4.1667" style="stroke:#2196F3;stroke-width:1.0416666666666667;" width="932.8125" x="108.8542" y="592.6758"/><path d="M108.8542,763.3789 L1041.6667,763.3789 L1041.6667,910.1563 A4.1667,4.1667 0 0 1 1037.5,914.3229 L113.0208,914.3229 A4.1667,4.1667 0 0 1 108.8542,910.1563 L108.8542,763.3789 " fill="url(#g2yb282b17t0h0)" style="stroke:none;stroke-width:1.0416666666666667;"/><path d="M108.8542,914.3229 L1041.6667,914.3229 L1041.6667,1061.1003 A4.1667,4.1667 0 0 1 1037.5,1065.2669 L113.0208,1065.2669 A4.1667,4.1667 0 0 1 108.8542,1061.1003 L108.8542,914.3229 " fill="url(#g2yb282b17t0h0)" style="stroke:none;stroke-width:1.0416666666666667;"/><path d="M98.4375,1072.5586 L1052.0833,1072.5586 L1052.0833,1155.8268 A4.1667,4.1667 0 0 1 1047.9167,1159.9935 L102.6042,1159.9935 A4.1667,4.1667 0 0 1 98.4375,1155.8268 L98.4375,1072.5586 " fill="url(#g2yb282b17t0h0)" style="stroke:none;stroke-width:1.0416666666666667;"/><line style="stroke:#CCCCCC;stroke-width:1.0416666666666667;stroke-dasharray:5.0,5.0;" x1="217.1875" x2="217.1875" y1="173.1771" y2="1177.7018"/><line style="stroke:#CCCCCC;stroke-width:1.0416666666666667;stroke-dasharray:5.0,5.0;" x1="538.0208" x2="538.0208" y1="173.1771" y2="1177.7018"/><line style="stroke:#CCCCCC;stroke-width:1.0416666666666667;stroke-dasharray:5.0,5.0;" x1="957.2917" x2="957.2917" y1="173.1771" y2="1177.7018"/><rect fill="url(#g2yb282b17t0h1)" filter="url(#f2yb282b17t0h)" height="49.9674" rx="4.1667" ry="4.1667" style="stroke:#2196F3;stroke-width:1.0416666666666667;" width="110.4167" x="160.9375" y="119.043"/><text fill="#FFFFFF" font-family="Verdana" font-size="12.5" lengthAdjust="spacing" textLength="75" x="178.6458" y="148.3541">MS-SENDER</text><rect fill="url(#g2yb282b17t0h1)" filter="url(#f2yb282b17t0h)" height="49.9674" rx="4.1667" ry="4.1667" style="stroke:#2196F3;stroke-width:1.0416666666666667;" width="110.4167" x="160.9375" y="1176.6602"/><text fill="#FFFFFF" font-family="Verdana" font-size="12.5" lengthAdjust="spacing" textLength="75" x="178.6458" y="1205.9713">MS-SENDER</text><text fill="#222222" font-family="Verdana" font-size="12.5" lengthAdjust="spacing" textLength="32.2917" x="519.2708" y="159.8124">RTPS</text><path d="M519.7917,100.293 C519.7917,89.8763 538.5417,89.8763 538.5417,89.8763 C538.5417,89.8763 557.2917,89.8763 557.2917,100.293 L557.2917,127.3763 C557.2917,137.793 538.5417,137.793 538.5417,137.793 C538.5417,137.793 519.7917,137.793 519.7917,127.3763 L519.7917,100.293 " fill="url(#g2yb282b17t0h1)" filter="url(#f2yb282b17t0h)" style="stroke:#2196F3;stroke-width:1.5625;"/><path d="M519.7917,100.293 C519.7917,110.7096 538.5417,110.7096 538.5417,110.7096 C538.5417,110.7096 557.2917,110.7096 557.2917,100.293 " fill="none" style="stroke:#2196F3;stroke-width:1.5625;"/><text fill="#222222" font-family="Verdana" font-size="12.5" lengthAdjust="spacing" textLength="32.2917" x="519.2708" y="1198.6796">RTPS</text><path d="M519.7917,1222.4609 C519.7917,1212.0443 538.5417,1212.0443 538.5417,1212.0443 C538.5417,1212.0443 557.2917,1212.0443 557.2917,1222.4609 L557.2917,1249.5443 C557.2917,1259.9609 538.5417,1259.9609 538.5417,1259.9609 C538.5417,1259.9609 519.7917,1259.9609 519.7917,1249.5443 L519.7917,1222.4609 " fill="url(#g2yb282b17t0h1)" filter="url(#f2yb282b17t0h)" style="stroke:#2196F3;stroke-width:1.5625;"/><path d="M519.7917,1222.4609 C519.7917,1232.8776 538.5417,1232.8776 538.5417,1232.8776 C538.5417,1232.8776 557.2917,1232.8776 557.2917,1222.4609 " fill="none" style="stroke:#2196F3;stroke-width:1.5625;"/><rect fill="url(#g2yb282b17t0h1)" filter="url(#f2yb282b17t0h)" height="49.9674" rx="4.1667" ry="4.1667" style="stroke:#2196F3;stroke-width:1.0416666666666667;" width="61.4583" x="925" y="119.043"/><text fill="#FFFFFF" font-family="Verdana" font-size="12.5" lengthAdjust="spacing" textLength="26.0417" x="942.7083" y="148.3541">DSP</text><rect fill="url(#g2yb282b17t0h1)" filter="url(#f2yb282b17t0h)" height="49.9674" rx="4.1667" ry="4.1667" style="stroke:#2196F3;stroke-width:1.0416666666666667;" width="61.4583" x="925" y="1176.6602"/><text fill="#FFFFFF" font-family="Verdana" font-size="12.5" lengthAdjust="spacing" textLength="26.0417" x="942.7083" y="1205.9713">DSP</text><rect fill="#FFFFFF" filter="url(#f2yb282b17t0h)" height="942.0573" style="stroke:#CCCCCC;stroke-width:1.0416666666666667;" width="10.4167" x="212.5" y="225.2279"/><rect fill="#FFFFFF" filter="url(#f2yb282b17t0h)" height="114.4857" style="stroke:#CCCCCC;stroke-width:1.0416666666666667;" width="10.4167" x="533.3333" y="275.1953"/><rect fill="#FFFFFF" filter="url(#f2yb282b17t0h)" height="531.9336" style="stroke:#CCCCCC;stroke-width:1.0416666666666667;" width="10.4167" x="952.0833" y="517.7083"/><ellipse cx="18.2292" cy="224.4466" fill="none" rx="4.1667" ry="4.1667" style="stroke:#2196F3;stroke-width:1.5625;"/><polygon fill="#2196F3" points="200,221.0612,210.4167,225.2279,200,229.3945,204.1667,225.2279" style="stroke:#2196F3;stroke-width:1.0416666666666667;"/><line style="stroke:#2196F3;stroke-width:3.125;" x1="22.9167" x2="206.25" y1="225.2279" y2="225.2279"/><text fill="#222222" font-family="Verdana" font-size="12.5" font-weight="bold" lengthAdjust="spacing" textLength="8.3333" x="36.4583" y="209.7799">1</text><text fill="#222222" font-family="Verdana" font-size="12.5" lengthAdjust="spacing" textLength="119.7917" x="69.7917" y="209.7799">GDP DELETE event</text><polygon fill="#2196F3" points="520.8333,271.0286,531.25,275.1953,520.8333,279.362,525,275.1953" style="stroke:#2196F3;stroke-width:1.0416666666666667;"/><line style="stroke:#2196F3;stroke-width:3.125;" x1="222.9167" x2="527.0833" y1="275.1953" y2="275.1953"/><text fill="#222222" font-family="Verdana" font-size="12.5" font-weight="bold" lengthAdjust="spacing" textLength="8.3333" x="240.625" y="259.7473">2</text><text fill="#222222" font-family="Verdana" font-size="12.5" lengthAdjust="spacing" textLength="217.7083" x="273.9583" y="259.7473">findRtpByOperationDispatcherKey</text><path d="M102.6042,290.8203 L185.9375,290.8203 L185.9375,317.8711 L175.5208,328.2878 L98.4375,328.2878 L98.4375,294.987 A4.1667,4.1667 0 0 1 102.6042,290.8203 " fill="#FFFFFF" style="stroke:#666666;stroke-width:1.0416666666666667;"/><rect fill="none" height="869.1732" rx="4.1667" ry="4.1667" style="stroke:#2196F3;stroke-width:1.0416666666666667;" width="953.6458" x="98.4375" y="290.8203"/><text fill="#9C27B0" font-family="Verdana" font-size="12.5" font-weight="bold" lengthAdjust="spacing" textLength="19.7917" x="124.4792" y="313.8814">alt</text><text fill="#222222" font-family="Verdana" font-size="12.5" font-weight="bold" lengthAdjust="spacing" textLength="87.5" x="211.9792" y="314.9231">[RTP Found]</text><polygon fill="#2196F3" points="234.375,385.5143,223.9583,389.681,234.375,393.8477,230.2083,389.681" style="stroke:#2196F3;stroke-width:1.0416666666666667;"/><line style="stroke:#2196F3;stroke-width:3.125;stroke-dasharray:2.0,2.0;" x1="228.125" x2="537.5" y1="389.681" y2="389.681"/><text fill="#222222" font-family="Verdana" font-size="12.5" font-weight="bold" lengthAdjust="spacing" textLength="8.3333" x="251.0417" y="374.233">3</text><text fill="#222222" font-family="Verdana" font-size="12.5" lengthAdjust="spacing" textLength="68.75" x="284.375" y="374.233">RTP Found</text><line style="stroke:#2196F3;stroke-width:3.125;" x1="222.9167" x2="266.6667" y1="439.6484" y2="439.6484"/><line style="stroke:#2196F3;stroke-width:3.125;" x1="266.6667" x2="266.6667" y1="439.6484" y2="453.1901"/><line style="stroke:#2196F3;stroke-width:3.125;" x1="223.9583" x2="266.6667" y1="453.1901" y2="453.1901"/><polygon fill="#2196F3" points="234.375,449.0234,223.9583,453.1901,234.375,457.3568,230.2083,453.1901" style="stroke:#2196F3;stroke-width:1.0416666666666667;"/><text fill="#222222" font-family="Verdana" font-size="12.5" font-weight="bold" lengthAdjust="spacing" textLength="8.3333" x="240.625" y="424.2004">4</text><text fill="#222222" font-family="Verdana" font-size="12.5" lengthAdjust="spacing" textLength="125" x="273.9583" y="424.2004">validate RTP status</text><path d="M421.875,409.4727 L421.875,445.931 A4.1667,4.1667 0 0 0 426.0417,450.0977 L653.125,450.0977 A4.1667,4.1667 0 0 0 657.2917,445.931 L657.2917,415.7227 L646.875,405.306 L426.0417,405.306 A4.1667,4.1667 0 0 0 421.875,409.4727 " fill="url(#g2yb282b17t0h2)" filter="url(#f2yb282b17t0h)" style="stroke:#9C27B0;stroke-width:1.0416666666666667;"/><path d="M646.875,405.306 L646.875,413.6393 A2.0833,2.0833 0 0 0 648.9583,415.7227 L657.2917,415.7227 L646.875,405.306 " fill="url(#g2yb282b17t0h2)" style="stroke:#9C27B0;stroke-width:1.0416666666666667;"/><text fill="#FFFFFF" font-family="Verdana" font-size="12.5" lengthAdjust="spacing" textLength="192.7083" x="438.5417" y="432.5338">Cancellation request initiated</text><polygon fill="#2196F3" points="939.5833,513.5417,950,517.7083,939.5833,521.875,943.75,517.7083" style="stroke:#2196F3;stroke-width:1.0416666666666667;"/><line style="stroke:#2196F3;stroke-width:3.125;" x1="222.9167" x2="945.8333" y1="517.7083" y2="517.7083"/><text fill="#222222" font-family="Verdana" font-size="12.5" font-weight="bold" lengthAdjust="spacing" textLength="8.3333" x="240.625" y="494.9849">5</text><text fill="#222222" font-family="Verdana" font-size="12.5" lengthAdjust="spacing" textLength="188.5417" x="273.9583" y="487.7096">Send request of cancellation</text><text fill="#222222" font-family="Verdana" font-size="12.5" lengthAdjust="spacing" textLength="655.2083" x="273.9583" y="502.2603">POST /sepa-request-to-pay-requests/{sepaRequestToPayRequestResourceId}/cancellation-requests</text><path d="M816.6667,535.4167 L816.6667,571.875 A4.1667,4.1667 0 0 0 820.8333,576.0417 L939.5833,576.0417 A4.1667,4.1667 0 0 0 943.75,571.875 L943.75,541.6667 L933.3333,531.25 L820.8333,531.25 A4.1667,4.1667 0 0 0 816.6667,535.4167 " fill="url(#g2yb282b17t0h2)" filter="url(#f2yb282b17t0h)" style="stroke:#9C27B0;stroke-width:1.0416666666666667;"/><path d="M933.3333,531.25 L933.3333,539.5833 A2.0833,2.0833 0 0 0 935.4167,541.6667 L943.75,541.6667 L933.3333,531.25 " fill="url(#g2yb282b17t0h2)" style="stroke:#9C27B0;stroke-width:1.0416666666666667;"/><text fill="#FFFFFF" font-family="Verdana" font-size="12.5" lengthAdjust="spacing" textLength="84.375" x="833.3333" y="558.4778">Retry if failed</text><path d="M113.0208,592.6758 L196.3542,592.6758 L196.3542,619.7266 L185.9375,630.1432 L108.8542,630.1432 L108.8542,596.8424 A4.1667,4.1667 0 0 1 113.0208,592.6758 " fill="#FFFFFF" style="stroke:#666666;stroke-width:1.0416666666666667;"/><rect fill="none" height="472.5911" rx="4.1667" ry="4.1667" style="stroke:#2196F3;stroke-width:1.0416666666666667;" width="932.8125" x="108.8542" y="592.6758"/><text fill="#9C27B0" font-family="Verdana" font-size="12.5" font-weight="bold" lengthAdjust="spacing" textLength="19.7917" x="134.8958" y="615.7369">alt</text><text fill="#222222" font-family="Verdana" font-size="12.5" font-weight="bold" lengthAdjust="spacing" textLength="119.7917" x="222.3958" y="616.7786">[Async flow EPC]</text><polygon fill="#2196F3" points="234.375,687.3698,223.9583,691.5365,234.375,695.7031,230.2083,691.5365" style="stroke:#2196F3;stroke-width:1.0416666666666667;"/><line style="stroke:#2196F3;stroke-width:3.125;stroke-dasharray:2.0,2.0;" x1="228.125" x2="951.0417" y1="691.5365" y2="691.5365"/><text fill="#222222" font-family="Verdana" font-size="12.5" font-weight="bold" lengthAdjust="spacing" textLength="8.3333" x="251.0417" y="676.0885">6</text><text fill="#222222" font-family="Verdana" font-size="12.5" lengthAdjust="spacing" textLength="95.8333" x="284.375" y="676.0885">OK empty Body</text><line style="stroke:#2196F3;stroke-width:3.125;" x1="222.9167" x2="266.6667" y1="741.5039" y2="741.5039"/><line style="stroke:#2196F3;stroke-width:3.125;" x1="266.6667" x2="266.6667" y1="741.5039" y2="755.0456"/><line style="stroke:#2196F3;stroke-width:3.125;" x1="223.9583" x2="266.6667" y1="755.0456" y2="755.0456"/><polygon fill="#2196F3" points="234.375,750.8789,223.9583,755.0456,234.375,759.2122,230.2083,755.0456" style="stroke:#2196F3;stroke-width:1.0416666666666667;"/><text fill="#222222" font-family="Verdana" font-size="12.5" font-weight="bold" lengthAdjust="spacing" textLength="8.3333" x="240.625" y="726.0559">7</text><text fill="#222222" font-family="Verdana" font-size="12.5" lengthAdjust="spacing" textLength="198.9583" x="273.9583" y="726.0559">update RTP status (RFC_SENT)</text><line style="stroke:#2196F3;stroke-width:1.0416666666666667;stroke-dasharray:2.0,2.0;" x1="108.8542" x2="1041.6667" y1="764.4206" y2="764.4206"/><text fill="#222222" font-family="Verdana" font-size="12.5" font-weight="bold" lengthAdjust="spacing" textLength="111.4583" x="124.4792" y="786.44">[Sync flow EPC]</text><polygon fill="#2196F3" points="234.375,838.3138,223.9583,842.4805,234.375,846.6471,230.2083,842.4805" style="stroke:#2196F3;stroke-width:1.0416666666666667;"/><line style="stroke:#2196F3;stroke-width:3.125;stroke-dasharray:2.0,2.0;" x1="228.125" x2="951.0417" y1="842.4805" y2="842.4805"/><text fill="#222222" font-family="Verdana" font-size="12.5" font-weight="bold" lengthAdjust="spacing" textLength="8.3333" x="251.0417" y="827.0325">8</text><text fill="#222222" font-family="Verdana" font-size="12.5" lengthAdjust="spacing" textLength="71.875" x="284.375" y="827.0325">OK payload</text><line style="stroke:#2196F3;stroke-width:3.125;" x1="222.9167" x2="266.6667" y1="892.4479" y2="892.4479"/><line style="stroke:#2196F3;stroke-width:3.125;" x1="266.6667" x2="266.6667" y1="892.4479" y2="905.9896"/><line style="stroke:#2196F3;stroke-width:3.125;" x1="223.9583" x2="266.6667" y1="905.9896" y2="905.9896"/><polygon fill="#2196F3" points="234.375,901.8229,223.9583,905.9896,234.375,910.1563,230.2083,905.9896" style="stroke:#2196F3;stroke-width:1.0416666666666667;"/><text fill="#222222" font-family="Verdana" font-size="12.5" font-weight="bold" lengthAdjust="spacing" textLength="8.3333" x="240.625" y="876.9999">9</text><text fill="#222222" font-family="Verdana" font-size="12.5" lengthAdjust="spacing" textLength="208.3333" x="273.9583" y="876.9999">update RTP status (CANCELLED)</text><line style="stroke:#2196F3;stroke-width:1.0416666666666667;stroke-dasharray:2.0,2.0;" x1="108.8542" x2="1041.6667" y1="915.3646" y2="915.3646"/><text fill="#222222" font-family="Verdana" font-size="12.5" font-weight="bold" lengthAdjust="spacing" textLength="162.5" x="124.4792" y="937.384">[Error Sync Response]</text><polygon fill="#2196F3" points="234.375,989.2578,223.9583,993.4245,234.375,997.5911,230.2083,993.4245" style="stroke:#2196F3;stroke-width:1.0416666666666667;"/><line style="stroke:#2196F3;stroke-width:3.125;stroke-dasharray:2.0,2.0;" x1="228.125" x2="951.0417" y1="993.4245" y2="993.4245"/><text fill="#222222" font-family="Verdana" font-size="12.5" font-weight="bold" lengthAdjust="spacing" textLength="16.6667" x="251.0417" y="977.9765">10</text><text fill="#222222" font-family="Verdana" font-size="12.5" lengthAdjust="spacing" textLength="32.2917" x="292.7083" y="977.9765">Error</text><line style="stroke:#2196F3;stroke-width:3.125;" x1="222.9167" x2="266.6667" y1="1048.6003" y2="1048.6003"/><line style="stroke:#2196F3;stroke-width:3.125;" x1="266.6667" x2="266.6667" y1="1048.6003" y2="1062.1419"/><line style="stroke:#2196F3;stroke-width:3.125;" x1="217.7083" x2="266.6667" y1="1062.1419" y2="1062.1419"/><polygon fill="#2196F3" points="228.125,1057.9753,217.7083,1062.1419,228.125,1066.3086,223.9583,1062.1419" style="stroke:#2196F3;stroke-width:1.0416666666666667;"/><text fill="#222222" font-family="Verdana" font-size="12.5" font-weight="bold" lengthAdjust="spacing" textLength="16.6667" x="240.625" y="1033.1523">11</text><text fill="#222222" font-family="Verdana" font-size="12.5" lengthAdjust="spacing" textLength="233.3333" x="282.2917" y="1033.1523">update RTP status (ERROR_CANCEL)</text><line style="stroke:#2196F3;stroke-width:1.0416666666666667;stroke-dasharray:2.0,2.0;" x1="98.4375" x2="1052.0833" y1="1073.6003" y2="1073.6003"/><text fill="#222222" font-family="Verdana" font-size="12.5" font-weight="bold" lengthAdjust="spacing" textLength="117.7083" x="114.0625" y="1095.6197">[RTP Not Found]</text><polygon fill="#2196F3" points="234.375,1147.4935,223.9583,1151.6602,234.375,1155.8268,230.2083,1151.6602" style="stroke:#2196F3;stroke-width:1.0416666666666667;"/><line style="stroke:#2196F3;stroke-width:3.125;stroke-dasharray:2.0,2.0;" x1="228.125" x2="537.5" y1="1151.6602" y2="1151.6602"/><text fill="#222222" font-family="Verdana" font-size="12.5" font-weight="bold" lengthAdjust="spacing" textLength="16.6667" x="251.0417" y="1136.2122">12</text><text fill="#222222" font-family="Verdana" font-size="12.5" lengthAdjust="spacing" textLength="63.5417" x="292.7083" y="1136.2122">not found</text><!--SRC=[bLHTJzim57tthxZZXI6jm5xxCAaqOM8K6YLXBvk4J7BJMdBjpBufYwRzzrqxARIWJICliU_7ESV7Dpc6J4j3TpSBI9HSERc1nZh8ompcqbIejIHb3SooAt4CfIADKxWpgb5Olwugy4U7lDzXSSjNT9vJK_XuUdvwpe44VULKIp5OhfM7UYJsQ_leWTO8DP9KcXbQPolqFcgg1YPbLY1DuFx0Q0VFHlqCsO30Ui6tMB7GQj3sg6WTKxAYJchu8hSIFBgjOhtIr51PGyvgZGwqNQdgL8XtNBz1s4X2fwGG5CuVZvsWHaAurFPHY5OwKfLgsKWukYacHNgRfFaHI0_3KjIIv8Fq24VSN0mPNXrs9aKMC_mMGdPaJRTvG2V4DplvD29DuNF2xEaYBLF0BHhYqehKbYNko8ONX1xcc4AZJ9rJUz4lMtJHZ4JvLbArHdUDlG1uHWYYXDGK3tbfErEBu6o8msHFnM6wnaE4sFAiOkpPIgtgK1EQFKdgVAmqbcDEhTOqFHmd5yR94oYZI75Z_GAOZPhopF7TxIfjinkJYF3TPCkYX3EFhPoCDHEoarRskwq_-nMo-R0hRIRxSPsZjvshyAh-VROF-jGPrJmTFDpQqsaqDb7CBWYG8xaUL0DDdEmO3Sf3kHYGsFMPxqq53KyLfDbyR6MG0- -Nru2Rbdgui7K_rhnsksjVU0tlyylvFQVBau5TypmM_yV7XcahwxUGpMUtytInI9CzjjGv_f0Z9xlRMkFnBvonyYrqQPuly_k1zEJbKEwk8HW-Q60h13zHLO2vjVIlSUTRudzGI3C4z-qF_F3H_G40]--></g></svg>