<svg xmlns="http://www.w3.org/2000/svg" xmlns:xlink="http://www.w3.org/1999/xlink" contentStyleType="text/css" data-diagram-type="SEQUENCE" height="1282.2917px" preserveAspectRatio="none" style="width:1038px;height:1282px;" version="1.1" viewBox="0 0 1038 1282" width="1038.5417px" zoomAndPan="magnify"><title>RTP Delete Flow</title><defs><linearGradient id="gqpk3q4u63zje0" x1="50%" x2="50%" y1="0%" y2="100%"><stop offset="0%" stop-color="#FFFFFF"/><stop offset="100%" stop-color="#FFFFFF"/></linearGradient><filter height="300%" id="fqpk3q4u63zje" width="300%" x="-1" y="-1"><feGaussianBlur result="blurOut" stdDeviation="2.0833"/><feColorMatrix in="blurOut" result="blurOut2" type="matrix" values="0 0 0 0 0 0 0 0 0 0 0 0 0 0 0 0 0 0 .4 0"/><feOffset dx="4.1667" dy="4.1667" in="blurOut2" result="blurOut3"/><feBlend in="SourceGraphic" in2="blurOut3" mode="normal"/></filter><linearGradient id="gqpk3q4u63zje1" x1="50%" x2="50%" y1="0%" y2="100%"><stop offset="0%" stop-color="#4DABF5"/><stop offset="100%" stop-color="#2196F3"/></linearGradient><linearGradient id="gqpk3q4u63zje2" x1="50%" x2="50%" y1="0%" y2="100%"><stop offset="0%" stop-color="#B052C0"/><stop offset="100%" stop-color="#9C27B0"/></linearGradient></defs><g><rect fill="url(#gqpk3q4u63zje0)" height="57.5846" rx="4.1667" ry="4.1667" style="stroke:#CCCCCC;stroke-width:1.0417;" width="225.0753" x="407.9091" y="20.8333"/><text fill="#2196F3" font-family="'Verdana'" font-size="20.8333" font-weight="bold" lengthAdjust="spacing" textLength="191.7419" x="424.5758" y="56.838">RTP Delete Flow</text><g><title>MS-SENDER</title><rect fill="#FFFFFF" filter="url(#fqpk3q4u63zje)" height="942.0573" style="stroke:#1A78C2;stroke-width:1.0417;" width="10.4167" x="211.3892" y="225.2279"/></g><g><title>RTPS</title><rect fill="#FFFFFF" filter="url(#fqpk3q4u63zje)" height="114.4857" style="stroke:#1A78C2;stroke-width:1.0417;" width="10.4167" x="634.1187" y="275.1953"/></g><g><title>DSP</title><rect fill="#FFFFFF" filter="url(#fqpk3q4u63zje)" height="531.9336" style="stroke:#1A78C2;stroke-width:1.0417;" width="10.4167" x="921.5739" y="517.7083"/></g><rect fill="url(#gqpk3q4u63zje0)" filter="url(#fqpk3q4u63zje)" height="869.1732" rx="4.1667" ry="4.1667" style="stroke:#2196F3;stroke-width:1.0417;" width="923.586" x="97.5159" y="290.8203"/><rect fill="url(#gqpk3q4u63zje0)" filter="url(#fqpk3q4u63zje)" height="472.5911" rx="4.1667" ry="4.1667" style="stroke:#2196F3;stroke-width:1.0417;" width="902.7527" x="107.9325" y="592.6758"/><path d="M107.9325,763.3789 L1010.6852,763.3789 L1010.6852,910.1563 A4.1667,4.1667 0 0 1 1006.5186,914.3229 L112.0992,914.3229 A4.1667,4.1667 0 0 1 107.9325,910.1563 L107.9325,763.3789" fill="url(#gqpk3q4u63zje0)" style="stroke:none;stroke-width:1.0417;"/><path d="M107.9325,914.3229 L1010.6852,914.3229 L1010.6852,1061.1003 A4.1667,4.1667 0 0 1 1006.5186,1065.2669 L112.0992,1065.2669 A4.1667,4.1667 0 0 1 107.9325,1061.1003 L107.9325,914.3229" fill="url(#gqpk3q4u63zje0)" style="stroke:none;stroke-width:1.0417;"/><path d="M97.5159,1072.5586 L1021.1019,1072.5586 L1021.1019,1155.8268 A4.1667,4.1667 0 0 1 1016.9352,1159.9935 L101.6825,1159.9935 A4.1667,4.1667 0 0 1 97.5159,1155.8268 L97.5159,1072.5586" fill="url(#gqpk3q4u63zje0)" style="stroke:none;stroke-width:1.0417;"/><g><title>MS-SENDER</title><rect fill="#000000" fill-opacity="0.00000" height="1004.5247" width="8.3333" x="212.4308" y="173.1771"/><line style="stroke:#CCCCCC;stroke-width:1.0417;stroke-dasharray:5.2083,5.2083;" x1="216.2659" x2="216.2659" y1="173.1771" y2="1177.7018"/></g><g><title>RTPS</title><rect fill="#000000" fill-opacity="0.00000" height="1004.5247" width="8.3333" x="635.1603" y="173.1771"/><line style="stroke:#CCCCCC;stroke-width:1.0417;stroke-dasharray:5.2083,5.2083;" x1="639.0554" x2="639.0554" y1="173.1771" y2="1177.7018"/></g><g><title>DSP</title><rect fill="#000000" fill-opacity="0.00000" height="1004.5247" width="8.3333" x="922.6156" y="173.1771"/><line style="stroke:#CCCCCC;stroke-width:1.0417;stroke-dasharray:5.2083,5.2083;" x1="926.2126" x2="926.2126" y1="173.1771" y2="1177.7018"/></g><g class="participant participant-head" data-participant="SENDER"><rect fill="url(#gqpk3q4u63zje1)" filter="url(#fqpk3q4u63zje)" height="49.9674" rx="4.1667" ry="4.1667" style="stroke:#2196F3;stroke-width:1.0417;" width="110.0382" x="160.0159" y="119.043"/><text fill="#FFFFFF" font-family="'Verdana'" font-size="12.5" lengthAdjust="spacing" textLength="74.6216" x="177.7242" y="148.3541">MS-SENDER</text></g><g class="participant participant-tail" data-participant="SENDER"><rect fill="url(#gqpk3q4u63zje1)" filter="url(#fqpk3q4u63zje)" height="49.9674" rx="4.1667" ry="4.1667" style="stroke:#2196F3;stroke-width:1.0417;" width="110.0382" x="160.0159" y="1176.6602"/><text fill="#FFFFFF" font-family="'Verdana'" font-size="12.5" lengthAdjust="spacing" textLength="74.6216" x="177.7242" y="1205.9713">MS-SENDER</text></g><g class="participant participant-head" data-participant="SRTP"><text fill="#222222" font-family="'Verdana'" font-size="12.5" lengthAdjust="spacing" textLength="31.7932" x="620.3054" y="159.8124">RTPS</text><path d="M620.577,100.293 C620.577,89.8763 639.327,89.8763 639.327,89.8763 C639.327,89.8763 658.077,89.8763 658.077,100.293 L658.077,127.3763 C658.077,137.793 639.327,137.793 639.327,137.793 C639.327,137.793 620.577,137.793 620.577,127.3763 L620.577,100.293" fill="url(#gqpk3q4u63zje1)" filter="url(#fqpk3q4u63zje)" style="stroke:#2196F3;stroke-width:1.0417;"/><path d="M620.577,100.293 C620.577,110.7096 639.327,110.7096 639.327,110.7096 C639.327,110.7096 658.077,110.7096 658.077,100.293" fill="none" style="stroke:#2196F3;stroke-width:1.0417;"/></g><g class="participant participant-tail" data-participant="SRTP"><text fill="#222222" font-family="'Verdana'" font-size="12.5" lengthAdjust="spacing" textLength="31.7932" x="620.3054" y="1198.6796">RTPS</text><path d="M620.577,1222.4609 C620.577,1212.0443 639.327,1212.0443 639.327,1212.0443 C639.327,1212.0443 658.077,1212.0443 658.077,1222.4609 L658.077,1249.5443 C658.077,1259.9609 639.327,1259.9609 639.327,1259.9609 C639.327,1259.9609 620.577,1259.9609 620.577,1249.5443 L620.577,1222.4609" fill="url(#gqpk3q4u63zje1)" filter="url(#fqpk3q4u63zje)" style="stroke:#2196F3;stroke-width:1.0417;"/><path d="M620.577,1222.4609 C620.577,1232.8776 639.327,1232.8776 639.327,1232.8776 C639.327,1232.8776 658.077,1232.8776 658.077,1222.4609" fill="none" style="stroke:#2196F3;stroke-width:1.0417;"/></g><g class="participant participant-head" data-participant="DSP"><rect fill="url(#gqpk3q4u63zje1)" filter="url(#fqpk3q4u63zje)" height="49.9674" rx="4.1667" ry="4.1667" style="stroke:#2196F3;stroke-width:1.0417;" width="60.5143" x="894.9626" y="119.043"/><text fill="#FFFFFF" font-family="'Verdana'" font-size="12.5" lengthAdjust="spacing" textLength="25.0977" x="912.6709" y="148.3541">DSP</text></g><g class="participant participant-tail" data-participant="DSP"><rect fill="url(#gqpk3q4u63zje1)" filter="url(#fqpk3q4u63zje)" height="49.9674" rx="4.1667" ry="4.1667" style="stroke:#2196F3;stroke-width:1.0417;" width="60.5143" x="894.9626" y="1176.6602"/><text fill="#FFFFFF" font-family="'Verdana'" font-size="12.5" lengthAdjust="spacing" textLength="25.0977" x="912.6709" y="1205.9713">DSP</text></g><g><title>MS-SENDER</title><rect fill="#FFFFFF" filter="url(#fqpk3q4u63zje)" height="942.0573" style="stroke:#1A78C2;stroke-width:1.0417;" width="10.4167" x="211.3892" y="225.2279"/></g><g><title>RTPS</title><rect fill="#FFFFFF" filter="url(#fqpk3q4u63zje)" height="114.4857" style="stroke:#1A78C2;stroke-width:1.0417;" width="10.4167" x="634.1187" y="275.1953"/></g><g><title>DSP</title><rect fill="#FFFFFF" filter="url(#fqpk3q4u63zje)" height="531.9336" style="stroke:#1A78C2;stroke-width:1.0417;" width="10.4167" x="921.5739" y="517.7083"/></g><g class="message" data-participant-1="SENDER" data-participant-2="SENDER"><ellipse cx="18.2292" cy="224.4466" fill="none" rx="4.1667" ry="4.1667" style="stroke:#2196F3;stroke-width:1.5625;"/><polygon fill="#2196F3" points="198.8892,221.0612,209.3058,225.2279,198.8892,229.3945,203.0558,225.2279" style="stroke:#2196F3;stroke-width:1.0417;"/><line style="stroke:#2196F3;stroke-width:3.125;" x1="22.9167" x2="205.1392" y1="225.2279" y2="225.2279"/><text fill="#222222" font-family="'Verdana'" font-size="12.5" font-weight="bold" lengthAdjust="spacing" textLength="8.6975" x="36.4583" y="209.7799">1</text><text fill="#222222" font-family="'Verdana'" font-size="12.5" lengthAdjust="spacing" textLength="118.3167" x="70.1558" y="209.7799">GDP DELETE event</text></g><g class="message" data-participant-1="SENDER" data-participant-2="SRTP"><polygon fill="#2196F3" points="621.6187,271.0286,632.0353,275.1953,621.6187,279.362,625.7853,275.1953" style="stroke:#2196F3;stroke-width:1.0417;"/><line style="stroke:#2196F3;stroke-width:3.125;" x1="221.8058" x2="627.8687" y1="275.1953" y2="275.1953"/><text fill="#222222" font-family="'Verdana'" font-size="12.5" font-weight="bold" lengthAdjust="spacing" textLength="8.6975" x="239.5142" y="259.7473">2</text><text fill="#222222" font-family="'Verdana'" font-size="12.5" lengthAdjust="spacing" textLength="214.447" x="273.2117" y="259.7473">findRtpByOperationDispatcherKey</text></g><path d="M101.6825,290.8203 L183.9193,290.8203 L183.9193,317.8711 L173.5026,328.2878 L97.5159,328.2878 L97.5159,294.987 A4.1667,4.1667 0 0 1 101.6825,290.8203" fill="#FFFFFF" style="stroke:#666666;stroke-width:1.0417;"/><rect fill="none" height="869.1732" rx="4.1667" ry="4.1667" style="stroke:#2196F3;stroke-width:1.0417;" width="923.586" x="97.5159" y="290.8203"/><text fill="#9C27B0" font-family="'Verdana'" font-size="12.5" font-weight="bold" lengthAdjust="spacing" textLength="18.6951" x="123.5575" y="313.8814">alt</text><text fill="#222222" font-family="'Verdana'" font-size="12.5" font-weight="bold" lengthAdjust="spacing" textLength="86.9629" x="209.9609" y="314.9231">[RTP Found]</text><g class="message" data-participant-1="SRTP" data-participant-2="SENDER"><polygon fill="#2196F3" points="233.2642,385.5143,222.8475,389.681,233.2642,393.8477,229.0975,389.681" style="stroke:#2196F3;stroke-width:1.0417;"/><line style="stroke:#2196F3;stroke-width:3.125;stroke-dasharray:2.0833,2.0833;" x1="227.0142" x2="638.2853" y1="389.681" y2="389.681"/><text fill="#222222" font-family="'Verdana'" font-size="12.5" font-weight="bold" lengthAdjust="spacing" textLength="8.6975" x="249.9308" y="374.233">3</text><text fill="#222222" font-family="'Verdana'" font-size="12.5" lengthAdjust="spacing" textLength="66.449" x="283.6283" y="374.233">RTP Found</text></g><g class="message" data-participant-1="SENDER" data-participant-2="SENDER"><line style="stroke:#2196F3;stroke-width:3.125;" x1="221.8058" x2="265.5558" y1="439.6484" y2="439.6484"/><line style="stroke:#2196F3;stroke-width:3.125;" x1="265.5558" x2="265.5558" y1="439.6484" y2="453.1901"/><line style="stroke:#2196F3;stroke-width:3.125;" x1="222.8475" x2="265.5558" y1="453.1901" y2="453.1901"/><polygon fill="#2196F3" points="233.2642,449.0234,222.8475,453.1901,233.2642,457.3568,229.0975,453.1901" style="stroke:#2196F3;stroke-width:1.0417;"/><text fill="#222222" font-family="'Verdana'" font-size="12.5" font-weight="bold" lengthAdjust="spacing" textLength="8.6975" x="239.5142" y="424.2004">4</text><text fill="#222222" font-family="'Verdana'" font-size="12.5" lengthAdjust="spacing" textLength="120.4041" x="273.2117" y="424.2004">validate RTP status</text></g><g class="message" data-participant-1="SENDER" data-participant-2="DSP"><polygon fill="#2196F3" points="909.0739,513.5417,919.4906,517.7083,909.0739,521.875,913.2406,517.7083" style="stroke:#2196F3;stroke-width:1.0417;"/><line style="stroke:#2196F3;stroke-width:3.125;" x1="221.8058" x2="915.3239" y1="517.7083" y2="517.7083"/><text fill="#222222" font-family="'Verdana'" font-size="12.5" font-weight="bold" lengthAdjust="spacing" textLength="8.6975" x="239.5142" y="494.9849">5</text><text fill="#222222" font-family="'Verdana'" font-size="12.5" lengthAdjust="spacing" textLength="178.8086" x="273.2117" y="487.7096">Send request of cancellation</text><text fill="#222222" font-family="'Verdana'" font-size="12.5" lengthAdjust="spacing" textLength="625.4456" x="273.2117" y="502.2603">POST /sepa-request-to-pay-requests/{sepaRequestToPayRequestResourceId}/cancellation-requests</text></g><path d="M785.4167,535.4167 L785.4167,571.875 A4.1667,4.1667 0 0 0 789.5833,576.0417 L907.2917,576.0417 A4.1667,4.1667 0 0 0 911.4583,571.875 L911.4583,541.6667 L901.0417,531.25 L789.5833,531.25 A4.1667,4.1667 0 0 0 785.4167,535.4167" fill="url(#gqpk3q4u63zje2)" filter="url(#fqpk3q4u63zje)" style="stroke:#9C27B0;stroke-width:1.0417;"/><path d="M901.0417,531.25 L901.0417,539.5833 A2.0833,2.0833 0 0 0 903.125,541.6667 L911.4583,541.6667 L901.0417,531.25" fill="url(#gqpk3q4u63zje2)" style="stroke:#9C27B0;stroke-width:1.0417;"/><text fill="#FFFFFF" font-family="'Verdana'" font-size="12.5" lengthAdjust="spacing" textLength="84.2651" x="802.0833" y="558.4778">Retry if failed</text><path d="M112.0992,592.6758 L194.3359,592.6758 L194.3359,619.7266 L183.9193,630.1432 L107.9325,630.1432 L107.9325,596.8424 A4.1667,4.1667 0 0 1 112.0992,592.6758" fill="#FFFFFF" style="stroke:#666666;stroke-width:1.0417;"/><rect fill="none" height="472.5911" rx="4.1667" ry="4.1667" style="stroke:#2196F3;stroke-width:1.0417;" width="902.7527" x="107.9325" y="592.6758"/><text fill="#9C27B0" font-family="'Verdana'" font-size="12.5" font-weight="bold" lengthAdjust="spacing" textLength="18.6951" x="133.9742" y="615.7369">alt</text><text fill="#222222" font-family="'Verdana'" font-size="12.5" font-weight="bold" lengthAdjust="spacing" textLength="118.4326" x="220.3776" y="616.7786">[Async flow EPC]</text><g class="message" data-participant-1="DSP" data-participant-2="SENDER"><polygon fill="#2196F3" points="233.2642,687.3698,222.8475,691.5365,233.2642,695.7031,229.0975,691.5365" style="stroke:#2196F3;stroke-width:1.0417;"/><line style="stroke:#2196F3;stroke-width:3.125;stroke-dasharray:2.0833,2.0833;" x1="227.0142" x2="920.5322" y1="691.5365" y2="691.5365"/><text fill="#222222" font-family="'Verdana'" font-size="12.5" font-weight="bold" lengthAdjust="spacing" textLength="8.6975" x="249.9308" y="676.0885">6</text><text fill="#222222" font-family="'Verdana'" font-size="12.5" lengthAdjust="spacing" textLength="97.6379" x="283.6283" y="676.0885">OK empty Body</text></g><g class="message" data-participant-1="SENDER" data-participant-2="SENDER"><line style="stroke:#2196F3;stroke-width:3.125;" x1="221.8058" x2="265.5558" y1="741.5039" y2="741.5039"/><line style="stroke:#2196F3;stroke-width:3.125;" x1="265.5558" x2="265.5558" y1="741.5039" y2="755.0456"/><line style="stroke:#2196F3;stroke-width:3.125;" x1="222.8475" x2="265.5558" y1="755.0456" y2="755.0456"/><polygon fill="#2196F3" points="233.2642,750.8789,222.8475,755.0456,233.2642,759.2122,229.0975,755.0456" style="stroke:#2196F3;stroke-width:1.0417;"/><text fill="#222222" font-family="'Verdana'" font-size="12.5" font-weight="bold" lengthAdjust="spacing" textLength="8.6975" x="239.5142" y="726.0559">7</text><text fill="#222222" font-family="'Verdana'" font-size="12.5" lengthAdjust="spacing" textLength="191.6565" x="273.2117" y="726.0559">update RTP status (RFC_SENT)</text></g><line style="stroke:#2196F3;stroke-width:1.0417;stroke-dasharray:2.0833,2.0833;" x1="107.9325" x2="1010.6852" y1="764.4206" y2="764.4206"/><text fill="#222222" font-family="'Verdana'" font-size="12.5" font-weight="bold" lengthAdjust="spacing" textLength="110.321" x="123.5575" y="786.44">[Sync flow EPC]</text><g class="message" data-participant-1="DSP" data-participant-2="SENDER"><polygon fill="#2196F3" points="233.2642,838.3138,222.8475,842.4805,233.2642,846.6471,229.0975,842.4805" style="stroke:#2196F3;stroke-width:1.0417;"/><line style="stroke:#2196F3;stroke-width:3.125;stroke-dasharray:2.0833,2.0833;" x1="227.0142" x2="920.5322" y1="842.4805" y2="842.4805"/><text fill="#222222" font-family="'Verdana'" font-size="12.5" font-weight="bold" lengthAdjust="spacing" textLength="8.6975" x="249.9308" y="827.0325">8</text><text fill="#222222" font-family="'Verdana'" font-size="12.5" lengthAdjust="spacing" textLength="71.7163" x="283.6283" y="827.0325">OK payload</text></g><g class="message" data-participant-1="SENDER" data-participant-2="SENDER"><line style="stroke:#2196F3;stroke-width:3.125;" x1="221.8058" x2="265.5558" y1="892.4479" y2="892.4479"/><line style="stroke:#2196F3;stroke-width:3.125;" x1="265.5558" x2="265.5558" y1="892.4479" y2="905.9896"/><line style="stroke:#2196F3;stroke-width:3.125;" x1="222.8475" x2="265.5558" y1="905.9896" y2="905.9896"/><polygon fill="#2196F3" points="233.2642,901.8229,222.8475,905.9896,233.2642,910.1563,229.0975,905.9896" style="stroke:#2196F3;stroke-width:1.0417;"/><text fill="#222222" font-family="'Verdana'" font-size="12.5" font-weight="bold" lengthAdjust="spacing" textLength="8.6975" x="239.5142" y="876.9999">9</text><text fill="#222222" font-family="'Verdana'" font-size="12.5" lengthAdjust="spacing" textLength="298.5291" x="273.2117" y="876.9999">update RTP status (Update status: CANCELLED)</text></g><line style="stroke:#2196F3;stroke-width:1.0417;stroke-dasharray:2.0833,2.0833;" x1="107.9325" x2="1010.6852" y1="915.3646" y2="915.3646"/><text fill="#222222" font-family="'Verdana'" font-size="12.5" font-weight="bold" lengthAdjust="spacing" textLength="157.1045" x="123.5575" y="937.384">[Error Sync Response]</text><g class="message" data-participant-1="DSP" data-participant-2="SENDER"><polygon fill="#2196F3" points="233.2642,989.2578,222.8475,993.4245,233.2642,997.5911,229.0975,993.4245" style="stroke:#2196F3;stroke-width:1.0417;"/><line style="stroke:#2196F3;stroke-width:3.125;stroke-dasharray:2.0833,2.0833;" x1="227.0142" x2="920.5322" y1="993.4245" y2="993.4245"/><text fill="#222222" font-family="'Verdana'" font-size="12.5" font-weight="bold" lengthAdjust="spacing" textLength="17.395" x="249.9308" y="977.9765">10</text><text fill="#222222" font-family="'Verdana'" font-size="12.5" lengthAdjust="spacing" textLength="30.9631" x="292.3258" y="977.9765">Error</text></g><g class="message" data-participant-1="SENDER" data-participant-2="SENDER"><line style="stroke:#2196F3;stroke-width:3.125;" x1="221.8058" x2="265.5558" y1="1043.3919" y2="1043.3919"/><line style="stroke:#2196F3;stroke-width:3.125;" x1="265.5558" x2="265.5558" y1="1043.3919" y2="1056.9336"/><line style="stroke:#2196F3;stroke-width:3.125;" x1="222.8475" x2="265.5558" y1="1056.9336" y2="1056.9336"/><polygon fill="#2196F3" points="233.2642,1052.7669,222.8475,1056.9336,233.2642,1061.1003,229.0975,1056.9336" style="stroke:#2196F3;stroke-width:1.0417;"/><text fill="#222222" font-family="'Verdana'" font-size="12.5" font-weight="bold" lengthAdjust="spacing" textLength="17.395" x="239.5142" y="1027.9439">11</text><text fill="#222222" font-family="'Verdana'" font-size="12.5" lengthAdjust="spacing" textLength="324.0845" x="281.9092" y="1027.9439">update RTP status (Update status: ERROR_CANCEL)</text></g><line style="stroke:#2196F3;stroke-width:1.0417;stroke-dasharray:2.0833,2.0833;" x1="97.5159" x2="1021.1019" y1="1073.6003" y2="1073.6003"/><text fill="#222222" font-family="'Verdana'" font-size="12.5" font-weight="bold" lengthAdjust="spacing" textLength="116.3391" x="113.1409" y="1095.6197">[RTP Not Found]</text><g class="message" data-participant-1="SRTP" data-participant-2="SENDER"><polygon fill="#2196F3" points="233.2642,1147.4935,222.8475,1151.6602,233.2642,1155.8268,229.0975,1151.6602" style="stroke:#2196F3;stroke-width:1.0417;"/><line style="stroke:#2196F3;stroke-width:3.125;stroke-dasharray:2.0833,2.0833;" x1="227.0142" x2="638.2853" y1="1151.6602" y2="1151.6602"/><text fill="#222222" font-family="'Verdana'" font-size="12.5" font-weight="bold" lengthAdjust="spacing" textLength="17.395" x="249.9308" y="1136.2122">12</text><text fill="#222222" font-family="'Verdana'" font-size="12.5" lengthAdjust="spacing" textLength="60.2722" x="292.3258" y="1136.2122">not found</text></g><!--SRC=[fLJ1Rjim3BthAxXSkXwS53lcC22DdQ5ecXYskyi65AfDDm8KoPFa5CQmVnybsscIOSE6-MA9v7jyUg9z1QdaoZq-h24M_CNmFTJQG5QaaAEgO97UiIieX9CuXnWT5nAhjtIEtrfK9OvWglsCnWgjvl1XUZEzeK2CjZIYSI5Ox8I5QkXaT_hLWjiXL2EpK0wDuX8QeqkqDgYnr4ge5-8wUxWAGdXD4FWKfw0RDDptWGENeWhBAMFlgCCUOS-fJd36d3zDWCOeqI6if7vbhE76YL8qP0TC7l8eJpPnaas0M-YNZ1ZvCxS84mBdVOPMvyWuJqE6tepnrcdLxf_HCFP5Hny7fdcG6oVhf4W03wWSbPPE74ZYsAn_WSTGZpdKGbMPQswxxNZAMDY6ktA7vXuxHduS6RmengKBXrpfLbNC6-RZ49seE4zNUCuG86yg1inWRM-WTTorzgAIJZxlnyFuyR0ET0qbfp6HCWZ_gj9jNi3COiEZeIPoEcfuDsxjxBlFPlskq2dlXdM6LhUcnBlgn-oKz8WCQeudyTVW0qhJHc8Tn8n1W0oTwK3KK8Vv2r6lt9UpdebiNDXEbL3Jc42IBWSeaPoPkRq7t3UkWrjTTKFDh_QrpOLvy3vRBPyeNLpttIKDMFvt_SWmgNdrByqU-r2_dSDoiLacwtKIdpHFZA6FBaWWinkjBFv6GgZyZ-v9bcspfrx3zUKCZfVahwENH4OnUe98pxhHxa_JJNT8lm-V9Wh2dSvtAFa9]--></g></svg>