<svg xmlns="http://www.w3.org/2000/svg" xmlns:xlink="http://www.w3.org/1999/xlink" contentStyleType="text/css" data-diagram-type="SEQUENCE" height="1767.7083px" preserveAspectRatio="none" style="width:1065px;height:1767px;" version="1.1" viewBox="0 0 1065 1767" width="1065.625px" zoomAndPan="magnify"><title>RTP Delete Flow</title><defs><linearGradient id="gkigfsbwap86x0" x1="50%" x2="50%" y1="0%" y2="100%"><stop offset="0%" stop-color="#FFFFFF"/><stop offset="100%" stop-color="#FFFFFF"/></linearGradient><filter height="300%" id="fkigfsbwap86x" width="300%" x="-1" y="-1"><feGaussianBlur result="blurOut" stdDeviation="2.0833"/><feColorMatrix in="blurOut" result="blurOut2" type="matrix" values="0 0 0 0 0 0 0 0 0 0 0 0 0 0 0 0 0 0 .4 0"/><feOffset dx="4.1667" dy="4.1667" in="blurOut2" result="blurOut3"/><feBlend in="SourceGraphic" in2="blurOut3" mode="normal"/></filter><linearGradient id="gkigfsbwap86x1" x1="50%" x2="50%" y1="0%" y2="100%"><stop offset="0%" stop-color="#4DABF5"/><stop offset="100%" stop-color="#2196F3"/></linearGradient><linearGradient id="gkigfsbwap86x2" x1="50%" x2="50%" y1="0%" y2="100%"><stop offset="0%" stop-color="#B052C0"/><stop offset="100%" stop-color="#9C27B0"/></linearGradient></defs><g><rect fill="url(#gkigfsbwap86x0)" height="58.6528" rx="4.1667" ry="4.1667" style="stroke:#CCCCCC;stroke-width:1.0417;" width="224.1292" x="421.8348" y="20.8333"/><text fill="#2196F3" font-family="Verdana" font-size="20.8333" font-weight="bold" lengthAdjust="spacing" textLength="190.7959" x="438.5015" y="58.4452">RTP Delete Flow</text><g><title>MS-SENDER</title><rect fill="#FFFFFF" filter="url(#fkigfsbwap86x)" height="1394.2912" style="stroke:#CCCCCC;stroke-width:1.0417;" width="10.4167" x="212.0422" y="242.7694"/></g><g><title>Redis</title><rect fill="#FFFFFF" filter="url(#fkigfsbwap86x)" height="116.4083" style="stroke:#CCCCCC;stroke-width:1.0417;" width="10.4167" x="543.1702" y="293.3777"/></g><g><title>RTPS</title><rect fill="#FFFFFF" filter="url(#fkigfsbwap86x)" height="116.4083" style="stroke:#CCCCCC;stroke-width:1.0417;" width="10.4167" x="676.7609" y="725.5025"/></g><g><title>DSP</title><rect fill="#FFFFFF" filter="url(#fkigfsbwap86x)" height="561.8998" style="stroke:#CCCCCC;stroke-width:1.0417;" width="10.4167" x="937.7543" y="971.8608"/></g><rect fill="url(#gkigfsbwap86x0)" filter="url(#fkigfsbwap86x)" height="1320.7662" rx="4.1667" ry="4.1667" style="stroke:#2196F3;stroke-width:1.0417;" width="961.3352" x="86.672" y="309.0027"/><path d="M86.672,493.2943 L1048.0072,493.2943 L1048.0072,1625.6022 A4.1667,4.1667 0 0 1 1043.8405,1629.7689 L90.8386,1629.7689 A4.1667,4.1667 0 0 1 86.672,1625.6022 L86.672,493.2943" fill="url(#gkigfsbwap86x0)" style="stroke:none;stroke-width:1.0417;"/><rect fill="url(#gkigfsbwap86x0)" filter="url(#fkigfsbwap86x)" height="881.3497" rx="4.1667" ry="4.1667" style="stroke:#2196F3;stroke-width:1.0417;" width="940.5019" x="97.0886" y="741.1275"/><rect fill="url(#gkigfsbwap86x0)" filter="url(#fkigfsbwap86x)" height="478.9998" rx="4.1667" ry="4.1667" style="stroke:#2196F3;stroke-width:1.0417;" width="919.6686" x="107.5053" y="1047.4691"/><path d="M107.5053,1220.7357 L1027.1739,1220.7357 L1027.1739,1369.4356 A4.1667,4.1667 0 0 1 1023.0072,1373.6023 L111.672,1373.6023 A4.1667,4.1667 0 0 1 107.5053,1369.4356 L107.5053,1220.7357" fill="url(#gkigfsbwap86x0)" style="stroke:none;stroke-width:1.0417;"/><path d="M107.5053,1373.6023 L1027.1739,1373.6023 L1027.1739,1522.3022 A4.1667,4.1667 0 0 1 1023.0072,1526.4689 L111.672,1526.4689 A4.1667,4.1667 0 0 1 107.5053,1522.3022 L107.5053,1373.6023" fill="url(#gkigfsbwap86x0)" style="stroke:none;stroke-width:1.0417;"/><path d="M97.0886,1533.7606 L1037.5905,1533.7606 L1037.5905,1618.3105 A4.1667,4.1667 0 0 1 1033.4239,1622.4772 L101.2553,1622.4772 A4.1667,4.1667 0 0 1 97.0886,1618.3105 L97.0886,1533.7606" fill="url(#gkigfsbwap86x0)" style="stroke:none;stroke-width:1.0417;"/><g><title>MS-SENDER</title><rect fill="#000000" fill-opacity="0.00000" height="1457.3995" width="8.3333" x="213.0839" y="190.0777"/><line style="stroke:#CCCCCC;stroke-width:1.0417;stroke-dasharray:5.2083,5.2083;" x1="216.8803" x2="216.8803" y1="190.0777" y2="1647.4772"/></g><g><title>Redis</title><rect fill="#000000" fill-opacity="0.00000" height="1457.3995" width="8.3333" x="544.2118" y="190.0777"/><line style="stroke:#CCCCCC;stroke-width:1.0417;stroke-dasharray:5.2083,5.2083;" x1="547.6929" x2="547.6929" y1="190.0777" y2="1647.4772"/></g><g><title>RTPS</title><rect fill="#000000" fill-opacity="0.00000" height="1457.3995" width="8.3333" x="677.8025" y="190.0777"/><line style="stroke:#CCCCCC;stroke-width:1.0417;stroke-dasharray:5.2083,5.2083;" x1="681.3558" x2="681.3558" y1="190.0777" y2="1647.4772"/></g><g><title>DSP</title><rect fill="#000000" fill-opacity="0.00000" height="1457.3995" width="8.3333" x="938.796" y="190.0777"/><line style="stroke:#CCCCCC;stroke-width:1.0417;stroke-dasharray:5.2083,5.2083;" x1="942.0848" x2="942.0848" y1="190.0777" y2="1647.4772"/></g><g class="participant participant-head" data-participant="SENDER"><rect fill="url(#gkigfsbwap86x1)" filter="url(#fkigfsbwap86x)" height="50.6083" rx="4.1667" ry="4.1667" style="stroke:#2196F3;stroke-width:1.0417;" width="112.1989" x="159.5886" y="135.3027"/><text fill="#FFFFFF" font-family="Verdana" font-size="12.5" lengthAdjust="spacing" textLength="76.7822" x="177.297" y="165.5782">MS-SENDER</text></g><g class="participant participant-tail" data-participant="SENDER"><rect fill="url(#gkigfsbwap86x1)" filter="url(#fkigfsbwap86x)" height="50.6083" rx="4.1667" ry="4.1667" style="stroke:#2196F3;stroke-width:1.0417;" width="112.1989" x="159.5886" y="1646.4355"/><text fill="#FFFFFF" font-family="Verdana" font-size="12.5" lengthAdjust="spacing" textLength="76.7822" x="177.297" y="1676.711">MS-SENDER</text></g><g class="participant participant-head" data-participant="REDIS"><text fill="#222222" font-family="Verdana" font-size="12.5" lengthAdjust="spacing" textLength="33.8684" x="528.3193" y="161.8449">Redis</text><text fill="#222222" font-family="Verdana" font-size="12.5" lengthAdjust="spacing" textLength="159.7046" x="465.4012" y="177.0365">(Idempotency Key Store)</text><path d="M529.6285,101.3611 C529.6285,90.9444 548.3785,90.9444 548.3785,90.9444 C548.3785,90.9444 567.1285,90.9444 567.1285,101.3611 L567.1285,128.4444 C567.1285,138.8611 548.3785,138.8611 548.3785,138.8611 C548.3785,138.8611 529.6285,138.8611 529.6285,128.4444 L529.6285,101.3611" fill="url(#gkigfsbwap86x1)" filter="url(#fkigfsbwap86x)" style="stroke:#2196F3;stroke-width:1.0417;"/><path d="M529.6285,101.3611 C529.6285,111.7778 548.3785,111.7778 548.3785,111.7778 C548.3785,111.7778 567.1285,111.7778 567.1285,101.3611" fill="none" style="stroke:#2196F3;stroke-width:1.0417;"/></g><g class="participant participant-tail" data-participant="REDIS"><text fill="#222222" font-family="Verdana" font-size="12.5" lengthAdjust="spacing" textLength="33.8684" x="528.3193" y="1669.4194">Redis</text><text fill="#222222" font-family="Verdana" font-size="12.5" lengthAdjust="spacing" textLength="159.7046" x="465.4012" y="1684.611">(Idempotency Key Store)</text><path d="M529.6285,1708.0688 C529.6285,1697.6522 548.3785,1697.6522 548.3785,1697.6522 C548.3785,1697.6522 567.1285,1697.6522 567.1285,1708.0688 L567.1285,1735.1522 C567.1285,1745.5688 548.3785,1745.5688 548.3785,1745.5688 C548.3785,1745.5688 529.6285,1745.5688 529.6285,1735.1522 L529.6285,1708.0688" fill="url(#gkigfsbwap86x1)" filter="url(#fkigfsbwap86x)" style="stroke:#2196F3;stroke-width:1.0417;"/><path d="M529.6285,1708.0688 C529.6285,1718.4855 548.3785,1718.4855 548.3785,1718.4855 C548.3785,1718.4855 567.1285,1718.4855 567.1285,1708.0688" fill="none" style="stroke:#2196F3;stroke-width:1.0417;"/></g><g class="participant participant-head" data-participant="SRTP"><text fill="#222222" font-family="Verdana" font-size="12.5" lengthAdjust="spacing" textLength="32.4768" x="662.6058" y="177.0365">RTPS</text><path d="M663.2192,116.5527 C663.2192,106.1361 681.9692,106.1361 681.9692,106.1361 C681.9692,106.1361 700.7192,106.1361 700.7192,116.5527 L700.7192,143.6361 C700.7192,154.0527 681.9692,154.0527 681.9692,154.0527 C681.9692,154.0527 663.2192,154.0527 663.2192,143.6361 L663.2192,116.5527" fill="url(#gkigfsbwap86x1)" filter="url(#fkigfsbwap86x)" style="stroke:#2196F3;stroke-width:1.0417;"/><path d="M663.2192,116.5527 C663.2192,126.9694 681.9692,126.9694 681.9692,126.9694 C681.9692,126.9694 700.7192,126.9694 700.7192,116.5527" fill="none" style="stroke:#2196F3;stroke-width:1.0417;"/></g><g class="participant participant-tail" data-participant="SRTP"><text fill="#222222" font-family="Verdana" font-size="12.5" lengthAdjust="spacing" textLength="32.4768" x="662.6058" y="1669.4194">RTPS</text><path d="M663.2192,1692.8772 C663.2192,1682.4605 681.9692,1682.4605 681.9692,1682.4605 C681.9692,1682.4605 700.7192,1682.4605 700.7192,1692.8772 L700.7192,1719.9605 C700.7192,1730.3772 681.9692,1730.3772 681.9692,1730.3772 C681.9692,1730.3772 663.2192,1730.3772 663.2192,1719.9605 L663.2192,1692.8772" fill="url(#gkigfsbwap86x1)" filter="url(#fkigfsbwap86x)" style="stroke:#2196F3;stroke-width:1.0417;"/><path d="M663.2192,1692.8772 C663.2192,1703.2939 681.9692,1703.2939 681.9692,1703.2939 C681.9692,1703.2939 700.7192,1703.2939 700.7192,1692.8772" fill="none" style="stroke:#2196F3;stroke-width:1.0417;"/></g><g class="participant participant-head" data-participant="DSP"><rect fill="url(#gkigfsbwap86x1)" filter="url(#fkigfsbwap86x)" height="50.6083" rx="4.1667" ry="4.1667" style="stroke:#2196F3;stroke-width:1.0417;" width="61.1308" x="910.8348" y="135.3027"/><text fill="#FFFFFF" font-family="Verdana" font-size="12.5" lengthAdjust="spacing" textLength="25.7141" x="928.5431" y="165.5782">DSP</text></g><g class="participant participant-tail" data-participant="DSP"><rect fill="url(#gkigfsbwap86x1)" filter="url(#fkigfsbwap86x)" height="50.6083" rx="4.1667" ry="4.1667" style="stroke:#2196F3;stroke-width:1.0417;" width="61.1308" x="910.8348" y="1646.4355"/><text fill="#FFFFFF" font-family="Verdana" font-size="12.5" lengthAdjust="spacing" textLength="25.7141" x="928.5431" y="1676.711">DSP</text></g><g><title>MS-SENDER</title><rect fill="#FFFFFF" filter="url(#fkigfsbwap86x)" height="1394.2912" style="stroke:#CCCCCC;stroke-width:1.0417;" width="10.4167" x="212.0422" y="242.7694"/></g><g><title>Redis</title><rect fill="#FFFFFF" filter="url(#fkigfsbwap86x)" height="116.4083" style="stroke:#CCCCCC;stroke-width:1.0417;" width="10.4167" x="543.1702" y="293.3777"/></g><g><title>RTPS</title><rect fill="#FFFFFF" filter="url(#fkigfsbwap86x)" height="116.4083" style="stroke:#CCCCCC;stroke-width:1.0417;" width="10.4167" x="676.7609" y="725.5025"/></g><g><title>DSP</title><rect fill="#FFFFFF" filter="url(#fkigfsbwap86x)" height="561.8998" style="stroke:#CCCCCC;stroke-width:1.0417;" width="10.4167" x="937.7543" y="971.8608"/></g><g class="message" data-participant-1="SENDER" data-participant-2="SENDER"><ellipse cx="18.2292" cy="241.9881" fill="none" rx="4.1667" ry="4.1667" style="stroke:#2196F3;stroke-width:1.5625;"/><polygon fill="#2196F3" points="199.5422,238.6027,209.9589,242.7694,199.5422,246.936,203.7089,242.7694" style="stroke:#2196F3;stroke-width:1.0417;"/><line style="stroke:#2196F3;stroke-width:3.125;" x1="22.9167" x2="205.7922" y1="242.7694" y2="242.7694"/><text fill="#222222" font-family="Verdana" font-size="12.5" font-weight="bold" lengthAdjust="spacing" textLength="8.8867" x="36.4583" y="227.6449">1</text><text fill="#222222" font-family="Verdana" font-size="12.5" lengthAdjust="spacing" textLength="118.7805" x="70.3451" y="227.6449">GDP DELETE event</text></g><g class="message" data-participant-1="SENDER" data-participant-2="REDIS"><polygon fill="#2196F3" points="530.6702,289.211,541.0868,293.3777,530.6702,297.5444,534.8368,293.3777" style="stroke:#2196F3;stroke-width:1.0417;"/><line style="stroke:#2196F3;stroke-width:3.125;" x1="222.4589" x2="536.9202" y1="293.3777" y2="293.3777"/><text fill="#222222" font-family="Verdana" font-size="12.5" font-weight="bold" lengthAdjust="spacing" textLength="8.8867" x="240.1672" y="278.2532">2</text><text fill="#222222" font-family="Verdana" font-size="12.5" lengthAdjust="spacing" textLength="151.5747" x="274.054" y="278.2532">check Idempotency-Key</text></g><path d="M90.8386,309.0027 L172.6969,309.0027 L172.6969,336.6943 L162.2803,347.111 L86.672,347.111 L86.672,313.1694 A4.1667,4.1667 0 0 1 90.8386,309.0027" fill="#FFFFFF" style="stroke:#666666;stroke-width:1.0417;"/><rect fill="none" height="1320.7662" rx="4.1667" ry="4.1667" style="stroke:#2196F3;stroke-width:1.0417;" width="961.3352" x="86.672" y="309.0027"/><text fill="#9C27B0" font-family="Verdana" font-size="12.5" font-weight="bold" lengthAdjust="spacing" textLength="18.3167" x="112.7136" y="333.0282">alt</text><text fill="#222222" font-family="Verdana" font-size="12.5" font-weight="bold" lengthAdjust="spacing" textLength="252.9419" x="198.7386" y="334.0698">[Idempotency-Key already present]</text><g class="message" data-participant-1="REDIS" data-participant-2="SENDER"><polygon fill="#2196F3" points="233.9172,405.6193,223.5006,409.786,233.9172,413.9526,229.7506,409.786" style="stroke:#2196F3;stroke-width:1.0417;"/><line style="stroke:#2196F3;stroke-width:3.125;stroke-dasharray:2.0833,2.0833;" x1="227.6672" x2="547.3368" y1="409.786" y2="409.786"/><text fill="#222222" font-family="Verdana" font-size="12.5" font-weight="bold" lengthAdjust="spacing" textLength="8.8867" x="250.5839" y="394.6615">3</text><text fill="#222222" font-family="Verdana" font-size="12.5" lengthAdjust="spacing" textLength="62.2253" x="284.4706" y="394.6615">key found</text></g><g class="message" data-participant-1="SENDER" data-participant-2="SENDER"><line style="stroke:#2196F3;stroke-width:3.125;" x1="222.4589" x2="266.2089" y1="465.9068" y2="465.9068"/><line style="stroke:#2196F3;stroke-width:3.125;" x1="266.2089" x2="266.2089" y1="465.9068" y2="479.4484"/><line style="stroke:#2196F3;stroke-width:3.125;" x1="223.5006" x2="266.2089" y1="479.4484" y2="479.4484"/><polygon fill="#2196F3" points="233.9172,475.2818,223.5006,479.4484,233.9172,483.6151,229.7506,479.4484" style="stroke:#2196F3;stroke-width:1.0417;"/><text fill="#222222" font-family="Verdana" font-size="12.5" font-weight="bold" lengthAdjust="spacing" textLength="8.8867" x="240.1672" y="450.7823">4</text><text fill="#222222" font-family="Verdana" font-size="12.5" lengthAdjust="spacing" textLength="173.5596" x="274.054" y="450.7823">discard duplicated message</text></g><path d="M480.363,427.4943 L480.363,480.6193 A4.1667,4.1667 0 0 0 484.5296,484.786 L690.7796,484.786 A4.1667,4.1667 0 0 0 694.9463,480.6193 L694.9463,433.7443 L684.5296,423.3276 L484.5296,423.3276 A4.1667,4.1667 0 0 0 480.363,427.4943" fill="url(#gkigfsbwap86x2)" filter="url(#fkigfsbwap86x)" style="stroke:#9C27B0;stroke-width:1.0417;"/><path d="M684.5296,423.3276 L684.5296,431.661 A2.0833,2.0833 0 0 0 686.613,433.7443 L694.9463,433.7443 L684.5296,423.3276" fill="url(#gkigfsbwap86x2)" style="stroke:#9C27B0;stroke-width:1.0417;"/><text fill="#FFFFFF" font-family="Verdana" font-size="12.5" lengthAdjust="spacing" textLength="171.875" x="497.0296" y="451.5198">Message already processed</text><text fill="#FFFFFF" font-family="Verdana" font-size="12.5" lengthAdjust="spacing" textLength="150.6775" x="497.0296" y="466.7114">or already in processing</text><line style="stroke:#2196F3;stroke-width:1.0417;stroke-dasharray:2.0833,2.0833;" x1="86.672" x2="1048.0072" y1="494.3359" y2="494.3359"/><text fill="#222222" font-family="Verdana" font-size="12.5" font-weight="bold" lengthAdjust="spacing" textLength="223.761" x="102.297" y="517.3197">[Idempotency-Key not present]</text><g class="message" data-participant-1="REDIS" data-participant-2="SENDER"><polygon fill="#2196F3" points="233.9172,569.5109,223.5006,573.6776,233.9172,577.8442,229.7506,573.6776" style="stroke:#2196F3;stroke-width:1.0417;"/><line style="stroke:#2196F3;stroke-width:3.125;stroke-dasharray:2.0833,2.0833;" x1="227.6672" x2="547.3368" y1="573.6776" y2="573.6776"/><text fill="#222222" font-family="Verdana" font-size="12.5" font-weight="bold" lengthAdjust="spacing" textLength="8.8867" x="250.5839" y="558.5531">5</text><text fill="#222222" font-family="Verdana" font-size="12.5" lengthAdjust="spacing" textLength="87.0422" x="284.4706" y="558.5531">key not found</text></g><g class="message" data-participant-1="SENDER" data-participant-2="REDIS"><polygon fill="#2196F3" points="535.8785,620.1192,546.2952,624.2859,535.8785,628.4526,540.0452,624.2859" style="stroke:#2196F3;stroke-width:1.0417;"/><line style="stroke:#2196F3;stroke-width:3.125;" x1="222.4589" x2="542.1285" y1="624.2859" y2="624.2859"/><text fill="#222222" font-family="Verdana" font-size="12.5" font-weight="bold" lengthAdjust="spacing" textLength="8.8867" x="240.1672" y="609.1614">6</text><text fill="#222222" font-family="Verdana" font-size="12.5" lengthAdjust="spacing" textLength="144.6594" x="274.054" y="609.1614">save Idempotency-Key</text></g><g class="message" data-participant-1="REDIS" data-participant-2="SENDER"><polygon fill="#2196F3" points="233.9172,670.7275,223.5006,674.8942,233.9172,679.0609,229.7506,674.8942" style="stroke:#2196F3;stroke-width:1.0417;"/><line style="stroke:#2196F3;stroke-width:3.125;stroke-dasharray:2.0833,2.0833;" x1="227.6672" x2="547.3368" y1="674.8942" y2="674.8942"/><text fill="#222222" font-family="Verdana" font-size="12.5" font-weight="bold" lengthAdjust="spacing" textLength="8.8867" x="250.5839" y="659.7697">7</text><text fill="#222222" font-family="Verdana" font-size="12.5" lengthAdjust="spacing" textLength="63.2874" x="284.4706" y="659.7697">key saved</text></g><g class="message" data-participant-1="SENDER" data-participant-2="SRTP"><polygon fill="#2196F3" points="664.2609,721.3359,674.6775,725.5025,664.2609,729.6692,668.4275,725.5025" style="stroke:#2196F3;stroke-width:1.0417;"/><line style="stroke:#2196F3;stroke-width:3.125;" x1="222.4589" x2="670.5109" y1="725.5025" y2="725.5025"/><text fill="#222222" font-family="Verdana" font-size="12.5" font-weight="bold" lengthAdjust="spacing" textLength="8.8867" x="240.1672" y="710.378">8</text><text fill="#222222" font-family="Verdana" font-size="12.5" lengthAdjust="spacing" textLength="213.1653" x="274.054" y="710.378">findRtpByOperationDispatcherKey</text></g><path d="M101.2553,741.1275 L183.1136,741.1275 L183.1136,768.8192 L172.6969,779.2358 L97.0886,779.2358 L97.0886,745.2942 A4.1667,4.1667 0 0 1 101.2553,741.1275" fill="#FFFFFF" style="stroke:#666666;stroke-width:1.0417;"/><rect fill="none" height="881.3497" rx="4.1667" ry="4.1667" style="stroke:#2196F3;stroke-width:1.0417;" width="940.5019" x="97.0886" y="741.1275"/><text fill="#9C27B0" font-family="Verdana" font-size="12.5" font-weight="bold" lengthAdjust="spacing" textLength="18.3167" x="123.1303" y="765.153">alt</text><text fill="#222222" font-family="Verdana" font-size="12.5" font-weight="bold" lengthAdjust="spacing" textLength="88.5803" x="209.1553" y="766.1947">[RTP Found]</text><g class="message" data-participant-1="SRTP" data-participant-2="SENDER"><polygon fill="#2196F3" points="233.9172,837.7441,223.5006,841.9108,233.9172,846.0775,229.7506,841.9108" style="stroke:#2196F3;stroke-width:1.0417;"/><line style="stroke:#2196F3;stroke-width:3.125;stroke-dasharray:2.0833,2.0833;" x1="227.6672" x2="680.9275" y1="841.9108" y2="841.9108"/><text fill="#222222" font-family="Verdana" font-size="12.5" font-weight="bold" lengthAdjust="spacing" textLength="8.8867" x="250.5839" y="826.7863">9</text><text fill="#222222" font-family="Verdana" font-size="12.5" lengthAdjust="spacing" textLength="66.7053" x="284.4706" y="826.7863">RTP Found</text></g><g class="message" data-participant-1="SENDER" data-participant-2="SENDER"><line style="stroke:#2196F3;stroke-width:3.125;" x1="222.4589" x2="266.2089" y1="892.5191" y2="892.5191"/><line style="stroke:#2196F3;stroke-width:3.125;" x1="266.2089" x2="266.2089" y1="892.5191" y2="906.0608"/><line style="stroke:#2196F3;stroke-width:3.125;" x1="223.5006" x2="266.2089" y1="906.0608" y2="906.0608"/><polygon fill="#2196F3" points="233.9172,901.8941,223.5006,906.0608,233.9172,910.2275,229.7506,906.0608" style="stroke:#2196F3;stroke-width:1.0417;"/><text fill="#222222" font-family="Verdana" font-size="12.5" font-weight="bold" lengthAdjust="spacing" textLength="17.7734" x="240.1672" y="877.3946">10</text><text fill="#222222" font-family="Verdana" font-size="12.5" lengthAdjust="spacing" textLength="120.4468" x="282.9407" y="877.3946">validate RTP status</text></g><path d="M436.1369,861.7025 L436.1369,899.2025 A4.1667,4.1667 0 0 0 440.3035,903.3691 L656.9702,903.3691 A4.1667,4.1667 0 0 0 661.1369,899.2025 L661.1369,867.9525 L650.7202,857.5358 L440.3035,857.5358 A4.1667,4.1667 0 0 0 436.1369,861.7025" fill="url(#gkigfsbwap86x2)" filter="url(#fkigfsbwap86x)" style="stroke:#9C27B0;stroke-width:1.0417;"/><path d="M650.7202,857.5358 L650.7202,865.8691 A2.0833,2.0833 0 0 0 652.8035,867.9525 L661.1369,867.9525 L650.7202,857.5358" fill="url(#gkigfsbwap86x2)" style="stroke:#9C27B0;stroke-width:1.0417;"/><text fill="#FFFFFF" font-family="Verdana" font-size="12.5" lengthAdjust="spacing" textLength="183.2703" x="452.8035" y="885.7279">Cancellation request initiated</text><g class="message" data-participant-1="SENDER" data-participant-2="DSP"><polygon fill="#2196F3" points="925.2543,967.6941,935.671,971.8608,925.2543,976.0274,929.421,971.8608" style="stroke:#2196F3;stroke-width:1.0417;"/><line style="stroke:#2196F3;stroke-width:3.125;" x1="222.4589" x2="931.5043" y1="971.8608" y2="971.8608"/><text fill="#222222" font-family="Verdana" font-size="12.5" font-weight="bold" lengthAdjust="spacing" textLength="17.7734" x="240.1672" y="949.1404">11</text><text fill="#222222" font-family="Verdana" font-size="12.5" lengthAdjust="spacing" textLength="178.3264" x="282.9407" y="941.5446">Send request of cancellation</text><text fill="#222222" font-family="Verdana" font-size="12.5" lengthAdjust="spacing" textLength="631.897" x="282.9407" y="956.7362">POST /sepa-request-to-pay-requests/{sepaRequestToPayRequestResourceId}/cancellation-requests</text></g><path d="M802.0833,989.5691 L802.0833,1027.0691 A4.1667,4.1667 0 0 0 806.25,1031.2358 L925,1031.2358 A4.1667,4.1667 0 0 0 929.1667,1027.0691 L929.1667,995.8191 L918.75,985.4024 L806.25,985.4024 A4.1667,4.1667 0 0 0 802.0833,989.5691" fill="url(#gkigfsbwap86x2)" filter="url(#fkigfsbwap86x)" style="stroke:#9C27B0;stroke-width:1.0417;"/><path d="M918.75,985.4024 L918.75,993.7358 A2.0833,2.0833 0 0 0 920.8333,995.8191 L929.1667,995.8191 L918.75,985.4024" fill="url(#gkigfsbwap86x2)" style="stroke:#9C27B0;stroke-width:1.0417;"/><text fill="#FFFFFF" font-family="Verdana" font-size="12.5" lengthAdjust="spacing" textLength="84.4055" x="818.75" y="1013.5946">Retry if failed</text><path d="M111.672,1047.4691 L193.5303,1047.4691 L193.5303,1075.1607 L183.1136,1085.5774 L107.5053,1085.5774 L107.5053,1051.6357 A4.1667,4.1667 0 0 1 111.672,1047.4691" fill="#FFFFFF" style="stroke:#666666;stroke-width:1.0417;"/><rect fill="none" height="478.9998" rx="4.1667" ry="4.1667" style="stroke:#2196F3;stroke-width:1.0417;" width="919.6686" x="107.5053" y="1047.4691"/><text fill="#9C27B0" font-family="Verdana" font-size="12.5" font-weight="bold" lengthAdjust="spacing" textLength="18.3167" x="133.547" y="1071.4945">alt</text><text fill="#222222" font-family="Verdana" font-size="12.5" font-weight="bold" lengthAdjust="spacing" textLength="120.7703" x="219.5719" y="1072.5362">[Async flow EPC]</text><g class="message" data-participant-1="DSP" data-participant-2="SENDER"><polygon fill="#2196F3" points="233.9172,1144.0857,223.5006,1148.2524,233.9172,1152.419,229.7506,1148.2524" style="stroke:#2196F3;stroke-width:1.0417;"/><line style="stroke:#2196F3;stroke-width:3.125;stroke-dasharray:2.0833,2.0833;" x1="227.6672" x2="936.7126" y1="1148.2524" y2="1148.2524"/><text fill="#222222" font-family="Verdana" font-size="12.5" font-weight="bold" lengthAdjust="spacing" textLength="17.7734" x="250.5839" y="1133.1278">12</text><text fill="#222222" font-family="Verdana" font-size="12.5" lengthAdjust="spacing" textLength="98.3459" x="293.3573" y="1133.1278">OK empty Body</text></g><g class="message" data-participant-1="SENDER" data-participant-2="SENDER"><line style="stroke:#2196F3;stroke-width:3.125;" x1="222.4589" x2="266.2089" y1="1198.8607" y2="1198.8607"/><line style="stroke:#2196F3;stroke-width:3.125;" x1="266.2089" x2="266.2089" y1="1198.8607" y2="1212.4023"/><line style="stroke:#2196F3;stroke-width:3.125;" x1="223.5006" x2="266.2089" y1="1212.4023" y2="1212.4023"/><polygon fill="#2196F3" points="233.9172,1208.2357,223.5006,1212.4023,233.9172,1216.569,229.7506,1212.4023" style="stroke:#2196F3;stroke-width:1.0417;"/><text fill="#222222" font-family="Verdana" font-size="12.5" font-weight="bold" lengthAdjust="spacing" textLength="17.7734" x="240.1672" y="1183.7362">13</text><text fill="#222222" font-family="Verdana" font-size="12.5" lengthAdjust="spacing" textLength="196.1792" x="282.9407" y="1183.7362">update RTP status (RFC_SENT)</text></g><line style="stroke:#2196F3;stroke-width:1.0417;stroke-dasharray:2.0833,2.0833;" x1="107.5053" x2="1027.1739" y1="1221.7773" y2="1221.7773"/><text fill="#222222" font-family="Verdana" font-size="12.5" font-weight="bold" lengthAdjust="spacing" textLength="112.5305" x="123.1303" y="1244.7611">[Sync flow EPC]</text><g class="message" data-participant-1="DSP" data-participant-2="SENDER"><polygon fill="#2196F3" points="233.9172,1296.9523,223.5006,1301.119,233.9172,1305.2856,229.7506,1301.119" style="stroke:#2196F3;stroke-width:1.0417;"/><line style="stroke:#2196F3;stroke-width:3.125;stroke-dasharray:2.0833,2.0833;" x1="227.6672" x2="936.7126" y1="1301.119" y2="1301.119"/><text fill="#222222" font-family="Verdana" font-size="12.5" font-weight="bold" lengthAdjust="spacing" textLength="17.7734" x="250.5839" y="1285.9945">14</text><text fill="#222222" font-family="Verdana" font-size="12.5" lengthAdjust="spacing" textLength="71.8994" x="293.3573" y="1285.9945">OK payload</text></g><g class="message" data-participant-1="SENDER" data-participant-2="SENDER"><line style="stroke:#2196F3;stroke-width:3.125;" x1="222.4589" x2="266.2089" y1="1351.7273" y2="1351.7273"/><line style="stroke:#2196F3;stroke-width:3.125;" x1="266.2089" x2="266.2089" y1="1351.7273" y2="1365.269"/><line style="stroke:#2196F3;stroke-width:3.125;" x1="223.5006" x2="266.2089" y1="1365.269" y2="1365.269"/><polygon fill="#2196F3" points="233.9172,1361.1023,223.5006,1365.269,233.9172,1369.4356,229.7506,1365.269" style="stroke:#2196F3;stroke-width:1.0417;"/><text fill="#222222" font-family="Verdana" font-size="12.5" font-weight="bold" lengthAdjust="spacing" textLength="17.7734" x="240.1672" y="1336.6028">15</text><text fill="#222222" font-family="Verdana" font-size="12.5" lengthAdjust="spacing" textLength="204.834" x="282.9407" y="1336.6028">update RTP status (CANCELLED)</text></g><line style="stroke:#2196F3;stroke-width:1.0417;stroke-dasharray:2.0833,2.0833;" x1="107.5053" x2="1027.1739" y1="1374.644" y2="1374.644"/><text fill="#222222" font-family="Verdana" font-size="12.5" font-weight="bold" lengthAdjust="spacing" textLength="158.606" x="123.1303" y="1397.6278">[Error Sync Response]</text><g class="message" data-participant-1="DSP" data-participant-2="SENDER"><polygon fill="#2196F3" points="233.9172,1449.8189,223.5006,1453.9856,233.9172,1458.1523,229.7506,1453.9856" style="stroke:#2196F3;stroke-width:1.0417;"/><line style="stroke:#2196F3;stroke-width:3.125;stroke-dasharray:2.0833,2.0833;" x1="227.6672" x2="936.7126" y1="1453.9856" y2="1453.9856"/><text fill="#222222" font-family="Verdana" font-size="12.5" font-weight="bold" lengthAdjust="spacing" textLength="17.7734" x="250.5839" y="1438.8611">16</text><text fill="#222222" font-family="Verdana" font-size="12.5" lengthAdjust="spacing" textLength="31.4941" x="293.3573" y="1438.8611">Error</text></g><g class="message" data-participant-1="SENDER" data-participant-2="SENDER"><line style="stroke:#2196F3;stroke-width:3.125;" x1="222.4589" x2="266.2089" y1="1504.5939" y2="1504.5939"/><line style="stroke:#2196F3;stroke-width:3.125;" x1="266.2089" x2="266.2089" y1="1504.5939" y2="1518.1356"/><line style="stroke:#2196F3;stroke-width:3.125;" x1="223.5006" x2="266.2089" y1="1518.1356" y2="1518.1356"/><polygon fill="#2196F3" points="233.9172,1513.9689,223.5006,1518.1356,233.9172,1522.3022,229.7506,1518.1356" style="stroke:#2196F3;stroke-width:1.0417;"/><text fill="#222222" font-family="Verdana" font-size="12.5" font-weight="bold" lengthAdjust="spacing" textLength="17.7734" x="240.1672" y="1489.4694">17</text><text fill="#222222" font-family="Verdana" font-size="12.5" lengthAdjust="spacing" textLength="232.1045" x="282.9407" y="1489.4694">update RTP status (ERROR_CANCEL)</text></g><line style="stroke:#2196F3;stroke-width:1.0417;stroke-dasharray:2.0833,2.0833;" x1="97.0886" x2="1037.5905" y1="1534.8022" y2="1534.8022"/><text fill="#222222" font-family="Verdana" font-size="12.5" font-weight="bold" lengthAdjust="spacing" textLength="117.7124" x="112.7136" y="1557.7861">[RTP Not Found]</text><g class="message" data-participant-1="SRTP" data-participant-2="SENDER"><polygon fill="#2196F3" points="233.9172,1609.9772,223.5006,1614.1439,233.9172,1618.3105,229.7506,1614.1439" style="stroke:#2196F3;stroke-width:1.0417;"/><line style="stroke:#2196F3;stroke-width:3.125;stroke-dasharray:2.0833,2.0833;" x1="227.6672" x2="680.9275" y1="1614.1439" y2="1614.1439"/><text fill="#222222" font-family="Verdana" font-size="12.5" font-weight="bold" lengthAdjust="spacing" textLength="17.7734" x="250.5839" y="1599.0194">18</text><text fill="#222222" font-family="Verdana" font-size="12.5" lengthAdjust="spacing" textLength="60.4065" x="293.3573" y="1599.0194">not found</text></g><!--SRC=[bLJBRjiw4DtpAwRPj07gfDrwKI2rb29j7eRaTdC355DnP1EbIPMad0f5_xr3Ah9bExVtHXj9dCSvCsSuBs6kqOJFDzUGALmwN4Dj7HIBESpGLAGr1cKDNColn4jOgA1f2f-DgXN9Ow-IVhJ4_qCk3lb2phDf2c_FtfozuOECVELK4zBXOgKyo4TWlx8F7iAAG590fHcXSROYxnEdgaTIPWbe8lPhphRthDNFQ8qPc2_uXYecMlNS7bHO9HDMeKKD7t63uCbj5FD58w6o9ZYhDJdGTgcgCo5UiF-QO8s1d48XGgm_bPsHfa1mgUs340swe2hLS2FXvAQSbFbjbXSdW1xwJo4nu3Vq12S5IUNlpQihIUl61kvM1v-eWp9OHwSffiYpgt8SifYNVJB-sWVBodcoy5i8R8CrxVeREI7-iPDtZ-1J-90nuVmwN-H06pA1NQkWDbpLm4_qR-2WX3w5QaNLTnYnd33BNLpFKQ0EXpw0sX7AZhKZ7y6YCiaT9YDEtzcpjgsHoIxf87Cyt74QWhXr5Je9icrqr9KdPCtZWKjA0OPPW5FBLPZ2JNy-OfCcYUIzuLaQJfKP33muWZIt-x0SJle_IebUktAEkkbnSvJvBzcY-xyqvh0pF19Jg9MHHMZUTtSDkJJkcV8D1XRH3KWxoUCKzKUiNXpcootnb3mUZHaTkunOxR8zBTa6jPA9FcVn0KFhjzvZlVRsY8jxn0UMHmKLPNuAWMT-oXk7R-xWRkjXIQGqzsP-LoxWt5E3aqUVIR2J1hlXrv__YjQY_rlOENQFtmLvsxgAhkJlyt7IRUIMqROLyHBkbQQfJgJ61fQSWkF9gw5EEsvhYPN4i5sjKPyBtvaAQjupaCzdOhpkEEsUJdUVW0SiTF3UocxFyrYMjZaG1LuLbxElR5wSxXZ5-r0-1vzRgotAvuFFBcvd-VLrdXsWvyxnTKqSM9766az_vP3ydm-V5yLTyRKdSJfMH3mrysdRRYd6FBTy_V_Z5krlYATkqG2POCV6VaV_0G00]--></g></svg>