<svg xmlns="http://www.w3.org/2000/svg" xmlns:xlink="http://www.w3.org/1999/xlink" contentStyleType="text/css" data-diagram-type="SEQUENCE" height="1737.5px" preserveAspectRatio="none" style="width:1543px;height:1737px;" version="1.1" viewBox="0 0 1543 1737" width="1543.75px" zoomAndPan="magnify"><title>RTP Create Flow</title><defs><linearGradient id="gwmydt09v3f2q0" x1="50%" x2="50%" y1="0%" y2="100%"><stop offset="0%" stop-color="#FFFFFF"/><stop offset="100%" stop-color="#FFFFFF"/></linearGradient><filter height="300%" id="fwmydt09v3f2q" width="300%" x="-1" y="-1"><feGaussianBlur result="blurOut" stdDeviation="2.0833"/><feColorMatrix in="blurOut" result="blurOut2" type="matrix" values="0 0 0 0 0 0 0 0 0 0 0 0 0 0 0 0 0 0 .4 0"/><feOffset dx="4.1667" dy="4.1667" in="blurOut2" result="blurOut3"/><feBlend in="SourceGraphic" in2="blurOut3" mode="normal"/></filter><linearGradient id="gwmydt09v3f2q1" x1="50%" x2="50%" y1="0%" y2="100%"><stop offset="0%" stop-color="#4DABF5"/><stop offset="100%" stop-color="#2196F3"/></linearGradient><linearGradient id="gwmydt09v3f2q2" x1="50%" x2="50%" y1="0%" y2="100%"><stop offset="0%" stop-color="#B052C0"/><stop offset="100%" stop-color="#9C27B0"/></linearGradient></defs><g><rect fill="url(#gwmydt09v3f2q0)" height="58.6528" rx="4.1667" ry="4.1667" style="stroke:#CCCCCC;stroke-width:1.0417;" width="225.2279" x="660.494" y="20.8333"/><text fill="#2196F3" font-family="Verdana" font-size="20.8333" font-weight="bold" lengthAdjust="spacing" textLength="191.8945" x="677.1606" y="58.4452">RTP Create Flow</text><g><title>MS-SENDER</title><rect fill="#FFFFFF" filter="url(#fwmydt09v3f2q)" height="1363.4745" style="stroke:#CCCCCC;stroke-width:1.0417;" width="10.4167" x="335.3882" y="242.7694"/></g><g><title>Redis</title><rect fill="#FFFFFF" filter="url(#fwmydt09v3f2q)" height="116.4083" style="stroke:#CCCCCC;stroke-width:1.0417;" width="10.4167" x="654.0161" y="293.3777"/></g><g><title>MS-ACTIVATOR</title><rect fill="#FFFFFF" filter="url(#fwmydt09v3f2q)" height="116.4083" style="stroke:#CCCCCC;stroke-width:1.0417;" width="10.4167" x="867.922" y="725.5025"/></g><g><title>RTPS</title><rect fill="#FFFFFF" filter="url(#fwmydt09v3f2q)" height="50.6083" style="stroke:#CCCCCC;stroke-width:1.0417;" width="10.4167" x="1018.2139" y="1067.2607"/></g><g><title>RTPS</title><rect fill="#FFFFFF" filter="url(#fwmydt09v3f2q)" height="50.6083" style="stroke:#CCCCCC;stroke-width:1.0417;" width="10.4167" x="1018.2139" y="1444.0023"/></g><g><title>Service Registry</title><rect fill="#FFFFFF" filter="url(#fwmydt09v3f2q)" height="55.2958" style="stroke:#CCCCCC;stroke-width:1.0417;" width="10.4167" x="1122.9685" y="897.2066"/></g><g><title>CBI</title><rect fill="#FFFFFF" filter="url(#fwmydt09v3f2q)" height="50.6083" style="stroke:#CCCCCC;stroke-width:1.0417;" width="10.4167" x="1270.1599" y="1234.2773"/></g><g><title>DSP</title><rect fill="#FFFFFF" filter="url(#fwmydt09v3f2q)" height="50.6083" style="stroke:#CCCCCC;stroke-width:1.0417;" width="10.4167" x="1426.5879" y="1342.7856"/></g><rect fill="url(#gwmydt09v3f2q0)" filter="url(#fwmydt09v3f2q)" height="1289.9495" rx="4.1667" ry="4.1667" style="stroke:#2196F3;stroke-width:1.0417;" width="1506.6325" x="19.7917" y="309.0027"/><path d="M19.7917,493.2943 L1526.4242,493.2943 L1526.4242,1594.7856 A4.1667,4.1667 0 0 1 1522.2575,1598.9522 L23.9583,1598.9522 A4.1667,4.1667 0 0 1 19.7917,1594.7856 L19.7917,493.2943" fill="url(#gwmydt09v3f2q0)" style="stroke:none;stroke-width:1.0417;"/><rect fill="url(#gwmydt09v3f2q0)" filter="url(#fwmydt09v3f2q)" height="850.533" rx="4.1667" ry="4.1667" style="stroke:#2196F3;stroke-width:1.0417;" width="1485.7992" x="30.2083" y="741.1275"/><rect fill="url(#gwmydt09v3f2q0)" filter="url(#fwmydt09v3f2q)" height="159.7249" rx="4.1667" ry="4.1667" style="stroke:#2196F3;stroke-width:1.0417;" width="1127.1505" x="230.8512" y="1133.4941"/><path d="M30.2083,1502.9439 L1516.0075,1502.9439 L1516.0075,1587.4939 A4.1667,4.1667 0 0 1 1511.8408,1591.6606 L34.375,1591.6606 A4.1667,4.1667 0 0 1 30.2083,1587.4939 L30.2083,1502.9439" fill="url(#gwmydt09v3f2q0)" style="stroke:none;stroke-width:1.0417;"/><g><title>MS-SENDER</title><rect fill="#000000" fill-opacity="0.00000" height="1426.5828" width="8.3333" x="336.4299" y="190.0777"/><line style="stroke:#CCCCCC;stroke-width:1.0417;stroke-dasharray:5.2083,5.2083;" x1="340.2262" x2="340.2262" y1="190.0777" y2="1616.6606"/></g><g><title>Redis</title><rect fill="#000000" fill-opacity="0.00000" height="1426.5828" width="8.3333" x="655.0578" y="190.0777"/><line style="stroke:#CCCCCC;stroke-width:1.0417;stroke-dasharray:5.2083,5.2083;" x1="658.5388" x2="658.5388" y1="190.0777" y2="1616.6606"/></g><g><title>MS-ACTIVATOR</title><rect fill="#000000" fill-opacity="0.00000" height="1426.5828" width="8.3333" x="868.9636" y="190.0777"/><line style="stroke:#CCCCCC;stroke-width:1.0417;stroke-dasharray:5.2083,5.2083;" x1="872.4101" x2="872.4101" y1="190.0777" y2="1616.6606"/></g><g><title>RTPS</title><rect fill="#000000" fill-opacity="0.00000" height="1426.5828" width="8.3333" x="1019.2556" y="190.0777"/><line style="stroke:#CCCCCC;stroke-width:1.0417;stroke-dasharray:5.2083,5.2083;" x1="1022.8088" x2="1022.8088" y1="190.0777" y2="1616.6606"/></g><g><title>Service Registry</title><rect fill="#000000" fill-opacity="0.00000" height="1426.5828" width="8.3333" x="1124.0102" y="190.0777"/><line style="stroke:#CCCCCC;stroke-width:1.0417;stroke-dasharray:5.2083,5.2083;" x1="1127.1606" x2="1127.1606" y1="190.0777" y2="1616.6606"/></g><g><title>CBI</title><rect fill="#000000" fill-opacity="0.00000" height="1426.5828" width="8.3333" x="1271.2016" y="190.0777"/><line style="stroke:#CCCCCC;stroke-width:1.0417;stroke-dasharray:5.2083,5.2083;" x1="1275.0264" x2="1275.0264" y1="190.0777" y2="1616.6606"/></g><g><title>DSP</title><rect fill="#000000" fill-opacity="0.00000" height="1426.5828" width="8.3333" x="1427.6296" y="190.0777"/><line style="stroke:#CCCCCC;stroke-width:1.0417;stroke-dasharray:5.2083,5.2083;" x1="1430.9184" x2="1430.9184" y1="190.0777" y2="1616.6606"/></g><g class="participant participant-head" data-participant="SENDER"><rect fill="url(#gwmydt09v3f2q1)" filter="url(#fwmydt09v3f2q)" height="50.6083" rx="4.1667" ry="4.1667" style="stroke:#2196F3;stroke-width:1.0417;" width="112.1989" x="282.9346" y="135.3027"/><text fill="#FFFFFF" font-family="Verdana" font-size="12.5" lengthAdjust="spacing" textLength="76.7822" x="300.6429" y="165.5782">MS-SENDER</text></g><g class="participant participant-tail" data-participant="SENDER"><rect fill="url(#gwmydt09v3f2q1)" filter="url(#fwmydt09v3f2q)" height="50.6083" rx="4.1667" ry="4.1667" style="stroke:#2196F3;stroke-width:1.0417;" width="112.1989" x="282.9346" y="1615.6189"/><text fill="#FFFFFF" font-family="Verdana" font-size="12.5" lengthAdjust="spacing" textLength="76.7822" x="300.6429" y="1645.8944">MS-SENDER</text></g><g class="participant participant-head" data-participant="REDIS"><text fill="#222222" font-family="Verdana" font-size="12.5" lengthAdjust="spacing" textLength="33.8684" x="639.1652" y="161.8449">Redis</text><text fill="#222222" font-family="Verdana" font-size="12.5" lengthAdjust="spacing" textLength="159.7046" x="576.2472" y="177.0365">(Idempotency Key Store)</text><path d="M640.4744,101.3611 C640.4744,90.9444 659.2244,90.9444 659.2244,90.9444 C659.2244,90.9444 677.9744,90.9444 677.9744,101.3611 L677.9744,128.4444 C677.9744,138.8611 659.2244,138.8611 659.2244,138.8611 C659.2244,138.8611 640.4744,138.8611 640.4744,128.4444 L640.4744,101.3611" fill="url(#gwmydt09v3f2q1)" filter="url(#fwmydt09v3f2q)" style="stroke:#2196F3;stroke-width:1.0417;"/><path d="M640.4744,101.3611 C640.4744,111.7778 659.2244,111.7778 659.2244,111.7778 C659.2244,111.7778 677.9744,111.7778 677.9744,101.3611" fill="none" style="stroke:#2196F3;stroke-width:1.0417;"/></g><g class="participant participant-tail" data-participant="REDIS"><text fill="#222222" font-family="Verdana" font-size="12.5" lengthAdjust="spacing" textLength="33.8684" x="639.1652" y="1638.6027">Redis</text><text fill="#222222" font-family="Verdana" font-size="12.5" lengthAdjust="spacing" textLength="159.7046" x="576.2472" y="1653.7944">(Idempotency Key Store)</text><path d="M640.4744,1677.2522 C640.4744,1666.8355 659.2244,1666.8355 659.2244,1666.8355 C659.2244,1666.8355 677.9744,1666.8355 677.9744,1677.2522 L677.9744,1704.3355 C677.9744,1714.7522 659.2244,1714.7522 659.2244,1714.7522 C659.2244,1714.7522 640.4744,1714.7522 640.4744,1704.3355 L640.4744,1677.2522" fill="url(#gwmydt09v3f2q1)" filter="url(#fwmydt09v3f2q)" style="stroke:#2196F3;stroke-width:1.0417;"/><path d="M640.4744,1677.2522 C640.4744,1687.6689 659.2244,1687.6689 659.2244,1687.6689 C659.2244,1687.6689 677.9744,1687.6689 677.9744,1677.2522" fill="none" style="stroke:#2196F3;stroke-width:1.0417;"/></g><g class="participant participant-head" data-participant="GR"><rect fill="url(#gwmydt09v3f2q1)" filter="url(#fwmydt09v3f2q)" height="50.6083" rx="4.1667" ry="4.1667" style="stroke:#2196F3;stroke-width:1.0417;" width="133.7321" x="804.7017" y="135.3027"/><text fill="#FFFFFF" font-family="Verdana" font-size="12.5" lengthAdjust="spacing" textLength="98.3154" x="822.4101" y="165.5782">MS-ACTIVATOR</text></g><g class="participant participant-tail" data-participant="GR"><rect fill="url(#gwmydt09v3f2q1)" filter="url(#fwmydt09v3f2q)" height="50.6083" rx="4.1667" ry="4.1667" style="stroke:#2196F3;stroke-width:1.0417;" width="133.7321" x="804.7017" y="1615.6189"/><text fill="#FFFFFF" font-family="Verdana" font-size="12.5" lengthAdjust="spacing" textLength="98.3154" x="822.4101" y="1645.8944">MS-ACTIVATOR</text></g><g class="participant participant-head" data-participant="SRTP"><text fill="#222222" font-family="Verdana" font-size="12.5" lengthAdjust="spacing" textLength="32.4768" x="1004.0588" y="177.0365">RTPS</text><path d="M1004.6722,116.5527 C1004.6722,106.1361 1023.4222,106.1361 1023.4222,106.1361 C1023.4222,106.1361 1042.1722,106.1361 1042.1722,116.5527 L1042.1722,143.6361 C1042.1722,154.0527 1023.4222,154.0527 1023.4222,154.0527 C1023.4222,154.0527 1004.6722,154.0527 1004.6722,143.6361 L1004.6722,116.5527" fill="url(#gwmydt09v3f2q1)" filter="url(#fwmydt09v3f2q)" style="stroke:#2196F3;stroke-width:1.0417;"/><path d="M1004.6722,116.5527 C1004.6722,126.9694 1023.4222,126.9694 1023.4222,126.9694 C1023.4222,126.9694 1042.1722,126.9694 1042.1722,116.5527" fill="none" style="stroke:#2196F3;stroke-width:1.0417;"/></g><g class="participant participant-tail" data-participant="SRTP"><text fill="#222222" font-family="Verdana" font-size="12.5" lengthAdjust="spacing" textLength="32.4768" x="1004.0588" y="1638.6027">RTPS</text><path d="M1004.6722,1662.0605 C1004.6722,1651.6439 1023.4222,1651.6439 1023.4222,1651.6439 C1023.4222,1651.6439 1042.1722,1651.6439 1042.1722,1662.0605 L1042.1722,1689.1439 C1042.1722,1699.5605 1023.4222,1699.5605 1023.4222,1699.5605 C1023.4222,1699.5605 1004.6722,1699.5605 1004.6722,1689.1439 L1004.6722,1662.0605" fill="url(#gwmydt09v3f2q1)" filter="url(#fwmydt09v3f2q)" style="stroke:#2196F3;stroke-width:1.0417;"/><path d="M1004.6722,1662.0605 C1004.6722,1672.4772 1023.4222,1672.4772 1023.4222,1672.4772 C1023.4222,1672.4772 1042.1722,1672.4772 1042.1722,1662.0605" fill="none" style="stroke:#2196F3;stroke-width:1.0417;"/></g><g class="participant participant-head" data-participant="SR"><text fill="#222222" font-family="Verdana" font-size="12.5" lengthAdjust="spacing" textLength="102.0325" x="1074.0356" y="161.8449">Service Registry</text><text fill="#222222" font-family="Verdana" font-size="12.5" lengthAdjust="spacing" textLength="45.2881" x="1102.4078" y="177.0365">(BLOB)</text><path d="M1109.4269,101.3611 C1109.4269,90.9444 1128.1769,90.9444 1128.1769,90.9444 C1128.1769,90.9444 1146.9269,90.9444 1146.9269,101.3611 L1146.9269,128.4444 C1146.9269,138.8611 1128.1769,138.8611 1128.1769,138.8611 C1128.1769,138.8611 1109.4269,138.8611 1109.4269,128.4444 L1109.4269,101.3611" fill="url(#gwmydt09v3f2q1)" filter="url(#fwmydt09v3f2q)" style="stroke:#2196F3;stroke-width:1.0417;"/><path d="M1109.4269,101.3611 C1109.4269,111.7778 1128.1769,111.7778 1128.1769,111.7778 C1128.1769,111.7778 1146.9269,111.7778 1146.9269,101.3611" fill="none" style="stroke:#2196F3;stroke-width:1.0417;"/></g><g class="participant participant-tail" data-participant="SR"><text fill="#222222" font-family="Verdana" font-size="12.5" lengthAdjust="spacing" textLength="102.0325" x="1074.0356" y="1638.6027">Service Registry</text><text fill="#222222" font-family="Verdana" font-size="12.5" lengthAdjust="spacing" textLength="45.2881" x="1102.4078" y="1653.7944">(BLOB)</text><path d="M1109.4269,1677.2522 C1109.4269,1666.8355 1128.1769,1666.8355 1128.1769,1666.8355 C1128.1769,1666.8355 1146.9269,1666.8355 1146.9269,1677.2522 L1146.9269,1704.3355 C1146.9269,1714.7522 1128.1769,1714.7522 1128.1769,1714.7522 C1128.1769,1714.7522 1109.4269,1714.7522 1109.4269,1704.3355 L1109.4269,1677.2522" fill="url(#gwmydt09v3f2q1)" filter="url(#fwmydt09v3f2q)" style="stroke:#2196F3;stroke-width:1.0417;"/><path d="M1109.4269,1677.2522 C1109.4269,1687.6689 1128.1769,1687.6689 1128.1769,1687.6689 C1128.1769,1687.6689 1146.9269,1687.6689 1146.9269,1677.2522" fill="none" style="stroke:#2196F3;stroke-width:1.0417;"/></g><g class="participant participant-head" data-participant="CBI"><rect fill="url(#gwmydt09v3f2q1)" filter="url(#fwmydt09v3f2q)" height="50.6083" rx="4.1667" ry="4.1667" style="stroke:#2196F3;stroke-width:1.0417;" width="57.9753" x="1244.8181" y="135.3027"/><text fill="#FFFFFF" font-family="Verdana" font-size="12.5" lengthAdjust="spacing" textLength="22.5586" x="1262.5264" y="165.5782">CBI</text></g><g class="participant participant-tail" data-participant="CBI"><rect fill="url(#gwmydt09v3f2q1)" filter="url(#fwmydt09v3f2q)" height="50.6083" rx="4.1667" ry="4.1667" style="stroke:#2196F3;stroke-width:1.0417;" width="57.9753" x="1244.8181" y="1615.6189"/><text fill="#FFFFFF" font-family="Verdana" font-size="12.5" lengthAdjust="spacing" textLength="22.5586" x="1262.5264" y="1645.8944">CBI</text></g><g class="participant participant-head" data-participant="DSP"><rect fill="url(#gwmydt09v3f2q1)" filter="url(#fwmydt09v3f2q)" height="50.6083" rx="4.1667" ry="4.1667" style="stroke:#2196F3;stroke-width:1.0417;" width="61.1308" x="1399.6684" y="135.3027"/><text fill="#FFFFFF" font-family="Verdana" font-size="12.5" lengthAdjust="spacing" textLength="25.7141" x="1417.3767" y="165.5782">DSP</text></g><g class="participant participant-tail" data-participant="DSP"><rect fill="url(#gwmydt09v3f2q1)" filter="url(#fwmydt09v3f2q)" height="50.6083" rx="4.1667" ry="4.1667" style="stroke:#2196F3;stroke-width:1.0417;" width="61.1308" x="1399.6684" y="1615.6189"/><text fill="#FFFFFF" font-family="Verdana" font-size="12.5" lengthAdjust="spacing" textLength="25.7141" x="1417.3767" y="1645.8944">DSP</text></g><g><title>MS-SENDER</title><rect fill="#FFFFFF" filter="url(#fwmydt09v3f2q)" height="1363.4745" style="stroke:#CCCCCC;stroke-width:1.0417;" width="10.4167" x="335.3882" y="242.7694"/></g><g><title>Redis</title><rect fill="#FFFFFF" filter="url(#fwmydt09v3f2q)" height="116.4083" style="stroke:#CCCCCC;stroke-width:1.0417;" width="10.4167" x="654.0161" y="293.3777"/></g><g><title>MS-ACTIVATOR</title><rect fill="#FFFFFF" filter="url(#fwmydt09v3f2q)" height="116.4083" style="stroke:#CCCCCC;stroke-width:1.0417;" width="10.4167" x="867.922" y="725.5025"/></g><g><title>RTPS</title><rect fill="#FFFFFF" filter="url(#fwmydt09v3f2q)" height="50.6083" style="stroke:#CCCCCC;stroke-width:1.0417;" width="10.4167" x="1018.2139" y="1067.2607"/></g><g><title>RTPS</title><rect fill="#FFFFFF" filter="url(#fwmydt09v3f2q)" height="50.6083" style="stroke:#CCCCCC;stroke-width:1.0417;" width="10.4167" x="1018.2139" y="1444.0023"/></g><g><title>Service Registry</title><rect fill="#FFFFFF" filter="url(#fwmydt09v3f2q)" height="55.2958" style="stroke:#CCCCCC;stroke-width:1.0417;" width="10.4167" x="1122.9685" y="897.2066"/></g><g><title>CBI</title><rect fill="#FFFFFF" filter="url(#fwmydt09v3f2q)" height="50.6083" style="stroke:#CCCCCC;stroke-width:1.0417;" width="10.4167" x="1270.1599" y="1234.2773"/></g><g><title>DSP</title><rect fill="#FFFFFF" filter="url(#fwmydt09v3f2q)" height="50.6083" style="stroke:#CCCCCC;stroke-width:1.0417;" width="10.4167" x="1426.5879" y="1342.7856"/></g><g class="message" data-participant-1="SENDER" data-participant-2="SENDER"><ellipse cx="18.2292" cy="241.9881" fill="none" rx="4.1667" ry="4.1667" style="stroke:#2196F3;stroke-width:1.5625;"/><polygon fill="#2196F3" points="322.8882,238.6027,333.3049,242.7694,322.8882,246.936,327.0549,242.7694" style="stroke:#2196F3;stroke-width:1.0417;"/><line style="stroke:#2196F3;stroke-width:3.125;" x1="22.9167" x2="329.1382" y1="242.7694" y2="242.7694"/><text fill="#222222" font-family="Verdana" font-size="12.5" font-weight="bold" lengthAdjust="spacing" textLength="8.8867" x="36.4583" y="227.6449">1</text><text fill="#222222" font-family="Verdana" font-size="12.5" lengthAdjust="spacing" textLength="120.2515" x="70.3451" y="227.6449">GDP CREATE event</text></g><g class="message" data-participant-1="SENDER" data-participant-2="REDIS"><polygon fill="#2196F3" points="641.5161,289.211,651.9328,293.3777,641.5161,297.5444,645.6828,293.3777" style="stroke:#2196F3;stroke-width:1.0417;"/><line style="stroke:#2196F3;stroke-width:3.125;" x1="345.8049" x2="647.7661" y1="293.3777" y2="293.3777"/><text fill="#222222" font-family="Verdana" font-size="12.5" font-weight="bold" lengthAdjust="spacing" textLength="8.8867" x="363.5132" y="278.2532">2</text><text fill="#222222" font-family="Verdana" font-size="12.5" lengthAdjust="spacing" textLength="151.5747" x="397.3999" y="278.2532">check Idempotency-Key</text></g><path d="M23.9583,309.0027 L105.8167,309.0027 L105.8167,336.6943 L95.4,347.111 L19.7917,347.111 L19.7917,313.1694 A4.1667,4.1667 0 0 1 23.9583,309.0027" fill="#FFFFFF" style="stroke:#666666;stroke-width:1.0417;"/><rect fill="none" height="1289.9495" rx="4.1667" ry="4.1667" style="stroke:#2196F3;stroke-width:1.0417;" width="1506.6325" x="19.7917" y="309.0027"/><text fill="#9C27B0" font-family="Verdana" font-size="12.5" font-weight="bold" lengthAdjust="spacing" textLength="18.3167" x="45.8333" y="333.0282">alt</text><text fill="#222222" font-family="Verdana" font-size="12.5" font-weight="bold" lengthAdjust="spacing" textLength="252.9419" x="131.8583" y="334.0698">[Idempotency-Key already present]</text><g class="message" data-participant-1="REDIS" data-participant-2="SENDER"><polygon fill="#2196F3" points="357.2632,405.6193,346.8465,409.786,357.2632,413.9526,353.0965,409.786" style="stroke:#2196F3;stroke-width:1.0417;"/><line style="stroke:#2196F3;stroke-width:3.125;stroke-dasharray:2.0833,2.0833;" x1="351.0132" x2="658.1828" y1="409.786" y2="409.786"/><text fill="#222222" font-family="Verdana" font-size="12.5" font-weight="bold" lengthAdjust="spacing" textLength="8.8867" x="373.9299" y="394.6615">3</text><text fill="#222222" font-family="Verdana" font-size="12.5" lengthAdjust="spacing" textLength="62.2253" x="407.8166" y="394.6615">key found</text></g><g class="message" data-participant-1="SENDER" data-participant-2="SENDER"><line style="stroke:#2196F3;stroke-width:3.125;" x1="345.8049" x2="389.5549" y1="465.9068" y2="465.9068"/><line style="stroke:#2196F3;stroke-width:3.125;" x1="389.5549" x2="389.5549" y1="465.9068" y2="479.4484"/><line style="stroke:#2196F3;stroke-width:3.125;" x1="346.8465" x2="389.5549" y1="479.4484" y2="479.4484"/><polygon fill="#2196F3" points="357.2632,475.2818,346.8465,479.4484,357.2632,483.6151,353.0965,479.4484" style="stroke:#2196F3;stroke-width:1.0417;"/><text fill="#222222" font-family="Verdana" font-size="12.5" font-weight="bold" lengthAdjust="spacing" textLength="8.8867" x="363.5132" y="450.7823">4</text><text fill="#222222" font-family="Verdana" font-size="12.5" lengthAdjust="spacing" textLength="173.5596" x="397.3999" y="450.7823">discard duplicated message</text></g><path d="M603.2796,427.4943 L603.2796,480.6193 A4.1667,4.1667 0 0 0 607.4463,484.786 L813.6963,484.786 A4.1667,4.1667 0 0 0 817.863,480.6193 L817.863,433.7443 L807.4463,423.3276 L607.4463,423.3276 A4.1667,4.1667 0 0 0 603.2796,427.4943" fill="url(#gwmydt09v3f2q2)" filter="url(#fwmydt09v3f2q)" style="stroke:#9C27B0;stroke-width:1.0417;"/><path d="M807.4463,423.3276 L807.4463,431.661 A2.0833,2.0833 0 0 0 809.5296,433.7443 L817.863,433.7443 L807.4463,423.3276" fill="url(#gwmydt09v3f2q2)" style="stroke:#9C27B0;stroke-width:1.0417;"/><text fill="#FFFFFF" font-family="Verdana" font-size="12.5" lengthAdjust="spacing" textLength="171.875" x="619.9463" y="451.5198">Message already processed</text><text fill="#FFFFFF" font-family="Verdana" font-size="12.5" lengthAdjust="spacing" textLength="150.6775" x="619.9463" y="466.7114">or already in processing</text><line style="stroke:#2196F3;stroke-width:1.0417;stroke-dasharray:2.0833,2.0833;" x1="19.7917" x2="1526.4242" y1="494.3359" y2="494.3359"/><text fill="#222222" font-family="Verdana" font-size="12.5" font-weight="bold" lengthAdjust="spacing" textLength="223.761" x="35.4167" y="517.3197">[Idempotency-Key not present]</text><g class="message" data-participant-1="REDIS" data-participant-2="SENDER"><polygon fill="#2196F3" points="357.2632,569.5109,346.8465,573.6776,357.2632,577.8442,353.0965,573.6776" style="stroke:#2196F3;stroke-width:1.0417;"/><line style="stroke:#2196F3;stroke-width:3.125;stroke-dasharray:2.0833,2.0833;" x1="351.0132" x2="658.1828" y1="573.6776" y2="573.6776"/><text fill="#222222" font-family="Verdana" font-size="12.5" font-weight="bold" lengthAdjust="spacing" textLength="8.8867" x="373.9299" y="558.5531">5</text><text fill="#222222" font-family="Verdana" font-size="12.5" lengthAdjust="spacing" textLength="87.0422" x="407.8166" y="558.5531">key not found</text></g><g class="message" data-participant-1="SENDER" data-participant-2="REDIS"><polygon fill="#2196F3" points="646.7244,620.1192,657.1411,624.2859,646.7244,628.4526,650.8911,624.2859" style="stroke:#2196F3;stroke-width:1.0417;"/><line style="stroke:#2196F3;stroke-width:3.125;" x1="345.8049" x2="652.9744" y1="624.2859" y2="624.2859"/><text fill="#222222" font-family="Verdana" font-size="12.5" font-weight="bold" lengthAdjust="spacing" textLength="8.8867" x="363.5132" y="609.1614">6</text><text fill="#222222" font-family="Verdana" font-size="12.5" lengthAdjust="spacing" textLength="144.6594" x="397.3999" y="609.1614">save Idempotency-Key</text></g><g class="message" data-participant-1="REDIS" data-participant-2="SENDER"><polygon fill="#2196F3" points="357.2632,670.7275,346.8465,674.8942,357.2632,679.0609,353.0965,674.8942" style="stroke:#2196F3;stroke-width:1.0417;"/><line style="stroke:#2196F3;stroke-width:3.125;stroke-dasharray:2.0833,2.0833;" x1="351.0132" x2="658.1828" y1="674.8942" y2="674.8942"/><text fill="#222222" font-family="Verdana" font-size="12.5" font-weight="bold" lengthAdjust="spacing" textLength="8.8867" x="373.9299" y="659.7697">7</text><text fill="#222222" font-family="Verdana" font-size="12.5" lengthAdjust="spacing" textLength="63.2874" x="407.8166" y="659.7697">key saved</text></g><g class="message" data-participant-1="SENDER" data-participant-2="GR"><polygon fill="#2196F3" points="855.422,721.3359,865.8386,725.5025,855.422,729.6692,859.5886,725.5025" style="stroke:#2196F3;stroke-width:1.0417;"/><line style="stroke:#2196F3;stroke-width:3.125;" x1="345.8049" x2="861.672" y1="725.5025" y2="725.5025"/><text fill="#222222" font-family="Verdana" font-size="12.5" font-weight="bold" lengthAdjust="spacing" textLength="8.8867" x="363.5132" y="710.378">8</text><text fill="#222222" font-family="Verdana" font-size="12.5" lengthAdjust="spacing" textLength="144.165" x="397.3999" y="710.378">GET /activations/payer</text></g><path d="M34.375,741.1275 L116.2333,741.1275 L116.2333,768.8192 L105.8167,779.2358 L30.2083,779.2358 L30.2083,745.2942 A4.1667,4.1667 0 0 1 34.375,741.1275" fill="#FFFFFF" style="stroke:#666666;stroke-width:1.0417;"/><rect fill="none" height="850.533" rx="4.1667" ry="4.1667" style="stroke:#2196F3;stroke-width:1.0417;" width="1485.7992" x="30.2083" y="741.1275"/><text fill="#9C27B0" font-family="Verdana" font-size="12.5" font-weight="bold" lengthAdjust="spacing" textLength="18.3167" x="56.25" y="765.153">alt</text><text fill="#222222" font-family="Verdana" font-size="12.5" font-weight="bold" lengthAdjust="spacing" textLength="122.4792" x="142.275" y="766.1947">[payer activated]</text><g class="message" data-participant-1="GR" data-participant-2="SENDER"><polygon fill="#2196F3" points="357.2632,837.7441,346.8465,841.9108,357.2632,846.0775,353.0965,841.9108" style="stroke:#2196F3;stroke-width:1.0417;"/><line style="stroke:#2196F3;stroke-width:3.125;stroke-dasharray:2.0833,2.0833;" x1="351.0132" x2="872.0886" y1="841.9108" y2="841.9108"/><text fill="#222222" font-family="Verdana" font-size="12.5" font-weight="bold" lengthAdjust="spacing" textLength="8.8867" x="373.9299" y="826.7863">9</text><text fill="#222222" font-family="Verdana" font-size="12.5" lengthAdjust="spacing" textLength="150.4272" x="407.8166" y="826.7863">payer + serviceProvider</text></g><g class="message" data-participant-1="SENDER" data-participant-2="SR"><polygon fill="#2196F3" points="1110.4685,893.04,1120.8852,897.2066,1110.4685,901.3733,1114.6352,897.2066" style="stroke:#2196F3;stroke-width:1.0417;"/><line style="stroke:#2196F3;stroke-width:3.125;" x1="345.8049" x2="1116.7185" y1="897.2066" y2="897.2066"/><text fill="#222222" font-family="Verdana" font-size="12.5" font-weight="bold" lengthAdjust="spacing" textLength="17.7734" x="363.5132" y="882.0821">10</text><text fill="#222222" font-family="Verdana" font-size="12.5" lengthAdjust="spacing" textLength="101.2573" x="406.2866" y="882.0821">getRegistryData</text></g><path d="M40.625,859.6191 L40.625,897.1191 A4.1667,4.1667 0 0 0 44.7917,901.2858 L321.875,901.2858 A4.1667,4.1667 0 0 0 326.0417,897.1191 L326.0417,865.8691 L315.625,855.4525 L44.7917,855.4525 A4.1667,4.1667 0 0 0 40.625,859.6191" fill="url(#gwmydt09v3f2q2)" filter="url(#fwmydt09v3f2q)" style="stroke:#9C27B0;stroke-width:1.0417;"/><path d="M315.625,855.4525 L315.625,863.7858 A2.0833,2.0833 0 0 0 317.7083,865.8691 L326.0417,865.8691 L315.625,855.4525" fill="url(#gwmydt09v3f2q2)" style="stroke:#9C27B0;stroke-width:1.0417;"/><text fill="#FFFFFF" font-family="Verdana" font-size="12.5" lengthAdjust="spacing" textLength="243.4387" x="57.2917" y="883.6446">Search key: payerId + serviceProvider</text><g class="message" data-participant-1="SR" data-participant-2="SENDER"><polygon fill="#2196F3" points="357.2632,948.3358,346.8465,952.5024,357.2632,956.6691,353.0965,952.5024" style="stroke:#2196F3;stroke-width:1.0417;"/><line style="stroke:#2196F3;stroke-width:3.125;stroke-dasharray:2.0833,2.0833;" x1="351.0132" x2="1127.1352" y1="952.5024" y2="952.5024"/><text fill="#222222" font-family="Verdana" font-size="12.5" font-weight="bold" lengthAdjust="spacing" textLength="17.7734" x="373.9299" y="937.3779">11</text><text fill="#222222" font-family="Verdana" font-size="12.5" lengthAdjust="spacing" textLength="134.4849" x="416.7033" y="937.3779">Service Provider data</text></g><g class="message" data-participant-1="SENDER" data-participant-2="SENDER"><line style="stroke:#2196F3;stroke-width:3.125;" x1="345.8049" x2="389.5549" y1="1003.1108" y2="1003.1108"/><line style="stroke:#2196F3;stroke-width:3.125;" x1="389.5549" x2="389.5549" y1="1003.1108" y2="1016.6524"/><line style="stroke:#2196F3;stroke-width:3.125;" x1="346.8465" x2="389.5549" y1="1016.6524" y2="1016.6524"/><polygon fill="#2196F3" points="357.2632,1012.4858,346.8465,1016.6524,357.2632,1020.8191,353.0965,1016.6524" style="stroke:#2196F3;stroke-width:1.0417;"/><text fill="#222222" font-family="Verdana" font-size="12.5" font-weight="bold" lengthAdjust="spacing" textLength="17.7734" x="363.5132" y="987.9862">12</text><text fill="#222222" font-family="Verdana" font-size="12.5" lengthAdjust="spacing" textLength="219.6045" x="406.2866" y="987.9862">add activation data to EPC payload</text></g><g class="message" data-participant-1="SENDER" data-participant-2="SRTP"><polygon fill="#2196F3" points="1005.7139,1063.0941,1016.1306,1067.2607,1005.7139,1071.4274,1009.8806,1067.2607" style="stroke:#2196F3;stroke-width:1.0417;"/><line style="stroke:#2196F3;stroke-width:3.125;" x1="345.8049" x2="1011.9639" y1="1067.2607" y2="1067.2607"/><text fill="#222222" font-family="Verdana" font-size="12.5" font-weight="bold" lengthAdjust="spacing" textLength="17.7734" x="363.5132" y="1052.1362">13</text><text fill="#222222" font-family="Verdana" font-size="12.5" lengthAdjust="spacing" textLength="132.0435" x="406.2866" y="1052.1362">save RTP (CREATED)</text></g><g class="message" data-participant-1="SRTP" data-participant-2="SENDER"><polygon fill="#2196F3" points="357.2632,1113.7024,346.8465,1117.8691,357.2632,1122.0357,353.0965,1117.8691" style="stroke:#2196F3;stroke-width:1.0417;"/><line style="stroke:#2196F3;stroke-width:3.125;stroke-dasharray:2.0833,2.0833;" x1="351.0132" x2="1022.3806" y1="1117.8691" y2="1117.8691"/><text fill="#222222" font-family="Verdana" font-size="12.5" font-weight="bold" lengthAdjust="spacing" textLength="17.7734" x="373.9299" y="1102.7445">14</text><text fill="#222222" font-family="Verdana" font-size="12.5" lengthAdjust="spacing" textLength="46.9604" x="416.7033" y="1102.7445">created</text></g><path d="M235.0179,1133.4941 L316.8762,1133.4941 L316.8762,1161.1857 L306.4596,1171.6024 L230.8512,1171.6024 L230.8512,1137.6607 A4.1667,4.1667 0 0 1 235.0179,1133.4941" fill="#FFFFFF" style="stroke:#666666;stroke-width:1.0417;"/><rect fill="none" height="159.7249" rx="4.1667" ry="4.1667" style="stroke:#2196F3;stroke-width:1.0417;" width="1127.1505" x="230.8512" y="1133.4941"/><text fill="#9C27B0" font-family="Verdana" font-size="12.5" font-weight="bold" lengthAdjust="spacing" textLength="18.3167" x="256.8929" y="1157.5195">alt</text><text fill="#222222" font-family="Verdana" font-size="12.5" font-weight="bold" lengthAdjust="spacing" textLength="154.5166" x="342.9179" y="1158.5612">[flag oAuth2 == true]</text><g class="message" data-participant-1="SENDER" data-participant-2="CBI"><polygon fill="#2196F3" points="1257.6599,1230.1107,1268.0766,1234.2773,1257.6599,1238.444,1261.8266,1234.2773" style="stroke:#2196F3;stroke-width:1.0417;"/><line style="stroke:#2196F3;stroke-width:3.125;" x1="345.8049" x2="1263.9099" y1="1234.2773" y2="1234.2773"/><text fill="#222222" font-family="Verdana" font-size="12.5" font-weight="bold" lengthAdjust="spacing" textLength="17.7734" x="363.5132" y="1219.1528">15</text><text fill="#222222" font-family="Verdana" font-size="12.5" lengthAdjust="spacing" textLength="151.0498" x="406.2866" y="1219.1528">OAuth2 token exchange</text></g><g class="message" data-participant-1="CBI" data-participant-2="SENDER"><polygon fill="#2196F3" points="357.2632,1280.719,346.8465,1284.8857,357.2632,1289.0523,353.0965,1284.8857" style="stroke:#2196F3;stroke-width:1.0417;"/><line style="stroke:#2196F3;stroke-width:3.125;stroke-dasharray:2.0833,2.0833;" x1="351.0132" x2="1274.3266" y1="1284.8857" y2="1284.8857"/><text fill="#222222" font-family="Verdana" font-size="12.5" font-weight="bold" lengthAdjust="spacing" textLength="17.7734" x="373.9299" y="1269.7611">16</text><text fill="#222222" font-family="Verdana" font-size="12.5" lengthAdjust="spacing" textLength="166.095" x="416.7033" y="1269.7611">200 received access token</text></g><g class="message" data-participant-1="SENDER" data-participant-2="DSP"><polygon fill="#2196F3" points="1414.0879,1338.619,1424.5046,1342.7856,1414.0879,1346.9523,1418.2546,1342.7856" style="stroke:#2196F3;stroke-width:1.0417;"/><line style="stroke:#2196F3;stroke-width:3.125;" x1="345.8049" x2="1420.3379" y1="1342.7856" y2="1342.7856"/><text fill="#222222" font-family="Verdana" font-size="12.5" font-weight="bold" lengthAdjust="spacing" textLength="17.7734" x="363.5132" y="1327.6611">17</text><text fill="#222222" font-family="Verdana" font-size="12.5" lengthAdjust="spacing" textLength="172.5464" x="406.2866" y="1327.6611">POST /sepa-request-to-pay</text></g><g class="message" data-participant-1="DSP" data-participant-2="SENDER"><polygon fill="#2196F3" points="357.2632,1389.2273,346.8465,1393.394,357.2632,1397.5606,353.0965,1393.394" style="stroke:#2196F3;stroke-width:1.0417;"/><line style="stroke:#2196F3;stroke-width:3.125;stroke-dasharray:2.0833,2.0833;" x1="351.0132" x2="1430.7546" y1="1393.394" y2="1393.394"/><text fill="#222222" font-family="Verdana" font-size="12.5" font-weight="bold" lengthAdjust="spacing" textLength="17.7734" x="373.9299" y="1378.2694">18</text><text fill="#222222" font-family="Verdana" font-size="12.5" lengthAdjust="spacing" textLength="84.1614" x="416.7033" y="1378.2694">202 accepted</text></g><g class="message" data-participant-1="SENDER" data-participant-2="SRTP"><polygon fill="#2196F3" points="1005.7139,1439.8356,1016.1306,1444.0023,1005.7139,1448.1689,1009.8806,1444.0023" style="stroke:#2196F3;stroke-width:1.0417;"/><line style="stroke:#2196F3;stroke-width:3.125;" x1="345.8049" x2="1011.9639" y1="1444.0023" y2="1444.0023"/><text fill="#222222" font-family="Verdana" font-size="12.5" font-weight="bold" lengthAdjust="spacing" textLength="17.7734" x="363.5132" y="1428.8778">19</text><text fill="#222222" font-family="Verdana" font-size="12.5" lengthAdjust="spacing" textLength="106.4392" x="406.2866" y="1428.8778">save RTP (SENT)</text></g><g class="message" data-participant-1="SRTP" data-participant-2="SENDER"><polygon fill="#2196F3" points="357.2632,1490.4439,346.8465,1494.6106,357.2632,1498.7773,353.0965,1494.6106" style="stroke:#2196F3;stroke-width:1.0417;"/><line style="stroke:#2196F3;stroke-width:3.125;stroke-dasharray:2.0833,2.0833;" x1="351.0132" x2="1022.3806" y1="1494.6106" y2="1494.6106"/><text fill="#222222" font-family="Verdana" font-size="12.5" font-weight="bold" lengthAdjust="spacing" textLength="17.7734" x="373.9299" y="1479.4861">20</text><text fill="#222222" font-family="Verdana" font-size="12.5" lengthAdjust="spacing" textLength="51.1536" x="416.7033" y="1479.4861">updated</text></g><line style="stroke:#2196F3;stroke-width:1.0417;stroke-dasharray:2.0833,2.0833;" x1="30.2083" x2="1516.0075" y1="1503.9856" y2="1503.9856"/><text fill="#222222" font-family="Verdana" font-size="12.5" font-weight="bold" lengthAdjust="spacing" textLength="149.9329" x="45.8333" y="1526.9694">[payer not activated]</text><g class="message" data-participant-1="GR" data-participant-2="SENDER"><polygon fill="#2196F3" points="357.2632,1579.1606,346.8465,1583.3272,357.2632,1587.4939,353.0965,1583.3272" style="stroke:#2196F3;stroke-width:1.0417;"/><line style="stroke:#2196F3;stroke-width:3.125;stroke-dasharray:2.0833,2.0833;" x1="351.0132" x2="872.0886" y1="1583.3272" y2="1583.3272"/><text fill="#222222" font-family="Verdana" font-size="12.5" font-weight="bold" lengthAdjust="spacing" textLength="17.7734" x="373.9299" y="1568.2027">21</text><text fill="#222222" font-family="Verdana" font-size="12.5" lengthAdjust="spacing" textLength="60.4065" x="416.7033" y="1568.2027">not found</text></g><!--SRC=[bLN1Rjim3BtxAxXUsc986-GOO0FIE0k2jOjXUxsi5zLY4g6Ev4boklpzADcExIHjjrpiKEJZuoD5NqAKCsb_Fjn3ADXQiosib8OuZI11oM4IBO9BI8NDSGmXMYPovErnWhzBb1asmUJxYDe89SSmkXdU3CaGeicqAAmtfXjXWDUPp4Qz6h0R1DuW2sbHIvP3eLM6ndWsXb89kIQitez9JuIjA0JcOGIgGCrS7jYnN73_UXC4doZ35c7Bo4-m8B2k6XywrKX6-9Qhro0ecBOY4mN90HSFoI2P_GXdyGKm0zLhG8ZicHc4YnYvC4_oQi5nMoXB4kpXE-uXiKhZjO-9P-4YEG6TJDF5uoHTLhZp7cOQ9LKsUklO4zGxGHB7k1R6wZsblRjVtbtNllqKqxk5jzEpVn0caJ-WPn2mqYfPRfzH1y4lDVXQ5pZsAaxZsIIT0UvGMdBDhDWvaMeDWke95EGh74EsmUm5EaeCI8ashj8XOBazzW6Ma_vyJxr6uvAvfdft67GulP3dIfMI-tEEHyZEs79gWgWz6TCSU5da8YDl3biQ9xP67o291MYntjWnF5Js3Xi_USYV9CrUOnMoEN2J661EhJckXr3_eHRdrTPp8gTXknFaTz2S-nlA7E7FNNzdATpMRdGvp6t1zZG4_ZOrmJIKbO4wveyFHrKUzvl7FIALssUwg7vK8wrsWjUuHzGQzAEs4SWQRJFY8Gt_mQkTmFXWy_tBSKNjIv3fREEqg7ai-3jCaZxnvcurVi2xcJkqa_EqQnZ6ERIgUX2m2cRHr57A5UFdYqwZkjzk6LrL5o-yFbSvROIs17Bk5f7vBSRFqwR05eywkihP6jIaj9iHVFa2LfSOT9TgIuzMo1YMbQTLBoW1_sGR9jVzW4CkjtAw1_I_HtCq78B630KDB4NvxUvnUr4Tybr0-WASav2ssHYYPK9JRR1W0-s-HyOEh1gGyAT2kktN6EdzYD_8qohUqD9lpe-xI2VfVxUmBFZ7BVGxfxfgReTyU2lxY-Rq7ZQwUcsx6QjD_nS0]--></g></svg>