<?xml version="1.0" encoding="us-ascii" standalone="no"?><svg xmlns="http://www.w3.org/2000/svg" xmlns:xlink="http://www.w3.org/1999/xlink" contentStyleType="text/css" height="1119px" preserveAspectRatio="none" style="width:1302px;height:1119px;background:#FFFFFF;" version="1.1" viewBox="0 0 1302 1119" width="1302px" zoomAndPan="magnify"><defs><filter height="300%" id="frqtd4lfnn5xm" width="300%" x="-1" y="-1"><feGaussianBlur result="blurOut" stdDeviation="2.0"/><feColorMatrix in="blurOut" result="blurOut2" type="matrix" values="0 0 0 0 0 0 0 0 0 0 0 0 0 0 0 0 0 0 .4 0"/><feOffset dx="4.0" dy="4.0" in="blurOut2" result="blurOut3"/><feBlend in="SourceGraphic" in2="blurOut3" mode="normal"/></filter></defs><g><rect fill="#FFFFFF" filter="url(#frqtd4lfnn5xm)" height="927.8672" style="stroke:#A80036;stroke-width:1.0;" width="10" x="319.5" y="103.4297"/><rect fill="#FFFFFF" filter="url(#frqtd4lfnn5xm)" height="827.4688" style="stroke:#A80036;stroke-width:1.0;" width="10" x="557.5" y="203.8281"/><rect fill="#FFFFFF" filter="url(#frqtd4lfnn5xm)" height="96.3984" style="stroke:#A80036;stroke-width:1.0;" width="10" x="804.5" y="232.9609"/><rect fill="#FFFFFF" filter="url(#frqtd4lfnn5xm)" height="87.2656" style="stroke:#A80036;stroke-width:1.0;" width="10" x="804.5" y="363.4922"/><rect fill="#FFFFFF" filter="url(#frqtd4lfnn5xm)" height="14" style="stroke:#A80036;stroke-width:1.0;" width="10" x="919.5" y="262.0938"/><rect fill="#FFFFFF" filter="url(#frqtd4lfnn5xm)" height="29.1328" style="stroke:#A80036;stroke-width:1.0;" width="10" x="973" y="546.1563"/><rect fill="#FFFFFF" filter="url(#frqtd4lfnn5xm)" height="29.1328" style="stroke:#A80036;stroke-width:1.0;" width="10" x="973" y="701.8203"/><rect fill="#FFFFFF" filter="url(#frqtd4lfnn5xm)" height="29.1328" style="stroke:#A80036;stroke-width:1.0;" width="10" x="973" y="804.0234"/><rect fill="#FFFFFF" filter="url(#frqtd4lfnn5xm)" height="34.1328" style="stroke:#A80036;stroke-width:1.0;" width="10" x="1062.5" y="382.4922"/><rect fill="#FFFFFF" filter="url(#frqtd4lfnn5xm)" height="68.2656" style="stroke:#A80036;stroke-width:1.0;" width="10" x="1151" y="604.4219"/><rect fill="none" filter="url(#frqtd4lfnn5xm)" height="858.7344" style="stroke:#000000;stroke-width:2.0;" width="1072.5" x="216" y="165.5625"/><rect fill="none" filter="url(#frqtd4lfnn5xm)" height="669.2656" style="stroke:#000000;stroke-width:2.0;" width="1052.5" x="226" y="291.0938"/><rect fill="none" filter="url(#frqtd4lfnn5xm)" height="414.5313" style="stroke:#000000;stroke-width:2.0;" width="950.5" x="236" y="465.7578"/><line style="stroke:#A80036;stroke-width:1.0;stroke-dasharray:5.0,5.0;" x1="157" x2="157" y1="67.2969" y2="1041.2969"/><line style="stroke:#A80036;stroke-width:1.0;stroke-dasharray:5.0,5.0;" x1="324" x2="324" y1="67.2969" y2="1041.2969"/><line style="stroke:#A80036;stroke-width:1.0;stroke-dasharray:5.0,5.0;" x1="562" x2="562" y1="67.2969" y2="1041.2969"/><line style="stroke:#A80036;stroke-width:1.0;stroke-dasharray:5.0,5.0;" x1="809.5" x2="809.5" y1="67.2969" y2="1041.2969"/><line style="stroke:#A80036;stroke-width:1.0;stroke-dasharray:5.0,5.0;" x1="924.5" x2="924.5" y1="67.2969" y2="1041.2969"/><line style="stroke:#A80036;stroke-width:1.0;stroke-dasharray:5.0,5.0;" x1="977.5" x2="977.5" y1="67.2969" y2="1041.2969"/><line style="stroke:#A80036;stroke-width:1.0;stroke-dasharray:5.0,5.0;" x1="1067.5" x2="1067.5" y1="67.2969" y2="1041.2969"/><line style="stroke:#A80036;stroke-width:1.0;stroke-dasharray:5.0,5.0;" x1="1155.5" x2="1155.5" y1="67.2969" y2="1041.2969"/><path d="M83,41 L231,41 C236,41 236,54.1484 236,54.1484 C236,54.1484 236,67.2969 231,67.2969 L83,67.2969 C78,67.2969 78,54.1484 78,54.1484 C78,54.1484 78,41 83,41 " fill="#FEFECE" filter="url(#frqtd4lfnn5xm)" style="stroke:#A80036;stroke-width:2.0;"/><path d="M231,41 C226,41 226,54.1484 226,54.1484 C226,67.2969 231,67.2969 231,67.2969 " fill="none" style="stroke:#A80036;stroke-width:2.0;"/><text fill="#000000" font-family="sans-serif" font-size="14" lengthAdjust="spacing" textLength="138" x="83" y="58.9951">PagoPa GDP Queue</text><path d="M83,1040.2969 L231,1040.2969 C236,1040.2969 236,1053.4453 236,1053.4453 C236,1053.4453 236,1066.5938 231,1066.5938 L83,1066.5938 C78,1066.5938 78,1053.4453 78,1053.4453 C78,1053.4453 78,1040.2969 83,1040.2969 " fill="#FEFECE" filter="url(#frqtd4lfnn5xm)" style="stroke:#A80036;stroke-width:2.0;"/><path d="M231,1040.2969 C226,1040.2969 226,1053.4453 226,1053.4453 C226,1066.5938 231,1066.5938 231,1066.5938 " fill="none" style="stroke:#A80036;stroke-width:2.0;"/><text fill="#000000" font-family="sans-serif" font-size="14" lengthAdjust="spacing" textLength="138" x="83" y="1058.292">PagoPa GDP Queue</text><rect fill="#FEFECE" filter="url(#frqtd4lfnn5xm)" height="30.2969" style="stroke:#A80036;stroke-width:1.5;" width="153" x="246" y="32"/><text fill="#000000" font-family="sans-serif" font-size="14" lengthAdjust="spacing" textLength="139" x="253" y="51.9951">Message Consumer</text><rect fill="#FEFECE" filter="url(#frqtd4lfnn5xm)" height="30.2969" style="stroke:#A80036;stroke-width:1.5;" width="153" x="246" y="1040.2969"/><text fill="#000000" font-family="sans-serif" font-size="14" lengthAdjust="spacing" textLength="139" x="253" y="1060.292">Message Consumer</text><rect fill="#FEFECE" filter="url(#frqtd4lfnn5xm)" height="30.2969" style="stroke:#A80036;stroke-width:1.5;" width="165" x="478" y="32"/><text fill="#000000" font-family="sans-serif" font-size="14" lengthAdjust="spacing" textLength="151" x="485" y="51.9951">Pagopa - SP Creditore</text><rect fill="#FEFECE" filter="url(#frqtd4lfnn5xm)" height="30.2969" style="stroke:#A80036;stroke-width:1.5;" width="165" x="478" y="1040.2969"/><text fill="#000000" font-family="sans-serif" font-size="14" lengthAdjust="spacing" textLength="151" x="485" y="1060.292">Pagopa - SP Creditore</text><rect fill="#FEFECE" filter="url(#frqtd4lfnn5xm)" height="30.2969" style="stroke:#A80036;stroke-width:1.5;" width="148" x="733.5" y="32"/><text fill="#000000" font-family="sans-serif" font-size="14" lengthAdjust="spacing" textLength="134" x="740.5" y="51.9951">Gestore Repository</text><rect fill="#FEFECE" filter="url(#frqtd4lfnn5xm)" height="30.2969" style="stroke:#A80036;stroke-width:1.5;" width="148" x="733.5" y="1040.2969"/><text fill="#000000" font-family="sans-serif" font-size="14" lengthAdjust="spacing" textLength="134" x="740.5" y="1060.292">Gestore Repository</text><text fill="#000000" font-family="sans-serif" font-size="14" lengthAdjust="spacing" textLength="38" x="902.5" y="63.9951">Payer</text><path d="M906.5,15 C906.5,5 924.5,5 924.5,5 C924.5,5 942.5,5 942.5,15 L942.5,41 C942.5,51 924.5,51 924.5,51 C924.5,51 906.5,51 906.5,41 L906.5,15 " fill="#FEFECE" filter="url(#frqtd4lfnn5xm)" style="stroke:#A80036;stroke-width:1.5;"/><path d="M906.5,15 C906.5,25 924.5,25 924.5,25 C924.5,25 942.5,25 942.5,15 " fill="none" style="stroke:#A80036;stroke-width:1.5;"/><text fill="#000000" font-family="sans-serif" font-size="14" lengthAdjust="spacing" textLength="38" x="902.5" y="1053.292">Payer</text><path d="M906.5,1066.5938 C906.5,1056.5938 924.5,1056.5938 924.5,1056.5938 C924.5,1056.5938 942.5,1056.5938 942.5,1066.5938 L942.5,1092.5938 C942.5,1102.5938 924.5,1102.5938 924.5,1102.5938 C924.5,1102.5938 906.5,1102.5938 906.5,1092.5938 L906.5,1066.5938 " fill="#FEFECE" filter="url(#frqtd4lfnn5xm)" style="stroke:#A80036;stroke-width:1.5;"/><path d="M906.5,1066.5938 C906.5,1076.5938 924.5,1076.5938 924.5,1076.5938 C924.5,1076.5938 942.5,1076.5938 942.5,1066.5938 " fill="none" style="stroke:#A80036;stroke-width:1.5;"/><text fill="#000000" font-family="sans-serif" font-size="14" lengthAdjust="spacing" textLength="37" x="956.5" y="63.9951">SRTP</text><path d="M960,15 C960,5 978,5 978,5 C978,5 996,5 996,15 L996,41 C996,51 978,51 978,51 C978,51 960,51 960,41 L960,15 " fill="#FEFECE" filter="url(#frqtd4lfnn5xm)" style="stroke:#A80036;stroke-width:1.5;"/><path d="M960,15 C960,25 978,25 978,25 C978,25 996,25 996,15 " fill="none" style="stroke:#A80036;stroke-width:1.5;"/><text fill="#000000" font-family="sans-serif" font-size="14" lengthAdjust="spacing" textLength="37" x="956.5" y="1053.292">SRTP</text><path d="M960,1066.5938 C960,1056.5938 978,1056.5938 978,1056.5938 C978,1056.5938 996,1056.5938 996,1066.5938 L996,1092.5938 C996,1102.5938 978,1102.5938 978,1102.5938 C978,1102.5938 960,1102.5938 960,1092.5938 L960,1066.5938 " fill="#FEFECE" filter="url(#frqtd4lfnn5xm)" style="stroke:#A80036;stroke-width:1.5;"/><path d="M960,1066.5938 C960,1076.5938 978,1076.5938 978,1076.5938 C978,1076.5938 996,1076.5938 996,1066.5938 " fill="none" style="stroke:#A80036;stroke-width:1.5;"/><text fill="#000000" font-family="sans-serif" font-size="14" lengthAdjust="spacing" textLength="110" x="1009.5" y="63.9951">Service Registry</text><path d="M1049.5,15 C1049.5,5 1067.5,5 1067.5,5 C1067.5,5 1085.5,5 1085.5,15 L1085.5,41 C1085.5,51 1067.5,51 1067.5,51 C1067.5,51 1049.5,51 1049.5,41 L1049.5,15 " fill="#FEFECE" filter="url(#frqtd4lfnn5xm)" style="stroke:#A80036;stroke-width:1.5;"/><path d="M1049.5,15 C1049.5,25 1067.5,25 1067.5,25 C1067.5,25 1085.5,25 1085.5,15 " fill="none" style="stroke:#A80036;stroke-width:1.5;"/><text fill="#000000" font-family="sans-serif" font-size="14" lengthAdjust="spacing" textLength="110" x="1009.5" y="1053.292">Service Registry</text><path d="M1049.5,1066.5938 C1049.5,1056.5938 1067.5,1056.5938 1067.5,1056.5938 C1067.5,1056.5938 1085.5,1056.5938 1085.5,1066.5938 L1085.5,1092.5938 C1085.5,1102.5938 1067.5,1102.5938 1067.5,1102.5938 C1067.5,1102.5938 1049.5,1102.5938 1049.5,1092.5938 L1049.5,1066.5938 " fill="#FEFECE" filter="url(#frqtd4lfnn5xm)" style="stroke:#A80036;stroke-width:1.5;"/><path d="M1049.5,1066.5938 C1049.5,1076.5938 1067.5,1076.5938 1067.5,1076.5938 C1067.5,1076.5938 1085.5,1076.5938 1085.5,1066.5938 " fill="none" style="stroke:#A80036;stroke-width:1.5;"/><rect fill="#FEFECE" filter="url(#frqtd4lfnn5xm)" height="30.2969" style="stroke:#A80036;stroke-width:1.5;" width="37" x="1135.5" y="32"/><text fill="#000000" font-family="sans-serif" font-size="14" lengthAdjust="spacing" textLength="23" x="1142.5" y="51.9951">CBI</text><rect fill="#FEFECE" filter="url(#frqtd4lfnn5xm)" height="30.2969" style="stroke:#A80036;stroke-width:1.5;" width="37" x="1135.5" y="1040.2969"/><text fill="#000000" font-family="sans-serif" font-size="14" lengthAdjust="spacing" textLength="23" x="1142.5" y="1060.292">CBI</text><rect fill="#FFFFFF" filter="url(#frqtd4lfnn5xm)" height="927.8672" style="stroke:#A80036;stroke-width:1.0;" width="10" x="319.5" y="103.4297"/><rect fill="#FFFFFF" filter="url(#frqtd4lfnn5xm)" height="827.4688" style="stroke:#A80036;stroke-width:1.0;" width="10" x="557.5" y="203.8281"/><rect fill="#FFFFFF" filter="url(#frqtd4lfnn5xm)" height="96.3984" style="stroke:#A80036;stroke-width:1.0;" width="10" x="804.5" y="232.9609"/><rect fill="#FFFFFF" filter="url(#frqtd4lfnn5xm)" height="87.2656" style="stroke:#A80036;stroke-width:1.0;" width="10" x="804.5" y="363.4922"/><rect fill="#FFFFFF" filter="url(#frqtd4lfnn5xm)" height="14" style="stroke:#A80036;stroke-width:1.0;" width="10" x="919.5" y="262.0938"/><rect fill="#FFFFFF" filter="url(#frqtd4lfnn5xm)" height="29.1328" style="stroke:#A80036;stroke-width:1.0;" width="10" x="973" y="546.1563"/><rect fill="#FFFFFF" filter="url(#frqtd4lfnn5xm)" height="29.1328" style="stroke:#A80036;stroke-width:1.0;" width="10" x="973" y="701.8203"/><rect fill="#FFFFFF" filter="url(#frqtd4lfnn5xm)" height="29.1328" style="stroke:#A80036;stroke-width:1.0;" width="10" x="973" y="804.0234"/><rect fill="#FFFFFF" filter="url(#frqtd4lfnn5xm)" height="34.1328" style="stroke:#A80036;stroke-width:1.0;" width="10" x="1062.5" y="382.4922"/><rect fill="#FFFFFF" filter="url(#frqtd4lfnn5xm)" height="68.2656" style="stroke:#A80036;stroke-width:1.0;" width="10" x="1151" y="604.4219"/><polygon fill="#A80036" points="307.5,99.4297,317.5,103.4297,307.5,107.4297,311.5,103.4297" style="stroke:#A80036;stroke-width:1.0;"/><line style="stroke:#A80036;stroke-width:1.0;" x1="157" x2="313.5" y1="103.4297" y2="103.4297"/><text fill="#000000" font-family="sans-serif" font-size="13" lengthAdjust="spacing" textLength="103" x="164" y="98.3638">Queue Message</text><path d="M5,82.2969 L5,107.2969 L148,107.2969 L148,92.2969 L138,82.2969 L5,82.2969 " fill="#FBFB77" filter="url(#frqtd4lfnn5xm)" style="stroke:#A80036;stroke-width:1.0;"/><path d="M138,82.2969 L138,92.2969 L148,92.2969 L138,82.2969 " fill="#FBFB77" style="stroke:#A80036;stroke-width:1.0;"/><text fill="#000000" font-family="sans-serif" font-size="13" lengthAdjust="spacing" textLength="122" x="11" y="99.3638">RTP data from GDP</text><line style="stroke:#A80036;stroke-width:1.0;" x1="329.5" x2="371.5" y1="137.5625" y2="137.5625"/><line style="stroke:#A80036;stroke-width:1.0;" x1="371.5" x2="371.5" y1="137.5625" y2="150.5625"/><line style="stroke:#A80036;stroke-width:1.0;" x1="330.5" x2="371.5" y1="150.5625" y2="150.5625"/><polygon fill="#A80036" points="340.5,146.5625,330.5,150.5625,340.5,154.5625,336.5,150.5625" style="stroke:#A80036;stroke-width:1.0;"/><text fill="#000000" font-family="sans-serif" font-size="13" lengthAdjust="spacing" textLength="167" x="336.5" y="132.4966">Check message operation</text><path d="M515,122.9297 L515,147.9297 L685,147.9297 L685,132.9297 L675,122.9297 L515,122.9297 " fill="#FBFB77" filter="url(#frqtd4lfnn5xm)" style="stroke:#A80036;stroke-width:1.0;"/><path d="M675,122.9297 L675,132.9297 L685,132.9297 L675,122.9297 " fill="#FBFB77" style="stroke:#A80036;stroke-width:1.0;"/><text fill="#000000" font-family="sans-serif" font-size="13" lengthAdjust="spacing" textLength="149" x="521" y="139.9966">Validate operation type</text><path d="M216,165.5625 L280,165.5625 L280,172.6953 L270,182.6953 L216,182.6953 L216,165.5625 " fill="#EEEEEE" style="stroke:#000000;stroke-width:1.0;"/><rect fill="none" height="858.7344" style="stroke:#000000;stroke-width:2.0;" width="1072.5" x="216" y="165.5625"/><text fill="#000000" font-family="sans-serif" font-size="13" font-weight="bold" lengthAdjust="spacing" textLength="19" x="231" y="178.6294">alt</text><text fill="#000000" font-family="sans-serif" font-size="11" font-weight="bold" lengthAdjust="spacing" textLength="201" x="295" y="177.7729">[message is CREATE operation]</text><polygon fill="#A80036" points="545.5,199.8281,555.5,203.8281,545.5,207.8281,549.5,203.8281" style="stroke:#A80036;stroke-width:1.0;"/><line style="stroke:#A80036;stroke-width:1.0;" x1="329.5" x2="551.5" y1="203.8281" y2="203.8281"/><text fill="#000000" font-family="sans-serif" font-size="13" lengthAdjust="spacing" textLength="191" x="336.5" y="198.7622">Process CREATE RTP Message</text><polygon fill="#A80036" points="792.5,228.9609,802.5,232.9609,792.5,236.9609,796.5,232.9609" style="stroke:#A80036;stroke-width:1.0;"/><line style="stroke:#A80036;stroke-width:1.0;" x1="567.5" x2="798.5" y1="232.9609" y2="232.9609"/><text fill="#000000" font-family="sans-serif" font-size="13" lengthAdjust="spacing" textLength="142" x="574.5" y="227.895">GET /activations/payer</text><polygon fill="#A80036" points="907.5,258.0938,917.5,262.0938,907.5,266.0938,911.5,262.0938" style="stroke:#A80036;stroke-width:1.0;"/><line style="stroke:#A80036;stroke-width:1.0;" x1="814.5" x2="913.5" y1="262.0938" y2="262.0938"/><text fill="#000000" font-family="sans-serif" font-size="13" lengthAdjust="spacing" textLength="86" x="821.5" y="257.0278">findByPayerId</text><polygon fill="#A80036" points="825.5,272.0938,815.5,276.0938,825.5,280.0938,821.5,276.0938" style="stroke:#A80036;stroke-width:1.0;"/><line style="stroke:#A80036;stroke-width:1.0;stroke-dasharray:2.0,2.0;" x1="819.5" x2="923.5" y1="276.0938" y2="276.0938"/><path d="M226,291.0938 L290,291.0938 L290,298.2266 L280,308.2266 L226,308.2266 L226,291.0938 " fill="#EEEEEE" style="stroke:#000000;stroke-width:1.0;"/><rect fill="none" height="669.2656" style="stroke:#000000;stroke-width:2.0;" width="1052.5" x="226" y="291.0938"/><text fill="#000000" font-family="sans-serif" font-size="13" font-weight="bold" lengthAdjust="spacing" textLength="19" x="241" y="304.1606">alt</text><text fill="#000000" font-family="sans-serif" font-size="11" font-weight="bold" lengthAdjust="spacing" textLength="102" x="305" y="303.3042">[user activated]</text><polygon fill="#A80036" points="578.5,325.3594,568.5,329.3594,578.5,333.3594,574.5,329.3594" style="stroke:#A80036;stroke-width:1.0;"/><line style="stroke:#A80036;stroke-width:1.0;stroke-dasharray:2.0,2.0;" x1="572.5" x2="808.5" y1="329.3594" y2="329.3594"/><text fill="#000000" font-family="sans-serif" font-size="13" lengthAdjust="spacing" textLength="190" x="584.5" y="324.2935">payer and its Service Provider</text><polygon fill="#A80036" points="792.5,359.4922,802.5,363.4922,792.5,367.4922,796.5,363.4922" style="stroke:#A80036;stroke-width:1.0;"/><line style="stroke:#A80036;stroke-width:1.0;" x1="567.5" x2="798.5" y1="363.4922" y2="363.4922"/><text fill="#000000" font-family="sans-serif" font-size="13" lengthAdjust="spacing" textLength="103" x="574.5" y="358.4263">getRegistryData</text><path d="M374,342.3594 L374,367.3594 L548,367.3594 L548,352.3594 L538,342.3594 L374,342.3594 " fill="#FBFB77" filter="url(#frqtd4lfnn5xm)" style="stroke:#A80036;stroke-width:1.0;"/><path d="M538,342.3594 L538,352.3594 L548,352.3594 L538,342.3594 " fill="#FBFB77" style="stroke:#A80036;stroke-width:1.0;"/><text fill="#000000" font-family="sans-serif" font-size="13" lengthAdjust="spacing" textLength="153" x="380" y="359.4263">Search key: ID Payer SP</text><polygon fill="#A80036" points="1050.5,378.4922,1060.5,382.4922,1050.5,386.4922,1054.5,382.4922" style="stroke:#A80036;stroke-width:1.0;"/><line style="stroke:#A80036;stroke-width:1.0;" x1="814.5" x2="1056.5" y1="382.4922" y2="382.4922"/><polygon fill="#A80036" points="825.5,412.625,815.5,416.625,825.5,420.625,821.5,416.625" style="stroke:#A80036;stroke-width:1.0;"/><line style="stroke:#A80036;stroke-width:1.0;stroke-dasharray:2.0,2.0;" x1="819.5" x2="1066.5" y1="416.625" y2="416.625"/><text fill="#000000" font-family="sans-serif" font-size="13" lengthAdjust="spacing" textLength="136" x="831.5" y="411.5591">Service Provider data</text><path d="M1077,395.4922 L1077,420.4922 L1259,420.4922 L1259,405.4922 L1249,395.4922 L1077,395.4922 " fill="#FBFB77" filter="url(#frqtd4lfnn5xm)" style="stroke:#A80036;stroke-width:1.0;"/><path d="M1249,395.4922 L1249,405.4922 L1259,405.4922 L1249,395.4922 " fill="#FBFB77" style="stroke:#A80036;stroke-width:1.0;"/><text fill="#000000" font-family="sans-serif" font-size="13" lengthAdjust="spacing" textLength="161" x="1083" y="412.5591">service_endpoint, oauth2</text><polygon fill="#A80036" points="578.5,446.7578,568.5,450.7578,578.5,454.7578,574.5,450.7578" style="stroke:#A80036;stroke-width:1.0;"/><line style="stroke:#A80036;stroke-width:1.0;stroke-dasharray:2.0,2.0;" x1="572.5" x2="808.5" y1="450.7578" y2="450.7578"/><text fill="#000000" font-family="sans-serif" font-size="13" lengthAdjust="spacing" textLength="136" x="584.5" y="445.6919">Service Provider data</text><path d="M236,465.7578 L300,465.7578 L300,472.8906 L290,482.8906 L236,482.8906 L236,465.7578 " fill="#EEEEEE" style="stroke:#000000;stroke-width:1.0;"/><rect fill="none" height="414.5313" style="stroke:#000000;stroke-width:2.0;" width="950.5" x="236" y="465.7578"/><text fill="#000000" font-family="sans-serif" font-size="13" font-weight="bold" lengthAdjust="spacing" textLength="19" x="251" y="478.8247">alt</text><text fill="#000000" font-family="sans-serif" font-size="11" font-weight="bold" lengthAdjust="spacing" textLength="155" x="315" y="477.9683">[Service Provider is CBI]</text><line style="stroke:#A80036;stroke-width:1.0;" x1="567.5" x2="609.5" y1="504.0234" y2="504.0234"/><line style="stroke:#A80036;stroke-width:1.0;" x1="609.5" x2="609.5" y1="504.0234" y2="517.0234"/><line style="stroke:#A80036;stroke-width:1.0;" x1="568.5" x2="609.5" y1="517.0234" y2="517.0234"/><polygon fill="#A80036" points="578.5,513.0234,568.5,517.0234,578.5,521.0234,574.5,517.0234" style="stroke:#A80036;stroke-width:1.0;"/><text fill="#000000" font-family="sans-serif" font-size="13" lengthAdjust="spacing" textLength="223" x="574.5" y="498.9575">add activation data to EPC payload</text><polygon fill="#A80036" points="961,542.1563,971,546.1563,961,550.1563,965,546.1563" style="stroke:#A80036;stroke-width:1.0;"/><line style="stroke:#A80036;stroke-width:1.0;" x1="567.5" x2="967" y1="546.1563" y2="546.1563"/><text fill="#000000" font-family="sans-serif" font-size="13" lengthAdjust="spacing" textLength="179" x="574.5" y="541.0903">save RTP in status CREATED</text><polygon fill="#A80036" points="578.5,571.2891,568.5,575.2891,578.5,579.2891,574.5,575.2891" style="stroke:#A80036;stroke-width:1.0;"/><line style="stroke:#A80036;stroke-width:1.0;stroke-dasharray:2.0,2.0;" x1="572.5" x2="977" y1="575.2891" y2="575.2891"/><text fill="#000000" font-family="sans-serif" font-size="13" lengthAdjust="spacing" textLength="49" x="584.5" y="570.2231">created</text><polygon fill="#A80036" points="578.5,600.4219,568.5,604.4219,578.5,608.4219,574.5,604.4219" style="stroke:#A80036;stroke-width:1.0;"/><polygon fill="#A80036" points="1139,600.4219,1149,604.4219,1139,608.4219,1143,604.4219" style="stroke:#A80036;stroke-width:1.0;"/><line style="stroke:#A80036;stroke-width:1.0;" x1="572.5" x2="1145" y1="604.4219" y2="604.4219"/><text fill="#000000" font-family="sans-serif" font-size="13" lengthAdjust="spacing" textLength="46" x="584.5" y="599.356">oAuth2</text><polygon fill="#A80036" points="1139,634.5547,1149,638.5547,1139,642.5547,1143,638.5547" style="stroke:#A80036;stroke-width:1.0;"/><line style="stroke:#A80036;stroke-width:1.0;" x1="567.5" x2="1145" y1="638.5547" y2="638.5547"/><text fill="#000000" font-family="sans-serif" font-size="13" lengthAdjust="spacing" textLength="173" x="574.5" y="633.4888">POST /sepa-request-to-pay</text><path d="M481,617.4219 L481,642.4219 L548,642.4219 L548,627.4219 L538,617.4219 L481,617.4219 " fill="#FBFB77" filter="url(#frqtd4lfnn5xm)" style="stroke:#A80036;stroke-width:1.0;"/><path d="M538,617.4219 L538,627.4219 L548,627.4219 L538,617.4219 " fill="#FBFB77" style="stroke:#A80036;stroke-width:1.0;"/><text fill="#000000" font-family="sans-serif" font-size="13" lengthAdjust="spacing" textLength="46" x="487" y="634.4888">oAuth2</text><polygon fill="#A80036" points="578.5,668.6875,568.5,672.6875,578.5,676.6875,574.5,672.6875" style="stroke:#A80036;stroke-width:1.0;"/><line style="stroke:#A80036;stroke-width:1.0;stroke-dasharray:2.0,2.0;" x1="572.5" x2="1155" y1="672.6875" y2="672.6875"/><text fill="#000000" font-family="sans-serif" font-size="13" lengthAdjust="spacing" textLength="87" x="584.5" y="667.6216">202 accepted</text><polygon fill="#A80036" points="961,697.8203,971,701.8203,961,705.8203,965,701.8203" style="stroke:#A80036;stroke-width:1.0;"/><line style="stroke:#A80036;stroke-width:1.0;" x1="567.5" x2="967" y1="701.8203" y2="701.8203"/><text fill="#000000" font-family="sans-serif" font-size="13" lengthAdjust="spacing" textLength="154" x="574.5" y="696.7544">save RTP in status SENT</text><polygon fill="#A80036" points="578.5,726.9531,568.5,730.9531,578.5,734.9531,574.5,730.9531" style="stroke:#A80036;stroke-width:1.0;"/><line style="stroke:#A80036;stroke-width:1.0;stroke-dasharray:2.0,2.0;" x1="572.5" x2="977" y1="730.9531" y2="730.9531"/><text fill="#000000" font-family="sans-serif" font-size="13" lengthAdjust="spacing" textLength="53" x="584.5" y="725.8872">updated</text><polygon fill="#A80036" points="340.5,756.0859,330.5,760.0859,340.5,764.0859,336.5,760.0859" style="stroke:#A80036;stroke-width:1.0;"/><line style="stroke:#A80036;stroke-width:1.0;stroke-dasharray:2.0,2.0;" x1="334.5" x2="556.5" y1="760.0859" y2="760.0859"/><text fill="#000000" font-family="sans-serif" font-size="13" lengthAdjust="spacing" textLength="141" x="346.5" y="755.02">Processing completed</text><line style="stroke:#000000;stroke-width:1.0;stroke-dasharray:2.0,2.0;" x1="236" x2="1186.5" y1="769.0859" y2="769.0859"/><text fill="#000000" font-family="sans-serif" font-size="11" font-weight="bold" lengthAdjust="spacing" textLength="180" x="241" y="779.2964">[Service Provider is not CBI]</text><polygon fill="#A80036" points="961,800.0234,971,804.0234,961,808.0234,965,804.0234" style="stroke:#A80036;stroke-width:1.0;"/><line style="stroke:#A80036;stroke-width:1.0;" x1="567.5" x2="967" y1="804.0234" y2="804.0234"/><text fill="#000000" font-family="sans-serif" font-size="13" lengthAdjust="spacing" textLength="154" x="574.5" y="798.9575">save RTP in status SENT</text><polygon fill="#A80036" points="578.5,829.1563,568.5,833.1563,578.5,837.1563,574.5,833.1563" style="stroke:#A80036;stroke-width:1.0;"/><line style="stroke:#A80036;stroke-width:1.0;stroke-dasharray:2.0,2.0;" x1="572.5" x2="977" y1="833.1563" y2="833.1563"/><text fill="#000000" font-family="sans-serif" font-size="13" lengthAdjust="spacing" textLength="53" x="584.5" y="828.0903">updated</text><polygon fill="#A80036" points="340.5,863.2891,330.5,867.2891,340.5,871.2891,336.5,867.2891" style="stroke:#A80036;stroke-width:1.0;"/><line style="stroke:#A80036;stroke-width:1.0;stroke-dasharray:2.0,2.0;" x1="334.5" x2="556.5" y1="867.2891" y2="867.2891"/><text fill="#000000" font-family="sans-serif" font-size="13" lengthAdjust="spacing" textLength="204" x="346.5" y="862.2231">Processing completed (Mocked)</text><path d="M572,846.1563 L572,871.1563 L784,871.1563 L784,856.1563 L774,846.1563 L572,846.1563 " fill="#FBFB77" filter="url(#frqtd4lfnn5xm)" style="stroke:#A80036;stroke-width:1.0;"/><path d="M774,846.1563 L774,856.1563 L784,856.1563 L774,846.1563 " fill="#FBFB77" style="stroke:#A80036;stroke-width:1.0;"/><text fill="#000000" font-family="sans-serif" font-size="13" lengthAdjust="spacing" textLength="191" x="578" y="863.2231">Mocked during CBI integration</text><line style="stroke:#000000;stroke-width:1.0;stroke-dasharray:2.0,2.0;" x1="226" x2="1278.5" y1="888.2891" y2="888.2891"/><text fill="#000000" font-family="sans-serif" font-size="11" font-weight="bold" lengthAdjust="spacing" textLength="127" x="231" y="898.4995">[user not activated]</text><polygon fill="#A80036" points="578.5,919.2266,568.5,923.2266,578.5,927.2266,574.5,923.2266" style="stroke:#A80036;stroke-width:1.0;"/><line style="stroke:#A80036;stroke-width:1.0;stroke-dasharray:2.0,2.0;" x1="572.5" x2="808.5" y1="923.2266" y2="923.2266"/><text fill="#000000" font-family="sans-serif" font-size="13" lengthAdjust="spacing" textLength="89" x="584.5" y="918.1606">404 not found</text><polygon fill="#A80036" points="340.5,948.3594,330.5,952.3594,340.5,956.3594,336.5,952.3594" style="stroke:#A80036;stroke-width:1.0;"/><line style="stroke:#A80036;stroke-width:1.0;stroke-dasharray:2.0,2.0;" x1="334.5" x2="556.5" y1="952.3594" y2="952.3594"/><text fill="#000000" font-family="sans-serif" font-size="13" lengthAdjust="spacing" textLength="107" x="346.5" y="947.2935">Processing failed</text><line style="stroke:#000000;stroke-width:1.0;stroke-dasharray:2.0,2.0;" x1="216" x2="1288.5" y1="968.3594" y2="968.3594"/><text fill="#000000" font-family="sans-serif" font-size="11" font-weight="bold" lengthAdjust="spacing" textLength="226" x="221" y="978.5698">[message is not CREATE operation]</text><line style="stroke:#A80036;stroke-width:1.0;" x1="329.5" x2="371.5" y1="1003.2969" y2="1003.2969"/><line style="stroke:#A80036;stroke-width:1.0;" x1="371.5" x2="371.5" y1="1003.2969" y2="1016.2969"/><line style="stroke:#A80036;stroke-width:1.0;" x1="330.5" x2="371.5" y1="1016.2969" y2="1016.2969"/><polygon fill="#A80036" points="340.5,1012.2969,330.5,1016.2969,340.5,1020.2969,336.5,1016.2969" style="stroke:#A80036;stroke-width:1.0;"/><text fill="#000000" font-family="sans-serif" font-size="13" lengthAdjust="spacing" textLength="100" x="336.5" y="998.231">Skip processing</text><path d="M448,988.6641 L448,1013.6641 L621,1013.6641 L621,998.6641 L611,988.6641 L448,988.6641 " fill="#FBFB77" filter="url(#frqtd4lfnn5xm)" style="stroke:#A80036;stroke-width:1.0;"/><path d="M611,988.6641 L611,998.6641 L621,998.6641 L611,988.6641 " fill="#FBFB77" style="stroke:#A80036;stroke-width:1.0;"/><text fill="#000000" font-family="sans-serif" font-size="13" lengthAdjust="spacing" textLength="152" x="454" y="1005.731">Different operation type</text><!--SRC=[nLLDYzim4BtxLmmvjL2pox8dKmgxSGWvRElQeTUYMcD7nB5KIGxattSaVydPPAyznEZZwSrxCoF574KBMXgC_dRO8QmoLikCmJRDuATRMG4p_IXIJ5jH2iLQ2witD8RL26lPckw4skF6oHBgA1M368eCrXgvi5Btl4MsNaAtQDmcvAYaSRYBnstpY3FB_Z3Z5Lw6S7uKx1JvFkjvQH2kepwBqh7MmjY1iyYNeTUlkq5J6aNUCCJV9aT9dmCOR4Ujj0WDLZO1YWKk5bHQdbpY8bPQSMPsJauq3fQKwmEMHpWDcPGADRD2jZsv5lM1s7-nHd37DMs3lIYCM6Edau8odszUzfk08un8QKuWqx8a_8XqgaSparvN3_gvCziyWUrc3m_39d6Q1-KJFi6fBDlSWNqX4gX4orylVhBZCwmla_z2xAaZZbUxpavd232kSqyzYlU1WRKSXAKI3VKaIsV1NGjWg2bmKACTYvvIYSAo5SXqUO0ZNXBOfRqC2dR37NNAd26YpmSNoJiXlWyMvJCzuZUsN4dHsYyWMMSFJw7a8bzulKswjEZIzGxdsk1rDzhtN8npc0lOjwcLi248fRIHZ4zmQWYIoyxeMuDU1MEPxSP-ISCKqELodrbogT6NR67AeOZxgmUb2SWNRpnejdJMIllPZuBQpQ1YiKPwZOoDhOn9PbYrWOGEpD6V7f_8P8dgMa8Gu9wxOlDz_w6rJl6xrkB5RHukc6XhAEL9DUYEOKCFqArAaQT5jVwJGFZq9iiZyi-BhktNW7VQWKac2R9O3qyBzNBlorzOPsI-jDUtPrJv_FZiaPNiMdxhljvJMZ7Hk3oECOCtpwVmetTl9YoEGe6QM1TcKr5Lg97-0wwUM6olscaTJaVoVm00]--></g></svg>