<?xml version="1.0" encoding="us-ascii" standalone="no"?><svg xmlns="http://www.w3.org/2000/svg" xmlns:xlink="http://www.w3.org/1999/xlink" contentStyleType="text/css" height="1281.25px" preserveAspectRatio="none" style="width:1296px;height:1281px;" version="1.1" viewBox="0 0 1296 1281" width="1296.875px" zoomAndPan="magnify"><defs><linearGradient id="guht4fsw5ye2l0" x1="50%" x2="50%" y1="0%" y2="100%"><stop offset="0%" stop-color="#FFFFFF"/><stop offset="100%" stop-color="#FFFFFF"/></linearGradient><filter height="300%" id="fuht4fsw5ye2l" width="300%" x="-1" y="-1"><feGaussianBlur result="blurOut" stdDeviation="2.0833333333333335"/><feColorMatrix in="blurOut" result="blurOut2" type="matrix" values="0 0 0 0 0 0 0 0 0 0 0 0 0 0 0 0 0 0 .4 0"/><feOffset dx="4.166666666666667" dy="4.166666666666667" in="blurOut2" result="blurOut3"/><feBlend in="SourceGraphic" in2="blurOut3" mode="normal"/></filter><linearGradient id="guht4fsw5ye2l1" x1="50%" x2="50%" y1="0%" y2="100%"><stop offset="0%" stop-color="#4DABF5"/><stop offset="100%" stop-color="#2196F3"/></linearGradient><linearGradient id="guht4fsw5ye2l2" x1="50%" x2="50%" y1="0%" y2="100%"><stop offset="0%" stop-color="#B052C0"/><stop offset="100%" stop-color="#9C27B0"/></linearGradient></defs><g><rect fill="url(#guht4fsw5ye2l0)" height="57.5846" id="_title" rx="4.1667" ry="4.1667" style="stroke:#CCCCCC;stroke-width:1.0416666666666667;" width="229.1667" x="535.1563" y="20.8333"/><text fill="#2196F3" font-family="Verdana" font-size="20.8333" font-weight="bold" lengthAdjust="spacing" textLength="195.8333" x="551.8229" y="56.838">RTP Create Flow</text><rect fill="#FFFFFF" filter="url(#fuht4fsw5ye2l)" height="861.9141" style="stroke:#CCCCCC;stroke-width:1.0416666666666667;" width="10.4167" x="328.125" y="289.7461"/><rect fill="#FFFFFF" filter="url(#fuht4fsw5ye2l)" height="114.4857" style="stroke:#CCCCCC;stroke-width:1.0416666666666667;" width="10.4167" x="636.4583" y="289.7461"/><rect fill="#FFFFFF" filter="url(#fuht4fsw5ye2l)" height="49.9674" style="stroke:#CCCCCC;stroke-width:1.0416666666666667;" width="10.4167" x="783.3333" y="627.0182"/><rect fill="#FFFFFF" filter="url(#fuht4fsw5ye2l)" height="49.9674" style="stroke:#CCCCCC;stroke-width:1.0416666666666667;" width="10.4167" x="783.3333" y="998.6328"/><rect fill="#FFFFFF" filter="url(#fuht4fsw5ye2l)" height="54.6549" style="stroke:#CCCCCC;stroke-width:1.0416666666666667;" width="10.4167" x="888.5417" y="458.8867"/><rect fill="#FFFFFF" filter="url(#fuht4fsw5ye2l)" height="49.9674" style="stroke:#CCCCCC;stroke-width:1.0416666666666667;" width="10.4167" x="1034.8958" y="791.4714"/><rect fill="#FFFFFF" filter="url(#fuht4fsw5ye2l)" height="49.9674" style="stroke:#CCCCCC;stroke-width:1.0416666666666667;" width="10.4167" x="1190.1042" y="898.6979"/><rect fill="url(#guht4fsw5ye2l0)" filter="url(#fuht4fsw5ye2l)" height="838.9974" rx="4.1667" ry="4.1667" style="stroke:#2196F3;stroke-width:1.0416666666666667;" width="1258.8542" x="20.8333" y="305.3711"/><rect fill="url(#guht4fsw5ye2l0)" filter="url(#fuht4fsw5ye2l)" height="157.1615" rx="4.1667" ry="4.1667" style="stroke:#2196F3;stroke-width:1.0416666666666667;" width="896.875" x="224.4792" y="692.6107"/><path d="M20.8333,1056.9336 L1279.6875,1056.9336 L1279.6875,1140.2018 A4.1667,4.1667 0 0 1 1275.5208,1144.3685 L25,1144.3685 A4.1667,4.1667 0 0 1 20.8333,1140.2018 L20.8333,1056.9336 " fill="url(#guht4fsw5ye2l0)" style="stroke:none;stroke-width:1.0416666666666667;"/><line style="stroke:#CCCCCC;stroke-width:1.0416666666666667;stroke-dasharray:5.0,5.0;" x1="332.8125" x2="332.8125" y1="187.7279" y2="1162.0768"/><line style="stroke:#CCCCCC;stroke-width:1.0416666666666667;stroke-dasharray:5.0,5.0;" x1="641.1458" x2="641.1458" y1="187.7279" y2="1162.0768"/><line style="stroke:#CCCCCC;stroke-width:1.0416666666666667;stroke-dasharray:5.0,5.0;" x1="788.0208" x2="788.0208" y1="187.7279" y2="1162.0768"/><line style="stroke:#CCCCCC;stroke-width:1.0416666666666667;stroke-dasharray:5.0,5.0;" x1="893.2292" x2="893.2292" y1="187.7279" y2="1162.0768"/><line style="stroke:#CCCCCC;stroke-width:1.0416666666666667;stroke-dasharray:5.0,5.0;" x1="1040.1042" x2="1040.1042" y1="187.7279" y2="1162.0768"/><line style="stroke:#CCCCCC;stroke-width:1.0416666666666667;stroke-dasharray:5.0,5.0;" x1="1195.3125" x2="1195.3125" y1="187.7279" y2="1162.0768"/><rect fill="url(#guht4fsw5ye2l1)" filter="url(#fuht4fsw5ye2l)" height="49.9674" rx="4.1667" ry="4.1667" style="stroke:#2196F3;stroke-width:1.0416666666666667;" width="110.4167" x="276.5625" y="133.5938"/><text fill="#FFFFFF" font-family="Verdana" font-size="12.5" lengthAdjust="spacing" textLength="75" x="294.2708" y="162.9049">MS-SENDER</text><rect fill="url(#guht4fsw5ye2l1)" filter="url(#fuht4fsw5ye2l)" height="49.9674" rx="4.1667" ry="4.1667" style="stroke:#2196F3;stroke-width:1.0416666666666667;" width="110.4167" x="276.5625" y="1161.0352"/><text fill="#FFFFFF" font-family="Verdana" font-size="12.5" lengthAdjust="spacing" textLength="75" x="294.2708" y="1190.3463">MS-SENDER</text><rect fill="url(#guht4fsw5ye2l1)" filter="url(#fuht4fsw5ye2l)" height="49.9674" rx="4.1667" ry="4.1667" style="stroke:#2196F3;stroke-width:1.0416666666666667;" width="127.0833" x="576.5625" y="133.5938"/><text fill="#FFFFFF" font-family="Verdana" font-size="12.5" lengthAdjust="spacing" textLength="91.6667" x="594.2708" y="162.9049">MS-ACTIVATOR</text><rect fill="url(#guht4fsw5ye2l1)" filter="url(#fuht4fsw5ye2l)" height="49.9674" rx="4.1667" ry="4.1667" style="stroke:#2196F3;stroke-width:1.0416666666666667;" width="127.0833" x="576.5625" y="1161.0352"/><text fill="#FFFFFF" font-family="Verdana" font-size="12.5" lengthAdjust="spacing" textLength="91.6667" x="594.2708" y="1190.3463">MS-ACTIVATOR</text><text fill="#222222" font-family="Verdana" font-size="12.5" lengthAdjust="spacing" textLength="32.2917" x="769.2708" y="174.3632">RTPS</text><path d="M769.7917,114.8438 C769.7917,104.4271 788.5417,104.4271 788.5417,104.4271 C788.5417,104.4271 807.2917,104.4271 807.2917,114.8438 L807.2917,141.9271 C807.2917,152.3438 788.5417,152.3438 788.5417,152.3438 C788.5417,152.3438 769.7917,152.3438 769.7917,141.9271 L769.7917,114.8438 " fill="url(#guht4fsw5ye2l1)" filter="url(#fuht4fsw5ye2l)" style="stroke:#2196F3;stroke-width:1.5625;"/><path d="M769.7917,114.8438 C769.7917,125.2604 788.5417,125.2604 788.5417,125.2604 C788.5417,125.2604 807.2917,125.2604 807.2917,114.8438 " fill="none" style="stroke:#2196F3;stroke-width:1.5625;"/><text fill="#222222" font-family="Verdana" font-size="12.5" lengthAdjust="spacing" textLength="32.2917" x="769.2708" y="1183.0546">RTPS</text><path d="M769.7917,1206.8359 C769.7917,1196.4193 788.5417,1196.4193 788.5417,1196.4193 C788.5417,1196.4193 807.2917,1196.4193 807.2917,1206.8359 L807.2917,1233.9193 C807.2917,1244.3359 788.5417,1244.3359 788.5417,1244.3359 C788.5417,1244.3359 769.7917,1244.3359 769.7917,1233.9193 L769.7917,1206.8359 " fill="url(#guht4fsw5ye2l1)" filter="url(#fuht4fsw5ye2l)" style="stroke:#2196F3;stroke-width:1.5625;"/><path d="M769.7917,1206.8359 C769.7917,1217.2526 788.5417,1217.2526 788.5417,1217.2526 C788.5417,1217.2526 807.2917,1217.2526 807.2917,1206.8359 " fill="none" style="stroke:#2196F3;stroke-width:1.5625;"/><text fill="#222222" font-family="Verdana" font-size="12.5" lengthAdjust="spacing" textLength="103.125" x="839.0625" y="159.8124">Service Registry</text><text fill="#222222" font-family="Verdana" font-size="12.5" lengthAdjust="spacing" textLength="42.7083" x="869.2708" y="174.3632">(BLOB)</text><path d="M875,100.293 C875,89.8763 893.75,89.8763 893.75,89.8763 C893.75,89.8763 912.5,89.8763 912.5,100.293 L912.5,127.3763 C912.5,137.793 893.75,137.793 893.75,137.793 C893.75,137.793 875,137.793 875,127.3763 L875,100.293 " fill="url(#guht4fsw5ye2l1)" filter="url(#fuht4fsw5ye2l)" style="stroke:#2196F3;stroke-width:1.5625;"/><path d="M875,100.293 C875,110.7096 893.75,110.7096 893.75,110.7096 C893.75,110.7096 912.5,110.7096 912.5,100.293 " fill="none" style="stroke:#2196F3;stroke-width:1.5625;"/><text fill="#222222" font-family="Verdana" font-size="12.5" lengthAdjust="spacing" textLength="103.125" x="839.0625" y="1183.0546">Service Registry</text><text fill="#222222" font-family="Verdana" font-size="12.5" lengthAdjust="spacing" textLength="42.7083" x="869.2708" y="1197.6054">(BLOB)</text><path d="M875,1221.3867 C875,1210.9701 893.75,1210.9701 893.75,1210.9701 C893.75,1210.9701 912.5,1210.9701 912.5,1221.3867 L912.5,1248.4701 C912.5,1258.8867 893.75,1258.8867 893.75,1258.8867 C893.75,1258.8867 875,1258.8867 875,1248.4701 L875,1221.3867 " fill="url(#guht4fsw5ye2l1)" filter="url(#fuht4fsw5ye2l)" style="stroke:#2196F3;stroke-width:1.5625;"/><path d="M875,1221.3867 C875,1231.8034 893.75,1231.8034 893.75,1231.8034 C893.75,1231.8034 912.5,1231.8034 912.5,1221.3867 " fill="none" style="stroke:#2196F3;stroke-width:1.5625;"/><rect fill="url(#guht4fsw5ye2l1)" filter="url(#fuht4fsw5ye2l)" height="49.9674" rx="4.1667" ry="4.1667" style="stroke:#2196F3;stroke-width:1.0416666666666667;" width="55.2083" x="1010.9375" y="133.5938"/><text fill="#FFFFFF" font-family="Verdana" font-size="12.5" lengthAdjust="spacing" textLength="19.7917" x="1028.6458" y="162.9049">CBI</text><rect fill="url(#guht4fsw5ye2l1)" filter="url(#fuht4fsw5ye2l)" height="49.9674" rx="4.1667" ry="4.1667" style="stroke:#2196F3;stroke-width:1.0416666666666667;" width="55.2083" x="1010.9375" y="1161.0352"/><text fill="#FFFFFF" font-family="Verdana" font-size="12.5" lengthAdjust="spacing" textLength="19.7917" x="1028.6458" y="1190.3463">CBI</text><rect fill="url(#guht4fsw5ye2l1)" filter="url(#fuht4fsw5ye2l)" height="49.9674" rx="4.1667" ry="4.1667" style="stroke:#2196F3;stroke-width:1.0416666666666667;" width="61.4583" x="1163.0208" y="133.5938"/><text fill="#FFFFFF" font-family="Verdana" font-size="12.5" lengthAdjust="spacing" textLength="26.0417" x="1180.7292" y="162.9049">SPD</text><rect fill="url(#guht4fsw5ye2l1)" filter="url(#fuht4fsw5ye2l)" height="49.9674" rx="4.1667" ry="4.1667" style="stroke:#2196F3;stroke-width:1.0416666666666667;" width="61.4583" x="1163.0208" y="1161.0352"/><text fill="#FFFFFF" font-family="Verdana" font-size="12.5" lengthAdjust="spacing" textLength="26.0417" x="1180.7292" y="1190.3463">SPD</text><rect fill="#FFFFFF" filter="url(#fuht4fsw5ye2l)" height="861.9141" style="stroke:#CCCCCC;stroke-width:1.0416666666666667;" width="10.4167" x="328.125" y="289.7461"/><rect fill="#FFFFFF" filter="url(#fuht4fsw5ye2l)" height="114.4857" style="stroke:#CCCCCC;stroke-width:1.0416666666666667;" width="10.4167" x="636.4583" y="289.7461"/><rect fill="#FFFFFF" filter="url(#fuht4fsw5ye2l)" height="49.9674" style="stroke:#CCCCCC;stroke-width:1.0416666666666667;" width="10.4167" x="783.3333" y="627.0182"/><rect fill="#FFFFFF" filter="url(#fuht4fsw5ye2l)" height="49.9674" style="stroke:#CCCCCC;stroke-width:1.0416666666666667;" width="10.4167" x="783.3333" y="998.6328"/><rect fill="#FFFFFF" filter="url(#fuht4fsw5ye2l)" height="54.6549" style="stroke:#CCCCCC;stroke-width:1.0416666666666667;" width="10.4167" x="888.5417" y="458.8867"/><rect fill="#FFFFFF" filter="url(#fuht4fsw5ye2l)" height="49.9674" style="stroke:#CCCCCC;stroke-width:1.0416666666666667;" width="10.4167" x="1034.8958" y="791.4714"/><rect fill="#FFFFFF" filter="url(#fuht4fsw5ye2l)" height="49.9674" style="stroke:#CCCCCC;stroke-width:1.0416666666666667;" width="10.4167" x="1190.1042" y="898.6979"/><ellipse cx="18.2292" cy="238.9974" fill="none" rx="4.1667" ry="4.1667" style="stroke:#2196F3;stroke-width:1.5625;"/><polygon fill="#2196F3" points="320.8333,235.612,331.25,239.7786,320.8333,243.9453,325,239.7786" style="stroke:#2196F3;stroke-width:1.0416666666666667;"/><line style="stroke:#2196F3;stroke-width:3.125;" x1="22.9167" x2="327.0833" y1="239.7786" y2="239.7786"/><text fill="#222222" font-family="Verdana" font-size="12.5" font-weight="bold" lengthAdjust="spacing" textLength="8.3333" x="36.4583" y="224.3306">1</text><text fill="#222222" font-family="Verdana" font-size="12.5" lengthAdjust="spacing" textLength="107.2917" x="69.7917" y="224.3306">GDP SEND event</text><polygon fill="#2196F3" points="623.9583,285.5794,634.375,289.7461,623.9583,293.9128,628.125,289.7461" style="stroke:#2196F3;stroke-width:1.0416666666666667;"/><line style="stroke:#2196F3;stroke-width:3.125;" x1="338.5417" x2="630.2083" y1="289.7461" y2="289.7461"/><text fill="#222222" font-family="Verdana" font-size="12.5" font-weight="bold" lengthAdjust="spacing" textLength="8.3333" x="356.25" y="274.2981">2</text><text fill="#222222" font-family="Verdana" font-size="12.5" lengthAdjust="spacing" textLength="144.7917" x="389.5833" y="274.2981">GET /activations/payer</text><path d="M25,305.3711 L108.3333,305.3711 L108.3333,332.4219 L97.9167,342.8385 L20.8333,342.8385 L20.8333,309.5378 A4.1667,4.1667 0 0 1 25,305.3711 " fill="#FFFFFF" style="stroke:#666666;stroke-width:1.0416666666666667;"/><rect fill="none" height="838.9974" rx="4.1667" ry="4.1667" style="stroke:#2196F3;stroke-width:1.0416666666666667;" width="1258.8542" x="20.8333" y="305.3711"/><text fill="#9C27B0" font-family="Verdana" font-size="12.5" font-weight="bold" lengthAdjust="spacing" textLength="19.7917" x="46.875" y="328.4322">alt</text><text fill="#222222" font-family="Verdana" font-size="12.5" font-weight="bold" lengthAdjust="spacing" textLength="126.0417" x="134.375" y="329.4739">[payer activated]</text><polygon fill="#2196F3" points="350,400.0651,339.5833,404.2318,350,408.3984,345.8333,404.2318" style="stroke:#2196F3;stroke-width:1.0416666666666667;"/><line style="stroke:#2196F3;stroke-width:3.125;stroke-dasharray:2.0,2.0;" x1="343.75" x2="640.625" y1="404.2318" y2="404.2318"/><text fill="#222222" font-family="Verdana" font-size="12.5" font-weight="bold" lengthAdjust="spacing" textLength="8.3333" x="366.6667" y="388.7838">3</text><text fill="#222222" font-family="Verdana" font-size="12.5" lengthAdjust="spacing" textLength="154.1667" x="400" y="388.7838">payer + serviceProvider</text><polygon fill="#2196F3" points="876.0417,454.7201,886.4583,458.8867,876.0417,463.0534,880.2083,458.8867" style="stroke:#2196F3;stroke-width:1.0416666666666667;"/><line style="stroke:#2196F3;stroke-width:3.125;" x1="338.5417" x2="882.2917" y1="458.8867" y2="458.8867"/><text fill="#222222" font-family="Verdana" font-size="12.5" font-weight="bold" lengthAdjust="spacing" textLength="8.3333" x="356.25" y="443.4387">4</text><text fill="#222222" font-family="Verdana" font-size="12.5" lengthAdjust="spacing" textLength="105.2083" x="389.5833" y="443.4387">getRegistryData</text><path d="M31.25,421.9401 L31.25,458.3984 A4.1667,4.1667 0 0 0 35.4167,462.5651 L315.625,462.5651 A4.1667,4.1667 0 0 0 319.7917,458.3984 L319.7917,428.1901 L309.375,417.7734 L35.4167,417.7734 A4.1667,4.1667 0 0 0 31.25,421.9401 " fill="url(#guht4fsw5ye2l2)" filter="url(#fuht4fsw5ye2l)" style="stroke:#9C27B0;stroke-width:1.0416666666666667;"/><path d="M309.375,417.7734 L309.375,426.1068 A2.0833,2.0833 0 0 0 311.4583,428.1901 L319.7917,428.1901 L309.375,417.7734 " fill="url(#guht4fsw5ye2l2)" style="stroke:#9C27B0;stroke-width:1.0416666666666667;"/><text fill="#FFFFFF" font-family="Verdana" font-size="12.5" lengthAdjust="spacing" textLength="245.8333" x="47.9167" y="445.0012">Search key: payerId + serviceProvider</text><polygon fill="#2196F3" points="350,509.375,339.5833,513.5417,350,517.7083,345.8333,513.5417" style="stroke:#2196F3;stroke-width:1.0416666666666667;"/><line style="stroke:#2196F3;stroke-width:3.125;stroke-dasharray:2.0,2.0;" x1="343.75" x2="892.7083" y1="513.5417" y2="513.5417"/><text fill="#222222" font-family="Verdana" font-size="12.5" font-weight="bold" lengthAdjust="spacing" textLength="8.3333" x="366.6667" y="498.0937">5</text><text fill="#222222" font-family="Verdana" font-size="12.5" lengthAdjust="spacing" textLength="138.5417" x="400" y="498.0937">Service Provider data</text><line style="stroke:#2196F3;stroke-width:3.125;" x1="338.5417" x2="382.2917" y1="563.5091" y2="563.5091"/><line style="stroke:#2196F3;stroke-width:3.125;" x1="382.2917" x2="382.2917" y1="563.5091" y2="577.0508"/><line style="stroke:#2196F3;stroke-width:3.125;" x1="339.5833" x2="382.2917" y1="577.0508" y2="577.0508"/><polygon fill="#2196F3" points="350,572.8841,339.5833,577.0508,350,581.2174,345.8333,577.0508" style="stroke:#2196F3;stroke-width:1.0416666666666667;"/><text fill="#222222" font-family="Verdana" font-size="12.5" font-weight="bold" lengthAdjust="spacing" textLength="8.3333" x="356.25" y="548.0611">6</text><text fill="#222222" font-family="Verdana" font-size="12.5" lengthAdjust="spacing" textLength="229.1667" x="389.5833" y="548.0611">add activation data to EPC payload</text><polygon fill="#2196F3" points="770.8333,622.8516,781.25,627.0182,770.8333,631.1849,775,627.0182" style="stroke:#2196F3;stroke-width:1.0416666666666667;"/><line style="stroke:#2196F3;stroke-width:3.125;" x1="338.5417" x2="777.0833" y1="627.0182" y2="627.0182"/><text fill="#222222" font-family="Verdana" font-size="12.5" font-weight="bold" lengthAdjust="spacing" textLength="8.3333" x="356.25" y="611.5702">7</text><text fill="#222222" font-family="Verdana" font-size="12.5" lengthAdjust="spacing" textLength="131.25" x="389.5833" y="611.5702">save RTP (CREATED)</text><polygon fill="#2196F3" points="350,672.819,339.5833,676.9857,350,681.1523,345.8333,676.9857" style="stroke:#2196F3;stroke-width:1.0416666666666667;"/><line style="stroke:#2196F3;stroke-width:3.125;stroke-dasharray:2.0,2.0;" x1="343.75" x2="787.5" y1="676.9857" y2="676.9857"/><text fill="#222222" font-family="Verdana" font-size="12.5" font-weight="bold" lengthAdjust="spacing" textLength="8.3333" x="366.6667" y="661.5377">8</text><text fill="#222222" font-family="Verdana" font-size="12.5" lengthAdjust="spacing" textLength="51.0417" x="400" y="661.5377">created</text><path d="M228.6458,692.6107 L311.9792,692.6107 L311.9792,719.6615 L301.5625,730.0781 L224.4792,730.0781 L224.4792,696.7773 A4.1667,4.1667 0 0 1 228.6458,692.6107 " fill="#FFFFFF" style="stroke:#666666;stroke-width:1.0416666666666667;"/><rect fill="none" height="157.1615" rx="4.1667" ry="4.1667" style="stroke:#2196F3;stroke-width:1.0416666666666667;" width="896.875" x="224.4792" y="692.6107"/><text fill="#9C27B0" font-family="Verdana" font-size="12.5" font-weight="bold" lengthAdjust="spacing" textLength="19.7917" x="250.5208" y="715.6718">alt</text><text fill="#222222" font-family="Verdana" font-size="12.5" font-weight="bold" lengthAdjust="spacing" textLength="155.2083" x="338.0208" y="716.7135">[flag oAuth2 == true]</text><polygon fill="#2196F3" points="1022.3958,787.3047,1032.8125,791.4714,1022.3958,795.638,1026.5625,791.4714" style="stroke:#2196F3;stroke-width:1.0416666666666667;"/><line style="stroke:#2196F3;stroke-width:3.125;" x1="338.5417" x2="1028.6458" y1="791.4714" y2="791.4714"/><text fill="#222222" font-family="Verdana" font-size="12.5" font-weight="bold" lengthAdjust="spacing" textLength="8.3333" x="356.25" y="776.0234">9</text><text fill="#222222" font-family="Verdana" font-size="12.5" lengthAdjust="spacing" textLength="157.2917" x="389.5833" y="776.0234">OAuth2 token exchange</text><polygon fill="#2196F3" points="350,837.2721,339.5833,841.4388,350,845.6055,345.8333,841.4388" style="stroke:#2196F3;stroke-width:1.0416666666666667;"/><line style="stroke:#2196F3;stroke-width:3.125;stroke-dasharray:2.0,2.0;" x1="343.75" x2="1039.0625" y1="841.4388" y2="841.4388"/><text fill="#222222" font-family="Verdana" font-size="12.5" font-weight="bold" lengthAdjust="spacing" textLength="16.6667" x="366.6667" y="825.9908">10</text><text fill="#222222" font-family="Verdana" font-size="12.5" lengthAdjust="spacing" textLength="176.0417" x="408.3333" y="825.9908">200 received access token</text><polygon fill="#2196F3" points="1177.6042,894.5313,1188.0208,898.6979,1177.6042,902.8646,1181.7708,898.6979" style="stroke:#2196F3;stroke-width:1.0416666666666667;"/><line style="stroke:#2196F3;stroke-width:3.125;" x1="338.5417" x2="1183.8542" y1="898.6979" y2="898.6979"/><text fill="#222222" font-family="Verdana" font-size="12.5" font-weight="bold" lengthAdjust="spacing" textLength="16.6667" x="356.25" y="883.2499">11</text><text fill="#222222" font-family="Verdana" font-size="12.5" lengthAdjust="spacing" textLength="173.9583" x="397.9167" y="883.2499">POST /sepa-request-to-pay</text><polygon fill="#2196F3" points="350,944.4987,339.5833,948.6654,350,952.832,345.8333,948.6654" style="stroke:#2196F3;stroke-width:1.0416666666666667;"/><line style="stroke:#2196F3;stroke-width:3.125;stroke-dasharray:2.0,2.0;" x1="343.75" x2="1194.2708" y1="948.6654" y2="948.6654"/><text fill="#222222" font-family="Verdana" font-size="12.5" font-weight="bold" lengthAdjust="spacing" textLength="16.6667" x="366.6667" y="933.2174">12</text><text fill="#222222" font-family="Verdana" font-size="12.5" lengthAdjust="spacing" textLength="90.625" x="408.3333" y="933.2174">202 accepted</text><polygon fill="#2196F3" points="770.8333,994.4661,781.25,998.6328,770.8333,1002.7995,775,998.6328" style="stroke:#2196F3;stroke-width:1.0416666666666667;"/><line style="stroke:#2196F3;stroke-width:3.125;" x1="338.5417" x2="777.0833" y1="998.6328" y2="998.6328"/><text fill="#222222" font-family="Verdana" font-size="12.5" font-weight="bold" lengthAdjust="spacing" textLength="16.6667" x="356.25" y="983.1848">13</text><text fill="#222222" font-family="Verdana" font-size="12.5" lengthAdjust="spacing" textLength="106.25" x="397.9167" y="983.1848">save RTP (SENT)</text><polygon fill="#2196F3" points="350,1044.4336,339.5833,1048.6003,350,1052.7669,345.8333,1048.6003" style="stroke:#2196F3;stroke-width:1.0416666666666667;"/><line style="stroke:#2196F3;stroke-width:3.125;stroke-dasharray:2.0,2.0;" x1="343.75" x2="787.5" y1="1048.6003" y2="1048.6003"/><text fill="#222222" font-family="Verdana" font-size="12.5" font-weight="bold" lengthAdjust="spacing" textLength="16.6667" x="366.6667" y="1033.1523">14</text><text fill="#222222" font-family="Verdana" font-size="12.5" lengthAdjust="spacing" textLength="55.2083" x="408.3333" y="1033.1523">updated</text><line style="stroke:#2196F3;stroke-width:1.0416666666666667;stroke-dasharray:2.0,2.0;" x1="20.8333" x2="1279.6875" y1="1057.9753" y2="1057.9753"/><text fill="#222222" font-family="Verdana" font-size="12.5" font-weight="bold" lengthAdjust="spacing" textLength="155.2083" x="36.4583" y="1079.9947">[payer not activated]</text><polygon fill="#2196F3" points="350,1131.8685,339.5833,1136.0352,350,1140.2018,345.8333,1136.0352" style="stroke:#2196F3;stroke-width:1.0416666666666667;"/><line style="stroke:#2196F3;stroke-width:3.125;stroke-dasharray:2.0,2.0;" x1="343.75" x2="640.625" y1="1136.0352" y2="1136.0352"/><text fill="#222222" font-family="Verdana" font-size="12.5" font-weight="bold" lengthAdjust="spacing" textLength="16.6667" x="366.6667" y="1120.5872">15</text><text fill="#222222" font-family="Verdana" font-size="12.5" lengthAdjust="spacing" textLength="63.5417" x="408.3333" y="1120.5872">not found</text><!--SRC=[ZLHDRzim3BthLt2zjCMGDCZHG0UaSHO4Q1SZTdlPBgp5948ToPDaT_dte-KudsknNC9GZ-JZ8vbhI0hK_ldf4MA5AuiRM1eBYoo1bBI4KJ8Jrv0fNr04CNbK1Sd3Sqg_Az8vTS6CVI7hbD4H3Fk3_e0TCRdSgj87PxPM3kIkabkRTmT-JI2xp4fxiXeBAAt9oRd0nd4ffLUSw-I3EX319OV0D4x0b6IngGCr5ae6io_45wwm8TWWunGAuPjkGkZO4ZlXUs7UXIZHUfMhakM0gwUqbqv-n9F55Q23rhn0ZCRPx6MKpLlGT26u9BwY8xZYx6aRojQHFoLRAzPhGIlblDt-qZSFZ_E7sntsjCJuOHRy_7twa2Pn6v34Gc3bZQushsI5-6bwttPieo19OmFLfBqGhHyOCMrU9ndSOUvL7NHoToLkESNEGrtF-z_Sdi32Gu11vvQYcSIKinuLRY5VUMwXsSIQMadEtK0bdMGClWEnbADNv3jrOjOj80wi5k6tDcmNjFGHho3QV0rljDqLdiaFIgUdBBjHT1YGNRKZZbpldE8k7AM4WtmX6Bo1IJ9kQ1G6vMLpMHA1mxfTlflnOZBA9l7jUOUyC2rT1XqJpiEsoakA7D3cuF4i2ro16LL-FOJxU_2s8j4Tp84ARrG4ynRbpHjfe3_v6lNg0DxdRxQlSx9zGcau682bd5HDZHhXOaE-VSGHqIuHN_E5D4aSGJ9FUIKTbTYppV-AyprlUYpccK2yz24wYS-u30E5ybyQDOVo-JJu9VllKLIb_7WKLF2bjpV0U_hvgJI0fQbOaQ2AE4xM7k1V]--></g></svg>