<?xml version="1.0" encoding="us-ascii" standalone="no"?><svg xmlns="http://www.w3.org/2000/svg" xmlns:xlink="http://www.w3.org/1999/xlink" contentStyleType="text/css" height="2448.9583px" preserveAspectRatio="none" style="width:1689px;height:2448px;" version="1.1" viewBox="0 0 1689 2448" width="1689.5833px" zoomAndPan="magnify"><defs><linearGradient id="gp9hxj2ixzm2s0" x1="50%" x2="50%" y1="0%" y2="100%"><stop offset="0%" stop-color="#FFFFFF"/><stop offset="100%" stop-color="#FFFFFF"/></linearGradient><filter height="300%" id="fp9hxj2ixzm2s" width="300%" x="-1" y="-1"><feGaussianBlur result="blurOut" stdDeviation="2.0833333333333335"/><feColorMatrix in="blurOut" result="blurOut2" type="matrix" values="0 0 0 0 0 0 0 0 0 0 0 0 0 0 0 0 0 0 .4 0"/><feOffset dx="4.166666666666667" dy="4.166666666666667" in="blurOut2" result="blurOut3"/><feBlend in="SourceGraphic" in2="blurOut3" mode="normal"/></filter><linearGradient id="gp9hxj2ixzm2s1" x1="50%" x2="50%" y1="0%" y2="100%"><stop offset="0%" stop-color="#4DABF5"/><stop offset="100%" stop-color="#2196F3"/></linearGradient><linearGradient id="gp9hxj2ixzm2s2" x1="50%" x2="50%" y1="0%" y2="100%"><stop offset="0%" stop-color="#B052C0"/><stop offset="100%" stop-color="#9C27B0"/></linearGradient></defs><g><rect fill="url(#gp9hxj2ixzm2s0)" height="57.5846" id="_title" rx="4.1667" ry="4.1667" style="stroke:#CCCCCC;stroke-width:1.0416666666666667;" width="229.1667" x="731.5104" y="20.8333"/><text fill="#2196F3" font-family="Verdana" font-size="20.8333" font-weight="bold" lengthAdjust="spacing" textLength="195.8333" x="748.1771" y="56.838">RTP Create Flow</text><rect fill="#FFFFFF" filter="url(#fp9hxj2ixzm2s)" height="2050.651" style="stroke:#CCCCCC;stroke-width:1.0416666666666667;" width="10.4167" x="481.25" y="268.8802"/><rect fill="#FFFFFF" filter="url(#fp9hxj2ixzm2s)" height="114.4857" style="stroke:#CCCCCC;stroke-width:1.0416666666666667;" width="10.4167" x="797.9167" y="318.8477"/><rect fill="#FFFFFF" filter="url(#fp9hxj2ixzm2s)" height="114.4857" style="stroke:#CCCCCC;stroke-width:1.0416666666666667;" width="10.4167" x="1008.3333" y="1278.5807"/><rect fill="#FFFFFF" filter="url(#fp9hxj2ixzm2s)" height="49.9674" style="stroke:#CCCCCC;stroke-width:1.0416666666666667;" width="10.4167" x="1155.2083" y="1680.3711"/><rect fill="#FFFFFF" filter="url(#fp9hxj2ixzm2s)" height="49.9674" style="stroke:#CCCCCC;stroke-width:1.0416666666666667;" width="10.4167" x="1155.2083" y="2051.9857"/><rect fill="#FFFFFF" filter="url(#fp9hxj2ixzm2s)" height="123.8607" style="stroke:#CCCCCC;stroke-width:1.0416666666666667;" width="10.4167" x="1260.4167" y="1443.0339"/><rect fill="#FFFFFF" filter="url(#fp9hxj2ixzm2s)" height="49.9674" style="stroke:#CCCCCC;stroke-width:1.0416666666666667;" width="10.4167" x="1406.7708" y="1844.8242"/><rect fill="#FFFFFF" filter="url(#fp9hxj2ixzm2s)" height="49.9674" style="stroke:#CCCCCC;stroke-width:1.0416666666666667;" width="10.4167" x="1561.9792" y="1952.0508"/><rect fill="url(#gp9hxj2ixzm2s0)" filter="url(#fp9hxj2ixzm2s)" height="1977.7669" rx="4.1667" ry="4.1667" style="stroke:#2196F3;stroke-width:1.0416666666666667;" width="1651.5625" x="20.8333" y="334.4727"/><path d="M20.8333,643.5872 L1672.3958,643.5872 L1672.3958,2308.0729 A4.1667,4.1667 0 0 1 1668.2292,2312.2396 L25,2312.2396 A4.1667,4.1667 0 0 1 20.8333,2308.0729 L20.8333,643.5872 " fill="url(#gp9hxj2ixzm2s0)" style="stroke:none;stroke-width:1.0416666666666667;"/><rect fill="url(#gp9hxj2ixzm2s0)" filter="url(#fp9hxj2ixzm2s)" height="1276.1719" rx="4.1667" ry="4.1667" style="stroke:#2196F3;stroke-width:1.0416666666666667;" width="1630.7292" x="31.25" y="1028.776"/><path d="M31.25,1135.9701 L1661.9792,1135.9701 L1661.9792,2300.7813 A4.1667,4.1667 0 0 1 1657.8125,2304.9479 L35.4167,2304.9479 A4.1667,4.1667 0 0 1 31.25,2300.7813 L31.25,1135.9701 " fill="url(#gp9hxj2ixzm2s0)" style="stroke:none;stroke-width:1.0416666666666667;"/><rect fill="url(#gp9hxj2ixzm2s0)" filter="url(#fp9hxj2ixzm2s)" height="1003.4505" rx="4.1667" ry="4.1667" style="stroke:#2196F3;stroke-width:1.0416666666666667;" width="1609.8958" x="41.6667" y="1294.2057"/><rect fill="url(#gp9hxj2ixzm2s0)" filter="url(#fp9hxj2ixzm2s)" height="157.1615" rx="4.1667" ry="4.1667" style="stroke:#2196F3;stroke-width:1.0416666666666667;" width="1115.625" x="377.6042" y="1745.9635"/><path d="M41.6667,2160.2539 L1651.5625,2160.2539 L1651.5625,2293.4896 A4.1667,4.1667 0 0 1 1647.3958,2297.6563 L45.8333,2297.6563 A4.1667,4.1667 0 0 1 41.6667,2293.4896 L41.6667,2160.2539 " fill="url(#gp9hxj2ixzm2s0)" style="stroke:none;stroke-width:1.0416666666666667;"/><line style="stroke:#CCCCCC;stroke-width:1.0416666666666667;stroke-dasharray:5.0,5.0;" x1="160.4167" x2="160.4167" y1="187.7279" y2="2329.9479"/><line style="stroke:#CCCCCC;stroke-width:1.0416666666666667;stroke-dasharray:5.0,5.0;" x1="485.9375" x2="485.9375" y1="187.7279" y2="2329.9479"/><line style="stroke:#CCCCCC;stroke-width:1.0416666666666667;stroke-dasharray:5.0,5.0;" x1="802.6042" x2="802.6042" y1="187.7279" y2="2329.9479"/><line style="stroke:#CCCCCC;stroke-width:1.0416666666666667;stroke-dasharray:5.0,5.0;" x1="1013.0208" x2="1013.0208" y1="187.7279" y2="2329.9479"/><line style="stroke:#CCCCCC;stroke-width:1.0416666666666667;stroke-dasharray:5.0,5.0;" x1="1159.8958" x2="1159.8958" y1="187.7279" y2="2329.9479"/><line style="stroke:#CCCCCC;stroke-width:1.0416666666666667;stroke-dasharray:5.0,5.0;" x1="1265.1042" x2="1265.1042" y1="187.7279" y2="2329.9479"/><line style="stroke:#CCCCCC;stroke-width:1.0416666666666667;stroke-dasharray:5.0,5.0;" x1="1411.9792" x2="1411.9792" y1="187.7279" y2="2329.9479"/><line style="stroke:#CCCCCC;stroke-width:1.0416666666666667;stroke-dasharray:5.0,5.0;" x1="1567.1875" x2="1567.1875" y1="187.7279" y2="2329.9479"/><rect fill="url(#gp9hxj2ixzm2s1)" filter="url(#fp9hxj2ixzm2s)" height="49.9674" rx="4.1667" ry="4.1667" style="stroke:#2196F3;stroke-width:1.0416666666666667;" width="130.2083" x="93.75" y="133.5938"/><text fill="#FFFFFF" font-family="Verdana" font-size="12.5" lengthAdjust="spacing" textLength="94.7917" x="111.4583" y="162.9049">MS-CONSUMER</text><rect fill="url(#gp9hxj2ixzm2s1)" filter="url(#fp9hxj2ixzm2s)" height="49.9674" rx="4.1667" ry="4.1667" style="stroke:#2196F3;stroke-width:1.0416666666666667;" width="130.2083" x="93.75" y="2328.9063"/><text fill="#FFFFFF" font-family="Verdana" font-size="12.5" lengthAdjust="spacing" textLength="94.7917" x="111.4583" y="2358.2174">MS-CONSUMER</text><rect fill="url(#gp9hxj2ixzm2s1)" filter="url(#fp9hxj2ixzm2s)" height="49.9674" rx="4.1667" ry="4.1667" style="stroke:#2196F3;stroke-width:1.0416666666666667;" width="110.4167" x="429.6875" y="133.5938"/><text fill="#FFFFFF" font-family="Verdana" font-size="12.5" lengthAdjust="spacing" textLength="75" x="447.3958" y="162.9049">MS-SENDER</text><rect fill="url(#gp9hxj2ixzm2s1)" filter="url(#fp9hxj2ixzm2s)" height="49.9674" rx="4.1667" ry="4.1667" style="stroke:#2196F3;stroke-width:1.0416666666666667;" width="110.4167" x="429.6875" y="2328.9063"/><text fill="#FFFFFF" font-family="Verdana" font-size="12.5" lengthAdjust="spacing" textLength="75" x="447.3958" y="2358.2174">MS-SENDER</text><text fill="#222222" font-family="Verdana" font-size="12.5" lengthAdjust="spacing" textLength="35.4167" x="782.2917" y="159.8124">Redis</text><text fill="#222222" font-family="Verdana" font-size="12.5" lengthAdjust="spacing" textLength="159.375" x="720.3125" y="174.3632">(Idempotency Key Store)</text><path d="M784.375,100.293 C784.375,89.8763 803.125,89.8763 803.125,89.8763 C803.125,89.8763 821.875,89.8763 821.875,100.293 L821.875,127.3763 C821.875,137.793 803.125,137.793 803.125,137.793 C803.125,137.793 784.375,137.793 784.375,127.3763 L784.375,100.293 " fill="url(#gp9hxj2ixzm2s1)" filter="url(#fp9hxj2ixzm2s)" style="stroke:#2196F3;stroke-width:1.5625;"/><path d="M784.375,100.293 C784.375,110.7096 803.125,110.7096 803.125,110.7096 C803.125,110.7096 821.875,110.7096 821.875,100.293 " fill="none" style="stroke:#2196F3;stroke-width:1.5625;"/><text fill="#222222" font-family="Verdana" font-size="12.5" lengthAdjust="spacing" textLength="35.4167" x="782.2917" y="2350.9257">Redis</text><text fill="#222222" font-family="Verdana" font-size="12.5" lengthAdjust="spacing" textLength="159.375" x="720.3125" y="2365.4765">(Idempotency Key Store)</text><path d="M784.375,2389.2578 C784.375,2378.8411 803.125,2378.8411 803.125,2378.8411 C803.125,2378.8411 821.875,2378.8411 821.875,2389.2578 L821.875,2416.3411 C821.875,2426.7578 803.125,2426.7578 803.125,2426.7578 C803.125,2426.7578 784.375,2426.7578 784.375,2416.3411 L784.375,2389.2578 " fill="url(#gp9hxj2ixzm2s1)" filter="url(#fp9hxj2ixzm2s)" style="stroke:#2196F3;stroke-width:1.5625;"/><path d="M784.375,2389.2578 C784.375,2399.6745 803.125,2399.6745 803.125,2399.6745 C803.125,2399.6745 821.875,2399.6745 821.875,2389.2578 " fill="none" style="stroke:#2196F3;stroke-width:1.5625;"/><rect fill="url(#gp9hxj2ixzm2s1)" filter="url(#fp9hxj2ixzm2s)" height="49.9674" rx="4.1667" ry="4.1667" style="stroke:#2196F3;stroke-width:1.0416666666666667;" width="127.0833" x="948.4375" y="133.5938"/><text fill="#FFFFFF" font-family="Verdana" font-size="12.5" lengthAdjust="spacing" textLength="91.6667" x="966.1458" y="162.9049">MS-ACTIVATOR</text><rect fill="url(#gp9hxj2ixzm2s1)" filter="url(#fp9hxj2ixzm2s)" height="49.9674" rx="4.1667" ry="4.1667" style="stroke:#2196F3;stroke-width:1.0416666666666667;" width="127.0833" x="948.4375" y="2328.9063"/><text fill="#FFFFFF" font-family="Verdana" font-size="12.5" lengthAdjust="spacing" textLength="91.6667" x="966.1458" y="2358.2174">MS-ACTIVATOR</text><text fill="#222222" font-family="Verdana" font-size="12.5" lengthAdjust="spacing" textLength="32.2917" x="1141.1458" y="174.3632">RTPS</text><path d="M1141.6667,114.8438 C1141.6667,104.4271 1160.4167,104.4271 1160.4167,104.4271 C1160.4167,104.4271 1179.1667,104.4271 1179.1667,114.8438 L1179.1667,141.9271 C1179.1667,152.3438 1160.4167,152.3438 1160.4167,152.3438 C1160.4167,152.3438 1141.6667,152.3438 1141.6667,141.9271 L1141.6667,114.8438 " fill="url(#gp9hxj2ixzm2s1)" filter="url(#fp9hxj2ixzm2s)" style="stroke:#2196F3;stroke-width:1.5625;"/><path d="M1141.6667,114.8438 C1141.6667,125.2604 1160.4167,125.2604 1160.4167,125.2604 C1160.4167,125.2604 1179.1667,125.2604 1179.1667,114.8438 " fill="none" style="stroke:#2196F3;stroke-width:1.5625;"/><text fill="#222222" font-family="Verdana" font-size="12.5" lengthAdjust="spacing" textLength="32.2917" x="1141.1458" y="2350.9257">RTPS</text><path d="M1141.6667,2374.707 C1141.6667,2364.2904 1160.4167,2364.2904 1160.4167,2364.2904 C1160.4167,2364.2904 1179.1667,2364.2904 1179.1667,2374.707 L1179.1667,2401.7904 C1179.1667,2412.207 1160.4167,2412.207 1160.4167,2412.207 C1160.4167,2412.207 1141.6667,2412.207 1141.6667,2401.7904 L1141.6667,2374.707 " fill="url(#gp9hxj2ixzm2s1)" filter="url(#fp9hxj2ixzm2s)" style="stroke:#2196F3;stroke-width:1.5625;"/><path d="M1141.6667,2374.707 C1141.6667,2385.1237 1160.4167,2385.1237 1160.4167,2385.1237 C1160.4167,2385.1237 1179.1667,2385.1237 1179.1667,2374.707 " fill="none" style="stroke:#2196F3;stroke-width:1.5625;"/><text fill="#222222" font-family="Verdana" font-size="12.5" lengthAdjust="spacing" textLength="103.125" x="1210.9375" y="159.8124">Service Registry</text><text fill="#222222" font-family="Verdana" font-size="12.5" lengthAdjust="spacing" textLength="42.7083" x="1241.1458" y="174.3632">(BLOB)</text><path d="M1246.875,100.293 C1246.875,89.8763 1265.625,89.8763 1265.625,89.8763 C1265.625,89.8763 1284.375,89.8763 1284.375,100.293 L1284.375,127.3763 C1284.375,137.793 1265.625,137.793 1265.625,137.793 C1265.625,137.793 1246.875,137.793 1246.875,127.3763 L1246.875,100.293 " fill="url(#gp9hxj2ixzm2s1)" filter="url(#fp9hxj2ixzm2s)" style="stroke:#2196F3;stroke-width:1.5625;"/><path d="M1246.875,100.293 C1246.875,110.7096 1265.625,110.7096 1265.625,110.7096 C1265.625,110.7096 1284.375,110.7096 1284.375,100.293 " fill="none" style="stroke:#2196F3;stroke-width:1.5625;"/><text fill="#222222" font-family="Verdana" font-size="12.5" lengthAdjust="spacing" textLength="103.125" x="1210.9375" y="2350.9257">Service Registry</text><text fill="#222222" font-family="Verdana" font-size="12.5" lengthAdjust="spacing" textLength="42.7083" x="1241.1458" y="2365.4765">(BLOB)</text><path d="M1246.875,2389.2578 C1246.875,2378.8411 1265.625,2378.8411 1265.625,2378.8411 C1265.625,2378.8411 1284.375,2378.8411 1284.375,2389.2578 L1284.375,2416.3411 C1284.375,2426.7578 1265.625,2426.7578 1265.625,2426.7578 C1265.625,2426.7578 1246.875,2426.7578 1246.875,2416.3411 L1246.875,2389.2578 " fill="url(#gp9hxj2ixzm2s1)" filter="url(#fp9hxj2ixzm2s)" style="stroke:#2196F3;stroke-width:1.5625;"/><path d="M1246.875,2389.2578 C1246.875,2399.6745 1265.625,2399.6745 1265.625,2399.6745 C1265.625,2399.6745 1284.375,2399.6745 1284.375,2389.2578 " fill="none" style="stroke:#2196F3;stroke-width:1.5625;"/><rect fill="url(#gp9hxj2ixzm2s1)" filter="url(#fp9hxj2ixzm2s)" height="49.9674" rx="4.1667" ry="4.1667" style="stroke:#2196F3;stroke-width:1.0416666666666667;" width="55.2083" x="1382.8125" y="133.5938"/><text fill="#FFFFFF" font-family="Verdana" font-size="12.5" lengthAdjust="spacing" textLength="19.7917" x="1400.5208" y="162.9049">CBI</text><rect fill="url(#gp9hxj2ixzm2s1)" filter="url(#fp9hxj2ixzm2s)" height="49.9674" rx="4.1667" ry="4.1667" style="stroke:#2196F3;stroke-width:1.0416666666666667;" width="55.2083" x="1382.8125" y="2328.9063"/><text fill="#FFFFFF" font-family="Verdana" font-size="12.5" lengthAdjust="spacing" textLength="19.7917" x="1400.5208" y="2358.2174">CBI</text><rect fill="url(#gp9hxj2ixzm2s1)" filter="url(#fp9hxj2ixzm2s)" height="49.9674" rx="4.1667" ry="4.1667" style="stroke:#2196F3;stroke-width:1.0416666666666667;" width="61.4583" x="1534.8958" y="133.5938"/><text fill="#FFFFFF" font-family="Verdana" font-size="12.5" lengthAdjust="spacing" textLength="26.0417" x="1552.6042" y="162.9049">DSP</text><rect fill="url(#gp9hxj2ixzm2s1)" filter="url(#fp9hxj2ixzm2s)" height="49.9674" rx="4.1667" ry="4.1667" style="stroke:#2196F3;stroke-width:1.0416666666666667;" width="61.4583" x="1534.8958" y="2328.9063"/><text fill="#FFFFFF" font-family="Verdana" font-size="12.5" lengthAdjust="spacing" textLength="26.0417" x="1552.6042" y="2358.2174">DSP</text><rect fill="#FFFFFF" filter="url(#fp9hxj2ixzm2s)" height="2050.651" style="stroke:#CCCCCC;stroke-width:1.0416666666666667;" width="10.4167" x="481.25" y="268.8802"/><rect fill="#FFFFFF" filter="url(#fp9hxj2ixzm2s)" height="114.4857" style="stroke:#CCCCCC;stroke-width:1.0416666666666667;" width="10.4167" x="797.9167" y="318.8477"/><rect fill="#FFFFFF" filter="url(#fp9hxj2ixzm2s)" height="114.4857" style="stroke:#CCCCCC;stroke-width:1.0416666666666667;" width="10.4167" x="1008.3333" y="1278.5807"/><rect fill="#FFFFFF" filter="url(#fp9hxj2ixzm2s)" height="49.9674" style="stroke:#CCCCCC;stroke-width:1.0416666666666667;" width="10.4167" x="1155.2083" y="1680.3711"/><rect fill="#FFFFFF" filter="url(#fp9hxj2ixzm2s)" height="49.9674" style="stroke:#CCCCCC;stroke-width:1.0416666666666667;" width="10.4167" x="1155.2083" y="2051.9857"/><rect fill="#FFFFFF" filter="url(#fp9hxj2ixzm2s)" height="123.8607" style="stroke:#CCCCCC;stroke-width:1.0416666666666667;" width="10.4167" x="1260.4167" y="1443.0339"/><rect fill="#FFFFFF" filter="url(#fp9hxj2ixzm2s)" height="49.9674" style="stroke:#CCCCCC;stroke-width:1.0416666666666667;" width="10.4167" x="1406.7708" y="1844.8242"/><rect fill="#FFFFFF" filter="url(#fp9hxj2ixzm2s)" height="49.9674" style="stroke:#CCCCCC;stroke-width:1.0416666666666667;" width="10.4167" x="1561.9792" y="1952.0508"/><polygon fill="#2196F3" points="468.75,264.7135,479.1667,268.8802,468.75,273.0469,472.9167,268.8802" style="stroke:#2196F3;stroke-width:1.0416666666666667;"/><line style="stroke:#2196F3;stroke-width:3.125;" x1="160.4167" x2="475" y1="268.8802" y2="268.8802"/><text fill="#222222" font-family="Verdana" font-size="12.5" font-weight="bold" lengthAdjust="spacing" textLength="8.3333" x="178.125" y="238.8814">1</text><text fill="#222222" font-family="Verdana" font-size="12.5" lengthAdjust="spacing" textLength="132.2917" x="211.4583" y="224.3306">CREATE RTP request</text><text fill="#222222" font-family="Verdana" font-size="12.5" lengthAdjust="spacing" textLength="246.875" x="211.4583" y="238.8814">Headers: Idempotency-Key, RequestId</text><text fill="#222222" font-family="Verdana" font-size="12.5" lengthAdjust="spacing" textLength="176.0417" x="211.4583" y="253.4322">Payload: RTP creation data</text><polygon fill="#2196F3" points="785.4167,314.681,795.8333,318.8477,785.4167,323.0143,789.5833,318.8477" style="stroke:#2196F3;stroke-width:1.0416666666666667;"/><line style="stroke:#2196F3;stroke-width:3.125;" x1="491.6667" x2="791.6667" y1="318.8477" y2="318.8477"/><text fill="#222222" font-family="Verdana" font-size="12.5" font-weight="bold" lengthAdjust="spacing" textLength="8.3333" x="509.375" y="303.3997">2</text><text fill="#222222" font-family="Verdana" font-size="12.5" lengthAdjust="spacing" textLength="152.0833" x="542.7083" y="303.3997">check Idempotency-Key</text><path d="M25,334.4727 L108.3333,334.4727 L108.3333,361.5234 L97.9167,371.9401 L20.8333,371.9401 L20.8333,338.6393 A4.1667,4.1667 0 0 1 25,334.4727 " fill="#FFFFFF" style="stroke:#666666;stroke-width:1.0416666666666667;"/><rect fill="none" height="1977.7669" rx="4.1667" ry="4.1667" style="stroke:#2196F3;stroke-width:1.0416666666666667;" width="1651.5625" x="20.8333" y="334.4727"/><text fill="#9C27B0" font-family="Verdana" font-size="12.5" font-weight="bold" lengthAdjust="spacing" textLength="19.7917" x="46.875" y="357.5338">alt</text><text fill="#222222" font-family="Verdana" font-size="12.5" font-weight="bold" lengthAdjust="spacing" textLength="260.4167" x="134.375" y="358.5754">[Idempotency-Key already present]</text><polygon fill="#2196F3" points="503.125,429.1667,492.7083,433.3333,503.125,437.5,498.9583,433.3333" style="stroke:#2196F3;stroke-width:1.0416666666666667;"/><line style="stroke:#2196F3;stroke-width:3.125;stroke-dasharray:2.0,2.0;" x1="496.875" x2="802.0833" y1="433.3333" y2="433.3333"/><text fill="#222222" font-family="Verdana" font-size="12.5" font-weight="bold" lengthAdjust="spacing" textLength="8.3333" x="519.7917" y="417.8853">3</text><text fill="#222222" font-family="Verdana" font-size="12.5" lengthAdjust="spacing" textLength="63.5417" x="553.125" y="417.8853">key found</text><line style="stroke:#2196F3;stroke-width:3.125;" x1="491.6667" x2="535.4167" y1="483.3008" y2="483.3008"/><line style="stroke:#2196F3;stroke-width:3.125;" x1="535.4167" x2="535.4167" y1="483.3008" y2="496.8424"/><line style="stroke:#2196F3;stroke-width:3.125;" x1="492.7083" x2="535.4167" y1="496.8424" y2="496.8424"/><polygon fill="#2196F3" points="503.125,492.6758,492.7083,496.8424,503.125,501.0091,498.9583,496.8424" style="stroke:#2196F3;stroke-width:1.0416666666666667;"/><text fill="#222222" font-family="Verdana" font-size="12.5" font-weight="bold" lengthAdjust="spacing" textLength="8.3333" x="509.375" y="467.8528">4</text><text fill="#222222" font-family="Verdana" font-size="12.5" lengthAdjust="spacing" textLength="184.375" x="542.7083" y="467.8528">discard duplicated message</text><path d="M496.875,514.5508 L496.875,580.1758 A4.1667,4.1667 0 0 0 501.0417,584.3424 L692.7083,584.3424 A4.1667,4.1667 0 0 0 696.875,580.1758 L696.875,520.8008 L686.4583,510.3841 L501.0417,510.3841 A4.1667,4.1667 0 0 0 496.875,514.5508 " fill="url(#gp9hxj2ixzm2s2)" filter="url(#fp9hxj2ixzm2s)" style="stroke:#9C27B0;stroke-width:1.0416666666666667;"/><path d="M686.4583,510.3841 L686.4583,518.7174 A2.0833,2.0833 0 0 0 688.5417,520.8008 L696.875,520.8008 L686.4583,510.3841 " fill="url(#gp9hxj2ixzm2s2)" style="stroke:#9C27B0;stroke-width:1.0416666666666667;"/><text fill="#FFFFFF" font-family="Verdana" font-size="12.5" lengthAdjust="spacing" textLength="137.5" x="513.5417" y="537.6119">Duplicated message:</text><text fill="#FFFFFF" font-family="Verdana" font-size="12.5" lengthAdjust="spacing" textLength="120.8333" x="513.5417" y="552.1627">already processed</text><text fill="#FFFFFF" font-family="Verdana" font-size="12.5" lengthAdjust="spacing" textLength="157.2917" x="513.5417" y="566.7135">or already in processing</text><polygon fill="#2196F3" points="171.875,631.0872,161.4583,635.2539,171.875,639.4206,167.7083,635.2539" style="stroke:#2196F3;stroke-width:1.0416666666666667;"/><line style="stroke:#2196F3;stroke-width:3.125;stroke-dasharray:2.0,2.0;" x1="165.625" x2="480.2083" y1="635.2539" y2="635.2539"/><text fill="#222222" font-family="Verdana" font-size="12.5" font-weight="bold" lengthAdjust="spacing" textLength="8.3333" x="188.5417" y="619.8059">5</text><text fill="#222222" font-family="Verdana" font-size="12.5" lengthAdjust="spacing" textLength="77.0833" x="221.875" y="619.8059">409 Conflict</text><line style="stroke:#2196F3;stroke-width:1.0416666666666667;stroke-dasharray:2.0,2.0;" x1="20.8333" x2="1672.3958" y1="644.6289" y2="644.6289"/><text fill="#222222" font-family="Verdana" font-size="12.5" font-weight="bold" lengthAdjust="spacing" textLength="229.1667" x="36.4583" y="666.6484">[Idempotency-Key not present]</text><polygon fill="#2196F3" points="503.125,718.5221,492.7083,722.6888,503.125,726.8555,498.9583,722.6888" style="stroke:#2196F3;stroke-width:1.0416666666666667;"/><line style="stroke:#2196F3;stroke-width:3.125;stroke-dasharray:2.0,2.0;" x1="496.875" x2="802.0833" y1="722.6888" y2="722.6888"/><text fill="#222222" font-family="Verdana" font-size="12.5" font-weight="bold" lengthAdjust="spacing" textLength="8.3333" x="519.7917" y="707.2408">6</text><text fill="#222222" font-family="Verdana" font-size="12.5" lengthAdjust="spacing" textLength="89.5833" x="553.125" y="707.2408">key not found</text><polygon fill="#2196F3" points="790.625,768.4896,801.0417,772.6563,790.625,776.8229,794.7917,772.6563" style="stroke:#2196F3;stroke-width:1.0416666666666667;"/><line style="stroke:#2196F3;stroke-width:3.125;" x1="491.6667" x2="796.875" y1="772.6563" y2="772.6563"/><text fill="#222222" font-family="Verdana" font-size="12.5" font-weight="bold" lengthAdjust="spacing" textLength="8.3333" x="509.375" y="757.2083">7</text><text fill="#222222" font-family="Verdana" font-size="12.5" lengthAdjust="spacing" textLength="143.75" x="542.7083" y="757.2083">save Idempotency-Key</text><polygon fill="#2196F3" points="503.125,818.457,492.7083,822.6237,503.125,826.7904,498.9583,822.6237" style="stroke:#2196F3;stroke-width:1.0416666666666667;"/><line style="stroke:#2196F3;stroke-width:3.125;stroke-dasharray:2.0,2.0;" x1="496.875" x2="802.0833" y1="822.6237" y2="822.6237"/><text fill="#222222" font-family="Verdana" font-size="12.5" font-weight="bold" lengthAdjust="spacing" textLength="8.3333" x="519.7917" y="807.1757">8</text><text fill="#222222" font-family="Verdana" font-size="12.5" lengthAdjust="spacing" textLength="64.5833" x="553.125" y="807.1757">key saved</text><line style="stroke:#2196F3;stroke-width:3.125;" x1="491.6667" x2="535.4167" y1="872.5911" y2="872.5911"/><line style="stroke:#2196F3;stroke-width:3.125;" x1="535.4167" x2="535.4167" y1="872.5911" y2="886.1328"/><line style="stroke:#2196F3;stroke-width:3.125;" x1="492.7083" x2="535.4167" y1="886.1328" y2="886.1328"/><polygon fill="#2196F3" points="503.125,881.9661,492.7083,886.1328,503.125,890.2995,498.9583,886.1328" style="stroke:#2196F3;stroke-width:1.0416666666666667;"/><text fill="#222222" font-family="Verdana" font-size="12.5" font-weight="bold" lengthAdjust="spacing" textLength="8.3333" x="509.375" y="857.1431">9</text><text fill="#222222" font-family="Verdana" font-size="12.5" lengthAdjust="spacing" textLength="114.5833" x="542.7083" y="857.1431">validate message</text><line style="stroke:#2196F3;stroke-width:3.125;" x1="491.6667" x2="535.4167" y1="936.1003" y2="936.1003"/><line style="stroke:#2196F3;stroke-width:3.125;" x1="535.4167" x2="535.4167" y1="936.1003" y2="949.6419"/><line style="stroke:#2196F3;stroke-width:3.125;" x1="492.7083" x2="535.4167" y1="949.6419" y2="949.6419"/><polygon fill="#2196F3" points="503.125,945.4753,492.7083,949.6419,503.125,953.8086,498.9583,949.6419" style="stroke:#2196F3;stroke-width:1.0416666666666667;"/><text fill="#222222" font-family="Verdana" font-size="12.5" font-weight="bold" lengthAdjust="spacing" textLength="16.6667" x="509.375" y="920.6523">10</text><text fill="#222222" font-family="Verdana" font-size="12.5" lengthAdjust="spacing" textLength="196.875" x="551.0417" y="920.6523">validate operation == CREATE</text><line style="stroke:#2196F3;stroke-width:3.125;" x1="491.6667" x2="535.4167" y1="999.6094" y2="999.6094"/><line style="stroke:#2196F3;stroke-width:3.125;" x1="535.4167" x2="535.4167" y1="999.6094" y2="1013.151"/><line style="stroke:#2196F3;stroke-width:3.125;" x1="492.7083" x2="535.4167" y1="1013.151" y2="1013.151"/><polygon fill="#2196F3" points="503.125,1008.9844,492.7083,1013.151,503.125,1017.3177,498.9583,1013.151" style="stroke:#2196F3;stroke-width:1.0416666666666667;"/><text fill="#222222" font-family="Verdana" font-size="12.5" font-weight="bold" lengthAdjust="spacing" textLength="16.6667" x="509.375" y="984.1614">11</text><text fill="#222222" font-family="Verdana" font-size="12.5" lengthAdjust="spacing" textLength="161.4583" x="551.0417" y="984.1614">validate status == VALID</text><path d="M35.4167,1028.776 L118.75,1028.776 L118.75,1055.8268 L108.3333,1066.2435 L31.25,1066.2435 L31.25,1032.9427 A4.1667,4.1667 0 0 1 35.4167,1028.776 " fill="#FFFFFF" style="stroke:#666666;stroke-width:1.0416666666666667;"/><rect fill="none" height="1276.1719" rx="4.1667" ry="4.1667" style="stroke:#2196F3;stroke-width:1.0416666666666667;" width="1630.7292" x="31.25" y="1028.776"/><text fill="#9C27B0" font-family="Verdana" font-size="12.5" font-weight="bold" lengthAdjust="spacing" textLength="19.7917" x="57.2917" y="1051.8372">alt</text><text fill="#222222" font-family="Verdana" font-size="12.5" font-weight="bold" lengthAdjust="spacing" textLength="220.8333" x="144.7917" y="1052.8788">[message status is not VALID]</text><polygon fill="#2196F3" points="171.875,1123.4701,161.4583,1127.6367,171.875,1131.8034,167.7083,1127.6367" style="stroke:#2196F3;stroke-width:1.0416666666666667;"/><line style="stroke:#2196F3;stroke-width:3.125;stroke-dasharray:2.0,2.0;" x1="165.625" x2="480.2083" y1="1127.6367" y2="1127.6367"/><text fill="#222222" font-family="Verdana" font-size="12.5" font-weight="bold" lengthAdjust="spacing" textLength="16.6667" x="188.5417" y="1112.1887">12</text><text fill="#222222" font-family="Verdana" font-size="12.5" lengthAdjust="spacing" textLength="112.5" x="230.2083" y="1112.1887">400 Bad Request</text><line style="stroke:#2196F3;stroke-width:1.0416666666666667;stroke-dasharray:2.0,2.0;" x1="31.25" x2="1661.9792" y1="1137.0117" y2="1137.0117"/><text fill="#222222" font-family="Verdana" font-size="12.5" font-weight="bold" lengthAdjust="spacing" textLength="191.6667" x="46.875" y="1159.0312">[message status is VALID]</text><line style="stroke:#2196F3;stroke-width:3.125;" x1="491.6667" x2="535.4167" y1="1215.0716" y2="1215.0716"/><line style="stroke:#2196F3;stroke-width:3.125;" x1="535.4167" x2="535.4167" y1="1215.0716" y2="1228.6133"/><line style="stroke:#2196F3;stroke-width:3.125;" x1="492.7083" x2="535.4167" y1="1228.6133" y2="1228.6133"/><polygon fill="#2196F3" points="503.125,1224.4466,492.7083,1228.6133,503.125,1232.7799,498.9583,1228.6133" style="stroke:#2196F3;stroke-width:1.0416666666666667;"/><text fill="#222222" font-family="Verdana" font-size="12.5" font-weight="bold" lengthAdjust="spacing" textLength="16.6667" x="509.375" y="1199.6236">13</text><text fill="#222222" font-family="Verdana" font-size="12.5" lengthAdjust="spacing" textLength="137.5" x="551.0417" y="1199.6236">map message to RTP</text><polygon fill="#2196F3" points="995.8333,1274.4141,1006.25,1278.5807,995.8333,1282.7474,1000,1278.5807" style="stroke:#2196F3;stroke-width:1.0416666666666667;"/><line style="stroke:#2196F3;stroke-width:3.125;" x1="491.6667" x2="1002.0833" y1="1278.5807" y2="1278.5807"/><text fill="#222222" font-family="Verdana" font-size="12.5" font-weight="bold" lengthAdjust="spacing" textLength="16.6667" x="509.375" y="1263.1327">14</text><text fill="#222222" font-family="Verdana" font-size="12.5" lengthAdjust="spacing" textLength="144.7917" x="551.0417" y="1263.1327">GET /activations/payer</text><path d="M45.8333,1294.2057 L129.1667,1294.2057 L129.1667,1321.2565 L118.75,1331.6732 L41.6667,1331.6732 L41.6667,1298.3724 A4.1667,4.1667 0 0 1 45.8333,1294.2057 " fill="#FFFFFF" style="stroke:#666666;stroke-width:1.0416666666666667;"/><rect fill="none" height="1003.4505" rx="4.1667" ry="4.1667" style="stroke:#2196F3;stroke-width:1.0416666666666667;" width="1609.8958" x="41.6667" y="1294.2057"/><text fill="#9C27B0" font-family="Verdana" font-size="12.5" font-weight="bold" lengthAdjust="spacing" textLength="19.7917" x="67.7083" y="1317.2668">alt</text><text fill="#222222" font-family="Verdana" font-size="12.5" font-weight="bold" lengthAdjust="spacing" textLength="126.0417" x="155.2083" y="1318.3085">[payer activated]</text><polygon fill="#2196F3" points="503.125,1388.8997,492.7083,1393.0664,503.125,1397.2331,498.9583,1393.0664" style="stroke:#2196F3;stroke-width:1.0416666666666667;"/><line style="stroke:#2196F3;stroke-width:3.125;stroke-dasharray:2.0,2.0;" x1="496.875" x2="1012.5" y1="1393.0664" y2="1393.0664"/><text fill="#222222" font-family="Verdana" font-size="12.5" font-weight="bold" lengthAdjust="spacing" textLength="16.6667" x="519.7917" y="1377.6184">15</text><text fill="#222222" font-family="Verdana" font-size="12.5" lengthAdjust="spacing" textLength="154.1667" x="561.4583" y="1377.6184">payer + serviceProvider</text><polygon fill="#2196F3" points="1247.9167,1438.8672,1258.3333,1443.0339,1247.9167,1447.2005,1252.0833,1443.0339" style="stroke:#2196F3;stroke-width:1.0416666666666667;"/><line style="stroke:#2196F3;stroke-width:3.125;" x1="491.6667" x2="1254.1667" y1="1443.0339" y2="1443.0339"/><text fill="#222222" font-family="Verdana" font-size="12.5" font-weight="bold" lengthAdjust="spacing" textLength="16.6667" x="509.375" y="1427.5859">16</text><text fill="#222222" font-family="Verdana" font-size="12.5" lengthAdjust="spacing" textLength="105.2083" x="551.0417" y="1427.5859">getRegistryData</text><path d="M1043.75,1460.7422 L1043.75,1511.7839 A4.1667,4.1667 0 0 0 1047.9167,1515.9505 L1247.9167,1515.9505 A4.1667,4.1667 0 0 0 1252.0833,1511.7839 L1252.0833,1466.9922 L1241.6667,1456.5755 L1047.9167,1456.5755 A4.1667,4.1667 0 0 0 1043.75,1460.7422 " fill="url(#gp9hxj2ixzm2s2)" filter="url(#fp9hxj2ixzm2s)" style="stroke:#9C27B0;stroke-width:1.0416666666666667;"/><path d="M1241.6667,1456.5755 L1241.6667,1464.9089 A2.0833,2.0833 0 0 0 1243.75,1466.9922 L1252.0833,1466.9922 L1241.6667,1456.5755 " fill="url(#gp9hxj2ixzm2s2)" style="stroke:#9C27B0;stroke-width:1.0416666666666667;"/><text fill="#FFFFFF" font-family="Verdana" font-size="12.5" lengthAdjust="spacing" textLength="76.0417" x="1060.4167" y="1483.8033">Search key:</text><text fill="#FFFFFF" font-family="Verdana" font-size="12.5" lengthAdjust="spacing" textLength="165.625" x="1060.4167" y="1498.3541">payerId + serviceProvider</text><polygon fill="#2196F3" points="503.125,1562.7279,492.7083,1566.8945,503.125,1571.0612,498.9583,1566.8945" style="stroke:#2196F3;stroke-width:1.0416666666666667;"/><line style="stroke:#2196F3;stroke-width:3.125;stroke-dasharray:2.0,2.0;" x1="496.875" x2="1264.5833" y1="1566.8945" y2="1566.8945"/><text fill="#222222" font-family="Verdana" font-size="12.5" font-weight="bold" lengthAdjust="spacing" textLength="16.6667" x="519.7917" y="1551.4465">17</text><text fill="#222222" font-family="Verdana" font-size="12.5" lengthAdjust="spacing" textLength="138.5417" x="561.4583" y="1551.4465">Service Provider data</text><line style="stroke:#2196F3;stroke-width:3.125;" x1="491.6667" x2="535.4167" y1="1616.862" y2="1616.862"/><line style="stroke:#2196F3;stroke-width:3.125;" x1="535.4167" x2="535.4167" y1="1616.862" y2="1630.4036"/><line style="stroke:#2196F3;stroke-width:3.125;" x1="492.7083" x2="535.4167" y1="1630.4036" y2="1630.4036"/><polygon fill="#2196F3" points="503.125,1626.237,492.7083,1630.4036,503.125,1634.5703,498.9583,1630.4036" style="stroke:#2196F3;stroke-width:1.0416666666666667;"/><text fill="#222222" font-family="Verdana" font-size="12.5" font-weight="bold" lengthAdjust="spacing" textLength="16.6667" x="509.375" y="1601.414">18</text><text fill="#222222" font-family="Verdana" font-size="12.5" lengthAdjust="spacing" textLength="229.1667" x="551.0417" y="1601.414">add activation data to EPC payload</text><polygon fill="#2196F3" points="1142.7083,1676.2044,1153.125,1680.3711,1142.7083,1684.5378,1146.875,1680.3711" style="stroke:#2196F3;stroke-width:1.0416666666666667;"/><line style="stroke:#2196F3;stroke-width:3.125;" x1="491.6667" x2="1148.9583" y1="1680.3711" y2="1680.3711"/><text fill="#222222" font-family="Verdana" font-size="12.5" font-weight="bold" lengthAdjust="spacing" textLength="16.6667" x="509.375" y="1664.9231">19</text><text fill="#222222" font-family="Verdana" font-size="12.5" lengthAdjust="spacing" textLength="131.25" x="551.0417" y="1664.9231">save RTP (CREATED)</text><polygon fill="#2196F3" points="503.125,1726.1719,492.7083,1730.3385,503.125,1734.5052,498.9583,1730.3385" style="stroke:#2196F3;stroke-width:1.0416666666666667;"/><line style="stroke:#2196F3;stroke-width:3.125;stroke-dasharray:2.0,2.0;" x1="496.875" x2="1159.375" y1="1730.3385" y2="1730.3385"/><text fill="#222222" font-family="Verdana" font-size="12.5" font-weight="bold" lengthAdjust="spacing" textLength="16.6667" x="519.7917" y="1714.8905">20</text><text fill="#222222" font-family="Verdana" font-size="12.5" lengthAdjust="spacing" textLength="51.0417" x="561.4583" y="1714.8905">created</text><path d="M381.7708,1745.9635 L465.1042,1745.9635 L465.1042,1773.0143 L454.6875,1783.431 L377.6042,1783.431 L377.6042,1750.1302 A4.1667,4.1667 0 0 1 381.7708,1745.9635 " fill="#FFFFFF" style="stroke:#666666;stroke-width:1.0416666666666667;"/><rect fill="none" height="157.1615" rx="4.1667" ry="4.1667" style="stroke:#2196F3;stroke-width:1.0416666666666667;" width="1115.625" x="377.6042" y="1745.9635"/><text fill="#9C27B0" font-family="Verdana" font-size="12.5" font-weight="bold" lengthAdjust="spacing" textLength="19.7917" x="403.6458" y="1769.0247">alt</text><text fill="#222222" font-family="Verdana" font-size="12.5" font-weight="bold" lengthAdjust="spacing" textLength="155.2083" x="491.1458" y="1770.0663">[flag oAuth2 == true]</text><polygon fill="#2196F3" points="1394.2708,1840.6576,1404.6875,1844.8242,1394.2708,1848.9909,1398.4375,1844.8242" style="stroke:#2196F3;stroke-width:1.0416666666666667;"/><line style="stroke:#2196F3;stroke-width:3.125;" x1="491.6667" x2="1400.5208" y1="1844.8242" y2="1844.8242"/><text fill="#222222" font-family="Verdana" font-size="12.5" font-weight="bold" lengthAdjust="spacing" textLength="16.6667" x="509.375" y="1829.3762">21</text><text fill="#222222" font-family="Verdana" font-size="12.5" lengthAdjust="spacing" textLength="157.2917" x="551.0417" y="1829.3762">OAuth2 token exchange</text><polygon fill="#2196F3" points="503.125,1890.625,492.7083,1894.7917,503.125,1898.9583,498.9583,1894.7917" style="stroke:#2196F3;stroke-width:1.0416666666666667;"/><line style="stroke:#2196F3;stroke-width:3.125;stroke-dasharray:2.0,2.0;" x1="496.875" x2="1410.9375" y1="1894.7917" y2="1894.7917"/><text fill="#222222" font-family="Verdana" font-size="12.5" font-weight="bold" lengthAdjust="spacing" textLength="16.6667" x="519.7917" y="1879.3437">22</text><text fill="#222222" font-family="Verdana" font-size="12.5" lengthAdjust="spacing" textLength="176.0417" x="561.4583" y="1879.3437">200 received access token</text><polygon fill="#2196F3" points="1549.4792,1947.8841,1559.8958,1952.0508,1549.4792,1956.2174,1553.6458,1952.0508" style="stroke:#2196F3;stroke-width:1.0416666666666667;"/><line style="stroke:#2196F3;stroke-width:3.125;" x1="491.6667" x2="1555.7292" y1="1952.0508" y2="1952.0508"/><text fill="#222222" font-family="Verdana" font-size="12.5" font-weight="bold" lengthAdjust="spacing" textLength="16.6667" x="509.375" y="1936.6028">23</text><text fill="#222222" font-family="Verdana" font-size="12.5" lengthAdjust="spacing" textLength="173.9583" x="551.0417" y="1936.6028">POST /sepa-request-to-pay</text><polygon fill="#2196F3" points="503.125,1997.8516,492.7083,2002.0182,503.125,2006.1849,498.9583,2002.0182" style="stroke:#2196F3;stroke-width:1.0416666666666667;"/><line style="stroke:#2196F3;stroke-width:3.125;stroke-dasharray:2.0,2.0;" x1="496.875" x2="1566.1458" y1="2002.0182" y2="2002.0182"/><text fill="#222222" font-family="Verdana" font-size="12.5" font-weight="bold" lengthAdjust="spacing" textLength="16.6667" x="519.7917" y="1986.5702">24</text><text fill="#222222" font-family="Verdana" font-size="12.5" lengthAdjust="spacing" textLength="90.625" x="561.4583" y="1986.5702">202 Accepted</text><polygon fill="#2196F3" points="1142.7083,2047.819,1153.125,2051.9857,1142.7083,2056.1523,1146.875,2051.9857" style="stroke:#2196F3;stroke-width:1.0416666666666667;"/><line style="stroke:#2196F3;stroke-width:3.125;" x1="491.6667" x2="1148.9583" y1="2051.9857" y2="2051.9857"/><text fill="#222222" font-family="Verdana" font-size="12.5" font-weight="bold" lengthAdjust="spacing" textLength="16.6667" x="509.375" y="2036.5377">25</text><text fill="#222222" font-family="Verdana" font-size="12.5" lengthAdjust="spacing" textLength="106.25" x="551.0417" y="2036.5377">save RTP (SENT)</text><polygon fill="#2196F3" points="503.125,2097.7865,492.7083,2101.9531,503.125,2106.1198,498.9583,2101.9531" style="stroke:#2196F3;stroke-width:1.0416666666666667;"/><line style="stroke:#2196F3;stroke-width:3.125;stroke-dasharray:2.0,2.0;" x1="496.875" x2="1159.375" y1="2101.9531" y2="2101.9531"/><text fill="#222222" font-family="Verdana" font-size="12.5" font-weight="bold" lengthAdjust="spacing" textLength="16.6667" x="519.7917" y="2086.5051">26</text><text fill="#222222" font-family="Verdana" font-size="12.5" lengthAdjust="spacing" textLength="55.2083" x="561.4583" y="2086.5051">updated</text><polygon fill="#2196F3" points="171.875,2147.7539,161.4583,2151.9206,171.875,2156.0872,167.7083,2151.9206" style="stroke:#2196F3;stroke-width:1.0416666666666667;"/><line style="stroke:#2196F3;stroke-width:3.125;stroke-dasharray:2.0,2.0;" x1="165.625" x2="480.2083" y1="2151.9206" y2="2151.9206"/><text fill="#222222" font-family="Verdana" font-size="12.5" font-weight="bold" lengthAdjust="spacing" textLength="16.6667" x="188.5417" y="2136.4726">27</text><text fill="#222222" font-family="Verdana" font-size="12.5" lengthAdjust="spacing" textLength="81.25" x="230.2083" y="2136.4726">201 Created</text><line style="stroke:#2196F3;stroke-width:1.0416666666666667;stroke-dasharray:2.0,2.0;" x1="41.6667" x2="1651.5625" y1="2161.2956" y2="2161.2956"/><text fill="#222222" font-family="Verdana" font-size="12.5" font-weight="bold" lengthAdjust="spacing" textLength="155.2083" x="57.2917" y="2183.315">[payer not activated]</text><polygon fill="#2196F3" points="503.125,2235.1888,492.7083,2239.3555,503.125,2243.5221,498.9583,2239.3555" style="stroke:#2196F3;stroke-width:1.0416666666666667;"/><line style="stroke:#2196F3;stroke-width:3.125;stroke-dasharray:2.0,2.0;" x1="496.875" x2="1012.5" y1="2239.3555" y2="2239.3555"/><text fill="#222222" font-family="Verdana" font-size="12.5" font-weight="bold" lengthAdjust="spacing" textLength="16.6667" x="519.7917" y="2223.9075">28</text><text fill="#222222" font-family="Verdana" font-size="12.5" lengthAdjust="spacing" textLength="63.5417" x="561.4583" y="2223.9075">not found</text><polygon fill="#2196F3" points="171.875,2285.1563,161.4583,2289.3229,171.875,2293.4896,167.7083,2289.3229" style="stroke:#2196F3;stroke-width:1.0416666666666667;"/><line style="stroke:#2196F3;stroke-width:3.125;stroke-dasharray:2.0,2.0;" x1="165.625" x2="480.2083" y1="2289.3229" y2="2289.3229"/><text fill="#222222" font-family="Verdana" font-size="12.5" font-weight="bold" lengthAdjust="spacing" textLength="16.6667" x="188.5417" y="2273.8749">29</text><text fill="#222222" font-family="Verdana" font-size="12.5" lengthAdjust="spacing" textLength="96.875" x="230.2083" y="2273.8749">404 Not Found</text><!--SRC=[dLPDSziu3BtpLs1pQJDRjrvFBgkPTiQst5IpIQonr9noOKNOvaIML8horl- -82bP7xQJxEeYcNXu11u8qEyWJ7cclz_VWI_vHl4Th7C5gpY423C1qp1Wxo2MEaKFVDHSfYXQSuG_AymIR9m9-uYgb7dcmUJZ-EEOiJ_q5dS8EwvHISwODboMOQwG5k5hcl_BMC6LbeaiA1Yukez6y-L3zFr-iRe2NaBpumGLBHxy6kC-cU2Q_-0bmjKAXIoVilU1m5sHQmhp0F_W0IATAxosFgk57qGdfDDv73nEuwNZlUrnnc7aTgElpdg4QYz9XXLkPAdLWRQTtIrdrpMslyLy5hYiPa7Vu4UXDT2RCLxfFAjsFr0nrkGFeozrdXxCLujflB12AbE5KZzbtv0Baj-3JiuZola31MOXWNZAGdv8SouywvgO6b2vmEJ2UABbtjIa5fEvjzdMIkL1iiNaUKZV-Zb16K_r40CyfQt40Gg59MQQ0JqM3gDELi-4NETL9gnTu83PBBOnDKvKvuGh0Q8gKfaGMi0Eov9lq3fa50KekTbgoDTDQc0V_yJ3gorjk7b25XJrEZL7Ov9POvNPnffDIvZTUd5Ie4tzFBWP_mtpF5lJhfenJEdm38KYWZU8P52jK2TrAld-XFa5DWE_8Fa5pVSybSAWkag_0CiBLEwaVVvSdztNN4hDTLKQ_EFqBl1T9EPerLis05bQDHm8wkU2-cEOST5qWwkPgS4futcsDieTBuvUEZUznCwWRmbvkuZXKoqgvLz-AlY1che17-McGTCkKfOMTZIBeyqyjwjU2HtqJoZT60fLlfUYiyUWiDsT1jaHsGPrCyPyCnIwo7P0h7hhjiLINBiEwzk87xbAjkQWUGEB3JmGhuJUQwiZQL-2PW8t16wWNH0WkYn0JSU5WBPcbioKUH7EJSncVbwMC0xh_ZC3zhqxw_xr9HtfuFJJ8gTkOdP23yhVIwLxyfgpiqxv1l9ffRSJqpzQLJXGlXioNKGUB1rQvy-O0VvAjZpRd3eTzpMNrz18QxtG9zHk2XEKD5p8qqnAnt_YsKbeI4p5loGrtPCUXCk8-gl4We_gUt2ayn4LwRpWvcxj6kZt8EO9J2dKuWNDxVtyjkgJ9VxVfQyAyTzAVtReJSP_rN-rEaBQgUV6XfcTRveo_Ild_5nvDPgRyGqy4D7N7X7Mt-Pj2zvDqrtOlm40]--></g></svg>