<?xml version="1.0" encoding="us-ascii" standalone="no"?><svg xmlns="http://www.w3.org/2000/svg" xmlns:xlink="http://www.w3.org/1999/xlink" contentStyleType="text/css" height="2035.4167px" preserveAspectRatio="none" style="width:1668px;height:2035px;" version="1.1" viewBox="0 0 1668 2035" width="1668.75px" zoomAndPan="magnify"><defs><linearGradient id="gek09rj5gw7o10" x1="50%" x2="50%" y1="0%" y2="100%"><stop offset="0%" stop-color="#FFFFFF"/><stop offset="100%" stop-color="#FFFFFF"/></linearGradient><filter height="300%" id="fek09rj5gw7o1" width="300%" x="-1" y="-1"><feGaussianBlur result="blurOut" stdDeviation="2.0833333333333335"/><feColorMatrix in="blurOut" result="blurOut2" type="matrix" values="0 0 0 0 0 0 0 0 0 0 0 0 0 0 0 0 0 0 .4 0"/><feOffset dx="4.166666666666667" dy="4.166666666666667" in="blurOut2" result="blurOut3"/><feBlend in="SourceGraphic" in2="blurOut3" mode="normal"/></filter><linearGradient id="gek09rj5gw7o11" x1="50%" x2="50%" y1="0%" y2="100%"><stop offset="0%" stop-color="#4DABF5"/><stop offset="100%" stop-color="#2196F3"/></linearGradient><linearGradient id="gek09rj5gw7o12" x1="50%" x2="50%" y1="0%" y2="100%"><stop offset="0%" stop-color="#B052C0"/><stop offset="100%" stop-color="#9C27B0"/></linearGradient></defs><g><rect fill="url(#gek09rj5gw7o10)" height="57.5846" id="_title" rx="4.1667" ry="4.1667" style="stroke:#CCCCCC;stroke-width:1.0416666666666667;" width="229.1667" x="721.0938" y="20.8333"/><text fill="#2196F3" font-family="Verdana" font-size="20.8333" font-weight="bold" lengthAdjust="spacing" textLength="195.8333" x="737.7604" y="56.838">RTP Create Flow</text><rect fill="#FFFFFF" filter="url(#fek09rj5gw7o1)" height="1637.3698" style="stroke:#CCCCCC;stroke-width:1.0416666666666667;" width="10.4167" x="470.8333" y="268.8802"/><rect fill="#FFFFFF" filter="url(#fek09rj5gw7o1)" height="114.4857" style="stroke:#CCCCCC;stroke-width:1.0416666666666667;" width="10.4167" x="787.5" y="318.8477"/><rect fill="#FFFFFF" filter="url(#fek09rj5gw7o1)" height="114.4857" style="stroke:#CCCCCC;stroke-width:1.0416666666666667;" width="10.4167" x="997.9167" y="872.5911"/><rect fill="#FFFFFF" filter="url(#fek09rj5gw7o1)" height="49.9674" style="stroke:#CCCCCC;stroke-width:1.0416666666666667;" width="10.4167" x="1144.7917" y="1274.3815"/><rect fill="#FFFFFF" filter="url(#fek09rj5gw7o1)" height="49.9674" style="stroke:#CCCCCC;stroke-width:1.0416666666666667;" width="10.4167" x="1144.7917" y="1645.9961"/><rect fill="#FFFFFF" filter="url(#fek09rj5gw7o1)" height="123.8607" style="stroke:#CCCCCC;stroke-width:1.0416666666666667;" width="10.4167" x="1250" y="1037.0443"/><rect fill="#FFFFFF" filter="url(#fek09rj5gw7o1)" height="49.9674" style="stroke:#CCCCCC;stroke-width:1.0416666666666667;" width="10.4167" x="1396.3542" y="1438.8346"/><rect fill="#FFFFFF" filter="url(#fek09rj5gw7o1)" height="49.9674" style="stroke:#CCCCCC;stroke-width:1.0416666666666667;" width="10.4167" x="1551.5625" y="1546.0612"/><rect fill="url(#gek09rj5gw7o10)" filter="url(#fek09rj5gw7o1)" height="1564.4857" rx="4.1667" ry="4.1667" style="stroke:#2196F3;stroke-width:1.0416666666666667;" width="1630.7292" x="20.8333" y="334.4727"/><path d="M20.8333,643.5872 L1651.5625,643.5872 L1651.5625,1894.7917 A4.1667,4.1667 0 0 1 1647.3958,1898.9583 L25,1898.9583 A4.1667,4.1667 0 0 1 20.8333,1894.7917 L20.8333,643.5872 " fill="url(#gek09rj5gw7o10)" style="stroke:none;stroke-width:1.0416666666666667;"/><rect fill="url(#gek09rj5gw7o10)" filter="url(#fek09rj5gw7o1)" height="1003.4505" rx="4.1667" ry="4.1667" style="stroke:#2196F3;stroke-width:1.0416666666666667;" width="1609.8958" x="31.25" y="888.2161"/><rect fill="url(#gek09rj5gw7o10)" filter="url(#fek09rj5gw7o1)" height="157.1615" rx="4.1667" ry="4.1667" style="stroke:#2196F3;stroke-width:1.0416666666666667;" width="1115.625" x="367.1875" y="1339.974"/><path d="M31.25,1754.2643 L1641.1458,1754.2643 L1641.1458,1887.5 A4.1667,4.1667 0 0 1 1636.9792,1891.6667 L35.4167,1891.6667 A4.1667,4.1667 0 0 1 31.25,1887.5 L31.25,1754.2643 " fill="url(#gek09rj5gw7o10)" style="stroke:none;stroke-width:1.0416666666666667;"/><line style="stroke:#CCCCCC;stroke-width:1.0416666666666667;stroke-dasharray:5.0,5.0;" x1="150" x2="150" y1="187.7279" y2="1916.6667"/><line style="stroke:#CCCCCC;stroke-width:1.0416666666666667;stroke-dasharray:5.0,5.0;" x1="475.5208" x2="475.5208" y1="187.7279" y2="1916.6667"/><line style="stroke:#CCCCCC;stroke-width:1.0416666666666667;stroke-dasharray:5.0,5.0;" x1="792.1875" x2="792.1875" y1="187.7279" y2="1916.6667"/><line style="stroke:#CCCCCC;stroke-width:1.0416666666666667;stroke-dasharray:5.0,5.0;" x1="1002.6042" x2="1002.6042" y1="187.7279" y2="1916.6667"/><line style="stroke:#CCCCCC;stroke-width:1.0416666666666667;stroke-dasharray:5.0,5.0;" x1="1149.4792" x2="1149.4792" y1="187.7279" y2="1916.6667"/><line style="stroke:#CCCCCC;stroke-width:1.0416666666666667;stroke-dasharray:5.0,5.0;" x1="1254.6875" x2="1254.6875" y1="187.7279" y2="1916.6667"/><line style="stroke:#CCCCCC;stroke-width:1.0416666666666667;stroke-dasharray:5.0,5.0;" x1="1401.5625" x2="1401.5625" y1="187.7279" y2="1916.6667"/><line style="stroke:#CCCCCC;stroke-width:1.0416666666666667;stroke-dasharray:5.0,5.0;" x1="1556.7708" x2="1556.7708" y1="187.7279" y2="1916.6667"/><rect fill="url(#gek09rj5gw7o11)" filter="url(#fek09rj5gw7o1)" height="49.9674" rx="4.1667" ry="4.1667" style="stroke:#2196F3;stroke-width:1.0416666666666667;" width="130.2083" x="83.3333" y="133.5938"/><text fill="#FFFFFF" font-family="Verdana" font-size="12.5" lengthAdjust="spacing" textLength="94.7917" x="101.0417" y="162.9049">MS-CONSUMER</text><rect fill="url(#gek09rj5gw7o11)" filter="url(#fek09rj5gw7o1)" height="49.9674" rx="4.1667" ry="4.1667" style="stroke:#2196F3;stroke-width:1.0416666666666667;" width="130.2083" x="83.3333" y="1915.625"/><text fill="#FFFFFF" font-family="Verdana" font-size="12.5" lengthAdjust="spacing" textLength="94.7917" x="101.0417" y="1944.9361">MS-CONSUMER</text><rect fill="url(#gek09rj5gw7o11)" filter="url(#fek09rj5gw7o1)" height="49.9674" rx="4.1667" ry="4.1667" style="stroke:#2196F3;stroke-width:1.0416666666666667;" width="110.4167" x="419.2708" y="133.5938"/><text fill="#FFFFFF" font-family="Verdana" font-size="12.5" lengthAdjust="spacing" textLength="75" x="436.9792" y="162.9049">MS-SENDER</text><rect fill="url(#gek09rj5gw7o11)" filter="url(#fek09rj5gw7o1)" height="49.9674" rx="4.1667" ry="4.1667" style="stroke:#2196F3;stroke-width:1.0416666666666667;" width="110.4167" x="419.2708" y="1915.625"/><text fill="#FFFFFF" font-family="Verdana" font-size="12.5" lengthAdjust="spacing" textLength="75" x="436.9792" y="1944.9361">MS-SENDER</text><text fill="#222222" font-family="Verdana" font-size="12.5" lengthAdjust="spacing" textLength="35.4167" x="771.875" y="159.8124">Redis</text><text fill="#222222" font-family="Verdana" font-size="12.5" lengthAdjust="spacing" textLength="159.375" x="709.8958" y="174.3632">(Idempotency Key Store)</text><path d="M773.9583,100.293 C773.9583,89.8763 792.7083,89.8763 792.7083,89.8763 C792.7083,89.8763 811.4583,89.8763 811.4583,100.293 L811.4583,127.3763 C811.4583,137.793 792.7083,137.793 792.7083,137.793 C792.7083,137.793 773.9583,137.793 773.9583,127.3763 L773.9583,100.293 " fill="url(#gek09rj5gw7o11)" filter="url(#fek09rj5gw7o1)" style="stroke:#2196F3;stroke-width:1.5625;"/><path d="M773.9583,100.293 C773.9583,110.7096 792.7083,110.7096 792.7083,110.7096 C792.7083,110.7096 811.4583,110.7096 811.4583,100.293 " fill="none" style="stroke:#2196F3;stroke-width:1.5625;"/><text fill="#222222" font-family="Verdana" font-size="12.5" lengthAdjust="spacing" textLength="35.4167" x="771.875" y="1937.6444">Redis</text><text fill="#222222" font-family="Verdana" font-size="12.5" lengthAdjust="spacing" textLength="159.375" x="709.8958" y="1952.1952">(Idempotency Key Store)</text><path d="M773.9583,1975.9766 C773.9583,1965.5599 792.7083,1965.5599 792.7083,1965.5599 C792.7083,1965.5599 811.4583,1965.5599 811.4583,1975.9766 L811.4583,2003.0599 C811.4583,2013.4766 792.7083,2013.4766 792.7083,2013.4766 C792.7083,2013.4766 773.9583,2013.4766 773.9583,2003.0599 L773.9583,1975.9766 " fill="url(#gek09rj5gw7o11)" filter="url(#fek09rj5gw7o1)" style="stroke:#2196F3;stroke-width:1.5625;"/><path d="M773.9583,1975.9766 C773.9583,1986.3932 792.7083,1986.3932 792.7083,1986.3932 C792.7083,1986.3932 811.4583,1986.3932 811.4583,1975.9766 " fill="none" style="stroke:#2196F3;stroke-width:1.5625;"/><rect fill="url(#gek09rj5gw7o11)" filter="url(#fek09rj5gw7o1)" height="49.9674" rx="4.1667" ry="4.1667" style="stroke:#2196F3;stroke-width:1.0416666666666667;" width="127.0833" x="938.0208" y="133.5938"/><text fill="#FFFFFF" font-family="Verdana" font-size="12.5" lengthAdjust="spacing" textLength="91.6667" x="955.7292" y="162.9049">MS-ACTIVATOR</text><rect fill="url(#gek09rj5gw7o11)" filter="url(#fek09rj5gw7o1)" height="49.9674" rx="4.1667" ry="4.1667" style="stroke:#2196F3;stroke-width:1.0416666666666667;" width="127.0833" x="938.0208" y="1915.625"/><text fill="#FFFFFF" font-family="Verdana" font-size="12.5" lengthAdjust="spacing" textLength="91.6667" x="955.7292" y="1944.9361">MS-ACTIVATOR</text><text fill="#222222" font-family="Verdana" font-size="12.5" lengthAdjust="spacing" textLength="32.2917" x="1130.7292" y="174.3632">RTPS</text><path d="M1131.25,114.8438 C1131.25,104.4271 1150,104.4271 1150,104.4271 C1150,104.4271 1168.75,104.4271 1168.75,114.8438 L1168.75,141.9271 C1168.75,152.3438 1150,152.3438 1150,152.3438 C1150,152.3438 1131.25,152.3438 1131.25,141.9271 L1131.25,114.8438 " fill="url(#gek09rj5gw7o11)" filter="url(#fek09rj5gw7o1)" style="stroke:#2196F3;stroke-width:1.5625;"/><path d="M1131.25,114.8438 C1131.25,125.2604 1150,125.2604 1150,125.2604 C1150,125.2604 1168.75,125.2604 1168.75,114.8438 " fill="none" style="stroke:#2196F3;stroke-width:1.5625;"/><text fill="#222222" font-family="Verdana" font-size="12.5" lengthAdjust="spacing" textLength="32.2917" x="1130.7292" y="1937.6444">RTPS</text><path d="M1131.25,1961.4258 C1131.25,1951.0091 1150,1951.0091 1150,1951.0091 C1150,1951.0091 1168.75,1951.0091 1168.75,1961.4258 L1168.75,1988.5091 C1168.75,1998.9258 1150,1998.9258 1150,1998.9258 C1150,1998.9258 1131.25,1998.9258 1131.25,1988.5091 L1131.25,1961.4258 " fill="url(#gek09rj5gw7o11)" filter="url(#fek09rj5gw7o1)" style="stroke:#2196F3;stroke-width:1.5625;"/><path d="M1131.25,1961.4258 C1131.25,1971.8424 1150,1971.8424 1150,1971.8424 C1150,1971.8424 1168.75,1971.8424 1168.75,1961.4258 " fill="none" style="stroke:#2196F3;stroke-width:1.5625;"/><text fill="#222222" font-family="Verdana" font-size="12.5" lengthAdjust="spacing" textLength="103.125" x="1200.5208" y="159.8124">Service Registry</text><text fill="#222222" font-family="Verdana" font-size="12.5" lengthAdjust="spacing" textLength="42.7083" x="1230.7292" y="174.3632">(BLOB)</text><path d="M1236.4583,100.293 C1236.4583,89.8763 1255.2083,89.8763 1255.2083,89.8763 C1255.2083,89.8763 1273.9583,89.8763 1273.9583,100.293 L1273.9583,127.3763 C1273.9583,137.793 1255.2083,137.793 1255.2083,137.793 C1255.2083,137.793 1236.4583,137.793 1236.4583,127.3763 L1236.4583,100.293 " fill="url(#gek09rj5gw7o11)" filter="url(#fek09rj5gw7o1)" style="stroke:#2196F3;stroke-width:1.5625;"/><path d="M1236.4583,100.293 C1236.4583,110.7096 1255.2083,110.7096 1255.2083,110.7096 C1255.2083,110.7096 1273.9583,110.7096 1273.9583,100.293 " fill="none" style="stroke:#2196F3;stroke-width:1.5625;"/><text fill="#222222" font-family="Verdana" font-size="12.5" lengthAdjust="spacing" textLength="103.125" x="1200.5208" y="1937.6444">Service Registry</text><text fill="#222222" font-family="Verdana" font-size="12.5" lengthAdjust="spacing" textLength="42.7083" x="1230.7292" y="1952.1952">(BLOB)</text><path d="M1236.4583,1975.9766 C1236.4583,1965.5599 1255.2083,1965.5599 1255.2083,1965.5599 C1255.2083,1965.5599 1273.9583,1965.5599 1273.9583,1975.9766 L1273.9583,2003.0599 C1273.9583,2013.4766 1255.2083,2013.4766 1255.2083,2013.4766 C1255.2083,2013.4766 1236.4583,2013.4766 1236.4583,2003.0599 L1236.4583,1975.9766 " fill="url(#gek09rj5gw7o11)" filter="url(#fek09rj5gw7o1)" style="stroke:#2196F3;stroke-width:1.5625;"/><path d="M1236.4583,1975.9766 C1236.4583,1986.3932 1255.2083,1986.3932 1255.2083,1986.3932 C1255.2083,1986.3932 1273.9583,1986.3932 1273.9583,1975.9766 " fill="none" style="stroke:#2196F3;stroke-width:1.5625;"/><rect fill="url(#gek09rj5gw7o11)" filter="url(#fek09rj5gw7o1)" height="49.9674" rx="4.1667" ry="4.1667" style="stroke:#2196F3;stroke-width:1.0416666666666667;" width="55.2083" x="1372.3958" y="133.5938"/><text fill="#FFFFFF" font-family="Verdana" font-size="12.5" lengthAdjust="spacing" textLength="19.7917" x="1390.1042" y="162.9049">CBI</text><rect fill="url(#gek09rj5gw7o11)" filter="url(#fek09rj5gw7o1)" height="49.9674" rx="4.1667" ry="4.1667" style="stroke:#2196F3;stroke-width:1.0416666666666667;" width="55.2083" x="1372.3958" y="1915.625"/><text fill="#FFFFFF" font-family="Verdana" font-size="12.5" lengthAdjust="spacing" textLength="19.7917" x="1390.1042" y="1944.9361">CBI</text><rect fill="url(#gek09rj5gw7o11)" filter="url(#fek09rj5gw7o1)" height="49.9674" rx="4.1667" ry="4.1667" style="stroke:#2196F3;stroke-width:1.0416666666666667;" width="61.4583" x="1524.4792" y="133.5938"/><text fill="#FFFFFF" font-family="Verdana" font-size="12.5" lengthAdjust="spacing" textLength="26.0417" x="1542.1875" y="162.9049">DSP</text><rect fill="url(#gek09rj5gw7o11)" filter="url(#fek09rj5gw7o1)" height="49.9674" rx="4.1667" ry="4.1667" style="stroke:#2196F3;stroke-width:1.0416666666666667;" width="61.4583" x="1524.4792" y="1915.625"/><text fill="#FFFFFF" font-family="Verdana" font-size="12.5" lengthAdjust="spacing" textLength="26.0417" x="1542.1875" y="1944.9361">DSP</text><rect fill="#FFFFFF" filter="url(#fek09rj5gw7o1)" height="1637.3698" style="stroke:#CCCCCC;stroke-width:1.0416666666666667;" width="10.4167" x="470.8333" y="268.8802"/><rect fill="#FFFFFF" filter="url(#fek09rj5gw7o1)" height="114.4857" style="stroke:#CCCCCC;stroke-width:1.0416666666666667;" width="10.4167" x="787.5" y="318.8477"/><rect fill="#FFFFFF" filter="url(#fek09rj5gw7o1)" height="114.4857" style="stroke:#CCCCCC;stroke-width:1.0416666666666667;" width="10.4167" x="997.9167" y="872.5911"/><rect fill="#FFFFFF" filter="url(#fek09rj5gw7o1)" height="49.9674" style="stroke:#CCCCCC;stroke-width:1.0416666666666667;" width="10.4167" x="1144.7917" y="1274.3815"/><rect fill="#FFFFFF" filter="url(#fek09rj5gw7o1)" height="49.9674" style="stroke:#CCCCCC;stroke-width:1.0416666666666667;" width="10.4167" x="1144.7917" y="1645.9961"/><rect fill="#FFFFFF" filter="url(#fek09rj5gw7o1)" height="123.8607" style="stroke:#CCCCCC;stroke-width:1.0416666666666667;" width="10.4167" x="1250" y="1037.0443"/><rect fill="#FFFFFF" filter="url(#fek09rj5gw7o1)" height="49.9674" style="stroke:#CCCCCC;stroke-width:1.0416666666666667;" width="10.4167" x="1396.3542" y="1438.8346"/><rect fill="#FFFFFF" filter="url(#fek09rj5gw7o1)" height="49.9674" style="stroke:#CCCCCC;stroke-width:1.0416666666666667;" width="10.4167" x="1551.5625" y="1546.0612"/><polygon fill="#2196F3" points="458.3333,264.7135,468.75,268.8802,458.3333,273.0469,462.5,268.8802" style="stroke:#2196F3;stroke-width:1.0416666666666667;"/><line style="stroke:#2196F3;stroke-width:3.125;" x1="150" x2="464.5833" y1="268.8802" y2="268.8802"/><text fill="#222222" font-family="Verdana" font-size="12.5" font-weight="bold" lengthAdjust="spacing" textLength="8.3333" x="167.7083" y="238.8814">1</text><text fill="#222222" font-family="Verdana" font-size="12.5" lengthAdjust="spacing" textLength="132.2917" x="201.0417" y="224.3306">CREATE RTP request</text><text fill="#222222" font-family="Verdana" font-size="12.5" lengthAdjust="spacing" textLength="246.875" x="201.0417" y="238.8814">Headers: Idempotency-Key, RequestId</text><text fill="#222222" font-family="Verdana" font-size="12.5" lengthAdjust="spacing" textLength="176.0417" x="201.0417" y="253.4322">Payload: RTP creation data</text><polygon fill="#2196F3" points="775,314.681,785.4167,318.8477,775,323.0143,779.1667,318.8477" style="stroke:#2196F3;stroke-width:1.0416666666666667;"/><line style="stroke:#2196F3;stroke-width:3.125;" x1="481.25" x2="781.25" y1="318.8477" y2="318.8477"/><text fill="#222222" font-family="Verdana" font-size="12.5" font-weight="bold" lengthAdjust="spacing" textLength="8.3333" x="498.9583" y="303.3997">2</text><text fill="#222222" font-family="Verdana" font-size="12.5" lengthAdjust="spacing" textLength="152.0833" x="532.2917" y="303.3997">check Idempotency-Key</text><path d="M25,334.4727 L108.3333,334.4727 L108.3333,361.5234 L97.9167,371.9401 L20.8333,371.9401 L20.8333,338.6393 A4.1667,4.1667 0 0 1 25,334.4727 " fill="#FFFFFF" style="stroke:#666666;stroke-width:1.0416666666666667;"/><rect fill="none" height="1564.4857" rx="4.1667" ry="4.1667" style="stroke:#2196F3;stroke-width:1.0416666666666667;" width="1630.7292" x="20.8333" y="334.4727"/><text fill="#9C27B0" font-family="Verdana" font-size="12.5" font-weight="bold" lengthAdjust="spacing" textLength="19.7917" x="46.875" y="357.5338">alt</text><text fill="#222222" font-family="Verdana" font-size="12.5" font-weight="bold" lengthAdjust="spacing" textLength="260.4167" x="134.375" y="358.5754">[Idempotency-Key already present]</text><polygon fill="#2196F3" points="492.7083,429.1667,482.2917,433.3333,492.7083,437.5,488.5417,433.3333" style="stroke:#2196F3;stroke-width:1.0416666666666667;"/><line style="stroke:#2196F3;stroke-width:3.125;stroke-dasharray:2.0,2.0;" x1="486.4583" x2="791.6667" y1="433.3333" y2="433.3333"/><text fill="#222222" font-family="Verdana" font-size="12.5" font-weight="bold" lengthAdjust="spacing" textLength="8.3333" x="509.375" y="417.8853">3</text><text fill="#222222" font-family="Verdana" font-size="12.5" lengthAdjust="spacing" textLength="63.5417" x="542.7083" y="417.8853">key found</text><line style="stroke:#2196F3;stroke-width:3.125;" x1="481.25" x2="525" y1="483.3008" y2="483.3008"/><line style="stroke:#2196F3;stroke-width:3.125;" x1="525" x2="525" y1="483.3008" y2="496.8424"/><line style="stroke:#2196F3;stroke-width:3.125;" x1="482.2917" x2="525" y1="496.8424" y2="496.8424"/><polygon fill="#2196F3" points="492.7083,492.6758,482.2917,496.8424,492.7083,501.0091,488.5417,496.8424" style="stroke:#2196F3;stroke-width:1.0416666666666667;"/><text fill="#222222" font-family="Verdana" font-size="12.5" font-weight="bold" lengthAdjust="spacing" textLength="8.3333" x="498.9583" y="467.8528">4</text><text fill="#222222" font-family="Verdana" font-size="12.5" lengthAdjust="spacing" textLength="184.375" x="532.2917" y="467.8528">discard duplicated message</text><path d="M486.4583,514.5508 L486.4583,580.1758 A4.1667,4.1667 0 0 0 490.625,584.3424 L682.2917,584.3424 A4.1667,4.1667 0 0 0 686.4583,580.1758 L686.4583,520.8008 L676.0417,510.3841 L490.625,510.3841 A4.1667,4.1667 0 0 0 486.4583,514.5508 " fill="url(#gek09rj5gw7o12)" filter="url(#fek09rj5gw7o1)" style="stroke:#9C27B0;stroke-width:1.0416666666666667;"/><path d="M676.0417,510.3841 L676.0417,518.7174 A2.0833,2.0833 0 0 0 678.125,520.8008 L686.4583,520.8008 L676.0417,510.3841 " fill="url(#gek09rj5gw7o12)" style="stroke:#9C27B0;stroke-width:1.0416666666666667;"/><text fill="#FFFFFF" font-family="Verdana" font-size="12.5" lengthAdjust="spacing" textLength="137.5" x="503.125" y="537.6119">Duplicated message:</text><text fill="#FFFFFF" font-family="Verdana" font-size="12.5" lengthAdjust="spacing" textLength="120.8333" x="503.125" y="552.1627">already processed</text><text fill="#FFFFFF" font-family="Verdana" font-size="12.5" lengthAdjust="spacing" textLength="157.2917" x="503.125" y="566.7135">or already in processing</text><polygon fill="#2196F3" points="161.4583,631.0872,151.0417,635.2539,161.4583,639.4206,157.2917,635.2539" style="stroke:#2196F3;stroke-width:1.0416666666666667;"/><line style="stroke:#2196F3;stroke-width:3.125;stroke-dasharray:2.0,2.0;" x1="155.2083" x2="469.7917" y1="635.2539" y2="635.2539"/><text fill="#222222" font-family="Verdana" font-size="12.5" font-weight="bold" lengthAdjust="spacing" textLength="8.3333" x="178.125" y="619.8059">5</text><text fill="#222222" font-family="Verdana" font-size="12.5" lengthAdjust="spacing" textLength="77.0833" x="211.4583" y="619.8059">409 Conflict</text><line style="stroke:#2196F3;stroke-width:1.0416666666666667;stroke-dasharray:2.0,2.0;" x1="20.8333" x2="1651.5625" y1="644.6289" y2="644.6289"/><text fill="#222222" font-family="Verdana" font-size="12.5" font-weight="bold" lengthAdjust="spacing" textLength="229.1667" x="36.4583" y="666.6484">[Idempotency-Key not present]</text><polygon fill="#2196F3" points="492.7083,718.5221,482.2917,722.6888,492.7083,726.8555,488.5417,722.6888" style="stroke:#2196F3;stroke-width:1.0416666666666667;"/><line style="stroke:#2196F3;stroke-width:3.125;stroke-dasharray:2.0,2.0;" x1="486.4583" x2="791.6667" y1="722.6888" y2="722.6888"/><text fill="#222222" font-family="Verdana" font-size="12.5" font-weight="bold" lengthAdjust="spacing" textLength="8.3333" x="509.375" y="707.2408">6</text><text fill="#222222" font-family="Verdana" font-size="12.5" lengthAdjust="spacing" textLength="89.5833" x="542.7083" y="707.2408">key not found</text><polygon fill="#2196F3" points="780.2083,768.4896,790.625,772.6563,780.2083,776.8229,784.375,772.6563" style="stroke:#2196F3;stroke-width:1.0416666666666667;"/><line style="stroke:#2196F3;stroke-width:3.125;" x1="481.25" x2="786.4583" y1="772.6563" y2="772.6563"/><text fill="#222222" font-family="Verdana" font-size="12.5" font-weight="bold" lengthAdjust="spacing" textLength="8.3333" x="498.9583" y="757.2083">7</text><text fill="#222222" font-family="Verdana" font-size="12.5" lengthAdjust="spacing" textLength="143.75" x="532.2917" y="757.2083">save Idempotency-Key</text><polygon fill="#2196F3" points="492.7083,818.457,482.2917,822.6237,492.7083,826.7904,488.5417,822.6237" style="stroke:#2196F3;stroke-width:1.0416666666666667;"/><line style="stroke:#2196F3;stroke-width:3.125;stroke-dasharray:2.0,2.0;" x1="486.4583" x2="791.6667" y1="822.6237" y2="822.6237"/><text fill="#222222" font-family="Verdana" font-size="12.5" font-weight="bold" lengthAdjust="spacing" textLength="8.3333" x="509.375" y="807.1757">8</text><text fill="#222222" font-family="Verdana" font-size="12.5" lengthAdjust="spacing" textLength="64.5833" x="542.7083" y="807.1757">key saved</text><polygon fill="#2196F3" points="985.4167,868.4245,995.8333,872.5911,985.4167,876.7578,989.5833,872.5911" style="stroke:#2196F3;stroke-width:1.0416666666666667;"/><line style="stroke:#2196F3;stroke-width:3.125;" x1="481.25" x2="991.6667" y1="872.5911" y2="872.5911"/><text fill="#222222" font-family="Verdana" font-size="12.5" font-weight="bold" lengthAdjust="spacing" textLength="8.3333" x="498.9583" y="857.1431">9</text><text fill="#222222" font-family="Verdana" font-size="12.5" lengthAdjust="spacing" textLength="144.7917" x="532.2917" y="857.1431">GET /activations/payer</text><path d="M35.4167,888.2161 L118.75,888.2161 L118.75,915.2669 L108.3333,925.6836 L31.25,925.6836 L31.25,892.3828 A4.1667,4.1667 0 0 1 35.4167,888.2161 " fill="#FFFFFF" style="stroke:#666666;stroke-width:1.0416666666666667;"/><rect fill="none" height="1003.4505" rx="4.1667" ry="4.1667" style="stroke:#2196F3;stroke-width:1.0416666666666667;" width="1609.8958" x="31.25" y="888.2161"/><text fill="#9C27B0" font-family="Verdana" font-size="12.5" font-weight="bold" lengthAdjust="spacing" textLength="19.7917" x="57.2917" y="911.2773">alt</text><text fill="#222222" font-family="Verdana" font-size="12.5" font-weight="bold" lengthAdjust="spacing" textLength="126.0417" x="144.7917" y="912.3189">[payer activated]</text><polygon fill="#2196F3" points="492.7083,982.9102,482.2917,987.0768,492.7083,991.2435,488.5417,987.0768" style="stroke:#2196F3;stroke-width:1.0416666666666667;"/><line style="stroke:#2196F3;stroke-width:3.125;stroke-dasharray:2.0,2.0;" x1="486.4583" x2="1002.0833" y1="987.0768" y2="987.0768"/><text fill="#222222" font-family="Verdana" font-size="12.5" font-weight="bold" lengthAdjust="spacing" textLength="16.6667" x="509.375" y="971.6288">10</text><text fill="#222222" font-family="Verdana" font-size="12.5" lengthAdjust="spacing" textLength="154.1667" x="551.0417" y="971.6288">payer + serviceProvider</text><polygon fill="#2196F3" points="1237.5,1032.8776,1247.9167,1037.0443,1237.5,1041.2109,1241.6667,1037.0443" style="stroke:#2196F3;stroke-width:1.0416666666666667;"/><line style="stroke:#2196F3;stroke-width:3.125;" x1="481.25" x2="1243.75" y1="1037.0443" y2="1037.0443"/><text fill="#222222" font-family="Verdana" font-size="12.5" font-weight="bold" lengthAdjust="spacing" textLength="16.6667" x="498.9583" y="1021.5963">11</text><text fill="#222222" font-family="Verdana" font-size="12.5" lengthAdjust="spacing" textLength="105.2083" x="540.625" y="1021.5963">getRegistryData</text><path d="M1033.3333,1054.7526 L1033.3333,1105.7943 A4.1667,4.1667 0 0 0 1037.5,1109.9609 L1237.5,1109.9609 A4.1667,4.1667 0 0 0 1241.6667,1105.7943 L1241.6667,1061.0026 L1231.25,1050.5859 L1037.5,1050.5859 A4.1667,4.1667 0 0 0 1033.3333,1054.7526 " fill="url(#gek09rj5gw7o12)" filter="url(#fek09rj5gw7o1)" style="stroke:#9C27B0;stroke-width:1.0416666666666667;"/><path d="M1231.25,1050.5859 L1231.25,1058.9193 A2.0833,2.0833 0 0 0 1233.3333,1061.0026 L1241.6667,1061.0026 L1231.25,1050.5859 " fill="url(#gek09rj5gw7o12)" style="stroke:#9C27B0;stroke-width:1.0416666666666667;"/><text fill="#FFFFFF" font-family="Verdana" font-size="12.5" lengthAdjust="spacing" textLength="76.0417" x="1050" y="1077.8137">Search key:</text><text fill="#FFFFFF" font-family="Verdana" font-size="12.5" lengthAdjust="spacing" textLength="165.625" x="1050" y="1092.3645">payerId + serviceProvider</text><polygon fill="#2196F3" points="492.7083,1156.7383,482.2917,1160.9049,492.7083,1165.0716,488.5417,1160.9049" style="stroke:#2196F3;stroke-width:1.0416666666666667;"/><line style="stroke:#2196F3;stroke-width:3.125;stroke-dasharray:2.0,2.0;" x1="486.4583" x2="1254.1667" y1="1160.9049" y2="1160.9049"/><text fill="#222222" font-family="Verdana" font-size="12.5" font-weight="bold" lengthAdjust="spacing" textLength="16.6667" x="509.375" y="1145.4569">12</text><text fill="#222222" font-family="Verdana" font-size="12.5" lengthAdjust="spacing" textLength="138.5417" x="551.0417" y="1145.4569">Service Provider data</text><line style="stroke:#2196F3;stroke-width:3.125;" x1="481.25" x2="525" y1="1210.8724" y2="1210.8724"/><line style="stroke:#2196F3;stroke-width:3.125;" x1="525" x2="525" y1="1210.8724" y2="1224.4141"/><line style="stroke:#2196F3;stroke-width:3.125;" x1="482.2917" x2="525" y1="1224.4141" y2="1224.4141"/><polygon fill="#2196F3" points="492.7083,1220.2474,482.2917,1224.4141,492.7083,1228.5807,488.5417,1224.4141" style="stroke:#2196F3;stroke-width:1.0416666666666667;"/><text fill="#222222" font-family="Verdana" font-size="12.5" font-weight="bold" lengthAdjust="spacing" textLength="16.6667" x="498.9583" y="1195.4244">13</text><text fill="#222222" font-family="Verdana" font-size="12.5" lengthAdjust="spacing" textLength="229.1667" x="540.625" y="1195.4244">add activation data to EPC payload</text><polygon fill="#2196F3" points="1132.2917,1270.2148,1142.7083,1274.3815,1132.2917,1278.5482,1136.4583,1274.3815" style="stroke:#2196F3;stroke-width:1.0416666666666667;"/><line style="stroke:#2196F3;stroke-width:3.125;" x1="481.25" x2="1138.5417" y1="1274.3815" y2="1274.3815"/><text fill="#222222" font-family="Verdana" font-size="12.5" font-weight="bold" lengthAdjust="spacing" textLength="16.6667" x="498.9583" y="1258.9335">14</text><text fill="#222222" font-family="Verdana" font-size="12.5" lengthAdjust="spacing" textLength="131.25" x="540.625" y="1258.9335">save RTP (CREATED)</text><polygon fill="#2196F3" points="492.7083,1320.1823,482.2917,1324.349,492.7083,1328.5156,488.5417,1324.349" style="stroke:#2196F3;stroke-width:1.0416666666666667;"/><line style="stroke:#2196F3;stroke-width:3.125;stroke-dasharray:2.0,2.0;" x1="486.4583" x2="1148.9583" y1="1324.349" y2="1324.349"/><text fill="#222222" font-family="Verdana" font-size="12.5" font-weight="bold" lengthAdjust="spacing" textLength="16.6667" x="509.375" y="1308.901">15</text><text fill="#222222" font-family="Verdana" font-size="12.5" lengthAdjust="spacing" textLength="51.0417" x="551.0417" y="1308.901">created</text><path d="M371.3542,1339.974 L454.6875,1339.974 L454.6875,1367.0247 L444.2708,1377.4414 L367.1875,1377.4414 L367.1875,1344.1406 A4.1667,4.1667 0 0 1 371.3542,1339.974 " fill="#FFFFFF" style="stroke:#666666;stroke-width:1.0416666666666667;"/><rect fill="none" height="157.1615" rx="4.1667" ry="4.1667" style="stroke:#2196F3;stroke-width:1.0416666666666667;" width="1115.625" x="367.1875" y="1339.974"/><text fill="#9C27B0" font-family="Verdana" font-size="12.5" font-weight="bold" lengthAdjust="spacing" textLength="19.7917" x="393.2292" y="1363.0351">alt</text><text fill="#222222" font-family="Verdana" font-size="12.5" font-weight="bold" lengthAdjust="spacing" textLength="155.2083" x="480.7292" y="1364.0767">[flag oAuth2 == true]</text><polygon fill="#2196F3" points="1383.8542,1434.668,1394.2708,1438.8346,1383.8542,1443.0013,1388.0208,1438.8346" style="stroke:#2196F3;stroke-width:1.0416666666666667;"/><line style="stroke:#2196F3;stroke-width:3.125;" x1="481.25" x2="1390.1042" y1="1438.8346" y2="1438.8346"/><text fill="#222222" font-family="Verdana" font-size="12.5" font-weight="bold" lengthAdjust="spacing" textLength="16.6667" x="498.9583" y="1423.3866">16</text><text fill="#222222" font-family="Verdana" font-size="12.5" lengthAdjust="spacing" textLength="157.2917" x="540.625" y="1423.3866">OAuth2 token exchange</text><polygon fill="#2196F3" points="492.7083,1484.6354,482.2917,1488.8021,492.7083,1492.9688,488.5417,1488.8021" style="stroke:#2196F3;stroke-width:1.0416666666666667;"/><line style="stroke:#2196F3;stroke-width:3.125;stroke-dasharray:2.0,2.0;" x1="486.4583" x2="1400.5208" y1="1488.8021" y2="1488.8021"/><text fill="#222222" font-family="Verdana" font-size="12.5" font-weight="bold" lengthAdjust="spacing" textLength="16.6667" x="509.375" y="1473.3541">17</text><text fill="#222222" font-family="Verdana" font-size="12.5" lengthAdjust="spacing" textLength="176.0417" x="551.0417" y="1473.3541">200 received access token</text><polygon fill="#2196F3" points="1539.0625,1541.8945,1549.4792,1546.0612,1539.0625,1550.2279,1543.2292,1546.0612" style="stroke:#2196F3;stroke-width:1.0416666666666667;"/><line style="stroke:#2196F3;stroke-width:3.125;" x1="481.25" x2="1545.3125" y1="1546.0612" y2="1546.0612"/><text fill="#222222" font-family="Verdana" font-size="12.5" font-weight="bold" lengthAdjust="spacing" textLength="16.6667" x="498.9583" y="1530.6132">18</text><text fill="#222222" font-family="Verdana" font-size="12.5" lengthAdjust="spacing" textLength="173.9583" x="540.625" y="1530.6132">POST /sepa-request-to-pay</text><polygon fill="#2196F3" points="492.7083,1591.862,482.2917,1596.0286,492.7083,1600.1953,488.5417,1596.0286" style="stroke:#2196F3;stroke-width:1.0416666666666667;"/><line style="stroke:#2196F3;stroke-width:3.125;stroke-dasharray:2.0,2.0;" x1="486.4583" x2="1555.7292" y1="1596.0286" y2="1596.0286"/><text fill="#222222" font-family="Verdana" font-size="12.5" font-weight="bold" lengthAdjust="spacing" textLength="16.6667" x="509.375" y="1580.5806">19</text><text fill="#222222" font-family="Verdana" font-size="12.5" lengthAdjust="spacing" textLength="90.625" x="551.0417" y="1580.5806">202 Accepted</text><polygon fill="#2196F3" points="1132.2917,1641.8294,1142.7083,1645.9961,1132.2917,1650.1628,1136.4583,1645.9961" style="stroke:#2196F3;stroke-width:1.0416666666666667;"/><line style="stroke:#2196F3;stroke-width:3.125;" x1="481.25" x2="1138.5417" y1="1645.9961" y2="1645.9961"/><text fill="#222222" font-family="Verdana" font-size="12.5" font-weight="bold" lengthAdjust="spacing" textLength="16.6667" x="498.9583" y="1630.5481">20</text><text fill="#222222" font-family="Verdana" font-size="12.5" lengthAdjust="spacing" textLength="106.25" x="540.625" y="1630.5481">save RTP (SENT)</text><polygon fill="#2196F3" points="492.7083,1691.7969,482.2917,1695.9635,492.7083,1700.1302,488.5417,1695.9635" style="stroke:#2196F3;stroke-width:1.0416666666666667;"/><line style="stroke:#2196F3;stroke-width:3.125;stroke-dasharray:2.0,2.0;" x1="486.4583" x2="1148.9583" y1="1695.9635" y2="1695.9635"/><text fill="#222222" font-family="Verdana" font-size="12.5" font-weight="bold" lengthAdjust="spacing" textLength="16.6667" x="509.375" y="1680.5155">21</text><text fill="#222222" font-family="Verdana" font-size="12.5" lengthAdjust="spacing" textLength="55.2083" x="551.0417" y="1680.5155">updated</text><polygon fill="#2196F3" points="161.4583,1741.7643,151.0417,1745.931,161.4583,1750.0977,157.2917,1745.931" style="stroke:#2196F3;stroke-width:1.0416666666666667;"/><line style="stroke:#2196F3;stroke-width:3.125;stroke-dasharray:2.0,2.0;" x1="155.2083" x2="469.7917" y1="1745.931" y2="1745.931"/><text fill="#222222" font-family="Verdana" font-size="12.5" font-weight="bold" lengthAdjust="spacing" textLength="16.6667" x="178.125" y="1730.483">22</text><text fill="#222222" font-family="Verdana" font-size="12.5" lengthAdjust="spacing" textLength="81.25" x="219.7917" y="1730.483">201 Created</text><line style="stroke:#2196F3;stroke-width:1.0416666666666667;stroke-dasharray:2.0,2.0;" x1="31.25" x2="1641.1458" y1="1755.306" y2="1755.306"/><text fill="#222222" font-family="Verdana" font-size="12.5" font-weight="bold" lengthAdjust="spacing" textLength="155.2083" x="46.875" y="1777.3254">[payer not activated]</text><polygon fill="#2196F3" points="492.7083,1829.1992,482.2917,1833.3659,492.7083,1837.5326,488.5417,1833.3659" style="stroke:#2196F3;stroke-width:1.0416666666666667;"/><line style="stroke:#2196F3;stroke-width:3.125;stroke-dasharray:2.0,2.0;" x1="486.4583" x2="1002.0833" y1="1833.3659" y2="1833.3659"/><text fill="#222222" font-family="Verdana" font-size="12.5" font-weight="bold" lengthAdjust="spacing" textLength="16.6667" x="509.375" y="1817.9179">23</text><text fill="#222222" font-family="Verdana" font-size="12.5" lengthAdjust="spacing" textLength="63.5417" x="551.0417" y="1817.9179">not found</text><polygon fill="#2196F3" points="161.4583,1879.1667,151.0417,1883.3333,161.4583,1887.5,157.2917,1883.3333" style="stroke:#2196F3;stroke-width:1.0416666666666667;"/><line style="stroke:#2196F3;stroke-width:3.125;stroke-dasharray:2.0,2.0;" x1="155.2083" x2="469.7917" y1="1883.3333" y2="1883.3333"/><text fill="#222222" font-family="Verdana" font-size="12.5" font-weight="bold" lengthAdjust="spacing" textLength="16.6667" x="178.125" y="1867.8853">24</text><text fill="#222222" font-family="Verdana" font-size="12.5" lengthAdjust="spacing" textLength="96.875" x="219.7917" y="1867.8853">404 Not Found</text><!--SRC=[bLLDKzim4BthLsov0DC6qWoNUeRE976WcGBnn8OJ5s5j70sExSfoslpxhcGx_aYWr1Sxsjsdjsy_SWfUp1FzU7y7hkIHuXjOfGgMWGS-9WB6tfoTGY1rZ0wugBcCKJHc7tyLc8HO1vFl4wfSfea3eulXnP2nJtgD6uGDrwWaPqmRB8imLKY7S1EdlndBkD8ob1cHWPDxVp1TFFYFzxFb2V0SwXy7NlximQryoayckEOlF4SuMQAG-NDoDXUuoL9DD7Vm4tVWwrJXkOrPpjovVm0wdWRpft6mA75lEvY1vvUtqLVht4UrbIJ34YEPQxMZQoTtYybvvTkzOZgPbrbDvbs3wtlMG6_6UA7JfDYye6AipXy6twiy7PWkP-DWPeLKfWgvVav-81SalmEjd0UKynSYPbtcuZdn-2vEkN1iQ6XgGEK2amlZePPRKvDAJ5Q-pRLMAWV2DOQlVVWchXIKyLZtVO37T9NOGQOmnqGpeCUwmw2LrIjvhj8Y4TOki8Ti3XjETH3LEUHAW2YoM8RaBM23USuZj049iG0bexM6T5Md1lPn3oASojBGJKEoeAZEQJXgaqnggqmYQpOZOMxhy2IYTVqSk1f-WscQhEXMpHZ6r3nzeGZW0o8PhqQeWphbV7k0_0wQSNz3yXx-BKNSpWAuhDoeT_BBZE-eJQriTJ2DJNb0hM3DUrEj991FXqZfzXdoSfWybMwbg71xr6hqNZyGI8Iw7aBNj7JjrRJsSdzc6oF6LTaNpJbX8bVXsaZZj4ujmRbuXsAd0InGDyLwJzI1vTWTIT0_dc05muM0HdyB0Zg5cJSr7Crq7vSdyAhECAD_LcuGz_oOHhJTcXJ8kPs4tHcjCdPeKs23HxLVnJo2T5pezGYkhq6h0bkAjkdHEdHWKNhgz1KJm3_XcYTHDs1_brcVRGFzxj0S3OUq6KEKrDeKPUQqnEr4jSYt0QcGnoIapUo0j_2f_tFC-A3Ql0ET3aZuGo7D9gyFwRl7RmHZefMzeQNz5_Xt5SaI_7S9Yqnyh8H7bzXe-BNwywv4idki75-pb_uvwTtbTJZRxzv-DRo21mAusGEOOjc2jTCer_nV]--></g></svg>