<?xml version="1.0" encoding="us-ascii" standalone="no"?><svg xmlns="http://www.w3.org/2000/svg" xmlns:xlink="http://www.w3.org/1999/xlink" contentStyleType="text/css" height="1714.5833px" preserveAspectRatio="none" style="width:1536px;height:1714px;" version="1.1" viewBox="0 0 1536 1714" width="1536.4583px" zoomAndPan="magnify"><defs><linearGradient id="gwmydt09v3f2q0" x1="50%" x2="50%" y1="0%" y2="100%"><stop offset="0%" stop-color="#FFFFFF"/><stop offset="100%" stop-color="#FFFFFF"/></linearGradient><filter height="300%" id="fwmydt09v3f2q" width="300%" x="-1" y="-1"><feGaussianBlur result="blurOut" stdDeviation="2.0833333333333335"/><feColorMatrix in="blurOut" result="blurOut2" type="matrix" values="0 0 0 0 0 0 0 0 0 0 0 0 0 0 0 0 0 0 .4 0"/><feOffset dx="4.166666666666667" dy="4.166666666666667" in="blurOut2" result="blurOut3"/><feBlend in="SourceGraphic" in2="blurOut3" mode="normal"/></filter><linearGradient id="gwmydt09v3f2q1" x1="50%" x2="50%" y1="0%" y2="100%"><stop offset="0%" stop-color="#4DABF5"/><stop offset="100%" stop-color="#2196F3"/></linearGradient><linearGradient id="gwmydt09v3f2q2" x1="50%" x2="50%" y1="0%" y2="100%"><stop offset="0%" stop-color="#B052C0"/><stop offset="100%" stop-color="#9C27B0"/></linearGradient></defs><g><rect fill="url(#gwmydt09v3f2q0)" height="57.5846" id="_title" rx="4.1667" ry="4.1667" style="stroke:#CCCCCC;stroke-width:1.0416666666666667;" width="229.1667" x="654.9479" y="20.8333"/><text fill="#2196F3" font-family="Verdana" font-size="20.8333" font-weight="bold" lengthAdjust="spacing" textLength="195.8333" x="671.6146" y="56.838">RTP Create Flow</text><rect fill="#FFFFFF" filter="url(#fwmydt09v3f2q)" height="1344.8893" style="stroke:#CCCCCC;stroke-width:1.0416666666666667;" width="10.4167" x="338.5417" y="239.7786"/><rect fill="#FFFFFF" filter="url(#fwmydt09v3f2q)" height="114.4857" style="stroke:#CCCCCC;stroke-width:1.0416666666666667;" width="10.4167" x="655.2083" y="289.7461"/><rect fill="#FFFFFF" filter="url(#fwmydt09v3f2q)" height="114.4857" style="stroke:#CCCCCC;stroke-width:1.0416666666666667;" width="10.4167" x="865.625" y="715.4622"/><rect fill="#FFFFFF" filter="url(#fwmydt09v3f2q)" height="49.9674" style="stroke:#CCCCCC;stroke-width:1.0416666666666667;" width="10.4167" x="1012.5" y="1052.7344"/><rect fill="#FFFFFF" filter="url(#fwmydt09v3f2q)" height="49.9674" style="stroke:#CCCCCC;stroke-width:1.0416666666666667;" width="10.4167" x="1012.5" y="1424.349"/><rect fill="#FFFFFF" filter="url(#fwmydt09v3f2q)" height="54.6549" style="stroke:#CCCCCC;stroke-width:1.0416666666666667;" width="10.4167" x="1117.7083" y="884.6029"/><rect fill="#FFFFFF" filter="url(#fwmydt09v3f2q)" height="49.9674" style="stroke:#CCCCCC;stroke-width:1.0416666666666667;" width="10.4167" x="1264.0625" y="1217.1875"/><rect fill="#FFFFFF" filter="url(#fwmydt09v3f2q)" height="49.9674" style="stroke:#CCCCCC;stroke-width:1.0416666666666667;" width="10.4167" x="1419.2708" y="1324.4141"/><rect fill="url(#gwmydt09v3f2q0)" filter="url(#fwmydt09v3f2q)" height="1272.0052" rx="4.1667" ry="4.1667" style="stroke:#2196F3;stroke-width:1.0416666666666667;" width="1498.4375" x="20.8333" y="305.3711"/><path d="M20.8333,486.4583 L1519.2708,486.4583 L1519.2708,1573.2096 A4.1667,4.1667 0 0 1 1515.1042,1577.3763 L25,1577.3763 A4.1667,4.1667 0 0 1 20.8333,1573.2096 L20.8333,486.4583 " fill="url(#gwmydt09v3f2q0)" style="stroke:none;stroke-width:1.0416666666666667;"/><rect fill="url(#gwmydt09v3f2q0)" filter="url(#fwmydt09v3f2q)" height="838.9974" rx="4.1667" ry="4.1667" style="stroke:#2196F3;stroke-width:1.0416666666666667;" width="1477.6042" x="31.25" y="731.0872"/><rect fill="url(#gwmydt09v3f2q0)" filter="url(#fwmydt09v3f2q)" height="157.1615" rx="4.1667" ry="4.1667" style="stroke:#2196F3;stroke-width:1.0416666666666667;" width="1115.625" x="234.8958" y="1118.3268"/><path d="M31.25,1482.6497 L1508.8542,1482.6497 L1508.8542,1565.918 A4.1667,4.1667 0 0 1 1504.6875,1570.0846 L35.4167,1570.0846 A4.1667,4.1667 0 0 1 31.25,1565.918 L31.25,1482.6497 " fill="url(#gwmydt09v3f2q0)" style="stroke:none;stroke-width:1.0416666666666667;"/><line style="stroke:#CCCCCC;stroke-width:1.0416666666666667;stroke-dasharray:5.0,5.0;" x1="343.2292" x2="343.2292" y1="187.7279" y2="1595.0846"/><line style="stroke:#CCCCCC;stroke-width:1.0416666666666667;stroke-dasharray:5.0,5.0;" x1="659.8958" x2="659.8958" y1="187.7279" y2="1595.0846"/><line style="stroke:#CCCCCC;stroke-width:1.0416666666666667;stroke-dasharray:5.0,5.0;" x1="870.3125" x2="870.3125" y1="187.7279" y2="1595.0846"/><line style="stroke:#CCCCCC;stroke-width:1.0416666666666667;stroke-dasharray:5.0,5.0;" x1="1017.1875" x2="1017.1875" y1="187.7279" y2="1595.0846"/><line style="stroke:#CCCCCC;stroke-width:1.0416666666666667;stroke-dasharray:5.0,5.0;" x1="1122.3958" x2="1122.3958" y1="187.7279" y2="1595.0846"/><line style="stroke:#CCCCCC;stroke-width:1.0416666666666667;stroke-dasharray:5.0,5.0;" x1="1269.2708" x2="1269.2708" y1="187.7279" y2="1595.0846"/><line style="stroke:#CCCCCC;stroke-width:1.0416666666666667;stroke-dasharray:5.0,5.0;" x1="1424.4792" x2="1424.4792" y1="187.7279" y2="1595.0846"/><rect fill="url(#gwmydt09v3f2q1)" filter="url(#fwmydt09v3f2q)" height="49.9674" rx="4.1667" ry="4.1667" style="stroke:#2196F3;stroke-width:1.0416666666666667;" width="110.4167" x="286.9792" y="133.5938"/><text fill="#FFFFFF" font-family="Verdana" font-size="12.5" lengthAdjust="spacing" textLength="75" x="304.6875" y="162.9049">MS-SENDER</text><rect fill="url(#gwmydt09v3f2q1)" filter="url(#fwmydt09v3f2q)" height="49.9674" rx="4.1667" ry="4.1667" style="stroke:#2196F3;stroke-width:1.0416666666666667;" width="110.4167" x="286.9792" y="1594.043"/><text fill="#FFFFFF" font-family="Verdana" font-size="12.5" lengthAdjust="spacing" textLength="75" x="304.6875" y="1623.3541">MS-SENDER</text><text fill="#222222" font-family="Verdana" font-size="12.5" lengthAdjust="spacing" textLength="35.4167" x="639.5833" y="159.8124">Redis</text><text fill="#222222" font-family="Verdana" font-size="12.5" lengthAdjust="spacing" textLength="159.375" x="577.6042" y="174.3632">(Idempotency Key Store)</text><path d="M641.6667,100.293 C641.6667,89.8763 660.4167,89.8763 660.4167,89.8763 C660.4167,89.8763 679.1667,89.8763 679.1667,100.293 L679.1667,127.3763 C679.1667,137.793 660.4167,137.793 660.4167,137.793 C660.4167,137.793 641.6667,137.793 641.6667,127.3763 L641.6667,100.293 " fill="url(#gwmydt09v3f2q1)" filter="url(#fwmydt09v3f2q)" style="stroke:#2196F3;stroke-width:1.5625;"/><path d="M641.6667,100.293 C641.6667,110.7096 660.4167,110.7096 660.4167,110.7096 C660.4167,110.7096 679.1667,110.7096 679.1667,100.293 " fill="none" style="stroke:#2196F3;stroke-width:1.5625;"/><text fill="#222222" font-family="Verdana" font-size="12.5" lengthAdjust="spacing" textLength="35.4167" x="639.5833" y="1616.0624">Redis</text><text fill="#222222" font-family="Verdana" font-size="12.5" lengthAdjust="spacing" textLength="159.375" x="577.6042" y="1630.6132">(Idempotency Key Store)</text><path d="M641.6667,1654.3945 C641.6667,1643.9779 660.4167,1643.9779 660.4167,1643.9779 C660.4167,1643.9779 679.1667,1643.9779 679.1667,1654.3945 L679.1667,1681.4779 C679.1667,1691.8945 660.4167,1691.8945 660.4167,1691.8945 C660.4167,1691.8945 641.6667,1691.8945 641.6667,1681.4779 L641.6667,1654.3945 " fill="url(#gwmydt09v3f2q1)" filter="url(#fwmydt09v3f2q)" style="stroke:#2196F3;stroke-width:1.5625;"/><path d="M641.6667,1654.3945 C641.6667,1664.8112 660.4167,1664.8112 660.4167,1664.8112 C660.4167,1664.8112 679.1667,1664.8112 679.1667,1654.3945 " fill="none" style="stroke:#2196F3;stroke-width:1.5625;"/><rect fill="url(#gwmydt09v3f2q1)" filter="url(#fwmydt09v3f2q)" height="49.9674" rx="4.1667" ry="4.1667" style="stroke:#2196F3;stroke-width:1.0416666666666667;" width="127.0833" x="805.7292" y="133.5938"/><text fill="#FFFFFF" font-family="Verdana" font-size="12.5" lengthAdjust="spacing" textLength="91.6667" x="823.4375" y="162.9049">MS-ACTIVATOR</text><rect fill="url(#gwmydt09v3f2q1)" filter="url(#fwmydt09v3f2q)" height="49.9674" rx="4.1667" ry="4.1667" style="stroke:#2196F3;stroke-width:1.0416666666666667;" width="127.0833" x="805.7292" y="1594.043"/><text fill="#FFFFFF" font-family="Verdana" font-size="12.5" lengthAdjust="spacing" textLength="91.6667" x="823.4375" y="1623.3541">MS-ACTIVATOR</text><text fill="#222222" font-family="Verdana" font-size="12.5" lengthAdjust="spacing" textLength="32.2917" x="998.4375" y="174.3632">RTPS</text><path d="M998.9583,114.8438 C998.9583,104.4271 1017.7083,104.4271 1017.7083,104.4271 C1017.7083,104.4271 1036.4583,104.4271 1036.4583,114.8438 L1036.4583,141.9271 C1036.4583,152.3438 1017.7083,152.3438 1017.7083,152.3438 C1017.7083,152.3438 998.9583,152.3438 998.9583,141.9271 L998.9583,114.8438 " fill="url(#gwmydt09v3f2q1)" filter="url(#fwmydt09v3f2q)" style="stroke:#2196F3;stroke-width:1.5625;"/><path d="M998.9583,114.8438 C998.9583,125.2604 1017.7083,125.2604 1017.7083,125.2604 C1017.7083,125.2604 1036.4583,125.2604 1036.4583,114.8438 " fill="none" style="stroke:#2196F3;stroke-width:1.5625;"/><text fill="#222222" font-family="Verdana" font-size="12.5" lengthAdjust="spacing" textLength="32.2917" x="998.4375" y="1616.0624">RTPS</text><path d="M998.9583,1639.8438 C998.9583,1629.4271 1017.7083,1629.4271 1017.7083,1629.4271 C1017.7083,1629.4271 1036.4583,1629.4271 1036.4583,1639.8438 L1036.4583,1666.9271 C1036.4583,1677.3438 1017.7083,1677.3438 1017.7083,1677.3438 C1017.7083,1677.3438 998.9583,1677.3438 998.9583,1666.9271 L998.9583,1639.8438 " fill="url(#gwmydt09v3f2q1)" filter="url(#fwmydt09v3f2q)" style="stroke:#2196F3;stroke-width:1.5625;"/><path d="M998.9583,1639.8438 C998.9583,1650.2604 1017.7083,1650.2604 1017.7083,1650.2604 C1017.7083,1650.2604 1036.4583,1650.2604 1036.4583,1639.8438 " fill="none" style="stroke:#2196F3;stroke-width:1.5625;"/><text fill="#222222" font-family="Verdana" font-size="12.5" lengthAdjust="spacing" textLength="103.125" x="1068.2292" y="159.8124">Service Registry</text><text fill="#222222" font-family="Verdana" font-size="12.5" lengthAdjust="spacing" textLength="42.7083" x="1098.4375" y="174.3632">(BLOB)</text><path d="M1104.1667,100.293 C1104.1667,89.8763 1122.9167,89.8763 1122.9167,89.8763 C1122.9167,89.8763 1141.6667,89.8763 1141.6667,100.293 L1141.6667,127.3763 C1141.6667,137.793 1122.9167,137.793 1122.9167,137.793 C1122.9167,137.793 1104.1667,137.793 1104.1667,127.3763 L1104.1667,100.293 " fill="url(#gwmydt09v3f2q1)" filter="url(#fwmydt09v3f2q)" style="stroke:#2196F3;stroke-width:1.5625;"/><path d="M1104.1667,100.293 C1104.1667,110.7096 1122.9167,110.7096 1122.9167,110.7096 C1122.9167,110.7096 1141.6667,110.7096 1141.6667,100.293 " fill="none" style="stroke:#2196F3;stroke-width:1.5625;"/><text fill="#222222" font-family="Verdana" font-size="12.5" lengthAdjust="spacing" textLength="103.125" x="1068.2292" y="1616.0624">Service Registry</text><text fill="#222222" font-family="Verdana" font-size="12.5" lengthAdjust="spacing" textLength="42.7083" x="1098.4375" y="1630.6132">(BLOB)</text><path d="M1104.1667,1654.3945 C1104.1667,1643.9779 1122.9167,1643.9779 1122.9167,1643.9779 C1122.9167,1643.9779 1141.6667,1643.9779 1141.6667,1654.3945 L1141.6667,1681.4779 C1141.6667,1691.8945 1122.9167,1691.8945 1122.9167,1691.8945 C1122.9167,1691.8945 1104.1667,1691.8945 1104.1667,1681.4779 L1104.1667,1654.3945 " fill="url(#gwmydt09v3f2q1)" filter="url(#fwmydt09v3f2q)" style="stroke:#2196F3;stroke-width:1.5625;"/><path d="M1104.1667,1654.3945 C1104.1667,1664.8112 1122.9167,1664.8112 1122.9167,1664.8112 C1122.9167,1664.8112 1141.6667,1664.8112 1141.6667,1654.3945 " fill="none" style="stroke:#2196F3;stroke-width:1.5625;"/><rect fill="url(#gwmydt09v3f2q1)" filter="url(#fwmydt09v3f2q)" height="49.9674" rx="4.1667" ry="4.1667" style="stroke:#2196F3;stroke-width:1.0416666666666667;" width="55.2083" x="1240.1042" y="133.5938"/><text fill="#FFFFFF" font-family="Verdana" font-size="12.5" lengthAdjust="spacing" textLength="19.7917" x="1257.8125" y="162.9049">CBI</text><rect fill="url(#gwmydt09v3f2q1)" filter="url(#fwmydt09v3f2q)" height="49.9674" rx="4.1667" ry="4.1667" style="stroke:#2196F3;stroke-width:1.0416666666666667;" width="55.2083" x="1240.1042" y="1594.043"/><text fill="#FFFFFF" font-family="Verdana" font-size="12.5" lengthAdjust="spacing" textLength="19.7917" x="1257.8125" y="1623.3541">CBI</text><rect fill="url(#gwmydt09v3f2q1)" filter="url(#fwmydt09v3f2q)" height="49.9674" rx="4.1667" ry="4.1667" style="stroke:#2196F3;stroke-width:1.0416666666666667;" width="61.4583" x="1392.1875" y="133.5938"/><text fill="#FFFFFF" font-family="Verdana" font-size="12.5" lengthAdjust="spacing" textLength="26.0417" x="1409.8958" y="162.9049">DSP</text><rect fill="url(#gwmydt09v3f2q1)" filter="url(#fwmydt09v3f2q)" height="49.9674" rx="4.1667" ry="4.1667" style="stroke:#2196F3;stroke-width:1.0416666666666667;" width="61.4583" x="1392.1875" y="1594.043"/><text fill="#FFFFFF" font-family="Verdana" font-size="12.5" lengthAdjust="spacing" textLength="26.0417" x="1409.8958" y="1623.3541">DSP</text><rect fill="#FFFFFF" filter="url(#fwmydt09v3f2q)" height="1344.8893" style="stroke:#CCCCCC;stroke-width:1.0416666666666667;" width="10.4167" x="338.5417" y="239.7786"/><rect fill="#FFFFFF" filter="url(#fwmydt09v3f2q)" height="114.4857" style="stroke:#CCCCCC;stroke-width:1.0416666666666667;" width="10.4167" x="655.2083" y="289.7461"/><rect fill="#FFFFFF" filter="url(#fwmydt09v3f2q)" height="114.4857" style="stroke:#CCCCCC;stroke-width:1.0416666666666667;" width="10.4167" x="865.625" y="715.4622"/><rect fill="#FFFFFF" filter="url(#fwmydt09v3f2q)" height="49.9674" style="stroke:#CCCCCC;stroke-width:1.0416666666666667;" width="10.4167" x="1012.5" y="1052.7344"/><rect fill="#FFFFFF" filter="url(#fwmydt09v3f2q)" height="49.9674" style="stroke:#CCCCCC;stroke-width:1.0416666666666667;" width="10.4167" x="1012.5" y="1424.349"/><rect fill="#FFFFFF" filter="url(#fwmydt09v3f2q)" height="54.6549" style="stroke:#CCCCCC;stroke-width:1.0416666666666667;" width="10.4167" x="1117.7083" y="884.6029"/><rect fill="#FFFFFF" filter="url(#fwmydt09v3f2q)" height="49.9674" style="stroke:#CCCCCC;stroke-width:1.0416666666666667;" width="10.4167" x="1264.0625" y="1217.1875"/><rect fill="#FFFFFF" filter="url(#fwmydt09v3f2q)" height="49.9674" style="stroke:#CCCCCC;stroke-width:1.0416666666666667;" width="10.4167" x="1419.2708" y="1324.4141"/><ellipse cx="18.2292" cy="238.9974" fill="none" rx="4.1667" ry="4.1667" style="stroke:#2196F3;stroke-width:1.5625;"/><polygon fill="#2196F3" points="326.0417,235.612,336.4583,239.7786,326.0417,243.9453,330.2083,239.7786" style="stroke:#2196F3;stroke-width:1.0416666666666667;"/><line style="stroke:#2196F3;stroke-width:3.125;" x1="22.9167" x2="332.2917" y1="239.7786" y2="239.7786"/><text fill="#222222" font-family="Verdana" font-size="12.5" font-weight="bold" lengthAdjust="spacing" textLength="8.3333" x="36.4583" y="224.3306">1</text><text fill="#222222" font-family="Verdana" font-size="12.5" lengthAdjust="spacing" textLength="120.8333" x="69.7917" y="224.3306">GDP CREATE event</text><polygon fill="#2196F3" points="642.7083,285.5794,653.125,289.7461,642.7083,293.9128,646.875,289.7461" style="stroke:#2196F3;stroke-width:1.0416666666666667;"/><line style="stroke:#2196F3;stroke-width:3.125;" x1="348.9583" x2="648.9583" y1="289.7461" y2="289.7461"/><text fill="#222222" font-family="Verdana" font-size="12.5" font-weight="bold" lengthAdjust="spacing" textLength="8.3333" x="366.6667" y="274.2981">2</text><text fill="#222222" font-family="Verdana" font-size="12.5" lengthAdjust="spacing" textLength="152.0833" x="400" y="274.2981">check Idempotency-Key</text><path d="M25,305.3711 L108.3333,305.3711 L108.3333,332.4219 L97.9167,342.8385 L20.8333,342.8385 L20.8333,309.5378 A4.1667,4.1667 0 0 1 25,305.3711 " fill="#FFFFFF" style="stroke:#666666;stroke-width:1.0416666666666667;"/><rect fill="none" height="1272.0052" rx="4.1667" ry="4.1667" style="stroke:#2196F3;stroke-width:1.0416666666666667;" width="1498.4375" x="20.8333" y="305.3711"/><text fill="#9C27B0" font-family="Verdana" font-size="12.5" font-weight="bold" lengthAdjust="spacing" textLength="19.7917" x="46.875" y="328.4322">alt</text><text fill="#222222" font-family="Verdana" font-size="12.5" font-weight="bold" lengthAdjust="spacing" textLength="260.4167" x="134.375" y="329.4739">[Idempotency-Key already present]</text><polygon fill="#2196F3" points="360.4167,400.0651,350,404.2318,360.4167,408.3984,356.25,404.2318" style="stroke:#2196F3;stroke-width:1.0416666666666667;"/><line style="stroke:#2196F3;stroke-width:3.125;stroke-dasharray:2.0,2.0;" x1="354.1667" x2="659.375" y1="404.2318" y2="404.2318"/><text fill="#222222" font-family="Verdana" font-size="12.5" font-weight="bold" lengthAdjust="spacing" textLength="8.3333" x="377.0833" y="388.7838">3</text><text fill="#222222" font-family="Verdana" font-size="12.5" lengthAdjust="spacing" textLength="63.5417" x="410.4167" y="388.7838">key found</text><line style="stroke:#2196F3;stroke-width:3.125;" x1="348.9583" x2="392.7083" y1="459.3913" y2="459.3913"/><line style="stroke:#2196F3;stroke-width:3.125;" x1="392.7083" x2="392.7083" y1="459.3913" y2="472.9329"/><line style="stroke:#2196F3;stroke-width:3.125;" x1="350" x2="392.7083" y1="472.9329" y2="472.9329"/><polygon fill="#2196F3" points="360.4167,468.7663,350,472.9329,360.4167,477.0996,356.25,472.9329" style="stroke:#2196F3;stroke-width:1.0416666666666667;"/><text fill="#222222" font-family="Verdana" font-size="12.5" font-weight="bold" lengthAdjust="spacing" textLength="8.3333" x="366.6667" y="443.9433">4</text><text fill="#222222" font-family="Verdana" font-size="12.5" lengthAdjust="spacing" textLength="184.375" x="400" y="443.9433">discard duplicated message</text><path d="M607.2917,421.9401 L607.2917,472.9818 A4.1667,4.1667 0 0 0 611.4583,477.1484 L829.1667,477.1484 A4.1667,4.1667 0 0 0 833.3333,472.9818 L833.3333,428.1901 L822.9167,417.7734 L611.4583,417.7734 A4.1667,4.1667 0 0 0 607.2917,421.9401 " fill="url(#gwmydt09v3f2q2)" filter="url(#fwmydt09v3f2q)" style="stroke:#9C27B0;stroke-width:1.0416666666666667;"/><path d="M822.9167,417.7734 L822.9167,426.1068 A2.0833,2.0833 0 0 0 825,428.1901 L833.3333,428.1901 L822.9167,417.7734 " fill="url(#gwmydt09v3f2q2)" style="stroke:#9C27B0;stroke-width:1.0416666666666667;"/><text fill="#FFFFFF" font-family="Verdana" font-size="12.5" lengthAdjust="spacing" textLength="183.3333" x="623.9583" y="445.0012">Message already processed</text><text fill="#FFFFFF" font-family="Verdana" font-size="12.5" lengthAdjust="spacing" textLength="157.2917" x="623.9583" y="459.552">or already in processing</text><line style="stroke:#2196F3;stroke-width:1.0416666666666667;stroke-dasharray:2.0,2.0;" x1="20.8333" x2="1519.2708" y1="487.5" y2="487.5"/><text fill="#222222" font-family="Verdana" font-size="12.5" font-weight="bold" lengthAdjust="spacing" textLength="229.1667" x="36.4583" y="509.5194">[Idempotency-Key not present]</text><polygon fill="#2196F3" points="360.4167,561.3932,350,565.5599,360.4167,569.7266,356.25,565.5599" style="stroke:#2196F3;stroke-width:1.0416666666666667;"/><line style="stroke:#2196F3;stroke-width:3.125;stroke-dasharray:2.0,2.0;" x1="354.1667" x2="659.375" y1="565.5599" y2="565.5599"/><text fill="#222222" font-family="Verdana" font-size="12.5" font-weight="bold" lengthAdjust="spacing" textLength="8.3333" x="377.0833" y="550.1119">5</text><text fill="#222222" font-family="Verdana" font-size="12.5" lengthAdjust="spacing" textLength="89.5833" x="410.4167" y="550.1119">key not found</text><polygon fill="#2196F3" points="647.9167,611.3607,658.3333,615.5273,647.9167,619.694,652.0833,615.5273" style="stroke:#2196F3;stroke-width:1.0416666666666667;"/><line style="stroke:#2196F3;stroke-width:3.125;" x1="348.9583" x2="654.1667" y1="615.5273" y2="615.5273"/><text fill="#222222" font-family="Verdana" font-size="12.5" font-weight="bold" lengthAdjust="spacing" textLength="8.3333" x="366.6667" y="600.0793">6</text><text fill="#222222" font-family="Verdana" font-size="12.5" lengthAdjust="spacing" textLength="143.75" x="400" y="600.0793">save Idempotency-Key</text><polygon fill="#2196F3" points="360.4167,661.3281,350,665.4948,360.4167,669.6615,356.25,665.4948" style="stroke:#2196F3;stroke-width:1.0416666666666667;"/><line style="stroke:#2196F3;stroke-width:3.125;stroke-dasharray:2.0,2.0;" x1="354.1667" x2="659.375" y1="665.4948" y2="665.4948"/><text fill="#222222" font-family="Verdana" font-size="12.5" font-weight="bold" lengthAdjust="spacing" textLength="8.3333" x="377.0833" y="650.0468">7</text><text fill="#222222" font-family="Verdana" font-size="12.5" lengthAdjust="spacing" textLength="64.5833" x="410.4167" y="650.0468">key saved</text><polygon fill="#2196F3" points="853.125,711.2956,863.5417,715.4622,853.125,719.6289,857.2917,715.4622" style="stroke:#2196F3;stroke-width:1.0416666666666667;"/><line style="stroke:#2196F3;stroke-width:3.125;" x1="348.9583" x2="859.375" y1="715.4622" y2="715.4622"/><text fill="#222222" font-family="Verdana" font-size="12.5" font-weight="bold" lengthAdjust="spacing" textLength="8.3333" x="366.6667" y="700.0142">8</text><text fill="#222222" font-family="Verdana" font-size="12.5" lengthAdjust="spacing" textLength="144.7917" x="400" y="700.0142">GET /activations/payer</text><path d="M35.4167,731.0872 L118.75,731.0872 L118.75,758.138 L108.3333,768.5547 L31.25,768.5547 L31.25,735.2539 A4.1667,4.1667 0 0 1 35.4167,731.0872 " fill="#FFFFFF" style="stroke:#666666;stroke-width:1.0416666666666667;"/><rect fill="none" height="838.9974" rx="4.1667" ry="4.1667" style="stroke:#2196F3;stroke-width:1.0416666666666667;" width="1477.6042" x="31.25" y="731.0872"/><text fill="#9C27B0" font-family="Verdana" font-size="12.5" font-weight="bold" lengthAdjust="spacing" textLength="19.7917" x="57.2917" y="754.1484">alt</text><text fill="#222222" font-family="Verdana" font-size="12.5" font-weight="bold" lengthAdjust="spacing" textLength="126.0417" x="144.7917" y="755.19">[payer activated]</text><polygon fill="#2196F3" points="360.4167,825.7813,350,829.9479,360.4167,834.1146,356.25,829.9479" style="stroke:#2196F3;stroke-width:1.0416666666666667;"/><line style="stroke:#2196F3;stroke-width:3.125;stroke-dasharray:2.0,2.0;" x1="354.1667" x2="869.7917" y1="829.9479" y2="829.9479"/><text fill="#222222" font-family="Verdana" font-size="12.5" font-weight="bold" lengthAdjust="spacing" textLength="8.3333" x="377.0833" y="814.4999">9</text><text fill="#222222" font-family="Verdana" font-size="12.5" lengthAdjust="spacing" textLength="154.1667" x="410.4167" y="814.4999">payer + serviceProvider</text><polygon fill="#2196F3" points="1105.2083,880.4362,1115.625,884.6029,1105.2083,888.7695,1109.375,884.6029" style="stroke:#2196F3;stroke-width:1.0416666666666667;"/><line style="stroke:#2196F3;stroke-width:3.125;" x1="348.9583" x2="1111.4583" y1="884.6029" y2="884.6029"/><text fill="#222222" font-family="Verdana" font-size="12.5" font-weight="bold" lengthAdjust="spacing" textLength="16.6667" x="366.6667" y="869.1549">10</text><text fill="#222222" font-family="Verdana" font-size="12.5" lengthAdjust="spacing" textLength="105.2083" x="408.3333" y="869.1549">getRegistryData</text><path d="M41.6667,847.6563 L41.6667,884.1146 A4.1667,4.1667 0 0 0 45.8333,888.2813 L326.0417,888.2813 A4.1667,4.1667 0 0 0 330.2083,884.1146 L330.2083,853.9063 L319.7917,843.4896 L45.8333,843.4896 A4.1667,4.1667 0 0 0 41.6667,847.6563 " fill="url(#gwmydt09v3f2q2)" filter="url(#fwmydt09v3f2q)" style="stroke:#9C27B0;stroke-width:1.0416666666666667;"/><path d="M319.7917,843.4896 L319.7917,851.8229 A2.0833,2.0833 0 0 0 321.875,853.9063 L330.2083,853.9063 L319.7917,843.4896 " fill="url(#gwmydt09v3f2q2)" style="stroke:#9C27B0;stroke-width:1.0416666666666667;"/><text fill="#FFFFFF" font-family="Verdana" font-size="12.5" lengthAdjust="spacing" textLength="245.8333" x="58.3333" y="870.7174">Search key: payerId + serviceProvider</text><polygon fill="#2196F3" points="360.4167,935.0911,350,939.2578,360.4167,943.4245,356.25,939.2578" style="stroke:#2196F3;stroke-width:1.0416666666666667;"/><line style="stroke:#2196F3;stroke-width:3.125;stroke-dasharray:2.0,2.0;" x1="354.1667" x2="1121.875" y1="939.2578" y2="939.2578"/><text fill="#222222" font-family="Verdana" font-size="12.5" font-weight="bold" lengthAdjust="spacing" textLength="16.6667" x="377.0833" y="923.8098">11</text><text fill="#222222" font-family="Verdana" font-size="12.5" lengthAdjust="spacing" textLength="138.5417" x="418.75" y="923.8098">Service Provider data</text><line style="stroke:#2196F3;stroke-width:3.125;" x1="348.9583" x2="392.7083" y1="989.2253" y2="989.2253"/><line style="stroke:#2196F3;stroke-width:3.125;" x1="392.7083" x2="392.7083" y1="989.2253" y2="1002.7669"/><line style="stroke:#2196F3;stroke-width:3.125;" x1="350" x2="392.7083" y1="1002.7669" y2="1002.7669"/><polygon fill="#2196F3" points="360.4167,998.6003,350,1002.7669,360.4167,1006.9336,356.25,1002.7669" style="stroke:#2196F3;stroke-width:1.0416666666666667;"/><text fill="#222222" font-family="Verdana" font-size="12.5" font-weight="bold" lengthAdjust="spacing" textLength="16.6667" x="366.6667" y="973.7773">12</text><text fill="#222222" font-family="Verdana" font-size="12.5" lengthAdjust="spacing" textLength="229.1667" x="408.3333" y="973.7773">add activation data to EPC payload</text><polygon fill="#2196F3" points="1000,1048.5677,1010.4167,1052.7344,1000,1056.901,1004.1667,1052.7344" style="stroke:#2196F3;stroke-width:1.0416666666666667;"/><line style="stroke:#2196F3;stroke-width:3.125;" x1="348.9583" x2="1006.25" y1="1052.7344" y2="1052.7344"/><text fill="#222222" font-family="Verdana" font-size="12.5" font-weight="bold" lengthAdjust="spacing" textLength="16.6667" x="366.6667" y="1037.2864">13</text><text fill="#222222" font-family="Verdana" font-size="12.5" lengthAdjust="spacing" textLength="131.25" x="408.3333" y="1037.2864">save RTP (CREATED)</text><polygon fill="#2196F3" points="360.4167,1098.5352,350,1102.7018,360.4167,1106.8685,356.25,1102.7018" style="stroke:#2196F3;stroke-width:1.0416666666666667;"/><line style="stroke:#2196F3;stroke-width:3.125;stroke-dasharray:2.0,2.0;" x1="354.1667" x2="1016.6667" y1="1102.7018" y2="1102.7018"/><text fill="#222222" font-family="Verdana" font-size="12.5" font-weight="bold" lengthAdjust="spacing" textLength="16.6667" x="377.0833" y="1087.2538">14</text><text fill="#222222" font-family="Verdana" font-size="12.5" lengthAdjust="spacing" textLength="51.0417" x="418.75" y="1087.2538">created</text><path d="M239.0625,1118.3268 L322.3958,1118.3268 L322.3958,1145.3776 L311.9792,1155.7943 L234.8958,1155.7943 L234.8958,1122.4935 A4.1667,4.1667 0 0 1 239.0625,1118.3268 " fill="#FFFFFF" style="stroke:#666666;stroke-width:1.0416666666666667;"/><rect fill="none" height="157.1615" rx="4.1667" ry="4.1667" style="stroke:#2196F3;stroke-width:1.0416666666666667;" width="1115.625" x="234.8958" y="1118.3268"/><text fill="#9C27B0" font-family="Verdana" font-size="12.5" font-weight="bold" lengthAdjust="spacing" textLength="19.7917" x="260.9375" y="1141.3879">alt</text><text fill="#222222" font-family="Verdana" font-size="12.5" font-weight="bold" lengthAdjust="spacing" textLength="155.2083" x="348.4375" y="1142.4296">[flag oAuth2 == true]</text><polygon fill="#2196F3" points="1251.5625,1213.0208,1261.9792,1217.1875,1251.5625,1221.3542,1255.7292,1217.1875" style="stroke:#2196F3;stroke-width:1.0416666666666667;"/><line style="stroke:#2196F3;stroke-width:3.125;" x1="348.9583" x2="1257.8125" y1="1217.1875" y2="1217.1875"/><text fill="#222222" font-family="Verdana" font-size="12.5" font-weight="bold" lengthAdjust="spacing" textLength="16.6667" x="366.6667" y="1201.7395">15</text><text fill="#222222" font-family="Verdana" font-size="12.5" lengthAdjust="spacing" textLength="157.2917" x="408.3333" y="1201.7395">OAuth2 token exchange</text><polygon fill="#2196F3" points="360.4167,1262.9883,350,1267.1549,360.4167,1271.3216,356.25,1267.1549" style="stroke:#2196F3;stroke-width:1.0416666666666667;"/><line style="stroke:#2196F3;stroke-width:3.125;stroke-dasharray:2.0,2.0;" x1="354.1667" x2="1268.2292" y1="1267.1549" y2="1267.1549"/><text fill="#222222" font-family="Verdana" font-size="12.5" font-weight="bold" lengthAdjust="spacing" textLength="16.6667" x="377.0833" y="1251.7069">16</text><text fill="#222222" font-family="Verdana" font-size="12.5" lengthAdjust="spacing" textLength="176.0417" x="418.75" y="1251.7069">200 received access token</text><polygon fill="#2196F3" points="1406.7708,1320.2474,1417.1875,1324.4141,1406.7708,1328.5807,1410.9375,1324.4141" style="stroke:#2196F3;stroke-width:1.0416666666666667;"/><line style="stroke:#2196F3;stroke-width:3.125;" x1="348.9583" x2="1413.0208" y1="1324.4141" y2="1324.4141"/><text fill="#222222" font-family="Verdana" font-size="12.5" font-weight="bold" lengthAdjust="spacing" textLength="16.6667" x="366.6667" y="1308.9661">17</text><text fill="#222222" font-family="Verdana" font-size="12.5" lengthAdjust="spacing" textLength="173.9583" x="408.3333" y="1308.9661">POST /sepa-request-to-pay</text><polygon fill="#2196F3" points="360.4167,1370.2148,350,1374.3815,360.4167,1378.5482,356.25,1374.3815" style="stroke:#2196F3;stroke-width:1.0416666666666667;"/><line style="stroke:#2196F3;stroke-width:3.125;stroke-dasharray:2.0,2.0;" x1="354.1667" x2="1423.4375" y1="1374.3815" y2="1374.3815"/><text fill="#222222" font-family="Verdana" font-size="12.5" font-weight="bold" lengthAdjust="spacing" textLength="16.6667" x="377.0833" y="1358.9335">18</text><text fill="#222222" font-family="Verdana" font-size="12.5" lengthAdjust="spacing" textLength="90.625" x="418.75" y="1358.9335">202 accepted</text><polygon fill="#2196F3" points="1000,1420.1823,1010.4167,1424.349,1000,1428.5156,1004.1667,1424.349" style="stroke:#2196F3;stroke-width:1.0416666666666667;"/><line style="stroke:#2196F3;stroke-width:3.125;" x1="348.9583" x2="1006.25" y1="1424.349" y2="1424.349"/><text fill="#222222" font-family="Verdana" font-size="12.5" font-weight="bold" lengthAdjust="spacing" textLength="16.6667" x="366.6667" y="1408.901">19</text><text fill="#222222" font-family="Verdana" font-size="12.5" lengthAdjust="spacing" textLength="106.25" x="408.3333" y="1408.901">save RTP (SENT)</text><polygon fill="#2196F3" points="360.4167,1470.1497,350,1474.3164,360.4167,1478.4831,356.25,1474.3164" style="stroke:#2196F3;stroke-width:1.0416666666666667;"/><line style="stroke:#2196F3;stroke-width:3.125;stroke-dasharray:2.0,2.0;" x1="354.1667" x2="1016.6667" y1="1474.3164" y2="1474.3164"/><text fill="#222222" font-family="Verdana" font-size="12.5" font-weight="bold" lengthAdjust="spacing" textLength="16.6667" x="377.0833" y="1458.8684">20</text><text fill="#222222" font-family="Verdana" font-size="12.5" lengthAdjust="spacing" textLength="55.2083" x="418.75" y="1458.8684">updated</text><line style="stroke:#2196F3;stroke-width:1.0416666666666667;stroke-dasharray:2.0,2.0;" x1="31.25" x2="1508.8542" y1="1483.6914" y2="1483.6914"/><text fill="#222222" font-family="Verdana" font-size="12.5" font-weight="bold" lengthAdjust="spacing" textLength="155.2083" x="46.875" y="1505.7109">[payer not activated]</text><polygon fill="#2196F3" points="360.4167,1557.5846,350,1561.7513,360.4167,1565.918,356.25,1561.7513" style="stroke:#2196F3;stroke-width:1.0416666666666667;"/><line style="stroke:#2196F3;stroke-width:3.125;stroke-dasharray:2.0,2.0;" x1="354.1667" x2="869.7917" y1="1561.7513" y2="1561.7513"/><text fill="#222222" font-family="Verdana" font-size="12.5" font-weight="bold" lengthAdjust="spacing" textLength="16.6667" x="377.0833" y="1546.3033">21</text><text fill="#222222" font-family="Verdana" font-size="12.5" lengthAdjust="spacing" textLength="63.5417" x="418.75" y="1546.3033">not found</text><!--SRC=[bLN1Rjim3BtxAxXUsc986-GOO0FIE0k2jOjXUxsi5zLY4g6Ev4boklpzADcExIHjjrpiKEJZuoD5NqAKCsb_Fjn3ADXQiosib8OuZI11oM4IBO9BI8NDSGmXMYPovErnWhzBb1asmUJxYDe89SSmkXdU3CaGeicqAAmtfXjXWDUPp4Qz6h0R1DuW2sbHIvP3eLM6ndWsXb89kIQitez9JuIjA0JcOGIgGCrS7jYnN73_UXC4doZ35c7Bo4-m8B2k6XywrKX6-9Qhro0ecBOY4mN90HSFoI2P_GXdyGKm0zLhG8ZicHc4YnYvC4_oQi5nMoXB4kpXE-uXiKhZjO-9P-4YEG6TJDF5uoHTLhZp7cOQ9LKsUklO4zGxGHB7k1R6wZsblRjVtbtNllqKqxk5jzEpVn0caJ-WPn2mqYfPRfzH1y4lDVXQ5pZsAaxZsIIT0UvGMdBDhDWvaMeDWke95EGh74EsmUm5EaeCI8ashj8XOBazzW6Ma_vyJxr6uvAvfdft67GulP3dIfMI-tEEHyZEs79gWgWz6TCSU5da8YDl3biQ9xP67o291MYntjWnF5Js3Xi_USYV9CrUOnMoEN2J661EhJckXr3_eHRdrTPp8gTXknFaTz2S-nlA7E7FNNzdATpMRdGvp6t1zZG4_ZOrmJIKbO4wveyFHrKUzvl7FIALssUwg7vK8wrsWjUuHzGQzAEs4SWQRJFY8Gt_mQkTmFXWy_tBSKNjIv3fREEqg7ai-3jCaZxnvcurVi2xcJkqa_EqQnZ6ERIgUX2m2cRHr57A5UFdYqwZkjzk6LrL5o-yFbSvROIs17Bk5f7vBSRFqwR05eywkihP6jIaj9iHVFa2LfSOT9TgIuzMo1YMbQTLBoW1_sGR9jVzW4CkjtAw1_I_HtCq78B630KDB4NvxUvnUr4Tybr0-WASav2ssHYYPK9JRR1W0-s-HyOEh1gGyAT2kktN6EdzYD_8qohUqD9lpe-xI2VfVxUmBFZ7BVGxfxfgReTyU2lxY-Rq7ZQwUcsx6QjD_nS0]--></g></svg>