<?xml version="1.0" encoding="us-ascii" standalone="no"?><svg xmlns="http://www.w3.org/2000/svg" xmlns:xlink="http://www.w3.org/1999/xlink" contentStyleType="text/css" height="1143px" preserveAspectRatio="none" style="width:1292px;height:1143px;background:#FFFFFF;" version="1.1" viewBox="0 0 1292 1143" width="1292px" zoomAndPan="magnify"><defs><filter height="300%" id="fnv543r2yi9ca" width="300%" x="-1" y="-1"><feGaussianBlur result="blurOut" stdDeviation="2.0"/><feColorMatrix in="blurOut" result="blurOut2" type="matrix" values="0 0 0 0 0 0 0 0 0 0 0 0 0 0 0 0 0 0 .4 0"/><feOffset dx="4.0" dy="4.0" in="blurOut2" result="blurOut3"/><feBlend in="SourceGraphic" in2="blurOut3" mode="normal"/></filter></defs><g><rect fill="#FFFFFF" filter="url(#fnv543r2yi9ca)" height="951.3281" style="stroke:#A80036;stroke-width:1.0;" width="10" x="319.5" y="103.4297"/><rect fill="#FFFFFF" filter="url(#fnv543r2yi9ca)" height="850.9297" style="stroke:#A80036;stroke-width:1.0;" width="10" x="557.5" y="203.8281"/><rect fill="#FFFFFF" filter="url(#fnv543r2yi9ca)" height="96.3984" style="stroke:#A80036;stroke-width:1.0;" width="10" x="804.5" y="232.9609"/><rect fill="#FFFFFF" filter="url(#fnv543r2yi9ca)" height="87.2656" style="stroke:#A80036;stroke-width:1.0;" width="10" x="804.5" y="363.4922"/><rect fill="#FFFFFF" filter="url(#fnv543r2yi9ca)" height="14" style="stroke:#A80036;stroke-width:1.0;" width="10" x="919.5" y="262.0938"/><rect fill="#FFFFFF" filter="url(#fnv543r2yi9ca)" height="29.1328" style="stroke:#A80036;stroke-width:1.0;" width="10" x="973" y="546.1563"/><rect fill="#FFFFFF" filter="url(#fnv543r2yi9ca)" height="29.1328" style="stroke:#A80036;stroke-width:1.0;" width="10" x="973" y="701.8203"/><rect fill="#FFFFFF" filter="url(#fnv543r2yi9ca)" height="29.1328" style="stroke:#A80036;stroke-width:1.0;" width="10" x="973" y="833.1563"/><rect fill="#FFFFFF" filter="url(#fnv543r2yi9ca)" height="34.1328" style="stroke:#A80036;stroke-width:1.0;" width="10" x="1062.5" y="382.4922"/><rect fill="#FFFFFF" filter="url(#fnv543r2yi9ca)" height="68.2656" style="stroke:#A80036;stroke-width:1.0;" width="10" x="1151" y="604.4219"/><rect fill="none" filter="url(#fnv543r2yi9ca)" height="756.6641" style="stroke:#000000;stroke-width:2.0;" width="1220.5" x="58" y="291.0938"/><rect fill="none" filter="url(#fnv543r2yi9ca)" height="472.7969" style="stroke:#000000;stroke-width:2.0;" width="1118.5" x="68" y="465.7578"/><line style="stroke:#A80036;stroke-width:1.0;stroke-dasharray:5.0,5.0;" x1="157" x2="157" y1="67.2969" y2="1064.7578"/><line style="stroke:#A80036;stroke-width:1.0;stroke-dasharray:5.0,5.0;" x1="324" x2="324" y1="67.2969" y2="1064.7578"/><line style="stroke:#A80036;stroke-width:1.0;stroke-dasharray:5.0,5.0;" x1="562" x2="562" y1="67.2969" y2="1064.7578"/><line style="stroke:#A80036;stroke-width:1.0;stroke-dasharray:5.0,5.0;" x1="809.5" x2="809.5" y1="67.2969" y2="1064.7578"/><line style="stroke:#A80036;stroke-width:1.0;stroke-dasharray:5.0,5.0;" x1="924.5" x2="924.5" y1="67.2969" y2="1064.7578"/><line style="stroke:#A80036;stroke-width:1.0;stroke-dasharray:5.0,5.0;" x1="977.5" x2="977.5" y1="67.2969" y2="1064.7578"/><line style="stroke:#A80036;stroke-width:1.0;stroke-dasharray:5.0,5.0;" x1="1067.5" x2="1067.5" y1="67.2969" y2="1064.7578"/><line style="stroke:#A80036;stroke-width:1.0;stroke-dasharray:5.0,5.0;" x1="1155.5" x2="1155.5" y1="67.2969" y2="1064.7578"/><path d="M83,41 L231,41 C236,41 236,54.1484 236,54.1484 C236,54.1484 236,67.2969 231,67.2969 L83,67.2969 C78,67.2969 78,54.1484 78,54.1484 C78,54.1484 78,41 83,41 " fill="#FEFECE" filter="url(#fnv543r2yi9ca)" style="stroke:#A80036;stroke-width:2.0;"/><path d="M231,41 C226,41 226,54.1484 226,54.1484 C226,67.2969 231,67.2969 231,67.2969 " fill="none" style="stroke:#A80036;stroke-width:2.0;"/><text fill="#000000" font-family="sans-serif" font-size="14" lengthAdjust="spacing" textLength="138" x="83" y="58.9951">PagoPa GDP Queue</text><path d="M83,1063.7578 L231,1063.7578 C236,1063.7578 236,1076.9063 236,1076.9063 C236,1076.9063 236,1090.0547 231,1090.0547 L83,1090.0547 C78,1090.0547 78,1076.9063 78,1076.9063 C78,1076.9063 78,1063.7578 83,1063.7578 " fill="#FEFECE" filter="url(#fnv543r2yi9ca)" style="stroke:#A80036;stroke-width:2.0;"/><path d="M231,1063.7578 C226,1063.7578 226,1076.9063 226,1076.9063 C226,1090.0547 231,1090.0547 231,1090.0547 " fill="none" style="stroke:#A80036;stroke-width:2.0;"/><text fill="#000000" font-family="sans-serif" font-size="14" lengthAdjust="spacing" textLength="138" x="83" y="1081.7529">PagoPa GDP Queue</text><rect fill="#FEFECE" filter="url(#fnv543r2yi9ca)" height="30.2969" style="stroke:#A80036;stroke-width:1.5;" width="153" x="246" y="32"/><text fill="#000000" font-family="sans-serif" font-size="14" lengthAdjust="spacing" textLength="139" x="253" y="51.9951">Message Consumer</text><rect fill="#FEFECE" filter="url(#fnv543r2yi9ca)" height="30.2969" style="stroke:#A80036;stroke-width:1.5;" width="153" x="246" y="1063.7578"/><text fill="#000000" font-family="sans-serif" font-size="14" lengthAdjust="spacing" textLength="139" x="253" y="1083.7529">Message Consumer</text><rect fill="#FEFECE" filter="url(#fnv543r2yi9ca)" height="30.2969" style="stroke:#A80036;stroke-width:1.5;" width="165" x="478" y="32"/><text fill="#000000" font-family="sans-serif" font-size="14" lengthAdjust="spacing" textLength="151" x="485" y="51.9951">Pagopa - SP Creditore</text><rect fill="#FEFECE" filter="url(#fnv543r2yi9ca)" height="30.2969" style="stroke:#A80036;stroke-width:1.5;" width="165" x="478" y="1063.7578"/><text fill="#000000" font-family="sans-serif" font-size="14" lengthAdjust="spacing" textLength="151" x="485" y="1083.7529">Pagopa - SP Creditore</text><rect fill="#FEFECE" filter="url(#fnv543r2yi9ca)" height="30.2969" style="stroke:#A80036;stroke-width:1.5;" width="148" x="733.5" y="32"/><text fill="#000000" font-family="sans-serif" font-size="14" lengthAdjust="spacing" textLength="134" x="740.5" y="51.9951">Gestore Repository</text><rect fill="#FEFECE" filter="url(#fnv543r2yi9ca)" height="30.2969" style="stroke:#A80036;stroke-width:1.5;" width="148" x="733.5" y="1063.7578"/><text fill="#000000" font-family="sans-serif" font-size="14" lengthAdjust="spacing" textLength="134" x="740.5" y="1083.7529">Gestore Repository</text><text fill="#000000" font-family="sans-serif" font-size="14" lengthAdjust="spacing" textLength="38" x="902.5" y="63.9951">Payer</text><path d="M906.5,15 C906.5,5 924.5,5 924.5,5 C924.5,5 942.5,5 942.5,15 L942.5,41 C942.5,51 924.5,51 924.5,51 C924.5,51 906.5,51 906.5,41 L906.5,15 " fill="#FEFECE" filter="url(#fnv543r2yi9ca)" style="stroke:#A80036;stroke-width:1.5;"/><path d="M906.5,15 C906.5,25 924.5,25 924.5,25 C924.5,25 942.5,25 942.5,15 " fill="none" style="stroke:#A80036;stroke-width:1.5;"/><text fill="#000000" font-family="sans-serif" font-size="14" lengthAdjust="spacing" textLength="38" x="902.5" y="1076.7529">Payer</text><path d="M906.5,1090.0547 C906.5,1080.0547 924.5,1080.0547 924.5,1080.0547 C924.5,1080.0547 942.5,1080.0547 942.5,1090.0547 L942.5,1116.0547 C942.5,1126.0547 924.5,1126.0547 924.5,1126.0547 C924.5,1126.0547 906.5,1126.0547 906.5,1116.0547 L906.5,1090.0547 " fill="#FEFECE" filter="url(#fnv543r2yi9ca)" style="stroke:#A80036;stroke-width:1.5;"/><path d="M906.5,1090.0547 C906.5,1100.0547 924.5,1100.0547 924.5,1100.0547 C924.5,1100.0547 942.5,1100.0547 942.5,1090.0547 " fill="none" style="stroke:#A80036;stroke-width:1.5;"/><text fill="#000000" font-family="sans-serif" font-size="14" lengthAdjust="spacing" textLength="37" x="956.5" y="63.9951">SRTP</text><path d="M960,15 C960,5 978,5 978,5 C978,5 996,5 996,15 L996,41 C996,51 978,51 978,51 C978,51 960,51 960,41 L960,15 " fill="#FEFECE" filter="url(#fnv543r2yi9ca)" style="stroke:#A80036;stroke-width:1.5;"/><path d="M960,15 C960,25 978,25 978,25 C978,25 996,25 996,15 " fill="none" style="stroke:#A80036;stroke-width:1.5;"/><text fill="#000000" font-family="sans-serif" font-size="14" lengthAdjust="spacing" textLength="37" x="956.5" y="1076.7529">SRTP</text><path d="M960,1090.0547 C960,1080.0547 978,1080.0547 978,1080.0547 C978,1080.0547 996,1080.0547 996,1090.0547 L996,1116.0547 C996,1126.0547 978,1126.0547 978,1126.0547 C978,1126.0547 960,1126.0547 960,1116.0547 L960,1090.0547 " fill="#FEFECE" filter="url(#fnv543r2yi9ca)" style="stroke:#A80036;stroke-width:1.5;"/><path d="M960,1090.0547 C960,1100.0547 978,1100.0547 978,1100.0547 C978,1100.0547 996,1100.0547 996,1090.0547 " fill="none" style="stroke:#A80036;stroke-width:1.5;"/><text fill="#000000" font-family="sans-serif" font-size="14" lengthAdjust="spacing" textLength="110" x="1009.5" y="63.9951">Service Registry</text><path d="M1049.5,15 C1049.5,5 1067.5,5 1067.5,5 C1067.5,5 1085.5,5 1085.5,15 L1085.5,41 C1085.5,51 1067.5,51 1067.5,51 C1067.5,51 1049.5,51 1049.5,41 L1049.5,15 " fill="#FEFECE" filter="url(#fnv543r2yi9ca)" style="stroke:#A80036;stroke-width:1.5;"/><path d="M1049.5,15 C1049.5,25 1067.5,25 1067.5,25 C1067.5,25 1085.5,25 1085.5,15 " fill="none" style="stroke:#A80036;stroke-width:1.5;"/><text fill="#000000" font-family="sans-serif" font-size="14" lengthAdjust="spacing" textLength="110" x="1009.5" y="1076.7529">Service Registry</text><path d="M1049.5,1090.0547 C1049.5,1080.0547 1067.5,1080.0547 1067.5,1080.0547 C1067.5,1080.0547 1085.5,1080.0547 1085.5,1090.0547 L1085.5,1116.0547 C1085.5,1126.0547 1067.5,1126.0547 1067.5,1126.0547 C1067.5,1126.0547 1049.5,1126.0547 1049.5,1116.0547 L1049.5,1090.0547 " fill="#FEFECE" filter="url(#fnv543r2yi9ca)" style="stroke:#A80036;stroke-width:1.5;"/><path d="M1049.5,1090.0547 C1049.5,1100.0547 1067.5,1100.0547 1067.5,1100.0547 C1067.5,1100.0547 1085.5,1100.0547 1085.5,1090.0547 " fill="none" style="stroke:#A80036;stroke-width:1.5;"/><rect fill="#FEFECE" filter="url(#fnv543r2yi9ca)" height="30.2969" style="stroke:#A80036;stroke-width:1.5;" width="37" x="1135.5" y="32"/><text fill="#000000" font-family="sans-serif" font-size="14" lengthAdjust="spacing" textLength="23" x="1142.5" y="51.9951">CBI</text><rect fill="#FEFECE" filter="url(#fnv543r2yi9ca)" height="30.2969" style="stroke:#A80036;stroke-width:1.5;" width="37" x="1135.5" y="1063.7578"/><text fill="#000000" font-family="sans-serif" font-size="14" lengthAdjust="spacing" textLength="23" x="1142.5" y="1083.7529">CBI</text><rect fill="#FFFFFF" filter="url(#fnv543r2yi9ca)" height="951.3281" style="stroke:#A80036;stroke-width:1.0;" width="10" x="319.5" y="103.4297"/><rect fill="#FFFFFF" filter="url(#fnv543r2yi9ca)" height="850.9297" style="stroke:#A80036;stroke-width:1.0;" width="10" x="557.5" y="203.8281"/><rect fill="#FFFFFF" filter="url(#fnv543r2yi9ca)" height="96.3984" style="stroke:#A80036;stroke-width:1.0;" width="10" x="804.5" y="232.9609"/><rect fill="#FFFFFF" filter="url(#fnv543r2yi9ca)" height="87.2656" style="stroke:#A80036;stroke-width:1.0;" width="10" x="804.5" y="363.4922"/><rect fill="#FFFFFF" filter="url(#fnv543r2yi9ca)" height="14" style="stroke:#A80036;stroke-width:1.0;" width="10" x="919.5" y="262.0938"/><rect fill="#FFFFFF" filter="url(#fnv543r2yi9ca)" height="29.1328" style="stroke:#A80036;stroke-width:1.0;" width="10" x="973" y="546.1563"/><rect fill="#FFFFFF" filter="url(#fnv543r2yi9ca)" height="29.1328" style="stroke:#A80036;stroke-width:1.0;" width="10" x="973" y="701.8203"/><rect fill="#FFFFFF" filter="url(#fnv543r2yi9ca)" height="29.1328" style="stroke:#A80036;stroke-width:1.0;" width="10" x="973" y="833.1563"/><rect fill="#FFFFFF" filter="url(#fnv543r2yi9ca)" height="34.1328" style="stroke:#A80036;stroke-width:1.0;" width="10" x="1062.5" y="382.4922"/><rect fill="#FFFFFF" filter="url(#fnv543r2yi9ca)" height="68.2656" style="stroke:#A80036;stroke-width:1.0;" width="10" x="1151" y="604.4219"/><polygon fill="#A80036" points="307.5,99.4297,317.5,103.4297,307.5,107.4297,311.5,103.4297" style="stroke:#A80036;stroke-width:1.0;"/><line style="stroke:#A80036;stroke-width:1.0;" x1="157" x2="313.5" y1="103.4297" y2="103.4297"/><text fill="#000000" font-family="sans-serif" font-size="13" lengthAdjust="spacing" textLength="103" x="164" y="98.3638">Queue Message</text><path d="M5,82.2969 L5,107.2969 L148,107.2969 L148,92.2969 L138,82.2969 L5,82.2969 " fill="#FBFB77" filter="url(#fnv543r2yi9ca)" style="stroke:#A80036;stroke-width:1.0;"/><path d="M138,82.2969 L138,92.2969 L148,92.2969 L138,82.2969 " fill="#FBFB77" style="stroke:#A80036;stroke-width:1.0;"/><text fill="#000000" font-family="sans-serif" font-size="13" lengthAdjust="spacing" textLength="122" x="11" y="99.3638">RTP data from GDP</text><line style="stroke:#A80036;stroke-width:1.0;" x1="329.5" x2="371.5" y1="137.5625" y2="137.5625"/><line style="stroke:#A80036;stroke-width:1.0;" x1="371.5" x2="371.5" y1="137.5625" y2="150.5625"/><line style="stroke:#A80036;stroke-width:1.0;" x1="330.5" x2="371.5" y1="150.5625" y2="150.5625"/><polygon fill="#A80036" points="340.5,146.5625,330.5,150.5625,340.5,154.5625,336.5,150.5625" style="stroke:#A80036;stroke-width:1.0;"/><text fill="#000000" font-family="sans-serif" font-size="13" lengthAdjust="spacing" textLength="167" x="336.5" y="132.4966">Check message operation</text><path d="M515,122.9297 L515,147.9297 L685,147.9297 L685,132.9297 L675,122.9297 L515,122.9297 " fill="#FBFB77" filter="url(#fnv543r2yi9ca)" style="stroke:#A80036;stroke-width:1.0;"/><path d="M675,122.9297 L675,132.9297 L685,132.9297 L675,122.9297 " fill="#FBFB77" style="stroke:#A80036;stroke-width:1.0;"/><text fill="#000000" font-family="sans-serif" font-size="13" lengthAdjust="spacing" textLength="149" x="521" y="139.9966">Validate operation type</text><polygon fill="#A80036" points="545.5,199.8281,555.5,203.8281,545.5,207.8281,549.5,203.8281" style="stroke:#A80036;stroke-width:1.0;"/><line style="stroke:#A80036;stroke-width:1.0;" x1="329.5" x2="551.5" y1="203.8281" y2="203.8281"/><text fill="#000000" font-family="sans-serif" font-size="13" lengthAdjust="spacing" textLength="191" x="336.5" y="198.7622">Process CREATE RTP Message</text><polygon fill="#A80036" points="792.5,228.9609,802.5,232.9609,792.5,236.9609,796.5,232.9609" style="stroke:#A80036;stroke-width:1.0;"/><line style="stroke:#A80036;stroke-width:1.0;" x1="567.5" x2="798.5" y1="232.9609" y2="232.9609"/><text fill="#000000" font-family="sans-serif" font-size="13" lengthAdjust="spacing" textLength="142" x="574.5" y="227.895">GET /activations/payer</text><polygon fill="#A80036" points="907.5,258.0938,917.5,262.0938,907.5,266.0938,911.5,262.0938" style="stroke:#A80036;stroke-width:1.0;"/><line style="stroke:#A80036;stroke-width:1.0;" x1="814.5" x2="913.5" y1="262.0938" y2="262.0938"/><text fill="#000000" font-family="sans-serif" font-size="13" lengthAdjust="spacing" textLength="86" x="821.5" y="257.0278">findByPayerId</text><polygon fill="#A80036" points="825.5,272.0938,815.5,276.0938,825.5,280.0938,821.5,276.0938" style="stroke:#A80036;stroke-width:1.0;"/><line style="stroke:#A80036;stroke-width:1.0;stroke-dasharray:2.0,2.0;" x1="819.5" x2="923.5" y1="276.0938" y2="276.0938"/><path d="M58,291.0938 L122,291.0938 L122,298.2266 L112,308.2266 L58,308.2266 L58,291.0938 " fill="#EEEEEE" style="stroke:#000000;stroke-width:1.0;"/><rect fill="none" height="756.6641" style="stroke:#000000;stroke-width:2.0;" width="1220.5" x="58" y="291.0938"/><text fill="#000000" font-family="sans-serif" font-size="13" font-weight="bold" lengthAdjust="spacing" textLength="19" x="73" y="304.1606">alt</text><text fill="#000000" font-family="sans-serif" font-size="11" font-weight="bold" lengthAdjust="spacing" textLength="102" x="137" y="303.3042">[user activated]</text><polygon fill="#A80036" points="578.5,325.3594,568.5,329.3594,578.5,333.3594,574.5,329.3594" style="stroke:#A80036;stroke-width:1.0;"/><line style="stroke:#A80036;stroke-width:1.0;stroke-dasharray:2.0,2.0;" x1="572.5" x2="808.5" y1="329.3594" y2="329.3594"/><text fill="#000000" font-family="sans-serif" font-size="13" lengthAdjust="spacing" textLength="190" x="584.5" y="324.2935">payer and its Service Provider</text><polygon fill="#A80036" points="792.5,359.4922,802.5,363.4922,792.5,367.4922,796.5,363.4922" style="stroke:#A80036;stroke-width:1.0;"/><line style="stroke:#A80036;stroke-width:1.0;" x1="567.5" x2="798.5" y1="363.4922" y2="363.4922"/><text fill="#000000" font-family="sans-serif" font-size="13" lengthAdjust="spacing" textLength="103" x="574.5" y="358.4263">getRegistryData</text><path d="M374,342.3594 L374,367.3594 L548,367.3594 L548,352.3594 L538,342.3594 L374,342.3594 " fill="#FBFB77" filter="url(#fnv543r2yi9ca)" style="stroke:#A80036;stroke-width:1.0;"/><path d="M538,342.3594 L538,352.3594 L548,352.3594 L538,342.3594 " fill="#FBFB77" style="stroke:#A80036;stroke-width:1.0;"/><text fill="#000000" font-family="sans-serif" font-size="13" lengthAdjust="spacing" textLength="153" x="380" y="359.4263">Search key: ID Payer SP</text><polygon fill="#A80036" points="1050.5,378.4922,1060.5,382.4922,1050.5,386.4922,1054.5,382.4922" style="stroke:#A80036;stroke-width:1.0;"/><line style="stroke:#A80036;stroke-width:1.0;" x1="814.5" x2="1056.5" y1="382.4922" y2="382.4922"/><polygon fill="#A80036" points="825.5,412.625,815.5,416.625,825.5,420.625,821.5,416.625" style="stroke:#A80036;stroke-width:1.0;"/><line style="stroke:#A80036;stroke-width:1.0;stroke-dasharray:2.0,2.0;" x1="819.5" x2="1066.5" y1="416.625" y2="416.625"/><text fill="#000000" font-family="sans-serif" font-size="13" lengthAdjust="spacing" textLength="136" x="831.5" y="411.5591">Service Provider data</text><path d="M1077,395.4922 L1077,420.4922 L1259,420.4922 L1259,405.4922 L1249,395.4922 L1077,395.4922 " fill="#FBFB77" filter="url(#fnv543r2yi9ca)" style="stroke:#A80036;stroke-width:1.0;"/><path d="M1249,395.4922 L1249,405.4922 L1259,405.4922 L1249,395.4922 " fill="#FBFB77" style="stroke:#A80036;stroke-width:1.0;"/><text fill="#000000" font-family="sans-serif" font-size="13" lengthAdjust="spacing" textLength="161" x="1083" y="412.5591">service_endpoint, oauth2</text><polygon fill="#A80036" points="578.5,446.7578,568.5,450.7578,578.5,454.7578,574.5,450.7578" style="stroke:#A80036;stroke-width:1.0;"/><line style="stroke:#A80036;stroke-width:1.0;stroke-dasharray:2.0,2.0;" x1="572.5" x2="808.5" y1="450.7578" y2="450.7578"/><text fill="#000000" font-family="sans-serif" font-size="13" lengthAdjust="spacing" textLength="136" x="584.5" y="445.6919">Service Provider data</text><path d="M68,465.7578 L132,465.7578 L132,472.8906 L122,482.8906 L68,482.8906 L68,465.7578 " fill="#EEEEEE" style="stroke:#000000;stroke-width:1.0;"/><rect fill="none" height="472.7969" style="stroke:#000000;stroke-width:2.0;" width="1118.5" x="68" y="465.7578"/><text fill="#000000" font-family="sans-serif" font-size="13" font-weight="bold" lengthAdjust="spacing" textLength="19" x="83" y="478.8247">alt</text><text fill="#000000" font-family="sans-serif" font-size="11" font-weight="bold" lengthAdjust="spacing" textLength="155" x="147" y="477.9683">[Service Provider is CBI]</text><line style="stroke:#A80036;stroke-width:1.0;" x1="567.5" x2="609.5" y1="504.0234" y2="504.0234"/><line style="stroke:#A80036;stroke-width:1.0;" x1="609.5" x2="609.5" y1="504.0234" y2="517.0234"/><line style="stroke:#A80036;stroke-width:1.0;" x1="568.5" x2="609.5" y1="517.0234" y2="517.0234"/><polygon fill="#A80036" points="578.5,513.0234,568.5,517.0234,578.5,521.0234,574.5,517.0234" style="stroke:#A80036;stroke-width:1.0;"/><text fill="#000000" font-family="sans-serif" font-size="13" lengthAdjust="spacing" textLength="223" x="574.5" y="498.9575">add activation data to EPC payload</text><polygon fill="#A80036" points="961,542.1563,971,546.1563,961,550.1563,965,546.1563" style="stroke:#A80036;stroke-width:1.0;"/><line style="stroke:#A80036;stroke-width:1.0;" x1="567.5" x2="967" y1="546.1563" y2="546.1563"/><text fill="#000000" font-family="sans-serif" font-size="13" lengthAdjust="spacing" textLength="179" x="574.5" y="541.0903">save RTP in status CREATED</text><polygon fill="#A80036" points="578.5,571.2891,568.5,575.2891,578.5,579.2891,574.5,575.2891" style="stroke:#A80036;stroke-width:1.0;"/><line style="stroke:#A80036;stroke-width:1.0;stroke-dasharray:2.0,2.0;" x1="572.5" x2="977" y1="575.2891" y2="575.2891"/><text fill="#000000" font-family="sans-serif" font-size="13" lengthAdjust="spacing" textLength="49" x="584.5" y="570.2231">created</text><polygon fill="#A80036" points="578.5,600.4219,568.5,604.4219,578.5,608.4219,574.5,604.4219" style="stroke:#A80036;stroke-width:1.0;"/><polygon fill="#A80036" points="1139,600.4219,1149,604.4219,1139,608.4219,1143,604.4219" style="stroke:#A80036;stroke-width:1.0;"/><line style="stroke:#A80036;stroke-width:1.0;" x1="572.5" x2="1145" y1="604.4219" y2="604.4219"/><text fill="#000000" font-family="sans-serif" font-size="13" lengthAdjust="spacing" textLength="46" x="584.5" y="599.356">oAuth2</text><polygon fill="#A80036" points="1139,634.5547,1149,638.5547,1139,642.5547,1143,638.5547" style="stroke:#A80036;stroke-width:1.0;"/><line style="stroke:#A80036;stroke-width:1.0;" x1="567.5" x2="1145" y1="638.5547" y2="638.5547"/><text fill="#000000" font-family="sans-serif" font-size="13" lengthAdjust="spacing" textLength="173" x="574.5" y="633.4888">POST /sepa-request-to-pay</text><path d="M481,617.4219 L481,642.4219 L548,642.4219 L548,627.4219 L538,617.4219 L481,617.4219 " fill="#FBFB77" filter="url(#fnv543r2yi9ca)" style="stroke:#A80036;stroke-width:1.0;"/><path d="M538,617.4219 L538,627.4219 L548,627.4219 L538,617.4219 " fill="#FBFB77" style="stroke:#A80036;stroke-width:1.0;"/><text fill="#000000" font-family="sans-serif" font-size="13" lengthAdjust="spacing" textLength="46" x="487" y="634.4888">oAuth2</text><polygon fill="#A80036" points="578.5,668.6875,568.5,672.6875,578.5,676.6875,574.5,672.6875" style="stroke:#A80036;stroke-width:1.0;"/><line style="stroke:#A80036;stroke-width:1.0;stroke-dasharray:2.0,2.0;" x1="572.5" x2="1155" y1="672.6875" y2="672.6875"/><text fill="#000000" font-family="sans-serif" font-size="13" lengthAdjust="spacing" textLength="87" x="584.5" y="667.6216">202 accepted</text><polygon fill="#A80036" points="961,697.8203,971,701.8203,961,705.8203,965,701.8203" style="stroke:#A80036;stroke-width:1.0;"/><line style="stroke:#A80036;stroke-width:1.0;" x1="567.5" x2="967" y1="701.8203" y2="701.8203"/><text fill="#000000" font-family="sans-serif" font-size="13" lengthAdjust="spacing" textLength="154" x="574.5" y="696.7544">save RTP in status SENT</text><polygon fill="#A80036" points="578.5,726.9531,568.5,730.9531,578.5,734.9531,574.5,730.9531" style="stroke:#A80036;stroke-width:1.0;"/><line style="stroke:#A80036;stroke-width:1.0;stroke-dasharray:2.0,2.0;" x1="572.5" x2="977" y1="730.9531" y2="730.9531"/><text fill="#000000" font-family="sans-serif" font-size="13" lengthAdjust="spacing" textLength="53" x="584.5" y="725.8872">updated</text><polygon fill="#A80036" points="340.5,756.0859,330.5,760.0859,340.5,764.0859,336.5,760.0859" style="stroke:#A80036;stroke-width:1.0;"/><line style="stroke:#A80036;stroke-width:1.0;stroke-dasharray:2.0,2.0;" x1="334.5" x2="556.5" y1="760.0859" y2="760.0859"/><text fill="#000000" font-family="sans-serif" font-size="13" lengthAdjust="spacing" textLength="141" x="346.5" y="755.02">Processing completed</text><polygon fill="#A80036" points="168,785.2188,158,789.2188,168,793.2188,164,789.2188" style="stroke:#A80036;stroke-width:1.0;"/><line style="stroke:#A80036;stroke-width:1.0;" x1="162" x2="318.5" y1="789.2188" y2="789.2188"/><text fill="#000000" font-family="sans-serif" font-size="13" lengthAdjust="spacing" textLength="89" x="174" y="784.1528">ACK message</text><line style="stroke:#000000;stroke-width:1.0;stroke-dasharray:2.0,2.0;" x1="68" x2="1186.5" y1="798.2188" y2="798.2188"/><text fill="#000000" font-family="sans-serif" font-size="11" font-weight="bold" lengthAdjust="spacing" textLength="180" x="73" y="808.4292">[Service Provider is not CBI]</text><polygon fill="#A80036" points="961,829.1563,971,833.1563,961,837.1563,965,833.1563" style="stroke:#A80036;stroke-width:1.0;"/><line style="stroke:#A80036;stroke-width:1.0;" x1="567.5" x2="967" y1="833.1563" y2="833.1563"/><text fill="#000000" font-family="sans-serif" font-size="13" lengthAdjust="spacing" textLength="154" x="574.5" y="828.0903">save RTP in status SENT</text><polygon fill="#A80036" points="578.5,858.2891,568.5,862.2891,578.5,866.2891,574.5,862.2891" style="stroke:#A80036;stroke-width:1.0;"/><line style="stroke:#A80036;stroke-width:1.0;stroke-dasharray:2.0,2.0;" x1="572.5" x2="977" y1="862.2891" y2="862.2891"/><text fill="#000000" font-family="sans-serif" font-size="13" lengthAdjust="spacing" textLength="53" x="584.5" y="857.2231">updated</text><polygon fill="#A80036" points="340.5,892.4219,330.5,896.4219,340.5,900.4219,336.5,896.4219" style="stroke:#A80036;stroke-width:1.0;"/><line style="stroke:#A80036;stroke-width:1.0;stroke-dasharray:2.0,2.0;" x1="334.5" x2="556.5" y1="896.4219" y2="896.4219"/><text fill="#000000" font-family="sans-serif" font-size="13" lengthAdjust="spacing" textLength="204" x="346.5" y="891.356">Processing completed (Mocked)</text><path d="M572,875.2891 L572,900.2891 L784,900.2891 L784,885.2891 L774,875.2891 L572,875.2891 " fill="#FBFB77" filter="url(#fnv543r2yi9ca)" style="stroke:#A80036;stroke-width:1.0;"/><path d="M774,875.2891 L774,885.2891 L784,885.2891 L774,875.2891 " fill="#FBFB77" style="stroke:#A80036;stroke-width:1.0;"/><text fill="#000000" font-family="sans-serif" font-size="13" lengthAdjust="spacing" textLength="191" x="578" y="892.356">Mocked during CBI integration</text><polygon fill="#A80036" points="168,926.5547,158,930.5547,168,934.5547,164,930.5547" style="stroke:#A80036;stroke-width:1.0;"/><line style="stroke:#A80036;stroke-width:1.0;" x1="162" x2="318.5" y1="930.5547" y2="930.5547"/><text fill="#000000" font-family="sans-serif" font-size="13" lengthAdjust="spacing" textLength="89" x="174" y="925.4888">ACK message</text><line style="stroke:#000000;stroke-width:1.0;stroke-dasharray:2.0,2.0;" x1="58" x2="1278.5" y1="946.5547" y2="946.5547"/><text fill="#000000" font-family="sans-serif" font-size="11" font-weight="bold" lengthAdjust="spacing" textLength="127" x="63" y="956.7651">[user not activated]</text><polygon fill="#A80036" points="578.5,977.4922,568.5,981.4922,578.5,985.4922,574.5,981.4922" style="stroke:#A80036;stroke-width:1.0;"/><line style="stroke:#A80036;stroke-width:1.0;stroke-dasharray:2.0,2.0;" x1="572.5" x2="808.5" y1="981.4922" y2="981.4922"/><text fill="#000000" font-family="sans-serif" font-size="13" lengthAdjust="spacing" textLength="89" x="584.5" y="976.4263">404 not found</text><polygon fill="#A80036" points="340.5,1006.625,330.5,1010.625,340.5,1014.625,336.5,1010.625" style="stroke:#A80036;stroke-width:1.0;"/><line style="stroke:#A80036;stroke-width:1.0;stroke-dasharray:2.0,2.0;" x1="334.5" x2="556.5" y1="1010.625" y2="1010.625"/><text fill="#000000" font-family="sans-serif" font-size="13" lengthAdjust="spacing" textLength="107" x="346.5" y="1005.5591">Processing failed</text><polygon fill="#A80036" points="168,1035.7578,158,1039.7578,168,1043.7578,164,1039.7578" style="stroke:#A80036;stroke-width:1.0;"/><line style="stroke:#A80036;stroke-width:1.0;" x1="162" x2="318.5" y1="1039.7578" y2="1039.7578"/><text fill="#000000" font-family="sans-serif" font-size="13" lengthAdjust="spacing" textLength="99" x="174" y="1034.6919">NACK message</text><!--SRC=[nLHDZvim4BtpAqOvjLBHhg8zeQfI0b4KLRkb4FMwSl64M26OsYPI_dt71eB9abvxI6JivpVlpOVrITIWfCRWJuijmY9bfKmPR9CKVjgT1J3ThOA6AICAqR3QmE8LjMObGYnhtPvHETpmCOLQoeP127aAiK8kZ5GTRvx6K-WMjJs431kfBUxgSDiiuComtqmxXTS-d5jv9tcsJpjUMlZxg2wYiAobqARdpBDfw7YzwpKbGU0CG_ZjvYZgSW2zxQ2M1g72Wuc0Oe6D1GSbppPn0IkCk30p9YSO5bFA-8Z52Svz9cM3YXaXwuvSYV98xBzO9RZbkXs3kJOOiChSRWhAVBPPxJSUXn-HqXn1gcH1-05fLGzcRdfjFUXdxsop2BQRFJprXyIfdngNy1kSohBDBDWL8eA3gFdwwZvsV8HrPNB_43hgWEFTgRNJQW8C-znH3-9TO60r1s6eH7qzoT95SDi2w6lo79HeXg8dL2A_R3aoLHpXXDS8TaadWuBDkADE6JD4z5dl8leWnFN1f7owGxnZpHifQlC596lDSUbBphE9rtdIgKMRhWyusmRhtM3VSJ7EOInWrwP6meOWbD9ACdw3KqEGN7P1rnhqAcZ3J3lqI-AdW8RB_esI2uMkP1DJ5aNSNnqeYK2kd76lsP9HAvsdFt9gDuqD2nNIQwHDQ6H8ClsgzIHqOOo-V5wIoGARUmbUW4VkyitR_f_MseO_j1PEfhaVC56NKCXpKw6zve-XUq4YMCNVXyaDiABtQQwGP7bIpF-a7pwzokA4_FEagRizuAsoO999WWoMCo_FdEMQTxRTk5kVuyZVpzvWukNvnI4FigtvtBG_Cd9WefglmjkzfadZnFxdSFil]--></g></svg>