<?xml version="1.0" encoding="us-ascii" standalone="no"?><svg xmlns="http://www.w3.org/2000/svg" xmlns:xlink="http://www.w3.org/1999/xlink" contentStyleType="text/css" height="1219px" preserveAspectRatio="none" style="width:1373px;height:1219px;background:#FFFFFF;" version="1.1" viewBox="0 0 1373 1219" width="1373px" zoomAndPan="magnify"><defs><filter height="300%" id="f1jufcunntuvjn" width="300%" x="-1" y="-1"><feGaussianBlur result="blurOut" stdDeviation="2.0"/><feColorMatrix in="blurOut" result="blurOut2" type="matrix" values="0 0 0 0 0 0 0 0 0 0 0 0 0 0 0 0 0 0 .4 0"/><feOffset dx="4.0" dy="4.0" in="blurOut2" result="blurOut3"/><feBlend in="SourceGraphic" in2="blurOut3" mode="normal"/></filter></defs><g><rect fill="#FFFFFF" filter="url(#f1jufcunntuvjn)" height="1028.2656" style="stroke:#A80036;stroke-width:1.0;" width="10" x="319.5" y="103.4297"/><rect fill="#FFFFFF" filter="url(#f1jufcunntuvjn)" height="827.4688" style="stroke:#A80036;stroke-width:1.0;" width="10" x="592.5" y="304.2266"/><rect fill="#FFFFFF" filter="url(#f1jufcunntuvjn)" height="96.3984" style="stroke:#A80036;stroke-width:1.0;" width="10" x="839.5" y="333.3594"/><rect fill="#FFFFFF" filter="url(#f1jufcunntuvjn)" height="87.2656" style="stroke:#A80036;stroke-width:1.0;" width="10" x="839.5" y="463.8906"/><rect fill="#FFFFFF" filter="url(#f1jufcunntuvjn)" height="14" style="stroke:#A80036;stroke-width:1.0;" width="10" x="954.5" y="362.4922"/><rect fill="#FFFFFF" filter="url(#f1jufcunntuvjn)" height="29.1328" style="stroke:#A80036;stroke-width:1.0;" width="10" x="1008" y="646.5547"/><rect fill="#FFFFFF" filter="url(#f1jufcunntuvjn)" height="29.1328" style="stroke:#A80036;stroke-width:1.0;" width="10" x="1008" y="802.2188"/><rect fill="#FFFFFF" filter="url(#f1jufcunntuvjn)" height="29.1328" style="stroke:#A80036;stroke-width:1.0;" width="10" x="1008" y="904.4219"/><rect fill="#FFFFFF" filter="url(#f1jufcunntuvjn)" height="34.1328" style="stroke:#A80036;stroke-width:1.0;" width="10" x="1097.5" y="482.8906"/><rect fill="#FFFFFF" filter="url(#f1jufcunntuvjn)" height="29.1328" style="stroke:#A80036;stroke-width:1.0;" width="10" x="1219.5" y="203.8281"/><rect fill="#FFFFFF" filter="url(#f1jufcunntuvjn)" height="68.2656" style="stroke:#A80036;stroke-width:1.0;" width="10" x="1304" y="704.8203"/><rect fill="none" filter="url(#f1jufcunntuvjn)" height="959.1328" style="stroke:#000000;stroke-width:2.0;" width="1143.5" x="216" y="165.5625"/><rect fill="none" filter="url(#f1jufcunntuvjn)" height="669.2656" style="stroke:#000000;stroke-width:2.0;" width="1123.5" x="226" y="391.4922"/><rect fill="none" filter="url(#f1jufcunntuvjn)" height="414.5313" style="stroke:#000000;stroke-width:2.0;" width="1103.5" x="236" y="566.1563"/><line style="stroke:#A80036;stroke-width:1.0;stroke-dasharray:5.0,5.0;" x1="157" x2="157" y1="67.2969" y2="1141.6953"/><line style="stroke:#A80036;stroke-width:1.0;stroke-dasharray:5.0,5.0;" x1="324" x2="324" y1="67.2969" y2="1141.6953"/><line style="stroke:#A80036;stroke-width:1.0;stroke-dasharray:5.0,5.0;" x1="597" x2="597" y1="67.2969" y2="1141.6953"/><line style="stroke:#A80036;stroke-width:1.0;stroke-dasharray:5.0,5.0;" x1="844.5" x2="844.5" y1="67.2969" y2="1141.6953"/><line style="stroke:#A80036;stroke-width:1.0;stroke-dasharray:5.0,5.0;" x1="959.5" x2="959.5" y1="67.2969" y2="1141.6953"/><line style="stroke:#A80036;stroke-width:1.0;stroke-dasharray:5.0,5.0;" x1="1012.5" x2="1012.5" y1="67.2969" y2="1141.6953"/><line style="stroke:#A80036;stroke-width:1.0;stroke-dasharray:5.0,5.0;" x1="1102.5" x2="1102.5" y1="67.2969" y2="1141.6953"/><line style="stroke:#A80036;stroke-width:1.0;stroke-dasharray:5.0,5.0;" x1="1224.5" x2="1224.5" y1="67.2969" y2="1141.6953"/><line style="stroke:#A80036;stroke-width:1.0;stroke-dasharray:5.0,5.0;" x1="1308.5" x2="1308.5" y1="67.2969" y2="1141.6953"/><path d="M83,41 L231,41 C236,41 236,54.1484 236,54.1484 C236,54.1484 236,67.2969 231,67.2969 L83,67.2969 C78,67.2969 78,54.1484 78,54.1484 C78,54.1484 78,41 83,41 " fill="#FEFECE" filter="url(#f1jufcunntuvjn)" style="stroke:#A80036;stroke-width:2.0;"/><path d="M231,41 C226,41 226,54.1484 226,54.1484 C226,67.2969 231,67.2969 231,67.2969 " fill="none" style="stroke:#A80036;stroke-width:2.0;"/><text fill="#000000" font-family="sans-serif" font-size="14" lengthAdjust="spacing" textLength="138" x="83" y="58.9951">PagoPa GDP Queue</text><path d="M83,1140.6953 L231,1140.6953 C236,1140.6953 236,1153.8438 236,1153.8438 C236,1153.8438 236,1166.9922 231,1166.9922 L83,1166.9922 C78,1166.9922 78,1153.8438 78,1153.8438 C78,1153.8438 78,1140.6953 83,1140.6953 " fill="#FEFECE" filter="url(#f1jufcunntuvjn)" style="stroke:#A80036;stroke-width:2.0;"/><path d="M231,1140.6953 C226,1140.6953 226,1153.8438 226,1153.8438 C226,1166.9922 231,1166.9922 231,1166.9922 " fill="none" style="stroke:#A80036;stroke-width:2.0;"/><text fill="#000000" font-family="sans-serif" font-size="14" lengthAdjust="spacing" textLength="138" x="83" y="1158.6904">PagoPa GDP Queue</text><rect fill="#FEFECE" filter="url(#f1jufcunntuvjn)" height="30.2969" style="stroke:#A80036;stroke-width:1.5;" width="153" x="246" y="32"/><text fill="#000000" font-family="sans-serif" font-size="14" lengthAdjust="spacing" textLength="139" x="253" y="51.9951">Message Consumer</text><rect fill="#FEFECE" filter="url(#f1jufcunntuvjn)" height="30.2969" style="stroke:#A80036;stroke-width:1.5;" width="153" x="246" y="1140.6953"/><text fill="#000000" font-family="sans-serif" font-size="14" lengthAdjust="spacing" textLength="139" x="253" y="1160.6904">Message Consumer</text><rect fill="#FEFECE" filter="url(#f1jufcunntuvjn)" height="30.2969" style="stroke:#A80036;stroke-width:1.5;" width="165" x="513" y="32"/><text fill="#000000" font-family="sans-serif" font-size="14" lengthAdjust="spacing" textLength="151" x="520" y="51.9951">Pagopa - SP Creditore</text><rect fill="#FEFECE" filter="url(#f1jufcunntuvjn)" height="30.2969" style="stroke:#A80036;stroke-width:1.5;" width="165" x="513" y="1140.6953"/><text fill="#000000" font-family="sans-serif" font-size="14" lengthAdjust="spacing" textLength="151" x="520" y="1160.6904">Pagopa - SP Creditore</text><rect fill="#FEFECE" filter="url(#f1jufcunntuvjn)" height="30.2969" style="stroke:#A80036;stroke-width:1.5;" width="148" x="768.5" y="32"/><text fill="#000000" font-family="sans-serif" font-size="14" lengthAdjust="spacing" textLength="134" x="775.5" y="51.9951">Gestore Repository</text><rect fill="#FEFECE" filter="url(#f1jufcunntuvjn)" height="30.2969" style="stroke:#A80036;stroke-width:1.5;" width="148" x="768.5" y="1140.6953"/><text fill="#000000" font-family="sans-serif" font-size="14" lengthAdjust="spacing" textLength="134" x="775.5" y="1160.6904">Gestore Repository</text><text fill="#000000" font-family="sans-serif" font-size="14" lengthAdjust="spacing" textLength="38" x="937.5" y="63.9951">Payer</text><path d="M941.5,15 C941.5,5 959.5,5 959.5,5 C959.5,5 977.5,5 977.5,15 L977.5,41 C977.5,51 959.5,51 959.5,51 C959.5,51 941.5,51 941.5,41 L941.5,15 " fill="#FEFECE" filter="url(#f1jufcunntuvjn)" style="stroke:#A80036;stroke-width:1.5;"/><path d="M941.5,15 C941.5,25 959.5,25 959.5,25 C959.5,25 977.5,25 977.5,15 " fill="none" style="stroke:#A80036;stroke-width:1.5;"/><text fill="#000000" font-family="sans-serif" font-size="14" lengthAdjust="spacing" textLength="38" x="937.5" y="1153.6904">Payer</text><path d="M941.5,1166.9922 C941.5,1156.9922 959.5,1156.9922 959.5,1156.9922 C959.5,1156.9922 977.5,1156.9922 977.5,1166.9922 L977.5,1192.9922 C977.5,1202.9922 959.5,1202.9922 959.5,1202.9922 C959.5,1202.9922 941.5,1202.9922 941.5,1192.9922 L941.5,1166.9922 " fill="#FEFECE" filter="url(#f1jufcunntuvjn)" style="stroke:#A80036;stroke-width:1.5;"/><path d="M941.5,1166.9922 C941.5,1176.9922 959.5,1176.9922 959.5,1176.9922 C959.5,1176.9922 977.5,1176.9922 977.5,1166.9922 " fill="none" style="stroke:#A80036;stroke-width:1.5;"/><text fill="#000000" font-family="sans-serif" font-size="14" lengthAdjust="spacing" textLength="37" x="991.5" y="63.9951">SRTP</text><path d="M995,15 C995,5 1013,5 1013,5 C1013,5 1031,5 1031,15 L1031,41 C1031,51 1013,51 1013,51 C1013,51 995,51 995,41 L995,15 " fill="#FEFECE" filter="url(#f1jufcunntuvjn)" style="stroke:#A80036;stroke-width:1.5;"/><path d="M995,15 C995,25 1013,25 1013,25 C1013,25 1031,25 1031,15 " fill="none" style="stroke:#A80036;stroke-width:1.5;"/><text fill="#000000" font-family="sans-serif" font-size="14" lengthAdjust="spacing" textLength="37" x="991.5" y="1153.6904">SRTP</text><path d="M995,1166.9922 C995,1156.9922 1013,1156.9922 1013,1156.9922 C1013,1156.9922 1031,1156.9922 1031,1166.9922 L1031,1192.9922 C1031,1202.9922 1013,1202.9922 1013,1202.9922 C1013,1202.9922 995,1202.9922 995,1192.9922 L995,1166.9922 " fill="#FEFECE" filter="url(#f1jufcunntuvjn)" style="stroke:#A80036;stroke-width:1.5;"/><path d="M995,1166.9922 C995,1176.9922 1013,1176.9922 1013,1176.9922 C1013,1176.9922 1031,1176.9922 1031,1166.9922 " fill="none" style="stroke:#A80036;stroke-width:1.5;"/><text fill="#000000" font-family="sans-serif" font-size="14" lengthAdjust="spacing" textLength="110" x="1044.5" y="63.9951">Service Registry</text><path d="M1084.5,15 C1084.5,5 1102.5,5 1102.5,5 C1102.5,5 1120.5,5 1120.5,15 L1120.5,41 C1120.5,51 1102.5,51 1102.5,51 C1102.5,51 1084.5,51 1084.5,41 L1084.5,15 " fill="#FEFECE" filter="url(#f1jufcunntuvjn)" style="stroke:#A80036;stroke-width:1.5;"/><path d="M1084.5,15 C1084.5,25 1102.5,25 1102.5,25 C1102.5,25 1120.5,25 1120.5,15 " fill="none" style="stroke:#A80036;stroke-width:1.5;"/><text fill="#000000" font-family="sans-serif" font-size="14" lengthAdjust="spacing" textLength="110" x="1044.5" y="1153.6904">Service Registry</text><path d="M1084.5,1166.9922 C1084.5,1156.9922 1102.5,1156.9922 1102.5,1156.9922 C1102.5,1156.9922 1120.5,1156.9922 1120.5,1166.9922 L1120.5,1192.9922 C1120.5,1202.9922 1102.5,1202.9922 1102.5,1202.9922 C1102.5,1202.9922 1084.5,1202.9922 1084.5,1192.9922 L1084.5,1166.9922 " fill="#FEFECE" filter="url(#f1jufcunntuvjn)" style="stroke:#A80036;stroke-width:1.5;"/><path d="M1084.5,1166.9922 C1084.5,1176.9922 1102.5,1176.9922 1102.5,1176.9922 C1102.5,1176.9922 1120.5,1176.9922 1120.5,1166.9922 " fill="none" style="stroke:#A80036;stroke-width:1.5;"/><text fill="#000000" font-family="sans-serif" font-size="14" lengthAdjust="spacing" textLength="102" x="1170.5" y="63.9951">Payee Registry</text><path d="M1206.5,15 C1206.5,5 1224.5,5 1224.5,5 C1224.5,5 1242.5,5 1242.5,15 L1242.5,41 C1242.5,51 1224.5,51 1224.5,51 C1224.5,51 1206.5,51 1206.5,41 L1206.5,15 " fill="#FEFECE" filter="url(#f1jufcunntuvjn)" style="stroke:#A80036;stroke-width:1.5;"/><path d="M1206.5,15 C1206.5,25 1224.5,25 1224.5,25 C1224.5,25 1242.5,25 1242.5,15 " fill="none" style="stroke:#A80036;stroke-width:1.5;"/><text fill="#000000" font-family="sans-serif" font-size="14" lengthAdjust="spacing" textLength="102" x="1170.5" y="1153.6904">Payee Registry</text><path d="M1206.5,1166.9922 C1206.5,1156.9922 1224.5,1156.9922 1224.5,1156.9922 C1224.5,1156.9922 1242.5,1156.9922 1242.5,1166.9922 L1242.5,1192.9922 C1242.5,1202.9922 1224.5,1202.9922 1224.5,1202.9922 C1224.5,1202.9922 1206.5,1202.9922 1206.5,1192.9922 L1206.5,1166.9922 " fill="#FEFECE" filter="url(#f1jufcunntuvjn)" style="stroke:#A80036;stroke-width:1.5;"/><path d="M1206.5,1166.9922 C1206.5,1176.9922 1224.5,1176.9922 1224.5,1176.9922 C1224.5,1176.9922 1242.5,1176.9922 1242.5,1166.9922 " fill="none" style="stroke:#A80036;stroke-width:1.5;"/><rect fill="#FEFECE" filter="url(#f1jufcunntuvjn)" height="30.2969" style="stroke:#A80036;stroke-width:1.5;" width="37" x="1288.5" y="32"/><text fill="#000000" font-family="sans-serif" font-size="14" lengthAdjust="spacing" textLength="23" x="1295.5" y="51.9951">CBI</text><rect fill="#FEFECE" filter="url(#f1jufcunntuvjn)" height="30.2969" style="stroke:#A80036;stroke-width:1.5;" width="37" x="1288.5" y="1140.6953"/><text fill="#000000" font-family="sans-serif" font-size="14" lengthAdjust="spacing" textLength="23" x="1295.5" y="1160.6904">CBI</text><rect fill="#FFFFFF" filter="url(#f1jufcunntuvjn)" height="1028.2656" style="stroke:#A80036;stroke-width:1.0;" width="10" x="319.5" y="103.4297"/><rect fill="#FFFFFF" filter="url(#f1jufcunntuvjn)" height="827.4688" style="stroke:#A80036;stroke-width:1.0;" width="10" x="592.5" y="304.2266"/><rect fill="#FFFFFF" filter="url(#f1jufcunntuvjn)" height="96.3984" style="stroke:#A80036;stroke-width:1.0;" width="10" x="839.5" y="333.3594"/><rect fill="#FFFFFF" filter="url(#f1jufcunntuvjn)" height="87.2656" style="stroke:#A80036;stroke-width:1.0;" width="10" x="839.5" y="463.8906"/><rect fill="#FFFFFF" filter="url(#f1jufcunntuvjn)" height="14" style="stroke:#A80036;stroke-width:1.0;" width="10" x="954.5" y="362.4922"/><rect fill="#FFFFFF" filter="url(#f1jufcunntuvjn)" height="29.1328" style="stroke:#A80036;stroke-width:1.0;" width="10" x="1008" y="646.5547"/><rect fill="#FFFFFF" filter="url(#f1jufcunntuvjn)" height="29.1328" style="stroke:#A80036;stroke-width:1.0;" width="10" x="1008" y="802.2188"/><rect fill="#FFFFFF" filter="url(#f1jufcunntuvjn)" height="29.1328" style="stroke:#A80036;stroke-width:1.0;" width="10" x="1008" y="904.4219"/><rect fill="#FFFFFF" filter="url(#f1jufcunntuvjn)" height="34.1328" style="stroke:#A80036;stroke-width:1.0;" width="10" x="1097.5" y="482.8906"/><rect fill="#FFFFFF" filter="url(#f1jufcunntuvjn)" height="29.1328" style="stroke:#A80036;stroke-width:1.0;" width="10" x="1219.5" y="203.8281"/><rect fill="#FFFFFF" filter="url(#f1jufcunntuvjn)" height="68.2656" style="stroke:#A80036;stroke-width:1.0;" width="10" x="1304" y="704.8203"/><polygon fill="#A80036" points="307.5,99.4297,317.5,103.4297,307.5,107.4297,311.5,103.4297" style="stroke:#A80036;stroke-width:1.0;"/><line style="stroke:#A80036;stroke-width:1.0;" x1="157" x2="313.5" y1="103.4297" y2="103.4297"/><text fill="#000000" font-family="sans-serif" font-size="13" lengthAdjust="spacing" textLength="103" x="164" y="98.3638">Queue Message</text><path d="M5,82.2969 L5,107.2969 L148,107.2969 L148,92.2969 L138,82.2969 L5,82.2969 " fill="#FBFB77" filter="url(#f1jufcunntuvjn)" style="stroke:#A80036;stroke-width:1.0;"/><path d="M138,82.2969 L138,92.2969 L148,92.2969 L138,82.2969 " fill="#FBFB77" style="stroke:#A80036;stroke-width:1.0;"/><text fill="#000000" font-family="sans-serif" font-size="13" lengthAdjust="spacing" textLength="122" x="11" y="99.3638">RTP data from GDP</text><line style="stroke:#A80036;stroke-width:1.0;" x1="329.5" x2="371.5" y1="137.5625" y2="137.5625"/><line style="stroke:#A80036;stroke-width:1.0;" x1="371.5" x2="371.5" y1="137.5625" y2="150.5625"/><line style="stroke:#A80036;stroke-width:1.0;" x1="330.5" x2="371.5" y1="150.5625" y2="150.5625"/><polygon fill="#A80036" points="340.5,146.5625,330.5,150.5625,340.5,154.5625,336.5,150.5625" style="stroke:#A80036;stroke-width:1.0;"/><text fill="#000000" font-family="sans-serif" font-size="13" lengthAdjust="spacing" textLength="167" x="336.5" y="132.4966">Check message operation</text><path d="M515,122.9297 L515,147.9297 L685,147.9297 L685,132.9297 L675,122.9297 L515,122.9297 " fill="#FBFB77" filter="url(#f1jufcunntuvjn)" style="stroke:#A80036;stroke-width:1.0;"/><path d="M675,122.9297 L675,132.9297 L685,132.9297 L675,122.9297 " fill="#FBFB77" style="stroke:#A80036;stroke-width:1.0;"/><text fill="#000000" font-family="sans-serif" font-size="13" lengthAdjust="spacing" textLength="149" x="521" y="139.9966">Validate operation type</text><path d="M216,165.5625 L280,165.5625 L280,172.6953 L270,182.6953 L216,182.6953 L216,165.5625 " fill="#EEEEEE" style="stroke:#000000;stroke-width:1.0;"/><rect fill="none" height="959.1328" style="stroke:#000000;stroke-width:2.0;" width="1143.5" x="216" y="165.5625"/><text fill="#000000" font-family="sans-serif" font-size="13" font-weight="bold" lengthAdjust="spacing" textLength="19" x="231" y="178.6294">alt</text><text fill="#000000" font-family="sans-serif" font-size="11" font-weight="bold" lengthAdjust="spacing" textLength="201" x="295" y="177.7729">[message is CREATE operation]</text><polygon fill="#A80036" points="1207.5,199.8281,1217.5,203.8281,1207.5,207.8281,1211.5,203.8281" style="stroke:#A80036;stroke-width:1.0;"/><line style="stroke:#A80036;stroke-width:1.0;" x1="329.5" x2="1213.5" y1="203.8281" y2="203.8281"/><text fill="#000000" font-family="sans-serif" font-size="13" lengthAdjust="spacing" textLength="128" x="336.5" y="198.7622">Retrieve Payee data</text><polygon fill="#A80036" points="340.5,228.9609,330.5,232.9609,340.5,236.9609,336.5,232.9609" style="stroke:#A80036;stroke-width:1.0;"/><line style="stroke:#A80036;stroke-width:1.0;stroke-dasharray:2.0,2.0;" x1="334.5" x2="1223.5" y1="232.9609" y2="232.9609"/><text fill="#000000" font-family="sans-serif" font-size="13" lengthAdjust="spacing" textLength="72" x="346.5" y="227.895">Payee data</text><line style="stroke:#A80036;stroke-width:1.0;" x1="329.5" x2="371.5" y1="262.0938" y2="262.0938"/><line style="stroke:#A80036;stroke-width:1.0;" x1="371.5" x2="371.5" y1="262.0938" y2="275.0938"/><line style="stroke:#A80036;stroke-width:1.0;" x1="330.5" x2="371.5" y1="275.0938" y2="275.0938"/><polygon fill="#A80036" points="340.5,271.0938,330.5,275.0938,340.5,279.0938,336.5,275.0938" style="stroke:#A80036;stroke-width:1.0;"/><text fill="#000000" font-family="sans-serif" font-size="13" lengthAdjust="spacing" textLength="249" x="336.5" y="257.0278">Map message and Payee data into RTP</text><polygon fill="#A80036" points="580.5,300.2266,590.5,304.2266,580.5,308.2266,584.5,304.2266" style="stroke:#A80036;stroke-width:1.0;"/><line style="stroke:#A80036;stroke-width:1.0;" x1="329.5" x2="586.5" y1="304.2266" y2="304.2266"/><text fill="#000000" font-family="sans-serif" font-size="13" lengthAdjust="spacing" textLength="191" x="336.5" y="299.1606">Process CREATE RTP Message</text><polygon fill="#A80036" points="827.5,329.3594,837.5,333.3594,827.5,337.3594,831.5,333.3594" style="stroke:#A80036;stroke-width:1.0;"/><line style="stroke:#A80036;stroke-width:1.0;" x1="602.5" x2="833.5" y1="333.3594" y2="333.3594"/><text fill="#000000" font-family="sans-serif" font-size="13" lengthAdjust="spacing" textLength="142" x="609.5" y="328.2935">GET /activations/payer</text><polygon fill="#A80036" points="942.5,358.4922,952.5,362.4922,942.5,366.4922,946.5,362.4922" style="stroke:#A80036;stroke-width:1.0;"/><line style="stroke:#A80036;stroke-width:1.0;" x1="849.5" x2="948.5" y1="362.4922" y2="362.4922"/><text fill="#000000" font-family="sans-serif" font-size="13" lengthAdjust="spacing" textLength="86" x="856.5" y="357.4263">findByPayerId</text><polygon fill="#A80036" points="860.5,372.4922,850.5,376.4922,860.5,380.4922,856.5,376.4922" style="stroke:#A80036;stroke-width:1.0;"/><line style="stroke:#A80036;stroke-width:1.0;stroke-dasharray:2.0,2.0;" x1="854.5" x2="958.5" y1="376.4922" y2="376.4922"/><path d="M226,391.4922 L290,391.4922 L290,398.625 L280,408.625 L226,408.625 L226,391.4922 " fill="#EEEEEE" style="stroke:#000000;stroke-width:1.0;"/><rect fill="none" height="669.2656" style="stroke:#000000;stroke-width:2.0;" width="1123.5" x="226" y="391.4922"/><text fill="#000000" font-family="sans-serif" font-size="13" font-weight="bold" lengthAdjust="spacing" textLength="19" x="241" y="404.5591">alt</text><text fill="#000000" font-family="sans-serif" font-size="11" font-weight="bold" lengthAdjust="spacing" textLength="102" x="305" y="403.7026">[user activated]</text><polygon fill="#A80036" points="613.5,425.7578,603.5,429.7578,613.5,433.7578,609.5,429.7578" style="stroke:#A80036;stroke-width:1.0;"/><line style="stroke:#A80036;stroke-width:1.0;stroke-dasharray:2.0,2.0;" x1="607.5" x2="843.5" y1="429.7578" y2="429.7578"/><text fill="#000000" font-family="sans-serif" font-size="13" lengthAdjust="spacing" textLength="190" x="619.5" y="424.6919">payer and its Service Provider</text><polygon fill="#A80036" points="827.5,459.8906,837.5,463.8906,827.5,467.8906,831.5,463.8906" style="stroke:#A80036;stroke-width:1.0;"/><line style="stroke:#A80036;stroke-width:1.0;" x1="602.5" x2="833.5" y1="463.8906" y2="463.8906"/><text fill="#000000" font-family="sans-serif" font-size="13" lengthAdjust="spacing" textLength="103" x="609.5" y="458.8247">getRegistryData</text><path d="M409,442.7578 L409,467.7578 L583,467.7578 L583,452.7578 L573,442.7578 L409,442.7578 " fill="#FBFB77" filter="url(#f1jufcunntuvjn)" style="stroke:#A80036;stroke-width:1.0;"/><path d="M573,442.7578 L573,452.7578 L583,452.7578 L573,442.7578 " fill="#FBFB77" style="stroke:#A80036;stroke-width:1.0;"/><text fill="#000000" font-family="sans-serif" font-size="13" lengthAdjust="spacing" textLength="153" x="415" y="459.8247">Search key: ID Payer SP</text><polygon fill="#A80036" points="1085.5,478.8906,1095.5,482.8906,1085.5,486.8906,1089.5,482.8906" style="stroke:#A80036;stroke-width:1.0;"/><line style="stroke:#A80036;stroke-width:1.0;" x1="849.5" x2="1091.5" y1="482.8906" y2="482.8906"/><polygon fill="#A80036" points="860.5,513.0234,850.5,517.0234,860.5,521.0234,856.5,517.0234" style="stroke:#A80036;stroke-width:1.0;"/><line style="stroke:#A80036;stroke-width:1.0;stroke-dasharray:2.0,2.0;" x1="854.5" x2="1101.5" y1="517.0234" y2="517.0234"/><text fill="#000000" font-family="sans-serif" font-size="13" lengthAdjust="spacing" textLength="136" x="866.5" y="511.9575">Service Provider data</text><path d="M1112,495.8906 L1112,520.8906 L1294,520.8906 L1294,505.8906 L1284,495.8906 L1112,495.8906 " fill="#FBFB77" filter="url(#f1jufcunntuvjn)" style="stroke:#A80036;stroke-width:1.0;"/><path d="M1284,495.8906 L1284,505.8906 L1294,505.8906 L1284,495.8906 " fill="#FBFB77" style="stroke:#A80036;stroke-width:1.0;"/><text fill="#000000" font-family="sans-serif" font-size="13" lengthAdjust="spacing" textLength="161" x="1118" y="512.9575">service_endpoint, oauth2</text><polygon fill="#A80036" points="613.5,547.1563,603.5,551.1563,613.5,555.1563,609.5,551.1563" style="stroke:#A80036;stroke-width:1.0;"/><line style="stroke:#A80036;stroke-width:1.0;stroke-dasharray:2.0,2.0;" x1="607.5" x2="843.5" y1="551.1563" y2="551.1563"/><text fill="#000000" font-family="sans-serif" font-size="13" lengthAdjust="spacing" textLength="136" x="619.5" y="546.0903">Service Provider data</text><path d="M236,566.1563 L300,566.1563 L300,573.2891 L290,583.2891 L236,583.2891 L236,566.1563 " fill="#EEEEEE" style="stroke:#000000;stroke-width:1.0;"/><rect fill="none" height="414.5313" style="stroke:#000000;stroke-width:2.0;" width="1103.5" x="236" y="566.1563"/><text fill="#000000" font-family="sans-serif" font-size="13" font-weight="bold" lengthAdjust="spacing" textLength="19" x="251" y="579.2231">alt</text><text fill="#000000" font-family="sans-serif" font-size="11" font-weight="bold" lengthAdjust="spacing" textLength="155" x="315" y="578.3667">[Service Provider is CBI]</text><line style="stroke:#A80036;stroke-width:1.0;" x1="602.5" x2="644.5" y1="604.4219" y2="604.4219"/><line style="stroke:#A80036;stroke-width:1.0;" x1="644.5" x2="644.5" y1="604.4219" y2="617.4219"/><line style="stroke:#A80036;stroke-width:1.0;" x1="603.5" x2="644.5" y1="617.4219" y2="617.4219"/><polygon fill="#A80036" points="613.5,613.4219,603.5,617.4219,613.5,621.4219,609.5,617.4219" style="stroke:#A80036;stroke-width:1.0;"/><text fill="#000000" font-family="sans-serif" font-size="13" lengthAdjust="spacing" textLength="223" x="609.5" y="599.356">add activation data to EPC payload</text><polygon fill="#A80036" points="996,642.5547,1006,646.5547,996,650.5547,1000,646.5547" style="stroke:#A80036;stroke-width:1.0;"/><line style="stroke:#A80036;stroke-width:1.0;" x1="602.5" x2="1002" y1="646.5547" y2="646.5547"/><text fill="#000000" font-family="sans-serif" font-size="13" lengthAdjust="spacing" textLength="179" x="609.5" y="641.4888">save RTP in status CREATED</text><polygon fill="#A80036" points="613.5,671.6875,603.5,675.6875,613.5,679.6875,609.5,675.6875" style="stroke:#A80036;stroke-width:1.0;"/><line style="stroke:#A80036;stroke-width:1.0;stroke-dasharray:2.0,2.0;" x1="607.5" x2="1012" y1="675.6875" y2="675.6875"/><text fill="#000000" font-family="sans-serif" font-size="13" lengthAdjust="spacing" textLength="49" x="619.5" y="670.6216">created</text><polygon fill="#A80036" points="613.5,700.8203,603.5,704.8203,613.5,708.8203,609.5,704.8203" style="stroke:#A80036;stroke-width:1.0;"/><polygon fill="#A80036" points="1292,700.8203,1302,704.8203,1292,708.8203,1296,704.8203" style="stroke:#A80036;stroke-width:1.0;"/><line style="stroke:#A80036;stroke-width:1.0;" x1="607.5" x2="1298" y1="704.8203" y2="704.8203"/><text fill="#000000" font-family="sans-serif" font-size="13" lengthAdjust="spacing" textLength="46" x="619.5" y="699.7544">oAuth2</text><polygon fill="#A80036" points="1292,734.9531,1302,738.9531,1292,742.9531,1296,738.9531" style="stroke:#A80036;stroke-width:1.0;"/><line style="stroke:#A80036;stroke-width:1.0;" x1="602.5" x2="1298" y1="738.9531" y2="738.9531"/><text fill="#000000" font-family="sans-serif" font-size="13" lengthAdjust="spacing" textLength="173" x="609.5" y="733.8872">POST /sepa-request-to-pay</text><path d="M516,717.8203 L516,742.8203 L583,742.8203 L583,727.8203 L573,717.8203 L516,717.8203 " fill="#FBFB77" filter="url(#f1jufcunntuvjn)" style="stroke:#A80036;stroke-width:1.0;"/><path d="M573,717.8203 L573,727.8203 L583,727.8203 L573,717.8203 " fill="#FBFB77" style="stroke:#A80036;stroke-width:1.0;"/><text fill="#000000" font-family="sans-serif" font-size="13" lengthAdjust="spacing" textLength="46" x="522" y="734.8872">oAuth2</text><polygon fill="#A80036" points="613.5,769.0859,603.5,773.0859,613.5,777.0859,609.5,773.0859" style="stroke:#A80036;stroke-width:1.0;"/><line style="stroke:#A80036;stroke-width:1.0;stroke-dasharray:2.0,2.0;" x1="607.5" x2="1308" y1="773.0859" y2="773.0859"/><text fill="#000000" font-family="sans-serif" font-size="13" lengthAdjust="spacing" textLength="87" x="619.5" y="768.02">202 accepted</text><polygon fill="#A80036" points="996,798.2188,1006,802.2188,996,806.2188,1000,802.2188" style="stroke:#A80036;stroke-width:1.0;"/><line style="stroke:#A80036;stroke-width:1.0;" x1="602.5" x2="1002" y1="802.2188" y2="802.2188"/><text fill="#000000" font-family="sans-serif" font-size="13" lengthAdjust="spacing" textLength="154" x="609.5" y="797.1528">save RTP in status SENT</text><polygon fill="#A80036" points="613.5,827.3516,603.5,831.3516,613.5,835.3516,609.5,831.3516" style="stroke:#A80036;stroke-width:1.0;"/><line style="stroke:#A80036;stroke-width:1.0;stroke-dasharray:2.0,2.0;" x1="607.5" x2="1012" y1="831.3516" y2="831.3516"/><text fill="#000000" font-family="sans-serif" font-size="13" lengthAdjust="spacing" textLength="53" x="619.5" y="826.2856">updated</text><polygon fill="#A80036" points="340.5,856.4844,330.5,860.4844,340.5,864.4844,336.5,860.4844" style="stroke:#A80036;stroke-width:1.0;"/><line style="stroke:#A80036;stroke-width:1.0;stroke-dasharray:2.0,2.0;" x1="334.5" x2="591.5" y1="860.4844" y2="860.4844"/><text fill="#000000" font-family="sans-serif" font-size="13" lengthAdjust="spacing" textLength="141" x="346.5" y="855.4185">Processing completed</text><line style="stroke:#000000;stroke-width:1.0;stroke-dasharray:2.0,2.0;" x1="236" x2="1339.5" y1="869.4844" y2="869.4844"/><text fill="#000000" font-family="sans-serif" font-size="11" font-weight="bold" lengthAdjust="spacing" textLength="180" x="241" y="879.6948">[Service Provider is not CBI]</text><polygon fill="#A80036" points="996,900.4219,1006,904.4219,996,908.4219,1000,904.4219" style="stroke:#A80036;stroke-width:1.0;"/><line style="stroke:#A80036;stroke-width:1.0;" x1="602.5" x2="1002" y1="904.4219" y2="904.4219"/><text fill="#000000" font-family="sans-serif" font-size="13" lengthAdjust="spacing" textLength="154" x="609.5" y="899.356">save RTP in status SENT</text><polygon fill="#A80036" points="613.5,929.5547,603.5,933.5547,613.5,937.5547,609.5,933.5547" style="stroke:#A80036;stroke-width:1.0;"/><line style="stroke:#A80036;stroke-width:1.0;stroke-dasharray:2.0,2.0;" x1="607.5" x2="1012" y1="933.5547" y2="933.5547"/><text fill="#000000" font-family="sans-serif" font-size="13" lengthAdjust="spacing" textLength="53" x="619.5" y="928.4888">updated</text><polygon fill="#A80036" points="340.5,963.6875,330.5,967.6875,340.5,971.6875,336.5,967.6875" style="stroke:#A80036;stroke-width:1.0;"/><line style="stroke:#A80036;stroke-width:1.0;stroke-dasharray:2.0,2.0;" x1="334.5" x2="591.5" y1="967.6875" y2="967.6875"/><text fill="#000000" font-family="sans-serif" font-size="13" lengthAdjust="spacing" textLength="204" x="346.5" y="962.6216">Processing completed (Mocked)</text><path d="M607,946.5547 L607,971.5547 L819,971.5547 L819,956.5547 L809,946.5547 L607,946.5547 " fill="#FBFB77" filter="url(#f1jufcunntuvjn)" style="stroke:#A80036;stroke-width:1.0;"/><path d="M809,946.5547 L809,956.5547 L819,956.5547 L809,946.5547 " fill="#FBFB77" style="stroke:#A80036;stroke-width:1.0;"/><text fill="#000000" font-family="sans-serif" font-size="13" lengthAdjust="spacing" textLength="191" x="613" y="963.6216">Mocked during CBI integration</text><line style="stroke:#000000;stroke-width:1.0;stroke-dasharray:2.0,2.0;" x1="226" x2="1349.5" y1="988.6875" y2="988.6875"/><text fill="#000000" font-family="sans-serif" font-size="11" font-weight="bold" lengthAdjust="spacing" textLength="127" x="231" y="998.8979">[user not activated]</text><polygon fill="#A80036" points="613.5,1019.625,603.5,1023.625,613.5,1027.625,609.5,1023.625" style="stroke:#A80036;stroke-width:1.0;"/><line style="stroke:#A80036;stroke-width:1.0;stroke-dasharray:2.0,2.0;" x1="607.5" x2="843.5" y1="1023.625" y2="1023.625"/><text fill="#000000" font-family="sans-serif" font-size="13" lengthAdjust="spacing" textLength="89" x="619.5" y="1018.5591">404 not found</text><polygon fill="#A80036" points="340.5,1048.7578,330.5,1052.7578,340.5,1056.7578,336.5,1052.7578" style="stroke:#A80036;stroke-width:1.0;"/><line style="stroke:#A80036;stroke-width:1.0;stroke-dasharray:2.0,2.0;" x1="334.5" x2="591.5" y1="1052.7578" y2="1052.7578"/><text fill="#000000" font-family="sans-serif" font-size="13" lengthAdjust="spacing" textLength="107" x="346.5" y="1047.6919">Processing failed</text><line style="stroke:#000000;stroke-width:1.0;stroke-dasharray:2.0,2.0;" x1="216" x2="1359.5" y1="1068.7578" y2="1068.7578"/><text fill="#000000" font-family="sans-serif" font-size="11" font-weight="bold" lengthAdjust="spacing" textLength="226" x="221" y="1078.9683">[message is not CREATE operation]</text><line style="stroke:#A80036;stroke-width:1.0;" x1="329.5" x2="371.5" y1="1103.6953" y2="1103.6953"/><line style="stroke:#A80036;stroke-width:1.0;" x1="371.5" x2="371.5" y1="1103.6953" y2="1116.6953"/><line style="stroke:#A80036;stroke-width:1.0;" x1="330.5" x2="371.5" y1="1116.6953" y2="1116.6953"/><polygon fill="#A80036" points="340.5,1112.6953,330.5,1116.6953,340.5,1120.6953,336.5,1116.6953" style="stroke:#A80036;stroke-width:1.0;"/><text fill="#000000" font-family="sans-serif" font-size="13" lengthAdjust="spacing" textLength="100" x="336.5" y="1098.6294">Skip processing</text><path d="M448,1089.0625 L448,1114.0625 L621,1114.0625 L621,1099.0625 L611,1089.0625 L448,1089.0625 " fill="#FBFB77" filter="url(#f1jufcunntuvjn)" style="stroke:#A80036;stroke-width:1.0;"/><path d="M611,1089.0625 L611,1099.0625 L621,1099.0625 L611,1089.0625 " fill="#FBFB77" style="stroke:#A80036;stroke-width:1.0;"/><text fill="#000000" font-family="sans-serif" font-size="13" lengthAdjust="spacing" textLength="152" x="454" y="1106.1294">Different operation type</text><!--SRC=[nLNBRjim4BphAnOvjK2D145EHb4WiGp3XxIgPFHQiEBA9coBB4aPyDztbtfHYfDh3nOaSZaxCnpIxgXgiDfXyhV11k4k4tkT2TYa6VpaaJiGhdrBZB1UbSg8siFTApedzWWhNRlcZ3RKzH_JKeOq0XPGPB2oA9NNjiKjijMqT8EE9o57entNNKFT9a-ayEAFS87XjMiNtgAP8jzbBIwznEDeBwfarBroliCivfYp-IoVKbkzR3lEQP84Gs3nRL2yR3s2pfQarXxXX9LV0d41xWILrMSsDX6bLnVXH_EI_cKAkJfWUOHpvxGsQ8LNkcx1hTeV2FsNE2d9MCCq-Al1H9pyi5BHpkJhvzqwmeWxPZcnH6yLNX1QAvZmo9Eyo79OJCX5THBZojjQNeKP-8XQHij1rLwpIvEL50tgONL9Qthsx6HlyD2HCqG_NhCX7Plr3kwxITBfxaq8oL1EKThaGJIFBw5IjNovXe-jZ1I7LU4PT7C2SJRB5ZUE2lfn6Q1xyg5nqAeynQRB84cwACcnnPXJf62FlWzYokv6KIfGsF80HxmkOPksDAZP3NMKxj4XWiyx5SitHDejZ2FbsehVM4kZQNE-W1QDFpp6b8jyelKsw5GYs_McZgFviktb1omX9OmRs4Q40hAc4hBqf8KSoYaGH5TGQZaQT9CvBtpJvoMDBQ1uyMEaN5eCMpOHnLM4_JKKfKlGpq5u5BPqv4hpsO-2ukRGY8L5ka6TNtYz89hnhdKWj63i_lZmI29BD7CAKOFtr1NhxxiFfJL6lYjjTeZR0wRgFPJwR4x8o_14L-AjdI9DaztwJmJXqwikZoW_JrBRZe5iB1SJJRvNSDzTTvJbLbSui2naFBJpqzEpV7fu2fMLRcfvwxo-nxGIwiG-zZsZUpXO-D5TF08MHsN03AWJiQcgAhH8_qkpQn_hMPnMyMSF_Wy0]--></g></svg>