<svg xmlns="http://www.w3.org/2000/svg" xmlns:xlink="http://www.w3.org/1999/xlink" contentStyleType="text/css" data-diagram-type="SEQUENCE" height="1219px" preserveAspectRatio="none" style="width:1415px;height:1219px;background:#FFFFFF;" version="1.1" viewBox="0 0 1415 1219" width="1415px" zoomAndPan="magnify"><defs><filter height="300%" id="f1jufcunntuvjn" width="300%" x="-1" y="-1"><feGaussianBlur result="blurOut" stdDeviation="2"/><feColorMatrix in="blurOut" result="blurOut2" type="matrix" values="0 0 0 0 0 0 0 0 0 0 0 0 0 0 0 0 0 0 .4 0"/><feOffset dx="4" dy="4" in="blurOut2" result="blurOut3"/><feBlend in="SourceGraphic" in2="blurOut3" mode="normal"/></filter></defs><g><g><title>Message Consumer</title><rect fill="#FFFFFF" filter="url(#f1jufcunntuvjn)" height="1028.2656" style="stroke:#A80036;stroke-width:1;" width="10" x="320.0576" y="103.4297"/></g><g><title>Pagopa - SP Creditore</title><rect fill="#FFFFFF" filter="url(#f1jufcunntuvjn)" height="827.4688" style="stroke:#A80036;stroke-width:1;" width="10" x="607.6592" y="304.2266"/></g><g><title>Gestore Repository</title><rect fill="#FFFFFF" filter="url(#f1jufcunntuvjn)" height="96.3984" style="stroke:#A80036;stroke-width:1;" width="10" x="870.3335" y="333.3594"/></g><g><title>Gestore Repository</title><rect fill="#FFFFFF" filter="url(#f1jufcunntuvjn)" height="87.2656" style="stroke:#A80036;stroke-width:1;" width="10" x="870.3335" y="463.8906"/></g><g><title>Payer</title><rect fill="#FFFFFF" filter="url(#f1jufcunntuvjn)" height="14" style="stroke:#A80036;stroke-width:1;" width="10" x="989.5527" y="362.4922"/></g><g><title>SRTP</title><rect fill="#FFFFFF" filter="url(#f1jufcunntuvjn)" height="29.1328" style="stroke:#A80036;stroke-width:1;" width="10" x="1043.1948" y="646.5547"/></g><g><title>SRTP</title><rect fill="#FFFFFF" filter="url(#f1jufcunntuvjn)" height="29.1328" style="stroke:#A80036;stroke-width:1;" width="10" x="1043.1948" y="802.2188"/></g><g><title>SRTP</title><rect fill="#FFFFFF" filter="url(#f1jufcunntuvjn)" height="29.1328" style="stroke:#A80036;stroke-width:1;" width="10" x="1043.1948" y="904.4219"/></g><g><title>Service Registry</title><rect fill="#FFFFFF" filter="url(#f1jufcunntuvjn)" height="34.1328" style="stroke:#A80036;stroke-width:1;" width="10" x="1134.0654" y="482.8906"/></g><g><title>Payee Registry</title><rect fill="#FFFFFF" filter="url(#f1jufcunntuvjn)" height="29.1328" style="stroke:#A80036;stroke-width:1;" width="10" x="1259.5942" y="203.8281"/></g><g><title>CBI</title><rect fill="#FFFFFF" filter="url(#f1jufcunntuvjn)" height="68.2656" style="stroke:#A80036;stroke-width:1;" width="10" x="1345.811" y="704.8203"/></g><rect fill="none" filter="url(#f1jufcunntuvjn)" height="959.1328" style="stroke:#000000;stroke-width:2;" width="1184.1064" x="217.459" y="165.5625"/><rect fill="none" filter="url(#f1jufcunntuvjn)" height="669.2656" style="stroke:#000000;stroke-width:2;" width="1164.1064" x="227.459" y="391.4922"/><rect fill="none" filter="url(#f1jufcunntuvjn)" height="414.5313" style="stroke:#000000;stroke-width:2;" width="1144.1064" x="237.459" y="566.1563"/><g><title>PagoPa GDP Queue</title><rect fill="#000000" fill-opacity="0.00000" height="1074.3984" width="8" x="155.2295" y="67.2969"/><line style="stroke:#A80036;stroke-width:1;stroke-dasharray:5.0,5.0;" x1="159" x2="159" y1="67.2969" y2="1141.6953"/></g><g><title>Message Consumer</title><rect fill="#000000" fill-opacity="0.00000" height="1074.3984" width="8" x="321.0576" y="67.2969"/><line style="stroke:#A80036;stroke-width:1;stroke-dasharray:5.0,5.0;" x1="324.459" x2="324.459" y1="67.2969" y2="1141.6953"/></g><g><title>Pagopa - SP Creditore</title><rect fill="#000000" fill-opacity="0.00000" height="1074.3984" width="8" x="608.6592" y="67.2969"/><line style="stroke:#A80036;stroke-width:1;stroke-dasharray:5.0,5.0;" x1="612.1514" x2="612.1514" y1="67.2969" y2="1141.6953"/></g><g><title>Gestore Repository</title><rect fill="#000000" fill-opacity="0.00000" height="1074.3984" width="8" x="871.3335" y="67.2969"/><line style="stroke:#A80036;stroke-width:1;stroke-dasharray:5.0,5.0;" x1="874.9824" x2="874.9824" y1="67.2969" y2="1141.6953"/></g><g><title>Payer</title><rect fill="#000000" fill-opacity="0.00000" height="1074.3984" width="8" x="990.5527" y="67.2969"/><line style="stroke:#A80036;stroke-width:1;stroke-dasharray:5.0,5.0;" x1="993.7148" x2="993.7148" y1="67.2969" y2="1141.6953"/></g><g><title>SRTP</title><rect fill="#000000" fill-opacity="0.00000" height="1074.3984" width="8" x="1044.1948" y="67.2969"/><line style="stroke:#A80036;stroke-width:1;stroke-dasharray:5.0,5.0;" x1="1047.3906" x2="1047.3906" y1="67.2969" y2="1141.6953"/></g><g><title>Service Registry</title><rect fill="#000000" fill-opacity="0.00000" height="1074.3984" width="8" x="1135.0654" y="67.2969"/><line style="stroke:#A80036;stroke-width:1;stroke-dasharray:5.0,5.0;" x1="1138.999" x2="1138.999" y1="67.2969" y2="1141.6953"/></g><g><title>Payee Registry</title><rect fill="#000000" fill-opacity="0.00000" height="1074.3984" width="8" x="1260.5942" y="67.2969"/><line style="stroke:#A80036;stroke-width:1;stroke-dasharray:5.0,5.0;" x1="1264.1318" x2="1264.1318" y1="67.2969" y2="1141.6953"/></g><g><title>CBI</title><rect fill="#000000" fill-opacity="0.00000" height="1074.3984" width="8" x="1346.811" y="67.2969"/><line style="stroke:#A80036;stroke-width:1;stroke-dasharray:5.0,5.0;" x1="1350.0566" x2="1350.0566" y1="67.2969" y2="1141.6953"/></g><g class="participant participant-head" data-participant="Queue"><path d="M86,41 L232.459,41 C237.459,41 237.459,54.1484 237.459,54.1484 C237.459,54.1484 237.459,67.2969 232.459,67.2969 L86,67.2969 C81,67.2969 81,54.1484 81,54.1484 C81,54.1484 81,41 86,41" fill="#FEFECE" filter="url(#f1jufcunntuvjn)" style="stroke:#A80036;stroke-width:2;"/><path d="M232.459,41 C227.459,41 227.459,54.1484 227.459,54.1484 C227.459,67.2969 232.459,67.2969 232.459,67.2969" fill="none" style="stroke:#A80036;stroke-width:2;"/><text fill="#000000" font-family="sans-serif" font-size="14" lengthAdjust="spacing" textLength="136.459" x="86" y="58.9951">PagoPa GDP Queue</text></g><g class="participant participant-tail" data-participant="Queue"><path d="M86,1140.6953 L232.459,1140.6953 C237.459,1140.6953 237.459,1153.8438 237.459,1153.8438 C237.459,1153.8438 237.459,1166.9922 232.459,1166.9922 L86,1166.9922 C81,1166.9922 81,1153.8438 81,1153.8438 C81,1153.8438 81,1140.6953 86,1140.6953" fill="#FEFECE" filter="url(#f1jufcunntuvjn)" style="stroke:#A80036;stroke-width:2;"/><path d="M232.459,1140.6953 C227.459,1140.6953 227.459,1153.8438 227.459,1153.8438 C227.459,1166.9922 232.459,1166.9922 232.459,1166.9922" fill="none" style="stroke:#A80036;stroke-width:2;"/><text fill="#000000" font-family="sans-serif" font-size="14" lengthAdjust="spacing" textLength="136.459" x="86" y="1158.6904">PagoPa GDP Queue</text></g><g class="participant participant-head" data-participant="Consumer"><rect fill="#FEFECE" filter="url(#f1jufcunntuvjn)" height="30.2969" style="stroke:#A80036;stroke-width:1.5;" width="151.1973" x="247.459" y="32"/><text fill="#000000" font-family="sans-serif" font-size="14" lengthAdjust="spacing" textLength="137.1973" x="254.459" y="51.9951">Message Consumer</text></g><g class="participant participant-tail" data-participant="Consumer"><rect fill="#FEFECE" filter="url(#f1jufcunntuvjn)" height="30.2969" style="stroke:#A80036;stroke-width:1.5;" width="151.1973" x="247.459" y="1140.6953"/><text fill="#000000" font-family="sans-serif" font-size="14" lengthAdjust="spacing" textLength="137.1973" x="254.459" y="1160.6904">Message Consumer</text></g><g class="participant participant-head" data-participant="SPC"><rect fill="#FEFECE" filter="url(#f1jufcunntuvjn)" height="30.2969" style="stroke:#A80036;stroke-width:1.5;" width="167.0156" x="527.1514" y="32"/><text fill="#000000" font-family="sans-serif" font-size="14" lengthAdjust="spacing" textLength="153.0156" x="534.1514" y="51.9951">Pagopa - SP Creditore</text></g><g class="participant participant-tail" data-participant="SPC"><rect fill="#FEFECE" filter="url(#f1jufcunntuvjn)" height="30.2969" style="stroke:#A80036;stroke-width:1.5;" width="167.0156" x="527.1514" y="1140.6953"/><text fill="#000000" font-family="sans-serif" font-size="14" lengthAdjust="spacing" textLength="153.0156" x="534.1514" y="1160.6904">Pagopa - SP Creditore</text></g><g class="participant participant-head" data-participant="GR"><rect fill="#FEFECE" filter="url(#f1jufcunntuvjn)" height="30.2969" style="stroke:#A80036;stroke-width:1.5;" width="148.7021" x="798.9824" y="32"/><text fill="#000000" font-family="sans-serif" font-size="14" lengthAdjust="spacing" textLength="134.7021" x="805.9824" y="51.9951">Gestore Repository</text></g><g class="participant participant-tail" data-participant="GR"><rect fill="#FEFECE" filter="url(#f1jufcunntuvjn)" height="30.2969" style="stroke:#A80036;stroke-width:1.5;" width="148.7021" x="798.9824" y="1140.6953"/><text fill="#000000" font-family="sans-serif" font-size="14" lengthAdjust="spacing" textLength="134.7021" x="805.9824" y="1160.6904">Gestore Repository</text></g><g class="participant participant-head" data-participant="Payer"><text fill="#000000" font-family="sans-serif" font-size="14" lengthAdjust="spacing" textLength="39.6758" x="971.7148" y="63.9951">Payer</text><path d="M976.5527,15 C976.5527,5 994.5527,5 994.5527,5 C994.5527,5 1012.5527,5 1012.5527,15 L1012.5527,41 C1012.5527,51 994.5527,51 994.5527,51 C994.5527,51 976.5527,51 976.5527,41 L976.5527,15" fill="#FEFECE" filter="url(#f1jufcunntuvjn)" style="stroke:#A80036;stroke-width:1.5;"/><path d="M976.5527,15 C976.5527,25 994.5527,25 994.5527,25 C994.5527,25 1012.5527,25 1012.5527,15" fill="none" style="stroke:#A80036;stroke-width:1.5;"/></g><g class="participant participant-tail" data-participant="Payer"><text fill="#000000" font-family="sans-serif" font-size="14" lengthAdjust="spacing" textLength="39.6758" x="971.7148" y="1153.6904">Payer</text><path d="M976.5527,1166.9922 C976.5527,1156.9922 994.5527,1156.9922 994.5527,1156.9922 C994.5527,1156.9922 1012.5527,1156.9922 1012.5527,1166.9922 L1012.5527,1192.9922 C1012.5527,1202.9922 994.5527,1202.9922 994.5527,1202.9922 C994.5527,1202.9922 976.5527,1202.9922 976.5527,1192.9922 L976.5527,1166.9922" fill="#FEFECE" filter="url(#f1jufcunntuvjn)" style="stroke:#A80036;stroke-width:1.5;"/><path d="M976.5527,1166.9922 C976.5527,1176.9922 994.5527,1176.9922 994.5527,1176.9922 C994.5527,1176.9922 1012.5527,1176.9922 1012.5527,1166.9922" fill="none" style="stroke:#A80036;stroke-width:1.5;"/></g><g class="participant participant-head" data-participant="SRTP"><text fill="#000000" font-family="sans-serif" font-size="14" lengthAdjust="spacing" textLength="35.6084" x="1027.3906" y="63.9951">SRTP</text><path d="M1030.1948,15 C1030.1948,5 1048.1948,5 1048.1948,5 C1048.1948,5 1066.1948,5 1066.1948,15 L1066.1948,41 C1066.1948,51 1048.1948,51 1048.1948,51 C1048.1948,51 1030.1948,51 1030.1948,41 L1030.1948,15" fill="#FEFECE" filter="url(#f1jufcunntuvjn)" style="stroke:#A80036;stroke-width:1.5;"/><path d="M1030.1948,15 C1030.1948,25 1048.1948,25 1048.1948,25 C1048.1948,25 1066.1948,25 1066.1948,15" fill="none" style="stroke:#A80036;stroke-width:1.5;"/></g><g class="participant participant-tail" data-participant="SRTP"><text fill="#000000" font-family="sans-serif" font-size="14" lengthAdjust="spacing" textLength="35.6084" x="1027.3906" y="1153.6904">SRTP</text><path d="M1030.1948,1166.9922 C1030.1948,1156.9922 1048.1948,1156.9922 1048.1948,1156.9922 C1048.1948,1156.9922 1066.1948,1156.9922 1066.1948,1166.9922 L1066.1948,1192.9922 C1066.1948,1202.9922 1048.1948,1202.9922 1048.1948,1202.9922 C1048.1948,1202.9922 1030.1948,1202.9922 1030.1948,1192.9922 L1030.1948,1166.9922" fill="#FEFECE" filter="url(#f1jufcunntuvjn)" style="stroke:#A80036;stroke-width:1.5;"/><path d="M1030.1948,1166.9922 C1030.1948,1176.9922 1048.1948,1176.9922 1048.1948,1176.9922 C1048.1948,1176.9922 1066.1948,1176.9922 1066.1948,1166.9922" fill="none" style="stroke:#A80036;stroke-width:1.5;"/></g><g class="participant participant-head" data-participant="SR"><text fill="#000000" font-family="sans-serif" font-size="14" lengthAdjust="spacing" textLength="114.1328" x="1078.999" y="63.9951">Service Registry</text><path d="M1121.0654,15 C1121.0654,5 1139.0654,5 1139.0654,5 C1139.0654,5 1157.0654,5 1157.0654,15 L1157.0654,41 C1157.0654,51 1139.0654,51 1139.0654,51 C1139.0654,51 1121.0654,51 1121.0654,41 L1121.0654,15" fill="#FEFECE" filter="url(#f1jufcunntuvjn)" style="stroke:#A80036;stroke-width:1.5;"/><path d="M1121.0654,15 C1121.0654,25 1139.0654,25 1139.0654,25 C1139.0654,25 1157.0654,25 1157.0654,15" fill="none" style="stroke:#A80036;stroke-width:1.5;"/></g><g class="participant participant-tail" data-participant="SR"><text fill="#000000" font-family="sans-serif" font-size="14" lengthAdjust="spacing" textLength="114.1328" x="1078.999" y="1153.6904">Service Registry</text><path d="M1121.0654,1166.9922 C1121.0654,1156.9922 1139.0654,1156.9922 1139.0654,1156.9922 C1139.0654,1156.9922 1157.0654,1156.9922 1157.0654,1166.9922 L1157.0654,1192.9922 C1157.0654,1202.9922 1139.0654,1202.9922 1139.0654,1202.9922 C1139.0654,1202.9922 1121.0654,1202.9922 1121.0654,1192.9922 L1121.0654,1166.9922" fill="#FEFECE" filter="url(#f1jufcunntuvjn)" style="stroke:#A80036;stroke-width:1.5;"/><path d="M1121.0654,1166.9922 C1121.0654,1176.9922 1139.0654,1176.9922 1139.0654,1176.9922 C1139.0654,1176.9922 1157.0654,1176.9922 1157.0654,1166.9922" fill="none" style="stroke:#A80036;stroke-width:1.5;"/></g><g class="participant participant-head" data-participant="PR"><text fill="#000000" font-family="sans-serif" font-size="14" lengthAdjust="spacing" textLength="104.9248" x="1209.1318" y="63.9951">Payee Registry</text><path d="M1246.5942,15 C1246.5942,5 1264.5942,5 1264.5942,5 C1264.5942,5 1282.5942,5 1282.5942,15 L1282.5942,41 C1282.5942,51 1264.5942,51 1264.5942,51 C1264.5942,51 1246.5942,51 1246.5942,41 L1246.5942,15" fill="#FEFECE" filter="url(#f1jufcunntuvjn)" style="stroke:#A80036;stroke-width:1.5;"/><path d="M1246.5942,15 C1246.5942,25 1264.5942,25 1264.5942,25 C1264.5942,25 1282.5942,25 1282.5942,15" fill="none" style="stroke:#A80036;stroke-width:1.5;"/></g><g class="participant participant-tail" data-participant="PR"><text fill="#000000" font-family="sans-serif" font-size="14" lengthAdjust="spacing" textLength="104.9248" x="1209.1318" y="1153.6904">Payee Registry</text><path d="M1246.5942,1166.9922 C1246.5942,1156.9922 1264.5942,1156.9922 1264.5942,1156.9922 C1264.5942,1156.9922 1282.5942,1156.9922 1282.5942,1166.9922 L1282.5942,1192.9922 C1282.5942,1202.9922 1264.5942,1202.9922 1264.5942,1202.9922 C1264.5942,1202.9922 1246.5942,1202.9922 1246.5942,1192.9922 L1246.5942,1166.9922" fill="#FEFECE" filter="url(#f1jufcunntuvjn)" style="stroke:#A80036;stroke-width:1.5;"/><path d="M1246.5942,1166.9922 C1246.5942,1176.9922 1264.5942,1176.9922 1264.5942,1176.9922 C1264.5942,1176.9922 1282.5942,1176.9922 1282.5942,1166.9922" fill="none" style="stroke:#A80036;stroke-width:1.5;"/></g><g class="participant participant-head" data-participant="SPD"><rect fill="#FEFECE" filter="url(#f1jufcunntuvjn)" height="30.2969" style="stroke:#A80036;stroke-width:1.5;" width="37.5088" x="1330.0566" y="32"/><text fill="#000000" font-family="sans-serif" font-size="14" lengthAdjust="spacing" textLength="23.5088" x="1337.0566" y="51.9951">CBI</text></g><g class="participant participant-tail" data-participant="SPD"><rect fill="#FEFECE" filter="url(#f1jufcunntuvjn)" height="30.2969" style="stroke:#A80036;stroke-width:1.5;" width="37.5088" x="1330.0566" y="1140.6953"/><text fill="#000000" font-family="sans-serif" font-size="14" lengthAdjust="spacing" textLength="23.5088" x="1337.0566" y="1160.6904">CBI</text></g><g><title>Message Consumer</title><rect fill="#FFFFFF" filter="url(#f1jufcunntuvjn)" height="1028.2656" style="stroke:#A80036;stroke-width:1;" width="10" x="320.0576" y="103.4297"/></g><g><title>Pagopa - SP Creditore</title><rect fill="#FFFFFF" filter="url(#f1jufcunntuvjn)" height="827.4688" style="stroke:#A80036;stroke-width:1;" width="10" x="607.6592" y="304.2266"/></g><g><title>Gestore Repository</title><rect fill="#FFFFFF" filter="url(#f1jufcunntuvjn)" height="96.3984" style="stroke:#A80036;stroke-width:1;" width="10" x="870.3335" y="333.3594"/></g><g><title>Gestore Repository</title><rect fill="#FFFFFF" filter="url(#f1jufcunntuvjn)" height="87.2656" style="stroke:#A80036;stroke-width:1;" width="10" x="870.3335" y="463.8906"/></g><g><title>Payer</title><rect fill="#FFFFFF" filter="url(#f1jufcunntuvjn)" height="14" style="stroke:#A80036;stroke-width:1;" width="10" x="989.5527" y="362.4922"/></g><g><title>SRTP</title><rect fill="#FFFFFF" filter="url(#f1jufcunntuvjn)" height="29.1328" style="stroke:#A80036;stroke-width:1;" width="10" x="1043.1948" y="646.5547"/></g><g><title>SRTP</title><rect fill="#FFFFFF" filter="url(#f1jufcunntuvjn)" height="29.1328" style="stroke:#A80036;stroke-width:1;" width="10" x="1043.1948" y="802.2188"/></g><g><title>SRTP</title><rect fill="#FFFFFF" filter="url(#f1jufcunntuvjn)" height="29.1328" style="stroke:#A80036;stroke-width:1;" width="10" x="1043.1948" y="904.4219"/></g><g><title>Service Registry</title><rect fill="#FFFFFF" filter="url(#f1jufcunntuvjn)" height="34.1328" style="stroke:#A80036;stroke-width:1;" width="10" x="1134.0654" y="482.8906"/></g><g><title>Payee Registry</title><rect fill="#FFFFFF" filter="url(#f1jufcunntuvjn)" height="29.1328" style="stroke:#A80036;stroke-width:1;" width="10" x="1259.5942" y="203.8281"/></g><g><title>CBI</title><rect fill="#FFFFFF" filter="url(#f1jufcunntuvjn)" height="68.2656" style="stroke:#A80036;stroke-width:1;" width="10" x="1345.811" y="704.8203"/></g><g class="message" data-participant-1="Queue" data-participant-2="Consumer"><polygon fill="#A80036" points="308.0576,99.4297,318.0576,103.4297,308.0576,107.4297,312.0576,103.4297" style="stroke:#A80036;stroke-width:1;"/><line style="stroke:#A80036;stroke-width:1;" x1="159.2295" x2="314.0576" y1="103.4297" y2="103.4297"/><text fill="#000000" font-family="sans-serif" font-size="13" lengthAdjust="spacing" textLength="103.8159" x="166.2295" y="98.3638">Queue Message</text></g><path d="M5,82.2969 L5,107.2969 L150,107.2969 L150,92.2969 L140,82.2969 L5,82.2969" fill="#FBFB77" filter="url(#f1jufcunntuvjn)" style="stroke:#A80036;stroke-width:1;"/><path d="M140,82.2969 L140,92.2969 L150,92.2969 L140,82.2969" fill="#FBFB77" style="stroke:#A80036;stroke-width:1;"/><text fill="#000000" font-family="sans-serif" font-size="13" lengthAdjust="spacing" textLength="124.9536" x="11" y="99.3638">RTP data from GDP</text><g class="message" data-participant-1="Consumer" data-participant-2="Consumer"><line style="stroke:#A80036;stroke-width:1;" x1="330.0576" x2="372.0576" y1="137.5625" y2="137.5625"/><line style="stroke:#A80036;stroke-width:1;" x1="372.0576" x2="372.0576" y1="137.5625" y2="150.5625"/><line style="stroke:#A80036;stroke-width:1;" x1="331.0576" x2="372.0576" y1="150.5625" y2="150.5625"/><polygon fill="#A80036" points="341.0576,146.5625,331.0576,150.5625,341.0576,154.5625,337.0576,150.5625" style="stroke:#A80036;stroke-width:1;"/><text fill="#000000" font-family="sans-serif" font-size="13" lengthAdjust="spacing" textLength="169.0952" x="337.0576" y="132.4966">Check message operation</text></g><path d="M528.0952,122.9297 L528.0952,147.9297 L702.0952,147.9297 L702.0952,132.9297 L692.0952,122.9297 L528.0952,122.9297" fill="#FBFB77" filter="url(#f1jufcunntuvjn)" style="stroke:#A80036;stroke-width:1;"/><path d="M692.0952,122.9297 L692.0952,132.9297 L702.0952,132.9297 L692.0952,122.9297" fill="#FBFB77" style="stroke:#A80036;stroke-width:1;"/><text fill="#000000" font-family="sans-serif" font-size="13" lengthAdjust="spacing" textLength="153.1182" x="534.0952" y="139.9966">Validate operation type</text><path d="M217.459,165.5625 L281.9019,165.5625 L281.9019,172.6953 L271.9019,182.6953 L217.459,182.6953 L217.459,165.5625" fill="#EEEEEE" style="stroke:#000000;stroke-width:1;"/><rect fill="none" height="959.1328" style="stroke:#000000;stroke-width:2;" width="1184.1064" x="217.459" y="165.5625"/><text fill="#000000" font-family="sans-serif" font-size="13" font-weight="bold" lengthAdjust="spacing" textLength="19.4429" x="232.459" y="178.6294">alt</text><text fill="#000000" font-family="sans-serif" font-size="11" font-weight="bold" lengthAdjust="spacing" textLength="194.3799" x="296.9019" y="177.7729">[message is CREATE operation]</text><g class="message" data-participant-1="Consumer" data-participant-2="PR"><polygon fill="#A80036" points="1247.5942,199.8281,1257.5942,203.8281,1247.5942,207.8281,1251.5942,203.8281" style="stroke:#A80036;stroke-width:1;"/><line style="stroke:#A80036;stroke-width:1;" x1="330.0576" x2="1253.5942" y1="203.8281" y2="203.8281"/><text fill="#000000" font-family="sans-serif" font-size="13" lengthAdjust="spacing" textLength="131.8154" x="337.0576" y="198.7622">Retrieve Payee data</text></g><g class="message" data-participant-1="PR" data-participant-2="Consumer"><polygon fill="#A80036" points="341.0576,228.9609,331.0576,232.9609,341.0576,236.9609,337.0576,232.9609" style="stroke:#A80036;stroke-width:1;"/><line style="stroke:#A80036;stroke-width:1;stroke-dasharray:2.0,2.0;" x1="335.0576" x2="1263.5942" y1="232.9609" y2="232.9609"/><text fill="#000000" font-family="sans-serif" font-size="13" lengthAdjust="spacing" textLength="72.9092" x="347.0576" y="227.895">Payee data</text></g><g class="message" data-participant-1="Consumer" data-participant-2="Consumer"><line style="stroke:#A80036;stroke-width:1;" x1="330.0576" x2="372.0576" y1="262.0938" y2="262.0938"/><line style="stroke:#A80036;stroke-width:1;" x1="372.0576" x2="372.0576" y1="262.0938" y2="275.0938"/><line style="stroke:#A80036;stroke-width:1;" x1="331.0576" x2="372.0576" y1="275.0938" y2="275.0938"/><polygon fill="#A80036" points="341.0576,271.0938,331.0576,275.0938,341.0576,279.0938,337.0576,275.0938" style="stroke:#A80036;stroke-width:1;"/><text fill="#000000" font-family="sans-serif" font-size="13" lengthAdjust="spacing" textLength="253.6016" x="337.0576" y="257.0278">Map message and Payee data into RTP</text></g><g class="message" data-participant-1="Consumer" data-participant-2="SPC"><polygon fill="#A80036" points="595.6592,300.2266,605.6592,304.2266,595.6592,308.2266,599.6592,304.2266" style="stroke:#A80036;stroke-width:1;"/><line style="stroke:#A80036;stroke-width:1;" x1="330.0576" x2="601.6592" y1="304.2266" y2="304.2266"/><text fill="#000000" font-family="sans-serif" font-size="13" lengthAdjust="spacing" textLength="195.3872" x="337.0576" y="299.1606">Process CREATE RTP Message</text></g><g class="message" data-participant-1="SPC" data-participant-2="GR"><polygon fill="#A80036" points="858.3335,329.3594,868.3335,333.3594,858.3335,337.3594,862.3335,333.3594" style="stroke:#A80036;stroke-width:1;"/><line style="stroke:#A80036;stroke-width:1;" x1="617.6592" x2="864.3335" y1="333.3594" y2="333.3594"/><text fill="#000000" font-family="sans-serif" font-size="13" lengthAdjust="spacing" textLength="147.5322" x="624.6592" y="328.2935">GET /activations/payer</text></g><g class="message" data-participant-1="GR" data-participant-2="Payer"><polygon fill="#A80036" points="977.5527,358.4922,987.5527,362.4922,977.5527,366.4922,981.5527,362.4922" style="stroke:#A80036;stroke-width:1;"/><line style="stroke:#A80036;stroke-width:1;" x1="880.3335" x2="983.5527" y1="362.4922" y2="362.4922"/><text fill="#000000" font-family="sans-serif" font-size="13" lengthAdjust="spacing" textLength="90.2192" x="887.3335" y="357.4263">findByPayerId</text></g><g class="message" data-participant-1="Payer" data-participant-2="GR"><polygon fill="#A80036" points="891.3335,372.4922,881.3335,376.4922,891.3335,380.4922,887.3335,376.4922" style="stroke:#A80036;stroke-width:1;"/><line style="stroke:#A80036;stroke-width:1;stroke-dasharray:2.0,2.0;" x1="885.3335" x2="993.5527" y1="376.4922" y2="376.4922"/></g><path d="M227.459,391.4922 L291.9019,391.4922 L291.9019,398.625 L281.9019,408.625 L227.459,408.625 L227.459,391.4922" fill="#EEEEEE" style="stroke:#000000;stroke-width:1;"/><rect fill="none" height="669.2656" style="stroke:#000000;stroke-width:2;" width="1164.1064" x="227.459" y="391.4922"/><text fill="#000000" font-family="sans-serif" font-size="13" font-weight="bold" lengthAdjust="spacing" textLength="19.4429" x="242.459" y="404.5591">alt</text><text fill="#000000" font-family="sans-serif" font-size="11" font-weight="bold" lengthAdjust="spacing" textLength="99.3062" x="306.9019" y="403.7026">[user activated]</text><g class="message" data-participant-1="GR" data-participant-2="SPC"><polygon fill="#A80036" points="628.6592,425.7578,618.6592,429.7578,628.6592,433.7578,624.6592,429.7578" style="stroke:#A80036;stroke-width:1;"/><line style="stroke:#A80036;stroke-width:1;stroke-dasharray:2.0,2.0;" x1="622.6592" x2="874.3335" y1="429.7578" y2="429.7578"/><text fill="#000000" font-family="sans-serif" font-size="13" lengthAdjust="spacing" textLength="195.8062" x="634.6592" y="424.6919">payer and its Service Provider</text></g><g class="message" data-participant-1="SPC" data-participant-2="GR"><polygon fill="#A80036" points="858.3335,459.8906,868.3335,463.8906,858.3335,467.8906,862.3335,463.8906" style="stroke:#A80036;stroke-width:1;"/><line style="stroke:#A80036;stroke-width:1;" x1="617.6592" x2="864.3335" y1="463.8906" y2="463.8906"/><text fill="#000000" font-family="sans-serif" font-size="13" lengthAdjust="spacing" textLength="106.1899" x="624.6592" y="458.8247">getRegistryData</text></g><path d="M421,442.7578 L421,467.7578 L597,467.7578 L597,452.7578 L587,442.7578 L421,442.7578" fill="#FBFB77" filter="url(#f1jufcunntuvjn)" style="stroke:#A80036;stroke-width:1;"/><path d="M587,442.7578 L587,452.7578 L597,452.7578 L587,442.7578" fill="#FBFB77" style="stroke:#A80036;stroke-width:1;"/><text fill="#000000" font-family="sans-serif" font-size="13" lengthAdjust="spacing" textLength="155.854" x="427" y="459.8247">Search key: ID Payer SP</text><g class="message" data-participant-1="GR" data-participant-2="SR"><polygon fill="#A80036" points="1122.0654,478.8906,1132.0654,482.8906,1122.0654,486.8906,1126.0654,482.8906" style="stroke:#A80036;stroke-width:1;"/><line style="stroke:#A80036;stroke-width:1;" x1="880.3335" x2="1128.0654" y1="482.8906" y2="482.8906"/></g><g class="message" data-participant-1="SR" data-participant-2="GR"><polygon fill="#A80036" points="891.3335,513.0234,881.3335,517.0234,891.3335,521.0234,887.3335,517.0234" style="stroke:#A80036;stroke-width:1;"/><line style="stroke:#A80036;stroke-width:1;stroke-dasharray:2.0,2.0;" x1="885.3335" x2="1138.0654" y1="517.0234" y2="517.0234"/><text fill="#000000" font-family="sans-serif" font-size="13" lengthAdjust="spacing" textLength="139.6294" x="897.3335" y="511.9575">Service Provider data</text></g><path d="M1149,495.8906 L1149,520.8906 L1334,520.8906 L1334,505.8906 L1324,495.8906 L1149,495.8906" fill="#FBFB77" filter="url(#f1jufcunntuvjn)" style="stroke:#A80036;stroke-width:1;"/><path d="M1324,495.8906 L1324,505.8906 L1334,505.8906 L1324,495.8906" fill="#FBFB77" style="stroke:#A80036;stroke-width:1;"/><text fill="#000000" font-family="sans-serif" font-size="13" lengthAdjust="spacing" textLength="164.7407" x="1155" y="512.9575">service_endpoint, oauth2</text><g class="message" data-participant-1="GR" data-participant-2="SPC"><polygon fill="#A80036" points="628.6592,547.1563,618.6592,551.1563,628.6592,555.1563,624.6592,551.1563" style="stroke:#A80036;stroke-width:1;"/><line style="stroke:#A80036;stroke-width:1;stroke-dasharray:2.0,2.0;" x1="622.6592" x2="874.3335" y1="551.1563" y2="551.1563"/><text fill="#000000" font-family="sans-serif" font-size="13" lengthAdjust="spacing" textLength="139.6294" x="634.6592" y="546.0903">Service Provider data</text></g><path d="M237.459,566.1563 L301.9019,566.1563 L301.9019,573.2891 L291.9019,583.2891 L237.459,583.2891 L237.459,566.1563" fill="#EEEEEE" style="stroke:#000000;stroke-width:1;"/><rect fill="none" height="414.5313" style="stroke:#000000;stroke-width:2;" width="1144.1064" x="237.459" y="566.1563"/><text fill="#000000" font-family="sans-serif" font-size="13" font-weight="bold" lengthAdjust="spacing" textLength="19.4429" x="252.459" y="579.2231">alt</text><text fill="#000000" font-family="sans-serif" font-size="11" font-weight="bold" lengthAdjust="spacing" textLength="150.8848" x="316.9019" y="578.3667">[Service Provider is CBI]</text><g class="message" data-participant-1="SPC" data-participant-2="SPC"><line style="stroke:#A80036;stroke-width:1;" x1="617.6592" x2="659.6592" y1="604.4219" y2="604.4219"/><line style="stroke:#A80036;stroke-width:1;" x1="659.6592" x2="659.6592" y1="604.4219" y2="617.4219"/><line style="stroke:#A80036;stroke-width:1;" x1="618.6592" x2="659.6592" y1="617.4219" y2="617.4219"/><polygon fill="#A80036" points="628.6592,613.4219,618.6592,617.4219,628.6592,621.4219,624.6592,617.4219" style="stroke:#A80036;stroke-width:1;"/><text fill="#000000" font-family="sans-serif" font-size="13" lengthAdjust="spacing" textLength="228.6743" x="624.6592" y="599.356">add activation data to EPC payload</text></g><g class="message" data-participant-1="SPC" data-participant-2="SRTP"><polygon fill="#A80036" points="1031.1948,642.5547,1041.1948,646.5547,1031.1948,650.5547,1035.1948,646.5547" style="stroke:#A80036;stroke-width:1;"/><line style="stroke:#A80036;stroke-width:1;" x1="617.6592" x2="1037.1948" y1="646.5547" y2="646.5547"/><text fill="#000000" font-family="sans-serif" font-size="13" lengthAdjust="spacing" textLength="184.9517" x="624.6592" y="641.4888">save RTP in status CREATED</text></g><g class="message" data-participant-1="SRTP" data-participant-2="SPC"><polygon fill="#A80036" points="628.6592,671.6875,618.6592,675.6875,628.6592,679.6875,624.6592,675.6875" style="stroke:#A80036;stroke-width:1;"/><line style="stroke:#A80036;stroke-width:1;stroke-dasharray:2.0,2.0;" x1="622.6592" x2="1047.1948" y1="675.6875" y2="675.6875"/><text fill="#000000" font-family="sans-serif" font-size="13" lengthAdjust="spacing" textLength="49.8037" x="634.6592" y="670.6216">created</text></g><g class="message" data-participant-1="SPC" data-participant-2="SPD"><polygon fill="#A80036" points="628.6592,700.8203,618.6592,704.8203,628.6592,708.8203,624.6592,704.8203" style="stroke:#A80036;stroke-width:1;"/><polygon fill="#A80036" points="1333.811,700.8203,1343.811,704.8203,1333.811,708.8203,1337.811,704.8203" style="stroke:#A80036;stroke-width:1;"/><line style="stroke:#A80036;stroke-width:1;" x1="622.6592" x2="1339.811" y1="704.8203" y2="704.8203"/><text fill="#000000" font-family="sans-serif" font-size="13" lengthAdjust="spacing" textLength="46.6934" x="634.6592" y="699.7544">oAuth2</text></g><g class="message" data-participant-1="SPC" data-participant-2="SPD"><polygon fill="#A80036" points="1333.811,734.9531,1343.811,738.9531,1333.811,742.9531,1337.811,738.9531" style="stroke:#A80036;stroke-width:1;"/><line style="stroke:#A80036;stroke-width:1;" x1="617.6592" x2="1339.811" y1="738.9531" y2="738.9531"/><text fill="#000000" font-family="sans-serif" font-size="13" lengthAdjust="spacing" textLength="174.5034" x="624.6592" y="733.8872">POST /sepa-request-to-pay</text></g><path d="M530,717.8203 L530,742.8203 L597,742.8203 L597,727.8203 L587,717.8203 L530,717.8203" fill="#FBFB77" filter="url(#f1jufcunntuvjn)" style="stroke:#A80036;stroke-width:1;"/><path d="M587,717.8203 L587,727.8203 L597,727.8203 L587,717.8203" fill="#FBFB77" style="stroke:#A80036;stroke-width:1;"/><text fill="#000000" font-family="sans-serif" font-size="13" lengthAdjust="spacing" textLength="46.6934" x="536" y="734.8872">oAuth2</text><g class="message" data-participant-1="SPD" data-participant-2="SPC"><polygon fill="#A80036" points="628.6592,769.0859,618.6592,773.0859,628.6592,777.0859,624.6592,773.0859" style="stroke:#A80036;stroke-width:1;"/><line style="stroke:#A80036;stroke-width:1;stroke-dasharray:2.0,2.0;" x1="622.6592" x2="1349.811" y1="773.0859" y2="773.0859"/><text fill="#000000" font-family="sans-serif" font-size="13" lengthAdjust="spacing" textLength="88.8037" x="634.6592" y="768.02">202 accepted</text></g><g class="message" data-participant-1="SPC" data-participant-2="SRTP"><polygon fill="#A80036" points="1031.1948,798.2188,1041.1948,802.2188,1031.1948,806.2188,1035.1948,802.2188" style="stroke:#A80036;stroke-width:1;"/><line style="stroke:#A80036;stroke-width:1;" x1="617.6592" x2="1037.1948" y1="802.2188" y2="802.2188"/><text fill="#000000" font-family="sans-serif" font-size="13" lengthAdjust="spacing" textLength="157.7012" x="624.6592" y="797.1528">save RTP in status SENT</text></g><g class="message" data-participant-1="SRTP" data-participant-2="SPC"><polygon fill="#A80036" points="628.6592,827.3516,618.6592,831.3516,628.6592,835.3516,624.6592,831.3516" style="stroke:#A80036;stroke-width:1;"/><line style="stroke:#A80036;stroke-width:1;stroke-dasharray:2.0,2.0;" x1="622.6592" x2="1047.1948" y1="831.3516" y2="831.3516"/><text fill="#000000" font-family="sans-serif" font-size="13" lengthAdjust="spacing" textLength="54.0566" x="634.6592" y="826.2856">updated</text></g><g class="message" data-participant-1="SPC" data-participant-2="Consumer"><polygon fill="#A80036" points="341.0576,856.4844,331.0576,860.4844,341.0576,864.4844,337.0576,860.4844" style="stroke:#A80036;stroke-width:1;"/><line style="stroke:#A80036;stroke-width:1;stroke-dasharray:2.0,2.0;" x1="335.0576" x2="606.6592" y1="860.4844" y2="860.4844"/><text fill="#000000" font-family="sans-serif" font-size="13" lengthAdjust="spacing" textLength="143.0381" x="347.0576" y="855.4185">Processing completed</text></g><line style="stroke:#000000;stroke-width:1;stroke-dasharray:2.0,2.0;" x1="237.459" x2="1381.5654" y1="869.4844" y2="869.4844"/><text fill="#000000" font-family="sans-serif" font-size="11" font-weight="bold" lengthAdjust="spacing" textLength="175.3608" x="242.459" y="879.6948">[Service Provider is not CBI]</text><g class="message" data-participant-1="SPC" data-participant-2="SRTP"><polygon fill="#A80036" points="1031.1948,900.4219,1041.1948,904.4219,1031.1948,908.4219,1035.1948,904.4219" style="stroke:#A80036;stroke-width:1;"/><line style="stroke:#A80036;stroke-width:1;" x1="617.6592" x2="1037.1948" y1="904.4219" y2="904.4219"/><text fill="#000000" font-family="sans-serif" font-size="13" lengthAdjust="spacing" textLength="157.7012" x="624.6592" y="899.356">save RTP in status SENT</text></g><g class="message" data-participant-1="SRTP" data-participant-2="SPC"><polygon fill="#A80036" points="628.6592,929.5547,618.6592,933.5547,628.6592,937.5547,624.6592,933.5547" style="stroke:#A80036;stroke-width:1;"/><line style="stroke:#A80036;stroke-width:1;stroke-dasharray:2.0,2.0;" x1="622.6592" x2="1047.1948" y1="933.5547" y2="933.5547"/><text fill="#000000" font-family="sans-serif" font-size="13" lengthAdjust="spacing" textLength="54.0566" x="634.6592" y="928.4888">updated</text></g><g class="message" data-participant-1="SPC" data-participant-2="Consumer"><polygon fill="#A80036" points="341.0576,963.6875,331.0576,967.6875,341.0576,971.6875,337.0576,967.6875" style="stroke:#A80036;stroke-width:1;"/><line style="stroke:#A80036;stroke-width:1;stroke-dasharray:2.0,2.0;" x1="335.0576" x2="606.6592" y1="967.6875" y2="967.6875"/><text fill="#000000" font-family="sans-serif" font-size="13" lengthAdjust="spacing" textLength="207.4097" x="347.0576" y="962.6216">Processing completed (Mocked)</text></g><path d="M622,946.5547 L622,971.5547 L840,971.5547 L840,956.5547 L830,946.5547 L622,946.5547" fill="#FBFB77" filter="url(#f1jufcunntuvjn)" style="stroke:#A80036;stroke-width:1;"/><path d="M830,946.5547 L830,956.5547 L840,956.5547 L830,946.5547" fill="#FBFB77" style="stroke:#A80036;stroke-width:1;"/><text fill="#000000" font-family="sans-serif" font-size="13" lengthAdjust="spacing" textLength="197.6724" x="628" y="963.6216">Mocked during CBI integration</text><line style="stroke:#000000;stroke-width:1;stroke-dasharray:2.0,2.0;" x1="227.459" x2="1391.5654" y1="988.6875" y2="988.6875"/><text fill="#000000" font-family="sans-serif" font-size="11" font-weight="bold" lengthAdjust="spacing" textLength="123.7822" x="232.459" y="998.8979">[user not activated]</text><g class="message" data-participant-1="GR" data-participant-2="SPC"><polygon fill="#A80036" points="628.6592,1019.625,618.6592,1023.625,628.6592,1027.625,624.6592,1023.625" style="stroke:#A80036;stroke-width:1;"/><line style="stroke:#A80036;stroke-width:1;stroke-dasharray:2.0,2.0;" x1="622.6592" x2="874.3335" y1="1023.625" y2="1023.625"/><text fill="#000000" font-family="sans-serif" font-size="13" lengthAdjust="spacing" textLength="91.6284" x="634.6592" y="1018.5591">404 not found</text></g><g class="message" data-participant-1="SPC" data-participant-2="Consumer"><polygon fill="#A80036" points="341.0576,1048.7578,331.0576,1052.7578,341.0576,1056.7578,337.0576,1052.7578" style="stroke:#A80036;stroke-width:1;"/><line style="stroke:#A80036;stroke-width:1;stroke-dasharray:2.0,2.0;" x1="335.0576" x2="606.6592" y1="1052.7578" y2="1052.7578"/><text fill="#000000" font-family="sans-serif" font-size="13" lengthAdjust="spacing" textLength="110.0811" x="347.0576" y="1047.6919">Processing failed</text></g><line style="stroke:#000000;stroke-width:1;stroke-dasharray:2.0,2.0;" x1="217.459" x2="1401.5654" y1="1068.7578" y2="1068.7578"/><text fill="#000000" font-family="sans-serif" font-size="11" font-weight="bold" lengthAdjust="spacing" textLength="218.856" x="222.459" y="1078.9683">[message is not CREATE operation]</text><g class="message" data-participant-1="Consumer" data-participant-2="Consumer"><line style="stroke:#A80036;stroke-width:1;" x1="330.0576" x2="372.0576" y1="1103.6953" y2="1103.6953"/><line style="stroke:#A80036;stroke-width:1;" x1="372.0576" x2="372.0576" y1="1103.6953" y2="1116.6953"/><line style="stroke:#A80036;stroke-width:1;" x1="331.0576" x2="372.0576" y1="1116.6953" y2="1116.6953"/><polygon fill="#A80036" points="341.0576,1112.6953,331.0576,1116.6953,341.0576,1120.6953,337.0576,1116.6953" style="stroke:#A80036;stroke-width:1;"/><text fill="#000000" font-family="sans-serif" font-size="13" lengthAdjust="spacing" textLength="102.1211" x="337.0576" y="1098.6294">Skip processing</text></g><path d="M461.1211,1089.0625 L461.1211,1114.0625 L639.1211,1114.0625 L639.1211,1099.0625 L629.1211,1089.0625 L461.1211,1089.0625" fill="#FBFB77" filter="url(#f1jufcunntuvjn)" style="stroke:#A80036;stroke-width:1;"/><path d="M629.1211,1089.0625 L629.1211,1099.0625 L639.1211,1099.0625 L629.1211,1089.0625" fill="#FBFB77" style="stroke:#A80036;stroke-width:1;"/><text fill="#000000" font-family="sans-serif" font-size="13" lengthAdjust="spacing" textLength="157.1743" x="467.1211" y="1106.1294">Different operation type</text><!--SRC=[nLNBRjim4BphAnOvjK2D145EHb4WiGp3XxIgPFHQiEBA9coBB4aPyDztbtfHYfDh3nOaSZaxCnpIxgXgiDfXyhV11k4k4tkT2TYa6VpaaJiGhdrBZB1UbSg8siFTApedzWWhNRlcZ3RKzH_JKeOq0XPGPB2oA9NNjiKjijMqT8EE9o57entNNKFT9a-ayEAFS87XjMiNtgAP8jzbBIwznEDeBwfarBroliCivfYp-IoVKbkzR3lEQP84Gs3nRL2yR3s2pfQarXxXX9LV0d41xWILrMSsDX6bLnVXH_EI_cKAkJfWUOHpvxGsQ8LNkcx1hTeV2FsNE2d9MCCq-Al1H9pyi5BHpkJhvzqwmeWxPZcnH6yLNX1QAvZmo9Eyo79OJCX5THBZojjQNeKP-8XQHij1rLwpIvEL50tgONL9Qthsx6HlyD2HCqG_NhCX7Plr3kwxITBfxaq8oL1EKThaGJIFBw5IjNovXe-jZ1I7LU4PT7C2SJRB5ZUE2lfn6Q1xyg5nqAeynQRB84cwACcnnPXJf62FlWzYokv6KIfGsF80HxmkOPksDAZP3NMKxj4XWiyx5SitHDejZ2FbsehVM4kZQNE-W1QDFpp6b8jyelKsw5GYs_McZgFviktb1omX9OmRs4Q40hAc4hBqf8KSoYaGH5TGQZaQT9CvBtpJvoMDBQ1uyMEaN5eCMpOHnLM4_JKKfKlGpq5u5BPqv4hpsO-2ukRGY8L5ka6TNtYz89hnhdKWj63i_lZmI29BD7CAKOFtr1NhxxiFfJL6lYjjTeZR0wRgFPJwR4x8o_14L-AjdI9DaztwJmJXqwikZoW_JrBRZe5iB1SJJRvNSDzTTvJbLbSui2naFBJpqzEpV7fu2fMLRcfvwxo-nxGIwiG-zZsZUpXO-D5TF08MHsN03AWJiQcgAhH8_qkpQn_hMPnMyMSF_Wy0]--></g></svg>