<?xml version="1.0" encoding="us-ascii" standalone="no"?><svg xmlns="http://www.w3.org/2000/svg" xmlns:xlink="http://www.w3.org/1999/xlink" contentStyleType="text/css" height="2858.3333px" preserveAspectRatio="none" style="width:1876px;height:2858px;" version="1.1" viewBox="0 0 1876 2858" width="1876.0417px" zoomAndPan="magnify"><defs><linearGradient id="g1o82a3qn07zv20" x1="50%" x2="50%" y1="0%" y2="100%"><stop offset="0%" stop-color="#FFFFFF"/><stop offset="100%" stop-color="#FFFFFF"/></linearGradient><filter height="300%" id="f1o82a3qn07zv2" width="300%" x="-1" y="-1"><feGaussianBlur result="blurOut" stdDeviation="2.0833333333333335"/><feColorMatrix in="blurOut" result="blurOut2" type="matrix" values="0 0 0 0 0 0 0 0 0 0 0 0 0 0 0 0 0 0 .4 0"/><feOffset dx="4.166666666666667" dy="4.166666666666667" in="blurOut2" result="blurOut3"/><feBlend in="SourceGraphic" in2="blurOut3" mode="normal"/></filter><linearGradient id="g1o82a3qn07zv21" x1="50%" x2="50%" y1="0%" y2="100%"><stop offset="0%" stop-color="#4DABF5"/><stop offset="100%" stop-color="#2196F3"/></linearGradient><linearGradient id="g1o82a3qn07zv22" x1="50%" x2="50%" y1="0%" y2="100%"><stop offset="0%" stop-color="#B052C0"/><stop offset="100%" stop-color="#9C27B0"/></linearGradient></defs><g><rect fill="url(#g1o82a3qn07zv20)" height="57.5846" id="_title" rx="4.1667" ry="4.1667" style="stroke:#CCCCCC;stroke-width:1.0416666666666667;" width="229.1667" x="824.7396" y="20.8333"/><text fill="#2196F3" font-family="Verdana" font-size="20.8333" font-weight="bold" lengthAdjust="spacing" textLength="195.8333" x="841.4063" y="56.838">RTP Create Flow</text><rect fill="#FFFFFF" filter="url(#f1o82a3qn07zv2)" height="2459.7331" style="stroke:#CCCCCC;stroke-width:1.0416666666666667;" width="10.4167" x="491.6667" y="268.8802"/><rect fill="#FFFFFF" filter="url(#f1o82a3qn07zv2)" height="114.4857" style="stroke:#CCCCCC;stroke-width:1.0416666666666667;" width="10.4167" x="808.3333" y="318.8477"/><rect fill="#FFFFFF" filter="url(#f1o82a3qn07zv2)" height="114.4857" style="stroke:#CCCCCC;stroke-width:1.0416666666666667;" width="10.4167" x="1018.75" y="1278.5807"/><rect fill="#FFFFFF" filter="url(#f1o82a3qn07zv2)" height="49.9674" style="stroke:#CCCCCC;stroke-width:1.0416666666666667;" width="10.4167" x="1165.625" y="1680.3711"/><rect fill="#FFFFFF" filter="url(#f1o82a3qn07zv2)" height="49.9674" style="stroke:#CCCCCC;stroke-width:1.0416666666666667;" width="10.4167" x="1165.625" y="2116.5039"/><rect fill="#FFFFFF" filter="url(#f1o82a3qn07zv2)" height="49.9674" style="stroke:#CCCCCC;stroke-width:1.0416666666666667;" width="10.4167" x="1165.625" y="2453.776"/><rect fill="#FFFFFF" filter="url(#f1o82a3qn07zv2)" height="49.9674" style="stroke:#CCCCCC;stroke-width:1.0416666666666667;" width="10.4167" x="1283.3333" y="2353.8411"/><rect fill="#FFFFFF" filter="url(#f1o82a3qn07zv2)" height="123.8607" style="stroke:#CCCCCC;stroke-width:1.0416666666666667;" width="10.4167" x="1436.4583" y="1443.0339"/><rect fill="#FFFFFF" filter="url(#f1o82a3qn07zv2)" height="49.9674" style="stroke:#CCCCCC;stroke-width:1.0416666666666667;" width="10.4167" x="1582.8125" y="1844.8242"/><rect fill="#FFFFFF" filter="url(#f1o82a3qn07zv2)" height="114.4857" style="stroke:#CCCCCC;stroke-width:1.0416666666666667;" width="10.4167" x="1738.0208" y="1952.0508"/><rect fill="url(#g1o82a3qn07zv20)" filter="url(#f1o82a3qn07zv2)" height="2386.849" rx="4.1667" ry="4.1667" style="stroke:#2196F3;stroke-width:1.0416666666666667;" width="1838.0208" x="20.8333" y="334.4727"/><path d="M20.8333,643.5872 L1858.8542,643.5872 L1858.8542,2717.1549 A4.1667,4.1667 0 0 1 1854.6875,2721.3216 L25,2721.3216 A4.1667,4.1667 0 0 1 20.8333,2717.1549 L20.8333,643.5872 " fill="url(#g1o82a3qn07zv20)" style="stroke:none;stroke-width:1.0416666666666667;"/><rect fill="url(#g1o82a3qn07zv20)" filter="url(#f1o82a3qn07zv2)" height="1685.2539" rx="4.1667" ry="4.1667" style="stroke:#2196F3;stroke-width:1.0416666666666667;" width="1817.1875" x="31.25" y="1028.776"/><path d="M31.25,1135.9701 L1848.4375,1135.9701 L1848.4375,2709.8633 A4.1667,4.1667 0 0 1 1844.2708,2714.0299 L35.4167,2714.0299 A4.1667,4.1667 0 0 1 31.25,2709.8633 L31.25,1135.9701 " fill="url(#g1o82a3qn07zv20)" style="stroke:none;stroke-width:1.0416666666666667;"/><rect fill="url(#g1o82a3qn07zv20)" filter="url(#f1o82a3qn07zv2)" height="1412.5326" rx="4.1667" ry="4.1667" style="stroke:#2196F3;stroke-width:1.0416666666666667;" width="1796.3542" x="41.6667" y="1294.2057"/><rect fill="url(#g1o82a3qn07zv20)" filter="url(#f1o82a3qn07zv2)" height="157.1615" rx="4.1667" ry="4.1667" style="stroke:#2196F3;stroke-width:1.0416666666666667;" width="1281.25" x="388.0208" y="1745.9635"/><rect fill="url(#g1o82a3qn07zv20)" filter="url(#f1o82a3qn07zv2)" height="594.3685" rx="4.1667" ry="4.1667" style="stroke:#2196F3;stroke-width:1.0416666666666667;" width="1775.5208" x="52.0833" y="1967.6758"/><path d="M52.0833,2224.7721 L1827.6042,2224.7721 L1827.6042,2557.8776 A4.1667,4.1667 0 0 1 1823.4375,2562.0443 L56.25,2562.0443 A4.1667,4.1667 0 0 1 52.0833,2557.8776 L52.0833,2224.7721 " fill="url(#g1o82a3qn07zv20)" style="stroke:none;stroke-width:1.0416666666666667;"/><path d="M41.6667,2569.3359 L1838.0208,2569.3359 L1838.0208,2702.5716 A4.1667,4.1667 0 0 1 1833.8542,2706.7383 L45.8333,2706.7383 A4.1667,4.1667 0 0 1 41.6667,2702.5716 L41.6667,2569.3359 " fill="url(#g1o82a3qn07zv20)" style="stroke:none;stroke-width:1.0416666666666667;"/><line style="stroke:#CCCCCC;stroke-width:1.0416666666666667;stroke-dasharray:5.0,5.0;" x1="170.8333" x2="170.8333" y1="187.7279" y2="2739.0299"/><line style="stroke:#CCCCCC;stroke-width:1.0416666666666667;stroke-dasharray:5.0,5.0;" x1="496.3542" x2="496.3542" y1="187.7279" y2="2739.0299"/><line style="stroke:#CCCCCC;stroke-width:1.0416666666666667;stroke-dasharray:5.0,5.0;" x1="813.0208" x2="813.0208" y1="187.7279" y2="2739.0299"/><line style="stroke:#CCCCCC;stroke-width:1.0416666666666667;stroke-dasharray:5.0,5.0;" x1="1023.4375" x2="1023.4375" y1="187.7279" y2="2739.0299"/><line style="stroke:#CCCCCC;stroke-width:1.0416666666666667;stroke-dasharray:5.0,5.0;" x1="1170.3125" x2="1170.3125" y1="187.7279" y2="2739.0299"/><line style="stroke:#CCCCCC;stroke-width:1.0416666666666667;stroke-dasharray:5.0,5.0;" x1="1288.0208" x2="1288.0208" y1="187.7279" y2="2739.0299"/><line style="stroke:#CCCCCC;stroke-width:1.0416666666666667;stroke-dasharray:5.0,5.0;" x1="1441.1458" x2="1441.1458" y1="187.7279" y2="2739.0299"/><line style="stroke:#CCCCCC;stroke-width:1.0416666666666667;stroke-dasharray:5.0,5.0;" x1="1588.0208" x2="1588.0208" y1="187.7279" y2="2739.0299"/><line style="stroke:#CCCCCC;stroke-width:1.0416666666666667;stroke-dasharray:5.0,5.0;" x1="1743.2292" x2="1743.2292" y1="187.7279" y2="2739.0299"/><rect fill="url(#g1o82a3qn07zv21)" filter="url(#f1o82a3qn07zv2)" height="49.9674" rx="4.1667" ry="4.1667" style="stroke:#2196F3;stroke-width:1.0416666666666667;" width="130.2083" x="104.1667" y="133.5938"/><text fill="#FFFFFF" font-family="Verdana" font-size="12.5" lengthAdjust="spacing" textLength="94.7917" x="121.875" y="162.9049">MS-CONSUMER</text><rect fill="url(#g1o82a3qn07zv21)" filter="url(#f1o82a3qn07zv2)" height="49.9674" rx="4.1667" ry="4.1667" style="stroke:#2196F3;stroke-width:1.0416666666666667;" width="130.2083" x="104.1667" y="2737.9883"/><text fill="#FFFFFF" font-family="Verdana" font-size="12.5" lengthAdjust="spacing" textLength="94.7917" x="121.875" y="2767.2994">MS-CONSUMER</text><rect fill="url(#g1o82a3qn07zv21)" filter="url(#f1o82a3qn07zv2)" height="49.9674" rx="4.1667" ry="4.1667" style="stroke:#2196F3;stroke-width:1.0416666666666667;" width="110.4167" x="440.1042" y="133.5938"/><text fill="#FFFFFF" font-family="Verdana" font-size="12.5" lengthAdjust="spacing" textLength="75" x="457.8125" y="162.9049">MS-SENDER</text><rect fill="url(#g1o82a3qn07zv21)" filter="url(#f1o82a3qn07zv2)" height="49.9674" rx="4.1667" ry="4.1667" style="stroke:#2196F3;stroke-width:1.0416666666666667;" width="110.4167" x="440.1042" y="2737.9883"/><text fill="#FFFFFF" font-family="Verdana" font-size="12.5" lengthAdjust="spacing" textLength="75" x="457.8125" y="2767.2994">MS-SENDER</text><text fill="#222222" font-family="Verdana" font-size="12.5" lengthAdjust="spacing" textLength="35.4167" x="792.7083" y="159.8124">Redis</text><text fill="#222222" font-family="Verdana" font-size="12.5" lengthAdjust="spacing" textLength="159.375" x="730.7292" y="174.3632">(Idempotency Key Store)</text><path d="M794.7917,100.293 C794.7917,89.8763 813.5417,89.8763 813.5417,89.8763 C813.5417,89.8763 832.2917,89.8763 832.2917,100.293 L832.2917,127.3763 C832.2917,137.793 813.5417,137.793 813.5417,137.793 C813.5417,137.793 794.7917,137.793 794.7917,127.3763 L794.7917,100.293 " fill="url(#g1o82a3qn07zv21)" filter="url(#f1o82a3qn07zv2)" style="stroke:#2196F3;stroke-width:1.5625;"/><path d="M794.7917,100.293 C794.7917,110.7096 813.5417,110.7096 813.5417,110.7096 C813.5417,110.7096 832.2917,110.7096 832.2917,100.293 " fill="none" style="stroke:#2196F3;stroke-width:1.5625;"/><text fill="#222222" font-family="Verdana" font-size="12.5" lengthAdjust="spacing" textLength="35.4167" x="792.7083" y="2760.0077">Redis</text><text fill="#222222" font-family="Verdana" font-size="12.5" lengthAdjust="spacing" textLength="159.375" x="730.7292" y="2774.5585">(Idempotency Key Store)</text><path d="M794.7917,2798.3398 C794.7917,2787.9232 813.5417,2787.9232 813.5417,2787.9232 C813.5417,2787.9232 832.2917,2787.9232 832.2917,2798.3398 L832.2917,2825.4232 C832.2917,2835.8398 813.5417,2835.8398 813.5417,2835.8398 C813.5417,2835.8398 794.7917,2835.8398 794.7917,2825.4232 L794.7917,2798.3398 " fill="url(#g1o82a3qn07zv21)" filter="url(#f1o82a3qn07zv2)" style="stroke:#2196F3;stroke-width:1.5625;"/><path d="M794.7917,2798.3398 C794.7917,2808.7565 813.5417,2808.7565 813.5417,2808.7565 C813.5417,2808.7565 832.2917,2808.7565 832.2917,2798.3398 " fill="none" style="stroke:#2196F3;stroke-width:1.5625;"/><rect fill="url(#g1o82a3qn07zv21)" filter="url(#f1o82a3qn07zv2)" height="49.9674" rx="4.1667" ry="4.1667" style="stroke:#2196F3;stroke-width:1.0416666666666667;" width="127.0833" x="958.8542" y="133.5938"/><text fill="#FFFFFF" font-family="Verdana" font-size="12.5" lengthAdjust="spacing" textLength="91.6667" x="976.5625" y="162.9049">MS-ACTIVATOR</text><rect fill="url(#g1o82a3qn07zv21)" filter="url(#f1o82a3qn07zv2)" height="49.9674" rx="4.1667" ry="4.1667" style="stroke:#2196F3;stroke-width:1.0416666666666667;" width="127.0833" x="958.8542" y="2737.9883"/><text fill="#FFFFFF" font-family="Verdana" font-size="12.5" lengthAdjust="spacing" textLength="91.6667" x="976.5625" y="2767.2994">MS-ACTIVATOR</text><text fill="#222222" font-family="Verdana" font-size="12.5" lengthAdjust="spacing" textLength="32.2917" x="1151.5625" y="174.3632">RTPS</text><path d="M1152.0833,114.8438 C1152.0833,104.4271 1170.8333,104.4271 1170.8333,104.4271 C1170.8333,104.4271 1189.5833,104.4271 1189.5833,114.8438 L1189.5833,141.9271 C1189.5833,152.3438 1170.8333,152.3438 1170.8333,152.3438 C1170.8333,152.3438 1152.0833,152.3438 1152.0833,141.9271 L1152.0833,114.8438 " fill="url(#g1o82a3qn07zv21)" filter="url(#f1o82a3qn07zv2)" style="stroke:#2196F3;stroke-width:1.5625;"/><path d="M1152.0833,114.8438 C1152.0833,125.2604 1170.8333,125.2604 1170.8333,125.2604 C1170.8333,125.2604 1189.5833,125.2604 1189.5833,114.8438 " fill="none" style="stroke:#2196F3;stroke-width:1.5625;"/><text fill="#222222" font-family="Verdana" font-size="12.5" lengthAdjust="spacing" textLength="32.2917" x="1151.5625" y="2760.0077">RTPS</text><path d="M1152.0833,2783.7891 C1152.0833,2773.3724 1170.8333,2773.3724 1170.8333,2773.3724 C1170.8333,2773.3724 1189.5833,2773.3724 1189.5833,2783.7891 L1189.5833,2810.8724 C1189.5833,2821.2891 1170.8333,2821.2891 1170.8333,2821.2891 C1170.8333,2821.2891 1152.0833,2821.2891 1152.0833,2810.8724 L1152.0833,2783.7891 " fill="url(#g1o82a3qn07zv21)" filter="url(#f1o82a3qn07zv2)" style="stroke:#2196F3;stroke-width:1.5625;"/><path d="M1152.0833,2783.7891 C1152.0833,2794.2057 1170.8333,2794.2057 1170.8333,2794.2057 C1170.8333,2794.2057 1189.5833,2794.2057 1189.5833,2783.7891 " fill="none" style="stroke:#2196F3;stroke-width:1.5625;"/><text fill="#222222" font-family="Verdana" font-size="12.5" lengthAdjust="spacing" textLength="128.125" x="1221.3542" y="159.8124">Azure Data Explorer</text><text fill="#222222" font-family="Verdana" font-size="12.5" lengthAdjust="spacing" textLength="36.4583" x="1267.1875" y="174.3632">(srtp)</text><path d="M1269.7917,100.293 C1269.7917,89.8763 1288.5417,89.8763 1288.5417,89.8763 C1288.5417,89.8763 1307.2917,89.8763 1307.2917,100.293 L1307.2917,127.3763 C1307.2917,137.793 1288.5417,137.793 1288.5417,137.793 C1288.5417,137.793 1269.7917,137.793 1269.7917,127.3763 L1269.7917,100.293 " fill="url(#g1o82a3qn07zv21)" filter="url(#f1o82a3qn07zv2)" style="stroke:#2196F3;stroke-width:1.5625;"/><path d="M1269.7917,100.293 C1269.7917,110.7096 1288.5417,110.7096 1288.5417,110.7096 C1288.5417,110.7096 1307.2917,110.7096 1307.2917,100.293 " fill="none" style="stroke:#2196F3;stroke-width:1.5625;"/><text fill="#222222" font-family="Verdana" font-size="12.5" lengthAdjust="spacing" textLength="128.125" x="1221.3542" y="2760.0077">Azure Data Explorer</text><text fill="#222222" font-family="Verdana" font-size="12.5" lengthAdjust="spacing" textLength="36.4583" x="1267.1875" y="2774.5585">(srtp)</text><path d="M1269.7917,2798.3398 C1269.7917,2787.9232 1288.5417,2787.9232 1288.5417,2787.9232 C1288.5417,2787.9232 1307.2917,2787.9232 1307.2917,2798.3398 L1307.2917,2825.4232 C1307.2917,2835.8398 1288.5417,2835.8398 1288.5417,2835.8398 C1288.5417,2835.8398 1269.7917,2835.8398 1269.7917,2825.4232 L1269.7917,2798.3398 " fill="url(#g1o82a3qn07zv21)" filter="url(#f1o82a3qn07zv2)" style="stroke:#2196F3;stroke-width:1.5625;"/><path d="M1269.7917,2798.3398 C1269.7917,2808.7565 1288.5417,2808.7565 1288.5417,2808.7565 C1288.5417,2808.7565 1307.2917,2808.7565 1307.2917,2798.3398 " fill="none" style="stroke:#2196F3;stroke-width:1.5625;"/><text fill="#222222" font-family="Verdana" font-size="12.5" lengthAdjust="spacing" textLength="103.125" x="1386.9792" y="159.8124">Service Registry</text><text fill="#222222" font-family="Verdana" font-size="12.5" lengthAdjust="spacing" textLength="42.7083" x="1417.1875" y="174.3632">(BLOB)</text><path d="M1422.9167,100.293 C1422.9167,89.8763 1441.6667,89.8763 1441.6667,89.8763 C1441.6667,89.8763 1460.4167,89.8763 1460.4167,100.293 L1460.4167,127.3763 C1460.4167,137.793 1441.6667,137.793 1441.6667,137.793 C1441.6667,137.793 1422.9167,137.793 1422.9167,127.3763 L1422.9167,100.293 " fill="url(#g1o82a3qn07zv21)" filter="url(#f1o82a3qn07zv2)" style="stroke:#2196F3;stroke-width:1.5625;"/><path d="M1422.9167,100.293 C1422.9167,110.7096 1441.6667,110.7096 1441.6667,110.7096 C1441.6667,110.7096 1460.4167,110.7096 1460.4167,100.293 " fill="none" style="stroke:#2196F3;stroke-width:1.5625;"/><text fill="#222222" font-family="Verdana" font-size="12.5" lengthAdjust="spacing" textLength="103.125" x="1386.9792" y="2760.0077">Service Registry</text><text fill="#222222" font-family="Verdana" font-size="12.5" lengthAdjust="spacing" textLength="42.7083" x="1417.1875" y="2774.5585">(BLOB)</text><path d="M1422.9167,2798.3398 C1422.9167,2787.9232 1441.6667,2787.9232 1441.6667,2787.9232 C1441.6667,2787.9232 1460.4167,2787.9232 1460.4167,2798.3398 L1460.4167,2825.4232 C1460.4167,2835.8398 1441.6667,2835.8398 1441.6667,2835.8398 C1441.6667,2835.8398 1422.9167,2835.8398 1422.9167,2825.4232 L1422.9167,2798.3398 " fill="url(#g1o82a3qn07zv21)" filter="url(#f1o82a3qn07zv2)" style="stroke:#2196F3;stroke-width:1.5625;"/><path d="M1422.9167,2798.3398 C1422.9167,2808.7565 1441.6667,2808.7565 1441.6667,2808.7565 C1441.6667,2808.7565 1460.4167,2808.7565 1460.4167,2798.3398 " fill="none" style="stroke:#2196F3;stroke-width:1.5625;"/><rect fill="url(#g1o82a3qn07zv21)" filter="url(#f1o82a3qn07zv2)" height="49.9674" rx="4.1667" ry="4.1667" style="stroke:#2196F3;stroke-width:1.0416666666666667;" width="55.2083" x="1558.8542" y="133.5938"/><text fill="#FFFFFF" font-family="Verdana" font-size="12.5" lengthAdjust="spacing" textLength="19.7917" x="1576.5625" y="162.9049">CBI</text><rect fill="url(#g1o82a3qn07zv21)" filter="url(#f1o82a3qn07zv2)" height="49.9674" rx="4.1667" ry="4.1667" style="stroke:#2196F3;stroke-width:1.0416666666666667;" width="55.2083" x="1558.8542" y="2737.9883"/><text fill="#FFFFFF" font-family="Verdana" font-size="12.5" lengthAdjust="spacing" textLength="19.7917" x="1576.5625" y="2767.2994">CBI</text><rect fill="url(#g1o82a3qn07zv21)" filter="url(#f1o82a3qn07zv2)" height="49.9674" rx="4.1667" ry="4.1667" style="stroke:#2196F3;stroke-width:1.0416666666666667;" width="61.4583" x="1710.9375" y="133.5938"/><text fill="#FFFFFF" font-family="Verdana" font-size="12.5" lengthAdjust="spacing" textLength="26.0417" x="1728.6458" y="162.9049">DSP</text><rect fill="url(#g1o82a3qn07zv21)" filter="url(#f1o82a3qn07zv2)" height="49.9674" rx="4.1667" ry="4.1667" style="stroke:#2196F3;stroke-width:1.0416666666666667;" width="61.4583" x="1710.9375" y="2737.9883"/><text fill="#FFFFFF" font-family="Verdana" font-size="12.5" lengthAdjust="spacing" textLength="26.0417" x="1728.6458" y="2767.2994">DSP</text><rect fill="#FFFFFF" filter="url(#f1o82a3qn07zv2)" height="2459.7331" style="stroke:#CCCCCC;stroke-width:1.0416666666666667;" width="10.4167" x="491.6667" y="268.8802"/><rect fill="#FFFFFF" filter="url(#f1o82a3qn07zv2)" height="114.4857" style="stroke:#CCCCCC;stroke-width:1.0416666666666667;" width="10.4167" x="808.3333" y="318.8477"/><rect fill="#FFFFFF" filter="url(#f1o82a3qn07zv2)" height="114.4857" style="stroke:#CCCCCC;stroke-width:1.0416666666666667;" width="10.4167" x="1018.75" y="1278.5807"/><rect fill="#FFFFFF" filter="url(#f1o82a3qn07zv2)" height="49.9674" style="stroke:#CCCCCC;stroke-width:1.0416666666666667;" width="10.4167" x="1165.625" y="1680.3711"/><rect fill="#FFFFFF" filter="url(#f1o82a3qn07zv2)" height="49.9674" style="stroke:#CCCCCC;stroke-width:1.0416666666666667;" width="10.4167" x="1165.625" y="2116.5039"/><rect fill="#FFFFFF" filter="url(#f1o82a3qn07zv2)" height="49.9674" style="stroke:#CCCCCC;stroke-width:1.0416666666666667;" width="10.4167" x="1165.625" y="2453.776"/><rect fill="#FFFFFF" filter="url(#f1o82a3qn07zv2)" height="49.9674" style="stroke:#CCCCCC;stroke-width:1.0416666666666667;" width="10.4167" x="1283.3333" y="2353.8411"/><rect fill="#FFFFFF" filter="url(#f1o82a3qn07zv2)" height="123.8607" style="stroke:#CCCCCC;stroke-width:1.0416666666666667;" width="10.4167" x="1436.4583" y="1443.0339"/><rect fill="#FFFFFF" filter="url(#f1o82a3qn07zv2)" height="49.9674" style="stroke:#CCCCCC;stroke-width:1.0416666666666667;" width="10.4167" x="1582.8125" y="1844.8242"/><rect fill="#FFFFFF" filter="url(#f1o82a3qn07zv2)" height="114.4857" style="stroke:#CCCCCC;stroke-width:1.0416666666666667;" width="10.4167" x="1738.0208" y="1952.0508"/><polygon fill="#2196F3" points="479.1667,264.7135,489.5833,268.8802,479.1667,273.0469,483.3333,268.8802" style="stroke:#2196F3;stroke-width:1.0416666666666667;"/><line style="stroke:#2196F3;stroke-width:3.125;" x1="170.8333" x2="485.4167" y1="268.8802" y2="268.8802"/><text fill="#222222" font-family="Verdana" font-size="12.5" font-weight="bold" lengthAdjust="spacing" textLength="8.3333" x="188.5417" y="238.8814">1</text><text fill="#222222" font-family="Verdana" font-size="12.5" lengthAdjust="spacing" textLength="132.2917" x="221.875" y="224.3306">CREATE RTP request</text><text fill="#222222" font-family="Verdana" font-size="12.5" lengthAdjust="spacing" textLength="246.875" x="221.875" y="238.8814">Headers: Idempotency-Key, RequestId</text><text fill="#222222" font-family="Verdana" font-size="12.5" lengthAdjust="spacing" textLength="176.0417" x="221.875" y="253.4322">Payload: RTP creation data</text><polygon fill="#2196F3" points="795.8333,314.681,806.25,318.8477,795.8333,323.0143,800,318.8477" style="stroke:#2196F3;stroke-width:1.0416666666666667;"/><line style="stroke:#2196F3;stroke-width:3.125;" x1="502.0833" x2="802.0833" y1="318.8477" y2="318.8477"/><text fill="#222222" font-family="Verdana" font-size="12.5" font-weight="bold" lengthAdjust="spacing" textLength="8.3333" x="519.7917" y="303.3997">2</text><text fill="#222222" font-family="Verdana" font-size="12.5" lengthAdjust="spacing" textLength="152.0833" x="553.125" y="303.3997">check Idempotency-Key</text><path d="M25,334.4727 L108.3333,334.4727 L108.3333,361.5234 L97.9167,371.9401 L20.8333,371.9401 L20.8333,338.6393 A4.1667,4.1667 0 0 1 25,334.4727 " fill="#FFFFFF" style="stroke:#666666;stroke-width:1.0416666666666667;"/><rect fill="none" height="2386.849" rx="4.1667" ry="4.1667" style="stroke:#2196F3;stroke-width:1.0416666666666667;" width="1838.0208" x="20.8333" y="334.4727"/><text fill="#9C27B0" font-family="Verdana" font-size="12.5" font-weight="bold" lengthAdjust="spacing" textLength="19.7917" x="46.875" y="357.5338">alt</text><text fill="#222222" font-family="Verdana" font-size="12.5" font-weight="bold" lengthAdjust="spacing" textLength="260.4167" x="134.375" y="358.5754">[Idempotency-Key already present]</text><polygon fill="#2196F3" points="513.5417,429.1667,503.125,433.3333,513.5417,437.5,509.375,433.3333" style="stroke:#2196F3;stroke-width:1.0416666666666667;"/><line style="stroke:#2196F3;stroke-width:3.125;stroke-dasharray:2.0,2.0;" x1="507.2917" x2="812.5" y1="433.3333" y2="433.3333"/><text fill="#222222" font-family="Verdana" font-size="12.5" font-weight="bold" lengthAdjust="spacing" textLength="8.3333" x="530.2083" y="417.8853">3</text><text fill="#222222" font-family="Verdana" font-size="12.5" lengthAdjust="spacing" textLength="63.5417" x="563.5417" y="417.8853">key found</text><line style="stroke:#2196F3;stroke-width:3.125;" x1="502.0833" x2="545.8333" y1="483.3008" y2="483.3008"/><line style="stroke:#2196F3;stroke-width:3.125;" x1="545.8333" x2="545.8333" y1="483.3008" y2="496.8424"/><line style="stroke:#2196F3;stroke-width:3.125;" x1="503.125" x2="545.8333" y1="496.8424" y2="496.8424"/><polygon fill="#2196F3" points="513.5417,492.6758,503.125,496.8424,513.5417,501.0091,509.375,496.8424" style="stroke:#2196F3;stroke-width:1.0416666666666667;"/><text fill="#222222" font-family="Verdana" font-size="12.5" font-weight="bold" lengthAdjust="spacing" textLength="8.3333" x="519.7917" y="467.8528">4</text><text fill="#222222" font-family="Verdana" font-size="12.5" lengthAdjust="spacing" textLength="184.375" x="553.125" y="467.8528">discard duplicated message</text><path d="M507.2917,514.5508 L507.2917,580.1758 A4.1667,4.1667 0 0 0 511.4583,584.3424 L703.125,584.3424 A4.1667,4.1667 0 0 0 707.2917,580.1758 L707.2917,520.8008 L696.875,510.3841 L511.4583,510.3841 A4.1667,4.1667 0 0 0 507.2917,514.5508 " fill="url(#g1o82a3qn07zv22)" filter="url(#f1o82a3qn07zv2)" style="stroke:#9C27B0;stroke-width:1.0416666666666667;"/><path d="M696.875,510.3841 L696.875,518.7174 A2.0833,2.0833 0 0 0 698.9583,520.8008 L707.2917,520.8008 L696.875,510.3841 " fill="url(#g1o82a3qn07zv22)" style="stroke:#9C27B0;stroke-width:1.0416666666666667;"/><text fill="#FFFFFF" font-family="Verdana" font-size="12.5" lengthAdjust="spacing" textLength="137.5" x="523.9583" y="537.6119">Duplicated message:</text><text fill="#FFFFFF" font-family="Verdana" font-size="12.5" lengthAdjust="spacing" textLength="120.8333" x="523.9583" y="552.1627">already processed</text><text fill="#FFFFFF" font-family="Verdana" font-size="12.5" lengthAdjust="spacing" textLength="157.2917" x="523.9583" y="566.7135">or already in processing</text><polygon fill="#2196F3" points="182.2917,631.0872,171.875,635.2539,182.2917,639.4206,178.125,635.2539" style="stroke:#2196F3;stroke-width:1.0416666666666667;"/><line style="stroke:#2196F3;stroke-width:3.125;stroke-dasharray:2.0,2.0;" x1="176.0417" x2="490.625" y1="635.2539" y2="635.2539"/><text fill="#222222" font-family="Verdana" font-size="12.5" font-weight="bold" lengthAdjust="spacing" textLength="8.3333" x="198.9583" y="619.8059">5</text><text fill="#222222" font-family="Verdana" font-size="12.5" lengthAdjust="spacing" textLength="77.0833" x="232.2917" y="619.8059">409 Conflict</text><line style="stroke:#2196F3;stroke-width:1.0416666666666667;stroke-dasharray:2.0,2.0;" x1="20.8333" x2="1858.8542" y1="644.6289" y2="644.6289"/><text fill="#222222" font-family="Verdana" font-size="12.5" font-weight="bold" lengthAdjust="spacing" textLength="229.1667" x="36.4583" y="666.6484">[Idempotency-Key not present]</text><polygon fill="#2196F3" points="513.5417,718.5221,503.125,722.6888,513.5417,726.8555,509.375,722.6888" style="stroke:#2196F3;stroke-width:1.0416666666666667;"/><line style="stroke:#2196F3;stroke-width:3.125;stroke-dasharray:2.0,2.0;" x1="507.2917" x2="812.5" y1="722.6888" y2="722.6888"/><text fill="#222222" font-family="Verdana" font-size="12.5" font-weight="bold" lengthAdjust="spacing" textLength="8.3333" x="530.2083" y="707.2408">6</text><text fill="#222222" font-family="Verdana" font-size="12.5" lengthAdjust="spacing" textLength="89.5833" x="563.5417" y="707.2408">key not found</text><polygon fill="#2196F3" points="801.0417,768.4896,811.4583,772.6563,801.0417,776.8229,805.2083,772.6563" style="stroke:#2196F3;stroke-width:1.0416666666666667;"/><line style="stroke:#2196F3;stroke-width:3.125;" x1="502.0833" x2="807.2917" y1="772.6563" y2="772.6563"/><text fill="#222222" font-family="Verdana" font-size="12.5" font-weight="bold" lengthAdjust="spacing" textLength="8.3333" x="519.7917" y="757.2083">7</text><text fill="#222222" font-family="Verdana" font-size="12.5" lengthAdjust="spacing" textLength="143.75" x="553.125" y="757.2083">save Idempotency-Key</text><polygon fill="#2196F3" points="513.5417,818.457,503.125,822.6237,513.5417,826.7904,509.375,822.6237" style="stroke:#2196F3;stroke-width:1.0416666666666667;"/><line style="stroke:#2196F3;stroke-width:3.125;stroke-dasharray:2.0,2.0;" x1="507.2917" x2="812.5" y1="822.6237" y2="822.6237"/><text fill="#222222" font-family="Verdana" font-size="12.5" font-weight="bold" lengthAdjust="spacing" textLength="8.3333" x="530.2083" y="807.1757">8</text><text fill="#222222" font-family="Verdana" font-size="12.5" lengthAdjust="spacing" textLength="64.5833" x="563.5417" y="807.1757">key saved</text><line style="stroke:#2196F3;stroke-width:3.125;" x1="502.0833" x2="545.8333" y1="872.5911" y2="872.5911"/><line style="stroke:#2196F3;stroke-width:3.125;" x1="545.8333" x2="545.8333" y1="872.5911" y2="886.1328"/><line style="stroke:#2196F3;stroke-width:3.125;" x1="503.125" x2="545.8333" y1="886.1328" y2="886.1328"/><polygon fill="#2196F3" points="513.5417,881.9661,503.125,886.1328,513.5417,890.2995,509.375,886.1328" style="stroke:#2196F3;stroke-width:1.0416666666666667;"/><text fill="#222222" font-family="Verdana" font-size="12.5" font-weight="bold" lengthAdjust="spacing" textLength="8.3333" x="519.7917" y="857.1431">9</text><text fill="#222222" font-family="Verdana" font-size="12.5" lengthAdjust="spacing" textLength="114.5833" x="553.125" y="857.1431">validate message</text><line style="stroke:#2196F3;stroke-width:3.125;" x1="502.0833" x2="545.8333" y1="936.1003" y2="936.1003"/><line style="stroke:#2196F3;stroke-width:3.125;" x1="545.8333" x2="545.8333" y1="936.1003" y2="949.6419"/><line style="stroke:#2196F3;stroke-width:3.125;" x1="503.125" x2="545.8333" y1="949.6419" y2="949.6419"/><polygon fill="#2196F3" points="513.5417,945.4753,503.125,949.6419,513.5417,953.8086,509.375,949.6419" style="stroke:#2196F3;stroke-width:1.0416666666666667;"/><text fill="#222222" font-family="Verdana" font-size="12.5" font-weight="bold" lengthAdjust="spacing" textLength="16.6667" x="519.7917" y="920.6523">10</text><text fill="#222222" font-family="Verdana" font-size="12.5" lengthAdjust="spacing" textLength="196.875" x="561.4583" y="920.6523">validate operation == CREATE</text><line style="stroke:#2196F3;stroke-width:3.125;" x1="502.0833" x2="545.8333" y1="999.6094" y2="999.6094"/><line style="stroke:#2196F3;stroke-width:3.125;" x1="545.8333" x2="545.8333" y1="999.6094" y2="1013.151"/><line style="stroke:#2196F3;stroke-width:3.125;" x1="503.125" x2="545.8333" y1="1013.151" y2="1013.151"/><polygon fill="#2196F3" points="513.5417,1008.9844,503.125,1013.151,513.5417,1017.3177,509.375,1013.151" style="stroke:#2196F3;stroke-width:1.0416666666666667;"/><text fill="#222222" font-family="Verdana" font-size="12.5" font-weight="bold" lengthAdjust="spacing" textLength="16.6667" x="519.7917" y="984.1614">11</text><text fill="#222222" font-family="Verdana" font-size="12.5" lengthAdjust="spacing" textLength="161.4583" x="561.4583" y="984.1614">validate status == VALID</text><path d="M35.4167,1028.776 L118.75,1028.776 L118.75,1055.8268 L108.3333,1066.2435 L31.25,1066.2435 L31.25,1032.9427 A4.1667,4.1667 0 0 1 35.4167,1028.776 " fill="#FFFFFF" style="stroke:#666666;stroke-width:1.0416666666666667;"/><rect fill="none" height="1685.2539" rx="4.1667" ry="4.1667" style="stroke:#2196F3;stroke-width:1.0416666666666667;" width="1817.1875" x="31.25" y="1028.776"/><text fill="#9C27B0" font-family="Verdana" font-size="12.5" font-weight="bold" lengthAdjust="spacing" textLength="19.7917" x="57.2917" y="1051.8372">alt</text><text fill="#222222" font-family="Verdana" font-size="12.5" font-weight="bold" lengthAdjust="spacing" textLength="220.8333" x="144.7917" y="1052.8788">[message status is not VALID]</text><polygon fill="#2196F3" points="182.2917,1123.4701,171.875,1127.6367,182.2917,1131.8034,178.125,1127.6367" style="stroke:#2196F3;stroke-width:1.0416666666666667;"/><line style="stroke:#2196F3;stroke-width:3.125;stroke-dasharray:2.0,2.0;" x1="176.0417" x2="490.625" y1="1127.6367" y2="1127.6367"/><text fill="#222222" font-family="Verdana" font-size="12.5" font-weight="bold" lengthAdjust="spacing" textLength="16.6667" x="198.9583" y="1112.1887">12</text><text fill="#222222" font-family="Verdana" font-size="12.5" lengthAdjust="spacing" textLength="112.5" x="240.625" y="1112.1887">400 Bad Request</text><line style="stroke:#2196F3;stroke-width:1.0416666666666667;stroke-dasharray:2.0,2.0;" x1="31.25" x2="1848.4375" y1="1137.0117" y2="1137.0117"/><text fill="#222222" font-family="Verdana" font-size="12.5" font-weight="bold" lengthAdjust="spacing" textLength="191.6667" x="46.875" y="1159.0312">[message status is VALID]</text><line style="stroke:#2196F3;stroke-width:3.125;" x1="502.0833" x2="545.8333" y1="1215.0716" y2="1215.0716"/><line style="stroke:#2196F3;stroke-width:3.125;" x1="545.8333" x2="545.8333" y1="1215.0716" y2="1228.6133"/><line style="stroke:#2196F3;stroke-width:3.125;" x1="503.125" x2="545.8333" y1="1228.6133" y2="1228.6133"/><polygon fill="#2196F3" points="513.5417,1224.4466,503.125,1228.6133,513.5417,1232.7799,509.375,1228.6133" style="stroke:#2196F3;stroke-width:1.0416666666666667;"/><text fill="#222222" font-family="Verdana" font-size="12.5" font-weight="bold" lengthAdjust="spacing" textLength="16.6667" x="519.7917" y="1199.6236">13</text><text fill="#222222" font-family="Verdana" font-size="12.5" lengthAdjust="spacing" textLength="137.5" x="561.4583" y="1199.6236">map message to RTP</text><polygon fill="#2196F3" points="1006.25,1274.4141,1016.6667,1278.5807,1006.25,1282.7474,1010.4167,1278.5807" style="stroke:#2196F3;stroke-width:1.0416666666666667;"/><line style="stroke:#2196F3;stroke-width:3.125;" x1="502.0833" x2="1012.5" y1="1278.5807" y2="1278.5807"/><text fill="#222222" font-family="Verdana" font-size="12.5" font-weight="bold" lengthAdjust="spacing" textLength="16.6667" x="519.7917" y="1263.1327">14</text><text fill="#222222" font-family="Verdana" font-size="12.5" lengthAdjust="spacing" textLength="144.7917" x="561.4583" y="1263.1327">GET /activations/payer</text><path d="M45.8333,1294.2057 L129.1667,1294.2057 L129.1667,1321.2565 L118.75,1331.6732 L41.6667,1331.6732 L41.6667,1298.3724 A4.1667,4.1667 0 0 1 45.8333,1294.2057 " fill="#FFFFFF" style="stroke:#666666;stroke-width:1.0416666666666667;"/><rect fill="none" height="1412.5326" rx="4.1667" ry="4.1667" style="stroke:#2196F3;stroke-width:1.0416666666666667;" width="1796.3542" x="41.6667" y="1294.2057"/><text fill="#9C27B0" font-family="Verdana" font-size="12.5" font-weight="bold" lengthAdjust="spacing" textLength="19.7917" x="67.7083" y="1317.2668">alt</text><text fill="#222222" font-family="Verdana" font-size="12.5" font-weight="bold" lengthAdjust="spacing" textLength="126.0417" x="155.2083" y="1318.3085">[payer activated]</text><polygon fill="#2196F3" points="513.5417,1388.8997,503.125,1393.0664,513.5417,1397.2331,509.375,1393.0664" style="stroke:#2196F3;stroke-width:1.0416666666666667;"/><line style="stroke:#2196F3;stroke-width:3.125;stroke-dasharray:2.0,2.0;" x1="507.2917" x2="1022.9167" y1="1393.0664" y2="1393.0664"/><text fill="#222222" font-family="Verdana" font-size="12.5" font-weight="bold" lengthAdjust="spacing" textLength="16.6667" x="530.2083" y="1377.6184">15</text><text fill="#222222" font-family="Verdana" font-size="12.5" lengthAdjust="spacing" textLength="154.1667" x="571.875" y="1377.6184">payer + serviceProvider</text><polygon fill="#2196F3" points="1423.9583,1438.8672,1434.375,1443.0339,1423.9583,1447.2005,1428.125,1443.0339" style="stroke:#2196F3;stroke-width:1.0416666666666667;"/><line style="stroke:#2196F3;stroke-width:3.125;" x1="502.0833" x2="1430.2083" y1="1443.0339" y2="1443.0339"/><text fill="#222222" font-family="Verdana" font-size="12.5" font-weight="bold" lengthAdjust="spacing" textLength="16.6667" x="519.7917" y="1427.5859">16</text><text fill="#222222" font-family="Verdana" font-size="12.5" lengthAdjust="spacing" textLength="105.2083" x="561.4583" y="1427.5859">getRegistryData</text><path d="M1219.7917,1460.7422 L1219.7917,1511.7839 A4.1667,4.1667 0 0 0 1223.9583,1515.9505 L1423.9583,1515.9505 A4.1667,4.1667 0 0 0 1428.125,1511.7839 L1428.125,1466.9922 L1417.7083,1456.5755 L1223.9583,1456.5755 A4.1667,4.1667 0 0 0 1219.7917,1460.7422 " fill="url(#g1o82a3qn07zv22)" filter="url(#f1o82a3qn07zv2)" style="stroke:#9C27B0;stroke-width:1.0416666666666667;"/><path d="M1417.7083,1456.5755 L1417.7083,1464.9089 A2.0833,2.0833 0 0 0 1419.7917,1466.9922 L1428.125,1466.9922 L1417.7083,1456.5755 " fill="url(#g1o82a3qn07zv22)" style="stroke:#9C27B0;stroke-width:1.0416666666666667;"/><text fill="#FFFFFF" font-family="Verdana" font-size="12.5" lengthAdjust="spacing" textLength="76.0417" x="1236.4583" y="1483.8033">Search key:</text><text fill="#FFFFFF" font-family="Verdana" font-size="12.5" lengthAdjust="spacing" textLength="165.625" x="1236.4583" y="1498.3541">payerId + serviceProvider</text><polygon fill="#2196F3" points="513.5417,1562.7279,503.125,1566.8945,513.5417,1571.0612,509.375,1566.8945" style="stroke:#2196F3;stroke-width:1.0416666666666667;"/><line style="stroke:#2196F3;stroke-width:3.125;stroke-dasharray:2.0,2.0;" x1="507.2917" x2="1440.625" y1="1566.8945" y2="1566.8945"/><text fill="#222222" font-family="Verdana" font-size="12.5" font-weight="bold" lengthAdjust="spacing" textLength="16.6667" x="530.2083" y="1551.4465">17</text><text fill="#222222" font-family="Verdana" font-size="12.5" lengthAdjust="spacing" textLength="138.5417" x="571.875" y="1551.4465">Service Provider data</text><line style="stroke:#2196F3;stroke-width:3.125;" x1="502.0833" x2="545.8333" y1="1616.862" y2="1616.862"/><line style="stroke:#2196F3;stroke-width:3.125;" x1="545.8333" x2="545.8333" y1="1616.862" y2="1630.4036"/><line style="stroke:#2196F3;stroke-width:3.125;" x1="503.125" x2="545.8333" y1="1630.4036" y2="1630.4036"/><polygon fill="#2196F3" points="513.5417,1626.237,503.125,1630.4036,513.5417,1634.5703,509.375,1630.4036" style="stroke:#2196F3;stroke-width:1.0416666666666667;"/><text fill="#222222" font-family="Verdana" font-size="12.5" font-weight="bold" lengthAdjust="spacing" textLength="16.6667" x="519.7917" y="1601.414">18</text><text fill="#222222" font-family="Verdana" font-size="12.5" lengthAdjust="spacing" textLength="229.1667" x="561.4583" y="1601.414">add activation data to EPC payload</text><polygon fill="#2196F3" points="1153.125,1676.2044,1163.5417,1680.3711,1153.125,1684.5378,1157.2917,1680.3711" style="stroke:#2196F3;stroke-width:1.0416666666666667;"/><line style="stroke:#2196F3;stroke-width:3.125;" x1="502.0833" x2="1159.375" y1="1680.3711" y2="1680.3711"/><text fill="#222222" font-family="Verdana" font-size="12.5" font-weight="bold" lengthAdjust="spacing" textLength="16.6667" x="519.7917" y="1664.9231">19</text><text fill="#222222" font-family="Verdana" font-size="12.5" lengthAdjust="spacing" textLength="131.25" x="561.4583" y="1664.9231">save RTP (CREATED)</text><polygon fill="#2196F3" points="513.5417,1726.1719,503.125,1730.3385,513.5417,1734.5052,509.375,1730.3385" style="stroke:#2196F3;stroke-width:1.0416666666666667;"/><line style="stroke:#2196F3;stroke-width:3.125;stroke-dasharray:2.0,2.0;" x1="507.2917" x2="1169.7917" y1="1730.3385" y2="1730.3385"/><text fill="#222222" font-family="Verdana" font-size="12.5" font-weight="bold" lengthAdjust="spacing" textLength="16.6667" x="530.2083" y="1714.8905">20</text><text fill="#222222" font-family="Verdana" font-size="12.5" lengthAdjust="spacing" textLength="51.0417" x="571.875" y="1714.8905">created</text><path d="M392.1875,1745.9635 L475.5208,1745.9635 L475.5208,1773.0143 L465.1042,1783.431 L388.0208,1783.431 L388.0208,1750.1302 A4.1667,4.1667 0 0 1 392.1875,1745.9635 " fill="#FFFFFF" style="stroke:#666666;stroke-width:1.0416666666666667;"/><rect fill="none" height="157.1615" rx="4.1667" ry="4.1667" style="stroke:#2196F3;stroke-width:1.0416666666666667;" width="1281.25" x="388.0208" y="1745.9635"/><text fill="#9C27B0" font-family="Verdana" font-size="12.5" font-weight="bold" lengthAdjust="spacing" textLength="19.7917" x="414.0625" y="1769.0247">alt</text><text fill="#222222" font-family="Verdana" font-size="12.5" font-weight="bold" lengthAdjust="spacing" textLength="155.2083" x="501.5625" y="1770.0663">[flag oAuth2 == true]</text><polygon fill="#2196F3" points="1570.3125,1840.6576,1580.7292,1844.8242,1570.3125,1848.9909,1574.4792,1844.8242" style="stroke:#2196F3;stroke-width:1.0416666666666667;"/><line style="stroke:#2196F3;stroke-width:3.125;" x1="502.0833" x2="1576.5625" y1="1844.8242" y2="1844.8242"/><text fill="#222222" font-family="Verdana" font-size="12.5" font-weight="bold" lengthAdjust="spacing" textLength="16.6667" x="519.7917" y="1829.3762">21</text><text fill="#222222" font-family="Verdana" font-size="12.5" lengthAdjust="spacing" textLength="157.2917" x="561.4583" y="1829.3762">OAuth2 token exchange</text><polygon fill="#2196F3" points="513.5417,1890.625,503.125,1894.7917,513.5417,1898.9583,509.375,1894.7917" style="stroke:#2196F3;stroke-width:1.0416666666666667;"/><line style="stroke:#2196F3;stroke-width:3.125;stroke-dasharray:2.0,2.0;" x1="507.2917" x2="1586.9792" y1="1894.7917" y2="1894.7917"/><text fill="#222222" font-family="Verdana" font-size="12.5" font-weight="bold" lengthAdjust="spacing" textLength="16.6667" x="530.2083" y="1879.3437">22</text><text fill="#222222" font-family="Verdana" font-size="12.5" lengthAdjust="spacing" textLength="176.0417" x="571.875" y="1879.3437">200 received access token</text><polygon fill="#2196F3" points="1725.5208,1947.8841,1735.9375,1952.0508,1725.5208,1956.2174,1729.6875,1952.0508" style="stroke:#2196F3;stroke-width:1.0416666666666667;"/><line style="stroke:#2196F3;stroke-width:3.125;" x1="502.0833" x2="1731.7708" y1="1952.0508" y2="1952.0508"/><text fill="#222222" font-family="Verdana" font-size="12.5" font-weight="bold" lengthAdjust="spacing" textLength="16.6667" x="519.7917" y="1936.6028">23</text><text fill="#222222" font-family="Verdana" font-size="12.5" lengthAdjust="spacing" textLength="173.9583" x="561.4583" y="1936.6028">POST /sepa-request-to-pay</text><path d="M56.25,1967.6758 L139.5833,1967.6758 L139.5833,1994.7266 L129.1667,2005.1432 L52.0833,2005.1432 L52.0833,1971.8424 A4.1667,4.1667 0 0 1 56.25,1967.6758 " fill="#FFFFFF" style="stroke:#666666;stroke-width:1.0416666666666667;"/><rect fill="none" height="594.3685" rx="4.1667" ry="4.1667" style="stroke:#2196F3;stroke-width:1.0416666666666667;" width="1775.5208" x="52.0833" y="1967.6758"/><text fill="#9C27B0" font-family="Verdana" font-size="12.5" font-weight="bold" lengthAdjust="spacing" textLength="19.7917" x="78.125" y="1990.7369">alt</text><text fill="#222222" font-family="Verdana" font-size="12.5" font-weight="bold" lengthAdjust="spacing" textLength="107.2917" x="165.625" y="1991.7786">[202 Accepted]</text><polygon fill="#2196F3" points="513.5417,2062.3698,503.125,2066.5365,513.5417,2070.7031,509.375,2066.5365" style="stroke:#2196F3;stroke-width:1.0416666666666667;"/><line style="stroke:#2196F3;stroke-width:3.125;stroke-dasharray:2.0,2.0;" x1="507.2917" x2="1742.1875" y1="2066.5365" y2="2066.5365"/><text fill="#222222" font-family="Verdana" font-size="12.5" font-weight="bold" lengthAdjust="spacing" textLength="16.6667" x="530.2083" y="2051.0885">24</text><text fill="#222222" font-family="Verdana" font-size="12.5" lengthAdjust="spacing" textLength="90.625" x="571.875" y="2051.0885">202 Accepted</text><polygon fill="#2196F3" points="1153.125,2112.3372,1163.5417,2116.5039,1153.125,2120.6706,1157.2917,2116.5039" style="stroke:#2196F3;stroke-width:1.0416666666666667;"/><line style="stroke:#2196F3;stroke-width:3.125;" x1="502.0833" x2="1159.375" y1="2116.5039" y2="2116.5039"/><text fill="#222222" font-family="Verdana" font-size="12.5" font-weight="bold" lengthAdjust="spacing" textLength="16.6667" x="519.7917" y="2101.0559">25</text><text fill="#222222" font-family="Verdana" font-size="12.5" lengthAdjust="spacing" textLength="106.25" x="561.4583" y="2101.0559">save RTP (SENT)</text><polygon fill="#2196F3" points="513.5417,2162.3047,503.125,2166.4714,513.5417,2170.638,509.375,2166.4714" style="stroke:#2196F3;stroke-width:1.0416666666666667;"/><line style="stroke:#2196F3;stroke-width:3.125;stroke-dasharray:2.0,2.0;" x1="507.2917" x2="1169.7917" y1="2166.4714" y2="2166.4714"/><text fill="#222222" font-family="Verdana" font-size="12.5" font-weight="bold" lengthAdjust="spacing" textLength="16.6667" x="530.2083" y="2151.0234">26</text><text fill="#222222" font-family="Verdana" font-size="12.5" lengthAdjust="spacing" textLength="55.2083" x="571.875" y="2151.0234">updated</text><polygon fill="#2196F3" points="182.2917,2212.2721,171.875,2216.4388,182.2917,2220.6055,178.125,2216.4388" style="stroke:#2196F3;stroke-width:1.0416666666666667;"/><line style="stroke:#2196F3;stroke-width:3.125;stroke-dasharray:2.0,2.0;" x1="176.0417" x2="490.625" y1="2216.4388" y2="2216.4388"/><text fill="#222222" font-family="Verdana" font-size="12.5" font-weight="bold" lengthAdjust="spacing" textLength="16.6667" x="198.9583" y="2200.9908">27</text><text fill="#222222" font-family="Verdana" font-size="12.5" lengthAdjust="spacing" textLength="81.25" x="240.625" y="2200.9908">201 Created</text><line style="stroke:#2196F3;stroke-width:1.0416666666666667;stroke-dasharray:2.0,2.0;" x1="52.0833" x2="1827.6042" y1="2225.8138" y2="2225.8138"/><text fill="#222222" font-family="Verdana" font-size="12.5" font-weight="bold" lengthAdjust="spacing" textLength="46.875" x="67.7083" y="2247.8333">[Error]</text><polygon fill="#2196F3" points="513.5417,2299.707,503.125,2303.8737,513.5417,2308.0404,509.375,2303.8737" style="stroke:#2196F3;stroke-width:1.0416666666666667;"/><line style="stroke:#2196F3;stroke-width:3.125;stroke-dasharray:2.0,2.0;" x1="507.2917" x2="1742.1875" y1="2303.8737" y2="2303.8737"/><text fill="#222222" font-family="Verdana" font-size="12.5" font-weight="bold" lengthAdjust="spacing" textLength="16.6667" x="530.2083" y="2288.4257">28</text><text fill="#222222" font-family="Verdana" font-size="12.5" lengthAdjust="spacing" textLength="32.2917" x="571.875" y="2288.4257">Error</text><polygon fill="#2196F3" points="1270.8333,2349.6745,1281.25,2353.8411,1270.8333,2358.0078,1275,2353.8411" style="stroke:#2196F3;stroke-width:1.0416666666666667;"/><line style="stroke:#2196F3;stroke-width:3.125;" x1="502.0833" x2="1277.0833" y1="2353.8411" y2="2353.8411"/><text fill="#222222" font-family="Verdana" font-size="12.5" font-weight="bold" lengthAdjust="spacing" textLength="16.6667" x="519.7917" y="2338.3931">29</text><text fill="#222222" font-family="Verdana" font-size="12.5" lengthAdjust="spacing" textLength="157.2917" x="561.4583" y="2338.3931">save RTP (ERROR_SEND)</text><polygon fill="#2196F3" points="513.5417,2399.6419,503.125,2403.8086,513.5417,2407.9753,509.375,2403.8086" style="stroke:#2196F3;stroke-width:1.0416666666666667;"/><line style="stroke:#2196F3;stroke-width:3.125;stroke-dasharray:2.0,2.0;" x1="507.2917" x2="1287.5" y1="2403.8086" y2="2403.8086"/><text fill="#222222" font-family="Verdana" font-size="12.5" font-weight="bold" lengthAdjust="spacing" textLength="16.6667" x="530.2083" y="2388.3606">30</text><text fill="#222222" font-family="Verdana" font-size="12.5" lengthAdjust="spacing" textLength="82.2917" x="571.875" y="2388.3606">confirm save</text><polygon fill="#2196F3" points="1153.125,2449.6094,1163.5417,2453.776,1153.125,2457.9427,1157.2917,2453.776" style="stroke:#2196F3;stroke-width:1.0416666666666667;"/><line style="stroke:#2196F3;stroke-width:3.125;" x1="502.0833" x2="1159.375" y1="2453.776" y2="2453.776"/><text fill="#222222" font-family="Verdana" font-size="12.5" font-weight="bold" lengthAdjust="spacing" textLength="16.6667" x="519.7917" y="2438.328">31</text><text fill="#222222" font-family="Verdana" font-size="12.5" lengthAdjust="spacing" textLength="116.6667" x="561.4583" y="2438.328">delete RTP record</text><polygon fill="#2196F3" points="513.5417,2499.5768,503.125,2503.7435,513.5417,2507.9102,509.375,2503.7435" style="stroke:#2196F3;stroke-width:1.0416666666666667;"/><line style="stroke:#2196F3;stroke-width:3.125;stroke-dasharray:2.0,2.0;" x1="507.2917" x2="1169.7917" y1="2503.7435" y2="2503.7435"/><text fill="#222222" font-family="Verdana" font-size="12.5" font-weight="bold" lengthAdjust="spacing" textLength="16.6667" x="530.2083" y="2488.2955">32</text><text fill="#222222" font-family="Verdana" font-size="12.5" lengthAdjust="spacing" textLength="93.75" x="571.875" y="2488.2955">confirm delete</text><polygon fill="#2196F3" points="182.2917,2549.5443,171.875,2553.7109,182.2917,2557.8776,178.125,2553.7109" style="stroke:#2196F3;stroke-width:1.0416666666666667;"/><line style="stroke:#2196F3;stroke-width:3.125;stroke-dasharray:2.0,2.0;" x1="176.0417" x2="490.625" y1="2553.7109" y2="2553.7109"/><text fill="#222222" font-family="Verdana" font-size="12.5" font-weight="bold" lengthAdjust="spacing" textLength="16.6667" x="198.9583" y="2538.2629">33</text><text fill="#222222" font-family="Verdana" font-size="12.5" lengthAdjust="spacing" textLength="128.125" x="240.625" y="2538.2629">4xx / business error</text><line style="stroke:#2196F3;stroke-width:1.0416666666666667;stroke-dasharray:2.0,2.0;" x1="41.6667" x2="1838.0208" y1="2570.3776" y2="2570.3776"/><text fill="#222222" font-family="Verdana" font-size="12.5" font-weight="bold" lengthAdjust="spacing" textLength="155.2083" x="57.2917" y="2592.3971">[payer not activated]</text><polygon fill="#2196F3" points="513.5417,2644.2708,503.125,2648.4375,513.5417,2652.6042,509.375,2648.4375" style="stroke:#2196F3;stroke-width:1.0416666666666667;"/><line style="stroke:#2196F3;stroke-width:3.125;stroke-dasharray:2.0,2.0;" x1="507.2917" x2="1022.9167" y1="2648.4375" y2="2648.4375"/><text fill="#222222" font-family="Verdana" font-size="12.5" font-weight="bold" lengthAdjust="spacing" textLength="16.6667" x="530.2083" y="2632.9895">34</text><text fill="#222222" font-family="Verdana" font-size="12.5" lengthAdjust="spacing" textLength="63.5417" x="571.875" y="2632.9895">not found</text><polygon fill="#2196F3" points="182.2917,2694.2383,171.875,2698.4049,182.2917,2702.5716,178.125,2698.4049" style="stroke:#2196F3;stroke-width:1.0416666666666667;"/><line style="stroke:#2196F3;stroke-width:3.125;stroke-dasharray:2.0,2.0;" x1="176.0417" x2="490.625" y1="2698.4049" y2="2698.4049"/><text fill="#222222" font-family="Verdana" font-size="12.5" font-weight="bold" lengthAdjust="spacing" textLength="16.6667" x="198.9583" y="2682.9569">35</text><text fill="#222222" font-family="Verdana" font-size="12.5" lengthAdjust="spacing" textLength="96.875" x="240.625" y="2682.9569">404 Not Found</text><!--SRC=[hLRRRkCs47tNLqppiXkqtdYDl5J05l15cnfDOa7o1dq8i634iKr4bhGKvSRz-Wv9oTR5iWDizIARS-PmUEP2VG0_Pedwzd0FCy7MacrXbKe8bZw4c70O-tFd0oo5Yj656IecOkH7SuW_2amYh9m9-uGo5sdYmkZJyDFGSNvH6zmYR9b2APZZACrb6AOIQH6-nka_ZfCngKGaCWe6hXx2mNJn67vxy88hO3bKVpgeq7kSbHZxq-5CiHUM8rm5o4N-d7oSSzncgQ8mz_0NxY5KgSHhunDuitdO8HrFb_EdyN9XUUyQd4i_jBlHhzhw-Dz2aWZq7xotBAOD9EsSIvNPZSQplsle4ELEa6W1haMkv9wWa_l5vBfaRWOqdSoj1fDvqp0BVMEWj-EmGgL9iNr1wJYLMZ3uerJ5XMdWZPUUaLtgdENgEVaJ6QTakL1JQ40A_KQ16SYSFoS-sySfuwvnZNJ6ABcWp-AmI8cTpc0flMFVUbiZh0lH1gFNDltHpyhli5YrCS1Ysehl8PEOOw8SeCV0OL0xrIiXLscHS6Fds6BMYyUOAYUgYeX93hp8OX4HciCMyvojqJWa50L8iTueI5VLqS0yiuw7MrgEuQOHMP2NwzHAbKaabLKaQsFM3QHtQyH9WLRvS-5s-3jCqsH5koh7mPYAfoqK4Rn398qw2jN9Kyvs7UOpR1hU8tcFvZiM2wvHTQNFmD8CfQsqBr_AshtaaYkcYbpZdyRtyvcDH9TMkMK54BbHmuAWV7hK7yA4yQeRRCvq3hgCfzcEKMvPTl1IgUubvmJwZf1ttX9kIb7f_FbDnlRKr1Nu83UDfUCYdTB03cP-iEddBcYaq49_XToE8L-cEy5hUxGIMz-fTJeYMwEgnfWUVmtaSK04ZNNJOZ6kR8SrRSIFJ4ORNMXkos82d_CBeJVQwa3QbA2Qm1M17MWz0eJz0fHqZ7CuvioGwJHx_bJ7hETdluHBl-m_FM0_sbgVNVVfI8NJF1OvrGzc9dGh_OsZr2klgfrLpDQGZWkr6Ud-KRB0blBraEaYSc5XqIfznGJmBTgmPDrrEkohBw-saTOQeO-etIH6A6YuaAUUb9Q_uraxK9kOajydDTsJBlYBaFehnumDodjmeD819UcquFfkRQir6evWJE5bRPtD5H7whKET0TVEOIxnVitRPKAMvNM_t9qwELahHSRPXR2wzT8xBKV3p-KNNPFHJ4nFobHU5EiqwlqgqLTMNIGl21R1Tsq-8vN-CciRQQtPL7G52xarrEV2qrmNayWnHeNbbrYKIlwpQQoYiyJ_KpPltzxW1buA-bZHVOYTp3GQpUJONYlwRdtNBTJy93bzxrmEStWBZqJqjK64vM_zDd7MDR0VTFy1]--></g></svg>