<?xml version="1.0" encoding="us-ascii" standalone="no"?><svg xmlns="http://www.w3.org/2000/svg" xmlns:xlink="http://www.w3.org/1999/xlink" contentStyleType="text/css" height="1473px" preserveAspectRatio="none" style="width:1535px;height:1473px;background:#FFFFFF;" version="1.1" viewBox="0 0 1535 1473" width="1535px" zoomAndPan="magnify"><defs><filter height="300%" id="f1p7s55ugyvvjy" width="300%" x="-1" y="-1"><feGaussianBlur result="blurOut" stdDeviation="2.0"/><feColorMatrix in="blurOut" result="blurOut2" type="matrix" values="0 0 0 0 0 0 0 0 0 0 0 0 0 0 0 0 0 0 .4 0"/><feOffset dx="4.0" dy="4.0" in="blurOut2" result="blurOut3"/><feBlend in="SourceGraphic" in2="blurOut3" mode="normal"/></filter></defs><g><rect fill="#FFFFFF" filter="url(#f1p7s55ugyvvjy)" height="1249" style="stroke:#A80036;stroke-width:1.0;" width="10" x="319.5" y="119.7266"/><rect fill="#FFFFFF" filter="url(#f1p7s55ugyvvjy)" height="1048.2031" style="stroke:#A80036;stroke-width:1.0;" width="10" x="592.5" y="320.5234"/><rect fill="#FFFFFF" filter="url(#f1p7s55ugyvvjy)" height="96.3984" style="stroke:#A80036;stroke-width:1.0;" width="10" x="839.5" y="349.6563"/><rect fill="#FFFFFF" filter="url(#f1p7s55ugyvvjy)" height="87.2656" style="stroke:#A80036;stroke-width:1.0;" width="10" x="839.5" y="480.1875"/><rect fill="#FFFFFF" filter="url(#f1p7s55ugyvvjy)" height="14" style="stroke:#A80036;stroke-width:1.0;" width="10" x="954.5" y="378.7891"/><rect fill="#FFFFFF" filter="url(#f1p7s55ugyvvjy)" height="29.1328" style="stroke:#A80036;stroke-width:1.0;" width="10" x="1008" y="662.8516"/><rect fill="#FFFFFF" filter="url(#f1p7s55ugyvvjy)" height="29.1328" style="stroke:#A80036;stroke-width:1.0;" width="10" x="1008" y="842.6484"/><rect fill="#FFFFFF" filter="url(#f1p7s55ugyvvjy)" height="29.1328" style="stroke:#A80036;stroke-width:1.0;" width="10" x="1008" y="1032.25"/><rect fill="#FFFFFF" filter="url(#f1p7s55ugyvvjy)" height="29.1328" style="stroke:#A80036;stroke-width:1.0;" width="10" x="1008" y="1141.4531"/><rect fill="#FFFFFF" filter="url(#f1p7s55ugyvvjy)" height="29.1328" style="stroke:#A80036;stroke-width:1.0;" width="10" x="1110.5" y="973.9844"/><rect fill="#FFFFFF" filter="url(#f1p7s55ugyvvjy)" height="34.1328" style="stroke:#A80036;stroke-width:1.0;" width="10" x="1249.5" y="499.1875"/><rect fill="#FFFFFF" filter="url(#f1p7s55ugyvvjy)" height="29.1328" style="stroke:#A80036;stroke-width:1.0;" width="10" x="1371.5" y="220.125"/><rect fill="#FFFFFF" filter="url(#f1p7s55ugyvvjy)" height="92.3984" style="stroke:#A80036;stroke-width:1.0;" width="10" x="1456" y="721.1172"/><rect fill="none" filter="url(#f1p7s55ugyvvjy)" height="1179.8672" style="stroke:#000000;stroke-width:2.0;" width="1315.5" x="206" y="181.8594"/><rect fill="none" filter="url(#f1p7s55ugyvvjy)" height="890" style="stroke:#000000;stroke-width:2.0;" width="1295.5" x="216" y="407.7891"/><rect fill="none" filter="url(#f1p7s55ugyvvjy)" height="635.2656" style="stroke:#000000;stroke-width:2.0;" width="1275.5" x="226" y="582.4531"/><rect fill="none" filter="url(#f1p7s55ugyvvjy)" height="323.2656" style="stroke:#000000;stroke-width:2.0;" width="1255.5" x="236" y="775.25"/><line style="stroke:#A80036;stroke-width:1.0;stroke-dasharray:5.0,5.0;" x1="157" x2="157" y1="83.5938" y2="1378.7266"/><line style="stroke:#A80036;stroke-width:1.0;stroke-dasharray:5.0,5.0;" x1="324" x2="324" y1="83.5938" y2="1378.7266"/><line style="stroke:#A80036;stroke-width:1.0;stroke-dasharray:5.0,5.0;" x1="597" x2="597" y1="83.5938" y2="1378.7266"/><line style="stroke:#A80036;stroke-width:1.0;stroke-dasharray:5.0,5.0;" x1="844.5" x2="844.5" y1="83.5938" y2="1378.7266"/><line style="stroke:#A80036;stroke-width:1.0;stroke-dasharray:5.0,5.0;" x1="959.5" x2="959.5" y1="83.5938" y2="1378.7266"/><line style="stroke:#A80036;stroke-width:1.0;stroke-dasharray:5.0,5.0;" x1="1012.5" x2="1012.5" y1="83.5938" y2="1378.7266"/><line style="stroke:#A80036;stroke-width:1.0;stroke-dasharray:5.0,5.0;" x1="1115.5" x2="1115.5" y1="83.5938" y2="1378.7266"/><line style="stroke:#A80036;stroke-width:1.0;stroke-dasharray:5.0,5.0;" x1="1254.5" x2="1254.5" y1="83.5938" y2="1378.7266"/><line style="stroke:#A80036;stroke-width:1.0;stroke-dasharray:5.0,5.0;" x1="1376.5" x2="1376.5" y1="83.5938" y2="1378.7266"/><line style="stroke:#A80036;stroke-width:1.0;stroke-dasharray:5.0,5.0;" x1="1460.5" x2="1460.5" y1="83.5938" y2="1378.7266"/><path d="M83,57.2969 L231,57.2969 C236,57.2969 236,70.4453 236,70.4453 C236,70.4453 236,83.5938 231,83.5938 L83,83.5938 C78,83.5938 78,70.4453 78,70.4453 C78,70.4453 78,57.2969 83,57.2969 " fill="#FEFECE" filter="url(#f1p7s55ugyvvjy)" style="stroke:#A80036;stroke-width:2.0;"/><path d="M231,57.2969 C226,57.2969 226,70.4453 226,70.4453 C226,83.5938 231,83.5938 231,83.5938 " fill="none" style="stroke:#A80036;stroke-width:2.0;"/><text fill="#000000" font-family="sans-serif" font-size="14" lengthAdjust="spacing" textLength="138" x="83" y="75.292">PagoPa GDP Queue</text><path d="M83,1377.7266 L231,1377.7266 C236,1377.7266 236,1390.875 236,1390.875 C236,1390.875 236,1404.0234 231,1404.0234 L83,1404.0234 C78,1404.0234 78,1390.875 78,1390.875 C78,1390.875 78,1377.7266 83,1377.7266 " fill="#FEFECE" filter="url(#f1p7s55ugyvvjy)" style="stroke:#A80036;stroke-width:2.0;"/><path d="M231,1377.7266 C226,1377.7266 226,1390.875 226,1390.875 C226,1404.0234 231,1404.0234 231,1404.0234 " fill="none" style="stroke:#A80036;stroke-width:2.0;"/><text fill="#000000" font-family="sans-serif" font-size="14" lengthAdjust="spacing" textLength="138" x="83" y="1395.7217">PagoPa GDP Queue</text><rect fill="#FEFECE" filter="url(#f1p7s55ugyvvjy)" height="30.2969" style="stroke:#A80036;stroke-width:1.5;" width="153" x="246" y="48.2969"/><text fill="#000000" font-family="sans-serif" font-size="14" lengthAdjust="spacing" textLength="139" x="253" y="68.292">Message Consumer</text><rect fill="#FEFECE" filter="url(#f1p7s55ugyvvjy)" height="30.2969" style="stroke:#A80036;stroke-width:1.5;" width="153" x="246" y="1377.7266"/><text fill="#000000" font-family="sans-serif" font-size="14" lengthAdjust="spacing" textLength="139" x="253" y="1397.7217">Message Consumer</text><rect fill="#FEFECE" filter="url(#f1p7s55ugyvvjy)" height="30.2969" style="stroke:#A80036;stroke-width:1.5;" width="165" x="513" y="48.2969"/><text fill="#000000" font-family="sans-serif" font-size="14" lengthAdjust="spacing" textLength="151" x="520" y="68.292">Pagopa - SP Creditore</text><rect fill="#FEFECE" filter="url(#f1p7s55ugyvvjy)" height="30.2969" style="stroke:#A80036;stroke-width:1.5;" width="165" x="513" y="1377.7266"/><text fill="#000000" font-family="sans-serif" font-size="14" lengthAdjust="spacing" textLength="151" x="520" y="1397.7217">Pagopa - SP Creditore</text><rect fill="#FEFECE" filter="url(#f1p7s55ugyvvjy)" height="30.2969" style="stroke:#A80036;stroke-width:1.5;" width="148" x="768.5" y="48.2969"/><text fill="#000000" font-family="sans-serif" font-size="14" lengthAdjust="spacing" textLength="134" x="775.5" y="68.292">Gestore Repository</text><rect fill="#FEFECE" filter="url(#f1p7s55ugyvvjy)" height="30.2969" style="stroke:#A80036;stroke-width:1.5;" width="148" x="768.5" y="1377.7266"/><text fill="#000000" font-family="sans-serif" font-size="14" lengthAdjust="spacing" textLength="134" x="775.5" y="1397.7217">Gestore Repository</text><text fill="#000000" font-family="sans-serif" font-size="14" lengthAdjust="spacing" textLength="38" x="937.5" y="80.292">Payer</text><path d="M941.5,31.2969 C941.5,21.2969 959.5,21.2969 959.5,21.2969 C959.5,21.2969 977.5,21.2969 977.5,31.2969 L977.5,57.2969 C977.5,67.2969 959.5,67.2969 959.5,67.2969 C959.5,67.2969 941.5,67.2969 941.5,57.2969 L941.5,31.2969 " fill="#FEFECE" filter="url(#f1p7s55ugyvvjy)" style="stroke:#A80036;stroke-width:1.5;"/><path d="M941.5,31.2969 C941.5,41.2969 959.5,41.2969 959.5,41.2969 C959.5,41.2969 977.5,41.2969 977.5,31.2969 " fill="none" style="stroke:#A80036;stroke-width:1.5;"/><text fill="#000000" font-family="sans-serif" font-size="14" lengthAdjust="spacing" textLength="38" x="937.5" y="1390.7217">Payer</text><path d="M941.5,1404.0234 C941.5,1394.0234 959.5,1394.0234 959.5,1394.0234 C959.5,1394.0234 977.5,1394.0234 977.5,1404.0234 L977.5,1430.0234 C977.5,1440.0234 959.5,1440.0234 959.5,1440.0234 C959.5,1440.0234 941.5,1440.0234 941.5,1430.0234 L941.5,1404.0234 " fill="#FEFECE" filter="url(#f1p7s55ugyvvjy)" style="stroke:#A80036;stroke-width:1.5;"/><path d="M941.5,1404.0234 C941.5,1414.0234 959.5,1414.0234 959.5,1414.0234 C959.5,1414.0234 977.5,1414.0234 977.5,1404.0234 " fill="none" style="stroke:#A80036;stroke-width:1.5;"/><text fill="#000000" font-family="sans-serif" font-size="14" lengthAdjust="spacing" textLength="37" x="991.5" y="80.292">SRTP</text><path d="M995,31.2969 C995,21.2969 1013,21.2969 1013,21.2969 C1013,21.2969 1031,21.2969 1031,31.2969 L1031,57.2969 C1031,67.2969 1013,67.2969 1013,67.2969 C1013,67.2969 995,67.2969 995,57.2969 L995,31.2969 " fill="#FEFECE" filter="url(#f1p7s55ugyvvjy)" style="stroke:#A80036;stroke-width:1.5;"/><path d="M995,31.2969 C995,41.2969 1013,41.2969 1013,41.2969 C1013,41.2969 1031,41.2969 1031,31.2969 " fill="none" style="stroke:#A80036;stroke-width:1.5;"/><text fill="#000000" font-family="sans-serif" font-size="14" lengthAdjust="spacing" textLength="37" x="991.5" y="1390.7217">SRTP</text><path d="M995,1404.0234 C995,1394.0234 1013,1394.0234 1013,1394.0234 C1013,1394.0234 1031,1394.0234 1031,1404.0234 L1031,1430.0234 C1031,1440.0234 1013,1440.0234 1013,1440.0234 C1013,1440.0234 995,1440.0234 995,1430.0234 L995,1404.0234 " fill="#FEFECE" filter="url(#f1p7s55ugyvvjy)" style="stroke:#A80036;stroke-width:1.5;"/><path d="M995,1404.0234 C995,1414.0234 1013,1414.0234 1013,1414.0234 C1013,1414.0234 1031,1414.0234 1031,1404.0234 " fill="none" style="stroke:#A80036;stroke-width:1.5;"/><text fill="#000000" font-family="sans-serif" font-size="14" lengthAdjust="spacing" textLength="136" x="1044.5" y="63.9951">Azure Data Explorer</text><text fill="#000000" font-family="sans-serif" font-size="14" lengthAdjust="spacing" textLength="37" x="1094" y="80.292">(srtp)</text><path d="M1097.5,15 C1097.5,5 1115.5,5 1115.5,5 C1115.5,5 1133.5,5 1133.5,15 L1133.5,41 C1133.5,51 1115.5,51 1115.5,51 C1115.5,51 1097.5,51 1097.5,41 L1097.5,15 " fill="#FEFECE" filter="url(#f1p7s55ugyvvjy)" style="stroke:#A80036;stroke-width:1.5;"/><path d="M1097.5,15 C1097.5,25 1115.5,25 1115.5,25 C1115.5,25 1133.5,25 1133.5,15 " fill="none" style="stroke:#A80036;stroke-width:1.5;"/><text fill="#000000" font-family="sans-serif" font-size="14" lengthAdjust="spacing" textLength="136" x="1044.5" y="1390.7217">Azure Data Explorer</text><text fill="#000000" font-family="sans-serif" font-size="14" lengthAdjust="spacing" textLength="37" x="1094" y="1407.0186">(srtp)</text><path d="M1097.5,1420.3203 C1097.5,1410.3203 1115.5,1410.3203 1115.5,1410.3203 C1115.5,1410.3203 1133.5,1410.3203 1133.5,1420.3203 L1133.5,1446.3203 C1133.5,1456.3203 1115.5,1456.3203 1115.5,1456.3203 C1115.5,1456.3203 1097.5,1456.3203 1097.5,1446.3203 L1097.5,1420.3203 " fill="#FEFECE" filter="url(#f1p7s55ugyvvjy)" style="stroke:#A80036;stroke-width:1.5;"/><path d="M1097.5,1420.3203 C1097.5,1430.3203 1115.5,1430.3203 1115.5,1430.3203 C1115.5,1430.3203 1133.5,1430.3203 1133.5,1420.3203 " fill="none" style="stroke:#A80036;stroke-width:1.5;"/><text fill="#000000" font-family="sans-serif" font-size="14" lengthAdjust="spacing" textLength="110" x="1196.5" y="80.292">Service Registry</text><path d="M1236.5,31.2969 C1236.5,21.2969 1254.5,21.2969 1254.5,21.2969 C1254.5,21.2969 1272.5,21.2969 1272.5,31.2969 L1272.5,57.2969 C1272.5,67.2969 1254.5,67.2969 1254.5,67.2969 C1254.5,67.2969 1236.5,67.2969 1236.5,57.2969 L1236.5,31.2969 " fill="#FEFECE" filter="url(#f1p7s55ugyvvjy)" style="stroke:#A80036;stroke-width:1.5;"/><path d="M1236.5,31.2969 C1236.5,41.2969 1254.5,41.2969 1254.5,41.2969 C1254.5,41.2969 1272.5,41.2969 1272.5,31.2969 " fill="none" style="stroke:#A80036;stroke-width:1.5;"/><text fill="#000000" font-family="sans-serif" font-size="14" lengthAdjust="spacing" textLength="110" x="1196.5" y="1390.7217">Service Registry</text><path d="M1236.5,1404.0234 C1236.5,1394.0234 1254.5,1394.0234 1254.5,1394.0234 C1254.5,1394.0234 1272.5,1394.0234 1272.5,1404.0234 L1272.5,1430.0234 C1272.5,1440.0234 1254.5,1440.0234 1254.5,1440.0234 C1254.5,1440.0234 1236.5,1440.0234 1236.5,1430.0234 L1236.5,1404.0234 " fill="#FEFECE" filter="url(#f1p7s55ugyvvjy)" style="stroke:#A80036;stroke-width:1.5;"/><path d="M1236.5,1404.0234 C1236.5,1414.0234 1254.5,1414.0234 1254.5,1414.0234 C1254.5,1414.0234 1272.5,1414.0234 1272.5,1404.0234 " fill="none" style="stroke:#A80036;stroke-width:1.5;"/><text fill="#000000" font-family="sans-serif" font-size="14" lengthAdjust="spacing" textLength="102" x="1322.5" y="80.292">Payee Registry</text><path d="M1358.5,31.2969 C1358.5,21.2969 1376.5,21.2969 1376.5,21.2969 C1376.5,21.2969 1394.5,21.2969 1394.5,31.2969 L1394.5,57.2969 C1394.5,67.2969 1376.5,67.2969 1376.5,67.2969 C1376.5,67.2969 1358.5,67.2969 1358.5,57.2969 L1358.5,31.2969 " fill="#FEFECE" filter="url(#f1p7s55ugyvvjy)" style="stroke:#A80036;stroke-width:1.5;"/><path d="M1358.5,31.2969 C1358.5,41.2969 1376.5,41.2969 1376.5,41.2969 C1376.5,41.2969 1394.5,41.2969 1394.5,31.2969 " fill="none" style="stroke:#A80036;stroke-width:1.5;"/><text fill="#000000" font-family="sans-serif" font-size="14" lengthAdjust="spacing" textLength="102" x="1322.5" y="1390.7217">Payee Registry</text><path d="M1358.5,1404.0234 C1358.5,1394.0234 1376.5,1394.0234 1376.5,1394.0234 C1376.5,1394.0234 1394.5,1394.0234 1394.5,1404.0234 L1394.5,1430.0234 C1394.5,1440.0234 1376.5,1440.0234 1376.5,1440.0234 C1376.5,1440.0234 1358.5,1440.0234 1358.5,1430.0234 L1358.5,1404.0234 " fill="#FEFECE" filter="url(#f1p7s55ugyvvjy)" style="stroke:#A80036;stroke-width:1.5;"/><path d="M1358.5,1404.0234 C1358.5,1414.0234 1376.5,1414.0234 1376.5,1414.0234 C1376.5,1414.0234 1394.5,1414.0234 1394.5,1404.0234 " fill="none" style="stroke:#A80036;stroke-width:1.5;"/><rect fill="#FEFECE" filter="url(#f1p7s55ugyvvjy)" height="30.2969" style="stroke:#A80036;stroke-width:1.5;" width="37" x="1440.5" y="48.2969"/><text fill="#000000" font-family="sans-serif" font-size="14" lengthAdjust="spacing" textLength="23" x="1447.5" y="68.292">CBI</text><rect fill="#FEFECE" filter="url(#f1p7s55ugyvvjy)" height="30.2969" style="stroke:#A80036;stroke-width:1.5;" width="37" x="1440.5" y="1377.7266"/><text fill="#000000" font-family="sans-serif" font-size="14" lengthAdjust="spacing" textLength="23" x="1447.5" y="1397.7217">CBI</text><rect fill="#FFFFFF" filter="url(#f1p7s55ugyvvjy)" height="1249" style="stroke:#A80036;stroke-width:1.0;" width="10" x="319.5" y="119.7266"/><rect fill="#FFFFFF" filter="url(#f1p7s55ugyvvjy)" height="1048.2031" style="stroke:#A80036;stroke-width:1.0;" width="10" x="592.5" y="320.5234"/><rect fill="#FFFFFF" filter="url(#f1p7s55ugyvvjy)" height="96.3984" style="stroke:#A80036;stroke-width:1.0;" width="10" x="839.5" y="349.6563"/><rect fill="#FFFFFF" filter="url(#f1p7s55ugyvvjy)" height="87.2656" style="stroke:#A80036;stroke-width:1.0;" width="10" x="839.5" y="480.1875"/><rect fill="#FFFFFF" filter="url(#f1p7s55ugyvvjy)" height="14" style="stroke:#A80036;stroke-width:1.0;" width="10" x="954.5" y="378.7891"/><rect fill="#FFFFFF" filter="url(#f1p7s55ugyvvjy)" height="29.1328" style="stroke:#A80036;stroke-width:1.0;" width="10" x="1008" y="662.8516"/><rect fill="#FFFFFF" filter="url(#f1p7s55ugyvvjy)" height="29.1328" style="stroke:#A80036;stroke-width:1.0;" width="10" x="1008" y="842.6484"/><rect fill="#FFFFFF" filter="url(#f1p7s55ugyvvjy)" height="29.1328" style="stroke:#A80036;stroke-width:1.0;" width="10" x="1008" y="1032.25"/><rect fill="#FFFFFF" filter="url(#f1p7s55ugyvvjy)" height="29.1328" style="stroke:#A80036;stroke-width:1.0;" width="10" x="1008" y="1141.4531"/><rect fill="#FFFFFF" filter="url(#f1p7s55ugyvvjy)" height="29.1328" style="stroke:#A80036;stroke-width:1.0;" width="10" x="1110.5" y="973.9844"/><rect fill="#FFFFFF" filter="url(#f1p7s55ugyvvjy)" height="34.1328" style="stroke:#A80036;stroke-width:1.0;" width="10" x="1249.5" y="499.1875"/><rect fill="#FFFFFF" filter="url(#f1p7s55ugyvvjy)" height="29.1328" style="stroke:#A80036;stroke-width:1.0;" width="10" x="1371.5" y="220.125"/><rect fill="#FFFFFF" filter="url(#f1p7s55ugyvvjy)" height="92.3984" style="stroke:#A80036;stroke-width:1.0;" width="10" x="1456" y="721.1172"/><polygon fill="#A80036" points="307.5,115.7266,317.5,119.7266,307.5,123.7266,311.5,119.7266" style="stroke:#A80036;stroke-width:1.0;"/><line style="stroke:#A80036;stroke-width:1.0;" x1="157" x2="313.5" y1="119.7266" y2="119.7266"/><text fill="#000000" font-family="sans-serif" font-size="13" lengthAdjust="spacing" textLength="103" x="164" y="114.6606">Queue Message</text><path d="M5,98.5938 L5,123.5938 L148,123.5938 L148,108.5938 L138,98.5938 L5,98.5938 " fill="#FBFB77" filter="url(#f1p7s55ugyvvjy)" style="stroke:#A80036;stroke-width:1.0;"/><path d="M138,98.5938 L138,108.5938 L148,108.5938 L138,98.5938 " fill="#FBFB77" style="stroke:#A80036;stroke-width:1.0;"/><text fill="#000000" font-family="sans-serif" font-size="13" lengthAdjust="spacing" textLength="122" x="11" y="115.6606">RTP data from GDP</text><line style="stroke:#A80036;stroke-width:1.0;" x1="329.5" x2="371.5" y1="153.8594" y2="153.8594"/><line style="stroke:#A80036;stroke-width:1.0;" x1="371.5" x2="371.5" y1="153.8594" y2="166.8594"/><line style="stroke:#A80036;stroke-width:1.0;" x1="330.5" x2="371.5" y1="166.8594" y2="166.8594"/><polygon fill="#A80036" points="340.5,162.8594,330.5,166.8594,340.5,170.8594,336.5,166.8594" style="stroke:#A80036;stroke-width:1.0;"/><text fill="#000000" font-family="sans-serif" font-size="13" lengthAdjust="spacing" textLength="167" x="336.5" y="148.7935">Check message operation</text><path d="M515,139.2266 L515,164.2266 L685,164.2266 L685,149.2266 L675,139.2266 L515,139.2266 " fill="#FBFB77" filter="url(#f1p7s55ugyvvjy)" style="stroke:#A80036;stroke-width:1.0;"/><path d="M675,139.2266 L675,149.2266 L685,149.2266 L675,139.2266 " fill="#FBFB77" style="stroke:#A80036;stroke-width:1.0;"/><text fill="#000000" font-family="sans-serif" font-size="13" lengthAdjust="spacing" textLength="149" x="521" y="156.2935">Validate operation type</text><path d="M206,181.8594 L270,181.8594 L270,188.9922 L260,198.9922 L206,198.9922 L206,181.8594 " fill="#EEEEEE" style="stroke:#000000;stroke-width:1.0;"/><rect fill="none" height="1179.8672" style="stroke:#000000;stroke-width:2.0;" width="1315.5" x="206" y="181.8594"/><text fill="#000000" font-family="sans-serif" font-size="13" font-weight="bold" lengthAdjust="spacing" textLength="19" x="221" y="194.9263">alt</text><text fill="#000000" font-family="sans-serif" font-size="11" font-weight="bold" lengthAdjust="spacing" textLength="201" x="285" y="194.0698">[message is CREATE operation]</text><polygon fill="#A80036" points="1359.5,216.125,1369.5,220.125,1359.5,224.125,1363.5,220.125" style="stroke:#A80036;stroke-width:1.0;"/><line style="stroke:#A80036;stroke-width:1.0;" x1="329.5" x2="1365.5" y1="220.125" y2="220.125"/><text fill="#000000" font-family="sans-serif" font-size="13" lengthAdjust="spacing" textLength="128" x="336.5" y="215.0591">Retrieve Payee data</text><polygon fill="#A80036" points="340.5,245.2578,330.5,249.2578,340.5,253.2578,336.5,249.2578" style="stroke:#A80036;stroke-width:1.0;"/><line style="stroke:#A80036;stroke-width:1.0;stroke-dasharray:2.0,2.0;" x1="334.5" x2="1375.5" y1="249.2578" y2="249.2578"/><text fill="#000000" font-family="sans-serif" font-size="13" lengthAdjust="spacing" textLength="72" x="346.5" y="244.1919">Payee data</text><line style="stroke:#A80036;stroke-width:1.0;" x1="329.5" x2="371.5" y1="278.3906" y2="278.3906"/><line style="stroke:#A80036;stroke-width:1.0;" x1="371.5" x2="371.5" y1="278.3906" y2="291.3906"/><line style="stroke:#A80036;stroke-width:1.0;" x1="330.5" x2="371.5" y1="291.3906" y2="291.3906"/><polygon fill="#A80036" points="340.5,287.3906,330.5,291.3906,340.5,295.3906,336.5,291.3906" style="stroke:#A80036;stroke-width:1.0;"/><text fill="#000000" font-family="sans-serif" font-size="13" lengthAdjust="spacing" textLength="249" x="336.5" y="273.3247">Map message and Payee data into RTP</text><polygon fill="#A80036" points="580.5,316.5234,590.5,320.5234,580.5,324.5234,584.5,320.5234" style="stroke:#A80036;stroke-width:1.0;"/><line style="stroke:#A80036;stroke-width:1.0;" x1="329.5" x2="586.5" y1="320.5234" y2="320.5234"/><text fill="#000000" font-family="sans-serif" font-size="13" lengthAdjust="spacing" textLength="191" x="336.5" y="315.4575">Process CREATE RTP Message</text><polygon fill="#A80036" points="827.5,345.6563,837.5,349.6563,827.5,353.6563,831.5,349.6563" style="stroke:#A80036;stroke-width:1.0;"/><line style="stroke:#A80036;stroke-width:1.0;" x1="602.5" x2="833.5" y1="349.6563" y2="349.6563"/><text fill="#000000" font-family="sans-serif" font-size="13" lengthAdjust="spacing" textLength="142" x="609.5" y="344.5903">GET /activations/payer</text><polygon fill="#A80036" points="942.5,374.7891,952.5,378.7891,942.5,382.7891,946.5,378.7891" style="stroke:#A80036;stroke-width:1.0;"/><line style="stroke:#A80036;stroke-width:1.0;" x1="849.5" x2="948.5" y1="378.7891" y2="378.7891"/><text fill="#000000" font-family="sans-serif" font-size="13" lengthAdjust="spacing" textLength="86" x="856.5" y="373.7231">findByPayerId</text><polygon fill="#A80036" points="860.5,388.7891,850.5,392.7891,860.5,396.7891,856.5,392.7891" style="stroke:#A80036;stroke-width:1.0;"/><line style="stroke:#A80036;stroke-width:1.0;stroke-dasharray:2.0,2.0;" x1="854.5" x2="958.5" y1="392.7891" y2="392.7891"/><path d="M216,407.7891 L280,407.7891 L280,414.9219 L270,424.9219 L216,424.9219 L216,407.7891 " fill="#EEEEEE" style="stroke:#000000;stroke-width:1.0;"/><rect fill="none" height="890" style="stroke:#000000;stroke-width:2.0;" width="1295.5" x="216" y="407.7891"/><text fill="#000000" font-family="sans-serif" font-size="13" font-weight="bold" lengthAdjust="spacing" textLength="19" x="231" y="420.856">alt</text><text fill="#000000" font-family="sans-serif" font-size="11" font-weight="bold" lengthAdjust="spacing" textLength="102" x="295" y="419.9995">[user activated]</text><polygon fill="#A80036" points="613.5,442.0547,603.5,446.0547,613.5,450.0547,609.5,446.0547" style="stroke:#A80036;stroke-width:1.0;"/><line style="stroke:#A80036;stroke-width:1.0;stroke-dasharray:2.0,2.0;" x1="607.5" x2="843.5" y1="446.0547" y2="446.0547"/><text fill="#000000" font-family="sans-serif" font-size="13" lengthAdjust="spacing" textLength="190" x="619.5" y="440.9888">payer and its Service Provider</text><polygon fill="#A80036" points="827.5,476.1875,837.5,480.1875,827.5,484.1875,831.5,480.1875" style="stroke:#A80036;stroke-width:1.0;"/><line style="stroke:#A80036;stroke-width:1.0;" x1="602.5" x2="833.5" y1="480.1875" y2="480.1875"/><text fill="#000000" font-family="sans-serif" font-size="13" lengthAdjust="spacing" textLength="103" x="609.5" y="475.1216">getRegistryData</text><path d="M409,459.0547 L409,484.0547 L583,484.0547 L583,469.0547 L573,459.0547 L409,459.0547 " fill="#FBFB77" filter="url(#f1p7s55ugyvvjy)" style="stroke:#A80036;stroke-width:1.0;"/><path d="M573,459.0547 L573,469.0547 L583,469.0547 L573,459.0547 " fill="#FBFB77" style="stroke:#A80036;stroke-width:1.0;"/><text fill="#000000" font-family="sans-serif" font-size="13" lengthAdjust="spacing" textLength="153" x="415" y="476.1216">Search key: ID Payer SP</text><polygon fill="#A80036" points="1237.5,495.1875,1247.5,499.1875,1237.5,503.1875,1241.5,499.1875" style="stroke:#A80036;stroke-width:1.0;"/><line style="stroke:#A80036;stroke-width:1.0;" x1="849.5" x2="1243.5" y1="499.1875" y2="499.1875"/><polygon fill="#A80036" points="860.5,529.3203,850.5,533.3203,860.5,537.3203,856.5,533.3203" style="stroke:#A80036;stroke-width:1.0;"/><line style="stroke:#A80036;stroke-width:1.0;stroke-dasharray:2.0,2.0;" x1="854.5" x2="1253.5" y1="533.3203" y2="533.3203"/><text fill="#000000" font-family="sans-serif" font-size="13" lengthAdjust="spacing" textLength="136" x="866.5" y="528.2544">Service Provider data</text><path d="M1264,512.1875 L1264,537.1875 L1446,537.1875 L1446,522.1875 L1436,512.1875 L1264,512.1875 " fill="#FBFB77" filter="url(#f1p7s55ugyvvjy)" style="stroke:#A80036;stroke-width:1.0;"/><path d="M1436,512.1875 L1436,522.1875 L1446,522.1875 L1436,512.1875 " fill="#FBFB77" style="stroke:#A80036;stroke-width:1.0;"/><text fill="#000000" font-family="sans-serif" font-size="13" lengthAdjust="spacing" textLength="161" x="1270" y="529.2544">service_endpoint, oauth2</text><polygon fill="#A80036" points="613.5,563.4531,603.5,567.4531,613.5,571.4531,609.5,567.4531" style="stroke:#A80036;stroke-width:1.0;"/><line style="stroke:#A80036;stroke-width:1.0;stroke-dasharray:2.0,2.0;" x1="607.5" x2="843.5" y1="567.4531" y2="567.4531"/><text fill="#000000" font-family="sans-serif" font-size="13" lengthAdjust="spacing" textLength="136" x="619.5" y="562.3872">Service Provider data</text><path d="M226,582.4531 L290,582.4531 L290,589.5859 L280,599.5859 L226,599.5859 L226,582.4531 " fill="#EEEEEE" style="stroke:#000000;stroke-width:1.0;"/><rect fill="none" height="635.2656" style="stroke:#000000;stroke-width:2.0;" width="1275.5" x="226" y="582.4531"/><text fill="#000000" font-family="sans-serif" font-size="13" font-weight="bold" lengthAdjust="spacing" textLength="19" x="241" y="595.52">alt</text><text fill="#000000" font-family="sans-serif" font-size="11" font-weight="bold" lengthAdjust="spacing" textLength="155" x="305" y="594.6636">[Service Provider is CBI]</text><line style="stroke:#A80036;stroke-width:1.0;" x1="602.5" x2="644.5" y1="620.7188" y2="620.7188"/><line style="stroke:#A80036;stroke-width:1.0;" x1="644.5" x2="644.5" y1="620.7188" y2="633.7188"/><line style="stroke:#A80036;stroke-width:1.0;" x1="603.5" x2="644.5" y1="633.7188" y2="633.7188"/><polygon fill="#A80036" points="613.5,629.7188,603.5,633.7188,613.5,637.7188,609.5,633.7188" style="stroke:#A80036;stroke-width:1.0;"/><text fill="#000000" font-family="sans-serif" font-size="13" lengthAdjust="spacing" textLength="223" x="609.5" y="615.6528">add activation data to EPC payload</text><polygon fill="#A80036" points="996,658.8516,1006,662.8516,996,666.8516,1000,662.8516" style="stroke:#A80036;stroke-width:1.0;"/><line style="stroke:#A80036;stroke-width:1.0;" x1="602.5" x2="1002" y1="662.8516" y2="662.8516"/><text fill="#000000" font-family="sans-serif" font-size="13" lengthAdjust="spacing" textLength="179" x="609.5" y="657.7856">save RTP in status CREATED</text><polygon fill="#A80036" points="613.5,687.9844,603.5,691.9844,613.5,695.9844,609.5,691.9844" style="stroke:#A80036;stroke-width:1.0;"/><line style="stroke:#A80036;stroke-width:1.0;stroke-dasharray:2.0,2.0;" x1="607.5" x2="1012" y1="691.9844" y2="691.9844"/><text fill="#000000" font-family="sans-serif" font-size="13" lengthAdjust="spacing" textLength="49" x="619.5" y="686.9185">created</text><polygon fill="#A80036" points="613.5,717.1172,603.5,721.1172,613.5,725.1172,609.5,721.1172" style="stroke:#A80036;stroke-width:1.0;"/><polygon fill="#A80036" points="1444,717.1172,1454,721.1172,1444,725.1172,1448,721.1172" style="stroke:#A80036;stroke-width:1.0;"/><line style="stroke:#A80036;stroke-width:1.0;" x1="607.5" x2="1450" y1="721.1172" y2="721.1172"/><text fill="#000000" font-family="sans-serif" font-size="13" lengthAdjust="spacing" textLength="46" x="619.5" y="716.0513">oAuth2</text><polygon fill="#A80036" points="1444,751.25,1454,755.25,1444,759.25,1448,755.25" style="stroke:#A80036;stroke-width:1.0;"/><line style="stroke:#A80036;stroke-width:1.0;" x1="602.5" x2="1450" y1="755.25" y2="755.25"/><text fill="#000000" font-family="sans-serif" font-size="13" lengthAdjust="spacing" textLength="173" x="609.5" y="750.1841">POST /sepa-request-to-pay</text><path d="M516,734.1172 L516,759.1172 L583,759.1172 L583,744.1172 L573,734.1172 L516,734.1172 " fill="#FBFB77" filter="url(#f1p7s55ugyvvjy)" style="stroke:#A80036;stroke-width:1.0;"/><path d="M573,734.1172 L573,744.1172 L583,744.1172 L573,734.1172 " fill="#FBFB77" style="stroke:#A80036;stroke-width:1.0;"/><text fill="#000000" font-family="sans-serif" font-size="13" lengthAdjust="spacing" textLength="46" x="522" y="751.1841">oAuth2</text><path d="M236,775.25 L300,775.25 L300,782.3828 L290,792.3828 L236,792.3828 L236,775.25 " fill="#EEEEEE" style="stroke:#000000;stroke-width:1.0;"/><rect fill="none" height="323.2656" style="stroke:#000000;stroke-width:2.0;" width="1255.5" x="236" y="775.25"/><text fill="#000000" font-family="sans-serif" font-size="13" font-weight="bold" lengthAdjust="spacing" textLength="19" x="251" y="788.3169">alt</text><text fill="#000000" font-family="sans-serif" font-size="11" font-weight="bold" lengthAdjust="spacing" textLength="97" x="315" y="787.4604">[202 accepted]</text><polygon fill="#A80036" points="613.5,809.5156,603.5,813.5156,613.5,817.5156,609.5,813.5156" style="stroke:#A80036;stroke-width:1.0;"/><line style="stroke:#A80036;stroke-width:1.0;stroke-dasharray:2.0,2.0;" x1="607.5" x2="1460" y1="813.5156" y2="813.5156"/><text fill="#000000" font-family="sans-serif" font-size="13" lengthAdjust="spacing" textLength="87" x="619.5" y="808.4497">202 accepted</text><polygon fill="#A80036" points="996,838.6484,1006,842.6484,996,846.6484,1000,842.6484" style="stroke:#A80036;stroke-width:1.0;"/><line style="stroke:#A80036;stroke-width:1.0;" x1="602.5" x2="1002" y1="842.6484" y2="842.6484"/><text fill="#000000" font-family="sans-serif" font-size="13" lengthAdjust="spacing" textLength="154" x="609.5" y="837.5825">save RTP in status SENT</text><polygon fill="#A80036" points="613.5,867.7813,603.5,871.7813,613.5,875.7813,609.5,871.7813" style="stroke:#A80036;stroke-width:1.0;"/><line style="stroke:#A80036;stroke-width:1.0;stroke-dasharray:2.0,2.0;" x1="607.5" x2="1012" y1="871.7813" y2="871.7813"/><text fill="#000000" font-family="sans-serif" font-size="13" lengthAdjust="spacing" textLength="53" x="619.5" y="866.7153">updated</text><polygon fill="#A80036" points="340.5,896.9141,330.5,900.9141,340.5,904.9141,336.5,900.9141" style="stroke:#A80036;stroke-width:1.0;"/><line style="stroke:#A80036;stroke-width:1.0;stroke-dasharray:2.0,2.0;" x1="334.5" x2="591.5" y1="900.9141" y2="900.9141"/><text fill="#000000" font-family="sans-serif" font-size="13" lengthAdjust="spacing" textLength="141" x="346.5" y="895.8481">Processing completed</text><line style="stroke:#000000;stroke-width:1.0;stroke-dasharray:2.0,2.0;" x1="236" x2="1491.5" y1="909.9141" y2="909.9141"/><text fill="#000000" font-family="sans-serif" font-size="11" font-weight="bold" lengthAdjust="spacing" textLength="41" x="241" y="920.1245">[Error]</text><polygon fill="#A80036" points="613.5,940.8516,603.5,944.8516,613.5,948.8516,609.5,944.8516" style="stroke:#A80036;stroke-width:1.0;"/><line style="stroke:#A80036;stroke-width:1.0;stroke-dasharray:2.0,2.0;" x1="607.5" x2="1460" y1="944.8516" y2="944.8516"/><text fill="#000000" font-family="sans-serif" font-size="13" lengthAdjust="spacing" textLength="31" x="619.5" y="939.7856">Error</text><polygon fill="#A80036" points="1098.5,969.9844,1108.5,973.9844,1098.5,977.9844,1102.5,973.9844" style="stroke:#A80036;stroke-width:1.0;"/><line style="stroke:#A80036;stroke-width:1.0;" x1="602.5" x2="1104.5" y1="973.9844" y2="973.9844"/><text fill="#000000" font-family="sans-serif" font-size="13" lengthAdjust="spacing" textLength="206" x="609.5" y="968.9185">save RTP in status ERROR_SEND</text><polygon fill="#A80036" points="613.5,999.1172,603.5,1003.1172,613.5,1007.1172,609.5,1003.1172" style="stroke:#A80036;stroke-width:1.0;"/><line style="stroke:#A80036;stroke-width:1.0;stroke-dasharray:2.0,2.0;" x1="607.5" x2="1114.5" y1="1003.1172" y2="1003.1172"/><text fill="#000000" font-family="sans-serif" font-size="13" lengthAdjust="spacing" textLength="82" x="619.5" y="998.0513">confirm save</text><polygon fill="#A80036" points="996,1028.25,1006,1032.25,996,1036.25,1000,1032.25" style="stroke:#A80036;stroke-width:1.0;"/><line style="stroke:#A80036;stroke-width:1.0;" x1="602.5" x2="1002" y1="1032.25" y2="1032.25"/><text fill="#000000" font-family="sans-serif" font-size="13" lengthAdjust="spacing" textLength="112" x="609.5" y="1027.1841">delete RTP record</text><polygon fill="#A80036" points="613.5,1057.3828,603.5,1061.3828,613.5,1065.3828,609.5,1061.3828" style="stroke:#A80036;stroke-width:1.0;"/><line style="stroke:#A80036;stroke-width:1.0;stroke-dasharray:2.0,2.0;" x1="607.5" x2="1012" y1="1061.3828" y2="1061.3828"/><text fill="#000000" font-family="sans-serif" font-size="13" lengthAdjust="spacing" textLength="92" x="619.5" y="1056.3169">confirm delete</text><polygon fill="#A80036" points="340.5,1086.5156,330.5,1090.5156,340.5,1094.5156,336.5,1090.5156" style="stroke:#A80036;stroke-width:1.0;"/><line style="stroke:#A80036;stroke-width:1.0;stroke-dasharray:2.0,2.0;" x1="334.5" x2="591.5" y1="1090.5156" y2="1090.5156"/><text fill="#000000" font-family="sans-serif" font-size="13" lengthAdjust="spacing" textLength="107" x="346.5" y="1085.4497">Processing failed</text><line style="stroke:#000000;stroke-width:1.0;stroke-dasharray:2.0,2.0;" x1="226" x2="1501.5" y1="1106.5156" y2="1106.5156"/><text fill="#000000" font-family="sans-serif" font-size="11" font-weight="bold" lengthAdjust="spacing" textLength="180" x="231" y="1116.7261">[Service Provider is not CBI]</text><polygon fill="#A80036" points="996,1137.4531,1006,1141.4531,996,1145.4531,1000,1141.4531" style="stroke:#A80036;stroke-width:1.0;"/><line style="stroke:#A80036;stroke-width:1.0;" x1="602.5" x2="1002" y1="1141.4531" y2="1141.4531"/><text fill="#000000" font-family="sans-serif" font-size="13" lengthAdjust="spacing" textLength="154" x="609.5" y="1136.3872">save RTP in status SENT</text><polygon fill="#A80036" points="613.5,1166.5859,603.5,1170.5859,613.5,1174.5859,609.5,1170.5859" style="stroke:#A80036;stroke-width:1.0;"/><line style="stroke:#A80036;stroke-width:1.0;stroke-dasharray:2.0,2.0;" x1="607.5" x2="1012" y1="1170.5859" y2="1170.5859"/><text fill="#000000" font-family="sans-serif" font-size="13" lengthAdjust="spacing" textLength="53" x="619.5" y="1165.52">updated</text><polygon fill="#A80036" points="340.5,1200.7188,330.5,1204.7188,340.5,1208.7188,336.5,1204.7188" style="stroke:#A80036;stroke-width:1.0;"/><line style="stroke:#A80036;stroke-width:1.0;stroke-dasharray:2.0,2.0;" x1="334.5" x2="591.5" y1="1204.7188" y2="1204.7188"/><text fill="#000000" font-family="sans-serif" font-size="13" lengthAdjust="spacing" textLength="204" x="346.5" y="1199.6528">Processing completed (Mocked)</text><path d="M607,1183.5859 L607,1208.5859 L819,1208.5859 L819,1193.5859 L809,1183.5859 L607,1183.5859 " fill="#FBFB77" filter="url(#f1p7s55ugyvvjy)" style="stroke:#A80036;stroke-width:1.0;"/><path d="M809,1183.5859 L809,1193.5859 L819,1193.5859 L809,1183.5859 " fill="#FBFB77" style="stroke:#A80036;stroke-width:1.0;"/><text fill="#000000" font-family="sans-serif" font-size="13" lengthAdjust="spacing" textLength="191" x="613" y="1200.6528">Mocked during CBI integration</text><line style="stroke:#000000;stroke-width:1.0;stroke-dasharray:2.0,2.0;" x1="216" x2="1511.5" y1="1225.7188" y2="1225.7188"/><text fill="#000000" font-family="sans-serif" font-size="11" font-weight="bold" lengthAdjust="spacing" textLength="127" x="221" y="1235.9292">[user not activated]</text><polygon fill="#A80036" points="613.5,1256.6563,603.5,1260.6563,613.5,1264.6563,609.5,1260.6563" style="stroke:#A80036;stroke-width:1.0;"/><line style="stroke:#A80036;stroke-width:1.0;stroke-dasharray:2.0,2.0;" x1="607.5" x2="843.5" y1="1260.6563" y2="1260.6563"/><text fill="#000000" font-family="sans-serif" font-size="13" lengthAdjust="spacing" textLength="89" x="619.5" y="1255.5903">404 not found</text><polygon fill="#A80036" points="340.5,1285.7891,330.5,1289.7891,340.5,1293.7891,336.5,1289.7891" style="stroke:#A80036;stroke-width:1.0;"/><line style="stroke:#A80036;stroke-width:1.0;stroke-dasharray:2.0,2.0;" x1="334.5" x2="591.5" y1="1289.7891" y2="1289.7891"/><text fill="#000000" font-family="sans-serif" font-size="13" lengthAdjust="spacing" textLength="107" x="346.5" y="1284.7231">Processing failed</text><line style="stroke:#000000;stroke-width:1.0;stroke-dasharray:2.0,2.0;" x1="206" x2="1521.5" y1="1305.7891" y2="1305.7891"/><text fill="#000000" font-family="sans-serif" font-size="11" font-weight="bold" lengthAdjust="spacing" textLength="226" x="211" y="1315.9995">[message is not CREATE operation]</text><line style="stroke:#A80036;stroke-width:1.0;" x1="329.5" x2="371.5" y1="1340.7266" y2="1340.7266"/><line style="stroke:#A80036;stroke-width:1.0;" x1="371.5" x2="371.5" y1="1340.7266" y2="1353.7266"/><line style="stroke:#A80036;stroke-width:1.0;" x1="330.5" x2="371.5" y1="1353.7266" y2="1353.7266"/><polygon fill="#A80036" points="340.5,1349.7266,330.5,1353.7266,340.5,1357.7266,336.5,1353.7266" style="stroke:#A80036;stroke-width:1.0;"/><text fill="#000000" font-family="sans-serif" font-size="13" lengthAdjust="spacing" textLength="100" x="336.5" y="1335.6606">Skip processing</text><path d="M448,1326.0938 L448,1351.0938 L621,1351.0938 L621,1336.0938 L611,1326.0938 L448,1326.0938 " fill="#FBFB77" filter="url(#f1p7s55ugyvvjy)" style="stroke:#A80036;stroke-width:1.0;"/><path d="M611,1326.0938 L611,1336.0938 L621,1336.0938 L611,1326.0938 " fill="#FBFB77" style="stroke:#A80036;stroke-width:1.0;"/><text fill="#000000" font-family="sans-serif" font-size="13" lengthAdjust="spacing" textLength="152" x="454" y="1343.1606">Different operation type</text><!--SRC=[nLLDRzim3BtxLn0zjS225aLFmJ0WZOqWXwwU7Gmx32WqYqw4E9OcoS6oNpzA_fBJjDXEEoIm9UhnFVAPCdjHWvO6evyDDWXNATlAbC4gJk6BMxa2PjgdI35jHI4KgorSFQ4nR8kmbBLf3gXzNFyo3NMGYi4CyXIM6hcmKhUuURgSXgxGk4t8K4dZuau-RfL5d5dsWndFyDIbyq_1JfvjqXQN7eBrnU-6C6DwX-INgYY1_bvV6stLZGzVnDz25DH7KJWEMs5ino0_Pt2sdsPJ8Sl7TQSmZY9VFfXz6kepRoiANH6ZMbg42aix1s8EBXEKMXvS6o9MM75aTYnrr3zC8PSxBFPmwFeY5MfcXQnRS2ssEqB_oYh17TQm3VQaC6AL7KuAwcEMB3P9W15cJ3DYYLOBF2AqfN24HvvKYpI3sOHS4CSnZBoivOcfWG-hUN0SH6sbgzBa91c9ScXPq9cUlQjaN-0XetCS_ToP5UbO9HkuxJP9fxbLtb93E1blbNdHRdqEfQZvuyc_h7cWs9_o_rwtyokUxReIDuO2-dNkeNloFh7NAYpPflCWIJeAxaoE8QT0mHPjRqHdyD1AEJ9Tx62FfpciuvO69RkWZjmzLeZWiqx5_1MHjeMXfKmRyO8rLvAQym4aQ-pkFgISPnEjbq6d4bsvNiKvQpwkU_aUYt4EOmDRYv114WgXabQIyI6S345q6RdMMOFcdh7CDhrVuh04P2_tDr8kDFgMJKIvACB-w8FYESY55nwOBHwvqdxwd9FT32esqqZprjYPbJEY6NQj1o7zztVtfAr0vJ8JmaXdiXDo2ZA-9JTFFc_UrTee_gRMiw-w_U94lOL27bI5xXXMD2CJhQMUScwNBfEb2NoHQv9bpzaBCGwwuwOr_OBUoBeK-k3FX_WkS58CZewXJw6na9g_t_8EjZtrRzKecQXSAUgk79USJ3sVkFa_zGkkdsInHtup-QhRDU2DTi54qyrTt7RNmQ3B3pGdP1ngvzEbP_bmz-0ZIzdK_D8y-zjQ1lUKB-5xTzK8cE-50ZMWJiJ6eYnH8ztRPzSYrcTVrp9yxS7_0000]--></g></svg>