<?xml version="1.0" encoding="us-ascii" standalone="no"?><svg xmlns="http://www.w3.org/2000/svg" xmlns:xlink="http://www.w3.org/1999/xlink" contentStyleType="text/css" height="2464.5833px" preserveAspectRatio="none" style="width:1903px;height:2464px;" version="1.1" viewBox="0 0 1903 2464" width="1903.125px" zoomAndPan="magnify"><defs><filter height="300%" id="fjcnyirdpztpv" width="300%" x="-1" y="-1"><feGaussianBlur result="blurOut" stdDeviation="2.0833333333333335"/><feColorMatrix in="blurOut" result="blurOut2" type="matrix" values="0 0 0 0 0 0 0 0 0 0 0 0 0 0 0 0 0 0 .4 0"/><feOffset dx="4.166666666666667" dy="4.166666666666667" in="blurOut2" result="blurOut3"/><feBlend in="SourceGraphic" in2="blurOut3" mode="normal"/></filter><linearGradient id="gjcnyirdpztpv0" x1="50%" x2="50%" y1="0%" y2="100%"><stop offset="0%" stop-color="#FFFFFF"/><stop offset="100%" stop-color="#FFFFFF"/></linearGradient><linearGradient id="gjcnyirdpztpv1" x1="50%" x2="50%" y1="0%" y2="100%"><stop offset="0%" stop-color="#4DABF5"/><stop offset="100%" stop-color="#2196F3"/></linearGradient><linearGradient id="gjcnyirdpztpv2" x1="50%" x2="50%" y1="0%" y2="100%"><stop offset="0%" stop-color="#B052C0"/><stop offset="100%" stop-color="#9C27B0"/></linearGradient></defs><g><rect fill="#FFFFFF" filter="url(#fjcnyirdpztpv)" height="2169.9219" style="stroke:#CCCCCC;stroke-width:1.0416666666666667;" width="10.4167" x="404.1667" y="165.0065"/><rect fill="#FFFFFF" filter="url(#fjcnyirdpztpv)" height="1823.7956" style="stroke:#CCCCCC;stroke-width:1.0416666666666667;" width="10.4167" x="705.2083" y="511.1328"/><rect fill="#FFFFFF" filter="url(#fjcnyirdpztpv)" height="179.0365" style="stroke:#CCCCCC;stroke-width:1.0416666666666667;" width="10.4167" x="980.2083" y="561.1003"/><rect fill="#FFFFFF" filter="url(#fjcnyirdpztpv)" height="128.5807" style="stroke:#CCCCCC;stroke-width:1.0416666666666667;" width="10.4167" x="980.2083" y="794.7917"/><rect fill="#FFFFFF" filter="url(#fjcnyirdpztpv)" height="14.5833" style="stroke:#CCCCCC;stroke-width:1.0416666666666667;" width="10.4167" x="1145.8333" y="611.0677"/><rect fill="#FFFFFF" filter="url(#fjcnyirdpztpv)" height="49.9674" style="stroke:#CCCCCC;stroke-width:1.0416666666666667;" width="10.4167" x="1217.7083" y="1101.3672"/><rect fill="#FFFFFF" filter="url(#fjcnyirdpztpv)" height="49.9674" style="stroke:#CCCCCC;stroke-width:1.0416666666666667;" width="10.4167" x="1217.7083" y="1425.0977"/><rect fill="#FFFFFF" filter="url(#fjcnyirdpztpv)" height="49.9674" style="stroke:#CCCCCC;stroke-width:1.0416666666666667;" width="10.4167" x="1217.7083" y="1762.3698"/><rect fill="#FFFFFF" filter="url(#fjcnyirdpztpv)" height="49.9674" style="stroke:#CCCCCC;stroke-width:1.0416666666666667;" width="10.4167" x="1217.7083" y="1957.0313"/><rect fill="#FFFFFF" filter="url(#fjcnyirdpztpv)" height="49.9674" style="stroke:#CCCCCC;stroke-width:1.0416666666666667;" width="10.4167" x="1335.4167" y="1662.4349"/><rect fill="#FFFFFF" filter="url(#fjcnyirdpztpv)" height="54.6549" style="stroke:#CCCCCC;stroke-width:1.0416666666666667;" width="10.4167" x="1488.5417" y="814.0625"/><rect fill="#FFFFFF" filter="url(#fjcnyirdpztpv)" height="49.9674" style="stroke:#CCCCCC;stroke-width:1.0416666666666667;" width="10.4167" x="1625.5208" y="347.6888"/><rect fill="#FFFFFF" filter="url(#fjcnyirdpztpv)" height="173.8281" style="stroke:#CCCCCC;stroke-width:1.0416666666666667;" width="10.4167" x="1768.2292" y="1201.3021"/><rect fill="url(#gjcnyirdpztpv0)" filter="url(#fjcnyirdpztpv)" height="2078.8086" rx="4.1667" ry="4.1667" style="stroke:#2196F3;stroke-width:1.0416666666666667;" width="1643.2292" x="242.7083" y="248.8281"/><rect fill="url(#gjcnyirdpztpv0)" filter="url(#fjcnyirdpztpv)" height="1578.0924" rx="4.1667" ry="4.1667" style="stroke:#2196F3;stroke-width:1.0416666666666667;" width="1622.3958" x="253.125" y="641.276"/><rect fill="url(#gjcnyirdpztpv0)" filter="url(#fjcnyirdpztpv)" height="1135.6771" rx="4.1667" ry="4.1667" style="stroke:#2196F3;stroke-width:1.0416666666666667;" width="1601.5625" x="263.5417" y="938.9974"/><rect fill="url(#gjcnyirdpztpv0)" filter="url(#fjcnyirdpztpv)" height="594.3685" rx="4.1667" ry="4.1667" style="stroke:#2196F3;stroke-width:1.0416666666666667;" width="1580.7292" x="273.9583" y="1276.2695"/><path d="M273.9583,1533.3659 L1854.6875,1533.3659 L1854.6875,1866.4714 A4.1667,4.1667 0 0 1 1850.5208,1870.638 L278.125,1870.638 A4.1667,4.1667 0 0 1 273.9583,1866.4714 L273.9583,1533.3659 " fill="url(#gjcnyirdpztpv0)" style="stroke:none;stroke-width:1.0416666666666667;"/><path d="M263.5417,1877.9297 L1865.1042,1877.9297 L1865.1042,2070.5078 A4.1667,4.1667 0 0 1 1860.9375,2074.6745 L267.7083,2074.6745 A4.1667,4.1667 0 0 1 263.5417,2070.5078 L263.5417,1877.9297 " fill="url(#gjcnyirdpztpv0)" style="stroke:none;stroke-width:1.0416666666666667;"/><path d="M253.125,2081.9661 L1875.5208,2081.9661 L1875.5208,2215.2018 A4.1667,4.1667 0 0 1 1871.3542,2219.3685 L257.2917,2219.3685 A4.1667,4.1667 0 0 1 253.125,2215.2018 L253.125,2081.9661 " fill="url(#gjcnyirdpztpv0)" style="stroke:none;stroke-width:1.0416666666666667;"/><path d="M242.7083,2226.6602 L1885.9375,2226.6602 L1885.9375,2323.4701 A4.1667,4.1667 0 0 1 1881.7708,2327.6367 L246.875,2327.6367 A4.1667,4.1667 0 0 1 242.7083,2323.4701 L242.7083,2226.6602 " fill="url(#gjcnyirdpztpv0)" style="stroke:none;stroke-width:1.0416666666666667;"/><line style="stroke:#CCCCCC;stroke-width:1.0416666666666667;stroke-dasharray:5.0,5.0;" x1="188.5417" x2="188.5417" y1="108.2682" y2="2345.3451"/><line style="stroke:#CCCCCC;stroke-width:1.0416666666666667;stroke-dasharray:5.0,5.0;" x1="409.375" x2="409.375" y1="108.2682" y2="2345.3451"/><line style="stroke:#CCCCCC;stroke-width:1.0416666666666667;stroke-dasharray:5.0,5.0;" x1="709.8958" x2="709.8958" y1="108.2682" y2="2345.3451"/><line style="stroke:#CCCCCC;stroke-width:1.0416666666666667;stroke-dasharray:5.0,5.0;" x1="984.8958" x2="984.8958" y1="108.2682" y2="2345.3451"/><line style="stroke:#CCCCCC;stroke-width:1.0416666666666667;stroke-dasharray:5.0,5.0;" x1="1150.5208" x2="1150.5208" y1="108.2682" y2="2345.3451"/><line style="stroke:#CCCCCC;stroke-width:1.0416666666666667;stroke-dasharray:5.0,5.0;" x1="1222.3958" x2="1222.3958" y1="108.2682" y2="2345.3451"/><line style="stroke:#CCCCCC;stroke-width:1.0416666666666667;stroke-dasharray:5.0,5.0;" x1="1340.1042" x2="1340.1042" y1="108.2682" y2="2345.3451"/><line style="stroke:#CCCCCC;stroke-width:1.0416666666666667;stroke-dasharray:5.0,5.0;" x1="1493.2292" x2="1493.2292" y1="108.2682" y2="2345.3451"/><line style="stroke:#CCCCCC;stroke-width:1.0416666666666667;stroke-dasharray:5.0,5.0;" x1="1630.7292" x2="1630.7292" y1="108.2682" y2="2345.3451"/><line style="stroke:#CCCCCC;stroke-width:1.0416666666666667;stroke-dasharray:5.0,5.0;" x1="1773.4375" x2="1773.4375" y1="108.2682" y2="2345.3451"/><path d="M109.375,62.4674 L268.75,62.4674 C273.9583,62.4674 273.9583,85.3678 273.9583,85.3678 C273.9583,85.3678 273.9583,108.2682 268.75,108.2682 L109.375,108.2682 C104.1667,108.2682 104.1667,85.3678 104.1667,85.3678 C104.1667,85.3678 104.1667,62.4674 109.375,62.4674 " fill="url(#gjcnyirdpztpv1)" filter="url(#fjcnyirdpztpv)" style="stroke:#2196F3;stroke-width:1.0416666666666667;"/><path d="M268.75,62.4674 C263.5417,62.4674 263.5417,85.3678 263.5417,85.3678 C263.5417,108.2682 268.75,108.2682 268.75,108.2682 " fill="none" style="stroke:#2196F3;stroke-width:1.0416666666666667;"/><text fill="#FFFFFF" font-family="Verdana" font-size="12.5" lengthAdjust="spacing" textLength="128.125" x="119.7917" y="89.6952">PagoPa GDP Queue</text><path d="M109.375,2344.3034 L268.75,2344.3034 C273.9583,2344.3034 273.9583,2367.2038 273.9583,2367.2038 C273.9583,2367.2038 273.9583,2390.1042 268.75,2390.1042 L109.375,2390.1042 C104.1667,2390.1042 104.1667,2367.2038 104.1667,2367.2038 C104.1667,2367.2038 104.1667,2344.3034 109.375,2344.3034 " fill="url(#gjcnyirdpztpv1)" filter="url(#fjcnyirdpztpv)" style="stroke:#2196F3;stroke-width:1.0416666666666667;"/><path d="M268.75,2344.3034 C263.5417,2344.3034 263.5417,2367.2038 263.5417,2367.2038 C263.5417,2390.1042 268.75,2390.1042 268.75,2390.1042 " fill="none" style="stroke:#2196F3;stroke-width:1.0416666666666667;"/><text fill="#FFFFFF" font-family="Verdana" font-size="12.5" lengthAdjust="spacing" textLength="128.125" x="119.7917" y="2371.5312">PagoPa GDP Queue</text><rect fill="url(#gjcnyirdpztpv1)" filter="url(#fjcnyirdpztpv)" height="49.9674" rx="4.1667" ry="4.1667" style="stroke:#2196F3;stroke-width:1.0416666666666667;" width="163.5417" x="326.0417" y="54.1341"/><text fill="#FFFFFF" font-family="Verdana" font-size="12.5" lengthAdjust="spacing" textLength="128.125" x="343.75" y="83.4452">Message Consumer</text><rect fill="url(#gjcnyirdpztpv1)" filter="url(#fjcnyirdpztpv)" height="49.9674" rx="4.1667" ry="4.1667" style="stroke:#2196F3;stroke-width:1.0416666666666667;" width="163.5417" x="326.0417" y="2344.3034"/><text fill="#FFFFFF" font-family="Verdana" font-size="12.5" lengthAdjust="spacing" textLength="128.125" x="343.75" y="2373.6145">Message Consumer</text><rect fill="url(#gjcnyirdpztpv1)" filter="url(#fjcnyirdpztpv)" height="49.9674" rx="4.1667" ry="4.1667" style="stroke:#2196F3;stroke-width:1.0416666666666667;" width="179.1667" x="619.2708" y="54.1341"/><text fill="#FFFFFF" font-family="Verdana" font-size="12.5" lengthAdjust="spacing" textLength="143.75" x="636.9792" y="83.4452">Pagopa - SP Creditore</text><rect fill="url(#gjcnyirdpztpv1)" filter="url(#fjcnyirdpztpv)" height="49.9674" rx="4.1667" ry="4.1667" style="stroke:#2196F3;stroke-width:1.0416666666666667;" width="179.1667" x="619.2708" y="2344.3034"/><text fill="#FFFFFF" font-family="Verdana" font-size="12.5" lengthAdjust="spacing" textLength="143.75" x="636.9792" y="2373.6145">Pagopa - SP Creditore</text><rect fill="url(#gjcnyirdpztpv1)" filter="url(#fjcnyirdpztpv)" height="49.9674" rx="4.1667" ry="4.1667" style="stroke:#2196F3;stroke-width:1.0416666666666667;" width="160.4167" x="903.6458" y="54.1341"/><text fill="#FFFFFF" font-family="Verdana" font-size="12.5" lengthAdjust="spacing" textLength="125" x="921.3542" y="83.4452">Gestore Repository</text><rect fill="url(#gjcnyirdpztpv1)" filter="url(#fjcnyirdpztpv)" height="49.9674" rx="4.1667" ry="4.1667" style="stroke:#2196F3;stroke-width:1.0416666666666667;" width="160.4167" x="903.6458" y="2344.3034"/><text fill="#FFFFFF" font-family="Verdana" font-size="12.5" lengthAdjust="spacing" textLength="125" x="921.3542" y="2373.6145">Gestore Repository</text><text fill="#222222" font-family="Verdana" font-size="12.5" lengthAdjust="spacing" textLength="36.4583" x="1129.6875" y="94.9036">Payer</text><path d="M1132.2917,35.3841 C1132.2917,24.9674 1151.0417,24.9674 1151.0417,24.9674 C1151.0417,24.9674 1169.7917,24.9674 1169.7917,35.3841 L1169.7917,62.4674 C1169.7917,72.8841 1151.0417,72.8841 1151.0417,72.8841 C1151.0417,72.8841 1132.2917,72.8841 1132.2917,62.4674 L1132.2917,35.3841 " fill="url(#gjcnyirdpztpv1)" filter="url(#fjcnyirdpztpv)" style="stroke:#2196F3;stroke-width:1.5625;"/><path d="M1132.2917,35.3841 C1132.2917,45.8008 1151.0417,45.8008 1151.0417,45.8008 C1151.0417,45.8008 1169.7917,45.8008 1169.7917,35.3841 " fill="none" style="stroke:#2196F3;stroke-width:1.5625;"/><text fill="#222222" font-family="Verdana" font-size="12.5" lengthAdjust="spacing" textLength="36.4583" x="1129.6875" y="2366.3228">Payer</text><path d="M1132.2917,2390.1042 C1132.2917,2379.6875 1151.0417,2379.6875 1151.0417,2379.6875 C1151.0417,2379.6875 1169.7917,2379.6875 1169.7917,2390.1042 L1169.7917,2417.1875 C1169.7917,2427.6042 1151.0417,2427.6042 1151.0417,2427.6042 C1151.0417,2427.6042 1132.2917,2427.6042 1132.2917,2417.1875 L1132.2917,2390.1042 " fill="url(#gjcnyirdpztpv1)" filter="url(#fjcnyirdpztpv)" style="stroke:#2196F3;stroke-width:1.5625;"/><path d="M1132.2917,2390.1042 C1132.2917,2400.5208 1151.0417,2400.5208 1151.0417,2400.5208 C1151.0417,2400.5208 1169.7917,2400.5208 1169.7917,2390.1042 " fill="none" style="stroke:#2196F3;stroke-width:1.5625;"/><text fill="#222222" font-family="Verdana" font-size="12.5" lengthAdjust="spacing" textLength="32.2917" x="1203.6458" y="94.9036">SRTP</text><path d="M1204.1667,35.3841 C1204.1667,24.9674 1222.9167,24.9674 1222.9167,24.9674 C1222.9167,24.9674 1241.6667,24.9674 1241.6667,35.3841 L1241.6667,62.4674 C1241.6667,72.8841 1222.9167,72.8841 1222.9167,72.8841 C1222.9167,72.8841 1204.1667,72.8841 1204.1667,62.4674 L1204.1667,35.3841 " fill="url(#gjcnyirdpztpv1)" filter="url(#fjcnyirdpztpv)" style="stroke:#2196F3;stroke-width:1.5625;"/><path d="M1204.1667,35.3841 C1204.1667,45.8008 1222.9167,45.8008 1222.9167,45.8008 C1222.9167,45.8008 1241.6667,45.8008 1241.6667,35.3841 " fill="none" style="stroke:#2196F3;stroke-width:1.5625;"/><text fill="#222222" font-family="Verdana" font-size="12.5" lengthAdjust="spacing" textLength="32.2917" x="1203.6458" y="2366.3228">SRTP</text><path d="M1204.1667,2390.1042 C1204.1667,2379.6875 1222.9167,2379.6875 1222.9167,2379.6875 C1222.9167,2379.6875 1241.6667,2379.6875 1241.6667,2390.1042 L1241.6667,2417.1875 C1241.6667,2427.6042 1222.9167,2427.6042 1222.9167,2427.6042 C1222.9167,2427.6042 1204.1667,2427.6042 1204.1667,2417.1875 L1204.1667,2390.1042 " fill="url(#gjcnyirdpztpv1)" filter="url(#fjcnyirdpztpv)" style="stroke:#2196F3;stroke-width:1.5625;"/><path d="M1204.1667,2390.1042 C1204.1667,2400.5208 1222.9167,2400.5208 1222.9167,2400.5208 C1222.9167,2400.5208 1241.6667,2400.5208 1241.6667,2390.1042 " fill="none" style="stroke:#2196F3;stroke-width:1.5625;"/><text fill="#222222" font-family="Verdana" font-size="12.5" lengthAdjust="spacing" textLength="128.125" x="1273.4375" y="80.3528">Azure Data Explorer</text><text fill="#222222" font-family="Verdana" font-size="12.5" lengthAdjust="spacing" textLength="36.4583" x="1319.2708" y="94.9036">(srtp)</text><path d="M1321.875,20.8333 C1321.875,10.4167 1340.625,10.4167 1340.625,10.4167 C1340.625,10.4167 1359.375,10.4167 1359.375,20.8333 L1359.375,47.9167 C1359.375,58.3333 1340.625,58.3333 1340.625,58.3333 C1340.625,58.3333 1321.875,58.3333 1321.875,47.9167 L1321.875,20.8333 " fill="url(#gjcnyirdpztpv1)" filter="url(#fjcnyirdpztpv)" style="stroke:#2196F3;stroke-width:1.5625;"/><path d="M1321.875,20.8333 C1321.875,31.25 1340.625,31.25 1340.625,31.25 C1340.625,31.25 1359.375,31.25 1359.375,20.8333 " fill="none" style="stroke:#2196F3;stroke-width:1.5625;"/><text fill="#222222" font-family="Verdana" font-size="12.5" lengthAdjust="spacing" textLength="128.125" x="1273.4375" y="2366.3228">Azure Data Explorer</text><text fill="#222222" font-family="Verdana" font-size="12.5" lengthAdjust="spacing" textLength="36.4583" x="1319.2708" y="2380.8736">(srtp)</text><path d="M1321.875,2404.6549 C1321.875,2394.2383 1340.625,2394.2383 1340.625,2394.2383 C1340.625,2394.2383 1359.375,2394.2383 1359.375,2404.6549 L1359.375,2431.7383 C1359.375,2442.1549 1340.625,2442.1549 1340.625,2442.1549 C1340.625,2442.1549 1321.875,2442.1549 1321.875,2431.7383 L1321.875,2404.6549 " fill="url(#gjcnyirdpztpv1)" filter="url(#fjcnyirdpztpv)" style="stroke:#2196F3;stroke-width:1.5625;"/><path d="M1321.875,2404.6549 C1321.875,2415.0716 1340.625,2415.0716 1340.625,2415.0716 C1340.625,2415.0716 1359.375,2415.0716 1359.375,2404.6549 " fill="none" style="stroke:#2196F3;stroke-width:1.5625;"/><text fill="#222222" font-family="Verdana" font-size="12.5" lengthAdjust="spacing" textLength="103.125" x="1439.0625" y="94.9036">Service Registry</text><path d="M1475,35.3841 C1475,24.9674 1493.75,24.9674 1493.75,24.9674 C1493.75,24.9674 1512.5,24.9674 1512.5,35.3841 L1512.5,62.4674 C1512.5,72.8841 1493.75,72.8841 1493.75,72.8841 C1493.75,72.8841 1475,72.8841 1475,62.4674 L1475,35.3841 " fill="url(#gjcnyirdpztpv1)" filter="url(#fjcnyirdpztpv)" style="stroke:#2196F3;stroke-width:1.5625;"/><path d="M1475,35.3841 C1475,45.8008 1493.75,45.8008 1493.75,45.8008 C1493.75,45.8008 1512.5,45.8008 1512.5,35.3841 " fill="none" style="stroke:#2196F3;stroke-width:1.5625;"/><text fill="#222222" font-family="Verdana" font-size="12.5" lengthAdjust="spacing" textLength="103.125" x="1439.0625" y="2366.3228">Service Registry</text><path d="M1475,2390.1042 C1475,2379.6875 1493.75,2379.6875 1493.75,2379.6875 C1493.75,2379.6875 1512.5,2379.6875 1512.5,2390.1042 L1512.5,2417.1875 C1512.5,2427.6042 1493.75,2427.6042 1493.75,2427.6042 C1493.75,2427.6042 1475,2427.6042 1475,2417.1875 L1475,2390.1042 " fill="url(#gjcnyirdpztpv1)" filter="url(#fjcnyirdpztpv)" style="stroke:#2196F3;stroke-width:1.5625;"/><path d="M1475,2390.1042 C1475,2400.5208 1493.75,2400.5208 1493.75,2400.5208 C1493.75,2400.5208 1512.5,2400.5208 1512.5,2390.1042 " fill="none" style="stroke:#2196F3;stroke-width:1.5625;"/><text fill="#222222" font-family="Verdana" font-size="12.5" lengthAdjust="spacing" textLength="95.8333" x="1579.6875" y="94.9036">Payee Registry</text><path d="M1611.9792,35.3841 C1611.9792,24.9674 1630.7292,24.9674 1630.7292,24.9674 C1630.7292,24.9674 1649.4792,24.9674 1649.4792,35.3841 L1649.4792,62.4674 C1649.4792,72.8841 1630.7292,72.8841 1630.7292,72.8841 C1630.7292,72.8841 1611.9792,72.8841 1611.9792,62.4674 L1611.9792,35.3841 " fill="url(#gjcnyirdpztpv1)" filter="url(#fjcnyirdpztpv)" style="stroke:#2196F3;stroke-width:1.5625;"/><path d="M1611.9792,35.3841 C1611.9792,45.8008 1630.7292,45.8008 1630.7292,45.8008 C1630.7292,45.8008 1649.4792,45.8008 1649.4792,35.3841 " fill="none" style="stroke:#2196F3;stroke-width:1.5625;"/><text fill="#222222" font-family="Verdana" font-size="12.5" lengthAdjust="spacing" textLength="95.8333" x="1579.6875" y="2366.3228">Payee Registry</text><path d="M1611.9792,2390.1042 C1611.9792,2379.6875 1630.7292,2379.6875 1630.7292,2379.6875 C1630.7292,2379.6875 1649.4792,2379.6875 1649.4792,2390.1042 L1649.4792,2417.1875 C1649.4792,2427.6042 1630.7292,2427.6042 1630.7292,2427.6042 C1630.7292,2427.6042 1611.9792,2427.6042 1611.9792,2417.1875 L1611.9792,2390.1042 " fill="url(#gjcnyirdpztpv1)" filter="url(#fjcnyirdpztpv)" style="stroke:#2196F3;stroke-width:1.5625;"/><path d="M1611.9792,2390.1042 C1611.9792,2400.5208 1630.7292,2400.5208 1630.7292,2400.5208 C1630.7292,2400.5208 1649.4792,2400.5208 1649.4792,2390.1042 " fill="none" style="stroke:#2196F3;stroke-width:1.5625;"/><rect fill="url(#gjcnyirdpztpv1)" filter="url(#fjcnyirdpztpv)" height="49.9674" rx="4.1667" ry="4.1667" style="stroke:#2196F3;stroke-width:1.0416666666666667;" width="55.2083" x="1744.2708" y="54.1341"/><text fill="#FFFFFF" font-family="Verdana" font-size="12.5" lengthAdjust="spacing" textLength="19.7917" x="1761.9792" y="83.4452">CBI</text><rect fill="url(#gjcnyirdpztpv1)" filter="url(#fjcnyirdpztpv)" height="49.9674" rx="4.1667" ry="4.1667" style="stroke:#2196F3;stroke-width:1.0416666666666667;" width="55.2083" x="1744.2708" y="2344.3034"/><text fill="#FFFFFF" font-family="Verdana" font-size="12.5" lengthAdjust="spacing" textLength="19.7917" x="1761.9792" y="2373.6145">CBI</text><rect fill="#FFFFFF" filter="url(#fjcnyirdpztpv)" height="2169.9219" style="stroke:#CCCCCC;stroke-width:1.0416666666666667;" width="10.4167" x="404.1667" y="165.0065"/><rect fill="#FFFFFF" filter="url(#fjcnyirdpztpv)" height="1823.7956" style="stroke:#CCCCCC;stroke-width:1.0416666666666667;" width="10.4167" x="705.2083" y="511.1328"/><rect fill="#FFFFFF" filter="url(#fjcnyirdpztpv)" height="179.0365" style="stroke:#CCCCCC;stroke-width:1.0416666666666667;" width="10.4167" x="980.2083" y="561.1003"/><rect fill="#FFFFFF" filter="url(#fjcnyirdpztpv)" height="128.5807" style="stroke:#CCCCCC;stroke-width:1.0416666666666667;" width="10.4167" x="980.2083" y="794.7917"/><rect fill="#FFFFFF" filter="url(#fjcnyirdpztpv)" height="14.5833" style="stroke:#CCCCCC;stroke-width:1.0416666666666667;" width="10.4167" x="1145.8333" y="611.0677"/><rect fill="#FFFFFF" filter="url(#fjcnyirdpztpv)" height="49.9674" style="stroke:#CCCCCC;stroke-width:1.0416666666666667;" width="10.4167" x="1217.7083" y="1101.3672"/><rect fill="#FFFFFF" filter="url(#fjcnyirdpztpv)" height="49.9674" style="stroke:#CCCCCC;stroke-width:1.0416666666666667;" width="10.4167" x="1217.7083" y="1425.0977"/><rect fill="#FFFFFF" filter="url(#fjcnyirdpztpv)" height="49.9674" style="stroke:#CCCCCC;stroke-width:1.0416666666666667;" width="10.4167" x="1217.7083" y="1762.3698"/><rect fill="#FFFFFF" filter="url(#fjcnyirdpztpv)" height="49.9674" style="stroke:#CCCCCC;stroke-width:1.0416666666666667;" width="10.4167" x="1217.7083" y="1957.0313"/><rect fill="#FFFFFF" filter="url(#fjcnyirdpztpv)" height="49.9674" style="stroke:#CCCCCC;stroke-width:1.0416666666666667;" width="10.4167" x="1335.4167" y="1662.4349"/><rect fill="#FFFFFF" filter="url(#fjcnyirdpztpv)" height="54.6549" style="stroke:#CCCCCC;stroke-width:1.0416666666666667;" width="10.4167" x="1488.5417" y="814.0625"/><rect fill="#FFFFFF" filter="url(#fjcnyirdpztpv)" height="49.9674" style="stroke:#CCCCCC;stroke-width:1.0416666666666667;" width="10.4167" x="1625.5208" y="347.6888"/><rect fill="#FFFFFF" filter="url(#fjcnyirdpztpv)" height="173.8281" style="stroke:#CCCCCC;stroke-width:1.0416666666666667;" width="10.4167" x="1768.2292" y="1201.3021"/><polygon fill="#2196F3" points="391.6667,160.8398,402.0833,165.0065,391.6667,169.1732,395.8333,165.0065" style="stroke:#2196F3;stroke-width:1.0416666666666667;"/><line style="stroke:#2196F3;stroke-width:3.125;" x1="189.0625" x2="397.9167" y1="165.0065" y2="165.0065"/><text fill="#222222" font-family="Verdana" font-size="12.5" lengthAdjust="spacing" textLength="105.2083" x="206.7708" y="149.5585">Queue Message</text><path d="M15.625,128.0599 L15.625,164.5182 A4.1667,4.1667 0 0 0 19.7917,168.6849 L177.0833,168.6849 A4.1667,4.1667 0 0 0 181.25,164.5182 L181.25,134.3099 L170.8333,123.8932 L19.7917,123.8932 A4.1667,4.1667 0 0 0 15.625,128.0599 " fill="url(#gjcnyirdpztpv2)" filter="url(#fjcnyirdpztpv)" style="stroke:#9C27B0;stroke-width:1.0416666666666667;"/><path d="M170.8333,123.8932 L170.8333,132.2266 A2.0833,2.0833 0 0 0 172.9167,134.3099 L181.25,134.3099 L170.8333,123.8932 " fill="url(#gjcnyirdpztpv2)" style="stroke:#9C27B0;stroke-width:1.0416666666666667;"/><text fill="#FFFFFF" font-family="Verdana" font-size="12.5" lengthAdjust="spacing" textLength="122.9167" x="32.2917" y="151.121">RTP data from GDP</text><line style="stroke:#2196F3;stroke-width:3.125;" x1="414.5833" x2="458.3333" y1="219.6615" y2="219.6615"/><line style="stroke:#2196F3;stroke-width:3.125;" x1="458.3333" x2="458.3333" y1="219.6615" y2="233.2031"/><line style="stroke:#2196F3;stroke-width:3.125;" x1="415.625" x2="458.3333" y1="233.2031" y2="233.2031"/><polygon fill="#2196F3" points="426.0417,229.0365,415.625,233.2031,426.0417,237.3698,421.875,233.2031" style="stroke:#2196F3;stroke-width:1.0416666666666667;"/><text fill="#222222" font-family="Verdana" font-size="12.5" lengthAdjust="spacing" textLength="170.8333" x="432.2917" y="204.2135">Check message operation</text><path d="M626.0417,189.4857 L626.0417,225.944 A4.1667,4.1667 0 0 0 630.2083,230.1107 L817.7083,230.1107 A4.1667,4.1667 0 0 0 821.875,225.944 L821.875,195.7357 L811.4583,185.319 L630.2083,185.319 A4.1667,4.1667 0 0 0 626.0417,189.4857 " fill="url(#gjcnyirdpztpv2)" filter="url(#fjcnyirdpztpv)" style="stroke:#9C27B0;stroke-width:1.0416666666666667;"/><path d="M811.4583,185.319 L811.4583,193.6523 A2.0833,2.0833 0 0 0 813.5417,195.7357 L821.875,195.7357 L811.4583,185.319 " fill="url(#gjcnyirdpztpv2)" style="stroke:#9C27B0;stroke-width:1.0416666666666667;"/><text fill="#FFFFFF" font-family="Verdana" font-size="12.5" lengthAdjust="spacing" textLength="153.125" x="642.7083" y="212.5468">Validate operation type</text><path d="M246.875,248.8281 L330.2083,248.8281 L330.2083,275.8789 L319.7917,286.2956 L242.7083,286.2956 L242.7083,252.9948 A4.1667,4.1667 0 0 1 246.875,248.8281 " fill="#FFFFFF" style="stroke:#666666;stroke-width:1.0416666666666667;"/><rect fill="none" height="2078.8086" rx="4.1667" ry="4.1667" style="stroke:#2196F3;stroke-width:1.0416666666666667;" width="1643.2292" x="242.7083" y="248.8281"/><text fill="#9C27B0" font-family="Verdana" font-size="12.5" font-weight="bold" lengthAdjust="spacing" textLength="19.7917" x="268.75" y="271.8892">alt</text><text fill="#222222" font-family="Verdana" font-size="12.5" font-weight="bold" lengthAdjust="spacing" textLength="228.125" x="356.25" y="272.9309">[message is CREATE operation]</text><polygon fill="#2196F3" points="1613.0208,343.5221,1623.4375,347.6888,1613.0208,351.8555,1617.1875,347.6888" style="stroke:#2196F3;stroke-width:1.0416666666666667;"/><line style="stroke:#2196F3;stroke-width:3.125;" x1="414.5833" x2="1619.2708" y1="347.6888" y2="347.6888"/><text fill="#222222" font-family="Verdana" font-size="12.5" lengthAdjust="spacing" textLength="131.25" x="432.2917" y="332.2408">Retrieve Payee data</text><polygon fill="#2196F3" points="426.0417,393.4896,415.625,397.6563,426.0417,401.8229,421.875,397.6563" style="stroke:#2196F3;stroke-width:1.0416666666666667;"/><line style="stroke:#2196F3;stroke-width:3.125;stroke-dasharray:2.0,2.0;" x1="419.7917" x2="1629.6875" y1="397.6563" y2="397.6563"/><text fill="#222222" font-family="Verdana" font-size="12.5" lengthAdjust="spacing" textLength="73.9583" x="442.7083" y="382.2083">Payee data</text><line style="stroke:#2196F3;stroke-width:3.125;" x1="414.5833" x2="458.3333" y1="447.6237" y2="447.6237"/><line style="stroke:#2196F3;stroke-width:3.125;" x1="458.3333" x2="458.3333" y1="447.6237" y2="461.1654"/><line style="stroke:#2196F3;stroke-width:3.125;" x1="415.625" x2="458.3333" y1="461.1654" y2="461.1654"/><polygon fill="#2196F3" points="426.0417,456.9987,415.625,461.1654,426.0417,465.332,421.875,461.1654" style="stroke:#2196F3;stroke-width:1.0416666666666667;"/><text fill="#222222" font-family="Verdana" font-size="12.5" lengthAdjust="spacing" textLength="255.2083" x="432.2917" y="432.1757">Map message and Payee data into RTP</text><polygon fill="#2196F3" points="692.7083,506.9661,703.125,511.1328,692.7083,515.2995,696.875,511.1328" style="stroke:#2196F3;stroke-width:1.0416666666666667;"/><line style="stroke:#2196F3;stroke-width:3.125;" x1="414.5833" x2="698.9583" y1="511.1328" y2="511.1328"/><text fill="#222222" font-family="Verdana" font-size="12.5" lengthAdjust="spacing" textLength="195.8333" x="432.2917" y="495.6848">Process CREATE RTP Message</text><polygon fill="#2196F3" points="967.7083,556.9336,978.125,561.1003,967.7083,565.2669,971.875,561.1003" style="stroke:#2196F3;stroke-width:1.0416666666666667;"/><line style="stroke:#2196F3;stroke-width:3.125;" x1="715.625" x2="973.9583" y1="561.1003" y2="561.1003"/><text fill="#222222" font-family="Verdana" font-size="12.5" lengthAdjust="spacing" textLength="144.7917" x="733.3333" y="545.6523">GET /activations/payer</text><polygon fill="#2196F3" points="1133.3333,606.901,1143.75,611.0677,1133.3333,615.2344,1137.5,611.0677" style="stroke:#2196F3;stroke-width:1.0416666666666667;"/><line style="stroke:#2196F3;stroke-width:3.125;" x1="990.625" x2="1139.5833" y1="611.0677" y2="611.0677"/><text fill="#222222" font-family="Verdana" font-size="12.5" lengthAdjust="spacing" textLength="86.4583" x="1008.3333" y="595.6197">findByPayerId</text><polygon fill="#2196F3" points="1002.0833,621.4844,991.6667,625.651,1002.0833,629.8177,997.9167,625.651" style="stroke:#2196F3;stroke-width:1.0416666666666667;"/><line style="stroke:#2196F3;stroke-width:3.125;stroke-dasharray:2.0,2.0;" x1="995.8333" x2="1150" y1="625.651" y2="625.651"/><path d="M257.2917,641.276 L340.625,641.276 L340.625,668.3268 L330.2083,678.7435 L253.125,678.7435 L253.125,645.4427 A4.1667,4.1667 0 0 1 257.2917,641.276 " fill="#FFFFFF" style="stroke:#666666;stroke-width:1.0416666666666667;"/><rect fill="none" height="1578.0924" rx="4.1667" ry="4.1667" style="stroke:#2196F3;stroke-width:1.0416666666666667;" width="1622.3958" x="253.125" y="641.276"/><text fill="#9C27B0" font-family="Verdana" font-size="12.5" font-weight="bold" lengthAdjust="spacing" textLength="19.7917" x="279.1667" y="664.3372">alt</text><text fill="#222222" font-family="Verdana" font-size="12.5" font-weight="bold" lengthAdjust="spacing" textLength="116.6667" x="366.6667" y="665.3788">[user activated]</text><polygon fill="#2196F3" points="727.0833,735.9701,716.6667,740.1367,727.0833,744.3034,722.9167,740.1367" style="stroke:#2196F3;stroke-width:1.0416666666666667;"/><line style="stroke:#2196F3;stroke-width:3.125;stroke-dasharray:2.0,2.0;" x1="720.8333" x2="984.375" y1="740.1367" y2="740.1367"/><text fill="#222222" font-family="Verdana" font-size="12.5" lengthAdjust="spacing" textLength="193.75" x="743.75" y="724.6887">payer and its Service Provider</text><polygon fill="#2196F3" points="967.7083,790.625,978.125,794.7917,967.7083,798.9583,971.875,794.7917" style="stroke:#2196F3;stroke-width:1.0416666666666667;"/><line style="stroke:#2196F3;stroke-width:3.125;" x1="715.625" x2="973.9583" y1="794.7917" y2="794.7917"/><text fill="#222222" font-family="Verdana" font-size="12.5" lengthAdjust="spacing" textLength="105.2083" x="733.3333" y="779.3437">getRegistryData</text><path d="M500,757.8451 L500,794.3034 A4.1667,4.1667 0 0 0 504.1667,798.4701 L692.7083,798.4701 A4.1667,4.1667 0 0 0 696.875,794.3034 L696.875,764.0951 L686.4583,753.6784 L504.1667,753.6784 A4.1667,4.1667 0 0 0 500,757.8451 " fill="url(#gjcnyirdpztpv2)" filter="url(#fjcnyirdpztpv)" style="stroke:#9C27B0;stroke-width:1.0416666666666667;"/><path d="M686.4583,753.6784 L686.4583,762.0117 A2.0833,2.0833 0 0 0 688.5417,764.0951 L696.875,764.0951 L686.4583,753.6784 " fill="url(#gjcnyirdpztpv2)" style="stroke:#9C27B0;stroke-width:1.0416666666666667;"/><text fill="#FFFFFF" font-family="Verdana" font-size="12.5" lengthAdjust="spacing" textLength="154.1667" x="516.6667" y="780.9062">Search key: ID Payer SP</text><polygon fill="#2196F3" points="1476.0417,809.8958,1486.4583,814.0625,1476.0417,818.2292,1480.2083,814.0625" style="stroke:#2196F3;stroke-width:1.0416666666666667;"/><line style="stroke:#2196F3;stroke-width:3.125;" x1="990.625" x2="1482.2917" y1="814.0625" y2="814.0625"/><polygon fill="#2196F3" points="1002.0833,864.5508,991.6667,868.7174,1002.0833,872.8841,997.9167,868.7174" style="stroke:#2196F3;stroke-width:1.0416666666666667;"/><line style="stroke:#2196F3;stroke-width:3.125;stroke-dasharray:2.0,2.0;" x1="995.8333" x2="1492.7083" y1="868.7174" y2="868.7174"/><text fill="#222222" font-family="Verdana" font-size="12.5" lengthAdjust="spacing" textLength="138.5417" x="1018.75" y="853.2694">Service Provider data</text><path d="M1504.1667,831.7708 L1504.1667,868.2292 A4.1667,4.1667 0 0 0 1508.3333,872.3958 L1708.3333,872.3958 A4.1667,4.1667 0 0 0 1712.5,868.2292 L1712.5,838.0208 L1702.0833,827.6042 L1508.3333,827.6042 A4.1667,4.1667 0 0 0 1504.1667,831.7708 " fill="url(#gjcnyirdpztpv2)" filter="url(#fjcnyirdpztpv)" style="stroke:#9C27B0;stroke-width:1.0416666666666667;"/><path d="M1702.0833,827.6042 L1702.0833,835.9375 A2.0833,2.0833 0 0 0 1704.1667,838.0208 L1712.5,838.0208 L1702.0833,827.6042 " fill="url(#gjcnyirdpztpv2)" style="stroke:#9C27B0;stroke-width:1.0416666666666667;"/><text fill="#FFFFFF" font-family="Verdana" font-size="12.5" lengthAdjust="spacing" textLength="165.625" x="1520.8333" y="854.8319">service_endpoint, oauth2</text><polygon fill="#2196F3" points="727.0833,919.2057,716.6667,923.3724,727.0833,927.5391,722.9167,923.3724" style="stroke:#2196F3;stroke-width:1.0416666666666667;"/><line style="stroke:#2196F3;stroke-width:3.125;stroke-dasharray:2.0,2.0;" x1="720.8333" x2="984.375" y1="923.3724" y2="923.3724"/><text fill="#222222" font-family="Verdana" font-size="12.5" lengthAdjust="spacing" textLength="138.5417" x="743.75" y="907.9244">Service Provider data</text><path d="M267.7083,938.9974 L351.0417,938.9974 L351.0417,966.0482 L340.625,976.4648 L263.5417,976.4648 L263.5417,943.1641 A4.1667,4.1667 0 0 1 267.7083,938.9974 " fill="#FFFFFF" style="stroke:#666666;stroke-width:1.0416666666666667;"/><rect fill="none" height="1135.6771" rx="4.1667" ry="4.1667" style="stroke:#2196F3;stroke-width:1.0416666666666667;" width="1601.5625" x="263.5417" y="938.9974"/><text fill="#9C27B0" font-family="Verdana" font-size="12.5" font-weight="bold" lengthAdjust="spacing" textLength="19.7917" x="289.5833" y="962.0585">alt</text><text fill="#222222" font-family="Verdana" font-size="12.5" font-weight="bold" lengthAdjust="spacing" textLength="172.9167" x="377.0833" y="963.1002">[Service Provider is CBI]</text><line style="stroke:#2196F3;stroke-width:3.125;" x1="715.625" x2="759.375" y1="1037.8581" y2="1037.8581"/><line style="stroke:#2196F3;stroke-width:3.125;" x1="759.375" x2="759.375" y1="1037.8581" y2="1051.3997"/><line style="stroke:#2196F3;stroke-width:3.125;" x1="716.6667" x2="759.375" y1="1051.3997" y2="1051.3997"/><polygon fill="#2196F3" points="727.0833,1047.2331,716.6667,1051.3997,727.0833,1055.5664,722.9167,1051.3997" style="stroke:#2196F3;stroke-width:1.0416666666666667;"/><text fill="#222222" font-family="Verdana" font-size="12.5" lengthAdjust="spacing" textLength="229.1667" x="733.3333" y="1022.4101">add activation data to EPC payload</text><polygon fill="#2196F3" points="1205.2083,1097.2005,1215.625,1101.3672,1205.2083,1105.5339,1209.375,1101.3672" style="stroke:#2196F3;stroke-width:1.0416666666666667;"/><line style="stroke:#2196F3;stroke-width:3.125;" x1="715.625" x2="1211.4583" y1="1101.3672" y2="1101.3672"/><text fill="#222222" font-family="Verdana" font-size="12.5" lengthAdjust="spacing" textLength="182.2917" x="733.3333" y="1085.9192">save RTP in status CREATED</text><polygon fill="#2196F3" points="727.0833,1147.168,716.6667,1151.3346,727.0833,1155.5013,722.9167,1151.3346" style="stroke:#2196F3;stroke-width:1.0416666666666667;"/><line style="stroke:#2196F3;stroke-width:3.125;stroke-dasharray:2.0,2.0;" x1="720.8333" x2="1221.875" y1="1151.3346" y2="1151.3346"/><text fill="#222222" font-family="Verdana" font-size="12.5" lengthAdjust="spacing" textLength="51.0417" x="743.75" y="1135.8866">created</text><polygon fill="#2196F3" points="727.0833,1197.1354,716.6667,1201.3021,727.0833,1205.4688,722.9167,1201.3021" style="stroke:#2196F3;stroke-width:1.0416666666666667;"/><polygon fill="#2196F3" points="1755.7292,1197.1354,1766.1458,1201.3021,1755.7292,1205.4688,1759.8958,1201.3021" style="stroke:#2196F3;stroke-width:1.0416666666666667;"/><line style="stroke:#2196F3;stroke-width:3.125;" x1="720.8333" x2="1761.9792" y1="1201.3021" y2="1201.3021"/><text fill="#222222" font-family="Verdana" font-size="12.5" lengthAdjust="spacing" textLength="46.875" x="743.75" y="1185.8541">oAuth2</text><polygon fill="#2196F3" points="1755.7292,1251.7904,1766.1458,1255.957,1755.7292,1260.1237,1759.8958,1255.957" style="stroke:#2196F3;stroke-width:1.0416666666666667;"/><line style="stroke:#2196F3;stroke-width:3.125;" x1="715.625" x2="1761.9792" y1="1255.957" y2="1255.957"/><text fill="#222222" font-family="Verdana" font-size="12.5" lengthAdjust="spacing" textLength="173.9583" x="733.3333" y="1240.509">POST /sepa-request-to-pay</text><path d="M607.2917,1219.0104 L607.2917,1255.4688 A4.1667,4.1667 0 0 0 611.4583,1259.6354 L692.7083,1259.6354 A4.1667,4.1667 0 0 0 696.875,1255.4688 L696.875,1225.2604 L686.4583,1214.8438 L611.4583,1214.8438 A4.1667,4.1667 0 0 0 607.2917,1219.0104 " fill="url(#gjcnyirdpztpv2)" filter="url(#fjcnyirdpztpv)" style="stroke:#9C27B0;stroke-width:1.0416666666666667;"/><path d="M686.4583,1214.8438 L686.4583,1223.1771 A2.0833,2.0833 0 0 0 688.5417,1225.2604 L696.875,1225.2604 L686.4583,1214.8438 " fill="url(#gjcnyirdpztpv2)" style="stroke:#9C27B0;stroke-width:1.0416666666666667;"/><text fill="#FFFFFF" font-family="Verdana" font-size="12.5" lengthAdjust="spacing" textLength="46.875" x="623.9583" y="1242.0715">oAuth2</text><path d="M278.125,1276.2695 L361.4583,1276.2695 L361.4583,1303.3203 L351.0417,1313.737 L273.9583,1313.737 L273.9583,1280.4362 A4.1667,4.1667 0 0 1 278.125,1276.2695 " fill="#FFFFFF" style="stroke:#666666;stroke-width:1.0416666666666667;"/><rect fill="none" height="594.3685" rx="4.1667" ry="4.1667" style="stroke:#2196F3;stroke-width:1.0416666666666667;" width="1580.7292" x="273.9583" y="1276.2695"/><text fill="#9C27B0" font-family="Verdana" font-size="12.5" font-weight="bold" lengthAdjust="spacing" textLength="19.7917" x="300" y="1299.3306">alt</text><text fill="#222222" font-family="Verdana" font-size="12.5" font-weight="bold" lengthAdjust="spacing" textLength="107.2917" x="387.5" y="1300.3723">[202 accepted]</text><polygon fill="#2196F3" points="727.0833,1370.9635,716.6667,1375.1302,727.0833,1379.2969,722.9167,1375.1302" style="stroke:#2196F3;stroke-width:1.0416666666666667;"/><line style="stroke:#2196F3;stroke-width:3.125;stroke-dasharray:2.0,2.0;" x1="720.8333" x2="1772.3958" y1="1375.1302" y2="1375.1302"/><text fill="#222222" font-family="Verdana" font-size="12.5" lengthAdjust="spacing" textLength="90.625" x="743.75" y="1359.6822">202 accepted</text><polygon fill="#2196F3" points="1205.2083,1420.931,1215.625,1425.0977,1205.2083,1429.2643,1209.375,1425.0977" style="stroke:#2196F3;stroke-width:1.0416666666666667;"/><line style="stroke:#2196F3;stroke-width:3.125;" x1="715.625" x2="1211.4583" y1="1425.0977" y2="1425.0977"/><text fill="#222222" font-family="Verdana" font-size="12.5" lengthAdjust="spacing" textLength="157.2917" x="733.3333" y="1409.6497">save RTP in status SENT</text><polygon fill="#2196F3" points="727.0833,1470.8984,716.6667,1475.0651,727.0833,1479.2318,722.9167,1475.0651" style="stroke:#2196F3;stroke-width:1.0416666666666667;"/><line style="stroke:#2196F3;stroke-width:3.125;stroke-dasharray:2.0,2.0;" x1="720.8333" x2="1221.875" y1="1475.0651" y2="1475.0651"/><text fill="#222222" font-family="Verdana" font-size="12.5" lengthAdjust="spacing" textLength="55.2083" x="743.75" y="1459.6171">updated</text><polygon fill="#2196F3" points="426.0417,1520.8659,415.625,1525.0326,426.0417,1529.1992,421.875,1525.0326" style="stroke:#2196F3;stroke-width:1.0416666666666667;"/><line style="stroke:#2196F3;stroke-width:3.125;stroke-dasharray:2.0,2.0;" x1="419.7917" x2="704.1667" y1="1525.0326" y2="1525.0326"/><text fill="#222222" font-family="Verdana" font-size="12.5" lengthAdjust="spacing" textLength="144.7917" x="442.7083" y="1509.5846">Processing completed</text><line style="stroke:#2196F3;stroke-width:1.0416666666666667;stroke-dasharray:2.0,2.0;" x1="273.9583" x2="1854.6875" y1="1534.4076" y2="1534.4076"/><text fill="#222222" font-family="Verdana" font-size="12.5" font-weight="bold" lengthAdjust="spacing" textLength="46.875" x="289.5833" y="1556.427">[Error]</text><polygon fill="#2196F3" points="727.0833,1608.3008,716.6667,1612.4674,727.0833,1616.6341,722.9167,1612.4674" style="stroke:#2196F3;stroke-width:1.0416666666666667;"/><line style="stroke:#2196F3;stroke-width:3.125;stroke-dasharray:2.0,2.0;" x1="720.8333" x2="1772.3958" y1="1612.4674" y2="1612.4674"/><text fill="#222222" font-family="Verdana" font-size="12.5" lengthAdjust="spacing" textLength="32.2917" x="743.75" y="1597.0194">Error</text><polygon fill="#2196F3" points="1322.9167,1658.2682,1333.3333,1662.4349,1322.9167,1666.6016,1327.0833,1662.4349" style="stroke:#2196F3;stroke-width:1.0416666666666667;"/><line style="stroke:#2196F3;stroke-width:3.125;" x1="715.625" x2="1329.1667" y1="1662.4349" y2="1662.4349"/><text fill="#222222" font-family="Verdana" font-size="12.5" lengthAdjust="spacing" textLength="208.3333" x="733.3333" y="1646.9869">save RTP in status ERROR_SEND</text><polygon fill="#2196F3" points="727.0833,1708.2357,716.6667,1712.4023,727.0833,1716.569,722.9167,1712.4023" style="stroke:#2196F3;stroke-width:1.0416666666666667;"/><line style="stroke:#2196F3;stroke-width:3.125;stroke-dasharray:2.0,2.0;" x1="720.8333" x2="1339.5833" y1="1712.4023" y2="1712.4023"/><text fill="#222222" font-family="Verdana" font-size="12.5" lengthAdjust="spacing" textLength="82.2917" x="743.75" y="1696.9543">confirm save</text><polygon fill="#2196F3" points="1205.2083,1758.2031,1215.625,1762.3698,1205.2083,1766.5365,1209.375,1762.3698" style="stroke:#2196F3;stroke-width:1.0416666666666667;"/><line style="stroke:#2196F3;stroke-width:3.125;" x1="715.625" x2="1211.4583" y1="1762.3698" y2="1762.3698"/><text fill="#222222" font-family="Verdana" font-size="12.5" lengthAdjust="spacing" textLength="116.6667" x="733.3333" y="1746.9218">delete RTP record</text><polygon fill="#2196F3" points="727.0833,1808.1706,716.6667,1812.3372,727.0833,1816.5039,722.9167,1812.3372" style="stroke:#2196F3;stroke-width:1.0416666666666667;"/><line style="stroke:#2196F3;stroke-width:3.125;stroke-dasharray:2.0,2.0;" x1="720.8333" x2="1221.875" y1="1812.3372" y2="1812.3372"/><text fill="#222222" font-family="Verdana" font-size="12.5" lengthAdjust="spacing" textLength="93.75" x="743.75" y="1796.8892">confirm delete</text><polygon fill="#2196F3" points="426.0417,1858.138,415.625,1862.3047,426.0417,1866.4714,421.875,1862.3047" style="stroke:#2196F3;stroke-width:1.0416666666666667;"/><line style="stroke:#2196F3;stroke-width:3.125;stroke-dasharray:2.0,2.0;" x1="419.7917" x2="704.1667" y1="1862.3047" y2="1862.3047"/><text fill="#222222" font-family="Verdana" font-size="12.5" lengthAdjust="spacing" textLength="111.4583" x="442.7083" y="1846.8567">Processing failed</text><line style="stroke:#2196F3;stroke-width:1.0416666666666667;stroke-dasharray:2.0,2.0;" x1="263.5417" x2="1865.1042" y1="1878.9714" y2="1878.9714"/><text fill="#222222" font-family="Verdana" font-size="12.5" font-weight="bold" lengthAdjust="spacing" textLength="202.0833" x="279.1667" y="1900.9908">[Service Provider is not CBI]</text><polygon fill="#2196F3" points="1205.2083,1952.8646,1215.625,1957.0313,1205.2083,1961.1979,1209.375,1957.0313" style="stroke:#2196F3;stroke-width:1.0416666666666667;"/><line style="stroke:#2196F3;stroke-width:3.125;" x1="715.625" x2="1211.4583" y1="1957.0313" y2="1957.0313"/><text fill="#222222" font-family="Verdana" font-size="12.5" lengthAdjust="spacing" textLength="157.2917" x="733.3333" y="1941.5833">save RTP in status SENT</text><polygon fill="#2196F3" points="727.0833,2002.832,716.6667,2006.9987,727.0833,2011.1654,722.9167,2006.9987" style="stroke:#2196F3;stroke-width:1.0416666666666667;"/><line style="stroke:#2196F3;stroke-width:3.125;stroke-dasharray:2.0,2.0;" x1="720.8333" x2="1221.875" y1="2006.9987" y2="2006.9987"/><text fill="#222222" font-family="Verdana" font-size="12.5" lengthAdjust="spacing" textLength="55.2083" x="743.75" y="1991.5507">updated</text><polygon fill="#2196F3" points="426.0417,2057.487,415.625,2061.6536,426.0417,2065.8203,421.875,2061.6536" style="stroke:#2196F3;stroke-width:1.0416666666666667;"/><line style="stroke:#2196F3;stroke-width:3.125;stroke-dasharray:2.0,2.0;" x1="419.7917" x2="704.1667" y1="2061.6536" y2="2061.6536"/><text fill="#222222" font-family="Verdana" font-size="12.5" lengthAdjust="spacing" textLength="209.375" x="442.7083" y="2046.2056">Processing completed (Mocked)</text><path d="M720.8333,2024.707 L720.8333,2061.1654 A4.1667,4.1667 0 0 0 725,2065.332 L955.2083,2065.332 A4.1667,4.1667 0 0 0 959.375,2061.1654 L959.375,2030.957 L948.9583,2020.5404 L725,2020.5404 A4.1667,4.1667 0 0 0 720.8333,2024.707 " fill="url(#gjcnyirdpztpv2)" filter="url(#fjcnyirdpztpv)" style="stroke:#9C27B0;stroke-width:1.0416666666666667;"/><path d="M948.9583,2020.5404 L948.9583,2028.8737 A2.0833,2.0833 0 0 0 951.0417,2030.957 L959.375,2030.957 L948.9583,2020.5404 " fill="url(#gjcnyirdpztpv2)" style="stroke:#9C27B0;stroke-width:1.0416666666666667;"/><text fill="#FFFFFF" font-family="Verdana" font-size="12.5" lengthAdjust="spacing" textLength="195.8333" x="737.5" y="2047.7681">Mocked during CBI integration</text><line style="stroke:#2196F3;stroke-width:1.0416666666666667;stroke-dasharray:2.0,2.0;" x1="253.125" x2="1875.5208" y1="2083.0078" y2="2083.0078"/><text fill="#222222" font-family="Verdana" font-size="12.5" font-weight="bold" lengthAdjust="spacing" textLength="145.8333" x="268.75" y="2105.0273">[user not activated]</text><polygon fill="#2196F3" points="727.0833,2156.901,716.6667,2161.0677,727.0833,2165.2344,722.9167,2161.0677" style="stroke:#2196F3;stroke-width:1.0416666666666667;"/><line style="stroke:#2196F3;stroke-width:3.125;stroke-dasharray:2.0,2.0;" x1="720.8333" x2="984.375" y1="2161.0677" y2="2161.0677"/><text fill="#222222" font-family="Verdana" font-size="12.5" lengthAdjust="spacing" textLength="92.7083" x="743.75" y="2145.6197">404 not found</text><polygon fill="#2196F3" points="426.0417,2206.8685,415.625,2211.0352,426.0417,2215.2018,421.875,2211.0352" style="stroke:#2196F3;stroke-width:1.0416666666666667;"/><line style="stroke:#2196F3;stroke-width:3.125;stroke-dasharray:2.0,2.0;" x1="419.7917" x2="704.1667" y1="2211.0352" y2="2211.0352"/><text fill="#222222" font-family="Verdana" font-size="12.5" lengthAdjust="spacing" textLength="111.4583" x="442.7083" y="2195.5872">Processing failed</text><line style="stroke:#2196F3;stroke-width:1.0416666666666667;stroke-dasharray:2.0,2.0;" x1="242.7083" x2="1885.9375" y1="2227.7018" y2="2227.7018"/><text fill="#222222" font-family="Verdana" font-size="12.5" font-weight="bold" lengthAdjust="spacing" textLength="257.2917" x="258.3333" y="2249.7213">[message is not CREATE operation]</text><line style="stroke:#2196F3;stroke-width:3.125;" x1="414.5833" x2="458.3333" y1="2305.7617" y2="2305.7617"/><line style="stroke:#2196F3;stroke-width:3.125;" x1="458.3333" x2="458.3333" y1="2305.7617" y2="2319.3034"/><line style="stroke:#2196F3;stroke-width:3.125;" x1="415.625" x2="458.3333" y1="2319.3034" y2="2319.3034"/><polygon fill="#2196F3" points="426.0417,2315.1367,415.625,2319.3034,426.0417,2323.4701,421.875,2319.3034" style="stroke:#2196F3;stroke-width:1.0416666666666667;"/><text fill="#222222" font-family="Verdana" font-size="12.5" lengthAdjust="spacing" textLength="103.125" x="432.2917" y="2290.3137">Skip processing</text><path d="M558.3333,2275.5859 L558.3333,2312.0443 A4.1667,4.1667 0 0 0 562.5,2316.2109 L753.125,2316.2109 A4.1667,4.1667 0 0 0 757.2917,2312.0443 L757.2917,2281.8359 L746.875,2271.4193 L562.5,2271.4193 A4.1667,4.1667 0 0 0 558.3333,2275.5859 " fill="url(#gjcnyirdpztpv2)" filter="url(#fjcnyirdpztpv)" style="stroke:#9C27B0;stroke-width:1.0416666666666667;"/><path d="M746.875,2271.4193 L746.875,2279.7526 A2.0833,2.0833 0 0 0 748.9583,2281.8359 L757.2917,2281.8359 L746.875,2271.4193 " fill="url(#gjcnyirdpztpv2)" style="stroke:#9C27B0;stroke-width:1.0416666666666667;"/><text fill="#FFFFFF" font-family="Verdana" font-size="12.5" lengthAdjust="spacing" textLength="156.25" x="575" y="2298.6471">Different operation type</text><!--SRC=[nLLDZzis4BthLqptaWI8a-qY9wCeuBKCmq2sKIKdoA50m8eZcrYPP2XgKVVNTuRwehpEeZtrO4CaPzwyD_D4lOAi5jf_VlW8gH879qvG6GVvFeErq2NMjV3AQ5Xbk-GLx9MlSGcVjQeKokTH1NvlaTO35gLyGTVGqH9-VdVxxZP9Vl97F26SX4UdH99GGejmauc3oGHiqmn-vvqR44ttb5ZXl2gL9Pfmyu1D8mu8QwERzeGkn0sBUIX3MW4BA8YbGwcySHrkaQtdeLji-11ojARXk7E8s-Q955xyAPh0yDoN2q_HIK5zw73f8TfV_TqIPafhsFnbQohW_j2l6-Vjcn2-Ih_6AEYULCaS3ghnFOFYai75UPRFXQplTxt2D4b2-s3nwzYVPTTHw9kOQECHQgpyCeoIAq7bp8d7a8ZIgoUQqjJTuM4EkJvY-GYdVYx6eWjUwC2TEXm9_OkebMIiyHZysM8YQZzcAffZlbdjDn56N37BYILwf_09eMi54vvuKY-o71OpSb6Sn3ZokfO7OKS-Giie7PJsXhiqooGZKGrdIiePs7CdXmQF5TbnzEESBUdORlRmlZyadSrx6omrXfFnjdaGpVjBg9IMz-UmsCb8SSWA_q4t-nKlJhd5RKC1mxuCq0FvK3XeLPviqtkG93qfoIR7c5Eau81-C28RFBPIWSALHtZ4yn9sQKU3YbrHH-wUEaJmUQzY-On8DyBOKaqNyGsrj8Q6ynQCQFtnBgPSv3Ejrq7d4hbTp-BOclUxGNx04bB2DC3E8cIG3OLGIsiZv1XEXY2wWbpBrb0Q6YzyE_WbZLj0zkA_YNBfC8ni9egZ2FkN49GkmQo2yCXiwSILphDF1TcjGIiMZY_enY-yMH3DU6e32Ec_kxqZRILQham84vtPISmfglWZkSNcj_sBMbihVwZrugtktZYb3r2QawsHqx2cEtBZd75ppjtMTR9q0r_bkidpJ_atOXnDXszh-aMpCRfIxXJoOtmEd3L38ZCC9HoMnicNHzx3Tbd_hHkLK3MtGlVjkEPacldCpV_JlE3rWoaVKRwPlTNT7iZMSJ3Hv7iN3_tdODGLBZGMCbrgbxVBmFB3xOSGMPbMosltsR_jPVIT2YrywLir0HQFoe8TKMTYKrLLw92-snUVHTGNRzSwNWxW_m00]--></g></svg>