<?xml version="1.0" encoding="us-ascii" standalone="no"?><svg xmlns="http://www.w3.org/2000/svg" xmlns:xlink="http://www.w3.org/1999/xlink" contentStyleType="text/css" height="699px" preserveAspectRatio="none" style="width:1149px;height:699px;background:#FFFFFF;" version="1.1" viewBox="0 0 1149 699" width="1149px" zoomAndPan="magnify"><defs><filter height="300%" id="fuwkj1k64eveh" width="300%" x="-1" y="-1"><feGaussianBlur result="blurOut" stdDeviation="2.0"/><feColorMatrix in="blurOut" result="blurOut2" type="matrix" values="0 0 0 0 0 0 0 0 0 0 0 0 0 0 0 0 0 0 .4 0"/><feOffset dx="4.0" dy="4.0" in="blurOut2" result="blurOut3"/><feBlend in="SourceGraphic" in2="blurOut3" mode="normal"/></filter></defs><g><rect fill="#FFFFFF" filter="url(#fuwkj1k64eveh)" height="463.4688" style="stroke:#A80036;stroke-width:1.0;" width="10" x="322.5" y="119.4297"/><rect fill="#FFFFFF" filter="url(#fuwkj1k64eveh)" height="126.3359" style="stroke:#A80036;stroke-width:1.0;" width="10" x="657.5" y="148.5625"/><rect fill="#FFFFFF" filter="url(#fuwkj1k64eveh)" height="34.1328" style="stroke:#A80036;stroke-width:1.0;" width="10" x="657.5" y="461.3672"/><rect fill="#FFFFFF" filter="url(#fuwkj1k64eveh)" height="29.1328" style="stroke:#A80036;stroke-width:1.0;" width="10" x="657.5" y="524.6328"/><rect fill="none" filter="url(#fuwkj1k64eveh)" height="434.3359" style="stroke:#000000;stroke-width:2.0;" width="1125.5" x="10" y="163.5625"/><rect fill="none" filter="url(#fuwkj1k64eveh)" height="301" style="stroke:#000000;stroke-width:2.0;" width="1105.5" x="20" y="289.8984"/><line style="stroke:#A80036;stroke-width:1.0;stroke-dasharray:5.0,5.0;" x1="79" x2="79" y1="88.2969" y2="614.8984"/><line style="stroke:#A80036;stroke-width:1.0;stroke-dasharray:5.0,5.0;" x1="327.5" x2="327.5" y1="88.2969" y2="614.8984"/><line style="stroke:#A80036;stroke-width:1.0;stroke-dasharray:5.0,5.0;" x1="662" x2="662" y1="88.2969" y2="614.8984"/><text fill="#000000" font-family="sans-serif" font-size="14" font-weight="bold" lengthAdjust="spacing" textLength="93" x="30" y="84.9951">SP Debitore</text><ellipse cx="79.5" cy="15" fill="#FEFECE" filter="url(#fuwkj1k64eveh)" rx="8" ry="8" style="stroke:#A80036;stroke-width:2.0;"/><path d="M79.5,23 L79.5,50 M66.5,31 L92.5,31 M79.5,50 L66.5,65 M79.5,50 L92.5,65 " fill="none" filter="url(#fuwkj1k64eveh)" style="stroke:#A80036;stroke-width:2.0;"/><text fill="#000000" font-family="sans-serif" font-size="14" font-weight="bold" lengthAdjust="spacing" textLength="93" x="30" y="626.8936">SP Debitore</text><ellipse cx="79.5" cy="640.1953" fill="#FEFECE" filter="url(#fuwkj1k64eveh)" rx="8" ry="8" style="stroke:#A80036;stroke-width:2.0;"/><path d="M79.5,648.1953 L79.5,675.1953 M66.5,656.1953 L92.5,656.1953 M79.5,675.1953 L66.5,690.1953 M79.5,675.1953 L92.5,690.1953 " fill="none" filter="url(#fuwkj1k64eveh)" style="stroke:#A80036;stroke-width:2.0;"/><rect fill="#FEFECE" filter="url(#fuwkj1k64eveh)" height="30.2969" style="stroke:#A80036;stroke-width:1.5;" width="156" x="247.5" y="53"/><text fill="#000000" font-family="sans-serif" font-size="14" font-weight="bold" lengthAdjust="spacing" textLength="142" x="254.5" y="72.9951">Activation Service</text><rect fill="#FEFECE" filter="url(#fuwkj1k64eveh)" height="30.2969" style="stroke:#A80036;stroke-width:1.5;" width="156" x="247.5" y="613.8984"/><text fill="#000000" font-family="sans-serif" font-size="14" font-weight="bold" lengthAdjust="spacing" textLength="142" x="254.5" y="633.8936">Activation Service</text><text fill="#000000" font-family="sans-serif" font-size="14" font-weight="bold" lengthAdjust="spacing" textLength="89" x="615" y="84.9951">Cosmos DB</text><path d="M644.5,36 C644.5,26 662.5,26 662.5,26 C662.5,26 680.5,26 680.5,36 L680.5,62 C680.5,72 662.5,72 662.5,72 C662.5,72 644.5,72 644.5,62 L644.5,36 " fill="#FEFECE" filter="url(#fuwkj1k64eveh)" style="stroke:#A80036;stroke-width:1.5;"/><path d="M644.5,36 C644.5,46 662.5,46 662.5,46 C662.5,46 680.5,46 680.5,36 " fill="none" style="stroke:#A80036;stroke-width:1.5;"/><text fill="#000000" font-family="sans-serif" font-size="14" font-weight="bold" lengthAdjust="spacing" textLength="89" x="615" y="626.8936">Cosmos DB</text><path d="M644.5,640.1953 C644.5,630.1953 662.5,630.1953 662.5,630.1953 C662.5,630.1953 680.5,630.1953 680.5,640.1953 L680.5,666.1953 C680.5,676.1953 662.5,676.1953 662.5,676.1953 C662.5,676.1953 644.5,676.1953 644.5,666.1953 L644.5,640.1953 " fill="#FEFECE" filter="url(#fuwkj1k64eveh)" style="stroke:#A80036;stroke-width:1.5;"/><path d="M644.5,640.1953 C644.5,650.1953 662.5,650.1953 662.5,650.1953 C662.5,650.1953 680.5,650.1953 680.5,640.1953 " fill="none" style="stroke:#A80036;stroke-width:1.5;"/><rect fill="#FFFFFF" filter="url(#fuwkj1k64eveh)" height="463.4688" style="stroke:#A80036;stroke-width:1.0;" width="10" x="322.5" y="119.4297"/><rect fill="#FFFFFF" filter="url(#fuwkj1k64eveh)" height="126.3359" style="stroke:#A80036;stroke-width:1.0;" width="10" x="657.5" y="148.5625"/><rect fill="#FFFFFF" filter="url(#fuwkj1k64eveh)" height="34.1328" style="stroke:#A80036;stroke-width:1.0;" width="10" x="657.5" y="461.3672"/><rect fill="#FFFFFF" filter="url(#fuwkj1k64eveh)" height="29.1328" style="stroke:#A80036;stroke-width:1.0;" width="10" x="657.5" y="524.6328"/><polygon fill="#A80036" points="310.5,115.4297,320.5,119.4297,310.5,123.4297,314.5,119.4297" style="stroke:#A80036;stroke-width:1.0;"/><line style="stroke:#A80036;stroke-width:1.0;" x1="79.5" x2="316.5" y1="119.4297" y2="119.4297"/><text fill="#000000" font-family="sans-serif" font-size="13" font-weight="bold" lengthAdjust="spacing" textLength="54" x="86.5" y="114.3638">DELETE</text><text fill="#000000" font-family="sans-serif" font-size="13" lengthAdjust="spacing" textLength="166" x="144.5" y="114.3638">/activations/{activationId}</text><polygon fill="#A80036" points="645.5,144.5625,655.5,148.5625,645.5,152.5625,649.5,148.5625" style="stroke:#A80036;stroke-width:1.0;"/><line style="stroke:#A80036;stroke-width:1.0;" x1="332.5" x2="651.5" y1="148.5625" y2="148.5625"/><text fill="#000000" font-family="sans-serif" font-size="13" lengthAdjust="spacing" textLength="59" x="339.5" y="143.4966">find by ID</text><path d="M10,163.5625 L74,163.5625 L74,170.6953 L64,180.6953 L10,180.6953 L10,163.5625 " fill="#EEEEEE" style="stroke:#000000;stroke-width:1.0;"/><rect fill="none" height="434.3359" style="stroke:#000000;stroke-width:2.0;" width="1125.5" x="10" y="163.5625"/><text fill="#000000" font-family="sans-serif" font-size="13" font-weight="bold" lengthAdjust="spacing" textLength="19" x="25" y="176.6294">alt</text><text fill="#000000" font-family="sans-serif" font-size="11" font-weight="bold" lengthAdjust="spacing" textLength="5" x="89" y="175.7729">[</text><text fill="#000000" font-family="sans-serif" font-size="11" font-weight="bold" lengthAdjust="spacing" textLength="130" x="94" y="175.7729">Activation not found</text><text fill="#000000" font-family="sans-serif" font-size="11" font-weight="bold" lengthAdjust="spacing" textLength="5" x="224" y="175.7729">]</text><polygon fill="#A80036" points="343.5,197.8281,333.5,201.8281,343.5,205.8281,339.5,201.8281" style="stroke:#A80036;stroke-width:1.0;"/><line style="stroke:#A80036;stroke-width:1.0;stroke-dasharray:2.0,2.0;" x1="337.5" x2="656.5" y1="201.8281" y2="201.8281"/><text fill="#000000" font-family="sans-serif" font-size="13" lengthAdjust="spacing" textLength="41" x="349.5" y="196.7622">empty</text><polygon fill="#A80036" points="90.5,226.9609,80.5,230.9609,90.5,234.9609,86.5,230.9609" style="stroke:#A80036;stroke-width:1.0;"/><line style="stroke:#A80036;stroke-width:1.0;stroke-dasharray:2.0,2.0;" x1="84.5" x2="321.5" y1="230.9609" y2="230.9609"/><text fill="#000000" font-family="sans-serif" font-size="13" font-weight="bold" lengthAdjust="spacing" textLength="109" x="96.5" y="225.895">404 Not Found</text><line style="stroke:#000000;stroke-width:1.0;stroke-dasharray:2.0,2.0;" x1="10" x2="1135.5" y1="239.9609" y2="239.9609"/><text fill="#000000" font-family="sans-serif" font-size="11" font-weight="bold" lengthAdjust="spacing" textLength="5" x="15" y="250.1714">[</text><text fill="#000000" font-family="sans-serif" font-size="11" font-weight="bold" lengthAdjust="spacing" textLength="105" x="20" y="250.1714">Activation found</text><text fill="#000000" font-family="sans-serif" font-size="11" font-weight="bold" lengthAdjust="spacing" textLength="5" x="125" y="250.1714">]</text><polygon fill="#A80036" points="343.5,270.8984,333.5,274.8984,343.5,278.8984,339.5,274.8984" style="stroke:#A80036;stroke-width:1.0;"/><line style="stroke:#A80036;stroke-width:1.0;stroke-dasharray:2.0,2.0;" x1="337.5" x2="661.5" y1="274.8984" y2="274.8984"/><text fill="#000000" font-family="sans-serif" font-size="13" lengthAdjust="spacing" textLength="36" x="349.5" y="269.8325">Payer</text><path d="M20,289.8984 L84,289.8984 L84,297.0313 L74,307.0313 L20,307.0313 L20,289.8984 " fill="#EEEEEE" style="stroke:#000000;stroke-width:1.0;"/><rect fill="none" height="301" style="stroke:#000000;stroke-width:2.0;" width="1105.5" x="20" y="289.8984"/><text fill="#000000" font-family="sans-serif" font-size="13" font-weight="bold" lengthAdjust="spacing" textLength="19" x="35" y="302.9653">alt</text><text fill="#000000" font-family="sans-serif" font-size="11" font-weight="bold" lengthAdjust="spacing" textLength="5" x="99" y="302.1089">[</text><text fill="#000000" font-family="sans-serif" font-size="11" font-weight="bold" lengthAdjust="spacing" textLength="93" x="104" y="302.1089">Access Denied</text><text fill="#000000" font-family="sans-serif" font-size="11" font-weight="bold" lengthAdjust="spacing" textLength="5" x="197" y="302.1089">]</text><line style="stroke:#A80036;stroke-width:1.0;" x1="332.5" x2="374.5" y1="328.1641" y2="328.1641"/><line style="stroke:#A80036;stroke-width:1.0;" x1="374.5" x2="374.5" y1="328.1641" y2="341.1641"/><line style="stroke:#A80036;stroke-width:1.0;" x1="333.5" x2="374.5" y1="341.1641" y2="341.1641"/><polygon fill="#A80036" points="343.5,337.1641,333.5,341.1641,343.5,345.1641,339.5,341.1641" style="stroke:#A80036;stroke-width:1.0;"/><text fill="#000000" font-family="sans-serif" font-size="13" lengthAdjust="spacing" textLength="311" x="339.5" y="323.0981">verify JWT subject throws AccessDeniedException</text><path d="M662,313.5313 L662,338.5313 L1101,338.5313 L1101,323.5313 L1091,313.5313 L662,313.5313 " fill="#FBFB77" filter="url(#fuwkj1k64eveh)" style="stroke:#A80036;stroke-width:1.0;"/><path d="M1091,313.5313 L1091,323.5313 L1101,323.5313 L1091,313.5313 " fill="#FBFB77" style="stroke:#A80036;stroke-width:1.0;"/><text fill="#000000" font-family="sans-serif" font-size="13" lengthAdjust="spacing" textLength="418" x="668" y="330.5981">Subject in token doesn't match Service Provider ID in Payer entity</text><polygon fill="#A80036" points="90.5,366.2969,80.5,370.2969,90.5,374.2969,86.5,370.2969" style="stroke:#A80036;stroke-width:1.0;"/><line style="stroke:#A80036;stroke-width:1.0;stroke-dasharray:2.0,2.0;" x1="84.5" x2="321.5" y1="370.2969" y2="370.2969"/><text fill="#000000" font-family="sans-serif" font-size="13" font-weight="bold" lengthAdjust="spacing" textLength="109" x="96.5" y="365.231">404 Not Found</text><line style="stroke:#000000;stroke-width:1.0;stroke-dasharray:2.0,2.0;" x1="20" x2="1125.5" y1="379.2969" y2="379.2969"/><text fill="#000000" font-family="sans-serif" font-size="11" font-weight="bold" lengthAdjust="spacing" textLength="5" x="25" y="389.5073">[</text><text fill="#000000" font-family="sans-serif" font-size="11" font-weight="bold" lengthAdjust="spacing" textLength="99" x="30" y="389.5073">Access Granted</text><text fill="#000000" font-family="sans-serif" font-size="11" font-weight="bold" lengthAdjust="spacing" textLength="5" x="129" y="389.5073">]</text><line style="stroke:#A80036;stroke-width:1.0;" x1="332.5" x2="374.5" y1="414.2344" y2="414.2344"/><line style="stroke:#A80036;stroke-width:1.0;" x1="374.5" x2="374.5" y1="414.2344" y2="427.2344"/><line style="stroke:#A80036;stroke-width:1.0;" x1="333.5" x2="374.5" y1="427.2344" y2="427.2344"/><polygon fill="#A80036" points="343.5,423.2344,333.5,427.2344,343.5,431.2344,339.5,427.2344" style="stroke:#A80036;stroke-width:1.0;"/><text fill="#000000" font-family="sans-serif" font-size="13" lengthAdjust="spacing" textLength="173" x="339.5" y="409.1685">verify JWT subject succeeds</text><path d="M524,399.6016 L524,424.6016 L927,424.6016 L927,409.6016 L917,399.6016 L524,399.6016 " fill="#FBFB77" filter="url(#fuwkj1k64eveh)" style="stroke:#A80036;stroke-width:1.0;"/><path d="M917,399.6016 L917,409.6016 L927,409.6016 L917,399.6016 " fill="#FBFB77" style="stroke:#A80036;stroke-width:1.0;"/><text fill="#000000" font-family="sans-serif" font-size="13" lengthAdjust="spacing" textLength="382" x="530" y="416.6685">Subject in token matches Service Provider ID in Payer entity</text><polygon fill="#A80036" points="645.5,457.3672,655.5,461.3672,645.5,465.3672,649.5,461.3672" style="stroke:#A80036;stroke-width:1.0;"/><line style="stroke:#A80036;stroke-width:1.0;" x1="332.5" x2="651.5" y1="461.3672" y2="461.3672"/><text fill="#000000" font-family="sans-serif" font-size="13" lengthAdjust="spacing" textLength="148" x="339.5" y="456.3013">save deleted activation</text><path d="M672,440.2344 L672,465.2344 L999,465.2344 L999,450.2344 L989,440.2344 L672,440.2344 " fill="#FBFB77" filter="url(#fuwkj1k64eveh)" style="stroke:#A80036;stroke-width:1.0;"/><path d="M989,440.2344 L989,450.2344 L999,450.2344 L989,440.2344 " fill="#FBFB77" style="stroke:#A80036;stroke-width:1.0;"/><text fill="#000000" font-family="sans-serif" font-size="13" lengthAdjust="spacing" textLength="306" x="678" y="457.3013">Moves activation record to a separate collection</text><polygon fill="#A80036" points="343.5,491.5,333.5,495.5,343.5,499.5,339.5,495.5" style="stroke:#A80036;stroke-width:1.0;"/><line style="stroke:#A80036;stroke-width:1.0;stroke-dasharray:2.0,2.0;" x1="337.5" x2="661.5" y1="495.5" y2="495.5"/><text fill="#000000" font-family="sans-serif" font-size="13" lengthAdjust="spacing" textLength="38" x="349.5" y="490.4341">saved</text><polygon fill="#A80036" points="645.5,520.6328,655.5,524.6328,645.5,528.6328,649.5,524.6328" style="stroke:#A80036;stroke-width:1.0;"/><line style="stroke:#A80036;stroke-width:1.0;" x1="332.5" x2="651.5" y1="524.6328" y2="524.6328"/><text fill="#000000" font-family="sans-serif" font-size="13" lengthAdjust="spacing" textLength="142" x="339.5" y="519.5669">delete activation by ID</text><polygon fill="#A80036" points="343.5,549.7656,333.5,553.7656,343.5,557.7656,339.5,553.7656" style="stroke:#A80036;stroke-width:1.0;"/><line style="stroke:#A80036;stroke-width:1.0;stroke-dasharray:2.0,2.0;" x1="337.5" x2="661.5" y1="553.7656" y2="553.7656"/><text fill="#000000" font-family="sans-serif" font-size="13" lengthAdjust="spacing" textLength="48" x="349.5" y="548.6997">deleted</text><polygon fill="#A80036" points="90.5,578.8984,80.5,582.8984,90.5,586.8984,86.5,582.8984" style="stroke:#A80036;stroke-width:1.0;"/><line style="stroke:#A80036;stroke-width:1.0;stroke-dasharray:2.0,2.0;" x1="84.5" x2="326.5" y1="582.8984" y2="582.8984"/><text fill="#000000" font-family="sans-serif" font-size="13" font-weight="bold" lengthAdjust="spacing" textLength="115" x="96.5" y="577.8325">204 No Content</text><!--SRC=[ZLDDImCn4BtdLmnUX8Weuga7eMkgA2g55JodoTH6jqb9fgj5_EzEqjr-Y48Nzf39cpTltapIk_CGGqAX3OK8HrBMOr0uSNn2AOz09wZ7IYnq96VSGdlAeA4XrsfomKEDiNMcnmvhOJNfYKwOSTSXpKC2LNNNgXA2wU3qYf4d9mEGKeqUHiyZAU5CRqZJsTVsS6U_XHZMEKTL0vWwRs6oWZibEWmMMjqGx0dpWM0QbjvAAO0_LS5fgJi0d2zeLOAPbuEiAMkvFB-49qwxwT84Djp77ki_Z6EzmbY25lTavL0lpM1Y2z0xx1bw2MkI5gERhk3-vHdISlA6Xe1cCNomhILtdJhwDBZ8MZOCt2b2TAyp6a3T9V9SARoZ1nim-ME2kIOpwwS5unXQPp6oZHbQv0DwSfql1tYJ8Hj_IcktaTVZyDxIajFGfiFwAFen7TJ1h_ggogkMT8iydGPP8cpNwy_gZw7bKbiGH3GXMfO26XBoQyZpDQ5fM6CcsR14f6NqfPZzMyTQmYxvUfj_CNHAnJ_Zk2ZZWEl0ZdlQiNnd__WnbY5vA_B_0m00]--></g></svg>