<?xml version="1.0" encoding="us-ascii" standalone="no"?><svg xmlns="http://www.w3.org/2000/svg" xmlns:xlink="http://www.w3.org/1999/xlink" contentStyleType="text/css" height="2067.7083px" preserveAspectRatio="none" style="width:1753px;height:2067px;" version="1.1" viewBox="0 0 1753 2067" width="1753.125px" zoomAndPan="magnify"><defs><linearGradient id="g1iys7c2w5pafa0" x1="50%" x2="50%" y1="0%" y2="100%"><stop offset="0%" stop-color="#FFFFFF"/><stop offset="100%" stop-color="#FFFFFF"/></linearGradient><filter height="300%" id="f1iys7c2w5pafa" width="300%" x="-1" y="-1"><feGaussianBlur result="blurOut" stdDeviation="2.0833333333333335"/><feColorMatrix in="blurOut" result="blurOut2" type="matrix" values="0 0 0 0 0 0 0 0 0 0 0 0 0 0 0 0 0 0 .4 0"/><feOffset dx="4.166666666666667" dy="4.166666666666667" in="blurOut2" result="blurOut3"/><feBlend in="SourceGraphic" in2="blurOut3" mode="normal"/></filter><linearGradient id="g1iys7c2w5pafa1" x1="50%" x2="50%" y1="0%" y2="100%"><stop offset="0%" stop-color="#4DABF5"/><stop offset="100%" stop-color="#2196F3"/></linearGradient><linearGradient id="g1iys7c2w5pafa2" x1="50%" x2="50%" y1="0%" y2="100%"><stop offset="0%" stop-color="#B052C0"/><stop offset="100%" stop-color="#9C27B0"/></linearGradient></defs><g><rect fill="url(#g1iys7c2w5pafa0)" height="57.5846" id="_title" rx="4.1667" ry="4.1667" style="stroke:#CCCCCC;stroke-width:1.0416666666666667;" width="714.5833" x="520.5729" y="20.8333"/><text fill="#2196F3" font-family="Verdana" font-size="20.8333" font-weight="bold" lengthAdjust="spacing" textLength="681.25" x="537.2396" y="56.838">RTP Deactivation API: DELETE /activations/{activationId}</text><rect fill="#FFFFFF" filter="url(#f1iys7c2w5pafa)" height="1705.0781" style="stroke:#CCCCCC;stroke-width:1.0416666666666667;" width="10.4167" x="775.5208" y="243.9779"/><rect fill="#FFFFFF" filter="url(#f1iys7c2w5pafa)" height="49.9674" style="stroke:#CCCCCC;stroke-width:1.0416666666666667;" width="10.4167" x="1136.9792" y="495.8659"/><rect fill="#FFFFFF" filter="url(#f1iys7c2w5pafa)" height="109.3099" style="stroke:#CCCCCC;stroke-width:1.0416666666666667;" width="10.4167" x="1136.9792" y="659.3099"/><rect fill="#FFFFFF" filter="url(#f1iys7c2w5pafa)" height="49.9674" style="stroke:#CCCCCC;stroke-width:1.0416666666666667;" width="10.4167" x="1136.9792" y="818.5872"/><rect fill="#FFFFFF" filter="url(#f1iys7c2w5pafa)" height="49.9674" style="stroke:#CCCCCC;stroke-width:1.0416666666666667;" width="10.4167" x="1136.9792" y="1079.8503"/><rect fill="#FFFFFF" filter="url(#f1iys7c2w5pafa)" height="49.9674" style="stroke:#CCCCCC;stroke-width:1.0416666666666667;" width="10.4167" x="1136.9792" y="1326.5625"/><rect fill="#98FB98" filter="url(#f1iys7c2w5pafa)" height="1544.7591" rx="4.1667" ry="4.1667" style="stroke:#2196F3;stroke-width:1.0416666666666667;" width="1716.1458" x="19.7917" y="397.0052"/><path d="M19.7917,1000.7487 L1735.9375,1000.7487 L1735.9375,1243.2943 A4.1667,4.1667 0 0 1 1731.7708,1247.4609 L23.9583,1247.4609 A4.1667,4.1667 0 0 1 19.7917,1243.2943 L19.7917,1000.7487 " fill="#FFFFE0" style="stroke:none;stroke-width:1.0416666666666667;"/><path d="M19.7917,1247.4609 L1735.9375,1247.4609 L1735.9375,1553.5156 A4.1667,4.1667 0 0 1 1731.7708,1557.6823 L23.9583,1557.6823 A4.1667,4.1667 0 0 1 19.7917,1553.5156 L19.7917,1247.4609 " fill="#F08080" style="stroke:none;stroke-width:1.0416666666666667;"/><path d="M19.7917,1557.6823 L1735.9375,1557.6823 L1735.9375,1937.5977 A4.1667,4.1667 0 0 1 1731.7708,1941.7643 L23.9583,1941.7643 A4.1667,4.1667 0 0 1 19.7917,1937.5977 L19.7917,1557.6823 " fill="#8B0000" style="stroke:none;stroke-width:1.0416666666666667;"/><rect fill="url(#g1iys7c2w5pafa0)" filter="url(#f1iys7c2w5pafa)" height="166.5039" rx="4.1667" ry="4.1667" style="stroke:#2196F3;stroke-width:1.0416666666666667;" width="603.6458" x="313.5417" y="1602.4414"/><rect fill="url(#g1iys7c2w5pafa0)" filter="url(#f1iys7c2w5pafa)" height="150.944" rx="4.1667" ry="4.1667" style="stroke:#2196F3;stroke-width:1.0416666666666667;" width="1236.9792" x="313.5417" y="1783.5286"/><line style="stroke:#CCCCCC;stroke-width:1.0416666666666667;stroke-dasharray:5.0,5.0;" x1="426.0417" x2="426.0417" y1="191.9271" y2="1959.4727"/><line style="stroke:#CCCCCC;stroke-width:1.0416666666666667;stroke-dasharray:5.0,5.0;" x1="780.7292" x2="780.7292" y1="191.9271" y2="1959.4727"/><line style="stroke:#CCCCCC;stroke-width:1.0416666666666667;stroke-dasharray:5.0,5.0;" x1="1141.6667" x2="1141.6667" y1="191.9271" y2="1959.4727"/><text fill="#222222" font-family="Verdana" font-size="12.5" font-weight="bold" lengthAdjust="spacing" textLength="178.125" x="334.375" y="178.5624">Payer's Service Provider</text><ellipse cx="426.5625" cy="99.2513" fill="url(#g1iys7c2w5pafa1)" filter="url(#f1iys7c2w5pafa)" rx="8.3333" ry="8.3333" style="stroke:#2196F3;stroke-width:1.0416666666666667;"/><path d="M426.5625,107.5846 L426.5625,135.7096 M413.0208,115.918 L440.1042,115.918 M426.5625,135.7096 L413.0208,151.3346 M426.5625,135.7096 L440.1042,151.3346 " fill="none" filter="url(#f1iys7c2w5pafa)" style="stroke:#2196F3;stroke-width:1.0416666666666667;"/><text fill="#222222" font-family="Verdana" font-size="12.5" font-weight="bold" lengthAdjust="spacing" textLength="178.125" x="334.375" y="1980.4504">Payer's Service Provider</text><ellipse cx="426.5625" cy="2003.1901" fill="url(#g1iys7c2w5pafa1)" filter="url(#f1iys7c2w5pafa)" rx="8.3333" ry="8.3333" style="stroke:#2196F3;stroke-width:1.0416666666666667;"/><path d="M426.5625,2011.5234 L426.5625,2039.6484 M413.0208,2019.8568 L440.1042,2019.8568 M426.5625,2039.6484 L413.0208,2055.2734 M426.5625,2039.6484 L440.1042,2055.2734 " fill="none" filter="url(#f1iys7c2w5pafa)" style="stroke:#2196F3;stroke-width:1.0416666666666667;"/><rect fill="url(#g1iys7c2w5pafa1)" filter="url(#f1iys7c2w5pafa)" height="49.9674" rx="4.1667" ry="4.1667" style="stroke:#2196F3;stroke-width:1.0416666666666667;" width="165.625" x="696.3542" y="137.793"/><text fill="#FFFFFF" font-family="Verdana" font-size="12.5" font-weight="bold" lengthAdjust="spacing" textLength="130.2083" x="714.0625" y="167.1041">Activation Service</text><rect fill="url(#g1iys7c2w5pafa1)" filter="url(#f1iys7c2w5pafa)" height="49.9674" rx="4.1667" ry="4.1667" style="stroke:#2196F3;stroke-width:1.0416666666666667;" width="165.625" x="696.3542" y="1958.431"/><text fill="#FFFFFF" font-family="Verdana" font-size="12.5" font-weight="bold" lengthAdjust="spacing" textLength="130.2083" x="714.0625" y="1987.7421">Activation Service</text><text fill="#222222" font-family="Verdana" font-size="12.5" font-weight="bold" lengthAdjust="spacing" textLength="71.875" x="1103.125" y="178.5624">Database</text><path d="M1123.4375,119.043 C1123.4375,108.6263 1142.1875,108.6263 1142.1875,108.6263 C1142.1875,108.6263 1160.9375,108.6263 1160.9375,119.043 L1160.9375,146.1263 C1160.9375,156.543 1142.1875,156.543 1142.1875,156.543 C1142.1875,156.543 1123.4375,156.543 1123.4375,146.1263 L1123.4375,119.043 " fill="url(#g1iys7c2w5pafa1)" filter="url(#f1iys7c2w5pafa)" style="stroke:#2196F3;stroke-width:1.5625;"/><path d="M1123.4375,119.043 C1123.4375,129.4596 1142.1875,129.4596 1142.1875,129.4596 C1142.1875,129.4596 1160.9375,129.4596 1160.9375,119.043 " fill="none" style="stroke:#2196F3;stroke-width:1.5625;"/><text fill="#222222" font-family="Verdana" font-size="12.5" font-weight="bold" lengthAdjust="spacing" textLength="71.875" x="1103.125" y="1980.4504">Database</text><path d="M1123.4375,2004.2318 C1123.4375,1993.8151 1142.1875,1993.8151 1142.1875,1993.8151 C1142.1875,1993.8151 1160.9375,1993.8151 1160.9375,2004.2318 L1160.9375,2031.3151 C1160.9375,2041.7318 1142.1875,2041.7318 1142.1875,2041.7318 C1142.1875,2041.7318 1123.4375,2041.7318 1123.4375,2031.3151 L1123.4375,2004.2318 " fill="url(#g1iys7c2w5pafa1)" filter="url(#f1iys7c2w5pafa)" style="stroke:#2196F3;stroke-width:1.5625;"/><path d="M1123.4375,2004.2318 C1123.4375,2014.6484 1142.1875,2014.6484 1142.1875,2014.6484 C1142.1875,2014.6484 1160.9375,2014.6484 1160.9375,2004.2318 " fill="none" style="stroke:#2196F3;stroke-width:1.5625;"/><rect fill="#FFFFFF" filter="url(#f1iys7c2w5pafa)" height="1705.0781" style="stroke:#CCCCCC;stroke-width:1.0416666666666667;" width="10.4167" x="775.5208" y="243.9779"/><rect fill="#FFFFFF" filter="url(#f1iys7c2w5pafa)" height="49.9674" style="stroke:#CCCCCC;stroke-width:1.0416666666666667;" width="10.4167" x="1136.9792" y="495.8659"/><rect fill="#FFFFFF" filter="url(#f1iys7c2w5pafa)" height="109.3099" style="stroke:#CCCCCC;stroke-width:1.0416666666666667;" width="10.4167" x="1136.9792" y="659.3099"/><rect fill="#FFFFFF" filter="url(#f1iys7c2w5pafa)" height="49.9674" style="stroke:#CCCCCC;stroke-width:1.0416666666666667;" width="10.4167" x="1136.9792" y="818.5872"/><rect fill="#FFFFFF" filter="url(#f1iys7c2w5pafa)" height="49.9674" style="stroke:#CCCCCC;stroke-width:1.0416666666666667;" width="10.4167" x="1136.9792" y="1079.8503"/><rect fill="#FFFFFF" filter="url(#f1iys7c2w5pafa)" height="49.9674" style="stroke:#CCCCCC;stroke-width:1.0416666666666667;" width="10.4167" x="1136.9792" y="1326.5625"/><polygon fill="#2196F3" points="763.0208,239.8112,773.4375,243.9779,763.0208,248.1445,767.1875,243.9779" style="stroke:#2196F3;stroke-width:1.0416666666666667;"/><line style="stroke:#2196F3;stroke-width:3.125;" x1="426.5625" x2="769.2708" y1="243.9779" y2="243.9779"/><text fill="#222222" font-family="Verdana" font-size="12.5" font-weight="bold" lengthAdjust="spacing" textLength="18.75" x="444.2708" y="228.5299">[1]</text><text fill="#222222" font-family="Verdana" font-size="12.5" font-weight="bold" lengthAdjust="spacing" textLength="52.0833" x="488.0208" y="228.5299">DELETE</text><text fill="#222222" font-family="Verdana" font-size="12.5" lengthAdjust="spacing" textLength="170.8333" x="544.2708" y="228.5299">/activations/{activationId}</text><path d="M790.625,261.6862 L790.625,312.7279 A4.1667,4.1667 0 0 0 794.7917,316.8945 L1173.9583,316.8945 A4.1667,4.1667 0 0 0 1178.125,312.7279 L1178.125,267.9362 L1167.7083,257.5195 L794.7917,257.5195 A4.1667,4.1667 0 0 0 790.625,261.6862 " fill="url(#g1iys7c2w5pafa2)" filter="url(#f1iys7c2w5pafa)" style="stroke:#9C27B0;stroke-width:1.0416666666666667;"/><path d="M1167.7083,257.5195 L1167.7083,265.8529 A2.0833,2.0833 0 0 0 1169.7917,267.9362 L1178.125,267.9362 L1167.7083,257.5195 " fill="url(#g1iys7c2w5pafa2)" style="stroke:#9C27B0;stroke-width:1.0416666666666667;"/><text fill="#FFFFFF" font-family="Verdana" font-size="12.5" font-weight="bold" lengthAdjust="spacing" textLength="80.2083" x="807.2917" y="284.7473">Operation:</text><text fill="#FFFFFF" font-family="Verdana" font-size="12.5" lengthAdjust="spacing" textLength="81.25" x="891.6667" y="284.7473">`deactivate`</text><text fill="#FFFFFF" font-family="Verdana" font-size="12.5" lengthAdjust="spacing" textLength="344.7917" x="807.2917" y="299.2981">A Payer's SP calls this to remove an RTP registration.</text><line style="stroke:#2196F3;stroke-width:3.125;" x1="785.9375" x2="829.6875" y1="367.8385" y2="367.8385"/><line style="stroke:#2196F3;stroke-width:3.125;" x1="829.6875" x2="829.6875" y1="367.8385" y2="381.3802"/><line style="stroke:#2196F3;stroke-width:3.125;" x1="786.9792" x2="829.6875" y1="381.3802" y2="381.3802"/><polygon fill="#2196F3" points="797.3958,377.2135,786.9792,381.3802,797.3958,385.5469,793.2292,381.3802" style="stroke:#2196F3;stroke-width:1.0416666666666667;"/><text fill="#222222" font-family="Verdana" font-size="12.5" font-weight="bold" lengthAdjust="spacing" textLength="18.75" x="803.6458" y="352.3905">[2]</text><text fill="#222222" font-family="Verdana" font-size="12.5" lengthAdjust="spacing" textLength="226.0417" x="847.3958" y="352.3905">Validate Request &amp; Security Token</text><path d="M1095.8333,337.6628 L1095.8333,374.1211 A4.1667,4.1667 0 0 0 1100,378.2878 L1364.5833,378.2878 A4.1667,4.1667 0 0 0 1368.75,374.1211 L1368.75,343.9128 L1358.3333,333.4961 L1100,333.4961 A4.1667,4.1667 0 0 0 1095.8333,337.6628 " fill="url(#g1iys7c2w5pafa2)" filter="url(#f1iys7c2w5pafa)" style="stroke:#9C27B0;stroke-width:1.0416666666666667;"/><path d="M1358.3333,333.4961 L1358.3333,341.8294 A2.0833,2.0833 0 0 0 1360.4167,343.9128 L1368.75,343.9128 L1358.3333,333.4961 " fill="url(#g1iys7c2w5pafa2)" style="stroke:#9C27B0;stroke-width:1.0416666666666667;"/><text fill="#FFFFFF" font-family="Verdana" font-size="12.5" lengthAdjust="spacing" textLength="230.2083" x="1112.5" y="360.7239">Checks for a valid, non-expired JWT.</text><path d="M23.9583,397.0052 L107.2917,397.0052 L107.2917,424.056 L96.875,434.4727 L19.7917,434.4727 L19.7917,401.1719 A4.1667,4.1667 0 0 1 23.9583,397.0052 " fill="#FFFFFF" style="stroke:#666666;stroke-width:1.0416666666666667;"/><rect fill="none" height="1544.7591" rx="4.1667" ry="4.1667" style="stroke:#2196F3;stroke-width:1.0416666666666667;" width="1716.1458" x="19.7917" y="397.0052"/><text fill="#9C27B0" font-family="Verdana" font-size="12.5" font-weight="bold" lengthAdjust="spacing" textLength="19.7917" x="45.8333" y="420.0663">alt</text><text fill="#222222" font-family="Verdana" font-size="12.5" font-weight="bold" lengthAdjust="spacing" textLength="5.2083" x="133.3333" y="421.108">[</text><text fill="#222222" font-family="Verdana" font-size="12.5" font-weight="bold" lengthAdjust="spacing" textLength="276.0417" x="138.5417" y="421.108">Success Case: Deactivation Complete</text><text fill="#222222" font-family="Verdana" font-size="12.5" font-weight="bold" lengthAdjust="spacing" textLength="5.2083" x="414.5833" y="421.108">]</text><polygon fill="#2196F3" points="1124.4792,491.6992,1134.8958,495.8659,1124.4792,500.0326,1128.6458,495.8659" style="stroke:#2196F3;stroke-width:1.0416666666666667;"/><line style="stroke:#2196F3;stroke-width:3.125;" x1="785.9375" x2="1130.7292" y1="495.8659" y2="495.8659"/><text fill="#222222" font-family="Verdana" font-size="12.5" font-weight="bold" lengthAdjust="spacing" textLength="18.75" x="803.6458" y="480.4179">[3]</text><text fill="#222222" font-family="Verdana" font-size="12.5" lengthAdjust="spacing" textLength="130.2083" x="847.3958" y="480.4179">Find activation by ID</text><polygon fill="#2196F3" points="797.3958,541.6667,786.9792,545.8333,797.3958,550,793.2292,545.8333" style="stroke:#2196F3;stroke-width:1.0416666666666667;"/><line style="stroke:#2196F3;stroke-width:3.125;stroke-dasharray:2.0,2.0;" x1="791.1458" x2="1141.1458" y1="545.8333" y2="545.8333"/><text fill="#222222" font-family="Verdana" font-size="12.5" font-weight="bold" lengthAdjust="spacing" textLength="18.75" x="814.0625" y="530.3853">[4]</text><text fill="#222222" font-family="Verdana" font-size="12.5" lengthAdjust="spacing" textLength="152.0833" x="857.8125" y="530.3853">Activation record found</text><line style="stroke:#2196F3;stroke-width:3.125;" x1="785.9375" x2="829.6875" y1="595.8008" y2="595.8008"/><line style="stroke:#2196F3;stroke-width:3.125;" x1="829.6875" x2="829.6875" y1="595.8008" y2="609.3424"/><line style="stroke:#2196F3;stroke-width:3.125;" x1="786.9792" x2="829.6875" y1="609.3424" y2="609.3424"/><polygon fill="#2196F3" points="797.3958,605.1758,786.9792,609.3424,797.3958,613.5091,793.2292,609.3424" style="stroke:#2196F3;stroke-width:1.0416666666666667;"/><text fill="#222222" font-family="Verdana" font-size="12.5" font-weight="bold" lengthAdjust="spacing" textLength="18.75" x="803.6458" y="580.3528">[5]</text><text fill="#222222" font-family="Verdana" font-size="12.5" lengthAdjust="spacing" textLength="263.5417" x="847.3958" y="580.3528">Verify ownership (JWT subject vs. record)</text><path d="M1133.3333,565.625 L1133.3333,602.0833 A4.1667,4.1667 0 0 0 1137.5,606.25 L1707.2917,606.25 A4.1667,4.1667 0 0 0 1711.4583,602.0833 L1711.4583,571.875 L1701.0417,561.4583 L1137.5,561.4583 A4.1667,4.1667 0 0 0 1133.3333,565.625 " fill="url(#g1iys7c2w5pafa2)" filter="url(#f1iys7c2w5pafa)" style="stroke:#9C27B0;stroke-width:1.0416666666666667;"/><path d="M1701.0417,561.4583 L1701.0417,569.7917 A2.0833,2.0833 0 0 0 1703.125,571.875 L1711.4583,571.875 L1701.0417,561.4583 " fill="url(#g1iys7c2w5pafa2)" style="stroke:#9C27B0;stroke-width:1.0416666666666667;"/><text fill="#FFFFFF" font-family="Verdana" font-size="12.5" lengthAdjust="spacing" textLength="535.4167" x="1150" y="588.6861">Subject in token matches the Service Provider ID in the record. Access is granted.</text><polygon fill="#2196F3" points="1124.4792,655.1432,1134.8958,659.3099,1124.4792,663.4766,1128.6458,659.3099" style="stroke:#2196F3;stroke-width:1.0416666666666667;"/><line style="stroke:#2196F3;stroke-width:3.125;" x1="785.9375" x2="1130.7292" y1="659.3099" y2="659.3099"/><text fill="#222222" font-family="Verdana" font-size="12.5" font-weight="bold" lengthAdjust="spacing" textLength="18.75" x="803.6458" y="643.8619">[6]</text><text fill="#222222" font-family="Verdana" font-size="12.5" lengthAdjust="spacing" textLength="161.4583" x="847.3958" y="643.8619">Archive activation record</text><path d="M1152.0833,677.0182 L1152.0833,713.4766 A4.1667,4.1667 0 0 0 1156.25,717.6432 L1593.75,717.6432 A4.1667,4.1667 0 0 0 1597.9167,713.4766 L1597.9167,683.2682 L1587.5,672.8516 L1156.25,672.8516 A4.1667,4.1667 0 0 0 1152.0833,677.0182 " fill="url(#g1iys7c2w5pafa2)" filter="url(#f1iys7c2w5pafa)" style="stroke:#9C27B0;stroke-width:1.0416666666666667;"/><path d="M1587.5,672.8516 L1587.5,681.1849 A2.0833,2.0833 0 0 0 1589.5833,683.2682 L1597.9167,683.2682 L1587.5,672.8516 " fill="url(#g1iys7c2w5pafa2)" style="stroke:#9C27B0;stroke-width:1.0416666666666667;"/><text fill="#FFFFFF" font-family="Verdana" font-size="12.5" lengthAdjust="spacing" textLength="403.125" x="1168.75" y="700.0793">Moves the record to a separate collection for audit purposes.</text><polygon fill="#2196F3" points="797.3958,764.4531,786.9792,768.6198,797.3958,772.7865,793.2292,768.6198" style="stroke:#2196F3;stroke-width:1.0416666666666667;"/><line style="stroke:#2196F3;stroke-width:3.125;stroke-dasharray:2.0,2.0;" x1="791.1458" x2="1141.1458" y1="768.6198" y2="768.6198"/><text fill="#222222" font-family="Verdana" font-size="12.5" font-weight="bold" lengthAdjust="spacing" textLength="18.75" x="814.0625" y="753.1718">[7]</text><text fill="#222222" font-family="Verdana" font-size="12.5" lengthAdjust="spacing" textLength="119.7917" x="857.8125" y="753.1718">Archive successful</text><polygon fill="#2196F3" points="1124.4792,814.4206,1134.8958,818.5872,1124.4792,822.7539,1128.6458,818.5872" style="stroke:#2196F3;stroke-width:1.0416666666666667;"/><line style="stroke:#2196F3;stroke-width:3.125;" x1="785.9375" x2="1130.7292" y1="818.5872" y2="818.5872"/><text fill="#222222" font-family="Verdana" font-size="12.5" font-weight="bold" lengthAdjust="spacing" textLength="18.75" x="803.6458" y="803.1392">[8]</text><text fill="#222222" font-family="Verdana" font-size="12.5" lengthAdjust="spacing" textLength="157.2917" x="847.3958" y="803.1392">Delete activation record</text><polygon fill="#2196F3" points="797.3958,864.388,786.9792,868.5547,797.3958,872.7214,793.2292,868.5547" style="stroke:#2196F3;stroke-width:1.0416666666666667;"/><line style="stroke:#2196F3;stroke-width:3.125;stroke-dasharray:2.0,2.0;" x1="791.1458" x2="1141.1458" y1="868.5547" y2="868.5547"/><text fill="#222222" font-family="Verdana" font-size="12.5" font-weight="bold" lengthAdjust="spacing" textLength="18.75" x="814.0625" y="853.1067">[9]</text><text fill="#222222" font-family="Verdana" font-size="12.5" lengthAdjust="spacing" textLength="127.0833" x="857.8125" y="853.1067">Deletion successful</text><polygon fill="#2196F3" points="438.0208,914.3555,427.6042,918.5221,438.0208,922.6888,433.8542,918.5221" style="stroke:#2196F3;stroke-width:1.0416666666666667;"/><line style="stroke:#2196F3;stroke-width:3.125;stroke-dasharray:2.0,2.0;" x1="431.7708" x2="774.4792" y1="918.5221" y2="918.5221"/><text fill="#222222" font-family="Verdana" font-size="12.5" font-weight="bold" lengthAdjust="spacing" textLength="27.0833" x="454.6875" y="903.0741">[10]</text><text fill="#222222" font-family="Verdana" font-size="12.5" font-weight="bold" lengthAdjust="spacing" textLength="112.5" x="506.7708" y="903.0741">204 No Content</text><path d="M125,936.2305 L125,987.2721 A4.1667,4.1667 0 0 0 129.1667,991.4388 L413.5417,991.4388 A4.1667,4.1667 0 0 0 417.7083,987.2721 L417.7083,942.4805 L407.2917,932.0638 L129.1667,932.0638 A4.1667,4.1667 0 0 0 125,936.2305 " fill="url(#g1iys7c2w5pafa2)" filter="url(#f1iys7c2w5pafa)" style="stroke:#9C27B0;stroke-width:1.0416666666666667;"/><path d="M407.2917,932.0638 L407.2917,940.3971 A2.0833,2.0833 0 0 0 409.375,942.4805 L417.7083,942.4805 L407.2917,932.0638 " fill="url(#g1iys7c2w5pafa2)" style="stroke:#9C27B0;stroke-width:1.0416666666666667;"/><text fill="#FFFFFF" font-family="Verdana" font-size="12.5" lengthAdjust="spacing" textLength="214.5833" x="141.6667" y="959.2916">The deactivation was successful.</text><text fill="#FFFFFF" font-family="Verdana" font-size="12.5" lengthAdjust="spacing" textLength="250" x="141.6667" y="973.8424">The Payer can no longer receive RTPs.</text><line style="stroke:#2196F3;stroke-width:1.0416666666666667;stroke-dasharray:2.0,2.0;" x1="19.7917" x2="1735.9375" y1="1001.7904" y2="1001.7904"/><text fill="#222222" font-family="Verdana" font-size="12.5" font-weight="bold" lengthAdjust="spacing" textLength="5.2083" x="35.4167" y="1023.8098">[</text><text fill="#222222" font-family="Verdana" font-size="12.5" font-weight="bold" lengthAdjust="spacing" textLength="121.875" x="40.625" y="1023.8098">Error: Not Found</text><text fill="#222222" font-family="Verdana" font-size="12.5" font-weight="bold" lengthAdjust="spacing" textLength="5.2083" x="162.5" y="1023.8098">]</text><polygon fill="#2196F3" points="1124.4792,1075.6836,1134.8958,1079.8503,1124.4792,1084.0169,1128.6458,1079.8503" style="stroke:#2196F3;stroke-width:1.0416666666666667;"/><line style="stroke:#2196F3;stroke-width:3.125;" x1="785.9375" x2="1130.7292" y1="1079.8503" y2="1079.8503"/><text fill="#222222" font-family="Verdana" font-size="12.5" font-weight="bold" lengthAdjust="spacing" textLength="27.0833" x="803.6458" y="1064.4023">[11]</text><text fill="#222222" font-family="Verdana" font-size="12.5" lengthAdjust="spacing" textLength="130.2083" x="855.7292" y="1064.4023">Find activation by ID</text><polygon fill="#2196F3" points="797.3958,1125.651,786.9792,1129.8177,797.3958,1133.9844,793.2292,1129.8177" style="stroke:#2196F3;stroke-width:1.0416666666666667;"/><line style="stroke:#2196F3;stroke-width:3.125;stroke-dasharray:2.0,2.0;" x1="791.1458" x2="1141.1458" y1="1129.8177" y2="1129.8177"/><text fill="#222222" font-family="Verdana" font-size="12.5" font-weight="bold" lengthAdjust="spacing" textLength="27.0833" x="814.0625" y="1114.3697">[12]</text><text fill="#222222" font-family="Verdana" font-size="12.5" lengthAdjust="spacing" textLength="39.5833" x="866.1458" y="1114.3697">empty</text><polygon fill="#2196F3" points="438.0208,1175.6185,427.6042,1179.7852,438.0208,1183.9518,433.8542,1179.7852" style="stroke:#2196F3;stroke-width:1.0416666666666667;"/><line style="stroke:#2196F3;stroke-width:3.125;stroke-dasharray:2.0,2.0;" x1="431.7708" x2="774.4792" y1="1179.7852" y2="1179.7852"/><text fill="#222222" font-family="Verdana" font-size="12.5" font-weight="bold" lengthAdjust="spacing" textLength="27.0833" x="454.6875" y="1164.3372">[13]</text><text fill="#222222" font-family="Verdana" font-size="12.5" font-weight="bold" lengthAdjust="spacing" textLength="105.2083" x="506.7708" y="1164.3372">404 Not Found</text><path d="M88.5417,1197.4935 L88.5417,1233.9518 A4.1667,4.1667 0 0 0 92.7083,1238.1185 L413.5417,1238.1185 A4.1667,4.1667 0 0 0 417.7083,1233.9518 L417.7083,1203.7435 L407.2917,1193.3268 L92.7083,1193.3268 A4.1667,4.1667 0 0 0 88.5417,1197.4935 " fill="url(#g1iys7c2w5pafa2)" filter="url(#f1iys7c2w5pafa)" style="stroke:#9C27B0;stroke-width:1.0416666666666667;"/><path d="M407.2917,1193.3268 L407.2917,1201.6602 A2.0833,2.0833 0 0 0 409.375,1203.7435 L417.7083,1203.7435 L407.2917,1193.3268 " fill="url(#g1iys7c2w5pafa2)" style="stroke:#9C27B0;stroke-width:1.0416666666666667;"/><text fill="#FFFFFF" font-family="Verdana" font-size="12.5" lengthAdjust="spacing" textLength="286.4583" x="105.2083" y="1220.5546">The specified activation could not be found.</text><line style="stroke:#2196F3;stroke-width:1.0416666666666667;stroke-dasharray:2.0,2.0;" x1="19.7917" x2="1735.9375" y1="1248.5026" y2="1248.5026"/><text fill="#222222" font-family="Verdana" font-size="12.5" font-weight="bold" lengthAdjust="spacing" textLength="5.2083" x="35.4167" y="1270.5221">[</text><text fill="#222222" font-family="Verdana" font-size="12.5" font-weight="bold" lengthAdjust="spacing" textLength="120.8333" x="40.625" y="1270.5221">Error: Forbidden</text><text fill="#222222" font-family="Verdana" font-size="12.5" font-weight="bold" lengthAdjust="spacing" textLength="5.2083" x="161.4583" y="1270.5221">]</text><polygon fill="#2196F3" points="1124.4792,1322.3958,1134.8958,1326.5625,1124.4792,1330.7292,1128.6458,1326.5625" style="stroke:#2196F3;stroke-width:1.0416666666666667;"/><line style="stroke:#2196F3;stroke-width:3.125;" x1="785.9375" x2="1130.7292" y1="1326.5625" y2="1326.5625"/><text fill="#222222" font-family="Verdana" font-size="12.5" font-weight="bold" lengthAdjust="spacing" textLength="27.0833" x="803.6458" y="1311.1145">[14]</text><text fill="#222222" font-family="Verdana" font-size="12.5" lengthAdjust="spacing" textLength="130.2083" x="855.7292" y="1311.1145">Find activation by ID</text><polygon fill="#2196F3" points="797.3958,1372.3633,786.9792,1376.5299,797.3958,1380.6966,793.2292,1376.5299" style="stroke:#2196F3;stroke-width:1.0416666666666667;"/><line style="stroke:#2196F3;stroke-width:3.125;stroke-dasharray:2.0,2.0;" x1="791.1458" x2="1141.1458" y1="1376.5299" y2="1376.5299"/><text fill="#222222" font-family="Verdana" font-size="12.5" font-weight="bold" lengthAdjust="spacing" textLength="27.0833" x="814.0625" y="1361.0819">[15]</text><text fill="#222222" font-family="Verdana" font-size="12.5" lengthAdjust="spacing" textLength="152.0833" x="866.1458" y="1361.0819">Activation record found</text><line style="stroke:#2196F3;stroke-width:3.125;" x1="785.9375" x2="829.6875" y1="1426.4974" y2="1426.4974"/><line style="stroke:#2196F3;stroke-width:3.125;" x1="829.6875" x2="829.6875" y1="1426.4974" y2="1440.0391"/><line style="stroke:#2196F3;stroke-width:3.125;" x1="786.9792" x2="829.6875" y1="1440.0391" y2="1440.0391"/><polygon fill="#2196F3" points="797.3958,1435.8724,786.9792,1440.0391,797.3958,1444.2057,793.2292,1440.0391" style="stroke:#2196F3;stroke-width:1.0416666666666667;"/><text fill="#222222" font-family="Verdana" font-size="12.5" font-weight="bold" lengthAdjust="spacing" textLength="27.0833" x="803.6458" y="1411.0494">[16]</text><text fill="#222222" font-family="Verdana" font-size="12.5" lengthAdjust="spacing" textLength="263.5417" x="855.7292" y="1411.0494">Verify ownership (JWT subject vs. record)</text><path d="M1141.6667,1396.3216 L1141.6667,1432.7799 A4.1667,4.1667 0 0 0 1145.8333,1436.9466 L1586.4583,1436.9466 A4.1667,4.1667 0 0 0 1590.625,1432.7799 L1590.625,1402.5716 L1580.2083,1392.1549 L1145.8333,1392.1549 A4.1667,4.1667 0 0 0 1141.6667,1396.3216 " fill="url(#g1iys7c2w5pafa2)" filter="url(#f1iys7c2w5pafa)" style="stroke:#9C27B0;stroke-width:1.0416666666666667;"/><path d="M1580.2083,1392.1549 L1580.2083,1400.4883 A2.0833,2.0833 0 0 0 1582.2917,1402.5716 L1590.625,1402.5716 L1580.2083,1392.1549 " fill="url(#g1iys7c2w5pafa2)" style="stroke:#9C27B0;stroke-width:1.0416666666666667;"/><text fill="#FFFFFF" font-family="Verdana" font-size="12.5" font-weight="bold" lengthAdjust="spacing" textLength="106.25" x="1158.3333" y="1419.3827">Access Denied</text><text fill="#FFFFFF" font-family="Verdana" font-size="12.5" lengthAdjust="spacing" textLength="300" x="1264.5833" y="1419.3827">: Subject in token does NOT match the owner.</text><polygon fill="#2196F3" points="438.0208,1485.8398,427.6042,1490.0065,438.0208,1494.1732,433.8542,1490.0065" style="stroke:#2196F3;stroke-width:1.0416666666666667;"/><line style="stroke:#2196F3;stroke-width:3.125;stroke-dasharray:2.0,2.0;" x1="431.7708" x2="774.4792" y1="1490.0065" y2="1490.0065"/><text fill="#222222" font-family="Verdana" font-size="12.5" font-weight="bold" lengthAdjust="spacing" textLength="27.0833" x="454.6875" y="1474.5585">[17]</text><text fill="#222222" font-family="Verdana" font-size="12.5" font-weight="bold" lengthAdjust="spacing" textLength="104.1667" x="506.7708" y="1474.5585">403 Forbidden</text><path d="M30.2083,1507.7148 L30.2083,1544.1732 A4.1667,4.1667 0 0 0 34.375,1548.3398 L413.5417,1548.3398 A4.1667,4.1667 0 0 0 417.7083,1544.1732 L417.7083,1513.9648 L407.2917,1503.5482 L34.375,1503.5482 A4.1667,4.1667 0 0 0 30.2083,1507.7148 " fill="url(#g1iys7c2w5pafa2)" filter="url(#f1iys7c2w5pafa)" style="stroke:#9C27B0;stroke-width:1.0416666666666667;"/><path d="M407.2917,1503.5482 L407.2917,1511.8815 A2.0833,2.0833 0 0 0 409.375,1513.9648 L417.7083,1513.9648 L407.2917,1503.5482 " fill="url(#g1iys7c2w5pafa2)" style="stroke:#9C27B0;stroke-width:1.0416666666666667;"/><text fill="#FFFFFF" font-family="Verdana" font-size="12.5" lengthAdjust="spacing" textLength="344.7917" x="46.875" y="1530.776">You do not have permission to delete this activation.</text><line style="stroke:#2196F3;stroke-width:1.0416666666666667;stroke-dasharray:2.0,2.0;" x1="19.7917" x2="1735.9375" y1="1558.724" y2="1558.724"/><text fill="#222222" font-family="Verdana" font-size="12.5" font-weight="bold" lengthAdjust="spacing" textLength="5.2083" x="35.4167" y="1580.7434">[</text><text fill="#222222" font-family="Verdana" font-size="12.5" font-weight="bold" lengthAdjust="spacing" textLength="91.6667" x="40.625" y="1580.7434">Other Errors</text><text fill="#222222" font-family="Verdana" font-size="12.5" font-weight="bold" lengthAdjust="spacing" textLength="5.2083" x="132.2917" y="1580.7434">]</text><path d="M317.7083,1602.4414 L510.4167,1602.4414 L510.4167,1629.4922 L500,1639.9089 L313.5417,1639.9089 L313.5417,1606.6081 A4.1667,4.1667 0 0 1 317.7083,1602.4414 " fill="#FFFFFF" style="stroke:#666666;stroke-width:1.0416666666666667;"/><rect fill="none" height="166.5039" rx="4.1667" ry="4.1667" style="stroke:#2196F3;stroke-width:1.0416666666666667;" width="603.6458" x="313.5417" y="1602.4414"/><text fill="#9C27B0" font-family="Verdana" font-size="12.5" font-weight="bold" lengthAdjust="spacing" textLength="129.1667" x="339.5833" y="1625.5025">Client-Side Errors</text><polygon fill="#2196F3" points="438.0208,1691.9271,427.6042,1696.0938,438.0208,1700.2604,433.8542,1696.0938" style="stroke:#2196F3;stroke-width:1.0416666666666667;"/><line style="stroke:#2196F3;stroke-width:3.125;stroke-dasharray:2.0,2.0;" x1="431.7708" x2="774.4792" y1="1696.0938" y2="1696.0938"/><text fill="#222222" font-family="Verdana" font-size="12.5" font-weight="bold" lengthAdjust="spacing" textLength="27.0833" x="454.6875" y="1673.3704">[18]</text><text fill="#222222" font-family="Verdana" font-size="12.5" font-weight="bold" lengthAdjust="spacing" textLength="130.2083" x="506.7708" y="1666.095">401 Unauthorized</text><text fill="#222222" font-family="Verdana" font-size="12.5" lengthAdjust="spacing" textLength="251.0417" x="506.7708" y="1680.6458">(e.g., Invalid or expired security token)</text><polygon fill="#2196F3" points="438.0208,1756.4453,427.6042,1760.612,438.0208,1764.7786,433.8542,1760.612" style="stroke:#2196F3;stroke-width:1.0416666666666667;"/><line style="stroke:#2196F3;stroke-width:3.125;stroke-dasharray:2.0,2.0;" x1="431.7708" x2="774.4792" y1="1760.612" y2="1760.612"/><text fill="#222222" font-family="Verdana" font-size="12.5" font-weight="bold" lengthAdjust="spacing" textLength="27.0833" x="454.6875" y="1737.8886">[19]</text><text fill="#222222" font-family="Verdana" font-size="12.5" font-weight="bold" lengthAdjust="spacing" textLength="173.9583" x="506.7708" y="1730.6132">429 Too Many Requests</text><text fill="#222222" font-family="Verdana" font-size="12.5" lengthAdjust="spacing" textLength="171.875" x="506.7708" y="1745.164">(e.g., Rate limit exceeded)</text><path d="M317.7083,1783.5286 L507.2917,1783.5286 L507.2917,1810.5794 L496.875,1820.9961 L313.5417,1820.9961 L313.5417,1787.6953 A4.1667,4.1667 0 0 1 317.7083,1783.5286 " fill="#FFFFFF" style="stroke:#666666;stroke-width:1.0416666666666667;"/><rect fill="none" height="150.944" rx="4.1667" ry="4.1667" style="stroke:#2196F3;stroke-width:1.0416666666666667;" width="1236.9792" x="313.5417" y="1783.5286"/><text fill="#9C27B0" font-family="Verdana" font-size="12.5" font-weight="bold" lengthAdjust="spacing" textLength="126.0417" x="339.5833" y="1806.5898">Server-Side Error</text><line style="stroke:#2196F3;stroke-width:3.125;" x1="785.9375" x2="829.6875" y1="1862.6302" y2="1862.6302"/><line style="stroke:#2196F3;stroke-width:3.125;" x1="829.6875" x2="829.6875" y1="1862.6302" y2="1876.1719"/><line style="stroke:#2196F3;stroke-width:3.125;" x1="786.9792" x2="829.6875" y1="1876.1719" y2="1876.1719"/><polygon fill="#2196F3" points="797.3958,1872.0052,786.9792,1876.1719,797.3958,1880.3385,793.2292,1876.1719" style="stroke:#2196F3;stroke-width:1.0416666666666667;"/><text fill="#222222" font-family="Verdana" font-size="12.5" font-weight="bold" lengthAdjust="spacing" textLength="27.0833" x="803.6458" y="1847.1822">[20]</text><text fill="#222222" font-family="Verdana" font-size="12.5" lengthAdjust="spacing" textLength="236.4583" x="855.7292" y="1847.1822">An unexpected internal error occurs</text><path d="M1114.5833,1832.4544 L1114.5833,1868.9128 A4.1667,4.1667 0 0 0 1118.75,1873.0794 L1521.875,1873.0794 A4.1667,4.1667 0 0 0 1526.0417,1868.9128 L1526.0417,1838.7044 L1515.625,1828.2878 L1118.75,1828.2878 A4.1667,4.1667 0 0 0 1114.5833,1832.4544 " fill="url(#g1iys7c2w5pafa2)" filter="url(#f1iys7c2w5pafa)" style="stroke:#9C27B0;stroke-width:1.0416666666666667;"/><path d="M1515.625,1828.2878 L1515.625,1836.6211 A2.0833,2.0833 0 0 0 1517.7083,1838.7044 L1526.0417,1838.7044 L1515.625,1828.2878 " fill="url(#g1iys7c2w5pafa2)" style="stroke:#9C27B0;stroke-width:1.0416666666666667;"/><text fill="#FFFFFF" font-family="Verdana" font-size="12.5" lengthAdjust="spacing" textLength="368.75" x="1131.25" y="1855.5155">e.g., Database connection failure, unhandled exception.</text><polygon fill="#2196F3" points="438.0208,1921.9727,427.6042,1926.1393,438.0208,1930.306,433.8542,1926.1393" style="stroke:#2196F3;stroke-width:1.0416666666666667;"/><line style="stroke:#2196F3;stroke-width:3.125;stroke-dasharray:2.0,2.0;" x1="431.7708" x2="774.4792" y1="1926.1393" y2="1926.1393"/><text fill="#222222" font-family="Verdana" font-size="12.5" font-weight="bold" lengthAdjust="spacing" textLength="27.0833" x="454.6875" y="1910.6913">[21]</text><text fill="#222222" font-family="Verdana" font-size="12.5" font-weight="bold" lengthAdjust="spacing" textLength="180.2083" x="506.7708" y="1910.6913">500 Internal Server Error</text><!--SRC=[rLPHRzis47xNhxYbmD8QYUfbtSECeO0J9q26fZLYjyEm3IWjdIqkDAcHb5Dls7_VHqgoPCyjyh2N-OaMUNVVVT_TaQSqLKBxztTlQ2B5oeerBOsb-_cK9YmoBpV2IwDfFBrDJcaklU8HlTToAJd_zwaP_r6nphZr1PCFR1ssHdIH3jCXFapOPLQMFdwS5z9HtWHUirsn8_zeo9dAPc6DPM4UoHTCENiX5SAMrc3FHQ22fcBBzjGXjjr8X9vQiv4vMuJQ-y5LtcBbw330TurLzAM9TNvUuTiPIPsfAfTwXPLdguKYPLOomwcSX5B4ri8c4uvTcYHVmU6QQGtVLeeayO6fepIEQ7Bzvdf-JI-xx-xbNzsVs_pl9C5VU3yP33wNtc1mGiBHT3PDIc6zp6G97OF5kAz7D6hEZcT9BhnO078uDsdMpUxa4b4hRtIrNZ12_x1u_SlmjvCaGGWwVmth4S4eOXyCleX-np8Y9jfWOUMgy6IMuGl1pRkIRJm-WgkFdIuViJlk99s2NwLG1g5C8A3bjTbm42emQtabdQ_zf0caen0hISQp5ky7eMGUWDo7mdIUlWObMMMbtzBSFB3keHlHLS7PGrjMcs1w1e_wd3-LqgBkVlnf3gM5ylIi58fNbbaZbrcLnNAy0fUZVRclpBfKx45naeGQh95DBaTq8qCPTISNMxgTn3CxyY18-3-vfFCcdPwobZDZSs2jT1wFzMexADb5YpoWA9TRCeyQtLZ8afuZ5tBLudVEF6rSslXx4UtwdCoQCrA3Vn0MAZmhGcUYWGvh4Yd4WzYg_QM07Bc1V6XnD5AU7Z8njbaXWwY7oHrbOx-QWlqTAiBrOeOw4UXhT4MmounII22uZSAYfpsLbIrDRDn3XXimhjPqMQalani0J3X8_4JylLZHBXn_MZ1OeHD33ruCNz5RW-82dzgZjdR4A5v6Ni9KQEVUF8xE7hf7D7iNCjqx63iFJQVX3_DEh_0FsN3W12tN4DQr6YlCacSgwB5bfJ2f1uFhC1X7GEZf9fJdVrJyl2xzzca4lOe4TU6FyJEA-RgIi_ekwy79JALYWhJWkiFIlKmXBcw3NQ8tnYvadhF-_tPvk3HYdqvOWup1u4ZZvmPjzlRTl9u0iU5YfFIu0j_kyN9SWPzD1RUHwKAWmd0fhAKBpuNwjevz5MT_n-5EYbpOXp2LSPa0YwMeXcirM5bJbNIb93haV8RXrEplglqGxpTurU3wAuoLVmO6VjNFELsbPtIhurL061xjHU3QEoGoy-9pFY- -noLZw4xeRNi1kPxZ-w2YaclC8_wKCUVSA1FQA-Blfn9cBTjUAdjHcyhHL6c0X6v0kNktr2yLam5qbtzV_XfF-nv0_MlTZaoyk2hBP_1RuE4JNby1QrahSJplxuP3aDR4hc7NY9iwwAM7PPBqQXglWty0]--></g></svg>