<svg xmlns="http://www.w3.org/2000/svg" xmlns:xlink="http://www.w3.org/1999/xlink" contentStyleType="text/css" data-diagram-type="SEQUENCE" height="917px" preserveAspectRatio="none" style="width:909px;height:917px;background:#FFFFFF;" version="1.1" viewBox="0 0 909 917" width="909px" zoomAndPan="magnify"><title>Deactivation</title><defs><filter height="300%" id="flp9fuvcwhnmk" width="300%" x="-1" y="-1"><feGaussianBlur result="blurOut" stdDeviation="2"/><feColorMatrix in="blurOut" result="blurOut2" type="matrix" values="0 0 0 0 0 0 0 0 0 0 0 0 0 0 0 0 0 0 .4 0"/><feOffset dx="4" dy="4" in="blurOut2" result="blurOut3"/><feBlend in="SourceGraphic" in2="blurOut3" mode="normal"/></filter></defs><g><text fill="#000000" font-family="sans-serif" font-size="14" font-weight="bold" lengthAdjust="spacing" textLength="100.0029" x="402.3616" y="27.9951">Deactivation</text><g><title>Activation Service</title><rect fill="#FFFFFF" filter="url(#flp9fuvcwhnmk)" height="29.1328" style="stroke:#A80036;stroke-width:1;" width="10" x="320.0835" y="156.7266"/></g><g><title>Activation Service</title><rect fill="#FFFFFF" filter="url(#flp9fuvcwhnmk)" height="29.1328" style="stroke:#A80036;stroke-width:1;" width="10" x="320.0835" y="297.3906"/></g><g><title>Activation Service</title><rect fill="#FFFFFF" filter="url(#flp9fuvcwhnmk)" height="29.1328" style="stroke:#A80036;stroke-width:1;" width="10" x="320.0835" y="399.5938"/></g><g><title>Activation Service</title><rect fill="#FFFFFF" filter="url(#flp9fuvcwhnmk)" height="29.1328" style="stroke:#A80036;stroke-width:1;" width="10" x="320.0835" y="481.9922"/></g><g><title>Activation Service</title><rect fill="#FFFFFF" filter="url(#flp9fuvcwhnmk)" height="29.1328" style="stroke:#A80036;stroke-width:1;" width="10" x="320.0835" y="555.0625"/></g><g><title>Activation Service</title><rect fill="#FFFFFF" filter="url(#flp9fuvcwhnmk)" height="29.1328" style="stroke:#A80036;stroke-width:1;" width="10" x="320.0835" y="771.9922"/></g><g><title>Auth Service</title><rect fill="#FFFFFF" filter="url(#flp9fuvcwhnmk)" height="53.2656" style="stroke:#A80036;stroke-width:1;" width="10" x="552.3037" y="428.7266"/></g><g><title>Auth Service</title><rect fill="#FFFFFF" filter="url(#flp9fuvcwhnmk)" height="43.9375" style="stroke:#A80036;stroke-width:1;" width="10" x="552.3037" y="511.125"/></g><g><title>Activation Repo</title><rect fill="#FFFFFF" filter="url(#flp9fuvcwhnmk)" height="29.1328" style="stroke:#A80036;stroke-width:1;" width="10" x="680.0947" y="185.8594"/></g><g><title>Activation Repo</title><rect fill="#FFFFFF" filter="url(#flp9fuvcwhnmk)" height="29.1328" style="stroke:#A80036;stroke-width:1;" width="10" x="680.0947" y="268.2578"/></g><g><title>Activation Repo</title><rect fill="#FFFFFF" filter="url(#flp9fuvcwhnmk)" height="29.1328" style="stroke:#A80036;stroke-width:1;" width="10" x="680.0947" y="370.4609"/></g><g><title>Activation Repo</title><rect fill="#FFFFFF" filter="url(#flp9fuvcwhnmk)" height="71.2656" style="stroke:#A80036;stroke-width:1;" width="10" x="680.0947" y="584.1953"/></g><g><title>Activation Repo</title><rect fill="#FFFFFF" filter="url(#flp9fuvcwhnmk)" height="29.1328" style="stroke:#A80036;stroke-width:1;" width="10" x="680.0947" y="684.5938"/></g><g><title>Activation Repo</title><rect fill="#FFFFFF" filter="url(#flp9fuvcwhnmk)" height="29.1328" style="stroke:#A80036;stroke-width:1;" width="10" x="680.0947" y="742.8594"/></g><g><title>Database</title><rect fill="#FFFFFF" filter="url(#flp9fuvcwhnmk)" height="53.2656" style="stroke:#A80036;stroke-width:1;" width="10" x="834.3257" y="214.9922"/></g><g><title>Database</title><rect fill="#FFFFFF" filter="url(#flp9fuvcwhnmk)" height="43.9375" style="stroke:#A80036;stroke-width:1;" width="10" x="834.3257" y="326.5234"/></g><g><title>Database</title><rect fill="#FFFFFF" filter="url(#flp9fuvcwhnmk)" height="29.1328" style="stroke:#A80036;stroke-width:1;" width="10" x="834.3257" y="655.4609"/></g><g><title>Database</title><rect fill="#FFFFFF" filter="url(#flp9fuvcwhnmk)" height="29.1328" style="stroke:#A80036;stroke-width:1;" width="10" x="834.3257" y="713.7266"/></g><rect fill="none" filter="url(#flp9fuvcwhnmk)" height="586.1328" style="stroke:#000000;stroke-width:2;" width="885.7261" x="10" y="229.9922"/><rect fill="none" filter="url(#flp9fuvcwhnmk)" height="365.3984" style="stroke:#000000;stroke-width:2;" width="865.7261" x="20" y="443.7266"/><g><title>SP Debitore</title><rect fill="#000000" fill-opacity="0.00000" height="707.5313" width="8" x="70.1865" y="125.5938"/><line style="stroke:#A80036;stroke-width:1;stroke-dasharray:5.0,5.0;" x1="74" x2="74" y1="125.5938" y2="833.125"/></g><g><title>Activation Service</title><rect fill="#000000" fill-opacity="0.00000" height="707.5313" width="8" x="321.0835" y="125.5938"/><line style="stroke:#A80036;stroke-width:1;stroke-dasharray:5.0,5.0;" x1="324.8203" x2="324.8203" y1="125.5938" y2="833.125"/></g><g><title>Auth Service</title><rect fill="#000000" fill-opacity="0.00000" height="707.5313" width="8" x="553.3037" y="125.5938"/><line style="stroke:#A80036;stroke-width:1;stroke-dasharray:5.0,5.0;" x1="556.8018" x2="556.8018" y1="125.5938" y2="833.125"/></g><g><title>Activation Repo</title><rect fill="#000000" fill-opacity="0.00000" height="707.5313" width="8" x="681.0947" y="125.5938"/><line style="stroke:#A80036;stroke-width:1;stroke-dasharray:5.0,5.0;" x1="684.8057" x2="684.8057" y1="125.5938" y2="833.125"/></g><g><title>Database</title><rect fill="#000000" fill-opacity="0.00000" height="707.5313" width="8" x="835.3257" y="125.5938"/><line style="stroke:#A80036;stroke-width:1;stroke-dasharray:5.0,5.0;" x1="838.9253" x2="838.9253" y1="125.5938" y2="833.125"/></g><g class="participant participant-head" data-participant="SPD"><text fill="#000000" font-family="sans-serif" font-size="14" lengthAdjust="spacing" textLength="82.373" x="30" y="122.292">SP Debitore</text><ellipse cx="74.1865" cy="52.2969" fill="#FEFECE" filter="url(#flp9fuvcwhnmk)" rx="8" ry="8" style="stroke:#A80036;stroke-width:2;"/><path d="M74.1865,60.2969 L74.1865,87.2969 M61.1865,68.2969 L87.1865,68.2969 M74.1865,87.2969 L61.1865,102.2969 M74.1865,87.2969 L87.1865,102.2969" fill="none" filter="url(#flp9fuvcwhnmk)" style="stroke:#A80036;stroke-width:2;"/></g><g class="participant participant-tail" data-participant="SPD"><text fill="#000000" font-family="sans-serif" font-size="14" lengthAdjust="spacing" textLength="82.373" x="30" y="845.1201">SP Debitore</text><ellipse cx="74.1865" cy="858.4219" fill="#FEFECE" filter="url(#flp9fuvcwhnmk)" rx="8" ry="8" style="stroke:#A80036;stroke-width:2;"/><path d="M74.1865,866.4219 L74.1865,893.4219 M61.1865,874.4219 L87.1865,874.4219 M74.1865,893.4219 L61.1865,908.4219 M74.1865,893.4219 L87.1865,908.4219" fill="none" filter="url(#flp9fuvcwhnmk)" style="stroke:#A80036;stroke-width:2;"/></g><g class="participant participant-head" data-participant="AS"><rect fill="#FEFECE" filter="url(#flp9fuvcwhnmk)" height="30.2969" style="stroke:#A80036;stroke-width:1.5;" width="140.5264" x="252.8203" y="90.2969"/><text fill="#000000" font-family="sans-serif" font-size="14" lengthAdjust="spacing" textLength="126.5264" x="259.8203" y="110.292">Activation Service</text></g><g class="participant participant-tail" data-participant="AS"><rect fill="#FEFECE" filter="url(#flp9fuvcwhnmk)" height="30.2969" style="stroke:#A80036;stroke-width:1.5;" width="140.5264" x="252.8203" y="832.125"/><text fill="#000000" font-family="sans-serif" font-size="14" lengthAdjust="spacing" textLength="126.5264" x="259.8203" y="852.1201">Activation Service</text></g><g class="participant participant-head" data-participant="AUTH"><rect fill="#FEFECE" filter="url(#flp9fuvcwhnmk)" height="30.2969" style="stroke:#A80036;stroke-width:1.5;" width="103.0039" x="503.8018" y="90.2969"/><text fill="#000000" font-family="sans-serif" font-size="14" lengthAdjust="spacing" textLength="89.0039" x="510.8018" y="110.292">Auth Service</text></g><g class="participant participant-tail" data-participant="AUTH"><rect fill="#FEFECE" filter="url(#flp9fuvcwhnmk)" height="30.2969" style="stroke:#A80036;stroke-width:1.5;" width="103.0039" x="503.8018" y="832.125"/><text fill="#000000" font-family="sans-serif" font-size="14" lengthAdjust="spacing" textLength="89.0039" x="510.8018" y="852.1201">Auth Service</text></g><g class="participant participant-head" data-participant="AR"><rect fill="#FEFECE" filter="url(#flp9fuvcwhnmk)" height="30.2969" style="stroke:#A80036;stroke-width:1.5;" width="124.5781" x="620.8057" y="90.2969"/><text fill="#000000" font-family="sans-serif" font-size="14" lengthAdjust="spacing" textLength="110.5781" x="627.8057" y="110.292">Activation Repo</text></g><g class="participant participant-tail" data-participant="AR"><rect fill="#FEFECE" filter="url(#flp9fuvcwhnmk)" height="30.2969" style="stroke:#A80036;stroke-width:1.5;" width="124.5781" x="620.8057" y="832.125"/><text fill="#000000" font-family="sans-serif" font-size="14" lengthAdjust="spacing" textLength="110.5781" x="627.8057" y="852.1201">Activation Repo</text></g><g class="participant participant-head" data-participant="DB"><text fill="#000000" font-family="sans-serif" font-size="14" lengthAdjust="spacing" textLength="66.8008" x="802.9253" y="122.292">Database</text><path d="M821.3257,73.2969 C821.3257,63.2969 839.3257,63.2969 839.3257,63.2969 C839.3257,63.2969 857.3257,63.2969 857.3257,73.2969 L857.3257,99.2969 C857.3257,109.2969 839.3257,109.2969 839.3257,109.2969 C839.3257,109.2969 821.3257,109.2969 821.3257,99.2969 L821.3257,73.2969" fill="#FEFECE" filter="url(#flp9fuvcwhnmk)" style="stroke:#A80036;stroke-width:1.5;"/><path d="M821.3257,73.2969 C821.3257,83.2969 839.3257,83.2969 839.3257,83.2969 C839.3257,83.2969 857.3257,83.2969 857.3257,73.2969" fill="none" style="stroke:#A80036;stroke-width:1.5;"/></g><g class="participant participant-tail" data-participant="DB"><text fill="#000000" font-family="sans-serif" font-size="14" lengthAdjust="spacing" textLength="66.8008" x="802.9253" y="845.1201">Database</text><path d="M821.3257,858.4219 C821.3257,848.4219 839.3257,848.4219 839.3257,848.4219 C839.3257,848.4219 857.3257,848.4219 857.3257,858.4219 L857.3257,884.4219 C857.3257,894.4219 839.3257,894.4219 839.3257,894.4219 C839.3257,894.4219 821.3257,894.4219 821.3257,884.4219 L821.3257,858.4219" fill="#FEFECE" filter="url(#flp9fuvcwhnmk)" style="stroke:#A80036;stroke-width:1.5;"/><path d="M821.3257,858.4219 C821.3257,868.4219 839.3257,868.4219 839.3257,868.4219 C839.3257,868.4219 857.3257,868.4219 857.3257,858.4219" fill="none" style="stroke:#A80036;stroke-width:1.5;"/></g><g><title>Activation Service</title><rect fill="#FFFFFF" filter="url(#flp9fuvcwhnmk)" height="29.1328" style="stroke:#A80036;stroke-width:1;" width="10" x="320.0835" y="156.7266"/></g><g><title>Activation Service</title><rect fill="#FFFFFF" filter="url(#flp9fuvcwhnmk)" height="29.1328" style="stroke:#A80036;stroke-width:1;" width="10" x="320.0835" y="297.3906"/></g><g><title>Activation Service</title><rect fill="#FFFFFF" filter="url(#flp9fuvcwhnmk)" height="29.1328" style="stroke:#A80036;stroke-width:1;" width="10" x="320.0835" y="399.5938"/></g><g><title>Activation Service</title><rect fill="#FFFFFF" filter="url(#flp9fuvcwhnmk)" height="29.1328" style="stroke:#A80036;stroke-width:1;" width="10" x="320.0835" y="481.9922"/></g><g><title>Activation Service</title><rect fill="#FFFFFF" filter="url(#flp9fuvcwhnmk)" height="29.1328" style="stroke:#A80036;stroke-width:1;" width="10" x="320.0835" y="555.0625"/></g><g><title>Activation Service</title><rect fill="#FFFFFF" filter="url(#flp9fuvcwhnmk)" height="29.1328" style="stroke:#A80036;stroke-width:1;" width="10" x="320.0835" y="771.9922"/></g><g><title>Auth Service</title><rect fill="#FFFFFF" filter="url(#flp9fuvcwhnmk)" height="53.2656" style="stroke:#A80036;stroke-width:1;" width="10" x="552.3037" y="428.7266"/></g><g><title>Auth Service</title><rect fill="#FFFFFF" filter="url(#flp9fuvcwhnmk)" height="43.9375" style="stroke:#A80036;stroke-width:1;" width="10" x="552.3037" y="511.125"/></g><g><title>Activation Repo</title><rect fill="#FFFFFF" filter="url(#flp9fuvcwhnmk)" height="29.1328" style="stroke:#A80036;stroke-width:1;" width="10" x="680.0947" y="185.8594"/></g><g><title>Activation Repo</title><rect fill="#FFFFFF" filter="url(#flp9fuvcwhnmk)" height="29.1328" style="stroke:#A80036;stroke-width:1;" width="10" x="680.0947" y="268.2578"/></g><g><title>Activation Repo</title><rect fill="#FFFFFF" filter="url(#flp9fuvcwhnmk)" height="29.1328" style="stroke:#A80036;stroke-width:1;" width="10" x="680.0947" y="370.4609"/></g><g><title>Activation Repo</title><rect fill="#FFFFFF" filter="url(#flp9fuvcwhnmk)" height="71.2656" style="stroke:#A80036;stroke-width:1;" width="10" x="680.0947" y="584.1953"/></g><g><title>Activation Repo</title><rect fill="#FFFFFF" filter="url(#flp9fuvcwhnmk)" height="29.1328" style="stroke:#A80036;stroke-width:1;" width="10" x="680.0947" y="684.5938"/></g><g><title>Activation Repo</title><rect fill="#FFFFFF" filter="url(#flp9fuvcwhnmk)" height="29.1328" style="stroke:#A80036;stroke-width:1;" width="10" x="680.0947" y="742.8594"/></g><g><title>Database</title><rect fill="#FFFFFF" filter="url(#flp9fuvcwhnmk)" height="53.2656" style="stroke:#A80036;stroke-width:1;" width="10" x="834.3257" y="214.9922"/></g><g><title>Database</title><rect fill="#FFFFFF" filter="url(#flp9fuvcwhnmk)" height="43.9375" style="stroke:#A80036;stroke-width:1;" width="10" x="834.3257" y="326.5234"/></g><g><title>Database</title><rect fill="#FFFFFF" filter="url(#flp9fuvcwhnmk)" height="29.1328" style="stroke:#A80036;stroke-width:1;" width="10" x="834.3257" y="655.4609"/></g><g><title>Database</title><rect fill="#FFFFFF" filter="url(#flp9fuvcwhnmk)" height="29.1328" style="stroke:#A80036;stroke-width:1;" width="10" x="834.3257" y="713.7266"/></g><g class="message" data-participant-1="SPD" data-participant-2="AS"><polygon fill="#A80036" points="308.0835,152.7266,318.0835,156.7266,308.0835,160.7266,312.0835,156.7266" style="stroke:#A80036;stroke-width:1;"/><line style="stroke:#A80036;stroke-width:1;" x1="74.1865" x2="314.0835" y1="156.7266" y2="156.7266"/><text fill="#000000" font-family="sans-serif" font-size="13" lengthAdjust="spacing" textLength="226.897" x="81.1865" y="151.6606">DELETE /activations/{activationId}</text></g><g class="message" data-participant-1="AS" data-participant-2="AR"><polygon fill="#A80036" points="668.0947,181.8594,678.0947,185.8594,668.0947,189.8594,672.0947,185.8594" style="stroke:#A80036;stroke-width:1;"/><line style="stroke:#A80036;stroke-width:1;" x1="325.0835" x2="674.0947" y1="185.8594" y2="185.8594"/><text fill="#000000" font-family="sans-serif" font-size="13" lengthAdjust="spacing" textLength="90.2192" x="332.0835" y="180.7935">findPayerById</text></g><g class="message" data-participant-1="AR" data-participant-2="DB"><polygon fill="#A80036" points="822.3257,210.9922,832.3257,214.9922,822.3257,218.9922,826.3257,214.9922" style="stroke:#A80036;stroke-width:1;"/><line style="stroke:#A80036;stroke-width:1;" x1="685.0947" x2="828.3257" y1="214.9922" y2="214.9922"/><text fill="#000000" font-family="sans-serif" font-size="13" lengthAdjust="spacing" textLength="53.3774" x="692.0947" y="209.9263">findById</text></g><path d="M10,229.9922 L74.4429,229.9922 L74.4429,237.125 L64.4429,247.125 L10,247.125 L10,229.9922" fill="#EEEEEE" style="stroke:#000000;stroke-width:1;"/><rect fill="none" height="586.1328" style="stroke:#000000;stroke-width:2;" width="885.7261" x="10" y="229.9922"/><text fill="#000000" font-family="sans-serif" font-size="13" font-weight="bold" lengthAdjust="spacing" textLength="19.4429" x="25" y="243.0591">alt</text><text fill="#000000" font-family="sans-serif" font-size="11" font-weight="bold" lengthAdjust="spacing" textLength="137.312" x="89.4429" y="242.2026">[Activation not found]</text><g class="message" data-participant-1="DB" data-participant-2="AR"><polygon fill="#A80036" points="701.0947,264.2578,691.0947,268.2578,701.0947,272.2578,697.0947,268.2578" style="stroke:#A80036;stroke-width:1;"/><line style="stroke:#A80036;stroke-width:1;stroke-dasharray:2.0,2.0;" x1="695.0947" x2="838.3257" y1="268.2578" y2="268.2578"/><text fill="#000000" font-family="sans-serif" font-size="13" lengthAdjust="spacing" textLength="41.7041" x="707.0947" y="263.1919">empty</text></g><g class="message" data-participant-1="AR" data-participant-2="AS"><polygon fill="#A80036" points="341.0835,293.3906,331.0835,297.3906,341.0835,301.3906,337.0835,297.3906" style="stroke:#A80036;stroke-width:1;"/><line style="stroke:#A80036;stroke-width:1;stroke-dasharray:2.0,2.0;" x1="335.0835" x2="684.0947" y1="297.3906" y2="297.3906"/><text fill="#000000" font-family="sans-serif" font-size="13" lengthAdjust="spacing" textLength="41.7041" x="347.0835" y="292.3247">empty</text></g><g class="message" data-participant-1="AS" data-participant-2="SPD"><polygon fill="#A80036" points="85.1865,322.5234,75.1865,326.5234,85.1865,330.5234,81.1865,326.5234" style="stroke:#A80036;stroke-width:1;"/><line style="stroke:#A80036;stroke-width:1;stroke-dasharray:2.0,2.0;" x1="79.1865" x2="324.0835" y1="326.5234" y2="326.5234"/><text fill="#000000" font-family="sans-serif" font-size="13" lengthAdjust="spacing" textLength="96.0146" x="91.1865" y="321.4575">404 Not Found</text></g><line style="stroke:#000000;stroke-width:1;stroke-dasharray:2.0,2.0;" x1="10" x2="895.7261" y1="335.5234" y2="335.5234"/><text fill="#000000" font-family="sans-serif" font-size="11" font-weight="bold" lengthAdjust="spacing" textLength="112.8359" x="15" y="345.7339">[Activation found]</text><g class="message" data-participant-1="DB" data-participant-2="AR"><polygon fill="#A80036" points="701.0947,366.4609,691.0947,370.4609,701.0947,374.4609,697.0947,370.4609" style="stroke:#A80036;stroke-width:1;"/><line style="stroke:#A80036;stroke-width:1;stroke-dasharray:2.0,2.0;" x1="695.0947" x2="838.3257" y1="370.4609" y2="370.4609"/><text fill="#000000" font-family="sans-serif" font-size="13" lengthAdjust="spacing" textLength="103.2637" x="707.0947" y="365.395">ActivationEntity</text></g><g class="message" data-participant-1="AR" data-participant-2="AS"><polygon fill="#A80036" points="341.0835,395.5938,331.0835,399.5938,341.0835,403.5938,337.0835,399.5938" style="stroke:#A80036;stroke-width:1;"/><line style="stroke:#A80036;stroke-width:1;stroke-dasharray:2.0,2.0;" x1="335.0835" x2="684.0947" y1="399.5938" y2="399.5938"/><text fill="#000000" font-family="sans-serif" font-size="13" lengthAdjust="spacing" textLength="36.8418" x="347.0835" y="394.5278">Payer</text></g><g class="message" data-participant-1="AS" data-participant-2="AUTH"><polygon fill="#A80036" points="540.3037,424.7266,550.3037,428.7266,540.3037,432.7266,544.3037,428.7266" style="stroke:#A80036;stroke-width:1;"/><line style="stroke:#A80036;stroke-width:1;" x1="325.0835" x2="546.3037" y1="428.7266" y2="428.7266"/><text fill="#000000" font-family="sans-serif" font-size="13" lengthAdjust="spacing" textLength="138.9058" x="332.0835" y="423.6606">verifySubjectRequest</text></g><path d="M20,443.7266 L84.4429,443.7266 L84.4429,450.8594 L74.4429,460.8594 L20,460.8594 L20,443.7266" fill="#EEEEEE" style="stroke:#000000;stroke-width:1;"/><rect fill="none" height="365.3984" style="stroke:#000000;stroke-width:2;" width="865.7261" x="20" y="443.7266"/><text fill="#000000" font-family="sans-serif" font-size="13" font-weight="bold" lengthAdjust="spacing" textLength="19.4429" x="35" y="456.7935">alt</text><text fill="#000000" font-family="sans-serif" font-size="11" font-weight="bold" lengthAdjust="spacing" textLength="99.521" x="99.4429" y="455.937">[Access Denied]</text><g class="message" data-participant-1="AUTH" data-participant-2="AS"><polygon fill="#A80036" points="341.0835,477.9922,331.0835,481.9922,341.0835,485.9922,337.0835,481.9922" style="stroke:#A80036;stroke-width:1;"/><line style="stroke:#A80036;stroke-width:1;stroke-dasharray:2.0,2.0;" x1="335.0835" x2="556.3037" y1="481.9922" y2="481.9922"/><text fill="#000000" font-family="sans-serif" font-size="13" lengthAdjust="spacing" textLength="203.2202" x="347.0835" y="476.9263">throws AccessDeniedException</text></g><g class="message" data-participant-1="AS" data-participant-2="SPD"><polygon fill="#A80036" points="85.1865,507.125,75.1865,511.125,85.1865,515.125,81.1865,511.125" style="stroke:#A80036;stroke-width:1;"/><line style="stroke:#A80036;stroke-width:1;stroke-dasharray:2.0,2.0;" x1="79.1865" x2="324.0835" y1="511.125" y2="511.125"/><text fill="#000000" font-family="sans-serif" font-size="13" lengthAdjust="spacing" textLength="96.0146" x="91.1865" y="506.0591">404 Not Found</text></g><line style="stroke:#000000;stroke-width:1;stroke-dasharray:2.0,2.0;" x1="20" x2="885.7261" y1="520.125" y2="520.125"/><text fill="#000000" font-family="sans-serif" font-size="11" font-weight="bold" lengthAdjust="spacing" textLength="106.2939" x="25" y="530.3354">[Access Granted]</text><g class="message" data-participant-1="AUTH" data-participant-2="AS"><polygon fill="#A80036" points="341.0835,551.0625,331.0835,555.0625,341.0835,559.0625,337.0835,555.0625" style="stroke:#A80036;stroke-width:1;"/><line style="stroke:#A80036;stroke-width:1;stroke-dasharray:2.0,2.0;" x1="335.0835" x2="556.3037" y1="555.0625" y2="555.0625"/><text fill="#000000" font-family="sans-serif" font-size="13" lengthAdjust="spacing" textLength="49.0864" x="347.0835" y="549.9966">verified</text></g><g class="message" data-participant-1="AS" data-participant-2="AR"><polygon fill="#A80036" points="668.0947,580.1953,678.0947,584.1953,668.0947,588.1953,672.0947,584.1953" style="stroke:#A80036;stroke-width:1;"/><line style="stroke:#A80036;stroke-width:1;" x1="325.0835" x2="674.0947" y1="584.1953" y2="584.1953"/><text fill="#000000" font-family="sans-serif" font-size="13" lengthAdjust="spacing" textLength="105.6694" x="332.0835" y="579.1294">deactivatePayer</text></g><g class="message" data-participant-1="AR" data-participant-2="AR"><line style="stroke:#A80036;stroke-width:1;" x1="690.0947" x2="732.0947" y1="613.3281" y2="613.3281"/><line style="stroke:#A80036;stroke-width:1;" x1="732.0947" x2="732.0947" y1="613.3281" y2="626.3281"/><line style="stroke:#A80036;stroke-width:1;" x1="691.0947" x2="732.0947" y1="626.3281" y2="626.3281"/><polygon fill="#A80036" points="701.0947,622.3281,691.0947,626.3281,701.0947,630.3281,697.0947,626.3281" style="stroke:#A80036;stroke-width:1;"/><text fill="#000000" font-family="sans-serif" font-size="13" lengthAdjust="spacing" textLength="120.231" x="697.0947" y="608.2622">toDeletedDbEntity</text></g><g class="message" data-participant-1="AR" data-participant-2="DB"><polygon fill="#A80036" points="822.3257,651.4609,832.3257,655.4609,822.3257,659.4609,826.3257,655.4609" style="stroke:#A80036;stroke-width:1;"/><line style="stroke:#A80036;stroke-width:1;" x1="685.0947" x2="828.3257" y1="655.4609" y2="655.4609"/><text fill="#000000" font-family="sans-serif" font-size="13" lengthAdjust="spacing" textLength="30.4307" x="692.0947" y="650.395">save</text></g><g class="message" data-participant-1="DB" data-participant-2="AR"><polygon fill="#A80036" points="701.0947,680.5938,691.0947,684.5938,701.0947,688.5938,697.0947,684.5938" style="stroke:#A80036;stroke-width:1;"/><line style="stroke:#A80036;stroke-width:1;stroke-dasharray:2.0,2.0;" x1="695.0947" x2="838.3257" y1="684.5938" y2="684.5938"/><text fill="#000000" font-family="sans-serif" font-size="13" lengthAdjust="spacing" textLength="38.6826" x="707.0947" y="679.5278">saved</text></g><g class="message" data-participant-1="AR" data-participant-2="DB"><polygon fill="#A80036" points="822.3257,709.7266,832.3257,713.7266,822.3257,717.7266,826.3257,713.7266" style="stroke:#A80036;stroke-width:1;"/><line style="stroke:#A80036;stroke-width:1;" x1="685.0947" x2="828.3257" y1="713.7266" y2="713.7266"/><text fill="#000000" font-family="sans-serif" font-size="13" lengthAdjust="spacing" textLength="69.6528" x="692.0947" y="708.6606">deleteById</text></g><g class="message" data-participant-1="DB" data-participant-2="AR"><polygon fill="#A80036" points="701.0947,738.8594,691.0947,742.8594,701.0947,746.8594,697.0947,742.8594" style="stroke:#A80036;stroke-width:1;"/><line style="stroke:#A80036;stroke-width:1;" x1="695.0947" x2="838.3257" y1="742.8594" y2="742.8594"/><text fill="#000000" font-family="sans-serif" font-size="13" lengthAdjust="spacing" textLength="49.207" x="707.0947" y="737.7935">deleted</text></g><g class="message" data-participant-1="AR" data-participant-2="AS"><polygon fill="#A80036" points="341.0835,767.9922,331.0835,771.9922,341.0835,775.9922,337.0835,771.9922" style="stroke:#A80036;stroke-width:1;"/><line style="stroke:#A80036;stroke-width:1;stroke-dasharray:2.0,2.0;" x1="335.0835" x2="684.0947" y1="771.9922" y2="771.9922"/><text fill="#000000" font-family="sans-serif" font-size="13" lengthAdjust="spacing" textLength="49.207" x="347.0835" y="766.9263">deleted</text></g><g class="message" data-participant-1="AS" data-participant-2="SPD"><polygon fill="#A80036" points="85.1865,797.125,75.1865,801.125,85.1865,805.125,81.1865,801.125" style="stroke:#A80036;stroke-width:1;"/><line style="stroke:#A80036;stroke-width:1;stroke-dasharray:2.0,2.0;" x1="79.1865" x2="324.0835" y1="801.125" y2="801.125"/><text fill="#000000" font-family="sans-serif" font-size="13" lengthAdjust="spacing" textLength="102.4575" x="91.1865" y="796.0591">204 No Content</text></g><!--SRC=[fLHHRzCm47xthpZrVHf2U-h3f1Q7CGcXoXa_m4skcg7O8NOB5UA_StQSs6czCLYbHBRxVNVVTtUEKswFm54sJXsbKqOpPhyg3RsnoEZKzB2eDuJOAbhZ0gI5UiDP9tkd6jL9xM2ncjXGOtzKpO1RrMUmWtkS0pu_V7Woai3E32Z1MkdaLbg41O-hy0zVCqPYuEgMSYs1Ln-hXmgkanbx_IjjxjlVBExGQsEhEZ354dPAjnjvmdvzkczPYpaihGLHXAVmzK2vG8k4zjhata7cI1i7EtFGBGFwyJLSnVJuhNEdS9W5em3-90_kz-7bPKJJHMx4vZOIjmvSgjiIRjxSm2TIzNvIDVVES4z5poma-USwCpi9Nscd_jjPQCWBd4skRiD0BU68lTgTwiFs2pPEuFS3MbSmDu_ZHt4u2arhqD9yeLOus0qv23EfSu-z-M4ZSW1MFnlimXqQ6Nb2ds0yFvSnsVzxWye-mYisAqY_w-a-OLimMNGJIfPxVOdocUAXzOcMkbTMN9g0UHd46DGPZdiaDtoR3LJ2-EjevH6BsSHbjZX_ispP-FfGnK9alDb7uL9D6_I6pyChDOrb3Vx_GLIndB7PpqGhIJllz3YRRyDimZj3WwRTCwr66brw_W00]--></g></svg>