<?xml version="1.0" encoding="us-ascii" standalone="no"?><svg xmlns="http://www.w3.org/2000/svg" xmlns:xlink="http://www.w3.org/1999/xlink" contentStyleType="text/css" height="1191px" preserveAspectRatio="none" style="width:1550px;height:1191px;background:#FFFFFF;" version="1.1" viewBox="0 0 1550 1191" width="1550px" zoomAndPan="magnify"><defs><filter height="300%" id="fq4nqta7sa8xr" width="300%" x="-1" y="-1"><feGaussianBlur result="blurOut" stdDeviation="2.0"/><feColorMatrix in="blurOut" result="blurOut2" type="matrix" values="0 0 0 0 0 0 0 0 0 0 0 0 0 0 0 0 0 0 .4 0"/><feOffset dx="4.0" dy="4.0" in="blurOut2" result="blurOut3"/><feBlend in="SourceGraphic" in2="blurOut3" mode="normal"/></filter></defs><g><text fill="#000000" font-family="sans-serif" font-size="14" font-weight="bold" lengthAdjust="spacing" textLength="342" x="601.75" y="27.9951">Cancel RTP Process via PagoPa GDP Queue</text><rect fill="#FFFFFF" filter="url(#fq4nqta7sa8xr)" height="962.8047" style="stroke:#A80036;stroke-width:1.0;" width="10" x="366.5" y="140.7266"/><rect fill="#FFFFFF" filter="url(#fq4nqta7sa8xr)" height="793.4688" style="stroke:#A80036;stroke-width:1.0;" width="10" x="557.5" y="246.125"/><rect fill="#FFFFFF" filter="url(#fq4nqta7sa8xr)" height="759.3359" style="stroke:#A80036;stroke-width:1.0;" width="10" x="764.5" y="280.2578"/><rect fill="#FFFFFF" filter="url(#fq4nqta7sa8xr)" height="462.3359" style="stroke:#A80036;stroke-width:1.0;" width="10" x="1224.5" y="468.0547"/><rect fill="none" filter="url(#fq4nqta7sa8xr)" height="893.6719" style="stroke:#000000;stroke-width:2.0;" width="1263.5" x="273" y="202.8594"/><rect fill="none" filter="url(#fq4nqta7sa8xr)" height="737.3359" style="stroke:#000000;stroke-width:2.0;" width="1243.5" x="283" y="295.2578"/><rect fill="none" filter="url(#fq4nqta7sa8xr)" height="435.3359" style="stroke:#000000;stroke-width:2.0;" width="793.5" x="502.5" y="488.0547"/><line style="stroke:#A80036;stroke-width:1.0;stroke-dasharray:5.0,5.0;" x1="204" x2="204" y1="104.5938" y2="1113.5313"/><line style="stroke:#A80036;stroke-width:1.0;stroke-dasharray:5.0,5.0;" x1="371" x2="371" y1="104.5938" y2="1113.5313"/><line style="stroke:#A80036;stroke-width:1.0;stroke-dasharray:5.0,5.0;" x1="562.5" x2="562.5" y1="104.5938" y2="1113.5313"/><line style="stroke:#A80036;stroke-width:1.0;stroke-dasharray:5.0,5.0;" x1="769.5" x2="769.5" y1="104.5938" y2="1113.5313"/><line style="stroke:#A80036;stroke-width:1.0;stroke-dasharray:5.0,5.0;" x1="1229" x2="1229" y1="104.5938" y2="1113.5313"/><path d="M130,78.2969 L278,78.2969 C283,78.2969 283,91.4453 283,91.4453 C283,91.4453 283,104.5938 278,104.5938 L130,104.5938 C125,104.5938 125,91.4453 125,91.4453 C125,91.4453 125,78.2969 130,78.2969 " fill="#FEFECE" filter="url(#fq4nqta7sa8xr)" style="stroke:#A80036;stroke-width:2.0;"/><path d="M278,78.2969 C273,78.2969 273,91.4453 273,91.4453 C273,104.5938 278,104.5938 278,104.5938 " fill="none" style="stroke:#A80036;stroke-width:2.0;"/><text fill="#000000" font-family="sans-serif" font-size="14" lengthAdjust="spacing" textLength="138" x="130" y="96.292">PagoPa GDP Queue</text><path d="M130,1112.5313 L278,1112.5313 C283,1112.5313 283,1125.6797 283,1125.6797 C283,1125.6797 283,1138.8281 278,1138.8281 L130,1138.8281 C125,1138.8281 125,1125.6797 125,1125.6797 C125,1125.6797 125,1112.5313 130,1112.5313 " fill="#FEFECE" filter="url(#fq4nqta7sa8xr)" style="stroke:#A80036;stroke-width:2.0;"/><path d="M278,1112.5313 C273,1112.5313 273,1125.6797 273,1125.6797 C273,1138.8281 278,1138.8281 278,1138.8281 " fill="none" style="stroke:#A80036;stroke-width:2.0;"/><text fill="#000000" font-family="sans-serif" font-size="14" lengthAdjust="spacing" textLength="138" x="130" y="1130.5264">PagoPa GDP Queue</text><rect fill="#FEFECE" filter="url(#fq4nqta7sa8xr)" height="30.2969" style="stroke:#A80036;stroke-width:1.5;" width="153" x="293" y="69.2969"/><text fill="#000000" font-family="sans-serif" font-size="14" lengthAdjust="spacing" textLength="139" x="300" y="89.292">Message Consumer</text><rect fill="#FEFECE" filter="url(#fq4nqta7sa8xr)" height="30.2969" style="stroke:#A80036;stroke-width:1.5;" width="153" x="293" y="1112.5313"/><text fill="#000000" font-family="sans-serif" font-size="14" lengthAdjust="spacing" textLength="139" x="300" y="1132.5264">Message Consumer</text><rect fill="#FEFECE" filter="url(#fq4nqta7sa8xr)" height="30.2969" style="stroke:#A80036;stroke-width:1.5;" width="96" x="512.5" y="69.2969"/><text fill="#000000" font-family="sans-serif" font-size="14" lengthAdjust="spacing" textLength="82" x="519.5" y="89.292">RTP Service</text><rect fill="#FEFECE" filter="url(#fq4nqta7sa8xr)" height="30.2969" style="stroke:#A80036;stroke-width:1.5;" width="96" x="512.5" y="1112.5313"/><text fill="#000000" font-family="sans-serif" font-size="14" lengthAdjust="spacing" textLength="82" x="519.5" y="1132.5264">RTP Service</text><text fill="#000000" font-family="sans-serif" font-size="14" lengthAdjust="spacing" textLength="66" x="733.5" y="101.292">Database</text><path d="M751.5,52.2969 C751.5,42.2969 769.5,42.2969 769.5,42.2969 C769.5,42.2969 787.5,42.2969 787.5,52.2969 L787.5,78.2969 C787.5,88.2969 769.5,88.2969 769.5,88.2969 C769.5,88.2969 751.5,88.2969 751.5,78.2969 L751.5,52.2969 " fill="#FEFECE" filter="url(#fq4nqta7sa8xr)" style="stroke:#A80036;stroke-width:1.5;"/><path d="M751.5,52.2969 C751.5,62.2969 769.5,62.2969 769.5,62.2969 C769.5,62.2969 787.5,62.2969 787.5,52.2969 " fill="none" style="stroke:#A80036;stroke-width:1.5;"/><text fill="#000000" font-family="sans-serif" font-size="14" lengthAdjust="spacing" textLength="66" x="733.5" y="1125.5264">Database</text><path d="M751.5,1138.8281 C751.5,1128.8281 769.5,1128.8281 769.5,1128.8281 C769.5,1128.8281 787.5,1128.8281 787.5,1138.8281 L787.5,1164.8281 C787.5,1174.8281 769.5,1174.8281 769.5,1174.8281 C769.5,1174.8281 751.5,1174.8281 751.5,1164.8281 L751.5,1138.8281 " fill="#FEFECE" filter="url(#fq4nqta7sa8xr)" style="stroke:#A80036;stroke-width:1.5;"/><path d="M751.5,1138.8281 C751.5,1148.8281 769.5,1148.8281 769.5,1148.8281 C769.5,1148.8281 787.5,1148.8281 787.5,1138.8281 " fill="none" style="stroke:#A80036;stroke-width:1.5;"/><rect fill="#FEFECE" filter="url(#fq4nqta7sa8xr)" height="30.2969" style="stroke:#A80036;stroke-width:1.5;" width="109" x="1173" y="69.2969"/><text fill="#000000" font-family="sans-serif" font-size="14" lengthAdjust="spacing" textLength="95" x="1180" y="89.292">SP Debtor API</text><rect fill="#FEFECE" filter="url(#fq4nqta7sa8xr)" height="30.2969" style="stroke:#A80036;stroke-width:1.5;" width="109" x="1173" y="1112.5313"/><text fill="#000000" font-family="sans-serif" font-size="14" lengthAdjust="spacing" textLength="95" x="1180" y="1132.5264">SP Debtor API</text><rect fill="#FFFFFF" filter="url(#fq4nqta7sa8xr)" height="962.8047" style="stroke:#A80036;stroke-width:1.0;" width="10" x="366.5" y="140.7266"/><rect fill="#FFFFFF" filter="url(#fq4nqta7sa8xr)" height="793.4688" style="stroke:#A80036;stroke-width:1.0;" width="10" x="557.5" y="246.125"/><rect fill="#FFFFFF" filter="url(#fq4nqta7sa8xr)" height="759.3359" style="stroke:#A80036;stroke-width:1.0;" width="10" x="764.5" y="280.2578"/><rect fill="#FFFFFF" filter="url(#fq4nqta7sa8xr)" height="462.3359" style="stroke:#A80036;stroke-width:1.0;" width="10" x="1224.5" y="468.0547"/><polygon fill="#A80036" points="354.5,136.7266,364.5,140.7266,354.5,144.7266,358.5,140.7266" style="stroke:#A80036;stroke-width:1.0;"/><line style="stroke:#A80036;stroke-width:1.0;" x1="204" x2="360.5" y1="140.7266" y2="140.7266"/><text fill="#000000" font-family="sans-serif" font-size="13" lengthAdjust="spacing" textLength="103" x="211" y="135.6606">Queue Message</text><path d="M5,119.5938 L5,144.5938 L195,144.5938 L195,129.5938 L185,119.5938 L5,119.5938 " fill="#FBFB77" filter="url(#fq4nqta7sa8xr)" style="stroke:#A80036;stroke-width:1.0;"/><path d="M185,119.5938 L185,129.5938 L195,129.5938 L185,119.5938 " fill="#FBFB77" style="stroke:#A80036;stroke-width:1.0;"/><text fill="#000000" font-family="sans-serif" font-size="13" lengthAdjust="spacing" textLength="169" x="11" y="136.6606">Cancel RTP data from GDP</text><line style="stroke:#A80036;stroke-width:1.0;" x1="376.5" x2="418.5" y1="174.8594" y2="174.8594"/><line style="stroke:#A80036;stroke-width:1.0;" x1="418.5" x2="418.5" y1="174.8594" y2="187.8594"/><line style="stroke:#A80036;stroke-width:1.0;" x1="377.5" x2="418.5" y1="187.8594" y2="187.8594"/><polygon fill="#A80036" points="387.5,183.8594,377.5,187.8594,387.5,191.8594,383.5,187.8594" style="stroke:#A80036;stroke-width:1.0;"/><text fill="#000000" font-family="sans-serif" font-size="13" lengthAdjust="spacing" textLength="167" x="383.5" y="169.7935">Check message operation</text><path d="M562,160.2266 L562,185.2266 L732,185.2266 L732,170.2266 L722,160.2266 L562,160.2266 " fill="#FBFB77" filter="url(#fq4nqta7sa8xr)" style="stroke:#A80036;stroke-width:1.0;"/><path d="M722,160.2266 L722,170.2266 L732,170.2266 L722,160.2266 " fill="#FBFB77" style="stroke:#A80036;stroke-width:1.0;"/><text fill="#000000" font-family="sans-serif" font-size="13" lengthAdjust="spacing" textLength="149" x="568" y="177.2935">Validate operation type</text><path d="M273,202.8594 L337,202.8594 L337,209.9922 L327,219.9922 L273,219.9922 L273,202.8594 " fill="#EEEEEE" style="stroke:#000000;stroke-width:1.0;"/><rect fill="none" height="893.6719" style="stroke:#000000;stroke-width:2.0;" width="1263.5" x="273" y="202.8594"/><text fill="#000000" font-family="sans-serif" font-size="13" font-weight="bold" lengthAdjust="spacing" textLength="19" x="288" y="215.9263">alt</text><text fill="#000000" font-family="sans-serif" font-size="11" font-weight="bold" lengthAdjust="spacing" textLength="254" x="352" y="215.0698">[message is DELETE/CANCEL operation]</text><polygon fill="#A80036" points="545.5,242.125,555.5,246.125,545.5,250.125,549.5,246.125" style="stroke:#A80036;stroke-width:1.0;"/><line style="stroke:#A80036;stroke-width:1.0;" x1="376.5" x2="551.5" y1="246.125" y2="246.125"/><text fill="#000000" font-family="sans-serif" font-size="13" lengthAdjust="spacing" textLength="101" x="383.5" y="241.0591">cancelRtp(rtpId)</text><path d="M572,224.9922 L572,249.9922 L768,249.9922 L768,234.9922 L758,224.9922 L572,224.9922 " fill="#FBFB77" filter="url(#fq4nqta7sa8xr)" style="stroke:#A80036;stroke-width:1.0;"/><path d="M758,224.9922 L758,234.9922 L768,234.9922 L758,224.9922 " fill="#FBFB77" style="stroke:#A80036;stroke-width:1.0;"/><text fill="#000000" font-family="sans-serif" font-size="13" lengthAdjust="spacing" textLength="175" x="578" y="242.0591">Extract rtpId from message</text><polygon fill="#A80036" points="752.5,276.2578,762.5,280.2578,752.5,284.2578,756.5,280.2578" style="stroke:#A80036;stroke-width:1.0;"/><line style="stroke:#A80036;stroke-width:1.0;" x1="567.5" x2="758.5" y1="280.2578" y2="280.2578"/><text fill="#000000" font-family="sans-serif" font-size="13" lengthAdjust="spacing" textLength="110" x="574.5" y="275.1919">findRtpById(rtpId)</text><path d="M283,295.2578 L347,295.2578 L347,302.3906 L337,312.3906 L283,312.3906 L283,295.2578 " fill="#EEEEEE" style="stroke:#000000;stroke-width:1.0;"/><rect fill="none" height="737.3359" style="stroke:#000000;stroke-width:2.0;" width="1243.5" x="283" y="295.2578"/><text fill="#000000" font-family="sans-serif" font-size="13" font-weight="bold" lengthAdjust="spacing" textLength="19" x="298" y="308.3247">alt</text><text fill="#000000" font-family="sans-serif" font-size="11" font-weight="bold" lengthAdjust="spacing" textLength="76" x="362" y="307.4683">[RTP exists]</text><polygon fill="#A80036" points="578.5,329.5234,568.5,333.5234,578.5,337.5234,574.5,333.5234" style="stroke:#A80036;stroke-width:1.0;"/><line style="stroke:#A80036;stroke-width:1.0;stroke-dasharray:2.0,2.0;" x1="572.5" x2="763.5" y1="333.5234" y2="333.5234"/><text fill="#000000" font-family="sans-serif" font-size="13" lengthAdjust="spacing" textLength="66" x="584.5" y="328.4575">return RTP</text><line style="stroke:#A80036;stroke-width:1.0;" x1="567.5" x2="609.5" y1="362.6563" y2="362.6563"/><line style="stroke:#A80036;stroke-width:1.0;" x1="609.5" x2="609.5" y1="362.6563" y2="375.6563"/><line style="stroke:#A80036;stroke-width:1.0;" x1="568.5" x2="609.5" y1="375.6563" y2="375.6563"/><polygon fill="#A80036" points="578.5,371.6563,568.5,375.6563,578.5,379.6563,574.5,375.6563" style="stroke:#A80036;stroke-width:1.0;"/><text fill="#000000" font-family="sans-serif" font-size="13" lengthAdjust="spacing" textLength="147" x="574.5" y="357.5903">setStatus("RFC_SENT")</text><path d="M733,348.0234 L733,373.0234 L940,373.0234 L940,358.0234 L930,348.0234 L733,348.0234 " fill="#FBFB77" filter="url(#fq4nqta7sa8xr)" style="stroke:#A80036;stroke-width:1.0;"/><path d="M930,348.0234 L930,358.0234 L940,358.0234 L930,348.0234 " fill="#FBFB77" style="stroke:#A80036;stroke-width:1.0;"/><text fill="#000000" font-family="sans-serif" font-size="13" lengthAdjust="spacing" textLength="186" x="739" y="365.0903">Cancellation request initiated</text><polygon fill="#A80036" points="752.5,400.7891,762.5,404.7891,752.5,408.7891,756.5,404.7891" style="stroke:#A80036;stroke-width:1.0;"/><line style="stroke:#A80036;stroke-width:1.0;" x1="567.5" x2="758.5" y1="404.7891" y2="404.7891"/><text fill="#000000" font-family="sans-serif" font-size="13" lengthAdjust="spacing" textLength="79" x="574.5" y="399.7231">saveRtp(rtp)</text><polygon fill="#A80036" points="578.5,429.9219,568.5,433.9219,578.5,437.9219,574.5,433.9219" style="stroke:#A80036;stroke-width:1.0;"/><line style="stroke:#A80036;stroke-width:1.0;stroke-dasharray:2.0,2.0;" x1="572.5" x2="763.5" y1="433.9219" y2="433.9219"/><text fill="#000000" font-family="sans-serif" font-size="13" lengthAdjust="spacing" textLength="112" x="584.5" y="428.856">saveConfirmation</text><polygon fill="#A80036" points="1212.5,464.0547,1222.5,468.0547,1212.5,472.0547,1216.5,468.0547" style="stroke:#A80036;stroke-width:1.0;"/><line style="stroke:#A80036;stroke-width:1.0;" x1="567.5" x2="1218.5" y1="468.0547" y2="468.0547"/><text fill="#000000" font-family="sans-serif" font-size="13" lengthAdjust="spacing" textLength="638" x="574.5" y="462.9888">POST /sepa-request-to-pay-requests/{sepaRequestToPayRequestResourceId}/cancellation-requests</text><path d="M1239,446.9219 L1239,471.9219 L1512,471.9219 L1512,456.9219 L1502,446.9219 L1239,446.9219 " fill="#FBFB77" filter="url(#fq4nqta7sa8xr)" style="stroke:#A80036;stroke-width:1.0;"/><path d="M1502,446.9219 L1502,456.9219 L1512,456.9219 L1502,446.9219 " fill="#FBFB77" style="stroke:#A80036;stroke-width:1.0;"/><text fill="#000000" font-family="sans-serif" font-size="13" lengthAdjust="spacing" textLength="252" x="1245" y="463.9888">Send cancellation request to SP Debtor</text><path d="M502.5,488.0547 L566.5,488.0547 L566.5,495.1875 L556.5,505.1875 L502.5,505.1875 L502.5,488.0547 " fill="#EEEEEE" style="stroke:#000000;stroke-width:1.0;"/><rect fill="none" height="435.3359" style="stroke:#000000;stroke-width:2.0;" width="793.5" x="502.5" y="488.0547"/><text fill="#000000" font-family="sans-serif" font-size="13" font-weight="bold" lengthAdjust="spacing" textLength="19" x="517.5" y="501.1216">alt</text><text fill="#000000" font-family="sans-serif" font-size="11" font-weight="bold" lengthAdjust="spacing" textLength="108" x="581.5" y="500.2651">[Async flow EPC]</text><polygon fill="#A80036" points="578.5,522.3203,568.5,526.3203,578.5,530.3203,574.5,526.3203" style="stroke:#A80036;stroke-width:1.0;"/><line style="stroke:#A80036;stroke-width:1.0;stroke-dasharray:2.0,2.0;" x1="572.5" x2="1223.5" y1="526.3203" y2="526.3203"/><text fill="#000000" font-family="sans-serif" font-size="13" lengthAdjust="spacing" textLength="99" x="584.5" y="521.2544">OK empty Body</text><line style="stroke:#A80036;stroke-width:1.0;" x1="567.5" x2="609.5" y1="555.4531" y2="555.4531"/><line style="stroke:#A80036;stroke-width:1.0;" x1="609.5" x2="609.5" y1="555.4531" y2="568.4531"/><line style="stroke:#A80036;stroke-width:1.0;" x1="568.5" x2="609.5" y1="568.4531" y2="568.4531"/><polygon fill="#A80036" points="578.5,564.4531,568.5,568.4531,578.5,572.4531,574.5,568.4531" style="stroke:#A80036;stroke-width:1.0;"/><text fill="#000000" font-family="sans-serif" font-size="13" lengthAdjust="spacing" textLength="147" x="574.5" y="550.3872">setStatus("RFC_SENT")</text><polygon fill="#A80036" points="752.5,593.5859,762.5,597.5859,752.5,601.5859,756.5,597.5859" style="stroke:#A80036;stroke-width:1.0;"/><line style="stroke:#A80036;stroke-width:1.0;" x1="567.5" x2="758.5" y1="597.5859" y2="597.5859"/><text fill="#000000" font-family="sans-serif" font-size="13" lengthAdjust="spacing" textLength="79" x="574.5" y="592.52">saveRtp(rtp)</text><polygon fill="#A80036" points="578.5,622.7188,568.5,626.7188,578.5,630.7188,574.5,626.7188" style="stroke:#A80036;stroke-width:1.0;"/><line style="stroke:#A80036;stroke-width:1.0;stroke-dasharray:2.0,2.0;" x1="572.5" x2="763.5" y1="626.7188" y2="626.7188"/><text fill="#000000" font-family="sans-serif" font-size="13" lengthAdjust="spacing" textLength="112" x="584.5" y="621.6528">saveConfirmation</text><line style="stroke:#000000;stroke-width:1.0;stroke-dasharray:2.0,2.0;" x1="502.5" x2="1296" y1="635.7188" y2="635.7188"/><text fill="#000000" font-family="sans-serif" font-size="11" font-weight="bold" lengthAdjust="spacing" textLength="101" x="507.5" y="645.9292">[Sync flow EPC]</text><polygon fill="#A80036" points="578.5,666.6563,568.5,670.6563,578.5,674.6563,574.5,670.6563" style="stroke:#A80036;stroke-width:1.0;"/><line style="stroke:#A80036;stroke-width:1.0;stroke-dasharray:2.0,2.0;" x1="572.5" x2="1223.5" y1="670.6563" y2="670.6563"/><text fill="#000000" font-family="sans-serif" font-size="13" lengthAdjust="spacing" textLength="72" x="584.5" y="665.5903">OK payload</text><line style="stroke:#A80036;stroke-width:1.0;" x1="567.5" x2="609.5" y1="699.7891" y2="699.7891"/><line style="stroke:#A80036;stroke-width:1.0;" x1="609.5" x2="609.5" y1="699.7891" y2="712.7891"/><line style="stroke:#A80036;stroke-width:1.0;" x1="568.5" x2="609.5" y1="712.7891" y2="712.7891"/><polygon fill="#A80036" points="578.5,708.7891,568.5,712.7891,578.5,716.7891,574.5,712.7891" style="stroke:#A80036;stroke-width:1.0;"/><text fill="#000000" font-family="sans-serif" font-size="13" lengthAdjust="spacing" textLength="159" x="574.5" y="694.7231">setStatus("CANCELLED")</text><polygon fill="#A80036" points="752.5,737.9219,762.5,741.9219,752.5,745.9219,756.5,741.9219" style="stroke:#A80036;stroke-width:1.0;"/><line style="stroke:#A80036;stroke-width:1.0;" x1="567.5" x2="758.5" y1="741.9219" y2="741.9219"/><text fill="#000000" font-family="sans-serif" font-size="13" lengthAdjust="spacing" textLength="79" x="574.5" y="736.856">saveRtp(rtp)</text><polygon fill="#A80036" points="578.5,767.0547,568.5,771.0547,578.5,775.0547,574.5,771.0547" style="stroke:#A80036;stroke-width:1.0;"/><line style="stroke:#A80036;stroke-width:1.0;stroke-dasharray:2.0,2.0;" x1="572.5" x2="763.5" y1="771.0547" y2="771.0547"/><text fill="#000000" font-family="sans-serif" font-size="13" lengthAdjust="spacing" textLength="112" x="584.5" y="765.9888">saveConfirmation</text><line style="stroke:#000000;stroke-width:1.0;stroke-dasharray:2.0,2.0;" x1="502.5" x2="1296" y1="780.0547" y2="780.0547"/><text fill="#000000" font-family="sans-serif" font-size="11" font-weight="bold" lengthAdjust="spacing" textLength="141" x="507.5" y="790.2651">[Error Sync Response]</text><polygon fill="#A80036" points="578.5,810.9922,568.5,814.9922,578.5,818.9922,574.5,814.9922" style="stroke:#A80036;stroke-width:1.0;"/><line style="stroke:#A80036;stroke-width:1.0;stroke-dasharray:2.0,2.0;" x1="572.5" x2="1223.5" y1="814.9922" y2="814.9922"/><text fill="#000000" font-family="sans-serif" font-size="13" lengthAdjust="spacing" textLength="94" x="584.5" y="809.9263">Error response</text><line style="stroke:#A80036;stroke-width:1.0;" x1="567.5" x2="609.5" y1="844.125" y2="844.125"/><line style="stroke:#A80036;stroke-width:1.0;" x1="609.5" x2="609.5" y1="844.125" y2="857.125"/><line style="stroke:#A80036;stroke-width:1.0;" x1="568.5" x2="609.5" y1="857.125" y2="857.125"/><polygon fill="#A80036" points="578.5,853.125,568.5,857.125,578.5,861.125,574.5,857.125" style="stroke:#A80036;stroke-width:1.0;"/><text fill="#000000" font-family="sans-serif" font-size="13" lengthAdjust="spacing" textLength="183" x="574.5" y="839.0591">setStatus("ERROR_CANCEL")</text><polygon fill="#A80036" points="752.5,882.2578,762.5,886.2578,752.5,890.2578,756.5,886.2578" style="stroke:#A80036;stroke-width:1.0;"/><line style="stroke:#A80036;stroke-width:1.0;" x1="567.5" x2="758.5" y1="886.2578" y2="886.2578"/><text fill="#000000" font-family="sans-serif" font-size="13" lengthAdjust="spacing" textLength="79" x="574.5" y="881.1919">saveRtp(rtp)</text><polygon fill="#A80036" points="578.5,911.3906,568.5,915.3906,578.5,919.3906,574.5,915.3906" style="stroke:#A80036;stroke-width:1.0;"/><line style="stroke:#A80036;stroke-width:1.0;stroke-dasharray:2.0,2.0;" x1="572.5" x2="763.5" y1="915.3906" y2="915.3906"/><text fill="#000000" font-family="sans-serif" font-size="13" lengthAdjust="spacing" textLength="112" x="584.5" y="910.3247">saveConfirmation</text><polygon fill="#A80036" points="387.5,947.5234,377.5,951.5234,387.5,955.5234,383.5,951.5234" style="stroke:#A80036;stroke-width:1.0;"/><line style="stroke:#A80036;stroke-width:1.0;stroke-dasharray:2.0,2.0;" x1="381.5" x2="556.5" y1="951.5234" y2="951.5234"/><text fill="#000000" font-family="sans-serif" font-size="13" lengthAdjust="spacing" textLength="148" x="393.5" y="946.4575">Cancellation processed</text><line style="stroke:#000000;stroke-width:1.0;stroke-dasharray:2.0,2.0;" x1="283" x2="1526.5" y1="960.5234" y2="960.5234"/><text fill="#000000" font-family="sans-serif" font-size="11" font-weight="bold" lengthAdjust="spacing" textLength="100" x="288" y="970.7339">[RTP not found]</text><polygon fill="#A80036" points="578.5,991.4609,568.5,995.4609,578.5,999.4609,574.5,995.4609" style="stroke:#A80036;stroke-width:1.0;"/><line style="stroke:#A80036;stroke-width:1.0;stroke-dasharray:2.0,2.0;" x1="572.5" x2="763.5" y1="995.4609" y2="995.4609"/><text fill="#000000" font-family="sans-serif" font-size="13" lengthAdjust="spacing" textLength="65" x="584.5" y="990.395">return null</text><polygon fill="#A80036" points="387.5,1020.5938,377.5,1024.5938,387.5,1028.5938,383.5,1024.5938" style="stroke:#A80036;stroke-width:1.0;"/><line style="stroke:#A80036;stroke-width:1.0;stroke-dasharray:2.0,2.0;" x1="381.5" x2="556.5" y1="1024.5938" y2="1024.5938"/><text fill="#000000" font-family="sans-serif" font-size="13" lengthAdjust="spacing" textLength="88" x="393.5" y="1019.5278">RTP not found</text><line style="stroke:#000000;stroke-width:1.0;stroke-dasharray:2.0,2.0;" x1="273" x2="1536.5" y1="1040.5938" y2="1040.5938"/><text fill="#000000" font-family="sans-serif" font-size="11" font-weight="bold" lengthAdjust="spacing" textLength="279" x="278" y="1050.8042">[message is not DELETE/CANCEL operation]</text><line style="stroke:#A80036;stroke-width:1.0;" x1="376.5" x2="418.5" y1="1075.5313" y2="1075.5313"/><line style="stroke:#A80036;stroke-width:1.0;" x1="418.5" x2="418.5" y1="1075.5313" y2="1088.5313"/><line style="stroke:#A80036;stroke-width:1.0;" x1="377.5" x2="418.5" y1="1088.5313" y2="1088.5313"/><polygon fill="#A80036" points="387.5,1084.5313,377.5,1088.5313,387.5,1092.5313,383.5,1088.5313" style="stroke:#A80036;stroke-width:1.0;"/><text fill="#000000" font-family="sans-serif" font-size="13" lengthAdjust="spacing" textLength="100" x="383.5" y="1070.4653">Skip processing</text><path d="M495,1060.8984 L495,1085.8984 L668,1085.8984 L668,1070.8984 L658,1060.8984 L495,1060.8984 " fill="#FBFB77" filter="url(#fq4nqta7sa8xr)" style="stroke:#A80036;stroke-width:1.0;"/><path d="M658,1060.8984 L658,1070.8984 L668,1070.8984 L658,1060.8984 " fill="#FBFB77" style="stroke:#A80036;stroke-width:1.0;"/><text fill="#000000" font-family="sans-serif" font-size="13" lengthAdjust="spacing" textLength="152" x="501" y="1077.9653">Different operation type</text><!--SRC=[jLLDRzim3BtxLn0vjOSWznm6DB5N1EjQpmvsBLIRJeKwaYVHMOrX_ttwicEdMP4UceCZMIJVUoH5wnSkG4cD4N6g4TPC55X3jaqXLR90hU706QHi9rC6jt4AFrfiCVfbdp0xVJy3feD5mnJnWZTC4Co-cq1iPy9BeTizAcVNRwQc5Zf7TU25ZnRMKSc8FJ6D4FSBSnYlfivv2Z4-aLHmaswyUngRPHGvKZ3_Cg0kFKy8r28X2Q76YfRZ95XKg9JSMuqHAuWV61rrHFrY6ddzZCKBx8DesQ1YnANm68hldWt8JrRpqiOQZe6w1YDMq-39ZSBaBjacY_ND_Jgv6uKQ0uSKBQ5mn3DghXGrc_9w0fYyaZ82m1rvJG7dgAjFTlYtmUFL4YekIXDrrMtAFlBWOafWATjauIlNf2CmltW5yp4pXTGgOQtSiNkCG0OxZPGJerPVpRAlwySykT_EhftrM8elKEspfj0qeoRWWXCtZChJu5Q1PWSCURa-Iz0Qc9nMNErzWi_ITCsqXFGXty92OyFc0NrESjwmhj_gnHzxcldTrjoHBgmprB9L1MxAlujY96FmV2CsHr52SKunIHWQthaTw-YxVj1WAtIZEr50LSlVaAHhzzh9SwRJP3ny0zmtrC5AbjtHyaFrkgG85nS2QtFVyu_mDyMe9Iil9U_lrrqIVnhxH2apbfm6qmEDkRxuhWPlhzwOlgyZoRA7xD6h-HGfeZnsLOdd6cx0cex4SGCt_jCIhchaycC7Y6bxg6GRCFupGqHRr-y0JUDOlYEQPbYDIOTfv_17CzUwNp9tZw3v2szwLLpi9dCtvbM52itdwMJIdt3he_q3]--></g></svg>