<?xml version="1.0" encoding="us-ascii" standalone="no"?><svg xmlns="http://www.w3.org/2000/svg" xmlns:xlink="http://www.w3.org/1999/xlink" contentStyleType="text/css" height="1159px" preserveAspectRatio="none" style="width:1550px;height:1159px;background:#FFFFFF;" version="1.1" viewBox="0 0 1550 1159" width="1550px" zoomAndPan="magnify"><defs><filter height="300%" id="fvu3nriblavz9" width="300%" x="-1" y="-1"><feGaussianBlur result="blurOut" stdDeviation="2.0"/><feColorMatrix in="blurOut" result="blurOut2" type="matrix" values="0 0 0 0 0 0 0 0 0 0 0 0 0 0 0 0 0 0 .4 0"/><feOffset dx="4.0" dy="4.0" in="blurOut2" result="blurOut3"/><feBlend in="SourceGraphic" in2="blurOut3" mode="normal"/></filter></defs><g><text fill="#000000" font-family="sans-serif" font-size="14" font-weight="bold" lengthAdjust="spacing" textLength="342" x="601.75" y="27.9951">Cancel RTP Process via PagoPa GDP Queue</text><rect fill="#FFFFFF" filter="url(#fvu3nriblavz9)" height="930.6719" style="stroke:#A80036;stroke-width:1.0;" width="10" x="366.5" y="140.7266"/><rect fill="#FFFFFF" filter="url(#fvu3nriblavz9)" height="761.3359" style="stroke:#A80036;stroke-width:1.0;" width="10" x="557.5" y="246.125"/><rect fill="#FFFFFF" filter="url(#fvu3nriblavz9)" height="727.2031" style="stroke:#A80036;stroke-width:1.0;" width="10" x="764.5" y="280.2578"/><rect fill="#FFFFFF" filter="url(#fvu3nriblavz9)" height="462.3359" style="stroke:#A80036;stroke-width:1.0;" width="10" x="1224.5" y="435.9219"/><rect fill="none" filter="url(#fvu3nriblavz9)" height="861.5391" style="stroke:#000000;stroke-width:2.0;" width="1263.5" x="273" y="202.8594"/><rect fill="none" filter="url(#fvu3nriblavz9)" height="705.2031" style="stroke:#000000;stroke-width:2.0;" width="1243.5" x="283" y="295.2578"/><rect fill="none" filter="url(#fvu3nriblavz9)" height="435.3359" style="stroke:#000000;stroke-width:2.0;" width="793.5" x="502.5" y="455.9219"/><line style="stroke:#A80036;stroke-width:1.0;stroke-dasharray:5.0,5.0;" x1="204" x2="204" y1="104.5938" y2="1081.3984"/><line style="stroke:#A80036;stroke-width:1.0;stroke-dasharray:5.0,5.0;" x1="371" x2="371" y1="104.5938" y2="1081.3984"/><line style="stroke:#A80036;stroke-width:1.0;stroke-dasharray:5.0,5.0;" x1="562.5" x2="562.5" y1="104.5938" y2="1081.3984"/><line style="stroke:#A80036;stroke-width:1.0;stroke-dasharray:5.0,5.0;" x1="769.5" x2="769.5" y1="104.5938" y2="1081.3984"/><line style="stroke:#A80036;stroke-width:1.0;stroke-dasharray:5.0,5.0;" x1="1229" x2="1229" y1="104.5938" y2="1081.3984"/><path d="M130,78.2969 L278,78.2969 C283,78.2969 283,91.4453 283,91.4453 C283,91.4453 283,104.5938 278,104.5938 L130,104.5938 C125,104.5938 125,91.4453 125,91.4453 C125,91.4453 125,78.2969 130,78.2969 " fill="#FEFECE" filter="url(#fvu3nriblavz9)" style="stroke:#A80036;stroke-width:2.0;"/><path d="M278,78.2969 C273,78.2969 273,91.4453 273,91.4453 C273,104.5938 278,104.5938 278,104.5938 " fill="none" style="stroke:#A80036;stroke-width:2.0;"/><text fill="#000000" font-family="sans-serif" font-size="14" lengthAdjust="spacing" textLength="138" x="130" y="96.292">PagoPa GDP Queue</text><path d="M130,1080.3984 L278,1080.3984 C283,1080.3984 283,1093.5469 283,1093.5469 C283,1093.5469 283,1106.6953 278,1106.6953 L130,1106.6953 C125,1106.6953 125,1093.5469 125,1093.5469 C125,1093.5469 125,1080.3984 130,1080.3984 " fill="#FEFECE" filter="url(#fvu3nriblavz9)" style="stroke:#A80036;stroke-width:2.0;"/><path d="M278,1080.3984 C273,1080.3984 273,1093.5469 273,1093.5469 C273,1106.6953 278,1106.6953 278,1106.6953 " fill="none" style="stroke:#A80036;stroke-width:2.0;"/><text fill="#000000" font-family="sans-serif" font-size="14" lengthAdjust="spacing" textLength="138" x="130" y="1098.3936">PagoPa GDP Queue</text><rect fill="#FEFECE" filter="url(#fvu3nriblavz9)" height="30.2969" style="stroke:#A80036;stroke-width:1.5;" width="153" x="293" y="69.2969"/><text fill="#000000" font-family="sans-serif" font-size="14" lengthAdjust="spacing" textLength="139" x="300" y="89.292">Message Consumer</text><rect fill="#FEFECE" filter="url(#fvu3nriblavz9)" height="30.2969" style="stroke:#A80036;stroke-width:1.5;" width="153" x="293" y="1080.3984"/><text fill="#000000" font-family="sans-serif" font-size="14" lengthAdjust="spacing" textLength="139" x="300" y="1100.3936">Message Consumer</text><rect fill="#FEFECE" filter="url(#fvu3nriblavz9)" height="30.2969" style="stroke:#A80036;stroke-width:1.5;" width="96" x="512.5" y="69.2969"/><text fill="#000000" font-family="sans-serif" font-size="14" lengthAdjust="spacing" textLength="82" x="519.5" y="89.292">RTP Service</text><rect fill="#FEFECE" filter="url(#fvu3nriblavz9)" height="30.2969" style="stroke:#A80036;stroke-width:1.5;" width="96" x="512.5" y="1080.3984"/><text fill="#000000" font-family="sans-serif" font-size="14" lengthAdjust="spacing" textLength="82" x="519.5" y="1100.3936">RTP Service</text><text fill="#000000" font-family="sans-serif" font-size="14" lengthAdjust="spacing" textLength="66" x="733.5" y="101.292">Database</text><path d="M751.5,52.2969 C751.5,42.2969 769.5,42.2969 769.5,42.2969 C769.5,42.2969 787.5,42.2969 787.5,52.2969 L787.5,78.2969 C787.5,88.2969 769.5,88.2969 769.5,88.2969 C769.5,88.2969 751.5,88.2969 751.5,78.2969 L751.5,52.2969 " fill="#FEFECE" filter="url(#fvu3nriblavz9)" style="stroke:#A80036;stroke-width:1.5;"/><path d="M751.5,52.2969 C751.5,62.2969 769.5,62.2969 769.5,62.2969 C769.5,62.2969 787.5,62.2969 787.5,52.2969 " fill="none" style="stroke:#A80036;stroke-width:1.5;"/><text fill="#000000" font-family="sans-serif" font-size="14" lengthAdjust="spacing" textLength="66" x="733.5" y="1093.3936">Database</text><path d="M751.5,1106.6953 C751.5,1096.6953 769.5,1096.6953 769.5,1096.6953 C769.5,1096.6953 787.5,1096.6953 787.5,1106.6953 L787.5,1132.6953 C787.5,1142.6953 769.5,1142.6953 769.5,1142.6953 C769.5,1142.6953 751.5,1142.6953 751.5,1132.6953 L751.5,1106.6953 " fill="#FEFECE" filter="url(#fvu3nriblavz9)" style="stroke:#A80036;stroke-width:1.5;"/><path d="M751.5,1106.6953 C751.5,1116.6953 769.5,1116.6953 769.5,1116.6953 C769.5,1116.6953 787.5,1116.6953 787.5,1106.6953 " fill="none" style="stroke:#A80036;stroke-width:1.5;"/><rect fill="#FEFECE" filter="url(#fvu3nriblavz9)" height="30.2969" style="stroke:#A80036;stroke-width:1.5;" width="109" x="1173" y="69.2969"/><text fill="#000000" font-family="sans-serif" font-size="14" lengthAdjust="spacing" textLength="95" x="1180" y="89.292">SP Debtor API</text><rect fill="#FEFECE" filter="url(#fvu3nriblavz9)" height="30.2969" style="stroke:#A80036;stroke-width:1.5;" width="109" x="1173" y="1080.3984"/><text fill="#000000" font-family="sans-serif" font-size="14" lengthAdjust="spacing" textLength="95" x="1180" y="1100.3936">SP Debtor API</text><rect fill="#FFFFFF" filter="url(#fvu3nriblavz9)" height="930.6719" style="stroke:#A80036;stroke-width:1.0;" width="10" x="366.5" y="140.7266"/><rect fill="#FFFFFF" filter="url(#fvu3nriblavz9)" height="761.3359" style="stroke:#A80036;stroke-width:1.0;" width="10" x="557.5" y="246.125"/><rect fill="#FFFFFF" filter="url(#fvu3nriblavz9)" height="727.2031" style="stroke:#A80036;stroke-width:1.0;" width="10" x="764.5" y="280.2578"/><rect fill="#FFFFFF" filter="url(#fvu3nriblavz9)" height="462.3359" style="stroke:#A80036;stroke-width:1.0;" width="10" x="1224.5" y="435.9219"/><polygon fill="#A80036" points="354.5,136.7266,364.5,140.7266,354.5,144.7266,358.5,140.7266" style="stroke:#A80036;stroke-width:1.0;"/><line style="stroke:#A80036;stroke-width:1.0;" x1="204" x2="360.5" y1="140.7266" y2="140.7266"/><text fill="#000000" font-family="sans-serif" font-size="13" lengthAdjust="spacing" textLength="103" x="211" y="135.6606">Queue Message</text><path d="M5,119.5938 L5,144.5938 L195,144.5938 L195,129.5938 L185,119.5938 L5,119.5938 " fill="#FBFB77" filter="url(#fvu3nriblavz9)" style="stroke:#A80036;stroke-width:1.0;"/><path d="M185,119.5938 L185,129.5938 L195,129.5938 L185,119.5938 " fill="#FBFB77" style="stroke:#A80036;stroke-width:1.0;"/><text fill="#000000" font-family="sans-serif" font-size="13" lengthAdjust="spacing" textLength="169" x="11" y="136.6606">Cancel RTP data from GDP</text><line style="stroke:#A80036;stroke-width:1.0;" x1="376.5" x2="418.5" y1="174.8594" y2="174.8594"/><line style="stroke:#A80036;stroke-width:1.0;" x1="418.5" x2="418.5" y1="174.8594" y2="187.8594"/><line style="stroke:#A80036;stroke-width:1.0;" x1="377.5" x2="418.5" y1="187.8594" y2="187.8594"/><polygon fill="#A80036" points="387.5,183.8594,377.5,187.8594,387.5,191.8594,383.5,187.8594" style="stroke:#A80036;stroke-width:1.0;"/><text fill="#000000" font-family="sans-serif" font-size="13" lengthAdjust="spacing" textLength="167" x="383.5" y="169.7935">Check message operation</text><path d="M562,160.2266 L562,185.2266 L732,185.2266 L732,170.2266 L722,160.2266 L562,160.2266 " fill="#FBFB77" filter="url(#fvu3nriblavz9)" style="stroke:#A80036;stroke-width:1.0;"/><path d="M722,160.2266 L722,170.2266 L732,170.2266 L722,160.2266 " fill="#FBFB77" style="stroke:#A80036;stroke-width:1.0;"/><text fill="#000000" font-family="sans-serif" font-size="13" lengthAdjust="spacing" textLength="149" x="568" y="177.2935">Validate operation type</text><path d="M273,202.8594 L337,202.8594 L337,209.9922 L327,219.9922 L273,219.9922 L273,202.8594 " fill="#EEEEEE" style="stroke:#000000;stroke-width:1.0;"/><rect fill="none" height="861.5391" style="stroke:#000000;stroke-width:2.0;" width="1263.5" x="273" y="202.8594"/><text fill="#000000" font-family="sans-serif" font-size="13" font-weight="bold" lengthAdjust="spacing" textLength="19" x="288" y="215.9263">alt</text><text fill="#000000" font-family="sans-serif" font-size="11" font-weight="bold" lengthAdjust="spacing" textLength="254" x="352" y="215.0698">[message is DELETE/CANCEL operation]</text><polygon fill="#A80036" points="545.5,242.125,555.5,246.125,545.5,250.125,549.5,246.125" style="stroke:#A80036;stroke-width:1.0;"/><line style="stroke:#A80036;stroke-width:1.0;" x1="376.5" x2="551.5" y1="246.125" y2="246.125"/><text fill="#000000" font-family="sans-serif" font-size="13" lengthAdjust="spacing" textLength="101" x="383.5" y="241.0591">cancelRtp(rtpId)</text><path d="M572,224.9922 L572,249.9922 L768,249.9922 L768,234.9922 L758,224.9922 L572,224.9922 " fill="#FBFB77" filter="url(#fvu3nriblavz9)" style="stroke:#A80036;stroke-width:1.0;"/><path d="M758,224.9922 L758,234.9922 L768,234.9922 L758,224.9922 " fill="#FBFB77" style="stroke:#A80036;stroke-width:1.0;"/><text fill="#000000" font-family="sans-serif" font-size="13" lengthAdjust="spacing" textLength="175" x="578" y="242.0591">Extract rtpId from message</text><polygon fill="#A80036" points="752.5,276.2578,762.5,280.2578,752.5,284.2578,756.5,280.2578" style="stroke:#A80036;stroke-width:1.0;"/><line style="stroke:#A80036;stroke-width:1.0;" x1="567.5" x2="758.5" y1="280.2578" y2="280.2578"/><text fill="#000000" font-family="sans-serif" font-size="13" lengthAdjust="spacing" textLength="110" x="574.5" y="275.1919">findRtpById(rtpId)</text><path d="M283,295.2578 L347,295.2578 L347,302.3906 L337,312.3906 L283,312.3906 L283,295.2578 " fill="#EEEEEE" style="stroke:#000000;stroke-width:1.0;"/><rect fill="none" height="705.2031" style="stroke:#000000;stroke-width:2.0;" width="1243.5" x="283" y="295.2578"/><text fill="#000000" font-family="sans-serif" font-size="13" font-weight="bold" lengthAdjust="spacing" textLength="19" x="298" y="308.3247">alt</text><text fill="#000000" font-family="sans-serif" font-size="11" font-weight="bold" lengthAdjust="spacing" textLength="76" x="362" y="307.4683">[RTP exists]</text><polygon fill="#A80036" points="578.5,334.5234,568.5,338.5234,578.5,342.5234,574.5,338.5234" style="stroke:#A80036;stroke-width:1.0;"/><line style="stroke:#A80036;stroke-width:1.0;stroke-dasharray:2.0,2.0;" x1="572.5" x2="763.5" y1="338.5234" y2="338.5234"/><text fill="#000000" font-family="sans-serif" font-size="13" lengthAdjust="spacing" textLength="66" x="584.5" y="333.4575">return RTP</text><path d="M779,317.3906 L779,342.3906 L986,342.3906 L986,327.3906 L976,317.3906 L779,317.3906 " fill="#FBFB77" filter="url(#fvu3nriblavz9)" style="stroke:#A80036;stroke-width:1.0;"/><path d="M976,317.3906 L976,327.3906 L986,327.3906 L976,317.3906 " fill="#FBFB77" style="stroke:#A80036;stroke-width:1.0;"/><text fill="#000000" font-family="sans-serif" font-size="13" lengthAdjust="spacing" textLength="186" x="785" y="334.4575">Cancellation request initiated</text><polygon fill="#A80036" points="752.5,368.6563,762.5,372.6563,752.5,376.6563,756.5,372.6563" style="stroke:#A80036;stroke-width:1.0;"/><line style="stroke:#A80036;stroke-width:1.0;" x1="567.5" x2="758.5" y1="372.6563" y2="372.6563"/><text fill="#000000" font-family="sans-serif" font-size="13" lengthAdjust="spacing" textLength="79" x="574.5" y="367.5903">saveRtp(rtp)</text><polygon fill="#A80036" points="578.5,397.7891,568.5,401.7891,578.5,405.7891,574.5,401.7891" style="stroke:#A80036;stroke-width:1.0;"/><line style="stroke:#A80036;stroke-width:1.0;stroke-dasharray:2.0,2.0;" x1="572.5" x2="763.5" y1="401.7891" y2="401.7891"/><text fill="#000000" font-family="sans-serif" font-size="13" lengthAdjust="spacing" textLength="112" x="584.5" y="396.7231">saveConfirmation</text><polygon fill="#A80036" points="1212.5,431.9219,1222.5,435.9219,1212.5,439.9219,1216.5,435.9219" style="stroke:#A80036;stroke-width:1.0;"/><line style="stroke:#A80036;stroke-width:1.0;" x1="567.5" x2="1218.5" y1="435.9219" y2="435.9219"/><text fill="#000000" font-family="sans-serif" font-size="13" lengthAdjust="spacing" textLength="638" x="574.5" y="430.856">POST /sepa-request-to-pay-requests/{sepaRequestToPayRequestResourceId}/cancellation-requests</text><path d="M1239,414.7891 L1239,439.7891 L1512,439.7891 L1512,424.7891 L1502,414.7891 L1239,414.7891 " fill="#FBFB77" filter="url(#fvu3nriblavz9)" style="stroke:#A80036;stroke-width:1.0;"/><path d="M1502,414.7891 L1502,424.7891 L1512,424.7891 L1502,414.7891 " fill="#FBFB77" style="stroke:#A80036;stroke-width:1.0;"/><text fill="#000000" font-family="sans-serif" font-size="13" lengthAdjust="spacing" textLength="252" x="1245" y="431.856">Send cancellation request to SP Debtor</text><path d="M502.5,455.9219 L566.5,455.9219 L566.5,463.0547 L556.5,473.0547 L502.5,473.0547 L502.5,455.9219 " fill="#EEEEEE" style="stroke:#000000;stroke-width:1.0;"/><rect fill="none" height="435.3359" style="stroke:#000000;stroke-width:2.0;" width="793.5" x="502.5" y="455.9219"/><text fill="#000000" font-family="sans-serif" font-size="13" font-weight="bold" lengthAdjust="spacing" textLength="19" x="517.5" y="468.9888">alt</text><text fill="#000000" font-family="sans-serif" font-size="11" font-weight="bold" lengthAdjust="spacing" textLength="108" x="581.5" y="468.1323">[Async flow EPC]</text><polygon fill="#A80036" points="578.5,490.1875,568.5,494.1875,578.5,498.1875,574.5,494.1875" style="stroke:#A80036;stroke-width:1.0;"/><line style="stroke:#A80036;stroke-width:1.0;stroke-dasharray:2.0,2.0;" x1="572.5" x2="1223.5" y1="494.1875" y2="494.1875"/><text fill="#000000" font-family="sans-serif" font-size="13" lengthAdjust="spacing" textLength="99" x="584.5" y="489.1216">OK empty Body</text><line style="stroke:#A80036;stroke-width:1.0;" x1="567.5" x2="609.5" y1="523.3203" y2="523.3203"/><line style="stroke:#A80036;stroke-width:1.0;" x1="609.5" x2="609.5" y1="523.3203" y2="536.3203"/><line style="stroke:#A80036;stroke-width:1.0;" x1="568.5" x2="609.5" y1="536.3203" y2="536.3203"/><polygon fill="#A80036" points="578.5,532.3203,568.5,536.3203,578.5,540.3203,574.5,536.3203" style="stroke:#A80036;stroke-width:1.0;"/><text fill="#000000" font-family="sans-serif" font-size="13" lengthAdjust="spacing" textLength="147" x="574.5" y="518.2544">setStatus("RFC_SENT")</text><polygon fill="#A80036" points="752.5,561.4531,762.5,565.4531,752.5,569.4531,756.5,565.4531" style="stroke:#A80036;stroke-width:1.0;"/><line style="stroke:#A80036;stroke-width:1.0;" x1="567.5" x2="758.5" y1="565.4531" y2="565.4531"/><text fill="#000000" font-family="sans-serif" font-size="13" lengthAdjust="spacing" textLength="79" x="574.5" y="560.3872">saveRtp(rtp)</text><polygon fill="#A80036" points="578.5,590.5859,568.5,594.5859,578.5,598.5859,574.5,594.5859" style="stroke:#A80036;stroke-width:1.0;"/><line style="stroke:#A80036;stroke-width:1.0;stroke-dasharray:2.0,2.0;" x1="572.5" x2="763.5" y1="594.5859" y2="594.5859"/><text fill="#000000" font-family="sans-serif" font-size="13" lengthAdjust="spacing" textLength="112" x="584.5" y="589.52">saveConfirmation</text><line style="stroke:#000000;stroke-width:1.0;stroke-dasharray:2.0,2.0;" x1="502.5" x2="1296" y1="603.5859" y2="603.5859"/><text fill="#000000" font-family="sans-serif" font-size="11" font-weight="bold" lengthAdjust="spacing" textLength="101" x="507.5" y="613.7964">[Sync flow EPC]</text><polygon fill="#A80036" points="578.5,634.5234,568.5,638.5234,578.5,642.5234,574.5,638.5234" style="stroke:#A80036;stroke-width:1.0;"/><line style="stroke:#A80036;stroke-width:1.0;stroke-dasharray:2.0,2.0;" x1="572.5" x2="1223.5" y1="638.5234" y2="638.5234"/><text fill="#000000" font-family="sans-serif" font-size="13" lengthAdjust="spacing" textLength="72" x="584.5" y="633.4575">OK payload</text><line style="stroke:#A80036;stroke-width:1.0;" x1="567.5" x2="609.5" y1="667.6563" y2="667.6563"/><line style="stroke:#A80036;stroke-width:1.0;" x1="609.5" x2="609.5" y1="667.6563" y2="680.6563"/><line style="stroke:#A80036;stroke-width:1.0;" x1="568.5" x2="609.5" y1="680.6563" y2="680.6563"/><polygon fill="#A80036" points="578.5,676.6563,568.5,680.6563,578.5,684.6563,574.5,680.6563" style="stroke:#A80036;stroke-width:1.0;"/><text fill="#000000" font-family="sans-serif" font-size="13" lengthAdjust="spacing" textLength="159" x="574.5" y="662.5903">setStatus("CANCELLED")</text><polygon fill="#A80036" points="752.5,705.7891,762.5,709.7891,752.5,713.7891,756.5,709.7891" style="stroke:#A80036;stroke-width:1.0;"/><line style="stroke:#A80036;stroke-width:1.0;" x1="567.5" x2="758.5" y1="709.7891" y2="709.7891"/><text fill="#000000" font-family="sans-serif" font-size="13" lengthAdjust="spacing" textLength="79" x="574.5" y="704.7231">saveRtp(rtp)</text><polygon fill="#A80036" points="578.5,734.9219,568.5,738.9219,578.5,742.9219,574.5,738.9219" style="stroke:#A80036;stroke-width:1.0;"/><line style="stroke:#A80036;stroke-width:1.0;stroke-dasharray:2.0,2.0;" x1="572.5" x2="763.5" y1="738.9219" y2="738.9219"/><text fill="#000000" font-family="sans-serif" font-size="13" lengthAdjust="spacing" textLength="112" x="584.5" y="733.856">saveConfirmation</text><line style="stroke:#000000;stroke-width:1.0;stroke-dasharray:2.0,2.0;" x1="502.5" x2="1296" y1="747.9219" y2="747.9219"/><text fill="#000000" font-family="sans-serif" font-size="11" font-weight="bold" lengthAdjust="spacing" textLength="141" x="507.5" y="758.1323">[Error Sync Response]</text><polygon fill="#A80036" points="578.5,778.8594,568.5,782.8594,578.5,786.8594,574.5,782.8594" style="stroke:#A80036;stroke-width:1.0;"/><line style="stroke:#A80036;stroke-width:1.0;stroke-dasharray:2.0,2.0;" x1="572.5" x2="1223.5" y1="782.8594" y2="782.8594"/><text fill="#000000" font-family="sans-serif" font-size="13" lengthAdjust="spacing" textLength="94" x="584.5" y="777.7935">Error response</text><line style="stroke:#A80036;stroke-width:1.0;" x1="567.5" x2="609.5" y1="811.9922" y2="811.9922"/><line style="stroke:#A80036;stroke-width:1.0;" x1="609.5" x2="609.5" y1="811.9922" y2="824.9922"/><line style="stroke:#A80036;stroke-width:1.0;" x1="568.5" x2="609.5" y1="824.9922" y2="824.9922"/><polygon fill="#A80036" points="578.5,820.9922,568.5,824.9922,578.5,828.9922,574.5,824.9922" style="stroke:#A80036;stroke-width:1.0;"/><text fill="#000000" font-family="sans-serif" font-size="13" lengthAdjust="spacing" textLength="183" x="574.5" y="806.9263">setStatus("ERROR_CANCEL")</text><polygon fill="#A80036" points="752.5,850.125,762.5,854.125,752.5,858.125,756.5,854.125" style="stroke:#A80036;stroke-width:1.0;"/><line style="stroke:#A80036;stroke-width:1.0;" x1="567.5" x2="758.5" y1="854.125" y2="854.125"/><text fill="#000000" font-family="sans-serif" font-size="13" lengthAdjust="spacing" textLength="79" x="574.5" y="849.0591">saveRtp(rtp)</text><polygon fill="#A80036" points="578.5,879.2578,568.5,883.2578,578.5,887.2578,574.5,883.2578" style="stroke:#A80036;stroke-width:1.0;"/><line style="stroke:#A80036;stroke-width:1.0;stroke-dasharray:2.0,2.0;" x1="572.5" x2="763.5" y1="883.2578" y2="883.2578"/><text fill="#000000" font-family="sans-serif" font-size="13" lengthAdjust="spacing" textLength="112" x="584.5" y="878.1919">saveConfirmation</text><polygon fill="#A80036" points="387.5,915.3906,377.5,919.3906,387.5,923.3906,383.5,919.3906" style="stroke:#A80036;stroke-width:1.0;"/><line style="stroke:#A80036;stroke-width:1.0;stroke-dasharray:2.0,2.0;" x1="381.5" x2="556.5" y1="919.3906" y2="919.3906"/><text fill="#000000" font-family="sans-serif" font-size="13" lengthAdjust="spacing" textLength="148" x="393.5" y="914.3247">Cancellation processed</text><line style="stroke:#000000;stroke-width:1.0;stroke-dasharray:2.0,2.0;" x1="283" x2="1526.5" y1="928.3906" y2="928.3906"/><text fill="#000000" font-family="sans-serif" font-size="11" font-weight="bold" lengthAdjust="spacing" textLength="100" x="288" y="938.6011">[RTP not found]</text><polygon fill="#A80036" points="578.5,959.3281,568.5,963.3281,578.5,967.3281,574.5,963.3281" style="stroke:#A80036;stroke-width:1.0;"/><line style="stroke:#A80036;stroke-width:1.0;stroke-dasharray:2.0,2.0;" x1="572.5" x2="763.5" y1="963.3281" y2="963.3281"/><text fill="#000000" font-family="sans-serif" font-size="13" lengthAdjust="spacing" textLength="65" x="584.5" y="958.2622">return null</text><polygon fill="#A80036" points="387.5,988.4609,377.5,992.4609,387.5,996.4609,383.5,992.4609" style="stroke:#A80036;stroke-width:1.0;"/><line style="stroke:#A80036;stroke-width:1.0;stroke-dasharray:2.0,2.0;" x1="381.5" x2="556.5" y1="992.4609" y2="992.4609"/><text fill="#000000" font-family="sans-serif" font-size="13" lengthAdjust="spacing" textLength="88" x="393.5" y="987.395">RTP not found</text><line style="stroke:#000000;stroke-width:1.0;stroke-dasharray:2.0,2.0;" x1="273" x2="1536.5" y1="1008.4609" y2="1008.4609"/><text fill="#000000" font-family="sans-serif" font-size="11" font-weight="bold" lengthAdjust="spacing" textLength="279" x="278" y="1018.6714">[message is not DELETE/CANCEL operation]</text><line style="stroke:#A80036;stroke-width:1.0;" x1="376.5" x2="418.5" y1="1043.3984" y2="1043.3984"/><line style="stroke:#A80036;stroke-width:1.0;" x1="418.5" x2="418.5" y1="1043.3984" y2="1056.3984"/><line style="stroke:#A80036;stroke-width:1.0;" x1="377.5" x2="418.5" y1="1056.3984" y2="1056.3984"/><polygon fill="#A80036" points="387.5,1052.3984,377.5,1056.3984,387.5,1060.3984,383.5,1056.3984" style="stroke:#A80036;stroke-width:1.0;"/><text fill="#000000" font-family="sans-serif" font-size="13" lengthAdjust="spacing" textLength="100" x="383.5" y="1038.3325">Skip processing</text><path d="M495,1028.7656 L495,1053.7656 L668,1053.7656 L668,1038.7656 L658,1028.7656 L495,1028.7656 " fill="#FBFB77" filter="url(#fvu3nriblavz9)" style="stroke:#A80036;stroke-width:1.0;"/><path d="M658,1028.7656 L658,1038.7656 L668,1038.7656 L658,1028.7656 " fill="#FBFB77" style="stroke:#A80036;stroke-width:1.0;"/><text fill="#000000" font-family="sans-serif" font-size="13" lengthAdjust="spacing" textLength="152" x="501" y="1045.8325">Different operation type</text><!--SRC=[jLLBRvj04BxpAqO-9GVBTnygsOPMLjs4WjLhj871MGNlqjt13QhwtxilC3Xkb1xY0rxOcVaUEmpwcGjGKcD4d6g43HC5rf3jKqYLB51hE746AJl8bC6NE8NlBROO_RHNc5q-dm7J8Q9XYdZ16oO8PjzC8NOmvQNGxH6LY-jlfg4MEaTrueMl5jPHoOWzCeqGzmkp6Q-doNaACJwILB1AjpuzZSqoYXmfc7yQK9UU9mHgaP24K6D5ox495XKg9OzMOyGAuYT6PnrHlvXMtZnXyGp785esg1XnAJo6ueSd0_A3rRoqjOPjeAx1YDKqP7AZCDab-sInMTrjajser1WuMBI4mX7FgBbHr6pBsmbWyaBA202tvJK5dBEktkpmRul7woLKN9IcwhhRbdtb8SKSWQLipS8Nhab7O7xn6kPZPWgfLS96kMrt6PFpbjVU1uMclJG15voumIXT-0KdpKuObDvUXRG1ngMAgwEtR00ULVBjiOJqFj_3GcF3vW5zJdBUiAw_rOlVTZVpTtlJzLrOPwXbgmhSbdyMnKZ6aFbAR8wYXEAQOf8mjB1BEv-Cx-D1W_LyfJjHG5NBNv2a6_VOoNEXKpFklm8U6-fWBSlk73aoOh0DAIT6hRwPPPyt3tbojv_TNikuUWZlFWYipHkS_mz_SnYrPELxoVitPfV47yO-KSeC6gV1z41ZNaXyKuEFLwz2tzQHPDbzzk3LV8WKKPwxgiHh3JTWJOVSk84R_x48hsha_B4ZmRGzLB8D6F-O2gAjwpU0fdKitn5DCtx6fCFySlYZAMhJtpD9pw3vCszwLLmS9fCqvbM52iq7vs9sNt3hg_q5]--></g></svg>