<?xml version="1.0" encoding="us-ascii" standalone="no"?><svg xmlns="http://www.w3.org/2000/svg" xmlns:xlink="http://www.w3.org/1999/xlink" contentStyleType="text/css" height="1107px" preserveAspectRatio="none" style="width:1522px;height:1107px;background:#FFFFFF;" version="1.1" viewBox="0 0 1522 1107" width="1522px" zoomAndPan="magnify"><defs><filter height="300%" id="ftvdr96r86hh2" width="300%" x="-1" y="-1"><feGaussianBlur result="blurOut" stdDeviation="2.0"/><feColorMatrix in="blurOut" result="blurOut2" type="matrix" values="0 0 0 0 0 0 0 0 0 0 0 0 0 0 0 0 0 0 .4 0"/><feOffset dx="4.0" dy="4.0" in="blurOut2" result="blurOut3"/><feBlend in="SourceGraphic" in2="blurOut3" mode="normal"/></filter></defs><g><text fill="#000000" font-family="sans-serif" font-size="14" font-weight="bold" lengthAdjust="spacing" textLength="310" x="603.5" y="28.5352">Cancel RTP Process via PagoPa GDP Queue</text><rect fill="#FFFFFF" filter="url(#ftvdr96r86hh2)" height="877.2734" style="stroke:#A80036;stroke-width:1.0;" width="10" x="355" y="141.2871"/><rect fill="#FFFFFF" filter="url(#ftvdr96r86hh2)" height="707.0762" style="stroke:#A80036;stroke-width:1.0;" width="10" x="541" y="247.2188"/><rect fill="#FFFFFF" filter="url(#ftvdr96r86hh2)" height="672.7656" style="stroke:#A80036;stroke-width:1.0;" width="10" x="740" y="281.5293"/><rect fill="#FFFFFF" filter="url(#ftvdr96r86hh2)" height="464.9473" style="stroke:#A80036;stroke-width:1.0;" width="10" x="1205" y="379.4609"/><rect fill="none" filter="url(#ftvdr96r86hh2)" height="807.9629" style="stroke:#000000;stroke-width:2.0;" width="1244" x="264" y="203.5977"/><rect fill="none" filter="url(#ftvdr96r86hh2)" height="650.7656" style="stroke:#000000;stroke-width:2.0;" width="1224" x="274" y="296.5293"/><rect fill="none" filter="url(#ftvdr96r86hh2)" height="437.9473" style="stroke:#000000;stroke-width:2.0;" width="787.5" x="488" y="399.4609"/><line style="stroke:#A80036;stroke-width:1.0;stroke-dasharray:5.0,5.0;" x1="198" x2="198" y1="104.9766" y2="1028.5605"/><line style="stroke:#A80036;stroke-width:1.0;stroke-dasharray:5.0,5.0;" x1="360" x2="360" y1="104.9766" y2="1028.5605"/><line style="stroke:#A80036;stroke-width:1.0;stroke-dasharray:5.0,5.0;" x1="546" x2="546" y1="104.9766" y2="1028.5605"/><line style="stroke:#A80036;stroke-width:1.0;stroke-dasharray:5.0,5.0;" x1="744.5" x2="744.5" y1="104.9766" y2="1028.5605"/><line style="stroke:#A80036;stroke-width:1.0;stroke-dasharray:5.0,5.0;" x1="1209.5" x2="1209.5" y1="104.9766" y2="1028.5605"/><path d="M128,78.4883 L269,78.4883 C274,78.4883 274,91.7324 274,91.7324 C274,91.7324 274,104.9766 269,104.9766 L128,104.9766 C123,104.9766 123,91.7324 123,91.7324 C123,91.7324 123,78.4883 128,78.4883 " fill="#FEFECE" filter="url(#ftvdr96r86hh2)" style="stroke:#A80036;stroke-width:2.0;"/><path d="M269,78.4883 C264,78.4883 264,91.7324 264,91.7324 C264,104.9766 269,104.9766 269,104.9766 " fill="none" style="stroke:#A80036;stroke-width:2.0;"/><text fill="#000000" font-family="sans-serif" font-size="14" lengthAdjust="spacing" textLength="131" x="128" y="97.0234">PagoPa GDP Queue</text><path d="M128,1027.5605 L269,1027.5605 C274,1027.5605 274,1040.8047 274,1040.8047 C274,1040.8047 274,1054.0488 269,1054.0488 L128,1054.0488 C123,1054.0488 123,1040.8047 123,1040.8047 C123,1040.8047 123,1027.5605 128,1027.5605 " fill="#FEFECE" filter="url(#ftvdr96r86hh2)" style="stroke:#A80036;stroke-width:2.0;"/><path d="M269,1027.5605 C264,1027.5605 264,1040.8047 264,1040.8047 C264,1054.0488 269,1054.0488 269,1054.0488 " fill="none" style="stroke:#A80036;stroke-width:2.0;"/><text fill="#000000" font-family="sans-serif" font-size="14" lengthAdjust="spacing" textLength="131" x="128" y="1046.0957">PagoPa GDP Queue</text><rect fill="#FEFECE" filter="url(#ftvdr96r86hh2)" height="30.4883" style="stroke:#A80036;stroke-width:1.5;" width="148" x="284" y="69.4883"/><text fill="#000000" font-family="sans-serif" font-size="14" lengthAdjust="spacing" textLength="134" x="291" y="90.0234">Message Consumer</text><rect fill="#FEFECE" filter="url(#ftvdr96r86hh2)" height="30.4883" style="stroke:#A80036;stroke-width:1.5;" width="148" x="284" y="1027.5605"/><text fill="#000000" font-family="sans-serif" font-size="14" lengthAdjust="spacing" textLength="134" x="291" y="1048.0957">Message Consumer</text><rect fill="#FEFECE" filter="url(#ftvdr96r86hh2)" height="30.4883" style="stroke:#A80036;stroke-width:1.5;" width="92" x="498" y="69.4883"/><text fill="#000000" font-family="sans-serif" font-size="14" lengthAdjust="spacing" textLength="78" x="505" y="90.0234">RTP Service</text><rect fill="#FEFECE" filter="url(#ftvdr96r86hh2)" height="30.4883" style="stroke:#A80036;stroke-width:1.5;" width="92" x="498" y="1027.5605"/><text fill="#000000" font-family="sans-serif" font-size="14" lengthAdjust="spacing" textLength="78" x="505" y="1048.0957">RTP Service</text><text fill="#000000" font-family="sans-serif" font-size="14" lengthAdjust="spacing" textLength="63" x="710.5" y="102.0234">Database</text><path d="M727,52.4883 C727,42.4883 745,42.4883 745,42.4883 C745,42.4883 763,42.4883 763,52.4883 L763,78.4883 C763,88.4883 745,88.4883 745,88.4883 C745,88.4883 727,88.4883 727,78.4883 L727,52.4883 " fill="#FEFECE" filter="url(#ftvdr96r86hh2)" style="stroke:#A80036;stroke-width:1.5;"/><path d="M727,52.4883 C727,62.4883 745,62.4883 745,62.4883 C745,62.4883 763,62.4883 763,52.4883 " fill="none" style="stroke:#A80036;stroke-width:1.5;"/><text fill="#000000" font-family="sans-serif" font-size="14" lengthAdjust="spacing" textLength="63" x="710.5" y="1041.0957">Database</text><path d="M727,1054.0488 C727,1044.0488 745,1044.0488 745,1044.0488 C745,1044.0488 763,1044.0488 763,1054.0488 L763,1080.0488 C763,1090.0488 745,1090.0488 745,1090.0488 C745,1090.0488 727,1090.0488 727,1080.0488 L727,1054.0488 " fill="#FEFECE" filter="url(#ftvdr96r86hh2)" style="stroke:#A80036;stroke-width:1.5;"/><path d="M727,1054.0488 C727,1064.0488 745,1064.0488 745,1064.0488 C745,1064.0488 763,1064.0488 763,1054.0488 " fill="none" style="stroke:#A80036;stroke-width:1.5;"/><rect fill="#FEFECE" filter="url(#ftvdr96r86hh2)" height="30.4883" style="stroke:#A80036;stroke-width:1.5;" width="107" x="1154.5" y="69.4883"/><text fill="#000000" font-family="sans-serif" font-size="14" lengthAdjust="spacing" textLength="93" x="1161.5" y="90.0234">SP Debtor API</text><rect fill="#FEFECE" filter="url(#ftvdr96r86hh2)" height="30.4883" style="stroke:#A80036;stroke-width:1.5;" width="107" x="1154.5" y="1027.5605"/><text fill="#000000" font-family="sans-serif" font-size="14" lengthAdjust="spacing" textLength="93" x="1161.5" y="1048.0957">SP Debtor API</text><rect fill="#FFFFFF" filter="url(#ftvdr96r86hh2)" height="877.2734" style="stroke:#A80036;stroke-width:1.0;" width="10" x="355" y="141.2871"/><rect fill="#FFFFFF" filter="url(#ftvdr96r86hh2)" height="707.0762" style="stroke:#A80036;stroke-width:1.0;" width="10" x="541" y="247.2188"/><rect fill="#FFFFFF" filter="url(#ftvdr96r86hh2)" height="672.7656" style="stroke:#A80036;stroke-width:1.0;" width="10" x="740" y="281.5293"/><rect fill="#FFFFFF" filter="url(#ftvdr96r86hh2)" height="464.9473" style="stroke:#A80036;stroke-width:1.0;" width="10" x="1205" y="379.4609"/><polygon fill="#A80036" points="343,137.2871,353,141.2871,343,145.2871,347,141.2871" style="stroke:#A80036;stroke-width:1.0;"/><line style="stroke:#A80036;stroke-width:1.0;" x1="198.5" x2="349" y1="141.2871" y2="141.2871"/><text fill="#000000" font-family="sans-serif" font-size="13" lengthAdjust="spacing" textLength="98" x="205.5" y="136.5449">Queue Message</text><path d="M5,119.9766 L5,144.9766 L190,144.9766 L190,129.9766 L180,119.9766 L5,119.9766 " fill="#FBFB77" filter="url(#ftvdr96r86hh2)" style="stroke:#A80036;stroke-width:1.0;"/><path d="M180,119.9766 L180,129.9766 L190,129.9766 L180,119.9766 " fill="#FBFB77" style="stroke:#A80036;stroke-width:1.0;"/><text fill="#000000" font-family="sans-serif" font-size="13" lengthAdjust="spacing" textLength="164" x="11" y="137.5449">Cancel RTP data from GDP</text><line style="stroke:#A80036;stroke-width:1.0;" x1="365" x2="407" y1="175.5977" y2="175.5977"/><line style="stroke:#A80036;stroke-width:1.0;" x1="407" x2="407" y1="175.5977" y2="188.5977"/><line style="stroke:#A80036;stroke-width:1.0;" x1="366" x2="407" y1="188.5977" y2="188.5977"/><polygon fill="#A80036" points="376,184.5977,366,188.5977,376,192.5977,372,188.5977" style="stroke:#A80036;stroke-width:1.0;"/><text fill="#000000" font-family="sans-serif" font-size="13" lengthAdjust="spacing" textLength="162" x="372" y="170.8555">Check message operation</text><path d="M546,160.7871 L546,185.7871 L712,185.7871 L712,170.7871 L702,160.7871 L546,160.7871 " fill="#FBFB77" filter="url(#ftvdr96r86hh2)" style="stroke:#A80036;stroke-width:1.0;"/><path d="M702,160.7871 L702,170.7871 L712,170.7871 L702,160.7871 " fill="#FBFB77" style="stroke:#A80036;stroke-width:1.0;"/><text fill="#000000" font-family="sans-serif" font-size="13" lengthAdjust="spacing" textLength="145" x="552" y="178.3555">Validate operation type</text><path d="M264,203.5977 L326,203.5977 L326,210.9082 L316,220.9082 L264,220.9082 L264,203.5977 " fill="#EEEEEE" style="stroke:#000000;stroke-width:1.0;"/><rect fill="none" height="807.9629" style="stroke:#000000;stroke-width:2.0;" width="1244" x="264" y="203.5977"/><text fill="#000000" font-family="sans-serif" font-size="13" font-weight="bold" lengthAdjust="spacing" textLength="17" x="279" y="217.166">alt</text><text fill="#000000" font-family="sans-serif" font-size="11" font-weight="bold" lengthAdjust="spacing" textLength="226" x="341" y="216.2324">[message is DELETE/CANCEL operation]</text><polygon fill="#A80036" points="529,243.2188,539,247.2188,529,251.2188,533,247.2188" style="stroke:#A80036;stroke-width:1.0;"/><line style="stroke:#A80036;stroke-width:1.0;" x1="365" x2="535" y1="247.2188" y2="247.2188"/><text fill="#000000" font-family="sans-serif" font-size="13" lengthAdjust="spacing" textLength="99" x="372" y="242.4766">cancelRtp(rtpId)</text><path d="M556,225.9082 L556,250.9082 L748,250.9082 L748,235.9082 L738,225.9082 L556,225.9082 " fill="#FBFB77" filter="url(#ftvdr96r86hh2)" style="stroke:#A80036;stroke-width:1.0;"/><path d="M738,225.9082 L738,235.9082 L748,235.9082 L738,225.9082 " fill="#FBFB77" style="stroke:#A80036;stroke-width:1.0;"/><text fill="#000000" font-family="sans-serif" font-size="13" lengthAdjust="spacing" textLength="171" x="562" y="243.4766">Extract rtpId from message</text><polygon fill="#A80036" points="728,277.5293,738,281.5293,728,285.5293,732,281.5293" style="stroke:#A80036;stroke-width:1.0;"/><line style="stroke:#A80036;stroke-width:1.0;" x1="551" x2="734" y1="281.5293" y2="281.5293"/><text fill="#000000" font-family="sans-serif" font-size="13" lengthAdjust="spacing" textLength="110" x="558" y="276.7871">findRtpById(rtpId)</text><path d="M274,296.5293 L336,296.5293 L336,303.8398 L326,313.8398 L274,313.8398 L274,296.5293 " fill="#EEEEEE" style="stroke:#000000;stroke-width:1.0;"/><rect fill="none" height="650.7656" style="stroke:#000000;stroke-width:2.0;" width="1224" x="274" y="296.5293"/><text fill="#000000" font-family="sans-serif" font-size="13" font-weight="bold" lengthAdjust="spacing" textLength="17" x="289" y="310.0977">alt</text><text fill="#000000" font-family="sans-serif" font-size="11" font-weight="bold" lengthAdjust="spacing" textLength="67" x="351" y="309.1641">[RTP exists]</text><polygon fill="#A80036" points="562,336.1504,552,340.1504,562,344.1504,558,340.1504" style="stroke:#A80036;stroke-width:1.0;"/><line style="stroke:#A80036;stroke-width:1.0;stroke-dasharray:2.0,2.0;" x1="556" x2="739" y1="340.1504" y2="340.1504"/><text fill="#000000" font-family="sans-serif" font-size="13" lengthAdjust="spacing" textLength="65" x="568" y="335.4082">return RTP</text><path d="M755,318.8398 L755,343.8398 L961,343.8398 L961,328.8398 L951,318.8398 L755,318.8398 " fill="#FBFB77" filter="url(#ftvdr96r86hh2)" style="stroke:#A80036;stroke-width:1.0;"/><path d="M951,318.8398 L951,328.8398 L961,328.8398 L951,318.8398 " fill="#FBFB77" style="stroke:#A80036;stroke-width:1.0;"/><text fill="#000000" font-family="sans-serif" font-size="13" lengthAdjust="spacing" textLength="185" x="761" y="336.4082">Cancellation request initiated</text><polygon fill="#A80036" points="1193,375.4609,1203,379.4609,1193,383.4609,1197,379.4609" style="stroke:#A80036;stroke-width:1.0;"/><line style="stroke:#A80036;stroke-width:1.0;" x1="551" x2="1199" y1="379.4609" y2="379.4609"/><text fill="#000000" font-family="sans-serif" font-size="13" lengthAdjust="spacing" textLength="635" x="558" y="374.7188">POST /sepa-request-to-pay-requests/{sepaRequestToPayRequestResourceId}/cancellation-requests</text><path d="M1220,358.1504 L1220,383.1504 L1484,383.1504 L1484,368.1504 L1474,358.1504 L1220,358.1504 " fill="#FBFB77" filter="url(#ftvdr96r86hh2)" style="stroke:#A80036;stroke-width:1.0;"/><path d="M1474,358.1504 L1474,368.1504 L1484,368.1504 L1474,358.1504 " fill="#FBFB77" style="stroke:#A80036;stroke-width:1.0;"/><text fill="#000000" font-family="sans-serif" font-size="13" lengthAdjust="spacing" textLength="243" x="1226" y="375.7188">Send cancellation request to SP Debtor</text><path d="M488,399.4609 L550,399.4609 L550,406.7715 L540,416.7715 L488,416.7715 L488,399.4609 " fill="#EEEEEE" style="stroke:#000000;stroke-width:1.0;"/><rect fill="none" height="437.9473" style="stroke:#000000;stroke-width:2.0;" width="787.5" x="488" y="399.4609"/><text fill="#000000" font-family="sans-serif" font-size="13" font-weight="bold" lengthAdjust="spacing" textLength="17" x="503" y="413.0293">alt</text><text fill="#000000" font-family="sans-serif" font-size="11" font-weight="bold" lengthAdjust="spacing" textLength="96" x="565" y="412.0957">[Async flow EPC]</text><polygon fill="#A80036" points="562,434.082,552,438.082,562,442.082,558,438.082" style="stroke:#A80036;stroke-width:1.0;"/><line style="stroke:#A80036;stroke-width:1.0;stroke-dasharray:2.0,2.0;" x1="556" x2="1204" y1="438.082" y2="438.082"/><text fill="#000000" font-family="sans-serif" font-size="13" lengthAdjust="spacing" textLength="95" x="568" y="433.3398">OK empty Body</text><line style="stroke:#A80036;stroke-width:1.0;" x1="551" x2="593" y1="467.3926" y2="467.3926"/><line style="stroke:#A80036;stroke-width:1.0;" x1="593" x2="593" y1="467.3926" y2="480.3926"/><line style="stroke:#A80036;stroke-width:1.0;" x1="552" x2="593" y1="480.3926" y2="480.3926"/><polygon fill="#A80036" points="562,476.3926,552,480.3926,562,484.3926,558,480.3926" style="stroke:#A80036;stroke-width:1.0;"/><text fill="#000000" font-family="sans-serif" font-size="13" lengthAdjust="spacing" textLength="139" x="558" y="462.6504">setStatus("RFC_SENT")</text><polygon fill="#A80036" points="728,505.7031,738,509.7031,728,513.7031,732,509.7031" style="stroke:#A80036;stroke-width:1.0;"/><line style="stroke:#A80036;stroke-width:1.0;" x1="551" x2="734" y1="509.7031" y2="509.7031"/><text fill="#000000" font-family="sans-serif" font-size="13" lengthAdjust="spacing" textLength="75" x="558" y="504.9609">saveRtp(rtp)</text><polygon fill="#A80036" points="562,535.0137,552,539.0137,562,543.0137,558,539.0137" style="stroke:#A80036;stroke-width:1.0;"/><line style="stroke:#A80036;stroke-width:1.0;stroke-dasharray:2.0,2.0;" x1="556" x2="739" y1="539.0137" y2="539.0137"/><text fill="#000000" font-family="sans-serif" font-size="13" lengthAdjust="spacing" textLength="111" x="568" y="534.2715">saveConfirmation</text><line style="stroke:#000000;stroke-width:1.0;stroke-dasharray:2.0,2.0;" x1="488" x2="1275.5" y1="548.0137" y2="548.0137"/><text fill="#000000" font-family="sans-serif" font-size="11" font-weight="bold" lengthAdjust="spacing" textLength="88" x="493" y="558.6484">[Sync flow EPC]</text><polygon fill="#A80036" points="562,579.2793,552,583.2793,562,587.2793,558,583.2793" style="stroke:#A80036;stroke-width:1.0;"/><line style="stroke:#A80036;stroke-width:1.0;stroke-dasharray:2.0,2.0;" x1="556" x2="1204" y1="583.2793" y2="583.2793"/><text fill="#000000" font-family="sans-serif" font-size="13" lengthAdjust="spacing" textLength="71" x="568" y="578.5371">OK payload</text><line style="stroke:#A80036;stroke-width:1.0;" x1="551" x2="593" y1="612.5898" y2="612.5898"/><line style="stroke:#A80036;stroke-width:1.0;" x1="593" x2="593" y1="612.5898" y2="625.5898"/><line style="stroke:#A80036;stroke-width:1.0;" x1="552" x2="593" y1="625.5898" y2="625.5898"/><polygon fill="#A80036" points="562,621.5898,552,625.5898,562,629.5898,558,625.5898" style="stroke:#A80036;stroke-width:1.0;"/><text fill="#000000" font-family="sans-serif" font-size="13" lengthAdjust="spacing" textLength="151" x="558" y="607.8477">setStatus("CANCELLED")</text><polygon fill="#A80036" points="728,650.9004,738,654.9004,728,658.9004,732,654.9004" style="stroke:#A80036;stroke-width:1.0;"/><line style="stroke:#A80036;stroke-width:1.0;" x1="551" x2="734" y1="654.9004" y2="654.9004"/><text fill="#000000" font-family="sans-serif" font-size="13" lengthAdjust="spacing" textLength="75" x="558" y="650.1582">saveRtp(rtp)</text><polygon fill="#A80036" points="562,680.2109,552,684.2109,562,688.2109,558,684.2109" style="stroke:#A80036;stroke-width:1.0;"/><line style="stroke:#A80036;stroke-width:1.0;stroke-dasharray:2.0,2.0;" x1="556" x2="739" y1="684.2109" y2="684.2109"/><text fill="#000000" font-family="sans-serif" font-size="13" lengthAdjust="spacing" textLength="111" x="568" y="679.4688">saveConfirmation</text><line style="stroke:#000000;stroke-width:1.0;stroke-dasharray:2.0,2.0;" x1="488" x2="1275.5" y1="693.2109" y2="693.2109"/><text fill="#000000" font-family="sans-serif" font-size="11" font-weight="bold" lengthAdjust="spacing" textLength="123" x="493" y="703.8457">[Error Sync Response]</text><polygon fill="#A80036" points="562,724.4766,552,728.4766,562,732.4766,558,728.4766" style="stroke:#A80036;stroke-width:1.0;"/><line style="stroke:#A80036;stroke-width:1.0;stroke-dasharray:2.0,2.0;" x1="556" x2="1204" y1="728.4766" y2="728.4766"/><text fill="#000000" font-family="sans-serif" font-size="13" lengthAdjust="spacing" textLength="91" x="568" y="723.7344">Error response</text><line style="stroke:#A80036;stroke-width:1.0;" x1="551" x2="593" y1="757.7871" y2="757.7871"/><line style="stroke:#A80036;stroke-width:1.0;" x1="593" x2="593" y1="757.7871" y2="770.7871"/><line style="stroke:#A80036;stroke-width:1.0;" x1="552" x2="593" y1="770.7871" y2="770.7871"/><polygon fill="#A80036" points="562,766.7871,552,770.7871,562,774.7871,558,770.7871" style="stroke:#A80036;stroke-width:1.0;"/><text fill="#000000" font-family="sans-serif" font-size="13" lengthAdjust="spacing" textLength="175" x="558" y="753.0449">setStatus("ERROR_CANCEL")</text><polygon fill="#A80036" points="728,796.0977,738,800.0977,728,804.0977,732,800.0977" style="stroke:#A80036;stroke-width:1.0;"/><line style="stroke:#A80036;stroke-width:1.0;" x1="551" x2="734" y1="800.0977" y2="800.0977"/><text fill="#000000" font-family="sans-serif" font-size="13" lengthAdjust="spacing" textLength="75" x="558" y="795.3555">saveRtp(rtp)</text><polygon fill="#A80036" points="562,825.4082,552,829.4082,562,833.4082,558,829.4082" style="stroke:#A80036;stroke-width:1.0;"/><line style="stroke:#A80036;stroke-width:1.0;stroke-dasharray:2.0,2.0;" x1="556" x2="739" y1="829.4082" y2="829.4082"/><text fill="#000000" font-family="sans-serif" font-size="13" lengthAdjust="spacing" textLength="111" x="568" y="824.666">saveConfirmation</text><polygon fill="#A80036" points="376,861.7188,366,865.7188,376,869.7188,372,865.7188" style="stroke:#A80036;stroke-width:1.0;"/><line style="stroke:#A80036;stroke-width:1.0;stroke-dasharray:2.0,2.0;" x1="370" x2="540" y1="865.7188" y2="865.7188"/><text fill="#000000" font-family="sans-serif" font-size="13" lengthAdjust="spacing" textLength="146" x="382" y="860.9766">Cancellation processed</text><line style="stroke:#000000;stroke-width:1.0;stroke-dasharray:2.0,2.0;" x1="274" x2="1498" y1="874.7188" y2="874.7188"/><text fill="#000000" font-family="sans-serif" font-size="11" font-weight="bold" lengthAdjust="spacing" textLength="90" x="279" y="885.3535">[RTP not found]</text><polygon fill="#A80036" points="562,905.9844,552,909.9844,562,913.9844,558,909.9844" style="stroke:#A80036;stroke-width:1.0;"/><line style="stroke:#A80036;stroke-width:1.0;stroke-dasharray:2.0,2.0;" x1="556" x2="739" y1="909.9844" y2="909.9844"/><text fill="#000000" font-family="sans-serif" font-size="13" lengthAdjust="spacing" textLength="66" x="568" y="905.2422">return null</text><polygon fill="#A80036" points="376,935.2949,366,939.2949,376,943.2949,372,939.2949" style="stroke:#A80036;stroke-width:1.0;"/><line style="stroke:#A80036;stroke-width:1.0;stroke-dasharray:2.0,2.0;" x1="370" x2="540" y1="939.2949" y2="939.2949"/><text fill="#000000" font-family="sans-serif" font-size="13" lengthAdjust="spacing" textLength="89" x="382" y="934.5527">RTP not found</text><line style="stroke:#000000;stroke-width:1.0;stroke-dasharray:2.0,2.0;" x1="264" x2="1508" y1="955.2949" y2="955.2949"/><text fill="#000000" font-family="sans-serif" font-size="11" font-weight="bold" lengthAdjust="spacing" textLength="248" x="269" y="965.9297">[message is not DELETE/CANCEL operation]</text><line style="stroke:#A80036;stroke-width:1.0;" x1="365" x2="407" y1="990.5605" y2="990.5605"/><line style="stroke:#A80036;stroke-width:1.0;" x1="407" x2="407" y1="990.5605" y2="1003.5605"/><line style="stroke:#A80036;stroke-width:1.0;" x1="366" x2="407" y1="1003.5605" y2="1003.5605"/><polygon fill="#A80036" points="376,999.5605,366,1003.5605,376,1007.5605,372,1003.5605" style="stroke:#A80036;stroke-width:1.0;"/><text fill="#000000" font-family="sans-serif" font-size="13" lengthAdjust="spacing" textLength="100" x="372" y="985.8184">Skip processing</text><path d="M484,975.75 L484,1000.75 L656,1000.75 L656,985.75 L646,975.75 L484,975.75 " fill="#FBFB77" filter="url(#ftvdr96r86hh2)" style="stroke:#A80036;stroke-width:1.0;"/><path d="M646,975.75 L646,985.75 L656,985.75 L646,975.75 " fill="#FBFB77" style="stroke:#A80036;stroke-width:1.0;"/><text fill="#000000" font-family="sans-serif" font-size="13" lengthAdjust="spacing" textLength="151" x="490" y="993.3184">Different operation type</text><!--SRC=[jLLDRzim3BtxLn0vjOSWznm6DB4t1EjQpmvsBLIRJeKwaYVHMOrX_ttwy8USPaLtQ0wEP95yxr4ahP-v02KrHiIfHjWoKM0DsJw5LCa2jOOJPv2oWqmPV8bJ-DvYYz5F-uJ5-Vi5CDrRD4mHBtZ31C7Ycmd43YQy5Bezed9smsPkQg5pL2TU-6ZzEYePiKUc4U9XOGxZpTmvJo76Hv8ARjATTqzZiumYHmgMdqRKjUS9FRL8I4AeiQ9rc0IB2fMIHwinOWNn4wD9HpGivf6tJrWymx4NBHjKZBWK7aFnmvC1-S5gNjfOup5Grs34QXezkL6Ot2RxPBMzkTicjq6e4BXFqHeAHpoZvafHioklPu392oaZ0DoHrzJZJBg6PFV_DdYyMKF5HMcYRhfTEKGUNSmLMCesMVZ2DUa8p2_Um39aff1Q9QoLEtQFa9nFUUtpeD2KboRWWXCt6ENa4n3pDxk6z3xVmqfZmvQzuvBaic7TiDMht_OqyxkzATYkNsUePQiAt9L_LaN0OFHynJD7KK9nYIn96AlFkKr9zIKuQh3fkj6TAA2gvIz8qgrxxUGvqtdgxhy27XlgO2FBRh8C4Z5OQgIS6BNwQf5ztZxaoTr-SNt9mzwfPYViAsMoERysQsGghUBgwClE6c5jcY__7_xcCch9olUIzyL-cyGVnZvHoim8fy7KG6Dw2T_KuEtLAzEtTIHPTfyzU3KV8aK4dL7YfO8RiURpAIpWni_veSjSVcmtcxA7IhOznZyQMhHr_GRGF8xb6z0qaoCatOyUXnyCGEl-dY4uWURFl1bKSN6O3S6OLnKgDD-Aix5xncs8zXS0]--></g></svg>