<?xml version="1.0" encoding="us-ascii" standalone="no"?><svg xmlns="http://www.w3.org/2000/svg" xmlns:xlink="http://www.w3.org/1999/xlink" contentStyleType="text/css" height="875px" preserveAspectRatio="none" style="width:1550px;height:875px;background:#FFFFFF;" version="1.1" viewBox="0 0 1550 875" width="1550px" zoomAndPan="magnify"><defs><filter height="300%" id="f1rb3fwcqys7k5" width="300%" x="-1" y="-1"><feGaussianBlur result="blurOut" stdDeviation="2.0"/><feColorMatrix in="blurOut" result="blurOut2" type="matrix" values="0 0 0 0 0 0 0 0 0 0 0 0 0 0 0 0 0 0 .4 0"/><feOffset dx="4.0" dy="4.0" in="blurOut2" result="blurOut3"/><feBlend in="SourceGraphic" in2="blurOut3" mode="normal"/></filter></defs><g><text fill="#000000" font-family="sans-serif" font-size="14" font-weight="bold" lengthAdjust="spacing" textLength="342" x="601.75" y="27.9951">Cancel RTP Process via PagoPa GDP Queue</text><rect fill="#FFFFFF" filter="url(#f1rb3fwcqys7k5)" height="646.8047" style="stroke:#A80036;stroke-width:1.0;" width="10" x="366.5" y="140.7266"/><rect fill="#FFFFFF" filter="url(#f1rb3fwcqys7k5)" height="477.4688" style="stroke:#A80036;stroke-width:1.0;" width="10" x="557.5" y="246.125"/><rect fill="#FFFFFF" filter="url(#f1rb3fwcqys7k5)" height="443.3359" style="stroke:#A80036;stroke-width:1.0;" width="10" x="733.5" y="280.2578"/><rect fill="#FFFFFF" filter="url(#f1rb3fwcqys7k5)" height="275.8672" style="stroke:#A80036;stroke-width:1.0;" width="10" x="1224.5" y="367.6563"/><rect fill="none" filter="url(#f1rb3fwcqys7k5)" height="577.6719" style="stroke:#000000;stroke-width:2.0;" width="1273.5" x="263" y="202.8594"/><rect fill="none" filter="url(#f1rb3fwcqys7k5)" height="421.3359" style="stroke:#000000;stroke-width:2.0;" width="1253.5" x="273" y="295.2578"/><rect fill="none" filter="url(#f1rb3fwcqys7k5)" height="248.8672" style="stroke:#000000;stroke-width:2.0;" width="1013" x="283" y="387.6563"/><line style="stroke:#A80036;stroke-width:1.0;stroke-dasharray:5.0,5.0;" x1="204" x2="204" y1="104.5938" y2="797.5313"/><line style="stroke:#A80036;stroke-width:1.0;stroke-dasharray:5.0,5.0;" x1="371" x2="371" y1="104.5938" y2="797.5313"/><line style="stroke:#A80036;stroke-width:1.0;stroke-dasharray:5.0,5.0;" x1="562.5" x2="562.5" y1="104.5938" y2="797.5313"/><line style="stroke:#A80036;stroke-width:1.0;stroke-dasharray:5.0,5.0;" x1="738.5" x2="738.5" y1="104.5938" y2="797.5313"/><line style="stroke:#A80036;stroke-width:1.0;stroke-dasharray:5.0,5.0;" x1="1229" x2="1229" y1="104.5938" y2="797.5313"/><path d="M130,78.2969 L278,78.2969 C283,78.2969 283,91.4453 283,91.4453 C283,91.4453 283,104.5938 278,104.5938 L130,104.5938 C125,104.5938 125,91.4453 125,91.4453 C125,91.4453 125,78.2969 130,78.2969 " fill="#FEFECE" filter="url(#f1rb3fwcqys7k5)" style="stroke:#A80036;stroke-width:2.0;"/><path d="M278,78.2969 C273,78.2969 273,91.4453 273,91.4453 C273,104.5938 278,104.5938 278,104.5938 " fill="none" style="stroke:#A80036;stroke-width:2.0;"/><text fill="#000000" font-family="sans-serif" font-size="14" lengthAdjust="spacing" textLength="138" x="130" y="96.292">PagoPa GDP Queue</text><path d="M130,796.5313 L278,796.5313 C283,796.5313 283,809.6797 283,809.6797 C283,809.6797 283,822.8281 278,822.8281 L130,822.8281 C125,822.8281 125,809.6797 125,809.6797 C125,809.6797 125,796.5313 130,796.5313 " fill="#FEFECE" filter="url(#f1rb3fwcqys7k5)" style="stroke:#A80036;stroke-width:2.0;"/><path d="M278,796.5313 C273,796.5313 273,809.6797 273,809.6797 C273,822.8281 278,822.8281 278,822.8281 " fill="none" style="stroke:#A80036;stroke-width:2.0;"/><text fill="#000000" font-family="sans-serif" font-size="14" lengthAdjust="spacing" textLength="138" x="130" y="814.5264">PagoPa GDP Queue</text><rect fill="#FEFECE" filter="url(#f1rb3fwcqys7k5)" height="30.2969" style="stroke:#A80036;stroke-width:1.5;" width="153" x="293" y="69.2969"/><text fill="#000000" font-family="sans-serif" font-size="14" lengthAdjust="spacing" textLength="139" x="300" y="89.292">Message Consumer</text><rect fill="#FEFECE" filter="url(#f1rb3fwcqys7k5)" height="30.2969" style="stroke:#A80036;stroke-width:1.5;" width="153" x="293" y="796.5313"/><text fill="#000000" font-family="sans-serif" font-size="14" lengthAdjust="spacing" textLength="139" x="300" y="816.5264">Message Consumer</text><rect fill="#FEFECE" filter="url(#f1rb3fwcqys7k5)" height="30.2969" style="stroke:#A80036;stroke-width:1.5;" width="96" x="512.5" y="69.2969"/><text fill="#000000" font-family="sans-serif" font-size="14" lengthAdjust="spacing" textLength="82" x="519.5" y="89.292">RTP Service</text><rect fill="#FEFECE" filter="url(#f1rb3fwcqys7k5)" height="30.2969" style="stroke:#A80036;stroke-width:1.5;" width="96" x="512.5" y="796.5313"/><text fill="#000000" font-family="sans-serif" font-size="14" lengthAdjust="spacing" textLength="82" x="519.5" y="816.5264">RTP Service</text><text fill="#000000" font-family="sans-serif" font-size="14" lengthAdjust="spacing" textLength="66" x="702.5" y="101.292">Database</text><path d="M720.5,52.2969 C720.5,42.2969 738.5,42.2969 738.5,42.2969 C738.5,42.2969 756.5,42.2969 756.5,52.2969 L756.5,78.2969 C756.5,88.2969 738.5,88.2969 738.5,88.2969 C738.5,88.2969 720.5,88.2969 720.5,78.2969 L720.5,52.2969 " fill="#FEFECE" filter="url(#f1rb3fwcqys7k5)" style="stroke:#A80036;stroke-width:1.5;"/><path d="M720.5,52.2969 C720.5,62.2969 738.5,62.2969 738.5,62.2969 C738.5,62.2969 756.5,62.2969 756.5,52.2969 " fill="none" style="stroke:#A80036;stroke-width:1.5;"/><text fill="#000000" font-family="sans-serif" font-size="14" lengthAdjust="spacing" textLength="66" x="702.5" y="809.5264">Database</text><path d="M720.5,822.8281 C720.5,812.8281 738.5,812.8281 738.5,812.8281 C738.5,812.8281 756.5,812.8281 756.5,822.8281 L756.5,848.8281 C756.5,858.8281 738.5,858.8281 738.5,858.8281 C738.5,858.8281 720.5,858.8281 720.5,848.8281 L720.5,822.8281 " fill="#FEFECE" filter="url(#f1rb3fwcqys7k5)" style="stroke:#A80036;stroke-width:1.5;"/><path d="M720.5,822.8281 C720.5,832.8281 738.5,832.8281 738.5,832.8281 C738.5,832.8281 756.5,832.8281 756.5,822.8281 " fill="none" style="stroke:#A80036;stroke-width:1.5;"/><rect fill="#FEFECE" filter="url(#f1rb3fwcqys7k5)" height="30.2969" style="stroke:#A80036;stroke-width:1.5;" width="109" x="1173" y="69.2969"/><text fill="#000000" font-family="sans-serif" font-size="14" lengthAdjust="spacing" textLength="95" x="1180" y="89.292">SP Debtor API</text><rect fill="#FEFECE" filter="url(#f1rb3fwcqys7k5)" height="30.2969" style="stroke:#A80036;stroke-width:1.5;" width="109" x="1173" y="796.5313"/><text fill="#000000" font-family="sans-serif" font-size="14" lengthAdjust="spacing" textLength="95" x="1180" y="816.5264">SP Debtor API</text><rect fill="#FFFFFF" filter="url(#f1rb3fwcqys7k5)" height="646.8047" style="stroke:#A80036;stroke-width:1.0;" width="10" x="366.5" y="140.7266"/><rect fill="#FFFFFF" filter="url(#f1rb3fwcqys7k5)" height="477.4688" style="stroke:#A80036;stroke-width:1.0;" width="10" x="557.5" y="246.125"/><rect fill="#FFFFFF" filter="url(#f1rb3fwcqys7k5)" height="443.3359" style="stroke:#A80036;stroke-width:1.0;" width="10" x="733.5" y="280.2578"/><rect fill="#FFFFFF" filter="url(#f1rb3fwcqys7k5)" height="275.8672" style="stroke:#A80036;stroke-width:1.0;" width="10" x="1224.5" y="367.6563"/><polygon fill="#A80036" points="354.5,136.7266,364.5,140.7266,354.5,144.7266,358.5,140.7266" style="stroke:#A80036;stroke-width:1.0;"/><line style="stroke:#A80036;stroke-width:1.0;" x1="204" x2="360.5" y1="140.7266" y2="140.7266"/><text fill="#000000" font-family="sans-serif" font-size="13" lengthAdjust="spacing" textLength="103" x="211" y="135.6606">Queue Message</text><path d="M5,119.5938 L5,144.5938 L195,144.5938 L195,129.5938 L185,119.5938 L5,119.5938 " fill="#FBFB77" filter="url(#f1rb3fwcqys7k5)" style="stroke:#A80036;stroke-width:1.0;"/><path d="M185,119.5938 L185,129.5938 L195,129.5938 L185,119.5938 " fill="#FBFB77" style="stroke:#A80036;stroke-width:1.0;"/><text fill="#000000" font-family="sans-serif" font-size="13" lengthAdjust="spacing" textLength="169" x="11" y="136.6606">Cancel RTP data from GDP</text><line style="stroke:#A80036;stroke-width:1.0;" x1="376.5" x2="418.5" y1="174.8594" y2="174.8594"/><line style="stroke:#A80036;stroke-width:1.0;" x1="418.5" x2="418.5" y1="174.8594" y2="187.8594"/><line style="stroke:#A80036;stroke-width:1.0;" x1="377.5" x2="418.5" y1="187.8594" y2="187.8594"/><polygon fill="#A80036" points="387.5,183.8594,377.5,187.8594,387.5,191.8594,383.5,187.8594" style="stroke:#A80036;stroke-width:1.0;"/><text fill="#000000" font-family="sans-serif" font-size="13" lengthAdjust="spacing" textLength="167" x="383.5" y="169.7935">Check message operation</text><path d="M562,160.2266 L562,185.2266 L732,185.2266 L732,170.2266 L722,160.2266 L562,160.2266 " fill="#FBFB77" filter="url(#f1rb3fwcqys7k5)" style="stroke:#A80036;stroke-width:1.0;"/><path d="M722,160.2266 L722,170.2266 L732,170.2266 L722,160.2266 " fill="#FBFB77" style="stroke:#A80036;stroke-width:1.0;"/><text fill="#000000" font-family="sans-serif" font-size="13" lengthAdjust="spacing" textLength="149" x="568" y="177.2935">Validate operation type</text><path d="M263,202.8594 L327,202.8594 L327,209.9922 L317,219.9922 L263,219.9922 L263,202.8594 " fill="#EEEEEE" style="stroke:#000000;stroke-width:1.0;"/><rect fill="none" height="577.6719" style="stroke:#000000;stroke-width:2.0;" width="1273.5" x="263" y="202.8594"/><text fill="#000000" font-family="sans-serif" font-size="13" font-weight="bold" lengthAdjust="spacing" textLength="19" x="278" y="215.9263">alt</text><text fill="#000000" font-family="sans-serif" font-size="11" font-weight="bold" lengthAdjust="spacing" textLength="254" x="342" y="215.0698">[message is DELETE/CANCEL operation]</text><polygon fill="#A80036" points="545.5,242.125,555.5,246.125,545.5,250.125,549.5,246.125" style="stroke:#A80036;stroke-width:1.0;"/><line style="stroke:#A80036;stroke-width:1.0;" x1="376.5" x2="551.5" y1="246.125" y2="246.125"/><text fill="#000000" font-family="sans-serif" font-size="13" lengthAdjust="spacing" textLength="101" x="383.5" y="241.0591">cancelRtp(rtpId)</text><path d="M572,224.9922 L572,249.9922 L768,249.9922 L768,234.9922 L758,224.9922 L572,224.9922 " fill="#FBFB77" filter="url(#f1rb3fwcqys7k5)" style="stroke:#A80036;stroke-width:1.0;"/><path d="M758,224.9922 L758,234.9922 L768,234.9922 L758,224.9922 " fill="#FBFB77" style="stroke:#A80036;stroke-width:1.0;"/><text fill="#000000" font-family="sans-serif" font-size="13" lengthAdjust="spacing" textLength="175" x="578" y="242.0591">Extract rtpId from message</text><polygon fill="#A80036" points="721.5,276.2578,731.5,280.2578,721.5,284.2578,725.5,280.2578" style="stroke:#A80036;stroke-width:1.0;"/><line style="stroke:#A80036;stroke-width:1.0;" x1="567.5" x2="727.5" y1="280.2578" y2="280.2578"/><text fill="#000000" font-family="sans-serif" font-size="13" lengthAdjust="spacing" textLength="110" x="574.5" y="275.1919">findRtpById(rtpId)</text><path d="M273,295.2578 L337,295.2578 L337,302.3906 L327,312.3906 L273,312.3906 L273,295.2578 " fill="#EEEEEE" style="stroke:#000000;stroke-width:1.0;"/><rect fill="none" height="421.3359" style="stroke:#000000;stroke-width:2.0;" width="1253.5" x="273" y="295.2578"/><text fill="#000000" font-family="sans-serif" font-size="13" font-weight="bold" lengthAdjust="spacing" textLength="19" x="288" y="308.3247">alt</text><text fill="#000000" font-family="sans-serif" font-size="11" font-weight="bold" lengthAdjust="spacing" textLength="76" x="352" y="307.4683">[RTP exists]</text><polygon fill="#A80036" points="578.5,329.5234,568.5,333.5234,578.5,337.5234,574.5,333.5234" style="stroke:#A80036;stroke-width:1.0;"/><line style="stroke:#A80036;stroke-width:1.0;stroke-dasharray:2.0,2.0;" x1="572.5" x2="732.5" y1="333.5234" y2="333.5234"/><text fill="#000000" font-family="sans-serif" font-size="13" lengthAdjust="spacing" textLength="66" x="584.5" y="328.4575">return RTP</text><polygon fill="#A80036" points="1212.5,363.6563,1222.5,367.6563,1212.5,371.6563,1216.5,367.6563" style="stroke:#A80036;stroke-width:1.0;"/><line style="stroke:#A80036;stroke-width:1.0;" x1="567.5" x2="1218.5" y1="367.6563" y2="367.6563"/><text fill="#000000" font-family="sans-serif" font-size="13" lengthAdjust="spacing" textLength="638" x="574.5" y="362.5903">POST /sepa-request-to-pay-requests/{sepaRequestToPayRequestResourceId}/cancellation-requests</text><path d="M1239,346.5234 L1239,371.5234 L1512,371.5234 L1512,356.5234 L1502,346.5234 L1239,346.5234 " fill="#FBFB77" filter="url(#f1rb3fwcqys7k5)" style="stroke:#A80036;stroke-width:1.0;"/><path d="M1502,346.5234 L1502,356.5234 L1512,356.5234 L1502,346.5234 " fill="#FBFB77" style="stroke:#A80036;stroke-width:1.0;"/><text fill="#000000" font-family="sans-serif" font-size="13" lengthAdjust="spacing" textLength="252" x="1245" y="363.5903">Send cancellation request to SP Debtor</text><path d="M283,387.6563 L347,387.6563 L347,394.7891 L337,404.7891 L283,404.7891 L283,387.6563 " fill="#EEEEEE" style="stroke:#000000;stroke-width:1.0;"/><rect fill="none" height="248.8672" style="stroke:#000000;stroke-width:2.0;" width="1013" x="283" y="387.6563"/><text fill="#000000" font-family="sans-serif" font-size="13" font-weight="bold" lengthAdjust="spacing" textLength="19" x="298" y="400.7231">alt</text><text fill="#000000" font-family="sans-serif" font-size="11" font-weight="bold" lengthAdjust="spacing" textLength="210" x="362" y="399.8667">[SP Debtor accepts cancellation]</text><polygon fill="#A80036" points="578.5,421.9219,568.5,425.9219,578.5,429.9219,574.5,425.9219" style="stroke:#A80036;stroke-width:1.0;"/><line style="stroke:#A80036;stroke-width:1.0;stroke-dasharray:2.0,2.0;" x1="572.5" x2="1223.5" y1="425.9219" y2="425.9219"/><text fill="#000000" font-family="sans-serif" font-size="13" lengthAdjust="spacing" textLength="234" x="584.5" y="420.856">201 Created (Cancellation accepted)</text><line style="stroke:#A80036;stroke-width:1.0;" x1="567.5" x2="609.5" y1="455.0547" y2="455.0547"/><line style="stroke:#A80036;stroke-width:1.0;" x1="609.5" x2="609.5" y1="455.0547" y2="468.0547"/><line style="stroke:#A80036;stroke-width:1.0;" x1="568.5" x2="609.5" y1="468.0547" y2="468.0547"/><polygon fill="#A80036" points="578.5,464.0547,568.5,468.0547,578.5,472.0547,574.5,468.0547" style="stroke:#A80036;stroke-width:1.0;"/><text fill="#000000" font-family="sans-serif" font-size="13" lengthAdjust="spacing" textLength="152" x="574.5" y="449.9888">setStatus("CANCELED")</text><polygon fill="#A80036" points="721.5,493.1875,731.5,497.1875,721.5,501.1875,725.5,497.1875" style="stroke:#A80036;stroke-width:1.0;"/><line style="stroke:#A80036;stroke-width:1.0;" x1="567.5" x2="727.5" y1="497.1875" y2="497.1875"/><text fill="#000000" font-family="sans-serif" font-size="13" lengthAdjust="spacing" textLength="79" x="574.5" y="492.1216">saveRtp(rtp)</text><polygon fill="#A80036" points="578.5,522.3203,568.5,526.3203,578.5,530.3203,574.5,526.3203" style="stroke:#A80036;stroke-width:1.0;"/><line style="stroke:#A80036;stroke-width:1.0;stroke-dasharray:2.0,2.0;" x1="572.5" x2="732.5" y1="526.3203" y2="526.3203"/><text fill="#000000" font-family="sans-serif" font-size="13" lengthAdjust="spacing" textLength="112" x="584.5" y="521.2544">saveConfirmation</text><polygon fill="#A80036" points="387.5,551.4531,377.5,555.4531,387.5,559.4531,383.5,555.4531" style="stroke:#A80036;stroke-width:1.0;"/><line style="stroke:#A80036;stroke-width:1.0;stroke-dasharray:2.0,2.0;" x1="381.5" x2="556.5" y1="555.4531" y2="555.4531"/><text fill="#000000" font-family="sans-serif" font-size="13" lengthAdjust="spacing" textLength="150" x="393.5" y="550.3872">Cancellation completed</text><line style="stroke:#000000;stroke-width:1.0;stroke-dasharray:2.0,2.0;" x1="283" x2="1296" y1="564.4531" y2="564.4531"/><text fill="#000000" font-family="sans-serif" font-size="11" font-weight="bold" lengthAdjust="spacing" textLength="204" x="288" y="574.6636">[SP Debtor rejects cancellation]</text><polygon fill="#A80036" points="578.5,595.3906,568.5,599.3906,578.5,603.3906,574.5,599.3906" style="stroke:#A80036;stroke-width:1.0;"/><line style="stroke:#A80036;stroke-width:1.0;stroke-dasharray:2.0,2.0;" x1="572.5" x2="1223.5" y1="599.3906" y2="599.3906"/><text fill="#000000" font-family="sans-serif" font-size="13" lengthAdjust="spacing" textLength="94" x="584.5" y="594.3247">Error response</text><polygon fill="#A80036" points="387.5,624.5234,377.5,628.5234,387.5,632.5234,383.5,628.5234" style="stroke:#A80036;stroke-width:1.0;"/><line style="stroke:#A80036;stroke-width:1.0;stroke-dasharray:2.0,2.0;" x1="381.5" x2="556.5" y1="628.5234" y2="628.5234"/><text fill="#000000" font-family="sans-serif" font-size="13" lengthAdjust="spacing" textLength="134" x="393.5" y="623.4575">Cancellation rejected</text><line style="stroke:#000000;stroke-width:1.0;stroke-dasharray:2.0,2.0;" x1="273" x2="1526.5" y1="644.5234" y2="644.5234"/><text fill="#000000" font-family="sans-serif" font-size="11" font-weight="bold" lengthAdjust="spacing" textLength="100" x="278" y="654.7339">[RTP not found]</text><polygon fill="#A80036" points="578.5,675.4609,568.5,679.4609,578.5,683.4609,574.5,679.4609" style="stroke:#A80036;stroke-width:1.0;"/><line style="stroke:#A80036;stroke-width:1.0;stroke-dasharray:2.0,2.0;" x1="572.5" x2="732.5" y1="679.4609" y2="679.4609"/><text fill="#000000" font-family="sans-serif" font-size="13" lengthAdjust="spacing" textLength="65" x="584.5" y="674.395">return null</text><polygon fill="#A80036" points="387.5,704.5938,377.5,708.5938,387.5,712.5938,383.5,708.5938" style="stroke:#A80036;stroke-width:1.0;"/><line style="stroke:#A80036;stroke-width:1.0;stroke-dasharray:2.0,2.0;" x1="381.5" x2="556.5" y1="708.5938" y2="708.5938"/><text fill="#000000" font-family="sans-serif" font-size="13" lengthAdjust="spacing" textLength="88" x="393.5" y="703.5278">RTP not found</text><line style="stroke:#000000;stroke-width:1.0;stroke-dasharray:2.0,2.0;" x1="263" x2="1536.5" y1="724.5938" y2="724.5938"/><text fill="#000000" font-family="sans-serif" font-size="11" font-weight="bold" lengthAdjust="spacing" textLength="279" x="268" y="734.8042">[message is not DELETE/CANCEL operation]</text><line style="stroke:#A80036;stroke-width:1.0;" x1="376.5" x2="418.5" y1="759.5313" y2="759.5313"/><line style="stroke:#A80036;stroke-width:1.0;" x1="418.5" x2="418.5" y1="759.5313" y2="772.5313"/><line style="stroke:#A80036;stroke-width:1.0;" x1="377.5" x2="418.5" y1="772.5313" y2="772.5313"/><polygon fill="#A80036" points="387.5,768.5313,377.5,772.5313,387.5,776.5313,383.5,772.5313" style="stroke:#A80036;stroke-width:1.0;"/><text fill="#000000" font-family="sans-serif" font-size="13" lengthAdjust="spacing" textLength="100" x="383.5" y="754.4653">Skip processing</text><path d="M495,744.8984 L495,769.8984 L668,769.8984 L668,754.8984 L658,744.8984 L495,744.8984 " fill="#FBFB77" filter="url(#f1rb3fwcqys7k5)" style="stroke:#A80036;stroke-width:1.0;"/><path d="M658,744.8984 L658,754.8984 L668,754.8984 L658,744.8984 " fill="#FBFB77" style="stroke:#A80036;stroke-width:1.0;"/><text fill="#000000" font-family="sans-serif" font-size="13" lengthAdjust="spacing" textLength="152" x="501" y="761.9653">Different operation type</text><!--SRC=[bLHBZzem4BxdLumuiGT4soE7IWk9AgHjcnBKkzUPiEu6sxKdQ57L_ru_yd3GhjJb00wUxp6V9xRFGe9H5ZCIr2BicEJOmk5OGcaKHslX8XYKxAHA1b_o4dvqs67sst_3ulR_1J3RLsXcI72XcIHOV7L4xEJebRJT6Kse6nxcfLwwGdCHFBBrwwncn1wPHSY7XTlCjtDmLKAEZwGCt9Vx22zpjyooO0fMdqVLJVG9lRLCAa9eiQ5D6e9NXSQei-ynOvp4XT7KHpOiviox9-JFSEwRLXeD8w5ar33YzEH4Vh9Mr9vht0QwQinOIoDIk0wBX-9Oh7VtttR5GqAL2lSHRO07umVIIqDwNz_D18iNCgu125knfrvdwci8k__rvFbs0usGjMFTNlVrm3n2t15uopuiV16MR0RkaszXbJepI9sHlYfiXwz499xI1ihlrH7M5ZLR6NGpPcb5QgNPTNYqwpz-zn2VZcxuhltwW5PrXkE-_hkEERGXgH4PDDD0AfGrfANGbm8f62SfmAQ0uZYDFVZMfw5ZdACcEoCDPQ7T09t7ykd3HzWPTCmrB7UfbKY5Bka1Fn4bkGr45gaYHfrTBkAe5FdYxZM4FqxBBjWFoLHpUsA-o0rP8ypvfe-1R3xogNckphf5vpw0iBMOX6Jm5_BtX5GO4s1MEpLyZuyeDTYGzNHkDRvwfC6g7sKt9z2eheUyCSsoQzliRIjp7Y-VgBhN9lNGltT1FtdxFVn_Re19j7eM6dIykeKypMw0N3GD6dGNvSsTS-DjOFi7]--></g></svg>