<?xml version="1.0" encoding="us-ascii" standalone="no"?><svg xmlns="http://www.w3.org/2000/svg" xmlns:xlink="http://www.w3.org/1999/xlink" contentStyleType="text/css" height="1290.625px" preserveAspectRatio="none" style="width:1466px;height:1290px;" version="1.1" viewBox="0 0 1466 1290" width="1466.6667px" zoomAndPan="magnify"><defs><filter height="300%" id="fuwh3gi7mes4q" width="300%" x="-1" y="-1"><feGaussianBlur result="blurOut" stdDeviation="2.0833333333333335"/><feColorMatrix in="blurOut" result="blurOut2" type="matrix" values="0 0 0 0 0 0 0 0 0 0 0 0 0 0 0 0 0 0 .4 0"/><feOffset dx="4.166666666666667" dy="4.166666666666667" in="blurOut2" result="blurOut3"/><feBlend in="SourceGraphic" in2="blurOut3" mode="normal"/></filter><linearGradient id="guwh3gi7mes4q0" x1="50%" x2="50%" y1="0%" y2="100%"><stop offset="0%" stop-color="#FFFFFF"/><stop offset="100%" stop-color="#FFFFFF"/></linearGradient><linearGradient id="guwh3gi7mes4q1" x1="50%" x2="50%" y1="0%" y2="100%"><stop offset="0%" stop-color="#4DABF5"/><stop offset="100%" stop-color="#2196F3"/></linearGradient><linearGradient id="guwh3gi7mes4q2" x1="50%" x2="50%" y1="0%" y2="100%"><stop offset="0%" stop-color="#B052C0"/><stop offset="100%" stop-color="#9C27B0"/></linearGradient></defs><g><rect fill="#FFFFFF" filter="url(#fuwh3gi7mes4q)" height="713.0208" style="stroke:#CCCCCC;stroke-width:1.0416666666666667;" width="10.4167" x="286.9792" y="164.5182"/><rect fill="#FFFFFF" filter="url(#fuwh3gi7mes4q)" height="553.7435" style="stroke:#CCCCCC;stroke-width:1.0416666666666667;" width="10.4167" x="555.7292" y="273.8281"/><rect fill="#FFFFFF" filter="url(#fuwh3gi7mes4q)" height="114.4857" style="stroke:#CCCCCC;stroke-width:1.0416666666666667;" width="10.4167" x="819.7917" y="323.7956"/><rect fill="#FFFFFF" filter="url(#fuwh3gi7mes4q)" height="114.4857" style="stroke:#CCCCCC;stroke-width:1.0416666666666667;" width="10.4167" x="1082.8125" y="575.6836"/><rect fill="#FFFFFF" filter="url(#fuwh3gi7mes4q)" height="49.9674" style="stroke:#CCCCCC;stroke-width:1.0416666666666667;" width="10.4167" x="1326.0417" y="1056.5755"/><rect fill="url(#guwh3gi7mes4q0)" filter="url(#fuwh3gi7mes4q)" height="553.7435" rx="4.1667" ry="4.1667" style="stroke:#2196F3;stroke-width:1.0416666666666667;" width="1213.0208" x="20.8333" y="339.4206"/><path d="M20.8333,446.6146 L1233.8542,446.6146 L1233.8542,888.9974 A4.1667,4.1667 0 0 1 1229.6875,893.1641 L25,893.1641 A4.1667,4.1667 0 0 1 20.8333,888.9974 L20.8333,446.6146 " fill="url(#guwh3gi7mes4q0)" style="stroke:none;stroke-width:1.0416666666666667;"/><rect fill="url(#guwh3gi7mes4q0)" filter="url(#fuwh3gi7mes4q)" height="294.5638" rx="4.1667" ry="4.1667" style="stroke:#2196F3;stroke-width:1.0416666666666667;" width="1192.1875" x="31.25" y="591.3086"/><path d="M31.25,698.5026 L1223.4375,698.5026 L1223.4375,881.7057 A4.1667,4.1667 0 0 1 1219.2708,885.8724 L35.4167,885.8724 A4.1667,4.1667 0 0 1 31.25,881.7057 L31.25,698.5026 " fill="url(#guwh3gi7mes4q0)" style="stroke:none;stroke-width:1.0416666666666667;"/><rect fill="url(#guwh3gi7mes4q0)" filter="url(#fuwh3gi7mes4q)" height="257.0964" rx="4.1667" ry="4.1667" style="stroke:#2196F3;stroke-width:1.0416666666666667;" width="1418.2292" x="31.25" y="907.7474"/><line style="stroke:#CCCCCC;stroke-width:1.0416666666666667;stroke-dasharray:5.0,5.0;" x1="72.9167" x2="72.9167" y1="112.4674" y2="1182.5521"/><line style="stroke:#CCCCCC;stroke-width:1.0416666666666667;stroke-dasharray:5.0,5.0;" x1="292.1875" x2="292.1875" y1="112.4674" y2="1182.5521"/><line style="stroke:#CCCCCC;stroke-width:1.0416666666666667;stroke-dasharray:5.0,5.0;" x1="560.9375" x2="560.9375" y1="112.4674" y2="1182.5521"/><line style="stroke:#CCCCCC;stroke-width:1.0416666666666667;stroke-dasharray:5.0,5.0;" x1="824.4792" x2="824.4792" y1="112.4674" y2="1182.5521"/><line style="stroke:#CCCCCC;stroke-width:1.0416666666666667;stroke-dasharray:5.0,5.0;" x1="1088.0208" x2="1088.0208" y1="112.4674" y2="1182.5521"/><line style="stroke:#CCCCCC;stroke-width:1.0416666666666667;stroke-dasharray:5.0,5.0;" x1="1330.7292" x2="1330.7292" y1="112.4674" y2="1182.5521"/><text fill="#222222" font-family="Verdana" font-size="12.5" lengthAdjust="spacing" textLength="36.4583" x="52.0833" y="99.1028">Client</text><ellipse cx="73.4375" cy="19.7917" fill="url(#guwh3gi7mes4q1)" filter="url(#fuwh3gi7mes4q)" rx="8.3333" ry="8.3333" style="stroke:#2196F3;stroke-width:1.0416666666666667;"/><path d="M73.4375,28.125 L73.4375,56.25 M59.8958,36.4583 L86.9792,36.4583 M73.4375,56.25 L59.8958,71.875 M73.4375,56.25 L86.9792,71.875 " fill="none" filter="url(#fuwh3gi7mes4q)" style="stroke:#2196F3;stroke-width:1.0416666666666667;"/><text fill="#222222" font-family="Verdana" font-size="12.5" lengthAdjust="spacing" textLength="36.4583" x="52.0833" y="1203.5299">Client</text><ellipse cx="73.4375" cy="1226.2695" fill="url(#guwh3gi7mes4q1)" filter="url(#fuwh3gi7mes4q)" rx="8.3333" ry="8.3333" style="stroke:#2196F3;stroke-width:1.0416666666666667;"/><path d="M73.4375,1234.6029 L73.4375,1262.7279 M59.8958,1242.9362 L86.9792,1242.9362 M73.4375,1262.7279 L59.8958,1278.3529 M73.4375,1262.7279 L86.9792,1278.3529 " fill="none" filter="url(#fuwh3gi7mes4q)" style="stroke:#2196F3;stroke-width:1.0416666666666667;"/><rect fill="url(#guwh3gi7mes4q1)" filter="url(#fuwh3gi7mes4q)" height="49.9674" rx="4.1667" ry="4.1667" style="stroke:#2196F3;stroke-width:1.0416666666666667;" width="178.125" x="201.5625" y="58.3333"/><text fill="#FFFFFF" font-family="Verdana" font-size="12.5" lengthAdjust="spacing" textLength="142.7083" x="219.2708" y="87.6444">SendAPIControllerImpl</text><rect fill="url(#guwh3gi7mes4q1)" filter="url(#fuwh3gi7mes4q)" height="49.9674" rx="4.1667" ry="4.1667" style="stroke:#2196F3;stroke-width:1.0416666666666667;" width="178.125" x="201.5625" y="1181.5104"/><text fill="#FFFFFF" font-family="Verdana" font-size="12.5" lengthAdjust="spacing" textLength="142.7083" x="219.2708" y="1210.8215">SendAPIControllerImpl</text><rect fill="url(#guwh3gi7mes4q1)" filter="url(#fuwh3gi7mes4q)" height="49.9674" rx="4.1667" ry="4.1667" style="stroke:#2196F3;stroke-width:1.0416666666666667;" width="165.625" x="476.5625" y="58.3333"/><text fill="#FFFFFF" font-family="Verdana" font-size="12.5" lengthAdjust="spacing" textLength="130.2083" x="494.2708" y="87.6444">SendRTPServiceImpl</text><rect fill="url(#guwh3gi7mes4q1)" filter="url(#fuwh3gi7mes4q)" height="49.9674" rx="4.1667" ry="4.1667" style="stroke:#2196F3;stroke-width:1.0416666666666667;" width="165.625" x="476.5625" y="1181.5104"/><text fill="#FFFFFF" font-family="Verdana" font-size="12.5" lengthAdjust="spacing" textLength="130.2083" x="494.2708" y="1210.8215">SendRTPServiceImpl</text><rect fill="url(#guwh3gi7mes4q1)" filter="url(#fuwh3gi7mes4q)" height="64.5182" rx="4.1667" ry="4.1667" style="stroke:#2196F3;stroke-width:1.0416666666666667;" width="168.75" x="739.0625" y="43.7826"/><text fill="#FFFFFF" font-family="Verdana" font-size="12.5" lengthAdjust="spacing" textLength="90.625" x="778.125" y="73.0937">RtpRepository</text><text fill="#FFFFFF" font-family="Verdana" font-size="12.5" lengthAdjust="spacing" textLength="133.3333" x="756.7708" y="87.6444">(Cosmos API Mongo)</text><rect fill="url(#guwh3gi7mes4q1)" filter="url(#fuwh3gi7mes4q)" height="64.5182" rx="4.1667" ry="4.1667" style="stroke:#2196F3;stroke-width:1.0416666666666667;" width="168.75" x="739.0625" y="1181.5104"/><text fill="#FFFFFF" font-family="Verdana" font-size="12.5" lengthAdjust="spacing" textLength="90.625" x="778.125" y="1210.8215">RtpRepository</text><text fill="#FFFFFF" font-family="Verdana" font-size="12.5" lengthAdjust="spacing" textLength="133.3333" x="756.7708" y="1225.3723">(Cosmos API Mongo)</text><rect fill="url(#guwh3gi7mes4q1)" filter="url(#fuwh3gi7mes4q)" height="49.9674" rx="4.1667" ry="4.1667" style="stroke:#2196F3;stroke-width:1.0416666666666667;" width="163.5417" x="1004.6875" y="58.3333"/><text fill="#FFFFFF" font-family="Verdana" font-size="12.5" lengthAdjust="spacing" textLength="128.125" x="1022.3958" y="87.6444">Azure Data Explorer</text><rect fill="url(#guwh3gi7mes4q1)" filter="url(#fuwh3gi7mes4q)" height="49.9674" rx="4.1667" ry="4.1667" style="stroke:#2196F3;stroke-width:1.0416666666666667;" width="163.5417" x="1004.6875" y="1181.5104"/><text fill="#FFFFFF" font-family="Verdana" font-size="12.5" lengthAdjust="spacing" textLength="128.125" x="1022.3958" y="1210.8215">Azure Data Explorer</text><rect fill="url(#guwh3gi7mes4q1)" filter="url(#fuwh3gi7mes4q)" height="49.9674" rx="4.1667" ry="4.1667" style="stroke:#2196F3;stroke-width:1.0416666666666667;" width="129.1667" x="1265.1042" y="58.3333"/><text fill="#FFFFFF" font-family="Verdana" font-size="12.5" lengthAdjust="spacing" textLength="93.75" x="1282.8125" y="87.6444">RtpDtoMapper</text><rect fill="url(#guwh3gi7mes4q1)" filter="url(#fuwh3gi7mes4q)" height="49.9674" rx="4.1667" ry="4.1667" style="stroke:#2196F3;stroke-width:1.0416666666666667;" width="129.1667" x="1265.1042" y="1181.5104"/><text fill="#FFFFFF" font-family="Verdana" font-size="12.5" lengthAdjust="spacing" textLength="93.75" x="1282.8125" y="1210.8215">RtpDtoMapper</text><rect fill="#FFFFFF" filter="url(#fuwh3gi7mes4q)" height="713.0208" style="stroke:#CCCCCC;stroke-width:1.0416666666666667;" width="10.4167" x="286.9792" y="164.5182"/><rect fill="#FFFFFF" filter="url(#fuwh3gi7mes4q)" height="553.7435" style="stroke:#CCCCCC;stroke-width:1.0416666666666667;" width="10.4167" x="555.7292" y="273.8281"/><rect fill="#FFFFFF" filter="url(#fuwh3gi7mes4q)" height="114.4857" style="stroke:#CCCCCC;stroke-width:1.0416666666666667;" width="10.4167" x="819.7917" y="323.7956"/><rect fill="#FFFFFF" filter="url(#fuwh3gi7mes4q)" height="114.4857" style="stroke:#CCCCCC;stroke-width:1.0416666666666667;" width="10.4167" x="1082.8125" y="575.6836"/><rect fill="#FFFFFF" filter="url(#fuwh3gi7mes4q)" height="49.9674" style="stroke:#CCCCCC;stroke-width:1.0416666666666667;" width="10.4167" x="1326.0417" y="1056.5755"/><polygon fill="#2196F3" points="274.4792,160.3516,284.8958,164.5182,274.4792,168.6849,278.6458,164.5182" style="stroke:#2196F3;stroke-width:1.0416666666666667;"/><line style="stroke:#2196F3;stroke-width:3.125;" x1="73.4375" x2="280.7292" y1="164.5182" y2="164.5182"/><text fill="#222222" font-family="Verdana" font-size="12.5" lengthAdjust="spacing" textLength="110.4167" x="91.1458" y="149.0702">GET /rtps/{rtpId}</text><path d="M302.0833,182.2266 L302.0833,218.6849 A4.1667,4.1667 0 0 0 306.25,222.8516 L619.7917,222.8516 A4.1667,4.1667 0 0 0 623.9583,218.6849 L623.9583,188.4766 L613.5417,178.0599 L306.25,178.0599 A4.1667,4.1667 0 0 0 302.0833,182.2266 " fill="url(#guwh3gi7mes4q2)" filter="url(#fuwh3gi7mes4q)" style="stroke:#9C27B0;stroke-width:1.0416666666666667;"/><path d="M613.5417,178.0599 L613.5417,186.3932 A2.0833,2.0833 0 0 0 615.625,188.4766 L623.9583,188.4766 L613.5417,178.0599 " fill="url(#guwh3gi7mes4q2)" style="stroke:#9C27B0;stroke-width:1.0416666666666667;"/><text fill="#FFFFFF" font-family="Verdana" font-size="12.5" lengthAdjust="spacing" textLength="279.1667" x="318.75" y="205.2877">@PreAuthorize("hasRole('read_rtp_send')")</text><polygon fill="#2196F3" points="543.2292,269.6615,553.6458,273.8281,543.2292,277.9948,547.3958,273.8281" style="stroke:#2196F3;stroke-width:1.0416666666666667;"/><line style="stroke:#2196F3;stroke-width:3.125;" x1="297.3958" x2="549.4792" y1="273.8281" y2="273.8281"/><text fill="#222222" font-family="Verdana" font-size="12.5" lengthAdjust="spacing" textLength="86.4583" x="315.1042" y="258.3801">findRtp(rtpId)</text><polygon fill="#2196F3" points="807.2917,319.6289,817.7083,323.7956,807.2917,327.9622,811.4583,323.7956" style="stroke:#2196F3;stroke-width:1.0416666666666667;"/><line style="stroke:#2196F3;stroke-width:3.125;" x1="566.1458" x2="813.5417" y1="323.7956" y2="323.7956"/><text fill="#222222" font-family="Verdana" font-size="12.5" lengthAdjust="spacing" textLength="134.375" x="583.8542" y="308.3476">findById(ResourceID)</text><path d="M25,339.4206 L108.3333,339.4206 L108.3333,366.4714 L97.9167,376.888 L20.8333,376.888 L20.8333,343.5872 A4.1667,4.1667 0 0 1 25,339.4206 " fill="#FFFFFF" style="stroke:#666666;stroke-width:1.0416666666666667;"/><rect fill="none" height="553.7435" rx="4.1667" ry="4.1667" style="stroke:#2196F3;stroke-width:1.0416666666666667;" width="1213.0208" x="20.8333" y="339.4206"/><text fill="#9C27B0" font-family="Verdana" font-size="12.5" font-weight="bold" lengthAdjust="spacing" textLength="19.7917" x="46.875" y="362.4817">alt</text><text fill="#222222" font-family="Verdana" font-size="12.5" font-weight="bold" lengthAdjust="spacing" textLength="163.5417" x="134.375" y="363.5234">[RTP found in Cosmos]</text><polygon fill="#2196F3" points="577.6042,434.1146,567.1875,438.2813,577.6042,442.4479,573.4375,438.2813" style="stroke:#2196F3;stroke-width:1.0416666666666667;"/><line style="stroke:#2196F3;stroke-width:3.125;stroke-dasharray:2.0,2.0;" x1="571.3542" x2="823.9583" y1="438.2813" y2="438.2813"/><text fill="#222222" font-family="Verdana" font-size="12.5" lengthAdjust="spacing" textLength="78.125" x="594.2708" y="422.8333">Mono&lt;Rtp&gt;</text><line style="stroke:#2196F3;stroke-width:1.0416666666666667;stroke-dasharray:2.0,2.0;" x1="20.8333" x2="1233.8542" y1="447.6563" y2="447.6563"/><text fill="#222222" font-family="Verdana" font-size="12.5" font-weight="bold" lengthAdjust="spacing" textLength="192.7083" x="36.4583" y="469.6757">[RTP not found in Cosmos]</text><polygon fill="#2196F3" points="577.6042,521.5495,567.1875,525.7161,577.6042,529.8828,573.4375,525.7161" style="stroke:#2196F3;stroke-width:1.0416666666666667;"/><line style="stroke:#2196F3;stroke-width:3.125;stroke-dasharray:2.0,2.0;" x1="571.3542" x2="823.9583" y1="525.7161" y2="525.7161"/><text fill="#222222" font-family="Verdana" font-size="12.5" lengthAdjust="spacing" textLength="89.5833" x="594.2708" y="510.2681">Mono.empty()</text><polygon fill="#2196F3" points="1070.3125,571.5169,1080.7292,575.6836,1070.3125,579.8503,1074.4792,575.6836" style="stroke:#2196F3;stroke-width:1.0416666666666667;"/><line style="stroke:#2196F3;stroke-width:3.125;" x1="566.1458" x2="1076.5625" y1="575.6836" y2="575.6836"/><text fill="#222222" font-family="Verdana" font-size="12.5" lengthAdjust="spacing" textLength="86.4583" x="583.8542" y="560.2356">findRtp(rtpId)</text><path d="M35.4167,591.3086 L118.75,591.3086 L118.75,618.3594 L108.3333,628.776 L31.25,628.776 L31.25,595.4753 A4.1667,4.1667 0 0 1 35.4167,591.3086 " fill="#FFFFFF" style="stroke:#666666;stroke-width:1.0416666666666667;"/><rect fill="none" height="294.5638" rx="4.1667" ry="4.1667" style="stroke:#2196F3;stroke-width:1.0416666666666667;" width="1192.1875" x="31.25" y="591.3086"/><text fill="#9C27B0" font-family="Verdana" font-size="12.5" font-weight="bold" lengthAdjust="spacing" textLength="19.7917" x="57.2917" y="614.3697">alt</text><text fill="#222222" font-family="Verdana" font-size="12.5" font-weight="bold" lengthAdjust="spacing" textLength="253.125" x="144.7917" y="615.4114">[RTP found in Azure Data Explorer]</text><polygon fill="#2196F3" points="577.6042,686.0026,567.1875,690.1693,577.6042,694.3359,573.4375,690.1693" style="stroke:#2196F3;stroke-width:1.0416666666666667;"/><line style="stroke:#2196F3;stroke-width:3.125;stroke-dasharray:2.0,2.0;" x1="571.3542" x2="1086.9792" y1="690.1693" y2="690.1693"/><text fill="#222222" font-family="Verdana" font-size="12.5" lengthAdjust="spacing" textLength="78.125" x="594.2708" y="674.7213">Mono&lt;Rtp&gt;</text><line style="stroke:#2196F3;stroke-width:1.0416666666666667;stroke-dasharray:2.0,2.0;" x1="31.25" x2="1223.4375" y1="699.5443" y2="699.5443"/><text fill="#222222" font-family="Verdana" font-size="12.5" font-weight="bold" lengthAdjust="spacing" textLength="282.2917" x="46.875" y="721.5637">[RTP not found in Azure Data Explorer]</text><polygon fill="#2196F3" points="577.6042,773.4375,567.1875,777.6042,577.6042,781.7708,573.4375,777.6042" style="stroke:#2196F3;stroke-width:1.0416666666666667;"/><line style="stroke:#2196F3;stroke-width:3.125;stroke-dasharray:2.0,2.0;" x1="571.3542" x2="1086.9792" y1="777.6042" y2="777.6042"/><text fill="#222222" font-family="Verdana" font-size="12.5" lengthAdjust="spacing" textLength="89.5833" x="594.2708" y="762.1562">Mono.empty()</text><polygon fill="#2196F3" points="308.8542,823.4049,298.4375,827.5716,308.8542,831.7383,304.6875,827.5716" style="stroke:#2196F3;stroke-width:1.0416666666666667;"/><line style="stroke:#2196F3;stroke-width:3.125;stroke-dasharray:2.0,2.0;" x1="302.6042" x2="559.8958" y1="827.5716" y2="827.5716"/><text fill="#222222" font-family="Verdana" font-size="12.5" lengthAdjust="spacing" textLength="191.6667" x="325.5208" y="812.1236">error(RtpNotFoundException)</text><polygon fill="#2196F3" points="84.8958,873.3724,74.4792,877.5391,84.8958,881.7057,80.7292,877.5391" style="stroke:#2196F3;stroke-width:1.0416666666666667;"/><line style="stroke:#2196F3;stroke-width:3.125;stroke-dasharray:2.0,2.0;" x1="78.6458" x2="291.1458" y1="877.5391" y2="877.5391"/><text fill="#222222" font-family="Verdana" font-size="12.5" lengthAdjust="spacing" textLength="167.7083" x="101.5625" y="862.0911">422 Unprocessable Entity</text><path d="M35.4167,907.7474 L118.75,907.7474 L118.75,934.7982 L108.3333,945.2148 L31.25,945.2148 L31.25,911.9141 A4.1667,4.1667 0 0 1 35.4167,907.7474 " fill="#FFFFFF" style="stroke:#666666;stroke-width:1.0416666666666667;"/><rect fill="none" height="257.0964" rx="4.1667" ry="4.1667" style="stroke:#2196F3;stroke-width:1.0416666666666667;" width="1418.2292" x="31.25" y="907.7474"/><text fill="#9C27B0" font-family="Verdana" font-size="12.5" font-weight="bold" lengthAdjust="spacing" textLength="19.7917" x="57.2917" y="930.8085">alt</text><text fill="#222222" font-family="Verdana" font-size="12.5" font-weight="bold" lengthAdjust="spacing" textLength="178.125" x="144.7917" y="931.8502">[RTP successfully found]</text><polygon fill="#2196F3" points="303.6458,1002.4414,293.2292,1006.6081,303.6458,1010.7747,299.4792,1006.6081" style="stroke:#2196F3;stroke-width:1.0416666666666667;"/><line style="stroke:#2196F3;stroke-width:3.125;stroke-dasharray:2.0,2.0;" x1="297.3958" x2="559.8958" y1="1006.6081" y2="1006.6081"/><text fill="#222222" font-family="Verdana" font-size="12.5" lengthAdjust="spacing" textLength="78.125" x="320.3125" y="991.1601">Mono&lt;Rtp&gt;</text><polygon fill="#2196F3" points="1313.5417,1052.4089,1323.9583,1056.5755,1313.5417,1060.7422,1317.7083,1056.5755" style="stroke:#2196F3;stroke-width:1.0416666666666667;"/><line style="stroke:#2196F3;stroke-width:3.125;" x1="292.1875" x2="1319.7917" y1="1056.5755" y2="1056.5755"/><text fill="#222222" font-family="Verdana" font-size="12.5" lengthAdjust="spacing" textLength="90.625" x="309.8958" y="1041.1275">toRtpDto(Rtp)</text><polygon fill="#2196F3" points="303.6458,1102.3763,293.2292,1106.543,303.6458,1110.7096,299.4792,1106.543" style="stroke:#2196F3;stroke-width:1.0416666666666667;"/><line style="stroke:#2196F3;stroke-width:3.125;stroke-dasharray:2.0,2.0;" x1="297.3958" x2="1330.2083" y1="1106.543" y2="1106.543"/><text fill="#222222" font-family="Verdana" font-size="12.5" lengthAdjust="spacing" textLength="44.7917" x="320.3125" y="1091.095">RtpDto</text><polygon fill="#2196F3" points="84.8958,1152.3438,74.4792,1156.5104,84.8958,1160.6771,80.7292,1156.5104" style="stroke:#2196F3;stroke-width:1.0416666666666667;"/><line style="stroke:#2196F3;stroke-width:3.125;stroke-dasharray:2.0,2.0;" x1="78.6458" x2="291.1458" y1="1156.5104" y2="1156.5104"/><text fill="#222222" font-family="Verdana" font-size="12.5" lengthAdjust="spacing" textLength="166.6667" x="101.5625" y="1141.0624">ResponseEntity&lt;RtpDto&gt;</text><!--SRC=[bPHDQzj048Rl-XLJNo8Vaa3eAOHGrtQA3od6II67GjXAutXXlRFiZaASql_UMQqiIxPZYC167pFllFFix7xX5QuHrehHQvLbgc3oC1WRZPO7e0AasymfpxhGJbc6mGFQSZIVZSco9sFGpzREfEZsrM76ud7-WFvL5zY6Dy_zs0Mx1JeAMgniVjjyJ65D0QGWt9DzeM6TkWlfPu_UAuymKQnW-kOCUVHr_6ZoT51cmdIld6iYqcsMfOxX_BRJ3Lp3Z-aZN7fsuVAl_C_AVn6MVXLotQujoRFNBoi6MlO5liqzZYfUaTVlc0zMAYp8O7xcKPNF8laS1DBPS30K2xiyiT5G4ecb5epiyjh0S6TWop7RXahM3b2J-7qpA_C51ggyBC6aazvXcId382i5Iwfi2Tf2mf-1N1t9yvulMHUw4MEtTLY9HvNH1AobXT7dvIzmxNYJ3qzLY9yw16J93vd5c3Ov3aLwiz_raJ6g0-CLTK_rl-UmBN8SmEShzL1yLAp7Od-MqNlokHZ-INmNZKpV2dIioHuLRSTh-wqxdr4xxPXh-7fr1R-iyrHW2EgFGPXQrhmv9jhPD3KSMsRnrmvWg8geigoCsIHQsScUFfp1dll-pafRNfAPqd4GcUpDI7Cin7TD-47fbBjVTtkUd08csz6H3PWmtIIXWmuwg2AY_m00]--></g></svg>