<svg xmlns="http://www.w3.org/2000/svg" xmlns:xlink="http://www.w3.org/1999/xlink" contentStyleType="text/css" data-diagram-type="SEQUENCE" height="629px" preserveAspectRatio="none" style="width:782px;height:629px;background:#FFFFFF;" version="1.1" viewBox="0 0 782 629" width="782px" zoomAndPan="magnify"><defs/><g><g><title>SendAPIControllerImpl</title><rect fill="#FFFFFF" height="298.1055" style="stroke:#181818;stroke-width:1;" width="10" x="226.853" y="112.7988"/></g><g><title>SendRTPServiceImpl</title><rect fill="#FFFFFF" height="145.5527" style="stroke:#181818;stroke-width:1;" width="10" x="435.2588" y="177.4199"/></g><g><title>RtpRepository</title><rect fill="#FFFFFF" height="29.3105" style="stroke:#181818;stroke-width:1;" width="10" x="594.5444" y="206.7305"/></g><g><title>RtpDtoMapper</title><rect fill="#FFFFFF" height="29.3105" style="stroke:#181818;stroke-width:1;" width="10" x="715.1396" y="352.2832"/></g><rect fill="none" height="105.2422" style="stroke:#000000;stroke-width:1.5;" width="654.0576" x="10" y="425.9043"/><g><title>Client</title><rect fill="#000000" fill-opacity="0.00000" height="466.6582" width="8" x="38.7524" y="81.4883"/><line style="stroke:#181818;stroke-width:0.5;stroke-dasharray:5.0,5.0;" x1="42" x2="42" y1="81.4883" y2="548.1465"/></g><g><title>SendAPIControllerImpl</title><rect fill="#000000" fill-opacity="0.00000" height="466.6582" width="8" x="227.853" y="81.4883"/><line style="stroke:#181818;stroke-width:0.5;stroke-dasharray:5.0,5.0;" x1="231.6563" x2="231.6563" y1="81.4883" y2="548.1465"/></g><g><title>SendRTPServiceImpl</title><rect fill="#000000" fill-opacity="0.00000" height="466.6582" width="8" x="436.2588" y="81.4883"/><line style="stroke:#181818;stroke-width:0.5;stroke-dasharray:5.0,5.0;" x1="439.4702" x2="439.4702" y1="81.4883" y2="548.1465"/></g><g><title>RtpRepository</title><rect fill="#000000" fill-opacity="0.00000" height="466.6582" width="8" x="595.5444" y="81.4883"/><line style="stroke:#181818;stroke-width:0.5;stroke-dasharray:5.0,5.0;" x1="599.0313" x2="599.0313" y1="81.4883" y2="548.1465"/></g><g><title>RtpDtoMapper</title><rect fill="#000000" fill-opacity="0.00000" height="466.6582" width="8" x="716.1396" y="81.4883"/><line style="stroke:#181818;stroke-width:0.5;stroke-dasharray:5.0,5.0;" x1="720.0576" x2="720.0576" y1="81.4883" y2="548.1465"/></g><g class="participant participant-head"><text fill="#000000" font-family="sans-serif" font-size="14" lengthAdjust="spacing" textLength="39.5049" x="20" y="78.5352">Client</text><ellipse cx="42.7524" cy="13.5" fill="#E2E2F0" rx="8" ry="8" style="stroke:#181818;stroke-width:0.5;"/><path d="M42.7524,21.5 L42.7524,48.5 M29.7524,29.5 L55.7524,29.5 M42.7524,48.5 L29.7524,63.5 M42.7524,48.5 L55.7524,63.5" fill="none" style="stroke:#181818;stroke-width:0.5;"/></g><g class="participant participant-tail"><text fill="#000000" font-family="sans-serif" font-size="14" lengthAdjust="spacing" textLength="39.5049" x="20" y="560.6816">Client</text><ellipse cx="42.7524" cy="572.1348" fill="#E2E2F0" rx="8" ry="8" style="stroke:#181818;stroke-width:0.5;"/><path d="M42.7524,580.1348 L42.7524,607.1348 M29.7524,588.1348 L55.7524,588.1348 M42.7524,607.1348 L29.7524,622.1348 M42.7524,607.1348 L55.7524,622.1348" fill="none" style="stroke:#181818;stroke-width:0.5;"/></g><g class="participant participant-head"><rect fill="#E2E2F0" height="30.4883" rx="2.5" ry="2.5" style="stroke:#181818;stroke-width:0.5;" width="166.3936" x="148.6563" y="50"/><text fill="#000000" font-family="sans-serif" font-size="14" lengthAdjust="spacing" textLength="152.3936" x="155.6563" y="70.5352">SendAPIControllerImpl</text></g><g class="participant participant-tail"><rect fill="#E2E2F0" height="30.4883" rx="2.5" ry="2.5" style="stroke:#181818;stroke-width:0.5;" width="166.3936" x="148.6563" y="547.1465"/><text fill="#000000" font-family="sans-serif" font-size="14" lengthAdjust="spacing" textLength="152.3936" x="155.6563" y="567.6816">SendAPIControllerImpl</text></g><g class="participant participant-head"><rect fill="#E2E2F0" height="30.4883" rx="2.5" ry="2.5" style="stroke:#181818;stroke-width:0.5;" width="149.5771" x="365.4702" y="50"/><text fill="#000000" font-family="sans-serif" font-size="14" lengthAdjust="spacing" textLength="135.5771" x="372.4702" y="70.5352">SendRTPServiceImpl</text></g><g class="participant participant-tail"><rect fill="#E2E2F0" height="30.4883" rx="2.5" ry="2.5" style="stroke:#181818;stroke-width:0.5;" width="149.5771" x="365.4702" y="547.1465"/><text fill="#000000" font-family="sans-serif" font-size="14" lengthAdjust="spacing" textLength="135.5771" x="372.4702" y="567.6816">SendRTPServiceImpl</text></g><g class="participant participant-head"><rect fill="#E2E2F0" height="30.4883" rx="2.5" ry="2.5" style="stroke:#181818;stroke-width:0.5;" width="109.0264" x="545.0313" y="50"/><text fill="#000000" font-family="sans-serif" font-size="14" lengthAdjust="spacing" textLength="95.0264" x="552.0313" y="70.5352">RtpRepository</text></g><g class="participant participant-tail"><rect fill="#E2E2F0" height="30.4883" rx="2.5" ry="2.5" style="stroke:#181818;stroke-width:0.5;" width="109.0264" x="545.0313" y="547.1465"/><text fill="#000000" font-family="sans-serif" font-size="14" lengthAdjust="spacing" textLength="95.0264" x="552.0313" y="567.6816">RtpRepository</text></g><g class="participant participant-head"><rect fill="#E2E2F0" height="30.4883" rx="2.5" ry="2.5" style="stroke:#181818;stroke-width:0.5;" width="112.1641" x="664.0576" y="50"/><text fill="#000000" font-family="sans-serif" font-size="14" lengthAdjust="spacing" textLength="98.1641" x="671.0576" y="70.5352">RtpDtoMapper</text></g><g class="participant participant-tail"><rect fill="#E2E2F0" height="30.4883" rx="2.5" ry="2.5" style="stroke:#181818;stroke-width:0.5;" width="112.1641" x="664.0576" y="547.1465"/><text fill="#000000" font-family="sans-serif" font-size="14" lengthAdjust="spacing" textLength="98.1641" x="671.0576" y="567.6816">RtpDtoMapper</text></g><g><title>SendAPIControllerImpl</title><rect fill="#FFFFFF" height="298.1055" style="stroke:#181818;stroke-width:1;" width="10" x="226.853" y="112.7988"/></g><g><title>SendRTPServiceImpl</title><rect fill="#FFFFFF" height="145.5527" style="stroke:#181818;stroke-width:1;" width="10" x="435.2588" y="177.4199"/></g><g><title>RtpRepository</title><rect fill="#FFFFFF" height="29.3105" style="stroke:#181818;stroke-width:1;" width="10" x="594.5444" y="206.7305"/></g><g><title>RtpDtoMapper</title><rect fill="#FFFFFF" height="29.3105" style="stroke:#181818;stroke-width:1;" width="10" x="715.1396" y="352.2832"/></g><g class="message"><polygon fill="#181818" points="214.853,108.7988,224.853,112.7988,214.853,116.7988,218.853,112.7988" style="stroke:#181818;stroke-width:1;"/><line style="stroke:#181818;stroke-width:1;" x1="42.7524" x2="220.853" y1="112.7988" y2="112.7988"/><text fill="#000000" font-family="sans-serif" font-size="13" lengthAdjust="spacing" textLength="106.1455" x="49.7524" y="108.0566">GET /rtps/{rtpId}</text></g><path d="M241,125.7988 L241,150.7988 L525,150.7988 L525,135.7988 L515,125.7988 L241,125.7988" fill="#FEFFDD" style="stroke:#181818;stroke-width:0.5;"/><path d="M515,125.7988 L515,135.7988 L525,135.7988 L515,125.7988" fill="#FEFFDD" style="stroke:#181818;stroke-width:0.5;"/><text fill="#000000" font-family="sans-serif" font-size="13" lengthAdjust="spacing" textLength="263.6943" x="247" y="143.3672">@PreAuthorize("hasRole('read_rtp_send')")</text><g class="message"><polygon fill="#181818" points="423.2588,173.4199,433.2588,177.4199,423.2588,181.4199,427.2588,177.4199" style="stroke:#181818;stroke-width:1;"/><line style="stroke:#181818;stroke-width:1;" x1="236.853" x2="429.2588" y1="177.4199" y2="177.4199"/><text fill="#000000" font-family="sans-serif" font-size="13" lengthAdjust="spacing" textLength="84.7983" x="243.853" y="172.6777">findRtp(rtpId)</text></g><g class="message"><polygon fill="#181818" points="582.5444,202.7305,592.5444,206.7305,582.5444,210.7305,586.5444,206.7305" style="stroke:#181818;stroke-width:1;"/><line style="stroke:#181818;stroke-width:1;" x1="445.2588" x2="588.5444" y1="206.7305" y2="206.7305"/><text fill="#000000" font-family="sans-serif" font-size="13" lengthAdjust="spacing" textLength="130.2856" x="452.2588" y="201.9883">findById(ResourceID)</text></g><g class="message"><polygon fill="#181818" points="456.2588,232.041,446.2588,236.041,456.2588,240.041,452.2588,236.041" style="stroke:#181818;stroke-width:1;"/><line style="stroke:#181818;stroke-width:1;stroke-dasharray:2.0,2.0;" x1="450.2588" x2="598.5444" y1="236.041" y2="236.041"/><text fill="#000000" font-family="sans-serif" font-size="13" lengthAdjust="spacing" textLength="77.1685" x="462.2588" y="231.2988">Mono&lt;Rtp&gt;</text></g><g class="message"><line style="stroke:#181818;stroke-width:1;" x1="445.2588" x2="487.2588" y1="280.6621" y2="280.6621"/><line style="stroke:#181818;stroke-width:1;" x1="487.2588" x2="487.2588" y1="280.6621" y2="293.6621"/><line style="stroke:#181818;stroke-width:1;" x1="446.2588" x2="487.2588" y1="293.6621" y2="293.6621"/><polygon fill="#181818" points="456.2588,289.6621,446.2588,293.6621,456.2588,297.6621,452.2588,293.6621" style="stroke:#181818;stroke-width:1;"/><text fill="#000000" font-family="sans-serif" font-size="13" lengthAdjust="spacing" textLength="75.9497" x="452.2588" y="260.6094">MDC.put(...)</text><text fill="#000000" font-family="sans-serif" font-size="13" lengthAdjust="spacing" textLength="75.3721" x="452.2588" y="275.9199">log retrieval</text></g><g class="message"><polygon fill="#181818" points="247.853,318.9727,237.853,322.9727,247.853,326.9727,243.853,322.9727" style="stroke:#181818;stroke-width:1;"/><line style="stroke:#181818;stroke-width:1;stroke-dasharray:2.0,2.0;" x1="241.853" x2="439.2588" y1="322.9727" y2="322.9727"/><text fill="#000000" font-family="sans-serif" font-size="13" lengthAdjust="spacing" textLength="77.1685" x="253.853" y="318.2305">Mono&lt;Rtp&gt;</text></g><g class="message"><polygon fill="#181818" points="703.1396,348.2832,713.1396,352.2832,703.1396,356.2832,707.1396,352.2832" style="stroke:#181818;stroke-width:1;"/><line style="stroke:#181818;stroke-width:1;" x1="236.853" x2="709.1396" y1="352.2832" y2="352.2832"/><text fill="#000000" font-family="sans-serif" font-size="13" lengthAdjust="spacing" textLength="86.417" x="243.853" y="347.541">toRtpDto(Rtp)</text></g><g class="message"><polygon fill="#181818" points="247.853,377.5938,237.853,381.5938,247.853,385.5938,243.853,381.5938" style="stroke:#181818;stroke-width:1;"/><line style="stroke:#181818;stroke-width:1;stroke-dasharray:2.0,2.0;" x1="241.853" x2="719.1396" y1="381.5938" y2="381.5938"/><text fill="#000000" font-family="sans-serif" font-size="13" lengthAdjust="spacing" textLength="43.8496" x="253.853" y="376.8516">RtpDto</text></g><g class="message"><polygon fill="#181818" points="53.7524,406.9043,43.7524,410.9043,53.7524,414.9043,49.7524,410.9043" style="stroke:#181818;stroke-width:1;"/><line style="stroke:#181818;stroke-width:1;stroke-dasharray:2.0,2.0;" x1="47.7524" x2="230.853" y1="410.9043" y2="410.9043"/><text fill="#000000" font-family="sans-serif" font-size="13" lengthAdjust="spacing" textLength="160.1006" x="59.7524" y="406.1621">ResponseEntity&lt;RtpDto&gt;</text></g><path d="M10,425.9043 L72.1387,425.9043 L72.1387,433.2148 L62.1387,443.2148 L10,443.2148 L10,425.9043" fill="#EEEEEE" style="stroke:#000000;stroke-width:1.5;"/><rect fill="none" height="105.2422" style="stroke:#000000;stroke-width:1.5;" width="654.0576" x="10" y="425.9043"/><text fill="#000000" font-family="sans-serif" font-size="13" font-weight="bold" lengthAdjust="spacing" textLength="17.1387" x="25" y="439.4727">alt</text><text fill="#000000" font-family="sans-serif" font-size="11" font-weight="bold" lengthAdjust="spacing" textLength="89.3589" x="87.1387" y="438.5391">[RTP not found]</text><g class="message"><polygon fill="#181818" points="451.2588,460.5254,441.2588,464.5254,451.2588,468.5254,447.2588,464.5254" style="stroke:#181818;stroke-width:1;"/><line style="stroke:#181818;stroke-width:1;stroke-dasharray:2.0,2.0;" x1="445.2588" x2="598.5444" y1="464.5254" y2="464.5254"/><text fill="#000000" font-family="sans-serif" font-size="13" lengthAdjust="spacing" textLength="87.02" x="457.2588" y="459.7832">Mono.empty()</text></g><g class="message"><polygon fill="#181818" points="242.853,489.8359,232.853,493.8359,242.853,497.8359,238.853,493.8359" style="stroke:#181818;stroke-width:1;"/><line style="stroke:#181818;stroke-width:1;stroke-dasharray:2.0,2.0;" x1="236.853" x2="439.2588" y1="493.8359" y2="493.8359"/><text fill="#000000" font-family="sans-serif" font-size="13" lengthAdjust="spacing" textLength="184.4058" x="248.853" y="489.0938">error(RtpNotFoundException)</text></g><g class="message"><polygon fill="#181818" points="53.7524,519.1465,43.7524,523.1465,53.7524,527.1465,49.7524,523.1465" style="stroke:#181818;stroke-width:1;"/><line style="stroke:#181818;stroke-width:1;stroke-dasharray:2.0,2.0;" x1="47.7524" x2="230.853" y1="523.1465" y2="523.1465"/><text fill="#000000" font-family="sans-serif" font-size="13" lengthAdjust="spacing" textLength="94.6118" x="59.7524" y="518.4043">404 Not Found</text></g><!--SRC=[VP91JyCm38Nl-HLHBxG72eUT44ACRQ0TG5FXY8IYrcEHkZXolOc1-EzuJLbJ1kpGDTNxxESNcvAHT3AfBJXEj6bqU5NU4DlIUkDO9u_Wgl5YFa77X7KDD5_xEgWFduw9ucdn2BIr9HpatNceBTWNuB6nOcNNolhZaNBAU6-y1sg5uLMfO5gVNaM6z8M-cptfCsBVd7t8SrvzAbEotHg6sBX3EPDzNR76vR30zO9WlE4Lads7D5cPfi0QqXC2Kxr8oPT6vZp9aamiz9pOw0QL4aihIR1FMmDPR-0x2lKj5QgVkmDlTlCgBQ313KcAqmYF8egeqq7hUtHuARslL0M_WN7hY9fESh_XDC_pxDdL-Ae9c2niJTq3FvF-jTLXn64suT84OWmNcifVD5ftgPtig5LWuZw7BOZQxAcm5490uz4rC7DiUNSP2WoSHjkWJCrQLbVBMkWbRbobjFp-3Jc7jUTTchNAFpC28gJzh0_8j_l2ixSIF5jq0VpB_kXyf0NHBQDauTGN]--></g></svg>