<?xml version="1.0" encoding="us-ascii" standalone="no"?><svg xmlns="http://www.w3.org/2000/svg" xmlns:xlink="http://www.w3.org/1999/xlink" contentStyleType="text/css" height="1306.25px" preserveAspectRatio="none" style="width:1438px;height:1306px;" version="1.1" viewBox="0 0 1438 1306" width="1438.5417px" zoomAndPan="magnify"><defs><filter height="300%" id="fuwh3gi7mes4q" width="300%" x="-1" y="-1"><feGaussianBlur result="blurOut" stdDeviation="2.0833333333333335"/><feColorMatrix in="blurOut" result="blurOut2" type="matrix" values="0 0 0 0 0 0 0 0 0 0 0 0 0 0 0 0 0 0 .4 0"/><feOffset dx="4.166666666666667" dy="4.166666666666667" in="blurOut2" result="blurOut3"/><feBlend in="SourceGraphic" in2="blurOut3" mode="normal"/></filter><linearGradient id="guwh3gi7mes4q0" x1="50%" x2="50%" y1="0%" y2="100%"><stop offset="0%" stop-color="#FFFFFF"/><stop offset="100%" stop-color="#FFFFFF"/></linearGradient><linearGradient id="guwh3gi7mes4q1" x1="50%" x2="50%" y1="0%" y2="100%"><stop offset="0%" stop-color="#4DABF5"/><stop offset="100%" stop-color="#2196F3"/></linearGradient><linearGradient id="guwh3gi7mes4q2" x1="50%" x2="50%" y1="0%" y2="100%"><stop offset="0%" stop-color="#B052C0"/><stop offset="100%" stop-color="#9C27B0"/></linearGradient></defs><g><rect fill="#FFFFFF" filter="url(#fuwh3gi7mes4q)" height="723.2747" style="stroke:#CCCCCC;stroke-width:1.0416666666666667;" width="10.4167" x="278.125" y="165.8"/><rect fill="#FFFFFF" filter="url(#fuwh3gi7mes4q)" height="562.0748" style="stroke:#CCCCCC;stroke-width:1.0416666666666667;" width="10.4167" x="544.2708" y="276.3916"/><rect fill="#FFFFFF" filter="url(#fuwh3gi7mes4q)" height="116.4083" style="stroke:#CCCCCC;stroke-width:1.0416666666666667;" width="10.4167" x="804.1667" y="326.9999"/><rect fill="#FFFFFF" filter="url(#fuwh3gi7mes4q)" height="116.4083" style="stroke:#CCCCCC;stroke-width:1.0416666666666667;" width="10.4167" x="1062.5" y="582.7332"/><rect fill="#FFFFFF" filter="url(#fuwh3gi7mes4q)" height="50.6083" style="stroke:#CCCCCC;stroke-width:1.0416666666666667;" width="10.4167" x="1300.5208" y="1070.6746"/><rect fill="url(#guwh3gi7mes4q0)" filter="url(#fuwh3gi7mes4q)" height="562.0748" rx="4.1667" ry="4.1667" style="stroke:#2196F3;stroke-width:1.0416666666666667;" width="1190.625" x="20.8333" y="342.6249"/><path d="M20.8333,451.7415 L1211.4583,451.7415 L1211.4583,900.533 A4.1667,4.1667 0 0 1 1207.2917,904.6997 L25,904.6997 A4.1667,4.1667 0 0 1 20.8333,900.533 L20.8333,451.7415 " fill="url(#guwh3gi7mes4q0)" style="stroke:none;stroke-width:1.0416666666666667;"/><rect fill="url(#guwh3gi7mes4q0)" filter="url(#fuwh3gi7mes4q)" height="299.0499" rx="4.1667" ry="4.1667" style="stroke:#2196F3;stroke-width:1.0416666666666667;" width="1169.7917" x="31.25" y="598.3582"/><path d="M31.25,707.4748 L1201.0417,707.4748 L1201.0417,893.2414 A4.1667,4.1667 0 0 1 1196.875,897.408 L35.4167,897.408 A4.1667,4.1667 0 0 1 31.25,893.2414 L31.25,707.4748 " fill="url(#guwh3gi7mes4q0)" style="stroke:none;stroke-width:1.0416666666666667;"/><rect fill="url(#guwh3gi7mes4q0)" filter="url(#fuwh3gi7mes4q)" height="260.9416" rx="4.1667" ry="4.1667" style="stroke:#2196F3;stroke-width:1.0416666666666667;" width="1389.5833" x="31.25" y="919.283"/><line style="stroke:#CCCCCC;stroke-width:1.0416666666666667;stroke-dasharray:5.0,5.0;" x1="72.9167" x2="72.9167" y1="113.1083" y2="1197.9329"/><line style="stroke:#CCCCCC;stroke-width:1.0416666666666667;stroke-dasharray:5.0,5.0;" x1="283.3333" x2="283.3333" y1="113.1083" y2="1197.9329"/><line style="stroke:#CCCCCC;stroke-width:1.0416666666666667;stroke-dasharray:5.0,5.0;" x1="548.9583" x2="548.9583" y1="113.1083" y2="1197.9329"/><line style="stroke:#CCCCCC;stroke-width:1.0416666666666667;stroke-dasharray:5.0,5.0;" x1="809.375" x2="809.375" y1="113.1083" y2="1197.9329"/><line style="stroke:#CCCCCC;stroke-width:1.0416666666666667;stroke-dasharray:5.0,5.0;" x1="1067.7083" x2="1067.7083" y1="113.1083" y2="1197.9329"/><line style="stroke:#CCCCCC;stroke-width:1.0416666666666667;stroke-dasharray:5.0,5.0;" x1="1305.2083" x2="1305.2083" y1="113.1083" y2="1197.9329"/><text fill="#222222" font-family="Verdana" font-size="12.5" lengthAdjust="spacing" textLength="35.4167" x="52.0833" y="100.0671">Client</text><ellipse cx="72.9167" cy="19.7917" fill="url(#guwh3gi7mes4q1)" filter="url(#fuwh3gi7mes4q)" rx="8.3333" ry="8.3333" style="stroke:#2196F3;stroke-width:1.0416666666666667;"/><path d="M72.9167,28.125 L72.9167,56.25 M59.375,36.4583 L86.4583,36.4583 M72.9167,56.25 L59.375,71.875 M72.9167,56.25 L86.4583,71.875 " fill="none" filter="url(#fuwh3gi7mes4q)" style="stroke:#2196F3;stroke-width:1.0416666666666667;"/><text fill="#222222" font-family="Verdana" font-size="12.5" lengthAdjust="spacing" textLength="35.4167" x="52.0833" y="1219.8751">Client</text><ellipse cx="72.9167" cy="1242.2913" fill="url(#guwh3gi7mes4q1)" filter="url(#fuwh3gi7mes4q)" rx="8.3333" ry="8.3333" style="stroke:#2196F3;stroke-width:1.0416666666666667;"/><path d="M72.9167,1250.6246 L72.9167,1278.7496 M59.375,1258.9579 L86.4583,1258.9579 M72.9167,1278.7496 L59.375,1294.3746 M72.9167,1278.7496 L86.4583,1294.3746 " fill="none" filter="url(#fuwh3gi7mes4q)" style="stroke:#2196F3;stroke-width:1.0416666666666667;"/><rect fill="url(#guwh3gi7mes4q1)" filter="url(#fuwh3gi7mes4q)" height="50.6083" rx="4.1667" ry="4.1667" style="stroke:#2196F3;stroke-width:1.0416666666666667;" width="176.0417" x="193.75" y="58.3333"/><text fill="#FFFFFF" font-family="Verdana" font-size="12.5" lengthAdjust="spacing" textLength="140.625" x="211.4583" y="88.6088">SendAPIControllerImpl</text><rect fill="url(#guwh3gi7mes4q1)" filter="url(#fuwh3gi7mes4q)" height="50.6083" rx="4.1667" ry="4.1667" style="stroke:#2196F3;stroke-width:1.0416666666666667;" width="176.0417" x="193.75" y="1196.8913"/><text fill="#FFFFFF" font-family="Verdana" font-size="12.5" lengthAdjust="spacing" textLength="140.625" x="211.4583" y="1227.1667">SendAPIControllerImpl</text><rect fill="url(#guwh3gi7mes4q1)" filter="url(#fuwh3gi7mes4q)" height="50.6083" rx="4.1667" ry="4.1667" style="stroke:#2196F3;stroke-width:1.0416666666666667;" width="162.5" x="466.6667" y="58.3333"/><text fill="#FFFFFF" font-family="Verdana" font-size="12.5" lengthAdjust="spacing" textLength="127.0833" x="484.375" y="88.6088">SendRTPServiceImpl</text><rect fill="url(#guwh3gi7mes4q1)" filter="url(#fuwh3gi7mes4q)" height="50.6083" rx="4.1667" ry="4.1667" style="stroke:#2196F3;stroke-width:1.0416666666666667;" width="162.5" x="466.6667" y="1196.8913"/><text fill="#FFFFFF" font-family="Verdana" font-size="12.5" lengthAdjust="spacing" textLength="127.0833" x="484.375" y="1227.1667">SendRTPServiceImpl</text><rect fill="url(#guwh3gi7mes4q1)" filter="url(#fuwh3gi7mes4q)" height="65.8" rx="4.1667" ry="4.1667" style="stroke:#2196F3;stroke-width:1.0416666666666667;" width="163.5417" x="726.0417" y="43.1417"/><text fill="#FFFFFF" font-family="Verdana" font-size="12.5" lengthAdjust="spacing" textLength="85.4167" x="765.1042" y="73.4172">RtpRepository</text><text fill="#FFFFFF" font-family="Verdana" font-size="12.5" lengthAdjust="spacing" textLength="128.125" x="743.75" y="88.6088">(Cosmos API Mongo)</text><rect fill="url(#guwh3gi7mes4q1)" filter="url(#fuwh3gi7mes4q)" height="65.8" rx="4.1667" ry="4.1667" style="stroke:#2196F3;stroke-width:1.0416666666666667;" width="163.5417" x="726.0417" y="1196.8913"/><text fill="#FFFFFF" font-family="Verdana" font-size="12.5" lengthAdjust="spacing" textLength="85.4167" x="765.1042" y="1227.1667">RtpRepository</text><text fill="#FFFFFF" font-family="Verdana" font-size="12.5" lengthAdjust="spacing" textLength="128.125" x="743.75" y="1242.3584">(Cosmos API Mongo)</text><rect fill="url(#guwh3gi7mes4q1)" filter="url(#fuwh3gi7mes4q)" height="50.6083" rx="4.1667" ry="4.1667" style="stroke:#2196F3;stroke-width:1.0416666666666667;" width="159.375" x="986.4583" y="58.3333"/><text fill="#FFFFFF" font-family="Verdana" font-size="12.5" lengthAdjust="spacing" textLength="123.9583" x="1004.1667" y="88.6088">Azure Data Explorer</text><rect fill="url(#guwh3gi7mes4q1)" filter="url(#fuwh3gi7mes4q)" height="50.6083" rx="4.1667" ry="4.1667" style="stroke:#2196F3;stroke-width:1.0416666666666667;" width="159.375" x="986.4583" y="1196.8913"/><text fill="#FFFFFF" font-family="Verdana" font-size="12.5" lengthAdjust="spacing" textLength="123.9583" x="1004.1667" y="1227.1667">Azure Data Explorer</text><rect fill="url(#guwh3gi7mes4q1)" filter="url(#fuwh3gi7mes4q)" height="50.6083" rx="4.1667" ry="4.1667" style="stroke:#2196F3;stroke-width:1.0416666666666667;" width="122.9167" x="1242.7083" y="58.3333"/><text fill="#FFFFFF" font-family="Verdana" font-size="12.5" lengthAdjust="spacing" textLength="87.5" x="1260.4167" y="88.6088">RtpDtoMapper</text><rect fill="url(#guwh3gi7mes4q1)" filter="url(#fuwh3gi7mes4q)" height="50.6083" rx="4.1667" ry="4.1667" style="stroke:#2196F3;stroke-width:1.0416666666666667;" width="122.9167" x="1242.7083" y="1196.8913"/><text fill="#FFFFFF" font-family="Verdana" font-size="12.5" lengthAdjust="spacing" textLength="87.5" x="1260.4167" y="1227.1667">RtpDtoMapper</text><rect fill="#FFFFFF" filter="url(#fuwh3gi7mes4q)" height="723.2747" style="stroke:#CCCCCC;stroke-width:1.0416666666666667;" width="10.4167" x="278.125" y="165.8"/><rect fill="#FFFFFF" filter="url(#fuwh3gi7mes4q)" height="562.0748" style="stroke:#CCCCCC;stroke-width:1.0416666666666667;" width="10.4167" x="544.2708" y="276.3916"/><rect fill="#FFFFFF" filter="url(#fuwh3gi7mes4q)" height="116.4083" style="stroke:#CCCCCC;stroke-width:1.0416666666666667;" width="10.4167" x="804.1667" y="326.9999"/><rect fill="#FFFFFF" filter="url(#fuwh3gi7mes4q)" height="116.4083" style="stroke:#CCCCCC;stroke-width:1.0416666666666667;" width="10.4167" x="1062.5" y="582.7332"/><rect fill="#FFFFFF" filter="url(#fuwh3gi7mes4q)" height="50.6083" style="stroke:#CCCCCC;stroke-width:1.0416666666666667;" width="10.4167" x="1300.5208" y="1070.6746"/><polygon fill="#2196F3" points="265.625,161.6333,276.0417,165.8,265.625,169.9666,269.7917,165.8" style="stroke:#2196F3;stroke-width:1.0416666666666667;"/><line style="stroke:#2196F3;stroke-width:3.125;" x1="72.9167" x2="271.875" y1="165.8" y2="165.8"/><text fill="#222222" font-family="Verdana" font-size="12.5" lengthAdjust="spacing" textLength="110.4167" x="90.625" y="150.6755">GET /rtps/{rtpId}</text><path d="M293.75,183.5083 L293.75,221.0083 A4.1667,4.1667 0 0 0 297.9167,225.175 L602.0833,225.175 A4.1667,4.1667 0 0 0 606.25,221.0083 L606.25,189.7583 L595.8333,179.3416 L297.9167,179.3416 A4.1667,4.1667 0 0 0 293.75,183.5083 " fill="url(#guwh3gi7mes4q2)" filter="url(#fuwh3gi7mes4q)" style="stroke:#9C27B0;stroke-width:1.0416666666666667;"/><path d="M595.8333,179.3416 L595.8333,187.675 A2.0833,2.0833 0 0 0 597.9167,189.7583 L606.25,189.7583 L595.8333,179.3416 " fill="url(#guwh3gi7mes4q2)" style="stroke:#9C27B0;stroke-width:1.0416666666666667;"/><text fill="#FFFFFF" font-family="Verdana" font-size="12.5" lengthAdjust="spacing" textLength="269.7917" x="310.4167" y="207.5338">@PreAuthorize("hasRole('read_rtp_send')")</text><polygon fill="#2196F3" points="531.7708,272.2249,542.1875,276.3916,531.7708,280.5583,535.9375,276.3916" style="stroke:#2196F3;stroke-width:1.0416666666666667;"/><line style="stroke:#2196F3;stroke-width:3.125;" x1="288.5417" x2="538.0208" y1="276.3916" y2="276.3916"/><text fill="#222222" font-family="Verdana" font-size="12.5" lengthAdjust="spacing" textLength="84.375" x="306.25" y="261.2671">findRtp(rtpId)</text><polygon fill="#2196F3" points="791.6667,322.8333,802.0833,326.9999,791.6667,331.1666,795.8333,326.9999" style="stroke:#2196F3;stroke-width:1.0416666666666667;"/><line style="stroke:#2196F3;stroke-width:3.125;" x1="554.6875" x2="797.9167" y1="326.9999" y2="326.9999"/><text fill="#222222" font-family="Verdana" font-size="12.5" lengthAdjust="spacing" textLength="132.2917" x="572.3958" y="311.8754">findById(ResourceID)</text><path d="M25,342.6249 L106.25,342.6249 L106.25,370.3166 L95.8333,380.7332 L20.8333,380.7332 L20.8333,346.7916 A4.1667,4.1667 0 0 1 25,342.6249 " fill="#FFFFFF" style="stroke:#666666;stroke-width:1.0416666666666667;"/><rect fill="none" height="562.0748" rx="4.1667" ry="4.1667" style="stroke:#2196F3;stroke-width:1.0416666666666667;" width="1190.625" x="20.8333" y="342.6249"/><text fill="#9C27B0" font-family="Verdana" font-size="12.5" font-weight="bold" lengthAdjust="spacing" textLength="17.7083" x="46.875" y="366.6504">alt</text><text fill="#222222" font-family="Verdana" font-size="12.5" font-weight="bold" lengthAdjust="spacing" textLength="162.5" x="132.2917" y="367.6921">[RTP found in Cosmos]</text><polygon fill="#2196F3" points="566.1458,439.2415,555.7292,443.4082,566.1458,447.5749,561.9792,443.4082" style="stroke:#2196F3;stroke-width:1.0416666666666667;"/><line style="stroke:#2196F3;stroke-width:3.125;stroke-dasharray:2.0,2.0;" x1="559.8958" x2="808.3333" y1="443.4082" y2="443.4082"/><text fill="#222222" font-family="Verdana" font-size="12.5" lengthAdjust="spacing" textLength="75" x="582.8125" y="428.2837">Mono&lt;Rtp&gt;</text><line style="stroke:#2196F3;stroke-width:1.0416666666666667;stroke-dasharray:2.0,2.0;" x1="20.8333" x2="1211.4583" y1="452.7832" y2="452.7832"/><text fill="#222222" font-family="Verdana" font-size="12.5" font-weight="bold" lengthAdjust="spacing" textLength="189.5833" x="36.4583" y="475.767">[RTP not found in Cosmos]</text><polygon fill="#2196F3" points="566.1458,527.9582,555.7292,532.1248,566.1458,536.2915,561.9792,532.1248" style="stroke:#2196F3;stroke-width:1.0416666666666667;"/><line style="stroke:#2196F3;stroke-width:3.125;stroke-dasharray:2.0,2.0;" x1="559.8958" x2="808.3333" y1="532.1248" y2="532.1248"/><text fill="#222222" font-family="Verdana" font-size="12.5" lengthAdjust="spacing" textLength="87.5" x="582.8125" y="517.0003">Mono.empty()</text><polygon fill="#2196F3" points="1050,578.5665,1060.4167,582.7332,1050,586.8998,1054.1667,582.7332" style="stroke:#2196F3;stroke-width:1.0416666666666667;"/><line style="stroke:#2196F3;stroke-width:3.125;" x1="554.6875" x2="1056.25" y1="582.7332" y2="582.7332"/><text fill="#222222" font-family="Verdana" font-size="12.5" lengthAdjust="spacing" textLength="84.375" x="572.3958" y="567.6086">findRtp(rtpId)</text><path d="M35.4167,598.3582 L116.6667,598.3582 L116.6667,626.0498 L106.25,636.4665 L31.25,636.4665 L31.25,602.5248 A4.1667,4.1667 0 0 1 35.4167,598.3582 " fill="#FFFFFF" style="stroke:#666666;stroke-width:1.0416666666666667;"/><rect fill="none" height="299.0499" rx="4.1667" ry="4.1667" style="stroke:#2196F3;stroke-width:1.0416666666666667;" width="1169.7917" x="31.25" y="598.3582"/><text fill="#9C27B0" font-family="Verdana" font-size="12.5" font-weight="bold" lengthAdjust="spacing" textLength="17.7083" x="57.2917" y="622.3836">alt</text><text fill="#222222" font-family="Verdana" font-size="12.5" font-weight="bold" lengthAdjust="spacing" textLength="247.9167" x="142.7083" y="623.4253">[RTP found in Azure Data Explorer]</text><polygon fill="#2196F3" points="566.1458,694.9748,555.7292,699.1414,566.1458,703.3081,561.9792,699.1414" style="stroke:#2196F3;stroke-width:1.0416666666666667;"/><line style="stroke:#2196F3;stroke-width:3.125;stroke-dasharray:2.0,2.0;" x1="559.8958" x2="1066.6667" y1="699.1414" y2="699.1414"/><text fill="#222222" font-family="Verdana" font-size="12.5" lengthAdjust="spacing" textLength="75" x="582.8125" y="684.0169">Mono&lt;Rtp&gt;</text><line style="stroke:#2196F3;stroke-width:1.0416666666666667;stroke-dasharray:2.0,2.0;" x1="31.25" x2="1201.0417" y1="708.5164" y2="708.5164"/><text fill="#222222" font-family="Verdana" font-size="12.5" font-weight="bold" lengthAdjust="spacing" textLength="275" x="46.875" y="731.5002">[RTP not found in Azure Data Explorer]</text><polygon fill="#2196F3" points="566.1458,783.6914,555.7292,787.8581,566.1458,792.0247,561.9792,787.8581" style="stroke:#2196F3;stroke-width:1.0416666666666667;"/><line style="stroke:#2196F3;stroke-width:3.125;stroke-dasharray:2.0,2.0;" x1="559.8958" x2="1066.6667" y1="787.8581" y2="787.8581"/><text fill="#222222" font-family="Verdana" font-size="12.5" lengthAdjust="spacing" textLength="87.5" x="582.8125" y="772.7336">Mono.empty()</text><polygon fill="#2196F3" points="300,834.2997,289.5833,838.4664,300,842.6331,295.8333,838.4664" style="stroke:#2196F3;stroke-width:1.0416666666666667;"/><line style="stroke:#2196F3;stroke-width:3.125;stroke-dasharray:2.0,2.0;" x1="293.75" x2="548.4375" y1="838.4664" y2="838.4664"/><text fill="#222222" font-family="Verdana" font-size="12.5" lengthAdjust="spacing" textLength="182.2917" x="316.6667" y="823.3419">error(RtpNotFoundException)</text><polygon fill="#2196F3" points="84.375,884.908,73.9583,889.0747,84.375,893.2414,80.2083,889.0747" style="stroke:#2196F3;stroke-width:1.0416666666666667;"/><line style="stroke:#2196F3;stroke-width:3.125;stroke-dasharray:2.0,2.0;" x1="78.125" x2="282.2917" y1="889.0747" y2="889.0747"/><text fill="#222222" font-family="Verdana" font-size="12.5" lengthAdjust="spacing" textLength="159.375" x="101.0417" y="873.9502">422 Unprocessable Entity</text><path d="M35.4167,919.283 L116.6667,919.283 L116.6667,946.9747 L106.25,957.3914 L31.25,957.3914 L31.25,923.4497 A4.1667,4.1667 0 0 1 35.4167,919.283 " fill="#FFFFFF" style="stroke:#666666;stroke-width:1.0416666666666667;"/><rect fill="none" height="260.9416" rx="4.1667" ry="4.1667" style="stroke:#2196F3;stroke-width:1.0416666666666667;" width="1389.5833" x="31.25" y="919.283"/><text fill="#9C27B0" font-family="Verdana" font-size="12.5" font-weight="bold" lengthAdjust="spacing" textLength="17.7083" x="57.2917" y="943.3085">alt</text><text fill="#222222" font-family="Verdana" font-size="12.5" font-weight="bold" lengthAdjust="spacing" textLength="176.0417" x="142.7083" y="944.3502">[RTP successfully found]</text><polygon fill="#2196F3" points="294.7917,1015.8997,284.375,1020.0663,294.7917,1024.233,290.625,1020.0663" style="stroke:#2196F3;stroke-width:1.0416666666666667;"/><line style="stroke:#2196F3;stroke-width:3.125;stroke-dasharray:2.0,2.0;" x1="288.5417" x2="548.4375" y1="1020.0663" y2="1020.0663"/><text fill="#222222" font-family="Verdana" font-size="12.5" lengthAdjust="spacing" textLength="75" x="311.4583" y="1004.9418">Mono&lt;Rtp&gt;</text><polygon fill="#2196F3" points="1288.0208,1066.508,1298.4375,1070.6746,1288.0208,1074.8413,1292.1875,1070.6746" style="stroke:#2196F3;stroke-width:1.0416666666666667;"/><line style="stroke:#2196F3;stroke-width:3.125;" x1="283.3333" x2="1294.2708" y1="1070.6746" y2="1070.6746"/><text fill="#222222" font-family="Verdana" font-size="12.5" lengthAdjust="spacing" textLength="86.4583" x="301.0417" y="1055.5501">toRtpDto(Rtp)</text><polygon fill="#2196F3" points="294.7917,1117.1163,284.375,1121.283,294.7917,1125.4496,290.625,1121.283" style="stroke:#2196F3;stroke-width:1.0416666666666667;"/><line style="stroke:#2196F3;stroke-width:3.125;stroke-dasharray:2.0,2.0;" x1="288.5417" x2="1304.6875" y1="1121.283" y2="1121.283"/><text fill="#222222" font-family="Verdana" font-size="12.5" lengthAdjust="spacing" textLength="42.7083" x="311.4583" y="1106.1584">RtpDto</text><polygon fill="#2196F3" points="84.375,1167.7246,73.9583,1171.8913,84.375,1176.0579,80.2083,1171.8913" style="stroke:#2196F3;stroke-width:1.0416666666666667;"/><line style="stroke:#2196F3;stroke-width:3.125;stroke-dasharray:2.0,2.0;" x1="78.125" x2="282.2917" y1="1171.8913" y2="1171.8913"/><text fill="#222222" font-family="Verdana" font-size="12.5" lengthAdjust="spacing" textLength="159.375" x="101.0417" y="1156.7668">ResponseEntity&lt;RtpDto&gt;</text><!--SRC=[bPHDQzj048Rl-XLJNo8Vaa3eAOHGrtQA3od6II67GjXAutXXlRFiZaASql_UMQqiIxPZYC167pFllFFix7xX5QuHrehHQvLbgc3oC1WRZPO7e0AasymfpxhGJbc6mGFQSZIVZSco9sFGpzREfEZsrM76ud7-WFvL5zY6Dy_zs0Mx1JeAMgniVjjyJ65D0QGWt9DzeM6TkWlfPu_UAuymKQnW-kOCUVHr_6ZoT51cmdIld6iYqcsMfOxX_BRJ3Lp3Z-aZN7fsuVAl_C_AVn6MVXLotQujoRFNBoi6MlO5liqzZYfUaTVlc0zMAYp8O7xcKPNF8laS1DBPS30K2xiyiT5G4ecb5epiyjh0S6TWop7RXahM3b2J-7qpA_C51ggyBC6aazvXcId382i5Iwfi2Tf2mf-1N1t9yvulMHUw4MEtTLY9HvNH1AobXT7dvIzmxNYJ3qzLY9yw16J93vd5c3Ov3aLwiz_raJ6g0-CLTK_rl-UmBN8SmEShzL1yLAp7Od-MqNlokHZ-INmNZKpV2dIioHuLRSTh-wqxdr4xxPXh-7fr1R-iyrHW2EgFGPXQrhmv9jhPD3KSMsRnrmvWg8geigoCsIHQsScUFfp1dll-pafRNfAPqd4GcUpDI7Cin7TD-47fbBjVTtkUd08csz6H3PWmtIIXWmuwg2AY_m00]--></g></svg>