<?xml version="1.0" encoding="us-ascii" standalone="no"?><svg xmlns="http://www.w3.org/2000/svg" xmlns:xlink="http://www.w3.org/1999/xlink" contentStyleType="text/css" height="626px" preserveAspectRatio="none" style="width:793px;height:626px;background:#FFFFFF;" version="1.1" viewBox="0 0 793 626" width="793px" zoomAndPan="magnify"><defs/><g><rect fill="#FFFFFF" height="296.3281" style="stroke:#181818;stroke-width:1.0;" width="10" x="230.5" y="112.4297"/><rect fill="#FFFFFF" height="144.6641" style="stroke:#181818;stroke-width:1.0;" width="10" x="440.5" y="176.6953"/><rect fill="#FFFFFF" height="29.1328" style="stroke:#181818;stroke-width:1.0;" width="10" x="601.5" y="205.8281"/><rect fill="#FFFFFF" height="29.1328" style="stroke:#181818;stroke-width:1.0;" width="10" x="725" y="350.4922"/><rect fill="none" height="104.5313" style="stroke:#000000;stroke-width:1.5;" width="662.5" x="10" y="423.7578"/><line style="stroke:#181818;stroke-width:0.5;stroke-dasharray:5.0,5.0;" x1="42" x2="42" y1="81.2969" y2="545.2891"/><line style="stroke:#181818;stroke-width:0.5;stroke-dasharray:5.0,5.0;" x1="235.5" x2="235.5" y1="81.2969" y2="545.2891"/><line style="stroke:#181818;stroke-width:0.5;stroke-dasharray:5.0,5.0;" x1="445.5" x2="445.5" y1="81.2969" y2="545.2891"/><line style="stroke:#181818;stroke-width:0.5;stroke-dasharray:5.0,5.0;" x1="606.5" x2="606.5" y1="81.2969" y2="545.2891"/><line style="stroke:#181818;stroke-width:0.5;stroke-dasharray:5.0,5.0;" x1="729.5" x2="729.5" y1="81.2969" y2="545.2891"/><text fill="#000000" font-family="sans-serif" font-size="14" lengthAdjust="spacing" textLength="39" x="20" y="77.9951">Client</text><ellipse cx="42.5" cy="13.5" fill="#E2E2F0" rx="8" ry="8" style="stroke:#181818;stroke-width:0.5;"/><path d="M42.5,21.5 L42.5,48.5 M29.5,29.5 L55.5,29.5 M42.5,48.5 L29.5,63.5 M42.5,48.5 L55.5,63.5 " fill="none" style="stroke:#181818;stroke-width:0.5;"/><text fill="#000000" font-family="sans-serif" font-size="14" lengthAdjust="spacing" textLength="39" x="20" y="557.2842">Client</text><ellipse cx="42.5" cy="569.0859" fill="#E2E2F0" rx="8" ry="8" style="stroke:#181818;stroke-width:0.5;"/><path d="M42.5,577.0859 L42.5,604.0859 M29.5,585.0859 L55.5,585.0859 M42.5,604.0859 L29.5,619.0859 M42.5,604.0859 L55.5,619.0859 " fill="none" style="stroke:#181818;stroke-width:0.5;"/><rect fill="#E2E2F0" height="30.2969" rx="2.5" ry="2.5" style="stroke:#181818;stroke-width:0.5;" width="166" x="152.5" y="50"/><text fill="#000000" font-family="sans-serif" font-size="14" lengthAdjust="spacing" textLength="152" x="159.5" y="69.9951">SendAPIControllerImpl</text><rect fill="#E2E2F0" height="30.2969" rx="2.5" ry="2.5" style="stroke:#181818;stroke-width:0.5;" width="166" x="152.5" y="544.2891"/><text fill="#000000" font-family="sans-serif" font-size="14" lengthAdjust="spacing" textLength="152" x="159.5" y="564.2842">SendAPIControllerImpl</text><rect fill="#E2E2F0" height="30.2969" rx="2.5" ry="2.5" style="stroke:#181818;stroke-width:0.5;" width="156" x="367.5" y="50"/><text fill="#000000" font-family="sans-serif" font-size="14" lengthAdjust="spacing" textLength="142" x="374.5" y="69.9951">SendRTPServiceImpl</text><rect fill="#E2E2F0" height="30.2969" rx="2.5" ry="2.5" style="stroke:#181818;stroke-width:0.5;" width="156" x="367.5" y="544.2891"/><text fill="#000000" font-family="sans-serif" font-size="14" lengthAdjust="spacing" textLength="142" x="374.5" y="564.2842">SendRTPServiceImpl</text><rect fill="#E2E2F0" height="30.2969" rx="2.5" ry="2.5" style="stroke:#181818;stroke-width:0.5;" width="112" x="550.5" y="50"/><text fill="#000000" font-family="sans-serif" font-size="14" lengthAdjust="spacing" textLength="98" x="557.5" y="69.9951">RtpRepository</text><rect fill="#E2E2F0" height="30.2969" rx="2.5" ry="2.5" style="stroke:#181818;stroke-width:0.5;" width="112" x="550.5" y="544.2891"/><text fill="#000000" font-family="sans-serif" font-size="14" lengthAdjust="spacing" textLength="98" x="557.5" y="564.2842">RtpRepository</text><rect fill="#E2E2F0" height="30.2969" rx="2.5" ry="2.5" style="stroke:#181818;stroke-width:0.5;" width="115" x="672.5" y="50"/><text fill="#000000" font-family="sans-serif" font-size="14" lengthAdjust="spacing" textLength="101" x="679.5" y="69.9951">RtpDtoMapper</text><rect fill="#E2E2F0" height="30.2969" rx="2.5" ry="2.5" style="stroke:#181818;stroke-width:0.5;" width="115" x="672.5" y="544.2891"/><text fill="#000000" font-family="sans-serif" font-size="14" lengthAdjust="spacing" textLength="101" x="679.5" y="564.2842">RtpDtoMapper</text><rect fill="#FFFFFF" height="296.3281" style="stroke:#181818;stroke-width:1.0;" width="10" x="230.5" y="112.4297"/><rect fill="#FFFFFF" height="144.6641" style="stroke:#181818;stroke-width:1.0;" width="10" x="440.5" y="176.6953"/><rect fill="#FFFFFF" height="29.1328" style="stroke:#181818;stroke-width:1.0;" width="10" x="601.5" y="205.8281"/><rect fill="#FFFFFF" height="29.1328" style="stroke:#181818;stroke-width:1.0;" width="10" x="725" y="350.4922"/><polygon fill="#181818" points="218.5,108.4297,228.5,112.4297,218.5,116.4297,222.5,112.4297" style="stroke:#181818;stroke-width:1.0;"/><line style="stroke:#181818;stroke-width:1.0;" x1="42.5" x2="224.5" y1="112.4297" y2="112.4297"/><text fill="#000000" font-family="sans-serif" font-size="13" lengthAdjust="spacing" textLength="107" x="49.5" y="107.3638">GET /rtps/{rtpId}</text><path d="M245,125.4297 L245,150.4297 L539,150.4297 L539,135.4297 L529,125.4297 L245,125.4297 " fill="#FEFFDD" style="stroke:#181818;stroke-width:0.5;"/><path d="M529,125.4297 L529,135.4297 L539,135.4297 L529,125.4297 " fill="#FEFFDD" style="stroke:#181818;stroke-width:0.5;"/><text fill="#000000" font-family="sans-serif" font-size="13" lengthAdjust="spacing" textLength="273" x="251" y="142.4966">@PreAuthorize("hasRole('read_rtp_send')")</text><polygon fill="#181818" points="428.5,172.6953,438.5,176.6953,428.5,180.6953,432.5,176.6953" style="stroke:#181818;stroke-width:1.0;"/><line style="stroke:#181818;stroke-width:1.0;" x1="240.5" x2="434.5" y1="176.6953" y2="176.6953"/><text fill="#000000" font-family="sans-serif" font-size="13" lengthAdjust="spacing" textLength="83" x="247.5" y="171.6294">findRtp(rtpId)</text><polygon fill="#181818" points="589.5,201.8281,599.5,205.8281,589.5,209.8281,593.5,205.8281" style="stroke:#181818;stroke-width:1.0;"/><line style="stroke:#181818;stroke-width:1.0;" x1="450.5" x2="595.5" y1="205.8281" y2="205.8281"/><text fill="#000000" font-family="sans-serif" font-size="13" lengthAdjust="spacing" textLength="132" x="457.5" y="200.7622">findById(ResourceID)</text><polygon fill="#181818" points="461.5,230.9609,451.5,234.9609,461.5,238.9609,457.5,234.9609" style="stroke:#181818;stroke-width:1.0;"/><line style="stroke:#181818;stroke-width:1.0;stroke-dasharray:2.0,2.0;" x1="455.5" x2="605.5" y1="234.9609" y2="234.9609"/><text fill="#000000" font-family="sans-serif" font-size="13" lengthAdjust="spacing" textLength="78" x="467.5" y="229.895">Mono&lt;Rtp&gt;</text><line style="stroke:#181818;stroke-width:1.0;" x1="450.5" x2="492.5" y1="279.2266" y2="279.2266"/><line style="stroke:#181818;stroke-width:1.0;" x1="492.5" x2="492.5" y1="279.2266" y2="292.2266"/><line style="stroke:#181818;stroke-width:1.0;" x1="451.5" x2="492.5" y1="292.2266" y2="292.2266"/><polygon fill="#181818" points="461.5,288.2266,451.5,292.2266,461.5,296.2266,457.5,292.2266" style="stroke:#181818;stroke-width:1.0;"/><text fill="#000000" font-family="sans-serif" font-size="13" lengthAdjust="spacing" textLength="77" x="457.5" y="259.0278">MDC.put(...)</text><text fill="#000000" font-family="sans-serif" font-size="13" lengthAdjust="spacing" textLength="75" x="457.5" y="274.1606">log retrieval</text><polygon fill="#181818" points="251.5,317.3594,241.5,321.3594,251.5,325.3594,247.5,321.3594" style="stroke:#181818;stroke-width:1.0;"/><line style="stroke:#181818;stroke-width:1.0;stroke-dasharray:2.0,2.0;" x1="245.5" x2="444.5" y1="321.3594" y2="321.3594"/><text fill="#000000" font-family="sans-serif" font-size="13" lengthAdjust="spacing" textLength="78" x="257.5" y="316.2935">Mono&lt;Rtp&gt;</text><polygon fill="#181818" points="713,346.4922,723,350.4922,713,354.4922,717,350.4922" style="stroke:#181818;stroke-width:1.0;"/><line style="stroke:#181818;stroke-width:1.0;" x1="240.5" x2="719" y1="350.4922" y2="350.4922"/><text fill="#000000" font-family="sans-serif" font-size="13" lengthAdjust="spacing" textLength="88" x="247.5" y="345.4263">toRtpDto(Rtp)</text><polygon fill="#181818" points="251.5,375.625,241.5,379.625,251.5,383.625,247.5,379.625" style="stroke:#181818;stroke-width:1.0;"/><line style="stroke:#181818;stroke-width:1.0;stroke-dasharray:2.0,2.0;" x1="245.5" x2="729" y1="379.625" y2="379.625"/><text fill="#000000" font-family="sans-serif" font-size="13" lengthAdjust="spacing" textLength="44" x="257.5" y="374.5591">RtpDto</text><polygon fill="#181818" points="53.5,404.7578,43.5,408.7578,53.5,412.7578,49.5,408.7578" style="stroke:#181818;stroke-width:1.0;"/><line style="stroke:#181818;stroke-width:1.0;stroke-dasharray:2.0,2.0;" x1="47.5" x2="234.5" y1="408.7578" y2="408.7578"/><text fill="#000000" font-family="sans-serif" font-size="13" lengthAdjust="spacing" textLength="164" x="59.5" y="403.6919">ResponseEntity&lt;RtpDto&gt;</text><path d="M10,423.7578 L74,423.7578 L74,430.8906 L64,440.8906 L10,440.8906 L10,423.7578 " fill="#EEEEEE" style="stroke:#000000;stroke-width:1.5;"/><rect fill="none" height="104.5313" style="stroke:#000000;stroke-width:1.5;" width="662.5" x="10" y="423.7578"/><text fill="#000000" font-family="sans-serif" font-size="13" font-weight="bold" lengthAdjust="spacing" textLength="19" x="25" y="436.8247">alt</text><text fill="#000000" font-family="sans-serif" font-size="11" font-weight="bold" lengthAdjust="spacing" textLength="100" x="89" y="435.9683">[RTP not found]</text><polygon fill="#181818" points="456.5,458.0234,446.5,462.0234,456.5,466.0234,452.5,462.0234" style="stroke:#181818;stroke-width:1.0;"/><line style="stroke:#181818;stroke-width:1.0;stroke-dasharray:2.0,2.0;" x1="450.5" x2="605.5" y1="462.0234" y2="462.0234"/><text fill="#000000" font-family="sans-serif" font-size="13" lengthAdjust="spacing" textLength="90" x="462.5" y="456.9575">Mono.empty()</text><polygon fill="#181818" points="246.5,487.1563,236.5,491.1563,246.5,495.1563,242.5,491.1563" style="stroke:#181818;stroke-width:1.0;"/><line style="stroke:#181818;stroke-width:1.0;stroke-dasharray:2.0,2.0;" x1="240.5" x2="444.5" y1="491.1563" y2="491.1563"/><text fill="#000000" font-family="sans-serif" font-size="13" lengthAdjust="spacing" textLength="186" x="252.5" y="486.0903">error(RtpNotFoundException)</text><polygon fill="#181818" points="53.5,516.2891,43.5,520.2891,53.5,524.2891,49.5,520.2891" style="stroke:#181818;stroke-width:1.0;"/><line style="stroke:#181818;stroke-width:1.0;stroke-dasharray:2.0,2.0;" x1="47.5" x2="234.5" y1="520.2891" y2="520.2891"/><text fill="#000000" font-family="sans-serif" font-size="13" lengthAdjust="spacing" textLength="94" x="59.5" y="515.2231">404 Not Found</text><!--SRC=[VP91JyCm38Nl-HLHBxG72eUT44ACRQ0TG5FXY8IYrcEHkZXolOc1-EzuJLbJ1kpGDTNxxESNcvAHT3AfBJXEj6bqU5NU4DlIUkDO9u_Wgl5YFa77X7KDD5_xEgWFduw9ucdn2BIr9HpatNceBTWNuB6nOcNNolhZaNBAU6-y1sg5uLMfO5gVNaM6z8M-cptfCsBVd7t8SrvzAbEotHg6sBX3EPDzNR76vR30zO9WlE4Lads7D5cPfi0QqXC2Kxr8oPT6vZp9aamiz9pOw0QL4aihIR1FMmDPR-0x2lKj5QgVkmDlTlCgBQ313KcAqmYF8egeqq7hUtHuARslL0M_WN7hY9fESh_XDC_pxDdL-Ae9c2niJTq3FvF-jTLXn64suT84OWmNcifVD5ftgPtig5LWuZw7BOZQxAcm5490uz4rC7DiUNSP2WoSHjkWJCrQLbVBMkWbRbobjFp-3Jc7jUTTchNAFpC28gJzh0_8j_l2ixSIF5jq0VpB_kXyf0NHBQDauTGN]--></g></svg>