<?xml version="1.0" encoding="us-ascii" standalone="no"?><svg xmlns="http://www.w3.org/2000/svg" xmlns:xlink="http://www.w3.org/1999/xlink" contentStyleType="text/css" height="1233.3333px" preserveAspectRatio="none" style="width:1405px;height:1233px;" version="1.1" viewBox="0 0 1405 1233" width="1405.2083px" zoomAndPan="magnify"><defs><filter height="300%" id="f1hxdz8nrm5kqo" width="300%" x="-1" y="-1"><feGaussianBlur result="blurOut" stdDeviation="2.0833333333333335"/><feColorMatrix in="blurOut" result="blurOut2" type="matrix" values="0 0 0 0 0 0 0 0 0 0 0 0 0 0 0 0 0 0 .4 0"/><feOffset dx="4.166666666666667" dy="4.166666666666667" in="blurOut2" result="blurOut3"/><feBlend in="SourceGraphic" in2="blurOut3" mode="normal"/></filter><linearGradient id="g1hxdz8nrm5kqo0" x1="50%" x2="50%" y1="0%" y2="100%"><stop offset="0%" stop-color="#FFFFFF"/><stop offset="100%" stop-color="#FFFFFF"/></linearGradient><linearGradient id="g1hxdz8nrm5kqo1" x1="50%" x2="50%" y1="0%" y2="100%"><stop offset="0%" stop-color="#4DABF5"/><stop offset="100%" stop-color="#2196F3"/></linearGradient><linearGradient id="g1hxdz8nrm5kqo2" x1="50%" x2="50%" y1="0%" y2="100%"><stop offset="0%" stop-color="#B052C0"/><stop offset="100%" stop-color="#9C27B0"/></linearGradient></defs><g><rect fill="#FFFFFF" filter="url(#f1hxdz8nrm5kqo)" height="713.0208" style="stroke:#CCCCCC;stroke-width:1.0416666666666667;" width="10.4167" x="280.7292" y="164.5182"/><rect fill="#FFFFFF" filter="url(#f1hxdz8nrm5kqo)" height="553.7435" style="stroke:#CCCCCC;stroke-width:1.0416666666666667;" width="10.4167" x="549.4792" y="273.8281"/><rect fill="#FFFFFF" filter="url(#f1hxdz8nrm5kqo)" height="49.9674" style="stroke:#CCCCCC;stroke-width:1.0416666666666667;" width="10.4167" x="1319.7917" y="1006.6406"/><rect fill="url(#g1hxdz8nrm5kqo0)" filter="url(#f1hxdz8nrm5kqo)" height="568.3268" rx="4.1667" ry="4.1667" style="stroke:#2196F3;stroke-width:1.0416666666666667;" width="1206.7708" x="20.8333" y="339.4206"/><path d="M20.8333,446.6146 L1227.6042,446.6146 L1227.6042,903.5807 A4.1667,4.1667 0 0 1 1223.4375,907.7474 L25,907.7474 A4.1667,4.1667 0 0 1 20.8333,903.5807 L20.8333,446.6146 " fill="url(#g1hxdz8nrm5kqo0)" style="stroke:none;stroke-width:1.0416666666666667;"/><rect fill="url(#g1hxdz8nrm5kqo0)" filter="url(#f1hxdz8nrm5kqo)" height="309.1471" rx="4.1667" ry="4.1667" style="stroke:#2196F3;stroke-width:1.0416666666666667;" width="1185.9375" x="31.25" y="591.3086"/><path d="M31.25,698.5026 L1217.1875,698.5026 L1217.1875,896.2891 A4.1667,4.1667 0 0 1 1213.0208,900.4557 L35.4167,900.4557 A4.1667,4.1667 0 0 1 31.25,896.2891 L31.25,698.5026 " fill="url(#g1hxdz8nrm5kqo0)" style="stroke:none;stroke-width:1.0416666666666667;"/><line style="stroke:#CCCCCC;stroke-width:1.0416666666666667;stroke-dasharray:5.0,5.0;" x1="72.9167" x2="72.9167" y1="112.4674" y2="1125.3255"/><line style="stroke:#CCCCCC;stroke-width:1.0416666666666667;stroke-dasharray:5.0,5.0;" x1="285.9375" x2="285.9375" y1="112.4674" y2="1125.3255"/><line style="stroke:#CCCCCC;stroke-width:1.0416666666666667;stroke-dasharray:5.0,5.0;" x1="554.6875" x2="554.6875" y1="112.4674" y2="1125.3255"/><line style="stroke:#CCCCCC;stroke-width:1.0416666666666667;stroke-dasharray:5.0,5.0;" x1="818.2292" x2="818.2292" y1="112.4674" y2="1125.3255"/><line style="stroke:#CCCCCC;stroke-width:1.0416666666666667;stroke-dasharray:5.0,5.0;" x1="1081.7708" x2="1081.7708" y1="112.4674" y2="1125.3255"/><line style="stroke:#CCCCCC;stroke-width:1.0416666666666667;stroke-dasharray:5.0,5.0;" x1="1324.4792" x2="1324.4792" y1="112.4674" y2="1125.3255"/><text fill="#222222" font-family="Verdana" font-size="12.5" lengthAdjust="spacing" textLength="36.4583" x="52.0833" y="99.1028">Client</text><ellipse cx="73.4375" cy="19.7917" fill="url(#g1hxdz8nrm5kqo1)" filter="url(#f1hxdz8nrm5kqo)" rx="8.3333" ry="8.3333" style="stroke:#2196F3;stroke-width:1.0416666666666667;"/><path d="M73.4375,28.125 L73.4375,56.25 M59.8958,36.4583 L86.9792,36.4583 M73.4375,56.25 L59.8958,71.875 M73.4375,56.25 L86.9792,71.875 " fill="none" filter="url(#f1hxdz8nrm5kqo)" style="stroke:#2196F3;stroke-width:1.0416666666666667;"/><text fill="#222222" font-family="Verdana" font-size="12.5" lengthAdjust="spacing" textLength="36.4583" x="52.0833" y="1146.3033">Client</text><ellipse cx="73.4375" cy="1169.043" fill="url(#g1hxdz8nrm5kqo1)" filter="url(#f1hxdz8nrm5kqo)" rx="8.3333" ry="8.3333" style="stroke:#2196F3;stroke-width:1.0416666666666667;"/><path d="M73.4375,1177.3763 L73.4375,1205.5013 M59.8958,1185.7096 L86.9792,1185.7096 M73.4375,1205.5013 L59.8958,1221.1263 M73.4375,1205.5013 L86.9792,1221.1263 " fill="none" filter="url(#f1hxdz8nrm5kqo)" style="stroke:#2196F3;stroke-width:1.0416666666666667;"/><rect fill="url(#g1hxdz8nrm5kqo1)" filter="url(#f1hxdz8nrm5kqo)" height="49.9674" rx="4.1667" ry="4.1667" style="stroke:#2196F3;stroke-width:1.0416666666666667;" width="178.125" x="195.3125" y="58.3333"/><text fill="#FFFFFF" font-family="Verdana" font-size="12.5" lengthAdjust="spacing" textLength="142.7083" x="213.0208" y="87.6444">SendAPIControllerImpl</text><rect fill="url(#g1hxdz8nrm5kqo1)" filter="url(#f1hxdz8nrm5kqo)" height="49.9674" rx="4.1667" ry="4.1667" style="stroke:#2196F3;stroke-width:1.0416666666666667;" width="178.125" x="195.3125" y="1124.2839"/><text fill="#FFFFFF" font-family="Verdana" font-size="12.5" lengthAdjust="spacing" textLength="142.7083" x="213.0208" y="1153.595">SendAPIControllerImpl</text><rect fill="url(#g1hxdz8nrm5kqo1)" filter="url(#f1hxdz8nrm5kqo)" height="49.9674" rx="4.1667" ry="4.1667" style="stroke:#2196F3;stroke-width:1.0416666666666667;" width="165.625" x="470.3125" y="58.3333"/><text fill="#FFFFFF" font-family="Verdana" font-size="12.5" lengthAdjust="spacing" textLength="130.2083" x="488.0208" y="87.6444">SendRTPServiceImpl</text><rect fill="url(#g1hxdz8nrm5kqo1)" filter="url(#f1hxdz8nrm5kqo)" height="49.9674" rx="4.1667" ry="4.1667" style="stroke:#2196F3;stroke-width:1.0416666666666667;" width="165.625" x="470.3125" y="1124.2839"/><text fill="#FFFFFF" font-family="Verdana" font-size="12.5" lengthAdjust="spacing" textLength="130.2083" x="488.0208" y="1153.595">SendRTPServiceImpl</text><rect fill="url(#g1hxdz8nrm5kqo1)" filter="url(#f1hxdz8nrm5kqo)" height="64.5182" rx="4.1667" ry="4.1667" style="stroke:#2196F3;stroke-width:1.0416666666666667;" width="168.75" x="732.8125" y="43.7826"/><text fill="#FFFFFF" font-family="Verdana" font-size="12.5" lengthAdjust="spacing" textLength="90.625" x="771.875" y="73.0937">RtpRepository</text><text fill="#FFFFFF" font-family="Verdana" font-size="12.5" lengthAdjust="spacing" textLength="133.3333" x="750.5208" y="87.6444">(Cosmos API Mongo)</text><rect fill="url(#g1hxdz8nrm5kqo1)" filter="url(#f1hxdz8nrm5kqo)" height="64.5182" rx="4.1667" ry="4.1667" style="stroke:#2196F3;stroke-width:1.0416666666666667;" width="168.75" x="732.8125" y="1124.2839"/><text fill="#FFFFFF" font-family="Verdana" font-size="12.5" lengthAdjust="spacing" textLength="90.625" x="771.875" y="1153.595">RtpRepository</text><text fill="#FFFFFF" font-family="Verdana" font-size="12.5" lengthAdjust="spacing" textLength="133.3333" x="750.5208" y="1168.1458">(Cosmos API Mongo)</text><rect fill="url(#g1hxdz8nrm5kqo1)" filter="url(#f1hxdz8nrm5kqo)" height="49.9674" rx="4.1667" ry="4.1667" style="stroke:#2196F3;stroke-width:1.0416666666666667;" width="163.5417" x="998.4375" y="58.3333"/><text fill="#FFFFFF" font-family="Verdana" font-size="12.5" lengthAdjust="spacing" textLength="128.125" x="1016.1458" y="87.6444">Azure Data Explorer</text><rect fill="url(#g1hxdz8nrm5kqo1)" filter="url(#f1hxdz8nrm5kqo)" height="49.9674" rx="4.1667" ry="4.1667" style="stroke:#2196F3;stroke-width:1.0416666666666667;" width="163.5417" x="998.4375" y="1124.2839"/><text fill="#FFFFFF" font-family="Verdana" font-size="12.5" lengthAdjust="spacing" textLength="128.125" x="1016.1458" y="1153.595">Azure Data Explorer</text><rect fill="url(#g1hxdz8nrm5kqo1)" filter="url(#f1hxdz8nrm5kqo)" height="49.9674" rx="4.1667" ry="4.1667" style="stroke:#2196F3;stroke-width:1.0416666666666667;" width="129.1667" x="1258.8542" y="58.3333"/><text fill="#FFFFFF" font-family="Verdana" font-size="12.5" lengthAdjust="spacing" textLength="93.75" x="1276.5625" y="87.6444">RtpDtoMapper</text><rect fill="url(#g1hxdz8nrm5kqo1)" filter="url(#f1hxdz8nrm5kqo)" height="49.9674" rx="4.1667" ry="4.1667" style="stroke:#2196F3;stroke-width:1.0416666666666667;" width="129.1667" x="1258.8542" y="1124.2839"/><text fill="#FFFFFF" font-family="Verdana" font-size="12.5" lengthAdjust="spacing" textLength="93.75" x="1276.5625" y="1153.595">RtpDtoMapper</text><rect fill="#FFFFFF" filter="url(#f1hxdz8nrm5kqo)" height="713.0208" style="stroke:#CCCCCC;stroke-width:1.0416666666666667;" width="10.4167" x="280.7292" y="164.5182"/><rect fill="#FFFFFF" filter="url(#f1hxdz8nrm5kqo)" height="553.7435" style="stroke:#CCCCCC;stroke-width:1.0416666666666667;" width="10.4167" x="549.4792" y="273.8281"/><rect fill="#FFFFFF" filter="url(#f1hxdz8nrm5kqo)" height="49.9674" style="stroke:#CCCCCC;stroke-width:1.0416666666666667;" width="10.4167" x="1319.7917" y="1006.6406"/><polygon fill="#2196F3" points="268.2292,160.3516,278.6458,164.5182,268.2292,168.6849,272.3958,164.5182" style="stroke:#2196F3;stroke-width:1.0416666666666667;"/><line style="stroke:#2196F3;stroke-width:3.125;" x1="73.4375" x2="274.4792" y1="164.5182" y2="164.5182"/><text fill="#222222" font-family="Verdana" font-size="12.5" lengthAdjust="spacing" textLength="110.4167" x="91.1458" y="149.0702">GET /rtps/{rtpId}</text><path d="M295.8333,182.2266 L295.8333,218.6849 A4.1667,4.1667 0 0 0 300,222.8516 L613.5417,222.8516 A4.1667,4.1667 0 0 0 617.7083,218.6849 L617.7083,188.4766 L607.2917,178.0599 L300,178.0599 A4.1667,4.1667 0 0 0 295.8333,182.2266 " fill="url(#g1hxdz8nrm5kqo2)" filter="url(#f1hxdz8nrm5kqo)" style="stroke:#9C27B0;stroke-width:1.0416666666666667;"/><path d="M607.2917,178.0599 L607.2917,186.3932 A2.0833,2.0833 0 0 0 609.375,188.4766 L617.7083,188.4766 L607.2917,178.0599 " fill="url(#g1hxdz8nrm5kqo2)" style="stroke:#9C27B0;stroke-width:1.0416666666666667;"/><text fill="#FFFFFF" font-family="Verdana" font-size="12.5" lengthAdjust="spacing" textLength="279.1667" x="312.5" y="205.2877">@PreAuthorize("hasRole('read_rtp_send')")</text><polygon fill="#2196F3" points="536.9792,269.6615,547.3958,273.8281,536.9792,277.9948,541.1458,273.8281" style="stroke:#2196F3;stroke-width:1.0416666666666667;"/><line style="stroke:#2196F3;stroke-width:3.125;" x1="291.1458" x2="543.2292" y1="273.8281" y2="273.8281"/><text fill="#222222" font-family="Verdana" font-size="12.5" lengthAdjust="spacing" textLength="86.4583" x="308.8542" y="258.3801">findRtp(rtpId)</text><polygon fill="#2196F3" points="806.25,319.6289,816.6667,323.7956,806.25,327.9622,810.4167,323.7956" style="stroke:#2196F3;stroke-width:1.0416666666666667;"/><line style="stroke:#2196F3;stroke-width:3.125;" x1="559.8958" x2="812.5" y1="323.7956" y2="323.7956"/><text fill="#222222" font-family="Verdana" font-size="12.5" lengthAdjust="spacing" textLength="134.375" x="577.6042" y="308.3476">findById(ResourceID)</text><path d="M25,339.4206 L108.3333,339.4206 L108.3333,366.4714 L97.9167,376.888 L20.8333,376.888 L20.8333,343.5872 A4.1667,4.1667 0 0 1 25,339.4206 " fill="#FFFFFF" style="stroke:#666666;stroke-width:1.0416666666666667;"/><rect fill="none" height="568.3268" rx="4.1667" ry="4.1667" style="stroke:#2196F3;stroke-width:1.0416666666666667;" width="1206.7708" x="20.8333" y="339.4206"/><text fill="#9C27B0" font-family="Verdana" font-size="12.5" font-weight="bold" lengthAdjust="spacing" textLength="19.7917" x="46.875" y="362.4817">alt</text><text fill="#222222" font-family="Verdana" font-size="12.5" font-weight="bold" lengthAdjust="spacing" textLength="163.5417" x="134.375" y="363.5234">[RTP found in Cosmos]</text><polygon fill="#2196F3" points="571.3542,434.1146,560.9375,438.2813,571.3542,442.4479,567.1875,438.2813" style="stroke:#2196F3;stroke-width:1.0416666666666667;"/><line style="stroke:#2196F3;stroke-width:3.125;stroke-dasharray:2.0,2.0;" x1="565.1042" x2="817.7083" y1="438.2813" y2="438.2813"/><text fill="#222222" font-family="Verdana" font-size="12.5" lengthAdjust="spacing" textLength="78.125" x="588.0208" y="422.8333">Mono&lt;Rtp&gt;</text><line style="stroke:#2196F3;stroke-width:1.0416666666666667;stroke-dasharray:2.0,2.0;" x1="20.8333" x2="1227.6042" y1="447.6563" y2="447.6563"/><text fill="#222222" font-family="Verdana" font-size="12.5" font-weight="bold" lengthAdjust="spacing" textLength="192.7083" x="36.4583" y="469.6757">[RTP not found in Cosmos]</text><polygon fill="#2196F3" points="571.3542,521.5495,560.9375,525.7161,571.3542,529.8828,567.1875,525.7161" style="stroke:#2196F3;stroke-width:1.0416666666666667;"/><line style="stroke:#2196F3;stroke-width:3.125;stroke-dasharray:2.0,2.0;" x1="565.1042" x2="817.7083" y1="525.7161" y2="525.7161"/><text fill="#222222" font-family="Verdana" font-size="12.5" lengthAdjust="spacing" textLength="89.5833" x="588.0208" y="510.2681">Mono.empty()</text><polygon fill="#2196F3" points="1069.2708,571.5169,1079.6875,575.6836,1069.2708,579.8503,1073.4375,575.6836" style="stroke:#2196F3;stroke-width:1.0416666666666667;"/><line style="stroke:#2196F3;stroke-width:3.125;" x1="559.8958" x2="1075.5208" y1="575.6836" y2="575.6836"/><text fill="#222222" font-family="Verdana" font-size="12.5" lengthAdjust="spacing" textLength="86.4583" x="577.6042" y="560.2356">findRtp(rtpId)</text><path d="M35.4167,591.3086 L118.75,591.3086 L118.75,618.3594 L108.3333,628.776 L31.25,628.776 L31.25,595.4753 A4.1667,4.1667 0 0 1 35.4167,591.3086 " fill="#FFFFFF" style="stroke:#666666;stroke-width:1.0416666666666667;"/><rect fill="none" height="309.1471" rx="4.1667" ry="4.1667" style="stroke:#2196F3;stroke-width:1.0416666666666667;" width="1185.9375" x="31.25" y="591.3086"/><text fill="#9C27B0" font-family="Verdana" font-size="12.5" font-weight="bold" lengthAdjust="spacing" textLength="19.7917" x="57.2917" y="614.3697">alt</text><text fill="#222222" font-family="Verdana" font-size="12.5" font-weight="bold" lengthAdjust="spacing" textLength="253.125" x="144.7917" y="615.4114">[RTP found in Azure Data Explorer]</text><polygon fill="#2196F3" points="571.3542,686.0026,560.9375,690.1693,571.3542,694.3359,567.1875,690.1693" style="stroke:#2196F3;stroke-width:1.0416666666666667;"/><line style="stroke:#2196F3;stroke-width:3.125;stroke-dasharray:2.0,2.0;" x1="565.1042" x2="1080.7292" y1="690.1693" y2="690.1693"/><text fill="#222222" font-family="Verdana" font-size="12.5" lengthAdjust="spacing" textLength="78.125" x="588.0208" y="674.7213">Mono&lt;Rtp&gt;</text><line style="stroke:#2196F3;stroke-width:1.0416666666666667;stroke-dasharray:2.0,2.0;" x1="31.25" x2="1217.1875" y1="699.5443" y2="699.5443"/><text fill="#222222" font-family="Verdana" font-size="12.5" font-weight="bold" lengthAdjust="spacing" textLength="282.2917" x="46.875" y="721.5637">[RTP not found in Azure Data Explorer]</text><polygon fill="#2196F3" points="571.3542,773.4375,560.9375,777.6042,571.3542,781.7708,567.1875,777.6042" style="stroke:#2196F3;stroke-width:1.0416666666666667;"/><line style="stroke:#2196F3;stroke-width:3.125;stroke-dasharray:2.0,2.0;" x1="565.1042" x2="1080.7292" y1="777.6042" y2="777.6042"/><text fill="#222222" font-family="Verdana" font-size="12.5" lengthAdjust="spacing" textLength="89.5833" x="588.0208" y="762.1562">Mono.empty()</text><polygon fill="#2196F3" points="302.6042,823.4049,292.1875,827.5716,302.6042,831.7383,298.4375,827.5716" style="stroke:#2196F3;stroke-width:1.0416666666666667;"/><line style="stroke:#2196F3;stroke-width:3.125;stroke-dasharray:2.0,2.0;" x1="296.3542" x2="553.6458" y1="827.5716" y2="827.5716"/><text fill="#222222" font-family="Verdana" font-size="12.5" lengthAdjust="spacing" textLength="191.6667" x="319.2708" y="812.1236">error(RtpNotFoundException)</text><polygon fill="#2196F3" points="84.8958,873.3724,74.4792,877.5391,84.8958,881.7057,80.7292,877.5391" style="stroke:#2196F3;stroke-width:1.0416666666666667;"/><line style="stroke:#2196F3;stroke-width:3.125;stroke-dasharray:2.0,2.0;" x1="78.6458" x2="284.8958" y1="877.5391" y2="877.5391"/><text fill="#222222" font-family="Verdana" font-size="12.5" lengthAdjust="spacing" textLength="96.875" x="101.5625" y="862.0911">404 Not Found</text><polygon fill="#2196F3" points="273.4375,887.9557,283.8542,892.1224,273.4375,896.2891,277.6042,892.1224" style="stroke:#2196F3;stroke-width:1.0416666666666667;"/><line style="stroke:#2196F3;stroke-width:3.125;stroke-dasharray:2.0,2.0;" x1="73.4375" x2="279.6875" y1="892.1224" y2="892.1224"/><polygon fill="#2196F3" points="297.3958,952.5065,286.9792,956.6732,297.3958,960.8398,293.2292,956.6732" style="stroke:#2196F3;stroke-width:1.0416666666666667;"/><line style="stroke:#2196F3;stroke-width:3.125;stroke-dasharray:2.0,2.0;" x1="291.1458" x2="553.6458" y1="956.6732" y2="956.6732"/><text fill="#222222" font-family="Verdana" font-size="12.5" lengthAdjust="spacing" textLength="78.125" x="314.0625" y="941.2252">Mono&lt;Rtp&gt;</text><polygon fill="#2196F3" points="1307.2917,1002.474,1317.7083,1006.6406,1307.2917,1010.8073,1311.4583,1006.6406" style="stroke:#2196F3;stroke-width:1.0416666666666667;"/><line style="stroke:#2196F3;stroke-width:3.125;" x1="285.9375" x2="1313.5417" y1="1006.6406" y2="1006.6406"/><text fill="#222222" font-family="Verdana" font-size="12.5" lengthAdjust="spacing" textLength="90.625" x="303.6458" y="991.1926">toRtpDto(Rtp)</text><polygon fill="#2196F3" points="297.3958,1052.4414,286.9792,1056.6081,297.3958,1060.7747,293.2292,1056.6081" style="stroke:#2196F3;stroke-width:1.0416666666666667;"/><line style="stroke:#2196F3;stroke-width:3.125;stroke-dasharray:2.0,2.0;" x1="291.1458" x2="1323.9583" y1="1056.6081" y2="1056.6081"/><text fill="#222222" font-family="Verdana" font-size="12.5" lengthAdjust="spacing" textLength="44.7917" x="314.0625" y="1041.1601">RtpDto</text><polygon fill="#2196F3" points="84.8958,1102.4089,74.4792,1106.5755,84.8958,1110.7422,80.7292,1106.5755" style="stroke:#2196F3;stroke-width:1.0416666666666667;"/><line style="stroke:#2196F3;stroke-width:3.125;stroke-dasharray:2.0,2.0;" x1="78.6458" x2="284.8958" y1="1106.5755" y2="1106.5755"/><text fill="#222222" font-family="Verdana" font-size="12.5" lengthAdjust="spacing" textLength="166.6667" x="101.5625" y="1091.1275">ResponseEntity&lt;RtpDto&gt;</text><!--SRC=[bLF1Rfj04BtlLqov10vfUiWfYgAwjblvaCeYEVGGALgPSRmIxAnsXoXErN_lm683mJu42GlCUs_UcvdzmZki42hDw8rMIc-OF2Jpqg3b17I0-AYSzcmsncdBa3oWBMRhrPmiUofBzAlAbH5z_6lAo1_N3-XVpGQFyEvzZCtPvUWe6B6oVxBfd4950QGWt9DzeQobzf0nU_PUUuI5PWtBDrUIHz_YPui_ap8BfdljN8U8Zqh5n71vDqW3D_1h-GXNdbsu-Yk_g-9VqoppAfqRfhOaxzwyx1XeEnRullOugtb7thnZcknqoAd4zCAZBfv5yZb8aowo91CBFKziT5qIYQsHDh9BMmDPR-3GHtM02gjlK4VyiLyLQOw1QYyZM4WPNJB8L61BjIt0M8YjLY3NW7uvyY0pe5inSQSKbW5R0KdzUP6lM3dUfrcB71YNIKsZjg29tnF3Re7DrSYSSzvyFst-yugZ6ACe7pS8lIUVYe7Vn3-RWikt3JesP7joWPEX7ZuDbwAHZcjw0zVVha4KePKy9JHOpyDNZrnx6_iWfEPMPtttVJlXxiEknaCa9APum9gyWqtj3ba7cvIAd66TuwayaruMsf4DkBHiU7yR1KPE1_7_0m00]--></g></svg>