<?xml version="1.0" encoding="us-ascii" standalone="no"?><svg xmlns="http://www.w3.org/2000/svg" xmlns:xlink="http://www.w3.org/1999/xlink" contentStyleType="text/css" height="1553.125px" preserveAspectRatio="none" style="width:1354px;height:1553px;" version="1.1" viewBox="0 0 1354 1553" width="1354.1667px" zoomAndPan="magnify"><defs><linearGradient id="g9ipn141v3b460" x1="50%" x2="50%" y1="0%" y2="100%"><stop offset="0%" stop-color="#FFFFFF"/><stop offset="100%" stop-color="#FFFFFF"/></linearGradient><filter height="300%" id="f9ipn141v3b46" width="300%" x="-1" y="-1"><feGaussianBlur result="blurOut" stdDeviation="2.0833333333333335"/><feColorMatrix in="blurOut" result="blurOut2" type="matrix" values="0 0 0 0 0 0 0 0 0 0 0 0 0 0 0 0 0 0 .4 0"/><feOffset dx="4.166666666666667" dy="4.166666666666667" in="blurOut2" result="blurOut3"/><feBlend in="SourceGraphic" in2="blurOut3" mode="normal"/></filter><linearGradient id="g9ipn141v3b461" x1="50%" x2="50%" y1="0%" y2="100%"><stop offset="0%" stop-color="#4DABF5"/><stop offset="100%" stop-color="#2196F3"/></linearGradient><linearGradient id="g9ipn141v3b462" x1="50%" x2="50%" y1="0%" y2="100%"><stop offset="0%" stop-color="#B052C0"/><stop offset="100%" stop-color="#9C27B0"/></linearGradient></defs><g><rect fill="url(#g9ipn141v3b460)" height="57.5846" id="_title" rx="4.1667" ry="4.1667" style="stroke:#CCCCCC;stroke-width:1.0416666666666667;" width="461.4583" x="448.9583" y="20.8333"/><text fill="#2196F3" font-family="Verdana" font-size="20.8333" font-weight="bold" lengthAdjust="spacing" textLength="428.125" x="465.625" y="56.838">RTP Activation API: GET /activations</text><rect fill="#FFFFFF" filter="url(#f9ipn141v3b46)" height="1176.2044" style="stroke:#CCCCCC;stroke-width:1.0416666666666667;" width="10.4167" x="686.9792" y="258.5286"/><rect fill="#98FB98" filter="url(#f9ipn141v3b46)" height="1079.3945" rx="4.1667" ry="4.1667" style="stroke:#2196F3;stroke-width:1.0416666666666667;" width="1116.1458" x="19.7917" y="348.0469"/><path d="M19.7917,715.4948 L1135.9375,715.4948 L1135.9375,1212.9883 A4.1667,4.1667 0 0 1 1131.7708,1217.1549 L23.9583,1217.1549 A4.1667,4.1667 0 0 1 19.7917,1212.9883 L19.7917,715.4948 " fill="#F08080" style="stroke:none;stroke-width:1.0416666666666667;"/><rect fill="url(#g9ipn141v3b460)" filter="url(#f9ipn141v3b46)" height="166.5039" rx="4.1667" ry="4.1667" style="stroke:#2196F3;stroke-width:1.0416666666666667;" width="561.9792" x="259.375" y="760.2539"/><rect fill="url(#g9ipn141v3b460)" filter="url(#f9ipn141v3b46)" height="166.5039" rx="4.1667" ry="4.1667" style="stroke:#2196F3;stroke-width:1.0416666666666667;" width="561.9792" x="259.375" y="941.3411"/><rect fill="url(#g9ipn141v3b460)" filter="url(#f9ipn141v3b46)" height="87.4349" rx="4.1667" ry="4.1667" style="stroke:#2196F3;stroke-width:1.0416666666666667;" width="561.9792" x="259.375" y="1122.4284"/><path d="M19.7917,1217.1549 L1135.9375,1217.1549 L1135.9375,1423.2747 A4.1667,4.1667 0 0 1 1131.7708,1427.4414 L23.9583,1427.4414 A4.1667,4.1667 0 0 1 19.7917,1423.2747 L19.7917,1217.1549 " fill="#8B0000" style="stroke:none;stroke-width:1.0416666666666667;"/><line style="stroke:#CCCCCC;stroke-width:1.0416666666666667;stroke-dasharray:5.0,5.0;" x1="360.4167" x2="360.4167" y1="191.9271" y2="1445.1497"/><line style="stroke:#CCCCCC;stroke-width:1.0416666666666667;stroke-dasharray:5.0,5.0;" x1="692.1875" x2="692.1875" y1="191.9271" y2="1445.1497"/><text fill="#222222" font-family="Verdana" font-size="12.5" lengthAdjust="spacing" textLength="155.2083" x="280.2083" y="178.5624">Payer's Service Provider</text><ellipse cx="360.9375" cy="99.2513" fill="url(#g9ipn141v3b461)" filter="url(#f9ipn141v3b46)" rx="8.3333" ry="8.3333" style="stroke:#2196F3;stroke-width:1.0416666666666667;"/><path d="M360.9375,107.5846 L360.9375,135.7096 M347.3958,115.918 L374.4792,115.918 M360.9375,135.7096 L347.3958,151.3346 M360.9375,135.7096 L374.4792,151.3346 " fill="none" filter="url(#f9ipn141v3b46)" style="stroke:#2196F3;stroke-width:1.0416666666666667;"/><text fill="#222222" font-family="Verdana" font-size="12.5" lengthAdjust="spacing" textLength="155.2083" x="280.2083" y="1466.1275">Payer's Service Provider</text><ellipse cx="360.9375" cy="1488.8672" fill="url(#g9ipn141v3b461)" filter="url(#f9ipn141v3b46)" rx="8.3333" ry="8.3333" style="stroke:#2196F3;stroke-width:1.0416666666666667;"/><path d="M360.9375,1497.2005 L360.9375,1525.3255 M347.3958,1505.5339 L374.4792,1505.5339 M360.9375,1525.3255 L347.3958,1540.9505 M360.9375,1525.3255 L374.4792,1540.9505 " fill="none" filter="url(#f9ipn141v3b46)" style="stroke:#2196F3;stroke-width:1.0416666666666667;"/><rect fill="url(#g9ipn141v3b461)" filter="url(#f9ipn141v3b46)" height="49.9674" rx="4.1667" ry="4.1667" style="stroke:#2196F3;stroke-width:1.0416666666666667;" width="151.0417" x="615.1042" y="137.793"/><text fill="#FFFFFF" font-family="Verdana" font-size="12.5" lengthAdjust="spacing" textLength="115.625" x="632.8125" y="167.1041">RTP Activation API</text><rect fill="url(#g9ipn141v3b461)" filter="url(#f9ipn141v3b46)" height="49.9674" rx="4.1667" ry="4.1667" style="stroke:#2196F3;stroke-width:1.0416666666666667;" width="151.0417" x="615.1042" y="1444.1081"/><text fill="#FFFFFF" font-family="Verdana" font-size="12.5" lengthAdjust="spacing" textLength="115.625" x="632.8125" y="1473.4192">RTP Activation API</text><rect fill="#FFFFFF" filter="url(#f9ipn141v3b46)" height="1176.2044" style="stroke:#CCCCCC;stroke-width:1.0416666666666667;" width="10.4167" x="686.9792" y="258.5286"/><polygon fill="#2196F3" points="674.4792,254.362,684.8958,258.5286,674.4792,262.6953,678.6458,258.5286" style="stroke:#2196F3;stroke-width:1.0416666666666667;"/><line style="stroke:#2196F3;stroke-width:3.125;" x1="360.9375" x2="680.7292" y1="258.5286" y2="258.5286"/><text fill="#222222" font-family="Verdana" font-size="12.5" font-weight="bold" lengthAdjust="spacing" textLength="8.3333" x="378.6458" y="235.8053">1</text><text fill="#222222" font-family="Verdana" font-size="12.5" lengthAdjust="spacing" textLength="223.9583" x="411.9792" y="228.5299">GET /activations?page=0&amp;size=20</text><text fill="#222222" font-family="Verdana" font-size="12.5" lengthAdjust="spacing" textLength="134.375" x="411.9792" y="243.0806">(Get Activations List)</text><path d="M702.0833,276.237 L702.0833,327.2786 A4.1667,4.1667 0 0 0 706.25,331.4453 L1337.5,331.4453 A4.1667,4.1667 0 0 0 1341.6667,327.2786 L1341.6667,282.487 L1331.25,272.0703 L706.25,272.0703 A4.1667,4.1667 0 0 0 702.0833,276.237 " fill="url(#g9ipn141v3b462)" filter="url(#f9ipn141v3b46)" style="stroke:#9C27B0;stroke-width:1.0416666666666667;"/><path d="M1331.25,272.0703 L1331.25,280.4036 A2.0833,2.0833 0 0 0 1333.3333,282.487 L1341.6667,282.487 L1331.25,272.0703 " fill="url(#g9ipn141v3b462)" style="stroke:#9C27B0;stroke-width:1.0416666666666667;"/><text fill="#FFFFFF" font-family="Verdana" font-size="12.5" font-weight="bold" lengthAdjust="spacing" textLength="80.2083" x="718.75" y="299.2981">Operation:</text><text fill="#FFFFFF" font-family="Verdana" font-size="12.5" lengthAdjust="spacing" textLength="105.2083" x="803.125" y="299.2981">`getActivations`</text><text fill="#FFFFFF" font-family="Verdana" font-size="12.5" font-weight="bold" lengthAdjust="spacing" textLength="89.5833" x="718.75" y="313.8489">Description:</text><text fill="#FFFFFF" font-family="Verdana" font-size="12.5" lengthAdjust="spacing" textLength="503.125" x="812.5" y="313.8489">Retrieves a paginated list of activation records, respecting user permissions.</text><path d="M23.9583,348.0469 L107.2917,348.0469 L107.2917,375.0977 L96.875,385.5143 L19.7917,385.5143 L19.7917,352.2135 A4.1667,4.1667 0 0 1 23.9583,348.0469 " fill="#FFFFFF" style="stroke:#666666;stroke-width:1.0416666666666667;"/><rect fill="none" height="1079.3945" rx="4.1667" ry="4.1667" style="stroke:#2196F3;stroke-width:1.0416666666666667;" width="1116.1458" x="19.7917" y="348.0469"/><text fill="#9C27B0" font-family="Verdana" font-size="12.5" font-weight="bold" lengthAdjust="spacing" textLength="19.7917" x="45.8333" y="371.108">alt</text><text fill="#222222" font-family="Verdana" font-size="12.5" font-weight="bold" lengthAdjust="spacing" textLength="110.4167" x="133.3333" y="372.1497">[Success Case]</text><line style="stroke:#2196F3;stroke-width:3.125;" x1="697.3958" x2="741.1458" y1="446.9076" y2="446.9076"/><line style="stroke:#2196F3;stroke-width:3.125;" x1="741.1458" x2="741.1458" y1="446.9076" y2="460.4492"/><line style="stroke:#2196F3;stroke-width:3.125;" x1="698.4375" x2="741.1458" y1="460.4492" y2="460.4492"/><polygon fill="#2196F3" points="708.8542,456.2826,698.4375,460.4492,708.8542,464.6159,704.6875,460.4492" style="stroke:#2196F3;stroke-width:1.0416666666666667;"/><text fill="#222222" font-family="Verdana" font-size="12.5" font-weight="bold" lengthAdjust="spacing" textLength="8.3333" x="715.1042" y="431.4596">2</text><text fill="#222222" font-family="Verdana" font-size="12.5" lengthAdjust="spacing" textLength="364.5833" x="748.4375" y="431.4596">1. Validate Request, Security Token &amp; Page Parameters</text><line style="stroke:#2196F3;stroke-width:3.125;" x1="697.3958" x2="741.1458" y1="510.4167" y2="510.4167"/><line style="stroke:#2196F3;stroke-width:3.125;" x1="741.1458" x2="741.1458" y1="510.4167" y2="523.9583"/><line style="stroke:#2196F3;stroke-width:3.125;" x1="698.4375" x2="741.1458" y1="523.9583" y2="523.9583"/><polygon fill="#2196F3" points="708.8542,519.7917,698.4375,523.9583,708.8542,528.125,704.6875,523.9583" style="stroke:#2196F3;stroke-width:1.0416666666666667;"/><text fill="#222222" font-family="Verdana" font-size="12.5" font-weight="bold" lengthAdjust="spacing" textLength="8.3333" x="715.1042" y="494.9687">3</text><text fill="#222222" font-family="Verdana" font-size="12.5" lengthAdjust="spacing" textLength="310.4167" x="748.4375" y="494.9687">2. Query activations based on user permissions</text><path d="M702.0833,541.6667 L702.0833,578.125 A4.1667,4.1667 0 0 0 706.25,582.2917 L944.7917,582.2917 A4.1667,4.1667 0 0 0 948.9583,578.125 L948.9583,547.9167 L938.5417,537.5 L706.25,537.5 A4.1667,4.1667 0 0 0 702.0833,541.6667 " fill="url(#g9ipn141v3b462)" filter="url(#f9ipn141v3b46)" style="stroke:#9C27B0;stroke-width:1.0416666666666667;"/><path d="M938.5417,537.5 L938.5417,545.8333 A2.0833,2.0833 0 0 0 940.625,547.9167 L948.9583,547.9167 L938.5417,537.5 " fill="url(#g9ipn141v3b462)" style="stroke:#9C27B0;stroke-width:1.0416666666666667;"/><text fill="#FFFFFF" font-family="Verdana" font-size="12.5" lengthAdjust="spacing" textLength="204.1667" x="718.75" y="564.7278">A list of activations is retrieved.</text><polygon fill="#2196F3" points="372.3958,643.6523,361.9792,647.819,372.3958,651.9857,368.2292,647.819" style="stroke:#2196F3;stroke-width:1.0416666666666667;"/><line style="stroke:#2196F3;stroke-width:3.125;stroke-dasharray:2.0,2.0;" x1="366.1458" x2="685.9375" y1="647.819" y2="647.819"/><text fill="#222222" font-family="Verdana" font-size="12.5" font-weight="bold" lengthAdjust="spacing" textLength="8.3333" x="389.0625" y="625.0956">4</text><text fill="#222222" font-family="Verdana" font-size="12.5" font-weight="bold" lengthAdjust="spacing" textLength="50" x="422.3958" y="617.8202">200 OK</text><text fill="#222222" font-family="Verdana" font-size="12.5" lengthAdjust="spacing" textLength="246.875" x="422.3958" y="632.371">(Returns paginated list of activations)</text><path d="M30.2083,665.5273 L30.2083,701.9857 A4.1667,4.1667 0 0 0 34.375,706.1523 L347.9167,706.1523 A4.1667,4.1667 0 0 0 352.0833,701.9857 L352.0833,671.7773 L341.6667,661.3607 L34.375,661.3607 A4.1667,4.1667 0 0 0 30.2083,665.5273 " fill="url(#g9ipn141v3b462)" filter="url(#f9ipn141v3b46)" style="stroke:#9C27B0;stroke-width:1.0416666666666667;"/><path d="M341.6667,661.3607 L341.6667,669.694 A2.0833,2.0833 0 0 0 343.75,671.7773 L352.0833,671.7773 L341.6667,661.3607 " fill="url(#g9ipn141v3b462)" style="stroke:#9C27B0;stroke-width:1.0416666666666667;"/><text fill="#FFFFFF" font-family="Verdana" font-size="12.5" lengthAdjust="spacing" textLength="279.1667" x="46.875" y="688.5885">A page of activation records was returned.</text><line style="stroke:#2196F3;stroke-width:1.0416666666666667;stroke-dasharray:2.0,2.0;" x1="19.7917" x2="1135.9375" y1="716.5365" y2="716.5365"/><text fill="#222222" font-family="Verdana" font-size="12.5" font-weight="bold" lengthAdjust="spacing" textLength="139.5833" x="35.4167" y="738.5559">[Client-Side Errors]</text><path d="M263.5417,760.2539 L598.9583,760.2539 L598.9583,787.3047 L588.5417,797.7214 L259.375,797.7214 L259.375,764.4206 A4.1667,4.1667 0 0 1 263.5417,760.2539 " fill="#FFFFFF" style="stroke:#666666;stroke-width:1.0416666666666667;"/><rect fill="none" height="166.5039" rx="4.1667" ry="4.1667" style="stroke:#2196F3;stroke-width:1.0416666666666667;" width="561.9792" x="259.375" y="760.2539"/><text fill="#9C27B0" font-family="Verdana" font-size="12.5" font-weight="bold" lengthAdjust="spacing" textLength="271.875" x="285.4167" y="783.315">Authentication / Authorization Errors</text><polygon fill="#2196F3" points="372.3958,849.7396,361.9792,853.9063,372.3958,858.0729,368.2292,853.9063" style="stroke:#2196F3;stroke-width:1.0416666666666667;"/><line style="stroke:#2196F3;stroke-width:3.125;stroke-dasharray:2.0,2.0;" x1="366.1458" x2="685.9375" y1="853.9063" y2="853.9063"/><text fill="#222222" font-family="Verdana" font-size="12.5" font-weight="bold" lengthAdjust="spacing" textLength="8.3333" x="389.0625" y="831.1829">5</text><text fill="#222222" font-family="Verdana" font-size="12.5" font-weight="bold" lengthAdjust="spacing" textLength="130.2083" x="422.3958" y="823.9075">401 Unauthorized</text><text fill="#222222" font-family="Verdana" font-size="12.5" lengthAdjust="spacing" textLength="195.8333" x="422.3958" y="838.4583">(e.g., Invalid or expired token)</text><polygon fill="#2196F3" points="372.3958,914.2578,361.9792,918.4245,372.3958,922.5911,368.2292,918.4245" style="stroke:#2196F3;stroke-width:1.0416666666666667;"/><line style="stroke:#2196F3;stroke-width:3.125;stroke-dasharray:2.0,2.0;" x1="366.1458" x2="685.9375" y1="918.4245" y2="918.4245"/><text fill="#222222" font-family="Verdana" font-size="12.5" font-weight="bold" lengthAdjust="spacing" textLength="8.3333" x="389.0625" y="895.7011">6</text><text fill="#222222" font-family="Verdana" font-size="12.5" font-weight="bold" lengthAdjust="spacing" textLength="104.1667" x="422.3958" y="888.4257">403 Forbidden</text><text fill="#222222" font-family="Verdana" font-size="12.5" lengthAdjust="spacing" textLength="196.875" x="422.3958" y="902.9765">(e.g., Insufficient permissions)</text><path d="M263.5417,941.3411 L521.875,941.3411 L521.875,968.3919 L511.4583,978.8086 L259.375,978.8086 L259.375,945.5078 A4.1667,4.1667 0 0 1 263.5417,941.3411 " fill="#FFFFFF" style="stroke:#666666;stroke-width:1.0416666666666667;"/><rect fill="none" height="166.5039" rx="4.1667" ry="4.1667" style="stroke:#2196F3;stroke-width:1.0416666666666667;" width="561.9792" x="259.375" y="941.3411"/><text fill="#9C27B0" font-family="Verdana" font-size="12.5" font-weight="bold" lengthAdjust="spacing" textLength="194.7917" x="285.4167" y="964.4023">Validation &amp; Format Errors</text><polygon fill="#2196F3" points="372.3958,1030.8268,361.9792,1034.9935,372.3958,1039.1602,368.2292,1034.9935" style="stroke:#2196F3;stroke-width:1.0416666666666667;"/><line style="stroke:#2196F3;stroke-width:3.125;stroke-dasharray:2.0,2.0;" x1="366.1458" x2="685.9375" y1="1034.9935" y2="1034.9935"/><text fill="#222222" font-family="Verdana" font-size="12.5" font-weight="bold" lengthAdjust="spacing" textLength="8.3333" x="389.0625" y="1012.2701">7</text><text fill="#222222" font-family="Verdana" font-size="12.5" font-weight="bold" lengthAdjust="spacing" textLength="122.9167" x="422.3958" y="1004.9947">400 Bad Request</text><text fill="#222222" font-family="Verdana" font-size="12.5" lengthAdjust="spacing" textLength="230.2083" x="422.3958" y="1019.5455">(e.g., Invalid page/size parameters)</text><polygon fill="#2196F3" points="372.3958,1095.3451,361.9792,1099.5117,372.3958,1103.6784,368.2292,1099.5117" style="stroke:#2196F3;stroke-width:1.0416666666666667;"/><line style="stroke:#2196F3;stroke-width:3.125;stroke-dasharray:2.0,2.0;" x1="366.1458" x2="685.9375" y1="1099.5117" y2="1099.5117"/><text fill="#222222" font-family="Verdana" font-size="12.5" font-weight="bold" lengthAdjust="spacing" textLength="8.3333" x="389.0625" y="1076.7883">8</text><text fill="#222222" font-family="Verdana" font-size="12.5" font-weight="bold" lengthAdjust="spacing" textLength="140.625" x="422.3958" y="1069.5129">406 Not Acceptable</text><text fill="#222222" font-family="Verdana" font-size="12.5" lengthAdjust="spacing" textLength="235.4167" x="422.3958" y="1084.0637">(e.g., Unsupported 'Accept' header)</text><path d="M263.5417,1122.4284 L423.9583,1122.4284 L423.9583,1149.4792 L413.5417,1159.8958 L259.375,1159.8958 L259.375,1126.5951 A4.1667,4.1667 0 0 1 263.5417,1122.4284 " fill="#FFFFFF" style="stroke:#666666;stroke-width:1.0416666666666667;"/><rect fill="none" height="87.4349" rx="4.1667" ry="4.1667" style="stroke:#2196F3;stroke-width:1.0416666666666667;" width="561.9792" x="259.375" y="1122.4284"/><text fill="#9C27B0" font-family="Verdana" font-size="12.5" font-weight="bold" lengthAdjust="spacing" textLength="96.875" x="285.4167" y="1145.4895">Rate Limiting</text><polygon fill="#2196F3" points="372.3958,1197.3633,361.9792,1201.5299,372.3958,1205.6966,368.2292,1201.5299" style="stroke:#2196F3;stroke-width:1.0416666666666667;"/><line style="stroke:#2196F3;stroke-width:3.125;stroke-dasharray:2.0,2.0;" x1="366.1458" x2="685.9375" y1="1201.5299" y2="1201.5299"/><text fill="#222222" font-family="Verdana" font-size="12.5" font-weight="bold" lengthAdjust="spacing" textLength="8.3333" x="389.0625" y="1186.0819">9</text><text fill="#222222" font-family="Verdana" font-size="12.5" font-weight="bold" lengthAdjust="spacing" textLength="173.9583" x="422.3958" y="1186.0819">429 Too Many Requests</text><line style="stroke:#2196F3;stroke-width:1.0416666666666667;stroke-dasharray:2.0,2.0;" x1="19.7917" x2="1135.9375" y1="1218.1966" y2="1218.1966"/><text fill="#222222" font-family="Verdana" font-size="12.5" font-weight="bold" lengthAdjust="spacing" textLength="136.4583" x="35.4167" y="1240.2161">[Server-Side Error]</text><line style="stroke:#2196F3;stroke-width:3.125;" x1="697.3958" x2="741.1458" y1="1296.2565" y2="1296.2565"/><line style="stroke:#2196F3;stroke-width:3.125;" x1="741.1458" x2="741.1458" y1="1296.2565" y2="1309.7982"/><line style="stroke:#2196F3;stroke-width:3.125;" x1="698.4375" x2="741.1458" y1="1309.7982" y2="1309.7982"/><polygon fill="#2196F3" points="708.8542,1305.6315,698.4375,1309.7982,708.8542,1313.9648,704.6875,1309.7982" style="stroke:#2196F3;stroke-width:1.0416666666666667;"/><text fill="#222222" font-family="Verdana" font-size="12.5" font-weight="bold" lengthAdjust="spacing" textLength="16.6667" x="715.1042" y="1280.8085">10</text><text fill="#222222" font-family="Verdana" font-size="12.5" lengthAdjust="spacing" textLength="236.4583" x="756.7708" y="1280.8085">An unexpected internal error occurs</text><path d="M702.0833,1327.5065 L702.0833,1363.9648 A4.1667,4.1667 0 0 0 706.25,1368.1315 L1109.375,1368.1315 A4.1667,4.1667 0 0 0 1113.5417,1363.9648 L1113.5417,1333.7565 L1103.125,1323.3398 L706.25,1323.3398 A4.1667,4.1667 0 0 0 702.0833,1327.5065 " fill="url(#g9ipn141v3b462)" filter="url(#f9ipn141v3b46)" style="stroke:#9C27B0;stroke-width:1.0416666666666667;"/><path d="M1103.125,1323.3398 L1103.125,1331.6732 A2.0833,2.0833 0 0 0 1105.2083,1333.7565 L1113.5417,1333.7565 L1103.125,1323.3398 " fill="url(#g9ipn141v3b462)" style="stroke:#9C27B0;stroke-width:1.0416666666666667;"/><text fill="#FFFFFF" font-family="Verdana" font-size="12.5" lengthAdjust="spacing" textLength="368.75" x="718.75" y="1350.5676">e.g., Database connection failure, unhandled exception.</text><polygon fill="#2196F3" points="372.3958,1414.9414,361.9792,1419.1081,372.3958,1423.2747,368.2292,1419.1081" style="stroke:#2196F3;stroke-width:1.0416666666666667;"/><line style="stroke:#2196F3;stroke-width:3.125;stroke-dasharray:2.0,2.0;" x1="366.1458" x2="685.9375" y1="1419.1081" y2="1419.1081"/><text fill="#222222" font-family="Verdana" font-size="12.5" font-weight="bold" lengthAdjust="spacing" textLength="16.6667" x="389.0625" y="1403.6601">11</text><text fill="#222222" font-family="Verdana" font-size="12.5" font-weight="bold" lengthAdjust="spacing" textLength="180.2083" x="430.7292" y="1403.6601">500 Internal Server Error</text><!--SRC=[XLHTKnf147o_Np7HAX4A4Sb7LQWoAQA9PKKZ0VGf3ovt0snvx5vszr3yzUdTu-CGD3nGTtipFTFTCrkXRYgKkxs-edCfnaPCQQGDzGPTkc17dTZ9cN1IAqk7LzAwAdMwbr651jAbtDuPr-U_EQkObu28lcDZyQrD9urceuc3SxQnaPaBXuE9j9Gigjk9VhJa9aoPqJ5R6_enx8pacLHZ4fI9iLJ2SGAWZL-A1acFGbTYrH6IOsqIsuYYTy2TCasHRAI88kTPXF0r0K-mJHVV1tIynh1HX1SqijSLSpOLpzBC94XsZPx9XCqU2KlTVZVAX74obXbKfRrjw13dDOn4xhJAfqCsKOH4Elgok_HNyENJve6LptpQQlvHXoyL3yP4YnGkq9N6av7ZIL347n7LQZSPcv3KhjNeViok17CV8ihE8APN2C-shFjAw6sHwtYm6UCSLkMM3Q7YL5flFnnWbP3l3EnJH_kPI7bic1NrypYOVIOiFdepqV9AafC6tObK9fvTpu-NTNKu4ET6kZaDz0CG3gWBdV27AMBuQxTGMWtwdREPbzgsD4J1X43WPRCXVKl5DdLsiBU42LxCA2UDTMMKXhLjwDfgDkdcPwq6-w1fRf3pbfwskgwVyYXyzTEr7FMEp-RT7j2Z2DsWoBAPjUwSMgRzr5D2i4ZfB9Mit54VGqpVZT4GBgICZSupwkHO6OM1BYeSXmDjv7FnlaXOTRN9-KFpX6wLM6Hm4jXpOzoeqwMQUKC9AyLFcJGGmNaRgwzZlQSVsWnbah3Q0BBvQ8I5GvTb-wehte58cTDYb7p_1nuJry5_YJJfcqYMixU3XtVZs6yedfO3-0QNJ_HB-nsEENDYc789yHQ4iamRFnUL8g924nQuOzxWrFEhSIMdqY_UgtLRdx4icgw5cY-vs5hj9Men8eam3zuMVz6nASt7zdfsi3qADcBjaI0Lo2jC5ljeqZ7MzDLjAZYV2wY0HQHOA-Kl3rWp4ZBD3TS1FH4gIO7CJruDVDovOHzXqkMoTj5rqJ0O-eidYXBUk2F_0G00]--></g></svg>