<?xml version="1.0" encoding="us-ascii" standalone="no"?><svg xmlns="http://www.w3.org/2000/svg" xmlns:xlink="http://www.w3.org/1999/xlink" contentStyleType="text/css" height="2002.0833px" preserveAspectRatio="none" style="width:1742px;height:2002px;" version="1.1" viewBox="0 0 1742 2002" width="1742.7083px" zoomAndPan="magnify"><defs><linearGradient id="gnp5l8adnentu0" x1="50%" x2="50%" y1="0%" y2="100%"><stop offset="0%" stop-color="#FFFFFF"/><stop offset="100%" stop-color="#FFFFFF"/></linearGradient><filter height="300%" id="fnp5l8adnentu" width="300%" x="-1" y="-1"><feGaussianBlur result="blurOut" stdDeviation="2.0833333333333335"/><feColorMatrix in="blurOut" result="blurOut2" type="matrix" values="0 0 0 0 0 0 0 0 0 0 0 0 0 0 0 0 0 0 .4 0"/><feOffset dx="4.166666666666667" dy="4.166666666666667" in="blurOut2" result="blurOut3"/><feBlend in="SourceGraphic" in2="blurOut3" mode="normal"/></filter><linearGradient id="gnp5l8adnentu1" x1="50%" x2="50%" y1="0%" y2="100%"><stop offset="0%" stop-color="#4DABF5"/><stop offset="100%" stop-color="#2196F3"/></linearGradient><linearGradient id="gnp5l8adnentu2" x1="50%" x2="50%" y1="0%" y2="100%"><stop offset="0%" stop-color="#B052C0"/><stop offset="100%" stop-color="#9C27B0"/></linearGradient></defs><g><rect fill="url(#gnp5l8adnentu0)" height="57.5846" id="_title" rx="4.1667" ry="4.1667" style="stroke:#CCCCCC;stroke-width:1.0416666666666667;" width="1126.0417" x="309.6354" y="20.8333"/><text fill="#2196F3" font-family="Verdana" font-size="20.8333" font-weight="bold" lengthAdjust="spacing" textLength="1092.7083" x="326.3021" y="56.838">RTP Notice Status API: GET /rtps/delivery-status?noticeNumber={nav}&amp;payeeId={payeeId}</text><rect fill="#FFFFFF" filter="url(#fnp5l8adnentu)" height="1639.4206" style="stroke:#CCCCCC;stroke-width:1.0416666666666667;" width="10.4167" x="593.75" y="243.9779"/><rect fill="#FFFFFF" filter="url(#fnp5l8adnentu)" height="422.6237" style="stroke:#CCCCCC;stroke-width:1.0416666666666667;" width="10.4167" x="894.7917" y="417.806"/><rect fill="#FFFFFF" filter="url(#fnp5l8adnentu)" height="471.582" style="stroke:#CCCCCC;stroke-width:1.0416666666666667;" width="10.4167" x="894.7917" y="890.3971"/><rect fill="#FFFFFF" filter="url(#fnp5l8adnentu)" height="49.9674" style="stroke:#CCCCCC;stroke-width:1.0416666666666667;" width="10.4167" x="1311.4583" y="532.2917"/><rect fill="#FFFFFF" filter="url(#fnp5l8adnentu)" height="49.9674" style="stroke:#CCCCCC;stroke-width:1.0416666666666667;" width="10.4167" x="1574.4792" y="669.694"/><rect fill="url(#gnp5l8adnentu0)" filter="url(#fnp5l8adnentu)" height="1557.1615" rx="4.1667" ry="4.1667" style="stroke:#2196F3;stroke-width:1.0416666666666667;" width="1704.6875" x="20.8333" y="318.9453"/><rect fill="url(#gnp5l8adnentu0)" filter="url(#fnp5l8adnentu)" height="294.5638" rx="4.1667" ry="4.1667" style="stroke:#2196F3;stroke-width:1.0416666666666667;" width="951.5625" x="763.5417" y="433.431"/><path d="M763.5417,590.5924 L1715.1042,590.5924 L1715.1042,723.8281 A4.1667,4.1667 0 0 1 1710.9375,727.9948 L767.7083,727.9948 A4.1667,4.1667 0 0 1 763.5417,723.8281 L763.5417,590.5924 " fill="url(#gnp5l8adnentu0)" style="stroke:none;stroke-width:1.0416666666666667;"/><rect fill="url(#gnp5l8adnentu0)" filter="url(#fnp5l8adnentu)" height="321.6471" rx="4.1667" ry="4.1667" style="stroke:#2196F3;stroke-width:1.0416666666666667;" width="860.4167" x="456.25" y="1033.0404"/><path d="M456.25,1203.7435 L1316.6667,1203.7435 L1316.6667,1350.5208 A4.1667,4.1667 0 0 1 1312.5,1354.6875 L460.4167,1354.6875 A4.1667,4.1667 0 0 1 456.25,1350.5208 L456.25,1203.7435 " fill="url(#gnp5l8adnentu0)" style="stroke:none;stroke-width:1.0416666666666667;"/><path d="M20.8333,1426.4974 L1725.5208,1426.4974 L1725.5208,1871.9401 A4.1667,4.1667 0 0 1 1721.3542,1876.1068 L25,1876.1068 A4.1667,4.1667 0 0 1 20.8333,1871.9401 L20.8333,1426.4974 " fill="url(#gnp5l8adnentu0)" style="stroke:none;stroke-width:1.0416666666666667;"/><rect fill="url(#gnp5l8adnentu0)" filter="url(#fnp5l8adnentu)" height="295.5404" rx="4.1667" ry="4.1667" style="stroke:#2196F3;stroke-width:1.0416666666666667;" width="710.4167" x="31.25" y="1471.2565"/><rect fill="url(#gnp5l8adnentu0)" filter="url(#fnp5l8adnentu)" height="87.4349" rx="4.1667" ry="4.1667" style="stroke:#2196F3;stroke-width:1.0416666666666667;" width="710.4167" x="31.25" y="1781.3802"/><line style="stroke:#CCCCCC;stroke-width:1.0416666666666667;stroke-dasharray:5.0,5.0;" x1="107.2917" x2="107.2917" y1="191.9271" y2="1893.8151"/><line style="stroke:#CCCCCC;stroke-width:1.0416666666666667;stroke-dasharray:5.0,5.0;" x1="598.9583" x2="598.9583" y1="191.9271" y2="1893.8151"/><line style="stroke:#CCCCCC;stroke-width:1.0416666666666667;stroke-dasharray:5.0,5.0;" x1="900" x2="900" y1="191.9271" y2="1893.8151"/><line style="stroke:#CCCCCC;stroke-width:1.0416666666666667;stroke-dasharray:5.0,5.0;" x1="1316.1458" x2="1316.1458" y1="191.9271" y2="1893.8151"/><line style="stroke:#CCCCCC;stroke-width:1.0416666666666667;stroke-dasharray:5.0,5.0;" x1="1579.6875" x2="1579.6875" y1="191.9271" y2="1893.8151"/><text fill="#222222" font-family="Verdana" font-size="12.5" lengthAdjust="spacing" textLength="104.1667" x="52.0833" y="178.5624">Service Provider</text><ellipse cx="107.2917" cy="99.2513" fill="url(#gnp5l8adnentu1)" filter="url(#fnp5l8adnentu)" rx="8.3333" ry="8.3333" style="stroke:#2196F3;stroke-width:1.0416666666666667;"/><path d="M107.2917,107.5846 L107.2917,135.7096 M93.75,115.918 L120.8333,115.918 M107.2917,135.7096 L93.75,151.3346 M107.2917,135.7096 L120.8333,151.3346 " fill="none" filter="url(#fnp5l8adnentu)" style="stroke:#2196F3;stroke-width:1.0416666666666667;"/><text fill="#222222" font-family="Verdana" font-size="12.5" lengthAdjust="spacing" textLength="104.1667" x="52.0833" y="1914.7929">Service Provider</text><ellipse cx="107.2917" cy="1937.5326" fill="url(#gnp5l8adnentu1)" filter="url(#fnp5l8adnentu)" rx="8.3333" ry="8.3333" style="stroke:#2196F3;stroke-width:1.0416666666666667;"/><path d="M107.2917,1945.8659 L107.2917,1973.9909 M93.75,1954.1992 L120.8333,1954.1992 M107.2917,1973.9909 L93.75,1989.6159 M107.2917,1973.9909 L120.8333,1989.6159 " fill="none" filter="url(#fnp5l8adnentu)" style="stroke:#2196F3;stroke-width:1.0416666666666667;"/><rect fill="url(#gnp5l8adnentu1)" filter="url(#fnp5l8adnentu)" height="49.9674" rx="4.1667" ry="4.1667" style="stroke:#2196F3;stroke-width:1.0416666666666667;" width="178.125" x="508.3333" y="137.793"/><text fill="#FFFFFF" font-family="Verdana" font-size="12.5" lengthAdjust="spacing" textLength="142.7083" x="526.0417" y="167.1041">SendAPIControllerImpl</text><rect fill="url(#gnp5l8adnentu1)" filter="url(#fnp5l8adnentu)" height="49.9674" rx="4.1667" ry="4.1667" style="stroke:#2196F3;stroke-width:1.0416666666666667;" width="178.125" x="508.3333" y="1892.7734"/><text fill="#FFFFFF" font-family="Verdana" font-size="12.5" lengthAdjust="spacing" textLength="142.7083" x="526.0417" y="1922.0846">SendAPIControllerImpl</text><rect fill="url(#gnp5l8adnentu1)" filter="url(#fnp5l8adnentu)" height="49.9674" rx="4.1667" ry="4.1667" style="stroke:#2196F3;stroke-width:1.0416666666666667;" width="165.625" x="815.625" y="137.793"/><text fill="#FFFFFF" font-family="Verdana" font-size="12.5" lengthAdjust="spacing" textLength="130.2083" x="833.3333" y="167.1041">SendRTPServiceImpl</text><rect fill="url(#gnp5l8adnentu1)" filter="url(#fnp5l8adnentu)" height="49.9674" rx="4.1667" ry="4.1667" style="stroke:#2196F3;stroke-width:1.0416666666666667;" width="165.625" x="815.625" y="1892.7734"/><text fill="#FFFFFF" font-family="Verdana" font-size="12.5" lengthAdjust="spacing" textLength="130.2083" x="833.3333" y="1922.0846">SendRTPServiceImpl</text><rect fill="url(#gnp5l8adnentu1)" filter="url(#fnp5l8adnentu)" height="64.5182" rx="4.1667" ry="4.1667" style="stroke:#2196F3;stroke-width:1.0416666666666667;" width="168.75" x="1230.7292" y="123.2422"/><text fill="#FFFFFF" font-family="Verdana" font-size="12.5" lengthAdjust="spacing" textLength="90.625" x="1269.7917" y="152.5533">RtpRepository</text><text fill="#FFFFFF" font-family="Verdana" font-size="12.5" lengthAdjust="spacing" textLength="133.3333" x="1248.4375" y="167.1041">(Cosmos API Mongo)</text><rect fill="url(#gnp5l8adnentu1)" filter="url(#fnp5l8adnentu)" height="64.5182" rx="4.1667" ry="4.1667" style="stroke:#2196F3;stroke-width:1.0416666666666667;" width="168.75" x="1230.7292" y="1892.7734"/><text fill="#FFFFFF" font-family="Verdana" font-size="12.5" lengthAdjust="spacing" textLength="90.625" x="1269.7917" y="1922.0846">RtpRepository</text><text fill="#FFFFFF" font-family="Verdana" font-size="12.5" lengthAdjust="spacing" textLength="133.3333" x="1248.4375" y="1936.6353">(Cosmos API Mongo)</text><rect fill="url(#gnp5l8adnentu1)" filter="url(#fnp5l8adnentu)" height="49.9674" rx="4.1667" ry="4.1667" style="stroke:#2196F3;stroke-width:1.0416666666666667;" width="163.5417" x="1496.3542" y="137.793"/><text fill="#FFFFFF" font-family="Verdana" font-size="12.5" lengthAdjust="spacing" textLength="128.125" x="1514.0625" y="167.1041">Azure Data Explorer</text><rect fill="url(#gnp5l8adnentu1)" filter="url(#fnp5l8adnentu)" height="49.9674" rx="4.1667" ry="4.1667" style="stroke:#2196F3;stroke-width:1.0416666666666667;" width="163.5417" x="1496.3542" y="1892.7734"/><text fill="#FFFFFF" font-family="Verdana" font-size="12.5" lengthAdjust="spacing" textLength="128.125" x="1514.0625" y="1922.0846">Azure Data Explorer</text><rect fill="#FFFFFF" filter="url(#fnp5l8adnentu)" height="1639.4206" style="stroke:#CCCCCC;stroke-width:1.0416666666666667;" width="10.4167" x="593.75" y="243.9779"/><rect fill="#FFFFFF" filter="url(#fnp5l8adnentu)" height="422.6237" style="stroke:#CCCCCC;stroke-width:1.0416666666666667;" width="10.4167" x="894.7917" y="417.806"/><rect fill="#FFFFFF" filter="url(#fnp5l8adnentu)" height="471.582" style="stroke:#CCCCCC;stroke-width:1.0416666666666667;" width="10.4167" x="894.7917" y="890.3971"/><rect fill="#FFFFFF" filter="url(#fnp5l8adnentu)" height="49.9674" style="stroke:#CCCCCC;stroke-width:1.0416666666666667;" width="10.4167" x="1311.4583" y="532.2917"/><rect fill="#FFFFFF" filter="url(#fnp5l8adnentu)" height="49.9674" style="stroke:#CCCCCC;stroke-width:1.0416666666666667;" width="10.4167" x="1574.4792" y="669.694"/><polygon fill="#2196F3" points="581.25,239.8112,591.6667,243.9779,581.25,248.1445,585.4167,243.9779" style="stroke:#2196F3;stroke-width:1.0416666666666667;"/><line style="stroke:#2196F3;stroke-width:3.125;" x1="107.2917" x2="587.5" y1="243.9779" y2="243.9779"/><text fill="#222222" font-family="Verdana" font-size="12.5" lengthAdjust="spacing" textLength="445.8333" x="125" y="228.5299">GET /rtps/delivery-status?noticeNumber={nav}&amp;payeeId={payeeId}</text><path d="M609.375,261.6862 L609.375,298.1445 A4.1667,4.1667 0 0 0 613.5417,302.3112 L934.375,302.3112 A4.1667,4.1667 0 0 0 938.5417,298.1445 L938.5417,267.9362 L928.125,257.5195 L613.5417,257.5195 A4.1667,4.1667 0 0 0 609.375,261.6862 " fill="url(#gnp5l8adnentu2)" filter="url(#fnp5l8adnentu)" style="stroke:#9C27B0;stroke-width:1.0416666666666667;"/><path d="M928.125,257.5195 L928.125,265.8529 A2.0833,2.0833 0 0 0 930.2083,267.9362 L938.5417,267.9362 L928.125,257.5195 " fill="url(#gnp5l8adnentu2)" style="stroke:#9C27B0;stroke-width:1.0416666666666667;"/><text fill="#FFFFFF" font-family="Verdana" font-size="12.5" lengthAdjust="spacing" textLength="286.4583" x="626.0417" y="284.7473">@PreAuthorize("hasRole('payee_read_rtp')")</text><path d="M25,318.9453 L108.3333,318.9453 L108.3333,345.9961 L97.9167,356.4128 L20.8333,356.4128 L20.8333,323.112 A4.1667,4.1667 0 0 1 25,318.9453 " fill="#FFFFFF" style="stroke:#666666;stroke-width:1.0416666666666667;"/><rect fill="none" height="1557.1615" rx="4.1667" ry="4.1667" style="stroke:#2196F3;stroke-width:1.0416666666666667;" width="1704.6875" x="20.8333" y="318.9453"/><text fill="#9C27B0" font-family="Verdana" font-size="12.5" font-weight="bold" lengthAdjust="spacing" textLength="19.7917" x="46.875" y="342.0064">alt</text><text fill="#222222" font-family="Verdana" font-size="12.5" font-weight="bold" lengthAdjust="spacing" textLength="109.375" x="134.375" y="343.0481">[Valid request]</text><polygon fill="#2196F3" points="882.2917,413.6393,892.7083,417.806,882.2917,421.9727,886.4583,417.806" style="stroke:#2196F3;stroke-width:1.0416666666666667;"/><line style="stroke:#2196F3;stroke-width:3.125;" x1="604.1667" x2="888.5417" y1="417.806" y2="417.806"/><text fill="#222222" font-family="Verdana" font-size="12.5" lengthAdjust="spacing" textLength="233.3333" x="621.875" y="402.358">findByNoticeNumber(noticeNumber)</text><path d="M767.7083,433.431 L856.25,433.431 L856.25,460.4818 L845.8333,470.8984 L763.5417,470.8984 L763.5417,437.5977 A4.1667,4.1667 0 0 1 767.7083,433.431 " fill="#FFFFFF" style="stroke:#666666;stroke-width:1.0416666666666667;"/><rect fill="none" height="294.5638" rx="4.1667" ry="4.1667" style="stroke:#2196F3;stroke-width:1.0416666666666667;" width="951.5625" x="763.5417" y="433.431"/><text fill="#9C27B0" font-family="Verdana" font-size="12.5" font-weight="bold" lengthAdjust="spacing" textLength="25" x="789.5833" y="456.4921">par</text><text fill="#222222" font-family="Verdana" font-size="12.5" font-weight="bold" lengthAdjust="spacing" textLength="115.625" x="882.2917" y="457.5338">[Query Cosmos]</text><polygon fill="#2196F3" points="1298.9583,528.125,1309.375,532.2917,1298.9583,536.4583,1303.125,532.2917" style="stroke:#2196F3;stroke-width:1.0416666666666667;"/><line style="stroke:#2196F3;stroke-width:3.125;" x1="905.2083" x2="1305.2083" y1="532.2917" y2="532.2917"/><text fill="#222222" font-family="Verdana" font-size="12.5" lengthAdjust="spacing" textLength="247.9167" x="922.9167" y="516.8437">findAllByNoticeNumber(noticeNumber)</text><polygon fill="#2196F3" points="916.6667,578.0924,906.25,582.2591,916.6667,586.4258,912.5,582.2591" style="stroke:#2196F3;stroke-width:1.0416666666666667;"/><line style="stroke:#2196F3;stroke-width:3.125;stroke-dasharray:2.0,2.0;" x1="910.4167" x2="1315.625" y1="582.2591" y2="582.2591"/><text fill="#222222" font-family="Verdana" font-size="12.5" lengthAdjust="spacing" textLength="67.7083" x="933.3333" y="566.8111">Flux&lt;Rtp&gt;</text><line style="stroke:#2196F3;stroke-width:1.0416666666666667;stroke-dasharray:2.0,2.0;" x1="763.5417" x2="1715.1042" y1="591.6341" y2="591.6341"/><text fill="#222222" font-family="Verdana" font-size="12.5" font-weight="bold" lengthAdjust="spacing" textLength="87.5" x="779.1667" y="613.6536">[Query ADX]</text><polygon fill="#2196F3" points="1561.9792,665.5273,1572.3958,669.694,1561.9792,673.8607,1566.1458,669.694" style="stroke:#2196F3;stroke-width:1.0416666666666667;"/><line style="stroke:#2196F3;stroke-width:3.125;" x1="905.2083" x2="1568.2292" y1="669.694" y2="669.694"/><text fill="#222222" font-family="Verdana" font-size="12.5" lengthAdjust="spacing" textLength="233.3333" x="922.9167" y="654.246">findByNoticeNumber(noticeNumber)</text><polygon fill="#2196F3" points="916.6667,715.4948,906.25,719.6615,916.6667,723.8281,912.5,719.6615" style="stroke:#2196F3;stroke-width:1.0416666666666667;"/><line style="stroke:#2196F3;stroke-width:3.125;stroke-dasharray:2.0,2.0;" x1="910.4167" x2="1578.6458" y1="719.6615" y2="719.6615"/><text fill="#222222" font-family="Verdana" font-size="12.5" lengthAdjust="spacing" textLength="67.7083" x="933.3333" y="704.2135">Flux&lt;Rtp&gt;</text><line style="stroke:#2196F3;stroke-width:3.125;" x1="905.2083" x2="948.9583" y1="776.9206" y2="776.9206"/><line style="stroke:#2196F3;stroke-width:3.125;" x1="948.9583" x2="948.9583" y1="776.9206" y2="790.4622"/><line style="stroke:#2196F3;stroke-width:3.125;" x1="906.25" x2="948.9583" y1="790.4622" y2="790.4622"/><polygon fill="#2196F3" points="916.6667,786.2956,906.25,790.4622,916.6667,794.6289,912.5,790.4622" style="stroke:#2196F3;stroke-width:1.0416666666666667;"/><text fill="#222222" font-family="Verdana" font-size="12.5" lengthAdjust="spacing" textLength="191.6667" x="922.9167" y="761.4726">merge results into Flux&lt;Rtp&gt;</text><polygon fill="#2196F3" points="615.625,836.263,605.2083,840.4297,615.625,844.5964,611.4583,840.4297" style="stroke:#2196F3;stroke-width:1.0416666666666667;"/><line style="stroke:#2196F3;stroke-width:3.125;stroke-dasharray:2.0,2.0;" x1="609.375" x2="898.9583" y1="840.4297" y2="840.4297"/><text fill="#222222" font-family="Verdana" font-size="12.5" lengthAdjust="spacing" textLength="67.7083" x="632.2917" y="824.9817">Flux&lt;Rtp&gt;</text><polygon fill="#2196F3" points="882.2917,886.2305,892.7083,890.3971,882.2917,894.5638,886.4583,890.3971" style="stroke:#2196F3;stroke-width:1.0416666666666667;"/><line style="stroke:#2196F3;stroke-width:3.125;" x1="604.1667" x2="888.5417" y1="890.3971" y2="890.3971"/><text fill="#222222" font-family="Verdana" font-size="12.5" lengthAdjust="spacing" textLength="250" x="621.875" y="874.9491">getRtpDeliveryStatus(rtpFlux, payeeId)</text><line style="stroke:#2196F3;stroke-width:3.125;" x1="905.2083" x2="948.9583" y1="940.3646" y2="940.3646"/><line style="stroke:#2196F3;stroke-width:3.125;" x1="948.9583" x2="948.9583" y1="940.3646" y2="953.9063"/><line style="stroke:#2196F3;stroke-width:3.125;" x1="906.25" x2="948.9583" y1="953.9063" y2="953.9063"/><polygon fill="#2196F3" points="916.6667,949.7396,906.25,953.9063,916.6667,958.0729,912.5,953.9063" style="stroke:#2196F3;stroke-width:1.0416666666666667;"/><text fill="#222222" font-family="Verdana" font-size="12.5" lengthAdjust="spacing" textLength="103.125" x="922.9167" y="924.9166">filter by payeeId</text><line style="stroke:#2196F3;stroke-width:3.125;" x1="905.2083" x2="948.9583" y1="1003.8737" y2="1003.8737"/><line style="stroke:#2196F3;stroke-width:3.125;" x1="948.9583" x2="948.9583" y1="1003.8737" y2="1017.4154"/><line style="stroke:#2196F3;stroke-width:3.125;" x1="906.25" x2="948.9583" y1="1017.4154" y2="1017.4154"/><polygon fill="#2196F3" points="916.6667,1013.2487,906.25,1017.4154,916.6667,1021.582,912.5,1017.4154" style="stroke:#2196F3;stroke-width:1.0416666666666667;"/><text fill="#222222" font-family="Verdana" font-size="12.5" lengthAdjust="spacing" textLength="307.2917" x="922.9167" y="988.4257">filter by event in [SEND_RTP, ERROR_SEND_RTP]</text><path d="M460.4167,1033.0404 L543.75,1033.0404 L543.75,1060.0911 L533.3333,1070.5078 L456.25,1070.5078 L456.25,1037.207 A4.1667,4.1667 0 0 1 460.4167,1033.0404 " fill="#FFFFFF" style="stroke:#666666;stroke-width:1.0416666666666667;"/><rect fill="none" height="321.6471" rx="4.1667" ry="4.1667" style="stroke:#2196F3;stroke-width:1.0416666666666667;" width="860.4167" x="456.25" y="1033.0404"/><text fill="#9C27B0" font-family="Verdana" font-size="12.5" font-weight="bold" lengthAdjust="spacing" textLength="19.7917" x="482.2917" y="1056.1015">alt</text><text fill="#222222" font-family="Verdana" font-size="12.5" font-weight="bold" lengthAdjust="spacing" textLength="156.25" x="569.7917" y="1057.1431">[matching RTP found]</text><line style="stroke:#2196F3;stroke-width:3.125;" x1="905.2083" x2="948.9583" y1="1131.901" y2="1131.901"/><line style="stroke:#2196F3;stroke-width:3.125;" x1="948.9583" x2="948.9583" y1="1131.901" y2="1145.4427"/><line style="stroke:#2196F3;stroke-width:3.125;" x1="906.25" x2="948.9583" y1="1145.4427" y2="1145.4427"/><polygon fill="#2196F3" points="916.6667,1141.276,906.25,1145.4427,916.6667,1149.6094,912.5,1145.4427" style="stroke:#2196F3;stroke-width:1.0416666666666667;"/><text fill="#222222" font-family="Verdana" font-size="12.5" lengthAdjust="spacing" textLength="343.75" x="922.9167" y="1116.453">map to RtpDeliveryResponseDto(PD_RTP_DELIVERED)</text><polygon fill="#2196F3" points="615.625,1191.2435,605.2083,1195.4102,615.625,1199.5768,611.4583,1195.4102" style="stroke:#2196F3;stroke-width:1.0416666666666667;"/><line style="stroke:#2196F3;stroke-width:3.125;stroke-dasharray:2.0,2.0;" x1="609.375" x2="893.75" y1="1195.4102" y2="1195.4102"/><text fill="#222222" font-family="Verdana" font-size="12.5" lengthAdjust="spacing" textLength="159.375" x="632.2917" y="1179.9622">RtpDeliveryResponseDto</text><line style="stroke:#2196F3;stroke-width:1.0416666666666667;stroke-dasharray:2.0,2.0;" x1="456.25" x2="1316.6667" y1="1204.7852" y2="1204.7852"/><text fill="#222222" font-family="Verdana" font-size="12.5" font-weight="bold" lengthAdjust="spacing" textLength="179.1667" x="471.875" y="1226.8046">[no matching RTP found]</text><line style="stroke:#2196F3;stroke-width:3.125;" x1="905.2083" x2="948.9583" y1="1282.8451" y2="1282.8451"/><line style="stroke:#2196F3;stroke-width:3.125;" x1="948.9583" x2="948.9583" y1="1282.8451" y2="1296.3867"/><line style="stroke:#2196F3;stroke-width:3.125;" x1="906.25" x2="948.9583" y1="1296.3867" y2="1296.3867"/><polygon fill="#2196F3" points="916.6667,1292.2201,906.25,1296.3867,916.6667,1300.5534,912.5,1296.3867" style="stroke:#2196F3;stroke-width:1.0416666666666667;"/><text fill="#222222" font-family="Verdana" font-size="12.5" lengthAdjust="spacing" textLength="370.8333" x="922.9167" y="1267.3971">return RtpDeliveryResponseDto(PD_RTP_NOT_DELIVERED)</text><polygon fill="#2196F3" points="615.625,1342.1875,605.2083,1346.3542,615.625,1350.5208,611.4583,1346.3542" style="stroke:#2196F3;stroke-width:1.0416666666666667;"/><line style="stroke:#2196F3;stroke-width:3.125;stroke-dasharray:2.0,2.0;" x1="609.375" x2="893.75" y1="1346.3542" y2="1346.3542"/><text fill="#222222" font-family="Verdana" font-size="12.5" lengthAdjust="spacing" textLength="159.375" x="632.2917" y="1330.9062">RtpDeliveryResponseDto</text><polygon fill="#2196F3" points="118.75,1413.9974,108.3333,1418.1641,118.75,1422.3307,114.5833,1418.1641" style="stroke:#2196F3;stroke-width:1.0416666666666667;"/><line style="stroke:#2196F3;stroke-width:3.125;stroke-dasharray:2.0,2.0;" x1="112.5" x2="592.7083" y1="1418.1641" y2="1418.1641"/><text fill="#222222" font-family="Verdana" font-size="12.5" lengthAdjust="spacing" textLength="45.8333" x="135.4167" y="1388.1653">200 OK</text><text fill="#222222" font-family="Verdana" font-size="12.5" lengthAdjust="spacing" textLength="159.375" x="135.4167" y="1402.7161">RtpDeliveryResponseDto</text><line style="stroke:#2196F3;stroke-width:1.0416666666666667;stroke-dasharray:2.0,2.0;" x1="20.8333" x2="1725.5208" y1="1427.5391" y2="1427.5391"/><text fill="#222222" font-family="Verdana" font-size="12.5" font-weight="bold" lengthAdjust="spacing" textLength="55.2083" x="36.4583" y="1449.5585">[Errors]</text><path d="M35.4167,1471.2565 L228.125,1471.2565 L228.125,1498.3073 L217.7083,1508.724 L31.25,1508.724 L31.25,1475.4232 A4.1667,4.1667 0 0 1 35.4167,1471.2565 " fill="#FFFFFF" style="stroke:#666666;stroke-width:1.0416666666666667;"/><rect fill="none" height="295.5404" rx="4.1667" ry="4.1667" style="stroke:#2196F3;stroke-width:1.0416666666666667;" width="710.4167" x="31.25" y="1471.2565"/><text fill="#9C27B0" font-family="Verdana" font-size="12.5" font-weight="bold" lengthAdjust="spacing" textLength="129.1667" x="57.2917" y="1494.3176">Client-Side Errors</text><polygon fill="#2196F3" points="118.75,1560.7422,108.3333,1564.9089,118.75,1569.0755,114.5833,1564.9089" style="stroke:#2196F3;stroke-width:1.0416666666666667;"/><line style="stroke:#2196F3;stroke-width:3.125;stroke-dasharray:2.0,2.0;" x1="112.5" x2="592.7083" y1="1564.9089" y2="1564.9089"/><text fill="#222222" font-family="Verdana" font-size="12.5" lengthAdjust="spacing" textLength="112.5" x="135.4167" y="1534.9101">400 Bad Request</text><text fill="#222222" font-family="Verdana" font-size="12.5" lengthAdjust="spacing" textLength="288.5417" x="135.4167" y="1549.4609">(e.g. invalid noticeNumber, missing payeeId)</text><polygon fill="#2196F3" points="118.75,1625.2604,108.3333,1629.4271,118.75,1633.5938,114.5833,1629.4271" style="stroke:#2196F3;stroke-width:1.0416666666666667;"/><line style="stroke:#2196F3;stroke-width:3.125;stroke-dasharray:2.0,2.0;" x1="112.5" x2="592.7083" y1="1629.4271" y2="1629.4271"/><text fill="#222222" font-family="Verdana" font-size="12.5" lengthAdjust="spacing" textLength="115.625" x="135.4167" y="1599.4283">401 Unauthorized</text><text fill="#222222" font-family="Verdana" font-size="12.5" lengthAdjust="spacing" textLength="246.875" x="135.4167" y="1613.9791">(e.g. invalid or expired security token)</text><polygon fill="#2196F3" points="118.75,1689.7786,108.3333,1693.9453,118.75,1698.112,114.5833,1693.9453" style="stroke:#2196F3;stroke-width:1.0416666666666667;"/><line style="stroke:#2196F3;stroke-width:3.125;stroke-dasharray:2.0,2.0;" x1="112.5" x2="592.7083" y1="1693.9453" y2="1693.9453"/><text fill="#222222" font-family="Verdana" font-size="12.5" lengthAdjust="spacing" textLength="94.7917" x="135.4167" y="1663.9465">403 Forbidden</text><text fill="#222222" font-family="Verdana" font-size="12.5" lengthAdjust="spacing" textLength="192.7083" x="135.4167" y="1678.4973">(e.g. insufficient permissions)</text><polygon fill="#2196F3" points="118.75,1754.2969,108.3333,1758.4635,118.75,1762.6302,114.5833,1758.4635" style="stroke:#2196F3;stroke-width:1.0416666666666667;"/><line style="stroke:#2196F3;stroke-width:3.125;stroke-dasharray:2.0,2.0;" x1="112.5" x2="592.7083" y1="1758.4635" y2="1758.4635"/><text fill="#222222" font-family="Verdana" font-size="12.5" lengthAdjust="spacing" textLength="156.25" x="135.4167" y="1728.4648">429 Too Many Requests</text><text fill="#222222" font-family="Verdana" font-size="12.5" lengthAdjust="spacing" textLength="164.5833" x="135.4167" y="1743.0155">(e.g. rate limit exceeded)</text><path d="M35.4167,1781.3802 L225,1781.3802 L225,1808.431 L214.5833,1818.8477 L31.25,1818.8477 L31.25,1785.5469 A4.1667,4.1667 0 0 1 35.4167,1781.3802 " fill="#FFFFFF" style="stroke:#666666;stroke-width:1.0416666666666667;"/><rect fill="none" height="87.4349" rx="4.1667" ry="4.1667" style="stroke:#2196F3;stroke-width:1.0416666666666667;" width="710.4167" x="31.25" y="1781.3802"/><text fill="#9C27B0" font-family="Verdana" font-size="12.5" font-weight="bold" lengthAdjust="spacing" textLength="126.0417" x="57.2917" y="1804.4413">Server-Side Error</text><polygon fill="#2196F3" points="118.75,1856.3151,108.3333,1860.4818,118.75,1864.6484,114.5833,1860.4818" style="stroke:#2196F3;stroke-width:1.0416666666666667;"/><line style="stroke:#2196F3;stroke-width:3.125;stroke-dasharray:2.0,2.0;" x1="112.5" x2="592.7083" y1="1860.4818" y2="1860.4818"/><text fill="#222222" font-family="Verdana" font-size="12.5" lengthAdjust="spacing" textLength="161.4583" x="135.4167" y="1845.0338">500 Internal Server Error</text><!--SRC=[hLNlJnf14Fr-VyMK3nKIKMlR3pNL5kLiI2lIWvecjI4hDy2cUxlNtJqY6l_tpls2FOIAQUyJtCsyUVFcxUmBEyK88M8MDMUUPxaL2C6W1rrb-GYXRvbD3BHwdIFuv0zWNzlOx8Se-0prl6copnza5jnDeXlKn_UIpHvUncoEs0cFxuiV3vx7HbPfgFLHprBedbOp7gAk0JDm9ZXAwyLC4nAFcRHfe0ofy9cILYiXK7UYMEJHYrUFCuXyKM4HNlolnWOs3Z1MXXEf-RMidoaJgQnJk51oeXfPwZAacjswIpH2cra6_cqib2xwQBM_UrxU33HF7ABmp_gHV7n6WtAxfqG4pITJ2sfShVQnfx6LsAdI_0xhjIapWH9OtydmXXfPE2GkEurQWoOZB5mnmKFG-3j1OpqFw77mg9ToRaSmvZ8ydNSTqdMtWqQMlA1Rgf-z9H7XQqAjGwvtzZ9zIdGgjDIygDKIuibobPBErCfl3cYpqiovI6xVanbE5g4XRW92OR2Wdmvw3NTwlQr05SOkN8hn38vbAda_rzYXiuI8K4_8AcWIOGrmQTKAwY9hrRRLCATmPR2Rl391Ixdjml3vEgcJyLBKNIZClS4n6viPSq4B2sxc9S0seJXB3oMNyAFlTzj3sXExu0V1PJ0i___CMqbF0st4qPJBIROBnogHuRffE_Ao64XIfzK0JQoamRPLzLu6FspxNpfNVk2t6u_1LbLVZxHqeLJFvgZH9be-mR5xEVXlF4j3hl7CgcLIs7nh7i7XmG5SVhwM6w2zh7zVQwLDZZ_HAecB_6QVxfJoQyb-KwKtLEcKXNJCiwr7jm3kJVR88xDi6RfdTXSYRaogTiMpVqT_1TyaAtTmk0fFbo7UnbnZ20P7YUPsJXxwXN8RwDTmhlGD3qEKIroJZCTqHQKnCUgCCAcs1TpXEnWe1HTCpainJ0chqxa97d5BT4U88HQzqtnpwTqff0D6xKpXoU9lQGWTIOTKCb6aEvbEaSnFZfUSU_0F]--></g></svg>