<?xml version="1.0" encoding="us-ascii" standalone="no"?><svg xmlns="http://www.w3.org/2000/svg" xmlns:xlink="http://www.w3.org/1999/xlink" contentStyleType="text/css" height="1472.9167px" preserveAspectRatio="none" style="width:1170px;height:1472px;" version="1.1" viewBox="0 0 1170 1472" width="1170.8333px" zoomAndPan="magnify"><defs><linearGradient id="g1ic3y9dnau5590" x1="50%" x2="50%" y1="0%" y2="100%"><stop offset="0%" stop-color="#FFFFFF"/><stop offset="100%" stop-color="#FFFFFF"/></linearGradient><filter height="300%" id="f1ic3y9dnau559" width="300%" x="-1" y="-1"><feGaussianBlur result="blurOut" stdDeviation="2.0833333333333335"/><feColorMatrix in="blurOut" result="blurOut2" type="matrix" values="0 0 0 0 0 0 0 0 0 0 0 0 0 0 0 0 0 0 .4 0"/><feOffset dx="4.166666666666667" dy="4.166666666666667" in="blurOut2" result="blurOut3"/><feBlend in="SourceGraphic" in2="blurOut3" mode="normal"/></filter><linearGradient id="g1ic3y9dnau5591" x1="50%" x2="50%" y1="0%" y2="100%"><stop offset="0%" stop-color="#4DABF5"/><stop offset="100%" stop-color="#2196F3"/></linearGradient><linearGradient id="g1ic3y9dnau5592" x1="50%" x2="50%" y1="0%" y2="100%"><stop offset="0%" stop-color="#B052C0"/><stop offset="100%" stop-color="#9C27B0"/></linearGradient></defs><g><rect fill="url(#g1ic3y9dnau5590)" height="57.5846" id="_title" rx="4.1667" ry="4.1667" style="stroke:#CCCCCC;stroke-width:1.0416666666666667;" width="1126.0417" x="20.8333" y="20.8333"/><text fill="#2196F3" font-family="Verdana" font-size="20.8333" font-weight="bold" lengthAdjust="spacing" textLength="1092.7083" x="37.5" y="56.838">RTP Notice Status API: GET /rtps/delivery-status?noticeNumber={nav}&amp;payeeId={payeeId}</text><rect fill="#FFFFFF" filter="url(#f1ic3y9dnau559)" height="1110.5794" style="stroke:#CCCCCC;stroke-width:1.0416666666666667;" width="10.4167" x="689.8438" y="243.9779"/><rect fill="#FFFFFF" filter="url(#f1ic3y9dnau559)" height="49.9674" style="stroke:#CCCCCC;stroke-width:1.0416666666666667;" width="10.4167" x="1039.8438" y="510.4167"/><rect fill="#98FB98" filter="url(#f1ic3y9dnau559)" height="935.7096" rx="4.1667" ry="4.1667" style="stroke:#2196F3;stroke-width:1.0416666666666667;" width="1041.1458" x="63.8021" y="411.556"/><path d="M63.8021,774.8047 L1104.9479,774.8047 L1104.9479,1343.099 A4.1667,4.1667 0 0 1 1100.7813,1347.2656 L67.9688,1347.2656 A4.1667,4.1667 0 0 1 63.8021,1343.099 L63.8021,774.8047 " fill="#8B0000" style="stroke:none;stroke-width:1.0416666666666667;"/><rect fill="url(#g1ic3y9dnau5590)" filter="url(#f1ic3y9dnau559)" height="295.5404" rx="4.1667" ry="4.1667" style="stroke:#2196F3;stroke-width:1.0416666666666667;" width="731.7708" x="74.2188" y="819.5638"/><rect fill="url(#g1ic3y9dnau5590)" filter="url(#f1ic3y9dnau559)" height="210.2865" rx="4.1667" ry="4.1667" style="stroke:#2196F3;stroke-width:1.0416666666666667;" width="955.2083" x="74.2188" y="1129.6875"/><line style="stroke:#CCCCCC;stroke-width:1.0416666666666667;stroke-dasharray:5.0,5.0;" x1="157.5521" x2="157.5521" y1="191.9271" y2="1364.974"/><line style="stroke:#CCCCCC;stroke-width:1.0416666666666667;stroke-dasharray:5.0,5.0;" x1="694.5313" x2="694.5313" y1="191.9271" y2="1364.974"/><line style="stroke:#CCCCCC;stroke-width:1.0416666666666667;stroke-dasharray:5.0,5.0;" x1="1044.5313" x2="1044.5313" y1="191.9271" y2="1364.974"/><text fill="#222222" font-family="Verdana" font-size="12.5" font-weight="bold" lengthAdjust="spacing" textLength="118.75" x="95.0521" y="178.5624">Service Provider</text><ellipse cx="157.5521" cy="99.2513" fill="url(#g1ic3y9dnau5591)" filter="url(#f1ic3y9dnau559)" rx="8.3333" ry="8.3333" style="stroke:#2196F3;stroke-width:1.0416666666666667;"/><path d="M157.5521,107.5846 L157.5521,135.7096 M144.0104,115.918 L171.0938,115.918 M157.5521,135.7096 L144.0104,151.3346 M157.5521,135.7096 L171.0938,151.3346 " fill="none" filter="url(#f1ic3y9dnau559)" style="stroke:#2196F3;stroke-width:1.0416666666666667;"/><text fill="#222222" font-family="Verdana" font-size="12.5" font-weight="bold" lengthAdjust="spacing" textLength="118.75" x="95.0521" y="1385.9517">Service Provider</text><ellipse cx="157.5521" cy="1408.6914" fill="url(#g1ic3y9dnau5591)" filter="url(#f1ic3y9dnau559)" rx="8.3333" ry="8.3333" style="stroke:#2196F3;stroke-width:1.0416666666666667;"/><path d="M157.5521,1417.0247 L157.5521,1445.1497 M144.0104,1425.3581 L171.0938,1425.3581 M157.5521,1445.1497 L144.0104,1460.7747 M157.5521,1445.1497 L171.0938,1460.7747 " fill="none" filter="url(#f1ic3y9dnau559)" style="stroke:#2196F3;stroke-width:1.0416666666666667;"/><rect fill="url(#g1ic3y9dnau5591)" filter="url(#f1ic3y9dnau559)" height="49.9674" rx="4.1667" ry="4.1667" style="stroke:#2196F3;stroke-width:1.0416666666666667;" width="114.5833" x="636.1979" y="137.793"/><text fill="#FFFFFF" font-family="Verdana" font-size="12.5" font-weight="bold" lengthAdjust="spacing" textLength="79.1667" x="653.9063" y="167.1041">rtp-sender</text><rect fill="url(#g1ic3y9dnau5591)" filter="url(#f1ic3y9dnau559)" height="49.9674" rx="4.1667" ry="4.1667" style="stroke:#2196F3;stroke-width:1.0416666666666667;" width="114.5833" x="636.1979" y="1363.9323"/><text fill="#FFFFFF" font-family="Verdana" font-size="12.5" font-weight="bold" lengthAdjust="spacing" textLength="79.1667" x="653.9063" y="1393.2434">rtp-sender</text><text fill="#222222" font-family="Verdana" font-size="12.5" font-weight="bold" lengthAdjust="spacing" textLength="71.875" x="1005.9896" y="178.5624">Database</text><path d="M1026.3021,119.043 C1026.3021,108.6263 1045.0521,108.6263 1045.0521,108.6263 C1045.0521,108.6263 1063.8021,108.6263 1063.8021,119.043 L1063.8021,146.1263 C1063.8021,156.543 1045.0521,156.543 1045.0521,156.543 C1045.0521,156.543 1026.3021,156.543 1026.3021,146.1263 L1026.3021,119.043 " fill="url(#g1ic3y9dnau5591)" filter="url(#f1ic3y9dnau559)" style="stroke:#2196F3;stroke-width:1.5625;"/><path d="M1026.3021,119.043 C1026.3021,129.4596 1045.0521,129.4596 1045.0521,129.4596 C1045.0521,129.4596 1063.8021,129.4596 1063.8021,119.043 " fill="none" style="stroke:#2196F3;stroke-width:1.5625;"/><text fill="#222222" font-family="Verdana" font-size="12.5" font-weight="bold" lengthAdjust="spacing" textLength="71.875" x="1005.9896" y="1385.9517">Database</text><path d="M1026.3021,1409.7331 C1026.3021,1399.3164 1045.0521,1399.3164 1045.0521,1399.3164 C1045.0521,1399.3164 1063.8021,1399.3164 1063.8021,1409.7331 L1063.8021,1436.8164 C1063.8021,1447.2331 1045.0521,1447.2331 1045.0521,1447.2331 C1045.0521,1447.2331 1026.3021,1447.2331 1026.3021,1436.8164 L1026.3021,1409.7331 " fill="url(#g1ic3y9dnau5591)" filter="url(#f1ic3y9dnau559)" style="stroke:#2196F3;stroke-width:1.5625;"/><path d="M1026.3021,1409.7331 C1026.3021,1420.1497 1045.0521,1420.1497 1045.0521,1420.1497 C1045.0521,1420.1497 1063.8021,1420.1497 1063.8021,1409.7331 " fill="none" style="stroke:#2196F3;stroke-width:1.5625;"/><rect fill="#FFFFFF" filter="url(#f1ic3y9dnau559)" height="1110.5794" style="stroke:#CCCCCC;stroke-width:1.0416666666666667;" width="10.4167" x="689.8438" y="243.9779"/><rect fill="#FFFFFF" filter="url(#f1ic3y9dnau559)" height="49.9674" style="stroke:#CCCCCC;stroke-width:1.0416666666666667;" width="10.4167" x="1039.8438" y="510.4167"/><polygon fill="#2196F3" points="677.3438,239.8112,687.7604,243.9779,677.3438,248.1445,681.5104,243.9779" style="stroke:#2196F3;stroke-width:1.0416666666666667;"/><line style="stroke:#2196F3;stroke-width:3.125;" x1="157.5521" x2="683.5938" y1="243.9779" y2="243.9779"/><text fill="#222222" font-family="Verdana" font-size="12.5" font-weight="bold" lengthAdjust="spacing" textLength="18.75" x="175.2604" y="228.5299">[1]</text><text fill="#222222" font-family="Verdana" font-size="12.5" font-weight="bold" lengthAdjust="spacing" textLength="27.0833" x="219.0104" y="228.5299">GET</text><text fill="#222222" font-family="Verdana" font-size="12.5" lengthAdjust="spacing" textLength="416.6667" x="250.2604" y="228.5299">/rtps/delivery-status?noticeNumber={nav}&amp;payeeId={payeeId}</text><path d="M705.4688,261.6862 L705.4688,327.3112 A4.1667,4.1667 0 0 0 709.6354,331.4779 L1071.0938,331.4779 A4.1667,4.1667 0 0 0 1075.2604,327.3112 L1075.2604,267.9362 L1064.8438,257.5195 L709.6354,257.5195 A4.1667,4.1667 0 0 0 705.4688,261.6862 " fill="url(#g1ic3y9dnau5592)" filter="url(#f1ic3y9dnau559)" style="stroke:#9C27B0;stroke-width:1.0416666666666667;"/><path d="M1064.8438,257.5195 L1064.8438,265.8529 A2.0833,2.0833 0 0 0 1066.9271,267.9362 L1075.2604,267.9362 L1064.8438,257.5195 " fill="url(#g1ic3y9dnau5592)" style="stroke:#9C27B0;stroke-width:1.0416666666666667;"/><text fill="#FFFFFF" font-family="Verdana" font-size="12.5" font-weight="bold" lengthAdjust="spacing" textLength="80.2083" x="722.1354" y="284.7473">Operation:</text><text fill="#FFFFFF" font-family="Verdana" font-size="12.5" lengthAdjust="spacing" textLength="127.0833" x="806.5104" y="284.7473">`getDeliveryStatus`</text><text fill="#FFFFFF" font-family="Verdana" font-size="12.5" lengthAdjust="spacing" textLength="327.0833" x="722.1354" y="299.2981">The SP queries delivery status for a noticeNumber</text><text fill="#FFFFFF" font-family="Verdana" font-size="12.5" lengthAdjust="spacing" textLength="123.9583" x="722.1354" y="313.8489">filtered by payeeId.</text><line style="stroke:#2196F3;stroke-width:3.125;" x1="700.2604" x2="744.0104" y1="382.3893" y2="382.3893"/><line style="stroke:#2196F3;stroke-width:3.125;" x1="744.0104" x2="744.0104" y1="382.3893" y2="395.931"/><line style="stroke:#2196F3;stroke-width:3.125;" x1="701.3021" x2="744.0104" y1="395.931" y2="395.931"/><polygon fill="#2196F3" points="711.7188,391.7643,701.3021,395.931,711.7188,400.0977,707.5521,395.931" style="stroke:#2196F3;stroke-width:1.0416666666666667;"/><text fill="#222222" font-family="Verdana" font-size="12.5" font-weight="bold" lengthAdjust="spacing" textLength="18.75" x="717.9688" y="366.9413">[2]</text><text fill="#222222" font-family="Verdana" font-size="12.5" lengthAdjust="spacing" textLength="153.125" x="761.7188" y="366.9413">Validate Security Token</text><path d="M67.9688,411.556 L151.3021,411.556 L151.3021,438.6068 L140.8854,449.0234 L63.8021,449.0234 L63.8021,415.7227 A4.1667,4.1667 0 0 1 67.9688,411.556 " fill="#FFFFFF" style="stroke:#666666;stroke-width:1.0416666666666667;"/><rect fill="none" height="935.7096" rx="4.1667" ry="4.1667" style="stroke:#2196F3;stroke-width:1.0416666666666667;" width="1041.1458" x="63.8021" y="411.556"/><text fill="#9C27B0" font-family="Verdana" font-size="12.5" font-weight="bold" lengthAdjust="spacing" textLength="19.7917" x="89.8438" y="434.6171">alt</text><text fill="#222222" font-family="Verdana" font-size="12.5" font-weight="bold" lengthAdjust="spacing" textLength="5.2083" x="177.3438" y="435.6588">[</text><text fill="#222222" font-family="Verdana" font-size="12.5" font-weight="bold" lengthAdjust="spacing" textLength="207.2917" x="182.5521" y="435.6588">Success case: RTP delivered</text><text fill="#222222" font-family="Verdana" font-size="12.5" font-weight="bold" lengthAdjust="spacing" textLength="5.2083" x="389.8438" y="435.6588">]</text><polygon fill="#2196F3" points="1027.3438,506.25,1037.7604,510.4167,1027.3438,514.5833,1031.5104,510.4167" style="stroke:#2196F3;stroke-width:1.0416666666666667;"/><line style="stroke:#2196F3;stroke-width:3.125;" x1="700.2604" x2="1033.5938" y1="510.4167" y2="510.4167"/><text fill="#222222" font-family="Verdana" font-size="12.5" font-weight="bold" lengthAdjust="spacing" textLength="18.75" x="717.9688" y="494.9687">[3]</text><text fill="#222222" font-family="Verdana" font-size="12.5" lengthAdjust="spacing" textLength="255.2083" x="761.7188" y="494.9687">findRtpByNoticeNumber(noticeNumber)</text><polygon fill="#2196F3" points="711.7188,556.2174,701.3021,560.3841,711.7188,564.5508,707.5521,560.3841" style="stroke:#2196F3;stroke-width:1.0416666666666667;"/><line style="stroke:#2196F3;stroke-width:3.125;stroke-dasharray:2.0,2.0;" x1="705.4688" x2="1044.0104" y1="560.3841" y2="560.3841"/><text fill="#222222" font-family="Verdana" font-size="12.5" font-weight="bold" lengthAdjust="spacing" textLength="18.75" x="728.3854" y="544.9361">[4]</text><text fill="#222222" font-family="Verdana" font-size="12.5" lengthAdjust="spacing" textLength="84.375" x="772.1354" y="544.9361">results (0..n)</text><line style="stroke:#2196F3;stroke-width:3.125;" x1="700.2604" x2="744.0104" y1="610.3516" y2="610.3516"/><line style="stroke:#2196F3;stroke-width:3.125;" x1="744.0104" x2="744.0104" y1="610.3516" y2="623.8932"/><line style="stroke:#2196F3;stroke-width:3.125;" x1="701.3021" x2="744.0104" y1="623.8932" y2="623.8932"/><polygon fill="#2196F3" points="711.7188,619.7266,701.3021,623.8932,711.7188,628.0599,707.5521,623.8932" style="stroke:#2196F3;stroke-width:1.0416666666666667;"/><text fill="#222222" font-family="Verdana" font-size="12.5" font-weight="bold" lengthAdjust="spacing" textLength="18.75" x="717.9688" y="594.9036">[5]</text><text fill="#222222" font-family="Verdana" font-size="12.5" lengthAdjust="spacing" textLength="155.2083" x="761.7188" y="594.9036">Filter results by payeeId</text><line style="stroke:#2196F3;stroke-width:3.125;" x1="700.2604" x2="744.0104" y1="673.8607" y2="673.8607"/><line style="stroke:#2196F3;stroke-width:3.125;" x1="744.0104" x2="744.0104" y1="673.8607" y2="687.4023"/><line style="stroke:#2196F3;stroke-width:3.125;" x1="701.3021" x2="744.0104" y1="687.4023" y2="687.4023"/><polygon fill="#2196F3" points="711.7188,683.2357,701.3021,687.4023,711.7188,691.569,707.5521,687.4023" style="stroke:#2196F3;stroke-width:1.0416666666666667;"/><text fill="#222222" font-family="Verdana" font-size="12.5" font-weight="bold" lengthAdjust="spacing" textLength="18.75" x="717.9688" y="658.4127">[6]</text><text fill="#222222" font-family="Verdana" font-size="12.5" lengthAdjust="spacing" textLength="238.5417" x="761.7188" y="658.4127">Evaluate status (SENT/ERROR_SEND)</text><polygon fill="#2196F3" points="169.0104,762.3047,158.5938,766.4714,169.0104,770.638,164.8438,766.4714" style="stroke:#2196F3;stroke-width:1.0416666666666667;"/><line style="stroke:#2196F3;stroke-width:3.125;stroke-dasharray:2.0,2.0;" x1="162.7604" x2="688.8021" y1="766.4714" y2="766.4714"/><text fill="#222222" font-family="Verdana" font-size="12.5" font-weight="bold" lengthAdjust="spacing" textLength="18.75" x="185.6771" y="736.4726">[7]</text><text fill="#222222" font-family="Verdana" font-size="12.5" font-weight="bold" lengthAdjust="spacing" textLength="50" x="229.4271" y="721.9218">200 OK</text><text fill="#222222" font-family="Verdana" font-size="12.5" lengthAdjust="spacing" textLength="304.1667" x="229.4271" y="736.4726">Response: "PD RTP delivered/PD not delivered"</text><text fill="#222222" font-family="Verdana" font-size="12.5" lengthAdjust="spacing" textLength="231.25" x="229.4271" y="751.0234">processingDate: {savingDateTime}</text><line style="stroke:#2196F3;stroke-width:1.0416666666666667;stroke-dasharray:2.0,2.0;" x1="63.8021" x2="1104.9479" y1="775.8464" y2="775.8464"/><text fill="#222222" font-family="Verdana" font-size="12.5" font-weight="bold" lengthAdjust="spacing" textLength="5.2083" x="79.4271" y="797.8658">[</text><text fill="#222222" font-family="Verdana" font-size="12.5" font-weight="bold" lengthAdjust="spacing" textLength="91.6667" x="84.6354" y="797.8658">Other Errors</text><text fill="#222222" font-family="Verdana" font-size="12.5" font-weight="bold" lengthAdjust="spacing" textLength="5.2083" x="176.3021" y="797.8658">]</text><path d="M78.3854,819.5638 L271.0938,819.5638 L271.0938,846.6146 L260.6771,857.0313 L74.2188,857.0313 L74.2188,823.7305 A4.1667,4.1667 0 0 1 78.3854,819.5638 " fill="#FFFFFF" style="stroke:#666666;stroke-width:1.0416666666666667;"/><rect fill="none" height="295.5404" rx="4.1667" ry="4.1667" style="stroke:#2196F3;stroke-width:1.0416666666666667;" width="731.7708" x="74.2188" y="819.5638"/><text fill="#9C27B0" font-family="Verdana" font-size="12.5" font-weight="bold" lengthAdjust="spacing" textLength="129.1667" x="100.2604" y="842.6249">Client-Side Errors</text><polygon fill="#2196F3" points="169.0104,909.0495,158.5938,913.2161,169.0104,917.3828,164.8438,913.2161" style="stroke:#2196F3;stroke-width:1.0416666666666667;"/><line style="stroke:#2196F3;stroke-width:3.125;stroke-dasharray:2.0,2.0;" x1="162.7604" x2="688.8021" y1="913.2161" y2="913.2161"/><text fill="#222222" font-family="Verdana" font-size="12.5" font-weight="bold" lengthAdjust="spacing" textLength="18.75" x="185.6771" y="890.4928">[8]</text><text fill="#222222" font-family="Verdana" font-size="12.5" font-weight="bold" lengthAdjust="spacing" textLength="122.9167" x="229.4271" y="883.2174">400 Bad Request</text><text fill="#222222" font-family="Verdana" font-size="12.5" lengthAdjust="spacing" textLength="254.1667" x="229.4271" y="897.7681">(e.g., Invalid fiscal code, missing fields)</text><polygon fill="#2196F3" points="169.0104,973.5677,158.5938,977.7344,169.0104,981.901,164.8438,977.7344" style="stroke:#2196F3;stroke-width:1.0416666666666667;"/><line style="stroke:#2196F3;stroke-width:3.125;stroke-dasharray:2.0,2.0;" x1="162.7604" x2="688.8021" y1="977.7344" y2="977.7344"/><text fill="#222222" font-family="Verdana" font-size="12.5" font-weight="bold" lengthAdjust="spacing" textLength="18.75" x="185.6771" y="955.011">[9]</text><text fill="#222222" font-family="Verdana" font-size="12.5" font-weight="bold" lengthAdjust="spacing" textLength="130.2083" x="229.4271" y="947.7356">401 Unauthorized</text><text fill="#222222" font-family="Verdana" font-size="12.5" lengthAdjust="spacing" textLength="251.0417" x="229.4271" y="962.2864">(e.g., Invalid or expired security token)</text><polygon fill="#2196F3" points="169.0104,1038.0859,158.5938,1042.2526,169.0104,1046.4193,164.8438,1042.2526" style="stroke:#2196F3;stroke-width:1.0416666666666667;"/><line style="stroke:#2196F3;stroke-width:3.125;stroke-dasharray:2.0,2.0;" x1="162.7604" x2="688.8021" y1="1042.2526" y2="1042.2526"/><text fill="#222222" font-family="Verdana" font-size="12.5" font-weight="bold" lengthAdjust="spacing" textLength="27.0833" x="185.6771" y="1019.5292">[10]</text><text fill="#222222" font-family="Verdana" font-size="12.5" font-weight="bold" lengthAdjust="spacing" textLength="104.1667" x="237.7604" y="1012.2538">403 Forbidden</text><text fill="#222222" font-family="Verdana" font-size="12.5" lengthAdjust="spacing" textLength="196.875" x="237.7604" y="1026.8046">(e.g., Insufficient permissions)</text><polygon fill="#2196F3" points="169.0104,1102.6042,158.5938,1106.7708,169.0104,1110.9375,164.8438,1106.7708" style="stroke:#2196F3;stroke-width:1.0416666666666667;"/><line style="stroke:#2196F3;stroke-width:3.125;stroke-dasharray:2.0,2.0;" x1="162.7604" x2="688.8021" y1="1106.7708" y2="1106.7708"/><text fill="#222222" font-family="Verdana" font-size="12.5" font-weight="bold" lengthAdjust="spacing" textLength="27.0833" x="185.6771" y="1084.0474">[11]</text><text fill="#222222" font-family="Verdana" font-size="12.5" font-weight="bold" lengthAdjust="spacing" textLength="173.9583" x="237.7604" y="1076.7721">429 Too Many Requests</text><text fill="#222222" font-family="Verdana" font-size="12.5" lengthAdjust="spacing" textLength="171.875" x="237.7604" y="1091.3228">(e.g., Rate limit exceeded)</text><path d="M78.3854,1129.6875 L267.9688,1129.6875 L267.9688,1156.7383 L257.5521,1167.1549 L74.2188,1167.1549 L74.2188,1133.8542 A4.1667,4.1667 0 0 1 78.3854,1129.6875 " fill="#FFFFFF" style="stroke:#666666;stroke-width:1.0416666666666667;"/><rect fill="none" height="210.2865" rx="4.1667" ry="4.1667" style="stroke:#2196F3;stroke-width:1.0416666666666667;" width="955.2083" x="74.2188" y="1129.6875"/><text fill="#9C27B0" font-family="Verdana" font-size="12.5" font-weight="bold" lengthAdjust="spacing" textLength="126.0417" x="100.2604" y="1152.7486">Server-Side Error</text><path d="M487.7604,1176.5299 L487.7604,1212.9883 A4.1667,4.1667 0 0 0 491.9271,1217.1549 L895.0521,1217.1549 A4.1667,4.1667 0 0 0 899.2188,1212.9883 L899.2188,1182.7799 L888.8021,1172.3633 L491.9271,1172.3633 A4.1667,4.1667 0 0 0 487.7604,1176.5299 " fill="url(#g1ic3y9dnau5592)" filter="url(#f1ic3y9dnau559)" style="stroke:#9C27B0;stroke-width:1.0416666666666667;"/><path d="M888.8021,1172.3633 L888.8021,1180.6966 A2.0833,2.0833 0 0 0 890.8854,1182.7799 L899.2188,1182.7799 L888.8021,1172.3633 " fill="url(#g1ic3y9dnau5592)" style="stroke:#9C27B0;stroke-width:1.0416666666666667;"/><text fill="#FFFFFF" font-family="Verdana" font-size="12.5" lengthAdjust="spacing" textLength="368.75" x="504.4271" y="1199.5911">e.g., Database connection failure, unhandled exception.</text><line style="stroke:#2196F3;stroke-width:3.125;" x1="700.2604" x2="744.0104" y1="1268.1315" y2="1268.1315"/><line style="stroke:#2196F3;stroke-width:3.125;" x1="744.0104" x2="744.0104" y1="1268.1315" y2="1281.6732"/><line style="stroke:#2196F3;stroke-width:3.125;" x1="701.3021" x2="744.0104" y1="1281.6732" y2="1281.6732"/><polygon fill="#2196F3" points="711.7188,1277.5065,701.3021,1281.6732,711.7188,1285.8398,707.5521,1281.6732" style="stroke:#2196F3;stroke-width:1.0416666666666667;"/><text fill="#222222" font-family="Verdana" font-size="12.5" font-weight="bold" lengthAdjust="spacing" textLength="27.0833" x="717.9688" y="1252.6835">[12]</text><text fill="#222222" font-family="Verdana" font-size="12.5" lengthAdjust="spacing" textLength="236.4583" x="770.0521" y="1252.6835">An unexpected internal error occurs</text><polygon fill="#2196F3" points="169.0104,1327.474,158.5938,1331.6406,169.0104,1335.8073,164.8438,1331.6406" style="stroke:#2196F3;stroke-width:1.0416666666666667;"/><line style="stroke:#2196F3;stroke-width:3.125;stroke-dasharray:2.0,2.0;" x1="162.7604" x2="688.8021" y1="1331.6406" y2="1331.6406"/><text fill="#222222" font-family="Verdana" font-size="12.5" font-weight="bold" lengthAdjust="spacing" textLength="27.0833" x="185.6771" y="1316.1926">[13]</text><text fill="#222222" font-family="Verdana" font-size="12.5" font-weight="bold" lengthAdjust="spacing" textLength="180.2083" x="237.7604" y="1316.1926">500 Internal Server Error</text><!--SRC=[fLHDSzCm4BthLonXXgQcILC-3dHe6O9JfWDjFNRW0WnLh4sYgICPISuGElntLhATkEtqX4-olFlsxTktteEauCfzkVWCiUGBmrSmrmO-JgOGOo7NQ3QGEUug2- -JSxO7K-aAF8PqcZm8oF1NXIh75ecYlwAnKgjZE1gEXYEwYD7cHfOkNFegXyQLzb0qK0CReDufxMIEbzLgXkRaLl7rtsSbto2UYvFRvl2NqEuyARhAA0ij5jHOy3oGBOtEqLgf5Y2uG-XRL28SznbxufQuGbZHcv6SCUUR36cNWKX7WlzcpNZkIE5U56LerXuyCNej1PeewW4d6HDMSaD8igJ9-40gDl1qjo5fneWvdt6B_dlSd9klyPYAL4whG0HwRsUdtqO_Uenb2GnEAVaOeeYwYAB_wOFQa6kl995Xb85Wv6BfGC_z3L29gn8D3vEcIjSBTArXQZMlAMYw96qJ8DyOYGz7vwt8eKk7SkQoe36XWDa66ZP3veVfIJ2MPcsJNtaXmwmpp2iZtGQc-WOLYLCuU5ho0XS6KH7JhCgzEI0d4MjlDqnGH15ZmLq1DXuVKtqbKbUEDvSTNlqkoVsGiHM8vk7Vup4C6cO6RLKu2_tHSAZgQ87T-4v97tyMMjwcxHg_5pTPywBo48r-_MnoEJsSfEbL-fEEyVuEc3Aon1lXnMW4Lv-YwBjAqPPQUGLwINnNXKEwe0vt5xtlQhTHv3zAkhLytRnCvGh9wLYGFvyARcxykCWGj6O69iPeOrjT5qPN9Nme92eto6WDckzikzPTig-8x9WBsdMoZ7MUTH-7Y-41dAkr7pTDn-QyW5mBF82Lh3T-Bh4GTlynp2FuecXXbjh8FtxY3q39XlYxbBuBsth9UIyz2laIphIPII5GtS6prNnEcqtD0cr7u4UIFmRpuWrPLiC5LvksPTk1I_se2xcIZkZbY095ZUIt8GZRrTZ_Rj1qDDuM3Pi3chu65zNWxK-5f5GASx_7CEUog0m9MwabLw8WFNpXy3iVxk1sXdolA9IaetoAbOfSh6WwwCk3pabAUpTjs_jhclHv6rzJhrcJSUwrI4V6Elj3lvz_]--></g></svg>