<?xml version="1.0" encoding="us-ascii" standalone="no"?><svg xmlns="http://www.w3.org/2000/svg" xmlns:xlink="http://www.w3.org/1999/xlink" contentStyleType="text/css" height="1989.5833px" preserveAspectRatio="none" style="width:1737px;height:1989px;" version="1.1" viewBox="0 0 1737 1989" width="1737.5px" zoomAndPan="magnify"><defs><linearGradient id="gekmyofhf19540" x1="50%" x2="50%" y1="0%" y2="100%"><stop offset="0%" stop-color="#FFFFFF"/><stop offset="100%" stop-color="#FFFFFF"/></linearGradient><filter height="300%" id="fekmyofhf1954" width="300%" x="-1" y="-1"><feGaussianBlur result="blurOut" stdDeviation="2.0833333333333335"/><feColorMatrix in="blurOut" result="blurOut2" type="matrix" values="0 0 0 0 0 0 0 0 0 0 0 0 0 0 0 0 0 0 .4 0"/><feOffset dx="4.166666666666667" dy="4.166666666666667" in="blurOut2" result="blurOut3"/><feBlend in="SourceGraphic" in2="blurOut3" mode="normal"/></filter><linearGradient id="gekmyofhf19541" x1="50%" x2="50%" y1="0%" y2="100%"><stop offset="0%" stop-color="#4DABF5"/><stop offset="100%" stop-color="#2196F3"/></linearGradient><linearGradient id="gekmyofhf19542" x1="50%" x2="50%" y1="0%" y2="100%"><stop offset="0%" stop-color="#B052C0"/><stop offset="100%" stop-color="#9C27B0"/></linearGradient></defs><g><rect fill="url(#gekmyofhf19540)" height="57.5846" id="_title" rx="4.1667" ry="4.1667" style="stroke:#CCCCCC;stroke-width:1.0416666666666667;" width="1126.0417" x="307.0313" y="20.8333"/><text fill="#2196F3" font-family="Verdana" font-size="20.8333" font-weight="bold" lengthAdjust="spacing" textLength="1092.7083" x="323.6979" y="56.838">RTP Notice Status API: GET /rtps/delivery-status?noticeNumber={nav}&amp;payeeId={payeeId}</text><rect fill="#FFFFFF" filter="url(#fekmyofhf1954)" height="1626.9857" style="stroke:#CCCCCC;stroke-width:1.0416666666666667;" width="10.4167" x="583.3333" y="243.9779"/><rect fill="#FFFFFF" filter="url(#fekmyofhf1954)" height="422.6237" style="stroke:#CCCCCC;stroke-width:1.0416666666666667;" width="10.4167" x="884.375" y="417.806"/><rect fill="#FFFFFF" filter="url(#fekmyofhf1954)" height="471.582" style="stroke:#CCCCCC;stroke-width:1.0416666666666667;" width="10.4167" x="884.375" y="890.3971"/><rect fill="#FFFFFF" filter="url(#fekmyofhf1954)" height="49.9674" style="stroke:#CCCCCC;stroke-width:1.0416666666666667;" width="10.4167" x="1306.25" y="532.2917"/><rect fill="#FFFFFF" filter="url(#fekmyofhf1954)" height="49.9674" style="stroke:#CCCCCC;stroke-width:1.0416666666666667;" width="10.4167" x="1569.2708" y="669.694"/><rect fill="url(#gekmyofhf19540)" filter="url(#fekmyofhf1954)" height="1544.7266" rx="4.1667" ry="4.1667" style="stroke:#2196F3;stroke-width:1.0416666666666667;" width="1699.4792" x="20.8333" y="318.9453"/><rect fill="url(#gekmyofhf19540)" filter="url(#fekmyofhf1954)" height="294.5638" rx="4.1667" ry="4.1667" style="stroke:#2196F3;stroke-width:1.0416666666666667;" width="956.7708" x="753.125" y="433.431"/><path d="M753.125,590.5924 L1709.8958,590.5924 L1709.8958,723.8281 A4.1667,4.1667 0 0 1 1705.7292,727.9948 L757.2917,727.9948 A4.1667,4.1667 0 0 1 753.125,723.8281 L753.125,590.5924 " fill="url(#gekmyofhf19540)" style="stroke:none;stroke-width:1.0416666666666667;"/><rect fill="url(#gekmyofhf19540)" filter="url(#fekmyofhf1954)" height="321.6471" rx="4.1667" ry="4.1667" style="stroke:#2196F3;stroke-width:1.0416666666666667;" width="865.625" x="445.8333" y="1033.0404"/><path d="M445.8333,1203.7435 L1311.4583,1203.7435 L1311.4583,1350.5208 A4.1667,4.1667 0 0 1 1307.2917,1354.6875 L450,1354.6875 A4.1667,4.1667 0 0 1 445.8333,1350.5208 L445.8333,1203.7435 " fill="url(#gekmyofhf19540)" style="stroke:none;stroke-width:1.0416666666666667;"/><path d="M20.8333,1426.4974 L1720.3125,1426.4974 L1720.3125,1509.7656 A4.1667,4.1667 0 0 1 1716.1458,1513.9323 L25,1513.9323 A4.1667,4.1667 0 0 1 20.8333,1509.7656 L20.8333,1426.4974 " fill="url(#gekmyofhf19540)" style="stroke:none;stroke-width:1.0416666666666667;"/><path d="M20.8333,1513.9323 L1720.3125,1513.9323 L1720.3125,1597.2005 A4.1667,4.1667 0 0 1 1716.1458,1601.3672 L25,1601.3672 A4.1667,4.1667 0 0 1 20.8333,1597.2005 L20.8333,1513.9323 " fill="url(#gekmyofhf19540)" style="stroke:none;stroke-width:1.0416666666666667;"/><path d="M20.8333,1601.3672 L1720.3125,1601.3672 L1720.3125,1684.6354 A4.1667,4.1667 0 0 1 1716.1458,1688.8021 L25,1688.8021 A4.1667,4.1667 0 0 1 20.8333,1684.6354 L20.8333,1601.3672 " fill="url(#gekmyofhf19540)" style="stroke:none;stroke-width:1.0416666666666667;"/><path d="M20.8333,1688.8021 L1720.3125,1688.8021 L1720.3125,1772.0703 A4.1667,4.1667 0 0 1 1716.1458,1776.237 L25,1776.237 A4.1667,4.1667 0 0 1 20.8333,1772.0703 L20.8333,1688.8021 " fill="url(#gekmyofhf19540)" style="stroke:none;stroke-width:1.0416666666666667;"/><path d="M20.8333,1776.237 L1720.3125,1776.237 L1720.3125,1859.5052 A4.1667,4.1667 0 0 1 1716.1458,1863.6719 L25,1863.6719 A4.1667,4.1667 0 0 1 20.8333,1859.5052 L20.8333,1776.237 " fill="url(#gekmyofhf19540)" style="stroke:none;stroke-width:1.0416666666666667;"/><line style="stroke:#CCCCCC;stroke-width:1.0416666666666667;stroke-dasharray:5.0,5.0;" x1="96.875" x2="96.875" y1="191.9271" y2="1881.3802"/><line style="stroke:#CCCCCC;stroke-width:1.0416666666666667;stroke-dasharray:5.0,5.0;" x1="588.5417" x2="588.5417" y1="191.9271" y2="1881.3802"/><line style="stroke:#CCCCCC;stroke-width:1.0416666666666667;stroke-dasharray:5.0,5.0;" x1="889.5833" x2="889.5833" y1="191.9271" y2="1881.3802"/><line style="stroke:#CCCCCC;stroke-width:1.0416666666666667;stroke-dasharray:5.0,5.0;" x1="1310.9375" x2="1310.9375" y1="191.9271" y2="1881.3802"/><line style="stroke:#CCCCCC;stroke-width:1.0416666666666667;stroke-dasharray:5.0,5.0;" x1="1574.4792" x2="1574.4792" y1="191.9271" y2="1881.3802"/><text fill="#222222" font-family="Verdana" font-size="12.5" lengthAdjust="spacing" textLength="104.1667" x="41.6667" y="178.5624">Service Provider</text><ellipse cx="96.875" cy="99.2513" fill="url(#gekmyofhf19541)" filter="url(#fekmyofhf1954)" rx="8.3333" ry="8.3333" style="stroke:#2196F3;stroke-width:1.0416666666666667;"/><path d="M96.875,107.5846 L96.875,135.7096 M83.3333,115.918 L110.4167,115.918 M96.875,135.7096 L83.3333,151.3346 M96.875,135.7096 L110.4167,151.3346 " fill="none" filter="url(#fekmyofhf1954)" style="stroke:#2196F3;stroke-width:1.0416666666666667;"/><text fill="#222222" font-family="Verdana" font-size="12.5" lengthAdjust="spacing" textLength="104.1667" x="41.6667" y="1902.358">Service Provider</text><ellipse cx="96.875" cy="1925.0977" fill="url(#gekmyofhf19541)" filter="url(#fekmyofhf1954)" rx="8.3333" ry="8.3333" style="stroke:#2196F3;stroke-width:1.0416666666666667;"/><path d="M96.875,1933.431 L96.875,1961.556 M83.3333,1941.7643 L110.4167,1941.7643 M96.875,1961.556 L83.3333,1977.181 M96.875,1961.556 L110.4167,1977.181 " fill="none" filter="url(#fekmyofhf1954)" style="stroke:#2196F3;stroke-width:1.0416666666666667;"/><rect fill="url(#gekmyofhf19541)" filter="url(#fekmyofhf1954)" height="49.9674" rx="4.1667" ry="4.1667" style="stroke:#2196F3;stroke-width:1.0416666666666667;" width="178.125" x="497.9167" y="137.793"/><text fill="#FFFFFF" font-family="Verdana" font-size="12.5" lengthAdjust="spacing" textLength="142.7083" x="515.625" y="167.1041">SendAPIControllerImpl</text><rect fill="url(#gekmyofhf19541)" filter="url(#fekmyofhf1954)" height="49.9674" rx="4.1667" ry="4.1667" style="stroke:#2196F3;stroke-width:1.0416666666666667;" width="178.125" x="497.9167" y="1880.3385"/><text fill="#FFFFFF" font-family="Verdana" font-size="12.5" lengthAdjust="spacing" textLength="142.7083" x="515.625" y="1909.6497">SendAPIControllerImpl</text><rect fill="url(#gekmyofhf19541)" filter="url(#fekmyofhf1954)" height="49.9674" rx="4.1667" ry="4.1667" style="stroke:#2196F3;stroke-width:1.0416666666666667;" width="165.625" x="805.2083" y="137.793"/><text fill="#FFFFFF" font-family="Verdana" font-size="12.5" lengthAdjust="spacing" textLength="130.2083" x="822.9167" y="167.1041">SendRTPServiceImpl</text><rect fill="url(#gekmyofhf19541)" filter="url(#fekmyofhf1954)" height="49.9674" rx="4.1667" ry="4.1667" style="stroke:#2196F3;stroke-width:1.0416666666666667;" width="165.625" x="805.2083" y="1880.3385"/><text fill="#FFFFFF" font-family="Verdana" font-size="12.5" lengthAdjust="spacing" textLength="130.2083" x="822.9167" y="1909.6497">SendRTPServiceImpl</text><rect fill="url(#gekmyofhf19541)" filter="url(#fekmyofhf1954)" height="64.5182" rx="4.1667" ry="4.1667" style="stroke:#2196F3;stroke-width:1.0416666666666667;" width="168.75" x="1225.5208" y="123.2422"/><text fill="#FFFFFF" font-family="Verdana" font-size="12.5" lengthAdjust="spacing" textLength="90.625" x="1264.5833" y="152.5533">RtpRepository</text><text fill="#FFFFFF" font-family="Verdana" font-size="12.5" lengthAdjust="spacing" textLength="133.3333" x="1243.2292" y="167.1041">(Cosmos API Mongo)</text><rect fill="url(#gekmyofhf19541)" filter="url(#fekmyofhf1954)" height="64.5182" rx="4.1667" ry="4.1667" style="stroke:#2196F3;stroke-width:1.0416666666666667;" width="168.75" x="1225.5208" y="1880.3385"/><text fill="#FFFFFF" font-family="Verdana" font-size="12.5" lengthAdjust="spacing" textLength="90.625" x="1264.5833" y="1909.6497">RtpRepository</text><text fill="#FFFFFF" font-family="Verdana" font-size="12.5" lengthAdjust="spacing" textLength="133.3333" x="1243.2292" y="1924.2004">(Cosmos API Mongo)</text><rect fill="url(#gekmyofhf19541)" filter="url(#fekmyofhf1954)" height="49.9674" rx="4.1667" ry="4.1667" style="stroke:#2196F3;stroke-width:1.0416666666666667;" width="163.5417" x="1491.1458" y="137.793"/><text fill="#FFFFFF" font-family="Verdana" font-size="12.5" lengthAdjust="spacing" textLength="128.125" x="1508.8542" y="167.1041">Azure Data Explorer</text><rect fill="url(#gekmyofhf19541)" filter="url(#fekmyofhf1954)" height="49.9674" rx="4.1667" ry="4.1667" style="stroke:#2196F3;stroke-width:1.0416666666666667;" width="163.5417" x="1491.1458" y="1880.3385"/><text fill="#FFFFFF" font-family="Verdana" font-size="12.5" lengthAdjust="spacing" textLength="128.125" x="1508.8542" y="1909.6497">Azure Data Explorer</text><rect fill="#FFFFFF" filter="url(#fekmyofhf1954)" height="1626.9857" style="stroke:#CCCCCC;stroke-width:1.0416666666666667;" width="10.4167" x="583.3333" y="243.9779"/><rect fill="#FFFFFF" filter="url(#fekmyofhf1954)" height="422.6237" style="stroke:#CCCCCC;stroke-width:1.0416666666666667;" width="10.4167" x="884.375" y="417.806"/><rect fill="#FFFFFF" filter="url(#fekmyofhf1954)" height="471.582" style="stroke:#CCCCCC;stroke-width:1.0416666666666667;" width="10.4167" x="884.375" y="890.3971"/><rect fill="#FFFFFF" filter="url(#fekmyofhf1954)" height="49.9674" style="stroke:#CCCCCC;stroke-width:1.0416666666666667;" width="10.4167" x="1306.25" y="532.2917"/><rect fill="#FFFFFF" filter="url(#fekmyofhf1954)" height="49.9674" style="stroke:#CCCCCC;stroke-width:1.0416666666666667;" width="10.4167" x="1569.2708" y="669.694"/><polygon fill="#2196F3" points="570.8333,239.8112,581.25,243.9779,570.8333,248.1445,575,243.9779" style="stroke:#2196F3;stroke-width:1.0416666666666667;"/><line style="stroke:#2196F3;stroke-width:3.125;" x1="96.875" x2="577.0833" y1="243.9779" y2="243.9779"/><text fill="#222222" font-family="Verdana" font-size="12.5" lengthAdjust="spacing" textLength="445.8333" x="114.5833" y="228.5299">GET /rtps/delivery-status?noticeNumber={nav}&amp;payeeId={payeeId}</text><path d="M598.9583,261.6862 L598.9583,298.1445 A4.1667,4.1667 0 0 0 603.125,302.3112 L923.9583,302.3112 A4.1667,4.1667 0 0 0 928.125,298.1445 L928.125,267.9362 L917.7083,257.5195 L603.125,257.5195 A4.1667,4.1667 0 0 0 598.9583,261.6862 " fill="url(#gekmyofhf19542)" filter="url(#fekmyofhf1954)" style="stroke:#9C27B0;stroke-width:1.0416666666666667;"/><path d="M917.7083,257.5195 L917.7083,265.8529 A2.0833,2.0833 0 0 0 919.7917,267.9362 L928.125,267.9362 L917.7083,257.5195 " fill="url(#gekmyofhf19542)" style="stroke:#9C27B0;stroke-width:1.0416666666666667;"/><text fill="#FFFFFF" font-family="Verdana" font-size="12.5" lengthAdjust="spacing" textLength="286.4583" x="615.625" y="284.7473">@PreAuthorize("hasRole('payee_read_rtp')")</text><path d="M25,318.9453 L108.3333,318.9453 L108.3333,345.9961 L97.9167,356.4128 L20.8333,356.4128 L20.8333,323.112 A4.1667,4.1667 0 0 1 25,318.9453 " fill="#FFFFFF" style="stroke:#666666;stroke-width:1.0416666666666667;"/><rect fill="none" height="1544.7266" rx="4.1667" ry="4.1667" style="stroke:#2196F3;stroke-width:1.0416666666666667;" width="1699.4792" x="20.8333" y="318.9453"/><text fill="#9C27B0" font-family="Verdana" font-size="12.5" font-weight="bold" lengthAdjust="spacing" textLength="19.7917" x="46.875" y="342.0064">alt</text><text fill="#222222" font-family="Verdana" font-size="12.5" font-weight="bold" lengthAdjust="spacing" textLength="109.375" x="134.375" y="343.0481">[Valid request]</text><polygon fill="#2196F3" points="871.875,413.6393,882.2917,417.806,871.875,421.9727,876.0417,417.806" style="stroke:#2196F3;stroke-width:1.0416666666666667;"/><line style="stroke:#2196F3;stroke-width:3.125;" x1="593.75" x2="878.125" y1="417.806" y2="417.806"/><text fill="#222222" font-family="Verdana" font-size="12.5" lengthAdjust="spacing" textLength="233.3333" x="611.4583" y="402.358">findByNoticeNumber(noticeNumber)</text><path d="M757.2917,433.431 L845.8333,433.431 L845.8333,460.4818 L835.4167,470.8984 L753.125,470.8984 L753.125,437.5977 A4.1667,4.1667 0 0 1 757.2917,433.431 " fill="#FFFFFF" style="stroke:#666666;stroke-width:1.0416666666666667;"/><rect fill="none" height="294.5638" rx="4.1667" ry="4.1667" style="stroke:#2196F3;stroke-width:1.0416666666666667;" width="956.7708" x="753.125" y="433.431"/><text fill="#9C27B0" font-family="Verdana" font-size="12.5" font-weight="bold" lengthAdjust="spacing" textLength="25" x="779.1667" y="456.4921">par</text><text fill="#222222" font-family="Verdana" font-size="12.5" font-weight="bold" lengthAdjust="spacing" textLength="115.625" x="871.875" y="457.5338">[Query Cosmos]</text><polygon fill="#2196F3" points="1293.75,528.125,1304.1667,532.2917,1293.75,536.4583,1297.9167,532.2917" style="stroke:#2196F3;stroke-width:1.0416666666666667;"/><line style="stroke:#2196F3;stroke-width:3.125;" x1="894.7917" x2="1300" y1="532.2917" y2="532.2917"/><text fill="#222222" font-family="Verdana" font-size="12.5" lengthAdjust="spacing" textLength="247.9167" x="912.5" y="516.8437">findAllByNoticeNumber(noticeNumber)</text><polygon fill="#2196F3" points="906.25,578.0924,895.8333,582.2591,906.25,586.4258,902.0833,582.2591" style="stroke:#2196F3;stroke-width:1.0416666666666667;"/><line style="stroke:#2196F3;stroke-width:3.125;stroke-dasharray:2.0,2.0;" x1="900" x2="1310.4167" y1="582.2591" y2="582.2591"/><text fill="#222222" font-family="Verdana" font-size="12.5" lengthAdjust="spacing" textLength="67.7083" x="922.9167" y="566.8111">Flux&lt;Rtp&gt;</text><line style="stroke:#2196F3;stroke-width:1.0416666666666667;stroke-dasharray:2.0,2.0;" x1="753.125" x2="1709.8958" y1="591.6341" y2="591.6341"/><text fill="#222222" font-family="Verdana" font-size="12.5" font-weight="bold" lengthAdjust="spacing" textLength="87.5" x="768.75" y="613.6536">[Query ADX]</text><polygon fill="#2196F3" points="1556.7708,665.5273,1567.1875,669.694,1556.7708,673.8607,1560.9375,669.694" style="stroke:#2196F3;stroke-width:1.0416666666666667;"/><line style="stroke:#2196F3;stroke-width:3.125;" x1="894.7917" x2="1563.0208" y1="669.694" y2="669.694"/><text fill="#222222" font-family="Verdana" font-size="12.5" lengthAdjust="spacing" textLength="233.3333" x="912.5" y="654.246">findByNoticeNumber(noticeNumber)</text><polygon fill="#2196F3" points="906.25,715.4948,895.8333,719.6615,906.25,723.8281,902.0833,719.6615" style="stroke:#2196F3;stroke-width:1.0416666666666667;"/><line style="stroke:#2196F3;stroke-width:3.125;stroke-dasharray:2.0,2.0;" x1="900" x2="1573.4375" y1="719.6615" y2="719.6615"/><text fill="#222222" font-family="Verdana" font-size="12.5" lengthAdjust="spacing" textLength="67.7083" x="922.9167" y="704.2135">Flux&lt;Rtp&gt;</text><line style="stroke:#2196F3;stroke-width:3.125;" x1="894.7917" x2="938.5417" y1="776.9206" y2="776.9206"/><line style="stroke:#2196F3;stroke-width:3.125;" x1="938.5417" x2="938.5417" y1="776.9206" y2="790.4622"/><line style="stroke:#2196F3;stroke-width:3.125;" x1="895.8333" x2="938.5417" y1="790.4622" y2="790.4622"/><polygon fill="#2196F3" points="906.25,786.2956,895.8333,790.4622,906.25,794.6289,902.0833,790.4622" style="stroke:#2196F3;stroke-width:1.0416666666666667;"/><text fill="#222222" font-family="Verdana" font-size="12.5" lengthAdjust="spacing" textLength="191.6667" x="912.5" y="761.4726">merge results into Flux&lt;Rtp&gt;</text><polygon fill="#2196F3" points="605.2083,836.263,594.7917,840.4297,605.2083,844.5964,601.0417,840.4297" style="stroke:#2196F3;stroke-width:1.0416666666666667;"/><line style="stroke:#2196F3;stroke-width:3.125;stroke-dasharray:2.0,2.0;" x1="598.9583" x2="888.5417" y1="840.4297" y2="840.4297"/><text fill="#222222" font-family="Verdana" font-size="12.5" lengthAdjust="spacing" textLength="67.7083" x="621.875" y="824.9817">Flux&lt;Rtp&gt;</text><polygon fill="#2196F3" points="871.875,886.2305,882.2917,890.3971,871.875,894.5638,876.0417,890.3971" style="stroke:#2196F3;stroke-width:1.0416666666666667;"/><line style="stroke:#2196F3;stroke-width:3.125;" x1="593.75" x2="878.125" y1="890.3971" y2="890.3971"/><text fill="#222222" font-family="Verdana" font-size="12.5" lengthAdjust="spacing" textLength="250" x="611.4583" y="874.9491">getRtpDeliveryStatus(rtpFlux, payeeId)</text><line style="stroke:#2196F3;stroke-width:3.125;" x1="894.7917" x2="938.5417" y1="940.3646" y2="940.3646"/><line style="stroke:#2196F3;stroke-width:3.125;" x1="938.5417" x2="938.5417" y1="940.3646" y2="953.9063"/><line style="stroke:#2196F3;stroke-width:3.125;" x1="895.8333" x2="938.5417" y1="953.9063" y2="953.9063"/><polygon fill="#2196F3" points="906.25,949.7396,895.8333,953.9063,906.25,958.0729,902.0833,953.9063" style="stroke:#2196F3;stroke-width:1.0416666666666667;"/><text fill="#222222" font-family="Verdana" font-size="12.5" lengthAdjust="spacing" textLength="103.125" x="912.5" y="924.9166">filter by payeeId</text><line style="stroke:#2196F3;stroke-width:3.125;" x1="894.7917" x2="938.5417" y1="1003.8737" y2="1003.8737"/><line style="stroke:#2196F3;stroke-width:3.125;" x1="938.5417" x2="938.5417" y1="1003.8737" y2="1017.4154"/><line style="stroke:#2196F3;stroke-width:3.125;" x1="895.8333" x2="938.5417" y1="1017.4154" y2="1017.4154"/><polygon fill="#2196F3" points="906.25,1013.2487,895.8333,1017.4154,906.25,1021.582,902.0833,1017.4154" style="stroke:#2196F3;stroke-width:1.0416666666666667;"/><text fill="#222222" font-family="Verdana" font-size="12.5" lengthAdjust="spacing" textLength="307.2917" x="912.5" y="988.4257">filter by event in [SEND_RTP, ERROR_SEND_RTP]</text><path d="M450,1033.0404 L533.3333,1033.0404 L533.3333,1060.0911 L522.9167,1070.5078 L445.8333,1070.5078 L445.8333,1037.207 A4.1667,4.1667 0 0 1 450,1033.0404 " fill="#FFFFFF" style="stroke:#666666;stroke-width:1.0416666666666667;"/><rect fill="none" height="321.6471" rx="4.1667" ry="4.1667" style="stroke:#2196F3;stroke-width:1.0416666666666667;" width="865.625" x="445.8333" y="1033.0404"/><text fill="#9C27B0" font-family="Verdana" font-size="12.5" font-weight="bold" lengthAdjust="spacing" textLength="19.7917" x="471.875" y="1056.1015">alt</text><text fill="#222222" font-family="Verdana" font-size="12.5" font-weight="bold" lengthAdjust="spacing" textLength="156.25" x="559.375" y="1057.1431">[matching RTP found]</text><line style="stroke:#2196F3;stroke-width:3.125;" x1="894.7917" x2="938.5417" y1="1131.901" y2="1131.901"/><line style="stroke:#2196F3;stroke-width:3.125;" x1="938.5417" x2="938.5417" y1="1131.901" y2="1145.4427"/><line style="stroke:#2196F3;stroke-width:3.125;" x1="895.8333" x2="938.5417" y1="1145.4427" y2="1145.4427"/><polygon fill="#2196F3" points="906.25,1141.276,895.8333,1145.4427,906.25,1149.6094,902.0833,1145.4427" style="stroke:#2196F3;stroke-width:1.0416666666666667;"/><text fill="#222222" font-family="Verdana" font-size="12.5" lengthAdjust="spacing" textLength="343.75" x="912.5" y="1116.453">map to RtpDeliveryResponseDto(PD_RTP_DELIVERED)</text><polygon fill="#2196F3" points="605.2083,1191.2435,594.7917,1195.4102,605.2083,1199.5768,601.0417,1195.4102" style="stroke:#2196F3;stroke-width:1.0416666666666667;"/><line style="stroke:#2196F3;stroke-width:3.125;stroke-dasharray:2.0,2.0;" x1="598.9583" x2="883.3333" y1="1195.4102" y2="1195.4102"/><text fill="#222222" font-family="Verdana" font-size="12.5" lengthAdjust="spacing" textLength="159.375" x="621.875" y="1179.9622">RtpDeliveryResponseDto</text><line style="stroke:#2196F3;stroke-width:1.0416666666666667;stroke-dasharray:2.0,2.0;" x1="445.8333" x2="1311.4583" y1="1204.7852" y2="1204.7852"/><text fill="#222222" font-family="Verdana" font-size="12.5" font-weight="bold" lengthAdjust="spacing" textLength="179.1667" x="461.4583" y="1226.8046">[no matching RTP found]</text><line style="stroke:#2196F3;stroke-width:3.125;" x1="894.7917" x2="938.5417" y1="1282.8451" y2="1282.8451"/><line style="stroke:#2196F3;stroke-width:3.125;" x1="938.5417" x2="938.5417" y1="1282.8451" y2="1296.3867"/><line style="stroke:#2196F3;stroke-width:3.125;" x1="895.8333" x2="938.5417" y1="1296.3867" y2="1296.3867"/><polygon fill="#2196F3" points="906.25,1292.2201,895.8333,1296.3867,906.25,1300.5534,902.0833,1296.3867" style="stroke:#2196F3;stroke-width:1.0416666666666667;"/><text fill="#222222" font-family="Verdana" font-size="12.5" lengthAdjust="spacing" textLength="376.0417" x="912.5" y="1267.3971">map to RtpDeliveryResponseDto(PD_RTP_NOT_DELIVERED)</text><polygon fill="#2196F3" points="605.2083,1342.1875,594.7917,1346.3542,605.2083,1350.5208,601.0417,1346.3542" style="stroke:#2196F3;stroke-width:1.0416666666666667;"/><line style="stroke:#2196F3;stroke-width:3.125;stroke-dasharray:2.0,2.0;" x1="598.9583" x2="883.3333" y1="1346.3542" y2="1346.3542"/><text fill="#222222" font-family="Verdana" font-size="12.5" lengthAdjust="spacing" textLength="159.375" x="621.875" y="1330.9062">RtpDeliveryResponseDto</text><polygon fill="#2196F3" points="108.3333,1413.9974,97.9167,1418.1641,108.3333,1422.3307,104.1667,1418.1641" style="stroke:#2196F3;stroke-width:1.0416666666666667;"/><line style="stroke:#2196F3;stroke-width:3.125;stroke-dasharray:2.0,2.0;" x1="102.0833" x2="582.2917" y1="1418.1641" y2="1418.1641"/><text fill="#222222" font-family="Verdana" font-size="12.5" lengthAdjust="spacing" textLength="45.8333" x="125" y="1388.1653">200 OK</text><text fill="#222222" font-family="Verdana" font-size="12.5" lengthAdjust="spacing" textLength="159.375" x="125" y="1402.7161">RtpDeliveryResponseDto</text><line style="stroke:#2196F3;stroke-width:1.0416666666666667;stroke-dasharray:2.0,2.0;" x1="20.8333" x2="1720.3125" y1="1427.5391" y2="1427.5391"/><text fill="#222222" font-family="Verdana" font-size="12.5" font-weight="bold" lengthAdjust="spacing" textLength="309.375" x="36.4583" y="1449.5585">[Invalid noticeNumber or missing payeeId]</text><polygon fill="#2196F3" points="108.3333,1501.4323,97.9167,1505.599,108.3333,1509.7656,104.1667,1505.599" style="stroke:#2196F3;stroke-width:1.0416666666666667;"/><line style="stroke:#2196F3;stroke-width:3.125;stroke-dasharray:2.0,2.0;" x1="102.0833" x2="582.2917" y1="1505.599" y2="1505.599"/><text fill="#222222" font-family="Verdana" font-size="12.5" lengthAdjust="spacing" textLength="112.5" x="125" y="1490.151">400 Bad Request</text><line style="stroke:#2196F3;stroke-width:1.0416666666666667;stroke-dasharray:2.0,2.0;" x1="20.8333" x2="1720.3125" y1="1514.974" y2="1514.974"/><text fill="#222222" font-family="Verdana" font-size="12.5" font-weight="bold" lengthAdjust="spacing" textLength="247.9167" x="36.4583" y="1536.9934">[Invalid or expired security token]</text><polygon fill="#2196F3" points="108.3333,1588.8672,97.9167,1593.0339,108.3333,1597.2005,104.1667,1593.0339" style="stroke:#2196F3;stroke-width:1.0416666666666667;"/><line style="stroke:#2196F3;stroke-width:3.125;stroke-dasharray:2.0,2.0;" x1="102.0833" x2="582.2917" y1="1593.0339" y2="1593.0339"/><text fill="#222222" font-family="Verdana" font-size="12.5" lengthAdjust="spacing" textLength="115.625" x="125" y="1577.5859">401 Unauthorized</text><line style="stroke:#2196F3;stroke-width:1.0416666666666667;stroke-dasharray:2.0,2.0;" x1="20.8333" x2="1720.3125" y1="1602.4089" y2="1602.4089"/><text fill="#222222" font-family="Verdana" font-size="12.5" font-weight="bold" lengthAdjust="spacing" textLength="186.4583" x="36.4583" y="1624.4283">[Insufficient permissions]</text><polygon fill="#2196F3" points="108.3333,1676.3021,97.9167,1680.4688,108.3333,1684.6354,104.1667,1680.4688" style="stroke:#2196F3;stroke-width:1.0416666666666667;"/><line style="stroke:#2196F3;stroke-width:3.125;stroke-dasharray:2.0,2.0;" x1="102.0833" x2="582.2917" y1="1680.4688" y2="1680.4688"/><text fill="#222222" font-family="Verdana" font-size="12.5" lengthAdjust="spacing" textLength="94.7917" x="125" y="1665.0208">403 Forbidden</text><line style="stroke:#2196F3;stroke-width:1.0416666666666667;stroke-dasharray:2.0,2.0;" x1="20.8333" x2="1720.3125" y1="1689.8438" y2="1689.8438"/><text fill="#222222" font-family="Verdana" font-size="12.5" font-weight="bold" lengthAdjust="spacing" textLength="155.2083" x="36.4583" y="1711.8632">[Rate limit exceeded]</text><polygon fill="#2196F3" points="108.3333,1763.737,97.9167,1767.9036,108.3333,1772.0703,104.1667,1767.9036" style="stroke:#2196F3;stroke-width:1.0416666666666667;"/><line style="stroke:#2196F3;stroke-width:3.125;stroke-dasharray:2.0,2.0;" x1="102.0833" x2="582.2917" y1="1767.9036" y2="1767.9036"/><text fill="#222222" font-family="Verdana" font-size="12.5" lengthAdjust="spacing" textLength="156.25" x="125" y="1752.4556">429 Too Many Requests</text><line style="stroke:#2196F3;stroke-width:1.0416666666666667;stroke-dasharray:2.0,2.0;" x1="20.8333" x2="1720.3125" y1="1777.2786" y2="1777.2786"/><text fill="#222222" font-family="Verdana" font-size="12.5" font-weight="bold" lengthAdjust="spacing" textLength="190.625" x="36.4583" y="1799.2981">[Unexpected server error]</text><polygon fill="#2196F3" points="108.3333,1851.1719,97.9167,1855.3385,108.3333,1859.5052,104.1667,1855.3385" style="stroke:#2196F3;stroke-width:1.0416666666666667;"/><line style="stroke:#2196F3;stroke-width:3.125;stroke-dasharray:2.0,2.0;" x1="102.0833" x2="582.2917" y1="1855.3385" y2="1855.3385"/><text fill="#222222" font-family="Verdana" font-size="12.5" lengthAdjust="spacing" textLength="161.4583" x="125" y="1839.8905">500 Internal Server Error</text><!--SRC=[jLLHRzCm47xFhpZwm5ffqyQ01oOswDQ0AbXNicv2OgZoccjhuTZ1Tgfrq_ux5oVfdAwbGq2UMkVkk-_xxdnvPgUO82JCekOi22ot0Y4QzA6dB1yXd5jcCmFjVlS0FeO3sDKsDRin2Zv3FTynxlKxwO9xMNAD-l1EijdzyvJD4RlnuLtvupu8sCWg3OrprBCSkg_LZCUe6y0Cd0YEqWOfquJ4KoPj7YXZAdoYfDLA2DJT91L5zEBeSGQHBoiimil_zTZ8fX6cod0YDR-IpHDb4kMKmgcI4zLogGyXzUpsRQOHEimo26zIeNIfeztv6WI56DWvyeZ2N_j7zl4PDSfNJua8ca-c5jIuNkrzNsCxirEb-Iqs6rDc8YMmkUNmXXfPF2GkMwr6YpeZB5momMFG-3D3OuC0wF7mI4lLjmCOSnaVptiUwQQleEMI5tGhzzqfcGXVCf8EXT_kC7ygT2hqu7bPgot4ndArabxNgdSUw4vDp0UHtRobOJXQXCQu3WY5mP9-tkWLtEdugGRL6FjmESOVSAnIQVOBZpqw3n09wWcD2ffCM0DSMhM4kiXQ7jjwc5UurjXrip91IxcTSk2BTTAamSjHjw4SxZKJirRCc0jQM70zhm2U4egp_59o2T_EmrvdI7jY6y8eEek6rV_lXPJyDj1674svdBXTE5QPZ5TrsxENfK2MUb8ZDAcI1ZjMDViEVjW9FtSlmoZij1w3BRk-6kbX2gNwFnnxPuD_nhCQo1KpipmoEMonDGzWVsyFpZvToJNGWTFVbJEtiFnx1VHvIRWnkIV-OAmhz8eA7REORdcvz6h818OtATSOWy5HfhcTatq_K6x0V04NabMBDrw0ccmyfiz77fMYTZH9qGQib_11wMiUnrIr08fo5mLFk2Ls8yGODsZSVmC3fU2KoNabr9HO5v84uiWwXPfy1jHQwT_YlIRFkfAkb6J2TPC2GfSLk7vxlVQ-Kxy0]--></g></svg>