<?xml version="1.0" encoding="us-ascii" standalone="no"?><svg xmlns="http://www.w3.org/2000/svg" xmlns:xlink="http://www.w3.org/1999/xlink" contentStyleType="text/css" height="1285.4167px" preserveAspectRatio="none" style="width:969px;height:1285px;background:#FFFFFF;" version="1.1" viewBox="0 0 969 1285" width="969.7917px" zoomAndPan="magnify"><defs><filter height="300%" id="f23if8adstr7x" width="300%" x="-1" y="-1"><feGaussianBlur result="blurOut" stdDeviation="2.0833333333333335"/><feColorMatrix in="blurOut" result="blurOut2" type="matrix" values="0 0 0 0 0 0 0 0 0 0 0 0 0 0 0 0 0 0 .4 0"/><feOffset dx="4.166666666666667" dy="4.166666666666667" in="blurOut2" result="blurOut3"/><feBlend in="SourceGraphic" in2="blurOut3" mode="normal"/></filter><linearGradient id="g23if8adstr7x0" x1="50%" x2="50%" y1="0%" y2="100%"><stop offset="0%" stop-color="#FFFFFF"/><stop offset="100%" stop-color="#FFFFFF"/></linearGradient><linearGradient id="g23if8adstr7x1" x1="50%" x2="50%" y1="0%" y2="100%"><stop offset="0%" stop-color="#4DABF5"/><stop offset="100%" stop-color="#2196F3"/></linearGradient><linearGradient id="g23if8adstr7x2" x1="50%" x2="50%" y1="0%" y2="100%"><stop offset="0%" stop-color="#B052C0"/><stop offset="100%" stop-color="#9C27B0"/></linearGradient></defs><g><rect fill="none" height="57.5846" id="_title" rx="4.1667" ry="4.1667" style="stroke:#CCCCCC;stroke-width:1.0416666666666667;" width="723.9583" x="123.9583" y="20.8333"/><text fill="#2196F3" font-family="Verdana" font-size="20.8333" font-weight="bold" lengthAdjust="spacing" textLength="690.625" x="140.625" y="56.838">Payer Status API: GET /activations/payer/{payerId}/status</text><rect fill="#FFFFFF" filter="url(#f23if8adstr7x)" height="908.6589" style="stroke:#CCCCCC;stroke-width:1.0416666666666667;" width="10.4167" x="490.1042" y="258.5286"/><rect fill="#FFFFFF" filter="url(#f23if8adstr7x)" height="49.9674" style="stroke:#CCCCCC;stroke-width:1.0416666666666667;" width="10.4167" x="845.3125" y="308.4961"/><rect fill="url(#g23if8adstr7x0)" filter="url(#f23if8adstr7x)" height="217.5456" rx="4.1667" ry="4.1667" style="stroke:#2196F3;stroke-width:1.0416666666666667;" width="593.2292" x="358.8542" y="374.0885"/><path d="M358.8542,554.1667 L952.0833,554.1667 L952.0833,587.4674 A4.1667,4.1667 0 0 1 947.9167,591.6341 L363.0208,591.6341 A4.1667,4.1667 0 0 1 358.8542,587.4674 L358.8542,554.1667 " fill="url(#g23if8adstr7x0)" style="stroke:none;stroke-width:1.0416666666666667;"/><rect fill="url(#g23if8adstr7x0)" filter="url(#f23if8adstr7x)" height="553.6784" rx="4.1667" ry="4.1667" style="stroke:#2196F3;stroke-width:1.0416666666666667;" width="795.8333" x="20.8333" y="606.2174"/><path d="M20.8333,727.9622 L816.6667,727.9622 L816.6667,914.2253 A4.1667,4.1667 0 0 1 812.5,918.3919 L25,918.3919 A4.1667,4.1667 0 0 1 20.8333,914.2253 L20.8333,727.9622 " fill="url(#g23if8adstr7x0)" style="stroke:none;stroke-width:1.0416666666666667;"/><path d="M20.8333,918.3919 L816.6667,918.3919 L816.6667,1155.7292 A4.1667,4.1667 0 0 1 812.5,1159.8958 L25,1159.8958 A4.1667,4.1667 0 0 1 20.8333,1155.7292 L20.8333,918.3919 " fill="url(#g23if8adstr7x0)" style="stroke:none;stroke-width:1.0416666666666667;"/><rect fill="url(#g23if8adstr7x0)" filter="url(#f23if8adstr7x)" height="87.4349" rx="4.1667" ry="4.1667" style="stroke:#2196F3;stroke-width:1.0416666666666667;" width="600.5208" x="31.25" y="963.151"/><rect fill="url(#g23if8adstr7x0)" filter="url(#f23if8adstr7x)" height="87.4349" rx="4.1667" ry="4.1667" style="stroke:#2196F3;stroke-width:1.0416666666666667;" width="600.5208" x="31.25" y="1065.1693"/><line style="stroke:#CCCCCC;stroke-width:1.0416666666666667;stroke-dasharray:5.0,5.0;" x1="143.75" x2="143.75" y1="191.9271" y2="1177.6042"/><line style="stroke:#CCCCCC;stroke-width:1.0416666666666667;stroke-dasharray:5.0,5.0;" x1="495.3125" x2="495.3125" y1="191.9271" y2="1177.6042"/><line style="stroke:#CCCCCC;stroke-width:1.0416666666666667;stroke-dasharray:5.0,5.0;" x1="850" x2="850" y1="191.9271" y2="1177.6042"/><text fill="#222222" font-family="Verdana" font-size="12.5" font-weight="bold" lengthAdjust="spacing" textLength="178.125" x="52.0833" y="178.5624">Payer's Service Provider</text><ellipse cx="144.2708" cy="99.2513" fill="url(#g23if8adstr7x1)" filter="url(#f23if8adstr7x)" rx="8.3333" ry="8.3333" style="stroke:#2196F3;stroke-width:1.0416666666666667;"/><path d="M144.2708,107.5846 L144.2708,135.7096 M130.7292,115.918 L157.8125,115.918 M144.2708,135.7096 L130.7292,151.3346 M144.2708,135.7096 L157.8125,151.3346 " fill="none" filter="url(#f23if8adstr7x)" style="stroke:#2196F3;stroke-width:1.0416666666666667;"/><text fill="#222222" font-family="Verdana" font-size="12.5" font-weight="bold" lengthAdjust="spacing" textLength="178.125" x="52.0833" y="1198.5819">Payer's Service Provider</text><ellipse cx="144.2708" cy="1221.3216" fill="url(#g23if8adstr7x1)" filter="url(#f23if8adstr7x)" rx="8.3333" ry="8.3333" style="stroke:#2196F3;stroke-width:1.0416666666666667;"/><path d="M144.2708,1229.6549 L144.2708,1257.7799 M130.7292,1237.9883 L157.8125,1237.9883 M144.2708,1257.7799 L130.7292,1273.4049 M144.2708,1257.7799 L157.8125,1273.4049 " fill="none" filter="url(#f23if8adstr7x)" style="stroke:#2196F3;stroke-width:1.0416666666666667;"/><rect fill="url(#g23if8adstr7x1)" filter="url(#f23if8adstr7x)" height="49.9674" rx="4.1667" ry="4.1667" style="stroke:#2196F3;stroke-width:1.0416666666666667;" width="165.625" x="410.9375" y="137.793"/><text fill="#FFFFFF" font-family="Verdana" font-size="12.5" font-weight="bold" lengthAdjust="spacing" textLength="130.2083" x="428.6458" y="167.1041">Activation Service</text><rect fill="url(#g23if8adstr7x1)" filter="url(#f23if8adstr7x)" height="49.9674" rx="4.1667" ry="4.1667" style="stroke:#2196F3;stroke-width:1.0416666666666667;" width="165.625" x="410.9375" y="1176.5625"/><text fill="#FFFFFF" font-family="Verdana" font-size="12.5" font-weight="bold" lengthAdjust="spacing" textLength="130.2083" x="428.6458" y="1205.8736">Activation Service</text><text fill="#222222" font-family="Verdana" font-size="12.5" font-weight="bold" lengthAdjust="spacing" textLength="71.875" x="811.4583" y="178.5624">Database</text><path d="M831.7708,119.043 C831.7708,108.6263 850.5208,108.6263 850.5208,108.6263 C850.5208,108.6263 869.2708,108.6263 869.2708,119.043 L869.2708,146.1263 C869.2708,156.543 850.5208,156.543 850.5208,156.543 C850.5208,156.543 831.7708,156.543 831.7708,146.1263 L831.7708,119.043 " fill="url(#g23if8adstr7x1)" filter="url(#f23if8adstr7x)" style="stroke:#2196F3;stroke-width:1.5625;"/><path d="M831.7708,119.043 C831.7708,129.4596 850.5208,129.4596 850.5208,129.4596 C850.5208,129.4596 869.2708,129.4596 869.2708,119.043 " fill="none" style="stroke:#2196F3;stroke-width:1.5625;"/><text fill="#222222" font-family="Verdana" font-size="12.5" font-weight="bold" lengthAdjust="spacing" textLength="71.875" x="811.4583" y="1198.5819">Database</text><path d="M831.7708,1222.3633 C831.7708,1211.9466 850.5208,1211.9466 850.5208,1211.9466 C850.5208,1211.9466 869.2708,1211.9466 869.2708,1222.3633 L869.2708,1249.4466 C869.2708,1259.8633 850.5208,1259.8633 850.5208,1259.8633 C850.5208,1259.8633 831.7708,1259.8633 831.7708,1249.4466 L831.7708,1222.3633 " fill="url(#g23if8adstr7x1)" filter="url(#f23if8adstr7x)" style="stroke:#2196F3;stroke-width:1.5625;"/><path d="M831.7708,1222.3633 C831.7708,1232.7799 850.5208,1232.7799 850.5208,1232.7799 C850.5208,1232.7799 869.2708,1232.7799 869.2708,1222.3633 " fill="none" style="stroke:#2196F3;stroke-width:1.5625;"/><rect fill="#FFFFFF" filter="url(#f23if8adstr7x)" height="908.6589" style="stroke:#CCCCCC;stroke-width:1.0416666666666667;" width="10.4167" x="490.1042" y="258.5286"/><rect fill="#FFFFFF" filter="url(#f23if8adstr7x)" height="49.9674" style="stroke:#CCCCCC;stroke-width:1.0416666666666667;" width="10.4167" x="845.3125" y="308.4961"/><polygon fill="#2196F3" points="477.6042,254.362,488.0208,258.5286,477.6042,262.6953,481.7708,258.5286" style="stroke:#2196F3;stroke-width:1.0416666666666667;"/><line style="stroke:#2196F3;stroke-width:3.125;" x1="144.2708" x2="483.8542" y1="258.5286" y2="258.5286"/><text fill="#222222" font-family="Verdana" font-size="12.5" font-weight="bold" lengthAdjust="spacing" textLength="18.75" x="161.9792" y="235.8053">[1]</text><text fill="#222222" font-family="Verdana" font-size="12.5" font-weight="bold" lengthAdjust="spacing" textLength="27.0833" x="205.7292" y="228.5299">GET</text><text fill="#222222" font-family="Verdana" font-size="12.5" lengthAdjust="spacing" textLength="230.2083" x="236.9792" y="228.5299">/activations/payer/{payerId}/status</text><text fill="#808080" font-family="Verdana" font-size="12.5" lengthAdjust="spacing" textLength="186.4583" x="205.7292" y="243.0806">Headers: Version, RequestId</text><polygon fill="#2196F3" points="832.8125,304.3294,843.2292,308.4961,832.8125,312.6628,836.9792,308.4961" style="stroke:#2196F3;stroke-width:1.0416666666666667;"/><line style="stroke:#2196F3;stroke-width:3.125;" x1="500.5208" x2="839.0625" y1="308.4961" y2="308.4961"/><text fill="#222222" font-family="Verdana" font-size="12.5" font-weight="bold" lengthAdjust="spacing" textLength="18.75" x="518.2292" y="293.0481">[2]</text><text fill="#222222" font-family="Verdana" font-size="12.5" lengthAdjust="spacing" textLength="179.1667" x="561.9792" y="293.0481">`findByFiscalCode(payerId)`</text><polygon fill="#2196F3" points="511.9792,354.2969,501.5625,358.4635,511.9792,362.6302,507.8125,358.4635" style="stroke:#2196F3;stroke-width:1.0416666666666667;"/><line style="stroke:#2196F3;stroke-width:3.125;stroke-dasharray:2.0,2.0;" x1="505.7292" x2="849.4792" y1="358.4635" y2="358.4635"/><text fill="#222222" font-family="Verdana" font-size="12.5" font-weight="bold" lengthAdjust="spacing" textLength="18.75" x="528.6458" y="343.0155">[3]</text><text fill="#222222" font-family="Verdana" font-size="12.5" lengthAdjust="spacing" textLength="188.5417" x="572.3958" y="343.0155">Returns Activation document</text><path d="M363.0208,374.0885 L446.3542,374.0885 L446.3542,401.1393 L435.9375,411.556 L358.8542,411.556 L358.8542,378.2552 A4.1667,4.1667 0 0 1 363.0208,374.0885 " fill="#FFFFFF" style="stroke:#666666;stroke-width:1.0416666666666667;"/><rect fill="none" height="217.5456" rx="4.1667" ry="4.1667" style="stroke:#2196F3;stroke-width:1.0416666666666667;" width="593.2292" x="358.8542" y="374.0885"/><text fill="#9C27B0" font-family="Verdana" font-size="12.5" font-weight="bold" lengthAdjust="spacing" textLength="19.7917" x="384.8958" y="397.1497">alt</text><text fill="#222222" font-family="Verdana" font-size="12.5" font-weight="bold" lengthAdjust="spacing" textLength="5.2083" x="472.3958" y="398.1913">[</text><text fill="#222222" font-family="Verdana" font-size="12.5" font-weight="bold" lengthAdjust="spacing" textLength="188.5417" x="477.6042" y="398.1913">role: read_rtp_activations</text><text fill="#222222" font-family="Verdana" font-size="12.5" font-weight="bold" lengthAdjust="spacing" textLength="5.2083" x="666.1458" y="398.1913">]</text><line style="stroke:#2196F3;stroke-width:3.125;" x1="500.5208" x2="544.2708" y1="472.9492" y2="472.9492"/><line style="stroke:#2196F3;stroke-width:3.125;" x1="544.2708" x2="544.2708" y1="472.9492" y2="486.4909"/><line style="stroke:#2196F3;stroke-width:3.125;" x1="501.5625" x2="544.2708" y1="486.4909" y2="486.4909"/><polygon fill="#2196F3" points="511.9792,482.3242,501.5625,486.4909,511.9792,490.6576,507.8125,486.4909" style="stroke:#2196F3;stroke-width:1.0416666666666667;"/><text fill="#222222" font-family="Verdana" font-size="12.5" font-weight="bold" lengthAdjust="spacing" textLength="18.75" x="518.2292" y="457.5012">[4]</text><text fill="#222222" font-family="Verdana" font-size="12.5" lengthAdjust="spacing" textLength="265.625" x="561.9792" y="457.5012">Check `sub` == `serviceProviderDebtor`</text><path d="M505.2083,504.1992 L505.2083,540.6576 A4.1667,4.1667 0 0 0 509.375,544.8242 L934.375,544.8242 A4.1667,4.1667 0 0 0 938.5417,540.6576 L938.5417,510.4492 L928.125,500.0326 L509.375,500.0326 A4.1667,4.1667 0 0 0 505.2083,504.1992 " fill="url(#g23if8adstr7x2)" filter="url(#f23if8adstr7x)" style="stroke:#9C27B0;stroke-width:1.0416666666666667;"/><path d="M928.125,500.0326 L928.125,508.3659 A2.0833,2.0833 0 0 0 930.2083,510.4492 L938.5417,510.4492 L928.125,500.0326 " fill="url(#g23if8adstr7x2)" style="stroke:#9C27B0;stroke-width:1.0416666666666667;"/><text fill="#FFFFFF" font-family="Verdana" font-size="12.5" lengthAdjust="spacing" textLength="390.625" x="521.875" y="527.2603">If the document belongs to a different DSP, it is filtered out.</text><line style="stroke:#2196F3;stroke-width:1.0416666666666667;stroke-dasharray:2.0,2.0;" x1="358.8542" x2="952.0833" y1="555.2083" y2="555.2083"/><text fill="#222222" font-family="Verdana" font-size="12.5" font-weight="bold" lengthAdjust="spacing" textLength="5.2083" x="374.4792" y="577.2278">[</text><text fill="#222222" font-family="Verdana" font-size="12.5" font-weight="bold" lengthAdjust="spacing" textLength="125" x="379.6875" y="577.2278">role: read_rtp_all</text><text fill="#222222" font-family="Verdana" font-size="12.5" font-weight="bold" lengthAdjust="spacing" textLength="5.2083" x="504.6875" y="577.2278">]</text><path d="M25,606.2174 L108.3333,606.2174 L108.3333,633.2682 L97.9167,643.6849 L20.8333,643.6849 L20.8333,610.3841 A4.1667,4.1667 0 0 1 25,606.2174 " fill="#FFFFFF" style="stroke:#666666;stroke-width:1.0416666666666667;"/><rect fill="none" height="553.6784" rx="4.1667" ry="4.1667" style="stroke:#2196F3;stroke-width:1.0416666666666667;" width="795.8333" x="20.8333" y="606.2174"/><text fill="#9C27B0" font-family="Verdana" font-size="12.5" font-weight="bold" lengthAdjust="spacing" textLength="19.7917" x="46.875" y="629.2786">alt</text><text fill="#222222" font-family="Verdana" font-size="12.5" font-weight="bold" lengthAdjust="spacing" textLength="5.2083" x="134.375" y="630.3202">[</text><text fill="#222222" font-family="Verdana" font-size="12.5" font-weight="bold" lengthAdjust="spacing" textLength="101.0417" x="139.5833" y="630.3202">Record Found</text><text fill="#222222" font-family="Verdana" font-size="12.5" font-weight="bold" lengthAdjust="spacing" textLength="5.2083" x="240.625" y="630.3202">]</text><polygon fill="#2196F3" points="155.7292,715.4622,145.3125,719.6289,155.7292,723.7956,151.5625,719.6289" style="stroke:#2196F3;stroke-width:1.0416666666666667;"/><line style="stroke:#2196F3;stroke-width:3.125;stroke-dasharray:2.0,2.0;" x1="149.4792" x2="489.0625" y1="719.6289" y2="719.6289"/><text fill="#222222" font-family="Verdana" font-size="12.5" font-weight="bold" lengthAdjust="spacing" textLength="18.75" x="172.3958" y="696.9055">[5]</text><text fill="#222222" font-family="Verdana" font-size="12.5" font-weight="bold" lengthAdjust="spacing" textLength="50" x="216.1458" y="689.6301">200 OK</text><text fill="#222222" font-family="Verdana" font-size="12.5" lengthAdjust="spacing" textLength="132.2917" x="216.1458" y="704.1809">`{ "isActive": true }`</text><line style="stroke:#2196F3;stroke-width:1.0416666666666667;stroke-dasharray:2.0,2.0;" x1="20.8333" x2="816.6667" y1="729.0039" y2="729.0039"/><text fill="#222222" font-family="Verdana" font-size="12.5" font-weight="bold" lengthAdjust="spacing" textLength="5.2083" x="36.4583" y="751.0234">[</text><text fill="#222222" font-family="Verdana" font-size="12.5" font-weight="bold" lengthAdjust="spacing" textLength="131.25" x="41.6667" y="751.0234">Record Not Found</text><text fill="#222222" font-family="Verdana" font-size="12.5" font-weight="bold" lengthAdjust="spacing" textLength="5.2083" x="172.9167" y="751.0234">]</text><polygon fill="#2196F3" points="155.7292,817.4479,145.3125,821.6146,155.7292,825.7813,151.5625,821.6146" style="stroke:#2196F3;stroke-width:1.0416666666666667;"/><line style="stroke:#2196F3;stroke-width:3.125;stroke-dasharray:2.0,2.0;" x1="149.4792" x2="489.0625" y1="821.6146" y2="821.6146"/><text fill="#222222" font-family="Verdana" font-size="12.5" font-weight="bold" lengthAdjust="spacing" textLength="18.75" x="172.3958" y="798.8912">[6]</text><text fill="#222222" font-family="Verdana" font-size="12.5" font-weight="bold" lengthAdjust="spacing" textLength="50" x="216.1458" y="791.6158">200 OK</text><text fill="#222222" font-family="Verdana" font-size="12.5" lengthAdjust="spacing" textLength="136.4583" x="216.1458" y="806.1666">`{ "isActive": false }`</text><path d="M505.2083,839.3229 L505.2083,904.9479 A4.1667,4.1667 0 0 0 509.375,909.1146 L798.9583,909.1146 A4.1667,4.1667 0 0 0 803.125,904.9479 L803.125,845.5729 L792.7083,835.1563 L509.375,835.1563 A4.1667,4.1667 0 0 0 505.2083,839.3229 " fill="url(#g23if8adstr7x2)" filter="url(#f23if8adstr7x)" style="stroke:#9C27B0;stroke-width:1.0416666666666667;"/><path d="M792.7083,835.1563 L792.7083,843.4896 A2.0833,2.0833 0 0 0 794.7917,845.5729 L803.125,845.5729 L792.7083,835.1563 " fill="url(#g23if8adstr7x2)" style="stroke:#9C27B0;stroke-width:1.0416666666666667;"/><text fill="#FFFFFF" font-family="Verdana" font-size="12.5" lengthAdjust="spacing" textLength="133.3333" x="521.875" y="862.384">No document found.</text><text fill="#FFFFFF" font-family="Verdana" font-size="12.5" lengthAdjust="spacing" textLength="247.9167" x="521.875" y="876.9348">Treated identically to an unauthorized</text><text fill="#FFFFFF" font-family="Verdana" font-size="12.5" lengthAdjust="spacing" textLength="255.2083" x="521.875" y="891.4856">read to prevent information disclosure.</text><line style="stroke:#2196F3;stroke-width:1.0416666666666667;stroke-dasharray:2.0,2.0;" x1="20.8333" x2="816.6667" y1="919.4336" y2="919.4336"/><text fill="#222222" font-family="Verdana" font-size="12.5" font-weight="bold" lengthAdjust="spacing" textLength="5.2083" x="36.4583" y="941.453">[</text><text fill="#222222" font-family="Verdana" font-size="12.5" font-weight="bold" lengthAdjust="spacing" textLength="85.4167" x="41.6667" y="941.453">Error Cases</text><text fill="#222222" font-family="Verdana" font-size="12.5" font-weight="bold" lengthAdjust="spacing" textLength="5.2083" x="127.0833" y="941.453">]</text><path d="M35.4167,963.151 L270.8333,963.151 L270.8333,990.2018 L260.4167,1000.6185 L31.25,1000.6185 L31.25,967.3177 A4.1667,4.1667 0 0 1 35.4167,963.151 " fill="#FFFFFF" style="stroke:#666666;stroke-width:1.0416666666666667;"/><rect fill="none" height="87.4349" rx="4.1667" ry="4.1667" style="stroke:#2196F3;stroke-width:1.0416666666666667;" width="600.5208" x="31.25" y="963.151"/><text fill="#9C27B0" font-family="Verdana" font-size="12.5" font-weight="bold" lengthAdjust="spacing" textLength="171.875" x="57.2917" y="986.2122">Format Validation Error</text><polygon fill="#2196F3" points="155.7292,1038.0859,145.3125,1042.2526,155.7292,1046.4193,151.5625,1042.2526" style="stroke:#2196F3;stroke-width:1.0416666666666667;"/><line style="stroke:#2196F3;stroke-width:3.125;stroke-dasharray:2.0,2.0;" x1="149.4792" x2="489.0625" y1="1042.2526" y2="1042.2526"/><text fill="#222222" font-family="Verdana" font-size="12.5" font-weight="bold" lengthAdjust="spacing" textLength="18.75" x="172.3958" y="1026.8046">[7]</text><text fill="#222222" font-family="Verdana" font-size="12.5" font-weight="bold" lengthAdjust="spacing" textLength="122.9167" x="216.1458" y="1026.8046">400 Bad Request</text><path d="M35.4167,1065.1693 L362.5,1065.1693 L362.5,1092.2201 L352.0833,1102.6367 L31.25,1102.6367 L31.25,1069.3359 A4.1667,4.1667 0 0 1 35.4167,1065.1693 " fill="#FFFFFF" style="stroke:#666666;stroke-width:1.0416666666666667;"/><rect fill="none" height="87.4349" rx="4.1667" ry="4.1667" style="stroke:#2196F3;stroke-width:1.0416666666666667;" width="600.5208" x="31.25" y="1065.1693"/><text fill="#9C27B0" font-family="Verdana" font-size="12.5" font-weight="bold" lengthAdjust="spacing" textLength="263.5417" x="57.2917" y="1088.2304">Authentication / Authorization Error</text><polygon fill="#2196F3" points="155.7292,1140.1042,145.3125,1144.2708,155.7292,1148.4375,151.5625,1144.2708" style="stroke:#2196F3;stroke-width:1.0416666666666667;"/><line style="stroke:#2196F3;stroke-width:3.125;stroke-dasharray:2.0,2.0;" x1="149.4792" x2="489.0625" y1="1144.2708" y2="1144.2708"/><text fill="#222222" font-family="Verdana" font-size="12.5" font-weight="bold" lengthAdjust="spacing" textLength="18.75" x="172.3958" y="1128.8228">[8]</text><text fill="#222222" font-family="Verdana" font-size="12.5" font-weight="bold" lengthAdjust="spacing" textLength="130.2083" x="216.1458" y="1128.8228">401 Unauthorized</text><text fill="#222222" font-family="Verdana" font-size="12.5" lengthAdjust="spacing" textLength="4.1667" x="350.5208" y="1128.8228">/</text><text fill="#222222" font-family="Verdana" font-size="12.5" font-weight="bold" lengthAdjust="spacing" textLength="104.1667" x="358.8542" y="1128.8228">403 Forbidden</text><!--SRC=[dLDTRzf047o_Nx7bfQsLXFJZ2IL8698MLKfHIFDIglZiMyCfvexUdKbfbF_UtSE0fRHIL1wCTTwPdPdTUnKMk4HOoe1EIo7ylJOhwUGIflYpHbDWQd-bihYVEriRDRILTV2mq05RfVbVlukWGuKmaHjqC0qor1u6at4FFbtSG5SMGQzbqDRuxefBke_nRwoUkZuM2q4rnDP9aiZnsfCcjzO5SJgxrWfTadH0UXXD9uAK15tebJI14OCz_GxKr0wcGiaWS-cHwqRD-uuffQvriAPUvgIwSvRtlv_-w0X1BU2uJ-WU90aPI9ANM9YPizAIe89ZEPyxkUb_Had2VGzkwKdG8xZce7qOgxCk5_T5mukiLGoct7UKzY0hjL7fvbBxGbP3g_1Dq-rjTe2GWL4AnutKQmorCsJwa8QoHRr44uJ2DaZ8Af0pPoliWIEDTowixbeEaqG8eDzM3vCF5rZSG-RhF8FpSthPvhoRpGXpcbuMGSPI5wVdYm2sZE1n2RHvUpMGOsNDt4Em847fiaJ7nnJx4UW0saEfAzfHL63hS284LZJ0vuAhYeMYKJj7rrXOf-2IjxFjWKETJdYQxqzFuUkN99cPx14wsiUmiDE3u6g4fqpicpLSLpRy5ryfcURfNv5SsKCS9TEVpCmDEGlacG8rjDvaRnCZCb0RsjE5TVetgfdX0FZ3ok6QyTgKrYsRYTF2LDRN3ayELYwSewirfCtVJvPly8gCCGvkPQNL5XzBOyLphn_9QqgjcnqcAgwX-BTiRU81oTsQYApTUC3wNzBb7Nnh-UNB5uy_iDnSAqhdUUku1Aqjfzlq1m00]--></g></svg>