<?xml version="1.0" encoding="us-ascii" standalone="no"?><svg xmlns="http://www.w3.org/2000/svg" xmlns:xlink="http://www.w3.org/1999/xlink" contentStyleType="text/css" height="1003.125px" preserveAspectRatio="none" style="width:1147px;height:1003px;" version="1.1" viewBox="0 0 1147 1003" width="1147.9167px" zoomAndPan="magnify"><defs><linearGradient id="g1iw957bjh6eqo0" x1="50%" x2="50%" y1="0%" y2="100%"><stop offset="0%" stop-color="#FFFFFF"/><stop offset="100%" stop-color="#FFFFFF"/></linearGradient><filter height="300%" id="f1iw957bjh6eqo" width="300%" x="-1" y="-1"><feGaussianBlur result="blurOut" stdDeviation="2.0833333333333335"/><feColorMatrix in="blurOut" result="blurOut2" type="matrix" values="0 0 0 0 0 0 0 0 0 0 0 0 0 0 0 0 0 0 .4 0"/><feOffset dx="4.166666666666667" dy="4.166666666666667" in="blurOut2" result="blurOut3"/><feBlend in="SourceGraphic" in2="blurOut3" mode="normal"/></filter><linearGradient id="g1iw957bjh6eqo1" x1="50%" x2="50%" y1="0%" y2="100%"><stop offset="0%" stop-color="#4DABF5"/><stop offset="100%" stop-color="#2196F3"/></linearGradient><linearGradient id="g1iw957bjh6eqo2" x1="50%" x2="50%" y1="0%" y2="100%"><stop offset="0%" stop-color="#B052C0"/><stop offset="100%" stop-color="#9C27B0"/></linearGradient></defs><g><rect fill="url(#g1iw957bjh6eqo0)" height="57.5846" id="_title" rx="4.1667" ry="4.1667" style="stroke:#CCCCCC;stroke-width:1.0416666666666667;" width="334.375" x="408.0729" y="20.8333"/><text fill="#2196F3" font-family="Verdana" font-size="20.8333" font-weight="bold" lengthAdjust="spacing" textLength="301.0417" x="424.7396" y="56.838">Get Payees Consent Flow</text><rect fill="#FFFFFF" filter="url(#f1iw957bjh6eqo)" height="716.1133" style="stroke:#CCCCCC;stroke-width:1.0416666666666667;" width="10.4167" x="625.5208" y="210.612"/><rect fill="#FFFFFF" filter="url(#f1iw957bjh6eqo)" height="49.9674" style="stroke:#CCCCCC;stroke-width:1.0416666666666667;" width="10.4167" x="1016.1458" y="477.0508"/><rect fill="url(#g1iw957bjh6eqo0)" filter="url(#f1iw957bjh6eqo)" height="541.2435" rx="4.1667" ry="4.1667" style="stroke:#2196F3;stroke-width:1.0416666666666667;" width="1109.8958" x="20.8333" y="378.1901"/><rect fill="url(#g1iw957bjh6eqo0)" filter="url(#f1iw957bjh6eqo)" height="194.6289" rx="4.1667" ry="4.1667" style="stroke:#2196F3;stroke-width:1.0416666666666667;" width="709.375" x="31.25" y="542.6432"/><path d="M31.25,649.8372 L740.625,649.8372 L740.625,733.1055 A4.1667,4.1667 0 0 1 736.4583,737.2721 L35.4167,737.2721 A4.1667,4.1667 0 0 1 31.25,733.1055 L31.25,649.8372 " fill="url(#g1iw957bjh6eqo0)" style="stroke:none;stroke-width:1.0416666666666667;"/><path d="M20.8333,744.5638 L1130.7292,744.5638 L1130.7292,827.832 A4.1667,4.1667 0 0 1 1126.5625,831.9987 L25,831.9987 A4.1667,4.1667 0 0 1 20.8333,827.832 L20.8333,744.5638 " fill="url(#g1iw957bjh6eqo0)" style="stroke:none;stroke-width:1.0416666666666667;"/><path d="M20.8333,831.9987 L1130.7292,831.9987 L1130.7292,915.2669 A4.1667,4.1667 0 0 1 1126.5625,919.4336 L25,919.4336 A4.1667,4.1667 0 0 1 20.8333,915.2669 L20.8333,831.9987 " fill="url(#g1iw957bjh6eqo0)" style="stroke:none;stroke-width:1.0416666666666667;"/><line style="stroke:#CCCCCC;stroke-width:1.0416666666666667;stroke-dasharray:5.0,5.0;" x1="150" x2="150" y1="144.0104" y2="937.1419"/><line style="stroke:#CCCCCC;stroke-width:1.0416666666666667;stroke-dasharray:5.0,5.0;" x1="630.2083" x2="630.2083" y1="144.0104" y2="937.1419"/><line style="stroke:#CCCCCC;stroke-width:1.0416666666666667;stroke-dasharray:5.0,5.0;" x1="1021.3542" x2="1021.3542" y1="144.0104" y2="937.1419"/><rect fill="url(#g1iw957bjh6eqo1)" filter="url(#f1iw957bjh6eqo)" height="49.9674" rx="4.1667" ry="4.1667" style="stroke:#2196F3;stroke-width:1.0416666666666667;" width="131.25" x="83.3333" y="89.8763"/><text fill="#FFFFFF" font-family="Verdana" font-size="12.5" lengthAdjust="spacing" textLength="95.8333" x="101.0417" y="119.1874">API-CONSUMER</text><rect fill="url(#g1iw957bjh6eqo1)" filter="url(#f1iw957bjh6eqo)" height="49.9674" rx="4.1667" ry="4.1667" style="stroke:#2196F3;stroke-width:1.0416666666666667;" width="131.25" x="83.3333" y="936.1003"/><text fill="#FFFFFF" font-family="Verdana" font-size="12.5" lengthAdjust="spacing" textLength="95.8333" x="101.0417" y="965.4114">API-CONSUMER</text><rect fill="url(#g1iw957bjh6eqo1)" filter="url(#f1iw957bjh6eqo)" height="49.9674" rx="4.1667" ry="4.1667" style="stroke:#2196F3;stroke-width:1.0416666666666667;" width="112.5" x="572.9167" y="89.8763"/><text fill="#FFFFFF" font-family="Verdana" font-size="12.5" lengthAdjust="spacing" textLength="77.0833" x="590.625" y="119.1874">RTP-PAYEES</text><rect fill="url(#g1iw957bjh6eqo1)" filter="url(#f1iw957bjh6eqo)" height="49.9674" rx="4.1667" ry="4.1667" style="stroke:#2196F3;stroke-width:1.0416666666666667;" width="112.5" x="572.9167" y="936.1003"/><text fill="#FFFFFF" font-family="Verdana" font-size="12.5" lengthAdjust="spacing" textLength="77.0833" x="590.625" y="965.4114">RTP-PAYEES</text><rect fill="url(#g1iw957bjh6eqo1)" filter="url(#f1iw957bjh6eqo)" height="49.9674" rx="4.1667" ry="4.1667" style="stroke:#2196F3;stroke-width:1.0416666666666667;" width="111.4583" x="964.0625" y="89.8763"/><text fill="#FFFFFF" font-family="Verdana" font-size="12.5" lengthAdjust="spacing" textLength="76.0417" x="981.7708" y="119.1874">BACKOFFICE</text><rect fill="url(#g1iw957bjh6eqo1)" filter="url(#f1iw957bjh6eqo)" height="49.9674" rx="4.1667" ry="4.1667" style="stroke:#2196F3;stroke-width:1.0416666666666667;" width="111.4583" x="964.0625" y="936.1003"/><text fill="#FFFFFF" font-family="Verdana" font-size="12.5" lengthAdjust="spacing" textLength="76.0417" x="981.7708" y="965.4114">BACKOFFICE</text><rect fill="#FFFFFF" filter="url(#f1iw957bjh6eqo)" height="716.1133" style="stroke:#CCCCCC;stroke-width:1.0416666666666667;" width="10.4167" x="625.5208" y="210.612"/><rect fill="#FFFFFF" filter="url(#f1iw957bjh6eqo)" height="49.9674" style="stroke:#CCCCCC;stroke-width:1.0416666666666667;" width="10.4167" x="1016.1458" y="477.0508"/><polygon fill="#2196F3" points="613.0208,206.4453,623.4375,210.612,613.0208,214.7786,617.1875,210.612" style="stroke:#2196F3;stroke-width:1.0416666666666667;"/><line style="stroke:#2196F3;stroke-width:3.125;" x1="150.5208" x2="619.2708" y1="210.612" y2="210.612"/><text fill="#222222" font-family="Verdana" font-size="12.5" font-weight="bold" lengthAdjust="spacing" textLength="8.3333" x="168.2292" y="187.8886">1</text><text fill="#222222" font-family="Verdana" font-size="12.5" lengthAdjust="spacing" textLength="167.7083" x="201.5625" y="180.6132">GET /rtp/payees/consents</text><text fill="#222222" font-family="Verdana" font-size="12.5" lengthAdjust="spacing" textLength="401.0417" x="201.5625" y="195.164">?pageNumber=&amp;pageSize=&amp;consent=&amp;fromDate=&amp;toDate=</text><path d="M640.625,228.3203 L640.625,279.362 A4.1667,4.1667 0 0 0 644.7917,283.5286 L822.9167,283.5286 A4.1667,4.1667 0 0 0 827.0833,279.362 L827.0833,234.5703 L816.6667,224.1536 L644.7917,224.1536 A4.1667,4.1667 0 0 0 640.625,228.3203 " fill="url(#g1iw957bjh6eqo2)" filter="url(#f1iw957bjh6eqo)" style="stroke:#9C27B0;stroke-width:1.0416666666666667;"/><path d="M816.6667,224.1536 L816.6667,232.487 A2.0833,2.0833 0 0 0 818.75,234.5703 L827.0833,234.5703 L816.6667,224.1536 " fill="url(#g1iw957bjh6eqo2)" style="stroke:#9C27B0;stroke-width:1.0416666666666667;"/><text fill="#FFFFFF" font-family="Verdana" font-size="12.5" lengthAdjust="spacing" textLength="143.75" x="657.2917" y="251.3814">Required OAuth2 role:</text><text fill="#FFFFFF" font-family="Verdana" font-size="12.5" lengthAdjust="spacing" textLength="108.3333" x="657.2917" y="265.9322">read_rtp_payees</text><line style="stroke:#2196F3;stroke-width:3.125;" x1="635.9375" x2="679.6875" y1="349.0234" y2="349.0234"/><line style="stroke:#2196F3;stroke-width:3.125;" x1="679.6875" x2="679.6875" y1="349.0234" y2="362.5651"/><line style="stroke:#2196F3;stroke-width:3.125;" x1="636.9792" x2="679.6875" y1="362.5651" y2="362.5651"/><polygon fill="#2196F3" points="647.3958,358.3984,636.9792,362.5651,647.3958,366.7318,643.2292,362.5651" style="stroke:#2196F3;stroke-width:1.0416666666666667;"/><text fill="#222222" font-family="Verdana" font-size="12.5" font-weight="bold" lengthAdjust="spacing" textLength="8.3333" x="653.6458" y="326.3">2</text><text fill="#222222" font-family="Verdana" font-size="12.5" lengthAdjust="spacing" textLength="140.625" x="686.9792" y="319.0247">validate Bearer token</text><text fill="#222222" font-family="Verdana" font-size="12.5" lengthAdjust="spacing" textLength="58.3333" x="686.9792" y="333.5754">(OAuth2)</text><path d="M25,378.1901 L108.3333,378.1901 L108.3333,405.2409 L97.9167,415.6576 L20.8333,415.6576 L20.8333,382.3568 A4.1667,4.1667 0 0 1 25,378.1901 " fill="#FFFFFF" style="stroke:#666666;stroke-width:1.0416666666666667;"/><rect fill="none" height="541.2435" rx="4.1667" ry="4.1667" style="stroke:#2196F3;stroke-width:1.0416666666666667;" width="1109.8958" x="20.8333" y="378.1901"/><text fill="#9C27B0" font-family="Verdana" font-size="12.5" font-weight="bold" lengthAdjust="spacing" textLength="19.7917" x="46.875" y="401.2512">alt</text><text fill="#222222" font-family="Verdana" font-size="12.5" font-weight="bold" lengthAdjust="spacing" textLength="303.125" x="134.375" y="402.2929">[Token valid with role "read_rtp_payees"]</text><polygon fill="#2196F3" points="1003.6458,472.8841,1014.0625,477.0508,1003.6458,481.2174,1007.8125,477.0508" style="stroke:#2196F3;stroke-width:1.0416666666666667;"/><line style="stroke:#2196F3;stroke-width:3.125;" x1="635.9375" x2="1009.8958" y1="477.0508" y2="477.0508"/><text fill="#222222" font-family="Verdana" font-size="12.5" font-weight="bold" lengthAdjust="spacing" textLength="8.3333" x="653.6458" y="461.6028">3</text><text fill="#222222" font-family="Verdana" font-size="12.5" lengthAdjust="spacing" textLength="306.25" x="686.9792" y="461.6028">GET /institutions/services/{serviceId}/consents</text><polygon fill="#2196F3" points="647.3958,522.8516,636.9792,527.0182,647.3958,531.1849,643.2292,527.0182" style="stroke:#2196F3;stroke-width:1.0416666666666667;"/><line style="stroke:#2196F3;stroke-width:3.125;stroke-dasharray:2.0,2.0;" x1="641.1458" x2="1020.3125" y1="527.0182" y2="527.0182"/><text fill="#222222" font-family="Verdana" font-size="12.5" font-weight="bold" lengthAdjust="spacing" textLength="8.3333" x="664.0625" y="511.5702">4</text><text fill="#222222" font-family="Verdana" font-size="12.5" lengthAdjust="spacing" textLength="101.0417" x="697.3958" y="511.5702">HTTP Response</text><path d="M35.4167,542.6432 L118.75,542.6432 L118.75,569.694 L108.3333,580.1107 L31.25,580.1107 L31.25,546.8099 A4.1667,4.1667 0 0 1 35.4167,542.6432 " fill="#FFFFFF" style="stroke:#666666;stroke-width:1.0416666666666667;"/><rect fill="none" height="194.6289" rx="4.1667" ry="4.1667" style="stroke:#2196F3;stroke-width:1.0416666666666667;" width="709.375" x="31.25" y="542.6432"/><text fill="#9C27B0" font-family="Verdana" font-size="12.5" font-weight="bold" lengthAdjust="spacing" textLength="19.7917" x="57.2917" y="565.7043">alt</text><text fill="#222222" font-family="Verdana" font-size="12.5" font-weight="bold" lengthAdjust="spacing" textLength="207.2917" x="144.7917" y="566.746">[Backoffice returns success]</text><polygon fill="#2196F3" points="161.9792,637.3372,151.5625,641.5039,161.9792,645.6706,157.8125,641.5039" style="stroke:#2196F3;stroke-width:1.0416666666666667;"/><line style="stroke:#2196F3;stroke-width:3.125;stroke-dasharray:2.0,2.0;" x1="155.7292" x2="624.4792" y1="641.5039" y2="641.5039"/><text fill="#222222" font-family="Verdana" font-size="12.5" font-weight="bold" lengthAdjust="spacing" textLength="8.3333" x="178.6458" y="626.0559">5</text><text fill="#222222" font-family="Verdana" font-size="12.5" lengthAdjust="spacing" textLength="45.8333" x="211.9792" y="626.0559">200 OK</text><line style="stroke:#2196F3;stroke-width:1.0416666666666667;stroke-dasharray:2.0,2.0;" x1="31.25" x2="740.625" y1="650.8789" y2="650.8789"/><text fill="#222222" font-family="Verdana" font-size="12.5" font-weight="bold" lengthAdjust="spacing" textLength="329.1667" x="46.875" y="672.8984">[Backoffice returns error (400, 404, 429, 500)]</text><polygon fill="#2196F3" points="161.9792,724.7721,151.5625,728.9388,161.9792,733.1055,157.8125,728.9388" style="stroke:#2196F3;stroke-width:1.0416666666666667;"/><line style="stroke:#2196F3;stroke-width:3.125;stroke-dasharray:2.0,2.0;" x1="155.7292" x2="624.4792" y1="728.9388" y2="728.9388"/><text fill="#222222" font-family="Verdana" font-size="12.5" font-weight="bold" lengthAdjust="spacing" textLength="8.3333" x="178.6458" y="713.4908">6</text><text fill="#222222" font-family="Verdana" font-size="12.5" lengthAdjust="spacing" textLength="151.0417" x="211.9792" y="713.4908">forward error response</text><line style="stroke:#2196F3;stroke-width:1.0416666666666667;stroke-dasharray:2.0,2.0;" x1="20.8333" x2="1130.7292" y1="745.6055" y2="745.6055"/><text fill="#222222" font-family="Verdana" font-size="12.5" font-weight="bold" lengthAdjust="spacing" textLength="269.7917" x="36.4583" y="767.6249">[Token lacks role "read_rtp_payees"]</text><polygon fill="#2196F3" points="161.9792,819.4987,151.5625,823.6654,161.9792,827.832,157.8125,823.6654" style="stroke:#2196F3;stroke-width:1.0416666666666667;"/><line style="stroke:#2196F3;stroke-width:3.125;stroke-dasharray:2.0,2.0;" x1="155.7292" x2="624.4792" y1="823.6654" y2="823.6654"/><text fill="#222222" font-family="Verdana" font-size="12.5" font-weight="bold" lengthAdjust="spacing" textLength="8.3333" x="178.6458" y="808.2174">7</text><text fill="#222222" font-family="Verdana" font-size="12.5" lengthAdjust="spacing" textLength="94.7917" x="211.9792" y="808.2174">403 Forbidden</text><line style="stroke:#2196F3;stroke-width:1.0416666666666667;stroke-dasharray:2.0,2.0;" x1="20.8333" x2="1130.7292" y1="833.0404" y2="833.0404"/><text fill="#222222" font-family="Verdana" font-size="12.5" font-weight="bold" lengthAdjust="spacing" textLength="185.4167" x="36.4583" y="855.0598">[Missing or invalid token]</text><polygon fill="#2196F3" points="161.9792,906.9336,151.5625,911.1003,161.9792,915.2669,157.8125,911.1003" style="stroke:#2196F3;stroke-width:1.0416666666666667;"/><line style="stroke:#2196F3;stroke-width:3.125;stroke-dasharray:2.0,2.0;" x1="155.7292" x2="624.4792" y1="911.1003" y2="911.1003"/><text fill="#222222" font-family="Verdana" font-size="12.5" font-weight="bold" lengthAdjust="spacing" textLength="8.3333" x="178.6458" y="895.6523">8</text><text fill="#222222" font-family="Verdana" font-size="12.5" lengthAdjust="spacing" textLength="115.625" x="211.9792" y="895.6523">401 Unauthorized</text><!--SRC=[XLBTRzem47_tNt7Z0RLI4HbZ3qDY4s6XGrKR1FHXKgNAJGvYDTZPsG5jq_xtdPs0oZvV7EVkVXztvrUkm1t2JZea9OLmofK8r-XW8RyYMfWQRL4xc9Nc84GboQbCLP8ZdSbYtfkcTwlxssJP0ScrxSzvsNAzw2qcdvDa5OhuUfwF9zERT3QRJvEGZrCXPEsChdTFI48SIQ7ttcD7S9sieK-kwbV1OJzh7De7_Q6IMxmBk77NtrVg6uwxRS6uko6p-yYTZhlEXA_GnY6GsXOEp2PO0rZYbreHvf1EQbSCW4o98uuJoloHTHyRNO4w1uyNCdDgptG1B_WuMTtBKkK-4wCa973c6VM3lcYOBxdHqi7Q1vjIE2XN147e_2BNOGS0BNcSjcDGslB6QgUunRv5sgkC9_AzlStp7wVf1FZ9gH-o3yGfz8vcFwtN2sxULXuHiZd-1l26Ovazcys61NWchYPjmTOP2pSY9vzCV5pU20PH1EbDGuAbnJ-n894Xk1X6qHKCeo4VWtTNy3QABlz1l35qa9ItO7hfdpSaH11hPboofFtlUC_OXz4Rc1bwKdcEkYMxLTOglGMMKxhPMrZiNobUmxtc9rqOulVeBNbVBuRhtyrF]--></g></svg>