<svg xmlns="http://www.w3.org/2000/svg" xmlns:xlink="http://www.w3.org/1999/xlink" contentStyleType="text/css" data-diagram-type="SEQUENCE" height="1492.7083px" preserveAspectRatio="none" style="width:1182px;height:1492px;" version="1.1" viewBox="0 0 1182 1492" width="1182.2917px" zoomAndPan="magnify"><title>RTP Notice Status API: GET /rtps/delivery-status?noticeNumber={nav}&amp;payeeId={payeeId}</title><defs><linearGradient id="g1ic3y9dnau5590" x1="50%" x2="50%" y1="0%" y2="100%"><stop offset="0%" stop-color="#FFFFFF"/><stop offset="100%" stop-color="#FFFFFF"/></linearGradient><filter height="300%" id="f1ic3y9dnau559" width="300%" x="-1" y="-1"><feGaussianBlur result="blurOut" stdDeviation="2.0833"/><feColorMatrix in="blurOut" result="blurOut2" type="matrix" values="0 0 0 0 0 0 0 0 0 0 0 0 0 0 0 0 0 0 .4 0"/><feOffset dx="4.1667" dy="4.1667" in="blurOut2" result="blurOut3"/><feBlend in="SourceGraphic" in2="blurOut3" mode="normal"/></filter><linearGradient id="g1ic3y9dnau5591" x1="50%" x2="50%" y1="0%" y2="100%"><stop offset="0%" stop-color="#4DABF5"/><stop offset="100%" stop-color="#2196F3"/></linearGradient><linearGradient id="g1ic3y9dnau5592" x1="50%" x2="50%" y1="0%" y2="100%"><stop offset="0%" stop-color="#B052C0"/><stop offset="100%" stop-color="#9C27B0"/></linearGradient></defs><g><rect fill="url(#g1ic3y9dnau5590)" height="58.6528" rx="4.1667" ry="4.1667" style="stroke:#CCCCCC;stroke-width:1.0417;" width="1137.5916" x="20.8333" y="20.8333"/><text fill="#2196F3" font-family="Verdana" font-size="20.8333" font-weight="bold" lengthAdjust="spacing" textLength="1104.2582" x="37.5" y="58.4452">RTP Notice Status API: GET /rtps/delivery-status?noticeNumber={nav}&amp;payeeId={payeeId}</text><g><title>..rtp-sender..</title><rect fill="#FFFFFF" filter="url(#f1ic3y9dnau559)" height="1127.8829" style="stroke:#CCCCCC;stroke-width:1.0417;" width="10.4167" x="695.903" y="246.3277"/></g><g><title>..Database..</title><rect fill="#FFFFFF" filter="url(#f1ic3y9dnau559)" height="50.6083" style="stroke:#CCCCCC;stroke-width:1.0417;" width="10.4167" x="1043.7037" y="517.2526"/></g><rect fill="#98FB98" filter="url(#f1ic3y9dnau559)" height="950.4496" rx="4.1667" ry="4.1667" style="stroke:#2196F3;stroke-width:1.0417;" width="1031.017" x="74.6414" y="416.4693"/><path d="M74.6414,785.4858 L1105.6585,785.4858 L1105.6585,1362.7523 A4.1667,4.1667 0 0 1 1101.4918,1366.9189 L78.8081,1366.9189 A4.1667,4.1667 0 0 1 74.6414,1362.7523 L74.6414,785.4858" fill="#8B0000" style="stroke:none;stroke-width:1.0417;"/><rect fill="url(#g1ic3y9dnau5590)" filter="url(#f1ic3y9dnau559)" height="301.3082" rx="4.1667" ry="4.1667" style="stroke:#2196F3;stroke-width:1.0417;" width="724.6694" x="85.0581" y="830.8858"/><rect fill="url(#g1ic3y9dnau5590)" filter="url(#f1ic3y9dnau559)" height="212.8499" rx="4.1667" ry="4.1667" style="stroke:#2196F3;stroke-width:1.0417;" width="954.5664" x="85.0581" y="1146.7773"/><g><title>..Service Provider..</title><rect fill="#000000" fill-opacity="0.00000" height="1190.9912" width="8.3333" x="162.5127" y="193.6361"/><line style="stroke:#CCCCCC;stroke-width:1.0417;stroke-dasharray:5.2083,5.2083;" x1="166.3081" x2="166.3081" y1="193.6361" y2="1384.6273"/></g><g><title>..rtp-sender..</title><rect fill="#000000" fill-opacity="0.00000" height="1190.9912" width="8.3333" x="696.9447" y="193.6361"/><line style="stroke:#CCCCCC;stroke-width:1.0417;stroke-dasharray:5.2083,5.2083;" x1="700.8286" x2="700.8286" y1="193.6361" y2="1384.6273"/></g><g><title>..Database..</title><rect fill="#000000" fill-opacity="0.00000" height="1190.9912" width="8.3333" x="1044.7454" y="193.6361"/><line style="stroke:#CCCCCC;stroke-width:1.0417;stroke-dasharray:5.2083,5.2083;" x1="1048.4156" x2="1048.4156" y1="193.6361" y2="1384.6273"/></g><g class="participant participant-head" data-participant="SP"><text fill="#222222" font-family="Verdana" font-size="12.5" font-weight="bold" lengthAdjust="spacing" textLength="115.3259" x="105.8914" y="180.5949">Service Provider</text><ellipse cx="166.6794" cy="100.3194" fill="url(#g1ic3y9dnau5591)" filter="url(#f1ic3y9dnau559)" rx="8.3333" ry="8.3333" style="stroke:#2196F3;stroke-width:1.0417;"/><path d="M166.6794,108.6528 L166.6794,136.7778 M153.1377,116.9861 L180.221,116.9861 M166.6794,136.7778 L153.1377,152.4028 M166.6794,136.7778 L180.221,152.4028" fill="none" filter="url(#f1ic3y9dnau559)" style="stroke:#2196F3;stroke-width:1.0417;"/></g><g class="participant participant-tail" data-participant="SP"><text fill="#222222" font-family="Verdana" font-size="12.5" font-weight="bold" lengthAdjust="spacing" textLength="115.3259" x="105.8914" y="1406.5694">Service Provider</text><ellipse cx="166.6794" cy="1428.9856" fill="url(#g1ic3y9dnau5591)" filter="url(#f1ic3y9dnau559)" rx="8.3333" ry="8.3333" style="stroke:#2196F3;stroke-width:1.0417;"/><path d="M166.6794,1437.3189 L166.6794,1465.4439 M153.1377,1445.6523 L180.221,1445.6523 M166.6794,1465.4439 L153.1377,1481.0689 M166.6794,1465.4439 L180.221,1481.0689" fill="none" filter="url(#f1ic3y9dnau559)" style="stroke:#2196F3;stroke-width:1.0417;"/></g><g class="participant participant-head" data-participant="RS"><rect fill="url(#g1ic3y9dnau5591)" filter="url(#f1ic3y9dnau559)" height="50.6083" rx="4.1667" ry="4.1667" style="stroke:#2196F3;stroke-width:1.0417;" width="109.9406" x="644.5786" y="138.8611"/><text fill="#FFFFFF" font-family="Verdana" font-size="12.5" font-weight="bold" lengthAdjust="spacing" textLength="74.5239" x="662.2869" y="169.1366">rtp-sender</text></g><g class="participant participant-tail" data-participant="RS"><rect fill="url(#g1ic3y9dnau5591)" filter="url(#f1ic3y9dnau559)" height="50.6083" rx="4.1667" ry="4.1667" style="stroke:#2196F3;stroke-width:1.0417;" width="109.9406" x="644.5786" y="1383.5856"/><text fill="#FFFFFF" font-family="Verdana" font-size="12.5" font-weight="bold" lengthAdjust="spacing" textLength="74.5239" x="662.2869" y="1413.8611">rtp-sender</text></g><g class="participant participant-head" data-participant="DB"><text fill="#222222" font-family="Verdana" font-size="12.5" font-weight="bold" lengthAdjust="spacing" textLength="65.5762" x="1012.999" y="180.5949">Database</text><path d="M1030.162,120.1111 C1030.162,109.6944 1048.912,109.6944 1048.912,109.6944 C1048.912,109.6944 1067.662,109.6944 1067.662,120.1111 L1067.662,147.1944 C1067.662,157.6111 1048.912,157.6111 1048.912,157.6111 C1048.912,157.6111 1030.162,157.6111 1030.162,147.1944 L1030.162,120.1111" fill="url(#g1ic3y9dnau5591)" filter="url(#f1ic3y9dnau559)" style="stroke:#2196F3;stroke-width:1.0417;"/><path d="M1030.162,120.1111 C1030.162,130.5278 1048.912,130.5278 1048.912,130.5278 C1048.912,130.5278 1067.662,130.5278 1067.662,120.1111" fill="none" style="stroke:#2196F3;stroke-width:1.0417;"/></g><g class="participant participant-tail" data-participant="DB"><text fill="#222222" font-family="Verdana" font-size="12.5" font-weight="bold" lengthAdjust="spacing" textLength="65.5762" x="1012.999" y="1406.5694">Database</text><path d="M1030.162,1430.0273 C1030.162,1419.6106 1048.912,1419.6106 1048.912,1419.6106 C1048.912,1419.6106 1067.662,1419.6106 1067.662,1430.0273 L1067.662,1457.1106 C1067.662,1467.5273 1048.912,1467.5273 1048.912,1467.5273 C1048.912,1467.5273 1030.162,1467.5273 1030.162,1457.1106 L1030.162,1430.0273" fill="url(#g1ic3y9dnau5591)" filter="url(#f1ic3y9dnau559)" style="stroke:#2196F3;stroke-width:1.0417;"/><path d="M1030.162,1430.0273 C1030.162,1440.4439 1048.912,1440.4439 1048.912,1440.4439 C1048.912,1440.4439 1067.662,1440.4439 1067.662,1430.0273" fill="none" style="stroke:#2196F3;stroke-width:1.0417;"/></g><g><title>..rtp-sender..</title><rect fill="#FFFFFF" filter="url(#f1ic3y9dnau559)" height="1127.8829" style="stroke:#CCCCCC;stroke-width:1.0417;" width="10.4167" x="695.903" y="246.3277"/></g><g><title>..Database..</title><rect fill="#FFFFFF" filter="url(#f1ic3y9dnau559)" height="50.6083" style="stroke:#CCCCCC;stroke-width:1.0417;" width="10.4167" x="1043.7037" y="517.2526"/></g><g class="message" data-participant-1="SP" data-participant-2="RS"><polygon fill="#2196F3" points="683.403,242.1611,693.8197,246.3277,683.403,250.4944,687.5697,246.3277" style="stroke:#2196F3;stroke-width:1.0417;"/><line style="stroke:#2196F3;stroke-width:3.125;" x1="166.6794" x2="689.653" y1="246.3277" y2="246.3277"/><text fill="#222222" font-family="Verdana" font-size="12.5" font-weight="bold" lengthAdjust="spacing" textLength="22.4731" x="184.3877" y="231.2032">[1]</text><text fill="#222222" font-family="Verdana" font-size="12.5" font-weight="bold" lengthAdjust="spacing" textLength="27.1973" x="231.8609" y="231.2032">GET</text><text fill="#222222" font-family="Verdana" font-size="12.5" lengthAdjust="spacing" textLength="409.5337" x="263.4527" y="231.2032">/rtps/delivery-status?noticeNumber={nav}&amp;payeeId={payeeId}</text></g><path d="M711.0998,264.0361 L711.0998,331.7444 A4.1667,4.1667 0 0 0 715.2664,335.9111 L1065.2664,335.9111 A4.1667,4.1667 0 0 0 1069.4331,331.7444 L1069.4331,270.2861 L1059.0164,259.8694 L715.2664,259.8694 A4.1667,4.1667 0 0 0 711.0998,264.0361" fill="url(#g1ic3y9dnau5592)" filter="url(#f1ic3y9dnau559)" style="stroke:#9C27B0;stroke-width:1.0417;"/><path d="M1059.0164,259.8694 L1059.0164,268.2027 A2.0833,2.0833 0 0 0 1061.0998,270.2861 L1069.4331,270.2861 L1059.0164,259.8694" fill="url(#g1ic3y9dnau5592)" style="stroke:#9C27B0;stroke-width:1.0417;"/><text fill="#FFFFFF" font-family="Verdana" font-size="12.5" font-weight="bold" lengthAdjust="spacing" textLength="74.7131" x="727.7664" y="288.0615">Operation:</text><text fill="#FFFFFF" font-family="Verdana" font-size="12.5" lengthAdjust="spacing" textLength="127.8931" x="806.8741" y="288.0615">`getDeliveryStatus`</text><text fill="#FFFFFF" font-family="Verdana" font-size="12.5" lengthAdjust="spacing" textLength="316.3574" x="727.7664" y="303.2532">The SP queries delivery status for a noticeNumber</text><text fill="#FFFFFF" font-family="Verdana" font-size="12.5" lengthAdjust="spacing" textLength="123.3521" x="727.7664" y="318.4448">filtered by payeeId.</text><g class="message" data-participant-1="RS" data-participant-2="RS"><line style="stroke:#2196F3;stroke-width:3.125;" x1="706.3197" x2="750.0697" y1="387.3027" y2="387.3027"/><line style="stroke:#2196F3;stroke-width:3.125;" x1="750.0697" x2="750.0697" y1="387.3027" y2="400.8443"/><line style="stroke:#2196F3;stroke-width:3.125;" x1="707.3613" x2="750.0697" y1="400.8443" y2="400.8443"/><polygon fill="#2196F3" points="717.778,396.6777,707.3613,400.8443,717.778,405.011,713.6113,400.8443" style="stroke:#2196F3;stroke-width:1.0417;"/><text fill="#222222" font-family="Verdana" font-size="12.5" font-weight="bold" lengthAdjust="spacing" textLength="22.4731" x="724.028" y="372.1781">[2]</text><text fill="#222222" font-family="Verdana" font-size="12.5" lengthAdjust="spacing" textLength="148.9136" x="771.5012" y="372.1781">Validate Security Token</text></g><path d="M78.8081,416.4693 L160.6664,416.4693 L160.6664,444.161 L150.2497,454.5776 L74.6414,454.5776 L74.6414,420.636 A4.1667,4.1667 0 0 1 78.8081,416.4693" fill="#FFFFFF" style="stroke:#666666;stroke-width:1.0417;"/><rect fill="none" height="950.4496" rx="4.1667" ry="4.1667" style="stroke:#2196F3;stroke-width:1.0417;" width="1031.017" x="74.6414" y="416.4693"/><text fill="#9C27B0" font-family="Verdana" font-size="12.5" font-weight="bold" lengthAdjust="spacing" textLength="18.3167" x="100.6831" y="440.4948">alt</text><text fill="#222222" font-family="Verdana" font-size="12.5" font-weight="bold" lengthAdjust="spacing" textLength="6.7932" x="186.7081" y="441.5365">[</text><text fill="#222222" font-family="Verdana" font-size="12.5" font-weight="bold" lengthAdjust="spacing" textLength="197.6196" x="193.5013" y="441.5365">Success case: RTP delivered</text><text fill="#222222" font-family="Verdana" font-size="12.5" font-weight="bold" lengthAdjust="spacing" textLength="6.7932" x="391.1209" y="441.5365">]</text><g class="message" data-participant-1="RS" data-participant-2="DB"><polygon fill="#2196F3" points="1031.2037,513.0859,1041.6204,517.2526,1031.2037,521.4193,1035.3704,517.2526" style="stroke:#2196F3;stroke-width:1.0417;"/><line style="stroke:#2196F3;stroke-width:3.125;" x1="706.3197" x2="1037.4537" y1="517.2526" y2="517.2526"/><text fill="#222222" font-family="Verdana" font-size="12.5" font-weight="bold" lengthAdjust="spacing" textLength="22.4731" x="724.028" y="502.1281">[3]</text><text fill="#222222" font-family="Verdana" font-size="12.5" lengthAdjust="spacing" textLength="249.2859" x="771.5012" y="502.1281">findRtpByNoticeNumber(noticeNumber)</text></g><g class="message" data-participant-1="DB" data-participant-2="RS"><polygon fill="#2196F3" points="717.778,563.6943,707.3613,567.8609,717.778,572.0276,713.6113,567.8609" style="stroke:#2196F3;stroke-width:1.0417;"/><line style="stroke:#2196F3;stroke-width:3.125;stroke-dasharray:2.0833,2.0833;" x1="711.528" x2="1047.8704" y1="567.8609" y2="567.8609"/><text fill="#222222" font-family="Verdana" font-size="12.5" font-weight="bold" lengthAdjust="spacing" textLength="22.4731" x="734.4447" y="552.7364">[4]</text><text fill="#222222" font-family="Verdana" font-size="12.5" lengthAdjust="spacing" textLength="82.7698" x="781.9178" y="552.7364">results (0..n)</text></g><g class="message" data-participant-1="RS" data-participant-2="RS"><line style="stroke:#2196F3;stroke-width:3.125;" x1="706.3197" x2="750.0697" y1="618.4692" y2="618.4692"/><line style="stroke:#2196F3;stroke-width:3.125;" x1="750.0697" x2="750.0697" y1="618.4692" y2="632.0109"/><line style="stroke:#2196F3;stroke-width:3.125;" x1="707.3613" x2="750.0697" y1="632.0109" y2="632.0109"/><polygon fill="#2196F3" points="717.778,627.8442,707.3613,632.0109,717.778,636.1776,713.6113,632.0109" style="stroke:#2196F3;stroke-width:1.0417;"/><text fill="#222222" font-family="Verdana" font-size="12.5" font-weight="bold" lengthAdjust="spacing" textLength="22.4731" x="724.028" y="603.3447">[5]</text><text fill="#222222" font-family="Verdana" font-size="12.5" lengthAdjust="spacing" textLength="152.8259" x="771.5012" y="603.3447">Filter results by payeeId</text></g><g class="message" data-participant-1="RS" data-participant-2="RS"><line style="stroke:#2196F3;stroke-width:3.125;" x1="706.3197" x2="750.0697" y1="682.6192" y2="682.6192"/><line style="stroke:#2196F3;stroke-width:3.125;" x1="750.0697" x2="750.0697" y1="682.6192" y2="696.1609"/><line style="stroke:#2196F3;stroke-width:3.125;" x1="707.3613" x2="750.0697" y1="696.1609" y2="696.1609"/><polygon fill="#2196F3" points="717.778,691.9942,707.3613,696.1609,717.778,700.3276,713.6113,696.1609" style="stroke:#2196F3;stroke-width:1.0417;"/><text fill="#222222" font-family="Verdana" font-size="12.5" font-weight="bold" lengthAdjust="spacing" textLength="22.4731" x="724.028" y="667.4947">[6]</text><text fill="#222222" font-family="Verdana" font-size="12.5" lengthAdjust="spacing" textLength="238.8367" x="771.5012" y="667.4947">Evaluate status (SENT/ERROR_SEND)</text></g><g class="message" data-participant-1="RS" data-participant-2="SP"><polygon fill="#2196F3" points="178.1377,772.9858,167.721,777.1525,178.1377,781.3192,173.971,777.1525" style="stroke:#2196F3;stroke-width:1.0417;"/><line style="stroke:#2196F3;stroke-width:3.125;stroke-dasharray:2.0833,2.0833;" x1="171.8877" x2="694.8613" y1="777.1525" y2="777.1525"/><text fill="#222222" font-family="Verdana" font-size="12.5" font-weight="bold" lengthAdjust="spacing" textLength="22.4731" x="194.8044" y="746.8363">[7]</text><text fill="#222222" font-family="Verdana" font-size="12.5" font-weight="bold" lengthAdjust="spacing" textLength="51.1963" x="242.2775" y="731.6447">200 OK</text><text fill="#222222" font-family="Verdana" font-size="12.5" lengthAdjust="spacing" textLength="298.4009" x="242.2775" y="746.8363">Response: "PD RTP delivered/PD not delivered"</text><text fill="#222222" font-family="Verdana" font-size="12.5" lengthAdjust="spacing" textLength="223.0652" x="242.2775" y="762.028">processingDate: {savingDateTime}</text></g><line style="stroke:#2196F3;stroke-width:1.0417;stroke-dasharray:2.0833,2.0833;" x1="74.6414" x2="1105.6585" y1="786.5275" y2="786.5275"/><text fill="#222222" font-family="Verdana" font-size="12.5" font-weight="bold" lengthAdjust="spacing" textLength="6.7932" x="90.2664" y="809.5113">[</text><text fill="#222222" font-family="Verdana" font-size="12.5" font-weight="bold" lengthAdjust="spacing" textLength="87.1887" x="97.0596" y="809.5113">Other Errors</text><text fill="#222222" font-family="Verdana" font-size="12.5" font-weight="bold" lengthAdjust="spacing" textLength="6.7932" x="184.2484" y="809.5113">]</text><path d="M89.2248,830.8858 L276.8997,830.8858 L276.8997,858.5775 L266.4831,868.9941 L85.0581,868.9941 L85.0581,835.0525 A4.1667,4.1667 0 0 1 89.2248,830.8858" fill="#FFFFFF" style="stroke:#666666;stroke-width:1.0417;"/><rect fill="none" height="301.3082" rx="4.1667" ry="4.1667" style="stroke:#2196F3;stroke-width:1.0417;" width="724.6694" x="85.0581" y="830.8858"/><text fill="#9C27B0" font-family="Verdana" font-size="12.5" font-weight="bold" lengthAdjust="spacing" textLength="124.1333" x="111.0998" y="854.9113">Client-Side Errors</text><g class="message" data-participant-1="RS" data-participant-2="SP"><polygon fill="#2196F3" points="178.1377,922.2941,167.721,926.4608,178.1377,930.6274,173.971,926.4608" style="stroke:#2196F3;stroke-width:1.0417;"/><line style="stroke:#2196F3;stroke-width:3.125;stroke-dasharray:2.0833,2.0833;" x1="171.8877" x2="694.8613" y1="926.4608" y2="926.4608"/><text fill="#222222" font-family="Verdana" font-size="12.5" font-weight="bold" lengthAdjust="spacing" textLength="22.4731" x="194.8044" y="903.7404">[8]</text><text fill="#222222" font-family="Verdana" font-size="12.5" font-weight="bold" lengthAdjust="spacing" textLength="118.9514" x="242.2775" y="896.1446">400 Bad Request</text><text fill="#222222" font-family="Verdana" font-size="12.5" lengthAdjust="spacing" textLength="251.3367" x="242.2775" y="911.3363">(e.g., Invalid fiscal code, missing fields)</text></g><g class="message" data-participant-1="RS" data-participant-2="SP"><polygon fill="#2196F3" points="178.1377,988.0941,167.721,992.2607,178.1377,996.4274,173.971,992.2607" style="stroke:#2196F3;stroke-width:1.0417;"/><line style="stroke:#2196F3;stroke-width:3.125;stroke-dasharray:2.0833,2.0833;" x1="171.8877" x2="694.8613" y1="992.2607" y2="992.2607"/><text fill="#222222" font-family="Verdana" font-size="12.5" font-weight="bold" lengthAdjust="spacing" textLength="22.4731" x="194.8044" y="969.5404">[9]</text><text fill="#222222" font-family="Verdana" font-size="12.5" font-weight="bold" lengthAdjust="spacing" textLength="125.4089" x="242.2775" y="961.9446">401 Unauthorized</text><text fill="#222222" font-family="Verdana" font-size="12.5" lengthAdjust="spacing" textLength="249.2126" x="242.2775" y="977.1362">(e.g., Invalid or expired security token)</text></g><g class="message" data-participant-1="RS" data-participant-2="SP"><polygon fill="#2196F3" points="178.1377,1053.894,167.721,1058.0607,178.1377,1062.2274,173.971,1058.0607" style="stroke:#2196F3;stroke-width:1.0417;"/><line style="stroke:#2196F3;stroke-width:3.125;stroke-dasharray:2.0833,2.0833;" x1="171.8877" x2="694.8613" y1="1058.0607" y2="1058.0607"/><text fill="#222222" font-family="Verdana" font-size="12.5" font-weight="bold" lengthAdjust="spacing" textLength="31.3599" x="194.8044" y="1035.3404">[10]</text><text fill="#222222" font-family="Verdana" font-size="12.5" font-weight="bold" lengthAdjust="spacing" textLength="101.5564" x="251.1642" y="1027.7445">403 Forbidden</text><text fill="#222222" font-family="Verdana" font-size="12.5" lengthAdjust="spacing" textLength="193.6768" x="251.1642" y="1042.9362">(e.g., Insufficient permissions)</text></g><g class="message" data-participant-1="RS" data-participant-2="SP"><polygon fill="#2196F3" points="178.1377,1119.694,167.721,1123.8607,178.1377,1128.0273,173.971,1123.8607" style="stroke:#2196F3;stroke-width:1.0417;"/><line style="stroke:#2196F3;stroke-width:3.125;stroke-dasharray:2.0833,2.0833;" x1="171.8877" x2="694.8613" y1="1123.8607" y2="1123.8607"/><text fill="#222222" font-family="Verdana" font-size="12.5" font-weight="bold" lengthAdjust="spacing" textLength="31.3599" x="194.8044" y="1101.1403">[11]</text><text fill="#222222" font-family="Verdana" font-size="12.5" font-weight="bold" lengthAdjust="spacing" textLength="166.9495" x="251.1642" y="1093.5445">429 Too Many Requests</text><text fill="#222222" font-family="Verdana" font-size="12.5" lengthAdjust="spacing" textLength="168.6279" x="251.1642" y="1108.7362">(e.g., Rate limit exceeded)</text></g><path d="M89.2248,1146.7773 L275.0259,1146.7773 L275.0259,1174.469 L264.6093,1184.8857 L85.0581,1184.8857 L85.0581,1150.944 A4.1667,4.1667 0 0 1 89.2248,1146.7773" fill="#FFFFFF" style="stroke:#666666;stroke-width:1.0417;"/><rect fill="none" height="212.8499" rx="4.1667" ry="4.1667" style="stroke:#2196F3;stroke-width:1.0417;" width="954.5664" x="85.0581" y="1146.7773"/><text fill="#9C27B0" font-family="Verdana" font-size="12.5" font-weight="bold" lengthAdjust="spacing" textLength="122.2595" x="111.0998" y="1170.8028">Server-Side Error</text><path d="M501.7248,1194.2607 L501.7248,1231.7607 A4.1667,4.1667 0 0 0 505.8914,1235.9273 L891.3081,1235.9273 A4.1667,4.1667 0 0 0 895.4748,1231.7607 L895.4748,1200.5107 L885.0581,1190.094 L505.8914,1190.094 A4.1667,4.1667 0 0 0 501.7248,1194.2607" fill="url(#g1ic3y9dnau5592)" filter="url(#f1ic3y9dnau559)" style="stroke:#9C27B0;stroke-width:1.0417;"/><path d="M885.0581,1190.094 L885.0581,1198.4273 A2.0833,2.0833 0 0 0 887.1414,1200.5107 L895.4748,1200.5107 L885.0581,1190.094" fill="url(#g1ic3y9dnau5592)" style="stroke:#9C27B0;stroke-width:1.0417;"/><text fill="#FFFFFF" font-family="Verdana" font-size="12.5" lengthAdjust="spacing" textLength="351.9958" x="518.3914" y="1218.2861">e.g., Database connection failure, unhandled exception.</text><g class="message" data-participant-1="RS" data-participant-2="RS"><line style="stroke:#2196F3;stroke-width:3.125;" x1="706.3197" x2="750.0697" y1="1287.144" y2="1287.144"/><line style="stroke:#2196F3;stroke-width:3.125;" x1="750.0697" x2="750.0697" y1="1287.144" y2="1300.6856"/><line style="stroke:#2196F3;stroke-width:3.125;" x1="707.3613" x2="750.0697" y1="1300.6856" y2="1300.6856"/><polygon fill="#2196F3" points="717.778,1296.519,707.3613,1300.6856,717.778,1304.8523,713.6113,1300.6856" style="stroke:#2196F3;stroke-width:1.0417;"/><text fill="#222222" font-family="Verdana" font-size="12.5" font-weight="bold" lengthAdjust="spacing" textLength="31.3599" x="724.028" y="1272.0194">[12]</text><text fill="#222222" font-family="Verdana" font-size="12.5" lengthAdjust="spacing" textLength="225.9033" x="780.3879" y="1272.0194">An unexpected internal error occurs</text></g><g class="message" data-participant-1="RS" data-participant-2="SP"><polygon fill="#2196F3" points="178.1377,1347.1273,167.721,1351.2939,178.1377,1355.4606,173.971,1351.2939" style="stroke:#2196F3;stroke-width:1.0417;"/><line style="stroke:#2196F3;stroke-width:3.125;stroke-dasharray:2.0833,2.0833;" x1="171.8877" x2="694.8613" y1="1351.2939" y2="1351.2939"/><text fill="#222222" font-family="Verdana" font-size="12.5" font-weight="bold" lengthAdjust="spacing" textLength="31.3599" x="194.8044" y="1336.1694">[13]</text><text fill="#222222" font-family="Verdana" font-size="12.5" font-weight="bold" lengthAdjust="spacing" textLength="178.7354" x="251.1642" y="1336.1694">500 Internal Server Error</text></g><!--SRC=[fLHDSzCm4BthLonXXgQcILC-3dHe6O9JfWDjFNRW0WnLh4sYgICPISuGElntLhATkEtqX4-olFlsxTktteEauCfzkVWCiUGBmrSmrmO-JgOGOo7NQ3QGEUug2- -JSxO7K-aAF8PqcZm8oF1NXIh75ecYlwAnKgjZE1gEXYEwYD7cHfOkNFegXyQLzb0qK0CReDufxMIEbzLgXkRaLl7rtsSbto2UYvFRvl2NqEuyARhAA0ij5jHOy3oGBOtEqLgf5Y2uG-XRL28SznbxufQuGbZHcv6SCUUR36cNWKX7WlzcpNZkIE5U56LerXuyCNej1PeewW4d6HDMSaD8igJ9-40gDl1qjo5fneWvdt6B_dlSd9klyPYAL4whG0HwRsUdtqO_Uenb2GnEAVaOeeYwYAB_wOFQa6kl995Xb85Wv6BfGC_z3L29gn8D3vEcIjSBTArXQZMlAMYw96qJ8DyOYGz7vwt8eKk7SkQoe36XWDa66ZP3veVfIJ2MPcsJNtaXmwmpp2iZtGQc-WOLYLCuU5ho0XS6KH7JhCgzEI0d4MjlDqnGH15ZmLq1DXuVKtqbKbUEDvSTNlqkoVsGiHM8vk7Vup4C6cO6RLKu2_tHSAZgQ87T-4v97tyMMjwcxHg_5pTPywBo48r-_MnoEJsSfEbL-fEEyVuEc3Aon1lXnMW4Lv-YwBjAqPPQUGLwINnNXKEwe0vt5xtlQhTHv3zAkhLytRnCvGh9wLYGFvyARcxykCWGj6O69iPeOrjT5qPN9Nme92eto6WDckzikzPTig-8x9WBsdMoZ7MUTH-7Y-41dAkr7pTDn-QyW5mBF82Lh3T-Bh4GTlynp2FuecXXbjh8FtxY3q39XlYxbBuBsth9UIyz2laIphIPII5GtS6prNnEcqtD0cr7u4UIFmRpuWrPLiC5LvksPTk1I_se2xcIZkZbY095ZUIt8GZRrTZ_Rj1qDDuM3Pi3chu65zNWxK-5f5GASx_7CEUog0m9MwabLw8WFNpXy3iVxk1sXdolA9IaetoAbOfSh6WwwCk3pabAUpTjs_jhclHv6rzJhrcJSUwrI4V6Elj3lvz_]--></g></svg>