<?xml version="1.0" encoding="us-ascii" standalone="no"?><svg xmlns="http://www.w3.org/2000/svg" xmlns:xlink="http://www.w3.org/1999/xlink" contentStyleType="text/css" height="2430.2083px" preserveAspectRatio="none" style="width:1657px;height:2430px;" version="1.1" viewBox="0 0 1657 2430" width="1657.2917px" zoomAndPan="magnify"><defs><linearGradient id="gamkphv04idn10" x1="50%" x2="50%" y1="0%" y2="100%"><stop offset="0%" stop-color="#FFFFFF"/><stop offset="100%" stop-color="#FFFFFF"/></linearGradient><filter height="300%" id="famkphv04idn1" width="300%" x="-1" y="-1"><feGaussianBlur result="blurOut" stdDeviation="2.0833333333333335"/><feColorMatrix in="blurOut" result="blurOut2" type="matrix" values="0 0 0 0 0 0 0 0 0 0 0 0 0 0 0 0 0 0 .4 0"/><feOffset dx="4.166666666666667" dy="4.166666666666667" in="blurOut2" result="blurOut3"/><feBlend in="SourceGraphic" in2="blurOut3" mode="normal"/></filter><linearGradient id="gamkphv04idn11" x1="50%" x2="50%" y1="0%" y2="100%"><stop offset="0%" stop-color="#4DABF5"/><stop offset="100%" stop-color="#2196F3"/></linearGradient><linearGradient id="gamkphv04idn12" x1="50%" x2="50%" y1="0%" y2="100%"><stop offset="0%" stop-color="#B052C0"/><stop offset="100%" stop-color="#9C27B0"/></linearGradient></defs><g><rect fill="url(#gamkphv04idn10)" height="57.5846" id="_title" rx="4.1667" ry="4.1667" style="stroke:#CCCCCC;stroke-width:1.0416666666666667;" width="639.5833" x="509.8958" y="20.8333"/><text fill="#2196F3" font-family="Verdana" font-size="20.8333" font-weight="bold" lengthAdjust="spacing" textLength="606.25" x="526.5625" y="56.838">RTP Activation API: GET /activations/{activationId}</text><rect fill="#FFFFFF" filter="url(#famkphv04idn1)" height="2068.3919" style="stroke:#CCCCCC;stroke-width:1.0416666666666667;" width="10.4167" x="708.8542" y="243.9779"/><rect fill="#FFFFFF" filter="url(#famkphv04idn1)" height="209.2448" style="stroke:#CCCCCC;stroke-width:1.0416666666666667;" width="10.4167" x="1043.2292" y="495.8659"/><rect fill="#FFFFFF" filter="url(#famkphv04idn1)" height="332.0964" style="stroke:#CCCCCC;stroke-width:1.0416666666666667;" width="10.4167" x="1043.2292" y="1113.151"/><rect fill="#FFFFFF" filter="url(#famkphv04idn1)" height="49.9674" style="stroke:#CCCCCC;stroke-width:1.0416666666666667;" width="10.4167" x="1359.8958" y="605.1758"/><rect fill="#FFFFFF" filter="url(#famkphv04idn1)" height="49.9674" style="stroke:#CCCCCC;stroke-width:1.0416666666666667;" width="10.4167" x="1359.8958" y="1163.1185"/><rect fill="#98FB98" filter="url(#famkphv04idn1)" height="1908.0729" rx="4.1667" ry="4.1667" style="stroke:#2196F3;stroke-width:1.0416666666666667;" width="1619.7917" x="19.7917" y="397.0052"/><path d="M19.7917,1034.0495 L1639.5833,1034.0495 L1639.5833,1696.1263 A4.1667,4.1667 0 0 1 1635.4167,1700.293 L23.9583,1700.293 A4.1667,4.1667 0 0 1 19.7917,1696.1263 L19.7917,1034.0495 " fill="#FFFFE0" style="stroke:none;stroke-width:1.0416666666666667;"/><path d="M19.7917,1700.293 L1639.5833,1700.293 L1639.5833,2300.9115 A4.1667,4.1667 0 0 1 1635.4167,2305.0781 L23.9583,2305.0781 A4.1667,4.1667 0 0 1 19.7917,2300.9115 L19.7917,1700.293 " fill="#8B0000" style="stroke:none;stroke-width:1.0416666666666667;"/><rect fill="url(#gamkphv04idn10)" filter="url(#famkphv04idn1)" height="146.7773" rx="4.1667" ry="4.1667" style="stroke:#2196F3;stroke-width:1.0416666666666667;" width="839.5833" x="251.0417" y="1745.0521"/><rect fill="url(#gamkphv04idn10)" filter="url(#famkphv04idn1)" height="166.5039" rx="4.1667" ry="4.1667" style="stroke:#2196F3;stroke-width:1.0416666666666667;" width="600" x="251.0417" y="1906.4128"/><rect fill="url(#gamkphv04idn10)" filter="url(#famkphv04idn1)" height="210.2865" rx="4.1667" ry="4.1667" style="stroke:#2196F3;stroke-width:1.0416666666666667;" width="797.3958" x="251.0417" y="2087.5"/><line style="stroke:#CCCCCC;stroke-width:1.0416666666666667;stroke-dasharray:5.0,5.0;" x1="363.5417" x2="363.5417" y1="191.9271" y2="2322.7865"/><line style="stroke:#CCCCCC;stroke-width:1.0416666666666667;stroke-dasharray:5.0,5.0;" x1="713.5417" x2="713.5417" y1="191.9271" y2="2322.7865"/><line style="stroke:#CCCCCC;stroke-width:1.0416666666666667;stroke-dasharray:5.0,5.0;" x1="1047.9167" x2="1047.9167" y1="191.9271" y2="2322.7865"/><line style="stroke:#CCCCCC;stroke-width:1.0416666666666667;stroke-dasharray:5.0,5.0;" x1="1364.5833" x2="1364.5833" y1="191.9271" y2="2322.7865"/><text fill="#222222" font-family="Verdana" font-size="12.5" font-weight="bold" lengthAdjust="spacing" textLength="178.125" x="271.875" y="178.5624">Payer's Service Provider</text><ellipse cx="364.0625" cy="99.2513" fill="url(#gamkphv04idn11)" filter="url(#famkphv04idn1)" rx="8.3333" ry="8.3333" style="stroke:#2196F3;stroke-width:1.0416666666666667;"/><path d="M364.0625,107.5846 L364.0625,135.7096 M350.5208,115.918 L377.6042,115.918 M364.0625,135.7096 L350.5208,151.3346 M364.0625,135.7096 L377.6042,151.3346 " fill="none" filter="url(#famkphv04idn1)" style="stroke:#2196F3;stroke-width:1.0416666666666667;"/><text fill="#222222" font-family="Verdana" font-size="12.5" font-weight="bold" lengthAdjust="spacing" textLength="178.125" x="271.875" y="2343.7642">Payer's Service Provider</text><ellipse cx="364.0625" cy="2366.5039" fill="url(#gamkphv04idn11)" filter="url(#famkphv04idn1)" rx="8.3333" ry="8.3333" style="stroke:#2196F3;stroke-width:1.0416666666666667;"/><path d="M364.0625,2374.8372 L364.0625,2402.9622 M350.5208,2383.1706 L377.6042,2383.1706 M364.0625,2402.9622 L350.5208,2418.5872 M364.0625,2402.9622 L377.6042,2418.5872 " fill="none" filter="url(#famkphv04idn1)" style="stroke:#2196F3;stroke-width:1.0416666666666667;"/><rect fill="url(#gamkphv04idn11)" filter="url(#famkphv04idn1)" height="64.5182" rx="4.1667" ry="4.1667" style="stroke:#2196F3;stroke-width:1.0416666666666667;" width="166.6667" x="629.1667" y="123.2422"/><rect fill="#FFFFFF" height="3.6458" style="stroke:#FFFFFF;stroke-width:0.0;" width="3.6458" x="656.25" y="145.0846"/><text fill="#FFFFFF" font-family="Verdana" font-size="12.5" lengthAdjust="spacing" textLength="114.5833" x="663.5417" y="152.5533">Activation Service</text><text fill="#FFFFFF" font-family="Verdana" font-size="12.5" lengthAdjust="spacing" textLength="110.4167" x="657.2917" y="167.1041">(API/Controller)**</text><rect fill="url(#gamkphv04idn11)" filter="url(#famkphv04idn1)" height="64.5182" rx="4.1667" ry="4.1667" style="stroke:#2196F3;stroke-width:1.0416666666666667;" width="166.6667" x="629.1667" y="2321.7448"/><rect fill="#FFFFFF" height="3.6458" style="stroke:#FFFFFF;stroke-width:0.0;" width="3.6458" x="656.25" y="2343.5872"/><text fill="#FFFFFF" font-family="Verdana" font-size="12.5" lengthAdjust="spacing" textLength="114.5833" x="663.5417" y="2351.0559">Activation Service</text><text fill="#FFFFFF" font-family="Verdana" font-size="12.5" lengthAdjust="spacing" textLength="110.4167" x="657.2917" y="2365.6067">(API/Controller)**</text><rect fill="url(#gamkphv04idn11)" filter="url(#famkphv04idn1)" height="64.5182" rx="4.1667" ry="4.1667" style="stroke:#2196F3;stroke-width:1.0416666666666667;" width="154.1667" x="969.7917" y="123.2422"/><rect fill="#FFFFFF" height="3.6458" style="stroke:#FFFFFF;stroke-width:0.0;" width="3.6458" x="1004.1667" y="145.0846"/><text fill="#FFFFFF" font-family="Verdana" font-size="12.5" lengthAdjust="spacing" textLength="87.5" x="1011.4583" y="152.5533">Payer Service</text><text fill="#FFFFFF" font-family="Verdana" font-size="12.5" lengthAdjust="spacing" textLength="118.75" x="987.5" y="167.1041">(Business Logic)**</text><rect fill="url(#gamkphv04idn11)" filter="url(#famkphv04idn1)" height="64.5182" rx="4.1667" ry="4.1667" style="stroke:#2196F3;stroke-width:1.0416666666666667;" width="154.1667" x="969.7917" y="2321.7448"/><rect fill="#FFFFFF" height="3.6458" style="stroke:#FFFFFF;stroke-width:0.0;" width="3.6458" x="1004.1667" y="2343.5872"/><text fill="#FFFFFF" font-family="Verdana" font-size="12.5" lengthAdjust="spacing" textLength="87.5" x="1011.4583" y="2351.0559">Payer Service</text><text fill="#FFFFFF" font-family="Verdana" font-size="12.5" lengthAdjust="spacing" textLength="118.75" x="987.5" y="2365.6067">(Business Logic)**</text><text fill="#222222" font-family="Verdana" font-size="12.5" font-weight="bold" lengthAdjust="spacing" textLength="71.875" x="1326.0417" y="178.5624">Database</text><path d="M1346.3542,119.043 C1346.3542,108.6263 1365.1042,108.6263 1365.1042,108.6263 C1365.1042,108.6263 1383.8542,108.6263 1383.8542,119.043 L1383.8542,146.1263 C1383.8542,156.543 1365.1042,156.543 1365.1042,156.543 C1365.1042,156.543 1346.3542,156.543 1346.3542,146.1263 L1346.3542,119.043 " fill="url(#gamkphv04idn11)" filter="url(#famkphv04idn1)" style="stroke:#2196F3;stroke-width:1.5625;"/><path d="M1346.3542,119.043 C1346.3542,129.4596 1365.1042,129.4596 1365.1042,129.4596 C1365.1042,129.4596 1383.8542,129.4596 1383.8542,119.043 " fill="none" style="stroke:#2196F3;stroke-width:1.5625;"/><text fill="#222222" font-family="Verdana" font-size="12.5" font-weight="bold" lengthAdjust="spacing" textLength="71.875" x="1326.0417" y="2343.7642">Database</text><path d="M1346.3542,2367.5456 C1346.3542,2357.1289 1365.1042,2357.1289 1365.1042,2357.1289 C1365.1042,2357.1289 1383.8542,2357.1289 1383.8542,2367.5456 L1383.8542,2394.6289 C1383.8542,2405.0456 1365.1042,2405.0456 1365.1042,2405.0456 C1365.1042,2405.0456 1346.3542,2405.0456 1346.3542,2394.6289 L1346.3542,2367.5456 " fill="url(#gamkphv04idn11)" filter="url(#famkphv04idn1)" style="stroke:#2196F3;stroke-width:1.5625;"/><path d="M1346.3542,2367.5456 C1346.3542,2377.9622 1365.1042,2377.9622 1365.1042,2377.9622 C1365.1042,2377.9622 1383.8542,2377.9622 1383.8542,2367.5456 " fill="none" style="stroke:#2196F3;stroke-width:1.5625;"/><rect fill="#FFFFFF" filter="url(#famkphv04idn1)" height="2068.3919" style="stroke:#CCCCCC;stroke-width:1.0416666666666667;" width="10.4167" x="708.8542" y="243.9779"/><rect fill="#FFFFFF" filter="url(#famkphv04idn1)" height="209.2448" style="stroke:#CCCCCC;stroke-width:1.0416666666666667;" width="10.4167" x="1043.2292" y="495.8659"/><rect fill="#FFFFFF" filter="url(#famkphv04idn1)" height="332.0964" style="stroke:#CCCCCC;stroke-width:1.0416666666666667;" width="10.4167" x="1043.2292" y="1113.151"/><rect fill="#FFFFFF" filter="url(#famkphv04idn1)" height="49.9674" style="stroke:#CCCCCC;stroke-width:1.0416666666666667;" width="10.4167" x="1359.8958" y="605.1758"/><rect fill="#FFFFFF" filter="url(#famkphv04idn1)" height="49.9674" style="stroke:#CCCCCC;stroke-width:1.0416666666666667;" width="10.4167" x="1359.8958" y="1163.1185"/><polygon fill="#2196F3" points="696.3542,239.8112,706.7708,243.9779,696.3542,248.1445,700.5208,243.9779" style="stroke:#2196F3;stroke-width:1.0416666666666667;"/><line style="stroke:#2196F3;stroke-width:3.125;" x1="364.0625" x2="702.6042" y1="243.9779" y2="243.9779"/><text fill="#222222" font-family="Verdana" font-size="12.5" font-weight="bold" lengthAdjust="spacing" textLength="18.75" x="381.7708" y="228.5299">[1]</text><text fill="#222222" font-family="Verdana" font-size="12.5" font-weight="bold" lengthAdjust="spacing" textLength="27.0833" x="425.5208" y="228.5299">GET</text><text fill="#222222" font-family="Verdana" font-size="12.5" lengthAdjust="spacing" textLength="170.8333" x="456.7708" y="228.5299">/activations/{activationId}</text><line style="stroke:#2196F3;stroke-width:3.125;" x1="719.2708" x2="763.0208" y1="293.9453" y2="293.9453"/><line style="stroke:#2196F3;stroke-width:3.125;" x1="763.0208" x2="763.0208" y1="293.9453" y2="307.487"/><line style="stroke:#2196F3;stroke-width:3.125;" x1="720.3125" x2="763.0208" y1="307.487" y2="307.487"/><polygon fill="#2196F3" points="730.7292,303.3203,720.3125,307.487,730.7292,311.6536,726.5625,307.487" style="stroke:#2196F3;stroke-width:1.0416666666666667;"/><text fill="#222222" font-family="Verdana" font-size="12.5" font-weight="bold" lengthAdjust="spacing" textLength="18.75" x="736.9792" y="278.4973">[2]</text><text fill="#222222" font-family="Verdana" font-size="12.5" font-weight="bold" lengthAdjust="spacing" textLength="159.375" x="780.7292" y="278.4973">Security &amp; Role Check</text><path d="M723.9583,325.1953 L723.9583,376.237 A4.1667,4.1667 0 0 0 728.125,380.4036 L1018.75,380.4036 A4.1667,4.1667 0 0 0 1022.9167,376.237 L1022.9167,331.4453 L1012.5,321.0286 L728.125,321.0286 A4.1667,4.1667 0 0 0 723.9583,325.1953 " fill="url(#gamkphv04idn12)" filter="url(#famkphv04idn1)" style="stroke:#9C27B0;stroke-width:1.0416666666666667;"/><path d="M1012.5,321.0286 L1012.5,329.362 A2.0833,2.0833 0 0 0 1014.5833,331.4453 L1022.9167,331.4453 L1012.5,321.0286 " fill="url(#gamkphv04idn12)" style="stroke:#9C27B0;stroke-width:1.0416666666666667;"/><text fill="#FFFFFF" font-family="Verdana" font-size="12.5" lengthAdjust="spacing" textLength="256.25" x="740.625" y="348.2564">Framework validates token &amp; user role.</text><text fill="#FFFFFF" font-family="Verdana" font-size="12.5" lengthAdjust="spacing" textLength="240.625" x="740.625" y="362.8072">Corresponds to `@PreAuthorize(...)`.</text><path d="M23.9583,397.0052 L107.2917,397.0052 L107.2917,424.056 L96.875,434.4727 L19.7917,434.4727 L19.7917,401.1719 A4.1667,4.1667 0 0 1 23.9583,397.0052 " fill="#FFFFFF" style="stroke:#666666;stroke-width:1.0416666666666667;"/><rect fill="none" height="1908.0729" rx="4.1667" ry="4.1667" style="stroke:#2196F3;stroke-width:1.0416666666666667;" width="1619.7917" x="19.7917" y="397.0052"/><text fill="#9C27B0" font-family="Verdana" font-size="12.5" font-weight="bold" lengthAdjust="spacing" textLength="19.7917" x="45.8333" y="420.0663">alt</text><text fill="#222222" font-family="Verdana" font-size="12.5" font-weight="bold" lengthAdjust="spacing" textLength="5.2083" x="133.3333" y="421.108">[</text><text fill="#222222" font-family="Verdana" font-size="12.5" font-weight="bold" lengthAdjust="spacing" textLength="232.2917" x="138.5417" y="421.108">Success Case: Activation Found</text><text fill="#222222" font-family="Verdana" font-size="12.5" font-weight="bold" lengthAdjust="spacing" textLength="5.2083" x="370.8333" y="421.108">]</text><polygon fill="#2196F3" points="1030.7292,491.6992,1041.1458,495.8659,1030.7292,500.0326,1034.8958,495.8659" style="stroke:#2196F3;stroke-width:1.0416666666666667;"/><line style="stroke:#2196F3;stroke-width:3.125;" x1="719.2708" x2="1036.9792" y1="495.8659" y2="495.8659"/><text fill="#222222" font-family="Verdana" font-size="12.5" font-weight="bold" lengthAdjust="spacing" textLength="18.75" x="736.9792" y="480.4179">[3]</text><text fill="#222222" font-family="Verdana" font-size="12.5" lengthAdjust="spacing" textLength="184.375" x="780.7292" y="480.4179">`findPayerById(activationId)`</text><path d="M723.9583,513.5742 L723.9583,550.0326 A4.1667,4.1667 0 0 0 728.125,554.1992 L1056.25,554.1992 A4.1667,4.1667 0 0 0 1060.4167,550.0326 L1060.4167,519.8242 L1050,509.4076 L728.125,509.4076 A4.1667,4.1667 0 0 0 723.9583,513.5742 " fill="url(#gamkphv04idn12)" filter="url(#famkphv04idn1)" style="stroke:#9C27B0;stroke-width:1.0416666666666667;"/><path d="M1050,509.4076 L1050,517.7409 A2.0833,2.0833 0 0 0 1052.0833,519.8242 L1060.4167,519.8242 L1050,509.4076 " fill="url(#gamkphv04idn12)" style="stroke:#9C27B0;stroke-width:1.0416666666666667;"/><text fill="#FFFFFF" font-family="Verdana" font-size="12.5" lengthAdjust="spacing" textLength="293.75" x="740.625" y="536.6353">The controller delegates to the service layer.</text><polygon fill="#2196F3" points="1347.3958,601.0091,1357.8125,605.1758,1347.3958,609.3424,1351.5625,605.1758" style="stroke:#2196F3;stroke-width:1.0416666666666667;"/><line style="stroke:#2196F3;stroke-width:3.125;" x1="1053.6458" x2="1353.6458" y1="605.1758" y2="605.1758"/><text fill="#222222" font-family="Verdana" font-size="12.5" font-weight="bold" lengthAdjust="spacing" textLength="18.75" x="1071.3542" y="589.7278">[4]</text><text fill="#222222" font-family="Verdana" font-size="12.5" lengthAdjust="spacing" textLength="84.375" x="1115.1042" y="589.7278">`findById(id)`</text><polygon fill="#2196F3" points="1065.1042,650.9766,1054.6875,655.1432,1065.1042,659.3099,1060.9375,655.1432" style="stroke:#2196F3;stroke-width:1.0416666666666667;"/><line style="stroke:#2196F3;stroke-width:3.125;stroke-dasharray:2.0,2.0;" x1="1058.8542" x2="1364.0625" y1="655.1432" y2="655.1432"/><text fill="#222222" font-family="Verdana" font-size="12.5" font-weight="bold" lengthAdjust="spacing" textLength="18.75" x="1081.7708" y="639.6952">[5]</text><text fill="#222222" font-family="Verdana" font-size="12.5" lengthAdjust="spacing" textLength="138.5417" x="1125.5208" y="639.6952">Returns Payer record</text><polygon fill="#2196F3" points="730.7292,700.944,720.3125,705.1107,730.7292,709.2773,726.5625,705.1107" style="stroke:#2196F3;stroke-width:1.0416666666666667;"/><line style="stroke:#2196F3;stroke-width:3.125;stroke-dasharray:2.0,2.0;" x1="724.4792" x2="1047.3958" y1="705.1107" y2="705.1107"/><text fill="#222222" font-family="Verdana" font-size="12.5" font-weight="bold" lengthAdjust="spacing" textLength="18.75" x="747.3958" y="689.6627">[6]</text><text fill="#222222" font-family="Verdana" font-size="12.5" lengthAdjust="spacing" textLength="105.2083" x="791.1458" y="689.6627">`Mono&lt;Payer&gt;`</text><path d="M1053.125,722.819 L1053.125,759.2773 A4.1667,4.1667 0 0 0 1057.2917,763.444 L1354.1667,763.444 A4.1667,4.1667 0 0 0 1358.3333,759.2773 L1358.3333,729.069 L1347.9167,718.6523 L1057.2917,718.6523 A4.1667,4.1667 0 0 0 1053.125,722.819 " fill="url(#gamkphv04idn12)" filter="url(#famkphv04idn1)" style="stroke:#9C27B0;stroke-width:1.0416666666666667;"/><path d="M1347.9167,718.6523 L1347.9167,726.9857 A2.0833,2.0833 0 0 0 1350,729.069 L1358.3333,729.069 L1347.9167,718.6523 " fill="url(#gamkphv04idn12)" style="stroke:#9C27B0;stroke-width:1.0416666666666667;"/><text fill="#FFFFFF" font-family="Verdana" font-size="12.5" lengthAdjust="spacing" textLength="262.5" x="1069.7917" y="745.8801">The service successfully finds the Payer.</text><line style="stroke:#2196F3;stroke-width:3.125;" x1="719.2708" x2="763.0208" y1="814.4206" y2="814.4206"/><line style="stroke:#2196F3;stroke-width:3.125;" x1="763.0208" x2="763.0208" y1="814.4206" y2="827.9622"/><line style="stroke:#2196F3;stroke-width:3.125;" x1="720.3125" x2="763.0208" y1="827.9622" y2="827.9622"/><polygon fill="#2196F3" points="730.7292,823.7956,720.3125,827.9622,730.7292,832.1289,726.5625,827.9622" style="stroke:#2196F3;stroke-width:1.0416666666666667;"/><text fill="#222222" font-family="Verdana" font-size="12.5" font-weight="bold" lengthAdjust="spacing" textLength="18.75" x="736.9792" y="798.9726">[7]</text><text fill="#222222" font-family="Verdana" font-size="12.5" lengthAdjust="spacing" textLength="241.6667" x="780.7292" y="798.9726">Map `Payer` entity to `ActivationDto`</text><path d="M723.9583,845.6706 L723.9583,882.1289 A4.1667,4.1667 0 0 0 728.125,886.2956 L1142.7083,886.2956 A4.1667,4.1667 0 0 0 1146.875,882.1289 L1146.875,851.9206 L1136.4583,841.5039 L728.125,841.5039 A4.1667,4.1667 0 0 0 723.9583,845.6706 " fill="url(#gamkphv04idn12)" filter="url(#famkphv04idn1)" style="stroke:#9C27B0;stroke-width:1.0416666666666667;"/><path d="M1136.4583,841.5039 L1136.4583,849.8372 A2.0833,2.0833 0 0 0 1138.5417,851.9206 L1146.875,851.9206 L1136.4583,841.5039 " fill="url(#gamkphv04idn12)" style="stroke:#9C27B0;stroke-width:1.0416666666666667;"/><text fill="#FFFFFF" font-family="Verdana" font-size="12.5" lengthAdjust="spacing" textLength="380.2083" x="740.625" y="868.7317">Corresponds to `activationDtoMapper.toActivationDto(...)`</text><polygon fill="#2196F3" points="375.5208,947.6563,365.1042,951.8229,375.5208,955.9896,371.3542,951.8229" style="stroke:#2196F3;stroke-width:1.0416666666666667;"/><line style="stroke:#2196F3;stroke-width:3.125;stroke-dasharray:2.0,2.0;" x1="369.2708" x2="707.8125" y1="951.8229" y2="951.8229"/><text fill="#222222" font-family="Verdana" font-size="12.5" font-weight="bold" lengthAdjust="spacing" textLength="18.75" x="392.1875" y="929.0995">[8]</text><text fill="#222222" font-family="Verdana" font-size="12.5" font-weight="bold" lengthAdjust="spacing" textLength="50" x="435.9375" y="921.8241">200 OK</text><text fill="#222222" font-family="Verdana" font-size="12.5" lengthAdjust="spacing" textLength="200" x="435.9375" y="936.3749">(Returns ActivationDto details)</text><path d="M103.125,969.5313 L103.125,1020.5729 A4.1667,4.1667 0 0 0 107.2917,1024.7396 L351.0417,1024.7396 A4.1667,4.1667 0 0 0 355.2083,1020.5729 L355.2083,975.7813 L344.7917,965.3646 L107.2917,965.3646 A4.1667,4.1667 0 0 0 103.125,969.5313 " fill="url(#gamkphv04idn12)" filter="url(#famkphv04idn1)" style="stroke:#9C27B0;stroke-width:1.0416666666666667;"/><path d="M344.7917,965.3646 L344.7917,973.6979 A2.0833,2.0833 0 0 0 346.875,975.7813 L355.2083,975.7813 L344.7917,965.3646 " fill="url(#gamkphv04idn12)" style="stroke:#9C27B0;stroke-width:1.0416666666666667;"/><text fill="#FFFFFF" font-family="Verdana" font-size="12.5" lengthAdjust="spacing" textLength="209.375" x="119.7917" y="992.5924">The activation record was found</text><text fill="#FFFFFF" font-family="Verdana" font-size="12.5" lengthAdjust="spacing" textLength="172.9167" x="119.7917" y="1007.1431">and returned successfully.</text><line style="stroke:#2196F3;stroke-width:1.0416666666666667;stroke-dasharray:2.0,2.0;" x1="19.7917" x2="1639.5833" y1="1035.0911" y2="1035.0911"/><text fill="#222222" font-family="Verdana" font-size="12.5" font-weight="bold" lengthAdjust="spacing" textLength="5.2083" x="35.4167" y="1057.1106">[</text><text fill="#222222" font-family="Verdana" font-size="12.5" font-weight="bold" lengthAdjust="spacing" textLength="121.875" x="40.625" y="1057.1106">Error: Not Found</text><text fill="#222222" font-family="Verdana" font-size="12.5" font-weight="bold" lengthAdjust="spacing" textLength="5.2083" x="162.5" y="1057.1106">]</text><polygon fill="#2196F3" points="1030.7292,1108.9844,1041.1458,1113.151,1030.7292,1117.3177,1034.8958,1113.151" style="stroke:#2196F3;stroke-width:1.0416666666666667;"/><line style="stroke:#2196F3;stroke-width:3.125;" x1="719.2708" x2="1036.9792" y1="1113.151" y2="1113.151"/><text fill="#222222" font-family="Verdana" font-size="12.5" font-weight="bold" lengthAdjust="spacing" textLength="18.75" x="736.9792" y="1097.703">[9]</text><text fill="#222222" font-family="Verdana" font-size="12.5" lengthAdjust="spacing" textLength="184.375" x="780.7292" y="1097.703">`findPayerById(activationId)`</text><polygon fill="#2196F3" points="1347.3958,1158.9518,1357.8125,1163.1185,1347.3958,1167.2852,1351.5625,1163.1185" style="stroke:#2196F3;stroke-width:1.0416666666666667;"/><line style="stroke:#2196F3;stroke-width:3.125;" x1="1053.6458" x2="1353.6458" y1="1163.1185" y2="1163.1185"/><text fill="#222222" font-family="Verdana" font-size="12.5" font-weight="bold" lengthAdjust="spacing" textLength="27.0833" x="1071.3542" y="1147.6705">[10]</text><text fill="#222222" font-family="Verdana" font-size="12.5" lengthAdjust="spacing" textLength="84.375" x="1123.4375" y="1147.6705">`findById(id)`</text><polygon fill="#2196F3" points="1065.1042,1208.9193,1054.6875,1213.0859,1065.1042,1217.2526,1060.9375,1213.0859" style="stroke:#2196F3;stroke-width:1.0416666666666667;"/><line style="stroke:#2196F3;stroke-width:3.125;stroke-dasharray:2.0,2.0;" x1="1058.8542" x2="1364.0625" y1="1213.0859" y2="1213.0859"/><text fill="#222222" font-family="Verdana" font-size="12.5" font-weight="bold" lengthAdjust="spacing" textLength="27.0833" x="1081.7708" y="1197.6379">[11]</text><text fill="#222222" font-family="Verdana" font-size="12.5" font-weight="bold" lengthAdjust="spacing" textLength="45.8333" x="1133.8542" y="1197.6379">empty</text><path d="M1369.7917,1230.7943 L1369.7917,1267.2526 A4.1667,4.1667 0 0 0 1373.9583,1271.4193 L1621.875,1271.4193 A4.1667,4.1667 0 0 0 1626.0417,1267.2526 L1626.0417,1237.0443 L1615.625,1226.6276 L1373.9583,1226.6276 A4.1667,4.1667 0 0 0 1369.7917,1230.7943 " fill="url(#gamkphv04idn12)" filter="url(#famkphv04idn1)" style="stroke:#9C27B0;stroke-width:1.0416666666666667;"/><path d="M1615.625,1226.6276 L1615.625,1234.9609 A2.0833,2.0833 0 0 0 1617.7083,1237.0443 L1626.0417,1237.0443 L1615.625,1226.6276 " fill="url(#gamkphv04idn12)" style="stroke:#9C27B0;stroke-width:1.0416666666666667;"/><text fill="#FFFFFF" font-family="Verdana" font-size="12.5" lengthAdjust="spacing" textLength="213.5417" x="1386.4583" y="1253.8554">No record found for the given ID.</text><line style="stroke:#2196F3;stroke-width:3.125;" x1="1053.6458" x2="1097.3958" y1="1322.3958" y2="1322.3958"/><line style="stroke:#2196F3;stroke-width:3.125;" x1="1097.3958" x2="1097.3958" y1="1322.3958" y2="1335.9375"/><line style="stroke:#2196F3;stroke-width:3.125;" x1="1054.6875" x2="1097.3958" y1="1335.9375" y2="1335.9375"/><polygon fill="#2196F3" points="1065.1042,1331.7708,1054.6875,1335.9375,1065.1042,1340.1042,1060.9375,1335.9375" style="stroke:#2196F3;stroke-width:1.0416666666666667;"/><text fill="#222222" font-family="Verdana" font-size="12.5" font-weight="bold" lengthAdjust="spacing" textLength="27.0833" x="1071.3542" y="1306.9478">[12]</text><text fill="#222222" font-family="Verdana" font-size="12.5" lengthAdjust="spacing" textLength="218.75" x="1123.4375" y="1306.9478">Throw `PayerNotFoundException`</text><path d="M1058.3333,1353.6458 L1058.3333,1390.1042 A4.1667,4.1667 0 0 0 1062.5,1394.2708 L1405.2083,1394.2708 A4.1667,4.1667 0 0 0 1409.375,1390.1042 L1409.375,1359.8958 L1398.9583,1349.4792 L1062.5,1349.4792 A4.1667,4.1667 0 0 0 1058.3333,1353.6458 " fill="url(#gamkphv04idn12)" filter="url(#famkphv04idn1)" style="stroke:#9C27B0;stroke-width:1.0416666666666667;"/><path d="M1398.9583,1349.4792 L1398.9583,1357.8125 A2.0833,2.0833 0 0 0 1401.0417,1359.8958 L1409.375,1359.8958 L1398.9583,1349.4792 " fill="url(#gamkphv04idn12)" style="stroke:#9C27B0;stroke-width:1.0416666666666667;"/><text fill="#FFFFFF" font-family="Verdana" font-size="12.5" lengthAdjust="spacing" textLength="308.3333" x="1075" y="1376.7069">Triggered by `.switchIfEmpty(...)` in the service.</text><polygon fill="#2196F3" points="730.7292,1441.0807,720.3125,1445.2474,730.7292,1449.4141,726.5625,1445.2474" style="stroke:#2196F3;stroke-width:1.0416666666666667;"/><line style="stroke:#2196F3;stroke-width:3.125;stroke-dasharray:2.0,2.0;" x1="724.4792" x2="1047.3958" y1="1445.2474" y2="1445.2474"/><text fill="#222222" font-family="Verdana" font-size="12.5" font-weight="bold" lengthAdjust="spacing" textLength="27.0833" x="747.3958" y="1429.7994">[13]</text><text fill="#222222" font-family="Verdana" font-size="12.5" lengthAdjust="spacing" textLength="216.6667" x="799.4792" y="1429.7994">Error: `PayerNotFoundException`</text><line style="stroke:#2196F3;stroke-width:3.125;" x1="719.2708" x2="763.0208" y1="1495.2148" y2="1495.2148"/><line style="stroke:#2196F3;stroke-width:3.125;" x1="763.0208" x2="763.0208" y1="1495.2148" y2="1508.7565"/><line style="stroke:#2196F3;stroke-width:3.125;" x1="720.3125" x2="763.0208" y1="1508.7565" y2="1508.7565"/><polygon fill="#2196F3" points="730.7292,1504.5898,720.3125,1508.7565,730.7292,1512.9232,726.5625,1508.7565" style="stroke:#2196F3;stroke-width:1.0416666666666667;"/><text fill="#222222" font-family="Verdana" font-size="12.5" font-weight="bold" lengthAdjust="spacing" textLength="27.0833" x="736.9792" y="1479.7668">[14]</text><text fill="#222222" font-family="Verdana" font-size="12.5" lengthAdjust="spacing" textLength="226.0417" x="789.0625" y="1479.7668">Handle `PayerNotFoundException`</text><path d="M723.9583,1526.4648 L723.9583,1562.9232 A4.1667,4.1667 0 0 0 728.125,1567.0898 L1085.4167,1567.0898 A4.1667,4.1667 0 0 0 1089.5833,1562.9232 L1089.5833,1532.7148 L1079.1667,1522.2982 L728.125,1522.2982 A4.1667,4.1667 0 0 0 723.9583,1526.4648 " fill="url(#gamkphv04idn12)" filter="url(#famkphv04idn1)" style="stroke:#9C27B0;stroke-width:1.0416666666666667;"/><path d="M1079.1667,1522.2982 L1079.1667,1530.6315 A2.0833,2.0833 0 0 0 1081.25,1532.7148 L1089.5833,1532.7148 L1079.1667,1522.2982 " fill="url(#gamkphv04idn12)" style="stroke:#9C27B0;stroke-width:1.0416666666666667;"/><text fill="#FFFFFF" font-family="Verdana" font-size="12.5" lengthAdjust="spacing" textLength="322.9167" x="740.625" y="1549.526">Caught by `.onErrorResume(...)` in the controller.</text><polygon fill="#2196F3" points="375.5208,1613.8997,365.1042,1618.0664,375.5208,1622.2331,371.3542,1618.0664" style="stroke:#2196F3;stroke-width:1.0416666666666667;"/><line style="stroke:#2196F3;stroke-width:3.125;stroke-dasharray:2.0,2.0;" x1="369.2708" x2="707.8125" y1="1618.0664" y2="1618.0664"/><text fill="#222222" font-family="Verdana" font-size="12.5" font-weight="bold" lengthAdjust="spacing" textLength="27.0833" x="392.1875" y="1602.6184">[15]</text><text fill="#222222" font-family="Verdana" font-size="12.5" font-weight="bold" lengthAdjust="spacing" textLength="105.2083" x="444.2708" y="1602.6184">404 Not Found</text><path d="M30.2083,1635.7747 L30.2083,1686.8164 A4.1667,4.1667 0 0 0 34.375,1690.9831 L351.0417,1690.9831 A4.1667,4.1667 0 0 0 355.2083,1686.8164 L355.2083,1642.0247 L344.7917,1631.6081 L34.375,1631.6081 A4.1667,4.1667 0 0 0 30.2083,1635.7747 " fill="url(#gamkphv04idn12)" filter="url(#famkphv04idn1)" style="stroke:#9C27B0;stroke-width:1.0416666666666667;"/><path d="M344.7917,1631.6081 L344.7917,1639.9414 A2.0833,2.0833 0 0 0 346.875,1642.0247 L355.2083,1642.0247 L344.7917,1631.6081 " fill="url(#gamkphv04idn12)" style="stroke:#9C27B0;stroke-width:1.0416666666666667;"/><text fill="#FFFFFF" font-family="Verdana" font-size="12.5" lengthAdjust="spacing" textLength="282.2917" x="46.875" y="1658.8359">The specified activation could not be found</text><text fill="#FFFFFF" font-family="Verdana" font-size="12.5" lengthAdjust="spacing" textLength="252.0833" x="46.875" y="1673.3866">or the user is not authorized to view it.</text><line style="stroke:#2196F3;stroke-width:1.0416666666666667;stroke-dasharray:2.0,2.0;" x1="19.7917" x2="1639.5833" y1="1701.3346" y2="1701.3346"/><text fill="#222222" font-family="Verdana" font-size="12.5" font-weight="bold" lengthAdjust="spacing" textLength="5.2083" x="35.4167" y="1723.3541">[</text><text fill="#222222" font-family="Verdana" font-size="12.5" font-weight="bold" lengthAdjust="spacing" textLength="91.6667" x="40.625" y="1723.3541">Other Errors</text><text fill="#222222" font-family="Verdana" font-size="12.5" font-weight="bold" lengthAdjust="spacing" textLength="5.2083" x="132.2917" y="1723.3541">]</text><path d="M255.2083,1745.0521 L582.2917,1745.0521 L582.2917,1772.1029 L571.875,1782.5195 L251.0417,1782.5195 L251.0417,1749.2188 A4.1667,4.1667 0 0 1 255.2083,1745.0521 " fill="#FFFFFF" style="stroke:#666666;stroke-width:1.0416666666666667;"/><rect fill="none" height="146.7773" rx="4.1667" ry="4.1667" style="stroke:#2196F3;stroke-width:1.0416666666666667;" width="839.5833" x="251.0417" y="1745.0521"/><text fill="#9C27B0" font-family="Verdana" font-size="12.5" font-weight="bold" lengthAdjust="spacing" textLength="263.5417" x="277.0833" y="1768.1132">Authentication / Authorization Error</text><polygon fill="#2196F3" points="375.5208,1819.987,365.1042,1824.1536,375.5208,1828.3203,371.3542,1824.1536" style="stroke:#2196F3;stroke-width:1.0416666666666667;"/><line style="stroke:#2196F3;stroke-width:3.125;stroke-dasharray:2.0,2.0;" x1="369.2708" x2="707.8125" y1="1824.1536" y2="1824.1536"/><text fill="#222222" font-family="Verdana" font-size="12.5" font-weight="bold" lengthAdjust="spacing" textLength="27.0833" x="392.1875" y="1808.7056">[16]</text><text fill="#222222" font-family="Verdana" font-size="12.5" font-weight="bold" lengthAdjust="spacing" textLength="130.2083" x="444.2708" y="1808.7056">401 Unauthorized</text><text fill="#222222" font-family="Verdana" font-size="12.5" lengthAdjust="spacing" textLength="4.1667" x="578.6458" y="1808.7056">/</text><text fill="#222222" font-family="Verdana" font-size="12.5" font-weight="bold" lengthAdjust="spacing" textLength="104.1667" x="586.9792" y="1808.7056">403 Forbidden</text><path d="M723.9583,1841.862 L723.9583,1878.3203 A4.1667,4.1667 0 0 0 728.125,1882.487 L1072.9167,1882.487 A4.1667,4.1667 0 0 0 1077.0833,1878.3203 L1077.0833,1848.112 L1066.6667,1837.6953 L728.125,1837.6953 A4.1667,4.1667 0 0 0 723.9583,1841.862 " fill="url(#gamkphv04idn12)" filter="url(#famkphv04idn1)" style="stroke:#9C27B0;stroke-width:1.0416666666666667;"/><path d="M1066.6667,1837.6953 L1066.6667,1846.0286 A2.0833,2.0833 0 0 0 1068.75,1848.112 L1077.0833,1848.112 L1066.6667,1837.6953 " fill="url(#gamkphv04idn12)" style="stroke:#9C27B0;stroke-width:1.0416666666666667;"/><text fill="#FFFFFF" font-family="Verdana" font-size="12.5" lengthAdjust="spacing" textLength="310.4167" x="740.625" y="1864.9231">Occurs if the initial `@PreAuthorize` check fails.</text><path d="M255.2083,1906.4128 L447.9167,1906.4128 L447.9167,1933.4635 L437.5,1943.8802 L251.0417,1943.8802 L251.0417,1910.5794 A4.1667,4.1667 0 0 1 255.2083,1906.4128 " fill="#FFFFFF" style="stroke:#666666;stroke-width:1.0416666666666667;"/><rect fill="none" height="166.5039" rx="4.1667" ry="4.1667" style="stroke:#2196F3;stroke-width:1.0416666666666667;" width="600" x="251.0417" y="1906.4128"/><text fill="#9C27B0" font-family="Verdana" font-size="12.5" font-weight="bold" lengthAdjust="spacing" textLength="129.1667" x="277.0833" y="1929.4739">Client-Side Errors</text><polygon fill="#2196F3" points="375.5208,1995.8984,365.1042,2000.0651,375.5208,2004.2318,371.3542,2000.0651" style="stroke:#2196F3;stroke-width:1.0416666666666667;"/><line style="stroke:#2196F3;stroke-width:3.125;stroke-dasharray:2.0,2.0;" x1="369.2708" x2="707.8125" y1="2000.0651" y2="2000.0651"/><text fill="#222222" font-family="Verdana" font-size="12.5" font-weight="bold" lengthAdjust="spacing" textLength="27.0833" x="392.1875" y="1977.3417">[17]</text><text fill="#222222" font-family="Verdana" font-size="12.5" font-weight="bold" lengthAdjust="spacing" textLength="122.9167" x="444.2708" y="1970.0663">400 Bad Request</text><text fill="#222222" font-family="Verdana" font-size="12.5" lengthAdjust="spacing" textLength="166.6667" x="444.2708" y="1984.6171">(e.g., Invalid UUID format)</text><polygon fill="#2196F3" points="375.5208,2060.4167,365.1042,2064.5833,375.5208,2068.75,371.3542,2064.5833" style="stroke:#2196F3;stroke-width:1.0416666666666667;"/><line style="stroke:#2196F3;stroke-width:3.125;stroke-dasharray:2.0,2.0;" x1="369.2708" x2="707.8125" y1="2064.5833" y2="2064.5833"/><text fill="#222222" font-family="Verdana" font-size="12.5" font-weight="bold" lengthAdjust="spacing" textLength="27.0833" x="392.1875" y="2041.8599">[18]</text><text fill="#222222" font-family="Verdana" font-size="12.5" font-weight="bold" lengthAdjust="spacing" textLength="173.9583" x="444.2708" y="2034.5846">429 Too Many Requests</text><text fill="#222222" font-family="Verdana" font-size="12.5" lengthAdjust="spacing" textLength="171.875" x="444.2708" y="2049.1353">(e.g., Rate limit exceeded)</text><path d="M255.2083,2087.5 L444.7917,2087.5 L444.7917,2114.5508 L434.375,2124.9674 L251.0417,2124.9674 L251.0417,2091.6667 A4.1667,4.1667 0 0 1 255.2083,2087.5 " fill="#FFFFFF" style="stroke:#666666;stroke-width:1.0416666666666667;"/><rect fill="none" height="210.2865" rx="4.1667" ry="4.1667" style="stroke:#2196F3;stroke-width:1.0416666666666667;" width="797.3958" x="251.0417" y="2087.5"/><text fill="#9C27B0" font-family="Verdana" font-size="12.5" font-weight="bold" lengthAdjust="spacing" textLength="126.0417" x="277.0833" y="2110.5611">Server-Side Error</text><line style="stroke:#2196F3;stroke-width:3.125;" x1="719.2708" x2="763.0208" y1="2166.6016" y2="2166.6016"/><line style="stroke:#2196F3;stroke-width:3.125;" x1="763.0208" x2="763.0208" y1="2166.6016" y2="2180.1432"/><line style="stroke:#2196F3;stroke-width:3.125;" x1="720.3125" x2="763.0208" y1="2180.1432" y2="2180.1432"/><polygon fill="#2196F3" points="730.7292,2175.9766,720.3125,2180.1432,730.7292,2184.3099,726.5625,2180.1432" style="stroke:#2196F3;stroke-width:1.0416666666666667;"/><text fill="#222222" font-family="Verdana" font-size="12.5" font-weight="bold" lengthAdjust="spacing" textLength="27.0833" x="736.9792" y="2151.1536">[19]</text><text fill="#222222" font-family="Verdana" font-size="12.5" lengthAdjust="spacing" textLength="236.4583" x="789.0625" y="2151.1536">An unexpected internal error occurs</text><path d="M723.9583,2197.8516 L723.9583,2234.3099 A4.1667,4.1667 0 0 0 728.125,2238.4766 L985.4167,2238.4766 A4.1667,4.1667 0 0 0 989.5833,2234.3099 L989.5833,2204.1016 L979.1667,2193.6849 L728.125,2193.6849 A4.1667,4.1667 0 0 0 723.9583,2197.8516 " fill="url(#gamkphv04idn12)" filter="url(#famkphv04idn1)" style="stroke:#9C27B0;stroke-width:1.0416666666666667;"/><path d="M979.1667,2193.6849 L979.1667,2202.0182 A2.0833,2.0833 0 0 0 981.25,2204.1016 L989.5833,2204.1016 L979.1667,2193.6849 " fill="url(#gamkphv04idn12)" style="stroke:#9C27B0;stroke-width:1.0416666666666667;"/><text fill="#FFFFFF" font-family="Verdana" font-size="12.5" lengthAdjust="spacing" textLength="222.9167" x="740.625" y="2220.9127">e.g., Database connection failure.</text><polygon fill="#2196F3" points="375.5208,2285.2865,365.1042,2289.4531,375.5208,2293.6198,371.3542,2289.4531" style="stroke:#2196F3;stroke-width:1.0416666666666667;"/><line style="stroke:#2196F3;stroke-width:3.125;stroke-dasharray:2.0,2.0;" x1="369.2708" x2="707.8125" y1="2289.4531" y2="2289.4531"/><text fill="#222222" font-family="Verdana" font-size="12.5" font-weight="bold" lengthAdjust="spacing" textLength="27.0833" x="392.1875" y="2274.0051">[20]</text><text fill="#222222" font-family="Verdana" font-size="12.5" font-weight="bold" lengthAdjust="spacing" textLength="180.2083" x="444.2708" y="2274.0051">500 Internal Server Error</text><!--SRC=[hLRRRkCs47tNLqopG1CB6yLDjmyr5a5zoMxTRZP2xFIbMq2qDBQ9qAHAKdRSel_U8INPacEdA5e_cU9Spfmv7F8SOi6aVRpx12FE5fgjOAuqF4nZ-8WM-gdbQsQvaj2Fny4vJBaLs8D7oUSSisDs4_ozG9bY7O-SVa5jQAi7rr4twjA74PfKyzpwZzCbDv1LoSrIRGpO9KA6bd51ENAjKZJ6uz9eDSSrbmjWqcTdkynlAN3hj-BFpj058_1WSam9TLh2t72xz5iKe602Vc9h1WRrcXDq9ZD8bRHQ2O4QX5hmD0g2hyX-XR1Y5ZLdGM0T6Hv5cwSUVBoTmjKUchdwSxyOPty50IsfdBCmZDaMzRaXsihKiLPhdg4EmpDW1k997EHCMvxodFhaF5fSUwSlyeAoNWrtY3kLTtzowEpJDVm6XU7IiVl9rTZPPGqoPjcC6NHEe-f_jJiQ4Fx2AbciPXJixFtivjVkRsT1G63XyeQozY0CYO8mV9M4QeKEPj2Vx5qdc1QQsory3G-A61ukCNqAmq0gCjPyiRIWvjxs0sa6Dqe_mPe9JfYHnAEUK99hGTq4uWEZBtAej4QJAvcvVKX-Y3Ns2xjKcl-15r4KTHBgBnCMtkHCu48ZXI0WHUgbDwJYUyqcVr25p0XHu7HMGey9JZBdClCK3xRZxA9PRYVnjhkQYMAtVbdIb3JPq5w61AUgo-krrgXmQQ8IGUmHZ0OL0f-SlqX9VNFhqG0kAxmFQ0ijgTzU5HfJfJDlas7JQvUZwb1ofwHwxvrkaaFxeuN5LM4rU5CIEo-4s8A3N9xvk57JNX1tB8V4RoM0qZfXk1xksp6oAZd1vc7ZMTE90kUKpwfMg58EUn2UgzZfyhhRXVkVmv3EJSrSoxEQMQQp1oDmNX4G1_LScfPJfzPIIJjic1jn9AkTdPj2skUXATXaBF8cIDikHn2We7FwHhYwjoY4sX3MMwsLxi5dPVyViVuddOKXhdAx9GmlnVMoRox-PrNpuZdnmzyfPC7NT3B7evRmItLfghkK2HNjQxvzJj5VCiafIT9gWPhedMqXYGnT2kboFBzrO4iP09VDKnUzE0iLpwycRf-E0tN_I6sc6VSla7jTiyAjF6mbFOW7DCKAsx3tWoGw9kXttNSjXVoZRAixb0Xh23XLXV1IX1aUIBZgcX_5TCix6rQFtSmTo3N73N1xND4Pqq-kEM5uJr5qoRMfbRpGgiZ1JN4t5Afh_GhgiLwklSiEpc7rtz13Pe_7NLV-yxT4Y9xnB4DPaNAy2VSftLC6-DmNoIMtd5uIxSibWTJTNZ1tWs5VfWVVh6CeE9LnEQ6xlwhp9Eek31WzlTmxorW_ZJ1QH6zXBFqb28-Fuv4xCFHEwPmASlqzJ9MYqIgtTIJJ2FNWj2huYbj0aY9cc7LEOtVF2TGDxAsifSpx4Wg9pwGVIntbafvGaiX2PmxA4_aAqoMg-XtYP2qfa6kmuxNG69qez3jYQrmdAt6M4Al6DkgXlq7GEAhqAlaR]--></g></svg>