<?xml version="1.0" encoding="us-ascii" standalone="no"?><svg xmlns="http://www.w3.org/2000/svg" xmlns:xlink="http://www.w3.org/1999/xlink" contentStyleType="text/css" height="1915.625px" preserveAspectRatio="none" style="width:1358px;height:1915px;" version="1.1" viewBox="0 0 1358 1915" width="1358.3333px" zoomAndPan="magnify"><defs><linearGradient id="grd99dmo6p71z0" x1="50%" x2="50%" y1="0%" y2="100%"><stop offset="0%" stop-color="#FFFFFF"/><stop offset="100%" stop-color="#FFFFFF"/></linearGradient><filter height="300%" id="frd99dmo6p71z" width="300%" x="-1" y="-1"><feGaussianBlur result="blurOut" stdDeviation="2.0833333333333335"/><feColorMatrix in="blurOut" result="blurOut2" type="matrix" values="0 0 0 0 0 0 0 0 0 0 0 0 0 0 0 0 0 0 .4 0"/><feOffset dx="4.166666666666667" dy="4.166666666666667" in="blurOut2" result="blurOut3"/><feBlend in="SourceGraphic" in2="blurOut3" mode="normal"/></filter><linearGradient id="grd99dmo6p71z1" x1="50%" x2="50%" y1="0%" y2="100%"><stop offset="0%" stop-color="#4DABF5"/><stop offset="100%" stop-color="#2196F3"/></linearGradient><linearGradient id="grd99dmo6p71z2" x1="50%" x2="50%" y1="0%" y2="100%"><stop offset="0%" stop-color="#B052C0"/><stop offset="100%" stop-color="#9C27B0"/></linearGradient></defs><g><rect fill="url(#grd99dmo6p71z0)" height="57.5846" id="_title" rx="4.1667" ry="4.1667" style="stroke:#CCCCCC;stroke-width:1.0416666666666667;" width="639.5833" x="361.9792" y="20.8333"/><text fill="#2196F3" font-family="Verdana" font-size="20.8333" font-weight="bold" lengthAdjust="spacing" textLength="606.25" x="378.6458" y="56.838">RTP Activation API: GET /activations/{activationId}</text><rect fill="#FFFFFF" filter="url(#frd99dmo6p71z)" height="1538.444" style="stroke:#CCCCCC;stroke-width:1.0416666666666667;" width="10.4167" x="708.8542" y="258.5286"/><rect fill="#98FB98" filter="url(#frd99dmo6p71z)" height="1441.6341" rx="4.1667" ry="4.1667" style="stroke:#2196F3;stroke-width:1.0416666666666667;" width="1129.1667" x="19.7917" y="348.0469"/><path d="M19.7917,715.4948 L1148.9583,715.4948 L1148.9583,1073.5677 A4.1667,4.1667 0 0 1 1144.7917,1077.7344 L23.9583,1077.7344 A4.1667,4.1667 0 0 1 19.7917,1073.5677 L19.7917,715.4948 " fill="#FFFFE0" style="stroke:none;stroke-width:1.0416666666666667;"/><path d="M19.7917,1077.7344 L1148.9583,1077.7344 L1148.9583,1575.2279 A4.1667,4.1667 0 0 1 1144.7917,1579.3945 L23.9583,1579.3945 A4.1667,4.1667 0 0 1 19.7917,1575.2279 L19.7917,1077.7344 " fill="#F08080" style="stroke:none;stroke-width:1.0416666666666667;"/><rect fill="url(#grd99dmo6p71z0)" filter="url(#frd99dmo6p71z)" height="166.5039" rx="4.1667" ry="4.1667" style="stroke:#2196F3;stroke-width:1.0416666666666667;" width="558.8542" x="284.375" y="1122.4935"/><rect fill="url(#grd99dmo6p71z0)" filter="url(#frd99dmo6p71z)" height="166.5039" rx="4.1667" ry="4.1667" style="stroke:#2196F3;stroke-width:1.0416666666666667;" width="558.8542" x="284.375" y="1303.5807"/><rect fill="url(#grd99dmo6p71z0)" filter="url(#frd99dmo6p71z)" height="87.4349" rx="4.1667" ry="4.1667" style="stroke:#2196F3;stroke-width:1.0416666666666667;" width="558.8542" x="284.375" y="1484.668"/><path d="M19.7917,1579.3945 L1148.9583,1579.3945 L1148.9583,1785.5143 A4.1667,4.1667 0 0 1 1144.7917,1789.681 L23.9583,1789.681 A4.1667,4.1667 0 0 1 19.7917,1785.5143 L19.7917,1579.3945 " fill="#8B0000" style="stroke:none;stroke-width:1.0416666666666667;"/><line style="stroke:#CCCCCC;stroke-width:1.0416666666666667;stroke-dasharray:5.0,5.0;" x1="385.4167" x2="385.4167" y1="191.9271" y2="1807.3893"/><line style="stroke:#CCCCCC;stroke-width:1.0416666666666667;stroke-dasharray:5.0,5.0;" x1="714.0625" x2="714.0625" y1="191.9271" y2="1807.3893"/><text fill="#222222" font-family="Verdana" font-size="12.5" lengthAdjust="spacing" textLength="155.2083" x="305.2083" y="178.5624">Payer's Service Provider</text><ellipse cx="385.9375" cy="99.2513" fill="url(#grd99dmo6p71z1)" filter="url(#frd99dmo6p71z)" rx="8.3333" ry="8.3333" style="stroke:#2196F3;stroke-width:1.0416666666666667;"/><path d="M385.9375,107.5846 L385.9375,135.7096 M372.3958,115.918 L399.4792,115.918 M385.9375,135.7096 L372.3958,151.3346 M385.9375,135.7096 L399.4792,151.3346 " fill="none" filter="url(#frd99dmo6p71z)" style="stroke:#2196F3;stroke-width:1.0416666666666667;"/><text fill="#222222" font-family="Verdana" font-size="12.5" lengthAdjust="spacing" textLength="155.2083" x="305.2083" y="1828.3671">Payer's Service Provider</text><ellipse cx="385.9375" cy="1851.1068" fill="url(#grd99dmo6p71z1)" filter="url(#frd99dmo6p71z)" rx="8.3333" ry="8.3333" style="stroke:#2196F3;stroke-width:1.0416666666666667;"/><path d="M385.9375,1859.4401 L385.9375,1887.5651 M372.3958,1867.7734 L399.4792,1867.7734 M385.9375,1887.5651 L372.3958,1903.1901 M385.9375,1887.5651 L399.4792,1903.1901 " fill="none" filter="url(#frd99dmo6p71z)" style="stroke:#2196F3;stroke-width:1.0416666666666667;"/><rect fill="url(#grd99dmo6p71z1)" filter="url(#frd99dmo6p71z)" height="49.9674" rx="4.1667" ry="4.1667" style="stroke:#2196F3;stroke-width:1.0416666666666667;" width="151.0417" x="636.9792" y="137.793"/><text fill="#FFFFFF" font-family="Verdana" font-size="12.5" lengthAdjust="spacing" textLength="115.625" x="654.6875" y="167.1041">RTP Activation API</text><rect fill="url(#grd99dmo6p71z1)" filter="url(#frd99dmo6p71z)" height="49.9674" rx="4.1667" ry="4.1667" style="stroke:#2196F3;stroke-width:1.0416666666666667;" width="151.0417" x="636.9792" y="1806.3477"/><text fill="#FFFFFF" font-family="Verdana" font-size="12.5" lengthAdjust="spacing" textLength="115.625" x="654.6875" y="1835.6588">RTP Activation API</text><rect fill="#FFFFFF" filter="url(#frd99dmo6p71z)" height="1538.444" style="stroke:#CCCCCC;stroke-width:1.0416666666666667;" width="10.4167" x="708.8542" y="258.5286"/><polygon fill="#2196F3" points="696.3542,254.362,706.7708,258.5286,696.3542,262.6953,700.5208,258.5286" style="stroke:#2196F3;stroke-width:1.0416666666666667;"/><line style="stroke:#2196F3;stroke-width:3.125;" x1="385.9375" x2="702.6042" y1="258.5286" y2="258.5286"/><text fill="#222222" font-family="Verdana" font-size="12.5" font-weight="bold" lengthAdjust="spacing" textLength="8.3333" x="403.6458" y="235.8053">1</text><text fill="#222222" font-family="Verdana" font-size="12.5" lengthAdjust="spacing" textLength="200" x="436.9792" y="228.5299">GET /activations/{activationId}</text><text fill="#222222" font-family="Verdana" font-size="12.5" lengthAdjust="spacing" textLength="129.1667" x="436.9792" y="243.0806">(Get RTP Activation)</text><path d="M723.9583,276.237 L723.9583,327.2786 A4.1667,4.1667 0 0 0 728.125,331.4453 L1341.6667,331.4453 A4.1667,4.1667 0 0 0 1345.8333,327.2786 L1345.8333,282.487 L1335.4167,272.0703 L728.125,272.0703 A4.1667,4.1667 0 0 0 723.9583,276.237 " fill="url(#grd99dmo6p71z2)" filter="url(#frd99dmo6p71z)" style="stroke:#9C27B0;stroke-width:1.0416666666666667;"/><path d="M1335.4167,272.0703 L1335.4167,280.4036 A2.0833,2.0833 0 0 0 1337.5,282.487 L1345.8333,282.487 L1335.4167,272.0703 " fill="url(#grd99dmo6p71z2)" style="stroke:#9C27B0;stroke-width:1.0416666666666667;"/><text fill="#FFFFFF" font-family="Verdana" font-size="12.5" font-weight="bold" lengthAdjust="spacing" textLength="80.2083" x="740.625" y="299.2981">Operation:</text><text fill="#FFFFFF" font-family="Verdana" font-size="12.5" lengthAdjust="spacing" textLength="97.9167" x="825" y="299.2981">`getActivation`</text><text fill="#FFFFFF" font-family="Verdana" font-size="12.5" font-weight="bold" lengthAdjust="spacing" textLength="89.5833" x="740.625" y="313.8489">Description:</text><text fill="#FFFFFF" font-family="Verdana" font-size="12.5" lengthAdjust="spacing" textLength="485.4167" x="834.375" y="313.8489">A Payer's Service Provider calls this to retrieve a specific activation record.</text><path d="M23.9583,348.0469 L107.2917,348.0469 L107.2917,375.0977 L96.875,385.5143 L19.7917,385.5143 L19.7917,352.2135 A4.1667,4.1667 0 0 1 23.9583,348.0469 " fill="#FFFFFF" style="stroke:#666666;stroke-width:1.0416666666666667;"/><rect fill="none" height="1441.6341" rx="4.1667" ry="4.1667" style="stroke:#2196F3;stroke-width:1.0416666666666667;" width="1129.1667" x="19.7917" y="348.0469"/><text fill="#9C27B0" font-family="Verdana" font-size="12.5" font-weight="bold" lengthAdjust="spacing" textLength="19.7917" x="45.8333" y="371.108">alt</text><text fill="#222222" font-family="Verdana" font-size="12.5" font-weight="bold" lengthAdjust="spacing" textLength="110.4167" x="133.3333" y="372.1497">[Success Case]</text><line style="stroke:#2196F3;stroke-width:3.125;" x1="719.2708" x2="763.0208" y1="446.9076" y2="446.9076"/><line style="stroke:#2196F3;stroke-width:3.125;" x1="763.0208" x2="763.0208" y1="446.9076" y2="460.4492"/><line style="stroke:#2196F3;stroke-width:3.125;" x1="720.3125" x2="763.0208" y1="460.4492" y2="460.4492"/><polygon fill="#2196F3" points="730.7292,456.2826,720.3125,460.4492,730.7292,464.6159,726.5625,460.4492" style="stroke:#2196F3;stroke-width:1.0416666666666667;"/><text fill="#222222" font-family="Verdana" font-size="12.5" font-weight="bold" lengthAdjust="spacing" textLength="8.3333" x="736.9792" y="431.4596">2</text><text fill="#222222" font-family="Verdana" font-size="12.5" lengthAdjust="spacing" textLength="242.7083" x="770.3125" y="431.4596">1. Validate Request &amp; Security Token</text><line style="stroke:#2196F3;stroke-width:3.125;" x1="719.2708" x2="763.0208" y1="510.4167" y2="510.4167"/><line style="stroke:#2196F3;stroke-width:3.125;" x1="763.0208" x2="763.0208" y1="510.4167" y2="523.9583"/><line style="stroke:#2196F3;stroke-width:3.125;" x1="720.3125" x2="763.0208" y1="523.9583" y2="523.9583"/><polygon fill="#2196F3" points="730.7292,519.7917,720.3125,523.9583,730.7292,528.125,726.5625,523.9583" style="stroke:#2196F3;stroke-width:1.0416666666666667;"/><text fill="#222222" font-family="Verdana" font-size="12.5" font-weight="bold" lengthAdjust="spacing" textLength="8.3333" x="736.9792" y="494.9687">3</text><text fill="#222222" font-family="Verdana" font-size="12.5" lengthAdjust="spacing" textLength="200" x="770.3125" y="494.9687">2. Find the specified activation</text><path d="M723.9583,541.6667 L723.9583,578.125 A4.1667,4.1667 0 0 0 728.125,582.2917 L1021.875,582.2917 A4.1667,4.1667 0 0 0 1026.0417,578.125 L1026.0417,547.9167 L1015.625,537.5 L728.125,537.5 A4.1667,4.1667 0 0 0 723.9583,541.6667 " fill="url(#grd99dmo6p71z2)" filter="url(#frd99dmo6p71z)" style="stroke:#9C27B0;stroke-width:1.0416666666666667;"/><path d="M1015.625,537.5 L1015.625,545.8333 A2.0833,2.0833 0 0 0 1017.7083,547.9167 L1026.0417,547.9167 L1015.625,537.5 " fill="url(#grd99dmo6p71z2)" style="stroke:#9C27B0;stroke-width:1.0416666666666667;"/><text fill="#FFFFFF" font-family="Verdana" font-size="12.5" lengthAdjust="spacing" textLength="259.375" x="740.625" y="564.7278">Activation found and user is authorized.</text><polygon fill="#2196F3" points="397.3958,643.6523,386.9792,647.819,397.3958,651.9857,393.2292,647.819" style="stroke:#2196F3;stroke-width:1.0416666666666667;"/><line style="stroke:#2196F3;stroke-width:3.125;stroke-dasharray:2.0,2.0;" x1="391.1458" x2="707.8125" y1="647.819" y2="647.819"/><text fill="#222222" font-family="Verdana" font-size="12.5" font-weight="bold" lengthAdjust="spacing" textLength="8.3333" x="414.0625" y="625.0956">4</text><text fill="#222222" font-family="Verdana" font-size="12.5" font-weight="bold" lengthAdjust="spacing" textLength="50" x="447.3958" y="617.8202">200 OK</text><text fill="#222222" font-family="Verdana" font-size="12.5" lengthAdjust="spacing" textLength="177.0833" x="447.3958" y="632.371">(Returns activation details)</text><path d="M30.2083,665.5273 L30.2083,701.9857 A4.1667,4.1667 0 0 0 34.375,706.1523 L372.9167,706.1523 A4.1667,4.1667 0 0 0 377.0833,701.9857 L377.0833,671.7773 L366.6667,661.3607 L34.375,661.3607 A4.1667,4.1667 0 0 0 30.2083,665.5273 " fill="url(#grd99dmo6p71z2)" filter="url(#frd99dmo6p71z)" style="stroke:#9C27B0;stroke-width:1.0416666666666667;"/><path d="M366.6667,661.3607 L366.6667,669.694 A2.0833,2.0833 0 0 0 368.75,671.7773 L377.0833,671.7773 L366.6667,661.3607 " fill="url(#grd99dmo6p71z2)" style="stroke:#9C27B0;stroke-width:1.0416666666666667;"/><text fill="#FFFFFF" font-family="Verdana" font-size="12.5" lengthAdjust="spacing" textLength="304.1667" x="46.875" y="688.5885">The activation record was found and returned.</text><line style="stroke:#2196F3;stroke-width:1.0416666666666667;stroke-dasharray:2.0,2.0;" x1="19.7917" x2="1148.9583" y1="716.5365" y2="716.5365"/><text fill="#222222" font-family="Verdana" font-size="12.5" font-weight="bold" lengthAdjust="spacing" textLength="86.4583" x="35.4167" y="738.5559">[Not Found]</text><line style="stroke:#2196F3;stroke-width:3.125;" x1="719.2708" x2="763.0208" y1="794.5964" y2="794.5964"/><line style="stroke:#2196F3;stroke-width:3.125;" x1="763.0208" x2="763.0208" y1="794.5964" y2="808.138"/><line style="stroke:#2196F3;stroke-width:3.125;" x1="720.3125" x2="763.0208" y1="808.138" y2="808.138"/><polygon fill="#2196F3" points="730.7292,803.9714,720.3125,808.138,730.7292,812.3047,726.5625,808.138" style="stroke:#2196F3;stroke-width:1.0416666666666667;"/><text fill="#222222" font-family="Verdana" font-size="12.5" font-weight="bold" lengthAdjust="spacing" textLength="8.3333" x="736.9792" y="779.1484">5</text><text fill="#222222" font-family="Verdana" font-size="12.5" lengthAdjust="spacing" textLength="242.7083" x="770.3125" y="779.1484">1. Validate Request &amp; Security Token</text><line style="stroke:#2196F3;stroke-width:3.125;" x1="719.2708" x2="763.0208" y1="858.1055" y2="858.1055"/><line style="stroke:#2196F3;stroke-width:3.125;" x1="763.0208" x2="763.0208" y1="858.1055" y2="871.6471"/><line style="stroke:#2196F3;stroke-width:3.125;" x1="720.3125" x2="763.0208" y1="871.6471" y2="871.6471"/><polygon fill="#2196F3" points="730.7292,867.4805,720.3125,871.6471,730.7292,875.8138,726.5625,871.6471" style="stroke:#2196F3;stroke-width:1.0416666666666667;"/><text fill="#222222" font-family="Verdana" font-size="12.5" font-weight="bold" lengthAdjust="spacing" textLength="8.3333" x="736.9792" y="842.6575">6</text><text fill="#222222" font-family="Verdana" font-size="12.5" lengthAdjust="spacing" textLength="200" x="770.3125" y="842.6575">2. Find the specified activation</text><path d="M723.9583,889.3555 L723.9583,940.3971 A4.1667,4.1667 0 0 0 728.125,944.5638 L1085.4167,944.5638 A4.1667,4.1667 0 0 0 1089.5833,940.3971 L1089.5833,895.6055 L1079.1667,885.1888 L728.125,885.1888 A4.1667,4.1667 0 0 0 723.9583,889.3555 " fill="url(#grd99dmo6p71z2)" filter="url(#frd99dmo6p71z)" style="stroke:#9C27B0;stroke-width:1.0416666666666667;"/><path d="M1079.1667,885.1888 L1079.1667,893.5221 A2.0833,2.0833 0 0 0 1081.25,895.6055 L1089.5833,895.6055 L1079.1667,885.1888 " fill="url(#grd99dmo6p71z2)" style="stroke:#9C27B0;stroke-width:1.0416666666666667;"/><text fill="#FFFFFF" font-family="Verdana" font-size="12.5" lengthAdjust="spacing" textLength="284.375" x="740.625" y="912.4166">- Activation with the given ID does not exist.</text><text fill="#FFFFFF" font-family="Verdana" font-size="12.5" lengthAdjust="spacing" textLength="322.9167" x="740.625" y="926.9674">- OR User is not authorized to view this activation.</text><polygon fill="#2196F3" points="397.3958,991.3411,386.9792,995.5078,397.3958,999.6745,393.2292,995.5078" style="stroke:#2196F3;stroke-width:1.0416666666666667;"/><line style="stroke:#2196F3;stroke-width:3.125;stroke-dasharray:2.0,2.0;" x1="391.1458" x2="707.8125" y1="995.5078" y2="995.5078"/><text fill="#222222" font-family="Verdana" font-size="12.5" font-weight="bold" lengthAdjust="spacing" textLength="8.3333" x="414.0625" y="980.0598">7</text><text fill="#222222" font-family="Verdana" font-size="12.5" font-weight="bold" lengthAdjust="spacing" textLength="105.2083" x="447.3958" y="980.0598">404 Not Found</text><path d="M52.0833,1013.2161 L52.0833,1064.2578 A4.1667,4.1667 0 0 0 56.25,1068.4245 L372.9167,1068.4245 A4.1667,4.1667 0 0 0 377.0833,1064.2578 L377.0833,1019.4661 L366.6667,1009.0495 L56.25,1009.0495 A4.1667,4.1667 0 0 0 52.0833,1013.2161 " fill="url(#grd99dmo6p71z2)" filter="url(#frd99dmo6p71z)" style="stroke:#9C27B0;stroke-width:1.0416666666666667;"/><path d="M366.6667,1009.0495 L366.6667,1017.3828 A2.0833,2.0833 0 0 0 368.75,1019.4661 L377.0833,1019.4661 L366.6667,1009.0495 " fill="url(#grd99dmo6p71z2)" style="stroke:#9C27B0;stroke-width:1.0416666666666667;"/><text fill="#FFFFFF" font-family="Verdana" font-size="12.5" lengthAdjust="spacing" textLength="282.2917" x="68.75" y="1036.2773">The specified activation could not be found</text><text fill="#FFFFFF" font-family="Verdana" font-size="12.5" lengthAdjust="spacing" textLength="131.25" x="68.75" y="1050.828">or is not accessible.</text><line style="stroke:#2196F3;stroke-width:1.0416666666666667;stroke-dasharray:2.0,2.0;" x1="19.7917" x2="1148.9583" y1="1078.776" y2="1078.776"/><text fill="#222222" font-family="Verdana" font-size="12.5" font-weight="bold" lengthAdjust="spacing" textLength="139.5833" x="35.4167" y="1100.7955">[Client-Side Errors]</text><path d="M288.5417,1122.4935 L623.9583,1122.4935 L623.9583,1149.5443 L613.5417,1159.9609 L284.375,1159.9609 L284.375,1126.6602 A4.1667,4.1667 0 0 1 288.5417,1122.4935 " fill="#FFFFFF" style="stroke:#666666;stroke-width:1.0416666666666667;"/><rect fill="none" height="166.5039" rx="4.1667" ry="4.1667" style="stroke:#2196F3;stroke-width:1.0416666666666667;" width="558.8542" x="284.375" y="1122.4935"/><text fill="#9C27B0" font-family="Verdana" font-size="12.5" font-weight="bold" lengthAdjust="spacing" textLength="271.875" x="310.4167" y="1145.5546">Authentication / Authorization Errors</text><polygon fill="#2196F3" points="397.3958,1211.9792,386.9792,1216.1458,397.3958,1220.3125,393.2292,1216.1458" style="stroke:#2196F3;stroke-width:1.0416666666666667;"/><line style="stroke:#2196F3;stroke-width:3.125;stroke-dasharray:2.0,2.0;" x1="391.1458" x2="707.8125" y1="1216.1458" y2="1216.1458"/><text fill="#222222" font-family="Verdana" font-size="12.5" font-weight="bold" lengthAdjust="spacing" textLength="8.3333" x="414.0625" y="1193.4224">8</text><text fill="#222222" font-family="Verdana" font-size="12.5" font-weight="bold" lengthAdjust="spacing" textLength="130.2083" x="447.3958" y="1186.1471">401 Unauthorized</text><text fill="#222222" font-family="Verdana" font-size="12.5" lengthAdjust="spacing" textLength="195.8333" x="447.3958" y="1200.6978">(e.g., Invalid or expired token)</text><polygon fill="#2196F3" points="397.3958,1276.4974,386.9792,1280.6641,397.3958,1284.8307,393.2292,1280.6641" style="stroke:#2196F3;stroke-width:1.0416666666666667;"/><line style="stroke:#2196F3;stroke-width:3.125;stroke-dasharray:2.0,2.0;" x1="391.1458" x2="707.8125" y1="1280.6641" y2="1280.6641"/><text fill="#222222" font-family="Verdana" font-size="12.5" font-weight="bold" lengthAdjust="spacing" textLength="8.3333" x="414.0625" y="1257.9407">9</text><text fill="#222222" font-family="Verdana" font-size="12.5" font-weight="bold" lengthAdjust="spacing" textLength="104.1667" x="447.3958" y="1250.6653">403 Forbidden</text><text fill="#222222" font-family="Verdana" font-size="12.5" lengthAdjust="spacing" textLength="196.875" x="447.3958" y="1265.2161">(e.g., Insufficient permissions)</text><path d="M288.5417,1303.5807 L546.875,1303.5807 L546.875,1330.6315 L536.4583,1341.0482 L284.375,1341.0482 L284.375,1307.7474 A4.1667,4.1667 0 0 1 288.5417,1303.5807 " fill="#FFFFFF" style="stroke:#666666;stroke-width:1.0416666666666667;"/><rect fill="none" height="166.5039" rx="4.1667" ry="4.1667" style="stroke:#2196F3;stroke-width:1.0416666666666667;" width="558.8542" x="284.375" y="1303.5807"/><text fill="#9C27B0" font-family="Verdana" font-size="12.5" font-weight="bold" lengthAdjust="spacing" textLength="194.7917" x="310.4167" y="1326.6418">Validation &amp; Format Errors</text><polygon fill="#2196F3" points="397.3958,1393.0664,386.9792,1397.2331,397.3958,1401.3997,393.2292,1397.2331" style="stroke:#2196F3;stroke-width:1.0416666666666667;"/><line style="stroke:#2196F3;stroke-width:3.125;stroke-dasharray:2.0,2.0;" x1="391.1458" x2="707.8125" y1="1397.2331" y2="1397.2331"/><text fill="#222222" font-family="Verdana" font-size="12.5" font-weight="bold" lengthAdjust="spacing" textLength="16.6667" x="414.0625" y="1374.5097">10</text><text fill="#222222" font-family="Verdana" font-size="12.5" font-weight="bold" lengthAdjust="spacing" textLength="122.9167" x="455.7292" y="1367.2343">400 Bad Request</text><text fill="#222222" font-family="Verdana" font-size="12.5" lengthAdjust="spacing" textLength="215.625" x="455.7292" y="1381.7851">(e.g., Invalid activation ID format)</text><polygon fill="#2196F3" points="397.3958,1457.5846,386.9792,1461.7513,397.3958,1465.918,393.2292,1461.7513" style="stroke:#2196F3;stroke-width:1.0416666666666667;"/><line style="stroke:#2196F3;stroke-width:3.125;stroke-dasharray:2.0,2.0;" x1="391.1458" x2="707.8125" y1="1461.7513" y2="1461.7513"/><text fill="#222222" font-family="Verdana" font-size="12.5" font-weight="bold" lengthAdjust="spacing" textLength="16.6667" x="414.0625" y="1439.0279">11</text><text fill="#222222" font-family="Verdana" font-size="12.5" font-weight="bold" lengthAdjust="spacing" textLength="140.625" x="455.7292" y="1431.7525">406 Not Acceptable</text><text fill="#222222" font-family="Verdana" font-size="12.5" lengthAdjust="spacing" textLength="235.4167" x="455.7292" y="1446.3033">(e.g., Unsupported 'Accept' header)</text><path d="M288.5417,1484.668 L448.9583,1484.668 L448.9583,1511.7188 L438.5417,1522.1354 L284.375,1522.1354 L284.375,1488.8346 A4.1667,4.1667 0 0 1 288.5417,1484.668 " fill="#FFFFFF" style="stroke:#666666;stroke-width:1.0416666666666667;"/><rect fill="none" height="87.4349" rx="4.1667" ry="4.1667" style="stroke:#2196F3;stroke-width:1.0416666666666667;" width="558.8542" x="284.375" y="1484.668"/><text fill="#9C27B0" font-family="Verdana" font-size="12.5" font-weight="bold" lengthAdjust="spacing" textLength="96.875" x="310.4167" y="1507.7291">Rate Limiting</text><polygon fill="#2196F3" points="397.3958,1559.6029,386.9792,1563.7695,397.3958,1567.9362,393.2292,1563.7695" style="stroke:#2196F3;stroke-width:1.0416666666666667;"/><line style="stroke:#2196F3;stroke-width:3.125;stroke-dasharray:2.0,2.0;" x1="391.1458" x2="707.8125" y1="1563.7695" y2="1563.7695"/><text fill="#222222" font-family="Verdana" font-size="12.5" font-weight="bold" lengthAdjust="spacing" textLength="16.6667" x="414.0625" y="1548.3215">12</text><text fill="#222222" font-family="Verdana" font-size="12.5" font-weight="bold" lengthAdjust="spacing" textLength="173.9583" x="455.7292" y="1548.3215">429 Too Many Requests</text><line style="stroke:#2196F3;stroke-width:1.0416666666666667;stroke-dasharray:2.0,2.0;" x1="19.7917" x2="1148.9583" y1="1580.4362" y2="1580.4362"/><text fill="#222222" font-family="Verdana" font-size="12.5" font-weight="bold" lengthAdjust="spacing" textLength="136.4583" x="35.4167" y="1602.4556">[Server-Side Error]</text><line style="stroke:#2196F3;stroke-width:3.125;" x1="719.2708" x2="763.0208" y1="1658.4961" y2="1658.4961"/><line style="stroke:#2196F3;stroke-width:3.125;" x1="763.0208" x2="763.0208" y1="1658.4961" y2="1672.0378"/><line style="stroke:#2196F3;stroke-width:3.125;" x1="720.3125" x2="763.0208" y1="1672.0378" y2="1672.0378"/><polygon fill="#2196F3" points="730.7292,1667.8711,720.3125,1672.0378,730.7292,1676.2044,726.5625,1672.0378" style="stroke:#2196F3;stroke-width:1.0416666666666667;"/><text fill="#222222" font-family="Verdana" font-size="12.5" font-weight="bold" lengthAdjust="spacing" textLength="16.6667" x="736.9792" y="1643.0481">13</text><text fill="#222222" font-family="Verdana" font-size="12.5" lengthAdjust="spacing" textLength="236.4583" x="778.6458" y="1643.0481">An unexpected internal error occurs</text><path d="M723.9583,1689.7461 L723.9583,1726.2044 A4.1667,4.1667 0 0 0 728.125,1730.3711 L1131.25,1730.3711 A4.1667,4.1667 0 0 0 1135.4167,1726.2044 L1135.4167,1695.9961 L1125,1685.5794 L728.125,1685.5794 A4.1667,4.1667 0 0 0 723.9583,1689.7461 " fill="url(#grd99dmo6p71z2)" filter="url(#frd99dmo6p71z)" style="stroke:#9C27B0;stroke-width:1.0416666666666667;"/><path d="M1125,1685.5794 L1125,1693.9128 A2.0833,2.0833 0 0 0 1127.0833,1695.9961 L1135.4167,1695.9961 L1125,1685.5794 " fill="url(#grd99dmo6p71z2)" style="stroke:#9C27B0;stroke-width:1.0416666666666667;"/><text fill="#FFFFFF" font-family="Verdana" font-size="12.5" lengthAdjust="spacing" textLength="368.75" x="740.625" y="1712.8072">e.g., Database connection failure, unhandled exception.</text><polygon fill="#2196F3" points="397.3958,1777.181,386.9792,1781.3477,397.3958,1785.5143,393.2292,1781.3477" style="stroke:#2196F3;stroke-width:1.0416666666666667;"/><line style="stroke:#2196F3;stroke-width:3.125;stroke-dasharray:2.0,2.0;" x1="391.1458" x2="707.8125" y1="1781.3477" y2="1781.3477"/><text fill="#222222" font-family="Verdana" font-size="12.5" font-weight="bold" lengthAdjust="spacing" textLength="16.6667" x="414.0625" y="1765.8997">14</text><text fill="#222222" font-family="Verdana" font-size="12.5" font-weight="bold" lengthAdjust="spacing" textLength="180.2083" x="455.7292" y="1765.8997">500 Internal Server Error</text><!--SRC=[nLNHJXf157tVhxZLH2fHH6kRb8ScLDIGQYK8FlN1OVS2DmupsvbPa3RzzzwP1NOHqBxLXCJTcJdtd7lEtAr0Hmhb-hStq28nCc82GssWs-l0DJfenewcmf5MqEoqemhqo4biR5k_nvyPgXYNEBpv0OtbfGQSrkgrEhzeeOqDfIwyx8t9Gh8eQiTwPi6D4LAZOxGsq13G4NCq5SlePaeCtZ5wIWaQ1blxSneCEaCuHH0gy1C5DuEnDaajYjvnXGd2H3Wq9AB8UJbXzxhI1bnVzk2aWB0dluk7Tl8dYlYH6Uxj8hW7maBdlXEbmZYAAUKkmzvcfR3FzpOIcTCgcmnONCG7uVZBFp7veTvx9zQH3wF57ionbUR_38t63lGml0AeLkzID65xerg5nn6w0k0nR2ZxnLkQE-s0M4Zf_MDBrwm0cs9CGugtsO4g0S-CjKi7-wcGE3A8dAKi3Xcu49ONlRzCUTMGqney24c9LzVrgRCE3fXId1boS-Zf9rGRXyvgS4LSpqTimGcJ4gbmOADDZR9RGvqnWE1VPbaoIsNBnjhGBsGngu9SaUrhSFlEwdMu-rQjiaLTT9bHjjo519qWQG-BoXA7eR2FpJBOFUQxqJgO2LkYOmBuaaJHLPGMOLzwFNEKKi_WktPmvS_zrwwkn1sNspiZDmv08vfo1jejI3HQVnhmcQohbOxTTQ6_yC2l5pxuz4q9PtaK2o8lMhF5hFFwUT6UQlLjLxRfXLXdCjI00UOEhSxeWcv8Dmqalk8O-omaN4X2vOxl-PB1fJ7QsDovaT5P2atMpSiKvyLFmWlVYFnvSM19O4FmAVHLqRgGKwoDQaVGLbCV1KyPdrCoeQ_i_-5kh0_SE3EW946r1cIp8Tz-Bm9usap8-Y_28lHUTn1IrhG8eUT_u35vLhyff0vVHR9CxHOT9OCuLiC0-egMJo48JNOfTO9TAY7sML2QQkEu9PLyHmN6A7W6lgAfwo_L3Kt8aHhjh7lscM-PXbkXvaijTX744ceUaKIO9s-B7yHeIldOlDXD1PbY6p7sf4dnfqznij3l1Xtp_RQxXb-kkIMu2po9ETnACKgOXJowCeD733tc4IGP6PzzDrPtxOMwZsnIUraxPvqJPeN-Gn152Qvzi_u2]--></g></svg>