<?xml version="1.0" encoding="us-ascii" standalone="no"?><svg xmlns="http://www.w3.org/2000/svg" xmlns:xlink="http://www.w3.org/1999/xlink" contentStyleType="text/css" height="1946.875px" preserveAspectRatio="none" style="width:1923px;height:1946px;" version="1.1" viewBox="0 0 1923 1946" width="1923.9583px" zoomAndPan="magnify"><defs><linearGradient id="g1oypit8vzu47a0" x1="50%" x2="50%" y1="0%" y2="100%"><stop offset="0%" stop-color="#FFFFFF"/><stop offset="100%" stop-color="#FFFFFF"/></linearGradient><filter height="300%" id="f1oypit8vzu47a" width="300%" x="-1" y="-1"><feGaussianBlur result="blurOut" stdDeviation="2.0833333333333335"/><feColorMatrix in="blurOut" result="blurOut2" type="matrix" values="0 0 0 0 0 0 0 0 0 0 0 0 0 0 0 0 0 0 .4 0"/><feOffset dx="4.166666666666667" dy="4.166666666666667" in="blurOut2" result="blurOut3"/><feBlend in="SourceGraphic" in2="blurOut3" mode="normal"/></filter><linearGradient id="g1oypit8vzu47a1" x1="50%" x2="50%" y1="0%" y2="100%"><stop offset="0%" stop-color="#4DABF5"/><stop offset="100%" stop-color="#2196F3"/></linearGradient><linearGradient id="g1oypit8vzu47a2" x1="50%" x2="50%" y1="0%" y2="100%"><stop offset="0%" stop-color="#B052C0"/><stop offset="100%" stop-color="#9C27B0"/></linearGradient></defs><g><rect fill="url(#g1oypit8vzu47a0)" height="57.5846" id="_title" rx="4.1667" ry="4.1667" style="stroke:#CCCCCC;stroke-width:1.0416666666666667;" width="461.4583" x="732.2917" y="20.8333"/><text fill="#2196F3" font-family="Verdana" font-size="20.8333" font-weight="bold" lengthAdjust="spacing" textLength="428.125" x="748.9583" y="56.838">RTP Activation API: GET /activations</text><rect fill="#FFFFFF" filter="url(#f1oypit8vzu47a)" height="1584.3424" style="stroke:#CCCCCC;stroke-width:1.0416666666666667;" width="10.4167" x="631.7708" y="243.9779"/><rect fill="#FFFFFF" filter="url(#f1oypit8vzu47a)" height="268.5872" style="stroke:#CCCCCC;stroke-width:1.0416666666666667;" width="10.4167" x="1129.6875" y="618.7174"/><rect fill="#FFFFFF" filter="url(#f1oypit8vzu47a)" height="109.3099" style="stroke:#CCCCCC;stroke-width:1.0416666666666667;" width="10.4167" x="1494.2708" y="728.0273"/><rect fill="#98FB98" filter="url(#f1oypit8vzu47a)" height="1424.0234" rx="4.1667" ry="4.1667" style="stroke:#2196F3;stroke-width:1.0416666666666667;" width="1886.4583" x="19.7917" y="397.0052"/><path d="M19.7917,1216.2435 L1906.25,1216.2435 L1906.25,1816.862 A4.1667,4.1667 0 0 1 1902.0833,1821.0286 L23.9583,1821.0286 A4.1667,4.1667 0 0 1 19.7917,1816.862 L19.7917,1216.2435 " fill="#8B0000" style="stroke:none;stroke-width:1.0416666666666667;"/><rect fill="url(#g1oypit8vzu47a0)" filter="url(#f1oypit8vzu47a)" height="146.7773" rx="4.1667" ry="4.1667" style="stroke:#2196F3;stroke-width:1.0416666666666667;" width="853.125" x="160.4167" y="1261.0026"/><rect fill="url(#g1oypit8vzu47a0)" filter="url(#f1oypit8vzu47a)" height="166.5039" rx="4.1667" ry="4.1667" style="stroke:#2196F3;stroke-width:1.0416666666666667;" width="613.5417" x="160.4167" y="1422.3633"/><rect fill="url(#g1oypit8vzu47a0)" filter="url(#f1oypit8vzu47a)" height="210.2865" rx="4.1667" ry="4.1667" style="stroke:#2196F3;stroke-width:1.0416666666666667;" width="810.9375" x="160.4167" y="1603.4505"/><line style="stroke:#CCCCCC;stroke-width:1.0416666666666667;stroke-dasharray:5.0,5.0;" x1="272.9167" x2="272.9167" y1="191.9271" y2="1838.737"/><line style="stroke:#CCCCCC;stroke-width:1.0416666666666667;stroke-dasharray:5.0,5.0;" x1="636.4583" x2="636.4583" y1="191.9271" y2="1838.737"/><line style="stroke:#CCCCCC;stroke-width:1.0416666666666667;stroke-dasharray:5.0,5.0;" x1="1134.375" x2="1134.375" y1="191.9271" y2="1838.737"/><line style="stroke:#CCCCCC;stroke-width:1.0416666666666667;stroke-dasharray:5.0,5.0;" x1="1498.9583" x2="1498.9583" y1="191.9271" y2="1838.737"/><text fill="#222222" font-family="Verdana" font-size="12.5" font-weight="bold" lengthAdjust="spacing" textLength="178.125" x="181.25" y="178.5624">Payer's Service Provider</text><ellipse cx="273.4375" cy="99.2513" fill="url(#g1oypit8vzu47a1)" filter="url(#f1oypit8vzu47a)" rx="8.3333" ry="8.3333" style="stroke:#2196F3;stroke-width:1.0416666666666667;"/><path d="M273.4375,107.5846 L273.4375,135.7096 M259.8958,115.918 L286.9792,115.918 M273.4375,135.7096 L259.8958,151.3346 M273.4375,135.7096 L286.9792,151.3346 " fill="none" filter="url(#f1oypit8vzu47a)" style="stroke:#2196F3;stroke-width:1.0416666666666667;"/><text fill="#222222" font-family="Verdana" font-size="12.5" font-weight="bold" lengthAdjust="spacing" textLength="178.125" x="181.25" y="1859.7148">Payer's Service Provider</text><ellipse cx="273.4375" cy="1882.4544" fill="url(#g1oypit8vzu47a1)" filter="url(#f1oypit8vzu47a)" rx="8.3333" ry="8.3333" style="stroke:#2196F3;stroke-width:1.0416666666666667;"/><path d="M273.4375,1890.7878 L273.4375,1918.9128 M259.8958,1899.1211 L286.9792,1899.1211 M273.4375,1918.9128 L259.8958,1934.5378 M273.4375,1918.9128 L286.9792,1934.5378 " fill="none" filter="url(#f1oypit8vzu47a)" style="stroke:#2196F3;stroke-width:1.0416666666666667;"/><rect fill="url(#g1oypit8vzu47a1)" filter="url(#f1oypit8vzu47a)" height="64.5182" rx="4.1667" ry="4.1667" style="stroke:#2196F3;stroke-width:1.0416666666666667;" width="166.6667" x="552.0833" y="123.2422"/><rect fill="#FFFFFF" height="3.6458" style="stroke:#FFFFFF;stroke-width:0.0;" width="3.6458" x="579.1667" y="145.0846"/><text fill="#FFFFFF" font-family="Verdana" font-size="12.5" lengthAdjust="spacing" textLength="114.5833" x="586.4583" y="152.5533">Activation Service</text><text fill="#FFFFFF" font-family="Verdana" font-size="12.5" lengthAdjust="spacing" textLength="110.4167" x="580.2083" y="167.1041">(API/Controller)**</text><rect fill="url(#g1oypit8vzu47a1)" filter="url(#f1oypit8vzu47a)" height="64.5182" rx="4.1667" ry="4.1667" style="stroke:#2196F3;stroke-width:1.0416666666666667;" width="166.6667" x="552.0833" y="1837.6953"/><rect fill="#FFFFFF" height="3.6458" style="stroke:#FFFFFF;stroke-width:0.0;" width="3.6458" x="579.1667" y="1859.5378"/><text fill="#FFFFFF" font-family="Verdana" font-size="12.5" lengthAdjust="spacing" textLength="114.5833" x="586.4583" y="1867.0064">Activation Service</text><text fill="#FFFFFF" font-family="Verdana" font-size="12.5" lengthAdjust="spacing" textLength="110.4167" x="580.2083" y="1881.5572">(API/Controller)**</text><rect fill="url(#g1oypit8vzu47a1)" filter="url(#f1oypit8vzu47a)" height="64.5182" rx="4.1667" ry="4.1667" style="stroke:#2196F3;stroke-width:1.0416666666666667;" width="154.1667" x="1056.25" y="123.2422"/><rect fill="#FFFFFF" height="3.6458" style="stroke:#FFFFFF;stroke-width:0.0;" width="3.6458" x="1090.625" y="145.0846"/><text fill="#FFFFFF" font-family="Verdana" font-size="12.5" lengthAdjust="spacing" textLength="87.5" x="1097.9167" y="152.5533">Payer Service</text><text fill="#FFFFFF" font-family="Verdana" font-size="12.5" lengthAdjust="spacing" textLength="118.75" x="1073.9583" y="167.1041">(Business Logic)**</text><rect fill="url(#g1oypit8vzu47a1)" filter="url(#f1oypit8vzu47a)" height="64.5182" rx="4.1667" ry="4.1667" style="stroke:#2196F3;stroke-width:1.0416666666666667;" width="154.1667" x="1056.25" y="1837.6953"/><rect fill="#FFFFFF" height="3.6458" style="stroke:#FFFFFF;stroke-width:0.0;" width="3.6458" x="1090.625" y="1859.5378"/><text fill="#FFFFFF" font-family="Verdana" font-size="12.5" lengthAdjust="spacing" textLength="87.5" x="1097.9167" y="1867.0064">Payer Service</text><text fill="#FFFFFF" font-family="Verdana" font-size="12.5" lengthAdjust="spacing" textLength="118.75" x="1073.9583" y="1881.5572">(Business Logic)**</text><text fill="#222222" font-family="Verdana" font-size="12.5" font-weight="bold" lengthAdjust="spacing" textLength="71.875" x="1460.4167" y="178.5624">Database</text><path d="M1480.7292,119.043 C1480.7292,108.6263 1499.4792,108.6263 1499.4792,108.6263 C1499.4792,108.6263 1518.2292,108.6263 1518.2292,119.043 L1518.2292,146.1263 C1518.2292,156.543 1499.4792,156.543 1499.4792,156.543 C1499.4792,156.543 1480.7292,156.543 1480.7292,146.1263 L1480.7292,119.043 " fill="url(#g1oypit8vzu47a1)" filter="url(#f1oypit8vzu47a)" style="stroke:#2196F3;stroke-width:1.5625;"/><path d="M1480.7292,119.043 C1480.7292,129.4596 1499.4792,129.4596 1499.4792,129.4596 C1499.4792,129.4596 1518.2292,129.4596 1518.2292,119.043 " fill="none" style="stroke:#2196F3;stroke-width:1.5625;"/><text fill="#222222" font-family="Verdana" font-size="12.5" font-weight="bold" lengthAdjust="spacing" textLength="71.875" x="1460.4167" y="1859.7148">Database</text><path d="M1480.7292,1883.4961 C1480.7292,1873.0794 1499.4792,1873.0794 1499.4792,1873.0794 C1499.4792,1873.0794 1518.2292,1873.0794 1518.2292,1883.4961 L1518.2292,1910.5794 C1518.2292,1920.9961 1499.4792,1920.9961 1499.4792,1920.9961 C1499.4792,1920.9961 1480.7292,1920.9961 1480.7292,1910.5794 L1480.7292,1883.4961 " fill="url(#g1oypit8vzu47a1)" filter="url(#f1oypit8vzu47a)" style="stroke:#2196F3;stroke-width:1.5625;"/><path d="M1480.7292,1883.4961 C1480.7292,1893.9128 1499.4792,1893.9128 1499.4792,1893.9128 C1499.4792,1893.9128 1518.2292,1893.9128 1518.2292,1883.4961 " fill="none" style="stroke:#2196F3;stroke-width:1.5625;"/><rect fill="#FFFFFF" filter="url(#f1oypit8vzu47a)" height="1584.3424" style="stroke:#CCCCCC;stroke-width:1.0416666666666667;" width="10.4167" x="631.7708" y="243.9779"/><rect fill="#FFFFFF" filter="url(#f1oypit8vzu47a)" height="268.5872" style="stroke:#CCCCCC;stroke-width:1.0416666666666667;" width="10.4167" x="1129.6875" y="618.7174"/><rect fill="#FFFFFF" filter="url(#f1oypit8vzu47a)" height="109.3099" style="stroke:#CCCCCC;stroke-width:1.0416666666666667;" width="10.4167" x="1494.2708" y="728.0273"/><polygon fill="#2196F3" points="619.2708,239.8112,629.6875,243.9779,619.2708,248.1445,623.4375,243.9779" style="stroke:#2196F3;stroke-width:1.0416666666666667;"/><line style="stroke:#2196F3;stroke-width:3.125;" x1="273.4375" x2="625.5208" y1="243.9779" y2="243.9779"/><text fill="#222222" font-family="Verdana" font-size="12.5" font-weight="bold" lengthAdjust="spacing" textLength="18.75" x="291.1458" y="228.5299">[1]</text><text fill="#222222" font-family="Verdana" font-size="12.5" font-weight="bold" lengthAdjust="spacing" textLength="27.0833" x="334.8958" y="228.5299">GET</text><text fill="#222222" font-family="Verdana" font-size="12.5" lengthAdjust="spacing" textLength="194.7917" x="366.1458" y="228.5299">/activations?page=0&amp;size=20</text><line style="stroke:#2196F3;stroke-width:3.125;" x1="642.1875" x2="685.9375" y1="293.9453" y2="293.9453"/><line style="stroke:#2196F3;stroke-width:3.125;" x1="685.9375" x2="685.9375" y1="293.9453" y2="307.487"/><line style="stroke:#2196F3;stroke-width:3.125;" x1="643.2292" x2="685.9375" y1="307.487" y2="307.487"/><polygon fill="#2196F3" points="653.6458,303.3203,643.2292,307.487,653.6458,311.6536,649.4792,307.487" style="stroke:#2196F3;stroke-width:1.0416666666666667;"/><text fill="#222222" font-family="Verdana" font-size="12.5" font-weight="bold" lengthAdjust="spacing" textLength="18.75" x="659.8958" y="278.4973">[2]</text><text fill="#222222" font-family="Verdana" font-size="12.5" font-weight="bold" lengthAdjust="spacing" textLength="159.375" x="703.6458" y="278.4973">Security &amp; Role Check</text><path d="M646.875,325.1953 L646.875,376.237 A4.1667,4.1667 0 0 0 651.0417,380.4036 L941.6667,380.4036 A4.1667,4.1667 0 0 0 945.8333,376.237 L945.8333,331.4453 L935.4167,321.0286 L651.0417,321.0286 A4.1667,4.1667 0 0 0 646.875,325.1953 " fill="url(#g1oypit8vzu47a2)" filter="url(#f1oypit8vzu47a)" style="stroke:#9C27B0;stroke-width:1.0416666666666667;"/><path d="M935.4167,321.0286 L935.4167,329.362 A2.0833,2.0833 0 0 0 937.5,331.4453 L945.8333,331.4453 L935.4167,321.0286 " fill="url(#g1oypit8vzu47a2)" style="stroke:#9C27B0;stroke-width:1.0416666666666667;"/><text fill="#FFFFFF" font-family="Verdana" font-size="12.5" lengthAdjust="spacing" textLength="256.25" x="663.5417" y="348.2564">Framework validates token &amp; user role.</text><text fill="#FFFFFF" font-family="Verdana" font-size="12.5" lengthAdjust="spacing" textLength="240.625" x="663.5417" y="362.8072">Corresponds to `@PreAuthorize(...)`.</text><path d="M23.9583,397.0052 L107.2917,397.0052 L107.2917,424.056 L96.875,434.4727 L19.7917,434.4727 L19.7917,401.1719 A4.1667,4.1667 0 0 1 23.9583,397.0052 " fill="#FFFFFF" style="stroke:#666666;stroke-width:1.0416666666666667;"/><rect fill="none" height="1424.0234" rx="4.1667" ry="4.1667" style="stroke:#2196F3;stroke-width:1.0416666666666667;" width="1886.4583" x="19.7917" y="397.0052"/><text fill="#9C27B0" font-family="Verdana" font-size="12.5" font-weight="bold" lengthAdjust="spacing" textLength="19.7917" x="45.8333" y="420.0663">alt</text><text fill="#222222" font-family="Verdana" font-size="12.5" font-weight="bold" lengthAdjust="spacing" textLength="5.2083" x="133.3333" y="421.108">[</text><text fill="#222222" font-family="Verdana" font-size="12.5" font-weight="bold" lengthAdjust="spacing" textLength="296.875" x="138.5417" y="421.108">Success Case: Activations List Retrieved</text><text fill="#222222" font-family="Verdana" font-size="12.5" font-weight="bold" lengthAdjust="spacing" textLength="5.2083" x="435.4167" y="421.108">]</text><line style="stroke:#2196F3;stroke-width:3.125;" x1="642.1875" x2="685.9375" y1="495.8659" y2="495.8659"/><line style="stroke:#2196F3;stroke-width:3.125;" x1="685.9375" x2="685.9375" y1="495.8659" y2="509.4076"/><line style="stroke:#2196F3;stroke-width:3.125;" x1="643.2292" x2="685.9375" y1="509.4076" y2="509.4076"/><polygon fill="#2196F3" points="653.6458,505.2409,643.2292,509.4076,653.6458,513.5742,649.4792,509.4076" style="stroke:#2196F3;stroke-width:1.0416666666666667;"/><text fill="#222222" font-family="Verdana" font-size="12.5" font-weight="bold" lengthAdjust="spacing" textLength="18.75" x="659.8958" y="480.4179">[3]</text><text fill="#222222" font-family="Verdana" font-size="12.5" lengthAdjust="spacing" textLength="298.9583" x="703.6458" y="480.4179">Get `serviceProvider` ID from Security Context</text><path d="M646.875,527.1159 L646.875,563.5742 A4.1667,4.1667 0 0 0 651.0417,567.7409 L1030.2083,567.7409 A4.1667,4.1667 0 0 0 1034.375,563.5742 L1034.375,533.3659 L1023.9583,522.9492 L651.0417,522.9492 A4.1667,4.1667 0 0 0 646.875,527.1159 " fill="url(#g1oypit8vzu47a2)" filter="url(#f1oypit8vzu47a)" style="stroke:#9C27B0;stroke-width:1.0416666666666667;"/><path d="M1023.9583,522.9492 L1023.9583,531.2826 A2.0833,2.0833 0 0 0 1026.0417,533.3659 L1034.375,533.3659 L1023.9583,522.9492 " fill="url(#g1oypit8vzu47a2)" style="stroke:#9C27B0;stroke-width:1.0416666666666667;"/><text fill="#FFFFFF" font-family="Verdana" font-size="12.5" lengthAdjust="spacing" textLength="344.7917" x="663.5417" y="550.177">As per `ReactiveSecurityContextHolder.getContext()`</text><polygon fill="#2196F3" points="1117.1875,614.5508,1127.6042,618.7174,1117.1875,622.8841,1121.3542,618.7174" style="stroke:#2196F3;stroke-width:1.0416666666666667;"/><line style="stroke:#2196F3;stroke-width:3.125;" x1="642.1875" x2="1123.4375" y1="618.7174" y2="618.7174"/><text fill="#222222" font-family="Verdana" font-size="12.5" font-weight="bold" lengthAdjust="spacing" textLength="18.75" x="659.8958" y="603.2694">[4]</text><text fill="#222222" font-family="Verdana" font-size="12.5" lengthAdjust="spacing" textLength="403.125" x="703.6458" y="603.2694">`getActivationsByServiceProvider(serviceProvider, page, size)`</text><path d="M646.875,636.4258 L646.875,672.8841 A4.1667,4.1667 0 0 0 651.0417,677.0508 L979.1667,677.0508 A4.1667,4.1667 0 0 0 983.3333,672.8841 L983.3333,642.6758 L972.9167,632.2591 L651.0417,632.2591 A4.1667,4.1667 0 0 0 646.875,636.4258 " fill="url(#g1oypit8vzu47a2)" filter="url(#f1oypit8vzu47a)" style="stroke:#9C27B0;stroke-width:1.0416666666666667;"/><path d="M972.9167,632.2591 L972.9167,640.5924 A2.0833,2.0833 0 0 0 975,642.6758 L983.3333,642.6758 L972.9167,632.2591 " fill="url(#g1oypit8vzu47a2)" style="stroke:#9C27B0;stroke-width:1.0416666666666667;"/><text fill="#FFFFFF" font-family="Verdana" font-size="12.5" lengthAdjust="spacing" textLength="293.75" x="663.5417" y="659.4869">The controller delegates to the service layer.</text><polygon fill="#2196F3" points="1481.7708,723.8607,1492.1875,728.0273,1481.7708,732.194,1485.9375,728.0273" style="stroke:#2196F3;stroke-width:1.0416666666666667;"/><line style="stroke:#2196F3;stroke-width:3.125;" x1="1140.1042" x2="1488.0208" y1="728.0273" y2="728.0273"/><text fill="#222222" font-family="Verdana" font-size="12.5" font-weight="bold" lengthAdjust="spacing" textLength="18.75" x="1157.8125" y="712.5793">[5]</text><text fill="#222222" font-family="Verdana" font-size="12.5" lengthAdjust="spacing" textLength="242.7083" x="1201.5625" y="712.5793">`getActivationsByServiceProvider(...)`</text><path d="M1509.375,745.7357 L1509.375,782.194 A4.1667,4.1667 0 0 0 1513.5417,786.3607 L1888.5417,786.3607 A4.1667,4.1667 0 0 0 1892.7083,782.194 L1892.7083,751.9857 L1882.2917,741.569 L1513.5417,741.569 A4.1667,4.1667 0 0 0 1509.375,745.7357 " fill="url(#g1oypit8vzu47a2)" filter="url(#f1oypit8vzu47a)" style="stroke:#9C27B0;stroke-width:1.0416666666666667;"/><path d="M1882.2917,741.569 L1882.2917,749.9023 A2.0833,2.0833 0 0 0 1884.375,751.9857 L1892.7083,751.9857 L1882.2917,741.569 " fill="url(#g1oypit8vzu47a2)" style="stroke:#9C27B0;stroke-width:1.0416666666666667;"/><text fill="#FFFFFF" font-family="Verdana" font-size="12.5" lengthAdjust="spacing" textLength="340.625" x="1526.0417" y="768.7968">Query is filtered by `serviceProvider` and paginated.</text><polygon fill="#2196F3" points="1151.5625,833.1706,1141.1458,837.3372,1151.5625,841.5039,1147.3958,837.3372" style="stroke:#2196F3;stroke-width:1.0416666666666667;"/><line style="stroke:#2196F3;stroke-width:3.125;stroke-dasharray:2.0,2.0;" x1="1145.3125" x2="1498.4375" y1="837.3372" y2="837.3372"/><text fill="#222222" font-family="Verdana" font-size="12.5" font-weight="bold" lengthAdjust="spacing" textLength="18.75" x="1168.2292" y="821.8892">[6]</text><text fill="#222222" font-family="Verdana" font-size="12.5" lengthAdjust="spacing" textLength="264.5833" x="1211.9792" y="821.8892">Returns `List&lt;Payer&gt;` and `total count`</text><polygon fill="#2196F3" points="653.6458,883.138,643.2292,887.3047,653.6458,891.4714,649.4792,887.3047" style="stroke:#2196F3;stroke-width:1.0416666666666667;"/><line style="stroke:#2196F3;stroke-width:3.125;stroke-dasharray:2.0,2.0;" x1="647.3958" x2="1133.8542" y1="887.3047" y2="887.3047"/><text fill="#222222" font-family="Verdana" font-size="12.5" font-weight="bold" lengthAdjust="spacing" textLength="18.75" x="670.3125" y="871.8567">[7]</text><text fill="#222222" font-family="Verdana" font-size="12.5" lengthAdjust="spacing" textLength="195.8333" x="714.0625" y="871.8567">`Tuple2&lt;List&lt;Payer&gt;, Long&gt;`</text><path d="M1139.5833,905.013 L1139.5833,941.4714 A4.1667,4.1667 0 0 0 1143.75,945.638 L1480.2083,945.638 A4.1667,4.1667 0 0 0 1484.375,941.4714 L1484.375,911.263 L1473.9583,900.8464 L1143.75,900.8464 A4.1667,4.1667 0 0 0 1139.5833,905.013 " fill="url(#g1oypit8vzu47a2)" filter="url(#f1oypit8vzu47a)" style="stroke:#9C27B0;stroke-width:1.0416666666666667;"/><path d="M1473.9583,900.8464 L1473.9583,909.1797 A2.0833,2.0833 0 0 0 1476.0417,911.263 L1484.375,911.263 L1473.9583,900.8464 " fill="url(#g1oypit8vzu47a2)" style="stroke:#9C27B0;stroke-width:1.0416666666666667;"/><text fill="#FFFFFF" font-family="Verdana" font-size="12.5" lengthAdjust="spacing" textLength="302.0833" x="1156.25" y="928.0741">The service successfully returns the DB result.</text><line style="stroke:#2196F3;stroke-width:3.125;" x1="642.1875" x2="685.9375" y1="996.6146" y2="996.6146"/><line style="stroke:#2196F3;stroke-width:3.125;" x1="685.9375" x2="685.9375" y1="996.6146" y2="1010.1563"/><line style="stroke:#2196F3;stroke-width:3.125;" x1="643.2292" x2="685.9375" y1="1010.1563" y2="1010.1563"/><polygon fill="#2196F3" points="653.6458,1005.9896,643.2292,1010.1563,653.6458,1014.3229,649.4792,1010.1563" style="stroke:#2196F3;stroke-width:1.0416666666666667;"/><text fill="#222222" font-family="Verdana" font-size="12.5" font-weight="bold" lengthAdjust="spacing" textLength="18.75" x="659.8958" y="981.1666">[8]</text><text fill="#222222" font-family="Verdana" font-size="12.5" lengthAdjust="spacing" textLength="251.0417" x="703.6458" y="981.1666">Map results to `PageOfActivationsDto`</text><path d="M646.875,1027.8646 L646.875,1064.3229 A4.1667,4.1667 0 0 0 651.0417,1068.4896 L1035.4167,1068.4896 A4.1667,4.1667 0 0 0 1039.5833,1064.3229 L1039.5833,1034.1146 L1029.1667,1023.6979 L651.0417,1023.6979 A4.1667,4.1667 0 0 0 646.875,1027.8646 " fill="url(#g1oypit8vzu47a2)" filter="url(#f1oypit8vzu47a)" style="stroke:#9C27B0;stroke-width:1.0416666666666667;"/><path d="M1029.1667,1023.6979 L1029.1667,1032.0313 A2.0833,2.0833 0 0 0 1031.25,1034.1146 L1039.5833,1034.1146 L1029.1667,1023.6979 " fill="url(#g1oypit8vzu47a2)" style="stroke:#9C27B0;stroke-width:1.0416666666666667;"/><text fill="#FFFFFF" font-family="Verdana" font-size="12.5" lengthAdjust="spacing" textLength="350" x="663.5417" y="1050.9257">Corresponds to `activationDtoMapper.toPageDto(...)`</text><polygon fill="#2196F3" points="284.8958,1129.8503,274.4792,1134.0169,284.8958,1138.1836,280.7292,1134.0169" style="stroke:#2196F3;stroke-width:1.0416666666666667;"/><line style="stroke:#2196F3;stroke-width:3.125;stroke-dasharray:2.0,2.0;" x1="278.6458" x2="630.7292" y1="1134.0169" y2="1134.0169"/><text fill="#222222" font-family="Verdana" font-size="12.5" font-weight="bold" lengthAdjust="spacing" textLength="18.75" x="301.5625" y="1111.2935">[9]</text><text fill="#222222" font-family="Verdana" font-size="12.5" font-weight="bold" lengthAdjust="spacing" textLength="50" x="345.3125" y="1104.0181">200 OK</text><text fill="#222222" font-family="Verdana" font-size="12.5" lengthAdjust="spacing" textLength="218.75" x="345.3125" y="1118.5689">(Returns `PageOfActivationsDto`)</text><path d="M30.2083,1151.7253 L30.2083,1202.7669 A4.1667,4.1667 0 0 0 34.375,1206.9336 L260.4167,1206.9336 A4.1667,4.1667 0 0 0 264.5833,1202.7669 L264.5833,1157.9753 L254.1667,1147.5586 L34.375,1147.5586 A4.1667,4.1667 0 0 0 30.2083,1151.7253 " fill="url(#g1oypit8vzu47a2)" filter="url(#f1oypit8vzu47a)" style="stroke:#9C27B0;stroke-width:1.0416666666666667;"/><path d="M254.1667,1147.5586 L254.1667,1155.8919 A2.0833,2.0833 0 0 0 256.25,1157.9753 L264.5833,1157.9753 L254.1667,1147.5586 " fill="url(#g1oypit8vzu47a2)" style="stroke:#9C27B0;stroke-width:1.0416666666666667;"/><text fill="#FFFFFF" font-family="Verdana" font-size="12.5" lengthAdjust="spacing" textLength="191.6667" x="46.875" y="1174.7864">A paginated list of accessible</text><text fill="#FFFFFF" font-family="Verdana" font-size="12.5" lengthAdjust="spacing" textLength="151.0417" x="46.875" y="1189.3372">activations is returned.</text><line style="stroke:#2196F3;stroke-width:1.0416666666666667;stroke-dasharray:2.0,2.0;" x1="19.7917" x2="1906.25" y1="1217.2852" y2="1217.2852"/><text fill="#222222" font-family="Verdana" font-size="12.5" font-weight="bold" lengthAdjust="spacing" textLength="5.2083" x="35.4167" y="1239.3046">[</text><text fill="#222222" font-family="Verdana" font-size="12.5" font-weight="bold" lengthAdjust="spacing" textLength="85.4167" x="40.625" y="1239.3046">Error Cases</text><text fill="#222222" font-family="Verdana" font-size="12.5" font-weight="bold" lengthAdjust="spacing" textLength="5.2083" x="126.0417" y="1239.3046">]</text><path d="M164.5833,1261.0026 L491.6667,1261.0026 L491.6667,1288.0534 L481.25,1298.4701 L160.4167,1298.4701 L160.4167,1265.1693 A4.1667,4.1667 0 0 1 164.5833,1261.0026 " fill="#FFFFFF" style="stroke:#666666;stroke-width:1.0416666666666667;"/><rect fill="none" height="146.7773" rx="4.1667" ry="4.1667" style="stroke:#2196F3;stroke-width:1.0416666666666667;" width="853.125" x="160.4167" y="1261.0026"/><text fill="#9C27B0" font-family="Verdana" font-size="12.5" font-weight="bold" lengthAdjust="spacing" textLength="263.5417" x="186.4583" y="1284.0637">Authentication / Authorization Error</text><polygon fill="#2196F3" points="284.8958,1335.9375,274.4792,1340.1042,284.8958,1344.2708,280.7292,1340.1042" style="stroke:#2196F3;stroke-width:1.0416666666666667;"/><line style="stroke:#2196F3;stroke-width:3.125;stroke-dasharray:2.0,2.0;" x1="278.6458" x2="630.7292" y1="1340.1042" y2="1340.1042"/><text fill="#222222" font-family="Verdana" font-size="12.5" font-weight="bold" lengthAdjust="spacing" textLength="27.0833" x="301.5625" y="1324.6562">[10]</text><text fill="#222222" font-family="Verdana" font-size="12.5" font-weight="bold" lengthAdjust="spacing" textLength="130.2083" x="353.6458" y="1324.6562">401 Unauthorized</text><text fill="#222222" font-family="Verdana" font-size="12.5" lengthAdjust="spacing" textLength="4.1667" x="488.0208" y="1324.6562">/</text><text fill="#222222" font-family="Verdana" font-size="12.5" font-weight="bold" lengthAdjust="spacing" textLength="104.1667" x="496.3542" y="1324.6562">403 Forbidden</text><path d="M646.875,1357.8125 L646.875,1394.2708 A4.1667,4.1667 0 0 0 651.0417,1398.4375 L995.8333,1398.4375 A4.1667,4.1667 0 0 0 1000,1394.2708 L1000,1364.0625 L989.5833,1353.6458 L651.0417,1353.6458 A4.1667,4.1667 0 0 0 646.875,1357.8125 " fill="url(#g1oypit8vzu47a2)" filter="url(#f1oypit8vzu47a)" style="stroke:#9C27B0;stroke-width:1.0416666666666667;"/><path d="M989.5833,1353.6458 L989.5833,1361.9792 A2.0833,2.0833 0 0 0 991.6667,1364.0625 L1000,1364.0625 L989.5833,1353.6458 " fill="url(#g1oypit8vzu47a2)" style="stroke:#9C27B0;stroke-width:1.0416666666666667;"/><text fill="#FFFFFF" font-family="Verdana" font-size="12.5" lengthAdjust="spacing" textLength="310.4167" x="663.5417" y="1380.8736">Occurs if the initial `@PreAuthorize` check fails.</text><path d="M164.5833,1422.3633 L357.2917,1422.3633 L357.2917,1449.4141 L346.875,1459.8307 L160.4167,1459.8307 L160.4167,1426.5299 A4.1667,4.1667 0 0 1 164.5833,1422.3633 " fill="#FFFFFF" style="stroke:#666666;stroke-width:1.0416666666666667;"/><rect fill="none" height="166.5039" rx="4.1667" ry="4.1667" style="stroke:#2196F3;stroke-width:1.0416666666666667;" width="613.5417" x="160.4167" y="1422.3633"/><text fill="#9C27B0" font-family="Verdana" font-size="12.5" font-weight="bold" lengthAdjust="spacing" textLength="129.1667" x="186.4583" y="1445.4244">Client-Side Errors</text><polygon fill="#2196F3" points="284.8958,1511.849,274.4792,1516.0156,284.8958,1520.1823,280.7292,1516.0156" style="stroke:#2196F3;stroke-width:1.0416666666666667;"/><line style="stroke:#2196F3;stroke-width:3.125;stroke-dasharray:2.0,2.0;" x1="278.6458" x2="630.7292" y1="1516.0156" y2="1516.0156"/><text fill="#222222" font-family="Verdana" font-size="12.5" font-weight="bold" lengthAdjust="spacing" textLength="27.0833" x="301.5625" y="1493.2922">[11]</text><text fill="#222222" font-family="Verdana" font-size="12.5" font-weight="bold" lengthAdjust="spacing" textLength="122.9167" x="353.6458" y="1486.0168">400 Bad Request</text><text fill="#222222" font-family="Verdana" font-size="12.5" lengthAdjust="spacing" textLength="260.4167" x="353.6458" y="1500.5676">(e.g., Invalid 'page' or 'size' parameters)</text><polygon fill="#2196F3" points="284.8958,1576.3672,274.4792,1580.5339,284.8958,1584.7005,280.7292,1580.5339" style="stroke:#2196F3;stroke-width:1.0416666666666667;"/><line style="stroke:#2196F3;stroke-width:3.125;stroke-dasharray:2.0,2.0;" x1="278.6458" x2="630.7292" y1="1580.5339" y2="1580.5339"/><text fill="#222222" font-family="Verdana" font-size="12.5" font-weight="bold" lengthAdjust="spacing" textLength="27.0833" x="301.5625" y="1557.8105">[12]</text><text fill="#222222" font-family="Verdana" font-size="12.5" font-weight="bold" lengthAdjust="spacing" textLength="173.9583" x="353.6458" y="1550.5351">429 Too Many Requests</text><text fill="#222222" font-family="Verdana" font-size="12.5" lengthAdjust="spacing" textLength="171.875" x="353.6458" y="1565.0859">(e.g., Rate limit exceeded)</text><path d="M164.5833,1603.4505 L354.1667,1603.4505 L354.1667,1630.5013 L343.75,1640.918 L160.4167,1640.918 L160.4167,1607.6172 A4.1667,4.1667 0 0 1 164.5833,1603.4505 " fill="#FFFFFF" style="stroke:#666666;stroke-width:1.0416666666666667;"/><rect fill="none" height="210.2865" rx="4.1667" ry="4.1667" style="stroke:#2196F3;stroke-width:1.0416666666666667;" width="810.9375" x="160.4167" y="1603.4505"/><text fill="#9C27B0" font-family="Verdana" font-size="12.5" font-weight="bold" lengthAdjust="spacing" textLength="126.0417" x="186.4583" y="1626.5116">Server-Side Error</text><line style="stroke:#2196F3;stroke-width:3.125;" x1="642.1875" x2="685.9375" y1="1682.5521" y2="1682.5521"/><line style="stroke:#2196F3;stroke-width:3.125;" x1="685.9375" x2="685.9375" y1="1682.5521" y2="1696.0938"/><line style="stroke:#2196F3;stroke-width:3.125;" x1="643.2292" x2="685.9375" y1="1696.0938" y2="1696.0938"/><polygon fill="#2196F3" points="653.6458,1691.9271,643.2292,1696.0938,653.6458,1700.2604,649.4792,1696.0938" style="stroke:#2196F3;stroke-width:1.0416666666666667;"/><text fill="#222222" font-family="Verdana" font-size="12.5" font-weight="bold" lengthAdjust="spacing" textLength="27.0833" x="659.8958" y="1667.1041">[13]</text><text fill="#222222" font-family="Verdana" font-size="12.5" lengthAdjust="spacing" textLength="236.4583" x="711.9792" y="1667.1041">An unexpected internal error occurs</text><path d="M646.875,1713.8021 L646.875,1750.2604 A4.1667,4.1667 0 0 0 651.0417,1754.4271 L908.3333,1754.4271 A4.1667,4.1667 0 0 0 912.5,1750.2604 L912.5,1720.0521 L902.0833,1709.6354 L651.0417,1709.6354 A4.1667,4.1667 0 0 0 646.875,1713.8021 " fill="url(#g1oypit8vzu47a2)" filter="url(#f1oypit8vzu47a)" style="stroke:#9C27B0;stroke-width:1.0416666666666667;"/><path d="M902.0833,1709.6354 L902.0833,1717.9688 A2.0833,2.0833 0 0 0 904.1667,1720.0521 L912.5,1720.0521 L902.0833,1709.6354 " fill="url(#g1oypit8vzu47a2)" style="stroke:#9C27B0;stroke-width:1.0416666666666667;"/><text fill="#FFFFFF" font-family="Verdana" font-size="12.5" lengthAdjust="spacing" textLength="222.9167" x="663.5417" y="1736.8632">e.g., Database connection failure.</text><polygon fill="#2196F3" points="284.8958,1801.237,274.4792,1805.4036,284.8958,1809.5703,280.7292,1805.4036" style="stroke:#2196F3;stroke-width:1.0416666666666667;"/><line style="stroke:#2196F3;stroke-width:3.125;stroke-dasharray:2.0,2.0;" x1="278.6458" x2="630.7292" y1="1805.4036" y2="1805.4036"/><text fill="#222222" font-family="Verdana" font-size="12.5" font-weight="bold" lengthAdjust="spacing" textLength="27.0833" x="301.5625" y="1789.9556">[14]</text><text fill="#222222" font-family="Verdana" font-size="12.5" font-weight="bold" lengthAdjust="spacing" textLength="180.2083" x="353.6458" y="1789.9556">500 Internal Server Error</text><!--SRC=[ZLLDSzis4BtpLsoTcKZYsBJYjeTw7BUIbQHkdJ5hARqqdI54hYIC8O05GDdgh-ykI4gKFpBLIIInks_VstteGQg4zby-ty14YgKLQrWO2tUp53wXXr7kvKPuQRI3_erqVW2Zz3hgmKnwXUVmHSk5nE9RvwVuJuKwnpO_1V-9rj6HSpXBXicGNapGvLQMFhoShQI3eW7ZLkR1WLyX5EY5L5Ihj2P7vm9EYzvAt4Yz106Awe5PWDY3EARa1x-rVEJ3d90Q0LTYJXtauJGyIByAdoX39HJy9ZO27DgD9FX25v0RxQrH2YqeivHv4aNVqVarmbfuj594aMTY0XzxBhZKENpwC8FJ3hOeeWVguIYEKx55stF4LLqhjMOZ2xHnV0J2GJfDer9OBtDPabWSqKdU17tLVIfpUhM3E6YYHzEdmQ5S9svSEQcPqXjkQh2h6XN2Yxbmo46Jvd_pTJ8c_9KtkbhFATdHnVpoh-7VHr54OE7aaggUGnnJpt5yqFNFfLZY- -5R9__5zsV3gFc433CQJVUXKymhA_qMtiAT8KglLfZVnt6a3HssShaAMlFPZpGe-63iFMo4aeGPQMBCFMeAhKW-83um-QglZBNeIgCB_WxPBwd5KULNnXAMVf8aWum45Sh3cr8eN5ga50IaoiEyNL7pvmSJpWCET_K8Oa7O8XwnVHEy4LapFwsa6LnFO67D6dODicJuw4Fmy-v63ahg8Rl3G1MsOKtKhqPHrcI9lddH7sHT72cboEXh1_TuEpt4r7-2yHXOf6DWZIWR9zl9H5FnCiuPxKrdFmea1XifmawrUwHu-98QOXeWJiR_0sAGvn0AZU1pA9piZmhj5iX55bBHMf9dpBSl2C4RJOrAJScA9EIQZE6a8OrqhIo9dB7A5s5bBkkOp1jFxf2RIliQKe5TKBlMcZ78PbMfyEoYa-YOLaqlBvz5lyXksh3RCkZgWLnKIctP0GDCffZGqu1NoYTF9_6pA9jFzUYdfE_jeaFun9li5M6Vhir-cIc84jDq9jvmHdfkTDgL3sIclCzdmo7S_Xx7v3SxQb-4CTZZKBXe64YZri57UyqwZi-4oBd2tR6EvV0ar3IrCYEfo0MYA495zlQc4FQUvoIEFrXBdioxxjg5NbfJbS1EWTgtTyKfjDPHFuUuFSY3rdyOlgERKhHMKx0bXjVVmqTZvx8eK5EnDlYv1BSvxJpriGWoIoszf04yDB0CSdP8MD0jwVPj1l3TFgwKf3PEfhG3DMZtAkeXZ0NTxNo1En-KmsIP7CEr3aOBFRQ97X1VFRQA7Yd3LamhvmQl9Jtx2MR6q43gRPlPTLBVyHOekPOUy357BB0OlDuBcmJQJYy7LUlH7sceD3xIHSyJ8yaZhIRoCEXi0h7VOBv6rTvzR72Q4h7Wp7DbCNcbqH-9lUksM8spXjW8tUc7_aPHnmJe9lmF]--></g></svg>