<?xml version="1.0" encoding="us-ascii" standalone="no"?><svg xmlns="http://www.w3.org/2000/svg" xmlns:xlink="http://www.w3.org/1999/xlink" contentStyleType="text/css" height="1344.7917px" preserveAspectRatio="none" style="width:969px;height:1344px;background:#FFFFFF;" version="1.1" viewBox="0 0 969 1344" width="969.7917px" zoomAndPan="magnify"><defs><filter height="300%" id="fipl6jmozq8w" width="300%" x="-1" y="-1"><feGaussianBlur result="blurOut" stdDeviation="2.0833333333333335"/><feColorMatrix in="blurOut" result="blurOut2" type="matrix" values="0 0 0 0 0 0 0 0 0 0 0 0 0 0 0 0 0 0 .4 0"/><feOffset dx="4.166666666666667" dy="4.166666666666667" in="blurOut2" result="blurOut3"/><feBlend in="SourceGraphic" in2="blurOut3" mode="normal"/></filter><linearGradient id="gipl6jmozq8w0" x1="50%" x2="50%" y1="0%" y2="100%"><stop offset="0%" stop-color="#FFFFFF"/><stop offset="100%" stop-color="#FFFFFF"/></linearGradient><linearGradient id="gipl6jmozq8w1" x1="50%" x2="50%" y1="0%" y2="100%"><stop offset="0%" stop-color="#4DABF5"/><stop offset="100%" stop-color="#2196F3"/></linearGradient><linearGradient id="gipl6jmozq8w2" x1="50%" x2="50%" y1="0%" y2="100%"><stop offset="0%" stop-color="#B052C0"/><stop offset="100%" stop-color="#9C27B0"/></linearGradient></defs><g><rect fill="none" height="57.5846" id="_title" rx="4.1667" ry="4.1667" style="stroke:#CCCCCC;stroke-width:1.0416666666666667;" width="723.9583" x="123.9583" y="20.8333"/><text fill="#2196F3" font-family="Verdana" font-size="20.8333" font-weight="bold" lengthAdjust="spacing" textLength="690.625" x="140.625" y="56.838">Payer Status API: GET /activations/payer/{payerId}/status</text><rect fill="#FFFFFF" filter="url(#fipl6jmozq8w)" height="968.0013" style="stroke:#CCCCCC;stroke-width:1.0416666666666667;" width="10.4167" x="490.1042" y="258.5286"/><rect fill="#FFFFFF" filter="url(#fipl6jmozq8w)" height="49.9674" style="stroke:#CCCCCC;stroke-width:1.0416666666666667;" width="10.4167" x="845.3125" y="308.4961"/><rect fill="url(#gipl6jmozq8w0)" filter="url(#fipl6jmozq8w)" height="276.888" rx="4.1667" ry="4.1667" style="stroke:#2196F3;stroke-width:1.0416666666666667;" width="593.2292" x="358.8542" y="374.0885"/><path d="M358.8542,554.1667 L952.0833,554.1667 L952.0833,646.8099 A4.1667,4.1667 0 0 1 947.9167,650.9766 L363.0208,650.9766 A4.1667,4.1667 0 0 1 358.8542,646.8099 L358.8542,554.1667 " fill="url(#gipl6jmozq8w0)" style="stroke:none;stroke-width:1.0416666666666667;"/><rect fill="url(#gipl6jmozq8w0)" filter="url(#fipl6jmozq8w)" height="553.6784" rx="4.1667" ry="4.1667" style="stroke:#2196F3;stroke-width:1.0416666666666667;" width="825" x="20.8333" y="665.5599"/><path d="M20.8333,787.3047 L845.8333,787.3047 L845.8333,973.5677 A4.1667,4.1667 0 0 1 841.6667,977.7344 L25,977.7344 A4.1667,4.1667 0 0 1 20.8333,973.5677 L20.8333,787.3047 " fill="url(#gipl6jmozq8w0)" style="stroke:none;stroke-width:1.0416666666666667;"/><path d="M20.8333,977.7344 L845.8333,977.7344 L845.8333,1215.0716 A4.1667,4.1667 0 0 1 841.6667,1219.2383 L25,1219.2383 A4.1667,4.1667 0 0 1 20.8333,1215.0716 L20.8333,977.7344 " fill="url(#gipl6jmozq8w0)" style="stroke:none;stroke-width:1.0416666666666667;"/><rect fill="url(#gipl6jmozq8w0)" filter="url(#fipl6jmozq8w)" height="87.4349" rx="4.1667" ry="4.1667" style="stroke:#2196F3;stroke-width:1.0416666666666667;" width="600.5208" x="31.25" y="1022.4935"/><rect fill="url(#gipl6jmozq8w0)" filter="url(#fipl6jmozq8w)" height="87.4349" rx="4.1667" ry="4.1667" style="stroke:#2196F3;stroke-width:1.0416666666666667;" width="600.5208" x="31.25" y="1124.5117"/><line style="stroke:#CCCCCC;stroke-width:1.0416666666666667;stroke-dasharray:5.0,5.0;" x1="143.75" x2="143.75" y1="191.9271" y2="1236.9466"/><line style="stroke:#CCCCCC;stroke-width:1.0416666666666667;stroke-dasharray:5.0,5.0;" x1="495.3125" x2="495.3125" y1="191.9271" y2="1236.9466"/><line style="stroke:#CCCCCC;stroke-width:1.0416666666666667;stroke-dasharray:5.0,5.0;" x1="850" x2="850" y1="191.9271" y2="1236.9466"/><text fill="#222222" font-family="Verdana" font-size="12.5" font-weight="bold" lengthAdjust="spacing" textLength="178.125" x="52.0833" y="178.5624">Payer's Service Provider</text><ellipse cx="144.2708" cy="99.2513" fill="url(#gipl6jmozq8w1)" filter="url(#fipl6jmozq8w)" rx="8.3333" ry="8.3333" style="stroke:#2196F3;stroke-width:1.0416666666666667;"/><path d="M144.2708,107.5846 L144.2708,135.7096 M130.7292,115.918 L157.8125,115.918 M144.2708,135.7096 L130.7292,151.3346 M144.2708,135.7096 L157.8125,151.3346 " fill="none" filter="url(#fipl6jmozq8w)" style="stroke:#2196F3;stroke-width:1.0416666666666667;"/><text fill="#222222" font-family="Verdana" font-size="12.5" font-weight="bold" lengthAdjust="spacing" textLength="178.125" x="52.0833" y="1257.9244">Payer's Service Provider</text><ellipse cx="144.2708" cy="1280.6641" fill="url(#gipl6jmozq8w1)" filter="url(#fipl6jmozq8w)" rx="8.3333" ry="8.3333" style="stroke:#2196F3;stroke-width:1.0416666666666667;"/><path d="M144.2708,1288.9974 L144.2708,1317.1224 M130.7292,1297.3307 L157.8125,1297.3307 M144.2708,1317.1224 L130.7292,1332.7474 M144.2708,1317.1224 L157.8125,1332.7474 " fill="none" filter="url(#fipl6jmozq8w)" style="stroke:#2196F3;stroke-width:1.0416666666666667;"/><rect fill="url(#gipl6jmozq8w1)" filter="url(#fipl6jmozq8w)" height="49.9674" rx="4.1667" ry="4.1667" style="stroke:#2196F3;stroke-width:1.0416666666666667;" width="165.625" x="410.9375" y="137.793"/><text fill="#FFFFFF" font-family="Verdana" font-size="12.5" font-weight="bold" lengthAdjust="spacing" textLength="130.2083" x="428.6458" y="167.1041">Activation Service</text><rect fill="url(#gipl6jmozq8w1)" filter="url(#fipl6jmozq8w)" height="49.9674" rx="4.1667" ry="4.1667" style="stroke:#2196F3;stroke-width:1.0416666666666667;" width="165.625" x="410.9375" y="1235.9049"/><text fill="#FFFFFF" font-family="Verdana" font-size="12.5" font-weight="bold" lengthAdjust="spacing" textLength="130.2083" x="428.6458" y="1265.2161">Activation Service</text><text fill="#222222" font-family="Verdana" font-size="12.5" font-weight="bold" lengthAdjust="spacing" textLength="71.875" x="811.4583" y="178.5624">Database</text><path d="M831.7708,119.043 C831.7708,108.6263 850.5208,108.6263 850.5208,108.6263 C850.5208,108.6263 869.2708,108.6263 869.2708,119.043 L869.2708,146.1263 C869.2708,156.543 850.5208,156.543 850.5208,156.543 C850.5208,156.543 831.7708,156.543 831.7708,146.1263 L831.7708,119.043 " fill="url(#gipl6jmozq8w1)" filter="url(#fipl6jmozq8w)" style="stroke:#2196F3;stroke-width:1.5625;"/><path d="M831.7708,119.043 C831.7708,129.4596 850.5208,129.4596 850.5208,129.4596 C850.5208,129.4596 869.2708,129.4596 869.2708,119.043 " fill="none" style="stroke:#2196F3;stroke-width:1.5625;"/><text fill="#222222" font-family="Verdana" font-size="12.5" font-weight="bold" lengthAdjust="spacing" textLength="71.875" x="811.4583" y="1257.9244">Database</text><path d="M831.7708,1281.7057 C831.7708,1271.2891 850.5208,1271.2891 850.5208,1271.2891 C850.5208,1271.2891 869.2708,1271.2891 869.2708,1281.7057 L869.2708,1308.7891 C869.2708,1319.2057 850.5208,1319.2057 850.5208,1319.2057 C850.5208,1319.2057 831.7708,1319.2057 831.7708,1308.7891 L831.7708,1281.7057 " fill="url(#gipl6jmozq8w1)" filter="url(#fipl6jmozq8w)" style="stroke:#2196F3;stroke-width:1.5625;"/><path d="M831.7708,1281.7057 C831.7708,1292.1224 850.5208,1292.1224 850.5208,1292.1224 C850.5208,1292.1224 869.2708,1292.1224 869.2708,1281.7057 " fill="none" style="stroke:#2196F3;stroke-width:1.5625;"/><rect fill="#FFFFFF" filter="url(#fipl6jmozq8w)" height="968.0013" style="stroke:#CCCCCC;stroke-width:1.0416666666666667;" width="10.4167" x="490.1042" y="258.5286"/><rect fill="#FFFFFF" filter="url(#fipl6jmozq8w)" height="49.9674" style="stroke:#CCCCCC;stroke-width:1.0416666666666667;" width="10.4167" x="845.3125" y="308.4961"/><polygon fill="#2196F3" points="477.6042,254.362,488.0208,258.5286,477.6042,262.6953,481.7708,258.5286" style="stroke:#2196F3;stroke-width:1.0416666666666667;"/><line style="stroke:#2196F3;stroke-width:3.125;" x1="144.2708" x2="483.8542" y1="258.5286" y2="258.5286"/><text fill="#222222" font-family="Verdana" font-size="12.5" font-weight="bold" lengthAdjust="spacing" textLength="18.75" x="161.9792" y="235.8053">[1]</text><text fill="#222222" font-family="Verdana" font-size="12.5" font-weight="bold" lengthAdjust="spacing" textLength="27.0833" x="205.7292" y="228.5299">GET</text><text fill="#222222" font-family="Verdana" font-size="12.5" lengthAdjust="spacing" textLength="230.2083" x="236.9792" y="228.5299">/activations/payer/{payerId}/status</text><text fill="#808080" font-family="Verdana" font-size="12.5" lengthAdjust="spacing" textLength="186.4583" x="205.7292" y="243.0806">Headers: Version, RequestId</text><polygon fill="#2196F3" points="832.8125,304.3294,843.2292,308.4961,832.8125,312.6628,836.9792,308.4961" style="stroke:#2196F3;stroke-width:1.0416666666666667;"/><line style="stroke:#2196F3;stroke-width:3.125;" x1="500.5208" x2="839.0625" y1="308.4961" y2="308.4961"/><text fill="#222222" font-family="Verdana" font-size="12.5" font-weight="bold" lengthAdjust="spacing" textLength="18.75" x="518.2292" y="293.0481">[2]</text><text fill="#222222" font-family="Verdana" font-size="12.5" lengthAdjust="spacing" textLength="179.1667" x="561.9792" y="293.0481">`findByFiscalCode(payerId)`</text><polygon fill="#2196F3" points="511.9792,354.2969,501.5625,358.4635,511.9792,362.6302,507.8125,358.4635" style="stroke:#2196F3;stroke-width:1.0416666666666667;"/><line style="stroke:#2196F3;stroke-width:3.125;stroke-dasharray:2.0,2.0;" x1="505.7292" x2="849.4792" y1="358.4635" y2="358.4635"/><text fill="#222222" font-family="Verdana" font-size="12.5" font-weight="bold" lengthAdjust="spacing" textLength="18.75" x="528.6458" y="343.0155">[3]</text><text fill="#222222" font-family="Verdana" font-size="12.5" lengthAdjust="spacing" textLength="188.5417" x="572.3958" y="343.0155">Returns Activation document</text><path d="M363.0208,374.0885 L446.3542,374.0885 L446.3542,401.1393 L435.9375,411.556 L358.8542,411.556 L358.8542,378.2552 A4.1667,4.1667 0 0 1 363.0208,374.0885 " fill="#FFFFFF" style="stroke:#666666;stroke-width:1.0416666666666667;"/><rect fill="none" height="276.888" rx="4.1667" ry="4.1667" style="stroke:#2196F3;stroke-width:1.0416666666666667;" width="593.2292" x="358.8542" y="374.0885"/><text fill="#9C27B0" font-family="Verdana" font-size="12.5" font-weight="bold" lengthAdjust="spacing" textLength="19.7917" x="384.8958" y="397.1497">alt</text><text fill="#222222" font-family="Verdana" font-size="12.5" font-weight="bold" lengthAdjust="spacing" textLength="5.2083" x="472.3958" y="398.1913">[</text><text fill="#222222" font-family="Verdana" font-size="12.5" font-weight="bold" lengthAdjust="spacing" textLength="188.5417" x="477.6042" y="398.1913">role: read_rtp_activations</text><text fill="#222222" font-family="Verdana" font-size="12.5" font-weight="bold" lengthAdjust="spacing" textLength="5.2083" x="666.1458" y="398.1913">]</text><line style="stroke:#2196F3;stroke-width:3.125;" x1="500.5208" x2="544.2708" y1="472.9492" y2="472.9492"/><line style="stroke:#2196F3;stroke-width:3.125;" x1="544.2708" x2="544.2708" y1="472.9492" y2="486.4909"/><line style="stroke:#2196F3;stroke-width:3.125;" x1="501.5625" x2="544.2708" y1="486.4909" y2="486.4909"/><polygon fill="#2196F3" points="511.9792,482.3242,501.5625,486.4909,511.9792,490.6576,507.8125,486.4909" style="stroke:#2196F3;stroke-width:1.0416666666666667;"/><text fill="#222222" font-family="Verdana" font-size="12.5" font-weight="bold" lengthAdjust="spacing" textLength="18.75" x="518.2292" y="457.5012">[4]</text><text fill="#222222" font-family="Verdana" font-size="12.5" lengthAdjust="spacing" textLength="265.625" x="561.9792" y="457.5012">Check `sub` == `serviceProviderDebtor`</text><path d="M505.2083,504.1992 L505.2083,540.6576 A4.1667,4.1667 0 0 0 509.375,544.8242 L934.375,544.8242 A4.1667,4.1667 0 0 0 938.5417,540.6576 L938.5417,510.4492 L928.125,500.0326 L509.375,500.0326 A4.1667,4.1667 0 0 0 505.2083,504.1992 " fill="url(#gipl6jmozq8w2)" filter="url(#fipl6jmozq8w)" style="stroke:#9C27B0;stroke-width:1.0416666666666667;"/><path d="M928.125,500.0326 L928.125,508.3659 A2.0833,2.0833 0 0 0 930.2083,510.4492 L938.5417,510.4492 L928.125,500.0326 " fill="url(#gipl6jmozq8w2)" style="stroke:#9C27B0;stroke-width:1.0416666666666667;"/><text fill="#FFFFFF" font-family="Verdana" font-size="12.5" lengthAdjust="spacing" textLength="390.625" x="521.875" y="527.2603">If the document belongs to a different DSP, it is filtered out.</text><line style="stroke:#2196F3;stroke-width:1.0416666666666667;stroke-dasharray:2.0,2.0;" x1="358.8542" x2="952.0833" y1="555.2083" y2="555.2083"/><text fill="#222222" font-family="Verdana" font-size="12.5" font-weight="bold" lengthAdjust="spacing" textLength="5.2083" x="374.4792" y="577.2278">[</text><text fill="#222222" font-family="Verdana" font-size="12.5" font-weight="bold" lengthAdjust="spacing" textLength="125" x="379.6875" y="577.2278">role: read_rtp_all</text><text fill="#222222" font-family="Verdana" font-size="12.5" font-weight="bold" lengthAdjust="spacing" textLength="5.2083" x="504.6875" y="577.2278">]</text><path d="M505.2083,601.0091 L505.2083,637.4674 A4.1667,4.1667 0 0 0 509.375,641.6341 L863.5417,641.6341 A4.1667,4.1667 0 0 0 867.7083,637.4674 L867.7083,607.2591 L857.2917,596.8424 L509.375,596.8424 A4.1667,4.1667 0 0 0 505.2083,601.0091 " fill="url(#gipl6jmozq8w2)" filter="url(#fipl6jmozq8w)" style="stroke:#9C27B0;stroke-width:1.0416666666666667;"/><path d="M857.2917,596.8424 L857.2917,605.1758 A2.0833,2.0833 0 0 0 859.375,607.2591 L867.7083,607.2591 L857.2917,596.8424 " fill="url(#gipl6jmozq8w2)" style="stroke:#9C27B0;stroke-width:1.0416666666666667;"/><text fill="#FFFFFF" font-family="Verdana" font-size="12.5" lengthAdjust="spacing" textLength="319.7917" x="521.875" y="624.0702">No service-provider ownership filtering is applied.</text><path d="M25,665.5599 L108.3333,665.5599 L108.3333,692.6107 L97.9167,703.0273 L20.8333,703.0273 L20.8333,669.7266 A4.1667,4.1667 0 0 1 25,665.5599 " fill="#FFFFFF" style="stroke:#666666;stroke-width:1.0416666666666667;"/><rect fill="none" height="553.6784" rx="4.1667" ry="4.1667" style="stroke:#2196F3;stroke-width:1.0416666666666667;" width="825" x="20.8333" y="665.5599"/><text fill="#9C27B0" font-family="Verdana" font-size="12.5" font-weight="bold" lengthAdjust="spacing" textLength="19.7917" x="46.875" y="688.621">alt</text><text fill="#222222" font-family="Verdana" font-size="12.5" font-weight="bold" lengthAdjust="spacing" textLength="5.2083" x="134.375" y="689.6627">[</text><text fill="#222222" font-family="Verdana" font-size="12.5" font-weight="bold" lengthAdjust="spacing" textLength="101.0417" x="139.5833" y="689.6627">Record Found</text><text fill="#222222" font-family="Verdana" font-size="12.5" font-weight="bold" lengthAdjust="spacing" textLength="5.2083" x="240.625" y="689.6627">]</text><polygon fill="#2196F3" points="155.7292,774.8047,145.3125,778.9714,155.7292,783.138,151.5625,778.9714" style="stroke:#2196F3;stroke-width:1.0416666666666667;"/><line style="stroke:#2196F3;stroke-width:3.125;stroke-dasharray:2.0,2.0;" x1="149.4792" x2="489.0625" y1="778.9714" y2="778.9714"/><text fill="#222222" font-family="Verdana" font-size="12.5" font-weight="bold" lengthAdjust="spacing" textLength="18.75" x="172.3958" y="756.248">[5]</text><text fill="#222222" font-family="Verdana" font-size="12.5" font-weight="bold" lengthAdjust="spacing" textLength="50" x="216.1458" y="748.9726">200 OK</text><text fill="#222222" font-family="Verdana" font-size="12.5" lengthAdjust="spacing" textLength="132.2917" x="216.1458" y="763.5234">`{ "isActive": true }`</text><line style="stroke:#2196F3;stroke-width:1.0416666666666667;stroke-dasharray:2.0,2.0;" x1="20.8333" x2="845.8333" y1="788.3464" y2="788.3464"/><text fill="#222222" font-family="Verdana" font-size="12.5" font-weight="bold" lengthAdjust="spacing" textLength="5.2083" x="36.4583" y="810.3658">[</text><text fill="#222222" font-family="Verdana" font-size="12.5" font-weight="bold" lengthAdjust="spacing" textLength="201.0417" x="41.6667" y="810.3658">Record Not Found / Filtered</text><text fill="#222222" font-family="Verdana" font-size="12.5" font-weight="bold" lengthAdjust="spacing" textLength="5.2083" x="242.7083" y="810.3658">]</text><polygon fill="#2196F3" points="155.7292,876.7904,145.3125,880.957,155.7292,885.1237,151.5625,880.957" style="stroke:#2196F3;stroke-width:1.0416666666666667;"/><line style="stroke:#2196F3;stroke-width:3.125;stroke-dasharray:2.0,2.0;" x1="149.4792" x2="489.0625" y1="880.957" y2="880.957"/><text fill="#222222" font-family="Verdana" font-size="12.5" font-weight="bold" lengthAdjust="spacing" textLength="18.75" x="172.3958" y="858.2336">[6]</text><text fill="#222222" font-family="Verdana" font-size="12.5" font-weight="bold" lengthAdjust="spacing" textLength="50" x="216.1458" y="850.9583">200 OK</text><text fill="#222222" font-family="Verdana" font-size="12.5" lengthAdjust="spacing" textLength="136.4583" x="216.1458" y="865.509">`{ "isActive": false }`</text><path d="M505.2083,898.6654 L505.2083,964.2904 A4.1667,4.1667 0 0 0 509.375,968.457 L828.125,968.457 A4.1667,4.1667 0 0 0 832.2917,964.2904 L832.2917,904.9154 L821.875,894.4987 L509.375,894.4987 A4.1667,4.1667 0 0 0 505.2083,898.6654 " fill="url(#gipl6jmozq8w2)" filter="url(#fipl6jmozq8w)" style="stroke:#9C27B0;stroke-width:1.0416666666666667;"/><path d="M821.875,894.4987 L821.875,902.832 A2.0833,2.0833 0 0 0 823.9583,904.9154 L832.2917,904.9154 L821.875,894.4987 " fill="url(#gipl6jmozq8w2)" style="stroke:#9C27B0;stroke-width:1.0416666666666667;"/><text fill="#FFFFFF" font-family="Verdana" font-size="12.5" lengthAdjust="spacing" textLength="284.375" x="521.875" y="921.7265">No document found (or record filtered out).</text><text fill="#FFFFFF" font-family="Verdana" font-size="12.5" lengthAdjust="spacing" textLength="247.9167" x="521.875" y="936.2773">Treated identically to an unauthorized</text><text fill="#FFFFFF" font-family="Verdana" font-size="12.5" lengthAdjust="spacing" textLength="255.2083" x="521.875" y="950.828">read to prevent information disclosure.</text><line style="stroke:#2196F3;stroke-width:1.0416666666666667;stroke-dasharray:2.0,2.0;" x1="20.8333" x2="845.8333" y1="978.776" y2="978.776"/><text fill="#222222" font-family="Verdana" font-size="12.5" font-weight="bold" lengthAdjust="spacing" textLength="5.2083" x="36.4583" y="1000.7955">[</text><text fill="#222222" font-family="Verdana" font-size="12.5" font-weight="bold" lengthAdjust="spacing" textLength="85.4167" x="41.6667" y="1000.7955">Error Cases</text><text fill="#222222" font-family="Verdana" font-size="12.5" font-weight="bold" lengthAdjust="spacing" textLength="5.2083" x="127.0833" y="1000.7955">]</text><path d="M35.4167,1022.4935 L270.8333,1022.4935 L270.8333,1049.5443 L260.4167,1059.9609 L31.25,1059.9609 L31.25,1026.6602 A4.1667,4.1667 0 0 1 35.4167,1022.4935 " fill="#FFFFFF" style="stroke:#666666;stroke-width:1.0416666666666667;"/><rect fill="none" height="87.4349" rx="4.1667" ry="4.1667" style="stroke:#2196F3;stroke-width:1.0416666666666667;" width="600.5208" x="31.25" y="1022.4935"/><text fill="#9C27B0" font-family="Verdana" font-size="12.5" font-weight="bold" lengthAdjust="spacing" textLength="171.875" x="57.2917" y="1045.5546">Format Validation Error</text><polygon fill="#2196F3" points="155.7292,1097.4284,145.3125,1101.5951,155.7292,1105.7617,151.5625,1101.5951" style="stroke:#2196F3;stroke-width:1.0416666666666667;"/><line style="stroke:#2196F3;stroke-width:3.125;stroke-dasharray:2.0,2.0;" x1="149.4792" x2="489.0625" y1="1101.5951" y2="1101.5951"/><text fill="#222222" font-family="Verdana" font-size="12.5" font-weight="bold" lengthAdjust="spacing" textLength="18.75" x="172.3958" y="1086.1471">[7]</text><text fill="#222222" font-family="Verdana" font-size="12.5" font-weight="bold" lengthAdjust="spacing" textLength="122.9167" x="216.1458" y="1086.1471">400 Bad Request</text><path d="M35.4167,1124.5117 L362.5,1124.5117 L362.5,1151.5625 L352.0833,1161.9792 L31.25,1161.9792 L31.25,1128.6784 A4.1667,4.1667 0 0 1 35.4167,1124.5117 " fill="#FFFFFF" style="stroke:#666666;stroke-width:1.0416666666666667;"/><rect fill="none" height="87.4349" rx="4.1667" ry="4.1667" style="stroke:#2196F3;stroke-width:1.0416666666666667;" width="600.5208" x="31.25" y="1124.5117"/><text fill="#9C27B0" font-family="Verdana" font-size="12.5" font-weight="bold" lengthAdjust="spacing" textLength="263.5417" x="57.2917" y="1147.5728">Authentication / Authorization Error</text><polygon fill="#2196F3" points="155.7292,1199.4466,145.3125,1203.6133,155.7292,1207.7799,151.5625,1203.6133" style="stroke:#2196F3;stroke-width:1.0416666666666667;"/><line style="stroke:#2196F3;stroke-width:3.125;stroke-dasharray:2.0,2.0;" x1="149.4792" x2="489.0625" y1="1203.6133" y2="1203.6133"/><text fill="#222222" font-family="Verdana" font-size="12.5" font-weight="bold" lengthAdjust="spacing" textLength="18.75" x="172.3958" y="1188.1653">[8]</text><text fill="#222222" font-family="Verdana" font-size="12.5" font-weight="bold" lengthAdjust="spacing" textLength="130.2083" x="216.1458" y="1188.1653">401 Unauthorized</text><text fill="#222222" font-family="Verdana" font-size="12.5" lengthAdjust="spacing" textLength="4.1667" x="350.5208" y="1188.1653">/</text><text fill="#222222" font-family="Verdana" font-size="12.5" font-weight="bold" lengthAdjust="spacing" textLength="104.1667" x="358.8542" y="1188.1653">403 Forbidden</text><!--SRC=[bLHDJzj04BtlhvZc4h0W2MrF4KJA1xIeBOsImAMfyDexJbOuk-xkEZH5_FVE-YDO2fMeBxRNC- -zUJFZDanJhjpjjwymaNnb-0OIRM2scCAKxz30C7PoYp1ttEKMXjDhreQ5T2dsNmqOhp5-W3d-ob75M6DIpXqQAxNgmrcdr-cnDdldrhX1s727HdB6x8DK6VS2wkoH_ZtYySFAw5o9iKv9r-DQEco4Hgz-PyuBhFIzAE_3fyi5TBaNp1s9iTtCXtIVYjkrUExQ8fWnYY6qLX0K66rBcinMKa5JexTIe0c25d0Ba_cKaH8dOvcHZJvZk8UlawhOuPm9xdZ4BVguIVLS8us8DNTQvPk8LBVEey6FtiyMOqG1fmFAxaCGK051y9OIbkeyqIGezhPSK0zsWy_8IRZjrwquWPatshfhSTxrmGDMuQBNoePpppiPzI5Cf1AZtPMqCK_7Mk1HnNOSlgHG0PCHd5PIP-Xoeomqt10wpZUe71FOJ68yTLIPqNwa36cyDowxRrGO18m1NQKU3ruEMMZpA8IB2teeVQvxCy68kXSMIKeJYv6hjGET5CdN2T3axTL0XAbMAmjE0mSXamIDFoRRJq0wa1OIcTACeW2TkmvZc5833mMdQItqaFD6GwNnDAj4WdvKr8Urp2fygLQUZ6TPAb5u7YLgSsOOQoFWoWzwqmxVd_dK3yRxNW- -Vmc2fGgVe2LjkPMjFZYJ8po7RA-xmhhHhiI3BbnL1VudTC8zudFuxwBt9YS5qn7jb2dfcvuUTvPgGKOwUYLh56qJkRahEg8WLxGMQsta7nHBvVts7pA3Mmyi5VskDjM0qNocskO6Eo_bNXf3h6DQjFqW-Hz6HiNxFBZZgHHbVX5QH1oQy95C615rjJ84vMEeHILQ4tX8SiiY2jHkSU3rluNb36uRzVfTBuu_UBcH5EJE8NKnA8sbekNz2m00]--></g></svg>