<?xml version="1.0" encoding="us-ascii" standalone="no"?><svg xmlns="http://www.w3.org/2000/svg" xmlns:xlink="http://www.w3.org/1999/xlink" contentStyleType="text/css" height="793px" preserveAspectRatio="none" style="width:1024px;height:793px;background:#FFFFFF;" version="1.1" viewBox="0 0 1024 793" width="1024px" zoomAndPan="magnify"><defs/><g><text fill="#000000" font-family="sans-serif" font-size="14" font-weight="bold" lengthAdjust="spacing" textLength="351" x="337.5" y="27.9951">RTP Consumer &#8212; Message flow (GPD &#8594; RTP)</text><rect fill="none" height="579.1328" style="stroke:#000000;stroke-width:1.5;" width="1007" x="10" y="161.8594"/><rect fill="none" height="323.2656" style="stroke:#000000;stroke-width:1.5;" width="849" x="20" y="273.3906"/><line style="stroke:#181818;stroke-width:0.5;stroke-dasharray:5.0,5.0;" x1="91" x2="91" y1="73.5938" y2="757.9922"/><line style="stroke:#181818;stroke-width:0.5;stroke-dasharray:5.0,5.0;" x1="216" x2="216" y1="73.5938" y2="757.9922"/><line style="stroke:#181818;stroke-width:0.5;stroke-dasharray:5.0,5.0;" x1="335.5" x2="335.5" y1="73.5938" y2="757.9922"/><line style="stroke:#181818;stroke-width:0.5;stroke-dasharray:5.0,5.0;" x1="487.5" x2="487.5" y1="73.5938" y2="757.9922"/><line style="stroke:#181818;stroke-width:0.5;stroke-dasharray:5.0,5.0;" x1="654" x2="654" y1="73.5938" y2="757.9922"/><line style="stroke:#181818;stroke-width:0.5;stroke-dasharray:5.0,5.0;" x1="785" x2="785" y1="73.5938" y2="757.9922"/><path d="M35,47.2969 L147,47.2969 C152,47.2969 152,60.4453 152,60.4453 C152,60.4453 152,73.5938 147,73.5938 L35,73.5938 C30,73.5938 30,60.4453 30,60.4453 C30,60.4453 30,47.2969 35,47.2969 " fill="#E2E2F0" style="stroke:#181818;stroke-width:0.5;"/><path d="M147,47.2969 C142,47.2969 142,60.4453 142,60.4453 C142,73.5938 147,73.5938 147,73.5938 " fill="none" style="stroke:#181818;stroke-width:0.5;"/><text fill="#000000" font-family="sans-serif" font-size="14" lengthAdjust="spacing" textLength="102" x="35" y="65.292">GPD EventHub</text><path d="M35,756.9922 L147,756.9922 C152,756.9922 152,770.1406 152,770.1406 C152,770.1406 152,783.2891 147,783.2891 L35,783.2891 C30,783.2891 30,770.1406 30,770.1406 C30,770.1406 30,756.9922 35,756.9922 " fill="#E2E2F0" style="stroke:#181818;stroke-width:0.5;"/><path d="M147,756.9922 C142,756.9922 142,770.1406 142,770.1406 C142,783.2891 147,783.2891 147,783.2891 " fill="none" style="stroke:#181818;stroke-width:0.5;"/><text fill="#000000" font-family="sans-serif" font-size="14" lengthAdjust="spacing" textLength="102" x="35" y="774.9873">GPD EventHub</text><rect fill="#E2E2F0" height="30.2969" rx="2.5" ry="2.5" style="stroke:#181818;stroke-width:0.5;" width="108" x="162" y="42.2969"/><text fill="#000000" font-family="sans-serif" font-size="14" lengthAdjust="spacing" textLength="94" x="169" y="62.292">rtp-consumer</text><rect fill="#E2E2F0" height="30.2969" rx="2.5" ry="2.5" style="stroke:#181818;stroke-width:0.5;" width="108" x="162" y="756.9922"/><text fill="#000000" font-family="sans-serif" font-size="14" lengthAdjust="spacing" textLength="94" x="169" y="776.9873">rtp-consumer</text><rect fill="#E2E2F0" height="30.2969" rx="2.5" ry="2.5" style="stroke:#181818;stroke-width:0.5;" width="69" x="301.5" y="42.2969"/><text fill="#000000" font-family="sans-serif" font-size="14" lengthAdjust="spacing" textLength="55" x="308.5" y="62.292">mil-auth</text><rect fill="#E2E2F0" height="30.2969" rx="2.5" ry="2.5" style="stroke:#181818;stroke-width:0.5;" width="69" x="301.5" y="756.9922"/><text fill="#000000" font-family="sans-serif" font-size="14" lengthAdjust="spacing" textLength="55" x="308.5" y="776.9873">mil-auth</text><rect fill="#E2E2F0" height="30.2969" rx="2.5" ry="2.5" style="stroke:#181818;stroke-width:0.5;" width="87" x="444.5" y="42.2969"/><text fill="#000000" font-family="sans-serif" font-size="14" lengthAdjust="spacing" textLength="73" x="451.5" y="62.292">rtp-sender</text><rect fill="#E2E2F0" height="30.2969" rx="2.5" ry="2.5" style="stroke:#181818;stroke-width:0.5;" width="87" x="444.5" y="756.9922"/><text fill="#000000" font-family="sans-serif" font-size="14" lengthAdjust="spacing" textLength="73" x="451.5" y="776.9873">rtp-sender</text><rect fill="#E2E2F0" height="30.2969" rx="2.5" ry="2.5" style="stroke:#181818;stroke-width:0.5;" width="96" x="606" y="42.2969"/><text fill="#000000" font-family="sans-serif" font-size="14" lengthAdjust="spacing" textLength="82" x="613" y="62.292">rtp-activator</text><rect fill="#E2E2F0" height="30.2969" rx="2.5" ry="2.5" style="stroke:#181818;stroke-width:0.5;" width="96" x="606" y="756.9922"/><text fill="#000000" font-family="sans-serif" font-size="14" lengthAdjust="spacing" textLength="82" x="613" y="776.9873">rtp-activator</text><path d="M717,47.2969 L854,47.2969 C859,47.2969 859,60.4453 859,60.4453 C859,60.4453 859,73.5938 854,73.5938 L717,73.5938 C712,73.5938 712,60.4453 712,60.4453 C712,60.4453 712,47.2969 717,47.2969 " fill="#E2E2F0" style="stroke:#181818;stroke-width:0.5;"/><path d="M854,47.2969 C849,47.2969 849,60.4453 849,60.4453 C849,73.5938 854,73.5938 854,73.5938 " fill="none" style="stroke:#181818;stroke-width:0.5;"/><text fill="#000000" font-family="sans-serif" font-size="14" lengthAdjust="spacing" textLength="127" x="717" y="65.292">Dead-letter queue</text><path d="M717,756.9922 L854,756.9922 C859,756.9922 859,770.1406 859,770.1406 C859,770.1406 859,783.2891 854,783.2891 L717,783.2891 C712,783.2891 712,770.1406 712,770.1406 C712,770.1406 712,756.9922 717,756.9922 " fill="#E2E2F0" style="stroke:#181818;stroke-width:0.5;"/><path d="M854,756.9922 C849,756.9922 849,770.1406 849,770.1406 C849,783.2891 854,783.2891 854,783.2891 " fill="none" style="stroke:#181818;stroke-width:0.5;"/><text fill="#000000" font-family="sans-serif" font-size="14" lengthAdjust="spacing" textLength="127" x="717" y="774.9873">Dead-letter queue</text><polygon fill="#181818" points="204,100.7266,214,104.7266,204,108.7266,208,104.7266" style="stroke:#181818;stroke-width:1.0;"/><line style="stroke:#181818;stroke-width:1.0;" x1="91" x2="210" y1="104.7266" y2="104.7266"/><text fill="#000000" font-family="sans-serif" font-size="13" lengthAdjust="spacing" textLength="90" x="98" y="99.6606">Event payload</text><line style="stroke:#181818;stroke-width:1.0;" x1="216" x2="258" y1="133.8594" y2="133.8594"/><line style="stroke:#181818;stroke-width:1.0;" x1="258" x2="258" y1="133.8594" y2="146.8594"/><line style="stroke:#181818;stroke-width:1.0;" x1="217" x2="258" y1="146.8594" y2="146.8594"/><polygon fill="#181818" points="227,142.8594,217,146.8594,227,150.8594,223,146.8594" style="stroke:#181818;stroke-width:1.0;"/><text fill="#000000" font-family="sans-serif" font-size="13" lengthAdjust="spacing" textLength="106" x="223" y="128.7935">Validate payload</text><path d="M10,161.8594 L74,161.8594 L74,168.9922 L64,178.9922 L10,178.9922 L10,161.8594 " fill="#EEEEEE" style="stroke:#000000;stroke-width:1.5;"/><rect fill="none" height="579.1328" style="stroke:#000000;stroke-width:1.5;" width="1007" x="10" y="161.8594"/><text fill="#000000" font-family="sans-serif" font-size="13" font-weight="bold" lengthAdjust="spacing" textLength="19" x="25" y="174.9263">alt</text><text fill="#000000" font-family="sans-serif" font-size="11" font-weight="bold" lengthAdjust="spacing" textLength="98" x="89" y="174.0698">[Validation OK]</text><polygon fill="#181818" points="324,196.125,334,200.125,324,204.125,328,200.125" style="stroke:#181818;stroke-width:1.0;"/><line style="stroke:#181818;stroke-width:1.0;" x1="216" x2="330" y1="200.125" y2="200.125"/><text fill="#000000" font-family="sans-serif" font-size="13" lengthAdjust="spacing" textLength="78" x="223" y="195.0591">POST /token</text><polygon fill="#181818" points="227,225.2578,217,229.2578,227,233.2578,223,229.2578" style="stroke:#181818;stroke-width:1.0;"/><line style="stroke:#181818;stroke-width:1.0;stroke-dasharray:2.0,2.0;" x1="221" x2="335" y1="229.2578" y2="229.2578"/><text fill="#000000" font-family="sans-serif" font-size="13" lengthAdjust="spacing" textLength="96" x="233" y="224.1919">200 OK (token)</text><polygon fill="#181818" points="476,254.3906,486,258.3906,476,262.3906,480,258.3906" style="stroke:#181818;stroke-width:1.0;"/><line style="stroke:#181818;stroke-width:1.0;" x1="216" x2="482" y1="258.3906" y2="258.3906"/><text fill="#000000" font-family="sans-serif" font-size="13" lengthAdjust="spacing" textLength="248" x="223" y="253.3247">POST /gpd/message (payload + token)</text><path d="M20,273.3906 L84,273.3906 L84,280.5234 L74,290.5234 L20,290.5234 L20,273.3906 " fill="#EEEEEE" style="stroke:#000000;stroke-width:1.5;"/><rect fill="none" height="323.2656" style="stroke:#000000;stroke-width:1.5;" width="849" x="20" y="273.3906"/><text fill="#000000" font-family="sans-serif" font-size="13" font-weight="bold" lengthAdjust="spacing" textLength="19" x="35" y="286.4575">alt</text><text fill="#000000" font-family="sans-serif" font-size="11" font-weight="bold" lengthAdjust="spacing" textLength="67" x="99" y="285.6011">[POST OK]</text><polygon fill="#181818" points="347,307.6563,337,311.6563,347,315.6563,343,311.6563" style="stroke:#181818;stroke-width:1.0;"/><line style="stroke:#181818;stroke-width:1.0;" x1="341" x2="487" y1="311.6563" y2="311.6563"/><text fill="#000000" font-family="sans-serif" font-size="13" lengthAdjust="spacing" textLength="78" x="353" y="306.5903">POST /token</text><polygon fill="#181818" points="476,336.7891,486,340.7891,476,344.7891,480,340.7891" style="stroke:#181818;stroke-width:1.0;"/><line style="stroke:#181818;stroke-width:1.0;stroke-dasharray:2.0,2.0;" x1="336" x2="482" y1="340.7891" y2="340.7891"/><text fill="#000000" font-family="sans-serif" font-size="13" lengthAdjust="spacing" textLength="96" x="343" y="335.7231">200 OK (token)</text><polygon fill="#181818" points="642,365.9219,652,369.9219,642,373.9219,646,369.9219" style="stroke:#181818;stroke-width:1.0;"/><line style="stroke:#181818;stroke-width:1.0;" x1="488" x2="648" y1="369.9219" y2="369.9219"/><text fill="#000000" font-family="sans-serif" font-size="13" lengthAdjust="spacing" textLength="142" x="495" y="364.856">GET /activations/payer</text><polygon fill="#181818" points="499,395.0547,489,399.0547,499,403.0547,495,399.0547" style="stroke:#181818;stroke-width:1.0;"/><line style="stroke:#181818;stroke-width:1.0;stroke-dasharray:2.0,2.0;" x1="493" x2="653" y1="399.0547" y2="399.0547"/><text fill="#000000" font-family="sans-serif" font-size="13" lengthAdjust="spacing" textLength="96" x="505" y="393.9888">200 OK (payer)</text><polygon fill="#181818" points="227,424.1875,217,428.1875,227,432.1875,223,428.1875" style="stroke:#181818;stroke-width:1.0;"/><line style="stroke:#181818;stroke-width:1.0;stroke-dasharray:2.0,2.0;" x1="221" x2="487" y1="428.1875" y2="428.1875"/><text fill="#000000" font-family="sans-serif" font-size="13" lengthAdjust="spacing" textLength="83" x="233" y="423.1216">200 OK (RTP)</text><polygon fill="#181818" points="102,453.3203,92,457.3203,102,461.3203,98,457.3203" style="stroke:#181818;stroke-width:1.0;"/><line style="stroke:#181818;stroke-width:1.0;stroke-dasharray:2.0,2.0;" x1="96" x2="215" y1="457.3203" y2="457.3203"/><text fill="#000000" font-family="sans-serif" font-size="13" lengthAdjust="spacing" textLength="23" x="108" y="452.2544">Ack</text><line style="stroke:#000000;stroke-width:1.0;stroke-dasharray:2.0,2.0;" x1="20" x2="869" y1="466.3203" y2="466.3203"/><text fill="#000000" font-family="sans-serif" font-size="11" font-weight="bold" lengthAdjust="spacing" textLength="216" x="25" y="476.5308">[POST failed (4xx / 5xx / timeout)]</text><polygon fill="#181818" points="227,497.2578,217,501.2578,227,505.2578,223,501.2578" style="stroke:#181818;stroke-width:1.0;"/><line style="stroke:#181818;stroke-width:1.0;stroke-dasharray:2.0,2.0;" x1="221" x2="487" y1="501.2578" y2="501.2578"/><text fill="#000000" font-family="sans-serif" font-size="13" lengthAdjust="spacing" textLength="93" x="233" y="496.1919">Error / timeout</text><polygon fill="#181818" points="773.5,526.3906,783.5,530.3906,773.5,534.3906,777.5,530.3906" style="stroke:#181818;stroke-width:1.0;"/><line style="stroke:#181818;stroke-width:1.0;" x1="216" x2="779.5" y1="530.3906" y2="530.3906"/><text fill="#000000" font-family="sans-serif" font-size="13" lengthAdjust="spacing" textLength="153" x="223" y="525.3247">Enqueue failure payload</text><polygon fill="#181818" points="227,555.5234,217,559.5234,227,563.5234,223,559.5234" style="stroke:#181818;stroke-width:1.0;"/><line style="stroke:#181818;stroke-width:1.0;stroke-dasharray:2.0,2.0;" x1="221" x2="784.5" y1="559.5234" y2="559.5234"/><text fill="#000000" font-family="sans-serif" font-size="13" lengthAdjust="spacing" textLength="64" x="233" y="554.4575">Ack (DLQ)</text><polygon fill="#181818" points="102,584.6563,92,588.6563,102,592.6563,98,588.6563" style="stroke:#181818;stroke-width:1.0;"/><line style="stroke:#181818;stroke-width:1.0;stroke-dasharray:2.0,2.0;" x1="96" x2="215" y1="588.6563" y2="588.6563"/><text fill="#000000" font-family="sans-serif" font-size="13" lengthAdjust="spacing" textLength="23" x="108" y="583.5903">Ack</text><line style="stroke:#000000;stroke-width:1.0;stroke-dasharray:2.0,2.0;" x1="10" x2="1017" y1="604.6563" y2="604.6563"/><text fill="#000000" font-family="sans-serif" font-size="11" font-weight="bold" lengthAdjust="spacing" textLength="116" x="15" y="614.8667">[Validation failed]</text><polygon fill="#181818" points="773.5,635.5938,783.5,639.5938,773.5,643.5938,777.5,639.5938" style="stroke:#181818;stroke-width:1.0;"/><line style="stroke:#181818;stroke-width:1.0;" x1="216" x2="779.5" y1="639.5938" y2="639.5938"/><text fill="#000000" font-family="sans-serif" font-size="13" lengthAdjust="spacing" textLength="154" x="223" y="634.5278">Enqueue invalid payload</text><path d="M790,652.5938 L790,677.5938 L1007,677.5938 L1007,662.5938 L997,652.5938 L790,652.5938 " fill="#FEFFDD" style="stroke:#181818;stroke-width:0.5;"/><path d="M997,652.5938 L997,662.5938 L1007,662.5938 L997,652.5938 " fill="#FEFFDD" style="stroke:#181818;stroke-width:0.5;"/><text fill="#000000" font-family="sans-serif" font-size="13" lengthAdjust="spacing" textLength="196" x="796" y="669.6606">Malformed or invalid message.</text><polygon fill="#181818" points="227,699.8594,217,703.8594,227,707.8594,223,703.8594" style="stroke:#181818;stroke-width:1.0;"/><line style="stroke:#181818;stroke-width:1.0;stroke-dasharray:2.0,2.0;" x1="221" x2="784.5" y1="703.8594" y2="703.8594"/><text fill="#000000" font-family="sans-serif" font-size="13" lengthAdjust="spacing" textLength="64" x="233" y="698.7935">Ack (DLQ)</text><polygon fill="#181818" points="102,728.9922,92,732.9922,102,736.9922,98,732.9922" style="stroke:#181818;stroke-width:1.0;"/><line style="stroke:#181818;stroke-width:1.0;stroke-dasharray:2.0,2.0;" x1="96" x2="215" y1="732.9922" y2="732.9922"/><text fill="#000000" font-family="sans-serif" font-size="13" lengthAdjust="spacing" textLength="23" x="108" y="727.9263">Ack</text><!--SRC=[TLB1Rjim3BthAuYSN0nUYgAzz50WS8m6M8EcIx6x6ZEfK5boPJhhRZlj0uPzORza52qdNP9TTE1xZ- -H51co25yV5r1urtOr1dZ_-GVcsBPwWx2s_ZjajuiflF_w7MbdIhrss26COh7SegDPzpG2tK8vKuqEP5QcqOvW5AZ9Lwcf48f_yThON7VqBDXySYnkqLL9kZn6zOhCLfFl2PCXrXHrbLiauaca9F3qxa6fSWRv3HHmtUU6Hl-mNbUg6ChVj3ML9jmXIbiQgiOxkF-Y08G-dp1_SRzyX37v5tHSvrAU6bsSdpCNCe5uPKcqt6asJJMkquwpv0QVOC-Fna8LIs3fQTETxVAaRH96tMt9ihGqdgKTioq6uHnt46pVuM0i-GSHAWJYlLx3PFKIwMXRx2EkjR5OGNRvzWPZk9ANJ8s-exE3lcK8FknXDVI-YNUBkEkF6rjsON-UI8kCeGzdW8mB9yDnDiSNbO0VJjh7L2VzZDj6uWS_v_bt1BDv9l1h-LLo0ctNFjGyBOynYD9vF_V6ebJ_ZtiGLg9McCw5KFm5]--></g></svg>