<svg xmlns="http://www.w3.org/2000/svg" xmlns:xlink="http://www.w3.org/1999/xlink" contentStyleType="text/css" data-diagram-type="SEQUENCE" height="797px" preserveAspectRatio="none" style="width:1028px;height:797px;background:#FFFFFF;" version="1.1" viewBox="0 0 1028 797" width="1028px" zoomAndPan="magnify"><title>RTP Consumer &#8212; Message flow (GPD -&gt; RTP)</title><defs/><g><text fill="#000000" font-family="sans-serif" font-size="14" font-weight="bold" lengthAdjust="spacing" textLength="329.8408" x="350.1448" y="28.5352">RTP Consumer &#8212; Message flow (GPD -&gt; RTP)</text><rect fill="none" height="582.8105" style="stroke:#000000;stroke-width:1.5;" width="1011.1304" x="10" y="162.5977"/><rect fill="none" height="325.3711" style="stroke:#000000;stroke-width:1.5;" width="854.2681" x="20" y="274.8398"/><g><title>GPD EventHub</title><rect fill="#000000" fill-opacity="0.00000" height="688.4316" width="8" x="84.5591" y="73.9766"/><line style="stroke:#181818;stroke-width:0.5;stroke-dasharray:5,5;" x1="88" x2="88" y1="73.9766" y2="762.4082"/></g><g><title>rtp-consumer</title><rect fill="#000000" fill-opacity="0.00000" height="688.4316" width="8" x="216.1519" y="73.9766"/><line style="stroke:#181818;stroke-width:0.5;stroke-dasharray:5,5;" x1="219.772" x2="219.772" y1="73.9766" y2="762.4082"/></g><g><title>mil-auth</title><rect fill="#000000" fill-opacity="0.00000" height="688.4316" width="8" x="335.8364" y="73.9766"/><line style="stroke:#181818;stroke-width:0.5;stroke-dasharray:5,5;" x1="339.0317" x2="339.0317" y1="73.9766" y2="762.4082"/></g><g><title>rtp-sender</title><rect fill="#000000" fill-opacity="0.00000" height="688.4316" width="8" x="486.1807" y="73.9766"/><line style="stroke:#181818;stroke-width:0.5;stroke-dasharray:5,5;" x1="489.2598" x2="489.2598" y1="73.9766" y2="762.4082"/></g><g><title>rtp-activator</title><rect fill="#000000" fill-opacity="0.00000" height="688.4316" width="8" x="654.9707" y="73.9766"/><line style="stroke:#181818;stroke-width:0.5;stroke-dasharray:5,5;" x1="658.6685" x2="658.6685" y1="73.9766" y2="762.4082"/></g><g><title>Dead-letter queue</title><rect fill="#000000" fill-opacity="0.00000" height="688.4316" width="8" x="787.7705" y="73.9766"/><line style="stroke:#181818;stroke-width:0.5;stroke-dasharray:5,5;" x1="791.2729" x2="791.2729" y1="73.9766" y2="762.4082"/></g><g class="participant participant-head" data-participant="EH"><path d="M35,47.4883 L142.1182,47.4883 C147.1182,47.4883 147.1182,60.7324 147.1182,60.7324 C147.1182,60.7324 147.1182,73.9766 142.1182,73.9766 L35,73.9766 C30,73.9766 30,60.7324 30,60.7324 C30,60.7324 30,47.4883 35,47.4883" fill="#E2E2F0" style="stroke:#181818;stroke-width:0.5;"/><path d="M142.1182,47.4883 C137.1182,47.4883 137.1182,60.7324 137.1182,60.7324 C137.1182,73.9766 142.1182,73.9766 142.1182,73.9766" fill="none" style="stroke:#181818;stroke-width:0.5;"/><text fill="#000000" font-family="sans-serif" font-size="14" lengthAdjust="spacing" textLength="97.1182" x="35" y="66.0234">GPD EventHub</text></g><g class="participant participant-tail" data-participant="EH"><path d="M35,761.4082 L142.1182,761.4082 C147.1182,761.4082 147.1182,774.6523 147.1182,774.6523 C147.1182,774.6523 147.1182,787.8965 142.1182,787.8965 L35,787.8965 C30,787.8965 30,774.6523 30,774.6523 C30,774.6523 30,761.4082 35,761.4082" fill="#E2E2F0" style="stroke:#181818;stroke-width:0.5;"/><path d="M142.1182,761.4082 C137.1182,761.4082 137.1182,774.6523 137.1182,774.6523 C137.1182,787.8965 142.1182,787.8965 142.1182,787.8965" fill="none" style="stroke:#181818;stroke-width:0.5;"/><text fill="#000000" font-family="sans-serif" font-size="14" lengthAdjust="spacing" textLength="97.1182" x="35" y="779.9434">GPD EventHub</text></g><g class="participant participant-head" data-participant="C"><rect fill="#E2E2F0" height="30.4883" rx="2.5" ry="2.5" style="stroke:#181818;stroke-width:0.5;" width="108.7598" x="165.772" y="42.4883"/><text fill="#000000" font-family="sans-serif" font-size="14" lengthAdjust="spacing" textLength="94.7598" x="172.772" y="63.0234">rtp-consumer</text></g><g class="participant participant-tail" data-participant="C"><rect fill="#E2E2F0" height="30.4883" rx="2.5" ry="2.5" style="stroke:#181818;stroke-width:0.5;" width="108.7598" x="165.772" y="761.4082"/><text fill="#000000" font-family="sans-serif" font-size="14" lengthAdjust="spacing" textLength="94.7598" x="172.772" y="781.9434">rtp-consumer</text></g><g class="participant participant-head" data-participant="MA"><rect fill="#E2E2F0" height="30.4883" rx="2.5" ry="2.5" style="stroke:#181818;stroke-width:0.5;" width="73.6094" x="303.0317" y="42.4883"/><text fill="#000000" font-family="sans-serif" font-size="14" lengthAdjust="spacing" textLength="59.6094" x="310.0317" y="63.0234">mil-auth</text></g><g class="participant participant-tail" data-participant="MA"><rect fill="#E2E2F0" height="30.4883" rx="2.5" ry="2.5" style="stroke:#181818;stroke-width:0.5;" width="73.6094" x="303.0317" y="761.4082"/><text fill="#000000" font-family="sans-serif" font-size="14" lengthAdjust="spacing" textLength="59.6094" x="310.0317" y="781.9434">mil-auth</text></g><g class="participant participant-head" data-participant="S"><rect fill="#E2E2F0" height="30.4883" rx="2.5" ry="2.5" style="stroke:#181818;stroke-width:0.5;" width="87.8418" x="446.2598" y="42.4883"/><text fill="#000000" font-family="sans-serif" font-size="14" lengthAdjust="spacing" textLength="73.8418" x="453.2598" y="63.0234">rtp-sender</text></g><g class="participant participant-tail" data-participant="S"><rect fill="#E2E2F0" height="30.4883" rx="2.5" ry="2.5" style="stroke:#181818;stroke-width:0.5;" width="87.8418" x="446.2598" y="761.4082"/><text fill="#000000" font-family="sans-serif" font-size="14" lengthAdjust="spacing" textLength="73.8418" x="453.2598" y="781.9434">rtp-sender</text></g><g class="participant participant-head" data-participant="A"><rect fill="#E2E2F0" height="30.4883" rx="2.5" ry="2.5" style="stroke:#181818;stroke-width:0.5;" width="100.6045" x="608.6685" y="42.4883"/><text fill="#000000" font-family="sans-serif" font-size="14" lengthAdjust="spacing" textLength="86.6045" x="615.6685" y="63.0234">rtp-activator</text></g><g class="participant participant-tail" data-participant="A"><rect fill="#E2E2F0" height="30.4883" rx="2.5" ry="2.5" style="stroke:#181818;stroke-width:0.5;" width="100.6045" x="608.6685" y="761.4082"/><text fill="#000000" font-family="sans-serif" font-size="14" lengthAdjust="spacing" textLength="86.6045" x="615.6685" y="781.9434">rtp-activator</text></g><g class="participant participant-head" data-participant="DLQ"><path d="M724.2729,47.4883 L859.2681,47.4883 C864.2681,47.4883 864.2681,60.7324 864.2681,60.7324 C864.2681,60.7324 864.2681,73.9766 859.2681,73.9766 L724.2729,73.9766 C719.2729,73.9766 719.2729,60.7324 719.2729,60.7324 C719.2729,60.7324 719.2729,47.4883 724.2729,47.4883" fill="#E2E2F0" style="stroke:#181818;stroke-width:0.5;"/><path d="M859.2681,47.4883 C854.2681,47.4883 854.2681,60.7324 854.2681,60.7324 C854.2681,73.9766 859.2681,73.9766 859.2681,73.9766" fill="none" style="stroke:#181818;stroke-width:0.5;"/><text fill="#000000" font-family="sans-serif" font-size="14" lengthAdjust="spacing" textLength="124.9951" x="724.2729" y="66.0234">Dead-letter queue</text></g><g class="participant participant-tail" data-participant="DLQ"><path d="M724.2729,761.4082 L859.2681,761.4082 C864.2681,761.4082 864.2681,774.6523 864.2681,774.6523 C864.2681,774.6523 864.2681,787.8965 859.2681,787.8965 L724.2729,787.8965 C719.2729,787.8965 719.2729,774.6523 719.2729,774.6523 C719.2729,774.6523 719.2729,761.4082 724.2729,761.4082" fill="#E2E2F0" style="stroke:#181818;stroke-width:0.5;"/><path d="M859.2681,761.4082 C854.2681,761.4082 854.2681,774.6523 854.2681,774.6523 C854.2681,787.8965 859.2681,787.8965 859.2681,787.8965" fill="none" style="stroke:#181818;stroke-width:0.5;"/><text fill="#000000" font-family="sans-serif" font-size="14" lengthAdjust="spacing" textLength="124.9951" x="724.2729" y="779.9434">Dead-letter queue</text></g><g class="message" data-participant-1="EH" data-participant-2="C"><polygon fill="#181818" points="208.1519,101.2871,218.1519,105.2871,208.1519,109.2871,212.1519,105.2871" style="stroke:#181818;stroke-width:1;"/><line style="stroke:#181818;stroke-width:1;" x1="88.5591" x2="214.1519" y1="105.2871" y2="105.2871"/><text fill="#000000" font-family="sans-serif" font-size="13" lengthAdjust="spacing" textLength="107.5928" x="95.5591" y="100.5449">Message payload</text></g><g class="message" data-participant-1="C" data-participant-2="C"><line style="stroke:#181818;stroke-width:1;" x1="220.1519" x2="262.1519" y1="134.5977" y2="134.5977"/><line style="stroke:#181818;stroke-width:1;" x1="262.1519" x2="262.1519" y1="134.5977" y2="147.5977"/><line style="stroke:#181818;stroke-width:1;" x1="221.1519" x2="262.1519" y1="147.5977" y2="147.5977"/><polygon fill="#181818" points="231.1519,143.5977,221.1519,147.5977,231.1519,151.5977,227.1519,147.5977" style="stroke:#181818;stroke-width:1;"/><text fill="#000000" font-family="sans-serif" font-size="13" lengthAdjust="spacing" textLength="104.0317" x="227.1519" y="129.8555">Validate payload</text></g><path d="M10,162.5977 L72.1387,162.5977 L72.1387,169.9082 L62.1387,179.9082 L10,179.9082 L10,162.5977" fill="#EEEEEE" style="stroke:#000000;stroke-width:1.5;"/><rect fill="none" height="582.8105" style="stroke:#000000;stroke-width:1.5;" width="1011.1304" x="10" y="162.5977"/><text fill="#000000" font-family="sans-serif" font-size="13" font-weight="bold" lengthAdjust="spacing" textLength="17.1387" x="25" y="176.166">alt</text><text fill="#000000" font-family="sans-serif" font-size="11" font-weight="bold" lengthAdjust="spacing" textLength="85.9912" x="87.1387" y="175.2324">[Validation OK]</text><g class="message" data-participant-1="C" data-participant-2="MA"><polygon fill="#181818" points="327.8364,197.2188,337.8364,201.2188,327.8364,205.2188,331.8364,201.2188" style="stroke:#181818;stroke-width:1;"/><line style="stroke:#181818;stroke-width:1;" x1="220.1519" x2="333.8364" y1="201.2188" y2="201.2188"/><text fill="#000000" font-family="sans-serif" font-size="13" lengthAdjust="spacing" textLength="79.1934" x="227.1519" y="196.4766">POST /token</text></g><g class="message" data-participant-1="MA" data-participant-2="C"><polygon fill="#181818" points="231.1519,226.5293,221.1519,230.5293,231.1519,234.5293,227.1519,230.5293" style="stroke:#181818;stroke-width:1;"/><line style="stroke:#181818;stroke-width:1;stroke-dasharray:2,2;" x1="225.1519" x2="338.8364" y1="230.5293" y2="230.5293"/><text fill="#000000" font-family="sans-serif" font-size="13" lengthAdjust="spacing" textLength="95.6846" x="237.1519" y="225.7871">200 OK (token)</text></g><g class="message" data-participant-1="C" data-participant-2="S"><polygon fill="#181818" points="478.1807,255.8398,488.1807,259.8398,478.1807,263.8398,482.1807,259.8398" style="stroke:#181818;stroke-width:1;"/><line style="stroke:#181818;stroke-width:1;" x1="220.1519" x2="484.1807" y1="259.8398" y2="259.8398"/><text fill="#000000" font-family="sans-serif" font-size="13" lengthAdjust="spacing" textLength="246.0288" x="227.1519" y="255.0977">POST /gpd/message (payload + token)</text></g><path d="M20,274.8398 L82.1387,274.8398 L82.1387,282.1504 L72.1387,292.1504 L20,292.1504 L20,274.8398" fill="#EEEEEE" style="stroke:#000000;stroke-width:1.5;"/><rect fill="none" height="325.3711" style="stroke:#000000;stroke-width:1.5;" width="854.2681" x="20" y="274.8398"/><text fill="#000000" font-family="sans-serif" font-size="13" font-weight="bold" lengthAdjust="spacing" textLength="17.1387" x="35" y="288.4082">alt</text><text fill="#000000" font-family="sans-serif" font-size="11" font-weight="bold" lengthAdjust="spacing" textLength="58.3193" x="97.1387" y="287.4746">[POST OK]</text><g class="message" data-participant-1="S" data-participant-2="MA"><polygon fill="#181818" points="350.8364,309.4609,340.8364,313.4609,350.8364,317.4609,346.8364,313.4609" style="stroke:#181818;stroke-width:1;"/><line style="stroke:#181818;stroke-width:1;" x1="344.8364" x2="489.1807" y1="313.4609" y2="313.4609"/><text fill="#000000" font-family="sans-serif" font-size="13" lengthAdjust="spacing" textLength="79.1934" x="356.8364" y="308.7188">POST /token</text></g><g class="message" data-participant-1="MA" data-participant-2="S"><polygon fill="#181818" points="478.1807,338.7715,488.1807,342.7715,478.1807,346.7715,482.1807,342.7715" style="stroke:#181818;stroke-width:1;"/><line style="stroke:#181818;stroke-width:1;stroke-dasharray:2,2;" x1="339.8364" x2="484.1807" y1="342.7715" y2="342.7715"/><text fill="#000000" font-family="sans-serif" font-size="13" lengthAdjust="spacing" textLength="95.6846" x="346.8364" y="338.0293">200 OK (token)</text></g><g class="message" data-participant-1="S" data-participant-2="A"><polygon fill="#181818" points="646.9707,368.082,656.9707,372.082,646.9707,376.082,650.9707,372.082" style="stroke:#181818;stroke-width:1;"/><line style="stroke:#181818;stroke-width:1;" x1="490.1807" x2="652.9707" y1="372.082" y2="372.082"/><text fill="#000000" font-family="sans-serif" font-size="13" lengthAdjust="spacing" textLength="144.79" x="497.1807" y="367.3398">GET /activations/payer</text></g><g class="message" data-participant-1="A" data-participant-2="S"><polygon fill="#181818" points="501.1807,397.3926,491.1807,401.3926,501.1807,405.3926,497.1807,401.3926" style="stroke:#181818;stroke-width:1;"/><line style="stroke:#181818;stroke-width:1;stroke-dasharray:2,2;" x1="495.1807" x2="657.9707" y1="401.3926" y2="401.3926"/><text fill="#000000" font-family="sans-serif" font-size="13" lengthAdjust="spacing" textLength="94.6436" x="507.1807" y="396.6504">200 OK (payer)</text></g><g class="message" data-participant-1="S" data-participant-2="C"><polygon fill="#181818" points="231.1519,426.7031,221.1519,430.7031,231.1519,434.7031,227.1519,430.7031" style="stroke:#181818;stroke-width:1;"/><line style="stroke:#181818;stroke-width:1;stroke-dasharray:2,2;" x1="225.1519" x2="489.1807" y1="430.7031" y2="430.7031"/><text fill="#000000" font-family="sans-serif" font-size="13" lengthAdjust="spacing" textLength="83.5542" x="237.1519" y="425.9609">200 OK (RTP)</text></g><g class="message" data-participant-1="C" data-participant-2="EH"><polygon fill="#181818" points="99.5591,456.0137,89.5591,460.0137,99.5591,464.0137,95.5591,460.0137" style="stroke:#181818;stroke-width:1;"/><line style="stroke:#181818;stroke-width:1;stroke-dasharray:2,2;" x1="93.5591" x2="219.1519" y1="460.0137" y2="460.0137"/><text fill="#000000" font-family="sans-serif" font-size="13" lengthAdjust="spacing" textLength="23.2261" x="105.5591" y="455.2715">Ack</text></g><line style="stroke:#000000;stroke-width:1;stroke-dasharray:2,2;" x1="20" x2="874.2681" y1="469.0137" y2="469.0137"/><text fill="#000000" font-family="sans-serif" font-size="11" font-weight="bold" lengthAdjust="spacing" textLength="196.4531" x="25" y="479.6484">[POST failed (4xx / 5xx / timeout)]</text><g class="message" data-participant-1="S" data-participant-2="C"><polygon fill="#181818" points="231.1519,500.2793,221.1519,504.2793,231.1519,508.2793,227.1519,504.2793" style="stroke:#181818;stroke-width:1;"/><line style="stroke:#181818;stroke-width:1;stroke-dasharray:2,2;" x1="225.1519" x2="489.1807" y1="504.2793" y2="504.2793"/><text fill="#000000" font-family="sans-serif" font-size="13" lengthAdjust="spacing" textLength="94.9482" x="237.1519" y="499.5371">Error / timeout</text></g><g class="message" data-participant-1="C" data-participant-2="DLQ"><polygon fill="#181818" points="779.7705,529.5898,789.7705,533.5898,779.7705,537.5898,783.7705,533.5898" style="stroke:#181818;stroke-width:1;"/><line style="stroke:#181818;stroke-width:1;" x1="220.1519" x2="785.7705" y1="533.5898" y2="533.5898"/><text fill="#000000" font-family="sans-serif" font-size="13" lengthAdjust="spacing" textLength="151.5059" x="227.1519" y="528.8477">Enqueue failure payload</text></g><g class="message" data-participant-1="DLQ" data-participant-2="C"><polygon fill="#181818" points="231.1519,558.9004,221.1519,562.9004,231.1519,566.9004,227.1519,562.9004" style="stroke:#181818;stroke-width:1;"/><line style="stroke:#181818;stroke-width:1;stroke-dasharray:2,2;" x1="225.1519" x2="790.7705" y1="562.9004" y2="562.9004"/><text fill="#000000" font-family="sans-serif" font-size="13" lengthAdjust="spacing" textLength="62.5625" x="237.1519" y="558.1582">Ack (DLQ)</text></g><g class="message" data-participant-1="C" data-participant-2="EH"><polygon fill="#181818" points="99.5591,588.2109,89.5591,592.2109,99.5591,596.2109,95.5591,592.2109" style="stroke:#181818;stroke-width:1;"/><line style="stroke:#181818;stroke-width:1;stroke-dasharray:2,2;" x1="93.5591" x2="219.1519" y1="592.2109" y2="592.2109"/><text fill="#000000" font-family="sans-serif" font-size="13" lengthAdjust="spacing" textLength="23.2261" x="105.5591" y="587.4688">Ack</text></g><line style="stroke:#000000;stroke-width:1;stroke-dasharray:2,2;" x1="10" x2="1021.1304" y1="608.2109" y2="608.2109"/><text fill="#000000" font-family="sans-serif" font-size="11" font-weight="bold" lengthAdjust="spacing" textLength="101.041" x="15" y="618.8457">[Validation failed]</text><g class="message" data-participant-1="C" data-participant-2="DLQ"><polygon fill="#181818" points="779.7705,639.4766,789.7705,643.4766,779.7705,647.4766,783.7705,643.4766" style="stroke:#181818;stroke-width:1;"/><line style="stroke:#181818;stroke-width:1;" x1="220.1519" x2="785.7705" y1="643.4766" y2="643.4766"/><text fill="#000000" font-family="sans-serif" font-size="13" lengthAdjust="spacing" textLength="152.8325" x="227.1519" y="638.7344">Enqueue invalid payload</text></g><path d="M796,656.4766 L796,681.4766 L1011,681.4766 L1011,666.4766 L1001,656.4766 L796,656.4766" fill="#FEFFDD" style="stroke:#181818;stroke-width:0.5;"/><path d="M1001,656.4766 L1001,666.4766 L1011,666.4766 L1001,656.4766" fill="#FEFFDD" style="stroke:#181818;stroke-width:0.5;"/><text fill="#000000" font-family="sans-serif" font-size="13" lengthAdjust="spacing" textLength="194.1304" x="802" y="674.0449">Malformed or invalid message.</text><g class="message" data-participant-1="DLQ" data-participant-2="C"><polygon fill="#181818" points="231.1519,704.0977,221.1519,708.0977,231.1519,712.0977,227.1519,708.0977" style="stroke:#181818;stroke-width:1;"/><line style="stroke:#181818;stroke-width:1;stroke-dasharray:2,2;" x1="225.1519" x2="790.7705" y1="708.0977" y2="708.0977"/><text fill="#000000" font-family="sans-serif" font-size="13" lengthAdjust="spacing" textLength="62.5625" x="237.1519" y="703.3555">Ack (DLQ)</text></g><g class="message" data-participant-1="C" data-participant-2="EH"><polygon fill="#181818" points="99.5591,733.4082,89.5591,737.4082,99.5591,741.4082,95.5591,737.4082" style="stroke:#181818;stroke-width:1;"/><line style="stroke:#181818;stroke-width:1;stroke-dasharray:2,2;" x1="93.5591" x2="219.1519" y1="737.4082" y2="737.4082"/><text fill="#000000" font-family="sans-serif" font-size="13" lengthAdjust="spacing" textLength="23.2261" x="105.5591" y="732.666">Ack</text></g><!--SRC=[TL91Rjim4Bpp5GkV51IgWw2zv130a8KOI8ouTT0xQwqT8XIfK2itlUKHUM5VqkMAibBRlUYmCxCpon4PiWZV7rTGUDTsDGRuy_OEIsnRlKFOMlyBijlL7FARoBfGwgN33c4IP-KU7IswdnFGBPGBrUX0PcCQxGWcWPfyatOAeVWNhutDTKTFWYrdf-8MNPMawrDKRyZiDVcUC1jYpL5NkKKYFaH60i_llobLBk8H1LmVhclqR-jrfOe1-A6jgJIDYDAMXgdn3Xxk583GbpFchnxMZp0b_uoEvppAqwAhoqlcGYOGFreIhG-QNLDDwnGZIsxm2KP-D1QgM09BpviURDTdRPCmwcvBbgLdurlQATjY4Cxf1i763KTdoPyGeK8WVjbhc6sU8nrjYtt4hJOMAyY-lBx25BxAbqoDlgEBexrb23wCi1fstyJc8kxwUkFABeprH5fa37iu0sGyE1kEipbkL09-gBIFgSxw6RUFn0z-plFV4SpkYS1lvR-I2hJT-b3pjNp684hrVkwDHQd-7_Seh4IjCDM5KFm5]--></g></svg>