<?xml version="1.0" encoding="us-ascii" standalone="no"?><svg xmlns="http://www.w3.org/2000/svg" xmlns:xlink="http://www.w3.org/1999/xlink" contentStyleType="text/css" height="1185px" preserveAspectRatio="none" style="width:731px;height:1185px;background:#FFFFFF;" version="1.1" viewBox="0 0 731 1185" width="731px" zoomAndPan="magnify"><defs/><g><text fill="#000000" font-family="sans-serif" font-size="14" font-weight="bold" lengthAdjust="spacing" textLength="349" x="192.25" y="27.9951">RTP Consumer - Message flow (GPD -&gt; RTP)</text><rect fill="none" height="764.7266" style="stroke:#000000;stroke-width:1.5;" width="714.5" x="10" y="322.5234"/><rect fill="none" height="337.5313" style="stroke:#000000;stroke-width:1.5;" width="694.5" x="20" y="742.7188"/><line style="stroke:#181818;stroke-width:0.5;stroke-dasharray:5.0,5.0;" x1="84" x2="84" y1="118.5938" y2="1104.25"/><line style="stroke:#181818;stroke-width:0.5;stroke-dasharray:5.0,5.0;" x1="270" x2="270" y1="118.5938" y2="1104.25"/><line style="stroke:#181818;stroke-width:0.5;stroke-dasharray:5.0,5.0;" x1="416.5" x2="416.5" y1="118.5938" y2="1104.25"/><line style="stroke:#181818;stroke-width:0.5;stroke-dasharray:5.0,5.0;" x1="504.5" x2="504.5" y1="118.5938" y2="1104.25"/><line style="stroke:#181818;stroke-width:0.5;stroke-dasharray:5.0,5.0;" x1="631.5" x2="631.5" y1="118.5938" y2="1104.25"/><text fill="#000000" font-family="sans-serif" font-size="14" lengthAdjust="spacing" textLength="102" x="30" y="115.292">GPD EventHub</text><ellipse cx="84" cy="50.7969" fill="#E2E2F0" rx="8" ry="8" style="stroke:#181818;stroke-width:0.5;"/><path d="M84,58.7969 L84,85.7969 M71,66.7969 L97,66.7969 M84,85.7969 L71,100.7969 M84,85.7969 L97,100.7969 " fill="none" style="stroke:#181818;stroke-width:0.5;"/><text fill="#000000" font-family="sans-serif" font-size="14" lengthAdjust="spacing" textLength="102" x="30" y="1116.2451">GPD EventHub</text><ellipse cx="84" cy="1128.0469" fill="#E2E2F0" rx="8" ry="8" style="stroke:#181818;stroke-width:0.5;"/><path d="M84,1136.0469 L84,1163.0469 M71,1144.0469 L97,1144.0469 M84,1163.0469 L71,1178.0469 M84,1163.0469 L97,1178.0469 " fill="none" style="stroke:#181818;stroke-width:0.5;"/><rect fill="#E2E2F0" height="30.2969" rx="2.5" ry="2.5" style="stroke:#181818;stroke-width:0.5;" width="108" x="216" y="87.2969"/><text fill="#000000" font-family="sans-serif" font-size="14" lengthAdjust="spacing" textLength="94" x="223" y="107.292">rtp-consumer</text><rect fill="#E2E2F0" height="30.2969" rx="2.5" ry="2.5" style="stroke:#181818;stroke-width:0.5;" width="108" x="216" y="1103.25"/><text fill="#000000" font-family="sans-serif" font-size="14" lengthAdjust="spacing" textLength="94" x="223" y="1123.2451">rtp-consumer</text><rect fill="#E2E2F0" height="30.2969" rx="2.5" ry="2.5" style="stroke:#181818;stroke-width:0.5;" width="69" x="382.5" y="87.2969"/><text fill="#000000" font-family="sans-serif" font-size="14" lengthAdjust="spacing" textLength="55" x="389.5" y="107.292">mil-auth</text><rect fill="#E2E2F0" height="30.2969" rx="2.5" ry="2.5" style="stroke:#181818;stroke-width:0.5;" width="69" x="382.5" y="1103.25"/><text fill="#000000" font-family="sans-serif" font-size="14" lengthAdjust="spacing" textLength="55" x="389.5" y="1123.2451">mil-auth</text><rect fill="#E2E2F0" height="30.2969" rx="2.5" ry="2.5" style="stroke:#181818;stroke-width:0.5;" width="87" x="461.5" y="87.2969"/><text fill="#000000" font-family="sans-serif" font-size="14" lengthAdjust="spacing" textLength="73" x="468.5" y="107.292">rtp-sender</text><rect fill="#E2E2F0" height="30.2969" rx="2.5" ry="2.5" style="stroke:#181818;stroke-width:0.5;" width="87" x="461.5" y="1103.25"/><text fill="#000000" font-family="sans-serif" font-size="14" lengthAdjust="spacing" textLength="73" x="468.5" y="1123.2451">rtp-sender</text><path d="M563.5,92.2969 L699.5,92.2969 C704.5,92.2969 704.5,105.4453 704.5,105.4453 C704.5,105.4453 704.5,118.5938 699.5,118.5938 L563.5,118.5938 C558.5,118.5938 558.5,105.4453 558.5,105.4453 C558.5,105.4453 558.5,92.2969 563.5,92.2969 " fill="#E2E2F0" style="stroke:#181818;stroke-width:0.5;"/><path d="M699.5,92.2969 C694.5,92.2969 694.5,105.4453 694.5,105.4453 C694.5,118.5938 699.5,118.5938 699.5,118.5938 " fill="none" style="stroke:#181818;stroke-width:0.5;"/><text fill="#000000" font-family="sans-serif" font-size="14" lengthAdjust="spacing" textLength="126" x="563.5" y="110.292">Dead letter queue</text><path d="M563.5,1103.25 L699.5,1103.25 C704.5,1103.25 704.5,1116.3984 704.5,1116.3984 C704.5,1116.3984 704.5,1129.5469 699.5,1129.5469 L563.5,1129.5469 C558.5,1129.5469 558.5,1116.3984 558.5,1116.3984 C558.5,1116.3984 558.5,1103.25 563.5,1103.25 " fill="#E2E2F0" style="stroke:#181818;stroke-width:0.5;"/><path d="M699.5,1103.25 C694.5,1103.25 694.5,1116.3984 694.5,1116.3984 C694.5,1129.5469 699.5,1129.5469 699.5,1129.5469 " fill="none" style="stroke:#181818;stroke-width:0.5;"/><text fill="#000000" font-family="sans-serif" font-size="14" lengthAdjust="spacing" textLength="126" x="563.5" y="1121.2451">Dead letter queue</text><path d="M30,133.5938 L30,173.5938 L324,173.5938 L324,143.5938 L314,133.5938 L30,133.5938 " fill="#FEFFDD" style="stroke:#181818;stroke-width:0.5;"/><path d="M314,133.5938 L314,143.5938 L324,143.5938 L314,133.5938 " fill="#FEFFDD" style="stroke:#181818;stroke-width:0.5;"/><text fill="#000000" font-family="sans-serif" font-size="13" lengthAdjust="spacing" textLength="273" x="36" y="150.6606">A message is published on GPD EventHub.</text><text fill="#000000" font-family="sans-serif" font-size="13" lengthAdjust="spacing" textLength="263" x="36" y="165.7935">rtp-consumer receives it asynchronously.</text><polygon fill="#181818" points="258,211.125,268,215.125,258,219.125,262,215.125" style="stroke:#181818;stroke-width:1.0;"/><line style="stroke:#181818;stroke-width:1.0;" x1="84" x2="264" y1="215.125" y2="215.125"/><text fill="#000000" font-family="sans-serif" font-size="13" lengthAdjust="spacing" textLength="162" x="91" y="194.9263">EventReceived(message)</text><text fill="#000000" font-family="sans-serif" font-size="13" lengthAdjust="spacing" textLength="131" x="91" y="210.0591">(headers + payload)</text><path d="M275,228.125 L275,268.125 L592,268.125 L592,238.125 L582,228.125 L275,228.125 " fill="#FEFFDD" style="stroke:#181818;stroke-width:0.5;"/><path d="M582,228.125 L582,238.125 L592,238.125 L582,228.125 " fill="#FEFFDD" style="stroke:#181818;stroke-width:0.5;"/><text fill="#000000" font-family="sans-serif" font-size="13" lengthAdjust="spacing" textLength="177" x="281" y="245.1919">Step 1 - Message validation</text><text fill="#000000" font-family="sans-serif" font-size="13" lengthAdjust="spacing" textLength="296" x="281" y="260.3247">- Syntactic validation (schema, required fields)</text><line style="stroke:#181818;stroke-width:1.0;" x1="270" x2="312" y1="294.5234" y2="294.5234"/><line style="stroke:#181818;stroke-width:1.0;" x1="312" x2="312" y1="294.5234" y2="307.5234"/><line style="stroke:#181818;stroke-width:1.0;" x1="271" x2="312" y1="307.5234" y2="307.5234"/><polygon fill="#181818" points="281,303.5234,271,307.5234,281,311.5234,277,307.5234" style="stroke:#181818;stroke-width:1.0;"/><text fill="#000000" font-family="sans-serif" font-size="13" lengthAdjust="spacing" textLength="119" x="277" y="289.4575">validate(message)</text><path d="M10,322.5234 L74,322.5234 L74,329.6563 L64,339.6563 L10,339.6563 L10,322.5234 " fill="#EEEEEE" style="stroke:#000000;stroke-width:1.5;"/><rect fill="none" height="764.7266" style="stroke:#000000;stroke-width:1.5;" width="714.5" x="10" y="322.5234"/><text fill="#000000" font-family="sans-serif" font-size="13" font-weight="bold" lengthAdjust="spacing" textLength="19" x="25" y="335.5903">alt</text><text fill="#000000" font-family="sans-serif" font-size="11" font-weight="bold" lengthAdjust="spacing" textLength="133" x="89" y="334.7339">[VALIDATION FAILED]</text><path d="M275,344.6563 L275,384.6563 L656,384.6563 L656,354.6563 L646,344.6563 L275,344.6563 " fill="#FEFFDD" style="stroke:#181818;stroke-width:0.5;"/><path d="M646,344.6563 L646,354.6563 L656,354.6563 L646,344.6563 " fill="#FEFFDD" style="stroke:#181818;stroke-width:0.5;"/><text fill="#000000" font-family="sans-serif" font-size="13" lengthAdjust="spacing" textLength="239" x="281" y="361.7231">The message is malformed or invalid.</text><text fill="#000000" font-family="sans-serif" font-size="13" lengthAdjust="spacing" textLength="360" x="281" y="376.856">It is published to the Dead letter queue for reprocessing.</text><polygon fill="#181818" points="619.5,422.1875,629.5,426.1875,619.5,430.1875,623.5,426.1875" style="stroke:#181818;stroke-width:1.0;"/><line style="stroke:#181818;stroke-width:1.0;" x1="270" x2="625.5" y1="426.1875" y2="426.1875"/><text fill="#000000" font-family="sans-serif" font-size="13" lengthAdjust="spacing" textLength="216" x="277" y="405.9888">Publish(originalMessage + failure)</text><text fill="#000000" font-family="sans-serif" font-size="13" lengthAdjust="spacing" textLength="313" x="277" y="421.1216">metadata: httpStatus, errorMessage, timestamp</text><polygon fill="#181818" points="281,451.3203,271,455.3203,281,459.3203,277,455.3203" style="stroke:#181818;stroke-width:1.0;"/><line style="stroke:#181818;stroke-width:1.0;stroke-dasharray:2.0,2.0;" x1="275" x2="630.5" y1="455.3203" y2="455.3203"/><text fill="#000000" font-family="sans-serif" font-size="13" lengthAdjust="spacing" textLength="22" x="287" y="450.2544">ack</text><polygon fill="#181818" points="95,480.4531,85,484.4531,95,488.4531,91,484.4531" style="stroke:#181818;stroke-width:1.0;"/><line style="stroke:#181818;stroke-width:1.0;stroke-dasharray:2.0,2.0;" x1="89" x2="269" y1="484.4531" y2="484.4531"/><text fill="#000000" font-family="sans-serif" font-size="13" lengthAdjust="spacing" textLength="22" x="101" y="479.3872">ack</text><line style="stroke:#000000;stroke-width:1.0;stroke-dasharray:2.0,2.0;" x1="10" x2="724.5" y1="493.4531" y2="493.4531"/><text fill="#000000" font-family="sans-serif" font-size="11" font-weight="bold" lengthAdjust="spacing" textLength="166" x="15" y="503.6636">[VALIDATION SUCCEEDED]</text><path d="M275,512.2578 L275,582.2578 L587,582.2578 L587,522.2578 L577,512.2578 L275,512.2578 " fill="#FEFFDD" style="stroke:#181818;stroke-width:0.5;"/><path d="M577,512.2578 L577,522.2578 L587,522.2578 L577,512.2578 " fill="#FEFFDD" style="stroke:#181818;stroke-width:0.5;"/><text fill="#000000" font-family="sans-serif" font-size="13" lengthAdjust="spacing" textLength="273" x="281" y="529.3247">Step 2 - Authentication towards rtp-sender</text><text fill="#000000" font-family="sans-serif" font-size="13" lengthAdjust="spacing" textLength="247" x="281" y="544.4575">The call to rtp-sender is authenticated.</text><text fill="#000000" font-family="sans-serif" font-size="13" lengthAdjust="spacing" textLength="247" x="281" y="559.5903">A token is first retrieved from mil-auth,</text><text fill="#000000" font-family="sans-serif" font-size="13" lengthAdjust="spacing" textLength="291" x="281" y="574.7231">then the authenticated POST call is executed.</text><polygon fill="#181818" points="405,620.0547,415,624.0547,405,628.0547,409,624.0547" style="stroke:#181818;stroke-width:1.0;"/><line style="stroke:#181818;stroke-width:1.0;" x1="270" x2="411" y1="624.0547" y2="624.0547"/><text fill="#000000" font-family="sans-serif" font-size="13" lengthAdjust="spacing" textLength="78" x="277" y="603.856">POST /token</text><text fill="#000000" font-family="sans-serif" font-size="13" lengthAdjust="spacing" textLength="123" x="277" y="618.9888">(scope: rtp-sender)</text><polygon fill="#181818" points="281,664.3203,271,668.3203,281,672.3203,277,668.3203" style="stroke:#181818;stroke-width:1.0;"/><line style="stroke:#181818;stroke-width:1.0;stroke-dasharray:2.0,2.0;" x1="275" x2="416" y1="668.3203" y2="668.3203"/><text fill="#000000" font-family="sans-serif" font-size="13" lengthAdjust="spacing" textLength="46" x="287" y="648.1216">200 OK</text><text fill="#000000" font-family="sans-serif" font-size="13" lengthAdjust="spacing" textLength="87" x="287" y="663.2544">access_token</text><polygon fill="#181818" points="493,723.7188,503,727.7188,493,731.7188,497,727.7188" style="stroke:#181818;stroke-width:1.0;"/><line style="stroke:#181818;stroke-width:1.0;" x1="270" x2="499" y1="727.7188" y2="727.7188"/><text fill="#000000" font-family="sans-serif" font-size="13" lengthAdjust="spacing" textLength="129" x="277" y="692.3872">POST /gpd/message</text><text fill="#000000" font-family="sans-serif" font-size="13" lengthAdjust="spacing" textLength="198" x="277" y="707.52">Authorization: Bearer &lt;token&gt;</text><text fill="#000000" font-family="sans-serif" font-size="13" lengthAdjust="spacing" textLength="160" x="277" y="722.6528">body: validated message</text><path d="M20,742.7188 L84,742.7188 L84,749.8516 L74,759.8516 L20,759.8516 L20,742.7188 " fill="#EEEEEE" style="stroke:#000000;stroke-width:1.5;"/><rect fill="none" height="337.5313" style="stroke:#000000;stroke-width:1.5;" width="694.5" x="20" y="742.7188"/><text fill="#000000" font-family="sans-serif" font-size="13" font-weight="bold" lengthAdjust="spacing" textLength="19" x="35" y="755.7856">alt</text><text fill="#000000" font-family="sans-serif" font-size="11" font-weight="bold" lengthAdjust="spacing" textLength="125" x="99" y="754.9292">[POST SUCCEEDED]</text><polygon fill="#181818" points="281,792.1172,271,796.1172,281,800.1172,277,796.1172" style="stroke:#181818;stroke-width:1.0;"/><line style="stroke:#181818;stroke-width:1.0;stroke-dasharray:2.0,2.0;" x1="275" x2="504" y1="796.1172" y2="796.1172"/><text fill="#000000" font-family="sans-serif" font-size="13" lengthAdjust="spacing" textLength="46" x="287" y="775.9185">200 OK</text><text fill="#000000" font-family="sans-serif" font-size="13" lengthAdjust="spacing" textLength="125" x="287" y="791.0513">response: RTP body</text><polygon fill="#181818" points="95,821.25,85,825.25,95,829.25,91,825.25" style="stroke:#181818;stroke-width:1.0;"/><line style="stroke:#181818;stroke-width:1.0;stroke-dasharray:2.0,2.0;" x1="89" x2="269" y1="825.25" y2="825.25"/><text fill="#000000" font-family="sans-serif" font-size="13" lengthAdjust="spacing" textLength="22" x="101" y="820.1841">ack</text><path d="M275,838.25 L275,863.25 L599,863.25 L599,848.25 L589,838.25 L275,838.25 " fill="#FEFFDD" style="stroke:#181818;stroke-width:0.5;"/><path d="M589,838.25 L589,848.25 L599,848.25 L589,838.25 " fill="#FEFFDD" style="stroke:#181818;stroke-width:0.5;"/><text fill="#000000" font-family="sans-serif" font-size="13" lengthAdjust="spacing" textLength="303" x="281" y="855.3169">The message has been successfully processed.</text><line style="stroke:#000000;stroke-width:1.0;stroke-dasharray:2.0,2.0;" x1="20" x2="714.5" y1="869.3828" y2="869.3828"/><text fill="#000000" font-family="sans-serif" font-size="11" font-weight="bold" lengthAdjust="spacing" textLength="223" x="25" y="879.5933">[POST FAILED (4xx / 5xx / timeout)]</text><polygon fill="#181818" points="281,900.3203,271,904.3203,281,908.3203,277,904.3203" style="stroke:#181818;stroke-width:1.0;"/><line style="stroke:#181818;stroke-width:1.0;stroke-dasharray:2.0,2.0;" x1="275" x2="504" y1="904.3203" y2="904.3203"/><text fill="#000000" font-family="sans-serif" font-size="13" lengthAdjust="spacing" textLength="156" x="287" y="899.2544">error response / timeout</text><path d="M275,917.3203 L275,972.3203 L588,972.3203 L588,927.3203 L578,917.3203 L275,917.3203 " fill="#FEFFDD" style="stroke:#181818;stroke-width:0.5;"/><path d="M578,917.3203 L578,927.3203 L588,927.3203 L578,917.3203 " fill="#FEFFDD" style="stroke:#181818;stroke-width:0.5;"/><text fill="#000000" font-family="sans-serif" font-size="13" lengthAdjust="spacing" textLength="163" x="281" y="934.3872">Even if the POST call fails,</text><text fill="#000000" font-family="sans-serif" font-size="13" lengthAdjust="spacing" textLength="292" x="281" y="949.52">the message is sent to the Dead letter queue</text><text fill="#000000" font-family="sans-serif" font-size="13" lengthAdjust="spacing" textLength="190" x="281" y="964.6528">for reprocessing and analysis.</text><polygon fill="#181818" points="619.5,1009.9844,629.5,1013.9844,619.5,1017.9844,623.5,1013.9844" style="stroke:#181818;stroke-width:1.0;"/><line style="stroke:#181818;stroke-width:1.0;" x1="270" x2="625.5" y1="1013.9844" y2="1013.9844"/><text fill="#000000" font-family="sans-serif" font-size="13" lengthAdjust="spacing" textLength="216" x="277" y="993.7856">Publish(originalMessage + failure)</text><text fill="#000000" font-family="sans-serif" font-size="13" lengthAdjust="spacing" textLength="313" x="277" y="1008.9185">metadata: httpStatus, errorMessage, timestamp</text><polygon fill="#181818" points="281,1039.1172,271,1043.1172,281,1047.1172,277,1043.1172" style="stroke:#181818;stroke-width:1.0;"/><line style="stroke:#181818;stroke-width:1.0;stroke-dasharray:2.0,2.0;" x1="275" x2="630.5" y1="1043.1172" y2="1043.1172"/><text fill="#000000" font-family="sans-serif" font-size="13" lengthAdjust="spacing" textLength="22" x="287" y="1038.0513">ack</text><polygon fill="#181818" points="95,1068.25,85,1072.25,95,1076.25,91,1072.25" style="stroke:#181818;stroke-width:1.0;"/><line style="stroke:#181818;stroke-width:1.0;stroke-dasharray:2.0,2.0;" x1="89" x2="269" y1="1072.25" y2="1072.25"/><text fill="#000000" font-family="sans-serif" font-size="13" lengthAdjust="spacing" textLength="22" x="101" y="1067.1841">ack</text><!--SRC=[jLJ1Rjf04BtxAqQSG84aZTfBL4LoWHRKfA61zeHKBVOOhxBUTNR79FJhExismK1ox0M9tPctRzvxOvAa41uMCnWQxQe2BGpW3fqJQuHCcMVeVfkDO73ZQtfH918o5Zh-RBn1JPDgrG7XO3o9Ic599h8Kcg1ZgHma3M8e61xU5r8DH4LvkBkBJviTwhHfdKTF5LO8dH6A51GICSjm5Av7jp-ZI1j2C1k-64_wmoY6efb1EYYhbP8knnICXZRpywXD4omcA3VeG1BZRdMIMwDDvTJsF68suD-8el74gp64wnhceMvAkys3lQNkvimJhOCpACLM6P7s6e9MhdC2ax4QSy8IFhJ4tWWbKq7Iw6W0ywqcbbechMFekYJ7GlIPw5CbBS-JILIfwxNO3NVacZvyvSNUAOBVyUrq52-czp_WQpoz7OyYW6Dg08iSsm8MGcN65bv02r87w7CkczAXl6I0kFF49k1k9brQap2er6lVlESC45YpZynxLgDr3HEIMgYTF6UG2QagwmKka0JF9guX9ohd9AXoVK1hZMtA-q2I1o1Hb0plaGUDBY9vh1_a_snbVH2XSjZMPlvhE1oFH-_84xoxOkzYJZ1dG2QrGMIUXKqTxFFRQ9a8fRmw-mildDXtOz0pvff7rFukazOHQqPMuiOxRKq1kwNfSwrl3MeVeC3iVhwedsCGVC6aQh1FvBwBlTg-_2AyohbrYIdnkiMonyLSjzFkwl8IxhyljKYyZtz2solU_1LkNQONJNgMsal4NluD2bt35nIMf_ySUc-MUcNIxJwiwIvr7jN7DG2spM3nJ-XOT2NlC3Fttp6F60gFFFP7frOUPZtdpyaAMLXNXH6pIgajDBcjTJnKCkGcaAot2ReVNrxW0Zw5Nvz1Kr7lY7S8AknOx-lUfUW_D22pOFVUOByFhXyAw71VsJnwTnb3m_52Wk2X1A_RrabtEkP_tz2tTlGD1vcJ_zP5_m00]--></g></svg>