<?xml version="1.0" encoding="us-ascii" standalone="no"?><svg xmlns="http://www.w3.org/2000/svg" xmlns:xlink="http://www.w3.org/1999/xlink" contentStyleType="text/css" height="1308.3333px" preserveAspectRatio="none" style="width:981px;height:1308px;" version="1.1" viewBox="0 0 981 1308" width="981.25px" zoomAndPan="magnify"><defs><linearGradient id="g1mc4e32zqc360" x1="50%" x2="50%" y1="0%" y2="100%"><stop offset="0%" stop-color="#FFFFFF"/><stop offset="100%" stop-color="#FFFFFF"/></linearGradient><filter height="300%" id="f1mc4e32zqc36" width="300%" x="-1" y="-1"><feGaussianBlur result="blurOut" stdDeviation="2.0833333333333335"/><feColorMatrix in="blurOut" result="blurOut2" type="matrix" values="0 0 0 0 0 0 0 0 0 0 0 0 0 0 0 0 0 0 .4 0"/><feOffset dx="4.166666666666667" dy="4.166666666666667" in="blurOut2" result="blurOut3"/><feBlend in="SourceGraphic" in2="blurOut3" mode="normal"/></filter><linearGradient id="g1mc4e32zqc361" x1="50%" x2="50%" y1="0%" y2="100%"><stop offset="0%" stop-color="#4DABF5"/><stop offset="100%" stop-color="#2196F3"/></linearGradient></defs><g><rect fill="url(#g1mc4e32zqc360)" height="57.5846" id="_title" rx="4.1667" ry="4.1667" style="stroke:#CCCCCC;stroke-width:1.0416666666666667;" width="564.5833" x="209.375" y="20.8333"/><text fill="#2196F3" font-family="Verdana" font-size="20.8333" font-weight="bold" lengthAdjust="spacing" textLength="531.25" x="226.0417" y="56.838">RTP Consumer &#8212; Message flow (GPD -&gt; RTP)</text><rect fill="#FFFFFF" filter="url(#f1mc4e32zqc36)" height="968.0664" style="stroke:#CCCCCC;stroke-width:1.0416666666666667;" width="10.4167" x="276.0417" y="225.2279"/><rect fill="#FFFFFF" filter="url(#f1mc4e32zqc36)" height="49.9674" style="stroke:#CCCCCC;stroke-width:1.0416666666666667;" width="10.4167" x="493.75" y="481.2826"/><rect fill="#FFFFFF" filter="url(#f1mc4e32zqc36)" height="114.4857" style="stroke:#CCCCCC;stroke-width:1.0416666666666667;" width="10.4167" x="707.2917" y="581.2174"/><rect fill="#FFFFFF" filter="url(#f1mc4e32zqc36)" height="49.9674" style="stroke:#CCCCCC;stroke-width:1.0416666666666667;" width="10.4167" x="869.7917" y="883.0729"/><rect fill="#FFFFFF" filter="url(#f1mc4e32zqc36)" height="49.9674" style="stroke:#CCCCCC;stroke-width:1.0416666666666667;" width="10.4167" x="869.7917" y="1077.7344"/><rect fill="url(#g1mc4e32zqc360)" filter="url(#f1mc4e32zqc36)" height="881.6406" rx="4.1667" ry="4.1667" style="stroke:#2196F3;stroke-width:1.0416666666666667;" width="942.7083" x="20.8333" y="304.362"/><rect fill="url(#g1mc4e32zqc360)" filter="url(#f1mc4e32zqc36)" height="394.4987" rx="4.1667" ry="4.1667" style="stroke:#2196F3;stroke-width:1.0416666666666667;" width="921.875" x="31.25" y="596.8424"/><path d="M31.25,754.0039 L953.125,754.0039 L953.125,987.1745 A4.1667,4.1667 0 0 1 948.9583,991.3411 L35.4167,991.3411 A4.1667,4.1667 0 0 1 31.25,987.1745 L31.25,754.0039 " fill="url(#g1mc4e32zqc360)" style="stroke:none;stroke-width:1.0416666666666667;"/><path d="M20.8333,998.6328 L963.5417,998.6328 L963.5417,1181.8359 A4.1667,4.1667 0 0 1 959.375,1186.0026 L25,1186.0026 A4.1667,4.1667 0 0 1 20.8333,1181.8359 L20.8333,998.6328 " fill="url(#g1mc4e32zqc360)" style="stroke:none;stroke-width:1.0416666666666667;"/><line style="stroke:#CCCCCC;stroke-width:1.0416666666666667;stroke-dasharray:5.0,5.0;" x1="109.375" x2="109.375" y1="173.1771" y2="1203.7109"/><line style="stroke:#CCCCCC;stroke-width:1.0416666666666667;stroke-dasharray:5.0,5.0;" x1="281.25" x2="281.25" y1="173.1771" y2="1203.7109"/><line style="stroke:#CCCCCC;stroke-width:1.0416666666666667;stroke-dasharray:5.0,5.0;" x1="498.9583" x2="498.9583" y1="173.1771" y2="1203.7109"/><line style="stroke:#CCCCCC;stroke-width:1.0416666666666667;stroke-dasharray:5.0,5.0;" x1="712.5" x2="712.5" y1="173.1771" y2="1203.7109"/><line style="stroke:#CCCCCC;stroke-width:1.0416666666666667;stroke-dasharray:5.0,5.0;" x1="875" x2="875" y1="173.1771" y2="1203.7109"/><path d="M46.875,127.3763 L171.875,127.3763 C177.0833,127.3763 177.0833,150.2767 177.0833,150.2767 C177.0833,150.2767 177.0833,173.1771 171.875,173.1771 L46.875,173.1771 C41.6667,173.1771 41.6667,150.2767 41.6667,150.2767 C41.6667,150.2767 41.6667,127.3763 46.875,127.3763 " fill="url(#g1mc4e32zqc361)" filter="url(#f1mc4e32zqc36)" style="stroke:#2196F3;stroke-width:1.0416666666666667;"/><path d="M171.875,127.3763 C166.6667,127.3763 166.6667,150.2767 166.6667,150.2767 C166.6667,173.1771 171.875,173.1771 171.875,173.1771 " fill="none" style="stroke:#2196F3;stroke-width:1.0416666666666667;"/><text fill="#FFFFFF" font-family="Verdana" font-size="12.5" lengthAdjust="spacing" textLength="93.75" x="57.2917" y="154.6041">GPD EventHub</text><path d="M46.875,1202.6693 L171.875,1202.6693 C177.0833,1202.6693 177.0833,1225.5697 177.0833,1225.5697 C177.0833,1225.5697 177.0833,1248.4701 171.875,1248.4701 L46.875,1248.4701 C41.6667,1248.4701 41.6667,1225.5697 41.6667,1225.5697 C41.6667,1225.5697 41.6667,1202.6693 46.875,1202.6693 " fill="url(#g1mc4e32zqc361)" filter="url(#f1mc4e32zqc36)" style="stroke:#2196F3;stroke-width:1.0416666666666667;"/><path d="M171.875,1202.6693 C166.6667,1202.6693 166.6667,1225.5697 166.6667,1225.5697 C166.6667,1248.4701 171.875,1248.4701 171.875,1248.4701 " fill="none" style="stroke:#2196F3;stroke-width:1.0416666666666667;"/><text fill="#FFFFFF" font-family="Verdana" font-size="12.5" lengthAdjust="spacing" textLength="93.75" x="57.2917" y="1229.8971">GPD EventHub</text><rect fill="url(#g1mc4e32zqc361)" filter="url(#f1mc4e32zqc36)" height="49.9674" rx="4.1667" ry="4.1667" style="stroke:#2196F3;stroke-width:1.0416666666666667;" width="101.0417" x="229.1667" y="119.043"/><text fill="#FFFFFF" font-family="Verdana" font-size="12.5" lengthAdjust="spacing" textLength="65.625" x="246.875" y="148.3541">Consumer</text><rect fill="url(#g1mc4e32zqc361)" filter="url(#f1mc4e32zqc36)" height="49.9674" rx="4.1667" ry="4.1667" style="stroke:#2196F3;stroke-width:1.0416666666666667;" width="101.0417" x="229.1667" y="1202.6693"/><text fill="#FFFFFF" font-family="Verdana" font-size="12.5" lengthAdjust="spacing" textLength="65.625" x="246.875" y="1231.9804">Consumer</text><rect fill="url(#g1mc4e32zqc361)" filter="url(#f1mc4e32zqc36)" height="49.9674" rx="4.1667" ry="4.1667" style="stroke:#2196F3;stroke-width:1.0416666666666667;" width="140.625" x="427.0833" y="119.043"/><text fill="#FFFFFF" font-family="Verdana" font-size="12.5" lengthAdjust="spacing" textLength="105.2083" x="444.7917" y="148.3541">Identity Provider</text><rect fill="url(#g1mc4e32zqc361)" filter="url(#f1mc4e32zqc36)" height="49.9674" rx="4.1667" ry="4.1667" style="stroke:#2196F3;stroke-width:1.0416666666666667;" width="140.625" x="427.0833" y="1202.6693"/><text fill="#FFFFFF" font-family="Verdana" font-size="12.5" lengthAdjust="spacing" textLength="105.2083" x="444.7917" y="1231.9804">Identity Provider</text><rect fill="url(#g1mc4e32zqc361)" filter="url(#f1mc4e32zqc36)" height="49.9674" rx="4.1667" ry="4.1667" style="stroke:#2196F3;stroke-width:1.0416666666666667;" width="82.2917" x="669.7917" y="119.043"/><text fill="#FFFFFF" font-family="Verdana" font-size="12.5" lengthAdjust="spacing" textLength="46.875" x="687.5" y="148.3541">Sender</text><rect fill="url(#g1mc4e32zqc361)" filter="url(#f1mc4e32zqc36)" height="49.9674" rx="4.1667" ry="4.1667" style="stroke:#2196F3;stroke-width:1.0416666666666667;" width="82.2917" x="669.7917" y="1202.6693"/><text fill="#FFFFFF" font-family="Verdana" font-size="12.5" lengthAdjust="spacing" textLength="46.875" x="687.5" y="1231.9804">Sender</text><text fill="#222222" font-family="Verdana" font-size="12.5" lengthAdjust="spacing" textLength="108.3333" x="817.7083" y="159.8124">Failed Messages</text><path d="M856.25,100.293 C856.25,89.8763 875,89.8763 875,89.8763 C875,89.8763 893.75,89.8763 893.75,100.293 L893.75,127.3763 C893.75,137.793 875,137.793 875,137.793 C875,137.793 856.25,137.793 856.25,127.3763 L856.25,100.293 " fill="url(#g1mc4e32zqc361)" filter="url(#f1mc4e32zqc36)" style="stroke:#2196F3;stroke-width:1.5625;"/><path d="M856.25,100.293 C856.25,110.7096 875,110.7096 875,110.7096 C875,110.7096 893.75,110.7096 893.75,100.293 " fill="none" style="stroke:#2196F3;stroke-width:1.5625;"/><text fill="#222222" font-family="Verdana" font-size="12.5" lengthAdjust="spacing" textLength="108.3333" x="817.7083" y="1224.6887">Failed Messages</text><path d="M856.25,1248.4701 C856.25,1238.0534 875,1238.0534 875,1238.0534 C875,1238.0534 893.75,1238.0534 893.75,1248.4701 L893.75,1275.5534 C893.75,1285.9701 875,1285.9701 875,1285.9701 C875,1285.9701 856.25,1285.9701 856.25,1275.5534 L856.25,1248.4701 " fill="url(#g1mc4e32zqc361)" filter="url(#f1mc4e32zqc36)" style="stroke:#2196F3;stroke-width:1.5625;"/><path d="M856.25,1248.4701 C856.25,1258.8867 875,1258.8867 875,1258.8867 C875,1258.8867 893.75,1258.8867 893.75,1248.4701 " fill="none" style="stroke:#2196F3;stroke-width:1.5625;"/><rect fill="#FFFFFF" filter="url(#f1mc4e32zqc36)" height="968.0664" style="stroke:#CCCCCC;stroke-width:1.0416666666666667;" width="10.4167" x="276.0417" y="225.2279"/><rect fill="#FFFFFF" filter="url(#f1mc4e32zqc36)" height="49.9674" style="stroke:#CCCCCC;stroke-width:1.0416666666666667;" width="10.4167" x="493.75" y="481.2826"/><rect fill="#FFFFFF" filter="url(#f1mc4e32zqc36)" height="114.4857" style="stroke:#CCCCCC;stroke-width:1.0416666666666667;" width="10.4167" x="707.2917" y="581.2174"/><rect fill="#FFFFFF" filter="url(#f1mc4e32zqc36)" height="49.9674" style="stroke:#CCCCCC;stroke-width:1.0416666666666667;" width="10.4167" x="869.7917" y="883.0729"/><rect fill="#FFFFFF" filter="url(#f1mc4e32zqc36)" height="49.9674" style="stroke:#CCCCCC;stroke-width:1.0416666666666667;" width="10.4167" x="869.7917" y="1077.7344"/><polygon fill="#2196F3" points="263.5417,221.0612,273.9583,225.2279,263.5417,229.3945,267.7083,225.2279" style="stroke:#2196F3;stroke-width:1.0416666666666667;"/><line style="stroke:#2196F3;stroke-width:3.125;" x1="109.375" x2="269.7917" y1="225.2279" y2="225.2279"/><text fill="#222222" font-family="Verdana" font-size="12.5" lengthAdjust="spacing" textLength="113.5417" x="127.0833" y="209.7799">Message payload</text><line style="stroke:#2196F3;stroke-width:3.125;" x1="286.4583" x2="330.2083" y1="275.1953" y2="275.1953"/><line style="stroke:#2196F3;stroke-width:3.125;" x1="330.2083" x2="330.2083" y1="275.1953" y2="288.737"/><line style="stroke:#2196F3;stroke-width:3.125;" x1="287.5" x2="330.2083" y1="288.737" y2="288.737"/><polygon fill="#2196F3" points="297.9167,284.5703,287.5,288.737,297.9167,292.9036,293.75,288.737" style="stroke:#2196F3;stroke-width:1.0416666666666667;"/><text fill="#222222" font-family="Verdana" font-size="12.5" lengthAdjust="spacing" textLength="108.3333" x="304.1667" y="259.7473">Validate payload</text><path d="M25,304.362 L108.3333,304.362 L108.3333,331.4128 L97.9167,341.8294 L20.8333,341.8294 L20.8333,308.5286 A4.1667,4.1667 0 0 1 25,304.362 " fill="#FFFFFF" style="stroke:#666666;stroke-width:1.0416666666666667;"/><rect fill="none" height="881.6406" rx="4.1667" ry="4.1667" style="stroke:#2196F3;stroke-width:1.0416666666666667;" width="942.7083" x="20.8333" y="304.362"/><text fill="#9C27B0" font-family="Verdana" font-size="12.5" font-weight="bold" lengthAdjust="spacing" textLength="19.7917" x="46.875" y="327.4231">alt</text><text fill="#222222" font-family="Verdana" font-size="12.5" font-weight="bold" lengthAdjust="spacing" textLength="110.4167" x="134.375" y="328.4648">[Validation OK]</text><line style="stroke:#2196F3;stroke-width:3.125;" x1="286.4583" x2="330.2083" y1="417.7734" y2="417.7734"/><line style="stroke:#2196F3;stroke-width:3.125;" x1="330.2083" x2="330.2083" y1="417.7734" y2="431.3151"/><line style="stroke:#2196F3;stroke-width:3.125;" x1="287.5" x2="330.2083" y1="431.3151" y2="431.3151"/><polygon fill="#2196F3" points="297.9167,427.1484,287.5,431.3151,297.9167,435.4818,293.75,431.3151" style="stroke:#2196F3;stroke-width:1.0416666666666667;"/><text fill="#222222" font-family="Verdana" font-size="12.5" lengthAdjust="spacing" textLength="171.875" x="304.1667" y="387.7747">Compute Idempotency-Key</text><text fill="#222222" font-family="Verdana" font-size="12.5" lengthAdjust="spacing" textLength="84.375" x="304.1667" y="402.3254">from payload</text><polygon fill="#2196F3" points="481.25,477.1159,491.6667,481.2826,481.25,485.4492,485.4167,481.2826" style="stroke:#2196F3;stroke-width:1.0416666666666667;"/><line style="stroke:#2196F3;stroke-width:3.125;" x1="286.4583" x2="487.5" y1="481.2826" y2="481.2826"/><text fill="#222222" font-family="Verdana" font-size="12.5" lengthAdjust="spacing" textLength="79.1667" x="304.1667" y="465.8346">POST /token</text><polygon fill="#2196F3" points="297.9167,527.0833,287.5,531.25,297.9167,535.4167,293.75,531.25" style="stroke:#2196F3;stroke-width:1.0416666666666667;"/><line style="stroke:#2196F3;stroke-width:3.125;stroke-dasharray:2.0,2.0;" x1="291.6667" x2="497.9167" y1="531.25" y2="531.25"/><text fill="#222222" font-family="Verdana" font-size="12.5" lengthAdjust="spacing" textLength="97.9167" x="314.5833" y="515.802">200 OK (token)</text><polygon fill="#2196F3" points="694.7917,577.0508,705.2083,581.2174,694.7917,585.3841,698.9583,581.2174" style="stroke:#2196F3;stroke-width:1.0416666666666667;"/><line style="stroke:#2196F3;stroke-width:3.125;" x1="286.4583" x2="701.0417" y1="581.2174" y2="581.2174"/><text fill="#222222" font-family="Verdana" font-size="12.5" lengthAdjust="spacing" textLength="380.2083" x="304.1667" y="565.7694">POST /gpd/message (payload + token + Idempotency-Key)</text><path d="M35.4167,596.8424 L118.75,596.8424 L118.75,623.8932 L108.3333,634.3099 L31.25,634.3099 L31.25,601.0091 A4.1667,4.1667 0 0 1 35.4167,596.8424 " fill="#FFFFFF" style="stroke:#666666;stroke-width:1.0416666666666667;"/><rect fill="none" height="394.4987" rx="4.1667" ry="4.1667" style="stroke:#2196F3;stroke-width:1.0416666666666667;" width="921.875" x="31.25" y="596.8424"/><text fill="#9C27B0" font-family="Verdana" font-size="12.5" font-weight="bold" lengthAdjust="spacing" textLength="19.7917" x="57.2917" y="619.9036">alt</text><text fill="#222222" font-family="Verdana" font-size="12.5" font-weight="bold" lengthAdjust="spacing" textLength="73.9583" x="144.7917" y="620.9452">[POST OK]</text><polygon fill="#2196F3" points="297.9167,691.5365,287.5,695.7031,297.9167,699.8698,293.75,695.7031" style="stroke:#2196F3;stroke-width:1.0416666666666667;"/><line style="stroke:#2196F3;stroke-width:3.125;stroke-dasharray:2.0,2.0;" x1="291.6667" x2="711.4583" y1="695.7031" y2="695.7031"/><text fill="#222222" font-family="Verdana" font-size="12.5" lengthAdjust="spacing" textLength="84.375" x="314.5833" y="680.2551">200 OK (RTP)</text><polygon fill="#2196F3" points="120.8333,741.5039,110.4167,745.6706,120.8333,749.8372,116.6667,745.6706" style="stroke:#2196F3;stroke-width:1.0416666666666667;"/><line style="stroke:#2196F3;stroke-width:3.125;stroke-dasharray:2.0,2.0;" x1="114.5833" x2="275" y1="745.6706" y2="745.6706"/><text fill="#222222" font-family="Verdana" font-size="12.5" lengthAdjust="spacing" textLength="22.9167" x="137.5" y="730.2226">Ack</text><line style="stroke:#2196F3;stroke-width:1.0416666666666667;stroke-dasharray:2.0,2.0;" x1="31.25" x2="953.125" y1="755.0456" y2="755.0456"/><text fill="#222222" font-family="Verdana" font-size="12.5" font-weight="bold" lengthAdjust="spacing" textLength="237.5" x="46.875" y="777.065">[POST failed (4xx / 5xx / timeout)]</text><polygon fill="#2196F3" points="297.9167,828.9388,287.5,833.1055,297.9167,837.2721,293.75,833.1055" style="stroke:#2196F3;stroke-width:1.0416666666666667;"/><line style="stroke:#2196F3;stroke-width:3.125;stroke-dasharray:2.0,2.0;" x1="291.6667" x2="711.4583" y1="833.1055" y2="833.1055"/><text fill="#222222" font-family="Verdana" font-size="12.5" lengthAdjust="spacing" textLength="94.7917" x="314.5833" y="817.6575">Error / timeout</text><polygon fill="#2196F3" points="857.2917,878.9063,867.7083,883.0729,857.2917,887.2396,861.4583,883.0729" style="stroke:#2196F3;stroke-width:1.0416666666666667;"/><line style="stroke:#2196F3;stroke-width:3.125;" x1="286.4583" x2="863.5417" y1="883.0729" y2="883.0729"/><text fill="#222222" font-family="Verdana" font-size="12.5" lengthAdjust="spacing" textLength="135.4167" x="304.1667" y="867.6249">Store failure payload</text><polygon fill="#2196F3" points="297.9167,928.8737,287.5,933.0404,297.9167,937.207,293.75,933.0404" style="stroke:#2196F3;stroke-width:1.0416666666666667;"/><line style="stroke:#2196F3;stroke-width:3.125;stroke-dasharray:2.0,2.0;" x1="291.6667" x2="873.9583" y1="933.0404" y2="933.0404"/><text fill="#222222" font-family="Verdana" font-size="12.5" lengthAdjust="spacing" textLength="43.75" x="314.5833" y="917.5924">Stored</text><polygon fill="#2196F3" points="120.8333,978.8411,110.4167,983.0078,120.8333,987.1745,116.6667,983.0078" style="stroke:#2196F3;stroke-width:1.0416666666666667;"/><line style="stroke:#2196F3;stroke-width:3.125;stroke-dasharray:2.0,2.0;" x1="114.5833" x2="275" y1="983.0078" y2="983.0078"/><text fill="#222222" font-family="Verdana" font-size="12.5" lengthAdjust="spacing" textLength="22.9167" x="137.5" y="967.5598">Ack</text><line style="stroke:#2196F3;stroke-width:1.0416666666666667;stroke-dasharray:2.0,2.0;" x1="20.8333" x2="963.5417" y1="999.6745" y2="999.6745"/><text fill="#222222" font-family="Verdana" font-size="12.5" font-weight="bold" lengthAdjust="spacing" textLength="131.25" x="36.4583" y="1021.6939">[Validation failed]</text><polygon fill="#2196F3" points="857.2917,1073.5677,867.7083,1077.7344,857.2917,1081.901,861.4583,1077.7344" style="stroke:#2196F3;stroke-width:1.0416666666666667;"/><line style="stroke:#2196F3;stroke-width:3.125;" x1="286.4583" x2="863.5417" y1="1077.7344" y2="1077.7344"/><text fill="#222222" font-family="Verdana" font-size="12.5" lengthAdjust="spacing" textLength="135.4167" x="304.1667" y="1062.2864">Store invalid payload</text><polygon fill="#2196F3" points="297.9167,1123.5352,287.5,1127.7018,297.9167,1131.8685,293.75,1127.7018" style="stroke:#2196F3;stroke-width:1.0416666666666667;"/><line style="stroke:#2196F3;stroke-width:3.125;stroke-dasharray:2.0,2.0;" x1="291.6667" x2="873.9583" y1="1127.7018" y2="1127.7018"/><text fill="#222222" font-family="Verdana" font-size="12.5" lengthAdjust="spacing" textLength="43.75" x="314.5833" y="1112.2538">Stored</text><polygon fill="#2196F3" points="120.8333,1173.5026,110.4167,1177.6693,120.8333,1181.8359,116.6667,1177.6693" style="stroke:#2196F3;stroke-width:1.0416666666666667;"/><line style="stroke:#2196F3;stroke-width:3.125;stroke-dasharray:2.0,2.0;" x1="114.5833" x2="275" y1="1177.6693" y2="1177.6693"/><text fill="#222222" font-family="Verdana" font-size="12.5" lengthAdjust="spacing" textLength="22.9167" x="137.5" y="1162.2213">Ack</text><!--SRC=[RLBDJi904BxlKuoSIWo16BruC245nIWHBV7aPM47tDZkrkssois7y0bz4cVNRga53f3CVB_CdjXNp10oRj58pfYLDaLuMYuWrgeeCpJmy_KDSomAlaNOfFe3efl510PN3jLdxBt44g7dPjCAbPsLgnxm0gOpbdDZvLhcN5de1Js_ZF_lRWKHfTt1mkXAYXeq7_z79QZ2Ac62MxxY1JbVSvcY214Blv_SFp8sdRcKCLmsyNE-IpKNZA-jhAWovM1n03tpL0et32Z6KnkcKYjuk6CCeC77EijBWbFuBDSMrNetkCFTYzeOdUr5QiPyJ9J5GxA4eTLlg6ZUfA2Yu023MlbiD28pY3omJpk1RMoGJ1h5RIw6MTqngftX53oVVZi9-stlnCcvebw9AW9zaeCe_jPkrOgI-47iiVHVNy9u_URKCAMpUBdDtscYyyzF6CA5_xOoGrtQViTeQems-_MXLp2xSiSbGcArGUzGcltD7AWXkLVW1euGV3nDTENzUpdIXieekg5lr7e9VxtOaJnILGxMojD9SpJBOP9E3f-YXOf_0G00]--></g></svg>