<?xml version="1.0" encoding="us-ascii" standalone="no"?><svg xmlns="http://www.w3.org/2000/svg" xmlns:xlink="http://www.w3.org/1999/xlink" contentStyleType="text/css" height="793px" preserveAspectRatio="none" style="width:1034px;height:793px;background:#FFFFFF;" version="1.1" viewBox="0 0 1034 793" width="1034px" zoomAndPan="magnify"><defs/><g><text fill="#000000" font-family="sans-serif" font-size="14" font-weight="bold" lengthAdjust="spacing" textLength="357" x="339.5" y="27.9951">RTP Consumer &#8212; Message flow (GPD -&gt; RTP)</text><rect fill="none" height="579.1328" style="stroke:#000000;stroke-width:1.5;" width="1017" x="10" y="161.8594"/><rect fill="none" height="323.2656" style="stroke:#000000;stroke-width:1.5;" width="859" x="20" y="273.3906"/><line style="stroke:#181818;stroke-width:0.5;stroke-dasharray:5.0,5.0;" x1="91" x2="91" y1="73.5938" y2="757.9922"/><line style="stroke:#181818;stroke-width:0.5;stroke-dasharray:5.0,5.0;" x1="226" x2="226" y1="73.5938" y2="757.9922"/><line style="stroke:#181818;stroke-width:0.5;stroke-dasharray:5.0,5.0;" x1="345.5" x2="345.5" y1="73.5938" y2="757.9922"/><line style="stroke:#181818;stroke-width:0.5;stroke-dasharray:5.0,5.0;" x1="497.5" x2="497.5" y1="73.5938" y2="757.9922"/><line style="stroke:#181818;stroke-width:0.5;stroke-dasharray:5.0,5.0;" x1="664" x2="664" y1="73.5938" y2="757.9922"/><line style="stroke:#181818;stroke-width:0.5;stroke-dasharray:5.0,5.0;" x1="795" x2="795" y1="73.5938" y2="757.9922"/><path d="M35,47.2969 L147,47.2969 C152,47.2969 152,60.4453 152,60.4453 C152,60.4453 152,73.5938 147,73.5938 L35,73.5938 C30,73.5938 30,60.4453 30,60.4453 C30,60.4453 30,47.2969 35,47.2969 " fill="#E2E2F0" style="stroke:#181818;stroke-width:0.5;"/><path d="M147,47.2969 C142,47.2969 142,60.4453 142,60.4453 C142,73.5938 147,73.5938 147,73.5938 " fill="none" style="stroke:#181818;stroke-width:0.5;"/><text fill="#000000" font-family="sans-serif" font-size="14" lengthAdjust="spacing" textLength="102" x="35" y="65.292">GPD EventHub</text><path d="M35,756.9922 L147,756.9922 C152,756.9922 152,770.1406 152,770.1406 C152,770.1406 152,783.2891 147,783.2891 L35,783.2891 C30,783.2891 30,770.1406 30,770.1406 C30,770.1406 30,756.9922 35,756.9922 " fill="#E2E2F0" style="stroke:#181818;stroke-width:0.5;"/><path d="M147,756.9922 C142,756.9922 142,770.1406 142,770.1406 C142,783.2891 147,783.2891 147,783.2891 " fill="none" style="stroke:#181818;stroke-width:0.5;"/><text fill="#000000" font-family="sans-serif" font-size="14" lengthAdjust="spacing" textLength="102" x="35" y="774.9873">GPD EventHub</text><rect fill="#E2E2F0" height="30.2969" rx="2.5" ry="2.5" style="stroke:#181818;stroke-width:0.5;" width="108" x="172" y="42.2969"/><text fill="#000000" font-family="sans-serif" font-size="14" lengthAdjust="spacing" textLength="94" x="179" y="62.292">rtp-consumer</text><rect fill="#E2E2F0" height="30.2969" rx="2.5" ry="2.5" style="stroke:#181818;stroke-width:0.5;" width="108" x="172" y="756.9922"/><text fill="#000000" font-family="sans-serif" font-size="14" lengthAdjust="spacing" textLength="94" x="179" y="776.9873">rtp-consumer</text><rect fill="#E2E2F0" height="30.2969" rx="2.5" ry="2.5" style="stroke:#181818;stroke-width:0.5;" width="69" x="311.5" y="42.2969"/><text fill="#000000" font-family="sans-serif" font-size="14" lengthAdjust="spacing" textLength="55" x="318.5" y="62.292">mil-auth</text><rect fill="#E2E2F0" height="30.2969" rx="2.5" ry="2.5" style="stroke:#181818;stroke-width:0.5;" width="69" x="311.5" y="756.9922"/><text fill="#000000" font-family="sans-serif" font-size="14" lengthAdjust="spacing" textLength="55" x="318.5" y="776.9873">mil-auth</text><rect fill="#E2E2F0" height="30.2969" rx="2.5" ry="2.5" style="stroke:#181818;stroke-width:0.5;" width="87" x="454.5" y="42.2969"/><text fill="#000000" font-family="sans-serif" font-size="14" lengthAdjust="spacing" textLength="73" x="461.5" y="62.292">rtp-sender</text><rect fill="#E2E2F0" height="30.2969" rx="2.5" ry="2.5" style="stroke:#181818;stroke-width:0.5;" width="87" x="454.5" y="756.9922"/><text fill="#000000" font-family="sans-serif" font-size="14" lengthAdjust="spacing" textLength="73" x="461.5" y="776.9873">rtp-sender</text><rect fill="#E2E2F0" height="30.2969" rx="2.5" ry="2.5" style="stroke:#181818;stroke-width:0.5;" width="96" x="616" y="42.2969"/><text fill="#000000" font-family="sans-serif" font-size="14" lengthAdjust="spacing" textLength="82" x="623" y="62.292">rtp-activator</text><rect fill="#E2E2F0" height="30.2969" rx="2.5" ry="2.5" style="stroke:#181818;stroke-width:0.5;" width="96" x="616" y="756.9922"/><text fill="#000000" font-family="sans-serif" font-size="14" lengthAdjust="spacing" textLength="82" x="623" y="776.9873">rtp-activator</text><path d="M727,47.2969 L864,47.2969 C869,47.2969 869,60.4453 869,60.4453 C869,60.4453 869,73.5938 864,73.5938 L727,73.5938 C722,73.5938 722,60.4453 722,60.4453 C722,60.4453 722,47.2969 727,47.2969 " fill="#E2E2F0" style="stroke:#181818;stroke-width:0.5;"/><path d="M864,47.2969 C859,47.2969 859,60.4453 859,60.4453 C859,73.5938 864,73.5938 864,73.5938 " fill="none" style="stroke:#181818;stroke-width:0.5;"/><text fill="#000000" font-family="sans-serif" font-size="14" lengthAdjust="spacing" textLength="127" x="727" y="65.292">Dead-letter queue</text><path d="M727,756.9922 L864,756.9922 C869,756.9922 869,770.1406 869,770.1406 C869,770.1406 869,783.2891 864,783.2891 L727,783.2891 C722,783.2891 722,770.1406 722,770.1406 C722,770.1406 722,756.9922 727,756.9922 " fill="#E2E2F0" style="stroke:#181818;stroke-width:0.5;"/><path d="M864,756.9922 C859,756.9922 859,770.1406 859,770.1406 C859,783.2891 864,783.2891 864,783.2891 " fill="none" style="stroke:#181818;stroke-width:0.5;"/><text fill="#000000" font-family="sans-serif" font-size="14" lengthAdjust="spacing" textLength="127" x="727" y="774.9873">Dead-letter queue</text><polygon fill="#181818" points="214,100.7266,224,104.7266,214,108.7266,218,104.7266" style="stroke:#181818;stroke-width:1.0;"/><line style="stroke:#181818;stroke-width:1.0;" x1="91" x2="220" y1="104.7266" y2="104.7266"/><text fill="#000000" font-family="sans-serif" font-size="13" lengthAdjust="spacing" textLength="111" x="98" y="99.6606">Message payload</text><line style="stroke:#181818;stroke-width:1.0;" x1="226" x2="268" y1="133.8594" y2="133.8594"/><line style="stroke:#181818;stroke-width:1.0;" x1="268" x2="268" y1="133.8594" y2="146.8594"/><line style="stroke:#181818;stroke-width:1.0;" x1="227" x2="268" y1="146.8594" y2="146.8594"/><polygon fill="#181818" points="237,142.8594,227,146.8594,237,150.8594,233,146.8594" style="stroke:#181818;stroke-width:1.0;"/><text fill="#000000" font-family="sans-serif" font-size="13" lengthAdjust="spacing" textLength="106" x="233" y="128.7935">Validate payload</text><path d="M10,161.8594 L74,161.8594 L74,168.9922 L64,178.9922 L10,178.9922 L10,161.8594 " fill="#EEEEEE" style="stroke:#000000;stroke-width:1.5;"/><rect fill="none" height="579.1328" style="stroke:#000000;stroke-width:1.5;" width="1017" x="10" y="161.8594"/><text fill="#000000" font-family="sans-serif" font-size="13" font-weight="bold" lengthAdjust="spacing" textLength="19" x="25" y="174.9263">alt</text><text fill="#000000" font-family="sans-serif" font-size="11" font-weight="bold" lengthAdjust="spacing" textLength="98" x="89" y="174.0698">[Validation OK]</text><polygon fill="#181818" points="334,196.125,344,200.125,334,204.125,338,200.125" style="stroke:#181818;stroke-width:1.0;"/><line style="stroke:#181818;stroke-width:1.0;" x1="226" x2="340" y1="200.125" y2="200.125"/><text fill="#000000" font-family="sans-serif" font-size="13" lengthAdjust="spacing" textLength="78" x="233" y="195.0591">POST /token</text><polygon fill="#181818" points="237,225.2578,227,229.2578,237,233.2578,233,229.2578" style="stroke:#181818;stroke-width:1.0;"/><line style="stroke:#181818;stroke-width:1.0;stroke-dasharray:2.0,2.0;" x1="231" x2="345" y1="229.2578" y2="229.2578"/><text fill="#000000" font-family="sans-serif" font-size="13" lengthAdjust="spacing" textLength="96" x="243" y="224.1919">200 OK (token)</text><polygon fill="#181818" points="486,254.3906,496,258.3906,486,262.3906,490,258.3906" style="stroke:#181818;stroke-width:1.0;"/><line style="stroke:#181818;stroke-width:1.0;" x1="226" x2="492" y1="258.3906" y2="258.3906"/><text fill="#000000" font-family="sans-serif" font-size="13" lengthAdjust="spacing" textLength="248" x="233" y="253.3247">POST /gpd/message (payload + token)</text><path d="M20,273.3906 L84,273.3906 L84,280.5234 L74,290.5234 L20,290.5234 L20,273.3906 " fill="#EEEEEE" style="stroke:#000000;stroke-width:1.5;"/><rect fill="none" height="323.2656" style="stroke:#000000;stroke-width:1.5;" width="859" x="20" y="273.3906"/><text fill="#000000" font-family="sans-serif" font-size="13" font-weight="bold" lengthAdjust="spacing" textLength="19" x="35" y="286.4575">alt</text><text fill="#000000" font-family="sans-serif" font-size="11" font-weight="bold" lengthAdjust="spacing" textLength="67" x="99" y="285.6011">[POST OK]</text><polygon fill="#181818" points="357,307.6563,347,311.6563,357,315.6563,353,311.6563" style="stroke:#181818;stroke-width:1.0;"/><line style="stroke:#181818;stroke-width:1.0;" x1="351" x2="497" y1="311.6563" y2="311.6563"/><text fill="#000000" font-family="sans-serif" font-size="13" lengthAdjust="spacing" textLength="78" x="363" y="306.5903">POST /token</text><polygon fill="#181818" points="486,336.7891,496,340.7891,486,344.7891,490,340.7891" style="stroke:#181818;stroke-width:1.0;"/><line style="stroke:#181818;stroke-width:1.0;stroke-dasharray:2.0,2.0;" x1="346" x2="492" y1="340.7891" y2="340.7891"/><text fill="#000000" font-family="sans-serif" font-size="13" lengthAdjust="spacing" textLength="96" x="353" y="335.7231">200 OK (token)</text><polygon fill="#181818" points="652,365.9219,662,369.9219,652,373.9219,656,369.9219" style="stroke:#181818;stroke-width:1.0;"/><line style="stroke:#181818;stroke-width:1.0;" x1="498" x2="658" y1="369.9219" y2="369.9219"/><text fill="#000000" font-family="sans-serif" font-size="13" lengthAdjust="spacing" textLength="142" x="505" y="364.856">GET /activations/payer</text><polygon fill="#181818" points="509,395.0547,499,399.0547,509,403.0547,505,399.0547" style="stroke:#181818;stroke-width:1.0;"/><line style="stroke:#181818;stroke-width:1.0;stroke-dasharray:2.0,2.0;" x1="503" x2="663" y1="399.0547" y2="399.0547"/><text fill="#000000" font-family="sans-serif" font-size="13" lengthAdjust="spacing" textLength="96" x="515" y="393.9888">200 OK (payer)</text><polygon fill="#181818" points="237,424.1875,227,428.1875,237,432.1875,233,428.1875" style="stroke:#181818;stroke-width:1.0;"/><line style="stroke:#181818;stroke-width:1.0;stroke-dasharray:2.0,2.0;" x1="231" x2="497" y1="428.1875" y2="428.1875"/><text fill="#000000" font-family="sans-serif" font-size="13" lengthAdjust="spacing" textLength="83" x="243" y="423.1216">200 OK (RTP)</text><polygon fill="#181818" points="102,453.3203,92,457.3203,102,461.3203,98,457.3203" style="stroke:#181818;stroke-width:1.0;"/><line style="stroke:#181818;stroke-width:1.0;stroke-dasharray:2.0,2.0;" x1="96" x2="225" y1="457.3203" y2="457.3203"/><text fill="#000000" font-family="sans-serif" font-size="13" lengthAdjust="spacing" textLength="23" x="108" y="452.2544">Ack</text><line style="stroke:#000000;stroke-width:1.0;stroke-dasharray:2.0,2.0;" x1="20" x2="879" y1="466.3203" y2="466.3203"/><text fill="#000000" font-family="sans-serif" font-size="11" font-weight="bold" lengthAdjust="spacing" textLength="216" x="25" y="476.5308">[POST failed (4xx / 5xx / timeout)]</text><polygon fill="#181818" points="237,497.2578,227,501.2578,237,505.2578,233,501.2578" style="stroke:#181818;stroke-width:1.0;"/><line style="stroke:#181818;stroke-width:1.0;stroke-dasharray:2.0,2.0;" x1="231" x2="497" y1="501.2578" y2="501.2578"/><text fill="#000000" font-family="sans-serif" font-size="13" lengthAdjust="spacing" textLength="93" x="243" y="496.1919">Error / timeout</text><polygon fill="#181818" points="783.5,526.3906,793.5,530.3906,783.5,534.3906,787.5,530.3906" style="stroke:#181818;stroke-width:1.0;"/><line style="stroke:#181818;stroke-width:1.0;" x1="226" x2="789.5" y1="530.3906" y2="530.3906"/><text fill="#000000" font-family="sans-serif" font-size="13" lengthAdjust="spacing" textLength="153" x="233" y="525.3247">Enqueue failure payload</text><polygon fill="#181818" points="237,555.5234,227,559.5234,237,563.5234,233,559.5234" style="stroke:#181818;stroke-width:1.0;"/><line style="stroke:#181818;stroke-width:1.0;stroke-dasharray:2.0,2.0;" x1="231" x2="794.5" y1="559.5234" y2="559.5234"/><text fill="#000000" font-family="sans-serif" font-size="13" lengthAdjust="spacing" textLength="64" x="243" y="554.4575">Ack (DLQ)</text><polygon fill="#181818" points="102,584.6563,92,588.6563,102,592.6563,98,588.6563" style="stroke:#181818;stroke-width:1.0;"/><line style="stroke:#181818;stroke-width:1.0;stroke-dasharray:2.0,2.0;" x1="96" x2="225" y1="588.6563" y2="588.6563"/><text fill="#000000" font-family="sans-serif" font-size="13" lengthAdjust="spacing" textLength="23" x="108" y="583.5903">Ack</text><line style="stroke:#000000;stroke-width:1.0;stroke-dasharray:2.0,2.0;" x1="10" x2="1027" y1="604.6563" y2="604.6563"/><text fill="#000000" font-family="sans-serif" font-size="11" font-weight="bold" lengthAdjust="spacing" textLength="116" x="15" y="614.8667">[Validation failed]</text><polygon fill="#181818" points="783.5,635.5938,793.5,639.5938,783.5,643.5938,787.5,639.5938" style="stroke:#181818;stroke-width:1.0;"/><line style="stroke:#181818;stroke-width:1.0;" x1="226" x2="789.5" y1="639.5938" y2="639.5938"/><text fill="#000000" font-family="sans-serif" font-size="13" lengthAdjust="spacing" textLength="154" x="233" y="634.5278">Enqueue invalid payload</text><path d="M800,652.5938 L800,677.5938 L1017,677.5938 L1017,662.5938 L1007,652.5938 L800,652.5938 " fill="#FEFFDD" style="stroke:#181818;stroke-width:0.5;"/><path d="M1007,652.5938 L1007,662.5938 L1017,662.5938 L1007,652.5938 " fill="#FEFFDD" style="stroke:#181818;stroke-width:0.5;"/><text fill="#000000" font-family="sans-serif" font-size="13" lengthAdjust="spacing" textLength="196" x="806" y="669.6606">Malformed or invalid message.</text><polygon fill="#181818" points="237,699.8594,227,703.8594,237,707.8594,233,703.8594" style="stroke:#181818;stroke-width:1.0;"/><line style="stroke:#181818;stroke-width:1.0;stroke-dasharray:2.0,2.0;" x1="231" x2="794.5" y1="703.8594" y2="703.8594"/><text fill="#000000" font-family="sans-serif" font-size="13" lengthAdjust="spacing" textLength="64" x="243" y="698.7935">Ack (DLQ)</text><polygon fill="#181818" points="102,728.9922,92,732.9922,102,736.9922,98,732.9922" style="stroke:#181818;stroke-width:1.0;"/><line style="stroke:#181818;stroke-width:1.0;stroke-dasharray:2.0,2.0;" x1="96" x2="225" y1="732.9922" y2="732.9922"/><text fill="#000000" font-family="sans-serif" font-size="13" lengthAdjust="spacing" textLength="23" x="108" y="727.9263">Ack</text><!--SRC=[TL91Rjim4Bpp5GkV51IgWw2zv130a8KOI8ouTT0xQwqT8XIfK2itlUKHUM5VqkMAibBRlUYmCxCpon4PiWZV7rTGUDTsDGRuy_OEIsnRlKFOMlyBijlL7FARoBfGwgN33c4IP-KU7IswdnFGBPGBrUX0PcCQxGWcWPfyatOAeVWNhutDTKTFWYrdf-8MNPMawrDKRyZiDVcUC1jYpL5NkKKYFaH60i_llobLBk8H1LmVhclqR-jrfOe1-A6jgJIDYDAMXgdn3Xxk583GbpFchnxMZp0b_uoEvppAqwAhoqlcGYOGFreIhG-QNLDDwnGZIsxm2KP-D1QgM09BpviURDTdRPCmwcvBbgLdurlQATjY4Cxf1i763KTdoPyGeK8WVjbhc6sU8nrjYtt4hJOMAyY-lBx25BxAbqoDlgEBexrb23wCi1fstyJc8kxwUkFABeprH5fa37iu0sGyE1kEipbkL09-gBIFgSxw6RUFn0z-plFV4SpkYS1lvR-I2hJT-b3pjNp684hrVkwDHQd-7_Seh4IjCDM5KFm5]--></g></svg>