<svg xmlns="http://www.w3.org/2000/svg" xmlns:xlink="http://www.w3.org/1999/xlink" contentStyleType="text/css" data-diagram-type="STATE" height="1186px" preserveAspectRatio="none" style="width:1117px;height:1186px;background:#FFFFFF;" version="1.1" viewBox="0 0 1117 1186" width="1117px" zoomAndPan="magnify"><title>RTP State Diagram</title><defs><filter height="300%" id="f1j2ip9higpn43" width="300%" x="-1" y="-1"><feGaussianBlur result="blurOut" stdDeviation="2"/><feColorMatrix in="blurOut" result="blurOut2" type="matrix" values="0 0 0 0 0 0 0 0 0 0 0 0 0 0 0 0 0 0 .4 0"/><feOffset dx="4" dy="4" in="blurOut2" result="blurOut3"/><feBlend in="SourceGraphic" in2="blurOut3" mode="normal"/></filter></defs><g><g class="title" data-source-line="2"><text fill="#000000" font-family="sans-serif" font-size="14" font-weight="bold" lengthAdjust="spacing" textLength="149.5771" x="476.7296" y="22.9951">RTP State Diagram</text></g><rect fill="none" filter="url(#f1j2ip9higpn43)" height="209.2969" rx="12.5" ry="12.5" style="stroke:#A80036;stroke-width:1;" width="133.5637" x="559.26" y="124.2969"/><path d="M571.76,124.2969 L680.3237,124.2969 A12.5,12.5 0 0 1 692.8237,136.7969 L692.8237,150.5938 L559.26,150.5938 L559.26,136.7969 A12.5,12.5 0 0 1 571.76,124.2969" fill="#FEFECE"/><path d="M559.26,150.5938 L692.8237,150.5938 L692.8237,321.0938 A12.5,12.5 0 0 1 680.3237,333.5938 L571.76,333.5938 A12.5,12.5 0 0 1 559.26,321.0938 L559.26,150.5938" fill="#FEFECE"/><rect fill="none" height="209.2969" rx="12.5" ry="12.5" style="stroke:#A80036;stroke-width:1;" width="133.5637" x="559.26" y="124.2969"/><line style="stroke:#A80036;stroke-width:1;" x1="559.26" x2="692.8237" y1="150.5938" y2="150.5938"/><text fill="#000000" font-family="sans-serif" font-size="14" lengthAdjust="spacing" textLength="102.1152" x="574.9842" y="142.292">Initial statuses</text><g id="IS.CREATED"><rect fill="#FEFECE" filter="url(#f1j2ip9higpn43)" height="50" rx="12.5" ry="12.5" style="stroke:#A80036;stroke-width:1;" width="86.1035" x="571.26" y="162.5938"/><line style="stroke:#A80036;stroke-width:1;" x1="571.26" x2="657.3635" y1="188.8906" y2="188.8906"/><text fill="#000000" font-family="sans-serif" font-size="14" lengthAdjust="spacing" textLength="66.1035" x="581.26" y="180.5889">CREATED</text></g><g id="IS.SENT"><rect fill="#FEFECE" filter="url(#f1j2ip9higpn43)" height="50" rx="12.5" ry="12.5" style="stroke:#A80036;stroke-width:1;" width="56.7568" x="585.93" y="265.5938"/><line style="stroke:#A80036;stroke-width:1;" x1="585.93" x2="642.6868" y1="291.8906" y2="291.8906"/><text fill="#000000" font-family="sans-serif" font-size="14" lengthAdjust="spacing" textLength="36.7568" x="595.93" y="283.5889">SENT</text></g><!--link CREATED to SENT--><g class="link" data-entity-1="CREATED" data-entity-2="SENT" data-source-line="34" data-uid="lnk4" id="link_CREATED_SENT"><path d="M614.31,213.0438 C614.31,228.9237 614.31,243.5338 614.31,259.3738" fill="none" id="CREATED-to-SENT" style="stroke:#A80036;stroke-width:1;"/><polygon fill="#A80036" points="614.31,265.3738,618.31,256.3738,614.31,260.3738,610.31,256.3738,614.31,265.3738" style="stroke:#A80036;stroke-width:1;"/><text fill="#000000" font-family="sans-serif" font-size="13" lengthAdjust="spacing" textLength="67.5137" x="615.31" y="243.6606">SEND_RTP</text></g><rect fill="none" filter="url(#f1j2ip9higpn43)" height="106.2969" rx="12.5" ry="12.5" style="stroke:#A80036;stroke-width:1;" width="293.6639" x="208.21" y="983.1869"/><path d="M220.71,983.1869 L489.3739,983.1869 A12.5,12.5 0 0 1 501.8739,995.6869 L501.8739,1009.4838 L208.21,1009.4838 L208.21,995.6869 A12.5,12.5 0 0 1 220.71,983.1869" fill="#FEFECE"/><path d="M208.21,1009.4838 L501.8739,1009.4838 L501.8739,1076.9838 A12.5,12.5 0 0 1 489.3739,1089.4838 L220.71,1089.4838 A12.5,12.5 0 0 1 208.21,1076.9838 L208.21,1009.4838" fill="#FEFECE"/><rect fill="none" height="106.2969" rx="12.5" ry="12.5" style="stroke:#A80036;stroke-width:1;" width="293.6639" x="208.21" y="983.1869"/><line style="stroke:#A80036;stroke-width:1;" x1="208.21" x2="501.8739" y1="1009.4838" y2="1009.4838"/><text fill="#000000" font-family="sans-serif" font-size="14" lengthAdjust="spacing" textLength="98.0547" x="306.0146" y="1001.182">Error statuses</text><g id="ES.ERROR_SEND"><rect fill="#FEFECE" filter="url(#f1j2ip9higpn43)" height="50" rx="12.5" ry="12.5" style="stroke:#A80036;stroke-width:1;" width="115.0332" x="220.21" y="1021.4838"/><line style="stroke:#A80036;stroke-width:1;" x1="220.21" x2="335.2432" y1="1047.7806" y2="1047.7806"/><text fill="#000000" font-family="sans-serif" font-size="14" lengthAdjust="spacing" textLength="95.0332" x="230.21" y="1039.4789">ERROR_SEND</text></g><g id="ES.ERROR_CANCEL"><rect fill="#FEFECE" filter="url(#f1j2ip9higpn43)" height="50" rx="12.5" ry="12.5" style="stroke:#A80036;stroke-width:1;" width="132.2939" x="353.58" y="1021.4838"/><line style="stroke:#A80036;stroke-width:1;" x1="353.58" x2="485.8739" y1="1047.7806" y2="1047.7806"/><text fill="#000000" font-family="sans-serif" font-size="14" lengthAdjust="spacing" textLength="112.2939" x="363.58" y="1039.4789">ERROR_CANCEL</text></g><rect fill="none" filter="url(#f1j2ip9higpn43)" height="209.2969" rx="12.5" ry="12.5" style="stroke:#A80036;stroke-width:1;" width="216.5182" x="781.79" y="410.5969"/><path d="M794.29,410.5969 L985.8082,410.5969 A12.5,12.5 0 0 1 998.3082,423.0969 L998.3082,436.8938 L781.79,436.8938 L781.79,423.0969 A12.5,12.5 0 0 1 794.29,410.5969" fill="#FEFECE"/><path d="M781.79,436.8938 L998.3082,436.8938 L998.3082,607.3938 A12.5,12.5 0 0 1 985.8082,619.8938 L794.29,619.8938 A12.5,12.5 0 0 1 781.79,607.3938 L781.79,436.8938" fill="#FEFECE"/><rect fill="none" height="209.2969" rx="12.5" ry="12.5" style="stroke:#A80036;stroke-width:1;" width="216.5182" x="781.79" y="410.5969"/><line style="stroke:#A80036;stroke-width:1;" x1="781.79" x2="998.3082" y1="436.8938" y2="436.8938"/><text fill="#000000" font-family="sans-serif" font-size="14" lengthAdjust="spacing" textLength="128.8369" x="825.6306" y="428.592">Accepted statuses</text><g id="AS.ACCEPTED"><rect fill="#FEFECE" filter="url(#f1j2ip9higpn43)" height="50" rx="12.5" ry="12.5" style="stroke:#A80036;stroke-width:1;" width="94.5938" x="816.14" y="448.8938"/><line style="stroke:#A80036;stroke-width:1;" x1="816.14" x2="910.7338" y1="475.1906" y2="475.1906"/><text fill="#000000" font-family="sans-serif" font-size="14" lengthAdjust="spacing" textLength="74.5938" x="826.14" y="466.8889">ACCEPTED</text></g><g id="AS.USER_ACCEPTED"><rect fill="#FEFECE" filter="url(#f1j2ip9higpn43)" height="50" rx="12.5" ry="12.5" style="stroke:#A80036;stroke-width:1;" width="139.3008" x="793.79" y="551.8938"/><line style="stroke:#A80036;stroke-width:1;" x1="793.79" x2="933.0908" y1="578.1906" y2="578.1906"/><text fill="#000000" font-family="sans-serif" font-size="14" lengthAdjust="spacing" textLength="119.3008" x="803.79" y="569.8889">USER_ACCEPTED</text></g><!--link ACCEPTED to USER_ACCEPTED--><g class="link" data-entity-1="ACCEPTED" data-entity-2="USER_ACCEPTED" data-source-line="44" data-uid="lnk13" id="link_ACCEPTED_USER_ACCEPTED"><path d="M863.44,499.3438 C863.44,515.2238 863.44,529.8338 863.44,545.6738" fill="none" id="ACCEPTED-to-USER_ACCEPTED" style="stroke:#A80036;stroke-width:1;"/><polygon fill="#A80036" points="863.44,551.6738,867.44,542.6738,863.44,546.6738,859.44,542.6738,863.44,551.6738" style="stroke:#A80036;stroke-width:1;"/><text fill="#000000" font-family="sans-serif" font-size="13" lengthAdjust="spacing" textLength="123.8682" x="864.44" y="529.9606">USER_ACCEPT_RTP</text></g><rect fill="none" filter="url(#f1j2ip9higpn43)" height="106.2969" rx="12.5" ry="12.5" style="stroke:#A80036;stroke-width:1;" width="269.858" x="671.12" y="748.3969"/><path d="M683.62,748.3969 L928.478,748.3969 A12.5,12.5 0 0 1 940.978,760.8969 L940.978,774.6938 L671.12,774.6938 L671.12,760.8969 A12.5,12.5 0 0 1 683.62,748.3969" fill="#FEFECE"/><path d="M671.12,774.6938 L940.978,774.6938 L940.978,842.1938 A12.5,12.5 0 0 1 928.478,854.6938 L683.62,854.6938 A12.5,12.5 0 0 1 671.12,842.1938 L671.12,774.6938" fill="#FEFECE"/><rect fill="none" height="106.2969" rx="12.5" ry="12.5" style="stroke:#A80036;stroke-width:1;" width="269.858" x="671.12" y="748.3969"/><line style="stroke:#A80036;stroke-width:1;" x1="671.12" x2="940.978" y1="774.6938" y2="774.6938"/><text fill="#000000" font-family="sans-serif" font-size="14" lengthAdjust="spacing" textLength="124.9063" x="743.5959" y="766.392">Rejected statuses</text><g id="RS.REJECTED"><rect fill="#FEFECE" filter="url(#f1j2ip9higpn43)" height="50" rx="12.5" ry="12.5" style="stroke:#A80036;stroke-width:1;" width="89.501" x="683.12" y="786.6938"/><line style="stroke:#A80036;stroke-width:1;" x1="683.12" x2="772.621" y1="812.9906" y2="812.9906"/><text fill="#000000" font-family="sans-serif" font-size="14" lengthAdjust="spacing" textLength="69.501" x="693.12" y="804.6889">REJECTED</text></g><g id="RS.USER_REJECTED"><rect fill="#FEFECE" filter="url(#f1j2ip9higpn43)" height="50" rx="12.5" ry="12.5" style="stroke:#A80036;stroke-width:1;" width="134.208" x="790.77" y="786.6938"/><line style="stroke:#A80036;stroke-width:1;" x1="790.77" x2="924.978" y1="812.9906" y2="812.9906"/><text fill="#000000" font-family="sans-serif" font-size="14" lengthAdjust="spacing" textLength="114.208" x="800.77" y="804.6889">USER_REJECTED</text></g><rect fill="none" filter="url(#f1j2ip9higpn43)" height="209.2969" rx="12.5" ry="12.5" style="stroke:#A80036;stroke-width:1;" width="561.2116" x="74.44" y="696.8969"/><path d="M86.94,696.8969 L623.1516,696.8969 A12.5,12.5 0 0 1 635.6516,709.3969 L635.6516,723.1938 L74.44,723.1938 L74.44,709.3969 A12.5,12.5 0 0 1 86.94,696.8969" fill="#FEFECE"/><path d="M74.44,723.1938 L635.6516,723.1938 L635.6516,893.6938 A12.5,12.5 0 0 1 623.1516,906.1938 L86.94,906.1938 A12.5,12.5 0 0 1 74.44,893.6938 L74.44,723.1938" fill="#FEFECE"/><rect fill="none" height="209.2969" rx="12.5" ry="12.5" style="stroke:#A80036;stroke-width:1;" width="561.2116" x="74.44" y="696.8969"/><line style="stroke:#A80036;stroke-width:1;" x1="74.44" x2="635.6516" y1="723.1938" y2="723.1938"/><text fill="#000000" font-family="sans-serif" font-size="14" lengthAdjust="spacing" textLength="132.1934" x="288.9491" y="714.892">Cancelled statuses</text><g id="CS.CANCELLED"><rect fill="#FEFECE" filter="url(#f1j2ip9higpn43)" height="50" rx="12.5" ry="12.5" style="stroke:#A80036;stroke-width:1;" width="103.6719" x="304.69" y="735.1938"/><line style="stroke:#A80036;stroke-width:1;" x1="304.69" x2="408.3619" y1="761.4906" y2="761.4906"/><text fill="#000000" font-family="sans-serif" font-size="14" lengthAdjust="spacing" textLength="83.6719" x="314.69" y="753.1889">CANCELLED</text></g><g id="CS.CANCELLED_REJECTED"><rect fill="#FEFECE" filter="url(#f1j2ip9higpn43)" height="50" rx="12.5" ry="12.5" style="stroke:#A80036;stroke-width:1;" width="180.1729" x="86.44" y="838.1938"/><line style="stroke:#A80036;stroke-width:1;" x1="86.44" x2="266.6129" y1="864.4906" y2="864.4906"/><text fill="#000000" font-family="sans-serif" font-size="14" lengthAdjust="spacing" textLength="160.1729" x="96.44" y="856.1889">CANCELLED_REJECTED</text></g><g id="CS.CANCELLED_PAID"><rect fill="#FEFECE" filter="url(#f1j2ip9higpn43)" height="50" rx="12.5" ry="12.5" style="stroke:#A80036;stroke-width:1;" width="143.6006" x="284.73" y="838.1938"/><line style="stroke:#A80036;stroke-width:1;" x1="284.73" x2="428.3306" y1="864.4906" y2="864.4906"/><text fill="#000000" font-family="sans-serif" font-size="14" lengthAdjust="spacing" textLength="123.6006" x="294.73" y="856.1889">CANCELLED_PAID</text></g><g id="CS.CANCELLED_ACCR"><rect fill="#FEFECE" filter="url(#f1j2ip9higpn43)" height="50" rx="12.5" ry="12.5" style="stroke:#A80036;stroke-width:1;" width="149.5273" x="446.76" y="838.1938"/><line style="stroke:#A80036;stroke-width:1;" x1="446.76" x2="596.2873" y1="864.4906" y2="864.4906"/><text fill="#000000" font-family="sans-serif" font-size="14" lengthAdjust="spacing" textLength="129.5273" x="456.76" y="856.1889">CANCELLED_ACCR</text></g><!--link CANCELLED to CANCELLED_ACCR--><g class="link" data-entity-1="CANCELLED" data-entity-2="CANCELLED_ACCR" data-source-line="49" data-uid="lnk17" id="link_CANCELLED_CANCELLED_ACCR"><path d="M408.69,770.3738 C432.96,776.5938 461.12,786.7738 482.53,803.1938 C494.32,812.2338 500.7651,820.6638 507.3551,832.5738" fill="none" id="CANCELLED-to-CANCELLED_ACCR" style="stroke:#A80036;stroke-width:1;"/><polygon fill="#A80036" points="510.26,837.8238,509.4026,828.0123,507.8393,833.4488,502.4027,831.8854,510.26,837.8238" style="stroke:#A80036;stroke-width:1;"/><text fill="#000000" font-family="sans-serif" font-size="13" lengthAdjust="spacing" textLength="126.1216" x="499.53" y="816.2606">CANCEL_RTP_ACCR</text></g><!--link CANCELLED to CANCELLED_REJECTED--><g class="link" data-entity-1="CANCELLED" data-entity-2="CANCELLED_REJECTED" data-source-line="50" data-uid="lnk18" id="link_CANCELLED_CANCELLED_REJECTED"><path d="M304.36,762.5138 C269.74,766.0738 225.52,776.1738 196.53,803.1938 C186.95,812.1138 183.2366,819.9211 180.6366,831.8611" fill="none" id="CANCELLED-to-CANCELLED_REJECTED" style="stroke:#A80036;stroke-width:1;"/><polygon fill="#A80036" points="179.36,837.7238,185.1833,829.7809,180.4238,832.8382,177.3665,828.0788,179.36,837.7238" style="stroke:#A80036;stroke-width:1;"/><text fill="#000000" font-family="sans-serif" font-size="13" lengthAdjust="spacing" textLength="154.5781" x="197.53" y="816.2606">CANCEL_RTP_REJECTED</text></g><!--link CANCELLED to CANCELLED_PAID--><g class="link" data-entity-1="CANCELLED" data-entity-2="CANCELLED_PAID" data-source-line="51" data-uid="lnk19" id="link_CANCELLED_CANCELLED_PAID"><path d="M356.53,785.6438 C356.53,801.5238 356.53,816.1338 356.53,831.9738" fill="none" id="CANCELLED-to-CANCELLED_PAID" style="stroke:#A80036;stroke-width:1;"/><polygon fill="#A80036" points="356.53,837.9738,360.53,828.9738,356.53,832.9738,352.53,828.9738,356.53,837.9738" style="stroke:#A80036;stroke-width:1;"/><text fill="#000000" font-family="sans-serif" font-size="13" lengthAdjust="spacing" textLength="120.6182" x="357.53" y="816.2606">CANCEL_RTP_PAID</text></g><ellipse cx="626.05" cy="53.2969" fill="#000000" filter="url(#f1j2ip9higpn43)" rx="10" ry="10" style="stroke:#000000;stroke-width:1;"/><g id="PAID"><rect fill="#FEFECE" filter="url(#f1j2ip9higpn43)" height="50" rx="12.5" ry="12.5" style="stroke:#A80036;stroke-width:1;" width="52.9287" x="975.58" y="776.5369"/><line style="stroke:#A80036;stroke-width:1;" x1="975.58" x2="1028.5087" y1="802.8338" y2="802.8338"/><text fill="#000000" font-family="sans-serif" font-size="14" lengthAdjust="spacing" textLength="32.9287" x="985.58" y="794.532">PAID</text></g><ellipse cx="680.05" cy="1161.4869" fill="none" filter="url(#f1j2ip9higpn43)" rx="11" ry="11" style="stroke:#000000;stroke-width:1;"/><ellipse cx="680.05" cy="1161.4869" fill="#000000" rx="6" ry="6" style="stroke:#000000;stroke-width:1;"/><!--link *start* to IS--><g class="link" data-entity-1=".start." data-entity-2="IS" data-source-line="31" data-uid="lnk3" id="link_.start._IS"><path d="M626.05,63.6369 C626.05,75.9669 626.05,93.0569 626.05,118.1269" fill="none" id="*start*-to-IS" style="stroke:#A80036;stroke-width:1;"/><polygon fill="#A80036" points="626.05,124.1269,630.05,115.1269,626.05,119.1269,622.05,115.1269,626.05,124.1269" style="stroke:#A80036;stroke-width:1;"/></g><!--link IS to AS--><g class="link" data-entity-1="IS" data-entity-2="AS" data-source-line="36" data-uid="lnk5" id="link_IS_AS"><path d="M693.16,261.1469 C736.57,284.2169 791.58,319.2669 828.05,363.5969 C839.46,377.4669 846.435,388.3123 854.365,404.9223" fill="none" id="IS-to-AS" style="stroke:#A80036;stroke-width:1;"/><polygon fill="#A80036" points="856.95,410.3369,856.6822,400.4917,854.7958,405.8247,849.4627,403.9384,856.95,410.3369" style="stroke:#A80036;stroke-width:1;"/><text fill="#000000" font-family="sans-serif" font-size="13" lengthAdjust="spacing" textLength="82.3545" x="839.05" y="376.6638">ACCEPT_RTP</text></g><!--link IS to AS--><g class="link" data-entity-1="IS" data-entity-2="AS" data-source-line="38" data-uid="lnk7" id="link_IS_AS"><path d="M662.26,333.9369 C671.21,350.8169 682.05,367.1469 695.05,380.5969 C715.77,402.0369 729.77,394.7769 755.05,410.5969 C763.81,416.0869 767.7857,418.5789 776.6057,424.7189" fill="none" id="IS-to-AS-1" style="stroke:#A80036;stroke-width:1;"/><polygon fill="#A80036" points="781.53,428.1469,776.4289,419.722,777.4264,425.2902,771.8582,426.2877,781.53,428.1469" style="stroke:#A80036;stroke-width:1;"/><text fill="#000000" font-family="sans-serif" font-size="13" lengthAdjust="spacing" textLength="123.8682" x="696.05" y="376.6638">USER_ACCEPT_RTP</text></g><!--link IS to RS--><g class="link" data-entity-1="IS" data-entity-2="RS" data-source-line="37" data-uid="lnk6" id="link_IS_RS"><path d="M558.98,307.3369 C537.01,337.5069 515.34,373.6869 504.05,410.5969 C476.82,499.5469 455.67,540.4369 504.05,619.8969 C542.81,683.5669 588.97,658.8069 653.05,696.8969 C679.52,712.6269 702.7083,727.7486 727.5383,744.7386" fill="none" id="IS-to-RS" style="stroke:#A80036;stroke-width:1;"/><polygon fill="#A80036" points="732.49,748.1269,727.3212,739.7433,728.3635,745.3033,722.8036,746.3457,732.49,748.1269" style="stroke:#A80036;stroke-width:1;"/><text fill="#000000" font-family="sans-serif" font-size="13" lengthAdjust="spacing" textLength="77.6255" x="505.05" y="519.8138">REJECT_RTP</text></g><!--link IS to RS--><g class="link" data-entity-1="IS" data-entity-2="RS" data-source-line="39" data-uid="lnk8" id="link_IS_RS"><path d="M620.57,333.9069 C618.79,413.2469 621.47,524.7269 643.05,619.8969 C654.81,671.7969 689.921,712.4762 727.181,744.3562" fill="none" id="IS-to-RS-1" style="stroke:#A80036;stroke-width:1;"/><polygon fill="#A80036" points="731.74,748.2569,727.502,739.3665,727.9408,745.0063,722.301,745.4451,731.74,748.2569" style="stroke:#A80036;stroke-width:1;"/><text fill="#000000" font-family="sans-serif" font-size="13" lengthAdjust="spacing" textLength="119.1392" x="644.05" y="519.8138">USER_REJECT_RTP</text></g><!--link IS to PAID--><g class="link" data-entity-1="IS" data-entity-2="PAID" data-source-line="40" data-uid="lnk10" id="link_IS_PAID"><path d="M693.21,238.2369 C785.46,253.6969 947.72,296.4769 1016.05,410.5969 C1088.08,530.9069 1036.4902,705.9572 1013.3302,770.7272" fill="none" id="IS-to-PAID" style="stroke:#A80036;stroke-width:1;"/><polygon fill="#A80036" points="1011.31,776.3769,1018.1067,769.2491,1012.9935,771.6688,1010.5738,766.5556,1011.31,776.3769" style="stroke:#A80036;stroke-width:1;"/><text fill="#000000" font-family="sans-serif" font-size="13" lengthAdjust="spacing" textLength="55.9863" x="1053.05" y="519.8138">PAY_RTP</text></g><!--link IS to CS--><g class="link" data-entity-1="IS" data-entity-2="CS" data-source-line="41" data-uid="lnk11" id="link_IS_CS"><path d="M559.03,259.6069 C501.48,288.9869 421.85,339.8469 383.05,410.5969 C334.99,498.2269 332.4469,608.088 339.3969,690.688" fill="none" id="IS-to-CS" style="stroke:#A80036;stroke-width:1;"/><polygon fill="#A80036" points="339.9,696.6669,343.1313,687.3632,339.4808,691.6845,335.1595,688.0339,339.9,696.6669" style="stroke:#A80036;stroke-width:1;"/><text fill="#000000" font-family="sans-serif" font-size="13" lengthAdjust="spacing" textLength="83.5415" x="384.05" y="519.8138">CANCEL_RTP</text></g><!--link IS to ES--><g class="link" data-entity-1="IS" data-entity-2="ES" data-source-line="42" data-uid="lnk12" id="link_IS_ES"><path d="M558.77,258.1069 C429.06,316.8269 149.1,466.3569 57.05,696.8969 C22.55,783.2769 6,828.4269 57.05,906.1869 C91.09,958.0369 145.186,987.3155 202.336,1005.9655" fill="none" id="IS-to-ES" style="stroke:#A80036;stroke-width:1;"/><polygon fill="#A80036" points="208.04,1007.8269,200.725,1001.2321,203.2867,1006.2757,198.2431,1008.8374,208.04,1007.8269" style="stroke:#A80036;stroke-width:1;"/><text fill="#000000" font-family="sans-serif" font-size="13" lengthAdjust="spacing" textLength="119.5581" x="77.05" y="662.9638">ERROR_SEND_RTP</text></g><!--link AS to RS--><g class="link" data-entity-1="AS" data-entity-2="RS" data-source-line="45" data-uid="lnk14" id="link_AS_RS"><path d="M832.68,620.1769 C828.61,630.0369 824.97,640.0369 822.05,649.8969 C812.63,681.6669 808.9364,712.6663 807.2864,742.0463" fill="none" id="AS-to-RS" style="stroke:#A80036;stroke-width:1;"/><polygon fill="#A80036" points="806.95,748.0369,811.4484,739.2753,807.2304,743.0447,803.4609,738.8267,806.95,748.0369" style="stroke:#A80036;stroke-width:1;"/><text fill="#000000" font-family="sans-serif" font-size="13" lengthAdjust="spacing" textLength="119.1392" x="823.05" y="662.9638">USER_REJECT_RTP</text></g><!--link AS to CS--><g class="link" data-entity-1="AS" data-entity-2="CS" data-source-line="46" data-uid="lnk15" id="link_AS_CS"><path d="M781.38,602.9969 C772.63,608.9469 763.79,614.6569 755.05,619.8969 C709.28,647.2969 664.0715,670.6676 614.6415,693.8676" fill="none" id="AS-to-CS" style="stroke:#A80036;stroke-width:1;"/><polygon fill="#A80036" points="609.21,696.4169,619.0568,696.214,613.7362,694.2925,615.6577,688.972,609.21,696.4169" style="stroke:#A80036;stroke-width:1;"/><text fill="#000000" font-family="sans-serif" font-size="13" lengthAdjust="spacing" textLength="83.5415" x="694.05" y="662.9638">CANCEL_RTP</text></g><!--link AS to PAID--><g class="link" data-entity-1="AS" data-entity-2="PAID" data-source-line="47" data-uid="lnk16" id="link_AS_PAID"><path d="M935.08,620.3569 C939.2,630.3069 943.24,640.2769 947.05,649.8969 C964.5,694.0369 981.1165,740.5442 991.5965,770.4642" fill="none" id="AS-to-PAID" style="stroke:#A80036;stroke-width:1;"/><polygon fill="#A80036" points="993.58,776.1269,994.3799,766.3106,991.9271,771.408,986.8297,768.9552,993.58,776.1269" style="stroke:#A80036;stroke-width:1;"/><text fill="#000000" font-family="sans-serif" font-size="13" lengthAdjust="spacing" textLength="55.9863" x="954.05" y="662.9638">PAY_RTP</text></g><!--link CS to ES--><g class="link" data-entity-1="CS" data-entity-2="ES" data-source-line="52" data-uid="lnk20" id="link_CS_ES"><path d="M355.05,906.6869 C355.05,933.0769 355.05,954.3169 355.05,976.8969" fill="none" id="CS-to-ES" style="stroke:#A80036;stroke-width:1;"/><polygon fill="#A80036" points="355.05,982.8969,359.05,973.8969,355.05,977.8969,351.05,973.8969,355.05,982.8969" style="stroke:#A80036;stroke-width:1;"/><text fill="#000000" font-family="sans-serif" font-size="13" lengthAdjust="spacing" textLength="135.5859" x="356.05" y="949.2538">ERROR_CANCEL_RTP</text></g><!--link PAID to *end*--><g class="link" data-entity-1="PAID" data-entity-2=".end." data-source-line="54" data-uid="lnk22" id="link_PAID_.end."><path d="M995.08,826.6569 C987.98,848.6769 975.55,881.4569 958.05,906.1869 C874.19,1024.7369 731.6746,1125.5474 693.9846,1151.1274" fill="none" id="PAID-to-*end*" style="stroke:#A80036;stroke-width:1;"/><polygon fill="#A80036" points="689.02,1154.4969,698.7131,1152.7524,693.1571,1151.689,694.2206,1146.133,689.02,1154.4969" style="stroke:#A80036;stroke-width:1;"/></g><!--link RS to *end*--><g class="link" data-entity-1="RS" data-entity-2=".end." data-source-line="55" data-uid="lnk23" id="link_RS_.end."><path d="M787.59,854.9769 C757.17,941.3869 700.382,1102.7172 685.522,1144.9372" fill="none" id="RS-to-*end*" style="stroke:#A80036;stroke-width:1;"/><polygon fill="#A80036" points="683.53,1150.5969,690.2911,1143.4354,685.19,1145.8805,682.7449,1140.7794,683.53,1150.5969" style="stroke:#A80036;stroke-width:1;"/></g><!--link ES to *end*--><g class="link" data-entity-1="ES" data-entity-2=".end." data-source-line="56" data-uid="lnk24" id="link_ES_.end."><path d="M493.82,1089.9169 C565.24,1116.9869 637.3095,1144.2902 664.4295,1154.5702" fill="none" id="ES-to-*end*" style="stroke:#A80036;stroke-width:1;"/><polygon fill="#A80036" points="670.04,1156.6969,663.0421,1149.7666,665.3646,1154.9246,660.2065,1157.2472,670.04,1156.6969" style="stroke:#A80036;stroke-width:1;"/></g><!--link CS to *end*--><g class="link" data-entity-1="CS" data-entity-2=".end." data-source-line="57" data-uid="lnk25" id="link_CS_.end."><path d="M470.95,906.4169 C480.98,916.2869 490.82,926.3069 500.05,936.1869 C573.99,1015.3769 648.3961,1116.6135 670.4261,1147.1035" fill="none" id="CS-to-*end*" style="stroke:#A80036;stroke-width:1;"/><polygon fill="#A80036" points="673.94,1151.9669,671.9113,1142.3292,671.0117,1147.9141,665.4269,1147.0145,673.94,1151.9669" style="stroke:#A80036;stroke-width:1;"/></g><!--SRC=[VLBBQiCm4BplLuWS2_c170f2teDBICtQFPHIWd15SUewnLPFfVzUFHnPYfNwOcbsPpJQqVJH3MmyJmfqftl5gAbOhQLMhEZa-oW_0IQttPH3fplPCxlzdjIqON9YPSr-W9dFDmb2tc0H8JKU6lWD8ZYEvp6Lm5G2YHxfQ6Z52XJy870VgV6sLLzQlQM2F1NaGc2LcdggaOu1N_H8dLIxqgDKZ_01HKOlu8kUa4Eh-lvQK5mDpLrhdoW6x9WvRYbMlCmNpEN86dcvUsNRxRt92G3cT1nWSs4x-pD7D1M0ITBYPdYxUMGEds6oiBSImwuxckQA4aqchbdVfbhnvnWLbk7l4CDeuULPUBkNz5n7acV64V_74S-VpRD68KpOav9v9m8-WLljbr1JIeZw5crs4r7S0n2hEKKN0KUoTVCMWEgmn6Kfml8F]--></g></svg>