<?xml version="1.0" encoding="us-ascii" standalone="no"?><svg xmlns="http://www.w3.org/2000/svg" xmlns:xlink="http://www.w3.org/1999/xlink" contentStyleType="text/css" height="734px" preserveAspectRatio="none" style="width:1004px;height:734px;background:#FFFFFF;" version="1.1" viewBox="0 0 1004 734" width="1004px" zoomAndPan="magnify"><defs/><g><text fill="#000000" font-family="sans-serif" font-size="14" font-weight="bold" lengthAdjust="spacing" textLength="357" x="324.5" y="27.9951">RTP Consumer &#8212; Message flow (GPD -&gt; RTP)</text><rect fill="#FFFFFF" height="584" style="stroke:#181818;stroke-width:1.0;" width="10" x="221" y="104.7266"/><rect fill="#FFFFFF" height="29.1328" style="stroke:#181818;stroke-width:1.0;" width="10" x="419" y="257.3906"/><rect fill="#FFFFFF" height="53.2656" style="stroke:#181818;stroke-width:1.0;" width="10" x="628" y="315.6563"/><rect fill="#FFFFFF" height="29.1328" style="stroke:#181818;stroke-width:1.0;" width="10" x="755" y="471.125"/><rect fill="#FFFFFF" height="64.2656" style="stroke:#181818;stroke-width:1.0;" width="10" x="755" y="580.3281"/><rect fill="none" height="519.8672" style="stroke:#000000;stroke-width:1.5;" width="987" x="10" y="161.8594"/><rect fill="none" height="206.7344" style="stroke:#000000;stroke-width:1.5;" width="823.5" x="20" y="330.6563"/><line style="stroke:#181818;stroke-width:0.5;stroke-dasharray:5.0,5.0;" x1="91" x2="91" y1="73.5938" y2="698.7266"/><line style="stroke:#181818;stroke-width:0.5;stroke-dasharray:5.0,5.0;" x1="226" x2="226" y1="73.5938" y2="698.7266"/><line style="stroke:#181818;stroke-width:0.5;stroke-dasharray:5.0,5.0;" x1="423.5" x2="423.5" y1="73.5938" y2="698.7266"/><line style="stroke:#181818;stroke-width:0.5;stroke-dasharray:5.0,5.0;" x1="632.5" x2="632.5" y1="73.5938" y2="698.7266"/><line style="stroke:#181818;stroke-width:0.5;stroke-dasharray:5.0,5.0;" x1="759.5" x2="759.5" y1="73.5938" y2="698.7266"/><path d="M35,47.2969 L147,47.2969 C152,47.2969 152,60.4453 152,60.4453 C152,60.4453 152,73.5938 147,73.5938 L35,73.5938 C30,73.5938 30,60.4453 30,60.4453 C30,60.4453 30,47.2969 35,47.2969 " fill="#E2E2F0" style="stroke:#181818;stroke-width:0.5;"/><path d="M147,47.2969 C142,47.2969 142,60.4453 142,60.4453 C142,73.5938 147,73.5938 147,73.5938 " fill="none" style="stroke:#181818;stroke-width:0.5;"/><text fill="#000000" font-family="sans-serif" font-size="14" lengthAdjust="spacing" textLength="102" x="35" y="65.292">GPD EventHub</text><path d="M35,697.7266 L147,697.7266 C152,697.7266 152,710.875 152,710.875 C152,710.875 152,724.0234 147,724.0234 L35,724.0234 C30,724.0234 30,710.875 30,710.875 C30,710.875 30,697.7266 35,697.7266 " fill="#E2E2F0" style="stroke:#181818;stroke-width:0.5;"/><path d="M147,697.7266 C142,697.7266 142,710.875 142,710.875 C142,724.0234 147,724.0234 147,724.0234 " fill="none" style="stroke:#181818;stroke-width:0.5;"/><text fill="#000000" font-family="sans-serif" font-size="14" lengthAdjust="spacing" textLength="102" x="35" y="715.7217">GPD EventHub</text><rect fill="#E2E2F0" height="30.2969" rx="2.5" ry="2.5" style="stroke:#181818;stroke-width:0.5;" width="108" x="172" y="42.2969"/><text fill="#000000" font-family="sans-serif" font-size="14" lengthAdjust="spacing" textLength="94" x="179" y="62.292">rtp-consumer</text><rect fill="#E2E2F0" height="30.2969" rx="2.5" ry="2.5" style="stroke:#181818;stroke-width:0.5;" width="108" x="172" y="697.7266"/><text fill="#000000" font-family="sans-serif" font-size="14" lengthAdjust="spacing" textLength="94" x="179" y="717.7217">rtp-consumer</text><rect fill="#E2E2F0" height="30.2969" rx="2.5" ry="2.5" style="stroke:#181818;stroke-width:0.5;" width="69" x="389.5" y="42.2969"/><text fill="#000000" font-family="sans-serif" font-size="14" lengthAdjust="spacing" textLength="55" x="396.5" y="62.292">mil-auth</text><rect fill="#E2E2F0" height="30.2969" rx="2.5" ry="2.5" style="stroke:#181818;stroke-width:0.5;" width="69" x="389.5" y="697.7266"/><text fill="#000000" font-family="sans-serif" font-size="14" lengthAdjust="spacing" textLength="55" x="396.5" y="717.7217">mil-auth</text><rect fill="#E2E2F0" height="30.2969" rx="2.5" ry="2.5" style="stroke:#181818;stroke-width:0.5;" width="87" x="589.5" y="42.2969"/><text fill="#000000" font-family="sans-serif" font-size="14" lengthAdjust="spacing" textLength="73" x="596.5" y="62.292">rtp-sender</text><rect fill="#E2E2F0" height="30.2969" rx="2.5" ry="2.5" style="stroke:#181818;stroke-width:0.5;" width="87" x="589.5" y="697.7266"/><text fill="#000000" font-family="sans-serif" font-size="14" lengthAdjust="spacing" textLength="73" x="596.5" y="717.7217">rtp-sender</text><path d="M691.5,47.2969 L828.5,47.2969 C833.5,47.2969 833.5,60.4453 833.5,60.4453 C833.5,60.4453 833.5,73.5938 828.5,73.5938 L691.5,73.5938 C686.5,73.5938 686.5,60.4453 686.5,60.4453 C686.5,60.4453 686.5,47.2969 691.5,47.2969 " fill="#E2E2F0" style="stroke:#181818;stroke-width:0.5;"/><path d="M828.5,47.2969 C823.5,47.2969 823.5,60.4453 823.5,60.4453 C823.5,73.5938 828.5,73.5938 828.5,73.5938 " fill="none" style="stroke:#181818;stroke-width:0.5;"/><text fill="#000000" font-family="sans-serif" font-size="14" lengthAdjust="spacing" textLength="127" x="691.5" y="65.292">Dead-letter queue</text><path d="M691.5,697.7266 L828.5,697.7266 C833.5,697.7266 833.5,710.875 833.5,710.875 C833.5,710.875 833.5,724.0234 828.5,724.0234 L691.5,724.0234 C686.5,724.0234 686.5,710.875 686.5,710.875 C686.5,710.875 686.5,697.7266 691.5,697.7266 " fill="#E2E2F0" style="stroke:#181818;stroke-width:0.5;"/><path d="M828.5,697.7266 C823.5,697.7266 823.5,710.875 823.5,710.875 C823.5,724.0234 828.5,724.0234 828.5,724.0234 " fill="none" style="stroke:#181818;stroke-width:0.5;"/><text fill="#000000" font-family="sans-serif" font-size="14" lengthAdjust="spacing" textLength="127" x="691.5" y="715.7217">Dead-letter queue</text><rect fill="#FFFFFF" height="584" style="stroke:#181818;stroke-width:1.0;" width="10" x="221" y="104.7266"/><rect fill="#FFFFFF" height="29.1328" style="stroke:#181818;stroke-width:1.0;" width="10" x="419" y="257.3906"/><rect fill="#FFFFFF" height="53.2656" style="stroke:#181818;stroke-width:1.0;" width="10" x="628" y="315.6563"/><rect fill="#FFFFFF" height="29.1328" style="stroke:#181818;stroke-width:1.0;" width="10" x="755" y="471.125"/><rect fill="#FFFFFF" height="64.2656" style="stroke:#181818;stroke-width:1.0;" width="10" x="755" y="580.3281"/><polygon fill="#181818" points="209,100.7266,219,104.7266,209,108.7266,213,104.7266" style="stroke:#181818;stroke-width:1.0;"/><line style="stroke:#181818;stroke-width:1.0;" x1="91" x2="215" y1="104.7266" y2="104.7266"/><text fill="#000000" font-family="sans-serif" font-size="13" lengthAdjust="spacing" textLength="111" x="98" y="99.6606">Message payload</text><line style="stroke:#181818;stroke-width:1.0;" x1="231" x2="273" y1="133.8594" y2="133.8594"/><line style="stroke:#181818;stroke-width:1.0;" x1="273" x2="273" y1="133.8594" y2="146.8594"/><line style="stroke:#181818;stroke-width:1.0;" x1="232" x2="273" y1="146.8594" y2="146.8594"/><polygon fill="#181818" points="242,142.8594,232,146.8594,242,150.8594,238,146.8594" style="stroke:#181818;stroke-width:1.0;"/><text fill="#000000" font-family="sans-serif" font-size="13" lengthAdjust="spacing" textLength="106" x="238" y="128.7935">Validate payload</text><path d="M10,161.8594 L74,161.8594 L74,168.9922 L64,178.9922 L10,178.9922 L10,161.8594 " fill="#EEEEEE" style="stroke:#000000;stroke-width:1.5;"/><rect fill="none" height="519.8672" style="stroke:#000000;stroke-width:1.5;" width="987" x="10" y="161.8594"/><text fill="#000000" font-family="sans-serif" font-size="13" font-weight="bold" lengthAdjust="spacing" textLength="19" x="25" y="174.9263">alt</text><text fill="#000000" font-family="sans-serif" font-size="11" font-weight="bold" lengthAdjust="spacing" textLength="98" x="89" y="174.0698">[Validation OK]</text><line style="stroke:#181818;stroke-width:1.0;" x1="231" x2="273" y1="215.2578" y2="215.2578"/><line style="stroke:#181818;stroke-width:1.0;" x1="273" x2="273" y1="215.2578" y2="228.2578"/><line style="stroke:#181818;stroke-width:1.0;" x1="232" x2="273" y1="228.2578" y2="228.2578"/><polygon fill="#181818" points="242,224.2578,232,228.2578,242,232.2578,238,228.2578" style="stroke:#181818;stroke-width:1.0;"/><text fill="#000000" font-family="sans-serif" font-size="13" lengthAdjust="spacing" textLength="174" x="238" y="195.0591">Compute Idempotency-Key</text><text fill="#000000" font-family="sans-serif" font-size="13" lengthAdjust="spacing" textLength="84" x="238" y="210.1919">from payload</text><polygon fill="#181818" points="407,253.3906,417,257.3906,407,261.3906,411,257.3906" style="stroke:#181818;stroke-width:1.0;"/><line style="stroke:#181818;stroke-width:1.0;" x1="231" x2="413" y1="257.3906" y2="257.3906"/><text fill="#000000" font-family="sans-serif" font-size="13" lengthAdjust="spacing" textLength="78" x="238" y="252.3247">POST /token</text><polygon fill="#181818" points="242,282.5234,232,286.5234,242,290.5234,238,286.5234" style="stroke:#181818;stroke-width:1.0;"/><line style="stroke:#181818;stroke-width:1.0;stroke-dasharray:2.0,2.0;" x1="236" x2="423" y1="286.5234" y2="286.5234"/><text fill="#000000" font-family="sans-serif" font-size="13" lengthAdjust="spacing" textLength="96" x="248" y="281.4575">200 OK (token)</text><polygon fill="#181818" points="616,311.6563,626,315.6563,616,319.6563,620,315.6563" style="stroke:#181818;stroke-width:1.0;"/><line style="stroke:#181818;stroke-width:1.0;" x1="231" x2="622" y1="315.6563" y2="315.6563"/><text fill="#000000" font-family="sans-serif" font-size="13" lengthAdjust="spacing" textLength="378" x="238" y="310.5903">POST /gpd/message (payload + token + Idempotency-Key)</text><path d="M20,330.6563 L84,330.6563 L84,337.7891 L74,347.7891 L20,347.7891 L20,330.6563 " fill="#EEEEEE" style="stroke:#000000;stroke-width:1.5;"/><rect fill="none" height="206.7344" style="stroke:#000000;stroke-width:1.5;" width="823.5" x="20" y="330.6563"/><text fill="#000000" font-family="sans-serif" font-size="13" font-weight="bold" lengthAdjust="spacing" textLength="19" x="35" y="343.7231">alt</text><text fill="#000000" font-family="sans-serif" font-size="11" font-weight="bold" lengthAdjust="spacing" textLength="67" x="99" y="342.8667">[POST OK]</text><polygon fill="#181818" points="242,364.9219,232,368.9219,242,372.9219,238,368.9219" style="stroke:#181818;stroke-width:1.0;"/><line style="stroke:#181818;stroke-width:1.0;stroke-dasharray:2.0,2.0;" x1="236" x2="632" y1="368.9219" y2="368.9219"/><text fill="#000000" font-family="sans-serif" font-size="13" lengthAdjust="spacing" textLength="83" x="248" y="363.856">200 OK (RTP)</text><polygon fill="#181818" points="102,394.0547,92,398.0547,102,402.0547,98,398.0547" style="stroke:#181818;stroke-width:1.0;"/><line style="stroke:#181818;stroke-width:1.0;stroke-dasharray:2.0,2.0;" x1="96" x2="220" y1="398.0547" y2="398.0547"/><text fill="#000000" font-family="sans-serif" font-size="13" lengthAdjust="spacing" textLength="23" x="108" y="392.9888">Ack</text><line style="stroke:#000000;stroke-width:1.0;stroke-dasharray:2.0,2.0;" x1="20" x2="843.5" y1="407.0547" y2="407.0547"/><text fill="#000000" font-family="sans-serif" font-size="11" font-weight="bold" lengthAdjust="spacing" textLength="216" x="25" y="417.2651">[POST failed (4xx / 5xx / timeout)]</text><polygon fill="#181818" points="242,437.9922,232,441.9922,242,445.9922,238,441.9922" style="stroke:#181818;stroke-width:1.0;"/><line style="stroke:#181818;stroke-width:1.0;stroke-dasharray:2.0,2.0;" x1="236" x2="632" y1="441.9922" y2="441.9922"/><text fill="#000000" font-family="sans-serif" font-size="13" lengthAdjust="spacing" textLength="93" x="248" y="436.9263">Error / timeout</text><polygon fill="#181818" points="743,467.125,753,471.125,743,475.125,747,471.125" style="stroke:#181818;stroke-width:1.0;"/><line style="stroke:#181818;stroke-width:1.0;" x1="231" x2="749" y1="471.125" y2="471.125"/><text fill="#000000" font-family="sans-serif" font-size="13" lengthAdjust="spacing" textLength="153" x="238" y="466.0591">Enqueue failure payload</text><polygon fill="#181818" points="242,496.2578,232,500.2578,242,504.2578,238,500.2578" style="stroke:#181818;stroke-width:1.0;"/><line style="stroke:#181818;stroke-width:1.0;stroke-dasharray:2.0,2.0;" x1="236" x2="759" y1="500.2578" y2="500.2578"/><text fill="#000000" font-family="sans-serif" font-size="13" lengthAdjust="spacing" textLength="64" x="248" y="495.1919">Ack (DLQ)</text><polygon fill="#181818" points="102,525.3906,92,529.3906,102,533.3906,98,529.3906" style="stroke:#181818;stroke-width:1.0;"/><line style="stroke:#181818;stroke-width:1.0;stroke-dasharray:2.0,2.0;" x1="96" x2="220" y1="529.3906" y2="529.3906"/><text fill="#000000" font-family="sans-serif" font-size="13" lengthAdjust="spacing" textLength="23" x="108" y="524.3247">Ack</text><line style="stroke:#000000;stroke-width:1.0;stroke-dasharray:2.0,2.0;" x1="10" x2="997" y1="545.3906" y2="545.3906"/><text fill="#000000" font-family="sans-serif" font-size="11" font-weight="bold" lengthAdjust="spacing" textLength="116" x="15" y="555.6011">[Validation failed]</text><polygon fill="#181818" points="743,576.3281,753,580.3281,743,584.3281,747,580.3281" style="stroke:#181818;stroke-width:1.0;"/><line style="stroke:#181818;stroke-width:1.0;" x1="231" x2="749" y1="580.3281" y2="580.3281"/><text fill="#000000" font-family="sans-serif" font-size="13" lengthAdjust="spacing" textLength="154" x="238" y="575.2622">Enqueue invalid payload</text><path d="M770,593.3281 L770,618.3281 L987,618.3281 L987,603.3281 L977,593.3281 L770,593.3281 " fill="#FEFFDD" style="stroke:#181818;stroke-width:0.5;"/><path d="M977,593.3281 L977,603.3281 L987,603.3281 L977,593.3281 " fill="#FEFFDD" style="stroke:#181818;stroke-width:0.5;"/><text fill="#000000" font-family="sans-serif" font-size="13" lengthAdjust="spacing" textLength="196" x="776" y="610.395">Malformed or invalid message.</text><polygon fill="#181818" points="242,640.5938,232,644.5938,242,648.5938,238,644.5938" style="stroke:#181818;stroke-width:1.0;"/><line style="stroke:#181818;stroke-width:1.0;stroke-dasharray:2.0,2.0;" x1="236" x2="759" y1="644.5938" y2="644.5938"/><text fill="#000000" font-family="sans-serif" font-size="13" lengthAdjust="spacing" textLength="64" x="248" y="639.5278">Ack (DLQ)</text><polygon fill="#181818" points="102,669.7266,92,673.7266,102,677.7266,98,673.7266" style="stroke:#181818;stroke-width:1.0;"/><line style="stroke:#181818;stroke-width:1.0;stroke-dasharray:2.0,2.0;" x1="96" x2="220" y1="673.7266" y2="673.7266"/><text fill="#000000" font-family="sans-serif" font-size="13" lengthAdjust="spacing" textLength="23" x="108" y="668.6606">Ack</text><!--SRC=[TLBDRjim3BxhAOYS70nUYg6xz50WS89co89cSz7JBffDfq9aoPFfjBdj8VQ4VP9IYkruSPk30v0Vln-Hf4WZ_7pOGc9DtPJeuFNlFzXWNSiTGg7jCqHtsmN4jnur5U9FWmt2nDUM1pIqQdvFGDQmN8bAEbAPggGXc3Ygugpb383a_twfT2mRUWgzpNmyNAF9sz6qKrsWp6EDHEmpb49xyVs74CkLzvZ0JM- -aaTjPIvaHkeW2Tc1I3hGezGgzyKE9QIchggiWVkr400zFh5brJ3yMuvbPGbDTepNUFnb2cVBCqaxiPdpoFO-VO0PsJqQhlSkE2juGDmoVxcwOZ680d3AlHo7s8uoxHbtLJuhsunHgmoV8Cpp_uN3wL0xzNG-Q63YYC2_T6GbRDgt1bRIK4W2bj_w1kRPthEXhl54LqYbCOVe-kK5Pl0rV4cLQ1kQNWWjdRFkt1vhTMAtVhb-m9mkm6iqxhmr3-l7_1tuWX_fbDWbH5mOvGb7yquaJcHuaI7Mu1nEuSIxffGvUE30r8Kbm-i0ftPF1BReRMwaBgmh-SduBJgETh6VJpx2fFWuqJZFHPgGPO1AtW00]--></g></svg>