<?plantuml 1.2026.2beta1?><svg xmlns="http://www.w3.org/2000/svg" xmlns:xlink="http://www.w3.org/1999/xlink" contentStyleType="text/css" data-diagram-type="STATE" height="994px" preserveAspectRatio="none" style="width:1219px;height:994px;background:#FFFFFF;" version="1.1" viewBox="0 0 1219 994" width="1219px" zoomAndPan="magnify"><title>RTP State Diagram - Updated with RFC Flow</title><defs><filter height="300%" id="f114lj2yueuc16" width="300%" x="-1" y="-1"><feGaussianBlur result="blurOut" stdDeviation="2"/><feColorMatrix in="blurOut" result="blurOut2" type="matrix" values="0 0 0 0 0 0 0 0 0 0 0 0 0 0 0 0 0 0 .4 0"/><feOffset dx="4" dy="4" in="blurOut2" result="blurOut3"/><feBlend in="SourceGraphic" in2="blurOut3" mode="normal"/></filter></defs><g><g class="title" data-source-line="2"><text fill="#000000" font-family="sans-serif" font-size="14" font-weight="bold" lengthAdjust="spacing" textLength="348.749" x="428.5895" y="22.9951">RTP State Diagram - Updated with RFC Flow</text></g><!--cluster ES--><g class="cluster" data-qualified-name="ES" data-source-line="8" id="ent0005"><rect fill="none" filter="url(#f114lj2yueuc16)" height="117" rx="12.5" ry="12.5" style="stroke:#A80036;stroke-width:1;" width="351" x="7" y="725.2369"/><path d="M19.5,725.2369 L345.5,725.2369 A12.5,12.5 0 0 1 358,737.7369 L358,746.5338 L7,746.5338 L7,737.7369 A12.5,12.5 0 0 1 19.5,725.2369" fill="#FEFECE"/><path d="M7,746.5338 L358,746.5338 L358,829.7369 A12.5,12.5 0 0 1 345.5,842.2369 L19.5,842.2369 A12.5,12.5 0 0 1 7,829.7369 L7,746.5338" fill="#FEFECE"/><rect fill="none" height="117" rx="12.5" ry="12.5" style="stroke:#A80036;stroke-width:1;" width="351" x="7" y="725.2369"/><line style="stroke:#A80036;stroke-width:1;" x1="7" x2="358" y1="746.5338" y2="746.5338"/><text fill="#000000" font-family="sans-serif" font-size="14" lengthAdjust="spacing" textLength="98.0547" x="12" y="742.232">Error statuses</text></g><g><rect fill="#FEFECE" filter="url(#f114lj2yueuc16)" height="50" rx="12.5" ry="12.5" style="stroke:#A80036;stroke-width:1;" width="115.0332" x="31.48" y="768.2369"/><line style="stroke:#A80036;stroke-width:1;" x1="31.48" x2="146.5132" y1="794.5338" y2="794.5338"/><text fill="#000000" font-family="sans-serif" font-size="14" lengthAdjust="spacing" textLength="95.0332" x="41.48" y="786.232">ERROR_SEND</text></g><g><rect fill="#FEFECE" filter="url(#f114lj2yueuc16)" height="50" rx="12.5" ry="12.5" style="stroke:#A80036;stroke-width:1;" width="132.2939" x="181.85" y="768.2369"/><line style="stroke:#A80036;stroke-width:1;" x1="181.85" x2="314.1439" y1="794.5338" y2="794.5338"/><text fill="#000000" font-family="sans-serif" font-size="14" lengthAdjust="spacing" textLength="112.2939" x="191.85" y="786.232">ERROR_CANCEL</text></g><g><rect fill="#FEFECE" filter="url(#f114lj2yueuc16)" height="50" rx="12.5" ry="12.5" style="stroke:#A80036;stroke-width:1;" width="86.1035" x="121.95" y="124.2969"/><line style="stroke:#A80036;stroke-width:1;" x1="121.95" x2="208.0535" y1="150.5938" y2="150.5938"/><text fill="#000000" font-family="sans-serif" font-size="14" lengthAdjust="spacing" textLength="66.1035" x="131.95" y="142.292">CREATED</text></g><g><rect fill="#FEFECE" filter="url(#f114lj2yueuc16)" height="50" rx="12.5" ry="12.5" style="stroke:#A80036;stroke-width:1;" width="56.7568" x="667.62" y="251.2969"/><line style="stroke:#A80036;stroke-width:1;" x1="667.62" x2="724.3768" y1="277.5938" y2="277.5938"/><text fill="#000000" font-family="sans-serif" font-size="14" lengthAdjust="spacing" textLength="36.7568" x="677.62" y="269.292">SENT</text></g><g><rect fill="#ADD8E6" filter="url(#f114lj2yueuc16)" height="50" rx="12.5" ry="12.5" style="stroke:#A80036;stroke-width:1;" width="91.3125" x="408.34" y="561.5869"/><line style="stroke:#A80036;stroke-width:1;" x1="408.34" x2="499.6525" y1="587.8838" y2="587.8838"/><text fill="#000000" font-family="sans-serif" font-size="14" lengthAdjust="spacing" textLength="71.3125" x="418.34" y="579.582">RFC_SENT</text></g><rect fill="none" filter="url(#f114lj2yueuc16)" height="106.2969" rx="12.5" ry="12.5" style="stroke:#A80036;stroke-width:1;" width="279.9508" x="494.02" y="378.2969"/><path d="M506.52,378.2969 L761.4708,378.2969 A12.5,12.5 0 0 1 773.9708,390.7969 L773.9708,404.5938 L494.02,404.5938 L494.02,390.7969 A12.5,12.5 0 0 1 506.52,378.2969" fill="#FEFECE"/><path d="M494.02,404.5938 L773.9708,404.5938 L773.9708,472.0938 A12.5,12.5 0 0 1 761.4708,484.5938 L506.52,484.5938 A12.5,12.5 0 0 1 494.02,472.0938 L494.02,404.5938" fill="#FEFECE"/><rect fill="none" height="106.2969" rx="12.5" ry="12.5" style="stroke:#A80036;stroke-width:1;" width="279.9508" x="494.02" y="378.2969"/><line style="stroke:#A80036;stroke-width:1;" x1="494.02" x2="773.9708" y1="404.5938" y2="404.5938"/><text fill="#000000" font-family="sans-serif" font-size="14" lengthAdjust="spacing" textLength="128.8369" x="569.5769" y="396.292">Accepted statuses</text><g><rect fill="#FEFECE" filter="url(#f114lj2yueuc16)" height="50" rx="12.5" ry="12.5" style="stroke:#A80036;stroke-width:1;" width="94.5938" x="506.02" y="416.5938"/><line style="stroke:#A80036;stroke-width:1;" x1="506.02" x2="600.6138" y1="442.8906" y2="442.8906"/><text fill="#000000" font-family="sans-serif" font-size="14" lengthAdjust="spacing" textLength="74.5938" x="516.02" y="434.5889">ACCEPTED</text></g><g><rect fill="#FEFECE" filter="url(#f114lj2yueuc16)" height="50" rx="12.5" ry="12.5" style="stroke:#A80036;stroke-width:1;" width="139.3008" x="618.67" y="416.5938"/><line style="stroke:#A80036;stroke-width:1;" x1="618.67" x2="757.9708" y1="442.8906" y2="442.8906"/><text fill="#000000" font-family="sans-serif" font-size="14" lengthAdjust="spacing" textLength="119.3008" x="628.67" y="434.5889">USER_ACCEPTED</text></g><rect fill="none" filter="url(#f114lj2yueuc16)" height="106.2969" rx="12.5" ry="12.5" style="stroke:#A80036;stroke-width:1;" width="269.858" x="936.07" y="378.2969"/><path d="M948.57,378.2969 L1193.428,378.2969 A12.5,12.5 0 0 1 1205.928,390.7969 L1205.928,404.5938 L936.07,404.5938 L936.07,390.7969 A12.5,12.5 0 0 1 948.57,378.2969" fill="#FEFECE"/><path d="M936.07,404.5938 L1205.928,404.5938 L1205.928,472.0938 A12.5,12.5 0 0 1 1193.428,484.5938 L948.57,484.5938 A12.5,12.5 0 0 1 936.07,472.0938 L936.07,404.5938" fill="#FEFECE"/><rect fill="none" height="106.2969" rx="12.5" ry="12.5" style="stroke:#A80036;stroke-width:1;" width="269.858" x="936.07" y="378.2969"/><line style="stroke:#A80036;stroke-width:1;" x1="936.07" x2="1205.928" y1="404.5938" y2="404.5938"/><text fill="#000000" font-family="sans-serif" font-size="14" lengthAdjust="spacing" textLength="124.9063" x="1008.5459" y="396.292">Rejected statuses</text><g><rect fill="#FEFECE" filter="url(#f114lj2yueuc16)" height="50" rx="12.5" ry="12.5" style="stroke:#A80036;stroke-width:1;" width="89.501" x="948.07" y="416.5938"/><line style="stroke:#A80036;stroke-width:1;" x1="948.07" x2="1037.571" y1="442.8906" y2="442.8906"/><text fill="#000000" font-family="sans-serif" font-size="14" lengthAdjust="spacing" textLength="69.501" x="958.07" y="434.5889">REJECTED</text></g><g><rect fill="#FEFECE" filter="url(#f114lj2yueuc16)" height="50" rx="12.5" ry="12.5" style="stroke:#A80036;stroke-width:1;" width="134.208" x="1055.72" y="416.5938"/><line style="stroke:#A80036;stroke-width:1;" x1="1055.72" x2="1189.928" y1="442.8906" y2="442.8906"/><text fill="#000000" font-family="sans-serif" font-size="14" lengthAdjust="spacing" textLength="114.208" x="1065.72" y="434.5889">USER_REJECTED</text></g><rect fill="none" filter="url(#f114lj2yueuc16)" height="209.2969" rx="12.5" ry="12.5" style="stroke:#A80036;stroke-width:1;" width="561.2116" x="385.39" y="688.5869"/><path d="M397.89,688.5869 L934.1016,688.5869 A12.5,12.5 0 0 1 946.6016,701.0869 L946.6016,714.8838 L385.39,714.8838 L385.39,701.0869 A12.5,12.5 0 0 1 397.89,688.5869" fill="#FEFECE"/><path d="M385.39,714.8838 L946.6016,714.8838 L946.6016,885.3838 A12.5,12.5 0 0 1 934.1016,897.8838 L397.89,897.8838 A12.5,12.5 0 0 1 385.39,885.3838 L385.39,714.8838" fill="#FEFECE"/><rect fill="none" height="209.2969" rx="12.5" ry="12.5" style="stroke:#A80036;stroke-width:1;" width="561.2116" x="385.39" y="688.5869"/><line style="stroke:#A80036;stroke-width:1;" x1="385.39" x2="946.6016" y1="714.8838" y2="714.8838"/><text fill="#000000" font-family="sans-serif" font-size="14" lengthAdjust="spacing" textLength="132.1934" x="599.8991" y="706.582">Cancelled statuses</text><g><rect fill="#FEFECE" filter="url(#f114lj2yueuc16)" height="50" rx="12.5" ry="12.5" style="stroke:#A80036;stroke-width:1;" width="103.6719" x="615.64" y="726.8838"/><line style="stroke:#A80036;stroke-width:1;" x1="615.64" x2="719.3119" y1="753.1806" y2="753.1806"/><text fill="#000000" font-family="sans-serif" font-size="14" lengthAdjust="spacing" textLength="83.6719" x="625.64" y="744.8789">CANCELLED</text></g><g><rect fill="#FEFECE" filter="url(#f114lj2yueuc16)" height="50" rx="12.5" ry="12.5" style="stroke:#A80036;stroke-width:1;" width="180.1729" x="397.39" y="829.8838"/><line style="stroke:#A80036;stroke-width:1;" x1="397.39" x2="577.5629" y1="856.1806" y2="856.1806"/><text fill="#000000" font-family="sans-serif" font-size="14" lengthAdjust="spacing" textLength="160.1729" x="407.39" y="847.8789">CANCELLED_REJECTED</text></g><g><rect fill="#FEFECE" filter="url(#f114lj2yueuc16)" height="50" rx="12.5" ry="12.5" style="stroke:#A80036;stroke-width:1;" width="143.6006" x="595.68" y="829.8838"/><line style="stroke:#A80036;stroke-width:1;" x1="595.68" x2="739.2806" y1="856.1806" y2="856.1806"/><text fill="#000000" font-family="sans-serif" font-size="14" lengthAdjust="spacing" textLength="123.6006" x="605.68" y="847.8789">CANCELLED_PAID</text></g><g><rect fill="#FEFECE" filter="url(#f114lj2yueuc16)" height="50" rx="12.5" ry="12.5" style="stroke:#A80036;stroke-width:1;" width="149.5273" x="757.71" y="829.8838"/><line style="stroke:#A80036;stroke-width:1;" x1="757.71" x2="907.2373" y1="856.1806" y2="856.1806"/><text fill="#000000" font-family="sans-serif" font-size="14" lengthAdjust="spacing" textLength="129.5273" x="767.71" y="847.8789">CANCELLED_ACCR</text></g><!--link CANCELLED to CANCELLED_ACCR--><g class="link" data-entity-1="ent0015" data-entity-2="ent0018" data-link-type="dependency" data-source-line="51" id="lnk17"><path d="M719.64,762.0638 C743.91,768.2838 772.07,778.4638 793.48,794.8838 C805.27,803.9238 811.7151,812.3538 818.3051,824.2638" fill="none" id="CANCELLED-to-CANCELLED_ACCR" style="stroke:#A80036;stroke-width:1;"/><polygon fill="#A80036" points="821.21,829.5138,820.3526,819.7023,818.7893,825.1388,813.3527,823.5754,821.21,829.5138" style="stroke:#A80036;stroke-width:1;"/><text fill="#000000" font-family="sans-serif" font-size="13" lengthAdjust="spacing" textLength="126.1216" x="810.48" y="807.9506">CANCEL_RTP_ACCR</text></g><!--link CANCELLED to CANCELLED_REJECTED--><g class="link" data-entity-1="ent0015" data-entity-2="ent0016" data-link-type="dependency" data-source-line="52" id="lnk18"><path d="M615.31,754.2038 C580.69,757.7638 536.47,767.8638 507.48,794.8838 C497.9,803.8038 494.1866,811.6111 491.5866,823.5511" fill="none" id="CANCELLED-to-CANCELLED_REJECTED" style="stroke:#A80036;stroke-width:1;"/><polygon fill="#A80036" points="490.31,829.4138,496.1333,821.4709,491.3738,824.5282,488.3165,819.7688,490.31,829.4138" style="stroke:#A80036;stroke-width:1;"/><text fill="#000000" font-family="sans-serif" font-size="13" lengthAdjust="spacing" textLength="154.5781" x="508.48" y="807.9506">CANCEL_RTP_REJECTED</text></g><!--link CANCELLED to CANCELLED_PAID--><g class="link" data-entity-1="ent0015" data-entity-2="ent0017" data-link-type="dependency" data-source-line="53" id="lnk19"><path d="M667.48,777.3338 C667.48,793.2138 667.48,807.8238 667.48,823.6638" fill="none" id="CANCELLED-to-CANCELLED_PAID" style="stroke:#A80036;stroke-width:1;"/><polygon fill="#A80036" points="667.48,829.6638,671.48,820.6638,667.48,824.6638,663.48,820.6638,667.48,829.6638" style="stroke:#A80036;stroke-width:1;"/><text fill="#000000" font-family="sans-serif" font-size="13" lengthAdjust="spacing" textLength="120.6182" x="668.48" y="807.9506">CANCEL_RTP_PAID</text></g><ellipse cx="165" cy="53.2969" fill="#000000" filter="url(#f114lj2yueuc16)" rx="10" ry="10" style="stroke:#000000;stroke-width:1;"/><g><rect fill="#FEFECE" filter="url(#f114lj2yueuc16)" height="50" rx="12.5" ry="12.5" style="stroke:#A80036;stroke-width:1;" width="52.9287" x="817.54" y="561.5869"/><line style="stroke:#A80036;stroke-width:1;" x1="817.54" x2="870.4687" y1="587.8838" y2="587.8838"/><text fill="#000000" font-family="sans-serif" font-size="14" lengthAdjust="spacing" textLength="32.9287" x="827.54" y="579.582">PAID</text></g><ellipse cx="916" cy="969.8869" fill="none" filter="url(#f114lj2yueuc16)" rx="11" ry="11" style="stroke:#000000;stroke-width:1;"/><ellipse cx="916" cy="969.8869" fill="#000000" rx="6" ry="6" style="stroke:#000000;stroke-width:1;"/><!--link *start* to CREATED--><g class="link" data-entity-1="ent0002" data-entity-2="ent0002" data-link-type="dependency" data-source-line="30" id="lnk3"><path d="M165,63.6469 C165,77.5769 165,98.2469 165,117.9369" fill="none" id="*start*-to-CREATED" style="stroke:#A80036;stroke-width:1;"/><polygon fill="#A80036" points="165,123.9369,169,114.9369,165,118.9369,161,114.9369,165,123.9369" style="stroke:#A80036;stroke-width:1;"/></g><!--link CREATED to SENT--><g class="link" data-entity-1="ent0002" data-entity-2="ent0003" data-link-type="dependency" data-source-line="32" id="lnk4"><path d="M208.45,160.5269 C313.6,185.2769 573.6996,246.5022 661.5196,267.1722" fill="none" id="CREATED-to-SENT" style="stroke:#A80036;stroke-width:1;"/><polygon fill="#A80036" points="667.36,268.5469,659.5158,262.5913,662.493,267.4013,657.683,270.3785,667.36,268.5469" style="stroke:#A80036;stroke-width:1;"/><text fill="#000000" font-family="sans-serif" font-size="13" lengthAdjust="spacing" textLength="67.5137" x="463" y="217.3638">SEND_RTP</text></g><!--link CREATED to ERROR_SEND--><g class="link" data-entity-1="ent0002" data-entity-2="ent0006" data-link-type="dependency" data-source-line="33" id="lnk5"><path d="M155.98,174.3369 C147.47,199.2369 136,239.4269 136,275.2969 C136,275.2969 136,275.2969 136,587.5869 C136,654.1169 114.1477,724.1535 100.4377,762.1235" fill="none" id="CREATED-to-ERROR_SEND" style="stroke:#A80036;stroke-width:1;"/><polygon fill="#A80036" points="98.4,767.7669,105.2188,760.6602,100.0981,763.0641,97.6943,757.9433,98.4,767.7669" style="stroke:#A80036;stroke-width:1;"/><text fill="#000000" font-family="sans-serif" font-size="13" lengthAdjust="spacing" textLength="119.5581" x="137" y="436.0038">ERROR_SEND_RTP</text></g><!--link SENT to AS--><g class="link" data-entity-1="ent0003" data-entity-2="ent0008" data-link-type="dependency" data-source-line="35" id="lnk6"><path d="M667.26,280.4569 C636.98,285.4969 590.74,298.4169 569,331.2969 C559.01,346.3969 560.1889,357.8803 570.4689,372.9503" fill="none" id="SENT-to-AS" style="stroke:#A80036;stroke-width:1;"/><polygon fill="#A80036" points="573.85,377.9069,572.0827,368.2179,571.0324,373.7764,565.4739,372.7261,573.85,377.9069" style="stroke:#A80036;stroke-width:1;"/><text fill="#000000" font-family="sans-serif" font-size="13" lengthAdjust="spacing" textLength="82.3545" x="570" y="344.3638">ACCEPT_RTP</text></g><!--link SENT to AS--><g class="link" data-entity-1="ent0003" data-entity-2="ent0008" data-link-type="dependency" data-source-line="37" id="lnk8"><path d="M686.18,301.5569 C677.88,322.0569 667.9512,346.5652 657.4512,372.5052" fill="none" id="SENT-to-AS-1" style="stroke:#A80036;stroke-width:1;"/><polygon fill="#A80036" points="655.2,378.0669,662.2846,371.2252,657.076,373.4322,654.8691,368.2236,655.2,378.0669" style="stroke:#A80036;stroke-width:1;"/><text fill="#000000" font-family="sans-serif" font-size="13" lengthAdjust="spacing" textLength="123.8682" x="673" y="344.3638">USER_ACCEPT_RTP</text></g><!--link SENT to RS--><g class="link" data-entity-1="ent0003" data-entity-2="ent0011" data-link-type="dependency" data-source-line="36" id="lnk7"><path d="M724.81,284.7369 C759.71,294.0969 820.06,311.3669 870,331.2969 C903.97,344.8469 934.7324,359.1356 966.8424,375.1756" fill="none" id="SENT-to-RS" style="stroke:#A80036;stroke-width:1;"/><polygon fill="#A80036" points="972.21,377.8569,965.9462,370.2566,967.737,375.6225,962.3711,377.4133,972.21,377.8569" style="stroke:#A80036;stroke-width:1;"/><text fill="#000000" font-family="sans-serif" font-size="13" lengthAdjust="spacing" textLength="77.6255" x="910" y="344.3638">REJECT_RTP</text></g><!--link SENT to RS--><g class="link" data-entity-1="ent0003" data-entity-2="ent0011" data-link-type="dependency" data-source-line="38" id="lnk9"><path d="M724.82,279.7969 C790.79,285.9569 950.56,303.3969 996,331.2969 C1014.58,342.6969 1026.7528,355.605 1038.8228,373.025" fill="none" id="SENT-to-RS-1" style="stroke:#A80036;stroke-width:1;"/><polygon fill="#A80036" points="1042.24,377.9569,1040.4021,368.281,1039.3924,373.847,1033.8264,372.8372,1042.24,377.9569" style="stroke:#A80036;stroke-width:1;"/><text fill="#000000" font-family="sans-serif" font-size="13" lengthAdjust="spacing" textLength="119.1392" x="1018" y="344.3638">USER_REJECT_RTP</text></g><!--link SENT to PAID--><g class="link" data-entity-1="ent0003" data-entity-2="ent0010" data-link-type="dependency" data-source-line="39" id="lnk11"><path d="M724.49,283.5369 C749.79,290.6469 785.68,304.8769 805,331.2969 C856.42,401.5969 852.737,506.3777 847.777,555.1577" fill="none" id="SENT-to-PAID" style="stroke:#A80036;stroke-width:1;"/><polygon fill="#A80036" points="847.17,561.1269,852.0599,552.5777,847.6758,556.1525,844.101,551.7684,847.17,561.1269" style="stroke:#A80036;stroke-width:1;"/><text fill="#000000" font-family="sans-serif" font-size="13" lengthAdjust="spacing" textLength="55.9863" x="850" y="436.0038">PAY_RTP</text></g><!--link AS to PAID--><g class="link" data-entity-1="ent0008" data-entity-2="ent0010" data-link-type="dependency" data-source-line="40" id="lnk12"><path d="M699.1,484.9969 C718.73,500.3669 740.51,516.9669 761,531.5869 C779.33,544.6769 795.5689,555.3 811.9989,565.69" fill="none" id="AS-to-PAID" style="stroke:#A80036;stroke-width:1;"/><polygon fill="#A80036" points="817.07,568.8969,811.6013,560.7059,812.8441,566.2245,807.3254,567.4673,817.07,568.8969" style="stroke:#A80036;stroke-width:1;"/><text fill="#000000" font-family="sans-serif" font-size="13" lengthAdjust="spacing" textLength="55.9863" x="762" y="527.6538">PAY_RTP</text></g><!--link SENT to RFC_SENT--><g class="link" data-entity-1="ent0003" data-entity-2="ent0004" data-link-type="dependency" data-source-line="43" id="lnk13"><path d="M667.13,276.7369 C604.53,277.2969 456.76,288.5469 392,378.2969 C350.79,435.4069 399.6031,515.272 430.6031,556.482" fill="none" id="SENT-to-RFC_SENT" style="stroke:#A80036;stroke-width:1;"/><polygon fill="#A80036" points="434.21,561.2769,431.9962,551.68,431.2043,557.2812,425.6031,556.4892,434.21,561.2769" style="stroke:#A80036;stroke-width:1;"/><text fill="#000000" font-family="sans-serif" font-size="13" lengthAdjust="spacing" textLength="83.5415" x="393" y="436.0038">CANCEL_RTP</text></g><!--link AS to RFC_SENT--><g class="link" data-entity-1="ent0008" data-entity-2="ent0004" data-link-type="dependency" data-source-line="44" id="lnk14"><path d="M572.31,484.9369 C541.77,510.9069 510.9808,537.12 486.9208,557.58" fill="none" id="AS-to-RFC_SENT" style="stroke:#A80036;stroke-width:1;"/><polygon fill="#A80036" points="482.35,561.4669,491.7974,558.6837,486.159,558.2278,486.6149,552.5894,482.35,561.4669" style="stroke:#A80036;stroke-width:1;"/><text fill="#000000" font-family="sans-serif" font-size="13" lengthAdjust="spacing" textLength="83.5415" x="534" y="527.6538">CANCEL_RTP</text></g><!--link RFC_SENT to CS--><g class="link" data-entity-1="ent0004" data-entity-2="ent0014" data-link-type="dependency" data-source-line="47" id="lnk15"><path d="M479.15,611.8669 C499.22,631.2469 524.5033,655.6496 554.2433,684.3596" fill="none" id="RFC_SENT-to-CS" style="stroke:#A80036;stroke-width:1;"/><polygon fill="#A80036" points="558.56,688.5269,554.8631,679.3982,554.9627,685.0542,549.3067,685.1539,558.56,688.5269" style="stroke:#A80036;stroke-width:1;"/><text fill="#000000" font-family="sans-serif" font-size="13" lengthAdjust="spacing" textLength="167.0957" x="523" y="654.6538">CALLBACK_RFC_SUCCESS</text></g><!--link RFC_SENT to ERROR_CANCEL--><g class="link" data-entity-1="ent0004" data-entity-2="ent0007" data-link-type="dependency" data-source-line="48" id="lnk16"><path d="M407.93,602.3469 C385.59,611.1569 359.46,624.0869 340,641.5869 C299.9,677.6569 273.8018,729.817 259.9418,762.347" fill="none" id="RFC_SENT-to-ERROR_CANCEL" style="stroke:#A80036;stroke-width:1;"/><polygon fill="#A80036" points="257.59,767.8669,264.7977,761.155,259.5499,763.267,257.4378,758.0192,257.59,767.8669" style="stroke:#A80036;stroke-width:1;"/><text fill="#000000" font-family="sans-serif" font-size="13" lengthAdjust="spacing" textLength="135.5859" x="341" y="654.6538">ERROR_CANCEL_RTP</text></g><!--link PAID to *end*--><g class="link" data-entity-1="ent0010" data-entity-2="ent0020" data-link-type="dependency" data-source-line="55" id="lnk21"><path d="M870.73,600.9169 C899.86,617.1269 944.87,647.4869 964,688.5869 C1003.25,772.9269 991.24,808.9469 964,897.8869 C955.98,924.0669 938.7893,944.9056 927.4493,957.0256" fill="none" id="PAID-to-*end*" style="stroke:#A80036;stroke-width:1;"/><polygon fill="#A80036" points="923.35,961.4069,932.4198,957.5678,926.7661,957.7558,926.5781,952.1021,923.35,961.4069" style="stroke:#A80036;stroke-width:1;"/></g><!--link RS to *end*--><g class="link" data-entity-1="ent0011" data-entity-2="ent0020" data-link-type="dependency" data-source-line="56" id="lnk22"><path d="M1072.6,485.0569 C1073.3,574.2569 1066.02,758.9669 1002,897.8869 C986.28,931.9969 950.4012,952.574 931.3212,961.804" fill="none" id="RS-to-*end*" style="stroke:#A80036;stroke-width:1;"/><polygon fill="#A80036" points="925.92,964.4169,935.7637,964.0984,930.421,962.2395,932.2799,956.8968,925.92,964.4169" style="stroke:#A80036;stroke-width:1;"/></g><!--link ES to *end*--><g class="link" data-entity-1="ent0005" data-entity-2="ent0020" data-link-type="dependency" data-source-line="57" id="lnk23"><path d="M346.6827,842.7032 C346.6944,842.8777 346.7065,843.0523 346.7188,843.2271 C346.9165,846.0234 347.1952,848.852 347.5702,851.6872 C348.3201,857.3575 349.4551,863.0543 351.0967,868.572 C354.38,879.6075 359.69,889.9269 368,897.8869 C448.37,974.8669 827.1413,970.7503 898.5713,969.2803" fill="none" id="ES-to-*end*" style="stroke:#A80036;stroke-width:1;"/><polygon fill="#A80036" points="904.57,969.1569,895.4896,965.3429,899.5711,969.2598,895.6542,973.3412,904.57,969.1569" style="stroke:#A80036;stroke-width:1;"/></g><!--link CS to *end*--><g class="link" data-entity-1="ent0014" data-entity-2="ent0020" data-link-type="dependency" data-source-line="58" id="lnk24"><path d="M815.04,898.3569 C854.77,926.1169 886.2222,948.0796 902.3322,959.3396" fill="none" id="CS-to-*end*" style="stroke:#A80036;stroke-width:1;"/><polygon fill="#A80036" points="907.25,962.7769,902.1648,954.3424,903.1518,959.9125,897.5817,960.8995,907.25,962.7769" style="stroke:#A80036;stroke-width:1;"/></g><?plantuml-src TLBHIiCm57tFLrpcWo3i1_OWP5acQfabwHv4f9GkRD6wZ2PreFZl9ccNDblNboRtt7FkpRr7Vyezr4eBPAIf1B0i1MuA8s0XYsrTVC4KreUD3MpWACqEs9B0ib97XBHF8upYZ2ww6wUhh3lQnDnTuIQHsvsPLuquSIQqhbKDxj9eeITGQA0SVX7OhqsXZBqmnrzS10bU4PgWlw26or8SN8EH88u5CI4qTOtseJMdB0_nNe-93r5UwB5OZz4dIaRqGhpN8yM-55LrBaXYmVPPIQGOOlb8kHvCyUCuO1_7N2DlT-ymdTw7PQ7ku8D-IJFtisMoDCBwDTYC_kBpa2UwB3lgMJTWZmI0EQ1jFGOyOp3_4TfWcZ7gNcln5B_wk9KQYQ9RM3NgMrclDbehvyQ1_icQisvMGw5nqEez26sasWiGMXe9coAaei3nG-QUcYHpJ9vp3wtj8pcFquPc3iEDAt9bZ78xjTKabAsDYX_N10fBRcj6AuzQRqrmBVtagvWIt7QDrarxGF4UH3xkKgtZ4EFXIFiZ2ST_?></g></svg>