<svg xmlns="http://www.w3.org/2000/svg" xmlns:xlink="http://www.w3.org/1999/xlink" contentStyleType="text/css" data-diagram-type="SEQUENCE" height="797px" preserveAspectRatio="none" style="width:1020px;height:797px;background:#FFFFFF;" version="1.1" viewBox="0 0 1020 797" width="1020px" zoomAndPan="magnify"><title>RTP Consumer &#8212; Message flow (GPD &#8594; RTP)</title><defs/><g><text fill="#000000" font-family="sans-serif" font-size="14" font-weight="bold" lengthAdjust="spacing" textLength="323.7637" x="349.1833" y="28.5352">RTP Consumer &#8212; Message flow (GPD &#8594; RTP)</text><rect fill="none" height="582.8105" style="stroke:#000000;stroke-width:1.5;" width="1003.1304" x="10" y="162.5977"/><rect fill="none" height="325.3711" style="stroke:#000000;stroke-width:1.5;" width="845.6143" x="20" y="274.8398"/><g><title>GPD EventHub</title><rect fill="#000000" fill-opacity="0.00000" height="688.4316" width="8" x="84.5591" y="73.9766"/><line style="stroke:#181818;stroke-width:0.5;stroke-dasharray:5,5;" x1="88" x2="88" y1="73.9766" y2="762.4082"/></g><g><title>rtp-consumer</title><rect fill="#000000" fill-opacity="0.00000" height="688.4316" width="8" x="207.498" y="73.9766"/><line style="stroke:#181818;stroke-width:0.5;stroke-dasharray:5,5;" x1="211.1182" x2="211.1182" y1="73.9766" y2="762.4082"/></g><g><title>mil-auth</title><rect fill="#000000" fill-opacity="0.00000" height="688.4316" width="8" x="327.1826" y="73.9766"/><line style="stroke:#181818;stroke-width:0.5;stroke-dasharray:5,5;" x1="330.3779" x2="330.3779" y1="73.9766" y2="762.4082"/></g><g><title>rtp-sender</title><rect fill="#000000" fill-opacity="0.00000" height="688.4316" width="8" x="477.5269" y="73.9766"/><line style="stroke:#181818;stroke-width:0.5;stroke-dasharray:5,5;" x1="480.606" x2="480.606" y1="73.9766" y2="762.4082"/></g><g><title>rtp-activator</title><rect fill="#000000" fill-opacity="0.00000" height="688.4316" width="8" x="646.3169" y="73.9766"/><line style="stroke:#181818;stroke-width:0.5;stroke-dasharray:5,5;" x1="650.0146" x2="650.0146" y1="73.9766" y2="762.4082"/></g><g><title>Dead-letter queue</title><rect fill="#000000" fill-opacity="0.00000" height="688.4316" width="8" x="779.1167" y="73.9766"/><line style="stroke:#181818;stroke-width:0.5;stroke-dasharray:5,5;" x1="782.6191" x2="782.6191" y1="73.9766" y2="762.4082"/></g><g class="participant participant-head" data-participant="EH"><path d="M35,47.4883 L142.1182,47.4883 C147.1182,47.4883 147.1182,60.7324 147.1182,60.7324 C147.1182,60.7324 147.1182,73.9766 142.1182,73.9766 L35,73.9766 C30,73.9766 30,60.7324 30,60.7324 C30,60.7324 30,47.4883 35,47.4883" fill="#E2E2F0" style="stroke:#181818;stroke-width:0.5;"/><path d="M142.1182,47.4883 C137.1182,47.4883 137.1182,60.7324 137.1182,60.7324 C137.1182,73.9766 142.1182,73.9766 142.1182,73.9766" fill="none" style="stroke:#181818;stroke-width:0.5;"/><text fill="#000000" font-family="sans-serif" font-size="14" lengthAdjust="spacing" textLength="97.1182" x="35" y="66.0234">GPD EventHub</text></g><g class="participant participant-tail" data-participant="EH"><path d="M35,761.4082 L142.1182,761.4082 C147.1182,761.4082 147.1182,774.6523 147.1182,774.6523 C147.1182,774.6523 147.1182,787.8965 142.1182,787.8965 L35,787.8965 C30,787.8965 30,774.6523 30,774.6523 C30,774.6523 30,761.4082 35,761.4082" fill="#E2E2F0" style="stroke:#181818;stroke-width:0.5;"/><path d="M142.1182,761.4082 C137.1182,761.4082 137.1182,774.6523 137.1182,774.6523 C137.1182,787.8965 142.1182,787.8965 142.1182,787.8965" fill="none" style="stroke:#181818;stroke-width:0.5;"/><text fill="#000000" font-family="sans-serif" font-size="14" lengthAdjust="spacing" textLength="97.1182" x="35" y="779.9434">GPD EventHub</text></g><g class="participant participant-head" data-participant="C"><rect fill="#E2E2F0" height="30.4883" rx="2.5" ry="2.5" style="stroke:#181818;stroke-width:0.5;" width="108.7598" x="157.1182" y="42.4883"/><text fill="#000000" font-family="sans-serif" font-size="14" lengthAdjust="spacing" textLength="94.7598" x="164.1182" y="63.0234">rtp-consumer</text></g><g class="participant participant-tail" data-participant="C"><rect fill="#E2E2F0" height="30.4883" rx="2.5" ry="2.5" style="stroke:#181818;stroke-width:0.5;" width="108.7598" x="157.1182" y="761.4082"/><text fill="#000000" font-family="sans-serif" font-size="14" lengthAdjust="spacing" textLength="94.7598" x="164.1182" y="781.9434">rtp-consumer</text></g><g class="participant participant-head" data-participant="MA"><rect fill="#E2E2F0" height="30.4883" rx="2.5" ry="2.5" style="stroke:#181818;stroke-width:0.5;" width="73.6094" x="294.3779" y="42.4883"/><text fill="#000000" font-family="sans-serif" font-size="14" lengthAdjust="spacing" textLength="59.6094" x="301.3779" y="63.0234">mil-auth</text></g><g class="participant participant-tail" data-participant="MA"><rect fill="#E2E2F0" height="30.4883" rx="2.5" ry="2.5" style="stroke:#181818;stroke-width:0.5;" width="73.6094" x="294.3779" y="761.4082"/><text fill="#000000" font-family="sans-serif" font-size="14" lengthAdjust="spacing" textLength="59.6094" x="301.3779" y="781.9434">mil-auth</text></g><g class="participant participant-head" data-participant="S"><rect fill="#E2E2F0" height="30.4883" rx="2.5" ry="2.5" style="stroke:#181818;stroke-width:0.5;" width="87.8418" x="437.606" y="42.4883"/><text fill="#000000" font-family="sans-serif" font-size="14" lengthAdjust="spacing" textLength="73.8418" x="444.606" y="63.0234">rtp-sender</text></g><g class="participant participant-tail" data-participant="S"><rect fill="#E2E2F0" height="30.4883" rx="2.5" ry="2.5" style="stroke:#181818;stroke-width:0.5;" width="87.8418" x="437.606" y="761.4082"/><text fill="#000000" font-family="sans-serif" font-size="14" lengthAdjust="spacing" textLength="73.8418" x="444.606" y="781.9434">rtp-sender</text></g><g class="participant participant-head" data-participant="A"><rect fill="#E2E2F0" height="30.4883" rx="2.5" ry="2.5" style="stroke:#181818;stroke-width:0.5;" width="100.6045" x="600.0146" y="42.4883"/><text fill="#000000" font-family="sans-serif" font-size="14" lengthAdjust="spacing" textLength="86.6045" x="607.0146" y="63.0234">rtp-activator</text></g><g class="participant participant-tail" data-participant="A"><rect fill="#E2E2F0" height="30.4883" rx="2.5" ry="2.5" style="stroke:#181818;stroke-width:0.5;" width="100.6045" x="600.0146" y="761.4082"/><text fill="#000000" font-family="sans-serif" font-size="14" lengthAdjust="spacing" textLength="86.6045" x="607.0146" y="781.9434">rtp-activator</text></g><g class="participant participant-head" data-participant="DLQ"><path d="M715.6191,47.4883 L850.6143,47.4883 C855.6143,47.4883 855.6143,60.7324 855.6143,60.7324 C855.6143,60.7324 855.6143,73.9766 850.6143,73.9766 L715.6191,73.9766 C710.6191,73.9766 710.6191,60.7324 710.6191,60.7324 C710.6191,60.7324 710.6191,47.4883 715.6191,47.4883" fill="#E2E2F0" style="stroke:#181818;stroke-width:0.5;"/><path d="M850.6143,47.4883 C845.6143,47.4883 845.6143,60.7324 845.6143,60.7324 C845.6143,73.9766 850.6143,73.9766 850.6143,73.9766" fill="none" style="stroke:#181818;stroke-width:0.5;"/><text fill="#000000" font-family="sans-serif" font-size="14" lengthAdjust="spacing" textLength="124.9951" x="715.6191" y="66.0234">Dead-letter queue</text></g><g class="participant participant-tail" data-participant="DLQ"><path d="M715.6191,761.4082 L850.6143,761.4082 C855.6143,761.4082 855.6143,774.6523 855.6143,774.6523 C855.6143,774.6523 855.6143,787.8965 850.6143,787.8965 L715.6191,787.8965 C710.6191,787.8965 710.6191,774.6523 710.6191,774.6523 C710.6191,774.6523 710.6191,761.4082 715.6191,761.4082" fill="#E2E2F0" style="stroke:#181818;stroke-width:0.5;"/><path d="M850.6143,761.4082 C845.6143,761.4082 845.6143,774.6523 845.6143,774.6523 C845.6143,787.8965 850.6143,787.8965 850.6143,787.8965" fill="none" style="stroke:#181818;stroke-width:0.5;"/><text fill="#000000" font-family="sans-serif" font-size="14" lengthAdjust="spacing" textLength="124.9951" x="715.6191" y="779.9434">Dead-letter queue</text></g><g class="message" data-participant-1="EH" data-participant-2="C"><polygon fill="#181818" points="199.498,101.2871,209.498,105.2871,199.498,109.2871,203.498,105.2871" style="stroke:#181818;stroke-width:1;"/><line style="stroke:#181818;stroke-width:1;" x1="88.5591" x2="205.498" y1="105.2871" y2="105.2871"/><text fill="#000000" font-family="sans-serif" font-size="13" lengthAdjust="spacing" textLength="87.3184" x="95.5591" y="100.5449">Event payload</text></g><g class="message" data-participant-1="C" data-participant-2="C"><line style="stroke:#181818;stroke-width:1;" x1="211.498" x2="253.498" y1="134.5977" y2="134.5977"/><line style="stroke:#181818;stroke-width:1;" x1="253.498" x2="253.498" y1="134.5977" y2="147.5977"/><line style="stroke:#181818;stroke-width:1;" x1="212.498" x2="253.498" y1="147.5977" y2="147.5977"/><polygon fill="#181818" points="222.498,143.5977,212.498,147.5977,222.498,151.5977,218.498,147.5977" style="stroke:#181818;stroke-width:1;"/><text fill="#000000" font-family="sans-serif" font-size="13" lengthAdjust="spacing" textLength="104.0317" x="218.498" y="129.8555">Validate payload</text></g><path d="M10,162.5977 L72.1387,162.5977 L72.1387,169.9082 L62.1387,179.9082 L10,179.9082 L10,162.5977" fill="#EEEEEE" style="stroke:#000000;stroke-width:1.5;"/><rect fill="none" height="582.8105" style="stroke:#000000;stroke-width:1.5;" width="1003.1304" x="10" y="162.5977"/><text fill="#000000" font-family="sans-serif" font-size="13" font-weight="bold" lengthAdjust="spacing" textLength="17.1387" x="25" y="176.166">alt</text><text fill="#000000" font-family="sans-serif" font-size="11" font-weight="bold" lengthAdjust="spacing" textLength="85.9912" x="87.1387" y="175.2324">[Validation OK]</text><g class="message" data-participant-1="C" data-participant-2="MA"><polygon fill="#181818" points="319.1826,197.2188,329.1826,201.2188,319.1826,205.2188,323.1826,201.2188" style="stroke:#181818;stroke-width:1;"/><line style="stroke:#181818;stroke-width:1;" x1="211.498" x2="325.1826" y1="201.2188" y2="201.2188"/><text fill="#000000" font-family="sans-serif" font-size="13" lengthAdjust="spacing" textLength="79.1934" x="218.498" y="196.4766">POST /token</text></g><g class="message" data-participant-1="MA" data-participant-2="C"><polygon fill="#181818" points="222.498,226.5293,212.498,230.5293,222.498,234.5293,218.498,230.5293" style="stroke:#181818;stroke-width:1;"/><line style="stroke:#181818;stroke-width:1;stroke-dasharray:2,2;" x1="216.498" x2="330.1826" y1="230.5293" y2="230.5293"/><text fill="#000000" font-family="sans-serif" font-size="13" lengthAdjust="spacing" textLength="95.6846" x="228.498" y="225.7871">200 OK (token)</text></g><g class="message" data-participant-1="C" data-participant-2="S"><polygon fill="#181818" points="469.5269,255.8398,479.5269,259.8398,469.5269,263.8398,473.5269,259.8398" style="stroke:#181818;stroke-width:1;"/><line style="stroke:#181818;stroke-width:1;" x1="211.498" x2="475.5269" y1="259.8398" y2="259.8398"/><text fill="#000000" font-family="sans-serif" font-size="13" lengthAdjust="spacing" textLength="246.0288" x="218.498" y="255.0977">POST /gpd/message (payload + token)</text></g><path d="M20,274.8398 L82.1387,274.8398 L82.1387,282.1504 L72.1387,292.1504 L20,292.1504 L20,274.8398" fill="#EEEEEE" style="stroke:#000000;stroke-width:1.5;"/><rect fill="none" height="325.3711" style="stroke:#000000;stroke-width:1.5;" width="845.6143" x="20" y="274.8398"/><text fill="#000000" font-family="sans-serif" font-size="13" font-weight="bold" lengthAdjust="spacing" textLength="17.1387" x="35" y="288.4082">alt</text><text fill="#000000" font-family="sans-serif" font-size="11" font-weight="bold" lengthAdjust="spacing" textLength="58.3193" x="97.1387" y="287.4746">[POST OK]</text><g class="message" data-participant-1="S" data-participant-2="MA"><polygon fill="#181818" points="342.1826,309.4609,332.1826,313.4609,342.1826,317.4609,338.1826,313.4609" style="stroke:#181818;stroke-width:1;"/><line style="stroke:#181818;stroke-width:1;" x1="336.1826" x2="480.5269" y1="313.4609" y2="313.4609"/><text fill="#000000" font-family="sans-serif" font-size="13" lengthAdjust="spacing" textLength="79.1934" x="348.1826" y="308.7188">POST /token</text></g><g class="message" data-participant-1="MA" data-participant-2="S"><polygon fill="#181818" points="469.5269,338.7715,479.5269,342.7715,469.5269,346.7715,473.5269,342.7715" style="stroke:#181818;stroke-width:1;"/><line style="stroke:#181818;stroke-width:1;stroke-dasharray:2,2;" x1="331.1826" x2="475.5269" y1="342.7715" y2="342.7715"/><text fill="#000000" font-family="sans-serif" font-size="13" lengthAdjust="spacing" textLength="95.6846" x="338.1826" y="338.0293">200 OK (token)</text></g><g class="message" data-participant-1="S" data-participant-2="A"><polygon fill="#181818" points="638.3169,368.082,648.3169,372.082,638.3169,376.082,642.3169,372.082" style="stroke:#181818;stroke-width:1;"/><line style="stroke:#181818;stroke-width:1;" x1="481.5269" x2="644.3169" y1="372.082" y2="372.082"/><text fill="#000000" font-family="sans-serif" font-size="13" lengthAdjust="spacing" textLength="144.79" x="488.5269" y="367.3398">GET /activations/payer</text></g><g class="message" data-participant-1="A" data-participant-2="S"><polygon fill="#181818" points="492.5269,397.3926,482.5269,401.3926,492.5269,405.3926,488.5269,401.3926" style="stroke:#181818;stroke-width:1;"/><line style="stroke:#181818;stroke-width:1;stroke-dasharray:2,2;" x1="486.5269" x2="649.3169" y1="401.3926" y2="401.3926"/><text fill="#000000" font-family="sans-serif" font-size="13" lengthAdjust="spacing" textLength="94.6436" x="498.5269" y="396.6504">200 OK (payer)</text></g><g class="message" data-participant-1="S" data-participant-2="C"><polygon fill="#181818" points="222.498,426.7031,212.498,430.7031,222.498,434.7031,218.498,430.7031" style="stroke:#181818;stroke-width:1;"/><line style="stroke:#181818;stroke-width:1;stroke-dasharray:2,2;" x1="216.498" x2="480.5269" y1="430.7031" y2="430.7031"/><text fill="#000000" font-family="sans-serif" font-size="13" lengthAdjust="spacing" textLength="83.5542" x="228.498" y="425.9609">200 OK (RTP)</text></g><g class="message" data-participant-1="C" data-participant-2="EH"><polygon fill="#181818" points="99.5591,456.0137,89.5591,460.0137,99.5591,464.0137,95.5591,460.0137" style="stroke:#181818;stroke-width:1;"/><line style="stroke:#181818;stroke-width:1;stroke-dasharray:2,2;" x1="93.5591" x2="210.498" y1="460.0137" y2="460.0137"/><text fill="#000000" font-family="sans-serif" font-size="13" lengthAdjust="spacing" textLength="23.2261" x="105.5591" y="455.2715">Ack</text></g><line style="stroke:#000000;stroke-width:1;stroke-dasharray:2,2;" x1="20" x2="865.6143" y1="469.0137" y2="469.0137"/><text fill="#000000" font-family="sans-serif" font-size="11" font-weight="bold" lengthAdjust="spacing" textLength="196.4531" x="25" y="479.6484">[POST failed (4xx / 5xx / timeout)]</text><g class="message" data-participant-1="S" data-participant-2="C"><polygon fill="#181818" points="222.498,500.2793,212.498,504.2793,222.498,508.2793,218.498,504.2793" style="stroke:#181818;stroke-width:1;"/><line style="stroke:#181818;stroke-width:1;stroke-dasharray:2,2;" x1="216.498" x2="480.5269" y1="504.2793" y2="504.2793"/><text fill="#000000" font-family="sans-serif" font-size="13" lengthAdjust="spacing" textLength="94.9482" x="228.498" y="499.5371">Error / timeout</text></g><g class="message" data-participant-1="C" data-participant-2="DLQ"><polygon fill="#181818" points="771.1167,529.5898,781.1167,533.5898,771.1167,537.5898,775.1167,533.5898" style="stroke:#181818;stroke-width:1;"/><line style="stroke:#181818;stroke-width:1;" x1="211.498" x2="777.1167" y1="533.5898" y2="533.5898"/><text fill="#000000" font-family="sans-serif" font-size="13" lengthAdjust="spacing" textLength="151.5059" x="218.498" y="528.8477">Enqueue failure payload</text></g><g class="message" data-participant-1="DLQ" data-participant-2="C"><polygon fill="#181818" points="222.498,558.9004,212.498,562.9004,222.498,566.9004,218.498,562.9004" style="stroke:#181818;stroke-width:1;"/><line style="stroke:#181818;stroke-width:1;stroke-dasharray:2,2;" x1="216.498" x2="782.1167" y1="562.9004" y2="562.9004"/><text fill="#000000" font-family="sans-serif" font-size="13" lengthAdjust="spacing" textLength="62.5625" x="228.498" y="558.1582">Ack (DLQ)</text></g><g class="message" data-participant-1="C" data-participant-2="EH"><polygon fill="#181818" points="99.5591,588.2109,89.5591,592.2109,99.5591,596.2109,95.5591,592.2109" style="stroke:#181818;stroke-width:1;"/><line style="stroke:#181818;stroke-width:1;stroke-dasharray:2,2;" x1="93.5591" x2="210.498" y1="592.2109" y2="592.2109"/><text fill="#000000" font-family="sans-serif" font-size="13" lengthAdjust="spacing" textLength="23.2261" x="105.5591" y="587.4688">Ack</text></g><line style="stroke:#000000;stroke-width:1;stroke-dasharray:2,2;" x1="10" x2="1013.1304" y1="608.2109" y2="608.2109"/><text fill="#000000" font-family="sans-serif" font-size="11" font-weight="bold" lengthAdjust="spacing" textLength="101.041" x="15" y="618.8457">[Validation failed]</text><g class="message" data-participant-1="C" data-participant-2="DLQ"><polygon fill="#181818" points="771.1167,639.4766,781.1167,643.4766,771.1167,647.4766,775.1167,643.4766" style="stroke:#181818;stroke-width:1;"/><line style="stroke:#181818;stroke-width:1;" x1="211.498" x2="777.1167" y1="643.4766" y2="643.4766"/><text fill="#000000" font-family="sans-serif" font-size="13" lengthAdjust="spacing" textLength="152.8325" x="218.498" y="638.7344">Enqueue invalid payload</text></g><path d="M788,656.4766 L788,681.4766 L1003,681.4766 L1003,666.4766 L993,656.4766 L788,656.4766" fill="#FEFFDD" style="stroke:#181818;stroke-width:0.5;"/><path d="M993,656.4766 L993,666.4766 L1003,666.4766 L993,656.4766" fill="#FEFFDD" style="stroke:#181818;stroke-width:0.5;"/><text fill="#000000" font-family="sans-serif" font-size="13" lengthAdjust="spacing" textLength="194.1304" x="794" y="674.0449">Malformed or invalid message.</text><g class="message" data-participant-1="DLQ" data-participant-2="C"><polygon fill="#181818" points="222.498,704.0977,212.498,708.0977,222.498,712.0977,218.498,708.0977" style="stroke:#181818;stroke-width:1;"/><line style="stroke:#181818;stroke-width:1;stroke-dasharray:2,2;" x1="216.498" x2="782.1167" y1="708.0977" y2="708.0977"/><text fill="#000000" font-family="sans-serif" font-size="13" lengthAdjust="spacing" textLength="62.5625" x="228.498" y="703.3555">Ack (DLQ)</text></g><g class="message" data-participant-1="C" data-participant-2="EH"><polygon fill="#181818" points="99.5591,733.4082,89.5591,737.4082,99.5591,741.4082,95.5591,737.4082" style="stroke:#181818;stroke-width:1;"/><line style="stroke:#181818;stroke-width:1;stroke-dasharray:2,2;" x1="93.5591" x2="210.498" y1="737.4082" y2="737.4082"/><text fill="#000000" font-family="sans-serif" font-size="13" lengthAdjust="spacing" textLength="23.2261" x="105.5591" y="732.666">Ack</text></g><!--SRC=[TLB1Rjim3BthAuYSN0nUYgAzz50WS8m6M8EcIx6x6ZEfK5boPJhhRZlj0uPzORza52qdNP9TTE1xZ- -H51co25yV5r1urtOr1dZ_-GVcsBPwWx2s_ZjajuiflF_w7MbdIhrss26COh7SegDPzpG2tK8vKuqEP5QcqOvW5AZ9Lwcf48f_yThON7VqBDXySYnkqLL9kZn6zOhCLfFl2PCXrXHrbLiauaca9F3qxa6fSWRv3HHmtUU6Hl-mNbUg6ChVj3ML9jmXIbiQgiOxkF-Y08G-dp1_SRzyX37v5tHSvrAU6bsSdpCNCe5uPKcqt6asJJMkquwpv0QVOC-Fna8LIs3fQTETxVAaRH96tMt9ihGqdgKTioq6uHnt46pVuM0i-GSHAWJYlLx3PFKIwMXRx2EkjR5OGNRvzWPZk9ANJ8s-exE3lcK8FknXDVI-YNUBkEkF6rjsON-UI8kCeGzdW8mB9yDnDiSNbO0VJjh7L2VzZDj6uWS_v_bt1BDv9l1h-LLo0ctNFjGyBOynYD9vF_V6ebJ_ZtiGLg9McCw5KFm5]--></g></svg>
