<?xml version="1.0" encoding="us-ascii" standalone="no"?><svg xmlns="http://www.w3.org/2000/svg" xmlns:xlink="http://www.w3.org/1999/xlink" contentStyleType="text/css" height="1183px" preserveAspectRatio="none" style="width:1106px;height:1183px;background:#FFFFFF;" version="1.1" viewBox="0 0 1106 1183" width="1106px" zoomAndPan="magnify"><defs><filter height="300%" id="fpdey4jrwti21" width="300%" x="-1" y="-1"><feGaussianBlur result="blurOut" stdDeviation="2.0"/><feColorMatrix in="blurOut" result="blurOut2" type="matrix" values="0 0 0 0 0 0 0 0 0 0 0 0 0 0 0 0 0 0 .4 0"/><feOffset dx="4.0" dy="4.0" in="blurOut2" result="blurOut3"/><feBlend in="SourceGraphic" in2="blurOut3" mode="normal"/></filter></defs><g><text fill="#000000" font-family="sans-serif" font-size="14" font-weight="bold" lengthAdjust="spacing" textLength="145" x="473.925" y="22.9951">RTP State Diagram</text><rect fill="none" filter="url(#fpdey4jrwti21)" height="209.2969" rx="12.5" ry="12.5" style="stroke:#A80036;stroke-width:1.0;" width="133.5" x="554.85" y="124.2969"/><path d="M567.35,124.2969 L675.85,124.2969 A12.5,12.5 0 0 1 688.35,136.7969 L688.35,150.5938 L554.85,150.5938 L554.85,136.7969 A12.5,12.5 0 0 1 567.35,124.2969 " fill="#FEFECE" style="stroke:#FEFECE;stroke-width:1.0;"/><path d="M554.85,150.5938 L688.35,150.5938 L688.35,321.0938 A12.5,12.5 0 0 1 675.85,333.5938 L567.35,333.5938 A12.5,12.5 0 0 1 554.85,321.0938 L554.85,150.5938 " fill="#FEFECE" style="stroke:#FEFECE;stroke-width:1.0;"/><rect fill="none" height="209.2969" rx="12.5" ry="12.5" style="stroke:#A80036;stroke-width:1.0;" width="133.5" x="554.85" y="124.2969"/><line style="stroke:#A80036;stroke-width:1.0;" x1="554.85" x2="688.35" y1="150.5938" y2="150.5938"/><text fill="#000000" font-family="sans-serif" font-size="14" lengthAdjust="spacing" textLength="98" x="572.6" y="142.292">Initial statuses</text><g id="IS.CREATED"><rect fill="#FEFECE" filter="url(#fpdey4jrwti21)" height="50" rx="12.5" ry="12.5" style="stroke:#A80036;stroke-width:1.0;" width="87" x="566.85" y="162.5938"/><line style="stroke:#A80036;stroke-width:1.0;" x1="566.85" x2="653.85" y1="188.8906" y2="188.8906"/><text fill="#000000" font-family="sans-serif" font-size="14" lengthAdjust="spacing" textLength="67" x="576.85" y="180.5889">CREATED</text></g><g id="IS.SENT"><rect fill="#FEFECE" filter="url(#fpdey4jrwti21)" height="50" rx="12.5" ry="12.5" style="stroke:#A80036;stroke-width:1.0;" width="57" x="581.85" y="265.5938"/><line style="stroke:#A80036;stroke-width:1.0;" x1="581.85" x2="638.85" y1="291.8906" y2="291.8906"/><text fill="#000000" font-family="sans-serif" font-size="14" lengthAdjust="spacing" textLength="37" x="591.85" y="283.5889">SENT</text></g><!--link CREATED to SENT--><g id="link_CREATED_SENT"><path d="M610.35,212.7838 C610.35,226.9237 610.35,244.8738 610.35,259.8738 " fill="none" id="CREATED-to-SENT" style="stroke:#A80036;stroke-width:1.0;"/><polygon fill="#A80036" points="610.35,265.2537,614.35,256.2537,610.35,260.2537,606.35,256.2537,610.35,265.2537" style="stroke:#A80036;stroke-width:1.0;"/><text fill="#000000" font-family="sans-serif" font-size="13" lengthAdjust="spacing" textLength="67" x="611.35" y="243.6606">SEND_RTP</text></g><rect fill="none" filter="url(#fpdey4jrwti21)" height="106.2969" rx="12.5" ry="12.5" style="stroke:#A80036;stroke-width:1.0;" width="294" x="204.85" y="982.2969"/><path d="M217.35,982.2969 L486.35,982.2969 A12.5,12.5 0 0 1 498.85,994.7969 L498.85,1008.5938 L204.85,1008.5938 L204.85,994.7969 A12.5,12.5 0 0 1 217.35,982.2969 " fill="#FEFECE" style="stroke:#FEFECE;stroke-width:1.0;"/><path d="M204.85,1008.5938 L498.85,1008.5938 L498.85,1076.0938 A12.5,12.5 0 0 1 486.35,1088.5938 L217.35,1088.5938 A12.5,12.5 0 0 1 204.85,1076.0938 L204.85,1008.5938 " fill="#FEFECE" style="stroke:#FEFECE;stroke-width:1.0;"/><rect fill="none" height="106.2969" rx="12.5" ry="12.5" style="stroke:#A80036;stroke-width:1.0;" width="294" x="204.85" y="982.2969"/><line style="stroke:#A80036;stroke-width:1.0;" x1="204.85" x2="498.85" y1="1008.5938" y2="1008.5938"/><text fill="#000000" font-family="sans-serif" font-size="14" lengthAdjust="spacing" textLength="97" x="303.35" y="1000.292">Error statuses</text><g id="ES.ERROR_SEND"><rect fill="#FEFECE" filter="url(#fpdey4jrwti21)" height="50" rx="12.5" ry="12.5" style="stroke:#A80036;stroke-width:1.0;" width="116" x="216.85" y="1020.5938"/><line style="stroke:#A80036;stroke-width:1.0;" x1="216.85" x2="332.85" y1="1046.8906" y2="1046.8906"/><text fill="#000000" font-family="sans-serif" font-size="14" lengthAdjust="spacing" textLength="96" x="226.85" y="1038.5889">ERROR_SEND</text></g><g id="ES.ERROR_CANCEL"><rect fill="#FEFECE" filter="url(#fpdey4jrwti21)" height="50" rx="12.5" ry="12.5" style="stroke:#A80036;stroke-width:1.0;" width="132" x="350.85" y="1020.5938"/><line style="stroke:#A80036;stroke-width:1.0;" x1="350.85" x2="482.85" y1="1046.8906" y2="1046.8906"/><text fill="#000000" font-family="sans-serif" font-size="14" lengthAdjust="spacing" textLength="112" x="360.85" y="1038.5889">ERROR_CANCEL</text></g><rect fill="none" filter="url(#fpdey4jrwti21)" height="209.2969" rx="12.5" ry="12.5" style="stroke:#A80036;stroke-width:1.0;" width="215.5" x="773.85" y="410.2969"/><path d="M786.35,410.2969 L976.85,410.2969 A12.5,12.5 0 0 1 989.35,422.7969 L989.35,436.5938 L773.85,436.5938 L773.85,422.7969 A12.5,12.5 0 0 1 786.35,410.2969 " fill="#FEFECE" style="stroke:#FEFECE;stroke-width:1.0;"/><path d="M773.85,436.5938 L989.35,436.5938 L989.35,607.0938 A12.5,12.5 0 0 1 976.85,619.5938 L786.35,619.5938 A12.5,12.5 0 0 1 773.85,607.0938 L773.85,436.5938 " fill="#FEFECE" style="stroke:#FEFECE;stroke-width:1.0;"/><rect fill="none" height="209.2969" rx="12.5" ry="12.5" style="stroke:#A80036;stroke-width:1.0;" width="215.5" x="773.85" y="410.2969"/><line style="stroke:#A80036;stroke-width:1.0;" x1="773.85" x2="989.35" y1="436.5938" y2="436.5938"/><text fill="#000000" font-family="sans-serif" font-size="14" lengthAdjust="spacing" textLength="130" x="816.6" y="428.292">Accepted statuses</text><g id="AS.ACCEPTED"><rect fill="#FEFECE" filter="url(#fpdey4jrwti21)" height="50" rx="12.5" ry="12.5" style="stroke:#A80036;stroke-width:1.0;" width="96" x="808.35" y="448.5938"/><line style="stroke:#A80036;stroke-width:1.0;" x1="808.35" x2="904.35" y1="474.8906" y2="474.8906"/><text fill="#000000" font-family="sans-serif" font-size="14" lengthAdjust="spacing" textLength="76" x="818.35" y="466.5889">ACCEPTED</text></g><g id="AS.USER_ACCEPTED"><rect fill="#FEFECE" filter="url(#fpdey4jrwti21)" height="50" rx="12.5" ry="12.5" style="stroke:#A80036;stroke-width:1.0;" width="141" x="785.85" y="551.5938"/><line style="stroke:#A80036;stroke-width:1.0;" x1="785.85" x2="926.85" y1="577.8906" y2="577.8906"/><text fill="#000000" font-family="sans-serif" font-size="14" lengthAdjust="spacing" textLength="121" x="795.85" y="569.5889">USER_ACCEPTED</text></g><!--link ACCEPTED to USER_ACCEPTED--><g id="link_ACCEPTED_USER_ACCEPTED"><path d="M856.35,498.7838 C856.35,512.9238 856.35,530.8738 856.35,545.8738 " fill="none" id="ACCEPTED-to-USER_ACCEPTED" style="stroke:#A80036;stroke-width:1.0;"/><polygon fill="#A80036" points="856.35,551.2538,860.35,542.2538,856.35,546.2538,852.35,542.2538,856.35,551.2538" style="stroke:#A80036;stroke-width:1.0;"/><text fill="#000000" font-family="sans-serif" font-size="13" lengthAdjust="spacing" textLength="122" x="857.35" y="529.6606">USER_ACCEPT_RTP</text></g><rect fill="none" filter="url(#fpdey4jrwti21)" height="106.2969" rx="12.5" ry="12.5" style="stroke:#A80036;stroke-width:1.0;" width="271.5" x="664.35" y="747.7969"/><path d="M676.85,747.7969 L923.35,747.7969 A12.5,12.5 0 0 1 935.85,760.2969 L935.85,774.0938 L664.35,774.0938 L664.35,760.2969 A12.5,12.5 0 0 1 676.85,747.7969 " fill="#FEFECE" style="stroke:#FEFECE;stroke-width:1.0;"/><path d="M664.35,774.0938 L935.85,774.0938 L935.85,841.5938 A12.5,12.5 0 0 1 923.35,854.0938 L676.85,854.0938 A12.5,12.5 0 0 1 664.35,841.5938 L664.35,774.0938 " fill="#FEFECE" style="stroke:#FEFECE;stroke-width:1.0;"/><rect fill="none" height="106.2969" rx="12.5" ry="12.5" style="stroke:#A80036;stroke-width:1.0;" width="271.5" x="664.35" y="747.7969"/><line style="stroke:#A80036;stroke-width:1.0;" x1="664.35" x2="935.85" y1="774.0938" y2="774.0938"/><text fill="#000000" font-family="sans-serif" font-size="14" lengthAdjust="spacing" textLength="126" x="737.1" y="765.792">Rejected statuses</text><g id="RS.REJECTED"><rect fill="#FEFECE" filter="url(#fpdey4jrwti21)" height="50" rx="12.5" ry="12.5" style="stroke:#A80036;stroke-width:1.0;" width="90" x="676.35" y="786.0938"/><line style="stroke:#A80036;stroke-width:1.0;" x1="676.35" x2="766.35" y1="812.3906" y2="812.3906"/><text fill="#000000" font-family="sans-serif" font-size="14" lengthAdjust="spacing" textLength="70" x="686.35" y="804.0889">REJECTED</text></g><g id="RS.USER_REJECTED"><rect fill="#FEFECE" filter="url(#fpdey4jrwti21)" height="50" rx="12.5" ry="12.5" style="stroke:#A80036;stroke-width:1.0;" width="135" x="784.85" y="786.0938"/><line style="stroke:#A80036;stroke-width:1.0;" x1="784.85" x2="919.85" y1="812.3906" y2="812.3906"/><text fill="#000000" font-family="sans-serif" font-size="14" lengthAdjust="spacing" textLength="115" x="794.85" y="804.0889">USER_REJECTED</text></g><rect fill="none" filter="url(#fpdey4jrwti21)" height="209.2969" rx="12.5" ry="12.5" style="stroke:#A80036;stroke-width:1.0;" width="554.5" x="74.35" y="696.2969"/><path d="M86.85,696.2969 L616.35,696.2969 A12.5,12.5 0 0 1 628.85,708.7969 L628.85,722.5938 L74.35,722.5938 L74.35,708.7969 A12.5,12.5 0 0 1 86.85,696.2969 " fill="#FEFECE" style="stroke:#FEFECE;stroke-width:1.0;"/><path d="M74.35,722.5938 L628.85,722.5938 L628.85,893.0938 A12.5,12.5 0 0 1 616.35,905.5938 L86.85,905.5938 A12.5,12.5 0 0 1 74.35,893.0938 L74.35,722.5938 " fill="#FEFECE" style="stroke:#FEFECE;stroke-width:1.0;"/><rect fill="none" height="209.2969" rx="12.5" ry="12.5" style="stroke:#A80036;stroke-width:1.0;" width="554.5" x="74.35" y="696.2969"/><line style="stroke:#A80036;stroke-width:1.0;" x1="74.35" x2="628.85" y1="722.5938" y2="722.5938"/><text fill="#000000" font-family="sans-serif" font-size="14" lengthAdjust="spacing" textLength="132" x="285.6" y="714.292">Cancelled statuses</text><g id="CS.CANCELLED"><rect fill="#FEFECE" filter="url(#fpdey4jrwti21)" height="50" rx="12.5" ry="12.5" style="stroke:#A80036;stroke-width:1.0;" width="102" x="302.85" y="734.5938"/><line style="stroke:#A80036;stroke-width:1.0;" x1="302.85" x2="404.85" y1="760.8906" y2="760.8906"/><text fill="#000000" font-family="sans-serif" font-size="14" lengthAdjust="spacing" textLength="82" x="312.85" y="752.5889">CANCELLED</text></g><g id="CS.CANCELLED_REJECTED"><rect fill="#FEFECE" filter="url(#fpdey4jrwti21)" height="50" rx="12.5" ry="12.5" style="stroke:#A80036;stroke-width:1.0;" width="179" x="86.35" y="837.5938"/><line style="stroke:#A80036;stroke-width:1.0;" x1="86.35" x2="265.35" y1="863.8906" y2="863.8906"/><text fill="#000000" font-family="sans-serif" font-size="14" lengthAdjust="spacing" textLength="159" x="96.35" y="855.5889">CANCELLED_REJECTED</text></g><g id="CS.CANCELLED_PAID"><rect fill="#FEFECE" filter="url(#fpdey4jrwti21)" height="50" rx="12.5" ry="12.5" style="stroke:#A80036;stroke-width:1.0;" width="141" x="283.35" y="837.5938"/><line style="stroke:#A80036;stroke-width:1.0;" x1="283.35" x2="424.35" y1="863.8906" y2="863.8906"/><text fill="#000000" font-family="sans-serif" font-size="14" lengthAdjust="spacing" textLength="121" x="293.35" y="855.5889">CANCELLED_PAID</text></g><g id="CS.CANCELLED_ACCR"><rect fill="#FEFECE" filter="url(#fpdey4jrwti21)" height="50" rx="12.5" ry="12.5" style="stroke:#A80036;stroke-width:1.0;" width="148" x="442.85" y="837.5938"/><line style="stroke:#A80036;stroke-width:1.0;" x1="442.85" x2="590.85" y1="863.8906" y2="863.8906"/><text fill="#000000" font-family="sans-serif" font-size="14" lengthAdjust="spacing" textLength="128" x="452.85" y="855.5889">CANCELLED_ACCR</text></g><!--link CANCELLED to CANCELLED_ACCR--><g id="link_CANCELLED_CANCELLED_ACCR"><path d="M405.07,769.5838 C429.31,775.7838 457.53,786.0038 478.85,802.5938 C489.11,810.5838 497.43,822.1637 503.63,832.9638 " fill="none" id="CANCELLED-to-CANCELLED_ACCR" style="stroke:#A80036;stroke-width:1.0;"/><polygon fill="#A80036" points="506.16,837.5238,505.2858,827.7138,503.7318,833.153,498.2926,831.5989,506.16,837.5238" style="stroke:#A80036;stroke-width:1.0;"/><text fill="#000000" font-family="sans-serif" font-size="13" lengthAdjust="spacing" textLength="124" x="494.85" y="815.6606">CANCEL_RTP_ACCR</text></g><!--link CANCELLED to CANCELLED_REJECTED--><g id="link_CANCELLED_CANCELLED_REJECTED"><path d="M302.48,762.6138 C268.95,766.5138 226.27,776.7238 197.85,802.5938 C189.3,810.3838 184.06,821.8038 180.85,832.5338 " fill="none" id="CANCELLED-to-CANCELLED_REJECTED" style="stroke:#A80036;stroke-width:1.0;"/><polygon fill="#A80036" points="179.52,837.4038,185.7643,829.7874,180.8464,832.5829,178.0509,827.6651,179.52,837.4038" style="stroke:#A80036;stroke-width:1.0;"/><text fill="#000000" font-family="sans-serif" font-size="13" lengthAdjust="spacing" textLength="150" x="198.85" y="815.6606">CANCEL_RTP_REJECTED</text></g><!--link CANCELLED to CANCELLED_PAID--><g id="link_CANCELLED_CANCELLED_PAID"><path d="M353.85,784.7838 C353.85,798.9238 353.85,816.8738 353.85,831.8738 " fill="none" id="CANCELLED-to-CANCELLED_PAID" style="stroke:#A80036;stroke-width:1.0;"/><polygon fill="#A80036" points="353.85,837.2538,357.85,828.2538,353.85,832.2538,349.85,828.2538,353.85,837.2538" style="stroke:#A80036;stroke-width:1.0;"/><text fill="#000000" font-family="sans-serif" font-size="13" lengthAdjust="spacing" textLength="119" x="354.85" y="815.6606">CANCEL_RTP_PAID</text></g><ellipse cx="621.85" cy="53.2969" fill="#A80036" filter="url(#fpdey4jrwti21)" rx="10" ry="10" style="stroke:none;stroke-width:1.0;"/><g id="PAID"><rect fill="#FEFECE" filter="url(#fpdey4jrwti21)" height="50" rx="12.5" ry="12.5" style="stroke:#A80036;stroke-width:1.0;" width="52" x="970.85" y="775.7969"/><line style="stroke:#A80036;stroke-width:1.0;" x1="970.85" x2="1022.85" y1="802.0938" y2="802.0938"/><text fill="#000000" font-family="sans-serif" font-size="14" lengthAdjust="spacing" textLength="32" x="980.85" y="793.792">PAID</text></g><ellipse cx="674.85" cy="1159.2969" fill="none" filter="url(#fpdey4jrwti21)" rx="10" ry="10" style="stroke:#A80036;stroke-width:1.0;"/><ellipse cx="675.35" cy="1159.7969" fill="#A80036" rx="6" ry="6" style="stroke:none;stroke-width:1.0;"/><!--link *start* to IS--><g id="link_*start*_IS"><path d="M621.85,63.6269 C621.85,75.0769 621.85,95.8269 621.85,118.8069 " fill="none" id="*start*-to-IS" style="stroke:#A80036;stroke-width:1.0;"/><polygon fill="#A80036" points="621.85,124.0569,625.85,115.0569,621.85,119.0569,617.85,115.0569,621.85,124.0569" style="stroke:#A80036;stroke-width:1.0;"/></g><!--link IS to AS--><g id="link_IS_AS"><path d="M688.93,261.2169 C731.9,284.2569 786.11,319.1769 821.85,363.2969 C832.03,375.8769 840.67,390.4069 847.95,405.3669 " fill="none" id="IS-to-AS" style="stroke:#A80036;stroke-width:1.0;"/><polygon fill="#A80036" points="850.16,410.0269,849.8887,400.1818,848.0042,405.5155,842.6705,403.631,850.16,410.0269" style="stroke:#A80036;stroke-width:1.0;"/><text fill="#000000" font-family="sans-serif" font-size="13" lengthAdjust="spacing" textLength="80" x="832.85" y="376.3638">ACCEPT_RTP</text></g><!--link IS to AS--><g id="link_IS_AS"><path d="M657.58,333.4569 C666.4,350.3469 677.07,366.7269 689.85,380.2969 C709.47,401.1369 722.73,394.8669 746.85,410.2969 C754.3,415.0669 761.85,420.1369 769.39,425.3669 " fill="none" id="IS-to-AS-1" style="stroke:#A80036;stroke-width:1.0;"/><polygon fill="#A80036" points="773.57,428.2969,768.473,419.8695,769.4678,425.4382,763.8991,426.433,773.57,428.2969" style="stroke:#A80036;stroke-width:1.0;"/><text fill="#000000" font-family="sans-serif" font-size="13" lengthAdjust="spacing" textLength="122" x="690.85" y="376.3638">USER_ACCEPT_RTP</text></g><!--link IS to RS--><g id="link_IS_RS"><path d="M554.76,310.5569 C534.27,340.0869 514.37,374.9569 503.85,410.2969 C477.33,499.3169 456.21,539.5469 503.85,619.2969 C540.86,681.2669 585.1,658.9169 646.85,696.2969 C671.64,711.3069 698,728.6169 721.72,744.7369 " fill="none" id="IS-to-RS" style="stroke:#A80036;stroke-width:1.0;"/><polygon fill="#A80036" points="726.12,747.7269,720.9364,739.3525,721.9886,744.9106,716.4304,745.9628,726.12,747.7269" style="stroke:#A80036;stroke-width:1.0;"/><text fill="#000000" font-family="sans-serif" font-size="13" lengthAdjust="spacing" textLength="73" x="504.85" y="519.3638">REJECT_RTP</text></g><!--link IS to RS--><g id="link_IS_RS"><path d="M603.21,333.6969 C592.04,428.3269 590.67,567.9269 655.85,666.2969 C674.97,695.1569 701.59,722.1369 726.74,744.1769 " fill="none" id="IS-to-RS-1" style="stroke:#A80036;stroke-width:1.0;"/><polygon fill="#A80036" points="730.76,747.6669,726.5657,738.7558,726.9768,744.3977,721.335,744.8088,730.76,747.6669" style="stroke:#A80036;stroke-width:1.0;"/><text fill="#000000" font-family="sans-serif" font-size="13" lengthAdjust="spacing" textLength="115" x="629.85" y="519.3638">USER_REJECT_RTP</text></g><!--link IS to PAID--><g id="link_IS_PAID"><path d="M689.06,238.4569 C780.46,254.3069 940.29,297.4769 1007.85,410.2969 C1078.1,527.6269 1030.54,702.5269 1007.43,770.9169 " fill="none" id="IS-to-PAID" style="stroke:#A80036;stroke-width:1.0;"/><polygon fill="#A80036" points="1005.81,775.6569,1012.5032,768.4319,1007.4254,770.925,1004.9322,765.8472,1005.81,775.6569" style="stroke:#A80036;stroke-width:1.0;"/><text fill="#000000" font-family="sans-serif" font-size="13" lengthAdjust="spacing" textLength="54" x="1044.85" y="519.3638">PAY_RTP</text></g><!--link IS to CS--><g id="link_IS_CS"><path d="M554.7,260.7469 C498.56,290.5169 421.77,341.1969 383.85,410.2969 C336.81,495.9969 332.58,608.6169 337.88,690.7069 " fill="none" id="IS-to-CS" style="stroke:#A80036;stroke-width:1.0;"/><polygon fill="#A80036" points="338.24,696.0669,341.6131,686.8137,337.897,691.0787,333.632,687.3625,338.24,696.0669" style="stroke:#A80036;stroke-width:1.0;"/><text fill="#000000" font-family="sans-serif" font-size="13" lengthAdjust="spacing" textLength="82" x="384.85" y="519.3638">CANCEL_RTP</text></g><!--link IS to ES--><g id="link_IS_ES"><path d="M554.59,258.3069 C425.67,317.3969 148.42,467.1369 56.85,696.2969 C22.38,782.5569 6,827.5669 56.85,905.2969 C89.22,954.7869 145.23,985.4069 199.8,1004.2969 " fill="none" id="IS-to-ES" style="stroke:#A80036;stroke-width:1.0;"/><polygon fill="#A80036" points="204.74,1005.9769,197.5088,999.2903,200.0067,1004.3658,194.9311,1006.8637,204.74,1005.9769" style="stroke:#A80036;stroke-width:1.0;"/><text fill="#000000" font-family="sans-serif" font-size="13" lengthAdjust="spacing" textLength="116" x="76.85" y="662.3638">ERROR_SEND_RTP</text></g><!--link AS to RS--><g id="link_AS_RS"><path d="M829.1,619.5169 C825.22,629.4269 821.71,639.4569 818.85,649.2969 C810.08,679.4069 805.36,714.0769 802.82,742.5369 " fill="none" id="AS-to-RS" style="stroke:#A80036;stroke-width:1.0;"/><polygon fill="#A80036" points="802.37,747.7769,807.1261,739.1525,802.7982,742.7952,799.1555,738.4674,802.37,747.7769" style="stroke:#A80036;stroke-width:1.0;"/><text fill="#000000" font-family="sans-serif" font-size="13" lengthAdjust="spacing" textLength="115" x="819.85" y="662.3638">USER_REJECT_RTP</text></g><!--link AS to CS--><g id="link_AS_CS"><path d="M773.53,602.1169 C764.66,608.1669 755.7,613.9669 746.85,619.2969 C702.56,645.9269 653.67,671.2369 605.82,694.0169 " fill="none" id="AS-to-CS" style="stroke:#A80036;stroke-width:1.0;"/><polygon fill="#A80036" points="601.2,696.2169,611.0461,695.9831,605.7196,694.0783,607.6243,688.7518,601.2,696.2169" style="stroke:#A80036;stroke-width:1.0;"/><text fill="#000000" font-family="sans-serif" font-size="13" lengthAdjust="spacing" textLength="82" x="686.85" y="662.3638">CANCEL_RTP</text></g><!--link AS to PAID--><g id="link_AS_PAID"><path d="M927.45,619.4469 C931.71,629.5069 935.9,639.5769 939.85,649.2969 C956.92,691.3069 975.26,740.5469 986.39,770.9669 " fill="none" id="AS-to-PAID" style="stroke:#A80036;stroke-width:1.0;"/><polygon fill="#A80036" points="988.12,775.6769,988.7676,765.8493,986.3941,770.9842,981.2593,768.6107,988.12,775.6769" style="stroke:#A80036;stroke-width:1.0;"/><text fill="#000000" font-family="sans-serif" font-size="13" lengthAdjust="spacing" textLength="54" x="946.85" y="662.3638">PAY_RTP</text></g><!--link CS to ES--><g id="link_CS_ES"><path d="M351.85,905.4669 C351.85,930.0169 351.85,955.3269 351.85,976.9469 " fill="none" id="CS-to-ES" style="stroke:#A80036;stroke-width:1.0;"/><polygon fill="#A80036" points="351.85,982.0669,355.85,973.0669,351.85,977.0669,347.85,973.0669,351.85,982.0669" style="stroke:#A80036;stroke-width:1.0;"/><text fill="#000000" font-family="sans-serif" font-size="13" lengthAdjust="spacing" textLength="131" x="352.85" y="948.3638">ERROR_CANCEL_RTP</text></g><!--link PAID to *end*--><g id="link_PAID_*end*"><path d="M989.88,825.8869 C982.8,847.8769 970.36,880.6169 952.85,905.2969 C871.22,1020.3169 729.28,1121.4469 687.04,1150.1669 " fill="none" id="PAID-to-*end*" style="stroke:#A80036;stroke-width:1.0;"/><polygon fill="#A80036" points="682.83,1153.0169,692.5265,1151.2913,686.9726,1150.2171,688.0468,1144.6631,682.83,1153.0169" style="stroke:#A80036;stroke-width:1.0;"/></g><!--link RS to *end*--><g id="link_RS_*end*"><path d="M781.54,854.0169 C752.22,937.6269 696.34,1096.9969 679.66,1144.5669 " fill="none" id="RS-to-*end*" style="stroke:#A80036;stroke-width:1.0;"/><polygon fill="#A80036" points="677.91,1149.5569,684.6615,1142.3863,679.5637,1144.8383,677.1117,1139.7404,677.91,1149.5569" style="stroke:#A80036;stroke-width:1.0;"/></g><!--link ES to *end*--><g id="link_ES_*end*"><path d="M489.76,1088.3869 C557.52,1113.9769 630.93,1141.7069 660.91,1153.0369 " fill="none" id="ES-to-*end*" style="stroke:#A80036;stroke-width:1.0;"/><polygon fill="#A80036" points="665.67,1154.8269,658.673,1147.8956,660.9948,1153.054,655.8365,1155.3759,665.67,1154.8269" style="stroke:#A80036;stroke-width:1.0;"/></g><!--link CS to *end*--><g id="link_CS_*end*"><path d="M463.99,905.4369 C473.92,915.3669 483.67,925.4169 492.85,935.2969 C564.13,1012.0269 640.69,1112.5969 666.1,1146.5369 " fill="none" id="CS-to-*end*" style="stroke:#A80036;stroke-width:1.0;"/><polygon fill="#A80036" points="669.21,1150.6969,667.0264,1141.0931,666.2168,1146.6917,660.6182,1145.8822,669.21,1150.6969" style="stroke:#A80036;stroke-width:1.0;"/></g><!--SRC=[VLBBQiCm4BplLuWS2_c170f2teDBI8ti7aefGRYYE7MTOgcdqd-l7euUiL9VBCtkZ4OxKX_3HEQpag07FKh2kuQqMcX9ga6yp-8JGBdjffu6FOYHsEstacf3X29rItw0cCytCOwqmof1MZnqy1j4S9xFSow1kGHo_iYFXbQjG4OF3FU96krx-QNbMov8Sq7A63QvgQSM-J7WKO_Ba-nNUZpNu_Y0hA0NyAZ7nDJBSRmMP5T3SzVQPue1EnQEYyM6rkM2kHotHbxkNibsUszo0e0b7GVONCZE_imHNGDWahIu6Tvk6Pd35vXRs5j9OTUTJ7D5IIQJrgnlKsteSueoo_1tI66qS7mMtkubFTUHvLbmHFznHCjdqw9H21Fsf6pUcO1Fu5Rx9TIS4gA-HLlS91Jt0DXgJib5m95itRm5u6rOObookFm3]--></g></svg>