<svg xmlns="http://www.w3.org/2000/svg" xmlns:xlink="http://www.w3.org/1999/xlink" contentStyleType="text/css" data-diagram-type="SEQUENCE" height="738px" preserveAspectRatio="none" style="width:993px;height:738px;background:#FFFFFF;" version="1.1" viewBox="0 0 993 738" width="993px" zoomAndPan="magnify"><title>RTP Consumer &#8212; Message flow (GPD -&gt; RTP)</title><defs/><g><text fill="#000000" font-family="sans-serif" font-size="14" font-weight="bold" lengthAdjust="spacing" textLength="329.8408" x="332.6448" y="28.5352">RTP Consumer &#8212; Message flow (GPD -&gt; RTP)</text><g><title>rtp-consumer</title><rect fill="#FFFFFF" height="587.5" style="stroke:#181818;stroke-width:1;" width="10" x="215.1519" y="105.2871"/></g><g><title>mil-auth</title><rect fill="#FFFFFF" height="29.3105" style="stroke:#181818;stroke-width:1;" width="10" x="420.9575" y="258.8398"/></g><g><title>rtp-sender</title><rect fill="#FFFFFF" height="53.6211" style="stroke:#181818;stroke-width:1;" width="10" x="619.8823" y="317.4609"/></g><g><title>Dead-letter queue</title><rect fill="#FFFFFF" height="29.3105" style="stroke:#181818;stroke-width:1;" width="10" x="746.3008" y="473.9688"/></g><g><title>Dead-letter queue</title><rect fill="#FFFFFF" height="64.6211" style="stroke:#181818;stroke-width:1;" width="10" x="746.3008" y="583.8555"/></g><rect fill="none" height="523.1895" style="stroke:#000000;stroke-width:1.5;" width="976.1304" x="10" y="162.5977"/><rect fill="none" height="208.1289" style="stroke:#000000;stroke-width:1.5;" width="813.7983" x="20" y="332.4609"/><g><title>GPD EventHub</title><rect fill="#000000" fill-opacity="0.00000" height="628.8105" width="8" x="84.5591" y="73.9766"/><line style="stroke:#181818;stroke-width:0.5;stroke-dasharray:5,5;" x1="88" x2="88" y1="73.9766" y2="702.7871"/></g><g><title>rtp-consumer</title><rect fill="#000000" fill-opacity="0.00000" height="628.8105" width="8" x="216.1519" y="73.9766"/><line style="stroke:#181818;stroke-width:0.5;stroke-dasharray:5,5;" x1="219.772" x2="219.772" y1="73.9766" y2="702.7871"/></g><g><title>mil-auth</title><rect fill="#000000" fill-opacity="0.00000" height="628.8105" width="8" x="421.9575" y="73.9766"/><line style="stroke:#181818;stroke-width:0.5;stroke-dasharray:5,5;" x1="425.1528" x2="425.1528" y1="73.9766" y2="702.7871"/></g><g><title>rtp-sender</title><rect fill="#000000" fill-opacity="0.00000" height="628.8105" width="8" x="620.8823" y="73.9766"/><line style="stroke:#181818;stroke-width:0.5;stroke-dasharray:5,5;" x1="623.9614" x2="623.9614" y1="73.9766" y2="702.7871"/></g><g><title>Dead-letter queue</title><rect fill="#000000" fill-opacity="0.00000" height="628.8105" width="8" x="747.3008" y="73.9766"/><line style="stroke:#181818;stroke-width:0.5;stroke-dasharray:5,5;" x1="750.8032" x2="750.8032" y1="73.9766" y2="702.7871"/></g><g class="participant participant-head" data-participant="EH"><path d="M35,47.4883 L142.1182,47.4883 C147.1182,47.4883 147.1182,60.7324 147.1182,60.7324 C147.1182,60.7324 147.1182,73.9766 142.1182,73.9766 L35,73.9766 C30,73.9766 30,60.7324 30,60.7324 C30,60.7324 30,47.4883 35,47.4883" fill="#E2E2F0" style="stroke:#181818;stroke-width:0.5;"/><path d="M142.1182,47.4883 C137.1182,47.4883 137.1182,60.7324 137.1182,60.7324 C137.1182,73.9766 142.1182,73.9766 142.1182,73.9766" fill="none" style="stroke:#181818;stroke-width:0.5;"/><text fill="#000000" font-family="sans-serif" font-size="14" lengthAdjust="spacing" textLength="97.1182" x="35" y="66.0234">GPD EventHub</text></g><g class="participant participant-tail" data-participant="EH"><path d="M35,701.7871 L142.1182,701.7871 C147.1182,701.7871 147.1182,715.0313 147.1182,715.0313 C147.1182,715.0313 147.1182,728.2754 142.1182,728.2754 L35,728.2754 C30,728.2754 30,715.0313 30,715.0313 C30,715.0313 30,701.7871 35,701.7871" fill="#E2E2F0" style="stroke:#181818;stroke-width:0.5;"/><path d="M142.1182,701.7871 C137.1182,701.7871 137.1182,715.0313 137.1182,715.0313 C137.1182,728.2754 142.1182,728.2754 142.1182,728.2754" fill="none" style="stroke:#181818;stroke-width:0.5;"/><text fill="#000000" font-family="sans-serif" font-size="14" lengthAdjust="spacing" textLength="97.1182" x="35" y="720.3223">GPD EventHub</text></g><g class="participant participant-head" data-participant="C"><rect fill="#E2E2F0" height="30.4883" rx="2.5" ry="2.5" style="stroke:#181818;stroke-width:0.5;" width="108.7598" x="165.772" y="42.4883"/><text fill="#000000" font-family="sans-serif" font-size="14" lengthAdjust="spacing" textLength="94.7598" x="172.772" y="63.0234">rtp-consumer</text></g><g class="participant participant-tail" data-participant="C"><rect fill="#E2E2F0" height="30.4883" rx="2.5" ry="2.5" style="stroke:#181818;stroke-width:0.5;" width="108.7598" x="165.772" y="701.7871"/><text fill="#000000" font-family="sans-serif" font-size="14" lengthAdjust="spacing" textLength="94.7598" x="172.772" y="722.3223">rtp-consumer</text></g><g class="participant participant-head" data-participant="MA"><rect fill="#E2E2F0" height="30.4883" rx="2.5" ry="2.5" style="stroke:#181818;stroke-width:0.5;" width="73.6094" x="389.1528" y="42.4883"/><text fill="#000000" font-family="sans-serif" font-size="14" lengthAdjust="spacing" textLength="59.6094" x="396.1528" y="63.0234">mil-auth</text></g><g class="participant participant-tail" data-participant="MA"><rect fill="#E2E2F0" height="30.4883" rx="2.5" ry="2.5" style="stroke:#181818;stroke-width:0.5;" width="73.6094" x="389.1528" y="701.7871"/><text fill="#000000" font-family="sans-serif" font-size="14" lengthAdjust="spacing" textLength="59.6094" x="396.1528" y="722.3223">mil-auth</text></g><g class="participant participant-head" data-participant="S"><rect fill="#E2E2F0" height="30.4883" rx="2.5" ry="2.5" style="stroke:#181818;stroke-width:0.5;" width="87.8418" x="580.9614" y="42.4883"/><text fill="#000000" font-family="sans-serif" font-size="14" lengthAdjust="spacing" textLength="73.8418" x="587.9614" y="63.0234">rtp-sender</text></g><g class="participant participant-tail" data-participant="S"><rect fill="#E2E2F0" height="30.4883" rx="2.5" ry="2.5" style="stroke:#181818;stroke-width:0.5;" width="87.8418" x="580.9614" y="701.7871"/><text fill="#000000" font-family="sans-serif" font-size="14" lengthAdjust="spacing" textLength="73.8418" x="587.9614" y="722.3223">rtp-sender</text></g><g class="participant participant-head" data-participant="DLQ"><path d="M683.8032,47.4883 L818.7983,47.4883 C823.7983,47.4883 823.7983,60.7324 823.7983,60.7324 C823.7983,60.7324 823.7983,73.9766 818.7983,73.9766 L683.8032,73.9766 C678.8032,73.9766 678.8032,60.7324 678.8032,60.7324 C678.8032,60.7324 678.8032,47.4883 683.8032,47.4883" fill="#E2E2F0" style="stroke:#181818;stroke-width:0.5;"/><path d="M818.7983,47.4883 C813.7983,47.4883 813.7983,60.7324 813.7983,60.7324 C813.7983,73.9766 818.7983,73.9766 818.7983,73.9766" fill="none" style="stroke:#181818;stroke-width:0.5;"/><text fill="#000000" font-family="sans-serif" font-size="14" lengthAdjust="spacing" textLength="124.9951" x="683.8032" y="66.0234">Dead-letter queue</text></g><g class="participant participant-tail" data-participant="DLQ"><path d="M683.8032,701.7871 L818.7983,701.7871 C823.7983,701.7871 823.7983,715.0313 823.7983,715.0313 C823.7983,715.0313 823.7983,728.2754 818.7983,728.2754 L683.8032,728.2754 C678.8032,728.2754 678.8032,715.0313 678.8032,715.0313 C678.8032,715.0313 678.8032,701.7871 683.8032,701.7871" fill="#E2E2F0" style="stroke:#181818;stroke-width:0.5;"/><path d="M818.7983,701.7871 C813.7983,701.7871 813.7983,715.0313 813.7983,715.0313 C813.7983,728.2754 818.7983,728.2754 818.7983,728.2754" fill="none" style="stroke:#181818;stroke-width:0.5;"/><text fill="#000000" font-family="sans-serif" font-size="14" lengthAdjust="spacing" textLength="124.9951" x="683.8032" y="720.3223">Dead-letter queue</text></g><g><title>rtp-consumer</title><rect fill="#FFFFFF" height="587.5" style="stroke:#181818;stroke-width:1;" width="10" x="215.1519" y="105.2871"/></g><g><title>mil-auth</title><rect fill="#FFFFFF" height="29.3105" style="stroke:#181818;stroke-width:1;" width="10" x="420.9575" y="258.8398"/></g><g><title>rtp-sender</title><rect fill="#FFFFFF" height="53.6211" style="stroke:#181818;stroke-width:1;" width="10" x="619.8823" y="317.4609"/></g><g><title>Dead-letter queue</title><rect fill="#FFFFFF" height="29.3105" style="stroke:#181818;stroke-width:1;" width="10" x="746.3008" y="473.9688"/></g><g><title>Dead-letter queue</title><rect fill="#FFFFFF" height="64.6211" style="stroke:#181818;stroke-width:1;" width="10" x="746.3008" y="583.8555"/></g><g class="message" data-participant-1="EH" data-participant-2="C"><polygon fill="#181818" points="203.1519,101.2871,213.1519,105.2871,203.1519,109.2871,207.1519,105.2871" style="stroke:#181818;stroke-width:1;"/><line style="stroke:#181818;stroke-width:1;" x1="88.5591" x2="209.1519" y1="105.2871" y2="105.2871"/><text fill="#000000" font-family="sans-serif" font-size="13" lengthAdjust="spacing" textLength="107.5928" x="95.5591" y="100.5449">Message payload</text></g><g class="message" data-participant-1="C" data-participant-2="C"><line style="stroke:#181818;stroke-width:1;" x1="225.1519" x2="267.1519" y1="134.5977" y2="134.5977"/><line style="stroke:#181818;stroke-width:1;" x1="267.1519" x2="267.1519" y1="134.5977" y2="147.5977"/><line style="stroke:#181818;stroke-width:1;" x1="226.1519" x2="267.1519" y1="147.5977" y2="147.5977"/><polygon fill="#181818" points="236.1519,143.5977,226.1519,147.5977,236.1519,151.5977,232.1519,147.5977" style="stroke:#181818;stroke-width:1;"/><text fill="#000000" font-family="sans-serif" font-size="13" lengthAdjust="spacing" textLength="104.0317" x="232.1519" y="129.8555">Validate payload</text></g><path d="M10,162.5977 L72.1387,162.5977 L72.1387,169.9082 L62.1387,179.9082 L10,179.9082 L10,162.5977" fill="#EEEEEE" style="stroke:#000000;stroke-width:1.5;"/><rect fill="none" height="523.1895" style="stroke:#000000;stroke-width:1.5;" width="976.1304" x="10" y="162.5977"/><text fill="#000000" font-family="sans-serif" font-size="13" font-weight="bold" lengthAdjust="spacing" textLength="17.1387" x="25" y="176.166">alt</text><text fill="#000000" font-family="sans-serif" font-size="11" font-weight="bold" lengthAdjust="spacing" textLength="85.9912" x="87.1387" y="175.2324">[Validation OK]</text><g class="message" data-participant-1="C" data-participant-2="C"><line style="stroke:#181818;stroke-width:1;" x1="225.1519" x2="267.1519" y1="216.5293" y2="216.5293"/><line style="stroke:#181818;stroke-width:1;" x1="267.1519" x2="267.1519" y1="216.5293" y2="229.5293"/><line style="stroke:#181818;stroke-width:1;" x1="226.1519" x2="267.1519" y1="229.5293" y2="229.5293"/><polygon fill="#181818" points="236.1519,225.5293,226.1519,229.5293,236.1519,233.5293,232.1519,229.5293" style="stroke:#181818;stroke-width:1;"/><text fill="#000000" font-family="sans-serif" font-size="13" lengthAdjust="spacing" textLength="171.8057" x="232.1519" y="196.4766">Generate Idempotency-Key</text><text fill="#000000" font-family="sans-serif" font-size="13" lengthAdjust="spacing" textLength="83.5923" x="232.1519" y="211.7871">from payload</text></g><g class="message" data-participant-1="C" data-participant-2="MA"><polygon fill="#181818" points="408.9575,254.8398,418.9575,258.8398,408.9575,262.8398,412.9575,258.8398" style="stroke:#181818;stroke-width:1;"/><line style="stroke:#181818;stroke-width:1;" x1="225.1519" x2="414.9575" y1="258.8398" y2="258.8398"/><text fill="#000000" font-family="sans-serif" font-size="13" lengthAdjust="spacing" textLength="79.1934" x="232.1519" y="254.0977">POST /token</text></g><g class="message" data-participant-1="MA" data-participant-2="C"><polygon fill="#181818" points="236.1519,284.1504,226.1519,288.1504,236.1519,292.1504,232.1519,288.1504" style="stroke:#181818;stroke-width:1;"/><line style="stroke:#181818;stroke-width:1;stroke-dasharray:2,2;" x1="230.1519" x2="424.9575" y1="288.1504" y2="288.1504"/><text fill="#000000" font-family="sans-serif" font-size="13" lengthAdjust="spacing" textLength="95.6846" x="242.1519" y="283.4082">200 OK (token)</text></g><g class="message" data-participant-1="C" data-participant-2="S"><polygon fill="#181818" points="607.8823,313.4609,617.8823,317.4609,607.8823,321.4609,611.8823,317.4609" style="stroke:#181818;stroke-width:1;"/><line style="stroke:#181818;stroke-width:1;" x1="225.1519" x2="613.8823" y1="317.4609" y2="317.4609"/><text fill="#000000" font-family="sans-serif" font-size="13" lengthAdjust="spacing" textLength="375.7305" x="232.1519" y="312.7188">POST /gpd/message (payload + token + Idempotency-Key)</text></g><path d="M20,332.4609 L82.1387,332.4609 L82.1387,339.7715 L72.1387,349.7715 L20,349.7715 L20,332.4609" fill="#EEEEEE" style="stroke:#000000;stroke-width:1.5;"/><rect fill="none" height="208.1289" style="stroke:#000000;stroke-width:1.5;" width="813.7983" x="20" y="332.4609"/><text fill="#000000" font-family="sans-serif" font-size="13" font-weight="bold" lengthAdjust="spacing" textLength="17.1387" x="35" y="346.0293">alt</text><text fill="#000000" font-family="sans-serif" font-size="11" font-weight="bold" lengthAdjust="spacing" textLength="58.3193" x="97.1387" y="345.0957">[POST OK]</text><g class="message" data-participant-1="S" data-participant-2="C"><polygon fill="#181818" points="236.1519,367.082,226.1519,371.082,236.1519,375.082,232.1519,371.082" style="stroke:#181818;stroke-width:1;"/><line style="stroke:#181818;stroke-width:1;stroke-dasharray:2,2;" x1="230.1519" x2="623.8823" y1="371.082" y2="371.082"/><text fill="#000000" font-family="sans-serif" font-size="13" lengthAdjust="spacing" textLength="83.5542" x="242.1519" y="366.3398">200 OK (RTP)</text></g><g class="message" data-participant-1="C" data-participant-2="EH"><polygon fill="#181818" points="99.5591,396.3926,89.5591,400.3926,99.5591,404.3926,95.5591,400.3926" style="stroke:#181818;stroke-width:1;"/><line style="stroke:#181818;stroke-width:1;stroke-dasharray:2,2;" x1="93.5591" x2="214.1519" y1="400.3926" y2="400.3926"/><text fill="#000000" font-family="sans-serif" font-size="13" lengthAdjust="spacing" textLength="23.2261" x="105.5591" y="395.6504">Ack</text></g><line style="stroke:#000000;stroke-width:1;stroke-dasharray:2,2;" x1="20" x2="833.7983" y1="409.3926" y2="409.3926"/><text fill="#000000" font-family="sans-serif" font-size="11" font-weight="bold" lengthAdjust="spacing" textLength="196.4531" x="25" y="420.0273">[POST failed (4xx / 5xx / timeout)]</text><g class="message" data-participant-1="S" data-participant-2="C"><polygon fill="#181818" points="236.1519,440.6582,226.1519,444.6582,236.1519,448.6582,232.1519,444.6582" style="stroke:#181818;stroke-width:1;"/><line style="stroke:#181818;stroke-width:1;stroke-dasharray:2,2;" x1="230.1519" x2="623.8823" y1="444.6582" y2="444.6582"/><text fill="#000000" font-family="sans-serif" font-size="13" lengthAdjust="spacing" textLength="94.9482" x="242.1519" y="439.916">Error / timeout</text></g><g class="message" data-participant-1="C" data-participant-2="DLQ"><polygon fill="#181818" points="734.3008,469.9688,744.3008,473.9688,734.3008,477.9688,738.3008,473.9688" style="stroke:#181818;stroke-width:1;"/><line style="stroke:#181818;stroke-width:1;" x1="225.1519" x2="740.3008" y1="473.9688" y2="473.9688"/><text fill="#000000" font-family="sans-serif" font-size="13" lengthAdjust="spacing" textLength="151.5059" x="232.1519" y="469.2266">Enqueue failure payload</text></g><g class="message" data-participant-1="DLQ" data-participant-2="C"><polygon fill="#181818" points="236.1519,499.2793,226.1519,503.2793,236.1519,507.2793,232.1519,503.2793" style="stroke:#181818;stroke-width:1;"/><line style="stroke:#181818;stroke-width:1;stroke-dasharray:2,2;" x1="230.1519" x2="750.3008" y1="503.2793" y2="503.2793"/><text fill="#000000" font-family="sans-serif" font-size="13" lengthAdjust="spacing" textLength="62.5625" x="242.1519" y="498.5371">Ack (DLQ)</text></g><g class="message" data-participant-1="C" data-participant-2="EH"><polygon fill="#181818" points="99.5591,528.5898,89.5591,532.5898,99.5591,536.5898,95.5591,532.5898" style="stroke:#181818;stroke-width:1;"/><line style="stroke:#181818;stroke-width:1;stroke-dasharray:2,2;" x1="93.5591" x2="214.1519" y1="532.5898" y2="532.5898"/><text fill="#000000" font-family="sans-serif" font-size="13" lengthAdjust="spacing" textLength="23.2261" x="105.5591" y="527.8477">Ack</text></g><line style="stroke:#000000;stroke-width:1;stroke-dasharray:2,2;" x1="10" x2="986.1304" y1="548.5898" y2="548.5898"/><text fill="#000000" font-family="sans-serif" font-size="11" font-weight="bold" lengthAdjust="spacing" textLength="101.041" x="15" y="559.2246">[Validation failed]</text><g class="message" data-participant-1="C" data-participant-2="DLQ"><polygon fill="#181818" points="734.3008,579.8555,744.3008,583.8555,734.3008,587.8555,738.3008,583.8555" style="stroke:#181818;stroke-width:1;"/><line style="stroke:#181818;stroke-width:1;" x1="225.1519" x2="740.3008" y1="583.8555" y2="583.8555"/><text fill="#000000" font-family="sans-serif" font-size="13" lengthAdjust="spacing" textLength="152.8325" x="232.1519" y="579.1133">Enqueue invalid payload</text></g><path d="M761,596.8555 L761,621.8555 L976,621.8555 L976,606.8555 L966,596.8555 L761,596.8555" fill="#FEFFDD" style="stroke:#181818;stroke-width:0.5;"/><path d="M966,596.8555 L966,606.8555 L976,606.8555 L966,596.8555" fill="#FEFFDD" style="stroke:#181818;stroke-width:0.5;"/><text fill="#000000" font-family="sans-serif" font-size="13" lengthAdjust="spacing" textLength="194.1304" x="767" y="614.4238">Malformed or invalid message.</text><g class="message" data-participant-1="DLQ" data-participant-2="C"><polygon fill="#181818" points="236.1519,644.4766,226.1519,648.4766,236.1519,652.4766,232.1519,648.4766" style="stroke:#181818;stroke-width:1;"/><line style="stroke:#181818;stroke-width:1;stroke-dasharray:2,2;" x1="230.1519" x2="750.3008" y1="648.4766" y2="648.4766"/><text fill="#000000" font-family="sans-serif" font-size="13" lengthAdjust="spacing" textLength="62.5625" x="242.1519" y="643.7344">Ack (DLQ)</text></g><g class="message" data-participant-1="C" data-participant-2="EH"><polygon fill="#181818" points="99.5591,673.7871,89.5591,677.7871,99.5591,681.7871,95.5591,677.7871" style="stroke:#181818;stroke-width:1;"/><line style="stroke:#181818;stroke-width:1;stroke-dasharray:2,2;" x1="93.5591" x2="214.1519" y1="677.7871" y2="677.7871"/><text fill="#000000" font-family="sans-serif" font-size="13" lengthAdjust="spacing" textLength="23.2261" x="105.5591" y="673.0449">Ack</text></g><!--SRC=[TLBDRjim3BxhAOYS71HUYc6zz50WS89cQ8DcSz7JBffDfq9boPNbhBdj8VQ4UvAHYkLvSPU30v0Vln-ANdcDyFLn1varRLUZWzy_Vy4MsrRk4IfjVq1okrj1UiEekH2l7NO8Cwwj3sZyfli-0zd2UYCQwRmgL2EDXvdpJLhqd06G_TklbKvbvvz3RxkS3hTeoduqZwehb6MgqNlo6KgXlRh_8iHwmnupk1xCD_AehIo5BBmwI8_aG6GHz2IrAhaOKK9g7wlA6dYu4m9WmD-YGSVupoNMZVLeYcDwXyTlfdAs7bW0uj1sILExX_mH5jw-eA7wO8JY0WFIdlpZvINfGHA0S-gLECP6odnWt3VbekvZ9hqsN42Of_ypZ_EnTivqd3KmKKgWNpwn4XwRMoChUIXa0KlhlePbyS9ig5iyqLLIQImX-VJs1Wku2b-lQhITdvy9hPspxczxgXN5RlXzUS2SZe0rEeUZbO_IyIbmWKUY4hc4X0gJFE5kteb4YGmTH8WrkeXJEF6kAMKE31oPEhDaw3d0gVsp1riDDhTILzRLj3BQHUJe7_R3oKUO5FzFDCrpbYPa6Q6oFm00]--></g></svg>