<?xml version="1.0" encoding="us-ascii" standalone="no"?><svg xmlns="http://www.w3.org/2000/svg" xmlns:xlink="http://www.w3.org/1999/xlink" contentStyleType="text/css" height="1763.5417px" preserveAspectRatio="none" style="width:898px;height:1763px;" version="1.1" viewBox="0 0 898 1763" width="898.9583px" zoomAndPan="magnify"><defs><linearGradient id="go61fks99c48g0" x1="50%" x2="50%" y1="0%" y2="100%"><stop offset="0%" stop-color="#FFFFFF"/><stop offset="100%" stop-color="#FFFFFF"/></linearGradient><filter height="300%" id="fo61fks99c48g" width="300%" x="-1" y="-1"><feGaussianBlur result="blurOut" stdDeviation="2.0833333333333335"/><feColorMatrix in="blurOut" result="blurOut2" type="matrix" values="0 0 0 0 0 0 0 0 0 0 0 0 0 0 0 0 0 0 .4 0"/><feOffset dx="4.166666666666667" dy="4.166666666666667" in="blurOut2" result="blurOut3"/><feBlend in="SourceGraphic" in2="blurOut3" mode="normal"/></filter><linearGradient id="go61fks99c48g1" x1="50%" x2="50%" y1="0%" y2="100%"><stop offset="0%" stop-color="#4DABF5"/><stop offset="100%" stop-color="#2196F3"/></linearGradient><linearGradient id="go61fks99c48g2" x1="50%" x2="50%" y1="0%" y2="100%"><stop offset="0%" stop-color="#B052C0"/><stop offset="100%" stop-color="#9C27B0"/></linearGradient></defs><g><rect fill="url(#go61fks99c48g0)" height="57.5846" id="_title" rx="4.1667" ry="4.1667" style="stroke:#CCCCCC;stroke-width:1.0416666666666667;" width="667.7083" x="116.9271" y="20.8333"/><text fill="#2196F3" font-family="Verdana" font-size="20.8333" font-weight="bold" lengthAdjust="spacing" textLength="634.375" x="133.5938" y="56.838">RTP Notice Status API: GET /noticeNumber/{payeeId}</text><rect fill="#FFFFFF" filter="url(#fo61fks99c48g)" height="1400.944" style="stroke:#CCCCCC;stroke-width:1.0416666666666667;" width="10.4167" x="466.6667" y="243.9779"/><rect fill="#FFFFFF" filter="url(#fo61fks99c48g)" height="49.9674" style="stroke:#CCCCCC;stroke-width:1.0416666666666667;" width="10.4167" x="816.6667" y="510.4167"/><rect fill="#FFFFFF" filter="url(#fo61fks99c48g)" height="49.9674" style="stroke:#CCCCCC;stroke-width:1.0416666666666667;" width="10.4167" x="816.6667" y="853.9063"/><rect fill="#98FB98" filter="url(#fo61fks99c48g)" height="1226.0742" rx="4.1667" ry="4.1667" style="stroke:#2196F3;stroke-width:1.0416666666666667;" width="860.9375" x="20.8333" y="411.556"/><path d="M20.8333,774.8047 L881.7708,774.8047 L881.7708,1061.0026 A4.1667,4.1667 0 0 1 877.6042,1065.1693 L25,1065.1693 A4.1667,4.1667 0 0 1 20.8333,1061.0026 L20.8333,774.8047 " fill="#FFFFE0" style="stroke:none;stroke-width:1.0416666666666667;"/><path d="M20.8333,1065.1693 L881.7708,1065.1693 L881.7708,1633.4635 A4.1667,4.1667 0 0 1 877.6042,1637.6302 L25,1637.6302 A4.1667,4.1667 0 0 1 20.8333,1633.4635 L20.8333,1065.1693 " fill="#8B0000" style="stroke:none;stroke-width:1.0416666666666667;"/><rect fill="url(#go61fks99c48g0)" filter="url(#fo61fks99c48g)" height="295.5404" rx="4.1667" ry="4.1667" style="stroke:#2196F3;stroke-width:1.0416666666666667;" width="551.5625" x="31.25" y="1109.9284"/><rect fill="url(#go61fks99c48g0)" filter="url(#fo61fks99c48g)" height="210.2865" rx="4.1667" ry="4.1667" style="stroke:#2196F3;stroke-width:1.0416666666666667;" width="775" x="31.25" y="1420.0521"/><line style="stroke:#CCCCCC;stroke-width:1.0416666666666667;stroke-dasharray:5.0,5.0;" x1="114.5833" x2="114.5833" y1="191.9271" y2="1655.3385"/><line style="stroke:#CCCCCC;stroke-width:1.0416666666666667;stroke-dasharray:5.0,5.0;" x1="471.3542" x2="471.3542" y1="191.9271" y2="1655.3385"/><line style="stroke:#CCCCCC;stroke-width:1.0416666666666667;stroke-dasharray:5.0,5.0;" x1="821.3542" x2="821.3542" y1="191.9271" y2="1655.3385"/><text fill="#222222" font-family="Verdana" font-size="12.5" font-weight="bold" lengthAdjust="spacing" textLength="118.75" x="52.0833" y="178.5624">Service Provider</text><ellipse cx="114.5833" cy="99.2513" fill="url(#go61fks99c48g1)" filter="url(#fo61fks99c48g)" rx="8.3333" ry="8.3333" style="stroke:#2196F3;stroke-width:1.0416666666666667;"/><path d="M114.5833,107.5846 L114.5833,135.7096 M101.0417,115.918 L128.125,115.918 M114.5833,135.7096 L101.0417,151.3346 M114.5833,135.7096 L128.125,151.3346 " fill="none" filter="url(#fo61fks99c48g)" style="stroke:#2196F3;stroke-width:1.0416666666666667;"/><text fill="#222222" font-family="Verdana" font-size="12.5" font-weight="bold" lengthAdjust="spacing" textLength="118.75" x="52.0833" y="1676.3163">Service Provider</text><ellipse cx="114.5833" cy="1699.056" fill="url(#go61fks99c48g1)" filter="url(#fo61fks99c48g)" rx="8.3333" ry="8.3333" style="stroke:#2196F3;stroke-width:1.0416666666666667;"/><path d="M114.5833,1707.3893 L114.5833,1735.5143 M101.0417,1715.7227 L128.125,1715.7227 M114.5833,1735.5143 L101.0417,1751.1393 M114.5833,1735.5143 L128.125,1751.1393 " fill="none" filter="url(#fo61fks99c48g)" style="stroke:#2196F3;stroke-width:1.0416666666666667;"/><rect fill="url(#go61fks99c48g1)" filter="url(#fo61fks99c48g)" height="49.9674" rx="4.1667" ry="4.1667" style="stroke:#2196F3;stroke-width:1.0416666666666667;" width="114.5833" x="413.0208" y="137.793"/><text fill="#FFFFFF" font-family="Verdana" font-size="12.5" font-weight="bold" lengthAdjust="spacing" textLength="79.1667" x="430.7292" y="167.1041">rtp-sender</text><rect fill="url(#go61fks99c48g1)" filter="url(#fo61fks99c48g)" height="49.9674" rx="4.1667" ry="4.1667" style="stroke:#2196F3;stroke-width:1.0416666666666667;" width="114.5833" x="413.0208" y="1654.2969"/><text fill="#FFFFFF" font-family="Verdana" font-size="12.5" font-weight="bold" lengthAdjust="spacing" textLength="79.1667" x="430.7292" y="1683.608">rtp-sender</text><text fill="#222222" font-family="Verdana" font-size="12.5" font-weight="bold" lengthAdjust="spacing" textLength="71.875" x="782.8125" y="178.5624">Database</text><path d="M803.125,119.043 C803.125,108.6263 821.875,108.6263 821.875,108.6263 C821.875,108.6263 840.625,108.6263 840.625,119.043 L840.625,146.1263 C840.625,156.543 821.875,156.543 821.875,156.543 C821.875,156.543 803.125,156.543 803.125,146.1263 L803.125,119.043 " fill="url(#go61fks99c48g1)" filter="url(#fo61fks99c48g)" style="stroke:#2196F3;stroke-width:1.5625;"/><path d="M803.125,119.043 C803.125,129.4596 821.875,129.4596 821.875,129.4596 C821.875,129.4596 840.625,129.4596 840.625,119.043 " fill="none" style="stroke:#2196F3;stroke-width:1.5625;"/><text fill="#222222" font-family="Verdana" font-size="12.5" font-weight="bold" lengthAdjust="spacing" textLength="71.875" x="782.8125" y="1676.3163">Database</text><path d="M803.125,1700.0977 C803.125,1689.681 821.875,1689.681 821.875,1689.681 C821.875,1689.681 840.625,1689.681 840.625,1700.0977 L840.625,1727.181 C840.625,1737.5977 821.875,1737.5977 821.875,1737.5977 C821.875,1737.5977 803.125,1737.5977 803.125,1727.181 L803.125,1700.0977 " fill="url(#go61fks99c48g1)" filter="url(#fo61fks99c48g)" style="stroke:#2196F3;stroke-width:1.5625;"/><path d="M803.125,1700.0977 C803.125,1710.5143 821.875,1710.5143 821.875,1710.5143 C821.875,1710.5143 840.625,1710.5143 840.625,1700.0977 " fill="none" style="stroke:#2196F3;stroke-width:1.5625;"/><rect fill="#FFFFFF" filter="url(#fo61fks99c48g)" height="1400.944" style="stroke:#CCCCCC;stroke-width:1.0416666666666667;" width="10.4167" x="466.6667" y="243.9779"/><rect fill="#FFFFFF" filter="url(#fo61fks99c48g)" height="49.9674" style="stroke:#CCCCCC;stroke-width:1.0416666666666667;" width="10.4167" x="816.6667" y="510.4167"/><rect fill="#FFFFFF" filter="url(#fo61fks99c48g)" height="49.9674" style="stroke:#CCCCCC;stroke-width:1.0416666666666667;" width="10.4167" x="816.6667" y="853.9063"/><polygon fill="#2196F3" points="454.1667,239.8112,464.5833,243.9779,454.1667,248.1445,458.3333,243.9779" style="stroke:#2196F3;stroke-width:1.0416666666666667;"/><line style="stroke:#2196F3;stroke-width:3.125;" x1="114.5833" x2="460.4167" y1="243.9779" y2="243.9779"/><text fill="#222222" font-family="Verdana" font-size="12.5" font-weight="bold" lengthAdjust="spacing" textLength="18.75" x="132.2917" y="228.5299">[1]</text><text fill="#222222" font-family="Verdana" font-size="12.5" font-weight="bold" lengthAdjust="spacing" textLength="27.0833" x="176.0417" y="228.5299">GET</text><text fill="#222222" font-family="Verdana" font-size="12.5" lengthAdjust="spacing" textLength="167.7083" x="207.2917" y="228.5299">/noticeNumber/{payeeId}</text><path d="M482.2917,261.6862 L482.2917,327.3112 A4.1667,4.1667 0 0 0 486.4583,331.4779 L847.9167,331.4779 A4.1667,4.1667 0 0 0 852.0833,327.3112 L852.0833,267.9362 L841.6667,257.5195 L486.4583,257.5195 A4.1667,4.1667 0 0 0 482.2917,261.6862 " fill="url(#go61fks99c48g2)" filter="url(#fo61fks99c48g)" style="stroke:#9C27B0;stroke-width:1.0416666666666667;"/><path d="M841.6667,257.5195 L841.6667,265.8529 A2.0833,2.0833 0 0 0 843.75,267.9362 L852.0833,267.9362 L841.6667,257.5195 " fill="url(#go61fks99c48g2)" style="stroke:#9C27B0;stroke-width:1.0416666666666667;"/><text fill="#FFFFFF" font-family="Verdana" font-size="12.5" font-weight="bold" lengthAdjust="spacing" textLength="80.2083" x="498.9583" y="284.7473">Operation:</text><text fill="#FFFFFF" font-family="Verdana" font-size="12.5" lengthAdjust="spacing" textLength="118.75" x="583.3333" y="284.7473">`getNoticeStatus`</text><text fill="#FFFFFF" font-family="Verdana" font-size="12.5" lengthAdjust="spacing" textLength="327.0833" x="498.9583" y="299.2981">The SP queries delivery status for a noticeNumber</text><text fill="#FFFFFF" font-family="Verdana" font-size="12.5" lengthAdjust="spacing" textLength="123.9583" x="498.9583" y="313.8489">filtered by payeeId.</text><line style="stroke:#2196F3;stroke-width:3.125;" x1="477.0833" x2="520.8333" y1="382.3893" y2="382.3893"/><line style="stroke:#2196F3;stroke-width:3.125;" x1="520.8333" x2="520.8333" y1="382.3893" y2="395.931"/><line style="stroke:#2196F3;stroke-width:3.125;" x1="478.125" x2="520.8333" y1="395.931" y2="395.931"/><polygon fill="#2196F3" points="488.5417,391.7643,478.125,395.931,488.5417,400.0977,484.375,395.931" style="stroke:#2196F3;stroke-width:1.0416666666666667;"/><text fill="#222222" font-family="Verdana" font-size="12.5" font-weight="bold" lengthAdjust="spacing" textLength="18.75" x="494.7917" y="366.9413">[2]</text><text fill="#222222" font-family="Verdana" font-size="12.5" lengthAdjust="spacing" textLength="153.125" x="538.5417" y="366.9413">Validate Security Token</text><path d="M25,411.556 L108.3333,411.556 L108.3333,438.6068 L97.9167,449.0234 L20.8333,449.0234 L20.8333,415.7227 A4.1667,4.1667 0 0 1 25,411.556 " fill="#FFFFFF" style="stroke:#666666;stroke-width:1.0416666666666667;"/><rect fill="none" height="1226.0742" rx="4.1667" ry="4.1667" style="stroke:#2196F3;stroke-width:1.0416666666666667;" width="860.9375" x="20.8333" y="411.556"/><text fill="#9C27B0" font-family="Verdana" font-size="12.5" font-weight="bold" lengthAdjust="spacing" textLength="19.7917" x="46.875" y="434.6171">alt</text><text fill="#222222" font-family="Verdana" font-size="12.5" font-weight="bold" lengthAdjust="spacing" textLength="5.2083" x="134.375" y="435.6588">[</text><text fill="#222222" font-family="Verdana" font-size="12.5" font-weight="bold" lengthAdjust="spacing" textLength="207.2917" x="139.5833" y="435.6588">Success case: RTP delivered</text><text fill="#222222" font-family="Verdana" font-size="12.5" font-weight="bold" lengthAdjust="spacing" textLength="5.2083" x="346.875" y="435.6588">]</text><polygon fill="#2196F3" points="804.1667,506.25,814.5833,510.4167,804.1667,514.5833,808.3333,510.4167" style="stroke:#2196F3;stroke-width:1.0416666666666667;"/><line style="stroke:#2196F3;stroke-width:3.125;" x1="477.0833" x2="810.4167" y1="510.4167" y2="510.4167"/><text fill="#222222" font-family="Verdana" font-size="12.5" font-weight="bold" lengthAdjust="spacing" textLength="18.75" x="494.7917" y="494.9687">[3]</text><text fill="#222222" font-family="Verdana" font-size="12.5" lengthAdjust="spacing" textLength="255.2083" x="538.5417" y="494.9687">findRtpByNoticeNumber(noticeNumber)</text><polygon fill="#2196F3" points="488.5417,556.2174,478.125,560.3841,488.5417,564.5508,484.375,560.3841" style="stroke:#2196F3;stroke-width:1.0416666666666667;"/><line style="stroke:#2196F3;stroke-width:3.125;stroke-dasharray:2.0,2.0;" x1="482.2917" x2="820.8333" y1="560.3841" y2="560.3841"/><text fill="#222222" font-family="Verdana" font-size="12.5" font-weight="bold" lengthAdjust="spacing" textLength="18.75" x="505.2083" y="544.9361">[4]</text><text fill="#222222" font-family="Verdana" font-size="12.5" lengthAdjust="spacing" textLength="84.375" x="548.9583" y="544.9361">results (0..n)</text><line style="stroke:#2196F3;stroke-width:3.125;" x1="477.0833" x2="520.8333" y1="610.3516" y2="610.3516"/><line style="stroke:#2196F3;stroke-width:3.125;" x1="520.8333" x2="520.8333" y1="610.3516" y2="623.8932"/><line style="stroke:#2196F3;stroke-width:3.125;" x1="478.125" x2="520.8333" y1="623.8932" y2="623.8932"/><polygon fill="#2196F3" points="488.5417,619.7266,478.125,623.8932,488.5417,628.0599,484.375,623.8932" style="stroke:#2196F3;stroke-width:1.0416666666666667;"/><text fill="#222222" font-family="Verdana" font-size="12.5" font-weight="bold" lengthAdjust="spacing" textLength="18.75" x="494.7917" y="594.9036">[5]</text><text fill="#222222" font-family="Verdana" font-size="12.5" lengthAdjust="spacing" textLength="155.2083" x="538.5417" y="594.9036">Filter results by payeeId</text><line style="stroke:#2196F3;stroke-width:3.125;" x1="477.0833" x2="520.8333" y1="673.8607" y2="673.8607"/><line style="stroke:#2196F3;stroke-width:3.125;" x1="520.8333" x2="520.8333" y1="673.8607" y2="687.4023"/><line style="stroke:#2196F3;stroke-width:3.125;" x1="478.125" x2="520.8333" y1="687.4023" y2="687.4023"/><polygon fill="#2196F3" points="488.5417,683.2357,478.125,687.4023,488.5417,691.569,484.375,687.4023" style="stroke:#2196F3;stroke-width:1.0416666666666667;"/><text fill="#222222" font-family="Verdana" font-size="12.5" font-weight="bold" lengthAdjust="spacing" textLength="18.75" x="494.7917" y="658.4127">[6]</text><text fill="#222222" font-family="Verdana" font-size="12.5" lengthAdjust="spacing" textLength="150" x="538.5417" y="658.4127">Evaluate status (SENT)</text><polygon fill="#2196F3" points="126.0417,762.3047,115.625,766.4714,126.0417,770.638,121.875,766.4714" style="stroke:#2196F3;stroke-width:1.0416666666666667;"/><line style="stroke:#2196F3;stroke-width:3.125;stroke-dasharray:2.0,2.0;" x1="119.7917" x2="465.625" y1="766.4714" y2="766.4714"/><text fill="#222222" font-family="Verdana" font-size="12.5" font-weight="bold" lengthAdjust="spacing" textLength="18.75" x="142.7083" y="736.4726">[7]</text><text fill="#222222" font-family="Verdana" font-size="12.5" font-weight="bold" lengthAdjust="spacing" textLength="50" x="186.4583" y="721.9218">200 OK</text><text fill="#222222" font-family="Verdana" font-size="12.5" lengthAdjust="spacing" textLength="170.8333" x="186.4583" y="736.4726">Response: "RTP delivered"</text><text fill="#222222" font-family="Verdana" font-size="12.5" lengthAdjust="spacing" textLength="231.25" x="186.4583" y="751.0234">processingDate: {savingDateTime}</text><line style="stroke:#2196F3;stroke-width:1.0416666666666667;stroke-dasharray:2.0,2.0;" x1="20.8333" x2="881.7708" y1="775.8464" y2="775.8464"/><text fill="#222222" font-family="Verdana" font-size="12.5" font-weight="bold" lengthAdjust="spacing" textLength="5.2083" x="36.4583" y="797.8658">[</text><text fill="#222222" font-family="Verdana" font-size="12.5" font-weight="bold" lengthAdjust="spacing" textLength="203.125" x="41.6667" y="797.8658">Fail case: RTP not delivered</text><text fill="#222222" font-family="Verdana" font-size="12.5" font-weight="bold" lengthAdjust="spacing" textLength="5.2083" x="244.7917" y="797.8658">]</text><polygon fill="#2196F3" points="804.1667,849.7396,814.5833,853.9063,804.1667,858.0729,808.3333,853.9063" style="stroke:#2196F3;stroke-width:1.0416666666666667;"/><line style="stroke:#2196F3;stroke-width:3.125;" x1="477.0833" x2="810.4167" y1="853.9063" y2="853.9063"/><text fill="#222222" font-family="Verdana" font-size="12.5" font-weight="bold" lengthAdjust="spacing" textLength="18.75" x="494.7917" y="838.4583">[8]</text><text fill="#222222" font-family="Verdana" font-size="12.5" lengthAdjust="spacing" textLength="255.2083" x="538.5417" y="838.4583">findRtpByNoticeNumber(noticeNumber)</text><polygon fill="#2196F3" points="488.5417,899.707,478.125,903.8737,488.5417,908.0404,484.375,903.8737" style="stroke:#2196F3;stroke-width:1.0416666666666667;"/><line style="stroke:#2196F3;stroke-width:3.125;stroke-dasharray:2.0,2.0;" x1="482.2917" x2="820.8333" y1="903.8737" y2="903.8737"/><text fill="#222222" font-family="Verdana" font-size="12.5" font-weight="bold" lengthAdjust="spacing" textLength="18.75" x="505.2083" y="888.4257">[9]</text><text fill="#222222" font-family="Verdana" font-size="12.5" lengthAdjust="spacing" textLength="195.8333" x="548.9583" y="888.4257">empty OR status ERROR_SEND</text><path d="M482.2917,921.582 L482.2917,987.207 A4.1667,4.1667 0 0 0 486.4583,991.3737 L696.875,991.3737 A4.1667,4.1667 0 0 0 701.0417,987.207 L701.0417,927.832 L690.625,917.4154 L486.4583,917.4154 A4.1667,4.1667 0 0 0 482.2917,921.582 " fill="url(#go61fks99c48g2)" filter="url(#fo61fks99c48g)" style="stroke:#9C27B0;stroke-width:1.0416666666666667;"/><path d="M690.625,917.4154 L690.625,925.7487 A2.0833,2.0833 0 0 0 692.7083,927.832 L701.0417,927.832 L690.625,917.4154 " fill="url(#go61fks99c48g2)" style="stroke:#9C27B0;stroke-width:1.0416666666666667;"/><text fill="#FFFFFF" font-family="Verdana" font-size="12.5" lengthAdjust="spacing" textLength="176.0417" x="498.9583" y="944.6431">Treat as RTP not delivered:</text><text fill="#FFFFFF" font-family="Verdana" font-size="12.5" lengthAdjust="spacing" textLength="167.7083" x="498.9583" y="959.1939">- noticeNumber not found</text><text fill="#FFFFFF" font-family="Verdana" font-size="12.5" lengthAdjust="spacing" textLength="138.5417" x="498.9583" y="973.7447">- status ERROR_SEND</text><polygon fill="#2196F3" points="126.0417,1052.6693,115.625,1056.8359,126.0417,1061.0026,121.875,1056.8359" style="stroke:#2196F3;stroke-width:1.0416666666666667;"/><line style="stroke:#2196F3;stroke-width:3.125;stroke-dasharray:2.0,2.0;" x1="119.7917" x2="465.625" y1="1056.8359" y2="1056.8359"/><text fill="#222222" font-family="Verdana" font-size="12.5" font-weight="bold" lengthAdjust="spacing" textLength="27.0833" x="142.7083" y="1034.1125">[10]</text><text fill="#222222" font-family="Verdana" font-size="12.5" font-weight="bold" lengthAdjust="spacing" textLength="105.2083" x="194.7917" y="1026.8372">404 Not Found</text><text fill="#222222" font-family="Verdana" font-size="12.5" lengthAdjust="spacing" textLength="196.875" x="194.7917" y="1041.3879">Response: "RTP not delivered"</text><line style="stroke:#2196F3;stroke-width:1.0416666666666667;stroke-dasharray:2.0,2.0;" x1="20.8333" x2="881.7708" y1="1066.2109" y2="1066.2109"/><text fill="#222222" font-family="Verdana" font-size="12.5" font-weight="bold" lengthAdjust="spacing" textLength="5.2083" x="36.4583" y="1088.2304">[</text><text fill="#222222" font-family="Verdana" font-size="12.5" font-weight="bold" lengthAdjust="spacing" textLength="91.6667" x="41.6667" y="1088.2304">Other Errors</text><text fill="#222222" font-family="Verdana" font-size="12.5" font-weight="bold" lengthAdjust="spacing" textLength="5.2083" x="133.3333" y="1088.2304">]</text><path d="M35.4167,1109.9284 L228.125,1109.9284 L228.125,1136.9792 L217.7083,1147.3958 L31.25,1147.3958 L31.25,1114.0951 A4.1667,4.1667 0 0 1 35.4167,1109.9284 " fill="#FFFFFF" style="stroke:#666666;stroke-width:1.0416666666666667;"/><rect fill="none" height="295.5404" rx="4.1667" ry="4.1667" style="stroke:#2196F3;stroke-width:1.0416666666666667;" width="551.5625" x="31.25" y="1109.9284"/><text fill="#9C27B0" font-family="Verdana" font-size="12.5" font-weight="bold" lengthAdjust="spacing" textLength="129.1667" x="57.2917" y="1132.9895">Client-Side Errors</text><polygon fill="#2196F3" points="126.0417,1199.4141,115.625,1203.5807,126.0417,1207.7474,121.875,1203.5807" style="stroke:#2196F3;stroke-width:1.0416666666666667;"/><line style="stroke:#2196F3;stroke-width:3.125;stroke-dasharray:2.0,2.0;" x1="119.7917" x2="465.625" y1="1203.5807" y2="1203.5807"/><text fill="#222222" font-family="Verdana" font-size="12.5" font-weight="bold" lengthAdjust="spacing" textLength="27.0833" x="142.7083" y="1180.8573">[11]</text><text fill="#222222" font-family="Verdana" font-size="12.5" font-weight="bold" lengthAdjust="spacing" textLength="122.9167" x="194.7917" y="1173.5819">400 Bad Request</text><text fill="#222222" font-family="Verdana" font-size="12.5" lengthAdjust="spacing" textLength="254.1667" x="194.7917" y="1188.1327">(e.g., Invalid fiscal code, missing fields)</text><polygon fill="#2196F3" points="126.0417,1263.9323,115.625,1268.099,126.0417,1272.2656,121.875,1268.099" style="stroke:#2196F3;stroke-width:1.0416666666666667;"/><line style="stroke:#2196F3;stroke-width:3.125;stroke-dasharray:2.0,2.0;" x1="119.7917" x2="465.625" y1="1268.099" y2="1268.099"/><text fill="#222222" font-family="Verdana" font-size="12.5" font-weight="bold" lengthAdjust="spacing" textLength="27.0833" x="142.7083" y="1245.3756">[12]</text><text fill="#222222" font-family="Verdana" font-size="12.5" font-weight="bold" lengthAdjust="spacing" textLength="130.2083" x="194.7917" y="1238.1002">401 Unauthorized</text><text fill="#222222" font-family="Verdana" font-size="12.5" lengthAdjust="spacing" textLength="251.0417" x="194.7917" y="1252.651">(e.g., Invalid or expired security token)</text><polygon fill="#2196F3" points="126.0417,1328.4505,115.625,1332.6172,126.0417,1336.7839,121.875,1332.6172" style="stroke:#2196F3;stroke-width:1.0416666666666667;"/><line style="stroke:#2196F3;stroke-width:3.125;stroke-dasharray:2.0,2.0;" x1="119.7917" x2="465.625" y1="1332.6172" y2="1332.6172"/><text fill="#222222" font-family="Verdana" font-size="12.5" font-weight="bold" lengthAdjust="spacing" textLength="27.0833" x="142.7083" y="1309.8938">[13]</text><text fill="#222222" font-family="Verdana" font-size="12.5" font-weight="bold" lengthAdjust="spacing" textLength="104.1667" x="194.7917" y="1302.6184">403 Forbidden</text><text fill="#222222" font-family="Verdana" font-size="12.5" lengthAdjust="spacing" textLength="196.875" x="194.7917" y="1317.1692">(e.g., Insufficient permissions)</text><polygon fill="#2196F3" points="126.0417,1392.9688,115.625,1397.1354,126.0417,1401.3021,121.875,1397.1354" style="stroke:#2196F3;stroke-width:1.0416666666666667;"/><line style="stroke:#2196F3;stroke-width:3.125;stroke-dasharray:2.0,2.0;" x1="119.7917" x2="465.625" y1="1397.1354" y2="1397.1354"/><text fill="#222222" font-family="Verdana" font-size="12.5" font-weight="bold" lengthAdjust="spacing" textLength="27.0833" x="142.7083" y="1374.412">[14]</text><text fill="#222222" font-family="Verdana" font-size="12.5" font-weight="bold" lengthAdjust="spacing" textLength="173.9583" x="194.7917" y="1367.1366">429 Too Many Requests</text><text fill="#222222" font-family="Verdana" font-size="12.5" lengthAdjust="spacing" textLength="171.875" x="194.7917" y="1381.6874">(e.g., Rate limit exceeded)</text><path d="M35.4167,1420.0521 L225,1420.0521 L225,1447.1029 L214.5833,1457.5195 L31.25,1457.5195 L31.25,1424.2188 A4.1667,4.1667 0 0 1 35.4167,1420.0521 " fill="#FFFFFF" style="stroke:#666666;stroke-width:1.0416666666666667;"/><rect fill="none" height="210.2865" rx="4.1667" ry="4.1667" style="stroke:#2196F3;stroke-width:1.0416666666666667;" width="775" x="31.25" y="1420.0521"/><text fill="#9C27B0" font-family="Verdana" font-size="12.5" font-weight="bold" lengthAdjust="spacing" textLength="126.0417" x="57.2917" y="1443.1132">Server-Side Error</text><path d="M264.5833,1466.8945 L264.5833,1503.3529 A4.1667,4.1667 0 0 0 268.75,1507.5195 L671.875,1507.5195 A4.1667,4.1667 0 0 0 676.0417,1503.3529 L676.0417,1473.1445 L665.625,1462.7279 L268.75,1462.7279 A4.1667,4.1667 0 0 0 264.5833,1466.8945 " fill="url(#go61fks99c48g2)" filter="url(#fo61fks99c48g)" style="stroke:#9C27B0;stroke-width:1.0416666666666667;"/><path d="M665.625,1462.7279 L665.625,1471.0612 A2.0833,2.0833 0 0 0 667.7083,1473.1445 L676.0417,1473.1445 L665.625,1462.7279 " fill="url(#go61fks99c48g2)" style="stroke:#9C27B0;stroke-width:1.0416666666666667;"/><text fill="#FFFFFF" font-family="Verdana" font-size="12.5" lengthAdjust="spacing" textLength="368.75" x="281.25" y="1489.9556">e.g., Database connection failure, unhandled exception.</text><line style="stroke:#2196F3;stroke-width:3.125;" x1="477.0833" x2="520.8333" y1="1558.4961" y2="1558.4961"/><line style="stroke:#2196F3;stroke-width:3.125;" x1="520.8333" x2="520.8333" y1="1558.4961" y2="1572.0378"/><line style="stroke:#2196F3;stroke-width:3.125;" x1="478.125" x2="520.8333" y1="1572.0378" y2="1572.0378"/><polygon fill="#2196F3" points="488.5417,1567.8711,478.125,1572.0378,488.5417,1576.2044,484.375,1572.0378" style="stroke:#2196F3;stroke-width:1.0416666666666667;"/><text fill="#222222" font-family="Verdana" font-size="12.5" font-weight="bold" lengthAdjust="spacing" textLength="27.0833" x="494.7917" y="1543.0481">[15]</text><text fill="#222222" font-family="Verdana" font-size="12.5" lengthAdjust="spacing" textLength="236.4583" x="546.875" y="1543.0481">An unexpected internal error occurs</text><polygon fill="#2196F3" points="126.0417,1617.8385,115.625,1622.0052,126.0417,1626.1719,121.875,1622.0052" style="stroke:#2196F3;stroke-width:1.0416666666666667;"/><line style="stroke:#2196F3;stroke-width:3.125;stroke-dasharray:2.0,2.0;" x1="119.7917" x2="465.625" y1="1622.0052" y2="1622.0052"/><text fill="#222222" font-family="Verdana" font-size="12.5" font-weight="bold" lengthAdjust="spacing" textLength="27.0833" x="142.7083" y="1606.5572">[16]</text><text fill="#222222" font-family="Verdana" font-size="12.5" font-weight="bold" lengthAdjust="spacing" textLength="180.2083" x="194.7917" y="1606.5572">500 Internal Server Error</text><!--SRC=[jLLDazf64BtFh-ZWWnV5OEmuXr0fLvd0fhOIxr8IzYLEnOEcWIaF8tbcH49S-Uzv8maGQyWjEcaqhxjVl_xGKveRQSExjx_ILCkrarjQ5OxInPpkYw1pfYp8K7bwCxyJJscXW-7nXUkCFrTiSMwz0FkUdTU57TEBuMWumeSf-zpfCjGVVvujwBcjVTnNsoMxvrzAkMU-K_y0UlQa72fdFIasUiTkJxw9-MtDetH5pjvhkoOb0zEDPwlgrxuGtuGDRvcsE3ajXGYH_-Ni_fkIa7c0BhqaoTZjekNS5Jkjs2L9ZoG4c8jIEjZg4df6e0lb878vGj9CW9PSIi_nVjg-jxVJ2O9KeR1rQEhzk7pzs-ZtdX3Pd0QlOJoc90759BbA4XprBcg0I08O9gVNcq35AduXs3-Kx6HT0BZvkERGoD2ey16GnGQQp0d5T9g_bZpsXgHkUDYij86yh6YvfvRBKCGYH0f2fDc1_tjfT5sZZFFAwR2dHV69BV8sWPwKql3QCLlmpAey5fLowDEqMyk4LP88KNT5xNOw6IE-LMae9_lx3g-RBib-RN6K1rB7ytH2WvQPOr-PuEbcD1pQ1gsuY- -4ZFZREkMZsIdnHxZPJfegkcZrkybczul-oHjWsJmMzkLeH0-_9Ca7cx8l2nlJxftbtVjWJwsEtW7WYvUxzh3GMqQNia5lFJ6nwdisflWJhc-bDXqXeSl_B2PlIvJs8JqaFKlJX_GFP3wz9ko5NetFmh4CzUGyvZrk4OEpNgmngwAowdXzcSAfERygnAlHgxWRw3QwkL2FCngzW-9Akazn0Z1Xs3YEPiuLpX_KNRkYAkadezc6GOQbqTwBuuOxPp2YYLHOUvX27oA76nwkXy_epkxY1A56FfUeQQ7u6Mrri_nMceto_Mi-Nz0xY_MoAPp-czK5fvXi_glKCGj_6CyGn_Ego-yWabjgfTYU-VFLQeKzY6G9wwRc1m6lkNdv0xP0GM-btHzIzXrtQUmJexSwW5xEh5ZrZpMiXUrg79Spkux6nw1DZnMuRNgqTdvOmP3IMixZOgGLngLo4BQo6scLWHunSFtR6fxSdMRyZGKKqi4UM6sn62ogmp4y5JcazETcnzo_HwNl3lY6UiCQZVCeHRmAqPaSpCY_]--></g></svg>