<svg xmlns="http://www.w3.org/2000/svg" xmlns:xlink="http://www.w3.org/1999/xlink" contentStyleType="text/css" data-diagram-type="SEQUENCE" height="1192px" preserveAspectRatio="none" style="width:717px;height:1192px;background:#FFFFFF;" version="1.1" viewBox="0 0 717 1192" width="717px" zoomAndPan="magnify"><title>RTP Consumer - Message flow (GPD -&gt; RTP)</title><defs/><g><text fill="#000000" font-family="sans-serif" font-size="14" font-weight="bold" lengthAdjust="spacing" textLength="324.7822" x="197.2656" y="28.5352">RTP Consumer - Message flow (GPD -&gt; RTP)</text><rect fill="none" height="770.5371" style="stroke:#000000;stroke-width:1.5;" width="700.3135" x="10" y="324.1504"/><rect fill="none" height="339.9922" style="stroke:#000000;stroke-width:1.5;" width="680.3135" x="20" y="747.6953"/><g><title>GPD EventHub</title><rect fill="#000000" fill-opacity="0.00000" height="992.7109" width="8" x="77.5591" y="118.9766"/><line style="stroke:#181818;stroke-width:0.5;stroke-dasharray:5,5;" x1="81" x2="81" y1="118.9766" y2="1111.6875"/></g><g><title>rtp-consumer</title><rect fill="#000000" fill-opacity="0.00000" height="992.7109" width="8" x="254.3979" y="118.9766"/><line style="stroke:#181818;stroke-width:0.5;stroke-dasharray:5,5;" x1="258.0181" x2="258.0181" y1="118.9766" y2="1111.6875"/></g><g><title>mil-auth</title><rect fill="#000000" fill-opacity="0.00000" height="992.7109" width="8" x="400.3428" y="118.9766"/><line style="stroke:#181818;stroke-width:0.5;stroke-dasharray:5,5;" x1="403.5381" x2="403.5381" y1="118.9766" y2="1111.6875"/></g><g><title>rtp-sender</title><rect fill="#000000" fill-opacity="0.00000" height="992.7109" width="8" x="491.0684" y="118.9766"/><line style="stroke:#181818;stroke-width:0.5;stroke-dasharray:5,5;" x1="494.1475" x2="494.1475" y1="118.9766" y2="1111.6875"/></g><g><title>Dead letter queue</title><rect fill="#000000" fill-opacity="0.00000" height="992.7109" width="8" x="615.6514" y="118.9766"/><line style="stroke:#181818;stroke-width:0.5;stroke-dasharray:5,5;" x1="618.9893" x2="618.9893" y1="118.9766" y2="1111.6875"/></g><g class="participant participant-head" data-participant="EH"><text fill="#000000" font-family="sans-serif" font-size="14" lengthAdjust="spacing" textLength="97.1182" x="30" y="116.0234">GPD EventHub</text><ellipse cx="81.5591" cy="50.9883" fill="#E2E2F0" rx="8" ry="8" style="stroke:#181818;stroke-width:0.5;"/><path d="M81.5591,58.9883 L81.5591,85.9883 M68.5591,66.9883 L94.5591,66.9883 M81.5591,85.9883 L68.5591,100.9883 M81.5591,85.9883 L94.5591,100.9883" fill="none" style="stroke:#181818;stroke-width:0.5;"/></g><g class="participant participant-tail" data-participant="EH"><text fill="#000000" font-family="sans-serif" font-size="14" lengthAdjust="spacing" textLength="97.1182" x="30" y="1124.2227">GPD EventHub</text><ellipse cx="81.5591" cy="1135.6758" fill="#E2E2F0" rx="8" ry="8" style="stroke:#181818;stroke-width:0.5;"/><path d="M81.5591,1143.6758 L81.5591,1170.6758 M68.5591,1151.6758 L94.5591,1151.6758 M81.5591,1170.6758 L68.5591,1185.6758 M81.5591,1170.6758 L94.5591,1185.6758" fill="none" style="stroke:#181818;stroke-width:0.5;"/></g><g class="participant participant-head" data-participant="C"><rect fill="#E2E2F0" height="30.4883" rx="2.5" ry="2.5" style="stroke:#181818;stroke-width:0.5;" width="108.7598" x="204.0181" y="87.4883"/><text fill="#000000" font-family="sans-serif" font-size="14" lengthAdjust="spacing" textLength="94.7598" x="211.0181" y="108.0234">rtp-consumer</text></g><g class="participant participant-tail" data-participant="C"><rect fill="#E2E2F0" height="30.4883" rx="2.5" ry="2.5" style="stroke:#181818;stroke-width:0.5;" width="108.7598" x="204.0181" y="1110.6875"/><text fill="#000000" font-family="sans-serif" font-size="14" lengthAdjust="spacing" textLength="94.7598" x="211.0181" y="1131.2227">rtp-consumer</text></g><g class="participant participant-head" data-participant="MA"><rect fill="#E2E2F0" height="30.4883" rx="2.5" ry="2.5" style="stroke:#181818;stroke-width:0.5;" width="73.6094" x="367.5381" y="87.4883"/><text fill="#000000" font-family="sans-serif" font-size="14" lengthAdjust="spacing" textLength="59.6094" x="374.5381" y="108.0234">mil-auth</text></g><g class="participant participant-tail" data-participant="MA"><rect fill="#E2E2F0" height="30.4883" rx="2.5" ry="2.5" style="stroke:#181818;stroke-width:0.5;" width="73.6094" x="367.5381" y="1110.6875"/><text fill="#000000" font-family="sans-serif" font-size="14" lengthAdjust="spacing" textLength="59.6094" x="374.5381" y="1131.2227">mil-auth</text></g><g class="participant participant-head" data-participant="S"><rect fill="#E2E2F0" height="30.4883" rx="2.5" ry="2.5" style="stroke:#181818;stroke-width:0.5;" width="87.8418" x="451.1475" y="87.4883"/><text fill="#000000" font-family="sans-serif" font-size="14" lengthAdjust="spacing" textLength="73.8418" x="458.1475" y="108.0234">rtp-sender</text></g><g class="participant participant-tail" data-participant="S"><rect fill="#E2E2F0" height="30.4883" rx="2.5" ry="2.5" style="stroke:#181818;stroke-width:0.5;" width="87.8418" x="451.1475" y="1110.6875"/><text fill="#000000" font-family="sans-serif" font-size="14" lengthAdjust="spacing" textLength="73.8418" x="458.1475" y="1131.2227">rtp-sender</text></g><g class="participant participant-head" data-participant="DLQ"><path d="M553.9893,92.4883 L685.3135,92.4883 C690.3135,92.4883 690.3135,105.7324 690.3135,105.7324 C690.3135,105.7324 690.3135,118.9766 685.3135,118.9766 L553.9893,118.9766 C548.9893,118.9766 548.9893,105.7324 548.9893,105.7324 C548.9893,105.7324 548.9893,92.4883 553.9893,92.4883" fill="#E2E2F0" style="stroke:#181818;stroke-width:0.5;"/><path d="M685.3135,92.4883 C680.3135,92.4883 680.3135,105.7324 680.3135,105.7324 C680.3135,118.9766 685.3135,118.9766 685.3135,118.9766" fill="none" style="stroke:#181818;stroke-width:0.5;"/><text fill="#000000" font-family="sans-serif" font-size="14" lengthAdjust="spacing" textLength="121.3242" x="553.9893" y="111.0234">Dead letter queue</text></g><g class="participant participant-tail" data-participant="DLQ"><path d="M553.9893,1110.6875 L685.3135,1110.6875 C690.3135,1110.6875 690.3135,1123.9316 690.3135,1123.9316 C690.3135,1123.9316 690.3135,1137.1758 685.3135,1137.1758 L553.9893,1137.1758 C548.9893,1137.1758 548.9893,1123.9316 548.9893,1123.9316 C548.9893,1123.9316 548.9893,1110.6875 553.9893,1110.6875" fill="#E2E2F0" style="stroke:#181818;stroke-width:0.5;"/><path d="M685.3135,1110.6875 C680.3135,1110.6875 680.3135,1123.9316 680.3135,1123.9316 C680.3135,1137.1758 685.3135,1137.1758 685.3135,1137.1758" fill="none" style="stroke:#181818;stroke-width:0.5;"/><text fill="#000000" font-family="sans-serif" font-size="14" lengthAdjust="spacing" textLength="121.3242" x="553.9893" y="1129.2227">Dead letter queue</text></g><path d="M25,133.9766 L25,173.9766 L313,173.9766 L313,143.9766 L303,133.9766 L25,133.9766" fill="#FEFFDD" style="stroke:#181818;stroke-width:0.5;"/><path d="M303,133.9766 L303,143.9766 L313,143.9766 L303,133.9766" fill="#FEFFDD" style="stroke:#181818;stroke-width:0.5;"/><text fill="#000000" font-family="sans-serif" font-size="13" lengthAdjust="spacing" textLength="267.4966" x="31" y="151.5449">A message is published on GPD EventHub.</text><text fill="#000000" font-family="sans-serif" font-size="13" lengthAdjust="spacing" textLength="261.8789" x="31" y="166.8555">rtp-consumer receives it asynchronously.</text><g class="message" data-participant-1="EH" data-participant-2="C"><polygon fill="#181818" points="246.3979,212.2188,256.3979,216.2188,246.3979,220.2188,250.3979,216.2188" style="stroke:#181818;stroke-width:1;"/><line style="stroke:#181818;stroke-width:1;" x1="81.5591" x2="252.3979" y1="216.2188" y2="216.2188"/><text fill="#000000" font-family="sans-serif" font-size="13" lengthAdjust="spacing" textLength="152.8389" x="88.5591" y="196.166">EventReceived(message)</text><text fill="#000000" font-family="sans-serif" font-size="13" lengthAdjust="spacing" textLength="126.1343" x="88.5591" y="211.4766">(headers + payload)</text></g><path d="M263,229.2188 L263,269.2188 L577,269.2188 L577,239.2188 L567,229.2188 L263,229.2188" fill="#FEFFDD" style="stroke:#181818;stroke-width:0.5;"/><path d="M567,229.2188 L567,239.2188 L577,239.2188 L567,229.2188" fill="#FEFFDD" style="stroke:#181818;stroke-width:0.5;"/><text fill="#000000" font-family="sans-serif" font-size="13" lengthAdjust="spacing" textLength="175.1636" x="269" y="246.7871">Step 1 - Message validation</text><text fill="#000000" font-family="sans-serif" font-size="13" lengthAdjust="spacing" textLength="293.5283" x="269" y="262.0977">- Syntactic validation (schema, required fields)</text><g class="message" data-participant-1="C" data-participant-2="C"><line style="stroke:#181818;stroke-width:1;" x1="258.3979" x2="300.3979" y1="296.1504" y2="296.1504"/><line style="stroke:#181818;stroke-width:1;" x1="300.3979" x2="300.3979" y1="296.1504" y2="309.1504"/><line style="stroke:#181818;stroke-width:1;" x1="259.3979" x2="300.3979" y1="309.1504" y2="309.1504"/><polygon fill="#181818" points="269.3979,305.1504,259.3979,309.1504,269.3979,313.1504,265.3979,309.1504" style="stroke:#181818;stroke-width:1;"/><text fill="#000000" font-family="sans-serif" font-size="13" lengthAdjust="spacing" textLength="112.5059" x="265.3979" y="291.4082">validate(message)</text></g><path d="M10,324.1504 L72.1387,324.1504 L72.1387,331.4609 L62.1387,341.4609 L10,341.4609 L10,324.1504" fill="#EEEEEE" style="stroke:#000000;stroke-width:1.5;"/><rect fill="none" height="770.5371" style="stroke:#000000;stroke-width:1.5;" width="700.3135" x="10" y="324.1504"/><text fill="#000000" font-family="sans-serif" font-size="13" font-weight="bold" lengthAdjust="spacing" textLength="17.1387" x="25" y="337.7188">alt</text><text fill="#000000" font-family="sans-serif" font-size="11" font-weight="bold" lengthAdjust="spacing" textLength="122.9658" x="87.1387" y="336.7852">[VALIDATION FAILED]</text><path d="M263,346.4609 L263,386.4609 L642,386.4609 L642,356.4609 L632,346.4609 L263,346.4609" fill="#FEFFDD" style="stroke:#181818;stroke-width:0.5;"/><path d="M632,346.4609 L632,356.4609 L642,356.4609 L632,346.4609" fill="#FEFFDD" style="stroke:#181818;stroke-width:0.5;"/><text fill="#000000" font-family="sans-serif" font-size="13" lengthAdjust="spacing" textLength="237.2119" x="269" y="364.0293">The message is malformed or invalid.</text><text fill="#000000" font-family="sans-serif" font-size="13" lengthAdjust="spacing" textLength="358.8647" x="269" y="379.3398">It is published to the Dead letter queue for reprocessing.</text><g class="message" data-participant-1="C" data-participant-2="DLQ"><polygon fill="#181818" points="607.6514,424.7031,617.6514,428.7031,607.6514,432.7031,611.6514,428.7031" style="stroke:#181818;stroke-width:1;"/><line style="stroke:#181818;stroke-width:1;" x1="258.3979" x2="613.6514" y1="428.7031" y2="428.7031"/><text fill="#000000" font-family="sans-serif" font-size="13" lengthAdjust="spacing" textLength="214.9189" x="265.3979" y="408.6504">Publish(originalMessage + failure)</text><text fill="#000000" font-family="sans-serif" font-size="13" lengthAdjust="spacing" textLength="300.4727" x="265.3979" y="423.9609">metadata: httpStatus, errorMessage, timestamp</text></g><g class="message" data-participant-1="DLQ" data-participant-2="C"><polygon fill="#181818" points="269.3979,454.0137,259.3979,458.0137,269.3979,462.0137,265.3979,458.0137" style="stroke:#181818;stroke-width:1;"/><line style="stroke:#181818;stroke-width:1;stroke-dasharray:2,2;" x1="263.3979" x2="618.6514" y1="458.0137" y2="458.0137"/><text fill="#000000" font-family="sans-serif" font-size="13" lengthAdjust="spacing" textLength="21.436" x="275.3979" y="453.2715">ack</text></g><g class="message" data-participant-1="C" data-participant-2="EH"><polygon fill="#181818" points="92.5591,483.3242,82.5591,487.3242,92.5591,491.3242,88.5591,487.3242" style="stroke:#181818;stroke-width:1;"/><line style="stroke:#181818;stroke-width:1;stroke-dasharray:2,2;" x1="86.5591" x2="257.3979" y1="487.3242" y2="487.3242"/><text fill="#000000" font-family="sans-serif" font-size="13" lengthAdjust="spacing" textLength="21.436" x="98.5591" y="482.582">ack</text></g><line style="stroke:#000000;stroke-width:1;stroke-dasharray:2,2;" x1="10" x2="710.3135" y1="496.3242" y2="496.3242"/><text fill="#000000" font-family="sans-serif" font-size="11" font-weight="bold" lengthAdjust="spacing" textLength="150.498" x="15" y="506.959">[VALIDATION SUCCEEDED]</text><path d="M263,515.2793 L263,586.2793 L569,586.2793 L569,525.2793 L559,515.2793 L263,515.2793" fill="#FEFFDD" style="stroke:#181818;stroke-width:0.5;"/><path d="M559,515.2793 L559,525.2793 L569,525.2793 L559,515.2793" fill="#FEFFDD" style="stroke:#181818;stroke-width:0.5;"/><text fill="#000000" font-family="sans-serif" font-size="13" lengthAdjust="spacing" textLength="274.7456" x="269" y="532.8477">Step 2 - Authentication towards rtp-sender</text><text fill="#000000" font-family="sans-serif" font-size="13" lengthAdjust="spacing" textLength="247.5967" x="269" y="548.1582">The call to rtp-sender is authenticated.</text><text fill="#000000" font-family="sans-serif" font-size="13" lengthAdjust="spacing" textLength="250.7197" x="269" y="563.4688">A token is first retrieved from mil-auth,</text><text fill="#000000" font-family="sans-serif" font-size="13" lengthAdjust="spacing" textLength="285.1558" x="269" y="578.7793">then the authenticated POST call is executed.</text><g class="message" data-participant-1="C" data-participant-2="MA"><polygon fill="#181818" points="392.3428,624.1426,402.3428,628.1426,392.3428,632.1426,396.3428,628.1426" style="stroke:#181818;stroke-width:1;"/><line style="stroke:#181818;stroke-width:1;" x1="258.3979" x2="398.3428" y1="628.1426" y2="628.1426"/><text fill="#000000" font-family="sans-serif" font-size="13" lengthAdjust="spacing" textLength="79.1934" x="265.3979" y="608.0898">POST /token</text><text fill="#000000" font-family="sans-serif" font-size="13" lengthAdjust="spacing" textLength="121.9448" x="265.3979" y="623.4004">(scope: rtp-sender)</text></g><g class="message" data-participant-1="MA" data-participant-2="C"><polygon fill="#181818" points="269.3979,668.7637,259.3979,672.7637,269.3979,676.7637,265.3979,672.7637" style="stroke:#181818;stroke-width:1;"/><line style="stroke:#181818;stroke-width:1;stroke-dasharray:2,2;" x1="263.3979" x2="403.3428" y1="672.7637" y2="672.7637"/><text fill="#000000" font-family="sans-serif" font-size="13" lengthAdjust="spacing" textLength="47.3599" x="275.3979" y="652.7109">200 OK</text><text fill="#000000" font-family="sans-serif" font-size="13" lengthAdjust="spacing" textLength="83.2495" x="275.3979" y="668.0215">access_token</text></g><g class="message" data-participant-1="C" data-participant-2="S"><polygon fill="#181818" points="483.0684,728.6953,493.0684,732.6953,483.0684,736.6953,487.0684,732.6953" style="stroke:#181818;stroke-width:1;"/><line style="stroke:#181818;stroke-width:1;" x1="258.3979" x2="489.0684" y1="732.6953" y2="732.6953"/><text fill="#000000" font-family="sans-serif" font-size="13" lengthAdjust="spacing" textLength="129.8857" x="265.3979" y="697.332">POST /gpd/message</text><text fill="#000000" font-family="sans-serif" font-size="13" lengthAdjust="spacing" textLength="194.8794" x="265.3979" y="712.6426">Authorization: Bearer &lt;token&gt;</text><text fill="#000000" font-family="sans-serif" font-size="13" lengthAdjust="spacing" textLength="155.7144" x="265.3979" y="727.9531">body: validated message</text></g><path d="M20,747.6953 L82.1387,747.6953 L82.1387,755.0059 L72.1387,765.0059 L20,765.0059 L20,747.6953" fill="#EEEEEE" style="stroke:#000000;stroke-width:1.5;"/><rect fill="none" height="339.9922" style="stroke:#000000;stroke-width:1.5;" width="680.3135" x="20" y="747.6953"/><text fill="#000000" font-family="sans-serif" font-size="13" font-weight="bold" lengthAdjust="spacing" textLength="17.1387" x="35" y="761.2637">alt</text><text fill="#000000" font-family="sans-serif" font-size="11" font-weight="bold" lengthAdjust="spacing" textLength="108.7754" x="97.1387" y="760.3301">[POST SUCCEEDED]</text><g class="message" data-participant-1="S" data-participant-2="C"><polygon fill="#181818" points="269.3979,797.627,259.3979,801.627,269.3979,805.627,265.3979,801.627" style="stroke:#181818;stroke-width:1;"/><line style="stroke:#181818;stroke-width:1;stroke-dasharray:2,2;" x1="263.3979" x2="494.0684" y1="801.627" y2="801.627"/><text fill="#000000" font-family="sans-serif" font-size="13" lengthAdjust="spacing" textLength="47.3599" x="275.3979" y="781.5742">200 OK</text><text fill="#000000" font-family="sans-serif" font-size="13" lengthAdjust="spacing" textLength="124.4014" x="275.3979" y="796.8848">response: RTP body</text></g><g class="message" data-participant-1="C" data-participant-2="EH"><polygon fill="#181818" points="92.5591,826.9375,82.5591,830.9375,92.5591,834.9375,88.5591,830.9375" style="stroke:#181818;stroke-width:1;"/><line style="stroke:#181818;stroke-width:1;stroke-dasharray:2,2;" x1="86.5591" x2="257.3979" y1="830.9375" y2="830.9375"/><text fill="#000000" font-family="sans-serif" font-size="13" lengthAdjust="spacing" textLength="21.436" x="98.5591" y="826.1953">ack</text></g><path d="M263,843.9375 L263,868.9375 L579,868.9375 L579,853.9375 L569,843.9375 L263,843.9375" fill="#FEFFDD" style="stroke:#181818;stroke-width:0.5;"/><path d="M569,843.9375 L569,853.9375 L579,853.9375 L569,843.9375" fill="#FEFFDD" style="stroke:#181818;stroke-width:0.5;"/><text fill="#000000" font-family="sans-serif" font-size="13" lengthAdjust="spacing" textLength="295.7119" x="269" y="861.5059">The message has been successfully processed.</text><line style="stroke:#000000;stroke-width:1;stroke-dasharray:2,2;" x1="20" x2="700.3135" y1="875.248" y2="875.248"/><text fill="#000000" font-family="sans-serif" font-size="11" font-weight="bold" lengthAdjust="spacing" textLength="204.3271" x="25" y="885.8828">[POST FAILED (4xx / 5xx / timeout)]</text><g class="message" data-participant-1="S" data-participant-2="C"><polygon fill="#181818" points="269.3979,906.5137,259.3979,910.5137,269.3979,914.5137,265.3979,910.5137" style="stroke:#181818;stroke-width:1;"/><line style="stroke:#181818;stroke-width:1;stroke-dasharray:2,2;" x1="263.3979" x2="494.0684" y1="910.5137" y2="910.5137"/><text fill="#000000" font-family="sans-serif" font-size="13" lengthAdjust="spacing" textLength="156.5522" x="275.3979" y="905.7715">error response / timeout</text></g><path d="M263,923.5137 L263,978.5137 L566,978.5137 L566,933.5137 L556,923.5137 L263,923.5137" fill="#FEFFDD" style="stroke:#181818;stroke-width:0.5;"/><path d="M556,923.5137 L556,933.5137 L566,933.5137 L556,923.5137" fill="#FEFFDD" style="stroke:#181818;stroke-width:0.5;"/><text fill="#000000" font-family="sans-serif" font-size="13" lengthAdjust="spacing" textLength="162.4365" x="269" y="941.082">Even if the POST call fails,</text><text fill="#000000" font-family="sans-serif" font-size="13" lengthAdjust="spacing" textLength="282.877" x="269" y="956.3926">the message is sent to the Dead letter queue</text><text fill="#000000" font-family="sans-serif" font-size="13" lengthAdjust="spacing" textLength="189.0903" x="269" y="971.7031">for reprocessing and analysis.</text><g class="message" data-participant-1="C" data-participant-2="DLQ"><polygon fill="#181818" points="607.6514,1017.0664,617.6514,1021.0664,607.6514,1025.0664,611.6514,1021.0664" style="stroke:#181818;stroke-width:1;"/><line style="stroke:#181818;stroke-width:1;" x1="258.3979" x2="613.6514" y1="1021.0664" y2="1021.0664"/><text fill="#000000" font-family="sans-serif" font-size="13" lengthAdjust="spacing" textLength="214.9189" x="265.3979" y="1001.0137">Publish(originalMessage + failure)</text><text fill="#000000" font-family="sans-serif" font-size="13" lengthAdjust="spacing" textLength="300.4727" x="265.3979" y="1016.3242">metadata: httpStatus, errorMessage, timestamp</text></g><g class="message" data-participant-1="DLQ" data-participant-2="C"><polygon fill="#181818" points="269.3979,1046.377,259.3979,1050.377,269.3979,1054.377,265.3979,1050.377" style="stroke:#181818;stroke-width:1;"/><line style="stroke:#181818;stroke-width:1;stroke-dasharray:2,2;" x1="263.3979" x2="618.6514" y1="1050.377" y2="1050.377"/><text fill="#000000" font-family="sans-serif" font-size="13" lengthAdjust="spacing" textLength="21.436" x="275.3979" y="1045.6348">ack</text></g><g class="message" data-participant-1="C" data-participant-2="EH"><polygon fill="#181818" points="92.5591,1075.6875,82.5591,1079.6875,92.5591,1083.6875,88.5591,1079.6875" style="stroke:#181818;stroke-width:1;"/><line style="stroke:#181818;stroke-width:1;stroke-dasharray:2,2;" x1="86.5591" x2="257.3979" y1="1079.6875" y2="1079.6875"/><text fill="#000000" font-family="sans-serif" font-size="13" lengthAdjust="spacing" textLength="21.436" x="98.5591" y="1074.9453">ack</text></g><!--SRC=[jLJ1Rjf04BtxAqQSG84aZTfBL4LoWHRKfA61zeHKBVOOhxBUTNR79FJhExismK1ox0M9tPctRzvxOvAa41uMCnWQxQe2BGpW3fqJQuHCcMVeVfkDO73ZQtfH918o5Zh-RBn1JPDgrG7XO3o9Ic599h8Kcg1ZgHma3M8e61xU5r8DH4LvkBkBJviTwhHfdKTF5LO8dH6A51GICSjm5Av7jp-ZI1j2C1k-64_wmoY6efb1EYYhbP8knnICXZRpywXD4omcA3VeG1BZRdMIMwDDvTJsF68suD-8el74gp64wnhceMvAkys3lQNkvimJhOCpACLM6P7s6e9MhdC2ax4QSy8IFhJ4tWWbKq7Iw6W0ywqcbbechMFekYJ7GlIPw5CbBS-JILIfwxNO3NVacZvyvSNUAOBVyUrq52-czp_WQpoz7OyYW6Dg08iSsm8MGcN65bv02r87w7CkczAXl6I0kFF49k1k9brQap2er6lVlESC45YpZynxLgDr3HEIMgYTF6UG2QagwmKka0JF9guX9ohd9AXoVK1hZMtA-q2I1o1Hb0plaGUDBY9vh1_a_snbVH2XSjZMPlvhE1oFH-_84xoxOkzYJZ1dG2QrGMIUXKqTxFFRQ9a8fRmw-mildDXtOz0pvff7rFukazOHQqPMuiOxRKq1kwNfSwrl3MeVeC3iVhwedsCGVC6aQh1FvBwBlTg-_2AyohbrYIdnkiMonyLSjzFkwl8IxhyljKYyZtz2solU_1LkNQONJNgMsal4NluD2bt35nIMf_ySUc-MUcNIxJwiwIvr7jN7DG2spM3nJ-XOT2NlC3Fttp6F60gFFFP7frOUPZtdpyaAMLXNXH6pIgajDBcjTJnKCkGcaAot2ReVNrxW0Zw5Nvz1Kr7lY7S8AknOx-lUfUW_D22pOFVUOByFhXyAw71VsJnwTnb3m_52Wk2X1A_RrabtEkP_tz2tTlGD1vcJ_zP5_m00]--></g></svg>