<?xml version="1.0" encoding="us-ascii" standalone="no"?><svg xmlns="http://www.w3.org/2000/svg" xmlns:xlink="http://www.w3.org/1999/xlink" contentStyleType="text/css" height="992px" preserveAspectRatio="none" style="width:1211px;height:992px;background:#FFFFFF;" version="1.1" viewBox="0 0 1211 992" width="1211px" zoomAndPan="magnify"><defs><filter height="300%" id="f3dcvlw8e7rol" width="300%" x="-1" y="-1"><feGaussianBlur result="blurOut" stdDeviation="2.0"/><feColorMatrix in="blurOut" result="blurOut2" type="matrix" values="0 0 0 0 0 0 0 0 0 0 0 0 0 0 0 0 0 0 .4 0"/><feOffset dx="4.0" dy="4.0" in="blurOut2" result="blurOut3"/><feBlend in="SourceGraphic" in2="blurOut3" mode="normal"/></filter></defs><g><text fill="#000000" font-family="sans-serif" font-size="14" font-weight="bold" lengthAdjust="spacing" textLength="145" x="526" y="22.9951">RTP State Diagram</text><!--cluster ES--><g id="cluster_ES"><rect fill="none" filter="url(#f3dcvlw8e7rol)" height="117" rx="12.5" ry="12.5" style="stroke:#A80036;stroke-width:1.0;" width="350" x="7" y="724.7969"/><path d="M19.5,724.7969 L344.5,724.7969 A12.5,12.5 0 0 1 357,737.2969 L357,746.0938 L7,746.0938 L7,737.2969 A12.5,12.5 0 0 1 19.5,724.7969 " fill="#FEFECE" style="stroke:#FEFECE;stroke-width:1.0;"/><path d="M7,746.0938 L357,746.0938 L357,829.2969 A12.5,12.5 0 0 1 344.5,841.7969 L19.5,841.7969 A12.5,12.5 0 0 1 7,829.2969 L7,746.0938 " fill="#FEFECE" style="stroke:#FEFECE;stroke-width:1.0;"/><rect fill="none" height="117" rx="12.5" ry="12.5" style="stroke:#A80036;stroke-width:1.0;" width="350" x="7" y="724.7969"/><line style="stroke:#A80036;stroke-width:1.0;" x1="7" x2="357" y1="746.0938" y2="746.0938"/><text fill="#000000" font-family="sans-serif" font-size="14" lengthAdjust="spacing" textLength="97" x="133.5" y="741.792">Error statuses</text></g><g id="ES.ERROR_SEND"><rect fill="#FEFECE" filter="url(#f3dcvlw8e7rol)" height="50" rx="12.5" ry="12.5" style="stroke:#A80036;stroke-width:1.0;" width="116" x="50" y="767.7969"/><line style="stroke:#A80036;stroke-width:1.0;" x1="50" x2="166" y1="794.0938" y2="794.0938"/><text fill="#000000" font-family="sans-serif" font-size="14" lengthAdjust="spacing" textLength="96" x="60" y="785.792">ERROR_SEND</text></g><g id="ES.ERROR_CANCEL"><rect fill="#FEFECE" filter="url(#f3dcvlw8e7rol)" height="50" rx="12.5" ry="12.5" style="stroke:#A80036;stroke-width:1.0;" width="132" x="201" y="767.7969"/><line style="stroke:#A80036;stroke-width:1.0;" x1="201" x2="333" y1="794.0938" y2="794.0938"/><text fill="#000000" font-family="sans-serif" font-size="14" lengthAdjust="spacing" textLength="112" x="211" y="785.792">ERROR_CANCEL</text></g><g id="CREATED"><rect fill="#FEFECE" filter="url(#f3dcvlw8e7rol)" height="50" rx="12.5" ry="12.5" style="stroke:#A80036;stroke-width:1.0;" width="87" x="126.5" y="124.2969"/><line style="stroke:#A80036;stroke-width:1.0;" x1="126.5" x2="213.5" y1="150.5938" y2="150.5938"/><text fill="#000000" font-family="sans-serif" font-size="14" lengthAdjust="spacing" textLength="67" x="136.5" y="142.292">CREATED</text></g><g id="SENT"><rect fill="#FEFECE" filter="url(#f3dcvlw8e7rol)" height="50" rx="12.5" ry="12.5" style="stroke:#A80036;stroke-width:1.0;" width="57" x="658.5" y="251.2969"/><line style="stroke:#A80036;stroke-width:1.0;" x1="658.5" x2="715.5" y1="277.5938" y2="277.5938"/><text fill="#000000" font-family="sans-serif" font-size="14" lengthAdjust="spacing" textLength="37" x="668.5" y="269.292">SENT</text></g><g id="RFC_SENT"><rect fill="#FEFECE" filter="url(#f3dcvlw8e7rol)" height="50" rx="12.5" ry="12.5" style="stroke:#A80036;stroke-width:1.0;" width="92" x="389" y="561.2969"/><line style="stroke:#A80036;stroke-width:1.0;" x1="389" x2="481" y1="587.5938" y2="587.5938"/><text fill="#000000" font-family="sans-serif" font-size="14" lengthAdjust="spacing" textLength="72" x="399" y="579.292">RFC_SENT</text></g><rect fill="none" filter="url(#f3dcvlw8e7rol)" height="106.2969" rx="12.5" ry="12.5" style="stroke:#A80036;stroke-width:1.0;" width="283.5" x="480" y="378.2969"/><path d="M492.5,378.2969 L751,378.2969 A12.5,12.5 0 0 1 763.5,390.7969 L763.5,404.5938 L480,404.5938 L480,390.7969 A12.5,12.5 0 0 1 492.5,378.2969 " fill="#FEFECE" style="stroke:#FEFECE;stroke-width:1.0;"/><path d="M480,404.5938 L763.5,404.5938 L763.5,472.0938 A12.5,12.5 0 0 1 751,484.5938 L492.5,484.5938 A12.5,12.5 0 0 1 480,472.0938 L480,404.5938 " fill="#FEFECE" style="stroke:#FEFECE;stroke-width:1.0;"/><rect fill="none" height="106.2969" rx="12.5" ry="12.5" style="stroke:#A80036;stroke-width:1.0;" width="283.5" x="480" y="378.2969"/><line style="stroke:#A80036;stroke-width:1.0;" x1="480" x2="763.5" y1="404.5938" y2="404.5938"/><text fill="#000000" font-family="sans-serif" font-size="14" lengthAdjust="spacing" textLength="130" x="556.75" y="396.292">Accepted statuses</text><g id="AS.ACCEPTED"><rect fill="#FEFECE" filter="url(#f3dcvlw8e7rol)" height="50" rx="12.5" ry="12.5" style="stroke:#A80036;stroke-width:1.0;" width="96" x="492" y="416.5938"/><line style="stroke:#A80036;stroke-width:1.0;" x1="492" x2="588" y1="442.8906" y2="442.8906"/><text fill="#000000" font-family="sans-serif" font-size="14" lengthAdjust="spacing" textLength="76" x="502" y="434.5889">ACCEPTED</text></g><g id="AS.USER_ACCEPTED"><rect fill="#FEFECE" filter="url(#f3dcvlw8e7rol)" height="50" rx="12.5" ry="12.5" style="stroke:#A80036;stroke-width:1.0;" width="141" x="606.5" y="416.5938"/><line style="stroke:#A80036;stroke-width:1.0;" x1="606.5" x2="747.5" y1="442.8906" y2="442.8906"/><text fill="#000000" font-family="sans-serif" font-size="14" lengthAdjust="spacing" textLength="121" x="616.5" y="434.5889">USER_ACCEPTED</text></g><rect fill="none" filter="url(#f3dcvlw8e7rol)" height="106.2969" rx="12.5" ry="12.5" style="stroke:#A80036;stroke-width:1.0;" width="271.5" x="925.5" y="378.2969"/><path d="M938,378.2969 L1184.5,378.2969 A12.5,12.5 0 0 1 1197,390.7969 L1197,404.5938 L925.5,404.5938 L925.5,390.7969 A12.5,12.5 0 0 1 938,378.2969 " fill="#FEFECE" style="stroke:#FEFECE;stroke-width:1.0;"/><path d="M925.5,404.5938 L1197,404.5938 L1197,472.0938 A12.5,12.5 0 0 1 1184.5,484.5938 L938,484.5938 A12.5,12.5 0 0 1 925.5,472.0938 L925.5,404.5938 " fill="#FEFECE" style="stroke:#FEFECE;stroke-width:1.0;"/><rect fill="none" height="106.2969" rx="12.5" ry="12.5" style="stroke:#A80036;stroke-width:1.0;" width="271.5" x="925.5" y="378.2969"/><line style="stroke:#A80036;stroke-width:1.0;" x1="925.5" x2="1197" y1="404.5938" y2="404.5938"/><text fill="#000000" font-family="sans-serif" font-size="14" lengthAdjust="spacing" textLength="126" x="998.25" y="396.292">Rejected statuses</text><g id="RS.REJECTED"><rect fill="#FEFECE" filter="url(#f3dcvlw8e7rol)" height="50" rx="12.5" ry="12.5" style="stroke:#A80036;stroke-width:1.0;" width="90" x="937.5" y="416.5938"/><line style="stroke:#A80036;stroke-width:1.0;" x1="937.5" x2="1027.5" y1="442.8906" y2="442.8906"/><text fill="#000000" font-family="sans-serif" font-size="14" lengthAdjust="spacing" textLength="70" x="947.5" y="434.5889">REJECTED</text></g><g id="RS.USER_REJECTED"><rect fill="#FEFECE" filter="url(#f3dcvlw8e7rol)" height="50" rx="12.5" ry="12.5" style="stroke:#A80036;stroke-width:1.0;" width="135" x="1046" y="416.5938"/><line style="stroke:#A80036;stroke-width:1.0;" x1="1046" x2="1181" y1="442.8906" y2="442.8906"/><text fill="#000000" font-family="sans-serif" font-size="14" lengthAdjust="spacing" textLength="115" x="1056" y="434.5889">USER_REJECTED</text></g><rect fill="none" filter="url(#f3dcvlw8e7rol)" height="209.2969" rx="12.5" ry="12.5" style="stroke:#A80036;stroke-width:1.0;" width="554.5" x="381.5" y="688.2969"/><path d="M394,688.2969 L923.5,688.2969 A12.5,12.5 0 0 1 936,700.7969 L936,714.5938 L381.5,714.5938 L381.5,700.7969 A12.5,12.5 0 0 1 394,688.2969 " fill="#FEFECE" style="stroke:#FEFECE;stroke-width:1.0;"/><path d="M381.5,714.5938 L936,714.5938 L936,885.0938 A12.5,12.5 0 0 1 923.5,897.5938 L394,897.5938 A12.5,12.5 0 0 1 381.5,885.0938 L381.5,714.5938 " fill="#FEFECE" style="stroke:#FEFECE;stroke-width:1.0;"/><rect fill="none" height="209.2969" rx="12.5" ry="12.5" style="stroke:#A80036;stroke-width:1.0;" width="554.5" x="381.5" y="688.2969"/><line style="stroke:#A80036;stroke-width:1.0;" x1="381.5" x2="936" y1="714.5938" y2="714.5938"/><text fill="#000000" font-family="sans-serif" font-size="14" lengthAdjust="spacing" textLength="132" x="592.75" y="706.292">Cancelled statuses</text><g id="CS.CANCELLED"><rect fill="#FEFECE" filter="url(#f3dcvlw8e7rol)" height="50" rx="12.5" ry="12.5" style="stroke:#A80036;stroke-width:1.0;" width="102" x="610" y="726.5938"/><line style="stroke:#A80036;stroke-width:1.0;" x1="610" x2="712" y1="752.8906" y2="752.8906"/><text fill="#000000" font-family="sans-serif" font-size="14" lengthAdjust="spacing" textLength="82" x="620" y="744.5889">CANCELLED</text></g><g id="CS.CANCELLED_REJECTED"><rect fill="#FEFECE" filter="url(#f3dcvlw8e7rol)" height="50" rx="12.5" ry="12.5" style="stroke:#A80036;stroke-width:1.0;" width="179" x="393.5" y="829.5938"/><line style="stroke:#A80036;stroke-width:1.0;" x1="393.5" x2="572.5" y1="855.8906" y2="855.8906"/><text fill="#000000" font-family="sans-serif" font-size="14" lengthAdjust="spacing" textLength="159" x="403.5" y="847.5889">CANCELLED_REJECTED</text></g><g id="CS.CANCELLED_PAID"><rect fill="#FEFECE" filter="url(#f3dcvlw8e7rol)" height="50" rx="12.5" ry="12.5" style="stroke:#A80036;stroke-width:1.0;" width="141" x="590.5" y="829.5938"/><line style="stroke:#A80036;stroke-width:1.0;" x1="590.5" x2="731.5" y1="855.8906" y2="855.8906"/><text fill="#000000" font-family="sans-serif" font-size="14" lengthAdjust="spacing" textLength="121" x="600.5" y="847.5889">CANCELLED_PAID</text></g><g id="CS.CANCELLED_ACCR"><rect fill="#FEFECE" filter="url(#f3dcvlw8e7rol)" height="50" rx="12.5" ry="12.5" style="stroke:#A80036;stroke-width:1.0;" width="148" x="750" y="829.5938"/><line style="stroke:#A80036;stroke-width:1.0;" x1="750" x2="898" y1="855.8906" y2="855.8906"/><text fill="#000000" font-family="sans-serif" font-size="14" lengthAdjust="spacing" textLength="128" x="760" y="847.5889">CANCELLED_ACCR</text></g><!--link CANCELLED to CANCELLED_ACCR--><g id="link_CANCELLED_CANCELLED_ACCR"><path d="M712.22,761.5838 C736.46,767.7838 764.68,778.0038 786,794.5938 C796.26,802.5838 804.58,814.1637 810.78,824.9638 " fill="none" id="CANCELLED-to-CANCELLED_ACCR" style="stroke:#A80036;stroke-width:1.0;"/><polygon fill="#A80036" points="813.31,829.5238,812.4358,819.7138,810.8818,825.153,805.4426,823.5989,813.31,829.5238" style="stroke:#A80036;stroke-width:1.0;"/><text fill="#000000" font-family="sans-serif" font-size="13" lengthAdjust="spacing" textLength="124" x="802" y="807.6606">CANCEL_RTP_ACCR</text></g><!--link CANCELLED to CANCELLED_REJECTED--><g id="link_CANCELLED_CANCELLED_REJECTED"><path d="M609.63,754.6138 C576.1,758.5138 533.42,768.7238 505,794.5938 C496.45,802.3838 491.21,813.8038 488,824.5338 " fill="none" id="CANCELLED-to-CANCELLED_REJECTED" style="stroke:#A80036;stroke-width:1.0;"/><polygon fill="#A80036" points="486.67,829.4038,492.9143,821.7874,487.9964,824.5829,485.2009,819.6651,486.67,829.4038" style="stroke:#A80036;stroke-width:1.0;"/><text fill="#000000" font-family="sans-serif" font-size="13" lengthAdjust="spacing" textLength="150" x="506" y="807.6606">CANCEL_RTP_REJECTED</text></g><!--link CANCELLED to CANCELLED_PAID--><g id="link_CANCELLED_CANCELLED_PAID"><path d="M661,776.7838 C661,790.9238 661,808.8738 661,823.8738 " fill="none" id="CANCELLED-to-CANCELLED_PAID" style="stroke:#A80036;stroke-width:1.0;"/><polygon fill="#A80036" points="661,829.2538,665,820.2538,661,824.2538,657,820.2538,661,829.2538" style="stroke:#A80036;stroke-width:1.0;"/><text fill="#000000" font-family="sans-serif" font-size="13" lengthAdjust="spacing" textLength="119" x="662" y="807.6606">CANCEL_RTP_PAID</text></g><ellipse cx="170" cy="53.2969" fill="#A80036" filter="url(#f3dcvlw8e7rol)" rx="10" ry="10" style="stroke:none;stroke-width:1.0;"/><g id="PAID"><rect fill="#FEFECE" filter="url(#f3dcvlw8e7rol)" height="50" rx="12.5" ry="12.5" style="stroke:#A80036;stroke-width:1.0;" width="52" x="808" y="561.2969"/><line style="stroke:#A80036;stroke-width:1.0;" x1="808" x2="860" y1="587.5938" y2="587.5938"/><text fill="#000000" font-family="sans-serif" font-size="14" lengthAdjust="spacing" textLength="32" x="818" y="579.292">PAID</text></g><ellipse cx="907" cy="968.2969" fill="none" filter="url(#f3dcvlw8e7rol)" rx="10" ry="10" style="stroke:#A80036;stroke-width:1.0;"/><ellipse cx="907.5" cy="968.7969" fill="#A80036" rx="6" ry="6" style="stroke:none;stroke-width:1.0;"/><!--link *start* to CREATED--><g id="link_*start*_CREATED"><path d="M170,63.3069 C170,75.9969 170,99.7069 170,118.8669 " fill="none" id="*start*-to-CREATED" style="stroke:#A80036;stroke-width:1.0;"/><polygon fill="#A80036" points="170,124.1369,174,115.1369,170,119.1369,166,115.1369,170,124.1369" style="stroke:#A80036;stroke-width:1.0;"/></g><!--link CREATED to SENT--><g id="link_CREATED_SENT"><path d="M213.63,160.8469 C314.7,185.2869 563.09,245.3369 653.44,267.1869 " fill="none" id="CREATED-to-SENT" style="stroke:#A80036;stroke-width:1.0;"/><polygon fill="#A80036" points="658.4,268.3769,650.5887,262.3783,653.5394,267.2046,648.713,270.1553,658.4,268.3769" style="stroke:#A80036;stroke-width:1.0;"/><text fill="#000000" font-family="sans-serif" font-size="13" lengthAdjust="spacing" textLength="67" x="460" y="217.3638">SEND_RTP</text></g><!--link CREATED to ERROR_SEND--><g id="link_CREATED_ERROR_SEND"><path d="M160.98,174.3469 C152.47,199.2369 141,239.4269 141,275.2969 C141,275.2969 141,275.2969 141,587.2969 C141,650.4569 125.47,723.1969 115.72,762.6469 " fill="none" id="CREATED-to-ERROR_SEND" style="stroke:#A80036;stroke-width:1.0;"/><polygon fill="#A80036" points="114.44,767.7569,120.5088,759.9999,115.656,762.907,112.749,758.0543,114.44,767.7569" style="stroke:#A80036;stroke-width:1.0;"/><text fill="#000000" font-family="sans-serif" font-size="13" lengthAdjust="spacing" textLength="116" x="142" y="435.8638">ERROR_SEND_RTP</text></g><!--link SENT to AS--><g id="link_SENT_AS"><path d="M658.42,280.6569 C628.61,285.8469 583.3,298.8969 562,331.2969 C553.05,344.9169 555.79,359.8469 563.72,373.8869 " fill="none" id="SENT-to-AS" style="stroke:#A80036;stroke-width:1.0;"/><polygon fill="#A80036" points="566.33,378.2169,565.0911,368.4462,563.7407,373.9395,558.2474,372.5891,566.33,378.2169" style="stroke:#A80036;stroke-width:1.0;"/><text fill="#000000" font-family="sans-serif" font-size="13" lengthAdjust="spacing" textLength="80" x="563" y="344.3638">ACCEPT_RTP</text></g><!--link SENT to AS--><g id="link_SENT_AS"><path d="M676.7,301.5369 C668.48,320.8969 656.62,348.7969 646.05,373.6869 " fill="none" id="SENT-to-AS-1" style="stroke:#A80036;stroke-width:1.0;"/><polygon fill="#A80036" points="644.09,378.2969,651.2942,371.5813,646.0475,373.696,643.9328,368.4493,644.09,378.2969" style="stroke:#A80036;stroke-width:1.0;"/><text fill="#000000" font-family="sans-serif" font-size="13" lengthAdjust="spacing" textLength="122" x="663" y="344.3638">USER_ACCEPT_RTP</text></g><!--link SENT to RS--><g id="link_SENT_RS"><path d="M715.64,284.7669 C750.34,294.1469 810.33,311.4469 860,331.2969 C892.62,344.3269 927.24,360.4869 958.39,375.9469 " fill="none" id="SENT-to-RS" style="stroke:#A80036;stroke-width:1.0;"/><polygon fill="#A80036" points="962.96,378.2169,956.6893,370.6223,958.485,375.9865,953.1207,377.7822,962.96,378.2169" style="stroke:#A80036;stroke-width:1.0;"/><text fill="#000000" font-family="sans-serif" font-size="13" lengthAdjust="spacing" textLength="73" x="900" y="344.3638">REJECT_RTP</text></g><!--link SENT to RS--><g id="link_SENT_RS"><path d="M715.78,279.9869 C780.85,286.4669 937.1,304.4269 982,331.2969 C999.66,341.8569 1014.96,357.9269 1027.27,374.0669 " fill="none" id="SENT-to-RS-1" style="stroke:#A80036;stroke-width:1.0;"/><polygon fill="#A80036" points="1030.34,378.1669,1028.162,368.5619,1027.3492,374.16,1021.751,373.3472,1030.34,378.1669" style="stroke:#A80036;stroke-width:1.0;"/><text fill="#000000" font-family="sans-serif" font-size="13" lengthAdjust="spacing" textLength="115" x="1004" y="344.3638">USER_REJECT_RTP</text></g><!--link SENT to PAID--><g id="link_SENT_PAID"><path d="M715.92,283.9969 C740.69,291.3069 775.25,305.5669 794,331.2969 C843.7,399.4869 841.81,505.4369 837.43,556.2269 " fill="none" id="SENT-to-PAID" style="stroke:#A80036;stroke-width:1.0;"/><polygon fill="#A80036" points="836.97,561.2569,841.7528,552.6473,837.4136,556.2766,833.7843,551.9375,836.97,561.2569" style="stroke:#A80036;stroke-width:1.0;"/><text fill="#000000" font-family="sans-serif" font-size="13" lengthAdjust="spacing" textLength="54" x="839" y="435.8638">PAY_RTP</text></g><!--link AS to PAID--><g id="link_AS_PAID"><path d="M688.48,484.3169 C708.67,499.7269 731.05,516.4469 752,531.2969 C768.78,543.1869 787.96,555.8669 803.55,565.9469 " fill="none" id="AS-to-PAID" style="stroke:#A80036;stroke-width:1.0;"/><polygon fill="#A80036" points="807.84,568.7169,802.4522,560.4724,803.6406,566.003,798.11,567.1914,807.84,568.7169" style="stroke:#A80036;stroke-width:1.0;"/><text fill="#000000" font-family="sans-serif" font-size="13" lengthAdjust="spacing" textLength="54" x="753" y="527.3638">PAY_RTP</text></g><!--link SENT to RFC_SENT--><g id="link_SENT_RFC_SENT"><path d="M658.24,276.5969 C595.12,276.8269 444.87,287.3869 379,378.2969 C339.3,433.0969 384.2,514.4269 413.59,556.9969 " fill="none" id="SENT-to-RFC_SENT" style="stroke:#A80036;stroke-width:1.0;"/><polygon fill="#A80036" points="416.55,561.2369,414.6635,551.5704,413.6817,557.1414,408.1107,556.1596,416.55,561.2369" style="stroke:#A80036;stroke-width:1.0;"/><text fill="#000000" font-family="sans-serif" font-size="13" lengthAdjust="spacing" textLength="82" x="380" y="435.8638">CANCEL_RTP</text></g><!--link AS to RFC_SENT--><g id="link_AS_RFC_SENT"><path d="M558.43,484.3069 C528.18,509.0569 493.25,537.6369 468.29,558.0569 " fill="none" id="AS-to-RFC_SENT" style="stroke:#A80036;stroke-width:1.0;"/><polygon fill="#A80036" points="464.37,561.2669,473.867,558.6578,468.2379,558.0984,468.7974,552.4692,464.37,561.2669" style="stroke:#A80036;stroke-width:1.0;"/><text fill="#000000" font-family="sans-serif" font-size="13" lengthAdjust="spacing" textLength="82" x="518" y="527.3638">CANCEL_RTP</text></g><!--link RFC_SENT to CS--><g id="link_RFC_SENT_CS"><path d="M477.57,611.3369 C491.62,620.0469 506.98,630.4269 520,641.2969 C535.73,654.4269 551.42,669.2769 566.3,684.3969 " fill="none" id="RFC_SENT-to-CS" style="stroke:#A80036;stroke-width:1.0;"/><polygon fill="#A80036" points="570.06,688.2469,566.6548,679.0054,566.5748,684.6617,560.9185,684.5817,570.06,688.2469" style="stroke:#A80036;stroke-width:1.0;"/><text fill="#000000" font-family="sans-serif" font-size="13" lengthAdjust="spacing" textLength="89" x="537" y="654.3638">CONFIRM_RFC</text></g><!--link RFC_SENT to ERROR_CANCEL--><g id="link_RFC_SENT_ERROR_CANCEL"><path d="M410.6,611.4969 C401.69,620.6269 391.67,631.2469 383,641.2969 C347.68,682.2569 310.03,732.4769 287.51,763.2969 " fill="none" id="RFC_SENT-to-ERROR_CANCEL" style="stroke:#A80036;stroke-width:1.0;"/><polygon fill="#A80036" points="284.3,767.6969,292.8306,762.7745,287.2426,763.6544,286.3626,758.0664,284.3,767.6969" style="stroke:#A80036;stroke-width:1.0;"/><text fill="#000000" font-family="sans-serif" font-size="13" lengthAdjust="spacing" textLength="131" x="384" y="654.3638">ERROR_CANCEL_RTP</text></g><!--link PAID to *end*--><g id="link_PAID_*end*"><path d="M860.21,600.3369 C889.32,616.4669 934.76,646.9469 954,688.2969 C993.19,772.5169 981.06,808.4369 954,897.2969 C946.8,920.9469 928.64,943.8669 917.12,956.7169 " fill="none" id="PAID-to-*end*" style="stroke:#A80036;stroke-width:1.0;"/><polygon fill="#A80036" points="913.49,960.6769,922.516,956.7359,916.8647,956.9875,916.6131,951.3363,913.49,960.6769" style="stroke:#A80036;stroke-width:1.0;"/></g><!--link RS to *end*--><g id="link_RS_*end*"><path d="M1062.58,484.5069 C1063.3,573.4769 1056.06,758.3269 992,897.2969 C977.47,928.8269 940.78,950.8469 920.68,960.9869 " fill="none" id="RS-to-*end*" style="stroke:#A80036;stroke-width:1.0;"/><polygon fill="#A80036" points="915.95,963.3069,925.7918,962.9352,920.4392,961.1052,922.2691,955.7525,915.95,963.3069" style="stroke:#A80036;stroke-width:1.0;"/></g><!--link ES to *end*--><g id="link_ES_*end*"><path d="M11.852,842.0622 C11.8767,842.4115 11.9027,842.7613 11.93,843.1115 C12.1483,845.9136 12.4497,848.7454 12.8495,851.5806 C13.649,857.2509 14.8423,862.9348 16.5523,868.4217 C19.9725,879.3956 25.46,889.5819 34,897.2969 C100.3,957.1869 780.71,966.1069 891.72,967.1669 " fill="none" id="ES-to-*end*" style="stroke:#A80036;stroke-width:1.0;"/><polygon fill="#A80036" points="896.85,967.2169,887.8846,963.1399,891.8502,967.174,887.816,971.1396,896.85,967.2169" style="stroke:#A80036;stroke-width:1.0;"/></g><!--link CS to *end*--><g id="link_CS_*end*"><path d="M807.2,897.4769 C843.51,922.8769 876.94,946.2669 894.37,958.4669 " fill="none" id="CS-to-*end*" style="stroke:#A80036;stroke-width:1.0;"/><polygon fill="#A80036" points="898.85,961.5969,893.7727,953.1576,894.7545,958.7286,889.1835,959.7104,898.85,961.5969" style="stroke:#A80036;stroke-width:1.0;"/></g><!--SRC=[TLB1JiCm3BtdAwnTa93s0piWHLc6XaPNfUM04AgYBaA1ig0cum3YtudJBcbOwQNsU_QpOzk-wIFqnYhYjEiKYBg4oacdOAtbIo_V2R71POBJcgz7h-95FPfYmnfquHovu7rlUa3dP9LTWBJ0A_WcuByXX0kn5vYrlW0PBHZVaP-eHjjMVJXro0LfBaWPuoMsbw27YeicuabFg5VLNkY9N4_mEyvcz2AUz9Wyjghh_WgoN71urYvJZ5WpKowH9TtE4_vn0Xjvkdw6vV8cheYCHW33QbRuysNgCkFI6dn4Sa8S2OaOvKUz6WSSc4W898RMSo9aJEO_apQPPixYQprVqiU0UwaPb5n1SJAV1ZRToLg3DpZHFn_aQfpLL6YUz7gtoZfjZWgKrKx3GSPG4dF2aB5xjYysMt7VODsCdTvmd6bUg3BE6LobBwAX7Qv7Vc5j4dSxbCesdNKyxFw_yFCvvIdnoFvB6uSyIGcdHmAEeVxGYAYYoPF9alaB]--></g></svg>