<?xml version="1.0" encoding="us-ascii" standalone="no"?><svg xmlns="http://www.w3.org/2000/svg" xmlns:xlink="http://www.w3.org/1999/xlink" contentStyleType="text/css" height="676px" preserveAspectRatio="none" style="width:874px;height:676px;background:#FFFFFF;" version="1.1" viewBox="0 0 874 676" width="874px" zoomAndPan="magnify"><defs/><g><text fill="#000000" font-family="sans-serif" font-size="14" font-weight="bold" lengthAdjust="spacing" textLength="357" x="259.5" y="27.9951">RTP Consumer &#8212; Message flow (GPD -&gt; RTP)</text><rect fill="#FFFFFF" height="526.7344" style="stroke:#181818;stroke-width:1.0;" width="10" x="221" y="104.7266"/><rect fill="#FFFFFF" height="29.1328" style="stroke:#181818;stroke-width:1.0;" width="10" x="351" y="200.125"/><rect fill="#FFFFFF" height="53.2656" style="stroke:#181818;stroke-width:1.0;" width="10" x="498" y="258.3906"/><rect fill="#FFFFFF" height="29.1328" style="stroke:#181818;stroke-width:1.0;" width="10" x="625" y="413.8594"/><rect fill="#FFFFFF" height="64.2656" style="stroke:#181818;stroke-width:1.0;" width="10" x="625" y="523.0625"/><rect fill="none" height="462.6016" style="stroke:#000000;stroke-width:1.5;" width="857" x="10" y="161.8594"/><rect fill="none" height="206.7344" style="stroke:#000000;stroke-width:1.5;" width="693.5" x="20" y="273.3906"/><line style="stroke:#181818;stroke-width:0.5;stroke-dasharray:5.0,5.0;" x1="91" x2="91" y1="73.5938" y2="641.4609"/><line style="stroke:#181818;stroke-width:0.5;stroke-dasharray:5.0,5.0;" x1="226" x2="226" y1="73.5938" y2="641.4609"/><line style="stroke:#181818;stroke-width:0.5;stroke-dasharray:5.0,5.0;" x1="355.5" x2="355.5" y1="73.5938" y2="641.4609"/><line style="stroke:#181818;stroke-width:0.5;stroke-dasharray:5.0,5.0;" x1="502.5" x2="502.5" y1="73.5938" y2="641.4609"/><line style="stroke:#181818;stroke-width:0.5;stroke-dasharray:5.0,5.0;" x1="629.5" x2="629.5" y1="73.5938" y2="641.4609"/><path d="M35,47.2969 L147,47.2969 C152,47.2969 152,60.4453 152,60.4453 C152,60.4453 152,73.5938 147,73.5938 L35,73.5938 C30,73.5938 30,60.4453 30,60.4453 C30,60.4453 30,47.2969 35,47.2969 " fill="#E2E2F0" style="stroke:#181818;stroke-width:0.5;"/><path d="M147,47.2969 C142,47.2969 142,60.4453 142,60.4453 C142,73.5938 147,73.5938 147,73.5938 " fill="none" style="stroke:#181818;stroke-width:0.5;"/><text fill="#000000" font-family="sans-serif" font-size="14" lengthAdjust="spacing" textLength="102" x="35" y="65.292">GPD EventHub</text><path d="M35,640.4609 L147,640.4609 C152,640.4609 152,653.6094 152,653.6094 C152,653.6094 152,666.7578 147,666.7578 L35,666.7578 C30,666.7578 30,653.6094 30,653.6094 C30,653.6094 30,640.4609 35,640.4609 " fill="#E2E2F0" style="stroke:#181818;stroke-width:0.5;"/><path d="M147,640.4609 C142,640.4609 142,653.6094 142,653.6094 C142,666.7578 147,666.7578 147,666.7578 " fill="none" style="stroke:#181818;stroke-width:0.5;"/><text fill="#000000" font-family="sans-serif" font-size="14" lengthAdjust="spacing" textLength="102" x="35" y="658.4561">GPD EventHub</text><rect fill="#E2E2F0" height="30.2969" rx="2.5" ry="2.5" style="stroke:#181818;stroke-width:0.5;" width="108" x="172" y="42.2969"/><text fill="#000000" font-family="sans-serif" font-size="14" lengthAdjust="spacing" textLength="94" x="179" y="62.292">rtp-consumer</text><rect fill="#E2E2F0" height="30.2969" rx="2.5" ry="2.5" style="stroke:#181818;stroke-width:0.5;" width="108" x="172" y="640.4609"/><text fill="#000000" font-family="sans-serif" font-size="14" lengthAdjust="spacing" textLength="94" x="179" y="660.4561">rtp-consumer</text><rect fill="#E2E2F0" height="30.2969" rx="2.5" ry="2.5" style="stroke:#181818;stroke-width:0.5;" width="69" x="321.5" y="42.2969"/><text fill="#000000" font-family="sans-serif" font-size="14" lengthAdjust="spacing" textLength="55" x="328.5" y="62.292">mil-auth</text><rect fill="#E2E2F0" height="30.2969" rx="2.5" ry="2.5" style="stroke:#181818;stroke-width:0.5;" width="69" x="321.5" y="640.4609"/><text fill="#000000" font-family="sans-serif" font-size="14" lengthAdjust="spacing" textLength="55" x="328.5" y="660.4561">mil-auth</text><rect fill="#E2E2F0" height="30.2969" rx="2.5" ry="2.5" style="stroke:#181818;stroke-width:0.5;" width="87" x="459.5" y="42.2969"/><text fill="#000000" font-family="sans-serif" font-size="14" lengthAdjust="spacing" textLength="73" x="466.5" y="62.292">rtp-sender</text><rect fill="#E2E2F0" height="30.2969" rx="2.5" ry="2.5" style="stroke:#181818;stroke-width:0.5;" width="87" x="459.5" y="640.4609"/><text fill="#000000" font-family="sans-serif" font-size="14" lengthAdjust="spacing" textLength="73" x="466.5" y="660.4561">rtp-sender</text><path d="M561.5,47.2969 L698.5,47.2969 C703.5,47.2969 703.5,60.4453 703.5,60.4453 C703.5,60.4453 703.5,73.5938 698.5,73.5938 L561.5,73.5938 C556.5,73.5938 556.5,60.4453 556.5,60.4453 C556.5,60.4453 556.5,47.2969 561.5,47.2969 " fill="#E2E2F0" style="stroke:#181818;stroke-width:0.5;"/><path d="M698.5,47.2969 C693.5,47.2969 693.5,60.4453 693.5,60.4453 C693.5,73.5938 698.5,73.5938 698.5,73.5938 " fill="none" style="stroke:#181818;stroke-width:0.5;"/><text fill="#000000" font-family="sans-serif" font-size="14" lengthAdjust="spacing" textLength="127" x="561.5" y="65.292">Dead-letter queue</text><path d="M561.5,640.4609 L698.5,640.4609 C703.5,640.4609 703.5,653.6094 703.5,653.6094 C703.5,653.6094 703.5,666.7578 698.5,666.7578 L561.5,666.7578 C556.5,666.7578 556.5,653.6094 556.5,653.6094 C556.5,653.6094 556.5,640.4609 561.5,640.4609 " fill="#E2E2F0" style="stroke:#181818;stroke-width:0.5;"/><path d="M698.5,640.4609 C693.5,640.4609 693.5,653.6094 693.5,653.6094 C693.5,666.7578 698.5,666.7578 698.5,666.7578 " fill="none" style="stroke:#181818;stroke-width:0.5;"/><text fill="#000000" font-family="sans-serif" font-size="14" lengthAdjust="spacing" textLength="127" x="561.5" y="658.4561">Dead-letter queue</text><rect fill="#FFFFFF" height="526.7344" style="stroke:#181818;stroke-width:1.0;" width="10" x="221" y="104.7266"/><rect fill="#FFFFFF" height="29.1328" style="stroke:#181818;stroke-width:1.0;" width="10" x="351" y="200.125"/><rect fill="#FFFFFF" height="53.2656" style="stroke:#181818;stroke-width:1.0;" width="10" x="498" y="258.3906"/><rect fill="#FFFFFF" height="29.1328" style="stroke:#181818;stroke-width:1.0;" width="10" x="625" y="413.8594"/><rect fill="#FFFFFF" height="64.2656" style="stroke:#181818;stroke-width:1.0;" width="10" x="625" y="523.0625"/><polygon fill="#181818" points="209,100.7266,219,104.7266,209,108.7266,213,104.7266" style="stroke:#181818;stroke-width:1.0;"/><line style="stroke:#181818;stroke-width:1.0;" x1="91" x2="215" y1="104.7266" y2="104.7266"/><text fill="#000000" font-family="sans-serif" font-size="13" lengthAdjust="spacing" textLength="111" x="98" y="99.6606">Message payload</text><line style="stroke:#181818;stroke-width:1.0;" x1="231" x2="273" y1="133.8594" y2="133.8594"/><line style="stroke:#181818;stroke-width:1.0;" x1="273" x2="273" y1="133.8594" y2="146.8594"/><line style="stroke:#181818;stroke-width:1.0;" x1="232" x2="273" y1="146.8594" y2="146.8594"/><polygon fill="#181818" points="242,142.8594,232,146.8594,242,150.8594,238,146.8594" style="stroke:#181818;stroke-width:1.0;"/><text fill="#000000" font-family="sans-serif" font-size="13" lengthAdjust="spacing" textLength="106" x="238" y="128.7935">Validate payload</text><path d="M10,161.8594 L74,161.8594 L74,168.9922 L64,178.9922 L10,178.9922 L10,161.8594 " fill="#EEEEEE" style="stroke:#000000;stroke-width:1.5;"/><rect fill="none" height="462.6016" style="stroke:#000000;stroke-width:1.5;" width="857" x="10" y="161.8594"/><text fill="#000000" font-family="sans-serif" font-size="13" font-weight="bold" lengthAdjust="spacing" textLength="19" x="25" y="174.9263">alt</text><text fill="#000000" font-family="sans-serif" font-size="11" font-weight="bold" lengthAdjust="spacing" textLength="98" x="89" y="174.0698">[Validation OK]</text><polygon fill="#181818" points="339,196.125,349,200.125,339,204.125,343,200.125" style="stroke:#181818;stroke-width:1.0;"/><line style="stroke:#181818;stroke-width:1.0;" x1="231" x2="345" y1="200.125" y2="200.125"/><text fill="#000000" font-family="sans-serif" font-size="13" lengthAdjust="spacing" textLength="78" x="238" y="195.0591">POST /token</text><polygon fill="#181818" points="242,225.2578,232,229.2578,242,233.2578,238,229.2578" style="stroke:#181818;stroke-width:1.0;"/><line style="stroke:#181818;stroke-width:1.0;stroke-dasharray:2.0,2.0;" x1="236" x2="355" y1="229.2578" y2="229.2578"/><text fill="#000000" font-family="sans-serif" font-size="13" lengthAdjust="spacing" textLength="96" x="248" y="224.1919">200 OK (token)</text><polygon fill="#181818" points="486,254.3906,496,258.3906,486,262.3906,490,258.3906" style="stroke:#181818;stroke-width:1.0;"/><line style="stroke:#181818;stroke-width:1.0;" x1="231" x2="492" y1="258.3906" y2="258.3906"/><text fill="#000000" font-family="sans-serif" font-size="13" lengthAdjust="spacing" textLength="248" x="238" y="253.3247">POST /gpd/message (payload + token)</text><path d="M20,273.3906 L84,273.3906 L84,280.5234 L74,290.5234 L20,290.5234 L20,273.3906 " fill="#EEEEEE" style="stroke:#000000;stroke-width:1.5;"/><rect fill="none" height="206.7344" style="stroke:#000000;stroke-width:1.5;" width="693.5" x="20" y="273.3906"/><text fill="#000000" font-family="sans-serif" font-size="13" font-weight="bold" lengthAdjust="spacing" textLength="19" x="35" y="286.4575">alt</text><text fill="#000000" font-family="sans-serif" font-size="11" font-weight="bold" lengthAdjust="spacing" textLength="67" x="99" y="285.6011">[POST OK]</text><polygon fill="#181818" points="242,307.6563,232,311.6563,242,315.6563,238,311.6563" style="stroke:#181818;stroke-width:1.0;"/><line style="stroke:#181818;stroke-width:1.0;stroke-dasharray:2.0,2.0;" x1="236" x2="502" y1="311.6563" y2="311.6563"/><text fill="#000000" font-family="sans-serif" font-size="13" lengthAdjust="spacing" textLength="83" x="248" y="306.5903">200 OK (RTP)</text><polygon fill="#181818" points="102,336.7891,92,340.7891,102,344.7891,98,340.7891" style="stroke:#181818;stroke-width:1.0;"/><line style="stroke:#181818;stroke-width:1.0;stroke-dasharray:2.0,2.0;" x1="96" x2="220" y1="340.7891" y2="340.7891"/><text fill="#000000" font-family="sans-serif" font-size="13" lengthAdjust="spacing" textLength="23" x="108" y="335.7231">Ack</text><line style="stroke:#000000;stroke-width:1.0;stroke-dasharray:2.0,2.0;" x1="20" x2="713.5" y1="349.7891" y2="349.7891"/><text fill="#000000" font-family="sans-serif" font-size="11" font-weight="bold" lengthAdjust="spacing" textLength="216" x="25" y="359.9995">[POST failed (4xx / 5xx / timeout)]</text><polygon fill="#181818" points="242,380.7266,232,384.7266,242,388.7266,238,384.7266" style="stroke:#181818;stroke-width:1.0;"/><line style="stroke:#181818;stroke-width:1.0;stroke-dasharray:2.0,2.0;" x1="236" x2="502" y1="384.7266" y2="384.7266"/><text fill="#000000" font-family="sans-serif" font-size="13" lengthAdjust="spacing" textLength="93" x="248" y="379.6606">Error / timeout</text><polygon fill="#181818" points="613,409.8594,623,413.8594,613,417.8594,617,413.8594" style="stroke:#181818;stroke-width:1.0;"/><line style="stroke:#181818;stroke-width:1.0;" x1="231" x2="619" y1="413.8594" y2="413.8594"/><text fill="#000000" font-family="sans-serif" font-size="13" lengthAdjust="spacing" textLength="153" x="238" y="408.7935">Enqueue failure payload</text><polygon fill="#181818" points="242,438.9922,232,442.9922,242,446.9922,238,442.9922" style="stroke:#181818;stroke-width:1.0;"/><line style="stroke:#181818;stroke-width:1.0;stroke-dasharray:2.0,2.0;" x1="236" x2="629" y1="442.9922" y2="442.9922"/><text fill="#000000" font-family="sans-serif" font-size="13" lengthAdjust="spacing" textLength="64" x="248" y="437.9263">Ack (DLQ)</text><polygon fill="#181818" points="102,468.125,92,472.125,102,476.125,98,472.125" style="stroke:#181818;stroke-width:1.0;"/><line style="stroke:#181818;stroke-width:1.0;stroke-dasharray:2.0,2.0;" x1="96" x2="220" y1="472.125" y2="472.125"/><text fill="#000000" font-family="sans-serif" font-size="13" lengthAdjust="spacing" textLength="23" x="108" y="467.0591">Ack</text><line style="stroke:#000000;stroke-width:1.0;stroke-dasharray:2.0,2.0;" x1="10" x2="867" y1="488.125" y2="488.125"/><text fill="#000000" font-family="sans-serif" font-size="11" font-weight="bold" lengthAdjust="spacing" textLength="116" x="15" y="498.3354">[Validation failed]</text><polygon fill="#181818" points="613,519.0625,623,523.0625,613,527.0625,617,523.0625" style="stroke:#181818;stroke-width:1.0;"/><line style="stroke:#181818;stroke-width:1.0;" x1="231" x2="619" y1="523.0625" y2="523.0625"/><text fill="#000000" font-family="sans-serif" font-size="13" lengthAdjust="spacing" textLength="154" x="238" y="517.9966">Enqueue invalid payload</text><path d="M640,536.0625 L640,561.0625 L857,561.0625 L857,546.0625 L847,536.0625 L640,536.0625 " fill="#FEFFDD" style="stroke:#181818;stroke-width:0.5;"/><path d="M847,536.0625 L847,546.0625 L857,546.0625 L847,536.0625 " fill="#FEFFDD" style="stroke:#181818;stroke-width:0.5;"/><text fill="#000000" font-family="sans-serif" font-size="13" lengthAdjust="spacing" textLength="196" x="646" y="553.1294">Malformed or invalid message.</text><polygon fill="#181818" points="242,583.3281,232,587.3281,242,591.3281,238,587.3281" style="stroke:#181818;stroke-width:1.0;"/><line style="stroke:#181818;stroke-width:1.0;stroke-dasharray:2.0,2.0;" x1="236" x2="629" y1="587.3281" y2="587.3281"/><text fill="#000000" font-family="sans-serif" font-size="13" lengthAdjust="spacing" textLength="64" x="248" y="582.2622">Ack (DLQ)</text><polygon fill="#181818" points="102,612.4609,92,616.4609,102,620.4609,98,616.4609" style="stroke:#181818;stroke-width:1.0;"/><line style="stroke:#181818;stroke-width:1.0;stroke-dasharray:2.0,2.0;" x1="96" x2="220" y1="616.4609" y2="616.4609"/><text fill="#000000" font-family="sans-serif" font-size="13" lengthAdjust="spacing" textLength="23" x="108" y="611.395">Ack</text><!--SRC=[TL7DJi904BxlKqmubPWACNhXO48AaKGRq1BlAnrWmtQtRhU8Dn_29_H9t5dQKWjUccRc-zsnmag4b-K28gsACaC3Fr_V46DHy0t2MkeF21uM4mZl2TLdxBt44g57i-aUbPsLRptW1KndBEV6YfN8kRBGCpOFLvMc1qH_zvcG8I_jrk_YyJcvG9LMrAHsdI1FGudMkfn-vDUJfsV6fZFA6C6e2P_pJwbvolZAYZstw1Amg0QzSYbI6jOengMjfq8hc3yo00-Fnmw_c2TB65YzG-NcZQGB3WG8AzcRuT0n8V30ljkbsCRMaacZkCdJGLO53geiS0KDls4dHAQCdkVJWTFf6liZqQfbdFX1vB7kcKOmNkr83MM1Hxar5n9J26uF1nZ0dVzQaQ4kRRzZD3L6czFwtAiskwUx444TZqSUfJazEC4Q6fsG1aIfdLnA2DpWh8-_zuLAhf5oX_IrMfSybcCNGmcr9s0hL2UIqkxNYCtMWbutCMCkrzfaxidSMzGQrHclZpaya_tVwBnFfutlqa95lm00]--></g></svg>