<svg xmlns="http://www.w3.org/2000/svg" xmlns:xlink="http://www.w3.org/1999/xlink" contentStyleType="text/css" data-diagram-type="SEQUENCE" height="680px" preserveAspectRatio="none" style="width:863px;height:680px;background:#FFFFFF;" version="1.1" viewBox="0 0 863 680" width="863px" zoomAndPan="magnify"><title>RTP Consumer &#8212; Message flow (GPD -&gt; RTP)</title><defs/><g><text fill="#000000" font-family="sans-serif" font-size="14" font-weight="bold" lengthAdjust="spacing" textLength="329.8408" x="267.6448" y="28.5352">RTP Consumer &#8212; Message flow (GPD -&gt; RTP)</text><g><title>rtp-consumer</title><rect fill="#FFFFFF" height="529.8789" style="stroke:#181818;stroke-width:1;" width="10" x="215.1519" y="105.2871"/></g><g><title>mil-auth</title><rect fill="#FFFFFF" height="29.3105" style="stroke:#181818;stroke-width:1;" width="10" x="353.1836" y="201.2188"/></g><g><title>rtp-sender</title><rect fill="#FFFFFF" height="53.6211" style="stroke:#181818;stroke-width:1;" width="10" x="490.1807" y="259.8398"/></g><g><title>Dead-letter queue</title><rect fill="#FFFFFF" height="29.3105" style="stroke:#181818;stroke-width:1;" width="10" x="616.5991" y="416.3477"/></g><g><title>Dead-letter queue</title><rect fill="#FFFFFF" height="64.6211" style="stroke:#181818;stroke-width:1;" width="10" x="616.5991" y="526.2344"/></g><rect fill="none" height="465.5684" style="stroke:#000000;stroke-width:1.5;" width="846.1304" x="10" y="162.5977"/><rect fill="none" height="208.1289" style="stroke:#000000;stroke-width:1.5;" width="684.0967" x="20" y="274.8398"/><g><title>GPD EventHub</title><rect fill="#000000" fill-opacity="0.00000" height="571.1895" width="8" x="84.5591" y="73.9766"/><line style="stroke:#181818;stroke-width:0.5;stroke-dasharray:5,5;" x1="88" x2="88" y1="73.9766" y2="645.166"/></g><g><title>rtp-consumer</title><rect fill="#000000" fill-opacity="0.00000" height="571.1895" width="8" x="216.1519" y="73.9766"/><line style="stroke:#181818;stroke-width:0.5;stroke-dasharray:5,5;" x1="219.772" x2="219.772" y1="73.9766" y2="645.166"/></g><g><title>mil-auth</title><rect fill="#000000" fill-opacity="0.00000" height="571.1895" width="8" x="354.1836" y="73.9766"/><line style="stroke:#181818;stroke-width:0.5;stroke-dasharray:5,5;" x1="357.3789" x2="357.3789" y1="73.9766" y2="645.166"/></g><g><title>rtp-sender</title><rect fill="#000000" fill-opacity="0.00000" height="571.1895" width="8" x="491.1807" y="73.9766"/><line style="stroke:#181818;stroke-width:0.5;stroke-dasharray:5,5;" x1="494.2598" x2="494.2598" y1="73.9766" y2="645.166"/></g><g><title>Dead-letter queue</title><rect fill="#000000" fill-opacity="0.00000" height="571.1895" width="8" x="617.5991" y="73.9766"/><line style="stroke:#181818;stroke-width:0.5;stroke-dasharray:5,5;" x1="621.1016" x2="621.1016" y1="73.9766" y2="645.166"/></g><g class="participant participant-head" data-participant="EH"><path d="M35,47.4883 L142.1182,47.4883 C147.1182,47.4883 147.1182,60.7324 147.1182,60.7324 C147.1182,60.7324 147.1182,73.9766 142.1182,73.9766 L35,73.9766 C30,73.9766 30,60.7324 30,60.7324 C30,60.7324 30,47.4883 35,47.4883" fill="#E2E2F0" style="stroke:#181818;stroke-width:0.5;"/><path d="M142.1182,47.4883 C137.1182,47.4883 137.1182,60.7324 137.1182,60.7324 C137.1182,73.9766 142.1182,73.9766 142.1182,73.9766" fill="none" style="stroke:#181818;stroke-width:0.5;"/><text fill="#000000" font-family="sans-serif" font-size="14" lengthAdjust="spacing" textLength="97.1182" x="35" y="66.0234">GPD EventHub</text></g><g class="participant participant-tail" data-participant="EH"><path d="M35,644.166 L142.1182,644.166 C147.1182,644.166 147.1182,657.4102 147.1182,657.4102 C147.1182,657.4102 147.1182,670.6543 142.1182,670.6543 L35,670.6543 C30,670.6543 30,657.4102 30,657.4102 C30,657.4102 30,644.166 35,644.166" fill="#E2E2F0" style="stroke:#181818;stroke-width:0.5;"/><path d="M142.1182,644.166 C137.1182,644.166 137.1182,657.4102 137.1182,657.4102 C137.1182,670.6543 142.1182,670.6543 142.1182,670.6543" fill="none" style="stroke:#181818;stroke-width:0.5;"/><text fill="#000000" font-family="sans-serif" font-size="14" lengthAdjust="spacing" textLength="97.1182" x="35" y="662.7012">GPD EventHub</text></g><g class="participant participant-head" data-participant="C"><rect fill="#E2E2F0" height="30.4883" rx="2.5" ry="2.5" style="stroke:#181818;stroke-width:0.5;" width="108.7598" x="165.772" y="42.4883"/><text fill="#000000" font-family="sans-serif" font-size="14" lengthAdjust="spacing" textLength="94.7598" x="172.772" y="63.0234">rtp-consumer</text></g><g class="participant participant-tail" data-participant="C"><rect fill="#E2E2F0" height="30.4883" rx="2.5" ry="2.5" style="stroke:#181818;stroke-width:0.5;" width="108.7598" x="165.772" y="644.166"/><text fill="#000000" font-family="sans-serif" font-size="14" lengthAdjust="spacing" textLength="94.7598" x="172.772" y="664.7012">rtp-consumer</text></g><g class="participant participant-head" data-participant="MA"><rect fill="#E2E2F0" height="30.4883" rx="2.5" ry="2.5" style="stroke:#181818;stroke-width:0.5;" width="73.6094" x="321.3789" y="42.4883"/><text fill="#000000" font-family="sans-serif" font-size="14" lengthAdjust="spacing" textLength="59.6094" x="328.3789" y="63.0234">mil-auth</text></g><g class="participant participant-tail" data-participant="MA"><rect fill="#E2E2F0" height="30.4883" rx="2.5" ry="2.5" style="stroke:#181818;stroke-width:0.5;" width="73.6094" x="321.3789" y="644.166"/><text fill="#000000" font-family="sans-serif" font-size="14" lengthAdjust="spacing" textLength="59.6094" x="328.3789" y="664.7012">mil-auth</text></g><g class="participant participant-head" data-participant="S"><rect fill="#E2E2F0" height="30.4883" rx="2.5" ry="2.5" style="stroke:#181818;stroke-width:0.5;" width="87.8418" x="451.2598" y="42.4883"/><text fill="#000000" font-family="sans-serif" font-size="14" lengthAdjust="spacing" textLength="73.8418" x="458.2598" y="63.0234">rtp-sender</text></g><g class="participant participant-tail" data-participant="S"><rect fill="#E2E2F0" height="30.4883" rx="2.5" ry="2.5" style="stroke:#181818;stroke-width:0.5;" width="87.8418" x="451.2598" y="644.166"/><text fill="#000000" font-family="sans-serif" font-size="14" lengthAdjust="spacing" textLength="73.8418" x="458.2598" y="664.7012">rtp-sender</text></g><g class="participant participant-head" data-participant="DLQ"><path d="M554.1016,47.4883 L689.0967,47.4883 C694.0967,47.4883 694.0967,60.7324 694.0967,60.7324 C694.0967,60.7324 694.0967,73.9766 689.0967,73.9766 L554.1016,73.9766 C549.1016,73.9766 549.1016,60.7324 549.1016,60.7324 C549.1016,60.7324 549.1016,47.4883 554.1016,47.4883" fill="#E2E2F0" style="stroke:#181818;stroke-width:0.5;"/><path d="M689.0967,47.4883 C684.0967,47.4883 684.0967,60.7324 684.0967,60.7324 C684.0967,73.9766 689.0967,73.9766 689.0967,73.9766" fill="none" style="stroke:#181818;stroke-width:0.5;"/><text fill="#000000" font-family="sans-serif" font-size="14" lengthAdjust="spacing" textLength="124.9951" x="554.1016" y="66.0234">Dead-letter queue</text></g><g class="participant participant-tail" data-participant="DLQ"><path d="M554.1016,644.166 L689.0967,644.166 C694.0967,644.166 694.0967,657.4102 694.0967,657.4102 C694.0967,657.4102 694.0967,670.6543 689.0967,670.6543 L554.1016,670.6543 C549.1016,670.6543 549.1016,657.4102 549.1016,657.4102 C549.1016,657.4102 549.1016,644.166 554.1016,644.166" fill="#E2E2F0" style="stroke:#181818;stroke-width:0.5;"/><path d="M689.0967,644.166 C684.0967,644.166 684.0967,657.4102 684.0967,657.4102 C684.0967,670.6543 689.0967,670.6543 689.0967,670.6543" fill="none" style="stroke:#181818;stroke-width:0.5;"/><text fill="#000000" font-family="sans-serif" font-size="14" lengthAdjust="spacing" textLength="124.9951" x="554.1016" y="662.7012">Dead-letter queue</text></g><g><title>rtp-consumer</title><rect fill="#FFFFFF" height="529.8789" style="stroke:#181818;stroke-width:1;" width="10" x="215.1519" y="105.2871"/></g><g><title>mil-auth</title><rect fill="#FFFFFF" height="29.3105" style="stroke:#181818;stroke-width:1;" width="10" x="353.1836" y="201.2188"/></g><g><title>rtp-sender</title><rect fill="#FFFFFF" height="53.6211" style="stroke:#181818;stroke-width:1;" width="10" x="490.1807" y="259.8398"/></g><g><title>Dead-letter queue</title><rect fill="#FFFFFF" height="29.3105" style="stroke:#181818;stroke-width:1;" width="10" x="616.5991" y="416.3477"/></g><g><title>Dead-letter queue</title><rect fill="#FFFFFF" height="64.6211" style="stroke:#181818;stroke-width:1;" width="10" x="616.5991" y="526.2344"/></g><g class="message" data-participant-1="EH" data-participant-2="C"><polygon fill="#181818" points="203.1519,101.2871,213.1519,105.2871,203.1519,109.2871,207.1519,105.2871" style="stroke:#181818;stroke-width:1;"/><line style="stroke:#181818;stroke-width:1;" x1="88.5591" x2="209.1519" y1="105.2871" y2="105.2871"/><text fill="#000000" font-family="sans-serif" font-size="13" lengthAdjust="spacing" textLength="107.5928" x="95.5591" y="100.5449">Message payload</text></g><g class="message" data-participant-1="C" data-participant-2="C"><line style="stroke:#181818;stroke-width:1;" x1="225.1519" x2="267.1519" y1="134.5977" y2="134.5977"/><line style="stroke:#181818;stroke-width:1;" x1="267.1519" x2="267.1519" y1="134.5977" y2="147.5977"/><line style="stroke:#181818;stroke-width:1;" x1="226.1519" x2="267.1519" y1="147.5977" y2="147.5977"/><polygon fill="#181818" points="236.1519,143.5977,226.1519,147.5977,236.1519,151.5977,232.1519,147.5977" style="stroke:#181818;stroke-width:1;"/><text fill="#000000" font-family="sans-serif" font-size="13" lengthAdjust="spacing" textLength="104.0317" x="232.1519" y="129.8555">Validate payload</text></g><path d="M10,162.5977 L72.1387,162.5977 L72.1387,169.9082 L62.1387,179.9082 L10,179.9082 L10,162.5977" fill="#EEEEEE" style="stroke:#000000;stroke-width:1.5;"/><rect fill="none" height="465.5684" style="stroke:#000000;stroke-width:1.5;" width="846.1304" x="10" y="162.5977"/><text fill="#000000" font-family="sans-serif" font-size="13" font-weight="bold" lengthAdjust="spacing" textLength="17.1387" x="25" y="176.166">alt</text><text fill="#000000" font-family="sans-serif" font-size="11" font-weight="bold" lengthAdjust="spacing" textLength="85.9912" x="87.1387" y="175.2324">[Validation OK]</text><g class="message" data-participant-1="C" data-participant-2="MA"><polygon fill="#181818" points="341.1836,197.2188,351.1836,201.2188,341.1836,205.2188,345.1836,201.2188" style="stroke:#181818;stroke-width:1;"/><line style="stroke:#181818;stroke-width:1;" x1="225.1519" x2="347.1836" y1="201.2188" y2="201.2188"/><text fill="#000000" font-family="sans-serif" font-size="13" lengthAdjust="spacing" textLength="79.1934" x="232.1519" y="196.4766">POST /token</text></g><g class="message" data-participant-1="MA" data-participant-2="C"><polygon fill="#181818" points="236.1519,226.5293,226.1519,230.5293,236.1519,234.5293,232.1519,230.5293" style="stroke:#181818;stroke-width:1;"/><line style="stroke:#181818;stroke-width:1;stroke-dasharray:2,2;" x1="230.1519" x2="357.1836" y1="230.5293" y2="230.5293"/><text fill="#000000" font-family="sans-serif" font-size="13" lengthAdjust="spacing" textLength="95.6846" x="242.1519" y="225.7871">200 OK (token)</text></g><g class="message" data-participant-1="C" data-participant-2="S"><polygon fill="#181818" points="478.1807,255.8398,488.1807,259.8398,478.1807,263.8398,482.1807,259.8398" style="stroke:#181818;stroke-width:1;"/><line style="stroke:#181818;stroke-width:1;" x1="225.1519" x2="484.1807" y1="259.8398" y2="259.8398"/><text fill="#000000" font-family="sans-serif" font-size="13" lengthAdjust="spacing" textLength="246.0288" x="232.1519" y="255.0977">POST /gpd/message (payload + token)</text></g><path d="M20,274.8398 L82.1387,274.8398 L82.1387,282.1504 L72.1387,292.1504 L20,292.1504 L20,274.8398" fill="#EEEEEE" style="stroke:#000000;stroke-width:1.5;"/><rect fill="none" height="208.1289" style="stroke:#000000;stroke-width:1.5;" width="684.0967" x="20" y="274.8398"/><text fill="#000000" font-family="sans-serif" font-size="13" font-weight="bold" lengthAdjust="spacing" textLength="17.1387" x="35" y="288.4082">alt</text><text fill="#000000" font-family="sans-serif" font-size="11" font-weight="bold" lengthAdjust="spacing" textLength="58.3193" x="97.1387" y="287.4746">[POST OK]</text><g class="message" data-participant-1="S" data-participant-2="C"><polygon fill="#181818" points="236.1519,309.4609,226.1519,313.4609,236.1519,317.4609,232.1519,313.4609" style="stroke:#181818;stroke-width:1;"/><line style="stroke:#181818;stroke-width:1;stroke-dasharray:2,2;" x1="230.1519" x2="494.1807" y1="313.4609" y2="313.4609"/><text fill="#000000" font-family="sans-serif" font-size="13" lengthAdjust="spacing" textLength="83.5542" x="242.1519" y="308.7188">200 OK (RTP)</text></g><g class="message" data-participant-1="C" data-participant-2="EH"><polygon fill="#181818" points="99.5591,338.7715,89.5591,342.7715,99.5591,346.7715,95.5591,342.7715" style="stroke:#181818;stroke-width:1;"/><line style="stroke:#181818;stroke-width:1;stroke-dasharray:2,2;" x1="93.5591" x2="214.1519" y1="342.7715" y2="342.7715"/><text fill="#000000" font-family="sans-serif" font-size="13" lengthAdjust="spacing" textLength="23.2261" x="105.5591" y="338.0293">Ack</text></g><line style="stroke:#000000;stroke-width:1;stroke-dasharray:2,2;" x1="20" x2="704.0967" y1="351.7715" y2="351.7715"/><text fill="#000000" font-family="sans-serif" font-size="11" font-weight="bold" lengthAdjust="spacing" textLength="196.4531" x="25" y="362.4063">[POST failed (4xx / 5xx / timeout)]</text><g class="message" data-participant-1="S" data-participant-2="C"><polygon fill="#181818" points="236.1519,383.0371,226.1519,387.0371,236.1519,391.0371,232.1519,387.0371" style="stroke:#181818;stroke-width:1;"/><line style="stroke:#181818;stroke-width:1;stroke-dasharray:2,2;" x1="230.1519" x2="494.1807" y1="387.0371" y2="387.0371"/><text fill="#000000" font-family="sans-serif" font-size="13" lengthAdjust="spacing" textLength="94.9482" x="242.1519" y="382.2949">Error / timeout</text></g><g class="message" data-participant-1="C" data-participant-2="DLQ"><polygon fill="#181818" points="604.5991,412.3477,614.5991,416.3477,604.5991,420.3477,608.5991,416.3477" style="stroke:#181818;stroke-width:1;"/><line style="stroke:#181818;stroke-width:1;" x1="225.1519" x2="610.5991" y1="416.3477" y2="416.3477"/><text fill="#000000" font-family="sans-serif" font-size="13" lengthAdjust="spacing" textLength="151.5059" x="232.1519" y="411.6055">Enqueue failure payload</text></g><g class="message" data-participant-1="DLQ" data-participant-2="C"><polygon fill="#181818" points="236.1519,441.6582,226.1519,445.6582,236.1519,449.6582,232.1519,445.6582" style="stroke:#181818;stroke-width:1;"/><line style="stroke:#181818;stroke-width:1;stroke-dasharray:2,2;" x1="230.1519" x2="620.5991" y1="445.6582" y2="445.6582"/><text fill="#000000" font-family="sans-serif" font-size="13" lengthAdjust="spacing" textLength="62.5625" x="242.1519" y="440.916">Ack (DLQ)</text></g><g class="message" data-participant-1="C" data-participant-2="EH"><polygon fill="#181818" points="99.5591,470.9688,89.5591,474.9688,99.5591,478.9688,95.5591,474.9688" style="stroke:#181818;stroke-width:1;"/><line style="stroke:#181818;stroke-width:1;stroke-dasharray:2,2;" x1="93.5591" x2="214.1519" y1="474.9688" y2="474.9688"/><text fill="#000000" font-family="sans-serif" font-size="13" lengthAdjust="spacing" textLength="23.2261" x="105.5591" y="470.2266">Ack</text></g><line style="stroke:#000000;stroke-width:1;stroke-dasharray:2,2;" x1="10" x2="856.1304" y1="490.9688" y2="490.9688"/><text fill="#000000" font-family="sans-serif" font-size="11" font-weight="bold" lengthAdjust="spacing" textLength="101.041" x="15" y="501.6035">[Validation failed]</text><g class="message" data-participant-1="C" data-participant-2="DLQ"><polygon fill="#181818" points="604.5991,522.2344,614.5991,526.2344,604.5991,530.2344,608.5991,526.2344" style="stroke:#181818;stroke-width:1;"/><line style="stroke:#181818;stroke-width:1;" x1="225.1519" x2="610.5991" y1="526.2344" y2="526.2344"/><text fill="#000000" font-family="sans-serif" font-size="13" lengthAdjust="spacing" textLength="152.8325" x="232.1519" y="521.4922">Enqueue invalid payload</text></g><path d="M631,539.2344 L631,564.2344 L846,564.2344 L846,549.2344 L836,539.2344 L631,539.2344" fill="#FEFFDD" style="stroke:#181818;stroke-width:0.5;"/><path d="M836,539.2344 L836,549.2344 L846,549.2344 L836,539.2344" fill="#FEFFDD" style="stroke:#181818;stroke-width:0.5;"/><text fill="#000000" font-family="sans-serif" font-size="13" lengthAdjust="spacing" textLength="194.1304" x="637" y="556.8027">Malformed or invalid message.</text><g class="message" data-participant-1="DLQ" data-participant-2="C"><polygon fill="#181818" points="236.1519,586.8555,226.1519,590.8555,236.1519,594.8555,232.1519,590.8555" style="stroke:#181818;stroke-width:1;"/><line style="stroke:#181818;stroke-width:1;stroke-dasharray:2,2;" x1="230.1519" x2="620.5991" y1="590.8555" y2="590.8555"/><text fill="#000000" font-family="sans-serif" font-size="13" lengthAdjust="spacing" textLength="62.5625" x="242.1519" y="586.1133">Ack (DLQ)</text></g><g class="message" data-participant-1="C" data-participant-2="EH"><polygon fill="#181818" points="99.5591,616.166,89.5591,620.166,99.5591,624.166,95.5591,620.166" style="stroke:#181818;stroke-width:1;"/><line style="stroke:#181818;stroke-width:1;stroke-dasharray:2,2;" x1="93.5591" x2="214.1519" y1="620.166" y2="620.166"/><text fill="#000000" font-family="sans-serif" font-size="13" lengthAdjust="spacing" textLength="23.2261" x="105.5591" y="615.4238">Ack</text></g><!--SRC=[TL7DJi904BxlKqmubPWACNhXO48AaKGRq1BlAnrWmtQtRhU8Dn_29_H9t5dQKWjUccRc-zsnmag4b-K28gsACaC3Fr_V46DHy0t2MkeF21uM4mZl2TLdxBt44g57i-aUbPsLRptW1KndBEV6YfN8kRBGCpOFLvMc1qH_zvcG8I_jrk_YyJcvG9LMrAHsdI1FGudMkfn-vDUJfsV6fZFA6C6e2P_pJwbvolZAYZstw1Amg0QzSYbI6jOengMjfq8hc3yo00-Fnmw_c2TB65YzG-NcZQGB3WG8AzcRuT0n8V30ljkbsCRMaacZkCdJGLO53geiS0KDls4dHAQCdkVJWTFf6liZqQfbdFX1vB7kcKOmNkr83MM1Hxar5n9J26uF1nZ0dVzQaQ4kRRzZD3L6czFwtAiskwUx444TZqSUfJazEC4Q6fsG1aIfdLnA2DpWh8-_zuLAhf5oX_IrMfSybcCNGmcr9s0hL2UIqkxNYCtMWbutCMCkrzfaxidSMzGQrHclZpaya_tVwBnFfutlqa95lm00]--></g></svg>