<svg xmlns="http://www.w3.org/2000/svg" xmlns:xlink="http://www.w3.org/1999/xlink" contentStyleType="text/css" data-diagram-type="STATE" height="1153px" preserveAspectRatio="none" style="width:1081px;height:1153px;background:#FFFFFF;" version="1.1" viewBox="0 0 1081 1153" width="1081px" zoomAndPan="magnify"><title>RTP State Diagram</title><defs><filter height="300%" id="f15gjovipwsl5f" width="300%" x="-1" y="-1"><feGaussianBlur result="blurOut" stdDeviation="2"/><feColorMatrix in="blurOut" result="blurOut2" type="matrix" values="0 0 0 0 0 0 0 0 0 0 0 0 0 0 0 0 0 0 .4 0"/><feOffset dx="4" dy="4" in="blurOut2" result="blurOut3"/><feBlend in="SourceGraphic" in2="blurOut3" mode="normal"/></filter></defs><g><g class="title" data-source-line="2"><text fill="#000000" font-family="sans-serif" font-size="14" font-weight="bold" lengthAdjust="spacing" textLength="149.5771" x="459.031" y="22.9951">RTP State Diagram</text></g><g id="CREATED"><rect fill="#FEFECE" filter="url(#f15gjovipwsl5f)" height="50" rx="12.5" ry="12.5" style="stroke:#A80036;stroke-width:1;" width="86.1035" x="648.5" y="124.2969"/><line style="stroke:#A80036;stroke-width:1;" x1="648.5" x2="734.6035" y1="150.5938" y2="150.5938"/><text fill="#000000" font-family="sans-serif" font-size="14" lengthAdjust="spacing" textLength="66.1035" x="658.5" y="142.292">CREATED</text></g><g id="SENT"><rect fill="#FEFECE" filter="url(#f15gjovipwsl5f)" height="50" rx="12.5" ry="12.5" style="stroke:#A80036;stroke-width:1;" width="56.7568" x="603" y="251.2969"/><line style="stroke:#A80036;stroke-width:1;" x1="603" x2="659.7568" y1="277.5938" y2="277.5938"/><text fill="#000000" font-family="sans-serif" font-size="14" lengthAdjust="spacing" textLength="36.7568" x="613" y="269.292">SENT</text></g><rect fill="none" filter="url(#f15gjovipwsl5f)" height="106.2969" rx="12.5" ry="12.5" style="stroke:#A80036;stroke-width:1;" width="293.7939" x="314.5" y="950.2969"/><path d="M327,950.2969 L595.7939,950.2969 A12.5,12.5 0 0 1 608.2939,962.7969 L608.2939,976.5938 L314.5,976.5938 L314.5,962.7969 A12.5,12.5 0 0 1 327,950.2969" fill="#FEFECE"/><path d="M314.5,976.5938 L608.2939,976.5938 L608.2939,1044.0938 A12.5,12.5 0 0 1 595.7939,1056.5938 L327,1056.5938 A12.5,12.5 0 0 1 314.5,1044.0938 L314.5,976.5938" fill="#FEFECE"/><rect fill="none" height="106.2969" rx="12.5" ry="12.5" style="stroke:#A80036;stroke-width:1;" width="293.7939" x="314.5" y="950.2969"/><line style="stroke:#A80036;stroke-width:1;" x1="314.5" x2="608.2939" y1="976.5938" y2="976.5938"/><text fill="#000000" font-family="sans-serif" font-size="14" lengthAdjust="spacing" textLength="98.0547" x="412.3696" y="968.292">Error statuses</text><g id="ES.ERROR_SEND"><rect fill="#FEFECE" filter="url(#f15gjovipwsl5f)" height="50" rx="12.5" ry="12.5" style="stroke:#A80036;stroke-width:1;" width="115.0332" x="326.5" y="988.5938"/><line style="stroke:#A80036;stroke-width:1;" x1="326.5" x2="441.5332" y1="1014.8906" y2="1014.8906"/><text fill="#000000" font-family="sans-serif" font-size="14" lengthAdjust="spacing" textLength="95.0332" x="336.5" y="1006.5889">ERROR_SEND</text></g><g id="ES.ERROR_CANCEL"><rect fill="#FEFECE" filter="url(#f15gjovipwsl5f)" height="50" rx="12.5" ry="12.5" style="stroke:#A80036;stroke-width:1;" width="132.2939" x="460" y="988.5938"/><line style="stroke:#A80036;stroke-width:1;" x1="460" x2="592.2939" y1="1014.8906" y2="1014.8906"/><text fill="#000000" font-family="sans-serif" font-size="14" lengthAdjust="spacing" textLength="112.2939" x="470" y="1006.5889">ERROR_CANCEL</text></g><rect fill="none" filter="url(#f15gjovipwsl5f)" height="209.2969" rx="12.5" ry="12.5" style="stroke:#A80036;stroke-width:1;" width="216.3682" x="401.5" y="378.2969"/><path d="M414,378.2969 L605.3682,378.2969 A12.5,12.5 0 0 1 617.8682,390.7969 L617.8682,404.5938 L401.5,404.5938 L401.5,390.7969 A12.5,12.5 0 0 1 414,378.2969" fill="#FEFECE"/><path d="M401.5,404.5938 L617.8682,404.5938 L617.8682,575.0938 A12.5,12.5 0 0 1 605.3682,587.5938 L414,587.5938 A12.5,12.5 0 0 1 401.5,575.0938 L401.5,404.5938" fill="#FEFECE"/><rect fill="none" height="209.2969" rx="12.5" ry="12.5" style="stroke:#A80036;stroke-width:1;" width="216.3682" x="401.5" y="378.2969"/><line style="stroke:#A80036;stroke-width:1;" x1="401.5" x2="617.8682" y1="404.5938" y2="404.5938"/><text fill="#000000" font-family="sans-serif" font-size="14" lengthAdjust="spacing" textLength="128.8369" x="445.2656" y="396.292">Accepted statuses</text><g id="AS.ACCEPTED"><rect fill="#FEFECE" filter="url(#f15gjovipwsl5f)" height="50" rx="12.5" ry="12.5" style="stroke:#A80036;stroke-width:1;" width="94.5938" x="435.5" y="416.5938"/><line style="stroke:#A80036;stroke-width:1;" x1="435.5" x2="530.0938" y1="442.8906" y2="442.8906"/><text fill="#000000" font-family="sans-serif" font-size="14" lengthAdjust="spacing" textLength="74.5938" x="445.5" y="434.5889">ACCEPTED</text></g><g id="AS.USER_ACCEPTED"><rect fill="#FEFECE" filter="url(#f15gjovipwsl5f)" height="50" rx="12.5" ry="12.5" style="stroke:#A80036;stroke-width:1;" width="139.3008" x="413.5" y="519.5938"/><line style="stroke:#A80036;stroke-width:1;" x1="413.5" x2="552.8008" y1="545.8906" y2="545.8906"/><text fill="#000000" font-family="sans-serif" font-size="14" lengthAdjust="spacing" textLength="119.3008" x="423.5" y="537.5889">USER_ACCEPTED</text></g><!--link ACCEPTED to USER_ACCEPTED--><g class="link" data-entity-1="ACCEPTED" data-entity-2="USER_ACCEPTED" data-source-line="42" data-uid="lnk14" id="link_ACCEPTED_USER_ACCEPTED"><path d="M483,466.7838 C483,482.6638 483,497.3438 483,513.2538" fill="none" id="ACCEPTED-to-USER_ACCEPTED" style="stroke:#A80036;stroke-width:1;"/><polygon fill="#A80036" points="483,519.2538,487,510.2537,483,514.2538,479,510.2537,483,519.2538" style="stroke:#A80036;stroke-width:1;"/><text fill="#000000" font-family="sans-serif" font-size="13" lengthAdjust="spacing" textLength="123.8682" x="484" y="497.6606">USER_ACCEPT_RTP</text></g><rect fill="none" filter="url(#f15gjovipwsl5f)" height="106.2969" rx="12.5" ry="12.5" style="stroke:#A80036;stroke-width:1;" width="270.208" x="697.5" y="715.7969"/><path d="M710,715.7969 L955.208,715.7969 A12.5,12.5 0 0 1 967.708,728.2969 L967.708,742.0938 L697.5,742.0938 L697.5,728.2969 A12.5,12.5 0 0 1 710,715.7969" fill="#FEFECE"/><path d="M697.5,742.0938 L967.708,742.0938 L967.708,809.5938 A12.5,12.5 0 0 1 955.208,822.0938 L710,822.0938 A12.5,12.5 0 0 1 697.5,809.5938 L697.5,742.0938" fill="#FEFECE"/><rect fill="none" height="106.2969" rx="12.5" ry="12.5" style="stroke:#A80036;stroke-width:1;" width="270.208" x="697.5" y="715.7969"/><line style="stroke:#A80036;stroke-width:1;" x1="697.5" x2="967.708" y1="742.0938" y2="742.0938"/><text fill="#000000" font-family="sans-serif" font-size="14" lengthAdjust="spacing" textLength="124.9063" x="770.1509" y="733.792">Rejected statuses</text><g id="RS.REJECTED"><rect fill="#FEFECE" filter="url(#f15gjovipwsl5f)" height="50" rx="12.5" ry="12.5" style="stroke:#A80036;stroke-width:1;" width="89.501" x="709.5" y="754.0938"/><line style="stroke:#A80036;stroke-width:1;" x1="709.5" x2="799.001" y1="780.3906" y2="780.3906"/><text fill="#000000" font-family="sans-serif" font-size="14" lengthAdjust="spacing" textLength="69.501" x="719.5" y="772.0889">REJECTED</text></g><g id="RS.USER_REJECTED"><rect fill="#FEFECE" filter="url(#f15gjovipwsl5f)" height="50" rx="12.5" ry="12.5" style="stroke:#A80036;stroke-width:1;" width="134.208" x="817.5" y="754.0938"/><line style="stroke:#A80036;stroke-width:1;" x1="817.5" x2="951.708" y1="780.3906" y2="780.3906"/><text fill="#000000" font-family="sans-serif" font-size="14" lengthAdjust="spacing" textLength="114.208" x="827.5" y="772.0889">USER_REJECTED</text></g><rect fill="none" filter="url(#f15gjovipwsl5f)" height="209.2969" rx="12.5" ry="12.5" style="stroke:#A80036;stroke-width:1;" width="561.1216" x="7" y="664.2969"/><path d="M19.5,664.2969 L555.6216,664.2969 A12.5,12.5 0 0 1 568.1216,676.7969 L568.1216,690.5938 L7,690.5938 L7,676.7969 A12.5,12.5 0 0 1 19.5,664.2969" fill="#FEFECE"/><path d="M7,690.5938 L568.1216,690.5938 L568.1216,861.0938 A12.5,12.5 0 0 1 555.6216,873.5938 L19.5,873.5938 A12.5,12.5 0 0 1 7,861.0938 L7,690.5938" fill="#FEFECE"/><rect fill="none" height="209.2969" rx="12.5" ry="12.5" style="stroke:#A80036;stroke-width:1;" width="561.1216" x="7" y="664.2969"/><line style="stroke:#A80036;stroke-width:1;" x1="7" x2="568.1216" y1="690.5938" y2="690.5938"/><text fill="#000000" font-family="sans-serif" font-size="14" lengthAdjust="spacing" textLength="132.1934" x="221.4641" y="682.292">Cancelled statuses</text><g id="CS.CANCELLED"><rect fill="#FEFECE" filter="url(#f15gjovipwsl5f)" height="50" rx="12.5" ry="12.5" style="stroke:#A80036;stroke-width:1;" width="103.6719" x="237" y="702.5938"/><line style="stroke:#A80036;stroke-width:1;" x1="237" x2="340.6719" y1="728.8906" y2="728.8906"/><text fill="#000000" font-family="sans-serif" font-size="14" lengthAdjust="spacing" textLength="83.6719" x="247" y="720.5889">CANCELLED</text></g><g id="CS.CANCELLED_REJECTED"><rect fill="#FEFECE" filter="url(#f15gjovipwsl5f)" height="50" rx="12.5" ry="12.5" style="stroke:#A80036;stroke-width:1;" width="180.1729" x="19" y="805.5938"/><line style="stroke:#A80036;stroke-width:1;" x1="19" x2="199.1729" y1="831.8906" y2="831.8906"/><text fill="#000000" font-family="sans-serif" font-size="14" lengthAdjust="spacing" textLength="160.1729" x="29" y="823.5889">CANCELLED_REJECTED</text></g><g id="CS.CANCELLED_PAID"><rect fill="#FEFECE" filter="url(#f15gjovipwsl5f)" height="50" rx="12.5" ry="12.5" style="stroke:#A80036;stroke-width:1;" width="143.6006" x="217" y="805.5938"/><line style="stroke:#A80036;stroke-width:1;" x1="217" x2="360.6006" y1="831.8906" y2="831.8906"/><text fill="#000000" font-family="sans-serif" font-size="14" lengthAdjust="spacing" textLength="123.6006" x="227" y="823.5889">CANCELLED_PAID</text></g><g id="CS.CANCELLED_ACCR"><rect fill="#FEFECE" filter="url(#f15gjovipwsl5f)" height="50" rx="12.5" ry="12.5" style="stroke:#A80036;stroke-width:1;" width="149.5273" x="379" y="805.5938"/><line style="stroke:#A80036;stroke-width:1;" x1="379" x2="528.5273" y1="831.8906" y2="831.8906"/><text fill="#000000" font-family="sans-serif" font-size="14" lengthAdjust="spacing" textLength="129.5273" x="389" y="823.5889">CANCELLED_ACCR</text></g><!--link CANCELLED to CANCELLED_ACCR--><g class="link" data-entity-1="CANCELLED" data-entity-2="CANCELLED_ACCR" data-source-line="47" data-uid="lnk18" id="link_CANCELLED_CANCELLED_ACCR"><path d="M341.17,737.7738 C365.43,743.9938 393.59,754.1738 415,770.5938 C426.89,779.7138 433.4048,788.2785 440.0048,800.2585" fill="none" id="CANCELLED-to-CANCELLED_ACCR" style="stroke:#A80036;stroke-width:1;"/><polygon fill="#A80036" points="442.9,805.5138,442.0607,795.7007,440.4873,801.1344,435.0537,799.561,442.9,805.5138" style="stroke:#A80036;stroke-width:1;"/><text fill="#000000" font-family="sans-serif" font-size="13" lengthAdjust="spacing" textLength="126.1216" x="432" y="783.6606">CANCEL_RTP_ACCR</text></g><!--link CANCELLED to CANCELLED_REJECTED--><g class="link" data-entity-1="CANCELLED" data-entity-2="CANCELLED_REJECTED" data-source-line="48" data-uid="lnk19" id="link_CANCELLED_CANCELLED_REJECTED"><path d="M236.83,729.9137 C202.22,733.4738 157.99,743.5738 129,770.5938 C119.35,779.5938 115.6112,787.5478 113.0312,799.5478" fill="none" id="CANCELLED-to-CANCELLED_REJECTED" style="stroke:#A80036;stroke-width:1;"/><polygon fill="#A80036" points="111.77,805.4137,117.5724,797.4556,112.821,800.5255,109.7511,795.774,111.77,805.4137" style="stroke:#A80036;stroke-width:1;"/><text fill="#000000" font-family="sans-serif" font-size="13" lengthAdjust="spacing" textLength="154.5781" x="130" y="783.6606">CANCEL_RTP_REJECTED</text></g><!--link CANCELLED to CANCELLED_PAID--><g class="link" data-entity-1="CANCELLED" data-entity-2="CANCELLED_PAID" data-source-line="49" data-uid="lnk20" id="link_CANCELLED_CANCELLED_PAID"><path d="M289,752.7838 C289,768.6637 289,783.3438 289,799.2538" fill="none" id="CANCELLED-to-CANCELLED_PAID" style="stroke:#A80036;stroke-width:1;"/><polygon fill="#A80036" points="289,805.2538,293,796.2538,289,800.2538,285,796.2538,289,805.2538" style="stroke:#A80036;stroke-width:1;"/><text fill="#000000" font-family="sans-serif" font-size="13" lengthAdjust="spacing" textLength="120.6182" x="290" y="783.6606">CANCEL_RTP_PAID</text></g><ellipse cx="691.5" cy="53.2969" fill="#000000" filter="url(#f15gjovipwsl5f)" rx="10" ry="10" style="stroke:#000000;stroke-width:1;"/><g id="ERROR_SENT"><rect fill="#FEFECE" filter="url(#f15gjovipwsl5f)" height="50" rx="12.5" ry="12.5" style="stroke:#A80036;stroke-width:1;" width="112.8047" x="695" y="251.2969"/><line style="stroke:#A80036;stroke-width:1;" x1="695" x2="807.8047" y1="277.5938" y2="277.5938"/><text fill="#000000" font-family="sans-serif" font-size="14" lengthAdjust="spacing" textLength="92.8047" x="705" y="269.292">ERROR_SENT</text></g><g id="PAID"><rect fill="#FEFECE" filter="url(#f15gjovipwsl5f)" height="50" rx="12.5" ry="12.5" style="stroke:#A80036;stroke-width:1;" width="52.9287" x="609" y="743.7969"/><line style="stroke:#A80036;stroke-width:1;" x1="609" x2="661.9287" y1="770.0938" y2="770.0938"/><text fill="#000000" font-family="sans-serif" font-size="14" lengthAdjust="spacing" textLength="32.9287" x="619" y="761.792">PAID</text></g><ellipse cx="611.5" cy="1128.2969" fill="none" filter="url(#f15gjovipwsl5f)" rx="11" ry="11" style="stroke:#000000;stroke-width:1;"/><ellipse cx="611.5" cy="1128.2969" fill="#000000" rx="6" ry="6" style="stroke:#000000;stroke-width:1;"/><!--link *start* to CREATED--><g class="link" data-entity-1="*start*" data-entity-2="CREATED" data-source-line="29" data-uid="lnk3" id="link_*start*_CREATED"><path d="M691.5,63.3069 C691.5,77.1869 691.5,98.2669 691.5,118.1369" fill="none" id="*start*-to-CREATED" style="stroke:#A80036;stroke-width:1;"/><polygon fill="#A80036" points="691.5,124.1369,695.5,115.1369,691.5,119.1369,687.5,115.1369,691.5,124.1369" style="stroke:#A80036;stroke-width:1;"/></g><!--link CREATED to SENT--><g class="link" data-entity-1="CREATED" data-entity-2="SENT" data-source-line="32" data-uid="lnk4" id="link_CREATED_SENT"><path d="M661.64,174.4969 C653.1,183.0069 644.7,193.2269 639.5,204.2969 C632.64,218.8869 630.7894,230.9779 630.5294,245.2379" fill="none" id="CREATED-to-SENT" style="stroke:#A80036;stroke-width:1;"/><polygon fill="#A80036" points="630.42,251.2369,634.5834,242.3113,630.5111,246.2377,626.5847,242.1655,630.42,251.2369" style="stroke:#A80036;stroke-width:1;"/><text fill="#000000" font-family="sans-serif" font-size="13" lengthAdjust="spacing" textLength="67.5137" x="640.5" y="217.3638">SEND_RTP</text></g><!--link CREATED to ERROR_SENT--><g class="link" data-entity-1="CREATED" data-entity-2="ERROR_SENT" data-source-line="33" data-uid="lnk6" id="link_CREATED_ERROR_SENT"><path d="M703.07,174.3969 C713.69,196.5369 726.7522,223.7484 737.3722,245.8584" fill="none" id="CREATED-to-ERROR_SENT" style="stroke:#A80036;stroke-width:1;"/><polygon fill="#A80036" points="739.97,251.2669,739.6789,241.4223,737.8052,246.7598,732.4676,244.8861,739.97,251.2669" style="stroke:#A80036;stroke-width:1;"/><text fill="#000000" font-family="sans-serif" font-size="13" lengthAdjust="spacing" textLength="119.5581" x="726.5" y="217.3638">ERROR_SEND_RTP</text></g><!--link SENT to AS--><g class="link" data-entity-1="SENT" data-entity-2="AS" data-source-line="35" data-uid="lnk7" id="link_SENT_AS"><path d="M602.87,280.7269 C552.52,287.4169 451.44,303.9869 430.5,331.2969 C419.46,345.6969 416.6523,356.0919 421.2323,372.3419" fill="none" id="SENT-to-AS" style="stroke:#A80036;stroke-width:1;"/><polygon fill="#A80036" points="422.86,378.1169,424.2685,368.3693,421.5036,373.3044,416.5685,370.5395,422.86,378.1169" style="stroke:#A80036;stroke-width:1;"/><text fill="#000000" font-family="sans-serif" font-size="13" lengthAdjust="spacing" textLength="82.3545" x="431.5" y="344.3638">ACCEPT_RTP</text></g><!--link SENT to AS--><g class="link" data-entity-1="SENT" data-entity-2="AS" data-source-line="37" data-uid="lnk9" id="link_SENT_AS"><path d="M602.93,291.1569 C586.58,300.4269 566.92,314.0769 554.5,331.2969 C544.45,345.2269 538.6987,355.7984 532.6087,372.2884" fill="none" id="SENT-to-AS-1" style="stroke:#A80036;stroke-width:1;"/><polygon fill="#A80036" points="530.53,377.9169,537.4003,370.86,532.2622,373.2265,529.8957,368.0885,530.53,377.9169" style="stroke:#A80036;stroke-width:1;"/><text fill="#000000" font-family="sans-serif" font-size="13" lengthAdjust="spacing" textLength="123.8682" x="555.5" y="344.3638">USER_ACCEPT_RTP</text></g><!--link SENT to RS--><g class="link" data-entity-1="SENT" data-entity-2="RS" data-source-line="36" data-uid="lnk8" id="link_SENT_RS"><path d="M660.31,293.3369 C698.7,315.3469 763.46,354.8169 777.5,378.2969 C841.28,484.9769 842.5352,630.848 837.7252,709.728" fill="none" id="SENT-to-RS" style="stroke:#A80036;stroke-width:1;"/><polygon fill="#A80036" points="837.36,715.7169,841.9004,706.977,837.6643,710.7261,833.9152,706.4901,837.36,715.7169" style="stroke:#A80036;stroke-width:1;"/><text fill="#000000" font-family="sans-serif" font-size="13" lengthAdjust="spacing" textLength="77.6255" x="836.5" y="487.3638">REJECT_RTP</text></g><!--link SENT to RS--><g class="link" data-entity-1="SENT" data-entity-2="RS" data-source-line="38" data-uid="lnk10" id="link_SENT_RS"><path d="M660.33,293.3269 C665.94,296.1569 671.84,298.9569 677.5,301.2969 C782.95,344.9769 854.97,286.2769 922.5,378.2969 C997.55,480.5469 922.7891,630.2372 872.0291,710.4272" fill="none" id="SENT-to-RS-1" style="stroke:#A80036;stroke-width:1;"/><polygon fill="#A80036" points="868.82,715.4969,877.0134,710.0317,871.4942,711.2721,870.2539,705.753,868.82,715.4969" style="stroke:#A80036;stroke-width:1;"/><text fill="#000000" font-family="sans-serif" font-size="13" lengthAdjust="spacing" textLength="119.1392" x="954.5" y="487.3638">USER_REJECT_RTP</text></g><!--link SENT to PAID--><g class="link" data-entity-1="SENT" data-entity-2="PAID" data-source-line="39" data-uid="lnk12" id="link_SENT_PAID"><path d="M660.2,299.3069 C669.45,308.1269 678.58,319.1069 683.5,331.2969 C733.86,456.1969 706.63,501.6269 683.5,634.2969 C676.61,673.8469 661.5012,711.6894 649.6412,737.9294" fill="none" id="SENT-to-PAID" style="stroke:#A80036;stroke-width:1;"/><polygon fill="#A80036" points="647.17,743.3969,654.5218,736.8431,649.2293,738.8407,647.2318,733.5482,647.17,743.3969" style="stroke:#A80036;stroke-width:1;"/><text fill="#000000" font-family="sans-serif" font-size="13" lengthAdjust="spacing" textLength="55.9863" x="713.5" y="487.3638">PAY_RTP</text></g><!--link SENT to CS--><g class="link" data-entity-1="SENT" data-entity-2="CS" data-source-line="40" data-uid="lnk13" id="link_SENT_CS"><path d="M602.96,281.4269 C528.96,292.7869 334.16,327.1169 298.5,378.2969 C240.88,460.9969 245.5716,573.4674 260.4216,657.9774" fill="none" id="SENT-to-CS" style="stroke:#A80036;stroke-width:1;"/><polygon fill="#A80036" points="261.46,663.8869,263.842,654.3304,260.5947,658.9623,255.9628,655.715,261.46,663.8869" style="stroke:#A80036;stroke-width:1;"/><text fill="#000000" font-family="sans-serif" font-size="13" lengthAdjust="spacing" textLength="83.5415" x="299.5" y="487.3638">CANCEL_RTP</text></g><!--link AS to RS--><g class="link" data-entity-1="AS" data-entity-2="RS" data-source-line="43" data-uid="lnk15" id="link_AS_RS"><path d="M617.5,578.7569 C669.4,624.3969 725.1145,673.3745 768.5845,711.6045" fill="none" id="AS-to-RS" style="stroke:#A80036;stroke-width:1;"/><polygon fill="#A80036" points="773.09,715.5669,768.9734,706.6196,769.3354,712.2649,763.6902,712.627,773.09,715.5669" style="stroke:#A80036;stroke-width:1;"/><text fill="#000000" font-family="sans-serif" font-size="13" lengthAdjust="spacing" textLength="119.1392" x="672.5" y="630.3638">USER_REJECT_RTP</text></g><!--link AS to CS--><g class="link" data-entity-1="AS" data-entity-2="CS" data-source-line="44" data-uid="lnk16" id="link_AS_CS"><path d="M401.41,572.2369 C387.08,586.4769 373.28,601.6969 361.5,617.2969 C350.71,631.5869 343.6849,642.4196 334.9049,658.6496" fill="none" id="AS-to-CS" style="stroke:#A80036;stroke-width:1;"/><polygon fill="#A80036" points="332.05,663.9269,339.8505,657.9142,334.4291,659.5291,332.8141,654.1077,332.05,663.9269" style="stroke:#A80036;stroke-width:1;"/><text fill="#000000" font-family="sans-serif" font-size="13" lengthAdjust="spacing" textLength="83.5415" x="362.5" y="630.3638">CANCEL_RTP</text></g><!--link AS to PAID--><g class="link" data-entity-1="AS" data-entity-2="PAID" data-source-line="45" data-uid="lnk17" id="link_AS_PAID"><path d="M450.68,587.5069 C448.22,604.1969 450.65,620.5069 461.5,634.2969 C496.56,678.8569 541.38,628.6869 585.5,664.2969 C610.35,684.3469 622.0878,713.9792 628.5778,737.7192" fill="none" id="AS-to-PAID" style="stroke:#A80036;stroke-width:1;"/><polygon fill="#A80036" points="630.16,743.5069,631.6451,733.7706,628.8415,738.6839,623.9283,735.8802,630.16,743.5069" style="stroke:#A80036;stroke-width:1;"/><text fill="#000000" font-family="sans-serif" font-size="13" lengthAdjust="spacing" textLength="55.9863" x="462.5" y="630.3638">PAY_RTP</text></g><!--link CS to ES--><g class="link" data-entity-1="CS" data-entity-2="ES" data-source-line="50" data-uid="lnk21" id="link_CS_ES"><path d="M365.09,873.4669 C384.93,899.9869 401.8454,922.5828 418.8154,945.2628" fill="none" id="CS-to-ES" style="stroke:#A80036;stroke-width:1;"/><polygon fill="#A80036" points="422.41,950.0669,420.2208,940.4644,419.4145,946.0635,413.8154,945.2572,422.41,950.0669" style="stroke:#A80036;stroke-width:1;"/><text fill="#000000" font-family="sans-serif" font-size="13" lengthAdjust="spacing" textLength="135.5859" x="396.5" y="916.3638">ERROR_CANCEL_RTP</text></g><!--link PAID to *end*--><g class="link" data-entity-1="PAID" data-entity-2="*end*" data-source-line="52" data-uid="lnk23" id="link_PAID_*end*"><path d="M635.96,794.0469 C636.6,843.5269 636.64,959.6369 625.5,1056.2969 C622.97,1078.2669 618.703,1097.7532 615.413,1111.4332" fill="none" id="PAID-to-*end*" style="stroke:#A80036;stroke-width:1;"/><polygon fill="#A80036" points="614.01,1117.2669,620.0036,1109.4517,615.1791,1112.4055,612.2254,1107.5811,614.01,1117.2669" style="stroke:#A80036;stroke-width:1;"/></g><!--link RS to *end*--><g class="link" data-entity-1="RS" data-entity-2="*end*" data-source-line="53" data-uid="lnk24" id="link_RS_*end*"><path d="M806.41,821.8469 C773.09,886.4469 711.98,998.9069 647.5,1087.2969 C638.58,1099.5269 630.7477,1108.0295 623.1077,1115.7595" fill="none" id="RS-to-*end*" style="stroke:#A80036;stroke-width:1;"/><polygon fill="#A80036" points="618.89,1120.0269,628.0615,1116.4376,622.4048,1116.4707,622.3716,1110.8139,618.89,1120.0269" style="stroke:#A80036;stroke-width:1;"/></g><!--link ES to *end*--><g class="link" data-entity-1="ES" data-entity-2="*end*" data-source-line="54" data-uid="lnk25" id="link_ES_*end*"><path d="M525.11,1056.4569 C555.46,1081.3369 583.699,1104.5041 598.649,1116.7541" fill="none" id="ES-to-*end*" style="stroke:#A80036;stroke-width:1;"/><polygon fill="#A80036" points="603.29,1120.5569,598.8637,1111.7587,599.4225,1117.3879,593.7933,1117.9466,603.29,1120.5569" style="stroke:#A80036;stroke-width:1;"/></g><!--link CS to *end*--><g class="link" data-entity-1="CS" data-entity-2="*end*" data-source-line="55" data-uid="lnk26" id="link_CS_*end*"><path d="M261.96,873.4369 C253.63,933.3069 255.31,1006.4169 296.5,1056.2969 C336.66,1104.9269 543.5753,1122.4883 594.5453,1126.1383" fill="none" id="CS-to-*end*" style="stroke:#A80036;stroke-width:1;"/><polygon fill="#A80036" points="600.53,1126.5669,591.8387,1121.9342,595.5428,1126.2097,591.2673,1129.9138,600.53,1126.5669" style="stroke:#A80036;stroke-width:1;"/></g><!--SRC=[TLBBQiCm4BphAqIEXVn03WKXxw4bf6Rb7aefnhYYE7MJOhcdqd-lNfQyZksBfPsTsSV8V7ONFboDPcCtzffZLN8rDgFcHTTy3CqNOyPV9OAee8Wt1QTgGdOm3DU1kykFqMR76yD1yL_6xHTI0F49QqigRe9Id2GSsLzI4sshlqVzJWK55HHIGkdQoQ5d1LYdUDP3VTRjZHvIFOH7a2jwAPxrP7DfTTyl1IKL36CTYMAArIlbCbYAXtN03eUkaTUxDxxVtoTB68id7tNMy8FxsJfLIR3aWyl8flWyviCko-xw43ViaGIW0qBl5F2CcG4hjDawAUh6jNWfNcXSEbOOFlGtUUjHulPASTlHPkc8BGl4yA8VblOVICGD8X3ysKgVBAUKz12sQB6R6SK_3nbw1PLyd6_AannkNmf3bOwGZp8T_m40]--></g></svg>