<?xml version="1.0" encoding="us-ascii" standalone="no"?><svg xmlns="http://www.w3.org/2000/svg" xmlns:xlink="http://www.w3.org/1999/xlink" contentStyleType="text/css" height="1763.5417px" preserveAspectRatio="none" style="width:893px;height:1763px;" version="1.1" viewBox="0 0 893 1763" width="893.75px" zoomAndPan="magnify"><defs><linearGradient id="g3g28sgu4bgkm0" x1="50%" x2="50%" y1="0%" y2="100%"><stop offset="0%" stop-color="#FFFFFF"/><stop offset="100%" stop-color="#FFFFFF"/></linearGradient><filter height="300%" id="f3g28sgu4bgkm" width="300%" x="-1" y="-1"><feGaussianBlur result="blurOut" stdDeviation="2.0833333333333335"/><feColorMatrix in="blurOut" result="blurOut2" type="matrix" values="0 0 0 0 0 0 0 0 0 0 0 0 0 0 0 0 0 0 .4 0"/><feOffset dx="4.166666666666667" dy="4.166666666666667" in="blurOut2" result="blurOut3"/><feBlend in="SourceGraphic" in2="blurOut3" mode="normal"/></filter><linearGradient id="g3g28sgu4bgkm1" x1="50%" x2="50%" y1="0%" y2="100%"><stop offset="0%" stop-color="#4DABF5"/><stop offset="100%" stop-color="#2196F3"/></linearGradient><linearGradient id="g3g28sgu4bgkm2" x1="50%" x2="50%" y1="0%" y2="100%"><stop offset="0%" stop-color="#B052C0"/><stop offset="100%" stop-color="#9C27B0"/></linearGradient></defs><g><rect fill="url(#g3g28sgu4bgkm0)" height="57.5846" id="_title" rx="4.1667" ry="4.1667" style="stroke:#CCCCCC;stroke-width:1.0416666666666667;" width="667.7083" x="114.3229" y="20.8333"/><text fill="#2196F3" font-family="Verdana" font-size="20.8333" font-weight="bold" lengthAdjust="spacing" textLength="634.375" x="130.9896" y="56.838">RTP Notice Status API: GET /noticeNumber/{payeeId}</text><rect fill="#FFFFFF" filter="url(#f3g28sgu4bgkm)" height="522.4935" style="stroke:#CCCCCC;stroke-width:1.0416666666666667;" width="10.4167" x="461.4583" y="243.9779"/><rect fill="#FFFFFF" filter="url(#f3g28sgu4bgkm)" height="49.9674" style="stroke:#CCCCCC;stroke-width:1.0416666666666667;" width="10.4167" x="811.4583" y="510.4167"/><rect fill="#FFFFFF" filter="url(#f3g28sgu4bgkm)" height="49.9674" style="stroke:#CCCCCC;stroke-width:1.0416666666666667;" width="10.4167" x="811.4583" y="853.9063"/><rect fill="#98FB98" filter="url(#f3g28sgu4bgkm)" height="1226.0742" rx="4.1667" ry="4.1667" style="stroke:#2196F3;stroke-width:1.0416666666666667;" width="855.7292" x="20.8333" y="411.556"/><path d="M20.8333,774.8047 L876.5625,774.8047 L876.5625,1061.0026 A4.1667,4.1667 0 0 1 872.3958,1065.1693 L25,1065.1693 A4.1667,4.1667 0 0 1 20.8333,1061.0026 L20.8333,774.8047 " fill="#FFFFE0" style="stroke:none;stroke-width:1.0416666666666667;"/><path d="M20.8333,1065.1693 L876.5625,1065.1693 L876.5625,1633.4635 A4.1667,4.1667 0 0 1 872.3958,1637.6302 L25,1637.6302 A4.1667,4.1667 0 0 1 20.8333,1633.4635 L20.8333,1065.1693 " fill="#8B0000" style="stroke:none;stroke-width:1.0416666666666667;"/><rect fill="url(#g3g28sgu4bgkm0)" filter="url(#f3g28sgu4bgkm)" height="295.5404" rx="4.1667" ry="4.1667" style="stroke:#2196F3;stroke-width:1.0416666666666667;" width="546.3542" x="31.25" y="1109.9284"/><rect fill="url(#g3g28sgu4bgkm0)" filter="url(#f3g28sgu4bgkm)" height="210.2865" rx="4.1667" ry="4.1667" style="stroke:#2196F3;stroke-width:1.0416666666666667;" width="764.5833" x="31.25" y="1420.0521"/><line style="stroke:#CCCCCC;stroke-width:1.0416666666666667;stroke-dasharray:5.0,5.0;" x1="114.5833" x2="114.5833" y1="191.9271" y2="1655.3385"/><line style="stroke:#CCCCCC;stroke-width:1.0416666666666667;stroke-dasharray:5.0,5.0;" x1="466.1458" x2="466.1458" y1="191.9271" y2="1655.3385"/><line style="stroke:#CCCCCC;stroke-width:1.0416666666666667;stroke-dasharray:5.0,5.0;" x1="816.1458" x2="816.1458" y1="191.9271" y2="1655.3385"/><text fill="#222222" font-family="Verdana" font-size="12.5" font-weight="bold" lengthAdjust="spacing" textLength="118.75" x="52.0833" y="178.5624">Service Provider</text><ellipse cx="114.5833" cy="99.2513" fill="url(#g3g28sgu4bgkm1)" filter="url(#f3g28sgu4bgkm)" rx="8.3333" ry="8.3333" style="stroke:#2196F3;stroke-width:1.0416666666666667;"/><path d="M114.5833,107.5846 L114.5833,135.7096 M101.0417,115.918 L128.125,115.918 M114.5833,135.7096 L101.0417,151.3346 M114.5833,135.7096 L128.125,151.3346 " fill="none" filter="url(#f3g28sgu4bgkm)" style="stroke:#2196F3;stroke-width:1.0416666666666667;"/><text fill="#222222" font-family="Verdana" font-size="12.5" font-weight="bold" lengthAdjust="spacing" textLength="118.75" x="52.0833" y="1676.3163">Service Provider</text><ellipse cx="114.5833" cy="1699.056" fill="url(#g3g28sgu4bgkm1)" filter="url(#f3g28sgu4bgkm)" rx="8.3333" ry="8.3333" style="stroke:#2196F3;stroke-width:1.0416666666666667;"/><path d="M114.5833,1707.3893 L114.5833,1735.5143 M101.0417,1715.7227 L128.125,1715.7227 M114.5833,1735.5143 L101.0417,1751.1393 M114.5833,1735.5143 L128.125,1751.1393 " fill="none" filter="url(#f3g28sgu4bgkm)" style="stroke:#2196F3;stroke-width:1.0416666666666667;"/><rect fill="url(#g3g28sgu4bgkm1)" filter="url(#f3g28sgu4bgkm)" height="49.9674" rx="4.1667" ry="4.1667" style="stroke:#2196F3;stroke-width:1.0416666666666667;" width="114.5833" x="407.8125" y="137.793"/><text fill="#FFFFFF" font-family="Verdana" font-size="12.5" font-weight="bold" lengthAdjust="spacing" textLength="79.1667" x="425.5208" y="167.1041">rtp-sender</text><rect fill="url(#g3g28sgu4bgkm1)" filter="url(#f3g28sgu4bgkm)" height="49.9674" rx="4.1667" ry="4.1667" style="stroke:#2196F3;stroke-width:1.0416666666666667;" width="114.5833" x="407.8125" y="1654.2969"/><text fill="#FFFFFF" font-family="Verdana" font-size="12.5" font-weight="bold" lengthAdjust="spacing" textLength="79.1667" x="425.5208" y="1683.608">rtp-sender</text><text fill="#222222" font-family="Verdana" font-size="12.5" font-weight="bold" lengthAdjust="spacing" textLength="71.875" x="777.6042" y="178.5624">Database</text><path d="M797.9167,119.043 C797.9167,108.6263 816.6667,108.6263 816.6667,108.6263 C816.6667,108.6263 835.4167,108.6263 835.4167,119.043 L835.4167,146.1263 C835.4167,156.543 816.6667,156.543 816.6667,156.543 C816.6667,156.543 797.9167,156.543 797.9167,146.1263 L797.9167,119.043 " fill="url(#g3g28sgu4bgkm1)" filter="url(#f3g28sgu4bgkm)" style="stroke:#2196F3;stroke-width:1.5625;"/><path d="M797.9167,119.043 C797.9167,129.4596 816.6667,129.4596 816.6667,129.4596 C816.6667,129.4596 835.4167,129.4596 835.4167,119.043 " fill="none" style="stroke:#2196F3;stroke-width:1.5625;"/><text fill="#222222" font-family="Verdana" font-size="12.5" font-weight="bold" lengthAdjust="spacing" textLength="71.875" x="777.6042" y="1676.3163">Database</text><path d="M797.9167,1700.0977 C797.9167,1689.681 816.6667,1689.681 816.6667,1689.681 C816.6667,1689.681 835.4167,1689.681 835.4167,1700.0977 L835.4167,1727.181 C835.4167,1737.5977 816.6667,1737.5977 816.6667,1737.5977 C816.6667,1737.5977 797.9167,1737.5977 797.9167,1727.181 L797.9167,1700.0977 " fill="url(#g3g28sgu4bgkm1)" filter="url(#f3g28sgu4bgkm)" style="stroke:#2196F3;stroke-width:1.5625;"/><path d="M797.9167,1700.0977 C797.9167,1710.5143 816.6667,1710.5143 816.6667,1710.5143 C816.6667,1710.5143 835.4167,1710.5143 835.4167,1700.0977 " fill="none" style="stroke:#2196F3;stroke-width:1.5625;"/><rect fill="#FFFFFF" filter="url(#f3g28sgu4bgkm)" height="522.4935" style="stroke:#CCCCCC;stroke-width:1.0416666666666667;" width="10.4167" x="461.4583" y="243.9779"/><rect fill="#FFFFFF" filter="url(#f3g28sgu4bgkm)" height="49.9674" style="stroke:#CCCCCC;stroke-width:1.0416666666666667;" width="10.4167" x="811.4583" y="510.4167"/><rect fill="#FFFFFF" filter="url(#f3g28sgu4bgkm)" height="49.9674" style="stroke:#CCCCCC;stroke-width:1.0416666666666667;" width="10.4167" x="811.4583" y="853.9063"/><polygon fill="#2196F3" points="448.9583,239.8112,459.375,243.9779,448.9583,248.1445,453.125,243.9779" style="stroke:#2196F3;stroke-width:1.0416666666666667;"/><line style="stroke:#2196F3;stroke-width:3.125;" x1="114.5833" x2="455.2083" y1="243.9779" y2="243.9779"/><text fill="#222222" font-family="Verdana" font-size="12.5" font-weight="bold" lengthAdjust="spacing" textLength="18.75" x="132.2917" y="228.5299">[1]</text><text fill="#222222" font-family="Verdana" font-size="12.5" font-weight="bold" lengthAdjust="spacing" textLength="27.0833" x="176.0417" y="228.5299">GET</text><text fill="#222222" font-family="Verdana" font-size="12.5" lengthAdjust="spacing" textLength="167.7083" x="207.2917" y="228.5299">/noticeNumber/{payeeId}</text><path d="M477.0833,261.6862 L477.0833,327.3112 A4.1667,4.1667 0 0 0 481.25,331.4779 L842.7083,331.4779 A4.1667,4.1667 0 0 0 846.875,327.3112 L846.875,267.9362 L836.4583,257.5195 L481.25,257.5195 A4.1667,4.1667 0 0 0 477.0833,261.6862 " fill="url(#g3g28sgu4bgkm2)" filter="url(#f3g28sgu4bgkm)" style="stroke:#9C27B0;stroke-width:1.0416666666666667;"/><path d="M836.4583,257.5195 L836.4583,265.8529 A2.0833,2.0833 0 0 0 838.5417,267.9362 L846.875,267.9362 L836.4583,257.5195 " fill="url(#g3g28sgu4bgkm2)" style="stroke:#9C27B0;stroke-width:1.0416666666666667;"/><text fill="#FFFFFF" font-family="Verdana" font-size="12.5" font-weight="bold" lengthAdjust="spacing" textLength="80.2083" x="493.75" y="284.7473">Operation:</text><text fill="#FFFFFF" font-family="Verdana" font-size="12.5" lengthAdjust="spacing" textLength="118.75" x="578.125" y="284.7473">`getNoticeStatus`</text><text fill="#FFFFFF" font-family="Verdana" font-size="12.5" lengthAdjust="spacing" textLength="327.0833" x="493.75" y="299.2981">The SP queries delivery status for a noticeNumber</text><text fill="#FFFFFF" font-family="Verdana" font-size="12.5" lengthAdjust="spacing" textLength="123.9583" x="493.75" y="313.8489">filtered by payeeId.</text><line style="stroke:#2196F3;stroke-width:3.125;" x1="471.875" x2="515.625" y1="382.3893" y2="382.3893"/><line style="stroke:#2196F3;stroke-width:3.125;" x1="515.625" x2="515.625" y1="382.3893" y2="395.931"/><line style="stroke:#2196F3;stroke-width:3.125;" x1="472.9167" x2="515.625" y1="395.931" y2="395.931"/><polygon fill="#2196F3" points="483.3333,391.7643,472.9167,395.931,483.3333,400.0977,479.1667,395.931" style="stroke:#2196F3;stroke-width:1.0416666666666667;"/><text fill="#222222" font-family="Verdana" font-size="12.5" font-weight="bold" lengthAdjust="spacing" textLength="18.75" x="489.5833" y="366.9413">[2]</text><text fill="#222222" font-family="Verdana" font-size="12.5" lengthAdjust="spacing" textLength="153.125" x="533.3333" y="366.9413">Validate Security Token</text><path d="M25,411.556 L108.3333,411.556 L108.3333,438.6068 L97.9167,449.0234 L20.8333,449.0234 L20.8333,415.7227 A4.1667,4.1667 0 0 1 25,411.556 " fill="#FFFFFF" style="stroke:#666666;stroke-width:1.0416666666666667;"/><rect fill="none" height="1226.0742" rx="4.1667" ry="4.1667" style="stroke:#2196F3;stroke-width:1.0416666666666667;" width="855.7292" x="20.8333" y="411.556"/><text fill="#9C27B0" font-family="Verdana" font-size="12.5" font-weight="bold" lengthAdjust="spacing" textLength="19.7917" x="46.875" y="434.6171">alt</text><text fill="#222222" font-family="Verdana" font-size="12.5" font-weight="bold" lengthAdjust="spacing" textLength="5.2083" x="134.375" y="435.6588">[</text><text fill="#222222" font-family="Verdana" font-size="12.5" font-weight="bold" lengthAdjust="spacing" textLength="207.2917" x="139.5833" y="435.6588">Success case: RTP delivered</text><text fill="#222222" font-family="Verdana" font-size="12.5" font-weight="bold" lengthAdjust="spacing" textLength="5.2083" x="346.875" y="435.6588">]</text><polygon fill="#2196F3" points="798.9583,506.25,809.375,510.4167,798.9583,514.5833,803.125,510.4167" style="stroke:#2196F3;stroke-width:1.0416666666666667;"/><line style="stroke:#2196F3;stroke-width:3.125;" x1="471.875" x2="805.2083" y1="510.4167" y2="510.4167"/><text fill="#222222" font-family="Verdana" font-size="12.5" font-weight="bold" lengthAdjust="spacing" textLength="18.75" x="489.5833" y="494.9687">[3]</text><text fill="#222222" font-family="Verdana" font-size="12.5" lengthAdjust="spacing" textLength="255.2083" x="533.3333" y="494.9687">findRtpByNoticeNumber(noticeNumber)</text><polygon fill="#2196F3" points="483.3333,556.2174,472.9167,560.3841,483.3333,564.5508,479.1667,560.3841" style="stroke:#2196F3;stroke-width:1.0416666666666667;"/><line style="stroke:#2196F3;stroke-width:3.125;stroke-dasharray:2.0,2.0;" x1="477.0833" x2="815.625" y1="560.3841" y2="560.3841"/><text fill="#222222" font-family="Verdana" font-size="12.5" font-weight="bold" lengthAdjust="spacing" textLength="18.75" x="500" y="544.9361">[4]</text><text fill="#222222" font-family="Verdana" font-size="12.5" lengthAdjust="spacing" textLength="84.375" x="543.75" y="544.9361">results (0..n)</text><line style="stroke:#2196F3;stroke-width:3.125;" x1="471.875" x2="515.625" y1="610.3516" y2="610.3516"/><line style="stroke:#2196F3;stroke-width:3.125;" x1="515.625" x2="515.625" y1="610.3516" y2="623.8932"/><line style="stroke:#2196F3;stroke-width:3.125;" x1="472.9167" x2="515.625" y1="623.8932" y2="623.8932"/><polygon fill="#2196F3" points="483.3333,619.7266,472.9167,623.8932,483.3333,628.0599,479.1667,623.8932" style="stroke:#2196F3;stroke-width:1.0416666666666667;"/><text fill="#222222" font-family="Verdana" font-size="12.5" font-weight="bold" lengthAdjust="spacing" textLength="18.75" x="489.5833" y="594.9036">[5]</text><text fill="#222222" font-family="Verdana" font-size="12.5" lengthAdjust="spacing" textLength="155.2083" x="533.3333" y="594.9036">Filter results by payeeId</text><line style="stroke:#2196F3;stroke-width:3.125;" x1="471.875" x2="515.625" y1="673.8607" y2="673.8607"/><line style="stroke:#2196F3;stroke-width:3.125;" x1="515.625" x2="515.625" y1="673.8607" y2="687.4023"/><line style="stroke:#2196F3;stroke-width:3.125;" x1="472.9167" x2="515.625" y1="687.4023" y2="687.4023"/><polygon fill="#2196F3" points="483.3333,683.2357,472.9167,687.4023,483.3333,691.569,479.1667,687.4023" style="stroke:#2196F3;stroke-width:1.0416666666666667;"/><text fill="#222222" font-family="Verdana" font-size="12.5" font-weight="bold" lengthAdjust="spacing" textLength="18.75" x="489.5833" y="658.4127">[6]</text><text fill="#222222" font-family="Verdana" font-size="12.5" lengthAdjust="spacing" textLength="150" x="533.3333" y="658.4127">Evaluate status (SENT)</text><polygon fill="#2196F3" points="126.0417,762.3047,115.625,766.4714,126.0417,770.638,121.875,766.4714" style="stroke:#2196F3;stroke-width:1.0416666666666667;"/><line style="stroke:#2196F3;stroke-width:3.125;stroke-dasharray:2.0,2.0;" x1="119.7917" x2="465.625" y1="766.4714" y2="766.4714"/><text fill="#222222" font-family="Verdana" font-size="12.5" font-weight="bold" lengthAdjust="spacing" textLength="18.75" x="142.7083" y="736.4726">[7]</text><text fill="#222222" font-family="Verdana" font-size="12.5" font-weight="bold" lengthAdjust="spacing" textLength="50" x="186.4583" y="721.9218">200 OK</text><text fill="#222222" font-family="Verdana" font-size="12.5" lengthAdjust="spacing" textLength="170.8333" x="186.4583" y="736.4726">Response: "RTP delivered"</text><text fill="#222222" font-family="Verdana" font-size="12.5" lengthAdjust="spacing" textLength="231.25" x="186.4583" y="751.0234">processingDate: {savingDateTime}</text><line style="stroke:#2196F3;stroke-width:1.0416666666666667;stroke-dasharray:2.0,2.0;" x1="20.8333" x2="876.5625" y1="775.8464" y2="775.8464"/><text fill="#222222" font-family="Verdana" font-size="12.5" font-weight="bold" lengthAdjust="spacing" textLength="5.2083" x="36.4583" y="797.8658">[</text><text fill="#222222" font-family="Verdana" font-size="12.5" font-weight="bold" lengthAdjust="spacing" textLength="203.125" x="41.6667" y="797.8658">Fail case: RTP not delivered</text><text fill="#222222" font-family="Verdana" font-size="12.5" font-weight="bold" lengthAdjust="spacing" textLength="5.2083" x="244.7917" y="797.8658">]</text><polygon fill="#2196F3" points="798.9583,849.7396,809.375,853.9063,798.9583,858.0729,803.125,853.9063" style="stroke:#2196F3;stroke-width:1.0416666666666667;"/><line style="stroke:#2196F3;stroke-width:3.125;" x1="466.6667" x2="805.2083" y1="853.9063" y2="853.9063"/><text fill="#222222" font-family="Verdana" font-size="12.5" font-weight="bold" lengthAdjust="spacing" textLength="18.75" x="484.375" y="838.4583">[8]</text><text fill="#222222" font-family="Verdana" font-size="12.5" lengthAdjust="spacing" textLength="255.2083" x="528.125" y="838.4583">findRtpByNoticeNumber(noticeNumber)</text><polygon fill="#2196F3" points="478.125,899.707,467.7083,903.8737,478.125,908.0404,473.9583,903.8737" style="stroke:#2196F3;stroke-width:1.0416666666666667;"/><line style="stroke:#2196F3;stroke-width:3.125;stroke-dasharray:2.0,2.0;" x1="471.875" x2="815.625" y1="903.8737" y2="903.8737"/><text fill="#222222" font-family="Verdana" font-size="12.5" font-weight="bold" lengthAdjust="spacing" textLength="18.75" x="494.7917" y="888.4257">[9]</text><text fill="#222222" font-family="Verdana" font-size="12.5" lengthAdjust="spacing" textLength="195.8333" x="538.5417" y="888.4257">empty OR status ERROR_SEND</text><path d="M471.875,921.582 L471.875,987.207 A4.1667,4.1667 0 0 0 476.0417,991.3737 L686.4583,991.3737 A4.1667,4.1667 0 0 0 690.625,987.207 L690.625,927.832 L680.2083,917.4154 L476.0417,917.4154 A4.1667,4.1667 0 0 0 471.875,921.582 " fill="url(#g3g28sgu4bgkm2)" filter="url(#f3g28sgu4bgkm)" style="stroke:#9C27B0;stroke-width:1.0416666666666667;"/><path d="M680.2083,917.4154 L680.2083,925.7487 A2.0833,2.0833 0 0 0 682.2917,927.832 L690.625,927.832 L680.2083,917.4154 " fill="url(#g3g28sgu4bgkm2)" style="stroke:#9C27B0;stroke-width:1.0416666666666667;"/><text fill="#FFFFFF" font-family="Verdana" font-size="12.5" lengthAdjust="spacing" textLength="176.0417" x="488.5417" y="944.6431">Treat as RTP not delivered:</text><text fill="#FFFFFF" font-family="Verdana" font-size="12.5" lengthAdjust="spacing" textLength="167.7083" x="488.5417" y="959.1939">- noticeNumber not found</text><text fill="#FFFFFF" font-family="Verdana" font-size="12.5" lengthAdjust="spacing" textLength="138.5417" x="488.5417" y="973.7447">- status ERROR_SEND</text><polygon fill="#2196F3" points="126.0417,1052.6693,115.625,1056.8359,126.0417,1061.0026,121.875,1056.8359" style="stroke:#2196F3;stroke-width:1.0416666666666667;"/><line style="stroke:#2196F3;stroke-width:3.125;stroke-dasharray:2.0,2.0;" x1="119.7917" x2="465.625" y1="1056.8359" y2="1056.8359"/><text fill="#222222" font-family="Verdana" font-size="12.5" font-weight="bold" lengthAdjust="spacing" textLength="27.0833" x="142.7083" y="1034.1125">[10]</text><text fill="#222222" font-family="Verdana" font-size="12.5" font-weight="bold" lengthAdjust="spacing" textLength="105.2083" x="194.7917" y="1026.8372">404 Not Found</text><text fill="#222222" font-family="Verdana" font-size="12.5" lengthAdjust="spacing" textLength="196.875" x="194.7917" y="1041.3879">Response: "RTP not delivered"</text><line style="stroke:#2196F3;stroke-width:1.0416666666666667;stroke-dasharray:2.0,2.0;" x1="20.8333" x2="876.5625" y1="1066.2109" y2="1066.2109"/><text fill="#222222" font-family="Verdana" font-size="12.5" font-weight="bold" lengthAdjust="spacing" textLength="5.2083" x="36.4583" y="1088.2304">[</text><text fill="#222222" font-family="Verdana" font-size="12.5" font-weight="bold" lengthAdjust="spacing" textLength="91.6667" x="41.6667" y="1088.2304">Other Errors</text><text fill="#222222" font-family="Verdana" font-size="12.5" font-weight="bold" lengthAdjust="spacing" textLength="5.2083" x="133.3333" y="1088.2304">]</text><path d="M35.4167,1109.9284 L228.125,1109.9284 L228.125,1136.9792 L217.7083,1147.3958 L31.25,1147.3958 L31.25,1114.0951 A4.1667,4.1667 0 0 1 35.4167,1109.9284 " fill="#FFFFFF" style="stroke:#666666;stroke-width:1.0416666666666667;"/><rect fill="none" height="295.5404" rx="4.1667" ry="4.1667" style="stroke:#2196F3;stroke-width:1.0416666666666667;" width="546.3542" x="31.25" y="1109.9284"/><text fill="#9C27B0" font-family="Verdana" font-size="12.5" font-weight="bold" lengthAdjust="spacing" textLength="129.1667" x="57.2917" y="1132.9895">Client-Side Errors</text><polygon fill="#2196F3" points="126.0417,1199.4141,115.625,1203.5807,126.0417,1207.7474,121.875,1203.5807" style="stroke:#2196F3;stroke-width:1.0416666666666667;"/><line style="stroke:#2196F3;stroke-width:3.125;stroke-dasharray:2.0,2.0;" x1="119.7917" x2="465.625" y1="1203.5807" y2="1203.5807"/><text fill="#222222" font-family="Verdana" font-size="12.5" font-weight="bold" lengthAdjust="spacing" textLength="27.0833" x="142.7083" y="1180.8573">[11]</text><text fill="#222222" font-family="Verdana" font-size="12.5" font-weight="bold" lengthAdjust="spacing" textLength="122.9167" x="194.7917" y="1173.5819">400 Bad Request</text><text fill="#222222" font-family="Verdana" font-size="12.5" lengthAdjust="spacing" textLength="254.1667" x="194.7917" y="1188.1327">(e.g., Invalid fiscal code, missing fields)</text><polygon fill="#2196F3" points="126.0417,1263.9323,115.625,1268.099,126.0417,1272.2656,121.875,1268.099" style="stroke:#2196F3;stroke-width:1.0416666666666667;"/><line style="stroke:#2196F3;stroke-width:3.125;stroke-dasharray:2.0,2.0;" x1="119.7917" x2="465.625" y1="1268.099" y2="1268.099"/><text fill="#222222" font-family="Verdana" font-size="12.5" font-weight="bold" lengthAdjust="spacing" textLength="27.0833" x="142.7083" y="1245.3756">[12]</text><text fill="#222222" font-family="Verdana" font-size="12.5" font-weight="bold" lengthAdjust="spacing" textLength="130.2083" x="194.7917" y="1238.1002">401 Unauthorized</text><text fill="#222222" font-family="Verdana" font-size="12.5" lengthAdjust="spacing" textLength="251.0417" x="194.7917" y="1252.651">(e.g., Invalid or expired security token)</text><polygon fill="#2196F3" points="126.0417,1328.4505,115.625,1332.6172,126.0417,1336.7839,121.875,1332.6172" style="stroke:#2196F3;stroke-width:1.0416666666666667;"/><line style="stroke:#2196F3;stroke-width:3.125;stroke-dasharray:2.0,2.0;" x1="119.7917" x2="465.625" y1="1332.6172" y2="1332.6172"/><text fill="#222222" font-family="Verdana" font-size="12.5" font-weight="bold" lengthAdjust="spacing" textLength="27.0833" x="142.7083" y="1309.8938">[13]</text><text fill="#222222" font-family="Verdana" font-size="12.5" font-weight="bold" lengthAdjust="spacing" textLength="104.1667" x="194.7917" y="1302.6184">403 Forbidden</text><text fill="#222222" font-family="Verdana" font-size="12.5" lengthAdjust="spacing" textLength="196.875" x="194.7917" y="1317.1692">(e.g., Insufficient permissions)</text><polygon fill="#2196F3" points="126.0417,1392.9688,115.625,1397.1354,126.0417,1401.3021,121.875,1397.1354" style="stroke:#2196F3;stroke-width:1.0416666666666667;"/><line style="stroke:#2196F3;stroke-width:3.125;stroke-dasharray:2.0,2.0;" x1="119.7917" x2="465.625" y1="1397.1354" y2="1397.1354"/><text fill="#222222" font-family="Verdana" font-size="12.5" font-weight="bold" lengthAdjust="spacing" textLength="27.0833" x="142.7083" y="1374.412">[14]</text><text fill="#222222" font-family="Verdana" font-size="12.5" font-weight="bold" lengthAdjust="spacing" textLength="173.9583" x="194.7917" y="1367.1366">429 Too Many Requests</text><text fill="#222222" font-family="Verdana" font-size="12.5" lengthAdjust="spacing" textLength="171.875" x="194.7917" y="1381.6874">(e.g., Rate limit exceeded)</text><path d="M35.4167,1420.0521 L225,1420.0521 L225,1447.1029 L214.5833,1457.5195 L31.25,1457.5195 L31.25,1424.2188 A4.1667,4.1667 0 0 1 35.4167,1420.0521 " fill="#FFFFFF" style="stroke:#666666;stroke-width:1.0416666666666667;"/><rect fill="none" height="210.2865" rx="4.1667" ry="4.1667" style="stroke:#2196F3;stroke-width:1.0416666666666667;" width="764.5833" x="31.25" y="1420.0521"/><text fill="#9C27B0" font-family="Verdana" font-size="12.5" font-weight="bold" lengthAdjust="spacing" textLength="126.0417" x="57.2917" y="1443.1132">Server-Side Error</text><path d="M259.375,1466.8945 L259.375,1503.3529 A4.1667,4.1667 0 0 0 263.5417,1507.5195 L666.6667,1507.5195 A4.1667,4.1667 0 0 0 670.8333,1503.3529 L670.8333,1473.1445 L660.4167,1462.7279 L263.5417,1462.7279 A4.1667,4.1667 0 0 0 259.375,1466.8945 " fill="url(#g3g28sgu4bgkm2)" filter="url(#f3g28sgu4bgkm)" style="stroke:#9C27B0;stroke-width:1.0416666666666667;"/><path d="M660.4167,1462.7279 L660.4167,1471.0612 A2.0833,2.0833 0 0 0 662.5,1473.1445 L670.8333,1473.1445 L660.4167,1462.7279 " fill="url(#g3g28sgu4bgkm2)" style="stroke:#9C27B0;stroke-width:1.0416666666666667;"/><text fill="#FFFFFF" font-family="Verdana" font-size="12.5" lengthAdjust="spacing" textLength="368.75" x="276.0417" y="1489.9556">e.g., Database connection failure, unhandled exception.</text><line style="stroke:#2196F3;stroke-width:3.125;" x1="466.6667" x2="510.4167" y1="1558.4961" y2="1558.4961"/><line style="stroke:#2196F3;stroke-width:3.125;" x1="510.4167" x2="510.4167" y1="1558.4961" y2="1572.0378"/><line style="stroke:#2196F3;stroke-width:3.125;" x1="467.7083" x2="510.4167" y1="1572.0378" y2="1572.0378"/><polygon fill="#2196F3" points="478.125,1567.8711,467.7083,1572.0378,478.125,1576.2044,473.9583,1572.0378" style="stroke:#2196F3;stroke-width:1.0416666666666667;"/><text fill="#222222" font-family="Verdana" font-size="12.5" font-weight="bold" lengthAdjust="spacing" textLength="27.0833" x="484.375" y="1543.0481">[15]</text><text fill="#222222" font-family="Verdana" font-size="12.5" lengthAdjust="spacing" textLength="236.4583" x="536.4583" y="1543.0481">An unexpected internal error occurs</text><polygon fill="#2196F3" points="126.0417,1617.8385,115.625,1622.0052,126.0417,1626.1719,121.875,1622.0052" style="stroke:#2196F3;stroke-width:1.0416666666666667;"/><line style="stroke:#2196F3;stroke-width:3.125;stroke-dasharray:2.0,2.0;" x1="119.7917" x2="465.625" y1="1622.0052" y2="1622.0052"/><text fill="#222222" font-family="Verdana" font-size="12.5" font-weight="bold" lengthAdjust="spacing" textLength="27.0833" x="142.7083" y="1606.5572">[16]</text><text fill="#222222" font-family="Verdana" font-size="12.5" font-weight="bold" lengthAdjust="spacing" textLength="180.2083" x="194.7917" y="1606.5572">500 Internal Server Error</text><!--SRC=[jLLTiz8m47tFhrZnGQY2tAi-o3ZEY70THhsNQT4NTJGq2sGCIKrI51t_kvkqGBc2R_QfQSxkdZtxqNimLLpxTs_Vm4ZofULhM1WBwMmAryRB727pt9SENamdx1xCf5SuE76TuRSIDPrhBuHzZzP9emTmqUlt-lHXX2wtil3nuwln31xgwEEwNC_HFlnLy2tYHFmcwD6JeY-jTY1GoGtQBRWgvlt8ex0cH-UaNeBW7g7jK8lusc7iZb_X6c5D9oivOpxmFvtTloanddlIfPKa6TfDi9nQiv42RPAqW9C0KrPmIxQo83q3qFgY6xZi8Md6Y1QVSuVXVbI_rxUZ8GKflT4nDBIUpPz_w7zgCPPDeVkSZ0UG94GnISwI98vo4pIWI8mm25OkLnxC8dm1ihyfqF9O07BpPOc-ag5IuGj1PYlIP0fKJ2lnRyb3Rt1eXYURXLGaBmgORw7cqcEX2842Oscsu_-UAnbhb65UMkctC3DVKLFUoiFTWYjSMaHDFBCo3qM5dFIfsgrcWY9968jT4TsEXWEAhqNgY-7ski6htIJPYHPxUKZgS1uDeLipi-XAvHsq-xsUhj02c_X6o82_YYdlpGw9tyADDroLmKMjNpiRNyyw1sy4owQXi9VzFjoyJfAFEaLN61tIRXtbtVge3wrElKE0NuvlwiDChl7tRTwX3L1HjzrLeG-sg9JvJi6kk5GDQKcf_omlhWigzaswas6SfZVfPz9YT4xg4zqRdfb5xkCitUOzg17Te-wCc8KfjTXVdwPmQDU_IlEu_pXi2xWARavKw8X6wtmD1BTVmvJG5D9MiZ2srbYtqtjfJLd0IoLH-sv6YwM-P_ijUCof3qCkQ3NIf3eVMBMnj-mzW8dUX2cZghcSKvMDm0UmbjM2N4XKmdNE-Ro0TvfMqCfO-HF52QSq_VYZa24BjnjX7qRuhCj799kTIo5G7_bpvM91kvAI1Lf9aHz9UixDvLFQ50RUShtTfUmQxj8Wj99hwObUZYXGTFPLZS8sDGuB76r3uttGgkiCtLPT6vtlrZH9gJNcONd2WWQej2HigLTS2qLwXC3nrzOxk3liWHUQe2GTsHDMQbeUcgg38JoOdAHqnsRxt9zGfISxV4MzOasDSoB5svr7ZVy7]--></g></svg>