<?xml version="1.0" encoding="us-ascii" standalone="no"?><svg xmlns="http://www.w3.org/2000/svg" xmlns:xlink="http://www.w3.org/1999/xlink" contentStyleType="text/css" height="1151px" preserveAspectRatio="none" style="width:1065px;height:1151px;background:#FFFFFF;" version="1.1" viewBox="0 0 1065 1151" width="1065px" zoomAndPan="magnify"><defs><filter height="300%" id="fnwfp6rp5q7kp" width="300%" x="-1" y="-1"><feGaussianBlur result="blurOut" stdDeviation="2.0"/><feColorMatrix in="blurOut" result="blurOut2" type="matrix" values="0 0 0 0 0 0 0 0 0 0 0 0 0 0 0 0 0 0 .4 0"/><feOffset dx="4.0" dy="4.0" in="blurOut2" result="blurOut3"/><feBlend in="SourceGraphic" in2="blurOut3" mode="normal"/></filter></defs><g><text fill="#000000" font-family="sans-serif" font-size="14" font-weight="bold" lengthAdjust="spacing" textLength="145" x="453.25" y="22.9951">RTP State Diagram</text><g id="CREATED"><rect fill="#FEFECE" filter="url(#fnwfp6rp5q7kp)" height="50" rx="12.5" ry="12.5" style="stroke:#A80036;stroke-width:1.0;" width="87" x="641" y="124.2969"/><line style="stroke:#A80036;stroke-width:1.0;" x1="641" x2="728" y1="150.5938" y2="150.5938"/><text fill="#000000" font-family="sans-serif" font-size="14" lengthAdjust="spacing" textLength="67" x="651" y="142.292">CREATED</text></g><g id="SENT"><rect fill="#FEFECE" filter="url(#fnwfp6rp5q7kp)" height="50" rx="12.5" ry="12.5" style="stroke:#A80036;stroke-width:1.0;" width="57" x="596" y="251.2969"/><line style="stroke:#A80036;stroke-width:1.0;" x1="596" x2="653" y1="277.5938" y2="277.5938"/><text fill="#000000" font-family="sans-serif" font-size="14" lengthAdjust="spacing" textLength="37" x="606" y="269.292">SENT</text></g><rect fill="none" filter="url(#fnwfp6rp5q7kp)" height="106.2969" rx="12.5" ry="12.5" style="stroke:#A80036;stroke-width:1.0;" width="294" x="308.5" y="950.2969"/><path d="M321,950.2969 L590,950.2969 A12.5,12.5 0 0 1 602.5,962.7969 L602.5,976.5938 L308.5,976.5938 L308.5,962.7969 A12.5,12.5 0 0 1 321,950.2969 " fill="#FEFECE" style="stroke:#FEFECE;stroke-width:1.0;"/><path d="M308.5,976.5938 L602.5,976.5938 L602.5,1044.0938 A12.5,12.5 0 0 1 590,1056.5938 L321,1056.5938 A12.5,12.5 0 0 1 308.5,1044.0938 L308.5,976.5938 " fill="#FEFECE" style="stroke:#FEFECE;stroke-width:1.0;"/><rect fill="none" height="106.2969" rx="12.5" ry="12.5" style="stroke:#A80036;stroke-width:1.0;" width="294" x="308.5" y="950.2969"/><line style="stroke:#A80036;stroke-width:1.0;" x1="308.5" x2="602.5" y1="976.5938" y2="976.5938"/><text fill="#000000" font-family="sans-serif" font-size="14" lengthAdjust="spacing" textLength="97" x="407" y="968.292">Error statuses</text><g id="ES.ERROR_SEND"><rect fill="#FEFECE" filter="url(#fnwfp6rp5q7kp)" height="50" rx="12.5" ry="12.5" style="stroke:#A80036;stroke-width:1.0;" width="116" x="320.5" y="988.5938"/><line style="stroke:#A80036;stroke-width:1.0;" x1="320.5" x2="436.5" y1="1014.8906" y2="1014.8906"/><text fill="#000000" font-family="sans-serif" font-size="14" lengthAdjust="spacing" textLength="96" x="330.5" y="1006.5889">ERROR_SEND</text></g><g id="ES.ERROR_CANCEL"><rect fill="#FEFECE" filter="url(#fnwfp6rp5q7kp)" height="50" rx="12.5" ry="12.5" style="stroke:#A80036;stroke-width:1.0;" width="132" x="454.5" y="988.5938"/><line style="stroke:#A80036;stroke-width:1.0;" x1="454.5" x2="586.5" y1="1014.8906" y2="1014.8906"/><text fill="#000000" font-family="sans-serif" font-size="14" lengthAdjust="spacing" textLength="112" x="464.5" y="1006.5889">ERROR_CANCEL</text></g><rect fill="none" filter="url(#fnwfp6rp5q7kp)" height="209.2969" rx="12.5" ry="12.5" style="stroke:#A80036;stroke-width:1.0;" width="215.5" x="399.5" y="378.2969"/><path d="M412,378.2969 L602.5,378.2969 A12.5,12.5 0 0 1 615,390.7969 L615,404.5938 L399.5,404.5938 L399.5,390.7969 A12.5,12.5 0 0 1 412,378.2969 " fill="#FEFECE" style="stroke:#FEFECE;stroke-width:1.0;"/><path d="M399.5,404.5938 L615,404.5938 L615,575.0938 A12.5,12.5 0 0 1 602.5,587.5938 L412,587.5938 A12.5,12.5 0 0 1 399.5,575.0938 L399.5,404.5938 " fill="#FEFECE" style="stroke:#FEFECE;stroke-width:1.0;"/><rect fill="none" height="209.2969" rx="12.5" ry="12.5" style="stroke:#A80036;stroke-width:1.0;" width="215.5" x="399.5" y="378.2969"/><line style="stroke:#A80036;stroke-width:1.0;" x1="399.5" x2="615" y1="404.5938" y2="404.5938"/><text fill="#000000" font-family="sans-serif" font-size="14" lengthAdjust="spacing" textLength="130" x="442.25" y="396.292">Accepted statuses</text><g id="AS.ACCEPTED"><rect fill="#FEFECE" filter="url(#fnwfp6rp5q7kp)" height="50" rx="12.5" ry="12.5" style="stroke:#A80036;stroke-width:1.0;" width="96" x="434" y="416.5938"/><line style="stroke:#A80036;stroke-width:1.0;" x1="434" x2="530" y1="442.8906" y2="442.8906"/><text fill="#000000" font-family="sans-serif" font-size="14" lengthAdjust="spacing" textLength="76" x="444" y="434.5889">ACCEPTED</text></g><g id="AS.USER_ACCEPTED"><rect fill="#FEFECE" filter="url(#fnwfp6rp5q7kp)" height="50" rx="12.5" ry="12.5" style="stroke:#A80036;stroke-width:1.0;" width="141" x="411.5" y="519.5938"/><line style="stroke:#A80036;stroke-width:1.0;" x1="411.5" x2="552.5" y1="545.8906" y2="545.8906"/><text fill="#000000" font-family="sans-serif" font-size="14" lengthAdjust="spacing" textLength="121" x="421.5" y="537.5889">USER_ACCEPTED</text></g><!--link ACCEPTED to USER_ACCEPTED--><g id="link_ACCEPTED_USER_ACCEPTED"><path d="M482,466.7838 C482,480.9238 482,498.8738 482,513.8738 " fill="none" id="ACCEPTED-to-USER_ACCEPTED" style="stroke:#A80036;stroke-width:1.0;"/><polygon fill="#A80036" points="482,519.2538,486,510.2537,482,514.2538,478,510.2537,482,519.2538" style="stroke:#A80036;stroke-width:1.0;"/><text fill="#000000" font-family="sans-serif" font-size="13" lengthAdjust="spacing" textLength="122" x="483" y="497.6606">USER_ACCEPT_RTP</text></g><rect fill="none" filter="url(#fnwfp6rp5q7kp)" height="106.2969" rx="12.5" ry="12.5" style="stroke:#A80036;stroke-width:1.0;" width="271.5" x="689" y="715.7969"/><path d="M701.5,715.7969 L948,715.7969 A12.5,12.5 0 0 1 960.5,728.2969 L960.5,742.0938 L689,742.0938 L689,728.2969 A12.5,12.5 0 0 1 701.5,715.7969 " fill="#FEFECE" style="stroke:#FEFECE;stroke-width:1.0;"/><path d="M689,742.0938 L960.5,742.0938 L960.5,809.5938 A12.5,12.5 0 0 1 948,822.0938 L701.5,822.0938 A12.5,12.5 0 0 1 689,809.5938 L689,742.0938 " fill="#FEFECE" style="stroke:#FEFECE;stroke-width:1.0;"/><rect fill="none" height="106.2969" rx="12.5" ry="12.5" style="stroke:#A80036;stroke-width:1.0;" width="271.5" x="689" y="715.7969"/><line style="stroke:#A80036;stroke-width:1.0;" x1="689" x2="960.5" y1="742.0938" y2="742.0938"/><text fill="#000000" font-family="sans-serif" font-size="14" lengthAdjust="spacing" textLength="126" x="761.75" y="733.792">Rejected statuses</text><g id="RS.REJECTED"><rect fill="#FEFECE" filter="url(#fnwfp6rp5q7kp)" height="50" rx="12.5" ry="12.5" style="stroke:#A80036;stroke-width:1.0;" width="90" x="701" y="754.0938"/><line style="stroke:#A80036;stroke-width:1.0;" x1="701" x2="791" y1="780.3906" y2="780.3906"/><text fill="#000000" font-family="sans-serif" font-size="14" lengthAdjust="spacing" textLength="70" x="711" y="772.0889">REJECTED</text></g><g id="RS.USER_REJECTED"><rect fill="#FEFECE" filter="url(#fnwfp6rp5q7kp)" height="50" rx="12.5" ry="12.5" style="stroke:#A80036;stroke-width:1.0;" width="135" x="809.5" y="754.0938"/><line style="stroke:#A80036;stroke-width:1.0;" x1="809.5" x2="944.5" y1="780.3906" y2="780.3906"/><text fill="#000000" font-family="sans-serif" font-size="14" lengthAdjust="spacing" textLength="115" x="819.5" y="772.0889">USER_REJECTED</text></g><rect fill="none" filter="url(#fnwfp6rp5q7kp)" height="209.2969" rx="12.5" ry="12.5" style="stroke:#A80036;stroke-width:1.0;" width="554.5" x="7" y="664.2969"/><path d="M19.5,664.2969 L549,664.2969 A12.5,12.5 0 0 1 561.5,676.7969 L561.5,690.5938 L7,690.5938 L7,676.7969 A12.5,12.5 0 0 1 19.5,664.2969 " fill="#FEFECE" style="stroke:#FEFECE;stroke-width:1.0;"/><path d="M7,690.5938 L561.5,690.5938 L561.5,861.0938 A12.5,12.5 0 0 1 549,873.5938 L19.5,873.5938 A12.5,12.5 0 0 1 7,861.0938 L7,690.5938 " fill="#FEFECE" style="stroke:#FEFECE;stroke-width:1.0;"/><rect fill="none" height="209.2969" rx="12.5" ry="12.5" style="stroke:#A80036;stroke-width:1.0;" width="554.5" x="7" y="664.2969"/><line style="stroke:#A80036;stroke-width:1.0;" x1="7" x2="561.5" y1="690.5938" y2="690.5938"/><text fill="#000000" font-family="sans-serif" font-size="14" lengthAdjust="spacing" textLength="132" x="218.25" y="682.292">Cancelled statuses</text><g id="CS.CANCELLED"><rect fill="#FEFECE" filter="url(#fnwfp6rp5q7kp)" height="50" rx="12.5" ry="12.5" style="stroke:#A80036;stroke-width:1.0;" width="102" x="235.5" y="702.5938"/><line style="stroke:#A80036;stroke-width:1.0;" x1="235.5" x2="337.5" y1="728.8906" y2="728.8906"/><text fill="#000000" font-family="sans-serif" font-size="14" lengthAdjust="spacing" textLength="82" x="245.5" y="720.5889">CANCELLED</text></g><g id="CS.CANCELLED_REJECTED"><rect fill="#FEFECE" filter="url(#fnwfp6rp5q7kp)" height="50" rx="12.5" ry="12.5" style="stroke:#A80036;stroke-width:1.0;" width="179" x="19" y="805.5938"/><line style="stroke:#A80036;stroke-width:1.0;" x1="19" x2="198" y1="831.8906" y2="831.8906"/><text fill="#000000" font-family="sans-serif" font-size="14" lengthAdjust="spacing" textLength="159" x="29" y="823.5889">CANCELLED_REJECTED</text></g><g id="CS.CANCELLED_PAID"><rect fill="#FEFECE" filter="url(#fnwfp6rp5q7kp)" height="50" rx="12.5" ry="12.5" style="stroke:#A80036;stroke-width:1.0;" width="141" x="216" y="805.5938"/><line style="stroke:#A80036;stroke-width:1.0;" x1="216" x2="357" y1="831.8906" y2="831.8906"/><text fill="#000000" font-family="sans-serif" font-size="14" lengthAdjust="spacing" textLength="121" x="226" y="823.5889">CANCELLED_PAID</text></g><g id="CS.CANCELLED_ACCR"><rect fill="#FEFECE" filter="url(#fnwfp6rp5q7kp)" height="50" rx="12.5" ry="12.5" style="stroke:#A80036;stroke-width:1.0;" width="148" x="375.5" y="805.5938"/><line style="stroke:#A80036;stroke-width:1.0;" x1="375.5" x2="523.5" y1="831.8906" y2="831.8906"/><text fill="#000000" font-family="sans-serif" font-size="14" lengthAdjust="spacing" textLength="128" x="385.5" y="823.5889">CANCELLED_ACCR</text></g><!--link CANCELLED to CANCELLED_ACCR--><g id="link_CANCELLED_CANCELLED_ACCR"><path d="M337.72,737.5838 C361.96,743.7838 390.18,754.0038 411.5,770.5938 C421.76,778.5838 430.08,790.1637 436.28,800.9638 " fill="none" id="CANCELLED-to-CANCELLED_ACCR" style="stroke:#A80036;stroke-width:1.0;"/><polygon fill="#A80036" points="438.81,805.5238,437.9358,795.7138,436.3818,801.153,430.9426,799.5989,438.81,805.5238" style="stroke:#A80036;stroke-width:1.0;"/><text fill="#000000" font-family="sans-serif" font-size="13" lengthAdjust="spacing" textLength="124" x="427.5" y="783.6606">CANCEL_RTP_ACCR</text></g><!--link CANCELLED to CANCELLED_REJECTED--><g id="link_CANCELLED_CANCELLED_REJECTED"><path d="M235.13,730.6138 C201.6,734.5138 158.92,744.7238 130.5,770.5938 C121.95,778.3838 116.71,789.8038 113.5,800.5338 " fill="none" id="CANCELLED-to-CANCELLED_REJECTED" style="stroke:#A80036;stroke-width:1.0;"/><polygon fill="#A80036" points="112.17,805.4038,118.4143,797.7874,113.4964,800.5829,110.7009,795.6651,112.17,805.4038" style="stroke:#A80036;stroke-width:1.0;"/><text fill="#000000" font-family="sans-serif" font-size="13" lengthAdjust="spacing" textLength="150" x="131.5" y="783.6606">CANCEL_RTP_REJECTED</text></g><!--link CANCELLED to CANCELLED_PAID--><g id="link_CANCELLED_CANCELLED_PAID"><path d="M286.5,752.7838 C286.5,766.9238 286.5,784.8738 286.5,799.8738 " fill="none" id="CANCELLED-to-CANCELLED_PAID" style="stroke:#A80036;stroke-width:1.0;"/><polygon fill="#A80036" points="286.5,805.2538,290.5,796.2538,286.5,800.2538,282.5,796.2538,286.5,805.2538" style="stroke:#A80036;stroke-width:1.0;"/><text fill="#000000" font-family="sans-serif" font-size="13" lengthAdjust="spacing" textLength="119" x="287.5" y="783.6606">CANCEL_RTP_PAID</text></g><ellipse cx="684.5" cy="53.2969" fill="#A80036" filter="url(#fnwfp6rp5q7kp)" rx="10" ry="10" style="stroke:none;stroke-width:1.0;"/><g id="ERROR_SENT"><rect fill="#FEFECE" filter="url(#fnwfp6rp5q7kp)" height="50" rx="12.5" ry="12.5" style="stroke:#A80036;stroke-width:1.0;" width="114" x="688.5" y="251.2969"/><line style="stroke:#A80036;stroke-width:1.0;" x1="688.5" x2="802.5" y1="277.5938" y2="277.5938"/><text fill="#000000" font-family="sans-serif" font-size="14" lengthAdjust="spacing" textLength="94" x="698.5" y="269.292">ERROR_SENT</text></g><g id="PAID"><rect fill="#FEFECE" filter="url(#fnwfp6rp5q7kp)" height="50" rx="12.5" ry="12.5" style="stroke:#A80036;stroke-width:1.0;" width="52" x="601.5" y="743.7969"/><line style="stroke:#A80036;stroke-width:1.0;" x1="601.5" x2="653.5" y1="770.0938" y2="770.0938"/><text fill="#000000" font-family="sans-serif" font-size="14" lengthAdjust="spacing" textLength="32" x="611.5" y="761.792">PAID</text></g><ellipse cx="605.5" cy="1127.2969" fill="none" filter="url(#fnwfp6rp5q7kp)" rx="10" ry="10" style="stroke:#A80036;stroke-width:1.0;"/><ellipse cx="606" cy="1127.7969" fill="#A80036" rx="6" ry="6" style="stroke:none;stroke-width:1.0;"/><!--link *start* to CREATED--><g id="link_*start*_CREATED"><path d="M684.5,63.3069 C684.5,75.9969 684.5,99.7069 684.5,118.8669 " fill="none" id="*start*-to-CREATED" style="stroke:#A80036;stroke-width:1.0;"/><polygon fill="#A80036" points="684.5,124.1369,688.5,115.1369,684.5,119.1369,680.5,115.1369,684.5,124.1369" style="stroke:#A80036;stroke-width:1.0;"/></g><!--link CREATED to SENT--><g id="link_CREATED_SENT"><path d="M655.57,174.3669 C647.11,182.9269 638.73,193.2169 633.5,204.2969 C627.41,217.1869 624.97,232.7869 624.13,246.0869 " fill="none" id="CREATED-to-SENT" style="stroke:#A80036;stroke-width:1.0;"/><polygon fill="#A80036" points="623.88,251.2469,628.3131,242.4521,624.1233,246.2528,620.3226,242.0629,623.88,251.2469" style="stroke:#A80036;stroke-width:1.0;"/><text fill="#000000" font-family="sans-serif" font-size="13" lengthAdjust="spacing" textLength="67" x="634.5" y="217.3638">SEND_RTP</text></g><!--link CREATED to ERROR_SENT--><g id="link_CREATED_ERROR_SENT"><path d="M696.26,174.3969 C706.35,195.0669 720.89,224.8669 731.56,246.7269 " fill="none" id="CREATED-to-ERROR_SENT" style="stroke:#A80036;stroke-width:1.0;"/><polygon fill="#A80036" points="733.77,251.2669,733.3983,241.425,731.5683,246.7777,726.2156,244.9477,733.77,251.2669" style="stroke:#A80036;stroke-width:1.0;"/><text fill="#000000" font-family="sans-serif" font-size="13" lengthAdjust="spacing" textLength="116" x="720.5" y="217.3638">ERROR_SEND_RTP</text></g><!--link SENT to AS--><g id="link_SENT_AS"><path d="M595.9,280.8469 C546.16,287.6769 447.05,304.3969 426.5,331.2969 C416.55,344.3269 414.67,358.7469 417.83,373.3369 " fill="none" id="SENT-to-AS" style="stroke:#A80036;stroke-width:1.0;"/><polygon fill="#A80036" points="419.1,378.2969,420.7372,368.5851,417.8571,373.4538,412.9883,370.5737,419.1,378.2969" style="stroke:#A80036;stroke-width:1.0;"/><text fill="#000000" font-family="sans-serif" font-size="13" lengthAdjust="spacing" textLength="80" x="427.5" y="344.3638">ACCEPT_RTP</text></g><!--link SENT to AS--><g id="link_SENT_AS"><path d="M595.77,291.3369 C579.66,300.5969 560.45,314.1769 548.5,331.2969 C539.73,343.8669 532.83,358.2369 527.4,372.9869 " fill="none" id="SENT-to-AS-1" style="stroke:#A80036;stroke-width:1.0;"/><polygon fill="#A80036" points="525.62,378.0069,532.4044,370.8674,527.2953,373.2959,524.8668,368.1869,525.62,378.0069" style="stroke:#A80036;stroke-width:1.0;"/><text fill="#000000" font-family="sans-serif" font-size="13" lengthAdjust="spacing" textLength="122" x="549.5" y="344.3638">USER_ACCEPT_RTP</text></g><!--link SENT to RS--><g id="link_SENT_RS"><path d="M653.12,293.3569 C691.28,315.3769 755.62,354.8769 769.5,378.2969 C831.51,482.9169 833.86,630.4769 829.55,710.5969 " fill="none" id="SENT-to-RS" style="stroke:#A80036;stroke-width:1.0;"/><polygon fill="#A80036" points="829.26,715.7769,833.7669,707.0197,829.5452,710.785,825.78,706.5633,829.26,715.7769" style="stroke:#A80036;stroke-width:1.0;"/><text fill="#000000" font-family="sans-serif" font-size="13" lengthAdjust="spacing" textLength="73" x="828.5" y="487.3638">REJECT_RTP</text></g><!--link SENT to RS--><g id="link_SENT_RS"><path d="M653.34,293.2969 C658.95,296.1369 664.85,298.9369 670.5,301.2969 C773.87,344.4769 844.49,287.7869 910.5,378.2969 C983.77,478.7469 911.97,629.8769 862.54,711.1969 " fill="none" id="SENT-to-RS-1" style="stroke:#A80036;stroke-width:1.0;"/><polygon fill="#A80036" points="859.91,715.4969,868.0147,709.9009,862.5161,711.2298,861.1873,705.7312,859.91,715.4969" style="stroke:#A80036;stroke-width:1.0;"/><text fill="#000000" font-family="sans-serif" font-size="13" lengthAdjust="spacing" textLength="115" x="942.5" y="487.3638">USER_REJECT_RTP</text></g><!--link SENT to PAID--><g id="link_SENT_PAID"><path d="M653.2,299.3069 C662.45,308.1269 671.58,319.1069 676.5,331.2969 C726.86,456.1969 700.06,501.7069 676.5,634.2969 C669.87,671.5969 653.58,712.1469 641.6,738.6469 " fill="none" id="SENT-to-PAID" style="stroke:#A80036;stroke-width:1.0;"/><polygon fill="#A80036" points="639.41,743.4269,646.7834,736.8975,641.4844,738.8775,639.5044,733.5785,639.41,743.4269" style="stroke:#A80036;stroke-width:1.0;"/><text fill="#000000" font-family="sans-serif" font-size="13" lengthAdjust="spacing" textLength="54" x="706.5" y="487.3638">PAY_RTP</text></g><!--link SENT to CS--><g id="link_SENT_CS"><path d="M595.94,281.5969 C522.87,293.2569 332.39,328.0169 297.5,378.2969 C241.16,459.5069 244.88,574.8769 258.47,658.9669 " fill="none" id="SENT-to-CS" style="stroke:#A80036;stroke-width:1.0;"/><polygon fill="#A80036" points="259.3,663.9569,261.7794,654.4252,258.485,659.0238,253.8864,655.7293,259.3,663.9569" style="stroke:#A80036;stroke-width:1.0;"/><text fill="#000000" font-family="sans-serif" font-size="13" lengthAdjust="spacing" textLength="82" x="298.5" y="487.3638">CANCEL_RTP</text></g><!--link AS to RS--><g id="link_AS_RS"><path d="M615.71,580.7369 C664.63,624.5669 720.69,674.7869 762.39,712.1469 " fill="none" id="AS-to-RS" style="stroke:#A80036;stroke-width:1.0;"/><polygon fill="#A80036" points="766.13,715.4969,762.0991,706.5107,762.4072,712.1591,756.7587,712.4672,766.13,715.4969" style="stroke:#A80036;stroke-width:1.0;"/><text fill="#000000" font-family="sans-serif" font-size="13" lengthAdjust="spacing" textLength="115" x="667.5" y="630.3638">USER_REJECT_RTP</text></g><!--link AS to CS--><g id="link_AS_CS"><path d="M399.18,573.5569 C385.32,587.4369 371.98,602.2069 360.5,617.2969 C350.62,630.2769 341.44,644.7369 333.12,659.4269 " fill="none" id="AS-to-CS" style="stroke:#A80036;stroke-width:1.0;"/><polygon fill="#A80036" points="330.57,663.9869,338.4522,658.0817,333.0091,659.6222,331.4686,654.1791,330.57,663.9869" style="stroke:#A80036;stroke-width:1.0;"/><text fill="#000000" font-family="sans-serif" font-size="13" lengthAdjust="spacing" textLength="82" x="361.5" y="630.3638">CANCEL_RTP</text></g><!--link AS to PAID--><g id="link_AS_PAID"><path d="M448.77,587.4369 C446.3,604.1369 448.7,620.4669 459.5,634.2969 C493.33,677.6269 537.13,629.2669 579.5,664.2969 C602.3,683.1469 614.84,715.2369 621.32,738.6969 " fill="none" id="AS-to-PAID" style="stroke:#A80036;stroke-width:1.0;"/><polygon fill="#A80036" points="622.62,743.5669,624.1696,733.8407,621.3335,738.7352,616.4389,735.8991,622.62,743.5669" style="stroke:#A80036;stroke-width:1.0;"/><text fill="#000000" font-family="sans-serif" font-size="13" lengthAdjust="spacing" textLength="54" x="460.5" y="630.3638">PAY_RTP</text></g><!--link CS to ES--><g id="link_CS_ES"><path d="M360.75,873.4669 C379.11,898.4369 398.05,924.1769 414.12,946.0369 " fill="none" id="CS-to-ES" style="stroke:#A80036;stroke-width:1.0;"/><polygon fill="#A80036" points="417.09,950.0669,414.9889,940.4447,414.1313,946.0362,408.5399,945.1786,417.09,950.0669" style="stroke:#A80036;stroke-width:1.0;"/><text fill="#000000" font-family="sans-serif" font-size="13" lengthAdjust="spacing" textLength="131" x="391.5" y="916.3638">ERROR_CANCEL_RTP</text></g><!--link PAID to *end*--><g id="link_PAID_*end*"><path d="M628.2,794.0369 C629.33,843.5269 630.44,959.6369 619.5,1056.2969 C617.29,1075.8669 612.43,1098.1169 609.06,1112.1669 " fill="none" id="PAID-to-*end*" style="stroke:#A80036;stroke-width:1.0;"/><polygon fill="#A80036" points="607.81,1117.3169,613.8303,1109.5222,608.9958,1112.4595,606.0585,1107.625,607.81,1117.3169" style="stroke:#A80036;stroke-width:1.0;"/></g><!--link RS to *end*--><g id="link_RS_*end*"><path d="M798.98,822.0069 C766.31,886.7769 706.15,999.3969 641.5,1087.2969 C633.85,1097.6969 623.8,1108.3869 616.26,1115.9469 " fill="none" id="RS-to-*end*" style="stroke:#A80036;stroke-width:1.0;"/><polygon fill="#A80036" points="612.36,1119.7969,621.5736,1116.3171,615.9169,1116.2828,615.9512,1110.6261,612.36,1119.7969" style="stroke:#A80036;stroke-width:1.0;"/></g><!--link ES to *end*--><g id="link_ES_*end*"><path d="M519.55,1056.3869 C547.79,1079.3569 578.15,1104.0469 594.14,1117.0569 " fill="none" id="ES-to-*end*" style="stroke:#A80036;stroke-width:1.0;"/><polygon fill="#A80036" points="598.25,1120.4069,593.7873,1111.6271,594.3694,1117.2539,588.7426,1117.836,598.25,1120.4069" style="stroke:#A80036;stroke-width:1.0;"/></g><!--link CS to *end*--><g id="link_CS_*end*"><path d="M257.64,873.3369 C248.6,933.1769 249.5,1006.2769 290.5,1056.2969 C329.46,1103.8369 533.05,1121.3069 590.43,1125.3269 " fill="none" id="CS-to-*end*" style="stroke:#A80036;stroke-width:1.0;"/><polygon fill="#A80036" points="595.52,1125.6769,586.8147,1121.0705,590.5317,1125.3348,586.2674,1129.0518,595.52,1125.6769" style="stroke:#A80036;stroke-width:1.0;"/></g><!--SRC=[TLBBQiCm4BphAqIEXVn03WKXxw4bf6Rb7aefnhYYE7MJOhcdqd-lNfQyZksBfPsTsSV8V7ONFboDPcCtzffZLN8rDgFcHTTy3CqNOyPV9OAee8Wt1QTgGdOm3DU1kykFqMR76yD1yL_6xHTI0F49QqigRe9Id2GSsLzI4sshlqVzJWK55HHIGkdQoQ5d1LYdUDP3VTRjZHvIFOH7a2jwAPxrP7DfTTyl1IKL36CTYMAArIlbCbYAXtN03eUkaTUxDxxVtoTB68id7tNMy8FxsJfLIR3aWyl8flWyviCko-xw43ViaGIW0qBl5F2CcG4hjDawAUh6jNWfNcXSEbOOFlGtUUjHulPASTlHPkc8BGl4yA8VblOVICGD8X3ysKgVBAUKz12sQB6R6SK_3nbw1PLyd6_AannkNmf3bOwGZp8V_m40]--></g></svg>