<svg xmlns="http://www.w3.org/2000/svg" xmlns:xlink="http://www.w3.org/1999/xlink" contentStyleType="text/css" data-diagram-type="SEQUENCE" height="1788.5417px" preserveAspectRatio="none" style="width:888px;height:1788px;" version="1.1" viewBox="0 0 888 1788" width="888.5417px" zoomAndPan="magnify"><title>RTP Notice Status API: GET /noticeNumber/{payeeId}</title><defs><linearGradient id="g3g28sgu4bgkm0" x1="50%" x2="50%" y1="0%" y2="100%"><stop offset="0%" stop-color="#FFFFFF"/><stop offset="100%" stop-color="#FFFFFF"/></linearGradient><filter height="300%" id="f3g28sgu4bgkm" width="300%" x="-1" y="-1"><feGaussianBlur result="blurOut" stdDeviation="2.0833"/><feColorMatrix in="blurOut" result="blurOut2" type="matrix" values="0 0 0 0 0 0 0 0 0 0 0 0 0 0 0 0 0 0 .4 0"/><feOffset dx="4.1667" dy="4.1667" in="blurOut2" result="blurOut3"/><feBlend in="SourceGraphic" in2="blurOut3" mode="normal"/></filter><linearGradient id="g3g28sgu4bgkm1" x1="50%" x2="50%" y1="0%" y2="100%"><stop offset="0%" stop-color="#4DABF5"/><stop offset="100%" stop-color="#2196F3"/></linearGradient><linearGradient id="g3g28sgu4bgkm2" x1="50%" x2="50%" y1="0%" y2="100%"><stop offset="0%" stop-color="#B052C0"/><stop offset="100%" stop-color="#9C27B0"/></linearGradient></defs><g><rect fill="url(#g3g28sgu4bgkm0)" height="58.6528" rx="4.1667" ry="4.1667" style="stroke:#CCCCCC;stroke-width:1.0417;" width="679.9093" x="105.4153" y="20.8333"/><text fill="#2196F3" font-family="Verdana" font-size="20.8333" font-weight="bold" lengthAdjust="spacing" textLength="646.5759" x="122.082" y="58.4452">RTP Notice Status API: GET /noticeNumber/{payeeId}</text><g><title>..rtp-sender..</title><rect fill="#FFFFFF" filter="url(#f3g28sgu4bgkm)" height="530.8248" style="stroke:#CCCCCC;stroke-width:1.0417;" width="10.4167" x="461.1928" y="246.3277"/></g><g><title>..Database..</title><rect fill="#FFFFFF" filter="url(#f3g28sgu4bgkm)" height="50.6083" style="stroke:#CCCCCC;stroke-width:1.0417;" width="10.4167" x="808.9935" y="517.2526"/></g><g><title>..Database..</title><rect fill="#FFFFFF" filter="url(#f3g28sgu4bgkm)" height="50.6083" style="stroke:#CCCCCC;stroke-width:1.0417;" width="10.4167" x="808.9935" y="865.8691"/></g><rect fill="#98FB98" filter="url(#f3g28sgu4bgkm)" height="1245.9412" rx="4.1667" ry="4.1667" style="stroke:#2196F3;stroke-width:1.0417;" width="850.1149" x="20.8333" y="416.4693"/><path d="M20.8333,785.4858 L870.9483,785.4858 L870.9483,1076.8107 A4.1667,4.1667 0 0 1 866.7816,1080.9774 L25,1080.9774 A4.1667,4.1667 0 0 1 20.8333,1076.8107 L20.8333,785.4858" fill="#FFFFE0" style="stroke:none;stroke-width:1.0417;"/><path d="M20.8333,1080.9774 L870.9483,1080.9774 L870.9483,1658.2438 A4.1667,4.1667 0 0 1 866.7816,1662.4105 L25,1662.4105 A4.1667,4.1667 0 0 1 20.8333,1658.2438 L20.8333,1080.9774" fill="#8B0000" style="stroke:none;stroke-width:1.0417;"/><rect fill="url(#g3g28sgu4bgkm0)" filter="url(#f3g28sgu4bgkm)" height="301.3082" rx="4.1667" ry="4.1667" style="stroke:#2196F3;stroke-width:1.0417;" width="543.7673" x="31.25" y="1126.3774"/><rect fill="url(#g3g28sgu4bgkm0)" filter="url(#f3g28sgu4bgkm)" height="212.8499" rx="4.1667" ry="4.1667" style="stroke:#2196F3;stroke-width:1.0417;" width="758.0393" x="31.25" y="1442.2689"/><g><title>..Service Provider..</title><rect fill="#000000" fill-opacity="0.00000" height="1486.4827" width="8.3333" x="108.7046" y="193.6361"/><line style="stroke:#CCCCCC;stroke-width:1.0417;stroke-dasharray:5.2083,5.2083;" x1="112.5" x2="112.5" y1="193.6361" y2="1680.1188"/></g><g><title>..rtp-sender..</title><rect fill="#000000" fill-opacity="0.00000" height="1486.4827" width="8.3333" x="462.2345" y="193.6361"/><line style="stroke:#CCCCCC;stroke-width:1.0417;stroke-dasharray:5.2083,5.2083;" x1="466.1184" x2="466.1184" y1="193.6361" y2="1680.1188"/></g><g><title>..Database..</title><rect fill="#000000" fill-opacity="0.00000" height="1486.4827" width="8.3333" x="810.0352" y="193.6361"/><line style="stroke:#CCCCCC;stroke-width:1.0417;stroke-dasharray:5.2083,5.2083;" x1="813.7054" x2="813.7054" y1="193.6361" y2="1680.1188"/></g><g class="participant participant-head" data-participant="SP"><text fill="#222222" font-family="Verdana" font-size="12.5" font-weight="bold" lengthAdjust="spacing" textLength="115.3259" x="52.0833" y="180.5949">Service Provider</text><ellipse cx="112.8713" cy="100.3194" fill="url(#g3g28sgu4bgkm1)" filter="url(#f3g28sgu4bgkm)" rx="8.3333" ry="8.3333" style="stroke:#2196F3;stroke-width:1.0417;"/><path d="M112.8713,108.6528 L112.8713,136.7778 M99.3296,116.9861 L126.413,116.9861 M112.8713,136.7778 L99.3296,152.4028 M112.8713,136.7778 L126.413,152.4028" fill="none" filter="url(#f3g28sgu4bgkm)" style="stroke:#2196F3;stroke-width:1.0417;"/></g><g class="participant participant-tail" data-participant="SP"><text fill="#222222" font-family="Verdana" font-size="12.5" font-weight="bold" lengthAdjust="spacing" textLength="115.3259" x="52.0833" y="1702.061">Service Provider</text><ellipse cx="112.8713" cy="1724.4771" fill="url(#g3g28sgu4bgkm1)" filter="url(#f3g28sgu4bgkm)" rx="8.3333" ry="8.3333" style="stroke:#2196F3;stroke-width:1.0417;"/><path d="M112.8713,1732.8105 L112.8713,1760.9355 M99.3296,1741.1438 L126.413,1741.1438 M112.8713,1760.9355 L99.3296,1776.5605 M112.8713,1760.9355 L126.413,1776.5605" fill="none" filter="url(#f3g28sgu4bgkm)" style="stroke:#2196F3;stroke-width:1.0417;"/></g><g class="participant participant-head" data-participant="RS"><rect fill="url(#g3g28sgu4bgkm1)" filter="url(#f3g28sgu4bgkm)" height="50.6083" rx="4.1667" ry="4.1667" style="stroke:#2196F3;stroke-width:1.0417;" width="109.9406" x="409.8684" y="138.8611"/><text fill="#FFFFFF" font-family="Verdana" font-size="12.5" font-weight="bold" lengthAdjust="spacing" textLength="74.5239" x="427.5767" y="169.1366">rtp-sender</text></g><g class="participant participant-tail" data-participant="RS"><rect fill="url(#g3g28sgu4bgkm1)" filter="url(#f3g28sgu4bgkm)" height="50.6083" rx="4.1667" ry="4.1667" style="stroke:#2196F3;stroke-width:1.0417;" width="109.9406" x="409.8684" y="1679.0771"/><text fill="#FFFFFF" font-family="Verdana" font-size="12.5" font-weight="bold" lengthAdjust="spacing" textLength="74.5239" x="427.5767" y="1709.3526">rtp-sender</text></g><g class="participant participant-head" data-participant="DB"><text fill="#222222" font-family="Verdana" font-size="12.5" font-weight="bold" lengthAdjust="spacing" textLength="65.5762" x="778.2888" y="180.5949">Database</text><path d="M795.4519,120.1111 C795.4519,109.6944 814.2019,109.6944 814.2019,109.6944 C814.2019,109.6944 832.9519,109.6944 832.9519,120.1111 L832.9519,147.1944 C832.9519,157.6111 814.2019,157.6111 814.2019,157.6111 C814.2019,157.6111 795.4519,157.6111 795.4519,147.1944 L795.4519,120.1111" fill="url(#g3g28sgu4bgkm1)" filter="url(#f3g28sgu4bgkm)" style="stroke:#2196F3;stroke-width:1.0417;"/><path d="M795.4519,120.1111 C795.4519,130.5278 814.2019,130.5278 814.2019,130.5278 C814.2019,130.5278 832.9519,130.5278 832.9519,120.1111" fill="none" style="stroke:#2196F3;stroke-width:1.0417;"/></g><g class="participant participant-tail" data-participant="DB"><text fill="#222222" font-family="Verdana" font-size="12.5" font-weight="bold" lengthAdjust="spacing" textLength="65.5762" x="778.2888" y="1702.061">Database</text><path d="M795.4519,1725.5188 C795.4519,1715.1021 814.2019,1715.1021 814.2019,1715.1021 C814.2019,1715.1021 832.9519,1715.1021 832.9519,1725.5188 L832.9519,1752.6021 C832.9519,1763.0188 814.2019,1763.0188 814.2019,1763.0188 C814.2019,1763.0188 795.4519,1763.0188 795.4519,1752.6021 L795.4519,1725.5188" fill="url(#g3g28sgu4bgkm1)" filter="url(#f3g28sgu4bgkm)" style="stroke:#2196F3;stroke-width:1.0417;"/><path d="M795.4519,1725.5188 C795.4519,1735.9355 814.2019,1735.9355 814.2019,1735.9355 C814.2019,1735.9355 832.9519,1735.9355 832.9519,1725.5188" fill="none" style="stroke:#2196F3;stroke-width:1.0417;"/></g><g><title>..rtp-sender..</title><rect fill="#FFFFFF" filter="url(#f3g28sgu4bgkm)" height="530.8248" style="stroke:#CCCCCC;stroke-width:1.0417;" width="10.4167" x="461.1928" y="246.3277"/></g><g><title>..Database..</title><rect fill="#FFFFFF" filter="url(#f3g28sgu4bgkm)" height="50.6083" style="stroke:#CCCCCC;stroke-width:1.0417;" width="10.4167" x="808.9935" y="517.2526"/></g><g><title>..Database..</title><rect fill="#FFFFFF" filter="url(#f3g28sgu4bgkm)" height="50.6083" style="stroke:#CCCCCC;stroke-width:1.0417;" width="10.4167" x="808.9935" y="865.8691"/></g><g class="message" data-participant-1="SP" data-participant-2="RS"><polygon fill="#2196F3" points="448.6928,242.1611,459.1095,246.3277,448.6928,250.4944,452.8595,246.3277" style="stroke:#2196F3;stroke-width:1.0417;"/><line style="stroke:#2196F3;stroke-width:3.125;" x1="112.8713" x2="454.9428" y1="246.3277" y2="246.3277"/><text fill="#222222" font-family="Verdana" font-size="12.5" font-weight="bold" lengthAdjust="spacing" textLength="22.4731" x="130.5796" y="231.2032">[1]</text><text fill="#222222" font-family="Verdana" font-size="12.5" font-weight="bold" lengthAdjust="spacing" textLength="27.1973" x="178.0528" y="231.2032">GET</text><text fill="#222222" font-family="Verdana" font-size="12.5" lengthAdjust="spacing" textLength="165.6555" x="209.6446" y="231.2032">/noticeNumber/{payeeId}</text></g><path d="M476.0417,264.0361 L476.0417,331.7444 A4.1667,4.1667 0 0 0 480.2083,335.9111 L830.2083,335.9111 A4.1667,4.1667 0 0 0 834.375,331.7444 L834.375,270.2861 L823.9583,259.8694 L480.2083,259.8694 A4.1667,4.1667 0 0 0 476.0417,264.0361" fill="url(#g3g28sgu4bgkm2)" filter="url(#f3g28sgu4bgkm)" style="stroke:#9C27B0;stroke-width:1.0417;"/><path d="M823.9583,259.8694 L823.9583,268.2027 A2.0833,2.0833 0 0 0 826.0417,270.2861 L834.375,270.2861 L823.9583,259.8694" fill="url(#g3g28sgu4bgkm2)" style="stroke:#9C27B0;stroke-width:1.0417;"/><text fill="#FFFFFF" font-family="Verdana" font-size="12.5" font-weight="bold" lengthAdjust="spacing" textLength="74.7131" x="492.7083" y="288.0615">Operation:</text><text fill="#FFFFFF" font-family="Verdana" font-size="12.5" lengthAdjust="spacing" textLength="115.6311" x="571.816" y="288.0615">`getNoticeStatus`</text><text fill="#FFFFFF" font-family="Verdana" font-size="12.5" lengthAdjust="spacing" textLength="316.3574" x="492.7083" y="303.2532">The SP queries delivery status for a noticeNumber</text><text fill="#FFFFFF" font-family="Verdana" font-size="12.5" lengthAdjust="spacing" textLength="123.3521" x="492.7083" y="318.4448">filtered by payeeId.</text><g class="message" data-participant-1="RS" data-participant-2="RS"><line style="stroke:#2196F3;stroke-width:3.125;" x1="471.6095" x2="515.3595" y1="387.3027" y2="387.3027"/><line style="stroke:#2196F3;stroke-width:3.125;" x1="515.3595" x2="515.3595" y1="387.3027" y2="400.8443"/><line style="stroke:#2196F3;stroke-width:3.125;" x1="472.6512" x2="515.3595" y1="400.8443" y2="400.8443"/><polygon fill="#2196F3" points="483.0678,396.6777,472.6512,400.8443,483.0678,405.011,478.9012,400.8443" style="stroke:#2196F3;stroke-width:1.0417;"/><text fill="#222222" font-family="Verdana" font-size="12.5" font-weight="bold" lengthAdjust="spacing" textLength="22.4731" x="489.3178" y="372.1781">[2]</text><text fill="#222222" font-family="Verdana" font-size="12.5" lengthAdjust="spacing" textLength="148.9136" x="536.791" y="372.1781">Validate Security Token</text></g><path d="M25,416.4693 L106.8583,416.4693 L106.8583,444.161 L96.4417,454.5776 L20.8333,454.5776 L20.8333,420.636 A4.1667,4.1667 0 0 1 25,416.4693" fill="#FFFFFF" style="stroke:#666666;stroke-width:1.0417;"/><rect fill="none" height="1245.9412" rx="4.1667" ry="4.1667" style="stroke:#2196F3;stroke-width:1.0417;" width="850.1149" x="20.8333" y="416.4693"/><text fill="#9C27B0" font-family="Verdana" font-size="12.5" font-weight="bold" lengthAdjust="spacing" textLength="18.3167" x="46.875" y="440.4948">alt</text><text fill="#222222" font-family="Verdana" font-size="12.5" font-weight="bold" lengthAdjust="spacing" textLength="6.7932" x="132.9" y="441.5365">[</text><text fill="#222222" font-family="Verdana" font-size="12.5" font-weight="bold" lengthAdjust="spacing" textLength="197.6196" x="139.6932" y="441.5365">Success case: RTP delivered</text><text fill="#222222" font-family="Verdana" font-size="12.5" font-weight="bold" lengthAdjust="spacing" textLength="6.7932" x="337.3128" y="441.5365">]</text><g class="message" data-participant-1="RS" data-participant-2="DB"><polygon fill="#2196F3" points="796.4935,513.0859,806.9102,517.2526,796.4935,521.4193,800.6602,517.2526" style="stroke:#2196F3;stroke-width:1.0417;"/><line style="stroke:#2196F3;stroke-width:3.125;" x1="471.6095" x2="802.7435" y1="517.2526" y2="517.2526"/><text fill="#222222" font-family="Verdana" font-size="12.5" font-weight="bold" lengthAdjust="spacing" textLength="22.4731" x="489.3178" y="502.1281">[3]</text><text fill="#222222" font-family="Verdana" font-size="12.5" lengthAdjust="spacing" textLength="249.2859" x="536.791" y="502.1281">findRtpByNoticeNumber(noticeNumber)</text></g><g class="message" data-participant-1="DB" data-participant-2="RS"><polygon fill="#2196F3" points="483.0678,563.6943,472.6512,567.8609,483.0678,572.0276,478.9012,567.8609" style="stroke:#2196F3;stroke-width:1.0417;"/><line style="stroke:#2196F3;stroke-width:3.125;stroke-dasharray:2.0833,2.0833;" x1="476.8178" x2="813.1602" y1="567.8609" y2="567.8609"/><text fill="#222222" font-family="Verdana" font-size="12.5" font-weight="bold" lengthAdjust="spacing" textLength="22.4731" x="499.7345" y="552.7364">[4]</text><text fill="#222222" font-family="Verdana" font-size="12.5" lengthAdjust="spacing" textLength="82.7698" x="547.2076" y="552.7364">results (0..n)</text></g><g class="message" data-participant-1="RS" data-participant-2="RS"><line style="stroke:#2196F3;stroke-width:3.125;" x1="471.6095" x2="515.3595" y1="618.4692" y2="618.4692"/><line style="stroke:#2196F3;stroke-width:3.125;" x1="515.3595" x2="515.3595" y1="618.4692" y2="632.0109"/><line style="stroke:#2196F3;stroke-width:3.125;" x1="472.6512" x2="515.3595" y1="632.0109" y2="632.0109"/><polygon fill="#2196F3" points="483.0678,627.8442,472.6512,632.0109,483.0678,636.1776,478.9012,632.0109" style="stroke:#2196F3;stroke-width:1.0417;"/><text fill="#222222" font-family="Verdana" font-size="12.5" font-weight="bold" lengthAdjust="spacing" textLength="22.4731" x="489.3178" y="603.3447">[5]</text><text fill="#222222" font-family="Verdana" font-size="12.5" lengthAdjust="spacing" textLength="152.8259" x="536.791" y="603.3447">Filter results by payeeId</text></g><g class="message" data-participant-1="RS" data-participant-2="RS"><line style="stroke:#2196F3;stroke-width:3.125;" x1="471.6095" x2="515.3595" y1="682.6192" y2="682.6192"/><line style="stroke:#2196F3;stroke-width:3.125;" x1="515.3595" x2="515.3595" y1="682.6192" y2="696.1609"/><line style="stroke:#2196F3;stroke-width:3.125;" x1="472.6512" x2="515.3595" y1="696.1609" y2="696.1609"/><polygon fill="#2196F3" points="483.0678,691.9942,472.6512,696.1609,483.0678,700.3276,478.9012,696.1609" style="stroke:#2196F3;stroke-width:1.0417;"/><text fill="#222222" font-family="Verdana" font-size="12.5" font-weight="bold" lengthAdjust="spacing" textLength="22.4731" x="489.3178" y="667.4947">[6]</text><text fill="#222222" font-family="Verdana" font-size="12.5" lengthAdjust="spacing" textLength="145.9656" x="536.791" y="667.4947">Evaluate status (SENT)</text></g><g class="message" data-participant-1="RS" data-participant-2="SP"><polygon fill="#2196F3" points="124.3296,772.9858,113.913,777.1525,124.3296,781.3192,120.163,777.1525" style="stroke:#2196F3;stroke-width:1.0417;"/><line style="stroke:#2196F3;stroke-width:3.125;stroke-dasharray:2.0833,2.0833;" x1="118.0796" x2="465.3595" y1="777.1525" y2="777.1525"/><text fill="#222222" font-family="Verdana" font-size="12.5" font-weight="bold" lengthAdjust="spacing" textLength="22.4731" x="140.9963" y="746.8363">[7]</text><text fill="#222222" font-family="Verdana" font-size="12.5" font-weight="bold" lengthAdjust="spacing" textLength="51.1963" x="188.4694" y="731.6447">200 OK</text><text fill="#222222" font-family="Verdana" font-size="12.5" lengthAdjust="spacing" textLength="167.2729" x="188.4694" y="746.8363">Response: "RTP delivered"</text><text fill="#222222" font-family="Verdana" font-size="12.5" lengthAdjust="spacing" textLength="223.0652" x="188.4694" y="762.028">processingDate: {savingDateTime}</text></g><line style="stroke:#2196F3;stroke-width:1.0417;stroke-dasharray:2.0833,2.0833;" x1="20.8333" x2="870.9483" y1="786.5275" y2="786.5275"/><text fill="#222222" font-family="Verdana" font-size="12.5" font-weight="bold" lengthAdjust="spacing" textLength="6.7932" x="36.4583" y="809.5113">[</text><text fill="#222222" font-family="Verdana" font-size="12.5" font-weight="bold" lengthAdjust="spacing" textLength="194.4702" x="43.2515" y="809.5113">Fail case: RTP not delivered</text><text fill="#222222" font-family="Verdana" font-size="12.5" font-weight="bold" lengthAdjust="spacing" textLength="6.7932" x="237.7218" y="809.5113">]</text><g class="message" data-participant-1="RS" data-participant-2="DB"><polygon fill="#2196F3" points="796.4935,861.7025,806.9102,865.8691,796.4935,870.0358,800.6602,865.8691" style="stroke:#2196F3;stroke-width:1.0417;"/><line style="stroke:#2196F3;stroke-width:3.125;" x1="466.4012" x2="802.7435" y1="865.8691" y2="865.8691"/><text fill="#222222" font-family="Verdana" font-size="12.5" font-weight="bold" lengthAdjust="spacing" textLength="22.4731" x="484.1095" y="850.7446">[8]</text><text fill="#222222" font-family="Verdana" font-size="12.5" lengthAdjust="spacing" textLength="249.2859" x="531.5826" y="850.7446">findRtpByNoticeNumber(noticeNumber)</text></g><g class="message" data-participant-1="DB" data-participant-2="RS"><polygon fill="#2196F3" points="477.8595,912.3108,467.4428,916.4775,477.8595,920.6441,473.6928,916.4775" style="stroke:#2196F3;stroke-width:1.0417;"/><line style="stroke:#2196F3;stroke-width:3.125;stroke-dasharray:2.0833,2.0833;" x1="471.6095" x2="813.1602" y1="916.4775" y2="916.4775"/><text fill="#222222" font-family="Verdana" font-size="12.5" font-weight="bold" lengthAdjust="spacing" textLength="22.4731" x="494.5262" y="901.3529">[9]</text><text fill="#222222" font-family="Verdana" font-size="12.5" lengthAdjust="spacing" textLength="196.9177" x="541.9993" y="901.3529">empty OR status ERROR_SEND</text></g><path d="M470.8333,934.1858 L470.8333,1001.8941 A4.1667,4.1667 0 0 0 475,1006.0608 L681.25,1006.0608 A4.1667,4.1667 0 0 0 685.4167,1001.8941 L685.4167,940.4358 L675,930.0191 L475,930.0191 A4.1667,4.1667 0 0 0 470.8333,934.1858" fill="url(#g3g28sgu4bgkm2)" filter="url(#f3g28sgu4bgkm)" style="stroke:#9C27B0;stroke-width:1.0417;"/><path d="M675,930.0191 L675,938.3525 A2.0833,2.0833 0 0 0 677.0833,940.4358 L685.4167,940.4358 L675,930.0191" fill="url(#g3g28sgu4bgkm2)" style="stroke:#9C27B0;stroke-width:1.0417;"/><text fill="#FFFFFF" font-family="Verdana" font-size="12.5" lengthAdjust="spacing" textLength="172.052" x="487.5" y="958.2113">Treat as RTP not delivered:</text><text fill="#FFFFFF" font-family="Verdana" font-size="12.5" lengthAdjust="spacing" textLength="162.6709" x="487.5" y="973.4029">- noticeNumber not found</text><text fill="#FFFFFF" font-family="Verdana" font-size="12.5" lengthAdjust="spacing" textLength="139.9536" x="487.5" y="988.5946">- status ERROR_SEND</text><g class="message" data-participant-1="RS" data-participant-2="SP"><polygon fill="#2196F3" points="124.3296,1068.4774,113.913,1072.644,124.3296,1076.8107,120.163,1072.644" style="stroke:#2196F3;stroke-width:1.0417;"/><line style="stroke:#2196F3;stroke-width:3.125;stroke-dasharray:2.0833,2.0833;" x1="118.0796" x2="465.3595" y1="1072.644" y2="1072.644"/><text fill="#222222" font-family="Verdana" font-size="12.5" font-weight="bold" lengthAdjust="spacing" textLength="31.3599" x="140.9963" y="1049.9237">[10]</text><text fill="#222222" font-family="Verdana" font-size="12.5" font-weight="bold" lengthAdjust="spacing" textLength="103.3264" x="197.3562" y="1042.3279">404 Not Found</text><text fill="#222222" font-family="Verdana" font-size="12.5" lengthAdjust="spacing" textLength="192.0898" x="197.3562" y="1057.5195">Response: "RTP not delivered"</text></g><line style="stroke:#2196F3;stroke-width:1.0417;stroke-dasharray:2.0833,2.0833;" x1="20.8333" x2="870.9483" y1="1082.019" y2="1082.019"/><text fill="#222222" font-family="Verdana" font-size="12.5" font-weight="bold" lengthAdjust="spacing" textLength="6.7932" x="36.4583" y="1105.0028">[</text><text fill="#222222" font-family="Verdana" font-size="12.5" font-weight="bold" lengthAdjust="spacing" textLength="87.1887" x="43.2515" y="1105.0028">Other Errors</text><text fill="#222222" font-family="Verdana" font-size="12.5" font-weight="bold" lengthAdjust="spacing" textLength="6.7932" x="130.4403" y="1105.0028">]</text><path d="M35.4167,1126.3774 L223.0916,1126.3774 L223.0916,1154.069 L212.675,1164.4857 L31.25,1164.4857 L31.25,1130.544 A4.1667,4.1667 0 0 1 35.4167,1126.3774" fill="#FFFFFF" style="stroke:#666666;stroke-width:1.0417;"/><rect fill="none" height="301.3082" rx="4.1667" ry="4.1667" style="stroke:#2196F3;stroke-width:1.0417;" width="543.7673" x="31.25" y="1126.3774"/><text fill="#9C27B0" font-family="Verdana" font-size="12.5" font-weight="bold" lengthAdjust="spacing" textLength="124.1333" x="57.2917" y="1150.4028">Client-Side Errors</text><g class="message" data-participant-1="RS" data-participant-2="SP"><polygon fill="#2196F3" points="124.3296,1217.7856,113.913,1221.9523,124.3296,1226.119,120.163,1221.9523" style="stroke:#2196F3;stroke-width:1.0417;"/><line style="stroke:#2196F3;stroke-width:3.125;stroke-dasharray:2.0833,2.0833;" x1="118.0796" x2="465.3595" y1="1221.9523" y2="1221.9523"/><text fill="#222222" font-family="Verdana" font-size="12.5" font-weight="bold" lengthAdjust="spacing" textLength="31.3599" x="140.9963" y="1199.232">[11]</text><text fill="#222222" font-family="Verdana" font-size="12.5" font-weight="bold" lengthAdjust="spacing" textLength="118.9514" x="197.3562" y="1191.6361">400 Bad Request</text><text fill="#222222" font-family="Verdana" font-size="12.5" lengthAdjust="spacing" textLength="251.3367" x="197.3562" y="1206.8278">(e.g., Invalid fiscal code, missing fields)</text></g><g class="message" data-participant-1="RS" data-participant-2="SP"><polygon fill="#2196F3" points="124.3296,1283.5856,113.913,1287.7523,124.3296,1291.9189,120.163,1287.7523" style="stroke:#2196F3;stroke-width:1.0417;"/><line style="stroke:#2196F3;stroke-width:3.125;stroke-dasharray:2.0833,2.0833;" x1="118.0796" x2="465.3595" y1="1287.7523" y2="1287.7523"/><text fill="#222222" font-family="Verdana" font-size="12.5" font-weight="bold" lengthAdjust="spacing" textLength="31.3599" x="140.9963" y="1265.0319">[12]</text><text fill="#222222" font-family="Verdana" font-size="12.5" font-weight="bold" lengthAdjust="spacing" textLength="125.4089" x="197.3562" y="1257.4361">401 Unauthorized</text><text fill="#222222" font-family="Verdana" font-size="12.5" lengthAdjust="spacing" textLength="249.2126" x="197.3562" y="1272.6278">(e.g., Invalid or expired security token)</text></g><g class="message" data-participant-1="RS" data-participant-2="SP"><polygon fill="#2196F3" points="124.3296,1349.3856,113.913,1353.5522,124.3296,1357.7189,120.163,1353.5522" style="stroke:#2196F3;stroke-width:1.0417;"/><line style="stroke:#2196F3;stroke-width:3.125;stroke-dasharray:2.0833,2.0833;" x1="118.0796" x2="465.3595" y1="1353.5522" y2="1353.5522"/><text fill="#222222" font-family="Verdana" font-size="12.5" font-weight="bold" lengthAdjust="spacing" textLength="31.3599" x="140.9963" y="1330.8319">[13]</text><text fill="#222222" font-family="Verdana" font-size="12.5" font-weight="bold" lengthAdjust="spacing" textLength="101.5564" x="197.3562" y="1323.2361">403 Forbidden</text><text fill="#222222" font-family="Verdana" font-size="12.5" lengthAdjust="spacing" textLength="193.6768" x="197.3562" y="1338.4277">(e.g., Insufficient permissions)</text></g><g class="message" data-participant-1="RS" data-participant-2="SP"><polygon fill="#2196F3" points="124.3296,1415.1855,113.913,1419.3522,124.3296,1423.5189,120.163,1419.3522" style="stroke:#2196F3;stroke-width:1.0417;"/><line style="stroke:#2196F3;stroke-width:3.125;stroke-dasharray:2.0833,2.0833;" x1="118.0796" x2="465.3595" y1="1419.3522" y2="1419.3522"/><text fill="#222222" font-family="Verdana" font-size="12.5" font-weight="bold" lengthAdjust="spacing" textLength="31.3599" x="140.9963" y="1396.6319">[14]</text><text fill="#222222" font-family="Verdana" font-size="12.5" font-weight="bold" lengthAdjust="spacing" textLength="166.9495" x="197.3562" y="1389.0361">429 Too Many Requests</text><text fill="#222222" font-family="Verdana" font-size="12.5" lengthAdjust="spacing" textLength="168.6279" x="197.3562" y="1404.2277">(e.g., Rate limit exceeded)</text></g><path d="M35.4167,1442.2689 L221.2179,1442.2689 L221.2179,1469.9605 L210.8012,1480.3772 L31.25,1480.3772 L31.25,1446.4355 A4.1667,4.1667 0 0 1 35.4167,1442.2689" fill="#FFFFFF" style="stroke:#666666;stroke-width:1.0417;"/><rect fill="none" height="212.8499" rx="4.1667" ry="4.1667" style="stroke:#2196F3;stroke-width:1.0417;" width="758.0393" x="31.25" y="1442.2689"/><text fill="#9C27B0" font-family="Verdana" font-size="12.5" font-weight="bold" lengthAdjust="spacing" textLength="122.2595" x="57.2917" y="1466.2944">Server-Side Error</text><path d="M266.6667,1489.7522 L266.6667,1527.2522 A4.1667,4.1667 0 0 0 270.8333,1531.4189 L656.25,1531.4189 A4.1667,4.1667 0 0 0 660.4167,1527.2522 L660.4167,1496.0022 L650,1485.5855 L270.8333,1485.5855 A4.1667,4.1667 0 0 0 266.6667,1489.7522" fill="url(#g3g28sgu4bgkm2)" filter="url(#f3g28sgu4bgkm)" style="stroke:#9C27B0;stroke-width:1.0417;"/><path d="M650,1485.5855 L650,1493.9189 A2.0833,2.0833 0 0 0 652.0833,1496.0022 L660.4167,1496.0022 L650,1485.5855" fill="url(#g3g28sgu4bgkm2)" style="stroke:#9C27B0;stroke-width:1.0417;"/><text fill="#FFFFFF" font-family="Verdana" font-size="12.5" lengthAdjust="spacing" textLength="351.9958" x="283.3333" y="1513.7777">e.g., Database connection failure, unhandled exception.</text><g class="message" data-participant-1="RS" data-participant-2="RS"><line style="stroke:#2196F3;stroke-width:3.125;" x1="466.4012" x2="510.1512" y1="1582.6355" y2="1582.6355"/><line style="stroke:#2196F3;stroke-width:3.125;" x1="510.1512" x2="510.1512" y1="1582.6355" y2="1596.1772"/><line style="stroke:#2196F3;stroke-width:3.125;" x1="467.4428" x2="510.1512" y1="1596.1772" y2="1596.1772"/><polygon fill="#2196F3" points="477.8595,1592.0105,467.4428,1596.1772,477.8595,1600.3438,473.6928,1596.1772" style="stroke:#2196F3;stroke-width:1.0417;"/><text fill="#222222" font-family="Verdana" font-size="12.5" font-weight="bold" lengthAdjust="spacing" textLength="31.3599" x="484.1095" y="1567.511">[15]</text><text fill="#222222" font-family="Verdana" font-size="12.5" lengthAdjust="spacing" textLength="225.9033" x="540.4694" y="1567.511">An unexpected internal error occurs</text></g><g class="message" data-participant-1="RS" data-participant-2="SP"><polygon fill="#2196F3" points="124.3296,1642.6188,113.913,1646.7855,124.3296,1650.9521,120.163,1646.7855" style="stroke:#2196F3;stroke-width:1.0417;"/><line style="stroke:#2196F3;stroke-width:3.125;stroke-dasharray:2.0833,2.0833;" x1="118.0796" x2="465.3595" y1="1646.7855" y2="1646.7855"/><text fill="#222222" font-family="Verdana" font-size="12.5" font-weight="bold" lengthAdjust="spacing" textLength="31.3599" x="140.9963" y="1631.661">[16]</text><text fill="#222222" font-family="Verdana" font-size="12.5" font-weight="bold" lengthAdjust="spacing" textLength="178.7354" x="197.3562" y="1631.661">500 Internal Server Error</text></g><!--SRC=[jLLTiz8m47tFhrZnGQY2tAi-o3ZEY70THhsNQT4NTJGq2sGCIKrI51t_kvkqGBc2R_QfQSxkdZtxqNimLLpxTs_Vm4ZofULhM1WBwMmAryRB727pt9SENamdx1xCf5SuE76TuRSIDPrhBuHzZzP9emTmqUlt-lHXX2wtil3nuwln31xgwEEwNC_HFlnLy2tYHFmcwD6JeY-jTY1GoGtQBRWgvlt8ex0cH-UaNeBW7g7jK8lusc7iZb_X6c5D9oivOpxmFvtTloanddlIfPKa6TfDi9nQiv42RPAqW9C0KrPmIxQo83q3qFgY6xZi8Md6Y1QVSuVXVbI_rxUZ8GKflT4nDBIUpPz_w7zgCPPDeVkSZ0UG94GnISwI98vo4pIWI8mm25OkLnxC8dm1ihyfqF9O07BpPOc-ag5IuGj1PYlIP0fKJ2lnRyb3Rt1eXYURXLGaBmgORw7cqcEX2842Oscsu_-UAnbhb65UMkctC3DVKLFUoiFTWYjSMaHDFBCo3qM5dFIfsgrcWY9968jT4TsEXWEAhqNgY-7ski6htIJPYHPxUKZgS1uDeLipi-XAvHsq-xsUhj02c_X6o82_YYdlpGw9tyADDroLmKMjNpiRNyyw1sy4owQXi9VzFjoyJfAFEaLN61tIRXtbtVge3wrElKE0NuvlwiDChl7tRTwX3L1HjzrLeG-sg9JvJi6kk5GDQKcf_omlhWigzaswas6SfZVfPz9YT4xg4zqRdfb5xkCitUOzg17Te-wCc8KfjTXVdwPmQDU_IlEu_pXi2xWARavKw8X6wtmD1BTVmvJG5D9MiZ2srbYtqtjfJLd0IoLH-sv6YwM-P_ijUCof3qCkQ3NIf3eVMBMnj-mzW8dUX2cZghcSKvMDm0UmbjM2N4XKmdNE-Ro0TvfMqCfO-HF52QSq_VYZa24BjnjX7qRuhCj799kTIo5G7_bpvM91kvAI1Lf9aHz9UixDvLFQ50RUShtTfUmQxj8Wj99hwObUZYXGTFPLZS8sDGuB76r3uttGgkiCtLPT6vtlrZH9gJNcONd2WWQej2HigLTS2qLwXC3nrzOxk3liWHUQe2GTsHDMQbeUcgg38JoOdAHqnsRxt9zGfISxV4MzOasDSoB5svr7ZVy7]--></g></svg>