<svg xmlns="http://www.w3.org/2000/svg" xmlns:xlink="http://www.w3.org/1999/xlink" contentStyleType="text/css" data-diagram-type="SEQUENCE" height="1047px" preserveAspectRatio="none" style="width:756px;height:1047px;background:#FFFFFF;" version="1.1" viewBox="0 0 756 1047" width="756px" zoomAndPan="magnify"><title>RTP Consumer - Message flow (GPD -&gt; RTP)</title><defs/><g><text fill="#000000" font-family="sans-serif" font-size="14" font-weight="bold" lengthAdjust="spacing" textLength="324.7822" x="216.8208" y="28.5352">RTP Consumer - Message flow (GPD -&gt; RTP)</text><rect fill="none" height="682.6055" style="stroke:#000000;stroke-width:1.5;" width="547.9766" x="201.4473" y="340.6387"/><rect fill="none" height="281.3711" style="stroke:#000000;stroke-width:1.5;" width="527.9766" x="211.4473" y="734.873"/><g><title>Event Hub</title><rect fill="#000000" fill-opacity="0.00000" height="904.7793" width="8" x="82.4126" y="135.4648"/><line style="stroke:#181818;stroke-width:0.5;stroke-dasharray:5,5;" x1="86" x2="86" y1="135.4648" y2="1040.2441"/></g><g><title>rtp-consumer</title><rect fill="#000000" fill-opacity="0.00000" height="904.7793" width="8" x="271.8271" y="135.4648"/><line style="stroke:#181818;stroke-width:0.5;stroke-dasharray:5,5;" x1="275.4473" x2="275.4473" y1="135.4648" y2="1040.2441"/></g><g><title>mil-auth</title><rect fill="#000000" fill-opacity="0.00000" height="904.7793" width="8" x="430.3477" y="135.4648"/><line style="stroke:#181818;stroke-width:0.5;stroke-dasharray:5,5;" x1="433.543" x2="433.543" y1="135.4648" y2="1040.2441"/></g><g><title>rtp-sender</title><rect fill="#000000" fill-opacity="0.00000" height="904.7793" width="8" x="521.0732" y="135.4648"/><line style="stroke:#181818;stroke-width:0.5;stroke-dasharray:5,5;" x1="524.1523" x2="524.1523" y1="135.4648" y2="1040.2441"/></g><g><title>DLQ</title><rect fill="#000000" fill-opacity="0.00000" height="904.7793" width="8" x="650.209" y="135.4648"/><line style="stroke:#181818;stroke-width:0.5;stroke-dasharray:5,5;" x1="653.9941" x2="653.9941" y1="135.4648" y2="1040.2441"/></g><g class="participant participant-head" data-participant="EH"><text fill="#000000" font-family="sans-serif" font-size="14" lengthAdjust="spacing" textLength="68.7764" x="49.0244" y="116.0234">Event Hub</text><text fill="#000000" font-family="sans-serif" font-size="14" lengthAdjust="spacing" textLength="92.8252" x="37" y="132.5117">(GPD domain)</text><ellipse cx="86.4126" cy="50.9883" fill="#E2E2F0" rx="8" ry="8" style="stroke:#181818;stroke-width:0.5;"/><path d="M86.4126,58.9883 L86.4126,85.9883 M73.4126,66.9883 L99.4126,66.9883 M86.4126,85.9883 L73.4126,100.9883 M86.4126,85.9883 L99.4126,100.9883" fill="none" style="stroke:#181818;stroke-width:0.5;"/></g><g class="participant participant-head" data-participant="C"><rect fill="#E2E2F0" height="30.4883" rx="2.5" ry="2.5" style="stroke:#181818;stroke-width:0.5;" width="108.7598" x="221.4473" y="103.9766"/><text fill="#000000" font-family="sans-serif" font-size="14" lengthAdjust="spacing" textLength="94.7598" x="228.4473" y="124.5117">rtp-consumer</text></g><g class="participant participant-head" data-participant="MA"><rect fill="#E2E2F0" height="30.4883" rx="2.5" ry="2.5" style="stroke:#181818;stroke-width:0.5;" width="73.6094" x="397.543" y="103.9766"/><text fill="#000000" font-family="sans-serif" font-size="14" lengthAdjust="spacing" textLength="59.6094" x="404.543" y="124.5117">mil-auth</text></g><g class="participant participant-head" data-participant="S"><rect fill="#E2E2F0" height="30.4883" rx="2.5" ry="2.5" style="stroke:#181818;stroke-width:0.5;" width="87.8418" x="481.1523" y="103.9766"/><text fill="#000000" font-family="sans-serif" font-size="14" lengthAdjust="spacing" textLength="73.8418" x="488.1523" y="124.5117">rtp-sender</text></g><g class="participant participant-head" data-participant="DLQ"><path d="M583.9941,92.4883 L724.4238,92.4883 C729.4238,92.4883 729.4238,113.9766 729.4238,113.9766 C729.4238,113.9766 729.4238,135.4648 724.4238,135.4648 L583.9941,135.4648 C578.9941,135.4648 578.9941,113.9766 578.9941,113.9766 C578.9941,113.9766 578.9941,92.4883 583.9941,92.4883" fill="#E2E2F0" style="stroke:#181818;stroke-width:0.5;"/><path d="M724.4238,92.4883 C719.4238,92.4883 719.4238,113.9766 719.4238,113.9766 C719.4238,135.4648 724.4238,135.4648 724.4238,135.4648" fill="none" style="stroke:#181818;stroke-width:0.5;"/><text fill="#000000" font-family="sans-serif" font-size="14" lengthAdjust="spacing" textLength="28.8271" x="634.7954" y="111.0234">DLQ</text><text fill="#000000" font-family="sans-serif" font-size="14" lengthAdjust="spacing" textLength="130.4297" x="583.9941" y="127.5117">(Dead letter queue)</text></g><path d="M5,150.4648 L5,190.4648 L357,190.4648 L357,160.4648 L347,150.4648 L5,150.4648" fill="#FEFFDD" style="stroke:#181818;stroke-width:0.5;"/><path d="M347,150.4648 L347,160.4648 L357,160.4648 L347,150.4648" fill="#FEFFDD" style="stroke:#181818;stroke-width:0.5;"/><text fill="#000000" font-family="sans-serif" font-size="13" lengthAdjust="spacing" textLength="331.4873" x="11" y="168.0332">A message is published on Event Hub (GPD domain).</text><text fill="#000000" font-family="sans-serif" font-size="13" lengthAdjust="spacing" textLength="261.8789" x="11" y="183.3438">rtp-consumer receives it asynchronously.</text><g class="message" data-participant-1="EH" data-participant-2="C"><polygon fill="#181818" points="263.8271,228.707,273.8271,232.707,263.8271,236.707,267.8271,232.707" style="stroke:#181818;stroke-width:1;"/><line style="stroke:#181818;stroke-width:1;" x1="86.4126" x2="269.8271" y1="232.707" y2="232.707"/><text fill="#000000" font-family="sans-serif" font-size="13" font-weight="bold" lengthAdjust="spacing" textLength="8.5757" x="93.4126" y="220.3096">1</text><text fill="#000000" font-family="sans-serif" font-size="13" lengthAdjust="spacing" textLength="152.8389" x="105.9883" y="212.6543">EventReceived(message)</text><text fill="#000000" font-family="sans-serif" font-size="13" lengthAdjust="spacing" textLength="126.1343" x="105.9883" y="227.9648">(headers + payload)</text></g><path d="M280,245.707 L280,285.707 L594,285.707 L594,255.707 L584,245.707 L280,245.707" fill="#FEFFDD" style="stroke:#181818;stroke-width:0.5;"/><path d="M584,245.707 L584,255.707 L594,255.707 L584,245.707" fill="#FEFFDD" style="stroke:#181818;stroke-width:0.5;"/><text fill="#000000" font-family="sans-serif" font-size="13" lengthAdjust="spacing" textLength="175.1636" x="286" y="263.2754">Step 1 - Message validation</text><text fill="#000000" font-family="sans-serif" font-size="13" lengthAdjust="spacing" textLength="293.5283" x="286" y="278.5859">- Syntactic validation (schema, required fields)</text><g class="message" data-participant-1="C" data-participant-2="C"><line style="stroke:#181818;stroke-width:1;" x1="275.8271" x2="317.8271" y1="312.6387" y2="312.6387"/><line style="stroke:#181818;stroke-width:1;" x1="317.8271" x2="317.8271" y1="312.6387" y2="325.6387"/><line style="stroke:#181818;stroke-width:1;" x1="276.8271" x2="317.8271" y1="325.6387" y2="325.6387"/><polygon fill="#181818" points="286.8271,321.6387,276.8271,325.6387,286.8271,329.6387,282.8271,325.6387" style="stroke:#181818;stroke-width:1;"/><text fill="#000000" font-family="sans-serif" font-size="13" font-weight="bold" lengthAdjust="spacing" textLength="8.5757" x="282.8271" y="307.8965">2</text><text fill="#000000" font-family="sans-serif" font-size="13" lengthAdjust="spacing" textLength="112.5059" x="295.4028" y="307.8965">validate(message)</text></g><path d="M201.4473,340.6387 L263.5859,340.6387 L263.5859,347.9492 L253.5859,357.9492 L201.4473,357.9492 L201.4473,340.6387" fill="#EEEEEE" style="stroke:#000000;stroke-width:1.5;"/><rect fill="none" height="682.6055" style="stroke:#000000;stroke-width:1.5;" width="547.9766" x="201.4473" y="340.6387"/><text fill="#000000" font-family="sans-serif" font-size="13" font-weight="bold" lengthAdjust="spacing" textLength="17.1387" x="216.4473" y="354.207">alt</text><text fill="#000000" font-family="sans-serif" font-size="11" font-weight="bold" lengthAdjust="spacing" textLength="122.9658" x="278.5859" y="353.2734">[VALIDATION FAILED]</text><path d="M280,362.9492 L280,402.9492 L573,402.9492 L573,372.9492 L563,362.9492 L280,362.9492" fill="#FEFFDD" style="stroke:#181818;stroke-width:0.5;"/><path d="M563,362.9492 L563,372.9492 L573,372.9492 L563,362.9492" fill="#FEFFDD" style="stroke:#181818;stroke-width:0.5;"/><text fill="#000000" font-family="sans-serif" font-size="13" lengthAdjust="spacing" textLength="237.2119" x="286" y="380.5176">The message is malformed or invalid.</text><text fill="#000000" font-family="sans-serif" font-size="13" lengthAdjust="spacing" textLength="272.9746" x="286" y="395.8281">It is published to the DLQ for reprocessing.</text><g class="message" data-participant-1="C" data-participant-2="DLQ"><polygon fill="#181818" points="642.209,441.1914,652.209,445.1914,642.209,449.1914,646.209,445.1914" style="stroke:#181818;stroke-width:1;"/><line style="stroke:#181818;stroke-width:1;" x1="275.8271" x2="648.209" y1="445.1914" y2="445.1914"/><text fill="#000000" font-family="sans-serif" font-size="13" font-weight="bold" lengthAdjust="spacing" textLength="8.5757" x="282.8271" y="432.7939">3</text><text fill="#000000" font-family="sans-serif" font-size="13" lengthAdjust="spacing" textLength="214.9189" x="295.4028" y="425.1387">Publish(originalMessage + failure)</text><text fill="#000000" font-family="sans-serif" font-size="13" lengthAdjust="spacing" textLength="300.4727" x="295.4028" y="440.4492">metadata: httpStatus, errorMessage, timestamp</text></g><g class="message" data-participant-1="DLQ" data-participant-2="C"><polygon fill="#181818" points="286.8271,470.502,276.8271,474.502,286.8271,478.502,282.8271,474.502" style="stroke:#181818;stroke-width:1;"/><line style="stroke:#181818;stroke-width:1;stroke-dasharray:2,2;" x1="280.8271" x2="653.209" y1="474.502" y2="474.502"/><text fill="#000000" font-family="sans-serif" font-size="13" font-weight="bold" lengthAdjust="spacing" textLength="8.5757" x="292.8271" y="469.7598">4</text><text fill="#000000" font-family="sans-serif" font-size="13" lengthAdjust="spacing" textLength="21.436" x="305.4028" y="469.7598">ack</text></g><line style="stroke:#000000;stroke-width:1;stroke-dasharray:2,2;" x1="201.4473" x2="749.4238" y1="483.502" y2="483.502"/><text fill="#000000" font-family="sans-serif" font-size="11" font-weight="bold" lengthAdjust="spacing" textLength="150.498" x="206.4473" y="494.1367">[VALIDATION SUCCEEDED]</text><path d="M280,502.457 L280,573.457 L586,573.457 L586,512.457 L576,502.457 L280,502.457" fill="#FEFFDD" style="stroke:#181818;stroke-width:0.5;"/><path d="M576,502.457 L576,512.457 L586,512.457 L576,502.457" fill="#FEFFDD" style="stroke:#181818;stroke-width:0.5;"/><text fill="#000000" font-family="sans-serif" font-size="13" lengthAdjust="spacing" textLength="274.7456" x="286" y="520.0254">Step 2 - Authentication towards rtp-sender</text><text fill="#000000" font-family="sans-serif" font-size="13" lengthAdjust="spacing" textLength="247.5967" x="286" y="535.3359">The call to rtp-sender is authenticated.</text><text fill="#000000" font-family="sans-serif" font-size="13" lengthAdjust="spacing" textLength="250.7197" x="286" y="550.6465">A token is first retrieved from mil-auth,</text><text fill="#000000" font-family="sans-serif" font-size="13" lengthAdjust="spacing" textLength="285.1558" x="286" y="565.957">then the authenticated POST call is executed.</text><g class="message" data-participant-1="C" data-participant-2="MA"><polygon fill="#181818" points="422.3477,611.3203,432.3477,615.3203,422.3477,619.3203,426.3477,615.3203" style="stroke:#181818;stroke-width:1;"/><line style="stroke:#181818;stroke-width:1;" x1="275.8271" x2="428.3477" y1="615.3203" y2="615.3203"/><text fill="#000000" font-family="sans-serif" font-size="13" font-weight="bold" lengthAdjust="spacing" textLength="8.5757" x="282.8271" y="602.9229">5</text><text fill="#000000" font-family="sans-serif" font-size="13" lengthAdjust="spacing" textLength="79.1934" x="295.4028" y="595.2676">POST /token</text><text fill="#000000" font-family="sans-serif" font-size="13" lengthAdjust="spacing" textLength="121.9448" x="295.4028" y="610.5781">(scope: rtp-sender)</text></g><g class="message" data-participant-1="MA" data-participant-2="C"><polygon fill="#181818" points="286.8271,655.9414,276.8271,659.9414,286.8271,663.9414,282.8271,659.9414" style="stroke:#181818;stroke-width:1;"/><line style="stroke:#181818;stroke-width:1;stroke-dasharray:2,2;" x1="280.8271" x2="433.3477" y1="659.9414" y2="659.9414"/><text fill="#000000" font-family="sans-serif" font-size="13" font-weight="bold" lengthAdjust="spacing" textLength="8.5757" x="292.8271" y="647.5439">6</text><text fill="#000000" font-family="sans-serif" font-size="13" lengthAdjust="spacing" textLength="47.3599" x="305.4028" y="639.8887">200 OK</text><text fill="#000000" font-family="sans-serif" font-size="13" lengthAdjust="spacing" textLength="83.2495" x="305.4028" y="655.1992">access_token</text></g><g class="message" data-participant-1="C" data-participant-2="S"><polygon fill="#181818" points="513.0732,715.873,523.0732,719.873,513.0732,723.873,517.0732,719.873" style="stroke:#181818;stroke-width:1;"/><line style="stroke:#181818;stroke-width:1;" x1="275.8271" x2="519.0732" y1="719.873" y2="719.873"/><text fill="#000000" font-family="sans-serif" font-size="13" font-weight="bold" lengthAdjust="spacing" textLength="8.5757" x="282.8271" y="699.8203">7</text><text fill="#000000" font-family="sans-serif" font-size="13" lengthAdjust="spacing" textLength="129.8857" x="295.4028" y="684.5098">POST /gpd/message</text><text fill="#000000" font-family="sans-serif" font-size="13" lengthAdjust="spacing" textLength="194.8794" x="295.4028" y="699.8203">Authorization: Bearer &lt;token&gt;</text><text fill="#000000" font-family="sans-serif" font-size="13" lengthAdjust="spacing" textLength="155.7144" x="295.4028" y="715.1309">body: validated message</text></g><path d="M211.4473,734.873 L273.5859,734.873 L273.5859,742.1836 L263.5859,752.1836 L211.4473,752.1836 L211.4473,734.873" fill="#EEEEEE" style="stroke:#000000;stroke-width:1.5;"/><rect fill="none" height="281.3711" style="stroke:#000000;stroke-width:1.5;" width="527.9766" x="211.4473" y="734.873"/><text fill="#000000" font-family="sans-serif" font-size="13" font-weight="bold" lengthAdjust="spacing" textLength="17.1387" x="226.4473" y="748.4414">alt</text><text fill="#000000" font-family="sans-serif" font-size="11" font-weight="bold" lengthAdjust="spacing" textLength="108.7754" x="288.5859" y="747.5078">[POST SUCCEEDED]</text><g class="message" data-participant-1="S" data-participant-2="C"><polygon fill="#181818" points="286.8271,784.8047,276.8271,788.8047,286.8271,792.8047,282.8271,788.8047" style="stroke:#181818;stroke-width:1;"/><line style="stroke:#181818;stroke-width:1;stroke-dasharray:2,2;" x1="280.8271" x2="524.0732" y1="788.8047" y2="788.8047"/><text fill="#000000" font-family="sans-serif" font-size="13" font-weight="bold" lengthAdjust="spacing" textLength="8.5757" x="292.8271" y="776.4072">8</text><text fill="#000000" font-family="sans-serif" font-size="13" lengthAdjust="spacing" textLength="47.3599" x="305.4028" y="768.752">200 OK</text><text fill="#000000" font-family="sans-serif" font-size="13" lengthAdjust="spacing" textLength="124.4014" x="305.4028" y="784.0625">response: RTP body</text></g><path d="M280,801.8047 L280,826.8047 L596,826.8047 L596,811.8047 L586,801.8047 L280,801.8047" fill="#FEFFDD" style="stroke:#181818;stroke-width:0.5;"/><path d="M586,801.8047 L586,811.8047 L596,811.8047 L586,801.8047" fill="#FEFFDD" style="stroke:#181818;stroke-width:0.5;"/><text fill="#000000" font-family="sans-serif" font-size="13" lengthAdjust="spacing" textLength="295.7119" x="286" y="819.373">The message has been successfully processed.</text><line style="stroke:#000000;stroke-width:1;stroke-dasharray:2,2;" x1="211.4473" x2="739.4238" y1="833.1152" y2="833.1152"/><text fill="#000000" font-family="sans-serif" font-size="11" font-weight="bold" lengthAdjust="spacing" textLength="204.3271" x="216.4473" y="843.75">[POST FAILED (4xx / 5xx / timeout)]</text><g class="message" data-participant-1="S" data-participant-2="C"><polygon fill="#181818" points="286.8271,864.3809,276.8271,868.3809,286.8271,872.3809,282.8271,868.3809" style="stroke:#181818;stroke-width:1;"/><line style="stroke:#181818;stroke-width:1;stroke-dasharray:2,2;" x1="280.8271" x2="524.0732" y1="868.3809" y2="868.3809"/><text fill="#000000" font-family="sans-serif" font-size="13" font-weight="bold" lengthAdjust="spacing" textLength="8.5757" x="292.8271" y="863.6387">9</text><text fill="#000000" font-family="sans-serif" font-size="13" lengthAdjust="spacing" textLength="156.5522" x="305.4028" y="863.6387">error response / timeout</text></g><path d="M280,881.3809 L280,936.3809 L497,936.3809 L497,891.3809 L487,881.3809 L280,881.3809" fill="#FEFFDD" style="stroke:#181818;stroke-width:0.5;"/><path d="M487,881.3809 L487,891.3809 L497,891.3809 L487,881.3809" fill="#FEFFDD" style="stroke:#181818;stroke-width:0.5;"/><text fill="#000000" font-family="sans-serif" font-size="13" lengthAdjust="spacing" textLength="162.4365" x="286" y="898.9492">Even if the POST call fails,</text><text fill="#000000" font-family="sans-serif" font-size="13" lengthAdjust="spacing" textLength="196.9868" x="286" y="914.2598">the message is sent to the DLQ</text><text fill="#000000" font-family="sans-serif" font-size="13" lengthAdjust="spacing" textLength="189.0903" x="286" y="929.5703">for reprocessing and analysis.</text><g class="message" data-participant-1="C" data-participant-2="DLQ"><polygon fill="#181818" points="642.209,974.9336,652.209,978.9336,642.209,982.9336,646.209,978.9336" style="stroke:#181818;stroke-width:1;"/><line style="stroke:#181818;stroke-width:1;" x1="275.8271" x2="648.209" y1="978.9336" y2="978.9336"/><text fill="#000000" font-family="sans-serif" font-size="13" font-weight="bold" lengthAdjust="spacing" textLength="17.1514" x="282.8271" y="966.5361">10</text><text fill="#000000" font-family="sans-serif" font-size="13" lengthAdjust="spacing" textLength="214.9189" x="303.9785" y="958.8809">Publish(originalMessage + failure)</text><text fill="#000000" font-family="sans-serif" font-size="13" lengthAdjust="spacing" textLength="300.4727" x="303.9785" y="974.1914">metadata: httpStatus, errorMessage, timestamp</text></g><g class="message" data-participant-1="DLQ" data-participant-2="C"><polygon fill="#181818" points="286.8271,1004.2441,276.8271,1008.2441,286.8271,1012.2441,282.8271,1008.2441" style="stroke:#181818;stroke-width:1;"/><line style="stroke:#181818;stroke-width:1;stroke-dasharray:2,2;" x1="280.8271" x2="653.209" y1="1008.2441" y2="1008.2441"/><text fill="#000000" font-family="sans-serif" font-size="13" font-weight="bold" lengthAdjust="spacing" textLength="17.1514" x="292.8271" y="1003.502">11</text><text fill="#000000" font-family="sans-serif" font-size="13" lengthAdjust="spacing" textLength="21.436" x="313.9785" y="1003.502">ack</text></g><!--SRC=[jLJ1RXen4BtxAqOvWG996hKNL4MYG0jgqj10UqAgpEx0Ml7Q6tkMGB- -OxEmIr2ElUnXvytCc_TcJ8eqmjDy2WDhV9cZWouyeFToZR3IzXLQtwP3wDu5J5k8JANytrfQsgsG9LbJvajqGiY4h8EBqGODmRXSBanCJ6qkbMbVWFGm6ej2EbA9AYI3BXmLtQJg6W63qtYkT9TRP37sq3zFzcZIAdKcNaei4Iw6zp-vzH1b2Xg9U9uOs3FWe1364eBTS6GqxWn47_9gNEMXA9TQ-GnJi0QEiq1pb2lHv0qE4rGRzA28E-nCaZbhREdrxaemFGZTX1YDWuG3wEsBFksJqbRLkisKCwQCpiCb57AdhKpR5LMdrXc1NR4yCy82FZGSsaYjKadA6j65sSuGsw2Incze-IJ3N7QOw4kf74-sKgXJtswm6np8LNbuvCM-QeBV_Vl9i3-VFFw0h_t9_MWe0DvI0vXds9GobtfbNHwaTA1CB7t5i0cT2aqMY3FP6jwhe6VXRC9bb5a7UCqI8F8Cm1vCz_ajonIKaVeWo2MifDAb2vBcI9AdaJt8Y8ePIIfz1z0vwofu1qWnPP9vmUL3vMwbX4oUXK3jiJdyxDTWC1eDtva_cdFBvlHvPzbabUmT8FigNUgXtjXAh4Hg7SQl0q4PMMTZ5ApFc6Sq8RPIpXDBH4xX9bZfR0w7C-amDgH6EK-gmFHnDj-tuoAunQIiQf-f-z0FuWRuTUpAY-aJMs2lmRBDOCOTfBgzkO77xmiZas3RdvXsh3SxbbiNwNMr7WiJ96Bh_aQ5Ul05fUFfFyVSkuLPsdHNRsDwMAjGDUnZBDWqWyK_e-FG5toap3oyRg5Y19xxThgv6JyJIsGLVHddMPLQxw3QoRrefxB59OcCzhS1hO_RBLp3f_WD-sLBQhyX6PSG3XHhtBiKmxC1QXMzhTqCk-ux4K2dr-V3qrMVLeIyFI-GF8RauzbvvSy7- -_tTdvnaK1ucCG_]--></g></svg>