<?xml version="1.0" encoding="us-ascii" standalone="no"?><svg xmlns="http://www.w3.org/2000/svg" xmlns:xlink="http://www.w3.org/1999/xlink" contentStyleType="text/css" height="1727.0833px" preserveAspectRatio="none" style="width:1625px;height:1727px;" version="1.1" viewBox="0 0 1625 1727" width="1625px" zoomAndPan="magnify"><defs><linearGradient id="gfvsxj5h6ajiw0" x1="50%" x2="50%" y1="0%" y2="100%"><stop offset="0%" stop-color="#FFFFFF"/><stop offset="100%" stop-color="#FFFFFF"/></linearGradient><filter height="300%" id="ffvsxj5h6ajiw" width="300%" x="-1" y="-1"><feGaussianBlur result="blurOut" stdDeviation="2.0833333333333335"/><feColorMatrix in="blurOut" result="blurOut2" type="matrix" values="0 0 0 0 0 0 0 0 0 0 0 0 0 0 0 0 0 0 .4 0"/><feOffset dx="4.166666666666667" dy="4.166666666666667" in="blurOut2" result="blurOut3"/><feBlend in="SourceGraphic" in2="blurOut3" mode="normal"/></filter><linearGradient id="gfvsxj5h6ajiw1" x1="50%" x2="50%" y1="0%" y2="100%"><stop offset="0%" stop-color="#4DABF5"/><stop offset="100%" stop-color="#2196F3"/></linearGradient><linearGradient id="gfvsxj5h6ajiw2" x1="50%" x2="50%" y1="0%" y2="100%"><stop offset="0%" stop-color="#B052C0"/><stop offset="100%" stop-color="#9C27B0"/></linearGradient></defs><g><rect fill="url(#gfvsxj5h6ajiw0)" height="57.5846" id="_title" rx="4.1667" ry="4.1667" style="stroke:#CCCCCC;stroke-width:1.0416666666666667;" width="369.7917" x="628.6458" y="20.8333"/><text fill="#2196F3" font-family="Verdana" font-size="20.8333" font-weight="bold" lengthAdjust="spacing" textLength="336.4583" x="645.3125" y="56.838">RTP Send API: Detailed Flow</text><rect fill="#FFFFFF" filter="url(#ffvsxj5h6ajiw)" height="1381.901" style="stroke:#CCCCCC;stroke-width:1.0416666666666667;" width="10.4167" x="367.1875" y="229.9154"/><rect fill="#FFFFFF" filter="url(#ffvsxj5h6ajiw)" height="214.4206" style="stroke:#CCCCCC;stroke-width:1.0416666666666667;" width="10.4167" x="683.8542" y="284.5703"/><rect fill="#FFFFFF" filter="url(#ffvsxj5h6ajiw)" height="163.9648" style="stroke:#CCCCCC;stroke-width:1.0416666666666667;" width="10.4167" x="683.8542" y="553.6458"/><rect fill="#FFFFFF" filter="url(#ffvsxj5h6ajiw)" height="49.9674" style="stroke:#CCCCCC;stroke-width:1.0416666666666667;" width="10.4167" x="854.6875" y="334.5378"/><rect fill="#FFFFFF" filter="url(#ffvsxj5h6ajiw)" height="49.9674" style="stroke:#CCCCCC;stroke-width:1.0416666666666667;" width="10.4167" x="926.5625" y="895.6055"/><rect fill="#FFFFFF" filter="url(#ffvsxj5h6ajiw)" height="49.9674" style="stroke:#CCCCCC;stroke-width:1.0416666666666667;" width="10.4167" x="926.5625" y="1154.8177"/><rect fill="#FFFFFF" filter="url(#ffvsxj5h6ajiw)" height="49.9674" style="stroke:#CCCCCC;stroke-width:1.0416666666666667;" width="10.4167" x="926.5625" y="1342.1875"/><rect fill="#FFFFFF" filter="url(#ffvsxj5h6ajiw)" height="54.6549" style="stroke:#CCCCCC;stroke-width:1.0416666666666667;" width="10.4167" x="1031.7708" y="608.3008"/><rect fill="#FFFFFF" filter="url(#ffvsxj5h6ajiw)" height="109.3099" style="stroke:#CCCCCC;stroke-width:1.0416666666666667;" width="10.4167" x="1178.125" y="995.5404"/><rect fill="url(#gfvsxj5h6ajiw0)" filter="url(#ffvsxj5h6ajiw)" height="1204.3945" rx="4.1667" ry="4.1667" style="stroke:#2196F3;stroke-width:1.0416666666666667;" width="1456.25" x="151.0417" y="400.1302"/><rect fill="url(#gfvsxj5h6ajiw0)" filter="url(#ffvsxj5h6ajiw)" height="726.5951" rx="4.1667" ry="4.1667" style="stroke:#2196F3;stroke-width:1.0416666666666667;" width="1367.7083" x="229.1667" y="733.2357"/><path d="M229.1667,1263.0859 L1596.875,1263.0859 L1596.875,1455.6641 A4.1667,4.1667 0 0 1 1592.7083,1459.8307 L233.3333,1459.8307 A4.1667,4.1667 0 0 1 229.1667,1455.6641 L229.1667,1263.0859 " fill="url(#gfvsxj5h6ajiw0)" style="stroke:none;stroke-width:1.0416666666666667;"/><path d="M151.0417,1467.1224 L1607.2917,1467.1224 L1607.2917,1600.3581 A4.1667,4.1667 0 0 1 1603.125,1604.5247 L155.2083,1604.5247 A4.1667,4.1667 0 0 1 151.0417,1600.3581 L151.0417,1467.1224 " fill="url(#gfvsxj5h6ajiw0)" style="stroke:none;stroke-width:1.0416666666666667;"/><line style="stroke:#CCCCCC;stroke-width:1.0416666666666667;stroke-dasharray:5.0,5.0;" x1="154.1667" x2="154.1667" y1="173.1771" y2="1622.2331"/><line style="stroke:#CCCCCC;stroke-width:1.0416666666666667;stroke-dasharray:5.0,5.0;" x1="371.875" x2="371.875" y1="173.1771" y2="1622.2331"/><line style="stroke:#CCCCCC;stroke-width:1.0416666666666667;stroke-dasharray:5.0,5.0;" x1="688.5417" x2="688.5417" y1="173.1771" y2="1622.2331"/><line style="stroke:#CCCCCC;stroke-width:1.0416666666666667;stroke-dasharray:5.0,5.0;" x1="859.375" x2="859.375" y1="173.1771" y2="1622.2331"/><line style="stroke:#CCCCCC;stroke-width:1.0416666666666667;stroke-dasharray:5.0,5.0;" x1="931.25" x2="931.25" y1="173.1771" y2="1622.2331"/><line style="stroke:#CCCCCC;stroke-width:1.0416666666666667;stroke-dasharray:5.0,5.0;" x1="1036.4583" x2="1036.4583" y1="173.1771" y2="1622.2331"/><line style="stroke:#CCCCCC;stroke-width:1.0416666666666667;stroke-dasharray:5.0,5.0;" x1="1183.3333" x2="1183.3333" y1="173.1771" y2="1622.2331"/><line style="stroke:#CCCCCC;stroke-width:1.0416666666666667;stroke-dasharray:5.0,5.0;" x1="1334.375" x2="1334.375" y1="173.1771" y2="1622.2331"/><text fill="#222222" font-family="Verdana" font-size="12.5" lengthAdjust="spacing" textLength="122.9167" x="89.5833" y="159.8124">MS-RTP-CONSUMER</text><path d="M132.8125,108.6263 L132.8125,133.6263 M132.8125,121.1263 L150.5208,121.1263 " fill="none" filter="url(#ffvsxj5h6ajiw)" style="stroke:#2196F3;stroke-width:1.0416666666666667;"/><ellipse cx="163.0208" cy="121.1263" fill="url(#gfvsxj5h6ajiw1)" filter="url(#ffvsxj5h6ajiw)" rx="12.5" ry="12.5" style="stroke:#2196F3;stroke-width:1.0416666666666667;"/><text fill="#222222" font-family="Verdana" font-size="12.5" lengthAdjust="spacing" textLength="122.9167" x="89.5833" y="1643.2109">MS-RTP-CONSUMER</text><path d="M132.8125,1660.7422 L132.8125,1685.7422 M132.8125,1673.2422 L150.5208,1673.2422 " fill="none" filter="url(#ffvsxj5h6ajiw)" style="stroke:#2196F3;stroke-width:1.0416666666666667;"/><ellipse cx="163.0208" cy="1673.2422" fill="url(#gfvsxj5h6ajiw1)" filter="url(#ffvsxj5h6ajiw)" rx="12.5" ry="12.5" style="stroke:#2196F3;stroke-width:1.0416666666666667;"/><rect fill="url(#gfvsxj5h6ajiw1)" filter="url(#ffvsxj5h6ajiw)" height="49.9674" rx="4.1667" ry="4.1667" style="stroke:#2196F3;stroke-width:1.0416666666666667;" width="179.1667" x="281.25" y="119.043"/><text fill="#FFFFFF" font-family="Verdana" font-size="12.5" lengthAdjust="spacing" textLength="143.75" x="298.9583" y="148.3541">Pagopa - SP Creditore</text><rect fill="url(#gfvsxj5h6ajiw1)" filter="url(#ffvsxj5h6ajiw)" height="49.9674" rx="4.1667" ry="4.1667" style="stroke:#2196F3;stroke-width:1.0416666666666667;" width="179.1667" x="281.25" y="1621.1914"/><text fill="#FFFFFF" font-family="Verdana" font-size="12.5" lengthAdjust="spacing" textLength="143.75" x="298.9583" y="1650.5025">Pagopa - SP Creditore</text><rect fill="url(#gfvsxj5h6ajiw1)" filter="url(#ffvsxj5h6ajiw)" height="49.9674" rx="4.1667" ry="4.1667" style="stroke:#2196F3;stroke-width:1.0416666666666667;" width="160.4167" x="607.2917" y="119.043"/><text fill="#FFFFFF" font-family="Verdana" font-size="12.5" lengthAdjust="spacing" textLength="125" x="625" y="148.3541">Gestore Repository</text><rect fill="url(#gfvsxj5h6ajiw1)" filter="url(#ffvsxj5h6ajiw)" height="49.9674" rx="4.1667" ry="4.1667" style="stroke:#2196F3;stroke-width:1.0416666666666667;" width="160.4167" x="607.2917" y="1621.1914"/><text fill="#FFFFFF" font-family="Verdana" font-size="12.5" lengthAdjust="spacing" textLength="125" x="625" y="1650.5025">Gestore Repository</text><text fill="#222222" font-family="Verdana" font-size="12.5" lengthAdjust="spacing" textLength="36.4583" x="838.5417" y="159.8124">Payer</text><path d="M841.1458,100.293 C841.1458,89.8763 859.8958,89.8763 859.8958,89.8763 C859.8958,89.8763 878.6458,89.8763 878.6458,100.293 L878.6458,127.3763 C878.6458,137.793 859.8958,137.793 859.8958,137.793 C859.8958,137.793 841.1458,137.793 841.1458,127.3763 L841.1458,100.293 " fill="url(#gfvsxj5h6ajiw1)" filter="url(#ffvsxj5h6ajiw)" style="stroke:#2196F3;stroke-width:1.5625;"/><path d="M841.1458,100.293 C841.1458,110.7096 859.8958,110.7096 859.8958,110.7096 C859.8958,110.7096 878.6458,110.7096 878.6458,100.293 " fill="none" style="stroke:#2196F3;stroke-width:1.5625;"/><text fill="#222222" font-family="Verdana" font-size="12.5" lengthAdjust="spacing" textLength="36.4583" x="838.5417" y="1643.2109">Payer</text><path d="M841.1458,1666.9922 C841.1458,1656.5755 859.8958,1656.5755 859.8958,1656.5755 C859.8958,1656.5755 878.6458,1656.5755 878.6458,1666.9922 L878.6458,1694.0755 C878.6458,1704.4922 859.8958,1704.4922 859.8958,1704.4922 C859.8958,1704.4922 841.1458,1704.4922 841.1458,1694.0755 L841.1458,1666.9922 " fill="url(#gfvsxj5h6ajiw1)" filter="url(#ffvsxj5h6ajiw)" style="stroke:#2196F3;stroke-width:1.5625;"/><path d="M841.1458,1666.9922 C841.1458,1677.4089 859.8958,1677.4089 859.8958,1677.4089 C859.8958,1677.4089 878.6458,1677.4089 878.6458,1666.9922 " fill="none" style="stroke:#2196F3;stroke-width:1.5625;"/><text fill="#222222" font-family="Verdana" font-size="12.5" lengthAdjust="spacing" textLength="32.2917" x="912.5" y="159.8124">SRTP</text><path d="M913.0208,100.293 C913.0208,89.8763 931.7708,89.8763 931.7708,89.8763 C931.7708,89.8763 950.5208,89.8763 950.5208,100.293 L950.5208,127.3763 C950.5208,137.793 931.7708,137.793 931.7708,137.793 C931.7708,137.793 913.0208,137.793 913.0208,127.3763 L913.0208,100.293 " fill="url(#gfvsxj5h6ajiw1)" filter="url(#ffvsxj5h6ajiw)" style="stroke:#2196F3;stroke-width:1.5625;"/><path d="M913.0208,100.293 C913.0208,110.7096 931.7708,110.7096 931.7708,110.7096 C931.7708,110.7096 950.5208,110.7096 950.5208,100.293 " fill="none" style="stroke:#2196F3;stroke-width:1.5625;"/><text fill="#222222" font-family="Verdana" font-size="12.5" lengthAdjust="spacing" textLength="32.2917" x="912.5" y="1643.2109">SRTP</text><path d="M913.0208,1666.9922 C913.0208,1656.5755 931.7708,1656.5755 931.7708,1656.5755 C931.7708,1656.5755 950.5208,1656.5755 950.5208,1666.9922 L950.5208,1694.0755 C950.5208,1704.4922 931.7708,1704.4922 931.7708,1704.4922 C931.7708,1704.4922 913.0208,1704.4922 913.0208,1694.0755 L913.0208,1666.9922 " fill="url(#gfvsxj5h6ajiw1)" filter="url(#ffvsxj5h6ajiw)" style="stroke:#2196F3;stroke-width:1.5625;"/><path d="M913.0208,1666.9922 C913.0208,1677.4089 931.7708,1677.4089 931.7708,1677.4089 C931.7708,1677.4089 950.5208,1677.4089 950.5208,1666.9922 " fill="none" style="stroke:#2196F3;stroke-width:1.5625;"/><text fill="#222222" font-family="Verdana" font-size="12.5" lengthAdjust="spacing" textLength="103.125" x="982.2917" y="159.8124">Service Registry</text><path d="M1018.2292,100.293 C1018.2292,89.8763 1036.9792,89.8763 1036.9792,89.8763 C1036.9792,89.8763 1055.7292,89.8763 1055.7292,100.293 L1055.7292,127.3763 C1055.7292,137.793 1036.9792,137.793 1036.9792,137.793 C1036.9792,137.793 1018.2292,137.793 1018.2292,127.3763 L1018.2292,100.293 " fill="url(#gfvsxj5h6ajiw1)" filter="url(#ffvsxj5h6ajiw)" style="stroke:#2196F3;stroke-width:1.5625;"/><path d="M1018.2292,100.293 C1018.2292,110.7096 1036.9792,110.7096 1036.9792,110.7096 C1036.9792,110.7096 1055.7292,110.7096 1055.7292,100.293 " fill="none" style="stroke:#2196F3;stroke-width:1.5625;"/><text fill="#222222" font-family="Verdana" font-size="12.5" lengthAdjust="spacing" textLength="103.125" x="982.2917" y="1643.2109">Service Registry</text><path d="M1018.2292,1666.9922 C1018.2292,1656.5755 1036.9792,1656.5755 1036.9792,1656.5755 C1036.9792,1656.5755 1055.7292,1656.5755 1055.7292,1666.9922 L1055.7292,1694.0755 C1055.7292,1704.4922 1036.9792,1704.4922 1036.9792,1704.4922 C1036.9792,1704.4922 1018.2292,1704.4922 1018.2292,1694.0755 L1018.2292,1666.9922 " fill="url(#gfvsxj5h6ajiw1)" filter="url(#ffvsxj5h6ajiw)" style="stroke:#2196F3;stroke-width:1.5625;"/><path d="M1018.2292,1666.9922 C1018.2292,1677.4089 1036.9792,1677.4089 1036.9792,1677.4089 C1036.9792,1677.4089 1055.7292,1677.4089 1055.7292,1666.9922 " fill="none" style="stroke:#2196F3;stroke-width:1.5625;"/><rect fill="url(#gfvsxj5h6ajiw1)" filter="url(#ffvsxj5h6ajiw)" height="49.9674" rx="4.1667" ry="4.1667" style="stroke:#2196F3;stroke-width:1.0416666666666667;" width="55.2083" x="1154.1667" y="119.043"/><text fill="#FFFFFF" font-family="Verdana" font-size="12.5" lengthAdjust="spacing" textLength="19.7917" x="1171.875" y="148.3541">CBI</text><rect fill="url(#gfvsxj5h6ajiw1)" filter="url(#ffvsxj5h6ajiw)" height="49.9674" rx="4.1667" ry="4.1667" style="stroke:#2196F3;stroke-width:1.0416666666666667;" width="55.2083" x="1154.1667" y="1621.1914"/><text fill="#FFFFFF" font-family="Verdana" font-size="12.5" lengthAdjust="spacing" textLength="19.7917" x="1171.875" y="1650.5025">CBI</text><rect fill="url(#gfvsxj5h6ajiw1)" filter="url(#ffvsxj5h6ajiw)" height="49.9674" rx="4.1667" ry="4.1667" style="stroke:#2196F3;stroke-width:1.0416666666666667;" width="53.125" x="1306.25" y="119.043"/><text fill="#FFFFFF" font-family="Verdana" font-size="12.5" lengthAdjust="spacing" textLength="17.7083" x="1323.9583" y="148.3541">UA</text><rect fill="url(#gfvsxj5h6ajiw1)" filter="url(#ffvsxj5h6ajiw)" height="49.9674" rx="4.1667" ry="4.1667" style="stroke:#2196F3;stroke-width:1.0416666666666667;" width="53.125" x="1306.25" y="1621.1914"/><text fill="#FFFFFF" font-family="Verdana" font-size="12.5" lengthAdjust="spacing" textLength="17.7083" x="1323.9583" y="1650.5025">UA</text><rect fill="#FFFFFF" filter="url(#ffvsxj5h6ajiw)" height="1381.901" style="stroke:#CCCCCC;stroke-width:1.0416666666666667;" width="10.4167" x="367.1875" y="229.9154"/><rect fill="#FFFFFF" filter="url(#ffvsxj5h6ajiw)" height="214.4206" style="stroke:#CCCCCC;stroke-width:1.0416666666666667;" width="10.4167" x="683.8542" y="284.5703"/><rect fill="#FFFFFF" filter="url(#ffvsxj5h6ajiw)" height="163.9648" style="stroke:#CCCCCC;stroke-width:1.0416666666666667;" width="10.4167" x="683.8542" y="553.6458"/><rect fill="#FFFFFF" filter="url(#ffvsxj5h6ajiw)" height="49.9674" style="stroke:#CCCCCC;stroke-width:1.0416666666666667;" width="10.4167" x="854.6875" y="334.5378"/><rect fill="#FFFFFF" filter="url(#ffvsxj5h6ajiw)" height="49.9674" style="stroke:#CCCCCC;stroke-width:1.0416666666666667;" width="10.4167" x="926.5625" y="895.6055"/><rect fill="#FFFFFF" filter="url(#ffvsxj5h6ajiw)" height="49.9674" style="stroke:#CCCCCC;stroke-width:1.0416666666666667;" width="10.4167" x="926.5625" y="1154.8177"/><rect fill="#FFFFFF" filter="url(#ffvsxj5h6ajiw)" height="49.9674" style="stroke:#CCCCCC;stroke-width:1.0416666666666667;" width="10.4167" x="926.5625" y="1342.1875"/><rect fill="#FFFFFF" filter="url(#ffvsxj5h6ajiw)" height="54.6549" style="stroke:#CCCCCC;stroke-width:1.0416666666666667;" width="10.4167" x="1031.7708" y="608.3008"/><rect fill="#FFFFFF" filter="url(#ffvsxj5h6ajiw)" height="109.3099" style="stroke:#CCCCCC;stroke-width:1.0416666666666667;" width="10.4167" x="1178.125" y="995.5404"/><polygon fill="#2196F3" points="354.6875,225.7487,365.1042,229.9154,354.6875,234.082,358.8542,229.9154" style="stroke:#2196F3;stroke-width:1.0416666666666667;"/><line style="stroke:#2196F3;stroke-width:3.125;" x1="154.1667" x2="360.9375" y1="229.9154" y2="229.9154"/><text fill="#222222" font-family="Verdana" font-size="12.5" font-weight="bold" lengthAdjust="spacing" textLength="8.3333" x="171.875" y="214.4674">1</text><text fill="#222222" font-family="Verdana" font-size="12.5" lengthAdjust="spacing" textLength="67.7083" x="205.2083" y="214.4674">POST /rtps</text><path d="M15.625,192.9688 L15.625,229.4271 A4.1667,4.1667 0 0 0 19.7917,233.5938 L141.6667,233.5938 A4.1667,4.1667 0 0 0 145.8333,229.4271 L145.8333,199.2188 L135.4167,188.8021 L19.7917,188.8021 A4.1667,4.1667 0 0 0 15.625,192.9688 " fill="url(#gfvsxj5h6ajiw2)" filter="url(#ffvsxj5h6ajiw)" style="stroke:#9C27B0;stroke-width:1.0416666666666667;"/><path d="M135.4167,188.8021 L135.4167,197.1354 A2.0833,2.0833 0 0 0 137.5,199.2188 L145.8333,199.2188 L135.4167,188.8021 " fill="url(#gfvsxj5h6ajiw2)" style="stroke:#9C27B0;stroke-width:1.0416666666666667;"/><text fill="#FFFFFF" font-family="Verdana" font-size="12.5" lengthAdjust="spacing" textLength="87.5" x="32.2917" y="216.0299">access token</text><polygon fill="#2196F3" points="671.3542,280.4036,681.7708,284.5703,671.3542,288.737,675.5208,284.5703" style="stroke:#2196F3;stroke-width:1.0416666666666667;"/><line style="stroke:#2196F3;stroke-width:3.125;" x1="377.6042" x2="677.6042" y1="284.5703" y2="284.5703"/><text fill="#222222" font-family="Verdana" font-size="12.5" font-weight="bold" lengthAdjust="spacing" textLength="8.3333" x="395.3125" y="269.1223">2</text><text fill="#222222" font-family="Verdana" font-size="12.5" lengthAdjust="spacing" textLength="144.7917" x="428.6458" y="269.1223">GET /activations/payer</text><polygon fill="#2196F3" points="842.1875,330.3711,852.6042,334.5378,842.1875,338.7044,846.3542,334.5378" style="stroke:#2196F3;stroke-width:1.0416666666666667;"/><line style="stroke:#2196F3;stroke-width:3.125;" x1="694.2708" x2="848.4375" y1="334.5378" y2="334.5378"/><text fill="#222222" font-family="Verdana" font-size="12.5" font-weight="bold" lengthAdjust="spacing" textLength="8.3333" x="711.9792" y="319.0898">3</text><text fill="#222222" font-family="Verdana" font-size="12.5" lengthAdjust="spacing" textLength="86.4583" x="745.3125" y="319.0898">findByPayerId</text><polygon fill="#2196F3" points="705.7292,380.3385,695.3125,384.5052,705.7292,388.6719,701.5625,384.5052" style="stroke:#2196F3;stroke-width:1.0416666666666667;"/><line style="stroke:#2196F3;stroke-width:3.125;stroke-dasharray:2.0,2.0;" x1="699.4792" x2="858.8542" y1="384.5052" y2="384.5052"/><text fill="#222222" font-family="Verdana" font-size="12.5" font-weight="bold" lengthAdjust="spacing" textLength="8.3333" x="722.3958" y="369.0572">4</text><text fill="#222222" font-family="Verdana" font-size="12.5" lengthAdjust="spacing" textLength="4.1667" x="755.7292" y="369.0572">&#160;</text><path d="M155.2083,400.1302 L238.5417,400.1302 L238.5417,427.181 L228.125,437.5977 L151.0417,437.5977 L151.0417,404.2969 A4.1667,4.1667 0 0 1 155.2083,400.1302 " fill="#FFFFFF" style="stroke:#666666;stroke-width:1.0416666666666667;"/><rect fill="none" height="1204.3945" rx="4.1667" ry="4.1667" style="stroke:#2196F3;stroke-width:1.0416666666666667;" width="1456.25" x="151.0417" y="400.1302"/><text fill="#9C27B0" font-family="Verdana" font-size="12.5" font-weight="bold" lengthAdjust="spacing" textLength="19.7917" x="177.0833" y="423.1913">alt</text><text fill="#222222" font-family="Verdana" font-size="12.5" font-weight="bold" lengthAdjust="spacing" textLength="116.6667" x="264.5833" y="424.233">[user activated]</text><polygon fill="#2196F3" points="389.0625,494.8242,378.6458,498.9909,389.0625,503.1576,384.8958,498.9909" style="stroke:#2196F3;stroke-width:1.0416666666666667;"/><line style="stroke:#2196F3;stroke-width:3.125;stroke-dasharray:2.0,2.0;" x1="382.8125" x2="688.0208" y1="498.9909" y2="498.9909"/><text fill="#222222" font-family="Verdana" font-size="12.5" font-weight="bold" lengthAdjust="spacing" textLength="8.3333" x="405.7292" y="483.5429">5</text><text fill="#222222" font-family="Verdana" font-size="12.5" lengthAdjust="spacing" textLength="193.75" x="439.0625" y="483.5429">payer and its Service Provider</text><polygon fill="#2196F3" points="671.3542,549.4792,681.7708,553.6458,671.3542,557.8125,675.5208,553.6458" style="stroke:#2196F3;stroke-width:1.0416666666666667;"/><line style="stroke:#2196F3;stroke-width:3.125;" x1="377.6042" x2="677.6042" y1="553.6458" y2="553.6458"/><text fill="#222222" font-family="Verdana" font-size="12.5" font-weight="bold" lengthAdjust="spacing" textLength="8.3333" x="395.3125" y="538.1978">6</text><text fill="#222222" font-family="Verdana" font-size="12.5" lengthAdjust="spacing" textLength="105.2083" x="428.6458" y="538.1978">getRegistryData</text><path d="M161.4583,516.6992 L161.4583,553.1576 A4.1667,4.1667 0 0 0 165.625,557.3242 L354.1667,557.3242 A4.1667,4.1667 0 0 0 358.3333,553.1576 L358.3333,522.9492 L347.9167,512.5326 L165.625,512.5326 A4.1667,4.1667 0 0 0 161.4583,516.6992 " fill="url(#gfvsxj5h6ajiw2)" filter="url(#ffvsxj5h6ajiw)" style="stroke:#9C27B0;stroke-width:1.0416666666666667;"/><path d="M347.9167,512.5326 L347.9167,520.8659 A2.0833,2.0833 0 0 0 350,522.9492 L358.3333,522.9492 L347.9167,512.5326 " fill="url(#gfvsxj5h6ajiw2)" style="stroke:#9C27B0;stroke-width:1.0416666666666667;"/><text fill="#FFFFFF" font-family="Verdana" font-size="12.5" lengthAdjust="spacing" textLength="154.1667" x="178.125" y="539.7603">Search key: ID Payer SP</text><polygon fill="#2196F3" points="1019.2708,604.1341,1029.6875,608.3008,1019.2708,612.4674,1023.4375,608.3008" style="stroke:#2196F3;stroke-width:1.0416666666666667;"/><line style="stroke:#2196F3;stroke-width:3.125;" x1="694.2708" x2="1025.5208" y1="608.3008" y2="608.3008"/><text fill="#222222" font-family="Verdana" font-size="12.5" font-weight="bold" lengthAdjust="spacing" textLength="8.3333" x="711.9792" y="592.8528">7</text><text fill="#222222" font-family="Verdana" font-size="12.5" lengthAdjust="spacing" textLength="4.1667" x="745.3125" y="592.8528">&#160;</text><polygon fill="#2196F3" points="705.7292,658.7891,695.3125,662.9557,705.7292,667.1224,701.5625,662.9557" style="stroke:#2196F3;stroke-width:1.0416666666666667;"/><line style="stroke:#2196F3;stroke-width:3.125;stroke-dasharray:2.0,2.0;" x1="699.4792" x2="1035.9375" y1="662.9557" y2="662.9557"/><text fill="#222222" font-family="Verdana" font-size="12.5" font-weight="bold" lengthAdjust="spacing" textLength="8.3333" x="722.3958" y="647.5077">8</text><text fill="#222222" font-family="Verdana" font-size="12.5" lengthAdjust="spacing" textLength="138.5417" x="755.7292" y="647.5077">Service Provider data</text><path d="M1046.875,626.0091 L1046.875,662.4674 A4.1667,4.1667 0 0 0 1051.0417,666.6341 L1251.0417,666.6341 A4.1667,4.1667 0 0 0 1255.2083,662.4674 L1255.2083,632.2591 L1244.7917,621.8424 L1051.0417,621.8424 A4.1667,4.1667 0 0 0 1046.875,626.0091 " fill="url(#gfvsxj5h6ajiw2)" filter="url(#ffvsxj5h6ajiw)" style="stroke:#9C27B0;stroke-width:1.0416666666666667;"/><path d="M1244.7917,621.8424 L1244.7917,630.1758 A2.0833,2.0833 0 0 0 1246.875,632.2591 L1255.2083,632.2591 L1244.7917,621.8424 " fill="url(#gfvsxj5h6ajiw2)" style="stroke:#9C27B0;stroke-width:1.0416666666666667;"/><text fill="#FFFFFF" font-family="Verdana" font-size="12.5" lengthAdjust="spacing" textLength="165.625" x="1063.5417" y="649.0702">service_endpoint, oauth2</text><polygon fill="#2196F3" points="389.0625,713.444,378.6458,717.6107,389.0625,721.7773,384.8958,717.6107" style="stroke:#2196F3;stroke-width:1.0416666666666667;"/><line style="stroke:#2196F3;stroke-width:3.125;stroke-dasharray:2.0,2.0;" x1="382.8125" x2="688.0208" y1="717.6107" y2="717.6107"/><text fill="#222222" font-family="Verdana" font-size="12.5" font-weight="bold" lengthAdjust="spacing" textLength="8.3333" x="405.7292" y="702.1627">9</text><text fill="#222222" font-family="Verdana" font-size="12.5" lengthAdjust="spacing" textLength="138.5417" x="439.0625" y="702.1627">Service Provider data</text><path d="M233.3333,733.2357 L316.6667,733.2357 L316.6667,760.2865 L306.25,770.7031 L229.1667,770.7031 L229.1667,737.4023 A4.1667,4.1667 0 0 1 233.3333,733.2357 " fill="#FFFFFF" style="stroke:#666666;stroke-width:1.0416666666666667;"/><rect fill="none" height="726.5951" rx="4.1667" ry="4.1667" style="stroke:#2196F3;stroke-width:1.0416666666666667;" width="1367.7083" x="229.1667" y="733.2357"/><text fill="#9C27B0" font-family="Verdana" font-size="12.5" font-weight="bold" lengthAdjust="spacing" textLength="19.7917" x="255.2083" y="756.2968">alt</text><text fill="#222222" font-family="Verdana" font-size="12.5" font-weight="bold" lengthAdjust="spacing" textLength="172.9167" x="342.7083" y="757.3385">[Service Provider is CBI]</text><line style="stroke:#2196F3;stroke-width:3.125;" x1="377.6042" x2="421.3542" y1="832.0964" y2="832.0964"/><line style="stroke:#2196F3;stroke-width:3.125;" x1="421.3542" x2="421.3542" y1="832.0964" y2="845.638"/><line style="stroke:#2196F3;stroke-width:3.125;" x1="378.6458" x2="421.3542" y1="845.638" y2="845.638"/><polygon fill="#2196F3" points="389.0625,841.4714,378.6458,845.638,389.0625,849.8047,384.8958,845.638" style="stroke:#2196F3;stroke-width:1.0416666666666667;"/><text fill="#222222" font-family="Verdana" font-size="12.5" font-weight="bold" lengthAdjust="spacing" textLength="16.6667" x="395.3125" y="816.6484">10</text><text fill="#222222" font-family="Verdana" font-size="12.5" lengthAdjust="spacing" textLength="229.1667" x="436.9792" y="816.6484">add activation data to EPC payload</text><polygon fill="#2196F3" points="914.0625,891.4388,924.4792,895.6055,914.0625,899.7721,918.2292,895.6055" style="stroke:#2196F3;stroke-width:1.0416666666666667;"/><line style="stroke:#2196F3;stroke-width:3.125;" x1="377.6042" x2="920.3125" y1="895.6055" y2="895.6055"/><text fill="#222222" font-family="Verdana" font-size="12.5" font-weight="bold" lengthAdjust="spacing" textLength="16.6667" x="395.3125" y="880.1575">11</text><text fill="#222222" font-family="Verdana" font-size="12.5" lengthAdjust="spacing" textLength="182.2917" x="436.9792" y="880.1575">save RTP in status CREATED</text><polygon fill="#2196F3" points="389.0625,941.4063,378.6458,945.5729,389.0625,949.7396,384.8958,945.5729" style="stroke:#2196F3;stroke-width:1.0416666666666667;"/><line style="stroke:#2196F3;stroke-width:3.125;stroke-dasharray:2.0,2.0;" x1="382.8125" x2="930.7292" y1="945.5729" y2="945.5729"/><text fill="#222222" font-family="Verdana" font-size="12.5" font-weight="bold" lengthAdjust="spacing" textLength="16.6667" x="405.7292" y="930.1249">12</text><text fill="#222222" font-family="Verdana" font-size="12.5" lengthAdjust="spacing" textLength="51.0417" x="447.3958" y="930.1249">created</text><polygon fill="#2196F3" points="389.0625,991.3737,378.6458,995.5404,389.0625,999.707,384.8958,995.5404" style="stroke:#2196F3;stroke-width:1.0416666666666667;"/><polygon fill="#2196F3" points="1165.625,991.3737,1176.0417,995.5404,1165.625,999.707,1169.7917,995.5404" style="stroke:#2196F3;stroke-width:1.0416666666666667;"/><line style="stroke:#2196F3;stroke-width:3.125;" x1="382.8125" x2="1171.875" y1="995.5404" y2="995.5404"/><text fill="#222222" font-family="Verdana" font-size="12.5" font-weight="bold" lengthAdjust="spacing" textLength="16.6667" x="405.7292" y="980.0924">13</text><text fill="#222222" font-family="Verdana" font-size="12.5" lengthAdjust="spacing" textLength="46.875" x="447.3958" y="980.0924">oAuth2</text><polygon fill="#2196F3" points="1165.625,1046.0286,1176.0417,1050.1953,1165.625,1054.362,1169.7917,1050.1953" style="stroke:#2196F3;stroke-width:1.0416666666666667;"/><line style="stroke:#2196F3;stroke-width:3.125;" x1="377.6042" x2="1171.875" y1="1050.1953" y2="1050.1953"/><text fill="#222222" font-family="Verdana" font-size="12.5" font-weight="bold" lengthAdjust="spacing" textLength="16.6667" x="395.3125" y="1034.7473">14</text><text fill="#222222" font-family="Verdana" font-size="12.5" lengthAdjust="spacing" textLength="173.9583" x="436.9792" y="1034.7473">POST /sepa-request-to-pay</text><path d="M268.75,1013.2487 L268.75,1049.707 A4.1667,4.1667 0 0 0 272.9167,1053.8737 L354.1667,1053.8737 A4.1667,4.1667 0 0 0 358.3333,1049.707 L358.3333,1019.4987 L347.9167,1009.082 L272.9167,1009.082 A4.1667,4.1667 0 0 0 268.75,1013.2487 " fill="url(#gfvsxj5h6ajiw2)" filter="url(#ffvsxj5h6ajiw)" style="stroke:#9C27B0;stroke-width:1.0416666666666667;"/><path d="M347.9167,1009.082 L347.9167,1017.4154 A2.0833,2.0833 0 0 0 350,1019.4987 L358.3333,1019.4987 L347.9167,1009.082 " fill="url(#gfvsxj5h6ajiw2)" style="stroke:#9C27B0;stroke-width:1.0416666666666667;"/><text fill="#FFFFFF" font-family="Verdana" font-size="12.5" lengthAdjust="spacing" textLength="46.875" x="285.4167" y="1036.3098">oAuth2</text><polygon fill="#2196F3" points="389.0625,1100.6836,378.6458,1104.8503,389.0625,1109.0169,384.8958,1104.8503" style="stroke:#2196F3;stroke-width:1.0416666666666667;"/><line style="stroke:#2196F3;stroke-width:3.125;stroke-dasharray:2.0,2.0;" x1="382.8125" x2="1182.2917" y1="1104.8503" y2="1104.8503"/><text fill="#222222" font-family="Verdana" font-size="12.5" font-weight="bold" lengthAdjust="spacing" textLength="16.6667" x="405.7292" y="1089.4023">15</text><text fill="#222222" font-family="Verdana" font-size="12.5" lengthAdjust="spacing" textLength="90.625" x="447.3958" y="1089.4023">202 accepted</text><polygon fill="#2196F3" points="914.0625,1150.651,924.4792,1154.8177,914.0625,1158.9844,918.2292,1154.8177" style="stroke:#2196F3;stroke-width:1.0416666666666667;"/><line style="stroke:#2196F3;stroke-width:3.125;" x1="377.6042" x2="920.3125" y1="1154.8177" y2="1154.8177"/><text fill="#222222" font-family="Verdana" font-size="12.5" font-weight="bold" lengthAdjust="spacing" textLength="16.6667" x="395.3125" y="1139.3697">16</text><text fill="#222222" font-family="Verdana" font-size="12.5" lengthAdjust="spacing" textLength="157.2917" x="436.9792" y="1139.3697">save RTP in status SENT</text><polygon fill="#2196F3" points="389.0625,1200.6185,378.6458,1204.7852,389.0625,1208.9518,384.8958,1204.7852" style="stroke:#2196F3;stroke-width:1.0416666666666667;"/><line style="stroke:#2196F3;stroke-width:3.125;stroke-dasharray:2.0,2.0;" x1="382.8125" x2="930.7292" y1="1204.7852" y2="1204.7852"/><text fill="#222222" font-family="Verdana" font-size="12.5" font-weight="bold" lengthAdjust="spacing" textLength="16.6667" x="405.7292" y="1189.3372">17</text><text fill="#222222" font-family="Verdana" font-size="12.5" lengthAdjust="spacing" textLength="55.2083" x="447.3958" y="1189.3372">updated</text><polygon fill="#2196F3" points="1321.875,1250.5859,1332.2917,1254.7526,1321.875,1258.9193,1326.0417,1254.7526" style="stroke:#2196F3;stroke-width:1.0416666666666667;"/><line style="stroke:#2196F3;stroke-width:3.125;stroke-dasharray:2.0,2.0;" x1="377.6042" x2="1328.125" y1="1254.7526" y2="1254.7526"/><text fill="#222222" font-family="Verdana" font-size="12.5" font-weight="bold" lengthAdjust="spacing" textLength="16.6667" x="395.3125" y="1239.3046">18</text><text fill="#222222" font-family="Verdana" font-size="12.5" lengthAdjust="spacing" textLength="80.2083" x="436.9792" y="1239.3046">201 created</text><line style="stroke:#2196F3;stroke-width:1.0416666666666667;stroke-dasharray:2.0,2.0;" x1="229.1667" x2="1596.875" y1="1264.1276" y2="1264.1276"/><text fill="#222222" font-family="Verdana" font-size="12.5" font-weight="bold" lengthAdjust="spacing" textLength="202.0833" x="244.7917" y="1286.1471">[Service Provider is not CBI]</text><polygon fill="#2196F3" points="914.0625,1338.0208,924.4792,1342.1875,914.0625,1346.3542,918.2292,1342.1875" style="stroke:#2196F3;stroke-width:1.0416666666666667;"/><line style="stroke:#2196F3;stroke-width:3.125;" x1="377.6042" x2="920.3125" y1="1342.1875" y2="1342.1875"/><text fill="#222222" font-family="Verdana" font-size="12.5" font-weight="bold" lengthAdjust="spacing" textLength="16.6667" x="395.3125" y="1326.7395">19</text><text fill="#222222" font-family="Verdana" font-size="12.5" lengthAdjust="spacing" textLength="157.2917" x="436.9792" y="1326.7395">save RTP in status SENT</text><polygon fill="#2196F3" points="389.0625,1387.9883,378.6458,1392.1549,389.0625,1396.3216,384.8958,1392.1549" style="stroke:#2196F3;stroke-width:1.0416666666666667;"/><line style="stroke:#2196F3;stroke-width:3.125;stroke-dasharray:2.0,2.0;" x1="382.8125" x2="930.7292" y1="1392.1549" y2="1392.1549"/><text fill="#222222" font-family="Verdana" font-size="12.5" font-weight="bold" lengthAdjust="spacing" textLength="16.6667" x="405.7292" y="1376.7069">20</text><text fill="#222222" font-family="Verdana" font-size="12.5" lengthAdjust="spacing" textLength="55.2083" x="447.3958" y="1376.7069">updated</text><polygon fill="#2196F3" points="1321.875,1442.6432,1332.2917,1446.8099,1321.875,1450.9766,1326.0417,1446.8099" style="stroke:#2196F3;stroke-width:1.0416666666666667;"/><line style="stroke:#2196F3;stroke-width:3.125;stroke-dasharray:2.0,2.0;" x1="377.6042" x2="1328.125" y1="1446.8099" y2="1446.8099"/><text fill="#222222" font-family="Verdana" font-size="12.5" font-weight="bold" lengthAdjust="spacing" textLength="16.6667" x="395.3125" y="1431.3619">21</text><text fill="#222222" font-family="Verdana" font-size="12.5" lengthAdjust="spacing" textLength="80.2083" x="436.9792" y="1431.3619">201 created</text><path d="M1339.5833,1409.8633 L1339.5833,1446.3216 A4.1667,4.1667 0 0 0 1343.75,1450.4883 L1573.9583,1450.4883 A4.1667,4.1667 0 0 0 1578.125,1446.3216 L1578.125,1416.1133 L1567.7083,1405.6966 L1343.75,1405.6966 A4.1667,4.1667 0 0 0 1339.5833,1409.8633 " fill="url(#gfvsxj5h6ajiw2)" filter="url(#ffvsxj5h6ajiw)" style="stroke:#9C27B0;stroke-width:1.0416666666666667;"/><path d="M1567.7083,1405.6966 L1567.7083,1414.0299 A2.0833,2.0833 0 0 0 1569.7917,1416.1133 L1578.125,1416.1133 L1567.7083,1405.6966 " fill="url(#gfvsxj5h6ajiw2)" style="stroke:#9C27B0;stroke-width:1.0416666666666667;"/><text fill="#FFFFFF" font-family="Verdana" font-size="12.5" lengthAdjust="spacing" textLength="195.8333" x="1356.25" y="1432.9244">Mocked during CBI integration</text><line style="stroke:#2196F3;stroke-width:1.0416666666666667;stroke-dasharray:2.0,2.0;" x1="151.0417" x2="1607.2917" y1="1468.1641" y2="1468.1641"/><text fill="#222222" font-family="Verdana" font-size="12.5" font-weight="bold" lengthAdjust="spacing" textLength="145.8333" x="166.6667" y="1490.1835">[user not activated]</text><polygon fill="#2196F3" points="389.0625,1542.0573,378.6458,1546.224,389.0625,1550.3906,384.8958,1546.224" style="stroke:#2196F3;stroke-width:1.0416666666666667;"/><line style="stroke:#2196F3;stroke-width:3.125;stroke-dasharray:2.0,2.0;" x1="382.8125" x2="688.0208" y1="1546.224" y2="1546.224"/><text fill="#222222" font-family="Verdana" font-size="12.5" font-weight="bold" lengthAdjust="spacing" textLength="16.6667" x="405.7292" y="1530.776">22</text><text fill="#222222" font-family="Verdana" font-size="12.5" lengthAdjust="spacing" textLength="92.7083" x="447.3958" y="1530.776">404 not found</text><polygon fill="#2196F3" points="1321.875,1592.0247,1332.2917,1596.1914,1321.875,1600.3581,1326.0417,1596.1914" style="stroke:#2196F3;stroke-width:1.0416666666666667;"/><line style="stroke:#2196F3;stroke-width:3.125;stroke-dasharray:2.0,2.0;" x1="377.6042" x2="1328.125" y1="1596.1914" y2="1596.1914"/><text fill="#222222" font-family="Verdana" font-size="12.5" font-weight="bold" lengthAdjust="spacing" textLength="16.6667" x="395.3125" y="1580.7434">23</text><text fill="#222222" font-family="Verdana" font-size="12.5" lengthAdjust="spacing" textLength="166.6667" x="436.9792" y="1580.7434">422 unprocessable entity</text><!--SRC=[pLN1Rjim3BthAxXUUfdRDEZ960gaSHO4M5h3JdST58j9X3gI9yafylUZ53knanJORkkXYCL7yZsA56yXBRboR_CVa4Y-DdmBAsqWMwIGen8mIcVi5XRIbHX3WexB4iN9dEFl6bM1hJDXVwAnKgiO7ku6TmCwID0MHbOk72usqe9eCjcD_h3WDWYYZIoLGwDu2PNH1LeRs1G6kPDg3HIjzyU9WYKUtiP1uKTWjZ9wIvyLN-kKJhMJ1TunzeKIRH6sd398pfZpedfAEmg_b_g3iQMkbU1c3pVpF29aD7vzoT_ca-m6kFMkOyOgRYY1hAYAS9DIpef317aAOuD2EcqmW7F2zg1JjDu86LRQUjm-uAOP4zpn9RVem-tHXEFmgsF9AVaXBltedgFPaLoAkfRMDJ7ph9zw_3nhE2MCyTffLM-N59vvHH0zUR8nfA_v0kwDgooZ6YAKk78ny29SYzFlg1WldDnHFOCwbX-SfraCqmcvDbQwTtjV1Vv7FAcSPXuSTCMmaaeyxyF7J9nW1zNXFqGXD1DuPcMyT51RGhG6mNnl-FYjb90zT8jq9BkfKMhqJWeAuU6Tk9Gb77NqhD6r5Kseri7SAKgEt1GRUCTz3BFaG8pS0wmRjkNrvA-aPso-ywpH6L-m1D5BREHwGvdj0VMBEhZID3nVGTE5ReRdclBieYYV9xXI2r_a2mSQPMebravZtcaUBWISxZ-4ffw12K7eCahD1Rlme-uZGNnt64gfm3hkQigHJKQBINB4TqGjqbCKxtGK5vwCfXCkIa5UlUJVWbSIWnuTQzTFv0VbGcRIpeZ5YaV6FuNMHKv7fF28xdJ9MNGASE8x70p3Q5MVaRx6uBE2vPENnJzLgwx4trVBUxsDFEM7Ova304jwWQur2TNWQgFyF_nxjzMCrbmNxxG9H6tyUY7-OJdHul8TVH2iI7bG7TuVBxF_1bsR_PRpu-0nUApyZhaoTkTq7uT3g5Mp5lcILXSgMc5x5bZqMcNC_W00]--></g></svg>