<?xml version="1.0" encoding="us-ascii" standalone="no"?><svg xmlns="http://www.w3.org/2000/svg" xmlns:xlink="http://www.w3.org/1999/xlink" contentStyleType="text/css" height="901px" preserveAspectRatio="none" style="width:1038px;height:901px;background:#FFFFFF;" version="1.1" viewBox="0 0 1038 901" width="1038px" zoomAndPan="magnify"><defs><filter height="300%" id="f1ds9hnemxyg47" width="300%" x="-1" y="-1"><feGaussianBlur result="blurOut" stdDeviation="2.0"/><feColorMatrix in="blurOut" result="blurOut2" type="matrix" values="0 0 0 0 0 0 0 0 0 0 0 0 0 0 0 0 0 0 .4 0"/><feOffset dx="4.0" dy="4.0" in="blurOut2" result="blurOut3"/><feBlend in="SourceGraphic" in2="blurOut3" mode="normal"/></filter></defs><g><rect fill="#FFFFFF" filter="url(#f1ds9hnemxyg47)" height="710.2656" style="stroke:#A80036;stroke-width:1.0;" width="10" x="303.5" y="103.4297"/><rect fill="#FFFFFF" filter="url(#f1ds9hnemxyg47)" height="96.3984" style="stroke:#A80036;stroke-width:1.0;" width="10" x="550.5" y="137.5625"/><rect fill="#FFFFFF" filter="url(#f1ds9hnemxyg47)" height="87.2656" style="stroke:#A80036;stroke-width:1.0;" width="10" x="550.5" y="268.0938"/><rect fill="#FFFFFF" filter="url(#f1ds9hnemxyg47)" height="14" style="stroke:#A80036;stroke-width:1.0;" width="10" x="665.5" y="166.6953"/><rect fill="#FFFFFF" filter="url(#f1ds9hnemxyg47)" height="29.1328" style="stroke:#A80036;stroke-width:1.0;" width="10" x="719" y="450.7578"/><rect fill="#FFFFFF" filter="url(#f1ds9hnemxyg47)" height="29.1328" style="stroke:#A80036;stroke-width:1.0;" width="10" x="719" y="606.4219"/><rect fill="#FFFFFF" filter="url(#f1ds9hnemxyg47)" height="34.1328" style="stroke:#A80036;stroke-width:1.0;" width="10" x="808.5" y="287.0938"/><rect fill="#FFFFFF" filter="url(#f1ds9hnemxyg47)" height="68.2656" style="stroke:#A80036;stroke-width:1.0;" width="10" x="897" y="509.0234"/><rect fill="none" filter="url(#f1ds9hnemxyg47)" height="611" style="stroke:#000000;stroke-width:2.0;" width="973.5" x="51" y="195.6953"/><rect fill="none" filter="url(#f1ds9hnemxyg47)" height="356.2656" style="stroke:#000000;stroke-width:2.0;" width="871.5" x="61" y="370.3594"/><line style="stroke:#A80036;stroke-width:1.0;stroke-dasharray:5.0,5.0;" x1="118" x2="118" y1="67.2969" y2="823.6953"/><line style="stroke:#A80036;stroke-width:1.0;stroke-dasharray:5.0,5.0;" x1="308" x2="308" y1="67.2969" y2="823.6953"/><line style="stroke:#A80036;stroke-width:1.0;stroke-dasharray:5.0,5.0;" x1="555.5" x2="555.5" y1="67.2969" y2="823.6953"/><line style="stroke:#A80036;stroke-width:1.0;stroke-dasharray:5.0,5.0;" x1="670.5" x2="670.5" y1="67.2969" y2="823.6953"/><line style="stroke:#A80036;stroke-width:1.0;stroke-dasharray:5.0,5.0;" x1="723.5" x2="723.5" y1="67.2969" y2="823.6953"/><line style="stroke:#A80036;stroke-width:1.0;stroke-dasharray:5.0,5.0;" x1="813.5" x2="813.5" y1="67.2969" y2="823.6953"/><line style="stroke:#A80036;stroke-width:1.0;stroke-dasharray:5.0,5.0;" x1="901.5" x2="901.5" y1="67.2969" y2="823.6953"/><rect fill="#FEFECE" filter="url(#f1ds9hnemxyg47)" height="30.2969" style="stroke:#A80036;stroke-width:1.5;" width="91" x="71" y="32"/><text fill="#000000" font-family="sans-serif" font-size="14" lengthAdjust="spacing" textLength="77" x="78" y="51.9951">User Agent</text><rect fill="#FEFECE" filter="url(#f1ds9hnemxyg47)" height="30.2969" style="stroke:#A80036;stroke-width:1.5;" width="91" x="71" y="822.6953"/><text fill="#000000" font-family="sans-serif" font-size="14" lengthAdjust="spacing" textLength="77" x="78" y="842.6904">User Agent</text><rect fill="#FEFECE" filter="url(#f1ds9hnemxyg47)" height="30.2969" style="stroke:#A80036;stroke-width:1.5;" width="165" x="224" y="32"/><text fill="#000000" font-family="sans-serif" font-size="14" lengthAdjust="spacing" textLength="151" x="231" y="51.9951">Pagopa - SP Creditore</text><rect fill="#FEFECE" filter="url(#f1ds9hnemxyg47)" height="30.2969" style="stroke:#A80036;stroke-width:1.5;" width="165" x="224" y="822.6953"/><text fill="#000000" font-family="sans-serif" font-size="14" lengthAdjust="spacing" textLength="151" x="231" y="842.6904">Pagopa - SP Creditore</text><rect fill="#FEFECE" filter="url(#f1ds9hnemxyg47)" height="30.2969" style="stroke:#A80036;stroke-width:1.5;" width="148" x="479.5" y="32"/><text fill="#000000" font-family="sans-serif" font-size="14" lengthAdjust="spacing" textLength="134" x="486.5" y="51.9951">Gestore Repository</text><rect fill="#FEFECE" filter="url(#f1ds9hnemxyg47)" height="30.2969" style="stroke:#A80036;stroke-width:1.5;" width="148" x="479.5" y="822.6953"/><text fill="#000000" font-family="sans-serif" font-size="14" lengthAdjust="spacing" textLength="134" x="486.5" y="842.6904">Gestore Repository</text><text fill="#000000" font-family="sans-serif" font-size="14" lengthAdjust="spacing" textLength="38" x="648.5" y="63.9951">Payer</text><path d="M652.5,15 C652.5,5 670.5,5 670.5,5 C670.5,5 688.5,5 688.5,15 L688.5,41 C688.5,51 670.5,51 670.5,51 C670.5,51 652.5,51 652.5,41 L652.5,15 " fill="#FEFECE" filter="url(#f1ds9hnemxyg47)" style="stroke:#A80036;stroke-width:1.5;"/><path d="M652.5,15 C652.5,25 670.5,25 670.5,25 C670.5,25 688.5,25 688.5,15 " fill="none" style="stroke:#A80036;stroke-width:1.5;"/><text fill="#000000" font-family="sans-serif" font-size="14" lengthAdjust="spacing" textLength="38" x="648.5" y="835.6904">Payer</text><path d="M652.5,848.9922 C652.5,838.9922 670.5,838.9922 670.5,838.9922 C670.5,838.9922 688.5,838.9922 688.5,848.9922 L688.5,874.9922 C688.5,884.9922 670.5,884.9922 670.5,884.9922 C670.5,884.9922 652.5,884.9922 652.5,874.9922 L652.5,848.9922 " fill="#FEFECE" filter="url(#f1ds9hnemxyg47)" style="stroke:#A80036;stroke-width:1.5;"/><path d="M652.5,848.9922 C652.5,858.9922 670.5,858.9922 670.5,858.9922 C670.5,858.9922 688.5,858.9922 688.5,848.9922 " fill="none" style="stroke:#A80036;stroke-width:1.5;"/><text fill="#000000" font-family="sans-serif" font-size="14" lengthAdjust="spacing" textLength="37" x="702.5" y="63.9951">SRTP</text><path d="M706,15 C706,5 724,5 724,5 C724,5 742,5 742,15 L742,41 C742,51 724,51 724,51 C724,51 706,51 706,41 L706,15 " fill="#FEFECE" filter="url(#f1ds9hnemxyg47)" style="stroke:#A80036;stroke-width:1.5;"/><path d="M706,15 C706,25 724,25 724,25 C724,25 742,25 742,15 " fill="none" style="stroke:#A80036;stroke-width:1.5;"/><text fill="#000000" font-family="sans-serif" font-size="14" lengthAdjust="spacing" textLength="37" x="702.5" y="835.6904">SRTP</text><path d="M706,848.9922 C706,838.9922 724,838.9922 724,838.9922 C724,838.9922 742,838.9922 742,848.9922 L742,874.9922 C742,884.9922 724,884.9922 724,884.9922 C724,884.9922 706,884.9922 706,874.9922 L706,848.9922 " fill="#FEFECE" filter="url(#f1ds9hnemxyg47)" style="stroke:#A80036;stroke-width:1.5;"/><path d="M706,848.9922 C706,858.9922 724,858.9922 724,858.9922 C724,858.9922 742,858.9922 742,848.9922 " fill="none" style="stroke:#A80036;stroke-width:1.5;"/><text fill="#000000" font-family="sans-serif" font-size="14" lengthAdjust="spacing" textLength="110" x="755.5" y="63.9951">Service Registry</text><path d="M795.5,15 C795.5,5 813.5,5 813.5,5 C813.5,5 831.5,5 831.5,15 L831.5,41 C831.5,51 813.5,51 813.5,51 C813.5,51 795.5,51 795.5,41 L795.5,15 " fill="#FEFECE" filter="url(#f1ds9hnemxyg47)" style="stroke:#A80036;stroke-width:1.5;"/><path d="M795.5,15 C795.5,25 813.5,25 813.5,25 C813.5,25 831.5,25 831.5,15 " fill="none" style="stroke:#A80036;stroke-width:1.5;"/><text fill="#000000" font-family="sans-serif" font-size="14" lengthAdjust="spacing" textLength="110" x="755.5" y="835.6904">Service Registry</text><path d="M795.5,848.9922 C795.5,838.9922 813.5,838.9922 813.5,838.9922 C813.5,838.9922 831.5,838.9922 831.5,848.9922 L831.5,874.9922 C831.5,884.9922 813.5,884.9922 813.5,884.9922 C813.5,884.9922 795.5,884.9922 795.5,874.9922 L795.5,848.9922 " fill="#FEFECE" filter="url(#f1ds9hnemxyg47)" style="stroke:#A80036;stroke-width:1.5;"/><path d="M795.5,848.9922 C795.5,858.9922 813.5,858.9922 813.5,858.9922 C813.5,858.9922 831.5,858.9922 831.5,848.9922 " fill="none" style="stroke:#A80036;stroke-width:1.5;"/><rect fill="#FEFECE" filter="url(#f1ds9hnemxyg47)" height="30.2969" style="stroke:#A80036;stroke-width:1.5;" width="37" x="881.5" y="32"/><text fill="#000000" font-family="sans-serif" font-size="14" lengthAdjust="spacing" textLength="23" x="888.5" y="51.9951">CBI</text><rect fill="#FEFECE" filter="url(#f1ds9hnemxyg47)" height="30.2969" style="stroke:#A80036;stroke-width:1.5;" width="37" x="881.5" y="822.6953"/><text fill="#000000" font-family="sans-serif" font-size="14" lengthAdjust="spacing" textLength="23" x="888.5" y="842.6904">CBI</text><rect fill="#FFFFFF" filter="url(#f1ds9hnemxyg47)" height="710.2656" style="stroke:#A80036;stroke-width:1.0;" width="10" x="303.5" y="103.4297"/><rect fill="#FFFFFF" filter="url(#f1ds9hnemxyg47)" height="96.3984" style="stroke:#A80036;stroke-width:1.0;" width="10" x="550.5" y="137.5625"/><rect fill="#FFFFFF" filter="url(#f1ds9hnemxyg47)" height="87.2656" style="stroke:#A80036;stroke-width:1.0;" width="10" x="550.5" y="268.0938"/><rect fill="#FFFFFF" filter="url(#f1ds9hnemxyg47)" height="14" style="stroke:#A80036;stroke-width:1.0;" width="10" x="665.5" y="166.6953"/><rect fill="#FFFFFF" filter="url(#f1ds9hnemxyg47)" height="29.1328" style="stroke:#A80036;stroke-width:1.0;" width="10" x="719" y="450.7578"/><rect fill="#FFFFFF" filter="url(#f1ds9hnemxyg47)" height="29.1328" style="stroke:#A80036;stroke-width:1.0;" width="10" x="719" y="606.4219"/><rect fill="#FFFFFF" filter="url(#f1ds9hnemxyg47)" height="34.1328" style="stroke:#A80036;stroke-width:1.0;" width="10" x="808.5" y="287.0938"/><rect fill="#FFFFFF" filter="url(#f1ds9hnemxyg47)" height="68.2656" style="stroke:#A80036;stroke-width:1.0;" width="10" x="897" y="509.0234"/><polygon fill="#A80036" points="291.5,99.4297,301.5,103.4297,291.5,107.4297,295.5,103.4297" style="stroke:#A80036;stroke-width:1.0;"/><line style="stroke:#A80036;stroke-width:1.0;" x1="118.5" x2="297.5" y1="103.4297" y2="103.4297"/><text fill="#000000" font-family="sans-serif" font-size="13" lengthAdjust="spacing" textLength="67" x="125.5" y="98.3638">POST /rtps</text><path d="M5,82.2969 L5,107.2969 L110,107.2969 L110,92.2969 L100,82.2969 L5,82.2969 " fill="#FBFB77" filter="url(#f1ds9hnemxyg47)" style="stroke:#A80036;stroke-width:1.0;"/><path d="M100,82.2969 L100,92.2969 L110,92.2969 L100,82.2969 " fill="#FBFB77" style="stroke:#A80036;stroke-width:1.0;"/><text fill="#000000" font-family="sans-serif" font-size="13" lengthAdjust="spacing" textLength="84" x="11" y="99.3638">access token</text><polygon fill="#A80036" points="538.5,133.5625,548.5,137.5625,538.5,141.5625,542.5,137.5625" style="stroke:#A80036;stroke-width:1.0;"/><line style="stroke:#A80036;stroke-width:1.0;" x1="313.5" x2="544.5" y1="137.5625" y2="137.5625"/><text fill="#000000" font-family="sans-serif" font-size="13" lengthAdjust="spacing" textLength="142" x="320.5" y="132.4966">GET /activations/payer</text><polygon fill="#A80036" points="653.5,162.6953,663.5,166.6953,653.5,170.6953,657.5,166.6953" style="stroke:#A80036;stroke-width:1.0;"/><line style="stroke:#A80036;stroke-width:1.0;" x1="560.5" x2="659.5" y1="166.6953" y2="166.6953"/><text fill="#000000" font-family="sans-serif" font-size="13" lengthAdjust="spacing" textLength="86" x="567.5" y="161.6294">findByPayerId</text><polygon fill="#A80036" points="571.5,176.6953,561.5,180.6953,571.5,184.6953,567.5,180.6953" style="stroke:#A80036;stroke-width:1.0;"/><line style="stroke:#A80036;stroke-width:1.0;stroke-dasharray:2.0,2.0;" x1="565.5" x2="669.5" y1="180.6953" y2="180.6953"/><path d="M51,195.6953 L115,195.6953 L115,202.8281 L105,212.8281 L51,212.8281 L51,195.6953 " fill="#EEEEEE" style="stroke:#000000;stroke-width:1.0;"/><rect fill="none" height="611" style="stroke:#000000;stroke-width:2.0;" width="973.5" x="51" y="195.6953"/><text fill="#000000" font-family="sans-serif" font-size="13" font-weight="bold" lengthAdjust="spacing" textLength="19" x="66" y="208.7622">alt</text><text fill="#000000" font-family="sans-serif" font-size="11" font-weight="bold" lengthAdjust="spacing" textLength="102" x="130" y="207.9058">[user activated]</text><polygon fill="#A80036" points="324.5,229.9609,314.5,233.9609,324.5,237.9609,320.5,233.9609" style="stroke:#A80036;stroke-width:1.0;"/><line style="stroke:#A80036;stroke-width:1.0;stroke-dasharray:2.0,2.0;" x1="318.5" x2="554.5" y1="233.9609" y2="233.9609"/><text fill="#000000" font-family="sans-serif" font-size="13" lengthAdjust="spacing" textLength="190" x="330.5" y="228.895">payer and its Service Provider</text><polygon fill="#A80036" points="538.5,264.0938,548.5,268.0938,538.5,272.0938,542.5,268.0938" style="stroke:#A80036;stroke-width:1.0;"/><line style="stroke:#A80036;stroke-width:1.0;" x1="313.5" x2="544.5" y1="268.0938" y2="268.0938"/><text fill="#000000" font-family="sans-serif" font-size="13" lengthAdjust="spacing" textLength="103" x="320.5" y="263.0278">getRegistryData</text><path d="M120,246.9609 L120,271.9609 L294,271.9609 L294,256.9609 L284,246.9609 L120,246.9609 " fill="#FBFB77" filter="url(#f1ds9hnemxyg47)" style="stroke:#A80036;stroke-width:1.0;"/><path d="M284,246.9609 L284,256.9609 L294,256.9609 L284,246.9609 " fill="#FBFB77" style="stroke:#A80036;stroke-width:1.0;"/><text fill="#000000" font-family="sans-serif" font-size="13" lengthAdjust="spacing" textLength="153" x="126" y="264.0278">Search key: ID Payer SP</text><polygon fill="#A80036" points="796.5,283.0938,806.5,287.0938,796.5,291.0938,800.5,287.0938" style="stroke:#A80036;stroke-width:1.0;"/><line style="stroke:#A80036;stroke-width:1.0;" x1="560.5" x2="802.5" y1="287.0938" y2="287.0938"/><polygon fill="#A80036" points="571.5,317.2266,561.5,321.2266,571.5,325.2266,567.5,321.2266" style="stroke:#A80036;stroke-width:1.0;"/><line style="stroke:#A80036;stroke-width:1.0;stroke-dasharray:2.0,2.0;" x1="565.5" x2="812.5" y1="321.2266" y2="321.2266"/><text fill="#000000" font-family="sans-serif" font-size="13" lengthAdjust="spacing" textLength="136" x="577.5" y="316.1606">Service Provider data</text><path d="M823,300.0938 L823,325.0938 L1005,325.0938 L1005,310.0938 L995,300.0938 L823,300.0938 " fill="#FBFB77" filter="url(#f1ds9hnemxyg47)" style="stroke:#A80036;stroke-width:1.0;"/><path d="M995,300.0938 L995,310.0938 L1005,310.0938 L995,300.0938 " fill="#FBFB77" style="stroke:#A80036;stroke-width:1.0;"/><text fill="#000000" font-family="sans-serif" font-size="13" lengthAdjust="spacing" textLength="161" x="829" y="317.1606">service_endpoint, oauth2</text><polygon fill="#A80036" points="324.5,351.3594,314.5,355.3594,324.5,359.3594,320.5,355.3594" style="stroke:#A80036;stroke-width:1.0;"/><line style="stroke:#A80036;stroke-width:1.0;stroke-dasharray:2.0,2.0;" x1="318.5" x2="554.5" y1="355.3594" y2="355.3594"/><text fill="#000000" font-family="sans-serif" font-size="13" lengthAdjust="spacing" textLength="136" x="330.5" y="350.2935">Service Provider data</text><path d="M61,370.3594 L125,370.3594 L125,377.4922 L115,387.4922 L61,387.4922 L61,370.3594 " fill="#EEEEEE" style="stroke:#000000;stroke-width:1.0;"/><rect fill="none" height="356.2656" style="stroke:#000000;stroke-width:2.0;" width="871.5" x="61" y="370.3594"/><text fill="#000000" font-family="sans-serif" font-size="13" font-weight="bold" lengthAdjust="spacing" textLength="19" x="76" y="383.4263">alt</text><text fill="#000000" font-family="sans-serif" font-size="11" font-weight="bold" lengthAdjust="spacing" textLength="155" x="140" y="382.5698">[Service Provider is CBI]</text><line style="stroke:#A80036;stroke-width:1.0;" x1="313.5" x2="355.5" y1="408.625" y2="408.625"/><line style="stroke:#A80036;stroke-width:1.0;" x1="355.5" x2="355.5" y1="408.625" y2="421.625"/><line style="stroke:#A80036;stroke-width:1.0;" x1="314.5" x2="355.5" y1="421.625" y2="421.625"/><polygon fill="#A80036" points="324.5,417.625,314.5,421.625,324.5,425.625,320.5,421.625" style="stroke:#A80036;stroke-width:1.0;"/><text fill="#000000" font-family="sans-serif" font-size="13" lengthAdjust="spacing" textLength="223" x="320.5" y="403.5591">add activation data to EPC payload</text><polygon fill="#A80036" points="707,446.7578,717,450.7578,707,454.7578,711,450.7578" style="stroke:#A80036;stroke-width:1.0;"/><line style="stroke:#A80036;stroke-width:1.0;" x1="313.5" x2="713" y1="450.7578" y2="450.7578"/><text fill="#000000" font-family="sans-serif" font-size="13" lengthAdjust="spacing" textLength="179" x="320.5" y="445.6919">save RTP in status CREATED</text><polygon fill="#A80036" points="324.5,475.8906,314.5,479.8906,324.5,483.8906,320.5,479.8906" style="stroke:#A80036;stroke-width:1.0;"/><line style="stroke:#A80036;stroke-width:1.0;stroke-dasharray:2.0,2.0;" x1="318.5" x2="723" y1="479.8906" y2="479.8906"/><text fill="#000000" font-family="sans-serif" font-size="13" lengthAdjust="spacing" textLength="49" x="330.5" y="474.8247">created</text><polygon fill="#A80036" points="324.5,505.0234,314.5,509.0234,324.5,513.0234,320.5,509.0234" style="stroke:#A80036;stroke-width:1.0;"/><polygon fill="#A80036" points="885,505.0234,895,509.0234,885,513.0234,889,509.0234" style="stroke:#A80036;stroke-width:1.0;"/><line style="stroke:#A80036;stroke-width:1.0;" x1="318.5" x2="891" y1="509.0234" y2="509.0234"/><text fill="#000000" font-family="sans-serif" font-size="13" lengthAdjust="spacing" textLength="46" x="330.5" y="503.9575">oAuth2</text><polygon fill="#A80036" points="885,539.1563,895,543.1563,885,547.1563,889,543.1563" style="stroke:#A80036;stroke-width:1.0;"/><line style="stroke:#A80036;stroke-width:1.0;" x1="313.5" x2="891" y1="543.1563" y2="543.1563"/><text fill="#000000" font-family="sans-serif" font-size="13" lengthAdjust="spacing" textLength="173" x="320.5" y="538.0903">POST /sepa-request-to-pay</text><path d="M227,522.0234 L227,547.0234 L294,547.0234 L294,532.0234 L284,522.0234 L227,522.0234 " fill="#FBFB77" filter="url(#f1ds9hnemxyg47)" style="stroke:#A80036;stroke-width:1.0;"/><path d="M284,522.0234 L284,532.0234 L294,532.0234 L284,522.0234 " fill="#FBFB77" style="stroke:#A80036;stroke-width:1.0;"/><text fill="#000000" font-family="sans-serif" font-size="13" lengthAdjust="spacing" textLength="46" x="233" y="539.0903">oAuth2</text><polygon fill="#A80036" points="324.5,573.2891,314.5,577.2891,324.5,581.2891,320.5,577.2891" style="stroke:#A80036;stroke-width:1.0;"/><line style="stroke:#A80036;stroke-width:1.0;stroke-dasharray:2.0,2.0;" x1="318.5" x2="901" y1="577.2891" y2="577.2891"/><text fill="#000000" font-family="sans-serif" font-size="13" lengthAdjust="spacing" textLength="87" x="330.5" y="572.2231">202 accepted</text><polygon fill="#A80036" points="707,602.4219,717,606.4219,707,610.4219,711,606.4219" style="stroke:#A80036;stroke-width:1.0;"/><line style="stroke:#A80036;stroke-width:1.0;" x1="313.5" x2="713" y1="606.4219" y2="606.4219"/><text fill="#000000" font-family="sans-serif" font-size="13" lengthAdjust="spacing" textLength="154" x="320.5" y="601.356">save RTP in status SENT</text><polygon fill="#A80036" points="324.5,631.5547,314.5,635.5547,324.5,639.5547,320.5,635.5547" style="stroke:#A80036;stroke-width:1.0;"/><line style="stroke:#A80036;stroke-width:1.0;stroke-dasharray:2.0,2.0;" x1="318.5" x2="723" y1="635.5547" y2="635.5547"/><text fill="#000000" font-family="sans-serif" font-size="13" lengthAdjust="spacing" textLength="53" x="330.5" y="630.4888">updated</text><polygon fill="#A80036" points="129.5,660.6875,119.5,664.6875,129.5,668.6875,125.5,664.6875" style="stroke:#A80036;stroke-width:1.0;"/><line style="stroke:#A80036;stroke-width:1.0;stroke-dasharray:2.0,2.0;" x1="123.5" x2="302.5" y1="664.6875" y2="664.6875"/><text fill="#000000" font-family="sans-serif" font-size="13" lengthAdjust="spacing" textLength="77" x="135.5" y="659.6216">201 created</text><line style="stroke:#000000;stroke-width:1.0;stroke-dasharray:2.0,2.0;" x1="61" x2="932.5" y1="673.6875" y2="673.6875"/><text fill="#000000" font-family="sans-serif" font-size="11" font-weight="bold" lengthAdjust="spacing" textLength="180" x="66" y="683.8979">[Service Provider is not CBI]</text><polygon fill="#A80036" points="129.5,709.625,119.5,713.625,129.5,717.625,125.5,713.625" style="stroke:#A80036;stroke-width:1.0;"/><line style="stroke:#A80036;stroke-width:1.0;stroke-dasharray:2.0,2.0;" x1="123.5" x2="302.5" y1="713.625" y2="713.625"/><text fill="#000000" font-family="sans-serif" font-size="13" lengthAdjust="spacing" textLength="77" x="135.5" y="708.5591">201 created</text><path d="M318,692.4922 L318,717.4922 L530,717.4922 L530,702.4922 L520,692.4922 L318,692.4922 " fill="#FBFB77" filter="url(#f1ds9hnemxyg47)" style="stroke:#A80036;stroke-width:1.0;"/><path d="M520,692.4922 L520,702.4922 L530,702.4922 L520,692.4922 " fill="#FBFB77" style="stroke:#A80036;stroke-width:1.0;"/><text fill="#000000" font-family="sans-serif" font-size="13" lengthAdjust="spacing" textLength="191" x="324" y="709.5591">Mocked during CBI integration</text><line style="stroke:#000000;stroke-width:1.0;stroke-dasharray:2.0,2.0;" x1="51" x2="1024.5" y1="734.625" y2="734.625"/><text fill="#000000" font-family="sans-serif" font-size="11" font-weight="bold" lengthAdjust="spacing" textLength="127" x="56" y="744.8354">[user not activated]</text><polygon fill="#A80036" points="324.5,765.5625,314.5,769.5625,324.5,773.5625,320.5,769.5625" style="stroke:#A80036;stroke-width:1.0;"/><line style="stroke:#A80036;stroke-width:1.0;stroke-dasharray:2.0,2.0;" x1="318.5" x2="554.5" y1="769.5625" y2="769.5625"/><text fill="#000000" font-family="sans-serif" font-size="13" lengthAdjust="spacing" textLength="89" x="330.5" y="764.4966">404 not found</text><polygon fill="#A80036" points="129.5,794.6953,119.5,798.6953,129.5,802.6953,125.5,798.6953" style="stroke:#A80036;stroke-width:1.0;"/><line style="stroke:#A80036;stroke-width:1.0;stroke-dasharray:2.0,2.0;" x1="123.5" x2="302.5" y1="798.6953" y2="798.6953"/><text fill="#000000" font-family="sans-serif" font-size="13" lengthAdjust="spacing" textLength="161" x="135.5" y="793.6294">422 unprocessable entity</text><!--SRC=[VLJ1Zfim4BtxAqPxBjfjb1EgAh41HJcqHP2SAo-U42kHJMqJAN_ViGF19Dcz8B2VtxptPemzIWL6MsGTDqusikFAmSlEee6iHULUW5lOPVFjahUwuv10NSBAe91E6mp8kbpDeMkqVXCgxBJrk4l0hIickECVtAAdkw09o-4jsgchRNdbfPTu7SrPDfwrbTODd7KrBxrwtmoQSiPs6IG_lRmKoZ_r5bwDwonJsY6SSEzIu4s3reBJHrICDqwUEUrvFumU_l2wIc5TqD5XLsfbNxkW-8OdN-lAWuEJ5FPIYVTB-DY82NRr6PwG16ecy6wNdnpqlW_ZkWZKeujG6BWI81rv708fZJvBuJF4M5DieKKtnfPJe746DNBJ7E28bnGs-LK7LNjYZxAUCgfONGqsqWSb86v5Z6mFLCLU4NzHYKvBvRw1vhqxB6BDTJKp-vpqpcD8x04fBT0Wt188T5m8c9eOoAZnK124OZrfBYOy3Hv9vcSQjcq9T5kiuwudqgh8jaKUnq0ZwX-JxCPWwDlC6A42-O-0obFGMN0VpLmUoSt7WRNOySJWlvvkLE9qGahZtWqiT62gltXRXBdkxaN45JupM1U_jr-wwplnkJkFscLUmlTR30nFT7cVTOXyH5rwSZIUdr-wEQ80qHkfMd-CH3jiJMWc5L5ZfN1xFFLqWnv6UJIpV5i6w5xtIjnDLYngkLX0hpgZ_T-2VvmGw2SftMMeEmjvnVu3]--></g></svg>