<?xml version="1.0" encoding="us-ascii" standalone="no"?><svg xmlns="http://www.w3.org/2000/svg" xmlns:xlink="http://www.w3.org/1999/xlink" contentStyleType="text/css" height="560px" preserveAspectRatio="none" style="width:706px;height:560px;background:#FFFFFF;" version="1.1" viewBox="0 0 706 560" width="706px" zoomAndPan="magnify"><defs><filter height="300%" id="fuhnu92vbp2lk" width="300%" x="-1" y="-1"><feGaussianBlur result="blurOut" stdDeviation="2.0"/><feColorMatrix in="blurOut" result="blurOut2" type="matrix" values="0 0 0 0 0 0 0 0 0 0 0 0 0 0 0 0 0 0 .4 0"/><feOffset dx="4.0" dy="4.0" in="blurOut2" result="blurOut3"/><feBlend in="SourceGraphic" in2="blurOut3" mode="normal"/></filter></defs><g><rect fill="#FFFFFF" filter="url(#fuhnu92vbp2lk)" height="365.3984" style="stroke:#A80036;stroke-width:1.0;" width="10" x="252.5" y="98.4297"/><rect fill="none" filter="url(#fuhnu92vbp2lk)" height="119.3359" style="stroke:#000000;stroke-width:2.0;" width="504.5" x="10" y="200.8281"/><line style="stroke:#A80036;stroke-width:1.0;stroke-dasharray:5.0,5.0;" x1="67" x2="67" y1="67.2969" y2="481.8281"/><line style="stroke:#A80036;stroke-width:1.0;stroke-dasharray:5.0,5.0;" x1="257" x2="257" y1="67.2969" y2="481.8281"/><line style="stroke:#A80036;stroke-width:1.0;stroke-dasharray:5.0,5.0;" x1="428.5" x2="428.5" y1="67.2969" y2="481.8281"/><line style="stroke:#A80036;stroke-width:1.0;stroke-dasharray:5.0,5.0;" x1="550.5" x2="550.5" y1="67.2969" y2="481.8281"/><line style="stroke:#A80036;stroke-width:1.0;stroke-dasharray:5.0,5.0;" x1="646.5" x2="646.5" y1="67.2969" y2="481.8281"/><rect fill="#FEFECE" filter="url(#fuhnu92vbp2lk)" height="30.2969" style="stroke:#A80036;stroke-width:1.5;" width="91" x="20" y="32"/><text fill="#000000" font-family="sans-serif" font-size="14" lengthAdjust="spacing" textLength="77" x="27" y="51.9951">User Agent</text><rect fill="#FEFECE" filter="url(#fuhnu92vbp2lk)" height="30.2969" style="stroke:#A80036;stroke-width:1.5;" width="91" x="20" y="480.8281"/><text fill="#000000" font-family="sans-serif" font-size="14" lengthAdjust="spacing" textLength="77" x="27" y="500.8232">User Agent</text><rect fill="#FEFECE" filter="url(#fuhnu92vbp2lk)" height="30.2969" style="stroke:#A80036;stroke-width:1.5;" width="165" x="173" y="32"/><text fill="#000000" font-family="sans-serif" font-size="14" lengthAdjust="spacing" textLength="151" x="180" y="51.9951">Pagopa - SP Creditore</text><rect fill="#FEFECE" filter="url(#fuhnu92vbp2lk)" height="30.2969" style="stroke:#A80036;stroke-width:1.5;" width="165" x="173" y="480.8281"/><text fill="#000000" font-family="sans-serif" font-size="14" lengthAdjust="spacing" textLength="151" x="180" y="500.8232">Pagopa - SP Creditore</text><rect fill="#FEFECE" filter="url(#fuhnu92vbp2lk)" height="30.2969" style="stroke:#A80036;stroke-width:1.5;" width="148" x="352.5" y="32"/><text fill="#000000" font-family="sans-serif" font-size="14" lengthAdjust="spacing" textLength="134" x="359.5" y="51.9951">Gestore Repository</text><rect fill="#FEFECE" filter="url(#fuhnu92vbp2lk)" height="30.2969" style="stroke:#A80036;stroke-width:1.5;" width="148" x="352.5" y="480.8281"/><text fill="#000000" font-family="sans-serif" font-size="14" lengthAdjust="spacing" textLength="134" x="359.5" y="500.8232">Gestore Repository</text><text fill="#000000" font-family="sans-serif" font-size="14" lengthAdjust="spacing" textLength="66" x="514.5" y="63.9951">Database</text><path d="M532.5,15 C532.5,5 550.5,5 550.5,5 C550.5,5 568.5,5 568.5,15 L568.5,41 C568.5,51 550.5,51 550.5,51 C550.5,51 532.5,51 532.5,41 L532.5,15 " fill="#FEFECE" filter="url(#fuhnu92vbp2lk)" style="stroke:#A80036;stroke-width:1.5;"/><path d="M532.5,15 C532.5,25 550.5,25 550.5,25 C550.5,25 568.5,25 568.5,15 " fill="none" style="stroke:#A80036;stroke-width:1.5;"/><text fill="#000000" font-family="sans-serif" font-size="14" lengthAdjust="spacing" textLength="66" x="514.5" y="493.8232">Database</text><path d="M532.5,507.125 C532.5,497.125 550.5,497.125 550.5,497.125 C550.5,497.125 568.5,497.125 568.5,507.125 L568.5,533.125 C568.5,543.125 550.5,543.125 550.5,543.125 C550.5,543.125 532.5,543.125 532.5,533.125 L532.5,507.125 " fill="#FEFECE" filter="url(#fuhnu92vbp2lk)" style="stroke:#A80036;stroke-width:1.5;"/><path d="M532.5,507.125 C532.5,517.125 550.5,517.125 550.5,517.125 C550.5,517.125 568.5,517.125 568.5,507.125 " fill="none" style="stroke:#A80036;stroke-width:1.5;"/><rect fill="#FEFECE" filter="url(#fuhnu92vbp2lk)" height="30.2969" style="stroke:#A80036;stroke-width:1.5;" width="96" x="596.5" y="32"/><text fill="#000000" font-family="sans-serif" font-size="14" lengthAdjust="spacing" textLength="82" x="603.5" y="51.9951">SP Debitore</text><rect fill="#FEFECE" filter="url(#fuhnu92vbp2lk)" height="30.2969" style="stroke:#A80036;stroke-width:1.5;" width="96" x="596.5" y="480.8281"/><text fill="#000000" font-family="sans-serif" font-size="14" lengthAdjust="spacing" textLength="82" x="603.5" y="500.8232">SP Debitore</text><rect fill="#FFFFFF" filter="url(#fuhnu92vbp2lk)" height="365.3984" style="stroke:#A80036;stroke-width:1.0;" width="10" x="252.5" y="98.4297"/><polygon fill="#A80036" points="240.5,94.4297,250.5,98.4297,240.5,102.4297,244.5,98.4297" style="stroke:#A80036;stroke-width:1.0;"/><line style="stroke:#A80036;stroke-width:1.0;" x1="67.5" x2="246.5" y1="98.4297" y2="98.4297"/><text fill="#000000" font-family="sans-serif" font-size="13" lengthAdjust="spacing" textLength="67" x="74.5" y="93.3638">POST /rtps</text><polygon fill="#A80036" points="416.5,123.5625,426.5,127.5625,416.5,131.5625,420.5,127.5625" style="stroke:#A80036;stroke-width:1.0;"/><line style="stroke:#A80036;stroke-width:1.0;" x1="262.5" x2="422.5" y1="127.5625" y2="127.5625"/><text fill="#000000" font-family="sans-serif" font-size="13" lengthAdjust="spacing" textLength="142" x="269.5" y="122.4966">GET /activations/payer</text><polygon fill="#A80036" points="538.5,152.6953,548.5,156.6953,538.5,160.6953,542.5,156.6953" style="stroke:#A80036;stroke-width:1.0;"/><line style="stroke:#A80036;stroke-width:1.0;" x1="428.5" x2="544.5" y1="156.6953" y2="156.6953"/><text fill="#000000" font-family="sans-serif" font-size="13" lengthAdjust="spacing" textLength="86" x="435.5" y="151.6294">findByPayerId</text><polygon fill="#A80036" points="439.5,181.8281,429.5,185.8281,439.5,189.8281,435.5,185.8281" style="stroke:#A80036;stroke-width:1.0;"/><line style="stroke:#A80036;stroke-width:1.0;stroke-dasharray:2.0,2.0;" x1="433.5" x2="549.5" y1="185.8281" y2="185.8281"/><text fill="#000000" font-family="sans-serif" font-size="13" lengthAdjust="spacing" textLength="36" x="445.5" y="180.7622">payer</text><path d="M10,200.8281 L74,200.8281 L74,207.9609 L64,217.9609 L10,217.9609 L10,200.8281 " fill="#EEEEEE" style="stroke:#000000;stroke-width:1.0;"/><rect fill="none" height="119.3359" style="stroke:#000000;stroke-width:2.0;" width="504.5" x="10" y="200.8281"/><text fill="#000000" font-family="sans-serif" font-size="13" font-weight="bold" lengthAdjust="spacing" textLength="19" x="25" y="213.895">alt</text><text fill="#000000" font-family="sans-serif" font-size="11" font-weight="bold" lengthAdjust="spacing" textLength="102" x="89" y="213.0386">[user activated]</text><polygon fill="#A80036" points="273.5,235.0938,263.5,239.0938,273.5,243.0938,269.5,239.0938" style="stroke:#A80036;stroke-width:1.0;"/><line style="stroke:#A80036;stroke-width:1.0;stroke-dasharray:2.0,2.0;" x1="267.5" x2="427.5" y1="239.0938" y2="239.0938"/><text fill="#000000" font-family="sans-serif" font-size="13" lengthAdjust="spacing" textLength="46" x="279.5" y="234.0278">200 OK</text><line style="stroke:#000000;stroke-width:1.0;stroke-dasharray:2.0,2.0;" x1="10" x2="514.5" y1="248.0938" y2="248.0938"/><text fill="#000000" font-family="sans-serif" font-size="11" font-weight="bold" lengthAdjust="spacing" textLength="127" x="15" y="258.3042">[user not activated]</text><polygon fill="#A80036" points="273.5,279.0313,263.5,283.0313,273.5,287.0313,269.5,283.0313" style="stroke:#A80036;stroke-width:1.0;"/><line style="stroke:#A80036;stroke-width:1.0;stroke-dasharray:2.0,2.0;" x1="267.5" x2="427.5" y1="283.0313" y2="283.0313"/><text fill="#000000" font-family="sans-serif" font-size="13" lengthAdjust="spacing" textLength="89" x="279.5" y="277.9653">404 not found</text><polygon fill="#A80036" points="78.5,308.1641,68.5,312.1641,78.5,316.1641,74.5,312.1641" style="stroke:#A80036;stroke-width:1.0;"/><line style="stroke:#A80036;stroke-width:1.0;stroke-dasharray:2.0,2.0;" x1="72.5" x2="251.5" y1="312.1641" y2="312.1641"/><text fill="#000000" font-family="sans-serif" font-size="13" lengthAdjust="spacing" textLength="161" x="84.5" y="307.0981">422 unprocessable entity</text><line style="stroke:#A80036;stroke-width:1.0;" x1="262.5" x2="304.5" y1="363.4297" y2="363.4297"/><line style="stroke:#A80036;stroke-width:1.0;" x1="304.5" x2="304.5" y1="363.4297" y2="376.4297"/><line style="stroke:#A80036;stroke-width:1.0;" x1="263.5" x2="304.5" y1="376.4297" y2="376.4297"/><polygon fill="#A80036" points="273.5,372.4297,263.5,376.4297,273.5,380.4297,269.5,376.4297" style="stroke:#A80036;stroke-width:1.0;"/><text fill="#000000" font-family="sans-serif" font-size="13" lengthAdjust="spacing" textLength="123" x="269.5" y="343.231">add activation data</text><text fill="#000000" font-family="sans-serif" font-size="13" lengthAdjust="spacing" textLength="96" x="269.5" y="358.3638">to EPC payload</text><polygon fill="#A80036" points="634.5,401.5625,644.5,405.5625,634.5,409.5625,638.5,405.5625" style="stroke:#A80036;stroke-width:1.0;"/><line style="stroke:#A80036;stroke-width:1.0;" x1="262.5" x2="640.5" y1="405.5625" y2="405.5625"/><text fill="#000000" font-family="sans-serif" font-size="13" lengthAdjust="spacing" textLength="234" x="269.5" y="400.4966">POST /sepa-request-to-pay-requests</text><polygon fill="#A80036" points="273.5,430.6953,263.5,434.6953,273.5,438.6953,269.5,434.6953" style="stroke:#A80036;stroke-width:1.0;"/><line style="stroke:#A80036;stroke-width:1.0;stroke-dasharray:2.0,2.0;" x1="267.5" x2="645.5" y1="434.6953" y2="434.6953"/><text fill="#000000" font-family="sans-serif" font-size="13" lengthAdjust="spacing" textLength="22" x="279.5" y="429.6294">2xx</text><polygon fill="#A80036" points="78.5,459.8281,68.5,463.8281,78.5,467.8281,74.5,463.8281" style="stroke:#A80036;stroke-width:1.0;"/><line style="stroke:#A80036;stroke-width:1.0;stroke-dasharray:2.0,2.0;" x1="72.5" x2="256.5" y1="463.8281" y2="463.8281"/><text fill="#000000" font-family="sans-serif" font-size="13" lengthAdjust="spacing" textLength="77" x="84.5" y="458.7622">201 created</text><!--SRC=[TP4nRyCW48LtViKfknNNofIXaXqYg-eGowctBXTpYL0ie82h-DyNIAp4GnS4lE-uzmvtbGgiTiGCMYzxQL1vM7MEB9GNKdu5wA0hbtA35sqGCZWsiBCafDUM4dbiTakq9XT5QCbe5xafSNNB17eyeIDOySSkARnQFX1QS3gzTk2CTILaxx7P5fh3yGlMrXl7iFVo5pqb5uo5DL9rkuLw7vY7BBLoQuCJMLQt4U3L5ivIYMfguks7OBo2x55v1naE7iOubBc7ICMpYIBFuV3960qXJ-AKzl-mctoJrBCUbRYR359N1gKeO5J6wfwSmzD043v0-ebH0ESuwGqK0fvn88uIlfNNi0zGi3ne5Cy2Fa_9aS7CqiyOFYNpEWlaV7G1vo-1RhU5jI9_WzvI2iC4BIRz1m00]--></g></svg>