<?xml version="1.0" encoding="us-ascii" standalone="no"?><svg xmlns="http://www.w3.org/2000/svg" xmlns:xlink="http://www.w3.org/1999/xlink" contentStyleType="text/css" height="844px" preserveAspectRatio="none" style="width:1132px;height:844px;background:#FFFFFF;" version="1.1" viewBox="0 0 1132 844" width="1132px" zoomAndPan="magnify"><defs><filter height="300%" id="f10xey8cv2al8z" width="300%" x="-1" y="-1"><feGaussianBlur result="blurOut" stdDeviation="2.0"/><feColorMatrix in="blurOut" result="blurOut2" type="matrix" values="0 0 0 0 0 0 0 0 0 0 0 0 0 0 0 0 0 0 .4 0"/><feOffset dx="4.0" dy="4.0" in="blurOut2" result="blurOut3"/><feBlend in="SourceGraphic" in2="blurOut3" mode="normal"/></filter></defs><g><rect fill="#FFFFFF" filter="url(#f10xey8cv2al8z)" height="653.1328" style="stroke:#A80036;stroke-width:1.0;" width="10" x="303.5" y="103.4297"/><rect fill="none" filter="url(#f10xey8cv2al8z)" height="538.7344" style="stroke:#000000;stroke-width:2.0;" width="1067.5" x="51" y="210.8281"/><rect fill="none" filter="url(#f10xey8cv2al8z)" height="356.2656" style="stroke:#000000;stroke-width:2.0;" width="970.5" x="61" y="313.2266"/><line style="stroke:#A80036;stroke-width:1.0;stroke-dasharray:5.0,5.0;" x1="118" x2="118" y1="67.2969" y2="766.5625"/><line style="stroke:#A80036;stroke-width:1.0;stroke-dasharray:5.0,5.0;" x1="308" x2="308" y1="67.2969" y2="766.5625"/><line style="stroke:#A80036;stroke-width:1.0;stroke-dasharray:5.0,5.0;" x1="555.5" x2="555.5" y1="67.2969" y2="766.5625"/><line style="stroke:#A80036;stroke-width:1.0;stroke-dasharray:5.0,5.0;" x1="769.5" x2="769.5" y1="67.2969" y2="766.5625"/><line style="stroke:#A80036;stroke-width:1.0;stroke-dasharray:5.0,5.0;" x1="822.5" x2="822.5" y1="67.2969" y2="766.5625"/><line style="stroke:#A80036;stroke-width:1.0;stroke-dasharray:5.0,5.0;" x1="912.5" x2="912.5" y1="67.2969" y2="766.5625"/><line style="stroke:#A80036;stroke-width:1.0;stroke-dasharray:5.0,5.0;" x1="1000.5" x2="1000.5" y1="67.2969" y2="766.5625"/><rect fill="#FEFECE" filter="url(#f10xey8cv2al8z)" height="30.2969" style="stroke:#A80036;stroke-width:1.5;" width="91" x="71" y="32"/><text fill="#000000" font-family="sans-serif" font-size="14" lengthAdjust="spacing" textLength="77" x="78" y="51.9951">User Agent</text><rect fill="#FEFECE" filter="url(#f10xey8cv2al8z)" height="30.2969" style="stroke:#A80036;stroke-width:1.5;" width="91" x="71" y="765.5625"/><text fill="#000000" font-family="sans-serif" font-size="14" lengthAdjust="spacing" textLength="77" x="78" y="785.5576">User Agent</text><rect fill="#FEFECE" filter="url(#f10xey8cv2al8z)" height="30.2969" style="stroke:#A80036;stroke-width:1.5;" width="165" x="224" y="32"/><text fill="#000000" font-family="sans-serif" font-size="14" lengthAdjust="spacing" textLength="151" x="231" y="51.9951">Pagopa - SP Creditore</text><rect fill="#FEFECE" filter="url(#f10xey8cv2al8z)" height="30.2969" style="stroke:#A80036;stroke-width:1.5;" width="165" x="224" y="765.5625"/><text fill="#000000" font-family="sans-serif" font-size="14" lengthAdjust="spacing" textLength="151" x="231" y="785.5576">Pagopa - SP Creditore</text><rect fill="#FEFECE" filter="url(#f10xey8cv2al8z)" height="30.2969" style="stroke:#A80036;stroke-width:1.5;" width="148" x="479.5" y="32"/><text fill="#000000" font-family="sans-serif" font-size="14" lengthAdjust="spacing" textLength="134" x="486.5" y="51.9951">Gestore Repository</text><rect fill="#FEFECE" filter="url(#f10xey8cv2al8z)" height="30.2969" style="stroke:#A80036;stroke-width:1.5;" width="148" x="479.5" y="765.5625"/><text fill="#000000" font-family="sans-serif" font-size="14" lengthAdjust="spacing" textLength="134" x="486.5" y="785.5576">Gestore Repository</text><text fill="#000000" font-family="sans-serif" font-size="14" lengthAdjust="spacing" textLength="38" x="747.5" y="63.9951">Payer</text><path d="M751.5,15 C751.5,5 769.5,5 769.5,5 C769.5,5 787.5,5 787.5,15 L787.5,41 C787.5,51 769.5,51 769.5,51 C769.5,51 751.5,51 751.5,41 L751.5,15 " fill="#FEFECE" filter="url(#f10xey8cv2al8z)" style="stroke:#A80036;stroke-width:1.5;"/><path d="M751.5,15 C751.5,25 769.5,25 769.5,25 C769.5,25 787.5,25 787.5,15 " fill="none" style="stroke:#A80036;stroke-width:1.5;"/><text fill="#000000" font-family="sans-serif" font-size="14" lengthAdjust="spacing" textLength="38" x="747.5" y="778.5576">Payer</text><path d="M751.5,791.8594 C751.5,781.8594 769.5,781.8594 769.5,781.8594 C769.5,781.8594 787.5,781.8594 787.5,791.8594 L787.5,817.8594 C787.5,827.8594 769.5,827.8594 769.5,827.8594 C769.5,827.8594 751.5,827.8594 751.5,817.8594 L751.5,791.8594 " fill="#FEFECE" filter="url(#f10xey8cv2al8z)" style="stroke:#A80036;stroke-width:1.5;"/><path d="M751.5,791.8594 C751.5,801.8594 769.5,801.8594 769.5,801.8594 C769.5,801.8594 787.5,801.8594 787.5,791.8594 " fill="none" style="stroke:#A80036;stroke-width:1.5;"/><text fill="#000000" font-family="sans-serif" font-size="14" lengthAdjust="spacing" textLength="37" x="801.5" y="63.9951">SRTP</text><path d="M805,15 C805,5 823,5 823,5 C823,5 841,5 841,15 L841,41 C841,51 823,51 823,51 C823,51 805,51 805,41 L805,15 " fill="#FEFECE" filter="url(#f10xey8cv2al8z)" style="stroke:#A80036;stroke-width:1.5;"/><path d="M805,15 C805,25 823,25 823,25 C823,25 841,25 841,15 " fill="none" style="stroke:#A80036;stroke-width:1.5;"/><text fill="#000000" font-family="sans-serif" font-size="14" lengthAdjust="spacing" textLength="37" x="801.5" y="778.5576">SRTP</text><path d="M805,791.8594 C805,781.8594 823,781.8594 823,781.8594 C823,781.8594 841,781.8594 841,791.8594 L841,817.8594 C841,827.8594 823,827.8594 823,827.8594 C823,827.8594 805,827.8594 805,817.8594 L805,791.8594 " fill="#FEFECE" filter="url(#f10xey8cv2al8z)" style="stroke:#A80036;stroke-width:1.5;"/><path d="M805,791.8594 C805,801.8594 823,801.8594 823,801.8594 C823,801.8594 841,801.8594 841,791.8594 " fill="none" style="stroke:#A80036;stroke-width:1.5;"/><text fill="#000000" font-family="sans-serif" font-size="14" lengthAdjust="spacing" textLength="110" x="854.5" y="63.9951">Service Registry</text><path d="M894.5,15 C894.5,5 912.5,5 912.5,5 C912.5,5 930.5,5 930.5,15 L930.5,41 C930.5,51 912.5,51 912.5,51 C912.5,51 894.5,51 894.5,41 L894.5,15 " fill="#FEFECE" filter="url(#f10xey8cv2al8z)" style="stroke:#A80036;stroke-width:1.5;"/><path d="M894.5,15 C894.5,25 912.5,25 912.5,25 C912.5,25 930.5,25 930.5,15 " fill="none" style="stroke:#A80036;stroke-width:1.5;"/><text fill="#000000" font-family="sans-serif" font-size="14" lengthAdjust="spacing" textLength="110" x="854.5" y="778.5576">Service Registry</text><path d="M894.5,791.8594 C894.5,781.8594 912.5,781.8594 912.5,781.8594 C912.5,781.8594 930.5,781.8594 930.5,791.8594 L930.5,817.8594 C930.5,827.8594 912.5,827.8594 912.5,827.8594 C912.5,827.8594 894.5,827.8594 894.5,817.8594 L894.5,791.8594 " fill="#FEFECE" filter="url(#f10xey8cv2al8z)" style="stroke:#A80036;stroke-width:1.5;"/><path d="M894.5,791.8594 C894.5,801.8594 912.5,801.8594 912.5,801.8594 C912.5,801.8594 930.5,801.8594 930.5,791.8594 " fill="none" style="stroke:#A80036;stroke-width:1.5;"/><rect fill="#FEFECE" filter="url(#f10xey8cv2al8z)" height="30.2969" style="stroke:#A80036;stroke-width:1.5;" width="37" x="980.5" y="32"/><text fill="#000000" font-family="sans-serif" font-size="14" lengthAdjust="spacing" textLength="23" x="987.5" y="51.9951">CBI</text><rect fill="#FEFECE" filter="url(#f10xey8cv2al8z)" height="30.2969" style="stroke:#A80036;stroke-width:1.5;" width="37" x="980.5" y="765.5625"/><text fill="#000000" font-family="sans-serif" font-size="14" lengthAdjust="spacing" textLength="23" x="987.5" y="785.5576">CBI</text><rect fill="#FFFFFF" filter="url(#f10xey8cv2al8z)" height="653.1328" style="stroke:#A80036;stroke-width:1.0;" width="10" x="303.5" y="103.4297"/><polygon fill="#A80036" points="291.5,99.4297,301.5,103.4297,291.5,107.4297,295.5,103.4297" style="stroke:#A80036;stroke-width:1.0;"/><line style="stroke:#A80036;stroke-width:1.0;" x1="118.5" x2="297.5" y1="103.4297" y2="103.4297"/><text fill="#000000" font-family="sans-serif" font-size="13" lengthAdjust="spacing" textLength="67" x="125.5" y="98.3638">POST /rtps</text><path d="M5,82.2969 L5,107.2969 L110,107.2969 L110,92.2969 L100,82.2969 L5,82.2969 " fill="#FBFB77" filter="url(#f10xey8cv2al8z)" style="stroke:#A80036;stroke-width:1.0;"/><path d="M100,82.2969 L100,92.2969 L110,92.2969 L100,82.2969 " fill="#FBFB77" style="stroke:#A80036;stroke-width:1.0;"/><text fill="#000000" font-family="sans-serif" font-size="13" lengthAdjust="spacing" textLength="84" x="11" y="99.3638">access token</text><polygon fill="#A80036" points="543.5,133.5625,553.5,137.5625,543.5,141.5625,547.5,137.5625" style="stroke:#A80036;stroke-width:1.0;"/><line style="stroke:#A80036;stroke-width:1.0;" x1="313.5" x2="549.5" y1="137.5625" y2="137.5625"/><text fill="#000000" font-family="sans-serif" font-size="13" lengthAdjust="spacing" textLength="142" x="320.5" y="132.4966">GET /activations/payer</text><polygon fill="#A80036" points="757.5,162.6953,767.5,166.6953,757.5,170.6953,761.5,166.6953" style="stroke:#A80036;stroke-width:1.0;"/><line style="stroke:#A80036;stroke-width:1.0;" x1="555.5" x2="763.5" y1="166.6953" y2="166.6953"/><text fill="#000000" font-family="sans-serif" font-size="13" lengthAdjust="spacing" textLength="86" x="562.5" y="161.6294">findByPayerId</text><polygon fill="#A80036" points="566.5,191.8281,556.5,195.8281,566.5,199.8281,562.5,195.8281" style="stroke:#A80036;stroke-width:1.0;"/><line style="stroke:#A80036;stroke-width:1.0;stroke-dasharray:2.0,2.0;" x1="560.5" x2="768.5" y1="195.8281" y2="195.8281"/><text fill="#000000" font-family="sans-serif" font-size="13" lengthAdjust="spacing" textLength="190" x="572.5" y="190.7622">payer and its Service Provider</text><path d="M51,210.8281 L115,210.8281 L115,217.9609 L105,227.9609 L51,227.9609 L51,210.8281 " fill="#EEEEEE" style="stroke:#000000;stroke-width:1.0;"/><rect fill="none" height="538.7344" style="stroke:#000000;stroke-width:2.0;" width="1067.5" x="51" y="210.8281"/><text fill="#000000" font-family="sans-serif" font-size="13" font-weight="bold" lengthAdjust="spacing" textLength="19" x="66" y="223.895">alt</text><text fill="#000000" font-family="sans-serif" font-size="11" font-weight="bold" lengthAdjust="spacing" textLength="102" x="130" y="223.0386">[user activated]</text><polygon fill="#A80036" points="900.5,250.0938,910.5,254.0938,900.5,258.0938,904.5,254.0938" style="stroke:#A80036;stroke-width:1.0;"/><line style="stroke:#A80036;stroke-width:1.0;" x1="555.5" x2="906.5" y1="254.0938" y2="254.0938"/><text fill="#000000" font-family="sans-serif" font-size="13" lengthAdjust="spacing" textLength="103" x="562.5" y="249.0278">getRegistryData</text><path d="M372,232.9609 L372,257.9609 L546,257.9609 L546,242.9609 L536,232.9609 L372,232.9609 " fill="#FBFB77" filter="url(#f10xey8cv2al8z)" style="stroke:#A80036;stroke-width:1.0;"/><path d="M536,232.9609 L536,242.9609 L546,242.9609 L536,232.9609 " fill="#FBFB77" style="stroke:#A80036;stroke-width:1.0;"/><text fill="#000000" font-family="sans-serif" font-size="13" lengthAdjust="spacing" textLength="153" x="378" y="250.0278">Search key: ID Payer SP</text><polygon fill="#A80036" points="566.5,289.2266,556.5,293.2266,566.5,297.2266,562.5,293.2266" style="stroke:#A80036;stroke-width:1.0;"/><line style="stroke:#A80036;stroke-width:1.0;stroke-dasharray:2.0,2.0;" x1="560.5" x2="911.5" y1="293.2266" y2="293.2266"/><text fill="#000000" font-family="sans-serif" font-size="13" lengthAdjust="spacing" textLength="136" x="572.5" y="288.1606">Service Provider data</text><path d="M917,272.0938 L917,297.0938 L1099,297.0938 L1099,282.0938 L1089,272.0938 L917,272.0938 " fill="#FBFB77" filter="url(#f10xey8cv2al8z)" style="stroke:#A80036;stroke-width:1.0;"/><path d="M1089,272.0938 L1089,282.0938 L1099,282.0938 L1089,272.0938 " fill="#FBFB77" style="stroke:#A80036;stroke-width:1.0;"/><text fill="#000000" font-family="sans-serif" font-size="13" lengthAdjust="spacing" textLength="161" x="923" y="289.1606">service_endpoint, oauth2</text><path d="M61,313.2266 L125,313.2266 L125,320.3594 L115,330.3594 L61,330.3594 L61,313.2266 " fill="#EEEEEE" style="stroke:#000000;stroke-width:1.0;"/><rect fill="none" height="356.2656" style="stroke:#000000;stroke-width:2.0;" width="970.5" x="61" y="313.2266"/><text fill="#000000" font-family="sans-serif" font-size="13" font-weight="bold" lengthAdjust="spacing" textLength="19" x="76" y="326.2935">alt</text><text fill="#000000" font-family="sans-serif" font-size="11" font-weight="bold" lengthAdjust="spacing" textLength="155" x="140" y="325.437">[Service Provider is CBI]</text><polygon fill="#A80036" points="324.5,347.4922,314.5,351.4922,324.5,355.4922,320.5,351.4922" style="stroke:#A80036;stroke-width:1.0;"/><line style="stroke:#A80036;stroke-width:1.0;stroke-dasharray:2.0,2.0;" x1="318.5" x2="554.5" y1="351.4922" y2="351.4922"/><text fill="#000000" font-family="sans-serif" font-size="13" lengthAdjust="spacing" textLength="46" x="330.5" y="346.4263">200 OK</text><line style="stroke:#A80036;stroke-width:1.0;" x1="313.5" x2="355.5" y1="380.625" y2="380.625"/><line style="stroke:#A80036;stroke-width:1.0;" x1="355.5" x2="355.5" y1="380.625" y2="393.625"/><line style="stroke:#A80036;stroke-width:1.0;" x1="314.5" x2="355.5" y1="393.625" y2="393.625"/><polygon fill="#A80036" points="324.5,389.625,314.5,393.625,324.5,397.625,320.5,393.625" style="stroke:#A80036;stroke-width:1.0;"/><text fill="#000000" font-family="sans-serif" font-size="13" lengthAdjust="spacing" textLength="223" x="320.5" y="375.5591">add activation data to EPC payload</text><polygon fill="#A80036" points="811,418.7578,821,422.7578,811,426.7578,815,422.7578" style="stroke:#A80036;stroke-width:1.0;"/><line style="stroke:#A80036;stroke-width:1.0;" x1="313.5" x2="817" y1="422.7578" y2="422.7578"/><text fill="#000000" font-family="sans-serif" font-size="13" lengthAdjust="spacing" textLength="179" x="320.5" y="417.6919">save RTP in status CREATED</text><polygon fill="#A80036" points="324.5,447.8906,314.5,451.8906,324.5,455.8906,320.5,451.8906" style="stroke:#A80036;stroke-width:1.0;"/><polygon fill="#A80036" points="989,447.8906,999,451.8906,989,455.8906,993,451.8906" style="stroke:#A80036;stroke-width:1.0;"/><line style="stroke:#A80036;stroke-width:1.0;" x1="318.5" x2="995" y1="451.8906" y2="451.8906"/><text fill="#000000" font-family="sans-serif" font-size="13" lengthAdjust="spacing" textLength="46" x="330.5" y="446.8247">oAuth2</text><polygon fill="#A80036" points="989,482.0234,999,486.0234,989,490.0234,993,486.0234" style="stroke:#A80036;stroke-width:1.0;"/><line style="stroke:#A80036;stroke-width:1.0;" x1="313.5" x2="995" y1="486.0234" y2="486.0234"/><text fill="#000000" font-family="sans-serif" font-size="13" lengthAdjust="spacing" textLength="173" x="320.5" y="480.9575">POST /sepa-request-to-pay</text><path d="M227,464.8906 L227,489.8906 L294,489.8906 L294,474.8906 L284,464.8906 L227,464.8906 " fill="#FBFB77" filter="url(#f10xey8cv2al8z)" style="stroke:#A80036;stroke-width:1.0;"/><path d="M284,464.8906 L284,474.8906 L294,474.8906 L284,464.8906 " fill="#FBFB77" style="stroke:#A80036;stroke-width:1.0;"/><text fill="#000000" font-family="sans-serif" font-size="13" lengthAdjust="spacing" textLength="46" x="233" y="481.9575">oAuth2</text><polygon fill="#A80036" points="324.5,516.1563,314.5,520.1563,324.5,524.1563,320.5,520.1563" style="stroke:#A80036;stroke-width:1.0;"/><line style="stroke:#A80036;stroke-width:1.0;stroke-dasharray:2.0,2.0;" x1="318.5" x2="1000" y1="520.1563" y2="520.1563"/><text fill="#000000" font-family="sans-serif" font-size="13" lengthAdjust="spacing" textLength="87" x="330.5" y="515.0903">202 accepted</text><polygon fill="#A80036" points="811,545.2891,821,549.2891,811,553.2891,815,549.2891" style="stroke:#A80036;stroke-width:1.0;"/><line style="stroke:#A80036;stroke-width:1.0;" x1="313.5" x2="817" y1="549.2891" y2="549.2891"/><text fill="#000000" font-family="sans-serif" font-size="13" lengthAdjust="spacing" textLength="154" x="320.5" y="544.2231">save RTP in status SENT</text><polygon fill="#A80036" points="129.5,574.4219,119.5,578.4219,129.5,582.4219,125.5,578.4219" style="stroke:#A80036;stroke-width:1.0;"/><line style="stroke:#A80036;stroke-width:1.0;stroke-dasharray:2.0,2.0;" x1="123.5" x2="302.5" y1="578.4219" y2="578.4219"/><text fill="#000000" font-family="sans-serif" font-size="13" lengthAdjust="spacing" textLength="77" x="135.5" y="573.356">201 created</text><line style="stroke:#000000;stroke-width:1.0;stroke-dasharray:2.0,2.0;" x1="61" x2="1031.5" y1="587.4219" y2="587.4219"/><text fill="#000000" font-family="sans-serif" font-size="11" font-weight="bold" lengthAdjust="spacing" textLength="180" x="66" y="597.6323">[Service Provider is not CBI]</text><polygon fill="#A80036" points="324.5,618.3594,314.5,622.3594,324.5,626.3594,320.5,622.3594" style="stroke:#A80036;stroke-width:1.0;"/><line style="stroke:#A80036;stroke-width:1.0;stroke-dasharray:2.0,2.0;" x1="318.5" x2="554.5" y1="622.3594" y2="622.3594"/><text fill="#000000" font-family="sans-serif" font-size="13" lengthAdjust="spacing" textLength="89" x="330.5" y="617.2935">404 not found</text><polygon fill="#A80036" points="129.5,652.4922,119.5,656.4922,129.5,660.4922,125.5,656.4922" style="stroke:#A80036;stroke-width:1.0;"/><line style="stroke:#A80036;stroke-width:1.0;stroke-dasharray:2.0,2.0;" x1="123.5" x2="302.5" y1="656.4922" y2="656.4922"/><text fill="#000000" font-family="sans-serif" font-size="13" lengthAdjust="spacing" textLength="77" x="135.5" y="651.4263">201 created</text><path d="M318,635.3594 L318,660.3594 L530,660.3594 L530,645.3594 L520,635.3594 L318,635.3594 " fill="#FBFB77" filter="url(#f10xey8cv2al8z)" style="stroke:#A80036;stroke-width:1.0;"/><path d="M520,635.3594 L520,645.3594 L530,645.3594 L520,635.3594 " fill="#FBFB77" style="stroke:#A80036;stroke-width:1.0;"/><text fill="#000000" font-family="sans-serif" font-size="13" lengthAdjust="spacing" textLength="191" x="324" y="652.4263">Mocked during CBI integration</text><line style="stroke:#000000;stroke-width:1.0;stroke-dasharray:2.0,2.0;" x1="51" x2="1118.5" y1="677.4922" y2="677.4922"/><text fill="#000000" font-family="sans-serif" font-size="11" font-weight="bold" lengthAdjust="spacing" textLength="127" x="56" y="687.7026">[user not activated]</text><polygon fill="#A80036" points="324.5,708.4297,314.5,712.4297,324.5,716.4297,320.5,712.4297" style="stroke:#A80036;stroke-width:1.0;"/><line style="stroke:#A80036;stroke-width:1.0;stroke-dasharray:2.0,2.0;" x1="318.5" x2="554.5" y1="712.4297" y2="712.4297"/><text fill="#000000" font-family="sans-serif" font-size="13" lengthAdjust="spacing" textLength="89" x="330.5" y="707.3638">404 not found</text><polygon fill="#A80036" points="129.5,737.5625,119.5,741.5625,129.5,745.5625,125.5,741.5625" style="stroke:#A80036;stroke-width:1.0;"/><line style="stroke:#A80036;stroke-width:1.0;stroke-dasharray:2.0,2.0;" x1="123.5" x2="302.5" y1="741.5625" y2="741.5625"/><text fill="#000000" font-family="sans-serif" font-size="13" lengthAdjust="spacing" textLength="161" x="135.5" y="736.4966">422 unprocessable entity</text><!--SRC=[XLJ1Zjem4BtxAqPxRhGKSOggIbaI8LIr6oLmhhpn42oGdTeJ9Fw-OoU1q4Ng1OBdpNlFRoRuapRWh4VHIKUwqPqq12zxZmwo5WszWFImpnxBfMnj9o61keIrGwN9Eep8kbm_GZVeGn4gxAmFk6l4RIgX9CaFwJ7GNT75u_WqgzJLhXnu-M5-ZkwYcy3QQayZPrqzIg_VjgEdN8Xz1idtO2-5yhtUmQkZpWjZ2U6C1qf1DWrw3sHFQ8HiI5yary9zXE3FqBsfKjWKt3kMjJN-jOkMDrK0HFif7BHHRzVuOwj4_8Pax8zma4Q19hOstgDqzg8LymXv9kX3-fC5DNBNtDmYJJVEEOkv_HgbQuvmmciAstnmmkxPUtNJ_bSDr8t4wVR8B7v0_4QZEgiDVG4hUpek1r-V-hK73ZaQdC9TBXRm_kCMMJoJIi4zigZAEKF148xZRAMwutdER4DUUBQx4dWvFKdgMQSgibsH3y1laJbFmMQ3kvjQFetNOoSJXtzwth-4RC92yxZkZVdS-pAkGHTI_v-XklYr6q2CscUX-oiq3kF819vvJP_bnHu-PRPQhEBvmVPcYk89wNnGFsrpGWMgTzgqWP2T4ROk9ipoPl8GTocGF-xJS-cvycgvXDvqpeRNGdwS4VZVGDDru5Ruy8hy1G00]--></g></svg>