<?xml version="1.0" encoding="us-ascii" standalone="no"?><svg xmlns="http://www.w3.org/2000/svg" xmlns:xlink="http://www.w3.org/1999/xlink" contentStyleType="text/css" height="618px" preserveAspectRatio="none" style="width:720px;height:618px;background:#FFFFFF;" version="1.1" viewBox="0 0 720 618" width="720px" zoomAndPan="magnify"><defs><filter height="300%" id="fdhlo980woaa" width="300%" x="-1" y="-1"><feGaussianBlur result="blurOut" stdDeviation="2.0"/><feColorMatrix in="blurOut" result="blurOut2" type="matrix" values="0 0 0 0 0 0 0 0 0 0 0 0 0 0 0 0 0 0 .4 0"/><feOffset dx="4.0" dy="4.0" in="blurOut2" result="blurOut3"/><feBlend in="SourceGraphic" in2="blurOut3" mode="normal"/></filter></defs><g><rect fill="#FFFFFF" filter="url(#fdhlo980woaa)" height="431.6641" style="stroke:#A80036;stroke-width:1.0;" width="10" x="252.5" y="98.4297"/><rect fill="none" filter="url(#fdhlo980woaa)" height="322.2656" style="stroke:#000000;stroke-width:2.0;" width="696.5" x="10" y="200.8281"/><line style="stroke:#A80036;stroke-width:1.0;stroke-dasharray:5.0,5.0;" x1="67" x2="67" y1="67.2969" y2="540.0938"/><line style="stroke:#A80036;stroke-width:1.0;stroke-dasharray:5.0,5.0;" x1="257" x2="257" y1="67.2969" y2="540.0938"/><line style="stroke:#A80036;stroke-width:1.0;stroke-dasharray:5.0,5.0;" x1="428.5" x2="428.5" y1="67.2969" y2="540.0938"/><line style="stroke:#A80036;stroke-width:1.0;stroke-dasharray:5.0,5.0;" x1="550.5" x2="550.5" y1="67.2969" y2="540.0938"/><line style="stroke:#A80036;stroke-width:1.0;stroke-dasharray:5.0,5.0;" x1="646.5" x2="646.5" y1="67.2969" y2="540.0938"/><rect fill="#FEFECE" filter="url(#fdhlo980woaa)" height="30.2969" style="stroke:#A80036;stroke-width:1.5;" width="91" x="20" y="32"/><text fill="#000000" font-family="sans-serif" font-size="14" lengthAdjust="spacing" textLength="77" x="27" y="51.9951">User Agent</text><rect fill="#FEFECE" filter="url(#fdhlo980woaa)" height="30.2969" style="stroke:#A80036;stroke-width:1.5;" width="91" x="20" y="539.0938"/><text fill="#000000" font-family="sans-serif" font-size="14" lengthAdjust="spacing" textLength="77" x="27" y="559.0889">User Agent</text><rect fill="#FEFECE" filter="url(#fdhlo980woaa)" height="30.2969" style="stroke:#A80036;stroke-width:1.5;" width="165" x="173" y="32"/><text fill="#000000" font-family="sans-serif" font-size="14" lengthAdjust="spacing" textLength="151" x="180" y="51.9951">Pagopa - SP Creditore</text><rect fill="#FEFECE" filter="url(#fdhlo980woaa)" height="30.2969" style="stroke:#A80036;stroke-width:1.5;" width="165" x="173" y="539.0938"/><text fill="#000000" font-family="sans-serif" font-size="14" lengthAdjust="spacing" textLength="151" x="180" y="559.0889">Pagopa - SP Creditore</text><rect fill="#FEFECE" filter="url(#fdhlo980woaa)" height="30.2969" style="stroke:#A80036;stroke-width:1.5;" width="148" x="352.5" y="32"/><text fill="#000000" font-family="sans-serif" font-size="14" lengthAdjust="spacing" textLength="134" x="359.5" y="51.9951">Gestore Repository</text><rect fill="#FEFECE" filter="url(#fdhlo980woaa)" height="30.2969" style="stroke:#A80036;stroke-width:1.5;" width="148" x="352.5" y="539.0938"/><text fill="#000000" font-family="sans-serif" font-size="14" lengthAdjust="spacing" textLength="134" x="359.5" y="559.0889">Gestore Repository</text><text fill="#000000" font-family="sans-serif" font-size="14" lengthAdjust="spacing" textLength="66" x="514.5" y="63.9951">Database</text><path d="M532.5,15 C532.5,5 550.5,5 550.5,5 C550.5,5 568.5,5 568.5,15 L568.5,41 C568.5,51 550.5,51 550.5,51 C550.5,51 532.5,51 532.5,41 L532.5,15 " fill="#FEFECE" filter="url(#fdhlo980woaa)" style="stroke:#A80036;stroke-width:1.5;"/><path d="M532.5,15 C532.5,25 550.5,25 550.5,25 C550.5,25 568.5,25 568.5,15 " fill="none" style="stroke:#A80036;stroke-width:1.5;"/><text fill="#000000" font-family="sans-serif" font-size="14" lengthAdjust="spacing" textLength="66" x="514.5" y="552.0889">Database</text><path d="M532.5,565.3906 C532.5,555.3906 550.5,555.3906 550.5,555.3906 C550.5,555.3906 568.5,555.3906 568.5,565.3906 L568.5,591.3906 C568.5,601.3906 550.5,601.3906 550.5,601.3906 C550.5,601.3906 532.5,601.3906 532.5,591.3906 L532.5,565.3906 " fill="#FEFECE" filter="url(#fdhlo980woaa)" style="stroke:#A80036;stroke-width:1.5;"/><path d="M532.5,565.3906 C532.5,575.3906 550.5,575.3906 550.5,575.3906 C550.5,575.3906 568.5,575.3906 568.5,565.3906 " fill="none" style="stroke:#A80036;stroke-width:1.5;"/><rect fill="#FEFECE" filter="url(#fdhlo980woaa)" height="30.2969" style="stroke:#A80036;stroke-width:1.5;" width="96" x="596.5" y="32"/><text fill="#000000" font-family="sans-serif" font-size="14" lengthAdjust="spacing" textLength="82" x="603.5" y="51.9951">SP Debitore</text><rect fill="#FEFECE" filter="url(#fdhlo980woaa)" height="30.2969" style="stroke:#A80036;stroke-width:1.5;" width="96" x="596.5" y="539.0938"/><text fill="#000000" font-family="sans-serif" font-size="14" lengthAdjust="spacing" textLength="82" x="603.5" y="559.0889">SP Debitore</text><rect fill="#FFFFFF" filter="url(#fdhlo980woaa)" height="431.6641" style="stroke:#A80036;stroke-width:1.0;" width="10" x="252.5" y="98.4297"/><polygon fill="#A80036" points="240.5,94.4297,250.5,98.4297,240.5,102.4297,244.5,98.4297" style="stroke:#A80036;stroke-width:1.0;"/><line style="stroke:#A80036;stroke-width:1.0;" x1="67.5" x2="246.5" y1="98.4297" y2="98.4297"/><text fill="#000000" font-family="sans-serif" font-size="13" lengthAdjust="spacing" textLength="67" x="74.5" y="93.3638">POST /rtps</text><polygon fill="#A80036" points="416.5,123.5625,426.5,127.5625,416.5,131.5625,420.5,127.5625" style="stroke:#A80036;stroke-width:1.0;"/><line style="stroke:#A80036;stroke-width:1.0;" x1="262.5" x2="422.5" y1="127.5625" y2="127.5625"/><text fill="#000000" font-family="sans-serif" font-size="13" lengthAdjust="spacing" textLength="142" x="269.5" y="122.4966">GET /activations/payer</text><polygon fill="#A80036" points="538.5,152.6953,548.5,156.6953,538.5,160.6953,542.5,156.6953" style="stroke:#A80036;stroke-width:1.0;"/><line style="stroke:#A80036;stroke-width:1.0;" x1="428.5" x2="544.5" y1="156.6953" y2="156.6953"/><text fill="#000000" font-family="sans-serif" font-size="13" lengthAdjust="spacing" textLength="86" x="435.5" y="151.6294">findByPayerId</text><polygon fill="#A80036" points="439.5,181.8281,429.5,185.8281,439.5,189.8281,435.5,185.8281" style="stroke:#A80036;stroke-width:1.0;"/><line style="stroke:#A80036;stroke-width:1.0;stroke-dasharray:2.0,2.0;" x1="433.5" x2="549.5" y1="185.8281" y2="185.8281"/><text fill="#000000" font-family="sans-serif" font-size="13" lengthAdjust="spacing" textLength="36" x="445.5" y="180.7622">payer</text><path d="M10,200.8281 L74,200.8281 L74,207.9609 L64,217.9609 L10,217.9609 L10,200.8281 " fill="#EEEEEE" style="stroke:#000000;stroke-width:1.0;"/><rect fill="none" height="322.2656" style="stroke:#000000;stroke-width:2.0;" width="696.5" x="10" y="200.8281"/><text fill="#000000" font-family="sans-serif" font-size="13" font-weight="bold" lengthAdjust="spacing" textLength="19" x="25" y="213.895">alt</text><text fill="#000000" font-family="sans-serif" font-size="11" font-weight="bold" lengthAdjust="spacing" textLength="102" x="89" y="213.0386">[user activated]</text><polygon fill="#A80036" points="273.5,235.0938,263.5,239.0938,273.5,243.0938,269.5,239.0938" style="stroke:#A80036;stroke-width:1.0;"/><line style="stroke:#A80036;stroke-width:1.0;stroke-dasharray:2.0,2.0;" x1="267.5" x2="427.5" y1="239.0938" y2="239.0938"/><text fill="#000000" font-family="sans-serif" font-size="13" lengthAdjust="spacing" textLength="46" x="279.5" y="234.0278">200 OK</text><line style="stroke:#A80036;stroke-width:1.0;" x1="262.5" x2="304.5" y1="283.3594" y2="283.3594"/><line style="stroke:#A80036;stroke-width:1.0;" x1="304.5" x2="304.5" y1="283.3594" y2="296.3594"/><line style="stroke:#A80036;stroke-width:1.0;" x1="263.5" x2="304.5" y1="296.3594" y2="296.3594"/><polygon fill="#A80036" points="273.5,292.3594,263.5,296.3594,273.5,300.3594,269.5,296.3594" style="stroke:#A80036;stroke-width:1.0;"/><text fill="#000000" font-family="sans-serif" font-size="13" lengthAdjust="spacing" textLength="123" x="269.5" y="263.1606">add activation data</text><text fill="#000000" font-family="sans-serif" font-size="13" lengthAdjust="spacing" textLength="96" x="269.5" y="278.2935">to EPC payload</text><polygon fill="#A80036" points="538.5,321.4922,548.5,325.4922,538.5,329.4922,542.5,325.4922" style="stroke:#A80036;stroke-width:1.0;"/><line style="stroke:#A80036;stroke-width:1.0;" x1="262.5" x2="544.5" y1="325.4922" y2="325.4922"/><text fill="#000000" font-family="sans-serif" font-size="13" lengthAdjust="spacing" textLength="179" x="269.5" y="320.4263">save RTP in status CREATED</text><polygon fill="#A80036" points="634.5,350.625,644.5,354.625,634.5,358.625,638.5,354.625" style="stroke:#A80036;stroke-width:1.0;"/><line style="stroke:#A80036;stroke-width:1.0;" x1="262.5" x2="640.5" y1="354.625" y2="354.625"/><text fill="#000000" font-family="sans-serif" font-size="13" lengthAdjust="spacing" textLength="234" x="269.5" y="349.5591">POST /sepa-request-to-pay-requests</text><polygon fill="#A80036" points="273.5,379.7578,263.5,383.7578,273.5,387.7578,269.5,383.7578" style="stroke:#A80036;stroke-width:1.0;"/><line style="stroke:#A80036;stroke-width:1.0;stroke-dasharray:2.0,2.0;" x1="267.5" x2="645.5" y1="383.7578" y2="383.7578"/><text fill="#000000" font-family="sans-serif" font-size="13" lengthAdjust="spacing" textLength="22" x="279.5" y="378.6919">2xx</text><polygon fill="#A80036" points="538.5,408.8906,548.5,412.8906,538.5,416.8906,542.5,412.8906" style="stroke:#A80036;stroke-width:1.0;"/><line style="stroke:#A80036;stroke-width:1.0;" x1="262.5" x2="544.5" y1="412.8906" y2="412.8906"/><text fill="#000000" font-family="sans-serif" font-size="13" lengthAdjust="spacing" textLength="154" x="269.5" y="407.8247">save RTP in status SENT</text><polygon fill="#A80036" points="78.5,438.0234,68.5,442.0234,78.5,446.0234,74.5,442.0234" style="stroke:#A80036;stroke-width:1.0;"/><line style="stroke:#A80036;stroke-width:1.0;stroke-dasharray:2.0,2.0;" x1="72.5" x2="251.5" y1="442.0234" y2="442.0234"/><text fill="#000000" font-family="sans-serif" font-size="13" lengthAdjust="spacing" textLength="77" x="84.5" y="436.9575">201 created</text><line style="stroke:#000000;stroke-width:1.0;stroke-dasharray:2.0,2.0;" x1="10" x2="706.5" y1="451.0234" y2="451.0234"/><text fill="#000000" font-family="sans-serif" font-size="11" font-weight="bold" lengthAdjust="spacing" textLength="127" x="15" y="461.2339">[user not activated]</text><polygon fill="#A80036" points="273.5,481.9609,263.5,485.9609,273.5,489.9609,269.5,485.9609" style="stroke:#A80036;stroke-width:1.0;"/><line style="stroke:#A80036;stroke-width:1.0;stroke-dasharray:2.0,2.0;" x1="267.5" x2="427.5" y1="485.9609" y2="485.9609"/><text fill="#000000" font-family="sans-serif" font-size="13" lengthAdjust="spacing" textLength="89" x="279.5" y="480.895">404 not found</text><polygon fill="#A80036" points="78.5,511.0938,68.5,515.0938,78.5,519.0938,74.5,515.0938" style="stroke:#A80036;stroke-width:1.0;"/><line style="stroke:#A80036;stroke-width:1.0;stroke-dasharray:2.0,2.0;" x1="72.5" x2="251.5" y1="515.0938" y2="515.0938"/><text fill="#000000" font-family="sans-serif" font-size="13" lengthAdjust="spacing" textLength="161" x="84.5" y="510.0278">422 unprocessable entity</text><!--SRC=[XP9DRy8m38Rl-HKMzmg6E76Or9AgcYQDgX-tNGmnA5gLT4cAwBzV4kYWXscNAeqV-_Lhntv91KPROZqQ9u-oH-LWqLeoa9v9kGMWXJQTXqiywnuXWRg4dI4XdJOKoRhSpT62R0X2HRssWHiZLrHCeCC3Me85lvzYX6Vp0bw2q-5PWJFMff2y1h4jbFkwWQLnlMLuTFA2Zc8NZFble8fg2qNkcNjOQcMNFOvaM545W6TRE4abih4Cjs-2yGoIU-ODPDWv6C9G9WqHawScrgiLxDz_9UCT2W4FIGXsuLCv3Rc7VDbEevWIGWiMBtvCJGb-8zQX6opigZnjSlueooU_bdfC37qFVho9quclD_rQZ_EdrgxNVrJg_AEv8Pvfq-3c1Ow6eaj6dLzHjAwq-yF-PhM9qPCUb9YLsgpNCAZUw2DPYuUEmByfwKP67cI2PYlx0G00]--></g></svg>