<?xml version="1.0" encoding="us-ascii" standalone="no"?><svg xmlns="http://www.w3.org/2000/svg" xmlns:xlink="http://www.w3.org/1999/xlink" contentStyleType="text/css" height="1206.25px" preserveAspectRatio="none" style="width:879px;height:1206px;" version="1.1" viewBox="0 0 879 1206" width="879.1667px" zoomAndPan="magnify"><defs><linearGradient id="gxe1n2tz67vhg0" x1="50%" x2="50%" y1="0%" y2="100%"><stop offset="0%" stop-color="#FFFFFF"/><stop offset="100%" stop-color="#FFFFFF"/></linearGradient><filter height="300%" id="fxe1n2tz67vhg" width="300%" x="-1" y="-1"><feGaussianBlur result="blurOut" stdDeviation="2.0833333333333335"/><feColorMatrix in="blurOut" result="blurOut2" type="matrix" values="0 0 0 0 0 0 0 0 0 0 0 0 0 0 0 0 0 0 .4 0"/><feOffset dx="4.166666666666667" dy="4.166666666666667" in="blurOut2" result="blurOut3"/><feBlend in="SourceGraphic" in2="blurOut3" mode="normal"/></filter><linearGradient id="gxe1n2tz67vhg1" x1="50%" x2="50%" y1="0%" y2="100%"><stop offset="0%" stop-color="#4DABF5"/><stop offset="100%" stop-color="#2196F3"/></linearGradient><linearGradient id="gxe1n2tz67vhg2" x1="50%" x2="50%" y1="0%" y2="100%"><stop offset="0%" stop-color="#B052C0"/><stop offset="100%" stop-color="#9C27B0"/></linearGradient></defs><g><rect fill="url(#gxe1n2tz67vhg0)" height="57.5846" id="_title" rx="4.1667" ry="4.1667" style="stroke:#CCCCCC;stroke-width:1.0416666666666667;" width="207.2917" x="336.9792" y="20.8333"/><text fill="#2196F3" font-family="Verdana" font-size="20.8333" font-weight="bold" lengthAdjust="spacing" textLength="173.9583" x="353.6458" y="56.838">RTP Send Flow</text><rect fill="#FFFFFF" filter="url(#fxe1n2tz67vhg)" height="933.7565" style="stroke:#CCCCCC;stroke-width:1.0416666666666667;" width="10.4167" x="341.1458" y="196.0612"/><rect fill="#FFFFFF" filter="url(#fxe1n2tz67vhg)" height="109.3099" style="stroke:#CCCCCC;stroke-width:1.0416666666666667;" width="10.4167" x="595.3125" y="452.1159"/><rect fill="#FFFFFF" filter="url(#fxe1n2tz67vhg)" height="109.3099" style="stroke:#CCCCCC;stroke-width:1.0416666666666667;" width="10.4167" x="595.3125" y="648.8607"/><rect fill="#FFFFFF" filter="url(#fxe1n2tz67vhg)" height="109.3099" style="stroke:#CCCCCC;stroke-width:1.0416666666666667;" width="10.4167" x="595.3125" y="808.138"/><rect fill="#FFFFFF" filter="url(#fxe1n2tz67vhg)" height="109.3099" style="stroke:#CCCCCC;stroke-width:1.0416666666666667;" width="10.4167" x="595.3125" y="1004.8828"/><rect fill="url(#gxe1n2tz67vhg0)" filter="url(#fxe1n2tz67vhg)" height="769.2708" rx="4.1667" ry="4.1667" style="stroke:#2196F3;stroke-width:1.0416666666666667;" width="623.9583" x="237.5" y="353.2552"/><path d="M237.5,569.7591 L861.4583,569.7591 L861.4583,921.6146 A4.1667,4.1667 0 0 1 857.2917,925.7813 L241.6667,925.7813 A4.1667,4.1667 0 0 1 237.5,921.6146 L237.5,569.7591 " fill="url(#gxe1n2tz67vhg0)" style="stroke:none;stroke-width:1.0416666666666667;"/><path d="M237.5,925.7813 L861.4583,925.7813 L861.4583,1118.3594 A4.1667,4.1667 0 0 1 857.2917,1122.526 L241.6667,1122.526 A4.1667,4.1667 0 0 1 237.5,1118.3594 L237.5,925.7813 " fill="url(#gxe1n2tz67vhg0)" style="stroke:none;stroke-width:1.0416666666666667;"/><line style="stroke:#CCCCCC;stroke-width:1.0416666666666667;stroke-dasharray:5.0,5.0;" x1="126.0417" x2="126.0417" y1="144.0104" y2="1140.2344"/><line style="stroke:#CCCCCC;stroke-width:1.0416666666666667;stroke-dasharray:5.0,5.0;" x1="345.8333" x2="345.8333" y1="144.0104" y2="1140.2344"/><line style="stroke:#CCCCCC;stroke-width:1.0416666666666667;stroke-dasharray:5.0,5.0;" x1="600.5208" x2="600.5208" y1="144.0104" y2="1140.2344"/><rect fill="url(#gxe1n2tz67vhg1)" filter="url(#fxe1n2tz67vhg)" height="49.9674" rx="4.1667" ry="4.1667" style="stroke:#2196F3;stroke-width:1.0416666666666667;" width="135.4167" x="57.2917" y="89.8763"/><text fill="#FFFFFF" font-family="Verdana" font-size="12.5" lengthAdjust="spacing" textLength="100" x="75" y="119.1874">RTP-CONSUMER</text><rect fill="url(#gxe1n2tz67vhg1)" filter="url(#fxe1n2tz67vhg)" height="49.9674" rx="4.1667" ry="4.1667" style="stroke:#2196F3;stroke-width:1.0416666666666667;" width="135.4167" x="57.2917" y="1139.1927"/><text fill="#FFFFFF" font-family="Verdana" font-size="12.5" lengthAdjust="spacing" textLength="100" x="75" y="1168.5038">RTP-CONSUMER</text><rect fill="url(#gxe1n2tz67vhg1)" filter="url(#fxe1n2tz67vhg)" height="49.9674" rx="4.1667" ry="4.1667" style="stroke:#2196F3;stroke-width:1.0416666666666667;" width="110.4167" x="289.5833" y="89.8763"/><text fill="#FFFFFF" font-family="Verdana" font-size="12.5" lengthAdjust="spacing" textLength="75" x="307.2917" y="119.1874">MS-SENDER</text><rect fill="url(#gxe1n2tz67vhg1)" filter="url(#fxe1n2tz67vhg)" height="49.9674" rx="4.1667" ry="4.1667" style="stroke:#2196F3;stroke-width:1.0416666666666667;" width="110.4167" x="289.5833" y="1139.1927"/><text fill="#FFFFFF" font-family="Verdana" font-size="12.5" lengthAdjust="spacing" textLength="75" x="307.2917" y="1168.5038">MS-SENDER</text><rect fill="url(#gxe1n2tz67vhg1)" filter="url(#fxe1n2tz67vhg)" height="49.9674" rx="4.1667" ry="4.1667" style="stroke:#2196F3;stroke-width:1.0416666666666667;" width="61.4583" x="568.2292" y="89.8763"/><text fill="#FFFFFF" font-family="Verdana" font-size="12.5" lengthAdjust="spacing" textLength="26.0417" x="585.9375" y="119.1874">SPD</text><rect fill="url(#gxe1n2tz67vhg1)" filter="url(#fxe1n2tz67vhg)" height="49.9674" rx="4.1667" ry="4.1667" style="stroke:#2196F3;stroke-width:1.0416666666666667;" width="61.4583" x="568.2292" y="1139.1927"/><text fill="#FFFFFF" font-family="Verdana" font-size="12.5" lengthAdjust="spacing" textLength="26.0417" x="585.9375" y="1168.5038">SPD</text><rect fill="#FFFFFF" filter="url(#fxe1n2tz67vhg)" height="933.7565" style="stroke:#CCCCCC;stroke-width:1.0416666666666667;" width="10.4167" x="341.1458" y="196.0612"/><rect fill="#FFFFFF" filter="url(#fxe1n2tz67vhg)" height="109.3099" style="stroke:#CCCCCC;stroke-width:1.0416666666666667;" width="10.4167" x="595.3125" y="452.1159"/><rect fill="#FFFFFF" filter="url(#fxe1n2tz67vhg)" height="109.3099" style="stroke:#CCCCCC;stroke-width:1.0416666666666667;" width="10.4167" x="595.3125" y="648.8607"/><rect fill="#FFFFFF" filter="url(#fxe1n2tz67vhg)" height="109.3099" style="stroke:#CCCCCC;stroke-width:1.0416666666666667;" width="10.4167" x="595.3125" y="808.138"/><rect fill="#FFFFFF" filter="url(#fxe1n2tz67vhg)" height="109.3099" style="stroke:#CCCCCC;stroke-width:1.0416666666666667;" width="10.4167" x="595.3125" y="1004.8828"/><polygon fill="#2196F3" points="328.6458,191.8945,339.0625,196.0612,328.6458,200.2279,332.8125,196.0612" style="stroke:#2196F3;stroke-width:1.0416666666666667;"/><line style="stroke:#2196F3;stroke-width:3.125;" x1="126.5625" x2="334.8958" y1="196.0612" y2="196.0612"/><text fill="#222222" font-family="Verdana" font-size="12.5" font-weight="bold" lengthAdjust="spacing" textLength="8.3333" x="144.2708" y="180.6132">1</text><text fill="#222222" font-family="Verdana" font-size="12.5" lengthAdjust="spacing" textLength="130.2083" x="177.6042" y="180.6132">POST /gpd/message</text><line style="stroke:#2196F3;stroke-width:3.125;" x1="351.5625" x2="395.3125" y1="246.0286" y2="246.0286"/><line style="stroke:#2196F3;stroke-width:3.125;" x1="395.3125" x2="395.3125" y1="246.0286" y2="259.5703"/><line style="stroke:#2196F3;stroke-width:3.125;" x1="352.6042" x2="395.3125" y1="259.5703" y2="259.5703"/><polygon fill="#2196F3" points="363.0208,255.4036,352.6042,259.5703,363.0208,263.737,358.8542,259.5703" style="stroke:#2196F3;stroke-width:1.0416666666666667;"/><text fill="#222222" font-family="Verdana" font-size="12.5" font-weight="bold" lengthAdjust="spacing" textLength="8.3333" x="369.2708" y="230.5806">2</text><text fill="#222222" font-family="Verdana" font-size="12.5" lengthAdjust="spacing" textLength="106.25" x="402.6042" y="230.5806">validate payload</text><line style="stroke:#2196F3;stroke-width:3.125;" x1="351.5625" x2="395.3125" y1="324.0885" y2="324.0885"/><line style="stroke:#2196F3;stroke-width:3.125;" x1="395.3125" x2="395.3125" y1="324.0885" y2="337.6302"/><line style="stroke:#2196F3;stroke-width:3.125;" x1="352.6042" x2="395.3125" y1="337.6302" y2="337.6302"/><polygon fill="#2196F3" points="363.0208,333.4635,352.6042,337.6302,363.0208,341.7969,358.8542,337.6302" style="stroke:#2196F3;stroke-width:1.0416666666666667;"/><text fill="#222222" font-family="Verdana" font-size="12.5" font-weight="bold" lengthAdjust="spacing" textLength="8.3333" x="369.2708" y="301.3652">3</text><text fill="#222222" font-family="Verdana" font-size="12.5" lengthAdjust="spacing" textLength="166.6667" x="402.6042" y="294.0898">determine operation type</text><text fill="#222222" font-family="Verdana" font-size="12.5" lengthAdjust="spacing" textLength="175" x="402.6042" y="308.6405">(CREATE, UPDATE, DELETE)</text><path d="M241.6667,353.2552 L325,353.2552 L325,380.306 L314.5833,390.7227 L237.5,390.7227 L237.5,357.4219 A4.1667,4.1667 0 0 1 241.6667,353.2552 " fill="#FFFFFF" style="stroke:#666666;stroke-width:1.0416666666666667;"/><rect fill="none" height="769.2708" rx="4.1667" ry="4.1667" style="stroke:#2196F3;stroke-width:1.0416666666666667;" width="623.9583" x="237.5" y="353.2552"/><text fill="#9C27B0" font-family="Verdana" font-size="12.5" font-weight="bold" lengthAdjust="spacing" textLength="19.7917" x="263.5417" y="376.3163">alt</text><text fill="#222222" font-family="Verdana" font-size="12.5" font-weight="bold" lengthAdjust="spacing" textLength="63.5417" x="351.0417" y="377.358">[CREATE]</text><polygon fill="#2196F3" points="582.8125,447.9492,593.2292,452.1159,582.8125,456.2826,586.9792,452.1159" style="stroke:#2196F3;stroke-width:1.0416666666666667;"/><line style="stroke:#2196F3;stroke-width:3.125;" x1="351.5625" x2="589.0625" y1="452.1159" y2="452.1159"/><text fill="#222222" font-family="Verdana" font-size="12.5" font-weight="bold" lengthAdjust="spacing" textLength="8.3333" x="369.2708" y="436.6679">4</text><text fill="#222222" font-family="Verdana" font-size="12.5" lengthAdjust="spacing" textLength="63.5417" x="402.6042" y="436.6679">SEND RTP</text><path d="M610.4167,469.8242 L610.4167,506.2826 A4.1667,4.1667 0 0 0 614.5833,510.4492 L843.75,510.4492 A4.1667,4.1667 0 0 0 847.9167,506.2826 L847.9167,476.0742 L837.5,465.6576 L614.5833,465.6576 A4.1667,4.1667 0 0 0 610.4167,469.8242 " fill="url(#gxe1n2tz67vhg2)" filter="url(#fxe1n2tz67vhg)" style="stroke:#9C27B0;stroke-width:1.0416666666666667;"/><path d="M837.5,465.6576 L837.5,473.9909 A2.0833,2.0833 0 0 0 839.5833,476.0742 L847.9167,476.0742 L837.5,465.6576 " fill="url(#gxe1n2tz67vhg2)" style="stroke:#9C27B0;stroke-width:1.0416666666666667;"/><text fill="#FFFFFF" font-family="Verdana" font-size="12.5" lengthAdjust="spacing" textLength="194.7917" x="627.0833" y="492.8853">See diagram: RTP Create Flow</text><polygon fill="#2196F3" points="363.0208,557.2591,352.6042,561.4258,363.0208,565.5924,358.8542,561.4258" style="stroke:#2196F3;stroke-width:1.0416666666666667;"/><line style="stroke:#2196F3;stroke-width:3.125;stroke-dasharray:2.0,2.0;" x1="356.7708" x2="599.4792" y1="561.4258" y2="561.4258"/><text fill="#222222" font-family="Verdana" font-size="12.5" font-weight="bold" lengthAdjust="spacing" textLength="8.3333" x="379.6875" y="545.9778">5</text><text fill="#222222" font-family="Verdana" font-size="12.5" lengthAdjust="spacing" textLength="16.6667" x="413.0208" y="545.9778">OK</text><line style="stroke:#2196F3;stroke-width:1.0416666666666667;stroke-dasharray:2.0,2.0;" x1="237.5" x2="861.4583" y1="570.8008" y2="570.8008"/><text fill="#222222" font-family="Verdana" font-size="12.5" font-weight="bold" lengthAdjust="spacing" textLength="66.6667" x="253.125" y="592.8202">[UPDATE]</text><polygon fill="#2196F3" points="582.8125,644.694,593.2292,648.8607,582.8125,653.0273,586.9792,648.8607" style="stroke:#2196F3;stroke-width:1.0416666666666667;"/><line style="stroke:#2196F3;stroke-width:3.125;" x1="351.5625" x2="589.0625" y1="648.8607" y2="648.8607"/><text fill="#222222" font-family="Verdana" font-size="12.5" font-weight="bold" lengthAdjust="spacing" textLength="8.3333" x="369.2708" y="633.4127">6</text><text fill="#222222" font-family="Verdana" font-size="12.5" lengthAdjust="spacing" textLength="115.625" x="402.6042" y="633.4127">CANCEL RTP (RFC)</text><path d="M610.4167,666.569 L610.4167,703.0273 A4.1667,4.1667 0 0 0 614.5833,707.194 L823.9583,707.194 A4.1667,4.1667 0 0 0 828.125,703.0273 L828.125,672.819 L817.7083,662.4023 L614.5833,662.4023 A4.1667,4.1667 0 0 0 610.4167,666.569 " fill="url(#gxe1n2tz67vhg2)" filter="url(#fxe1n2tz67vhg)" style="stroke:#9C27B0;stroke-width:1.0416666666666667;"/><path d="M817.7083,662.4023 L817.7083,670.7357 A2.0833,2.0833 0 0 0 819.7917,672.819 L828.125,672.819 L817.7083,662.4023 " fill="url(#gxe1n2tz67vhg2)" style="stroke:#9C27B0;stroke-width:1.0416666666666667;"/><text fill="#FFFFFF" font-family="Verdana" font-size="12.5" lengthAdjust="spacing" textLength="175" x="627.0833" y="689.6301">See diagram: RTP RFC Flow</text><polygon fill="#2196F3" points="363.0208,754.0039,352.6042,758.1706,363.0208,762.3372,358.8542,758.1706" style="stroke:#2196F3;stroke-width:1.0416666666666667;"/><line style="stroke:#2196F3;stroke-width:3.125;stroke-dasharray:2.0,2.0;" x1="356.7708" x2="599.4792" y1="758.1706" y2="758.1706"/><text fill="#222222" font-family="Verdana" font-size="12.5" font-weight="bold" lengthAdjust="spacing" textLength="8.3333" x="379.6875" y="742.7226">7</text><text fill="#222222" font-family="Verdana" font-size="12.5" lengthAdjust="spacing" textLength="16.6667" x="413.0208" y="742.7226">OK</text><polygon fill="#2196F3" points="582.8125,803.9714,593.2292,808.138,582.8125,812.3047,586.9792,808.138" style="stroke:#2196F3;stroke-width:1.0416666666666667;"/><line style="stroke:#2196F3;stroke-width:3.125;" x1="351.5625" x2="589.0625" y1="808.138" y2="808.138"/><text fill="#222222" font-family="Verdana" font-size="12.5" font-weight="bold" lengthAdjust="spacing" textLength="8.3333" x="369.2708" y="792.69">8</text><text fill="#222222" font-family="Verdana" font-size="12.5" lengthAdjust="spacing" textLength="63.5417" x="402.6042" y="792.69">SEND RTP</text><path d="M610.4167,825.8464 L610.4167,862.3047 A4.1667,4.1667 0 0 0 614.5833,866.4714 L843.75,866.4714 A4.1667,4.1667 0 0 0 847.9167,862.3047 L847.9167,832.0964 L837.5,821.6797 L614.5833,821.6797 A4.1667,4.1667 0 0 0 610.4167,825.8464 " fill="url(#gxe1n2tz67vhg2)" filter="url(#fxe1n2tz67vhg)" style="stroke:#9C27B0;stroke-width:1.0416666666666667;"/><path d="M837.5,821.6797 L837.5,830.013 A2.0833,2.0833 0 0 0 839.5833,832.0964 L847.9167,832.0964 L837.5,821.6797 " fill="url(#gxe1n2tz67vhg2)" style="stroke:#9C27B0;stroke-width:1.0416666666666667;"/><text fill="#FFFFFF" font-family="Verdana" font-size="12.5" lengthAdjust="spacing" textLength="194.7917" x="627.0833" y="848.9075">See diagram: RTP Create Flow</text><polygon fill="#2196F3" points="363.0208,913.2813,352.6042,917.4479,363.0208,921.6146,358.8542,917.4479" style="stroke:#2196F3;stroke-width:1.0416666666666667;"/><line style="stroke:#2196F3;stroke-width:3.125;stroke-dasharray:2.0,2.0;" x1="356.7708" x2="599.4792" y1="917.4479" y2="917.4479"/><text fill="#222222" font-family="Verdana" font-size="12.5" font-weight="bold" lengthAdjust="spacing" textLength="8.3333" x="379.6875" y="901.9999">9</text><text fill="#222222" font-family="Verdana" font-size="12.5" lengthAdjust="spacing" textLength="16.6667" x="413.0208" y="901.9999">OK</text><line style="stroke:#2196F3;stroke-width:1.0416666666666667;stroke-dasharray:2.0,2.0;" x1="237.5" x2="861.4583" y1="926.8229" y2="926.8229"/><text fill="#222222" font-family="Verdana" font-size="12.5" font-weight="bold" lengthAdjust="spacing" textLength="62.5" x="253.125" y="948.8424">[DELETE]</text><polygon fill="#2196F3" points="582.8125,1000.7161,593.2292,1004.8828,582.8125,1009.0495,586.9792,1004.8828" style="stroke:#2196F3;stroke-width:1.0416666666666667;"/><line style="stroke:#2196F3;stroke-width:3.125;" x1="351.5625" x2="589.0625" y1="1004.8828" y2="1004.8828"/><text fill="#222222" font-family="Verdana" font-size="12.5" font-weight="bold" lengthAdjust="spacing" textLength="16.6667" x="369.2708" y="989.4348">10</text><text fill="#222222" font-family="Verdana" font-size="12.5" lengthAdjust="spacing" textLength="115.625" x="410.9375" y="989.4348">CANCEL RTP (RFC)</text><path d="M610.4167,1022.5911 L610.4167,1059.0495 A4.1667,4.1667 0 0 0 614.5833,1063.2161 L823.9583,1063.2161 A4.1667,4.1667 0 0 0 828.125,1059.0495 L828.125,1028.8411 L817.7083,1018.4245 L614.5833,1018.4245 A4.1667,4.1667 0 0 0 610.4167,1022.5911 " fill="url(#gxe1n2tz67vhg2)" filter="url(#fxe1n2tz67vhg)" style="stroke:#9C27B0;stroke-width:1.0416666666666667;"/><path d="M817.7083,1018.4245 L817.7083,1026.7578 A2.0833,2.0833 0 0 0 819.7917,1028.8411 L828.125,1028.8411 L817.7083,1018.4245 " fill="url(#gxe1n2tz67vhg2)" style="stroke:#9C27B0;stroke-width:1.0416666666666667;"/><text fill="#FFFFFF" font-family="Verdana" font-size="12.5" lengthAdjust="spacing" textLength="175" x="627.0833" y="1045.6523">See diagram: RTP RFC Flow</text><polygon fill="#2196F3" points="363.0208,1110.026,352.6042,1114.1927,363.0208,1118.3594,358.8542,1114.1927" style="stroke:#2196F3;stroke-width:1.0416666666666667;"/><line style="stroke:#2196F3;stroke-width:3.125;stroke-dasharray:2.0,2.0;" x1="356.7708" x2="599.4792" y1="1114.1927" y2="1114.1927"/><text fill="#222222" font-family="Verdana" font-size="12.5" font-weight="bold" lengthAdjust="spacing" textLength="16.6667" x="379.6875" y="1098.7447">11</text><text fill="#222222" font-family="Verdana" font-size="12.5" lengthAdjust="spacing" textLength="16.6667" x="421.3542" y="1098.7447">OK</text><!--SRC=[pLEnRi8m4Dtz5LSca1gnCrH2iLaAmKh2rkMAhy5IOaUEeUBlwpX13H93fIvuiS_ltTtpi_tYJzGGDEZ9QMJCQryJvAM4Weo2JMs_6MlHUNtKBHeFiu0bwJuh3ZkHpm0xk0Ntj5sH52BZ8sTOtZCAoGTCSiRmxAqvDv_a6BiLXEHjJ5o1t1SbBAjMBHlgEgo8uT7hIv1zgys6UPfqmLghdjBYjRQe7d4KXPCtsX3ObXnwRGtuQqiVPfxcObsALpX87cSkjg8KYo2szZ203CAO59Ly5SFUmOWP6zexNPqysAyH9mAbiNBOhABJgQDUPFIwp_azMN0cDf0Saedc_NlSLdJ7P5HtD8fzf2jTPwdOnexpV9Ck_gmlaFyjxkby6YxpwNmAduwnwTxmk7y0]--></g></svg>