<?xml version="1.0" encoding="us-ascii" standalone="no"?><svg xmlns="http://www.w3.org/2000/svg" xmlns:xlink="http://www.w3.org/1999/xlink" contentStyleType="text/css" height="937.5px" preserveAspectRatio="none" style="width:629px;height:937px;" version="1.1" viewBox="0 0 629 937" width="629.1667px" zoomAndPan="magnify"><defs><linearGradient id="g13zf2xeybjldn0" x1="50%" x2="50%" y1="0%" y2="100%"><stop offset="0%" stop-color="#FFFFFF"/><stop offset="100%" stop-color="#FFFFFF"/></linearGradient><filter height="300%" id="f13zf2xeybjldn" width="300%" x="-1" y="-1"><feGaussianBlur result="blurOut" stdDeviation="2.0833333333333335"/><feColorMatrix in="blurOut" result="blurOut2" type="matrix" values="0 0 0 0 0 0 0 0 0 0 0 0 0 0 0 0 0 0 .4 0"/><feOffset dx="4.166666666666667" dy="4.166666666666667" in="blurOut2" result="blurOut3"/><feBlend in="SourceGraphic" in2="blurOut3" mode="normal"/></filter><linearGradient id="g13zf2xeybjldn1" x1="50%" x2="50%" y1="0%" y2="100%"><stop offset="0%" stop-color="#4DABF5"/><stop offset="100%" stop-color="#2196F3"/></linearGradient><linearGradient id="g13zf2xeybjldn2" x1="50%" x2="50%" y1="0%" y2="100%"><stop offset="0%" stop-color="#B052C0"/><stop offset="100%" stop-color="#9C27B0"/></linearGradient></defs><g><rect fill="url(#g13zf2xeybjldn0)" height="57.5846" id="_title" rx="4.1667" ry="4.1667" style="stroke:#CCCCCC;stroke-width:1.0416666666666667;" width="207.2917" x="211.9792" y="20.8333"/><text fill="#2196F3" font-family="Verdana" font-size="20.8333" font-weight="bold" lengthAdjust="spacing" textLength="173.9583" x="228.6458" y="56.838">RTP Send Flow</text><rect fill="#FFFFFF" filter="url(#f13zf2xeybjldn)" height="665.2018" style="stroke:#CCCCCC;stroke-width:1.0416666666666667;" width="10.4167" x="341.1458" y="196.0612"/><rect fill="url(#g13zf2xeybjldn0)" filter="url(#f13zf2xeybjldn)" height="500.7161" rx="4.1667" ry="4.1667" style="stroke:#2196F3;stroke-width:1.0416666666666667;" width="373.9583" x="237.5" y="353.2552"/><path d="M237.5,533.3333 L611.4583,533.3333 L611.4583,689.4857 A4.1667,4.1667 0 0 1 607.2917,693.6523 L241.6667,693.6523 A4.1667,4.1667 0 0 1 237.5,689.4857 L237.5,533.3333 " fill="url(#g13zf2xeybjldn0)" style="stroke:none;stroke-width:1.0416666666666667;"/><path d="M237.5,693.6523 L611.4583,693.6523 L611.4583,849.8047 A4.1667,4.1667 0 0 1 607.2917,853.9714 L241.6667,853.9714 A4.1667,4.1667 0 0 1 237.5,849.8047 L237.5,693.6523 " fill="url(#g13zf2xeybjldn0)" style="stroke:none;stroke-width:1.0416666666666667;"/><line style="stroke:#CCCCCC;stroke-width:1.0416666666666667;stroke-dasharray:5.0,5.0;" x1="126.0417" x2="126.0417" y1="144.0104" y2="871.6797"/><line style="stroke:#CCCCCC;stroke-width:1.0416666666666667;stroke-dasharray:5.0,5.0;" x1="345.8333" x2="345.8333" y1="144.0104" y2="871.6797"/><rect fill="url(#g13zf2xeybjldn1)" filter="url(#f13zf2xeybjldn)" height="49.9674" rx="4.1667" ry="4.1667" style="stroke:#2196F3;stroke-width:1.0416666666666667;" width="135.4167" x="57.2917" y="89.8763"/><text fill="#FFFFFF" font-family="Verdana" font-size="12.5" lengthAdjust="spacing" textLength="100" x="75" y="119.1874">RTP-CONSUMER</text><rect fill="url(#g13zf2xeybjldn1)" filter="url(#f13zf2xeybjldn)" height="49.9674" rx="4.1667" ry="4.1667" style="stroke:#2196F3;stroke-width:1.0416666666666667;" width="135.4167" x="57.2917" y="870.638"/><text fill="#FFFFFF" font-family="Verdana" font-size="12.5" lengthAdjust="spacing" textLength="100" x="75" y="899.9491">RTP-CONSUMER</text><rect fill="url(#g13zf2xeybjldn1)" filter="url(#f13zf2xeybjldn)" height="49.9674" rx="4.1667" ry="4.1667" style="stroke:#2196F3;stroke-width:1.0416666666666667;" width="110.4167" x="289.5833" y="89.8763"/><text fill="#FFFFFF" font-family="Verdana" font-size="12.5" lengthAdjust="spacing" textLength="75" x="307.2917" y="119.1874">MS-SENDER</text><rect fill="url(#g13zf2xeybjldn1)" filter="url(#f13zf2xeybjldn)" height="49.9674" rx="4.1667" ry="4.1667" style="stroke:#2196F3;stroke-width:1.0416666666666667;" width="110.4167" x="289.5833" y="870.638"/><text fill="#FFFFFF" font-family="Verdana" font-size="12.5" lengthAdjust="spacing" textLength="75" x="307.2917" y="899.9491">MS-SENDER</text><rect fill="#FFFFFF" filter="url(#f13zf2xeybjldn)" height="665.2018" style="stroke:#CCCCCC;stroke-width:1.0416666666666667;" width="10.4167" x="341.1458" y="196.0612"/><polygon fill="#2196F3" points="328.6458,191.8945,339.0625,196.0612,328.6458,200.2279,332.8125,196.0612" style="stroke:#2196F3;stroke-width:1.0416666666666667;"/><line style="stroke:#2196F3;stroke-width:3.125;" x1="126.5625" x2="334.8958" y1="196.0612" y2="196.0612"/><text fill="#222222" font-family="Verdana" font-size="12.5" font-weight="bold" lengthAdjust="spacing" textLength="8.3333" x="144.2708" y="180.6132">1</text><text fill="#222222" font-family="Verdana" font-size="12.5" lengthAdjust="spacing" textLength="130.2083" x="177.6042" y="180.6132">POST /gpd/message</text><line style="stroke:#2196F3;stroke-width:3.125;" x1="351.5625" x2="395.3125" y1="246.0286" y2="246.0286"/><line style="stroke:#2196F3;stroke-width:3.125;" x1="395.3125" x2="395.3125" y1="246.0286" y2="259.5703"/><line style="stroke:#2196F3;stroke-width:3.125;" x1="352.6042" x2="395.3125" y1="259.5703" y2="259.5703"/><polygon fill="#2196F3" points="363.0208,255.4036,352.6042,259.5703,363.0208,263.737,358.8542,259.5703" style="stroke:#2196F3;stroke-width:1.0416666666666667;"/><text fill="#222222" font-family="Verdana" font-size="12.5" font-weight="bold" lengthAdjust="spacing" textLength="8.3333" x="369.2708" y="230.5806">2</text><text fill="#222222" font-family="Verdana" font-size="12.5" lengthAdjust="spacing" textLength="106.25" x="402.6042" y="230.5806">validate payload</text><line style="stroke:#2196F3;stroke-width:3.125;" x1="351.5625" x2="395.3125" y1="324.0885" y2="324.0885"/><line style="stroke:#2196F3;stroke-width:3.125;" x1="395.3125" x2="395.3125" y1="324.0885" y2="337.6302"/><line style="stroke:#2196F3;stroke-width:3.125;" x1="352.6042" x2="395.3125" y1="337.6302" y2="337.6302"/><polygon fill="#2196F3" points="363.0208,333.4635,352.6042,337.6302,363.0208,341.7969,358.8542,337.6302" style="stroke:#2196F3;stroke-width:1.0416666666666667;"/><text fill="#222222" font-family="Verdana" font-size="12.5" font-weight="bold" lengthAdjust="spacing" textLength="8.3333" x="369.2708" y="301.3652">3</text><text fill="#222222" font-family="Verdana" font-size="12.5" lengthAdjust="spacing" textLength="166.6667" x="402.6042" y="294.0898">determine operation type</text><text fill="#222222" font-family="Verdana" font-size="12.5" lengthAdjust="spacing" textLength="175" x="402.6042" y="308.6405">(CREATE, UPDATE, DELETE)</text><path d="M241.6667,353.2552 L325,353.2552 L325,380.306 L314.5833,390.7227 L237.5,390.7227 L237.5,357.4219 A4.1667,4.1667 0 0 1 241.6667,353.2552 " fill="#FFFFFF" style="stroke:#666666;stroke-width:1.0416666666666667;"/><rect fill="none" height="500.7161" rx="4.1667" ry="4.1667" style="stroke:#2196F3;stroke-width:1.0416666666666667;" width="373.9583" x="237.5" y="353.2552"/><text fill="#9C27B0" font-family="Verdana" font-size="12.5" font-weight="bold" lengthAdjust="spacing" textLength="19.7917" x="263.5417" y="376.3163">alt</text><text fill="#222222" font-family="Verdana" font-size="12.5" font-weight="bold" lengthAdjust="spacing" textLength="63.5417" x="351.0417" y="377.358">[CREATE]</text><line style="stroke:#2196F3;stroke-width:3.125;" x1="351.5625" x2="395.3125" y1="452.1159" y2="452.1159"/><line style="stroke:#2196F3;stroke-width:3.125;" x1="395.3125" x2="395.3125" y1="452.1159" y2="465.6576"/><line style="stroke:#2196F3;stroke-width:3.125;" x1="352.6042" x2="395.3125" y1="465.6576" y2="465.6576"/><polygon fill="#2196F3" points="363.0208,461.4909,352.6042,465.6576,363.0208,469.8242,358.8542,465.6576" style="stroke:#2196F3;stroke-width:1.0416666666666667;"/><text fill="#222222" font-family="Verdana" font-size="12.5" font-weight="bold" lengthAdjust="spacing" textLength="8.3333" x="369.2708" y="436.6679">4</text><text fill="#222222" font-family="Verdana" font-size="12.5" lengthAdjust="spacing" textLength="77.0833" x="402.6042" y="436.6679">CREATE RTP</text><path d="M356.25,483.3659 L356.25,519.8242 A4.1667,4.1667 0 0 0 360.4167,523.9909 L589.5833,523.9909 A4.1667,4.1667 0 0 0 593.75,519.8242 L593.75,489.6159 L583.3333,479.1992 L360.4167,479.1992 A4.1667,4.1667 0 0 0 356.25,483.3659 " fill="url(#g13zf2xeybjldn2)" filter="url(#f13zf2xeybjldn)" style="stroke:#9C27B0;stroke-width:1.0416666666666667;"/><path d="M583.3333,479.1992 L583.3333,487.5326 A2.0833,2.0833 0 0 0 585.4167,489.6159 L593.75,489.6159 L583.3333,479.1992 " fill="url(#g13zf2xeybjldn2)" style="stroke:#9C27B0;stroke-width:1.0416666666666667;"/><text fill="#FFFFFF" font-family="Verdana" font-size="12.5" lengthAdjust="spacing" textLength="194.7917" x="372.9167" y="506.427">See diagram: RTP Create Flow</text><line style="stroke:#2196F3;stroke-width:1.0416666666666667;stroke-dasharray:2.0,2.0;" x1="237.5" x2="611.4583" y1="534.375" y2="534.375"/><text fill="#222222" font-family="Verdana" font-size="12.5" font-weight="bold" lengthAdjust="spacing" textLength="66.6667" x="253.125" y="556.3944">[UPDATE]</text><line style="stroke:#2196F3;stroke-width:3.125;" x1="351.5625" x2="395.3125" y1="612.4349" y2="612.4349"/><line style="stroke:#2196F3;stroke-width:3.125;" x1="395.3125" x2="395.3125" y1="612.4349" y2="625.9766"/><line style="stroke:#2196F3;stroke-width:3.125;" x1="352.6042" x2="395.3125" y1="625.9766" y2="625.9766"/><polygon fill="#2196F3" points="363.0208,621.8099,352.6042,625.9766,363.0208,630.1432,358.8542,625.9766" style="stroke:#2196F3;stroke-width:1.0416666666666667;"/><text fill="#222222" font-family="Verdana" font-size="12.5" font-weight="bold" lengthAdjust="spacing" textLength="8.3333" x="369.2708" y="596.9869">5</text><text fill="#222222" font-family="Verdana" font-size="12.5" lengthAdjust="spacing" textLength="79.1667" x="402.6042" y="596.9869">UPDATE RTP</text><path d="M356.25,643.6849 L356.25,680.1432 A4.1667,4.1667 0 0 0 360.4167,684.3099 L593.75,684.3099 A4.1667,4.1667 0 0 0 597.9167,680.1432 L597.9167,649.9349 L587.5,639.5182 L360.4167,639.5182 A4.1667,4.1667 0 0 0 356.25,643.6849 " fill="url(#g13zf2xeybjldn2)" filter="url(#f13zf2xeybjldn)" style="stroke:#9C27B0;stroke-width:1.0416666666666667;"/><path d="M587.5,639.5182 L587.5,647.8516 A2.0833,2.0833 0 0 0 589.5833,649.9349 L597.9167,649.9349 L587.5,639.5182 " fill="url(#g13zf2xeybjldn2)" style="stroke:#9C27B0;stroke-width:1.0416666666666667;"/><text fill="#FFFFFF" font-family="Verdana" font-size="12.5" lengthAdjust="spacing" textLength="198.9583" x="372.9167" y="666.746">See diagram: RTP Update Flow</text><line style="stroke:#2196F3;stroke-width:1.0416666666666667;stroke-dasharray:2.0,2.0;" x1="237.5" x2="611.4583" y1="694.694" y2="694.694"/><text fill="#222222" font-family="Verdana" font-size="12.5" font-weight="bold" lengthAdjust="spacing" textLength="62.5" x="253.125" y="716.7135">[DELETE]</text><line style="stroke:#2196F3;stroke-width:3.125;" x1="351.5625" x2="395.3125" y1="772.7539" y2="772.7539"/><line style="stroke:#2196F3;stroke-width:3.125;" x1="395.3125" x2="395.3125" y1="772.7539" y2="786.2956"/><line style="stroke:#2196F3;stroke-width:3.125;" x1="352.6042" x2="395.3125" y1="786.2956" y2="786.2956"/><polygon fill="#2196F3" points="363.0208,782.1289,352.6042,786.2956,363.0208,790.4622,358.8542,786.2956" style="stroke:#2196F3;stroke-width:1.0416666666666667;"/><text fill="#222222" font-family="Verdana" font-size="12.5" font-weight="bold" lengthAdjust="spacing" textLength="8.3333" x="369.2708" y="757.3059">6</text><text fill="#222222" font-family="Verdana" font-size="12.5" lengthAdjust="spacing" textLength="76.0417" x="402.6042" y="757.3059">DELETE RTP</text><path d="M356.25,804.0039 L356.25,840.4622 A4.1667,4.1667 0 0 0 360.4167,844.6289 L569.7917,844.6289 A4.1667,4.1667 0 0 0 573.9583,840.4622 L573.9583,810.2539 L563.5417,799.8372 L360.4167,799.8372 A4.1667,4.1667 0 0 0 356.25,804.0039 " fill="url(#g13zf2xeybjldn2)" filter="url(#f13zf2xeybjldn)" style="stroke:#9C27B0;stroke-width:1.0416666666666667;"/><path d="M563.5417,799.8372 L563.5417,808.1706 A2.0833,2.0833 0 0 0 565.625,810.2539 L573.9583,810.2539 L563.5417,799.8372 " fill="url(#g13zf2xeybjldn2)" style="stroke:#9C27B0;stroke-width:1.0416666666666667;"/><text fill="#FFFFFF" font-family="Verdana" font-size="12.5" lengthAdjust="spacing" textLength="175" x="372.9167" y="827.065">See diagram: RTP RFC Flow</text><!--SRC=[dL6xRiCm3Dpv5Moc5gYHFKE1mbQc9Z7ysBgm4Ui8i2L1LbBaxojRTj57qY5SIE6El2Drvm_SCNRasIa2yCgtZ4MLOybQuher7m2Md5TxPKbxN0GiINVRijw8Oe7Ku_puITkKIIcssSI99G0TlT77xeqTmDo7oTE4hp3VbHKk6okN7VSzDGoqz-eKt7sDYFbxqubQ9GUAfNDhI5xYI0uBTaep6ikEl38Q_TdogxvF2_5SYKUiyspCcNWHbNW8PbkF4GGCyNTe18ThZGHjWWUdceD7ypxxnJ5APfIA6aVTQhnkwdXmFDvt80p77le1kErvyd95De8toTPM_YSRLxyY6y6RP8jrUa4p500W-VSNVm80]--></g></svg>