<?xml version="1.0" encoding="us-ascii" standalone="no"?><svg xmlns="http://www.w3.org/2000/svg" xmlns:xlink="http://www.w3.org/1999/xlink" contentStyleType="text/css" height="1748.9583px" preserveAspectRatio="none" style="width:1333px;height:1748px;" version="1.1" viewBox="0 0 1333 1748" width="1333.3333px" zoomAndPan="magnify"><defs><linearGradient id="g14znw5cwbxcvz0" x1="50%" x2="50%" y1="0%" y2="100%"><stop offset="0%" stop-color="#FFFFFF"/><stop offset="100%" stop-color="#FFFFFF"/></linearGradient><filter height="300%" id="f14znw5cwbxcvz" width="300%" x="-1" y="-1"><feGaussianBlur result="blurOut" stdDeviation="2.0833333333333335"/><feColorMatrix in="blurOut" result="blurOut2" type="matrix" values="0 0 0 0 0 0 0 0 0 0 0 0 0 0 0 0 0 0 .4 0"/><feOffset dx="4.166666666666667" dy="4.166666666666667" in="blurOut2" result="blurOut3"/><feBlend in="SourceGraphic" in2="blurOut3" mode="normal"/></filter><linearGradient id="g14znw5cwbxcvz1" x1="50%" x2="50%" y1="0%" y2="100%"><stop offset="0%" stop-color="#4DABF5"/><stop offset="100%" stop-color="#2196F3"/></linearGradient><linearGradient id="g14znw5cwbxcvz2" x1="50%" x2="50%" y1="0%" y2="100%"><stop offset="0%" stop-color="#B052C0"/><stop offset="100%" stop-color="#9C27B0"/></linearGradient></defs><g><rect fill="url(#g14znw5cwbxcvz0)" height="57.5846" id="_title" rx="4.1667" ry="4.1667" style="stroke:#CCCCCC;stroke-width:1.0416666666666667;" width="369.7917" x="482.8125" y="20.8333"/><text fill="#2196F3" font-family="Verdana" font-size="20.8333" font-weight="bold" lengthAdjust="spacing" textLength="336.4583" x="499.4792" y="56.838">RTP Send API: Detailed Flow</text><rect fill="#FFFFFF" filter="url(#f14znw5cwbxcvz)" height="1381.901" style="stroke:#CCCCCC;stroke-width:1.0416666666666667;" width="10.4167" x="408.3333" y="248.6654"/><rect fill="#FFFFFF" filter="url(#f14znw5cwbxcvz)" height="214.4206" style="stroke:#CCCCCC;stroke-width:1.0416666666666667;" width="10.4167" x="725" y="303.3203"/><rect fill="#FFFFFF" filter="url(#f14znw5cwbxcvz)" height="163.9648" style="stroke:#CCCCCC;stroke-width:1.0416666666666667;" width="10.4167" x="725" y="572.3958"/><rect fill="#FFFFFF" filter="url(#f14znw5cwbxcvz)" height="49.9674" style="stroke:#CCCCCC;stroke-width:1.0416666666666667;" width="10.4167" x="895.8333" y="353.2878"/><rect fill="#FFFFFF" filter="url(#f14znw5cwbxcvz)" height="49.9674" style="stroke:#CCCCCC;stroke-width:1.0416666666666667;" width="10.4167" x="967.7083" y="914.3555"/><rect fill="#FFFFFF" filter="url(#f14znw5cwbxcvz)" height="49.9674" style="stroke:#CCCCCC;stroke-width:1.0416666666666667;" width="10.4167" x="967.7083" y="1173.5677"/><rect fill="#FFFFFF" filter="url(#f14znw5cwbxcvz)" height="49.9674" style="stroke:#CCCCCC;stroke-width:1.0416666666666667;" width="10.4167" x="967.7083" y="1360.9375"/><rect fill="#FFFFFF" filter="url(#f14znw5cwbxcvz)" height="54.6549" style="stroke:#CCCCCC;stroke-width:1.0416666666666667;" width="10.4167" x="1072.9167" y="627.0508"/><rect fill="#FFFFFF" filter="url(#f14znw5cwbxcvz)" height="109.3099" style="stroke:#CCCCCC;stroke-width:1.0416666666666667;" width="10.4167" x="1219.2708" y="1014.2904"/><rect fill="url(#g14znw5cwbxcvz0)" filter="url(#f14znw5cwbxcvz)" height="1204.3945" rx="4.1667" ry="4.1667" style="stroke:#2196F3;stroke-width:1.0416666666666667;" width="1232.2917" x="83.3333" y="418.8802"/><rect fill="url(#g14znw5cwbxcvz0)" filter="url(#f14znw5cwbxcvz)" height="726.5951" rx="4.1667" ry="4.1667" style="stroke:#2196F3;stroke-width:1.0416666666666667;" width="1211.9792" x="93.75" y="751.9857"/><path d="M93.75,1281.8359 L1305.7292,1281.8359 L1305.7292,1474.4141 A4.1667,4.1667 0 0 1 1301.5625,1478.5807 L97.9167,1478.5807 A4.1667,4.1667 0 0 1 93.75,1474.4141 L93.75,1281.8359 " fill="url(#g14znw5cwbxcvz0)" style="stroke:none;stroke-width:1.0416666666666667;"/><path d="M83.3333,1485.8724 L1315.625,1485.8724 L1315.625,1619.1081 A4.1667,4.1667 0 0 1 1311.4583,1623.2747 L87.5,1623.2747 A4.1667,4.1667 0 0 1 83.3333,1619.1081 L83.3333,1485.8724 " fill="url(#g14znw5cwbxcvz0)" style="stroke:none;stroke-width:1.0416666666666667;"/><line style="stroke:#CCCCCC;stroke-width:1.0416666666666667;stroke-dasharray:5.0,5.0;" x1="154.1667" x2="154.1667" y1="191.9271" y2="1640.9831"/><line style="stroke:#CCCCCC;stroke-width:1.0416666666666667;stroke-dasharray:5.0,5.0;" x1="413.0208" x2="413.0208" y1="191.9271" y2="1640.9831"/><line style="stroke:#CCCCCC;stroke-width:1.0416666666666667;stroke-dasharray:5.0,5.0;" x1="729.6875" x2="729.6875" y1="191.9271" y2="1640.9831"/><line style="stroke:#CCCCCC;stroke-width:1.0416666666666667;stroke-dasharray:5.0,5.0;" x1="900.5208" x2="900.5208" y1="191.9271" y2="1640.9831"/><line style="stroke:#CCCCCC;stroke-width:1.0416666666666667;stroke-dasharray:5.0,5.0;" x1="972.3958" x2="972.3958" y1="191.9271" y2="1640.9831"/><line style="stroke:#CCCCCC;stroke-width:1.0416666666666667;stroke-dasharray:5.0,5.0;" x1="1077.6042" x2="1077.6042" y1="191.9271" y2="1640.9831"/><line style="stroke:#CCCCCC;stroke-width:1.0416666666666667;stroke-dasharray:5.0,5.0;" x1="1224.4792" x2="1224.4792" y1="191.9271" y2="1640.9831"/><text fill="#222222" font-family="Verdana" font-size="12.5" lengthAdjust="spacing" textLength="72.9167" x="114.5833" y="178.5624">User Agent</text><ellipse cx="154.1667" cy="99.2513" fill="url(#g14znw5cwbxcvz1)" filter="url(#f14znw5cwbxcvz)" rx="8.3333" ry="8.3333" style="stroke:#2196F3;stroke-width:1.0416666666666667;"/><path d="M154.1667,107.5846 L154.1667,135.7096 M140.625,115.918 L167.7083,115.918 M154.1667,135.7096 L140.625,151.3346 M154.1667,135.7096 L167.7083,151.3346 " fill="none" filter="url(#f14znw5cwbxcvz)" style="stroke:#2196F3;stroke-width:1.0416666666666667;"/><text fill="#222222" font-family="Verdana" font-size="12.5" lengthAdjust="spacing" textLength="72.9167" x="114.5833" y="1661.9609">User Agent</text><ellipse cx="154.1667" cy="1684.7005" fill="url(#g14znw5cwbxcvz1)" filter="url(#f14znw5cwbxcvz)" rx="8.3333" ry="8.3333" style="stroke:#2196F3;stroke-width:1.0416666666666667;"/><path d="M154.1667,1693.0339 L154.1667,1721.1589 M140.625,1701.3672 L167.7083,1701.3672 M154.1667,1721.1589 L140.625,1736.7839 M154.1667,1721.1589 L167.7083,1736.7839 " fill="none" filter="url(#f14znw5cwbxcvz)" style="stroke:#2196F3;stroke-width:1.0416666666666667;"/><rect fill="url(#g14znw5cwbxcvz1)" filter="url(#f14znw5cwbxcvz)" height="49.9674" rx="4.1667" ry="4.1667" style="stroke:#2196F3;stroke-width:1.0416666666666667;" width="179.1667" x="322.3958" y="137.793"/><text fill="#FFFFFF" font-family="Verdana" font-size="12.5" lengthAdjust="spacing" textLength="143.75" x="340.1042" y="167.1041">Pagopa - SP Creditore</text><rect fill="url(#g14znw5cwbxcvz1)" filter="url(#f14znw5cwbxcvz)" height="49.9674" rx="4.1667" ry="4.1667" style="stroke:#2196F3;stroke-width:1.0416666666666667;" width="179.1667" x="322.3958" y="1639.9414"/><text fill="#FFFFFF" font-family="Verdana" font-size="12.5" lengthAdjust="spacing" textLength="143.75" x="340.1042" y="1669.2525">Pagopa - SP Creditore</text><rect fill="url(#g14znw5cwbxcvz1)" filter="url(#f14znw5cwbxcvz)" height="49.9674" rx="4.1667" ry="4.1667" style="stroke:#2196F3;stroke-width:1.0416666666666667;" width="160.4167" x="648.4375" y="137.793"/><text fill="#FFFFFF" font-family="Verdana" font-size="12.5" lengthAdjust="spacing" textLength="125" x="666.1458" y="167.1041">Gestore Repository</text><rect fill="url(#g14znw5cwbxcvz1)" filter="url(#f14znw5cwbxcvz)" height="49.9674" rx="4.1667" ry="4.1667" style="stroke:#2196F3;stroke-width:1.0416666666666667;" width="160.4167" x="648.4375" y="1639.9414"/><text fill="#FFFFFF" font-family="Verdana" font-size="12.5" lengthAdjust="spacing" textLength="125" x="666.1458" y="1669.2525">Gestore Repository</text><text fill="#222222" font-family="Verdana" font-size="12.5" lengthAdjust="spacing" textLength="36.4583" x="879.6875" y="178.5624">Payer</text><path d="M882.2917,119.043 C882.2917,108.6263 901.0417,108.6263 901.0417,108.6263 C901.0417,108.6263 919.7917,108.6263 919.7917,119.043 L919.7917,146.1263 C919.7917,156.543 901.0417,156.543 901.0417,156.543 C901.0417,156.543 882.2917,156.543 882.2917,146.1263 L882.2917,119.043 " fill="url(#g14znw5cwbxcvz1)" filter="url(#f14znw5cwbxcvz)" style="stroke:#2196F3;stroke-width:1.5625;"/><path d="M882.2917,119.043 C882.2917,129.4596 901.0417,129.4596 901.0417,129.4596 C901.0417,129.4596 919.7917,129.4596 919.7917,119.043 " fill="none" style="stroke:#2196F3;stroke-width:1.5625;"/><text fill="#222222" font-family="Verdana" font-size="12.5" lengthAdjust="spacing" textLength="36.4583" x="879.6875" y="1661.9609">Payer</text><path d="M882.2917,1685.7422 C882.2917,1675.3255 901.0417,1675.3255 901.0417,1675.3255 C901.0417,1675.3255 919.7917,1675.3255 919.7917,1685.7422 L919.7917,1712.8255 C919.7917,1723.2422 901.0417,1723.2422 901.0417,1723.2422 C901.0417,1723.2422 882.2917,1723.2422 882.2917,1712.8255 L882.2917,1685.7422 " fill="url(#g14znw5cwbxcvz1)" filter="url(#f14znw5cwbxcvz)" style="stroke:#2196F3;stroke-width:1.5625;"/><path d="M882.2917,1685.7422 C882.2917,1696.1589 901.0417,1696.1589 901.0417,1696.1589 C901.0417,1696.1589 919.7917,1696.1589 919.7917,1685.7422 " fill="none" style="stroke:#2196F3;stroke-width:1.5625;"/><text fill="#222222" font-family="Verdana" font-size="12.5" lengthAdjust="spacing" textLength="32.2917" x="953.6458" y="178.5624">SRTP</text><path d="M954.1667,119.043 C954.1667,108.6263 972.9167,108.6263 972.9167,108.6263 C972.9167,108.6263 991.6667,108.6263 991.6667,119.043 L991.6667,146.1263 C991.6667,156.543 972.9167,156.543 972.9167,156.543 C972.9167,156.543 954.1667,156.543 954.1667,146.1263 L954.1667,119.043 " fill="url(#g14znw5cwbxcvz1)" filter="url(#f14znw5cwbxcvz)" style="stroke:#2196F3;stroke-width:1.5625;"/><path d="M954.1667,119.043 C954.1667,129.4596 972.9167,129.4596 972.9167,129.4596 C972.9167,129.4596 991.6667,129.4596 991.6667,119.043 " fill="none" style="stroke:#2196F3;stroke-width:1.5625;"/><text fill="#222222" font-family="Verdana" font-size="12.5" lengthAdjust="spacing" textLength="32.2917" x="953.6458" y="1661.9609">SRTP</text><path d="M954.1667,1685.7422 C954.1667,1675.3255 972.9167,1675.3255 972.9167,1675.3255 C972.9167,1675.3255 991.6667,1675.3255 991.6667,1685.7422 L991.6667,1712.8255 C991.6667,1723.2422 972.9167,1723.2422 972.9167,1723.2422 C972.9167,1723.2422 954.1667,1723.2422 954.1667,1712.8255 L954.1667,1685.7422 " fill="url(#g14znw5cwbxcvz1)" filter="url(#f14znw5cwbxcvz)" style="stroke:#2196F3;stroke-width:1.5625;"/><path d="M954.1667,1685.7422 C954.1667,1696.1589 972.9167,1696.1589 972.9167,1696.1589 C972.9167,1696.1589 991.6667,1696.1589 991.6667,1685.7422 " fill="none" style="stroke:#2196F3;stroke-width:1.5625;"/><text fill="#222222" font-family="Verdana" font-size="12.5" lengthAdjust="spacing" textLength="103.125" x="1023.4375" y="178.5624">Service Registry</text><path d="M1059.375,119.043 C1059.375,108.6263 1078.125,108.6263 1078.125,108.6263 C1078.125,108.6263 1096.875,108.6263 1096.875,119.043 L1096.875,146.1263 C1096.875,156.543 1078.125,156.543 1078.125,156.543 C1078.125,156.543 1059.375,156.543 1059.375,146.1263 L1059.375,119.043 " fill="url(#g14znw5cwbxcvz1)" filter="url(#f14znw5cwbxcvz)" style="stroke:#2196F3;stroke-width:1.5625;"/><path d="M1059.375,119.043 C1059.375,129.4596 1078.125,129.4596 1078.125,129.4596 C1078.125,129.4596 1096.875,129.4596 1096.875,119.043 " fill="none" style="stroke:#2196F3;stroke-width:1.5625;"/><text fill="#222222" font-family="Verdana" font-size="12.5" lengthAdjust="spacing" textLength="103.125" x="1023.4375" y="1661.9609">Service Registry</text><path d="M1059.375,1685.7422 C1059.375,1675.3255 1078.125,1675.3255 1078.125,1675.3255 C1078.125,1675.3255 1096.875,1675.3255 1096.875,1685.7422 L1096.875,1712.8255 C1096.875,1723.2422 1078.125,1723.2422 1078.125,1723.2422 C1078.125,1723.2422 1059.375,1723.2422 1059.375,1712.8255 L1059.375,1685.7422 " fill="url(#g14znw5cwbxcvz1)" filter="url(#f14znw5cwbxcvz)" style="stroke:#2196F3;stroke-width:1.5625;"/><path d="M1059.375,1685.7422 C1059.375,1696.1589 1078.125,1696.1589 1078.125,1696.1589 C1078.125,1696.1589 1096.875,1696.1589 1096.875,1685.7422 " fill="none" style="stroke:#2196F3;stroke-width:1.5625;"/><rect fill="url(#g14znw5cwbxcvz1)" filter="url(#f14znw5cwbxcvz)" height="49.9674" rx="4.1667" ry="4.1667" style="stroke:#2196F3;stroke-width:1.0416666666666667;" width="55.2083" x="1195.3125" y="137.793"/><text fill="#FFFFFF" font-family="Verdana" font-size="12.5" lengthAdjust="spacing" textLength="19.7917" x="1213.0208" y="167.1041">CBI</text><rect fill="url(#g14znw5cwbxcvz1)" filter="url(#f14znw5cwbxcvz)" height="49.9674" rx="4.1667" ry="4.1667" style="stroke:#2196F3;stroke-width:1.0416666666666667;" width="55.2083" x="1195.3125" y="1639.9414"/><text fill="#FFFFFF" font-family="Verdana" font-size="12.5" lengthAdjust="spacing" textLength="19.7917" x="1213.0208" y="1669.2525">CBI</text><rect fill="#FFFFFF" filter="url(#f14znw5cwbxcvz)" height="1381.901" style="stroke:#CCCCCC;stroke-width:1.0416666666666667;" width="10.4167" x="408.3333" y="248.6654"/><rect fill="#FFFFFF" filter="url(#f14znw5cwbxcvz)" height="214.4206" style="stroke:#CCCCCC;stroke-width:1.0416666666666667;" width="10.4167" x="725" y="303.3203"/><rect fill="#FFFFFF" filter="url(#f14znw5cwbxcvz)" height="163.9648" style="stroke:#CCCCCC;stroke-width:1.0416666666666667;" width="10.4167" x="725" y="572.3958"/><rect fill="#FFFFFF" filter="url(#f14znw5cwbxcvz)" height="49.9674" style="stroke:#CCCCCC;stroke-width:1.0416666666666667;" width="10.4167" x="895.8333" y="353.2878"/><rect fill="#FFFFFF" filter="url(#f14znw5cwbxcvz)" height="49.9674" style="stroke:#CCCCCC;stroke-width:1.0416666666666667;" width="10.4167" x="967.7083" y="914.3555"/><rect fill="#FFFFFF" filter="url(#f14znw5cwbxcvz)" height="49.9674" style="stroke:#CCCCCC;stroke-width:1.0416666666666667;" width="10.4167" x="967.7083" y="1173.5677"/><rect fill="#FFFFFF" filter="url(#f14znw5cwbxcvz)" height="49.9674" style="stroke:#CCCCCC;stroke-width:1.0416666666666667;" width="10.4167" x="967.7083" y="1360.9375"/><rect fill="#FFFFFF" filter="url(#f14znw5cwbxcvz)" height="54.6549" style="stroke:#CCCCCC;stroke-width:1.0416666666666667;" width="10.4167" x="1072.9167" y="627.0508"/><rect fill="#FFFFFF" filter="url(#f14znw5cwbxcvz)" height="109.3099" style="stroke:#CCCCCC;stroke-width:1.0416666666666667;" width="10.4167" x="1219.2708" y="1014.2904"/><polygon fill="#2196F3" points="395.8333,244.4987,406.25,248.6654,395.8333,252.832,400,248.6654" style="stroke:#2196F3;stroke-width:1.0416666666666667;"/><line style="stroke:#2196F3;stroke-width:3.125;" x1="154.1667" x2="402.0833" y1="248.6654" y2="248.6654"/><text fill="#222222" font-family="Verdana" font-size="12.5" font-weight="bold" lengthAdjust="spacing" textLength="8.3333" x="171.875" y="233.2174">1</text><text fill="#222222" font-family="Verdana" font-size="12.5" lengthAdjust="spacing" textLength="67.7083" x="205.2083" y="233.2174">POST /rtps</text><path d="M15.625,211.7188 L15.625,248.1771 A4.1667,4.1667 0 0 0 19.7917,252.3438 L141.6667,252.3438 A4.1667,4.1667 0 0 0 145.8333,248.1771 L145.8333,217.9688 L135.4167,207.5521 L19.7917,207.5521 A4.1667,4.1667 0 0 0 15.625,211.7188 " fill="url(#g14znw5cwbxcvz2)" filter="url(#f14znw5cwbxcvz)" style="stroke:#9C27B0;stroke-width:1.0416666666666667;"/><path d="M135.4167,207.5521 L135.4167,215.8854 A2.0833,2.0833 0 0 0 137.5,217.9688 L145.8333,217.9688 L135.4167,207.5521 " fill="url(#g14znw5cwbxcvz2)" style="stroke:#9C27B0;stroke-width:1.0416666666666667;"/><text fill="#FFFFFF" font-family="Verdana" font-size="12.5" lengthAdjust="spacing" textLength="87.5" x="32.2917" y="234.7799">access token</text><polygon fill="#2196F3" points="712.5,299.1536,722.9167,303.3203,712.5,307.487,716.6667,303.3203" style="stroke:#2196F3;stroke-width:1.0416666666666667;"/><line style="stroke:#2196F3;stroke-width:3.125;" x1="418.75" x2="718.75" y1="303.3203" y2="303.3203"/><text fill="#222222" font-family="Verdana" font-size="12.5" font-weight="bold" lengthAdjust="spacing" textLength="8.3333" x="436.4583" y="287.8723">2</text><text fill="#222222" font-family="Verdana" font-size="12.5" lengthAdjust="spacing" textLength="144.7917" x="469.7917" y="287.8723">GET /activations/payer</text><polygon fill="#2196F3" points="883.3333,349.1211,893.75,353.2878,883.3333,357.4544,887.5,353.2878" style="stroke:#2196F3;stroke-width:1.0416666666666667;"/><line style="stroke:#2196F3;stroke-width:3.125;" x1="735.4167" x2="889.5833" y1="353.2878" y2="353.2878"/><text fill="#222222" font-family="Verdana" font-size="12.5" font-weight="bold" lengthAdjust="spacing" textLength="8.3333" x="753.125" y="337.8398">3</text><text fill="#222222" font-family="Verdana" font-size="12.5" lengthAdjust="spacing" textLength="86.4583" x="786.4583" y="337.8398">findByPayerId</text><polygon fill="#2196F3" points="746.875,399.0885,736.4583,403.2552,746.875,407.4219,742.7083,403.2552" style="stroke:#2196F3;stroke-width:1.0416666666666667;"/><line style="stroke:#2196F3;stroke-width:3.125;stroke-dasharray:2.0,2.0;" x1="740.625" x2="900" y1="403.2552" y2="403.2552"/><text fill="#222222" font-family="Verdana" font-size="12.5" font-weight="bold" lengthAdjust="spacing" textLength="8.3333" x="763.5417" y="387.8072">4</text><text fill="#222222" font-family="Verdana" font-size="12.5" lengthAdjust="spacing" textLength="4.1667" x="796.875" y="387.8072">&#160;</text><path d="M87.5,418.8802 L170.8333,418.8802 L170.8333,445.931 L160.4167,456.3477 L83.3333,456.3477 L83.3333,423.0469 A4.1667,4.1667 0 0 1 87.5,418.8802 " fill="#FFFFFF" style="stroke:#666666;stroke-width:1.0416666666666667;"/><rect fill="none" height="1204.3945" rx="4.1667" ry="4.1667" style="stroke:#2196F3;stroke-width:1.0416666666666667;" width="1232.2917" x="83.3333" y="418.8802"/><text fill="#9C27B0" font-family="Verdana" font-size="12.5" font-weight="bold" lengthAdjust="spacing" textLength="19.7917" x="109.375" y="441.9413">alt</text><text fill="#222222" font-family="Verdana" font-size="12.5" font-weight="bold" lengthAdjust="spacing" textLength="116.6667" x="196.875" y="442.983">[user activated]</text><polygon fill="#2196F3" points="430.2083,513.5742,419.7917,517.7409,430.2083,521.9076,426.0417,517.7409" style="stroke:#2196F3;stroke-width:1.0416666666666667;"/><line style="stroke:#2196F3;stroke-width:3.125;stroke-dasharray:2.0,2.0;" x1="423.9583" x2="729.1667" y1="517.7409" y2="517.7409"/><text fill="#222222" font-family="Verdana" font-size="12.5" font-weight="bold" lengthAdjust="spacing" textLength="8.3333" x="446.875" y="502.2929">5</text><text fill="#222222" font-family="Verdana" font-size="12.5" lengthAdjust="spacing" textLength="193.75" x="480.2083" y="502.2929">payer and its Service Provider</text><polygon fill="#2196F3" points="712.5,568.2292,722.9167,572.3958,712.5,576.5625,716.6667,572.3958" style="stroke:#2196F3;stroke-width:1.0416666666666667;"/><line style="stroke:#2196F3;stroke-width:3.125;" x1="418.75" x2="718.75" y1="572.3958" y2="572.3958"/><text fill="#222222" font-family="Verdana" font-size="12.5" font-weight="bold" lengthAdjust="spacing" textLength="8.3333" x="436.4583" y="556.9478">6</text><text fill="#222222" font-family="Verdana" font-size="12.5" lengthAdjust="spacing" textLength="105.2083" x="469.7917" y="556.9478">getRegistryData</text><path d="M203.125,535.4492 L203.125,571.9076 A4.1667,4.1667 0 0 0 207.2917,576.0742 L395.8333,576.0742 A4.1667,4.1667 0 0 0 400,571.9076 L400,541.6992 L389.5833,531.2826 L207.2917,531.2826 A4.1667,4.1667 0 0 0 203.125,535.4492 " fill="url(#g14znw5cwbxcvz2)" filter="url(#f14znw5cwbxcvz)" style="stroke:#9C27B0;stroke-width:1.0416666666666667;"/><path d="M389.5833,531.2826 L389.5833,539.6159 A2.0833,2.0833 0 0 0 391.6667,541.6992 L400,541.6992 L389.5833,531.2826 " fill="url(#g14znw5cwbxcvz2)" style="stroke:#9C27B0;stroke-width:1.0416666666666667;"/><text fill="#FFFFFF" font-family="Verdana" font-size="12.5" lengthAdjust="spacing" textLength="154.1667" x="219.7917" y="558.5103">Search key: ID Payer SP</text><polygon fill="#2196F3" points="1060.4167,622.8841,1070.8333,627.0508,1060.4167,631.2174,1064.5833,627.0508" style="stroke:#2196F3;stroke-width:1.0416666666666667;"/><line style="stroke:#2196F3;stroke-width:3.125;" x1="735.4167" x2="1066.6667" y1="627.0508" y2="627.0508"/><text fill="#222222" font-family="Verdana" font-size="12.5" font-weight="bold" lengthAdjust="spacing" textLength="8.3333" x="753.125" y="611.6028">7</text><text fill="#222222" font-family="Verdana" font-size="12.5" lengthAdjust="spacing" textLength="4.1667" x="786.4583" y="611.6028">&#160;</text><polygon fill="#2196F3" points="746.875,677.5391,736.4583,681.7057,746.875,685.8724,742.7083,681.7057" style="stroke:#2196F3;stroke-width:1.0416666666666667;"/><line style="stroke:#2196F3;stroke-width:3.125;stroke-dasharray:2.0,2.0;" x1="740.625" x2="1077.0833" y1="681.7057" y2="681.7057"/><text fill="#222222" font-family="Verdana" font-size="12.5" font-weight="bold" lengthAdjust="spacing" textLength="8.3333" x="763.5417" y="666.2577">8</text><text fill="#222222" font-family="Verdana" font-size="12.5" lengthAdjust="spacing" textLength="138.5417" x="796.875" y="666.2577">Service Provider data</text><path d="M1088.5417,644.7591 L1088.5417,681.2174 A4.1667,4.1667 0 0 0 1092.7083,685.3841 L1292.7083,685.3841 A4.1667,4.1667 0 0 0 1296.875,681.2174 L1296.875,651.0091 L1286.4583,640.5924 L1092.7083,640.5924 A4.1667,4.1667 0 0 0 1088.5417,644.7591 " fill="url(#g14znw5cwbxcvz2)" filter="url(#f14znw5cwbxcvz)" style="stroke:#9C27B0;stroke-width:1.0416666666666667;"/><path d="M1286.4583,640.5924 L1286.4583,648.9258 A2.0833,2.0833 0 0 0 1288.5417,651.0091 L1296.875,651.0091 L1286.4583,640.5924 " fill="url(#g14znw5cwbxcvz2)" style="stroke:#9C27B0;stroke-width:1.0416666666666667;"/><text fill="#FFFFFF" font-family="Verdana" font-size="12.5" lengthAdjust="spacing" textLength="165.625" x="1105.2083" y="667.8202">service_endpoint, oauth2</text><polygon fill="#2196F3" points="430.2083,732.194,419.7917,736.3607,430.2083,740.5273,426.0417,736.3607" style="stroke:#2196F3;stroke-width:1.0416666666666667;"/><line style="stroke:#2196F3;stroke-width:3.125;stroke-dasharray:2.0,2.0;" x1="423.9583" x2="729.1667" y1="736.3607" y2="736.3607"/><text fill="#222222" font-family="Verdana" font-size="12.5" font-weight="bold" lengthAdjust="spacing" textLength="8.3333" x="446.875" y="720.9127">9</text><text fill="#222222" font-family="Verdana" font-size="12.5" lengthAdjust="spacing" textLength="138.5417" x="480.2083" y="720.9127">Service Provider data</text><path d="M97.9167,751.9857 L181.25,751.9857 L181.25,779.0365 L170.8333,789.4531 L93.75,789.4531 L93.75,756.1523 A4.1667,4.1667 0 0 1 97.9167,751.9857 " fill="#FFFFFF" style="stroke:#666666;stroke-width:1.0416666666666667;"/><rect fill="none" height="726.5951" rx="4.1667" ry="4.1667" style="stroke:#2196F3;stroke-width:1.0416666666666667;" width="1211.9792" x="93.75" y="751.9857"/><text fill="#9C27B0" font-family="Verdana" font-size="12.5" font-weight="bold" lengthAdjust="spacing" textLength="19.7917" x="119.7917" y="775.0468">alt</text><text fill="#222222" font-family="Verdana" font-size="12.5" font-weight="bold" lengthAdjust="spacing" textLength="172.9167" x="207.2917" y="776.0885">[Service Provider is CBI]</text><line style="stroke:#2196F3;stroke-width:3.125;" x1="418.75" x2="462.5" y1="850.8464" y2="850.8464"/><line style="stroke:#2196F3;stroke-width:3.125;" x1="462.5" x2="462.5" y1="850.8464" y2="864.388"/><line style="stroke:#2196F3;stroke-width:3.125;" x1="419.7917" x2="462.5" y1="864.388" y2="864.388"/><polygon fill="#2196F3" points="430.2083,860.2214,419.7917,864.388,430.2083,868.5547,426.0417,864.388" style="stroke:#2196F3;stroke-width:1.0416666666666667;"/><text fill="#222222" font-family="Verdana" font-size="12.5" font-weight="bold" lengthAdjust="spacing" textLength="16.6667" x="436.4583" y="835.3984">10</text><text fill="#222222" font-family="Verdana" font-size="12.5" lengthAdjust="spacing" textLength="229.1667" x="478.125" y="835.3984">add activation data to EPC payload</text><polygon fill="#2196F3" points="955.2083,910.1888,965.625,914.3555,955.2083,918.5221,959.375,914.3555" style="stroke:#2196F3;stroke-width:1.0416666666666667;"/><line style="stroke:#2196F3;stroke-width:3.125;" x1="418.75" x2="961.4583" y1="914.3555" y2="914.3555"/><text fill="#222222" font-family="Verdana" font-size="12.5" font-weight="bold" lengthAdjust="spacing" textLength="16.6667" x="436.4583" y="898.9075">11</text><text fill="#222222" font-family="Verdana" font-size="12.5" lengthAdjust="spacing" textLength="182.2917" x="478.125" y="898.9075">save RTP in status CREATED</text><polygon fill="#2196F3" points="430.2083,960.1563,419.7917,964.3229,430.2083,968.4896,426.0417,964.3229" style="stroke:#2196F3;stroke-width:1.0416666666666667;"/><line style="stroke:#2196F3;stroke-width:3.125;stroke-dasharray:2.0,2.0;" x1="423.9583" x2="971.875" y1="964.3229" y2="964.3229"/><text fill="#222222" font-family="Verdana" font-size="12.5" font-weight="bold" lengthAdjust="spacing" textLength="16.6667" x="446.875" y="948.8749">12</text><text fill="#222222" font-family="Verdana" font-size="12.5" lengthAdjust="spacing" textLength="51.0417" x="488.5417" y="948.8749">created</text><polygon fill="#2196F3" points="430.2083,1010.1237,419.7917,1014.2904,430.2083,1018.457,426.0417,1014.2904" style="stroke:#2196F3;stroke-width:1.0416666666666667;"/><polygon fill="#2196F3" points="1206.7708,1010.1237,1217.1875,1014.2904,1206.7708,1018.457,1210.9375,1014.2904" style="stroke:#2196F3;stroke-width:1.0416666666666667;"/><line style="stroke:#2196F3;stroke-width:3.125;" x1="423.9583" x2="1213.0208" y1="1014.2904" y2="1014.2904"/><text fill="#222222" font-family="Verdana" font-size="12.5" font-weight="bold" lengthAdjust="spacing" textLength="16.6667" x="446.875" y="998.8424">13</text><text fill="#222222" font-family="Verdana" font-size="12.5" lengthAdjust="spacing" textLength="46.875" x="488.5417" y="998.8424">oAuth2</text><polygon fill="#2196F3" points="1206.7708,1064.7786,1217.1875,1068.9453,1206.7708,1073.112,1210.9375,1068.9453" style="stroke:#2196F3;stroke-width:1.0416666666666667;"/><line style="stroke:#2196F3;stroke-width:3.125;" x1="418.75" x2="1213.0208" y1="1068.9453" y2="1068.9453"/><text fill="#222222" font-family="Verdana" font-size="12.5" font-weight="bold" lengthAdjust="spacing" textLength="16.6667" x="436.4583" y="1053.4973">14</text><text fill="#222222" font-family="Verdana" font-size="12.5" lengthAdjust="spacing" textLength="173.9583" x="478.125" y="1053.4973">POST /sepa-request-to-pay</text><path d="M310.4167,1031.9987 L310.4167,1068.457 A4.1667,4.1667 0 0 0 314.5833,1072.6237 L395.8333,1072.6237 A4.1667,4.1667 0 0 0 400,1068.457 L400,1038.2487 L389.5833,1027.832 L314.5833,1027.832 A4.1667,4.1667 0 0 0 310.4167,1031.9987 " fill="url(#g14znw5cwbxcvz2)" filter="url(#f14znw5cwbxcvz)" style="stroke:#9C27B0;stroke-width:1.0416666666666667;"/><path d="M389.5833,1027.832 L389.5833,1036.1654 A2.0833,2.0833 0 0 0 391.6667,1038.2487 L400,1038.2487 L389.5833,1027.832 " fill="url(#g14znw5cwbxcvz2)" style="stroke:#9C27B0;stroke-width:1.0416666666666667;"/><text fill="#FFFFFF" font-family="Verdana" font-size="12.5" lengthAdjust="spacing" textLength="46.875" x="327.0833" y="1055.0598">oAuth2</text><polygon fill="#2196F3" points="430.2083,1119.4336,419.7917,1123.6003,430.2083,1127.7669,426.0417,1123.6003" style="stroke:#2196F3;stroke-width:1.0416666666666667;"/><line style="stroke:#2196F3;stroke-width:3.125;stroke-dasharray:2.0,2.0;" x1="423.9583" x2="1223.4375" y1="1123.6003" y2="1123.6003"/><text fill="#222222" font-family="Verdana" font-size="12.5" font-weight="bold" lengthAdjust="spacing" textLength="16.6667" x="446.875" y="1108.1523">15</text><text fill="#222222" font-family="Verdana" font-size="12.5" lengthAdjust="spacing" textLength="90.625" x="488.5417" y="1108.1523">202 accepted</text><polygon fill="#2196F3" points="955.2083,1169.401,965.625,1173.5677,955.2083,1177.7344,959.375,1173.5677" style="stroke:#2196F3;stroke-width:1.0416666666666667;"/><line style="stroke:#2196F3;stroke-width:3.125;" x1="418.75" x2="961.4583" y1="1173.5677" y2="1173.5677"/><text fill="#222222" font-family="Verdana" font-size="12.5" font-weight="bold" lengthAdjust="spacing" textLength="16.6667" x="436.4583" y="1158.1197">16</text><text fill="#222222" font-family="Verdana" font-size="12.5" lengthAdjust="spacing" textLength="157.2917" x="478.125" y="1158.1197">save RTP in status SENT</text><polygon fill="#2196F3" points="430.2083,1219.3685,419.7917,1223.5352,430.2083,1227.7018,426.0417,1223.5352" style="stroke:#2196F3;stroke-width:1.0416666666666667;"/><line style="stroke:#2196F3;stroke-width:3.125;stroke-dasharray:2.0,2.0;" x1="423.9583" x2="971.875" y1="1223.5352" y2="1223.5352"/><text fill="#222222" font-family="Verdana" font-size="12.5" font-weight="bold" lengthAdjust="spacing" textLength="16.6667" x="446.875" y="1208.0872">17</text><text fill="#222222" font-family="Verdana" font-size="12.5" lengthAdjust="spacing" textLength="55.2083" x="488.5417" y="1208.0872">updated</text><polygon fill="#2196F3" points="165.625,1269.3359,155.2083,1273.5026,165.625,1277.6693,161.4583,1273.5026" style="stroke:#2196F3;stroke-width:1.0416666666666667;"/><line style="stroke:#2196F3;stroke-width:3.125;stroke-dasharray:2.0,2.0;" x1="159.375" x2="407.2917" y1="1273.5026" y2="1273.5026"/><text fill="#222222" font-family="Verdana" font-size="12.5" font-weight="bold" lengthAdjust="spacing" textLength="16.6667" x="182.2917" y="1258.0546">18</text><text fill="#222222" font-family="Verdana" font-size="12.5" lengthAdjust="spacing" textLength="80.2083" x="223.9583" y="1258.0546">201 created</text><line style="stroke:#2196F3;stroke-width:1.0416666666666667;stroke-dasharray:2.0,2.0;" x1="93.75" x2="1305.7292" y1="1282.8776" y2="1282.8776"/><text fill="#222222" font-family="Verdana" font-size="12.5" font-weight="bold" lengthAdjust="spacing" textLength="202.0833" x="109.375" y="1304.8971">[Service Provider is not CBI]</text><polygon fill="#2196F3" points="955.2083,1356.7708,965.625,1360.9375,955.2083,1365.1042,959.375,1360.9375" style="stroke:#2196F3;stroke-width:1.0416666666666667;"/><line style="stroke:#2196F3;stroke-width:3.125;" x1="418.75" x2="961.4583" y1="1360.9375" y2="1360.9375"/><text fill="#222222" font-family="Verdana" font-size="12.5" font-weight="bold" lengthAdjust="spacing" textLength="16.6667" x="436.4583" y="1345.4895">19</text><text fill="#222222" font-family="Verdana" font-size="12.5" lengthAdjust="spacing" textLength="157.2917" x="478.125" y="1345.4895">save RTP in status SENT</text><polygon fill="#2196F3" points="430.2083,1406.7383,419.7917,1410.9049,430.2083,1415.0716,426.0417,1410.9049" style="stroke:#2196F3;stroke-width:1.0416666666666667;"/><line style="stroke:#2196F3;stroke-width:3.125;stroke-dasharray:2.0,2.0;" x1="423.9583" x2="971.875" y1="1410.9049" y2="1410.9049"/><text fill="#222222" font-family="Verdana" font-size="12.5" font-weight="bold" lengthAdjust="spacing" textLength="16.6667" x="446.875" y="1395.4569">20</text><text fill="#222222" font-family="Verdana" font-size="12.5" lengthAdjust="spacing" textLength="55.2083" x="488.5417" y="1395.4569">updated</text><polygon fill="#2196F3" points="165.625,1461.3932,155.2083,1465.5599,165.625,1469.7266,161.4583,1465.5599" style="stroke:#2196F3;stroke-width:1.0416666666666667;"/><line style="stroke:#2196F3;stroke-width:3.125;stroke-dasharray:2.0,2.0;" x1="159.375" x2="407.2917" y1="1465.5599" y2="1465.5599"/><text fill="#222222" font-family="Verdana" font-size="12.5" font-weight="bold" lengthAdjust="spacing" textLength="16.6667" x="182.2917" y="1450.1119">21</text><text fill="#222222" font-family="Verdana" font-size="12.5" lengthAdjust="spacing" textLength="80.2083" x="223.9583" y="1450.1119">201 created</text><path d="M423.9583,1428.6133 L423.9583,1465.0716 A4.1667,4.1667 0 0 0 428.125,1469.2383 L658.3333,1469.2383 A4.1667,4.1667 0 0 0 662.5,1465.0716 L662.5,1434.8633 L652.0833,1424.4466 L428.125,1424.4466 A4.1667,4.1667 0 0 0 423.9583,1428.6133 " fill="url(#g14znw5cwbxcvz2)" filter="url(#f14znw5cwbxcvz)" style="stroke:#9C27B0;stroke-width:1.0416666666666667;"/><path d="M652.0833,1424.4466 L652.0833,1432.7799 A2.0833,2.0833 0 0 0 654.1667,1434.8633 L662.5,1434.8633 L652.0833,1424.4466 " fill="url(#g14znw5cwbxcvz2)" style="stroke:#9C27B0;stroke-width:1.0416666666666667;"/><text fill="#FFFFFF" font-family="Verdana" font-size="12.5" lengthAdjust="spacing" textLength="195.8333" x="440.625" y="1451.6744">Mocked during CBI integration</text><line style="stroke:#2196F3;stroke-width:1.0416666666666667;stroke-dasharray:2.0,2.0;" x1="83.3333" x2="1315.625" y1="1486.9141" y2="1486.9141"/><text fill="#222222" font-family="Verdana" font-size="12.5" font-weight="bold" lengthAdjust="spacing" textLength="145.8333" x="98.9583" y="1508.9335">[user not activated]</text><polygon fill="#2196F3" points="430.2083,1560.8073,419.7917,1564.974,430.2083,1569.1406,426.0417,1564.974" style="stroke:#2196F3;stroke-width:1.0416666666666667;"/><line style="stroke:#2196F3;stroke-width:3.125;stroke-dasharray:2.0,2.0;" x1="423.9583" x2="729.1667" y1="1564.974" y2="1564.974"/><text fill="#222222" font-family="Verdana" font-size="12.5" font-weight="bold" lengthAdjust="spacing" textLength="16.6667" x="446.875" y="1549.526">22</text><text fill="#222222" font-family="Verdana" font-size="12.5" lengthAdjust="spacing" textLength="92.7083" x="488.5417" y="1549.526">404 not found</text><polygon fill="#2196F3" points="165.625,1610.7747,155.2083,1614.9414,165.625,1619.1081,161.4583,1614.9414" style="stroke:#2196F3;stroke-width:1.0416666666666667;"/><line style="stroke:#2196F3;stroke-width:3.125;stroke-dasharray:2.0,2.0;" x1="159.375" x2="407.2917" y1="1614.9414" y2="1614.9414"/><text fill="#222222" font-family="Verdana" font-size="12.5" font-weight="bold" lengthAdjust="spacing" textLength="16.6667" x="182.2917" y="1599.4934">23</text><text fill="#222222" font-family="Verdana" font-size="12.5" lengthAdjust="spacing" textLength="166.6667" x="223.9583" y="1599.4934">422 unprocessable entity</text><!--SRC=[pLN1Zjem4BtxAwPxsKlPPT6Uecebbb24r6sZ9FHQUUCXM1lir7POyVSTcmGIOANsLWu8x9atxptFsBUGL5ovrSitY2Kl3T_2MXj8ymGoL0AcoPBTGYvTXH74wBYiK9osC_pTe2gmIwROdsYir2g2XxlntPWMOhI5aRKBY_b6MX1j9RlHxnRS1a5qo58vD8fNK1jTeBM1JM6GEwbA8BJ1XnC5Ippy7WU5xu7PskWj_QrvgHDQrKuMUCVO9ogqHTXogY0vOywB6YZjAVnQwNV6UE6e_CtAee5fYShT0BUmchAQ6qALDLa7DmaLgZcC84jWPb18Ii8GcIMpOUW2hT-456jjVTm-n2rI9hZZhzoYXzkZ2SlXLsyd8x87NFhHNqUp8us4MahhMimi7PQUFIzRJZ49QvnMpVQLuDbg2gCdJpM2v4UMmxrnjMLa6qA5QnS1By99EFs6obiYTsHXqCReooSlqWWMSqfjT-cexNqTs1_ZIUCYzS51LGHhgSJpFlnPYbFOGNFuXb60PWBFTXcl73J-KBeDmNmxUFnEIgWU6aGw4jqwb1Yzau8WV7WFbwg4fPwU4btdPqnEX-sUAHboKspW3VSHBEC3CKeFONtOZjUJFv31Pli_IrkTqGLB48F2HfORgcmFKR-eQMjDy_8PD1tdPdAkAKilJFcum1KllCaN2JIzr4Yi6y3Mhm3EXO3J-GTewXcOKmWTHgMvO1TvrCSaYEyESoWLMCTTGpNI-JIVnyVudgWyEQ7ufAEuS4kqdN1X1MKDYdy9MN44UdhqRbZ8Zyc5pBYR4Oir7nb_-ratSdf42e_HlIuvGoU04z_9U196g_w8z3K67ncMpR_d_-HMKuk_TyjdhQQUyiFHvX205Tq_rvg4FBZQAFyF_y5fjQFreeitkln5O_oBGlp3UqHlbU_eWs15oeFgSFzucSCxwDhiTvmVnuyXOwqR9QwCtJdTnya46jM-XFoLNYjwWgJRiy1Yq2epzWS0]--></g></svg>