<?xml version="1.0" encoding="us-ascii" standalone="no"?><svg xmlns="http://www.w3.org/2000/svg" xmlns:xlink="http://www.w3.org/1999/xlink" contentStyleType="text/css" height="960px" preserveAspectRatio="none" style="width:1038px;height:960px;background:#FFFFFF;" version="1.1" viewBox="0 0 1038 960" width="1038px" zoomAndPan="magnify"><defs><filter height="300%" id="f15iikxen0m6p2" width="300%" x="-1" y="-1"><feGaussianBlur result="blurOut" stdDeviation="2.0"/><feColorMatrix in="blurOut" result="blurOut2" type="matrix" values="0 0 0 0 0 0 0 0 0 0 0 0 0 0 0 0 0 0 .4 0"/><feOffset dx="4.0" dy="4.0" in="blurOut2" result="blurOut3"/><feBlend in="SourceGraphic" in2="blurOut3" mode="normal"/></filter></defs><g><rect fill="#FFFFFF" filter="url(#f15iikxen0m6p2)" height="768.5313" style="stroke:#A80036;stroke-width:1.0;" width="10" x="303.5" y="103.4297"/><rect fill="#FFFFFF" filter="url(#f15iikxen0m6p2)" height="96.3984" style="stroke:#A80036;stroke-width:1.0;" width="10" x="550.5" y="137.5625"/><rect fill="#FFFFFF" filter="url(#f15iikxen0m6p2)" height="87.2656" style="stroke:#A80036;stroke-width:1.0;" width="10" x="550.5" y="268.0938"/><rect fill="#FFFFFF" filter="url(#f15iikxen0m6p2)" height="14" style="stroke:#A80036;stroke-width:1.0;" width="10" x="665.5" y="166.6953"/><rect fill="#FFFFFF" filter="url(#f15iikxen0m6p2)" height="29.1328" style="stroke:#A80036;stroke-width:1.0;" width="10" x="719" y="450.7578"/><rect fill="#FFFFFF" filter="url(#f15iikxen0m6p2)" height="29.1328" style="stroke:#A80036;stroke-width:1.0;" width="10" x="719" y="606.4219"/><rect fill="#FFFFFF" filter="url(#f15iikxen0m6p2)" height="29.1328" style="stroke:#A80036;stroke-width:1.0;" width="10" x="719" y="708.625"/><rect fill="#FFFFFF" filter="url(#f15iikxen0m6p2)" height="34.1328" style="stroke:#A80036;stroke-width:1.0;" width="10" x="808.5" y="287.0938"/><rect fill="#FFFFFF" filter="url(#f15iikxen0m6p2)" height="68.2656" style="stroke:#A80036;stroke-width:1.0;" width="10" x="897" y="509.0234"/><rect fill="none" filter="url(#f15iikxen0m6p2)" height="669.2656" style="stroke:#000000;stroke-width:2.0;" width="973.5" x="51" y="195.6953"/><rect fill="none" filter="url(#f15iikxen0m6p2)" height="414.5313" style="stroke:#000000;stroke-width:2.0;" width="871.5" x="61" y="370.3594"/><line style="stroke:#A80036;stroke-width:1.0;stroke-dasharray:5.0,5.0;" x1="118" x2="118" y1="67.2969" y2="881.9609"/><line style="stroke:#A80036;stroke-width:1.0;stroke-dasharray:5.0,5.0;" x1="308" x2="308" y1="67.2969" y2="881.9609"/><line style="stroke:#A80036;stroke-width:1.0;stroke-dasharray:5.0,5.0;" x1="555.5" x2="555.5" y1="67.2969" y2="881.9609"/><line style="stroke:#A80036;stroke-width:1.0;stroke-dasharray:5.0,5.0;" x1="670.5" x2="670.5" y1="67.2969" y2="881.9609"/><line style="stroke:#A80036;stroke-width:1.0;stroke-dasharray:5.0,5.0;" x1="723.5" x2="723.5" y1="67.2969" y2="881.9609"/><line style="stroke:#A80036;stroke-width:1.0;stroke-dasharray:5.0,5.0;" x1="813.5" x2="813.5" y1="67.2969" y2="881.9609"/><line style="stroke:#A80036;stroke-width:1.0;stroke-dasharray:5.0,5.0;" x1="901.5" x2="901.5" y1="67.2969" y2="881.9609"/><rect fill="#FEFECE" filter="url(#f15iikxen0m6p2)" height="30.2969" style="stroke:#A80036;stroke-width:1.5;" width="91" x="71" y="32"/><text fill="#000000" font-family="sans-serif" font-size="14" lengthAdjust="spacing" textLength="77" x="78" y="51.9951">User Agent</text><rect fill="#FEFECE" filter="url(#f15iikxen0m6p2)" height="30.2969" style="stroke:#A80036;stroke-width:1.5;" width="91" x="71" y="880.9609"/><text fill="#000000" font-family="sans-serif" font-size="14" lengthAdjust="spacing" textLength="77" x="78" y="900.9561">User Agent</text><rect fill="#FEFECE" filter="url(#f15iikxen0m6p2)" height="30.2969" style="stroke:#A80036;stroke-width:1.5;" width="165" x="224" y="32"/><text fill="#000000" font-family="sans-serif" font-size="14" lengthAdjust="spacing" textLength="151" x="231" y="51.9951">Pagopa - SP Creditore</text><rect fill="#FEFECE" filter="url(#f15iikxen0m6p2)" height="30.2969" style="stroke:#A80036;stroke-width:1.5;" width="165" x="224" y="880.9609"/><text fill="#000000" font-family="sans-serif" font-size="14" lengthAdjust="spacing" textLength="151" x="231" y="900.9561">Pagopa - SP Creditore</text><rect fill="#FEFECE" filter="url(#f15iikxen0m6p2)" height="30.2969" style="stroke:#A80036;stroke-width:1.5;" width="148" x="479.5" y="32"/><text fill="#000000" font-family="sans-serif" font-size="14" lengthAdjust="spacing" textLength="134" x="486.5" y="51.9951">Gestore Repository</text><rect fill="#FEFECE" filter="url(#f15iikxen0m6p2)" height="30.2969" style="stroke:#A80036;stroke-width:1.5;" width="148" x="479.5" y="880.9609"/><text fill="#000000" font-family="sans-serif" font-size="14" lengthAdjust="spacing" textLength="134" x="486.5" y="900.9561">Gestore Repository</text><text fill="#000000" font-family="sans-serif" font-size="14" lengthAdjust="spacing" textLength="38" x="648.5" y="63.9951">Payer</text><path d="M652.5,15 C652.5,5 670.5,5 670.5,5 C670.5,5 688.5,5 688.5,15 L688.5,41 C688.5,51 670.5,51 670.5,51 C670.5,51 652.5,51 652.5,41 L652.5,15 " fill="#FEFECE" filter="url(#f15iikxen0m6p2)" style="stroke:#A80036;stroke-width:1.5;"/><path d="M652.5,15 C652.5,25 670.5,25 670.5,25 C670.5,25 688.5,25 688.5,15 " fill="none" style="stroke:#A80036;stroke-width:1.5;"/><text fill="#000000" font-family="sans-serif" font-size="14" lengthAdjust="spacing" textLength="38" x="648.5" y="893.9561">Payer</text><path d="M652.5,907.2578 C652.5,897.2578 670.5,897.2578 670.5,897.2578 C670.5,897.2578 688.5,897.2578 688.5,907.2578 L688.5,933.2578 C688.5,943.2578 670.5,943.2578 670.5,943.2578 C670.5,943.2578 652.5,943.2578 652.5,933.2578 L652.5,907.2578 " fill="#FEFECE" filter="url(#f15iikxen0m6p2)" style="stroke:#A80036;stroke-width:1.5;"/><path d="M652.5,907.2578 C652.5,917.2578 670.5,917.2578 670.5,917.2578 C670.5,917.2578 688.5,917.2578 688.5,907.2578 " fill="none" style="stroke:#A80036;stroke-width:1.5;"/><text fill="#000000" font-family="sans-serif" font-size="14" lengthAdjust="spacing" textLength="37" x="702.5" y="63.9951">SRTP</text><path d="M706,15 C706,5 724,5 724,5 C724,5 742,5 742,15 L742,41 C742,51 724,51 724,51 C724,51 706,51 706,41 L706,15 " fill="#FEFECE" filter="url(#f15iikxen0m6p2)" style="stroke:#A80036;stroke-width:1.5;"/><path d="M706,15 C706,25 724,25 724,25 C724,25 742,25 742,15 " fill="none" style="stroke:#A80036;stroke-width:1.5;"/><text fill="#000000" font-family="sans-serif" font-size="14" lengthAdjust="spacing" textLength="37" x="702.5" y="893.9561">SRTP</text><path d="M706,907.2578 C706,897.2578 724,897.2578 724,897.2578 C724,897.2578 742,897.2578 742,907.2578 L742,933.2578 C742,943.2578 724,943.2578 724,943.2578 C724,943.2578 706,943.2578 706,933.2578 L706,907.2578 " fill="#FEFECE" filter="url(#f15iikxen0m6p2)" style="stroke:#A80036;stroke-width:1.5;"/><path d="M706,907.2578 C706,917.2578 724,917.2578 724,917.2578 C724,917.2578 742,917.2578 742,907.2578 " fill="none" style="stroke:#A80036;stroke-width:1.5;"/><text fill="#000000" font-family="sans-serif" font-size="14" lengthAdjust="spacing" textLength="110" x="755.5" y="63.9951">Service Registry</text><path d="M795.5,15 C795.5,5 813.5,5 813.5,5 C813.5,5 831.5,5 831.5,15 L831.5,41 C831.5,51 813.5,51 813.5,51 C813.5,51 795.5,51 795.5,41 L795.5,15 " fill="#FEFECE" filter="url(#f15iikxen0m6p2)" style="stroke:#A80036;stroke-width:1.5;"/><path d="M795.5,15 C795.5,25 813.5,25 813.5,25 C813.5,25 831.5,25 831.5,15 " fill="none" style="stroke:#A80036;stroke-width:1.5;"/><text fill="#000000" font-family="sans-serif" font-size="14" lengthAdjust="spacing" textLength="110" x="755.5" y="893.9561">Service Registry</text><path d="M795.5,907.2578 C795.5,897.2578 813.5,897.2578 813.5,897.2578 C813.5,897.2578 831.5,897.2578 831.5,907.2578 L831.5,933.2578 C831.5,943.2578 813.5,943.2578 813.5,943.2578 C813.5,943.2578 795.5,943.2578 795.5,933.2578 L795.5,907.2578 " fill="#FEFECE" filter="url(#f15iikxen0m6p2)" style="stroke:#A80036;stroke-width:1.5;"/><path d="M795.5,907.2578 C795.5,917.2578 813.5,917.2578 813.5,917.2578 C813.5,917.2578 831.5,917.2578 831.5,907.2578 " fill="none" style="stroke:#A80036;stroke-width:1.5;"/><rect fill="#FEFECE" filter="url(#f15iikxen0m6p2)" height="30.2969" style="stroke:#A80036;stroke-width:1.5;" width="37" x="881.5" y="32"/><text fill="#000000" font-family="sans-serif" font-size="14" lengthAdjust="spacing" textLength="23" x="888.5" y="51.9951">CBI</text><rect fill="#FEFECE" filter="url(#f15iikxen0m6p2)" height="30.2969" style="stroke:#A80036;stroke-width:1.5;" width="37" x="881.5" y="880.9609"/><text fill="#000000" font-family="sans-serif" font-size="14" lengthAdjust="spacing" textLength="23" x="888.5" y="900.9561">CBI</text><rect fill="#FFFFFF" filter="url(#f15iikxen0m6p2)" height="768.5313" style="stroke:#A80036;stroke-width:1.0;" width="10" x="303.5" y="103.4297"/><rect fill="#FFFFFF" filter="url(#f15iikxen0m6p2)" height="96.3984" style="stroke:#A80036;stroke-width:1.0;" width="10" x="550.5" y="137.5625"/><rect fill="#FFFFFF" filter="url(#f15iikxen0m6p2)" height="87.2656" style="stroke:#A80036;stroke-width:1.0;" width="10" x="550.5" y="268.0938"/><rect fill="#FFFFFF" filter="url(#f15iikxen0m6p2)" height="14" style="stroke:#A80036;stroke-width:1.0;" width="10" x="665.5" y="166.6953"/><rect fill="#FFFFFF" filter="url(#f15iikxen0m6p2)" height="29.1328" style="stroke:#A80036;stroke-width:1.0;" width="10" x="719" y="450.7578"/><rect fill="#FFFFFF" filter="url(#f15iikxen0m6p2)" height="29.1328" style="stroke:#A80036;stroke-width:1.0;" width="10" x="719" y="606.4219"/><rect fill="#FFFFFF" filter="url(#f15iikxen0m6p2)" height="29.1328" style="stroke:#A80036;stroke-width:1.0;" width="10" x="719" y="708.625"/><rect fill="#FFFFFF" filter="url(#f15iikxen0m6p2)" height="34.1328" style="stroke:#A80036;stroke-width:1.0;" width="10" x="808.5" y="287.0938"/><rect fill="#FFFFFF" filter="url(#f15iikxen0m6p2)" height="68.2656" style="stroke:#A80036;stroke-width:1.0;" width="10" x="897" y="509.0234"/><polygon fill="#A80036" points="291.5,99.4297,301.5,103.4297,291.5,107.4297,295.5,103.4297" style="stroke:#A80036;stroke-width:1.0;"/><line style="stroke:#A80036;stroke-width:1.0;" x1="118.5" x2="297.5" y1="103.4297" y2="103.4297"/><text fill="#000000" font-family="sans-serif" font-size="13" lengthAdjust="spacing" textLength="67" x="125.5" y="98.3638">POST /rtps</text><path d="M5,82.2969 L5,107.2969 L110,107.2969 L110,92.2969 L100,82.2969 L5,82.2969 " fill="#FBFB77" filter="url(#f15iikxen0m6p2)" style="stroke:#A80036;stroke-width:1.0;"/><path d="M100,82.2969 L100,92.2969 L110,92.2969 L100,82.2969 " fill="#FBFB77" style="stroke:#A80036;stroke-width:1.0;"/><text fill="#000000" font-family="sans-serif" font-size="13" lengthAdjust="spacing" textLength="84" x="11" y="99.3638">access token</text><polygon fill="#A80036" points="538.5,133.5625,548.5,137.5625,538.5,141.5625,542.5,137.5625" style="stroke:#A80036;stroke-width:1.0;"/><line style="stroke:#A80036;stroke-width:1.0;" x1="313.5" x2="544.5" y1="137.5625" y2="137.5625"/><text fill="#000000" font-family="sans-serif" font-size="13" lengthAdjust="spacing" textLength="142" x="320.5" y="132.4966">GET /activations/payer</text><polygon fill="#A80036" points="653.5,162.6953,663.5,166.6953,653.5,170.6953,657.5,166.6953" style="stroke:#A80036;stroke-width:1.0;"/><line style="stroke:#A80036;stroke-width:1.0;" x1="560.5" x2="659.5" y1="166.6953" y2="166.6953"/><text fill="#000000" font-family="sans-serif" font-size="13" lengthAdjust="spacing" textLength="86" x="567.5" y="161.6294">findByPayerId</text><polygon fill="#A80036" points="571.5,176.6953,561.5,180.6953,571.5,184.6953,567.5,180.6953" style="stroke:#A80036;stroke-width:1.0;"/><line style="stroke:#A80036;stroke-width:1.0;stroke-dasharray:2.0,2.0;" x1="565.5" x2="669.5" y1="180.6953" y2="180.6953"/><path d="M51,195.6953 L115,195.6953 L115,202.8281 L105,212.8281 L51,212.8281 L51,195.6953 " fill="#EEEEEE" style="stroke:#000000;stroke-width:1.0;"/><rect fill="none" height="669.2656" style="stroke:#000000;stroke-width:2.0;" width="973.5" x="51" y="195.6953"/><text fill="#000000" font-family="sans-serif" font-size="13" font-weight="bold" lengthAdjust="spacing" textLength="19" x="66" y="208.7622">alt</text><text fill="#000000" font-family="sans-serif" font-size="11" font-weight="bold" lengthAdjust="spacing" textLength="102" x="130" y="207.9058">[user activated]</text><polygon fill="#A80036" points="324.5,229.9609,314.5,233.9609,324.5,237.9609,320.5,233.9609" style="stroke:#A80036;stroke-width:1.0;"/><line style="stroke:#A80036;stroke-width:1.0;stroke-dasharray:2.0,2.0;" x1="318.5" x2="554.5" y1="233.9609" y2="233.9609"/><text fill="#000000" font-family="sans-serif" font-size="13" lengthAdjust="spacing" textLength="190" x="330.5" y="228.895">payer and its Service Provider</text><polygon fill="#A80036" points="538.5,264.0938,548.5,268.0938,538.5,272.0938,542.5,268.0938" style="stroke:#A80036;stroke-width:1.0;"/><line style="stroke:#A80036;stroke-width:1.0;" x1="313.5" x2="544.5" y1="268.0938" y2="268.0938"/><text fill="#000000" font-family="sans-serif" font-size="13" lengthAdjust="spacing" textLength="103" x="320.5" y="263.0278">getRegistryData</text><path d="M120,246.9609 L120,271.9609 L294,271.9609 L294,256.9609 L284,246.9609 L120,246.9609 " fill="#FBFB77" filter="url(#f15iikxen0m6p2)" style="stroke:#A80036;stroke-width:1.0;"/><path d="M284,246.9609 L284,256.9609 L294,256.9609 L284,246.9609 " fill="#FBFB77" style="stroke:#A80036;stroke-width:1.0;"/><text fill="#000000" font-family="sans-serif" font-size="13" lengthAdjust="spacing" textLength="153" x="126" y="264.0278">Search key: ID Payer SP</text><polygon fill="#A80036" points="796.5,283.0938,806.5,287.0938,796.5,291.0938,800.5,287.0938" style="stroke:#A80036;stroke-width:1.0;"/><line style="stroke:#A80036;stroke-width:1.0;" x1="560.5" x2="802.5" y1="287.0938" y2="287.0938"/><polygon fill="#A80036" points="571.5,317.2266,561.5,321.2266,571.5,325.2266,567.5,321.2266" style="stroke:#A80036;stroke-width:1.0;"/><line style="stroke:#A80036;stroke-width:1.0;stroke-dasharray:2.0,2.0;" x1="565.5" x2="812.5" y1="321.2266" y2="321.2266"/><text fill="#000000" font-family="sans-serif" font-size="13" lengthAdjust="spacing" textLength="136" x="577.5" y="316.1606">Service Provider data</text><path d="M823,300.0938 L823,325.0938 L1005,325.0938 L1005,310.0938 L995,300.0938 L823,300.0938 " fill="#FBFB77" filter="url(#f15iikxen0m6p2)" style="stroke:#A80036;stroke-width:1.0;"/><path d="M995,300.0938 L995,310.0938 L1005,310.0938 L995,300.0938 " fill="#FBFB77" style="stroke:#A80036;stroke-width:1.0;"/><text fill="#000000" font-family="sans-serif" font-size="13" lengthAdjust="spacing" textLength="161" x="829" y="317.1606">service_endpoint, oauth2</text><polygon fill="#A80036" points="324.5,351.3594,314.5,355.3594,324.5,359.3594,320.5,355.3594" style="stroke:#A80036;stroke-width:1.0;"/><line style="stroke:#A80036;stroke-width:1.0;stroke-dasharray:2.0,2.0;" x1="318.5" x2="554.5" y1="355.3594" y2="355.3594"/><text fill="#000000" font-family="sans-serif" font-size="13" lengthAdjust="spacing" textLength="136" x="330.5" y="350.2935">Service Provider data</text><path d="M61,370.3594 L125,370.3594 L125,377.4922 L115,387.4922 L61,387.4922 L61,370.3594 " fill="#EEEEEE" style="stroke:#000000;stroke-width:1.0;"/><rect fill="none" height="414.5313" style="stroke:#000000;stroke-width:2.0;" width="871.5" x="61" y="370.3594"/><text fill="#000000" font-family="sans-serif" font-size="13" font-weight="bold" lengthAdjust="spacing" textLength="19" x="76" y="383.4263">alt</text><text fill="#000000" font-family="sans-serif" font-size="11" font-weight="bold" lengthAdjust="spacing" textLength="155" x="140" y="382.5698">[Service Provider is CBI]</text><line style="stroke:#A80036;stroke-width:1.0;" x1="313.5" x2="355.5" y1="408.625" y2="408.625"/><line style="stroke:#A80036;stroke-width:1.0;" x1="355.5" x2="355.5" y1="408.625" y2="421.625"/><line style="stroke:#A80036;stroke-width:1.0;" x1="314.5" x2="355.5" y1="421.625" y2="421.625"/><polygon fill="#A80036" points="324.5,417.625,314.5,421.625,324.5,425.625,320.5,421.625" style="stroke:#A80036;stroke-width:1.0;"/><text fill="#000000" font-family="sans-serif" font-size="13" lengthAdjust="spacing" textLength="223" x="320.5" y="403.5591">add activation data to EPC payload</text><polygon fill="#A80036" points="707,446.7578,717,450.7578,707,454.7578,711,450.7578" style="stroke:#A80036;stroke-width:1.0;"/><line style="stroke:#A80036;stroke-width:1.0;" x1="313.5" x2="713" y1="450.7578" y2="450.7578"/><text fill="#000000" font-family="sans-serif" font-size="13" lengthAdjust="spacing" textLength="179" x="320.5" y="445.6919">save RTP in status CREATED</text><polygon fill="#A80036" points="324.5,475.8906,314.5,479.8906,324.5,483.8906,320.5,479.8906" style="stroke:#A80036;stroke-width:1.0;"/><line style="stroke:#A80036;stroke-width:1.0;stroke-dasharray:2.0,2.0;" x1="318.5" x2="723" y1="479.8906" y2="479.8906"/><text fill="#000000" font-family="sans-serif" font-size="13" lengthAdjust="spacing" textLength="49" x="330.5" y="474.8247">created</text><polygon fill="#A80036" points="324.5,505.0234,314.5,509.0234,324.5,513.0234,320.5,509.0234" style="stroke:#A80036;stroke-width:1.0;"/><polygon fill="#A80036" points="885,505.0234,895,509.0234,885,513.0234,889,509.0234" style="stroke:#A80036;stroke-width:1.0;"/><line style="stroke:#A80036;stroke-width:1.0;" x1="318.5" x2="891" y1="509.0234" y2="509.0234"/><text fill="#000000" font-family="sans-serif" font-size="13" lengthAdjust="spacing" textLength="46" x="330.5" y="503.9575">oAuth2</text><polygon fill="#A80036" points="885,539.1563,895,543.1563,885,547.1563,889,543.1563" style="stroke:#A80036;stroke-width:1.0;"/><line style="stroke:#A80036;stroke-width:1.0;" x1="313.5" x2="891" y1="543.1563" y2="543.1563"/><text fill="#000000" font-family="sans-serif" font-size="13" lengthAdjust="spacing" textLength="173" x="320.5" y="538.0903">POST /sepa-request-to-pay</text><path d="M227,522.0234 L227,547.0234 L294,547.0234 L294,532.0234 L284,522.0234 L227,522.0234 " fill="#FBFB77" filter="url(#f15iikxen0m6p2)" style="stroke:#A80036;stroke-width:1.0;"/><path d="M284,522.0234 L284,532.0234 L294,532.0234 L284,522.0234 " fill="#FBFB77" style="stroke:#A80036;stroke-width:1.0;"/><text fill="#000000" font-family="sans-serif" font-size="13" lengthAdjust="spacing" textLength="46" x="233" y="539.0903">oAuth2</text><polygon fill="#A80036" points="324.5,573.2891,314.5,577.2891,324.5,581.2891,320.5,577.2891" style="stroke:#A80036;stroke-width:1.0;"/><line style="stroke:#A80036;stroke-width:1.0;stroke-dasharray:2.0,2.0;" x1="318.5" x2="901" y1="577.2891" y2="577.2891"/><text fill="#000000" font-family="sans-serif" font-size="13" lengthAdjust="spacing" textLength="87" x="330.5" y="572.2231">202 accepted</text><polygon fill="#A80036" points="707,602.4219,717,606.4219,707,610.4219,711,606.4219" style="stroke:#A80036;stroke-width:1.0;"/><line style="stroke:#A80036;stroke-width:1.0;" x1="313.5" x2="713" y1="606.4219" y2="606.4219"/><text fill="#000000" font-family="sans-serif" font-size="13" lengthAdjust="spacing" textLength="154" x="320.5" y="601.356">save RTP in status SENT</text><polygon fill="#A80036" points="324.5,631.5547,314.5,635.5547,324.5,639.5547,320.5,635.5547" style="stroke:#A80036;stroke-width:1.0;"/><line style="stroke:#A80036;stroke-width:1.0;stroke-dasharray:2.0,2.0;" x1="318.5" x2="723" y1="635.5547" y2="635.5547"/><text fill="#000000" font-family="sans-serif" font-size="13" lengthAdjust="spacing" textLength="53" x="330.5" y="630.4888">updated</text><polygon fill="#A80036" points="129.5,660.6875,119.5,664.6875,129.5,668.6875,125.5,664.6875" style="stroke:#A80036;stroke-width:1.0;"/><line style="stroke:#A80036;stroke-width:1.0;stroke-dasharray:2.0,2.0;" x1="123.5" x2="302.5" y1="664.6875" y2="664.6875"/><text fill="#000000" font-family="sans-serif" font-size="13" lengthAdjust="spacing" textLength="77" x="135.5" y="659.6216">201 created</text><line style="stroke:#000000;stroke-width:1.0;stroke-dasharray:2.0,2.0;" x1="61" x2="932.5" y1="673.6875" y2="673.6875"/><text fill="#000000" font-family="sans-serif" font-size="11" font-weight="bold" lengthAdjust="spacing" textLength="180" x="66" y="683.8979">[Service Provider is not CBI]</text><polygon fill="#A80036" points="707,704.625,717,708.625,707,712.625,711,708.625" style="stroke:#A80036;stroke-width:1.0;"/><line style="stroke:#A80036;stroke-width:1.0;" x1="313.5" x2="713" y1="708.625" y2="708.625"/><text fill="#000000" font-family="sans-serif" font-size="13" lengthAdjust="spacing" textLength="154" x="320.5" y="703.5591">save RTP in status SENT</text><polygon fill="#A80036" points="324.5,733.7578,314.5,737.7578,324.5,741.7578,320.5,737.7578" style="stroke:#A80036;stroke-width:1.0;"/><line style="stroke:#A80036;stroke-width:1.0;stroke-dasharray:2.0,2.0;" x1="318.5" x2="723" y1="737.7578" y2="737.7578"/><text fill="#000000" font-family="sans-serif" font-size="13" lengthAdjust="spacing" textLength="53" x="330.5" y="732.6919">updated</text><polygon fill="#A80036" points="129.5,767.8906,119.5,771.8906,129.5,775.8906,125.5,771.8906" style="stroke:#A80036;stroke-width:1.0;"/><line style="stroke:#A80036;stroke-width:1.0;stroke-dasharray:2.0,2.0;" x1="123.5" x2="302.5" y1="771.8906" y2="771.8906"/><text fill="#000000" font-family="sans-serif" font-size="13" lengthAdjust="spacing" textLength="77" x="135.5" y="766.8247">201 created</text><path d="M318,750.7578 L318,775.7578 L530,775.7578 L530,760.7578 L520,750.7578 L318,750.7578 " fill="#FBFB77" filter="url(#f15iikxen0m6p2)" style="stroke:#A80036;stroke-width:1.0;"/><path d="M520,750.7578 L520,760.7578 L530,760.7578 L520,750.7578 " fill="#FBFB77" style="stroke:#A80036;stroke-width:1.0;"/><text fill="#000000" font-family="sans-serif" font-size="13" lengthAdjust="spacing" textLength="191" x="324" y="767.8247">Mocked during CBI integration</text><line style="stroke:#000000;stroke-width:1.0;stroke-dasharray:2.0,2.0;" x1="51" x2="1024.5" y1="792.8906" y2="792.8906"/><text fill="#000000" font-family="sans-serif" font-size="11" font-weight="bold" lengthAdjust="spacing" textLength="127" x="56" y="803.1011">[user not activated]</text><polygon fill="#A80036" points="324.5,823.8281,314.5,827.8281,324.5,831.8281,320.5,827.8281" style="stroke:#A80036;stroke-width:1.0;"/><line style="stroke:#A80036;stroke-width:1.0;stroke-dasharray:2.0,2.0;" x1="318.5" x2="554.5" y1="827.8281" y2="827.8281"/><text fill="#000000" font-family="sans-serif" font-size="13" lengthAdjust="spacing" textLength="89" x="330.5" y="822.7622">404 not found</text><polygon fill="#A80036" points="129.5,852.9609,119.5,856.9609,129.5,860.9609,125.5,856.9609" style="stroke:#A80036;stroke-width:1.0;"/><line style="stroke:#A80036;stroke-width:1.0;stroke-dasharray:2.0,2.0;" x1="123.5" x2="302.5" y1="856.9609" y2="856.9609"/><text fill="#000000" font-family="sans-serif" font-size="13" lengthAdjust="spacing" textLength="161" x="135.5" y="851.895">422 unprocessable entity</text><!--SRC=[lLHDZvim4BtxLupsNBJRA2TKLM83Yd9eYo0vLruy8LOYczecKlvznmu4asHxx0M1v_dDU_E1FKe5Hbja7JTEDhBZoi7BpgA1h4NbNe1Rs6NpSCbRtN58e2vXPL18fmq6P5skvj0rMX-42ZjjFUuISEkA2Uxu1xVewIvemd5uYo9rjIsllFGIdwCvoyQpjjAwWREkvgbNxvj1KyxOBeFakvUNGlchtiAhSPrbIZk44-vT2hnfq5fm-eYAySR9CwUOzyFeuI-lgnJM1LqTeb8h-ze5nJSy-LfN7XoSfB2NIhnVmiT6JB2hp_24950pWNTHVdBG-pwCvo9GZov2Ok1AW7JaSIX8QVHP2bz3Z3N55bfqOzboAcXSWngvQGvmn4iAc_ogWx8ziKUrdcfKiReQRAGFIa3SaXZP7YYBlI9-enATbifz0SrxTrZ4ckjgPlOvwPt7KB47fBH0Wt2hGA3ZGi3Kn416ZOU285JMa-PYmjFWaMH-fc7Rba3ROXrtFP5MHROjyhWCDAB-CSbk38Q-pOmHAf1_2wWy1Pq5zz7CvP7SV1nOYnrF3FxfQQCIfnDI6lTkOA4BK_x5soBCTNSl8ixmcS6w-Bdzfxk-4v-xywXTvYLylPM1uOcMzrc7oCUyI_zFL3oPFtHpH06YDrArNX1bTjYQC2OaNuqUmbvwqTDkFYp9g6ZvjWpGlUwLk9lPMDHoiO1UTKRx_n3_E27GxrUwov1trhuL-mi0]--></g></svg>