<svg xmlns="http://www.w3.org/2000/svg" xmlns:xlink="http://www.w3.org/1999/xlink" contentStyleType="text/css" data-diagram-type="SEQUENCE" height="909.375px" preserveAspectRatio="none" style="width:907px;height:909px;" version="1.1" viewBox="0 0 907 909" width="907.2917px" zoomAndPan="magnify"><title>SRTP Request for Cancellation Flow</title><defs><linearGradient id="gyy4ceojjmsh0" x1="50%" x2="50%" y1="0%" y2="100%"><stop offset="0%" stop-color="#FFFFFF"/><stop offset="100%" stop-color="#FFFFFF"/></linearGradient><filter height="300%" id="fyy4ceojjmsh" width="300%" x="-1" y="-1"><feGaussianBlur result="blurOut" stdDeviation="2.0833"/><feColorMatrix in="blurOut" result="blurOut2" type="matrix" values="0 0 0 0 0 0 0 0 0 0 0 0 0 0 0 0 0 0 .4 0"/><feOffset dx="4.1667" dy="4.1667" in="blurOut2" result="blurOut3"/><feBlend in="SourceGraphic" in2="blurOut3" mode="normal"/></filter><linearGradient id="gyy4ceojjmsh1" x1="50%" x2="50%" y1="0%" y2="100%"><stop offset="0%" stop-color="#4DABF5"/><stop offset="100%" stop-color="#2196F3"/></linearGradient><linearGradient id="gyy4ceojjmsh2" x1="50%" x2="50%" y1="0%" y2="100%"><stop offset="0%" stop-color="#B052C0"/><stop offset="100%" stop-color="#9C27B0"/></linearGradient></defs><g><rect fill="url(#gyy4ceojjmsh0)" height="57.5846" rx="4.1667" ry="4.1667" style="stroke:#CCCCCC;stroke-width:1.0417;" width="453.1026" x="228.2888" y="20.8333"/><text fill="#2196F3" font-family="'Verdana'" font-size="20.8333" font-weight="bold" lengthAdjust="spacing" textLength="419.7693" x="244.9554" y="56.838">SRTP Request for Cancellation Flow</text><g><title>MS-SENDER</title><rect fill="#FFFFFF" filter="url(#fyy4ceojjmsh)" height="611.0352" style="stroke:#1A78C2;stroke-width:1.0417;" width="10.4167" x="124.29" y="183.5938"/></g><g><title>DSP</title><rect fill="#FFFFFF" filter="url(#fyy4ceojjmsh)" height="475.7161" style="stroke:#1A78C2;stroke-width:1.0417;" width="10.4167" x="800.7772" y="239.7786"/></g><rect fill="url(#gyy4ceojjmsh0)" filter="url(#fyy4ceojjmsh)" height="472.5911" rx="4.1667" ry="4.1667" style="stroke:#2196F3;stroke-width:1.0417;" width="869.0552" x="20.8333" y="314.7461"/><path d="M20.8333,485.4492 L889.8885,485.4492 L889.8885,632.2266 A4.1667,4.1667 0 0 1 885.7218,636.3932 L25,636.3932 A4.1667,4.1667 0 0 1 20.8333,632.2266 L20.8333,485.4492" fill="url(#gyy4ceojjmsh0)" style="stroke:none;stroke-width:1.0417;"/><path d="M20.8333,636.3932 L889.8885,636.3932 L889.8885,783.1706 A4.1667,4.1667 0 0 1 885.7218,787.3372 L25,787.3372 A4.1667,4.1667 0 0 1 20.8333,783.1706 L20.8333,636.3932" fill="url(#gyy4ceojjmsh0)" style="stroke:none;stroke-width:1.0417;"/><g><title>MS-SENDER</title><rect fill="#000000" fill-opacity="0.00000" height="631.8685" width="8.3333" x="125.3316" y="173.1771"/><line style="stroke:#CCCCCC;stroke-width:1.0417;stroke-dasharray:5.2083,5.2083;" x1="129.1667" x2="129.1667" y1="173.1771" y2="805.0456"/></g><g><title>RTPS</title><rect fill="#000000" fill-opacity="0.00000" height="631.8685" width="8.3333" x="505.6661" y="173.1771"/><line style="stroke:#CCCCCC;stroke-width:1.0417;stroke-dasharray:5.2083,5.2083;" x1="509.5612" x2="509.5612" y1="173.1771" y2="805.0456"/></g><g><title>DSP</title><rect fill="#000000" fill-opacity="0.00000" height="631.8685" width="8.3333" x="801.8188" y="173.1771"/><line style="stroke:#CCCCCC;stroke-width:1.0417;stroke-dasharray:5.2083,5.2083;" x1="805.4159" x2="805.4159" y1="173.1771" y2="805.0456"/></g><g class="participant participant-head" data-participant="SENDER"><rect fill="url(#gyy4ceojjmsh1)" filter="url(#fyy4ceojjmsh)" height="49.9674" rx="4.1667" ry="4.1667" style="stroke:#2196F3;stroke-width:1.0417;" width="110.0382" x="72.9167" y="119.043"/><text fill="#FFFFFF" font-family="'Verdana'" font-size="12.5" lengthAdjust="spacing" textLength="74.6216" x="90.625" y="148.3541">MS-SENDER</text></g><g class="participant participant-tail" data-participant="SENDER"><rect fill="url(#gyy4ceojjmsh1)" filter="url(#fyy4ceojjmsh)" height="49.9674" rx="4.1667" ry="4.1667" style="stroke:#2196F3;stroke-width:1.0417;" width="110.0382" x="72.9167" y="804.0039"/><text fill="#FFFFFF" font-family="'Verdana'" font-size="12.5" lengthAdjust="spacing" textLength="74.6216" x="90.625" y="833.315">MS-SENDER</text></g><g class="participant participant-head" data-participant="SRTP"><text fill="#222222" font-family="'Verdana'" font-size="12.5" lengthAdjust="spacing" textLength="31.7932" x="490.8112" y="159.8124">RTPS</text><path d="M491.0828,100.293 C491.0828,89.8763 509.8328,89.8763 509.8328,89.8763 C509.8328,89.8763 528.5828,89.8763 528.5828,100.293 L528.5828,127.3763 C528.5828,137.793 509.8328,137.793 509.8328,137.793 C509.8328,137.793 491.0828,137.793 491.0828,127.3763 L491.0828,100.293" fill="url(#gyy4ceojjmsh1)" filter="url(#fyy4ceojjmsh)" style="stroke:#2196F3;stroke-width:1.0417;"/><path d="M491.0828,100.293 C491.0828,110.7096 509.8328,110.7096 509.8328,110.7096 C509.8328,110.7096 528.5828,110.7096 528.5828,100.293" fill="none" style="stroke:#2196F3;stroke-width:1.0417;"/></g><g class="participant participant-tail" data-participant="SRTP"><text fill="#222222" font-family="'Verdana'" font-size="12.5" lengthAdjust="spacing" textLength="31.7932" x="490.8112" y="826.0234">RTPS</text><path d="M491.0828,849.8047 C491.0828,839.388 509.8328,839.388 509.8328,839.388 C509.8328,839.388 528.5828,839.388 528.5828,849.8047 L528.5828,876.888 C528.5828,887.3047 509.8328,887.3047 509.8328,887.3047 C509.8328,887.3047 491.0828,887.3047 491.0828,876.888 L491.0828,849.8047" fill="url(#gyy4ceojjmsh1)" filter="url(#fyy4ceojjmsh)" style="stroke:#2196F3;stroke-width:1.0417;"/><path d="M491.0828,849.8047 C491.0828,860.2214 509.8328,860.2214 509.8328,860.2214 C509.8328,860.2214 528.5828,860.2214 528.5828,849.8047" fill="none" style="stroke:#2196F3;stroke-width:1.0417;"/></g><g class="participant participant-head" data-participant="DSP"><rect fill="url(#gyy4ceojjmsh1)" filter="url(#fyy4ceojjmsh)" height="49.9674" rx="4.1667" ry="4.1667" style="stroke:#2196F3;stroke-width:1.0417;" width="60.5143" x="774.1659" y="119.043"/><text fill="#FFFFFF" font-family="'Verdana'" font-size="12.5" lengthAdjust="spacing" textLength="25.0977" x="791.8742" y="148.3541">DSP</text></g><g class="participant participant-tail" data-participant="DSP"><rect fill="url(#gyy4ceojjmsh1)" filter="url(#fyy4ceojjmsh)" height="49.9674" rx="4.1667" ry="4.1667" style="stroke:#2196F3;stroke-width:1.0417;" width="60.5143" x="774.1659" y="804.0039"/><text fill="#FFFFFF" font-family="'Verdana'" font-size="12.5" lengthAdjust="spacing" textLength="25.0977" x="791.8742" y="833.315">DSP</text></g><g><title>MS-SENDER</title><rect fill="#FFFFFF" filter="url(#fyy4ceojjmsh)" height="611.0352" style="stroke:#1A78C2;stroke-width:1.0417;" width="10.4167" x="124.29" y="183.5938"/></g><g><title>DSP</title><rect fill="#FFFFFF" filter="url(#fyy4ceojjmsh)" height="475.7161" style="stroke:#1A78C2;stroke-width:1.0417;" width="10.4167" x="800.7772" y="239.7786"/></g><g class="message" data-participant-1="SENDER" data-participant-2="DSP"><polygon fill="#2196F3" points="788.2772,235.612,798.6938,239.7786,788.2772,243.9453,792.4438,239.7786" style="stroke:#2196F3;stroke-width:1.0417;"/><line style="stroke:#2196F3;stroke-width:3.125;" x1="134.7066" x2="794.5272" y1="239.7786" y2="239.7786"/><text fill="#222222" font-family="'Verdana'" font-size="12.5" lengthAdjust="spacing" textLength="178.8086" x="152.415" y="209.7799">Send request of cancellation</text><text fill="#222222" font-family="'Verdana'" font-size="12.5" lengthAdjust="spacing" textLength="625.4456" x="152.415" y="224.3306">POST /sepa-request-to-pay-requests/{sepaRequestToPayRequestResourceId}/cancellation-requests</text></g><path d="M664.5833,257.487 L664.5833,293.9453 A4.1667,4.1667 0 0 0 668.75,298.112 L786.4583,298.112 A4.1667,4.1667 0 0 0 790.625,293.9453 L790.625,263.737 L780.2083,253.3203 L668.75,253.3203 A4.1667,4.1667 0 0 0 664.5833,257.487" fill="url(#gyy4ceojjmsh2)" filter="url(#fyy4ceojjmsh)" style="stroke:#9C27B0;stroke-width:1.0417;"/><path d="M780.2083,253.3203 L780.2083,261.6536 A2.0833,2.0833 0 0 0 782.2917,263.737 L790.625,263.737 L780.2083,253.3203" fill="url(#gyy4ceojjmsh2)" style="stroke:#9C27B0;stroke-width:1.0417;"/><text fill="#FFFFFF" font-family="'Verdana'" font-size="12.5" lengthAdjust="spacing" textLength="84.2651" x="681.25" y="280.5481">Retry if failed</text><path d="M25,314.7461 L107.2367,314.7461 L107.2367,341.7969 L96.8201,352.2135 L20.8333,352.2135 L20.8333,318.9128 A4.1667,4.1667 0 0 1 25,314.7461" fill="#FFFFFF" style="stroke:#666666;stroke-width:1.0417;"/><rect fill="none" height="472.5911" rx="4.1667" ry="4.1667" style="stroke:#2196F3;stroke-width:1.0417;" width="869.0552" x="20.8333" y="314.7461"/><text fill="#9C27B0" font-family="'Verdana'" font-size="12.5" font-weight="bold" lengthAdjust="spacing" textLength="18.6951" x="46.875" y="337.8072">alt</text><text fill="#222222" font-family="'Verdana'" font-size="12.5" font-weight="bold" lengthAdjust="spacing" textLength="118.4326" x="133.2784" y="338.8489">[Async flow EPC]</text><g class="message" data-participant-1="DSP" data-participant-2="SENDER"><polygon fill="#2196F3" points="146.165,409.4401,135.7483,413.6068,146.165,417.7734,141.9983,413.6068" style="stroke:#2196F3;stroke-width:1.0417;"/><line style="stroke:#2196F3;stroke-width:3.125;stroke-dasharray:2.0833,2.0833;" x1="139.915" x2="799.7355" y1="413.6068" y2="413.6068"/><text fill="#222222" font-family="'Verdana'" font-size="12.5" lengthAdjust="spacing" textLength="97.6379" x="162.8316" y="398.1588">OK empty Body</text></g><g class="message" data-participant-1="SENDER" data-participant-2="SENDER"><line style="stroke:#2196F3;stroke-width:3.125;" x1="134.7066" x2="178.4566" y1="463.5742" y2="463.5742"/><line style="stroke:#2196F3;stroke-width:3.125;" x1="178.4566" x2="178.4566" y1="463.5742" y2="477.1159"/><line style="stroke:#2196F3;stroke-width:3.125;" x1="135.7483" x2="178.4566" y1="477.1159" y2="477.1159"/><polygon fill="#2196F3" points="146.165,472.9492,135.7483,477.1159,146.165,481.2826,141.9983,477.1159" style="stroke:#2196F3;stroke-width:1.0417;"/><text fill="#222222" font-family="'Verdana'" font-size="12.5" lengthAdjust="spacing" textLength="191.6565" x="152.415" y="448.1262">update RTP status (RFC_SENT)</text></g><line style="stroke:#2196F3;stroke-width:1.0417;stroke-dasharray:2.0833,2.0833;" x1="20.8333" x2="889.8885" y1="486.4909" y2="486.4909"/><text fill="#222222" font-family="'Verdana'" font-size="12.5" font-weight="bold" lengthAdjust="spacing" textLength="110.321" x="36.4583" y="508.5103">[Sync flow EPC]</text><g class="message" data-participant-1="DSP" data-participant-2="SENDER"><polygon fill="#2196F3" points="146.165,560.3841,135.7483,564.5508,146.165,568.7174,141.9983,564.5508" style="stroke:#2196F3;stroke-width:1.0417;"/><line style="stroke:#2196F3;stroke-width:3.125;stroke-dasharray:2.0833,2.0833;" x1="139.915" x2="799.7355" y1="564.5508" y2="564.5508"/><text fill="#222222" font-family="'Verdana'" font-size="12.5" lengthAdjust="spacing" textLength="71.7163" x="162.8316" y="549.1028">OK payload</text></g><g class="message" data-participant-1="SENDER" data-participant-2="SENDER"><line style="stroke:#2196F3;stroke-width:3.125;" x1="134.7066" x2="178.4566" y1="614.5182" y2="614.5182"/><line style="stroke:#2196F3;stroke-width:3.125;" x1="178.4566" x2="178.4566" y1="614.5182" y2="628.0599"/><line style="stroke:#2196F3;stroke-width:3.125;" x1="135.7483" x2="178.4566" y1="628.0599" y2="628.0599"/><polygon fill="#2196F3" points="146.165,623.8932,135.7483,628.0599,146.165,632.2266,141.9983,628.0599" style="stroke:#2196F3;stroke-width:1.0417;"/><text fill="#222222" font-family="'Verdana'" font-size="12.5" lengthAdjust="spacing" textLength="298.5291" x="152.415" y="599.0702">update RTP status (Update status: CANCELLED)</text></g><line style="stroke:#2196F3;stroke-width:1.0417;stroke-dasharray:2.0833,2.0833;" x1="20.8333" x2="889.8885" y1="637.4349" y2="637.4349"/><text fill="#222222" font-family="'Verdana'" font-size="12.5" font-weight="bold" lengthAdjust="spacing" textLength="157.1045" x="36.4583" y="659.4543">[Error Sync Response]</text><g class="message" data-participant-1="DSP" data-participant-2="SENDER"><polygon fill="#2196F3" points="146.165,711.3281,135.7483,715.4948,146.165,719.6615,141.9983,715.4948" style="stroke:#2196F3;stroke-width:1.0417;"/><line style="stroke:#2196F3;stroke-width:3.125;stroke-dasharray:2.0833,2.0833;" x1="139.915" x2="804.9438" y1="715.4948" y2="715.4948"/><text fill="#222222" font-family="'Verdana'" font-size="12.5" lengthAdjust="spacing" textLength="30.9631" x="162.8316" y="700.0468">Error</text></g><g class="message" data-participant-1="SENDER" data-participant-2="SENDER"><line style="stroke:#2196F3;stroke-width:3.125;" x1="134.7066" x2="178.4566" y1="765.4622" y2="765.4622"/><line style="stroke:#2196F3;stroke-width:3.125;" x1="178.4566" x2="178.4566" y1="765.4622" y2="779.0039"/><line style="stroke:#2196F3;stroke-width:3.125;" x1="135.7483" x2="178.4566" y1="779.0039" y2="779.0039"/><polygon fill="#2196F3" points="146.165,774.8372,135.7483,779.0039,146.165,783.1706,141.9983,779.0039" style="stroke:#2196F3;stroke-width:1.0417;"/><text fill="#222222" font-family="'Verdana'" font-size="12.5" lengthAdjust="spacing" textLength="324.0845" x="152.415" y="750.0142">update RTP status (Update status: ERROR_CANCEL)</text></g><!--SRC=[dL9DZzCm4BtxLmozB7j8k-BO0r99icX5TnibMKv8go6PR2svTh3TNKM8_yuuJcYBa43aul5ylFVcELTGADJ-yNuBcSHdYmVeZ8MoBg0YtSAck1DNK4klQ0qPUPIAsbEvecz7qWtDmzpxcQoJHg_XtV9cUSE9Z5nZPU_7PBsN3jg9oUtDgmE_9sXdPAazMOqAUciQScvKuvXAwcV6klXGZqAmun7uc1LWUh8OUE05bMp7S2d46sOu41oG-oGAuSCsK8NPCkXtVcH9aHTHAWBSAlCgH8_MoqRsx10ixgkaoX-ol5m0EeYXO1ByYevWmN1Lh71qEPbLnLZXKmXil7nXAJD2F21v7yhhQAkTP9aEcZDLNtIngsfOEUencNeIRv8UX_dgLjz3TTghDWKEKroICqVRq5txOtKE-clof2per8O3HTqe8YI0pV9s0Db1DxwL24f36- -aF6pSe1les3V8YvJRUGWINYikk8RT9w13xmVuODg1wwV5vuvZtmRwy33EepywU5lUfazShgy5ANQv-Zi7cw4CjlzAy1XJyRg6TFEGvjjjdas4kRNyQuoqR61ljAC_q8vTd6_fmiF_av2NvQvyYaAknM-GmVEeYPqvBqRydm00]--></g></svg>