<?xml version="1.0" encoding="us-ascii" standalone="no"?><svg xmlns="http://www.w3.org/2000/svg" xmlns:xlink="http://www.w3.org/1999/xlink" contentStyleType="text/css" height="2922.9167px" preserveAspectRatio="none" style="width:1841px;height:2922px;" version="1.1" viewBox="0 0 1841 2922" width="1841.6667px" zoomAndPan="magnify"><defs><linearGradient id="g1h8lp2igi9bm30" x1="50%" x2="50%" y1="0%" y2="100%"><stop offset="0%" stop-color="#FFFFFF"/><stop offset="100%" stop-color="#FFFFFF"/></linearGradient><filter height="300%" id="f1h8lp2igi9bm3" width="300%" x="-1" y="-1"><feGaussianBlur result="blurOut" stdDeviation="2.0833333333333335"/><feColorMatrix in="blurOut" result="blurOut2" type="matrix" values="0 0 0 0 0 0 0 0 0 0 0 0 0 0 0 0 0 0 .4 0"/><feOffset dx="4.166666666666667" dy="4.166666666666667" in="blurOut2" result="blurOut3"/><feBlend in="SourceGraphic" in2="blurOut3" mode="normal"/></filter><linearGradient id="g1h8lp2igi9bm31" x1="50%" x2="50%" y1="0%" y2="100%"><stop offset="0%" stop-color="#4DABF5"/><stop offset="100%" stop-color="#2196F3"/></linearGradient><linearGradient id="g1h8lp2igi9bm32" x1="50%" x2="50%" y1="0%" y2="100%"><stop offset="0%" stop-color="#B052C0"/><stop offset="100%" stop-color="#9C27B0"/></linearGradient></defs><g><rect fill="url(#g1h8lp2igi9bm30)" height="57.5846" id="_title" rx="4.1667" ry="4.1667" style="stroke:#CCCCCC;stroke-width:1.0416666666666667;" width="667.7083" x="593.2292" y="20.8333"/><text fill="#2196F3" font-family="Verdana" font-size="20.8333" font-weight="bold" lengthAdjust="spacing" textLength="634.375" x="609.8958" y="56.838">RTP Activation API: POST /activations/takeover/{otp}</text><rect fill="#FFFFFF" filter="url(#f1h8lp2igi9bm3)" height="2545.8984" style="stroke:#CCCCCC;stroke-width:1.0416666666666667;" width="10.4167" x="835.9375" y="258.5286"/><rect fill="#FFFFFF" filter="url(#f1h8lp2igi9bm3)" height="114.4857" style="stroke:#CCCCCC;stroke-width:1.0416666666666667;" width="10.4167" x="1271.3542" y="1097.4935"/><rect fill="#FFFFFF" filter="url(#f1h8lp2igi9bm3)" height="49.9674" style="stroke:#CCCCCC;stroke-width:1.0416666666666667;" width="10.4167" x="1418.75" y="524.9674"/><rect fill="#FFFFFF" filter="url(#f1h8lp2igi9bm3)" height="49.9674" style="stroke:#CCCCCC;stroke-width:1.0416666666666667;" width="10.4167" x="1418.75" y="624.9023"/><rect fill="#FFFFFF" filter="url(#f1h8lp2igi9bm3)" height="49.9674" style="stroke:#CCCCCC;stroke-width:1.0416666666666667;" width="10.4167" x="1418.75" y="724.8372"/><rect fill="#FFFFFF" filter="url(#f1h8lp2igi9bm3)" height="49.9674" style="stroke:#CCCCCC;stroke-width:1.0416666666666667;" width="10.4167" x="1418.75" y="888.2813"/><rect fill="#FFFFFF" filter="url(#f1h8lp2igi9bm3)" height="182.0638" style="stroke:#CCCCCC;stroke-width:1.0416666666666667;" width="10.4167" x="1418.75" y="1547.1354"/><rect fill="#FFFFFF" filter="url(#f1h8lp2igi9bm3)" height="49.9674" style="stroke:#CCCCCC;stroke-width:1.0416666666666667;" width="10.4167" x="1418.75" y="1969.6289"/><rect fill="#FFFFFF" filter="url(#f1h8lp2igi9bm3)" height="49.9674" style="stroke:#CCCCCC;stroke-width:1.0416666666666667;" width="10.4167" x="1418.75" y="2230.8919"/><rect fill="url(#g1h8lp2igi9bm30)" filter="url(#f1h8lp2igi9bm3)" height="1843.2617" rx="4.1667" ry="4.1667" style="stroke:#2196F3;stroke-width:1.0416666666666667;" width="1793.75" x="30.2083" y="953.8737"/><rect fill="url(#g1h8lp2igi9bm30)" filter="url(#f1h8lp2igi9bm3)" height="746.1914" rx="4.1667" ry="4.1667" style="stroke:#2196F3;stroke-width:1.0416666666666667;" width="1129.6875" x="683.8542" y="998.6328"/><rect fill="#B3FFB3" filter="url(#f1h8lp2igi9bm3)" height="246.6797" rx="4.1667" ry="4.1667" style="stroke:#2196F3;stroke-width:1.0416666666666667;" width="690.625" x="694.2708" y="1113.1185"/><rect fill="url(#g1h8lp2igi9bm30)" filter="url(#f1h8lp2igi9bm3)" height="124.9023" rx="4.1667" ry="4.1667" style="stroke:#2196F3;stroke-width:1.0416666666666667;" width="669.7917" x="704.6875" y="1227.6042"/><path d="M704.6875,1265.0716 L1374.4792,1265.0716 L1374.4792,1348.3398 A4.1667,4.1667 0 0 1 1370.3125,1352.5065 L708.8542,1352.5065 A4.1667,4.1667 0 0 1 704.6875,1348.3398 L704.6875,1265.0716 " fill="#FFE0B3" style="stroke:none;stroke-width:1.0416666666666667;"/><rect fill="#FFCDD2" filter="url(#f1h8lp2igi9bm3)" height="363.151" rx="4.1667" ry="4.1667" style="stroke:#2196F3;stroke-width:1.0416666666666667;" width="1098.4375" x="704.6875" y="1374.3815"/><path d="M30.2083,1890.5273 L1823.9583,1890.5273 L1823.9583,2147.6237 A4.1667,4.1667 0 0 1 1819.7917,2151.7904 L34.375,2151.7904 A4.1667,4.1667 0 0 1 30.2083,2147.6237 L30.2083,1890.5273 " fill="#FFFFE0" style="stroke:none;stroke-width:1.0416666666666667;"/><path d="M30.2083,2151.7904 L1823.9583,2151.7904 L1823.9583,2408.8867 A4.1667,4.1667 0 0 1 1819.7917,2413.0534 L34.375,2413.0534 A4.1667,4.1667 0 0 1 30.2083,2408.8867 L30.2083,2151.7904 " fill="#FFA500" style="stroke:none;stroke-width:1.0416666666666667;"/><path d="M30.2083,2413.0534 L1823.9583,2413.0534 L1823.9583,2792.9688 A4.1667,4.1667 0 0 1 1819.7917,2797.1354 L34.375,2797.1354 A4.1667,4.1667 0 0 1 30.2083,2792.9688 L30.2083,2413.0534 " fill="#8B0000" style="stroke:none;stroke-width:1.0416666666666667;"/><rect fill="url(#g1h8lp2igi9bm30)" filter="url(#f1h8lp2igi9bm3)" height="166.5039" rx="4.1667" ry="4.1667" style="stroke:#2196F3;stroke-width:1.0416666666666667;" width="670.3125" x="307.2917" y="2457.8125"/><rect fill="url(#g1h8lp2igi9bm30)" filter="url(#f1h8lp2igi9bm3)" height="150.944" rx="4.1667" ry="4.1667" style="stroke:#2196F3;stroke-width:1.0416666666666667;" width="1157.8125" x="307.2917" y="2638.8997"/><line style="stroke:#CCCCCC;stroke-width:1.0416666666666667;stroke-dasharray:5.0,5.0;" x1="408.3333" x2="408.3333" y1="191.9271" y2="2814.8438"/><line style="stroke:#CCCCCC;stroke-width:1.0416666666666667;stroke-dasharray:5.0,5.0;" x1="841.1458" x2="841.1458" y1="191.9271" y2="2814.8438"/><line style="stroke:#CCCCCC;stroke-width:1.0416666666666667;stroke-dasharray:5.0,5.0;" x1="1276.5625" x2="1276.5625" y1="191.9271" y2="2814.8438"/><line style="stroke:#CCCCCC;stroke-width:1.0416666666666667;stroke-dasharray:5.0,5.0;" x1="1423.4375" x2="1423.4375" y1="191.9271" y2="2814.8438"/><text fill="#222222" font-family="Verdana" font-size="12.5" font-weight="bold" lengthAdjust="spacing" textLength="155.2083" x="328.125" y="178.5624">New Service Provider</text><ellipse cx="408.8542" cy="99.2513" fill="url(#g1h8lp2igi9bm31)" filter="url(#f1h8lp2igi9bm3)" rx="8.3333" ry="8.3333" style="stroke:#2196F3;stroke-width:1.0416666666666667;"/><path d="M408.8542,107.5846 L408.8542,135.7096 M395.3125,115.918 L422.3958,115.918 M408.8542,135.7096 L395.3125,151.3346 M408.8542,135.7096 L422.3958,151.3346 " fill="none" filter="url(#f1h8lp2igi9bm3)" style="stroke:#2196F3;stroke-width:1.0416666666666667;"/><text fill="#222222" font-family="Verdana" font-size="12.5" font-weight="bold" lengthAdjust="spacing" textLength="155.2083" x="328.125" y="2835.8215">New Service Provider</text><ellipse cx="408.8542" cy="2858.5612" fill="url(#g1h8lp2igi9bm31)" filter="url(#f1h8lp2igi9bm3)" rx="8.3333" ry="8.3333" style="stroke:#2196F3;stroke-width:1.0416666666666667;"/><path d="M408.8542,2866.8945 L408.8542,2895.0195 M395.3125,2875.2279 L422.3958,2875.2279 M408.8542,2895.0195 L395.3125,2910.6445 M408.8542,2895.0195 L422.3958,2910.6445 " fill="none" filter="url(#f1h8lp2igi9bm3)" style="stroke:#2196F3;stroke-width:1.0416666666666667;"/><rect fill="url(#g1h8lp2igi9bm31)" filter="url(#f1h8lp2igi9bm3)" height="49.9674" rx="4.1667" ry="4.1667" style="stroke:#2196F3;stroke-width:1.0416666666666667;" width="165.625" x="756.7708" y="137.793"/><text fill="#FFFFFF" font-family="Verdana" font-size="12.5" font-weight="bold" lengthAdjust="spacing" textLength="130.2083" x="774.4792" y="167.1041">Activation Service</text><rect fill="url(#g1h8lp2igi9bm31)" filter="url(#f1h8lp2igi9bm3)" height="49.9674" rx="4.1667" ry="4.1667" style="stroke:#2196F3;stroke-width:1.0416666666666667;" width="165.625" x="756.7708" y="2813.8021"/><text fill="#FFFFFF" font-family="Verdana" font-size="12.5" font-weight="bold" lengthAdjust="spacing" textLength="130.2083" x="774.4792" y="2843.1132">Activation Service</text><text fill="#222222" font-family="Verdana" font-size="12.5" font-weight="bold" lengthAdjust="spacing" textLength="147.9167" x="1199.4792" y="178.5624">Old Service Provider</text><ellipse cx="1276.5625" cy="99.2513" fill="url(#g1h8lp2igi9bm31)" filter="url(#f1h8lp2igi9bm3)" rx="8.3333" ry="8.3333" style="stroke:#2196F3;stroke-width:1.0416666666666667;"/><path d="M1276.5625,107.5846 L1276.5625,135.7096 M1263.0208,115.918 L1290.1042,115.918 M1276.5625,135.7096 L1263.0208,151.3346 M1276.5625,135.7096 L1290.1042,151.3346 " fill="none" filter="url(#f1h8lp2igi9bm3)" style="stroke:#2196F3;stroke-width:1.0416666666666667;"/><text fill="#222222" font-family="Verdana" font-size="12.5" font-weight="bold" lengthAdjust="spacing" textLength="147.9167" x="1199.4792" y="2835.8215">Old Service Provider</text><ellipse cx="1276.5625" cy="2858.5612" fill="url(#g1h8lp2igi9bm31)" filter="url(#f1h8lp2igi9bm3)" rx="8.3333" ry="8.3333" style="stroke:#2196F3;stroke-width:1.0416666666666667;"/><path d="M1276.5625,2866.8945 L1276.5625,2895.0195 M1263.0208,2875.2279 L1290.1042,2875.2279 M1276.5625,2895.0195 L1263.0208,2910.6445 M1276.5625,2895.0195 L1290.1042,2910.6445 " fill="none" filter="url(#f1h8lp2igi9bm3)" style="stroke:#2196F3;stroke-width:1.0416666666666667;"/><text fill="#222222" font-family="Verdana" font-size="12.5" font-weight="bold" lengthAdjust="spacing" textLength="71.875" x="1384.8958" y="178.5624">Database</text><path d="M1405.2083,119.043 C1405.2083,108.6263 1423.9583,108.6263 1423.9583,108.6263 C1423.9583,108.6263 1442.7083,108.6263 1442.7083,119.043 L1442.7083,146.1263 C1442.7083,156.543 1423.9583,156.543 1423.9583,156.543 C1423.9583,156.543 1405.2083,156.543 1405.2083,146.1263 L1405.2083,119.043 " fill="url(#g1h8lp2igi9bm31)" filter="url(#f1h8lp2igi9bm3)" style="stroke:#2196F3;stroke-width:1.5625;"/><path d="M1405.2083,119.043 C1405.2083,129.4596 1423.9583,129.4596 1423.9583,129.4596 C1423.9583,129.4596 1442.7083,129.4596 1442.7083,119.043 " fill="none" style="stroke:#2196F3;stroke-width:1.5625;"/><text fill="#222222" font-family="Verdana" font-size="12.5" font-weight="bold" lengthAdjust="spacing" textLength="71.875" x="1384.8958" y="2835.8215">Database</text><path d="M1405.2083,2859.6029 C1405.2083,2849.1862 1423.9583,2849.1862 1423.9583,2849.1862 C1423.9583,2849.1862 1442.7083,2849.1862 1442.7083,2859.6029 L1442.7083,2886.6862 C1442.7083,2897.1029 1423.9583,2897.1029 1423.9583,2897.1029 C1423.9583,2897.1029 1405.2083,2897.1029 1405.2083,2886.6862 L1405.2083,2859.6029 " fill="url(#g1h8lp2igi9bm31)" filter="url(#f1h8lp2igi9bm3)" style="stroke:#2196F3;stroke-width:1.5625;"/><path d="M1405.2083,2859.6029 C1405.2083,2870.0195 1423.9583,2870.0195 1423.9583,2870.0195 C1423.9583,2870.0195 1442.7083,2870.0195 1442.7083,2859.6029 " fill="none" style="stroke:#2196F3;stroke-width:1.5625;"/><rect fill="#FFFFFF" filter="url(#f1h8lp2igi9bm3)" height="2545.8984" style="stroke:#CCCCCC;stroke-width:1.0416666666666667;" width="10.4167" x="835.9375" y="258.5286"/><rect fill="#FFFFFF" filter="url(#f1h8lp2igi9bm3)" height="114.4857" style="stroke:#CCCCCC;stroke-width:1.0416666666666667;" width="10.4167" x="1271.3542" y="1097.4935"/><rect fill="#FFFFFF" filter="url(#f1h8lp2igi9bm3)" height="49.9674" style="stroke:#CCCCCC;stroke-width:1.0416666666666667;" width="10.4167" x="1418.75" y="524.9674"/><rect fill="#FFFFFF" filter="url(#f1h8lp2igi9bm3)" height="49.9674" style="stroke:#CCCCCC;stroke-width:1.0416666666666667;" width="10.4167" x="1418.75" y="624.9023"/><rect fill="#FFFFFF" filter="url(#f1h8lp2igi9bm3)" height="49.9674" style="stroke:#CCCCCC;stroke-width:1.0416666666666667;" width="10.4167" x="1418.75" y="724.8372"/><rect fill="#FFFFFF" filter="url(#f1h8lp2igi9bm3)" height="49.9674" style="stroke:#CCCCCC;stroke-width:1.0416666666666667;" width="10.4167" x="1418.75" y="888.2813"/><rect fill="#FFFFFF" filter="url(#f1h8lp2igi9bm3)" height="182.0638" style="stroke:#CCCCCC;stroke-width:1.0416666666666667;" width="10.4167" x="1418.75" y="1547.1354"/><rect fill="#FFFFFF" filter="url(#f1h8lp2igi9bm3)" height="49.9674" style="stroke:#CCCCCC;stroke-width:1.0416666666666667;" width="10.4167" x="1418.75" y="1969.6289"/><rect fill="#FFFFFF" filter="url(#f1h8lp2igi9bm3)" height="49.9674" style="stroke:#CCCCCC;stroke-width:1.0416666666666667;" width="10.4167" x="1418.75" y="2230.8919"/><polygon fill="#2196F3" points="823.4375,254.362,833.8542,258.5286,823.4375,262.6953,827.6042,258.5286" style="stroke:#2196F3;stroke-width:1.0416666666666667;"/><line style="stroke:#2196F3;stroke-width:3.125;" x1="408.8542" x2="829.6875" y1="258.5286" y2="258.5286"/><text fill="#222222" font-family="Verdana" font-size="12.5" font-weight="bold" lengthAdjust="spacing" textLength="18.75" x="426.5625" y="235.8053">[1]</text><text fill="#222222" font-family="Verdana" font-size="12.5" font-weight="bold" lengthAdjust="spacing" textLength="38.5417" x="470.3125" y="228.5299">POST</text><text fill="#222222" font-family="Verdana" font-size="12.5" lengthAdjust="spacing" textLength="179.1667" x="513.0208" y="228.5299">/activations/takeover/{otp}</text><text fill="#222222" font-family="Verdana" font-size="12.5" lengthAdjust="spacing" textLength="257.2917" x="470.3125" y="243.0806">(Take over an existing Payer activation)</text><path d="M851.0417,276.237 L851.0417,341.862 A4.1667,4.1667 0 0 0 855.2083,346.0286 L1225,346.0286 A4.1667,4.1667 0 0 0 1229.1667,341.862 L1229.1667,282.487 L1218.75,272.0703 L855.2083,272.0703 A4.1667,4.1667 0 0 0 851.0417,276.237 " fill="url(#g1h8lp2igi9bm32)" filter="url(#f1h8lp2igi9bm3)" style="stroke:#9C27B0;stroke-width:1.0416666666666667;"/><path d="M1218.75,272.0703 L1218.75,280.4036 A2.0833,2.0833 0 0 0 1220.8333,282.487 L1229.1667,282.487 L1218.75,272.0703 " fill="url(#g1h8lp2igi9bm32)" style="stroke:#9C27B0;stroke-width:1.0416666666666667;"/><text fill="#FFFFFF" font-family="Verdana" font-size="12.5" font-weight="bold" lengthAdjust="spacing" textLength="80.2083" x="867.7083" y="299.2981">Operation:</text><text fill="#FFFFFF" font-family="Verdana" font-size="12.5" lengthAdjust="spacing" textLength="106.25" x="952.0833" y="299.2981">`takeoverPayer`</text><text fill="#FFFFFF" font-family="Verdana" font-size="12.5" lengthAdjust="spacing" textLength="335.4167" x="867.7083" y="313.8489">A new SP calls this to assume control of an existing</text><text fill="#FFFFFF" font-family="Verdana" font-size="12.5" lengthAdjust="spacing" textLength="235.4167" x="867.7083" y="328.3997">activation and notify the original SP.</text><line style="stroke:#2196F3;stroke-width:3.125;" x1="846.3542" x2="890.1042" y1="396.9401" y2="396.9401"/><line style="stroke:#2196F3;stroke-width:3.125;" x1="890.1042" x2="890.1042" y1="396.9401" y2="410.4818"/><line style="stroke:#2196F3;stroke-width:3.125;" x1="847.3958" x2="890.1042" y1="410.4818" y2="410.4818"/><polygon fill="#2196F3" points="857.8125,406.3151,847.3958,410.4818,857.8125,414.6484,853.6458,410.4818" style="stroke:#2196F3;stroke-width:1.0416666666666667;"/><text fill="#222222" font-family="Verdana" font-size="12.5" font-weight="bold" lengthAdjust="spacing" textLength="18.75" x="864.0625" y="381.4921">[2]</text><text fill="#222222" font-family="Verdana" font-size="12.5" lengthAdjust="spacing" textLength="327.0833" x="907.8125" y="381.4921">Validate Request &amp; Security Token (get `subject`)</text><polygon fill="#2196F3" points="1406.25,520.8008,1416.6667,524.9674,1406.25,529.1341,1410.4167,524.9674" style="stroke:#2196F3;stroke-width:1.0416666666666667;"/><line style="stroke:#2196F3;stroke-width:3.125;" x1="846.3542" x2="1412.5" y1="524.9674" y2="524.9674"/><text fill="#222222" font-family="Verdana" font-size="12.5" font-weight="bold" lengthAdjust="spacing" textLength="18.75" x="864.0625" y="509.5194">[3]</text><text fill="#222222" font-family="Verdana" font-size="12.5" lengthAdjust="spacing" textLength="53.125" x="907.8125" y="509.5194">Redeem</text><polygon fill="#2196F3" points="857.8125,570.7682,847.3958,574.9349,857.8125,579.1016,853.6458,574.9349" style="stroke:#2196F3;stroke-width:1.0416666666666667;"/><line style="stroke:#2196F3;stroke-width:3.125;stroke-dasharray:2.0,2.0;" x1="851.5625" x2="1422.9167" y1="574.9349" y2="574.9349"/><text fill="#222222" font-family="Verdana" font-size="12.5" font-weight="bold" lengthAdjust="spacing" textLength="18.75" x="874.4792" y="559.4869">[4]</text><text fill="#222222" font-family="Verdana" font-size="12.5" lengthAdjust="spacing" textLength="297.9167" x="918.2292" y="559.4869">Return `TakeOverOtp` (contains `fiscalCode`)</text><polygon fill="#2196F3" points="1406.25,620.7357,1416.6667,624.9023,1406.25,629.069,1410.4167,624.9023" style="stroke:#2196F3;stroke-width:1.0416666666666667;"/><line style="stroke:#2196F3;stroke-width:3.125;" x1="846.3542" x2="1412.5" y1="624.9023" y2="624.9023"/><text fill="#222222" font-family="Verdana" font-size="12.5" font-weight="bold" lengthAdjust="spacing" textLength="18.75" x="864.0625" y="609.4543">[5]</text><text fill="#222222" font-family="Verdana" font-size="12.5" lengthAdjust="spacing" textLength="134.375" x="907.8125" y="609.4543">Search for the Payer</text><polygon fill="#2196F3" points="857.8125,670.7031,847.3958,674.8698,857.8125,679.0365,853.6458,674.8698" style="stroke:#2196F3;stroke-width:1.0416666666666667;"/><line style="stroke:#2196F3;stroke-width:3.125;stroke-dasharray:2.0,2.0;" x1="851.5625" x2="1422.9167" y1="674.8698" y2="674.8698"/><text fill="#222222" font-family="Verdana" font-size="12.5" font-weight="bold" lengthAdjust="spacing" textLength="18.75" x="874.4792" y="659.4218">[6]</text><text fill="#222222" font-family="Verdana" font-size="12.5" lengthAdjust="spacing" textLength="255.2083" x="918.2292" y="659.4218">Return the Payer (contains Old SP info)</text><polygon fill="#2196F3" points="1406.25,720.6706,1416.6667,724.8372,1406.25,729.0039,1410.4167,724.8372" style="stroke:#2196F3;stroke-width:1.0416666666666667;"/><line style="stroke:#2196F3;stroke-width:3.125;" x1="846.3542" x2="1412.5" y1="724.8372" y2="724.8372"/><text fill="#222222" font-family="Verdana" font-size="12.5" font-weight="bold" lengthAdjust="spacing" textLength="18.75" x="864.0625" y="709.3892">[7]</text><text fill="#222222" font-family="Verdana" font-size="12.5" lengthAdjust="spacing" textLength="136.4583" x="907.8125" y="709.3892">Deactivate the Payer</text><polygon fill="#2196F3" points="857.8125,770.638,847.3958,774.8047,857.8125,778.9714,853.6458,774.8047" style="stroke:#2196F3;stroke-width:1.0416666666666667;"/><line style="stroke:#2196F3;stroke-width:3.125;stroke-dasharray:2.0,2.0;" x1="851.5625" x2="1422.9167" y1="774.8047" y2="774.8047"/><text fill="#222222" font-family="Verdana" font-size="12.5" font-weight="bold" lengthAdjust="spacing" textLength="18.75" x="874.4792" y="759.3567">[8]</text><text fill="#222222" font-family="Verdana" font-size="12.5" lengthAdjust="spacing" textLength="179.1667" x="918.2292" y="759.3567">Deactivation Acknowledged</text><line style="stroke:#2196F3;stroke-width:3.125;" x1="846.3542" x2="890.1042" y1="824.7721" y2="824.7721"/><line style="stroke:#2196F3;stroke-width:3.125;" x1="890.1042" x2="890.1042" y1="824.7721" y2="838.3138"/><line style="stroke:#2196F3;stroke-width:3.125;" x1="847.3958" x2="890.1042" y1="838.3138" y2="838.3138"/><polygon fill="#2196F3" points="857.8125,834.1471,847.3958,838.3138,857.8125,842.4805,853.6458,838.3138" style="stroke:#2196F3;stroke-width:1.0416666666666667;"/><text fill="#222222" font-family="Verdana" font-size="12.5" font-weight="bold" lengthAdjust="spacing" textLength="18.75" x="864.0625" y="809.3241">[9]</text><text fill="#222222" font-family="Verdana" font-size="12.5" lengthAdjust="spacing" textLength="345.8333" x="907.8125" y="809.3241">Create new `Payer` object for the new SP (`subject`)</text><polygon fill="#2196F3" points="1406.25,884.1146,1416.6667,888.2813,1406.25,892.4479,1410.4167,888.2813" style="stroke:#2196F3;stroke-width:1.0416666666666667;"/><line style="stroke:#2196F3;stroke-width:3.125;" x1="846.3542" x2="1412.5" y1="888.2813" y2="888.2813"/><text fill="#222222" font-family="Verdana" font-size="12.5" font-weight="bold" lengthAdjust="spacing" textLength="27.0833" x="864.0625" y="872.8333">[10]</text><text fill="#222222" font-family="Verdana" font-size="12.5" lengthAdjust="spacing" textLength="114.5833" x="916.1458" y="872.8333">Save new `Payer`</text><polygon fill="#2196F3" points="857.8125,934.082,847.3958,938.2487,857.8125,942.4154,853.6458,938.2487" style="stroke:#2196F3;stroke-width:1.0416666666666667;"/><line style="stroke:#2196F3;stroke-width:3.125;stroke-dasharray:2.0,2.0;" x1="851.5625" x2="1422.9167" y1="938.2487" y2="938.2487"/><text fill="#222222" font-family="Verdana" font-size="12.5" font-weight="bold" lengthAdjust="spacing" textLength="27.0833" x="874.4792" y="922.8007">[11]</text><text fill="#222222" font-family="Verdana" font-size="12.5" lengthAdjust="spacing" textLength="192.7083" x="926.5625" y="922.8007">New Payer saved successfully</text><path d="M34.375,953.8737 L423.9583,953.8737 L423.9583,980.9245 L413.5417,991.3411 L30.2083,991.3411 L30.2083,958.0404 A4.1667,4.1667 0 0 1 34.375,953.8737 " fill="#FFFFFF" style="stroke:#666666;stroke-width:1.0416666666666667;"/><rect fill="none" height="1843.2617" rx="4.1667" ry="4.1667" style="stroke:#2196F3;stroke-width:1.0416666666666667;" width="1793.75" x="30.2083" y="953.8737"/><text fill="#9C27B0" font-family="Verdana" font-size="12.5" font-weight="bold" lengthAdjust="spacing" textLength="326.0417" x="56.25" y="976.9348">Resilient Notification to Old Service Provider</text><path d="M688.0208,998.6328 L783.8542,998.6328 L783.8542,1025.6836 L773.4375,1036.1003 L683.8542,1036.1003 L683.8542,1002.7995 A4.1667,4.1667 0 0 1 688.0208,998.6328 " fill="#FFFFFF" style="stroke:#666666;stroke-width:1.0416666666666667;"/><rect fill="none" height="746.1914" rx="4.1667" ry="4.1667" style="stroke:#2196F3;stroke-width:1.0416666666666667;" width="1129.6875" x="683.8542" y="998.6328"/><text fill="#9C27B0" font-family="Verdana" font-size="12.5" font-weight="bold" lengthAdjust="spacing" textLength="32.2917" x="709.8958" y="1021.6939">loop</text><text fill="#222222" font-family="Verdana" font-size="12.5" font-weight="bold" lengthAdjust="spacing" textLength="207.2917" x="809.8958" y="1022.7356">[3 times [Notification Retry]]</text><polygon fill="#2196F3" points="1258.8542,1093.3268,1269.2708,1097.4935,1258.8542,1101.6602,1263.0208,1097.4935" style="stroke:#2196F3;stroke-width:1.0416666666666667;"/><line style="stroke:#2196F3;stroke-width:3.125;" x1="846.3542" x2="1265.1042" y1="1097.4935" y2="1097.4935"/><text fill="#222222" font-family="Verdana" font-size="12.5" font-weight="bold" lengthAdjust="spacing" textLength="27.0833" x="864.0625" y="1082.0455">[12]</text><text fill="#222222" font-family="Verdana" font-size="12.5" font-weight="bold" lengthAdjust="spacing" textLength="38.5417" x="916.1458" y="1082.0455">POST</text><text fill="#222222" font-family="Verdana" font-size="12.5" lengthAdjust="spacing" textLength="187.5" x="958.8542" y="1082.0455">/v1/notifications/deactivation</text><path d="M698.4375,1113.1185 L781.7708,1113.1185 L781.7708,1140.1693 L771.3542,1150.5859 L694.2708,1150.5859 L694.2708,1117.2852 A4.1667,4.1667 0 0 1 698.4375,1113.1185 " fill="#FFFFFF" style="stroke:#666666;stroke-width:1.0416666666666667;"/><rect fill="none" height="246.6797" rx="4.1667" ry="4.1667" style="stroke:#2196F3;stroke-width:1.0416666666666667;" width="690.625" x="694.2708" y="1113.1185"/><text fill="#9C27B0" font-family="Verdana" font-size="12.5" font-weight="bold" lengthAdjust="spacing" textLength="19.7917" x="720.3125" y="1136.1796">alt</text><text fill="#222222" font-family="Verdana" font-size="12.5" font-weight="bold" lengthAdjust="spacing" textLength="69.7917" x="807.8125" y="1137.2213">[Success]</text><polygon fill="#2196F3" points="857.8125,1207.8125,847.3958,1211.9792,857.8125,1216.1458,853.6458,1211.9792" style="stroke:#2196F3;stroke-width:1.0416666666666667;"/><line style="stroke:#2196F3;stroke-width:3.125;stroke-dasharray:2.0,2.0;" x1="851.5625" x2="1275.5208" y1="1211.9792" y2="1211.9792"/><text fill="#222222" font-family="Verdana" font-size="12.5" font-weight="bold" lengthAdjust="spacing" textLength="27.0833" x="874.4792" y="1196.5312">[13]</text><text fill="#222222" font-family="Verdana" font-size="12.5" lengthAdjust="spacing" textLength="232.2917" x="926.5625" y="1196.5312">200 OK (Notification Acknowledged)</text><path d="M708.8542,1227.6042 L815.1042,1227.6042 L815.1042,1254.6549 L804.6875,1265.0716 L704.6875,1265.0716 L704.6875,1231.7708 A4.1667,4.1667 0 0 1 708.8542,1227.6042 " fill="#FFFFFF" style="stroke:#666666;stroke-width:1.0416666666666667;"/><rect fill="none" height="124.9023" rx="4.1667" ry="4.1667" style="stroke:#2196F3;stroke-width:1.0416666666666667;" width="669.7917" x="704.6875" y="1227.6042"/><text fill="#9C27B0" font-family="Verdana" font-size="12.5" font-weight="bold" lengthAdjust="spacing" textLength="42.7083" x="730.7292" y="1250.6653">break</text><line style="stroke:#2196F3;stroke-width:1.0416666666666667;stroke-dasharray:2.0,2.0;" x1="704.6875" x2="1374.4792" y1="1266.1133" y2="1266.1133"/><text fill="#222222" font-family="Verdana" font-size="12.5" font-weight="bold" lengthAdjust="spacing" textLength="61.4583" x="720.3125" y="1288.1327">[Failure]</text><polygon fill="#2196F3" points="857.8125,1340.0065,847.3958,1344.1732,857.8125,1348.3398,853.6458,1344.1732" style="stroke:#2196F3;stroke-width:1.0416666666666667;"/><line style="stroke:#2196F3;stroke-width:3.125;stroke-dasharray:2.0,2.0;" x1="851.5625" x2="1275.5208" y1="1344.1732" y2="1344.1732"/><text fill="#222222" font-family="Verdana" font-size="12.5" font-weight="bold" lengthAdjust="spacing" textLength="27.0833" x="874.4792" y="1328.7252">[14]</text><text fill="#222222" font-family="Verdana" font-size="12.5" lengthAdjust="spacing" textLength="161.4583" x="926.5625" y="1328.7252">Error (e.g., Timeout, 5xx)</text><path d="M708.8542,1374.3815 L792.1875,1374.3815 L792.1875,1401.4323 L781.7708,1411.849 L704.6875,1411.849 L704.6875,1378.5482 A4.1667,4.1667 0 0 1 708.8542,1374.3815 " fill="#FFFFFF" style="stroke:#666666;stroke-width:1.0416666666666667;"/><rect fill="none" height="363.151" rx="4.1667" ry="4.1667" style="stroke:#2196F3;stroke-width:1.0416666666666667;" width="1098.4375" x="704.6875" y="1374.3815"/><text fill="#9C27B0" font-family="Verdana" font-size="12.5" font-weight="bold" lengthAdjust="spacing" textLength="19.7917" x="730.7292" y="1397.4426">alt</text><text fill="#222222" font-family="Verdana" font-size="12.5" font-weight="bold" lengthAdjust="spacing" textLength="242.7083" x="818.2292" y="1398.4843">[Notification Failed Permanently]</text><path d="M851.0417,1440.9831 L851.0417,1492.0247 A4.1667,4.1667 0 0 0 855.2083,1496.1914 L1157.2917,1496.1914 A4.1667,4.1667 0 0 0 1161.4583,1492.0247 L1161.4583,1447.2331 L1151.0417,1436.8164 L855.2083,1436.8164 A4.1667,4.1667 0 0 0 851.0417,1440.9831 " fill="url(#g1h8lp2igi9bm32)" filter="url(#f1h8lp2igi9bm3)" style="stroke:#9C27B0;stroke-width:1.0416666666666667;"/><path d="M1151.0417,1436.8164 L1151.0417,1445.1497 A2.0833,2.0833 0 0 0 1153.125,1447.2331 L1161.4583,1447.2331 L1151.0417,1436.8164 " fill="url(#g1h8lp2igi9bm32)" style="stroke:#9C27B0;stroke-width:1.0416666666666667;"/><text fill="#FFFFFF" font-family="Verdana" font-size="12.5" lengthAdjust="spacing" textLength="211.4583" x="867.7083" y="1464.0442">All 3 notification attempts failed.</text><text fill="#FFFFFF" font-family="Verdana" font-size="12.5" lengthAdjust="spacing" textLength="267.7083" x="867.7083" y="1478.595">Logging the failure for offline processing.</text><polygon fill="#2196F3" points="1406.25,1542.9688,1416.6667,1547.1354,1406.25,1551.3021,1410.4167,1547.1354" style="stroke:#2196F3;stroke-width:1.0416666666666667;"/><line style="stroke:#2196F3;stroke-width:3.125;" x1="846.3542" x2="1412.5" y1="1547.1354" y2="1547.1354"/><text fill="#222222" font-family="Verdana" font-size="12.5" font-weight="bold" lengthAdjust="spacing" textLength="27.0833" x="864.0625" y="1531.6874">[15]</text><text fill="#222222" font-family="Verdana" font-size="12.5" lengthAdjust="spacing" textLength="144.7917" x="916.1458" y="1531.6874">Save failedNotification</text><path d="M1434.375,1564.8438 L1434.375,1674.2188 A4.1667,4.1667 0 0 0 1438.5417,1678.3854 L1785.4167,1678.3854 A4.1667,4.1667 0 0 0 1789.5833,1674.2188 L1789.5833,1571.0938 L1779.1667,1560.6771 L1438.5417,1560.6771 A4.1667,4.1667 0 0 0 1434.375,1564.8438 " fill="url(#g1h8lp2igi9bm32)" filter="url(#f1h8lp2igi9bm3)" style="stroke:#9C27B0;stroke-width:1.0416666666666667;"/><path d="M1779.1667,1560.6771 L1779.1667,1569.0104 A2.0833,2.0833 0 0 0 1781.25,1571.0938 L1789.5833,1571.0938 L1779.1667,1560.6771 " fill="url(#g1h8lp2igi9bm32)" style="stroke:#9C27B0;stroke-width:1.0416666666666667;"/><text fill="#FFFFFF" font-family="Verdana" font-size="12.5" lengthAdjust="spacing" textLength="312.5" x="1451.0417" y="1587.9049">Write to `failed_takeover_notification` collection</text><text fill="#FFFFFF" font-family="Verdana" font-size="12.5" lengthAdjust="spacing" textLength="115.625" x="1451.0417" y="1602.4556">- old_activation_id</text><text fill="#FFFFFF" font-family="Verdana" font-size="12.5" lengthAdjust="spacing" textLength="67.7083" x="1451.0417" y="1617.0064">- old_sp_id</text><text fill="#FFFFFF" font-family="Verdana" font-size="12.5" lengthAdjust="spacing" textLength="122.9167" x="1451.0417" y="1631.5572">- payer_fiscal_code</text><text fill="#FFFFFF" font-family="Verdana" font-size="12.5" lengthAdjust="spacing" textLength="140.625" x="1451.0417" y="1646.108">- takeover_timestamp</text><text fill="#FFFFFF" font-family="Verdana" font-size="12.5" lengthAdjust="spacing" textLength="106.25" x="1451.0417" y="1660.6588">- error_message</text><polygon fill="#2196F3" points="857.8125,1725.0326,847.3958,1729.1992,857.8125,1733.3659,853.6458,1729.1992" style="stroke:#2196F3;stroke-width:1.0416666666666667;"/><line style="stroke:#2196F3;stroke-width:3.125;stroke-dasharray:2.0,2.0;" x1="851.5625" x2="1422.9167" y1="1729.1992" y2="1729.1992"/><text fill="#222222" font-family="Verdana" font-size="12.5" font-weight="bold" lengthAdjust="spacing" textLength="27.0833" x="874.4792" y="1713.7512">[16]</text><text fill="#222222" font-family="Verdana" font-size="12.5" lengthAdjust="spacing" textLength="95.8333" x="926.5625" y="1713.7512">Failure Logged</text><polygon fill="#2196F3" points="420.3125,1804.1341,409.8958,1808.3008,420.3125,1812.4674,416.1458,1808.3008" style="stroke:#2196F3;stroke-width:1.0416666666666667;"/><line style="stroke:#2196F3;stroke-width:3.125;stroke-dasharray:2.0,2.0;" x1="414.0625" x2="834.8958" y1="1808.3008" y2="1808.3008"/><text fill="#222222" font-family="Verdana" font-size="12.5" font-weight="bold" lengthAdjust="spacing" textLength="27.0833" x="436.9792" y="1785.5774">[17]</text><text fill="#222222" font-family="Verdana" font-size="12.5" font-weight="bold" lengthAdjust="spacing" textLength="88.5417" x="489.0625" y="1778.302">201 Created</text><text fill="#222222" font-family="Verdana" font-size="12.5" lengthAdjust="spacing" textLength="329.1667" x="489.0625" y="1792.8528">Header: `Location: /activations/{newActivationId}`</text><path d="M60.4167,1826.0091 L60.4167,1877.0508 A4.1667,4.1667 0 0 0 64.5833,1881.2174 L395.8333,1881.2174 A4.1667,4.1667 0 0 0 400,1877.0508 L400,1832.2591 L389.5833,1821.8424 L64.5833,1821.8424 A4.1667,4.1667 0 0 0 60.4167,1826.0091 " fill="url(#g1h8lp2igi9bm32)" filter="url(#f1h8lp2igi9bm3)" style="stroke:#9C27B0;stroke-width:1.0416666666666667;"/><path d="M389.5833,1821.8424 L389.5833,1830.1758 A2.0833,2.0833 0 0 0 391.6667,1832.2591 L400,1832.2591 L389.5833,1821.8424 " fill="url(#g1h8lp2igi9bm32)" style="stroke:#9C27B0;stroke-width:1.0416666666666667;"/><text fill="#FFFFFF" font-family="Verdana" font-size="12.5" lengthAdjust="spacing" textLength="191.6667" x="77.0833" y="1849.0702">The takeover was successful.</text><text fill="#FFFFFF" font-family="Verdana" font-size="12.5" lengthAdjust="spacing" textLength="296.875" x="77.0833" y="1863.621">The Payer is now associated with the new SP.</text><line style="stroke:#2196F3;stroke-width:1.0416666666666667;stroke-dasharray:2.0,2.0;" x1="30.2083" x2="1823.9583" y1="1891.569" y2="1891.569"/><text fill="#222222" font-family="Verdana" font-size="12.5" font-weight="bold" lengthAdjust="spacing" textLength="5.2083" x="45.8333" y="1913.5885">[</text><text fill="#222222" font-family="Verdana" font-size="12.5" font-weight="bold" lengthAdjust="spacing" textLength="288.5417" x="51.0417" y="1913.5885">Failure: Invalid OTP or Payer Not Found</text><text fill="#222222" font-family="Verdana" font-size="12.5" font-weight="bold" lengthAdjust="spacing" textLength="5.2083" x="339.5833" y="1913.5885">]</text><polygon fill="#2196F3" points="1406.25,1965.4622,1416.6667,1969.6289,1406.25,1973.7956,1410.4167,1969.6289" style="stroke:#2196F3;stroke-width:1.0416666666666667;"/><line style="stroke:#2196F3;stroke-width:3.125;" x1="846.3542" x2="1412.5" y1="1969.6289" y2="1969.6289"/><text fill="#222222" font-family="Verdana" font-size="12.5" font-weight="bold" lengthAdjust="spacing" textLength="27.0833" x="864.0625" y="1954.1809">[18]</text><text fill="#222222" font-family="Verdana" font-size="12.5" lengthAdjust="spacing" textLength="53.125" x="916.1458" y="1954.1809">Reedem</text><polygon fill="#2196F3" points="857.8125,2015.4297,847.3958,2019.5964,857.8125,2023.763,853.6458,2019.5964" style="stroke:#2196F3;stroke-width:1.0416666666666667;"/><line style="stroke:#2196F3;stroke-width:3.125;stroke-dasharray:2.0,2.0;" x1="851.5625" x2="1422.9167" y1="2019.5964" y2="2019.5964"/><text fill="#222222" font-family="Verdana" font-size="12.5" font-weight="bold" lengthAdjust="spacing" textLength="27.0833" x="874.4792" y="2004.1484">[19]</text><text fill="#222222" font-family="Verdana" font-size="12.5" font-weight="bold" lengthAdjust="spacing" textLength="41.6667" x="926.5625" y="2004.1484">Error:</text><text fill="#222222" font-family="Verdana" font-size="12.5" lengthAdjust="spacing" textLength="293.75" x="972.3958" y="2004.1484">OTP not found, expired, or already redeemed</text><polygon fill="#2196F3" points="420.3125,2065.3971,409.8958,2069.5638,420.3125,2073.7305,416.1458,2069.5638" style="stroke:#2196F3;stroke-width:1.0416666666666667;"/><line style="stroke:#2196F3;stroke-width:3.125;stroke-dasharray:2.0,2.0;" x1="414.0625" x2="834.8958" y1="2069.5638" y2="2069.5638"/><text fill="#222222" font-family="Verdana" font-size="12.5" font-weight="bold" lengthAdjust="spacing" textLength="27.0833" x="436.9792" y="2054.1158">[20]</text><text fill="#222222" font-family="Verdana" font-size="12.5" font-weight="bold" lengthAdjust="spacing" textLength="130.2083" x="489.0625" y="2054.1158">401 Unauthorized</text><path d="M81.25,2087.2721 L81.25,2138.3138 A4.1667,4.1667 0 0 0 85.4167,2142.4805 L395.8333,2142.4805 A4.1667,4.1667 0 0 0 400,2138.3138 L400,2093.5221 L389.5833,2083.1055 L85.4167,2083.1055 A4.1667,4.1667 0 0 0 81.25,2087.2721 " fill="url(#g1h8lp2igi9bm32)" filter="url(#f1h8lp2igi9bm3)" style="stroke:#9C27B0;stroke-width:1.0416666666666667;"/><path d="M389.5833,2083.1055 L389.5833,2091.4388 A2.0833,2.0833 0 0 0 391.6667,2093.5221 L400,2093.5221 L389.5833,2083.1055 " fill="url(#g1h8lp2igi9bm32)" style="stroke:#9C27B0;stroke-width:1.0416666666666667;"/><text fill="#FFFFFF" font-family="Verdana" font-size="12.5" lengthAdjust="spacing" textLength="270.8333" x="97.9167" y="2110.3333">The provided OTP is invalid or has already</text><text fill="#FFFFFF" font-family="Verdana" font-size="12.5" lengthAdjust="spacing" textLength="276.0417" x="97.9167" y="2124.884">been used. The takeover cannot proceed.</text><line style="stroke:#2196F3;stroke-width:1.0416666666666667;stroke-dasharray:2.0,2.0;" x1="30.2083" x2="1823.9583" y1="2152.832" y2="2152.832"/><text fill="#222222" font-family="Verdana" font-size="12.5" font-weight="bold" lengthAdjust="spacing" textLength="5.2083" x="45.8333" y="2174.8515">[</text><text fill="#222222" font-family="Verdana" font-size="12.5" font-weight="bold" lengthAdjust="spacing" textLength="189.5833" x="51.0417" y="2174.8515">Failure: Subject Mismatch</text><text fill="#222222" font-family="Verdana" font-size="12.5" font-weight="bold" lengthAdjust="spacing" textLength="5.2083" x="240.625" y="2174.8515">]</text><polygon fill="#2196F3" points="1406.25,2226.7253,1416.6667,2230.8919,1406.25,2235.0586,1410.4167,2230.8919" style="stroke:#2196F3;stroke-width:1.0416666666666667;"/><line style="stroke:#2196F3;stroke-width:3.125;" x1="846.3542" x2="1412.5" y1="2230.8919" y2="2230.8919"/><text fill="#222222" font-family="Verdana" font-size="12.5" font-weight="bold" lengthAdjust="spacing" textLength="27.0833" x="864.0625" y="2215.4439">[21]</text><text fill="#222222" font-family="Verdana" font-size="12.5" lengthAdjust="spacing" textLength="53.125" x="916.1458" y="2215.4439">Reedem</text><polygon fill="#2196F3" points="857.8125,2276.6927,847.3958,2280.8594,857.8125,2285.026,853.6458,2280.8594" style="stroke:#2196F3;stroke-width:1.0416666666666667;"/><line style="stroke:#2196F3;stroke-width:3.125;stroke-dasharray:2.0,2.0;" x1="851.5625" x2="1422.9167" y1="2280.8594" y2="2280.8594"/><text fill="#222222" font-family="Verdana" font-size="12.5" font-weight="bold" lengthAdjust="spacing" textLength="27.0833" x="874.4792" y="2265.4114">[22]</text><text fill="#222222" font-family="Verdana" font-size="12.5" font-weight="bold" lengthAdjust="spacing" textLength="41.6667" x="926.5625" y="2265.4114">Error:</text><text fill="#222222" font-family="Verdana" font-size="12.5" lengthAdjust="spacing" textLength="253.125" x="972.3958" y="2265.4114">OTP subject does not match requester</text><polygon fill="#2196F3" points="420.3125,2326.6602,409.8958,2330.8268,420.3125,2334.9935,416.1458,2330.8268" style="stroke:#2196F3;stroke-width:1.0416666666666667;"/><line style="stroke:#2196F3;stroke-width:3.125;stroke-dasharray:2.0,2.0;" x1="414.0625" x2="834.8958" y1="2330.8268" y2="2330.8268"/><text fill="#222222" font-family="Verdana" font-size="12.5" font-weight="bold" lengthAdjust="spacing" textLength="27.0833" x="436.9792" y="2315.3788">[23]</text><text fill="#222222" font-family="Verdana" font-size="12.5" font-weight="bold" lengthAdjust="spacing" textLength="104.1667" x="489.0625" y="2315.3788">403 Forbidden</text><path d="M40.625,2348.5352 L40.625,2399.5768 A4.1667,4.1667 0 0 0 44.7917,2403.7435 L395.8333,2403.7435 A4.1667,4.1667 0 0 0 400,2399.5768 L400,2354.7852 L389.5833,2344.3685 L44.7917,2344.3685 A4.1667,4.1667 0 0 0 40.625,2348.5352 " fill="url(#g1h8lp2igi9bm32)" filter="url(#f1h8lp2igi9bm3)" style="stroke:#9C27B0;stroke-width:1.0416666666666667;"/><path d="M389.5833,2344.3685 L389.5833,2352.7018 A2.0833,2.0833 0 0 0 391.6667,2354.7852 L400,2354.7852 L389.5833,2344.3685 " fill="url(#g1h8lp2igi9bm32)" style="stroke:#9C27B0;stroke-width:1.0416666666666667;"/><text fill="#FFFFFF" font-family="Verdana" font-size="12.5" lengthAdjust="spacing" textLength="256.25" x="57.2917" y="2371.5963">You are not authorized to use this OTP.</text><text fill="#FFFFFF" font-family="Verdana" font-size="12.5" lengthAdjust="spacing" textLength="316.6667" x="57.2917" y="2386.1471">It was generated for a different Service Provider.</text><line style="stroke:#2196F3;stroke-width:1.0416666666666667;stroke-dasharray:2.0,2.0;" x1="30.2083" x2="1823.9583" y1="2414.0951" y2="2414.0951"/><text fill="#222222" font-family="Verdana" font-size="12.5" font-weight="bold" lengthAdjust="spacing" textLength="5.2083" x="45.8333" y="2436.1145">[</text><text fill="#222222" font-family="Verdana" font-size="12.5" font-weight="bold" lengthAdjust="spacing" textLength="91.6667" x="51.0417" y="2436.1145">Other Errors</text><text fill="#222222" font-family="Verdana" font-size="12.5" font-weight="bold" lengthAdjust="spacing" textLength="5.2083" x="142.7083" y="2436.1145">]</text><path d="M311.4583,2457.8125 L504.1667,2457.8125 L504.1667,2484.8633 L493.75,2495.2799 L307.2917,2495.2799 L307.2917,2461.9792 A4.1667,4.1667 0 0 1 311.4583,2457.8125 " fill="#FFFFFF" style="stroke:#666666;stroke-width:1.0416666666666667;"/><rect fill="none" height="166.5039" rx="4.1667" ry="4.1667" style="stroke:#2196F3;stroke-width:1.0416666666666667;" width="670.3125" x="307.2917" y="2457.8125"/><text fill="#9C27B0" font-family="Verdana" font-size="12.5" font-weight="bold" lengthAdjust="spacing" textLength="129.1667" x="333.3333" y="2480.8736">Client-Side Errors</text><polygon fill="#2196F3" points="420.3125,2547.2982,409.8958,2551.4648,420.3125,2555.6315,416.1458,2551.4648" style="stroke:#2196F3;stroke-width:1.0416666666666667;"/><line style="stroke:#2196F3;stroke-width:3.125;stroke-dasharray:2.0,2.0;" x1="414.0625" x2="834.8958" y1="2551.4648" y2="2551.4648"/><text fill="#222222" font-family="Verdana" font-size="12.5" font-weight="bold" lengthAdjust="spacing" textLength="27.0833" x="436.9792" y="2528.7415">[24]</text><text fill="#222222" font-family="Verdana" font-size="12.5" font-weight="bold" lengthAdjust="spacing" textLength="122.9167" x="489.0625" y="2521.4661">400 Bad Request</text><text fill="#222222" font-family="Verdana" font-size="12.5" lengthAdjust="spacing" textLength="198.9583" x="489.0625" y="2536.0168">(e.g., malformed UUID for OTP)</text><polygon fill="#2196F3" points="420.3125,2611.8164,409.8958,2615.9831,420.3125,2620.1497,416.1458,2615.9831" style="stroke:#2196F3;stroke-width:1.0416666666666667;"/><line style="stroke:#2196F3;stroke-width:3.125;stroke-dasharray:2.0,2.0;" x1="414.0625" x2="834.8958" y1="2615.9831" y2="2615.9831"/><text fill="#222222" font-family="Verdana" font-size="12.5" font-weight="bold" lengthAdjust="spacing" textLength="27.0833" x="436.9792" y="2593.2597">[25]</text><text fill="#222222" font-family="Verdana" font-size="12.5" font-weight="bold" lengthAdjust="spacing" textLength="130.2083" x="489.0625" y="2585.9843">401 Unauthorized</text><text fill="#222222" font-family="Verdana" font-size="12.5" lengthAdjust="spacing" textLength="251.0417" x="489.0625" y="2600.5351">(e.g., Invalid or expired security token)</text><path d="M311.4583,2638.8997 L501.0417,2638.8997 L501.0417,2665.9505 L490.625,2676.3672 L307.2917,2676.3672 L307.2917,2643.0664 A4.1667,4.1667 0 0 1 311.4583,2638.8997 " fill="#FFFFFF" style="stroke:#666666;stroke-width:1.0416666666666667;"/><rect fill="none" height="150.944" rx="4.1667" ry="4.1667" style="stroke:#2196F3;stroke-width:1.0416666666666667;" width="1157.8125" x="307.2917" y="2638.8997"/><text fill="#9C27B0" font-family="Verdana" font-size="12.5" font-weight="bold" lengthAdjust="spacing" textLength="126.0417" x="333.3333" y="2661.9609">Server-Side Error</text><line style="stroke:#2196F3;stroke-width:3.125;" x1="846.3542" x2="890.1042" y1="2718.0013" y2="2718.0013"/><line style="stroke:#2196F3;stroke-width:3.125;" x1="890.1042" x2="890.1042" y1="2718.0013" y2="2731.543"/><line style="stroke:#2196F3;stroke-width:3.125;" x1="847.3958" x2="890.1042" y1="2731.543" y2="2731.543"/><polygon fill="#2196F3" points="857.8125,2727.3763,847.3958,2731.543,857.8125,2735.7096,853.6458,2731.543" style="stroke:#2196F3;stroke-width:1.0416666666666667;"/><text fill="#222222" font-family="Verdana" font-size="12.5" font-weight="bold" lengthAdjust="spacing" textLength="27.0833" x="864.0625" y="2702.5533">[26]</text><text fill="#222222" font-family="Verdana" font-size="12.5" lengthAdjust="spacing" textLength="236.4583" x="916.1458" y="2702.5533">An unexpected internal error occurs</text><path d="M1175,2687.8255 L1175,2724.2839 A4.1667,4.1667 0 0 0 1179.1667,2728.4505 L1436.4583,2728.4505 A4.1667,4.1667 0 0 0 1440.625,2724.2839 L1440.625,2694.0755 L1430.2083,2683.6589 L1179.1667,2683.6589 A4.1667,4.1667 0 0 0 1175,2687.8255 " fill="url(#g1h8lp2igi9bm32)" filter="url(#f1h8lp2igi9bm3)" style="stroke:#9C27B0;stroke-width:1.0416666666666667;"/><path d="M1430.2083,2683.6589 L1430.2083,2691.9922 A2.0833,2.0833 0 0 0 1432.2917,2694.0755 L1440.625,2694.0755 L1430.2083,2683.6589 " fill="url(#g1h8lp2igi9bm32)" style="stroke:#9C27B0;stroke-width:1.0416666666666667;"/><text fill="#FFFFFF" font-family="Verdana" font-size="12.5" lengthAdjust="spacing" textLength="222.9167" x="1191.6667" y="2710.8866">e.g., Database connection failure.</text><polygon fill="#2196F3" points="420.3125,2777.3438,409.8958,2781.5104,420.3125,2785.6771,416.1458,2781.5104" style="stroke:#2196F3;stroke-width:1.0416666666666667;"/><line style="stroke:#2196F3;stroke-width:3.125;stroke-dasharray:2.0,2.0;" x1="414.0625" x2="834.8958" y1="2781.5104" y2="2781.5104"/><text fill="#222222" font-family="Verdana" font-size="12.5" font-weight="bold" lengthAdjust="spacing" textLength="27.0833" x="436.9792" y="2766.0624">[27]</text><text fill="#222222" font-family="Verdana" font-size="12.5" font-weight="bold" lengthAdjust="spacing" textLength="180.2083" x="489.0625" y="2766.0624">500 Internal Server Error</text><!--SRC=[hLTjRzis4FwkNt5BWJKH4iTjrY_6Li29LynOsnXnqc5eYvYMJZONcjGeAcbMzB_lZfGioN5UDbHVueZalJptyBdJSvWeeTt5kxSmac9XnGeoO-7iV08JSOiMpiKLcclwCPoCuKQw9PnX8PL4xU2zSJAJYN3IwEWvd4kdS00NcbvYwcsiJq_nxn9rWhKNslu1RK471t3Kw_Vwz6A4HM9bxlpBywKi8Ar2AfRcfW2tH72rmToQ18jY7wHEL9bAlG01jWwDh7KUtOeKLfWiXPR5AkHZqLc91GYTaedHCIYpy21aGggIJFQYw0VolK9O2OTMYYXodAhFS9WuUHti4a83c9nEp-5GhDyMXtN8Xr-Doxz54QsHyPquVeytX8kzbWJBn9fhcQADunqG1T3IT1BbmZgPo9mAnFjRhgfZrUxXj35wgjBxZD8I6Ks54tDH86yULR-h3QDZYgvqHfUhEK6yy_FyzSV-vvqeyk70mMloD80uvXpZ-A4iF-bTBZtuKWaD-4KMZciKIDKSt8kgtyXPH5Gd12iNImScupT0xavpj7xpW9pEQaVUqems344pa1D8X5BC4YAECvHFKLB94gETDOhDjUAWOqqCllAU8RUUOuO2a5eeijcBCAnX50sdDG8VX98fXtp6h2uS_4YG9wMLxXREpHLgs5sWWrbHpl_2nCts25Rbu5ak52uiqdeSJyk4-Gid1F-WkISdPfKhT5IHA6BY1gUZum7vIX5N_kKQCYeO_q-SFQX2EqDNMWqpDdXA1azTFeDT1a58NS0iamN1T69IfAZuR8fjQni-foXiilINWO7na3ynWlN-bdVFpGdTsCmymVceMNooy_KPVn-JAsrk5AOBJ1zsnqTFBF82SsaMk0N6bs-TVaMptLPTsSGcPkAwO-Mna5a50b05dKoX2CJ8IgLkxulwEVpolv_AG12V98ZjTac7jsOXa-_ZS65DcT_dXsxhDjbgqEL76PF34JYv8gt-s3bFbBEtdwEsu8TwUCLhAzRrYyDsAoWEqnPXEWRMc0VLR2zrz_75dXzbsVm8gZiTmSRZJQmB_hBVXzFVORUJGfkhUtSCj2XmDnn-vaJUgyvRL2Jnpx8C-nJOcz397WdiLsk9wRlOM_JsgPclq9Hk7rvz-V8V0oB9ZBRzZZgOPLcIfY-xHE0uwGfCqAw49ffKDw3LnJUxG_SPAaKKwJHxuHokSbVuRevfxyuP8lc2EnFVyAhZ-njlian9ZVMWGLjwcrc6nd0lDJOq8GJGcPcs4gwIYEr9RopoymVr7UGxD0iUBkiEUTa6OaQTKAbmuU-OE02Zqilc9bpAz9uzHRvzBMS5kmpTvJAXzh9bppekVuUTMELRDY6Jy9BM2x70nm5l2Mb5SbzGxCRObT1DRlBVjOYJCJ_ji6gyxB-esa8Qnv_qRoX8bGOmUsi2feFk2FILLB-PqSRfjw3zle0ACr-_CDZL4Pot9zeRci0QyUzrDeK6GOCDYGHFDYQH75KOO9lUr8iwG4L111IJvnQLehDnNC4qWB6-vZa6JccA9Ru75qHFU6DAdMuRG6W2UNG0YMCl8pogiM6AWsuJsTkdsIkN5ka7EHEAO4rlQVRceURXzjoko4zKaGjDC-gIXhH_k2nFWJWF3IMaIY3AAdCAP4cWLy6iZynvGYiB4ejkWHAXEHql2BMIR69jhD0BRCCy3SC2lACF3k6IvNS2jff183LOU9IzSGBKJwHLytmIejGUZ9tBD4NzE9n_cX84NJBss9I1rOS02xCtHTUGT-myhnUeUOQddIojWZxig3DP7WGsc_vsM5DXhuWh_350RBUXLHKrb66uEF6JnS6Kh5JhKLk9kqdtuLYazVpEbxjgUokXA49Y95nSZ4S-Mifdxm5BcuHScnetBAke3qNzbU3uAs5ldQfFe9qBeuAsbKlKRIfCY26HL9DbOW6PbfgApXyjNa319EIf0Q1f8br9zO7MNu7yhQH3XwWxOI-wLtqtaNX5c8xh84By8VIALAqylU2sk3cS_Wi0]--></g></svg>