<?xml version="1.0" encoding="us-ascii" standalone="no"?><svg xmlns="http://www.w3.org/2000/svg" xmlns:xlink="http://www.w3.org/1999/xlink" contentStyleType="text/css" height="2893.75px" preserveAspectRatio="none" style="width:1841px;height:2893px;" version="1.1" viewBox="0 0 1841 2893" width="1841.6667px" zoomAndPan="magnify"><defs><linearGradient id="gs8jio4q2ophh0" x1="50%" x2="50%" y1="0%" y2="100%"><stop offset="0%" stop-color="#FFFFFF"/><stop offset="100%" stop-color="#FFFFFF"/></linearGradient><filter height="300%" id="fs8jio4q2ophh" width="300%" x="-1" y="-1"><feGaussianBlur result="blurOut" stdDeviation="2.0833333333333335"/><feColorMatrix in="blurOut" result="blurOut2" type="matrix" values="0 0 0 0 0 0 0 0 0 0 0 0 0 0 0 0 0 0 .4 0"/><feOffset dx="4.166666666666667" dy="4.166666666666667" in="blurOut2" result="blurOut3"/><feBlend in="SourceGraphic" in2="blurOut3" mode="normal"/></filter><linearGradient id="gs8jio4q2ophh1" x1="50%" x2="50%" y1="0%" y2="100%"><stop offset="0%" stop-color="#4DABF5"/><stop offset="100%" stop-color="#2196F3"/></linearGradient><linearGradient id="gs8jio4q2ophh2" x1="50%" x2="50%" y1="0%" y2="100%"><stop offset="0%" stop-color="#B052C0"/><stop offset="100%" stop-color="#9C27B0"/></linearGradient></defs><g><rect fill="url(#gs8jio4q2ophh0)" height="57.5846" id="_title" rx="4.1667" ry="4.1667" style="stroke:#CCCCCC;stroke-width:1.0416666666666667;" width="667.7083" x="593.2292" y="20.8333"/><text fill="#2196F3" font-family="Verdana" font-size="20.8333" font-weight="bold" lengthAdjust="spacing" textLength="634.375" x="609.8958" y="56.838">RTP Activation API: POST /activations/takeover/{otp}</text><rect fill="#FFFFFF" filter="url(#fs8jio4q2ophh)" height="2516.7969" style="stroke:#CCCCCC;stroke-width:1.0416666666666667;" width="10.4167" x="835.9375" y="258.5286"/><rect fill="#FFFFFF" filter="url(#fs8jio4q2ophh)" height="114.4857" style="stroke:#CCCCCC;stroke-width:1.0416666666666667;" width="10.4167" x="1271.3542" y="1097.4935"/><rect fill="#FFFFFF" filter="url(#fs8jio4q2ophh)" height="49.9674" style="stroke:#CCCCCC;stroke-width:1.0416666666666667;" width="10.4167" x="1418.75" y="524.9674"/><rect fill="#FFFFFF" filter="url(#fs8jio4q2ophh)" height="49.9674" style="stroke:#CCCCCC;stroke-width:1.0416666666666667;" width="10.4167" x="1418.75" y="624.9023"/><rect fill="#FFFFFF" filter="url(#fs8jio4q2ophh)" height="49.9674" style="stroke:#CCCCCC;stroke-width:1.0416666666666667;" width="10.4167" x="1418.75" y="724.8372"/><rect fill="#FFFFFF" filter="url(#fs8jio4q2ophh)" height="49.9674" style="stroke:#CCCCCC;stroke-width:1.0416666666666667;" width="10.4167" x="1418.75" y="888.2813"/><rect fill="#FFFFFF" filter="url(#fs8jio4q2ophh)" height="152.9622" style="stroke:#CCCCCC;stroke-width:1.0416666666666667;" width="10.4167" x="1418.75" y="1547.1354"/><rect fill="#FFFFFF" filter="url(#fs8jio4q2ophh)" height="49.9674" style="stroke:#CCCCCC;stroke-width:1.0416666666666667;" width="10.4167" x="1418.75" y="1940.5273"/><rect fill="#FFFFFF" filter="url(#fs8jio4q2ophh)" height="49.9674" style="stroke:#CCCCCC;stroke-width:1.0416666666666667;" width="10.4167" x="1418.75" y="2201.7904"/><rect fill="url(#gs8jio4q2ophh0)" filter="url(#fs8jio4q2ophh)" height="1814.1602" rx="4.1667" ry="4.1667" style="stroke:#2196F3;stroke-width:1.0416666666666667;" width="1793.75" x="30.2083" y="953.8737"/><rect fill="url(#gs8jio4q2ophh0)" filter="url(#fs8jio4q2ophh)" height="717.0898" rx="4.1667" ry="4.1667" style="stroke:#2196F3;stroke-width:1.0416666666666667;" width="1129.6875" x="683.8542" y="998.6328"/><rect fill="#B3FFB3" filter="url(#fs8jio4q2ophh)" height="246.6797" rx="4.1667" ry="4.1667" style="stroke:#2196F3;stroke-width:1.0416666666666667;" width="690.625" x="694.2708" y="1113.1185"/><rect fill="url(#gs8jio4q2ophh0)" filter="url(#fs8jio4q2ophh)" height="124.9023" rx="4.1667" ry="4.1667" style="stroke:#2196F3;stroke-width:1.0416666666666667;" width="669.7917" x="704.6875" y="1227.6042"/><path d="M704.6875,1265.0716 L1374.4792,1265.0716 L1374.4792,1348.3398 A4.1667,4.1667 0 0 1 1370.3125,1352.5065 L708.8542,1352.5065 A4.1667,4.1667 0 0 1 704.6875,1348.3398 L704.6875,1265.0716 " fill="#FFE0B3" style="stroke:none;stroke-width:1.0416666666666667;"/><rect fill="#FFCDD2" filter="url(#fs8jio4q2ophh)" height="334.0495" rx="4.1667" ry="4.1667" style="stroke:#2196F3;stroke-width:1.0416666666666667;" width="1098.4375" x="704.6875" y="1374.3815"/><path d="M30.2083,1861.4258 L1823.9583,1861.4258 L1823.9583,2118.5221 A4.1667,4.1667 0 0 1 1819.7917,2122.6888 L34.375,2122.6888 A4.1667,4.1667 0 0 1 30.2083,2118.5221 L30.2083,1861.4258 " fill="#FFFFE0" style="stroke:none;stroke-width:1.0416666666666667;"/><path d="M30.2083,2122.6888 L1823.9583,2122.6888 L1823.9583,2379.7852 A4.1667,4.1667 0 0 1 1819.7917,2383.9518 L34.375,2383.9518 A4.1667,4.1667 0 0 1 30.2083,2379.7852 L30.2083,2122.6888 " fill="#FFA500" style="stroke:none;stroke-width:1.0416666666666667;"/><path d="M30.2083,2383.9518 L1823.9583,2383.9518 L1823.9583,2763.8672 A4.1667,4.1667 0 0 1 1819.7917,2768.0339 L34.375,2768.0339 A4.1667,4.1667 0 0 1 30.2083,2763.8672 L30.2083,2383.9518 " fill="#8B0000" style="stroke:none;stroke-width:1.0416666666666667;"/><rect fill="url(#gs8jio4q2ophh0)" filter="url(#fs8jio4q2ophh)" height="166.5039" rx="4.1667" ry="4.1667" style="stroke:#2196F3;stroke-width:1.0416666666666667;" width="670.3125" x="307.2917" y="2428.7109"/><rect fill="url(#gs8jio4q2ophh0)" filter="url(#fs8jio4q2ophh)" height="150.944" rx="4.1667" ry="4.1667" style="stroke:#2196F3;stroke-width:1.0416666666666667;" width="1157.8125" x="307.2917" y="2609.7982"/><line style="stroke:#CCCCCC;stroke-width:1.0416666666666667;stroke-dasharray:5.0,5.0;" x1="408.3333" x2="408.3333" y1="191.9271" y2="2785.7422"/><line style="stroke:#CCCCCC;stroke-width:1.0416666666666667;stroke-dasharray:5.0,5.0;" x1="841.1458" x2="841.1458" y1="191.9271" y2="2785.7422"/><line style="stroke:#CCCCCC;stroke-width:1.0416666666666667;stroke-dasharray:5.0,5.0;" x1="1276.5625" x2="1276.5625" y1="191.9271" y2="2785.7422"/><line style="stroke:#CCCCCC;stroke-width:1.0416666666666667;stroke-dasharray:5.0,5.0;" x1="1423.4375" x2="1423.4375" y1="191.9271" y2="2785.7422"/><text fill="#222222" font-family="Verdana" font-size="12.5" font-weight="bold" lengthAdjust="spacing" textLength="155.2083" x="328.125" y="178.5624">New Service Provider</text><ellipse cx="408.8542" cy="99.2513" fill="url(#gs8jio4q2ophh1)" filter="url(#fs8jio4q2ophh)" rx="8.3333" ry="8.3333" style="stroke:#2196F3;stroke-width:1.0416666666666667;"/><path d="M408.8542,107.5846 L408.8542,135.7096 M395.3125,115.918 L422.3958,115.918 M408.8542,135.7096 L395.3125,151.3346 M408.8542,135.7096 L422.3958,151.3346 " fill="none" filter="url(#fs8jio4q2ophh)" style="stroke:#2196F3;stroke-width:1.0416666666666667;"/><text fill="#222222" font-family="Verdana" font-size="12.5" font-weight="bold" lengthAdjust="spacing" textLength="155.2083" x="328.125" y="2806.72">New Service Provider</text><ellipse cx="408.8542" cy="2829.4596" fill="url(#gs8jio4q2ophh1)" filter="url(#fs8jio4q2ophh)" rx="8.3333" ry="8.3333" style="stroke:#2196F3;stroke-width:1.0416666666666667;"/><path d="M408.8542,2837.793 L408.8542,2865.918 M395.3125,2846.1263 L422.3958,2846.1263 M408.8542,2865.918 L395.3125,2881.543 M408.8542,2865.918 L422.3958,2881.543 " fill="none" filter="url(#fs8jio4q2ophh)" style="stroke:#2196F3;stroke-width:1.0416666666666667;"/><rect fill="url(#gs8jio4q2ophh1)" filter="url(#fs8jio4q2ophh)" height="49.9674" rx="4.1667" ry="4.1667" style="stroke:#2196F3;stroke-width:1.0416666666666667;" width="165.625" x="756.7708" y="137.793"/><text fill="#FFFFFF" font-family="Verdana" font-size="12.5" font-weight="bold" lengthAdjust="spacing" textLength="130.2083" x="774.4792" y="167.1041">Activation Service</text><rect fill="url(#gs8jio4q2ophh1)" filter="url(#fs8jio4q2ophh)" height="49.9674" rx="4.1667" ry="4.1667" style="stroke:#2196F3;stroke-width:1.0416666666666667;" width="165.625" x="756.7708" y="2784.7005"/><text fill="#FFFFFF" font-family="Verdana" font-size="12.5" font-weight="bold" lengthAdjust="spacing" textLength="130.2083" x="774.4792" y="2814.0116">Activation Service</text><text fill="#222222" font-family="Verdana" font-size="12.5" font-weight="bold" lengthAdjust="spacing" textLength="147.9167" x="1199.4792" y="178.5624">Old Service Provider</text><ellipse cx="1276.5625" cy="99.2513" fill="url(#gs8jio4q2ophh1)" filter="url(#fs8jio4q2ophh)" rx="8.3333" ry="8.3333" style="stroke:#2196F3;stroke-width:1.0416666666666667;"/><path d="M1276.5625,107.5846 L1276.5625,135.7096 M1263.0208,115.918 L1290.1042,115.918 M1276.5625,135.7096 L1263.0208,151.3346 M1276.5625,135.7096 L1290.1042,151.3346 " fill="none" filter="url(#fs8jio4q2ophh)" style="stroke:#2196F3;stroke-width:1.0416666666666667;"/><text fill="#222222" font-family="Verdana" font-size="12.5" font-weight="bold" lengthAdjust="spacing" textLength="147.9167" x="1199.4792" y="2806.72">Old Service Provider</text><ellipse cx="1276.5625" cy="2829.4596" fill="url(#gs8jio4q2ophh1)" filter="url(#fs8jio4q2ophh)" rx="8.3333" ry="8.3333" style="stroke:#2196F3;stroke-width:1.0416666666666667;"/><path d="M1276.5625,2837.793 L1276.5625,2865.918 M1263.0208,2846.1263 L1290.1042,2846.1263 M1276.5625,2865.918 L1263.0208,2881.543 M1276.5625,2865.918 L1290.1042,2881.543 " fill="none" filter="url(#fs8jio4q2ophh)" style="stroke:#2196F3;stroke-width:1.0416666666666667;"/><text fill="#222222" font-family="Verdana" font-size="12.5" font-weight="bold" lengthAdjust="spacing" textLength="71.875" x="1384.8958" y="178.5624">Database</text><path d="M1405.2083,119.043 C1405.2083,108.6263 1423.9583,108.6263 1423.9583,108.6263 C1423.9583,108.6263 1442.7083,108.6263 1442.7083,119.043 L1442.7083,146.1263 C1442.7083,156.543 1423.9583,156.543 1423.9583,156.543 C1423.9583,156.543 1405.2083,156.543 1405.2083,146.1263 L1405.2083,119.043 " fill="url(#gs8jio4q2ophh1)" filter="url(#fs8jio4q2ophh)" style="stroke:#2196F3;stroke-width:1.5625;"/><path d="M1405.2083,119.043 C1405.2083,129.4596 1423.9583,129.4596 1423.9583,129.4596 C1423.9583,129.4596 1442.7083,129.4596 1442.7083,119.043 " fill="none" style="stroke:#2196F3;stroke-width:1.5625;"/><text fill="#222222" font-family="Verdana" font-size="12.5" font-weight="bold" lengthAdjust="spacing" textLength="71.875" x="1384.8958" y="2806.72">Database</text><path d="M1405.2083,2830.5013 C1405.2083,2820.0846 1423.9583,2820.0846 1423.9583,2820.0846 C1423.9583,2820.0846 1442.7083,2820.0846 1442.7083,2830.5013 L1442.7083,2857.5846 C1442.7083,2868.0013 1423.9583,2868.0013 1423.9583,2868.0013 C1423.9583,2868.0013 1405.2083,2868.0013 1405.2083,2857.5846 L1405.2083,2830.5013 " fill="url(#gs8jio4q2ophh1)" filter="url(#fs8jio4q2ophh)" style="stroke:#2196F3;stroke-width:1.5625;"/><path d="M1405.2083,2830.5013 C1405.2083,2840.918 1423.9583,2840.918 1423.9583,2840.918 C1423.9583,2840.918 1442.7083,2840.918 1442.7083,2830.5013 " fill="none" style="stroke:#2196F3;stroke-width:1.5625;"/><rect fill="#FFFFFF" filter="url(#fs8jio4q2ophh)" height="2516.7969" style="stroke:#CCCCCC;stroke-width:1.0416666666666667;" width="10.4167" x="835.9375" y="258.5286"/><rect fill="#FFFFFF" filter="url(#fs8jio4q2ophh)" height="114.4857" style="stroke:#CCCCCC;stroke-width:1.0416666666666667;" width="10.4167" x="1271.3542" y="1097.4935"/><rect fill="#FFFFFF" filter="url(#fs8jio4q2ophh)" height="49.9674" style="stroke:#CCCCCC;stroke-width:1.0416666666666667;" width="10.4167" x="1418.75" y="524.9674"/><rect fill="#FFFFFF" filter="url(#fs8jio4q2ophh)" height="49.9674" style="stroke:#CCCCCC;stroke-width:1.0416666666666667;" width="10.4167" x="1418.75" y="624.9023"/><rect fill="#FFFFFF" filter="url(#fs8jio4q2ophh)" height="49.9674" style="stroke:#CCCCCC;stroke-width:1.0416666666666667;" width="10.4167" x="1418.75" y="724.8372"/><rect fill="#FFFFFF" filter="url(#fs8jio4q2ophh)" height="49.9674" style="stroke:#CCCCCC;stroke-width:1.0416666666666667;" width="10.4167" x="1418.75" y="888.2813"/><rect fill="#FFFFFF" filter="url(#fs8jio4q2ophh)" height="152.9622" style="stroke:#CCCCCC;stroke-width:1.0416666666666667;" width="10.4167" x="1418.75" y="1547.1354"/><rect fill="#FFFFFF" filter="url(#fs8jio4q2ophh)" height="49.9674" style="stroke:#CCCCCC;stroke-width:1.0416666666666667;" width="10.4167" x="1418.75" y="1940.5273"/><rect fill="#FFFFFF" filter="url(#fs8jio4q2ophh)" height="49.9674" style="stroke:#CCCCCC;stroke-width:1.0416666666666667;" width="10.4167" x="1418.75" y="2201.7904"/><polygon fill="#2196F3" points="823.4375,254.362,833.8542,258.5286,823.4375,262.6953,827.6042,258.5286" style="stroke:#2196F3;stroke-width:1.0416666666666667;"/><line style="stroke:#2196F3;stroke-width:3.125;" x1="408.8542" x2="829.6875" y1="258.5286" y2="258.5286"/><text fill="#222222" font-family="Verdana" font-size="12.5" font-weight="bold" lengthAdjust="spacing" textLength="18.75" x="426.5625" y="235.8053">[1]</text><text fill="#222222" font-family="Verdana" font-size="12.5" font-weight="bold" lengthAdjust="spacing" textLength="38.5417" x="470.3125" y="228.5299">POST</text><text fill="#222222" font-family="Verdana" font-size="12.5" lengthAdjust="spacing" textLength="179.1667" x="513.0208" y="228.5299">/activations/takeover/{otp}</text><text fill="#222222" font-family="Verdana" font-size="12.5" lengthAdjust="spacing" textLength="257.2917" x="470.3125" y="243.0806">(Take over an existing Payer activation)</text><path d="M851.0417,276.237 L851.0417,341.862 A4.1667,4.1667 0 0 0 855.2083,346.0286 L1225,346.0286 A4.1667,4.1667 0 0 0 1229.1667,341.862 L1229.1667,282.487 L1218.75,272.0703 L855.2083,272.0703 A4.1667,4.1667 0 0 0 851.0417,276.237 " fill="url(#gs8jio4q2ophh2)" filter="url(#fs8jio4q2ophh)" style="stroke:#9C27B0;stroke-width:1.0416666666666667;"/><path d="M1218.75,272.0703 L1218.75,280.4036 A2.0833,2.0833 0 0 0 1220.8333,282.487 L1229.1667,282.487 L1218.75,272.0703 " fill="url(#gs8jio4q2ophh2)" style="stroke:#9C27B0;stroke-width:1.0416666666666667;"/><text fill="#FFFFFF" font-family="Verdana" font-size="12.5" font-weight="bold" lengthAdjust="spacing" textLength="80.2083" x="867.7083" y="299.2981">Operation:</text><text fill="#FFFFFF" font-family="Verdana" font-size="12.5" lengthAdjust="spacing" textLength="106.25" x="952.0833" y="299.2981">`takeoverPayer`</text><text fill="#FFFFFF" font-family="Verdana" font-size="12.5" lengthAdjust="spacing" textLength="335.4167" x="867.7083" y="313.8489">A new SP calls this to assume control of an existing</text><text fill="#FFFFFF" font-family="Verdana" font-size="12.5" lengthAdjust="spacing" textLength="235.4167" x="867.7083" y="328.3997">activation and notify the original SP.</text><line style="stroke:#2196F3;stroke-width:3.125;" x1="846.3542" x2="890.1042" y1="396.9401" y2="396.9401"/><line style="stroke:#2196F3;stroke-width:3.125;" x1="890.1042" x2="890.1042" y1="396.9401" y2="410.4818"/><line style="stroke:#2196F3;stroke-width:3.125;" x1="847.3958" x2="890.1042" y1="410.4818" y2="410.4818"/><polygon fill="#2196F3" points="857.8125,406.3151,847.3958,410.4818,857.8125,414.6484,853.6458,410.4818" style="stroke:#2196F3;stroke-width:1.0416666666666667;"/><text fill="#222222" font-family="Verdana" font-size="12.5" font-weight="bold" lengthAdjust="spacing" textLength="18.75" x="864.0625" y="381.4921">[2]</text><text fill="#222222" font-family="Verdana" font-size="12.5" lengthAdjust="spacing" textLength="327.0833" x="907.8125" y="381.4921">Validate Request &amp; Security Token (get `subject`)</text><polygon fill="#2196F3" points="1406.25,520.8008,1416.6667,524.9674,1406.25,529.1341,1410.4167,524.9674" style="stroke:#2196F3;stroke-width:1.0416666666666667;"/><line style="stroke:#2196F3;stroke-width:3.125;" x1="846.3542" x2="1412.5" y1="524.9674" y2="524.9674"/><text fill="#222222" font-family="Verdana" font-size="12.5" font-weight="bold" lengthAdjust="spacing" textLength="18.75" x="864.0625" y="509.5194">[3]</text><text fill="#222222" font-family="Verdana" font-size="12.5" lengthAdjust="spacing" textLength="53.125" x="907.8125" y="509.5194">Redeem</text><polygon fill="#2196F3" points="857.8125,570.7682,847.3958,574.9349,857.8125,579.1016,853.6458,574.9349" style="stroke:#2196F3;stroke-width:1.0416666666666667;"/><line style="stroke:#2196F3;stroke-width:3.125;stroke-dasharray:2.0,2.0;" x1="851.5625" x2="1422.9167" y1="574.9349" y2="574.9349"/><text fill="#222222" font-family="Verdana" font-size="12.5" font-weight="bold" lengthAdjust="spacing" textLength="18.75" x="874.4792" y="559.4869">[4]</text><text fill="#222222" font-family="Verdana" font-size="12.5" lengthAdjust="spacing" textLength="297.9167" x="918.2292" y="559.4869">Return `TakeOverOtp` (contains `fiscalCode`)</text><polygon fill="#2196F3" points="1406.25,620.7357,1416.6667,624.9023,1406.25,629.069,1410.4167,624.9023" style="stroke:#2196F3;stroke-width:1.0416666666666667;"/><line style="stroke:#2196F3;stroke-width:3.125;" x1="846.3542" x2="1412.5" y1="624.9023" y2="624.9023"/><text fill="#222222" font-family="Verdana" font-size="12.5" font-weight="bold" lengthAdjust="spacing" textLength="18.75" x="864.0625" y="609.4543">[5]</text><text fill="#222222" font-family="Verdana" font-size="12.5" lengthAdjust="spacing" textLength="134.375" x="907.8125" y="609.4543">Search for the Payer</text><polygon fill="#2196F3" points="857.8125,670.7031,847.3958,674.8698,857.8125,679.0365,853.6458,674.8698" style="stroke:#2196F3;stroke-width:1.0416666666666667;"/><line style="stroke:#2196F3;stroke-width:3.125;stroke-dasharray:2.0,2.0;" x1="851.5625" x2="1422.9167" y1="674.8698" y2="674.8698"/><text fill="#222222" font-family="Verdana" font-size="12.5" font-weight="bold" lengthAdjust="spacing" textLength="18.75" x="874.4792" y="659.4218">[6]</text><text fill="#222222" font-family="Verdana" font-size="12.5" lengthAdjust="spacing" textLength="255.2083" x="918.2292" y="659.4218">Return the Payer (contains Old SP info)</text><polygon fill="#2196F3" points="1406.25,720.6706,1416.6667,724.8372,1406.25,729.0039,1410.4167,724.8372" style="stroke:#2196F3;stroke-width:1.0416666666666667;"/><line style="stroke:#2196F3;stroke-width:3.125;" x1="846.3542" x2="1412.5" y1="724.8372" y2="724.8372"/><text fill="#222222" font-family="Verdana" font-size="12.5" font-weight="bold" lengthAdjust="spacing" textLength="18.75" x="864.0625" y="709.3892">[7]</text><text fill="#222222" font-family="Verdana" font-size="12.5" lengthAdjust="spacing" textLength="136.4583" x="907.8125" y="709.3892">Deactivate the Payer</text><polygon fill="#2196F3" points="857.8125,770.638,847.3958,774.8047,857.8125,778.9714,853.6458,774.8047" style="stroke:#2196F3;stroke-width:1.0416666666666667;"/><line style="stroke:#2196F3;stroke-width:3.125;stroke-dasharray:2.0,2.0;" x1="851.5625" x2="1422.9167" y1="774.8047" y2="774.8047"/><text fill="#222222" font-family="Verdana" font-size="12.5" font-weight="bold" lengthAdjust="spacing" textLength="18.75" x="874.4792" y="759.3567">[8]</text><text fill="#222222" font-family="Verdana" font-size="12.5" lengthAdjust="spacing" textLength="179.1667" x="918.2292" y="759.3567">Deactivation Acknowledged</text><line style="stroke:#2196F3;stroke-width:3.125;" x1="846.3542" x2="890.1042" y1="824.7721" y2="824.7721"/><line style="stroke:#2196F3;stroke-width:3.125;" x1="890.1042" x2="890.1042" y1="824.7721" y2="838.3138"/><line style="stroke:#2196F3;stroke-width:3.125;" x1="847.3958" x2="890.1042" y1="838.3138" y2="838.3138"/><polygon fill="#2196F3" points="857.8125,834.1471,847.3958,838.3138,857.8125,842.4805,853.6458,838.3138" style="stroke:#2196F3;stroke-width:1.0416666666666667;"/><text fill="#222222" font-family="Verdana" font-size="12.5" font-weight="bold" lengthAdjust="spacing" textLength="18.75" x="864.0625" y="809.3241">[9]</text><text fill="#222222" font-family="Verdana" font-size="12.5" lengthAdjust="spacing" textLength="345.8333" x="907.8125" y="809.3241">Create new `Payer` object for the new SP (`subject`)</text><polygon fill="#2196F3" points="1406.25,884.1146,1416.6667,888.2813,1406.25,892.4479,1410.4167,888.2813" style="stroke:#2196F3;stroke-width:1.0416666666666667;"/><line style="stroke:#2196F3;stroke-width:3.125;" x1="846.3542" x2="1412.5" y1="888.2813" y2="888.2813"/><text fill="#222222" font-family="Verdana" font-size="12.5" font-weight="bold" lengthAdjust="spacing" textLength="27.0833" x="864.0625" y="872.8333">[10]</text><text fill="#222222" font-family="Verdana" font-size="12.5" lengthAdjust="spacing" textLength="114.5833" x="916.1458" y="872.8333">Save new `Payer`</text><polygon fill="#2196F3" points="857.8125,934.082,847.3958,938.2487,857.8125,942.4154,853.6458,938.2487" style="stroke:#2196F3;stroke-width:1.0416666666666667;"/><line style="stroke:#2196F3;stroke-width:3.125;stroke-dasharray:2.0,2.0;" x1="851.5625" x2="1422.9167" y1="938.2487" y2="938.2487"/><text fill="#222222" font-family="Verdana" font-size="12.5" font-weight="bold" lengthAdjust="spacing" textLength="27.0833" x="874.4792" y="922.8007">[11]</text><text fill="#222222" font-family="Verdana" font-size="12.5" lengthAdjust="spacing" textLength="192.7083" x="926.5625" y="922.8007">New Payer saved successfully</text><path d="M34.375,953.8737 L423.9583,953.8737 L423.9583,980.9245 L413.5417,991.3411 L30.2083,991.3411 L30.2083,958.0404 A4.1667,4.1667 0 0 1 34.375,953.8737 " fill="#FFFFFF" style="stroke:#666666;stroke-width:1.0416666666666667;"/><rect fill="none" height="1814.1602" rx="4.1667" ry="4.1667" style="stroke:#2196F3;stroke-width:1.0416666666666667;" width="1793.75" x="30.2083" y="953.8737"/><text fill="#9C27B0" font-family="Verdana" font-size="12.5" font-weight="bold" lengthAdjust="spacing" textLength="326.0417" x="56.25" y="976.9348">Resilient Notification to Old Service Provider</text><path d="M688.0208,998.6328 L783.8542,998.6328 L783.8542,1025.6836 L773.4375,1036.1003 L683.8542,1036.1003 L683.8542,1002.7995 A4.1667,4.1667 0 0 1 688.0208,998.6328 " fill="#FFFFFF" style="stroke:#666666;stroke-width:1.0416666666666667;"/><rect fill="none" height="717.0898" rx="4.1667" ry="4.1667" style="stroke:#2196F3;stroke-width:1.0416666666666667;" width="1129.6875" x="683.8542" y="998.6328"/><text fill="#9C27B0" font-family="Verdana" font-size="12.5" font-weight="bold" lengthAdjust="spacing" textLength="32.2917" x="709.8958" y="1021.6939">loop</text><text fill="#222222" font-family="Verdana" font-size="12.5" font-weight="bold" lengthAdjust="spacing" textLength="207.2917" x="809.8958" y="1022.7356">[3 times [Notification Retry]]</text><polygon fill="#2196F3" points="1258.8542,1093.3268,1269.2708,1097.4935,1258.8542,1101.6602,1263.0208,1097.4935" style="stroke:#2196F3;stroke-width:1.0416666666666667;"/><line style="stroke:#2196F3;stroke-width:3.125;" x1="846.3542" x2="1265.1042" y1="1097.4935" y2="1097.4935"/><text fill="#222222" font-family="Verdana" font-size="12.5" font-weight="bold" lengthAdjust="spacing" textLength="27.0833" x="864.0625" y="1082.0455">[12]</text><text fill="#222222" font-family="Verdana" font-size="12.5" font-weight="bold" lengthAdjust="spacing" textLength="38.5417" x="916.1458" y="1082.0455">POST</text><text fill="#222222" font-family="Verdana" font-size="12.5" lengthAdjust="spacing" textLength="187.5" x="958.8542" y="1082.0455">/v1/notifications/deactivation</text><path d="M698.4375,1113.1185 L781.7708,1113.1185 L781.7708,1140.1693 L771.3542,1150.5859 L694.2708,1150.5859 L694.2708,1117.2852 A4.1667,4.1667 0 0 1 698.4375,1113.1185 " fill="#FFFFFF" style="stroke:#666666;stroke-width:1.0416666666666667;"/><rect fill="none" height="246.6797" rx="4.1667" ry="4.1667" style="stroke:#2196F3;stroke-width:1.0416666666666667;" width="690.625" x="694.2708" y="1113.1185"/><text fill="#9C27B0" font-family="Verdana" font-size="12.5" font-weight="bold" lengthAdjust="spacing" textLength="19.7917" x="720.3125" y="1136.1796">alt</text><text fill="#222222" font-family="Verdana" font-size="12.5" font-weight="bold" lengthAdjust="spacing" textLength="69.7917" x="807.8125" y="1137.2213">[Success]</text><polygon fill="#2196F3" points="857.8125,1207.8125,847.3958,1211.9792,857.8125,1216.1458,853.6458,1211.9792" style="stroke:#2196F3;stroke-width:1.0416666666666667;"/><line style="stroke:#2196F3;stroke-width:3.125;stroke-dasharray:2.0,2.0;" x1="851.5625" x2="1275.5208" y1="1211.9792" y2="1211.9792"/><text fill="#222222" font-family="Verdana" font-size="12.5" font-weight="bold" lengthAdjust="spacing" textLength="27.0833" x="874.4792" y="1196.5312">[13]</text><text fill="#222222" font-family="Verdana" font-size="12.5" lengthAdjust="spacing" textLength="232.2917" x="926.5625" y="1196.5312">200 OK (Notification Acknowledged)</text><path d="M708.8542,1227.6042 L815.1042,1227.6042 L815.1042,1254.6549 L804.6875,1265.0716 L704.6875,1265.0716 L704.6875,1231.7708 A4.1667,4.1667 0 0 1 708.8542,1227.6042 " fill="#FFFFFF" style="stroke:#666666;stroke-width:1.0416666666666667;"/><rect fill="none" height="124.9023" rx="4.1667" ry="4.1667" style="stroke:#2196F3;stroke-width:1.0416666666666667;" width="669.7917" x="704.6875" y="1227.6042"/><text fill="#9C27B0" font-family="Verdana" font-size="12.5" font-weight="bold" lengthAdjust="spacing" textLength="42.7083" x="730.7292" y="1250.6653">break</text><line style="stroke:#2196F3;stroke-width:1.0416666666666667;stroke-dasharray:2.0,2.0;" x1="704.6875" x2="1374.4792" y1="1266.1133" y2="1266.1133"/><text fill="#222222" font-family="Verdana" font-size="12.5" font-weight="bold" lengthAdjust="spacing" textLength="61.4583" x="720.3125" y="1288.1327">[Failure]</text><polygon fill="#2196F3" points="857.8125,1340.0065,847.3958,1344.1732,857.8125,1348.3398,853.6458,1344.1732" style="stroke:#2196F3;stroke-width:1.0416666666666667;"/><line style="stroke:#2196F3;stroke-width:3.125;stroke-dasharray:2.0,2.0;" x1="851.5625" x2="1275.5208" y1="1344.1732" y2="1344.1732"/><text fill="#222222" font-family="Verdana" font-size="12.5" font-weight="bold" lengthAdjust="spacing" textLength="27.0833" x="874.4792" y="1328.7252">[14]</text><text fill="#222222" font-family="Verdana" font-size="12.5" lengthAdjust="spacing" textLength="161.4583" x="926.5625" y="1328.7252">Error (e.g., Timeout, 5xx)</text><path d="M708.8542,1374.3815 L792.1875,1374.3815 L792.1875,1401.4323 L781.7708,1411.849 L704.6875,1411.849 L704.6875,1378.5482 A4.1667,4.1667 0 0 1 708.8542,1374.3815 " fill="#FFFFFF" style="stroke:#666666;stroke-width:1.0416666666666667;"/><rect fill="none" height="334.0495" rx="4.1667" ry="4.1667" style="stroke:#2196F3;stroke-width:1.0416666666666667;" width="1098.4375" x="704.6875" y="1374.3815"/><text fill="#9C27B0" font-family="Verdana" font-size="12.5" font-weight="bold" lengthAdjust="spacing" textLength="19.7917" x="730.7292" y="1397.4426">alt</text><text fill="#222222" font-family="Verdana" font-size="12.5" font-weight="bold" lengthAdjust="spacing" textLength="242.7083" x="818.2292" y="1398.4843">[Notification Failed Permanently]</text><path d="M851.0417,1440.9831 L851.0417,1492.0247 A4.1667,4.1667 0 0 0 855.2083,1496.1914 L1157.2917,1496.1914 A4.1667,4.1667 0 0 0 1161.4583,1492.0247 L1161.4583,1447.2331 L1151.0417,1436.8164 L855.2083,1436.8164 A4.1667,4.1667 0 0 0 851.0417,1440.9831 " fill="url(#gs8jio4q2ophh2)" filter="url(#fs8jio4q2ophh)" style="stroke:#9C27B0;stroke-width:1.0416666666666667;"/><path d="M1151.0417,1436.8164 L1151.0417,1445.1497 A2.0833,2.0833 0 0 0 1153.125,1447.2331 L1161.4583,1447.2331 L1151.0417,1436.8164 " fill="url(#gs8jio4q2ophh2)" style="stroke:#9C27B0;stroke-width:1.0416666666666667;"/><text fill="#FFFFFF" font-family="Verdana" font-size="12.5" lengthAdjust="spacing" textLength="211.4583" x="867.7083" y="1464.0442">All 3 notification attempts failed.</text><text fill="#FFFFFF" font-family="Verdana" font-size="12.5" lengthAdjust="spacing" textLength="267.7083" x="867.7083" y="1478.595">Logging the failure for offline processing.</text><polygon fill="#2196F3" points="1406.25,1542.9688,1416.6667,1547.1354,1406.25,1551.3021,1410.4167,1547.1354" style="stroke:#2196F3;stroke-width:1.0416666666666667;"/><line style="stroke:#2196F3;stroke-width:3.125;" x1="846.3542" x2="1412.5" y1="1547.1354" y2="1547.1354"/><text fill="#222222" font-family="Verdana" font-size="12.5" font-weight="bold" lengthAdjust="spacing" textLength="27.0833" x="864.0625" y="1531.6874">[15]</text><text fill="#222222" font-family="Verdana" font-size="12.5" lengthAdjust="spacing" textLength="144.7917" x="916.1458" y="1531.6874">Save failedNotification</text><path d="M1434.375,1564.8438 L1434.375,1645.0521 A4.1667,4.1667 0 0 0 1438.5417,1649.2188 L1785.4167,1649.2188 A4.1667,4.1667 0 0 0 1789.5833,1645.0521 L1789.5833,1571.0938 L1779.1667,1560.6771 L1438.5417,1560.6771 A4.1667,4.1667 0 0 0 1434.375,1564.8438 " fill="url(#gs8jio4q2ophh2)" filter="url(#fs8jio4q2ophh)" style="stroke:#9C27B0;stroke-width:1.0416666666666667;"/><path d="M1779.1667,1560.6771 L1779.1667,1569.0104 A2.0833,2.0833 0 0 0 1781.25,1571.0938 L1789.5833,1571.0938 L1779.1667,1560.6771 " fill="url(#gs8jio4q2ophh2)" style="stroke:#9C27B0;stroke-width:1.0416666666666667;"/><text fill="#FFFFFF" font-family="Verdana" font-size="12.5" lengthAdjust="spacing" textLength="312.5" x="1451.0417" y="1587.9049">Write to `failed_takeover_notification` collection</text><text fill="#FFFFFF" font-family="Verdana" font-size="12.5" lengthAdjust="spacing" textLength="67.7083" x="1451.0417" y="1602.4556">- old_sp_id</text><text fill="#FFFFFF" font-family="Verdana" font-size="12.5" lengthAdjust="spacing" textLength="122.9167" x="1451.0417" y="1617.0064">- payer_fiscal_code</text><text fill="#FFFFFF" font-family="Verdana" font-size="12.5" lengthAdjust="spacing" textLength="77.0833" x="1451.0417" y="1631.5572">- timestamp</text><polygon fill="#2196F3" points="857.8125,1695.931,847.3958,1700.0977,857.8125,1704.2643,853.6458,1700.0977" style="stroke:#2196F3;stroke-width:1.0416666666666667;"/><line style="stroke:#2196F3;stroke-width:3.125;stroke-dasharray:2.0,2.0;" x1="851.5625" x2="1422.9167" y1="1700.0977" y2="1700.0977"/><text fill="#222222" font-family="Verdana" font-size="12.5" font-weight="bold" lengthAdjust="spacing" textLength="27.0833" x="874.4792" y="1684.6497">[16]</text><text fill="#222222" font-family="Verdana" font-size="12.5" lengthAdjust="spacing" textLength="95.8333" x="926.5625" y="1684.6497">Failure Logged</text><polygon fill="#2196F3" points="420.3125,1775.0326,409.8958,1779.1992,420.3125,1783.3659,416.1458,1779.1992" style="stroke:#2196F3;stroke-width:1.0416666666666667;"/><line style="stroke:#2196F3;stroke-width:3.125;stroke-dasharray:2.0,2.0;" x1="414.0625" x2="834.8958" y1="1779.1992" y2="1779.1992"/><text fill="#222222" font-family="Verdana" font-size="12.5" font-weight="bold" lengthAdjust="spacing" textLength="27.0833" x="436.9792" y="1756.4758">[17]</text><text fill="#222222" font-family="Verdana" font-size="12.5" font-weight="bold" lengthAdjust="spacing" textLength="88.5417" x="489.0625" y="1749.2004">201 Created</text><text fill="#222222" font-family="Verdana" font-size="12.5" lengthAdjust="spacing" textLength="329.1667" x="489.0625" y="1763.7512">Header: `Location: /activations/{newActivationId}`</text><path d="M60.4167,1796.9076 L60.4167,1847.9492 A4.1667,4.1667 0 0 0 64.5833,1852.1159 L395.8333,1852.1159 A4.1667,4.1667 0 0 0 400,1847.9492 L400,1803.1576 L389.5833,1792.7409 L64.5833,1792.7409 A4.1667,4.1667 0 0 0 60.4167,1796.9076 " fill="url(#gs8jio4q2ophh2)" filter="url(#fs8jio4q2ophh)" style="stroke:#9C27B0;stroke-width:1.0416666666666667;"/><path d="M389.5833,1792.7409 L389.5833,1801.0742 A2.0833,2.0833 0 0 0 391.6667,1803.1576 L400,1803.1576 L389.5833,1792.7409 " fill="url(#gs8jio4q2ophh2)" style="stroke:#9C27B0;stroke-width:1.0416666666666667;"/><text fill="#FFFFFF" font-family="Verdana" font-size="12.5" lengthAdjust="spacing" textLength="191.6667" x="77.0833" y="1819.9687">The takeover was successful.</text><text fill="#FFFFFF" font-family="Verdana" font-size="12.5" lengthAdjust="spacing" textLength="296.875" x="77.0833" y="1834.5194">The Payer is now associated with the new SP.</text><line style="stroke:#2196F3;stroke-width:1.0416666666666667;stroke-dasharray:2.0,2.0;" x1="30.2083" x2="1823.9583" y1="1862.4674" y2="1862.4674"/><text fill="#222222" font-family="Verdana" font-size="12.5" font-weight="bold" lengthAdjust="spacing" textLength="5.2083" x="45.8333" y="1884.4869">[</text><text fill="#222222" font-family="Verdana" font-size="12.5" font-weight="bold" lengthAdjust="spacing" textLength="288.5417" x="51.0417" y="1884.4869">Failure: Invalid OTP or Payer Not Found</text><text fill="#222222" font-family="Verdana" font-size="12.5" font-weight="bold" lengthAdjust="spacing" textLength="5.2083" x="339.5833" y="1884.4869">]</text><polygon fill="#2196F3" points="1406.25,1936.3607,1416.6667,1940.5273,1406.25,1944.694,1410.4167,1940.5273" style="stroke:#2196F3;stroke-width:1.0416666666666667;"/><line style="stroke:#2196F3;stroke-width:3.125;" x1="846.3542" x2="1412.5" y1="1940.5273" y2="1940.5273"/><text fill="#222222" font-family="Verdana" font-size="12.5" font-weight="bold" lengthAdjust="spacing" textLength="27.0833" x="864.0625" y="1925.0793">[18]</text><text fill="#222222" font-family="Verdana" font-size="12.5" lengthAdjust="spacing" textLength="53.125" x="916.1458" y="1925.0793">Reedem</text><polygon fill="#2196F3" points="857.8125,1986.3281,847.3958,1990.4948,857.8125,1994.6615,853.6458,1990.4948" style="stroke:#2196F3;stroke-width:1.0416666666666667;"/><line style="stroke:#2196F3;stroke-width:3.125;stroke-dasharray:2.0,2.0;" x1="851.5625" x2="1422.9167" y1="1990.4948" y2="1990.4948"/><text fill="#222222" font-family="Verdana" font-size="12.5" font-weight="bold" lengthAdjust="spacing" textLength="27.0833" x="874.4792" y="1975.0468">[19]</text><text fill="#222222" font-family="Verdana" font-size="12.5" font-weight="bold" lengthAdjust="spacing" textLength="41.6667" x="926.5625" y="1975.0468">Error:</text><text fill="#222222" font-family="Verdana" font-size="12.5" lengthAdjust="spacing" textLength="293.75" x="972.3958" y="1975.0468">OTP not found, expired, or already redeemed</text><polygon fill="#2196F3" points="420.3125,2036.2956,409.8958,2040.4622,420.3125,2044.6289,416.1458,2040.4622" style="stroke:#2196F3;stroke-width:1.0416666666666667;"/><line style="stroke:#2196F3;stroke-width:3.125;stroke-dasharray:2.0,2.0;" x1="414.0625" x2="834.8958" y1="2040.4622" y2="2040.4622"/><text fill="#222222" font-family="Verdana" font-size="12.5" font-weight="bold" lengthAdjust="spacing" textLength="27.0833" x="436.9792" y="2025.0142">[20]</text><text fill="#222222" font-family="Verdana" font-size="12.5" font-weight="bold" lengthAdjust="spacing" textLength="130.2083" x="489.0625" y="2025.0142">401 Unauthorized</text><path d="M81.25,2058.1706 L81.25,2109.2122 A4.1667,4.1667 0 0 0 85.4167,2113.3789 L395.8333,2113.3789 A4.1667,4.1667 0 0 0 400,2109.2122 L400,2064.4206 L389.5833,2054.0039 L85.4167,2054.0039 A4.1667,4.1667 0 0 0 81.25,2058.1706 " fill="url(#gs8jio4q2ophh2)" filter="url(#fs8jio4q2ophh)" style="stroke:#9C27B0;stroke-width:1.0416666666666667;"/><path d="M389.5833,2054.0039 L389.5833,2062.3372 A2.0833,2.0833 0 0 0 391.6667,2064.4206 L400,2064.4206 L389.5833,2054.0039 " fill="url(#gs8jio4q2ophh2)" style="stroke:#9C27B0;stroke-width:1.0416666666666667;"/><text fill="#FFFFFF" font-family="Verdana" font-size="12.5" lengthAdjust="spacing" textLength="270.8333" x="97.9167" y="2081.2317">The provided OTP is invalid or has already</text><text fill="#FFFFFF" font-family="Verdana" font-size="12.5" lengthAdjust="spacing" textLength="276.0417" x="97.9167" y="2095.7825">been used. The takeover cannot proceed.</text><line style="stroke:#2196F3;stroke-width:1.0416666666666667;stroke-dasharray:2.0,2.0;" x1="30.2083" x2="1823.9583" y1="2123.7305" y2="2123.7305"/><text fill="#222222" font-family="Verdana" font-size="12.5" font-weight="bold" lengthAdjust="spacing" textLength="5.2083" x="45.8333" y="2145.7499">[</text><text fill="#222222" font-family="Verdana" font-size="12.5" font-weight="bold" lengthAdjust="spacing" textLength="189.5833" x="51.0417" y="2145.7499">Failure: Subject Mismatch</text><text fill="#222222" font-family="Verdana" font-size="12.5" font-weight="bold" lengthAdjust="spacing" textLength="5.2083" x="240.625" y="2145.7499">]</text><polygon fill="#2196F3" points="1406.25,2197.6237,1416.6667,2201.7904,1406.25,2205.957,1410.4167,2201.7904" style="stroke:#2196F3;stroke-width:1.0416666666666667;"/><line style="stroke:#2196F3;stroke-width:3.125;" x1="846.3542" x2="1412.5" y1="2201.7904" y2="2201.7904"/><text fill="#222222" font-family="Verdana" font-size="12.5" font-weight="bold" lengthAdjust="spacing" textLength="27.0833" x="864.0625" y="2186.3424">[21]</text><text fill="#222222" font-family="Verdana" font-size="12.5" lengthAdjust="spacing" textLength="53.125" x="916.1458" y="2186.3424">Reedem</text><polygon fill="#2196F3" points="857.8125,2247.5911,847.3958,2251.7578,857.8125,2255.9245,853.6458,2251.7578" style="stroke:#2196F3;stroke-width:1.0416666666666667;"/><line style="stroke:#2196F3;stroke-width:3.125;stroke-dasharray:2.0,2.0;" x1="851.5625" x2="1422.9167" y1="2251.7578" y2="2251.7578"/><text fill="#222222" font-family="Verdana" font-size="12.5" font-weight="bold" lengthAdjust="spacing" textLength="27.0833" x="874.4792" y="2236.3098">[22]</text><text fill="#222222" font-family="Verdana" font-size="12.5" font-weight="bold" lengthAdjust="spacing" textLength="41.6667" x="926.5625" y="2236.3098">Error:</text><text fill="#222222" font-family="Verdana" font-size="12.5" lengthAdjust="spacing" textLength="253.125" x="972.3958" y="2236.3098">OTP subject does not match requester</text><polygon fill="#2196F3" points="420.3125,2297.5586,409.8958,2301.7253,420.3125,2305.8919,416.1458,2301.7253" style="stroke:#2196F3;stroke-width:1.0416666666666667;"/><line style="stroke:#2196F3;stroke-width:3.125;stroke-dasharray:2.0,2.0;" x1="414.0625" x2="834.8958" y1="2301.7253" y2="2301.7253"/><text fill="#222222" font-family="Verdana" font-size="12.5" font-weight="bold" lengthAdjust="spacing" textLength="27.0833" x="436.9792" y="2286.2773">[23]</text><text fill="#222222" font-family="Verdana" font-size="12.5" font-weight="bold" lengthAdjust="spacing" textLength="104.1667" x="489.0625" y="2286.2773">403 Forbidden</text><path d="M40.625,2319.4336 L40.625,2370.4753 A4.1667,4.1667 0 0 0 44.7917,2374.6419 L395.8333,2374.6419 A4.1667,4.1667 0 0 0 400,2370.4753 L400,2325.6836 L389.5833,2315.2669 L44.7917,2315.2669 A4.1667,4.1667 0 0 0 40.625,2319.4336 " fill="url(#gs8jio4q2ophh2)" filter="url(#fs8jio4q2ophh)" style="stroke:#9C27B0;stroke-width:1.0416666666666667;"/><path d="M389.5833,2315.2669 L389.5833,2323.6003 A2.0833,2.0833 0 0 0 391.6667,2325.6836 L400,2325.6836 L389.5833,2315.2669 " fill="url(#gs8jio4q2ophh2)" style="stroke:#9C27B0;stroke-width:1.0416666666666667;"/><text fill="#FFFFFF" font-family="Verdana" font-size="12.5" lengthAdjust="spacing" textLength="256.25" x="57.2917" y="2342.4947">You are not authorized to use this OTP.</text><text fill="#FFFFFF" font-family="Verdana" font-size="12.5" lengthAdjust="spacing" textLength="316.6667" x="57.2917" y="2357.0455">It was generated for a different Service Provider.</text><line style="stroke:#2196F3;stroke-width:1.0416666666666667;stroke-dasharray:2.0,2.0;" x1="30.2083" x2="1823.9583" y1="2384.9935" y2="2384.9935"/><text fill="#222222" font-family="Verdana" font-size="12.5" font-weight="bold" lengthAdjust="spacing" textLength="5.2083" x="45.8333" y="2407.0129">[</text><text fill="#222222" font-family="Verdana" font-size="12.5" font-weight="bold" lengthAdjust="spacing" textLength="91.6667" x="51.0417" y="2407.0129">Other Errors</text><text fill="#222222" font-family="Verdana" font-size="12.5" font-weight="bold" lengthAdjust="spacing" textLength="5.2083" x="142.7083" y="2407.0129">]</text><path d="M311.4583,2428.7109 L504.1667,2428.7109 L504.1667,2455.7617 L493.75,2466.1784 L307.2917,2466.1784 L307.2917,2432.8776 A4.1667,4.1667 0 0 1 311.4583,2428.7109 " fill="#FFFFFF" style="stroke:#666666;stroke-width:1.0416666666666667;"/><rect fill="none" height="166.5039" rx="4.1667" ry="4.1667" style="stroke:#2196F3;stroke-width:1.0416666666666667;" width="670.3125" x="307.2917" y="2428.7109"/><text fill="#9C27B0" font-family="Verdana" font-size="12.5" font-weight="bold" lengthAdjust="spacing" textLength="129.1667" x="333.3333" y="2451.7721">Client-Side Errors</text><polygon fill="#2196F3" points="420.3125,2518.1966,409.8958,2522.3633,420.3125,2526.5299,416.1458,2522.3633" style="stroke:#2196F3;stroke-width:1.0416666666666667;"/><line style="stroke:#2196F3;stroke-width:3.125;stroke-dasharray:2.0,2.0;" x1="414.0625" x2="834.8958" y1="2522.3633" y2="2522.3633"/><text fill="#222222" font-family="Verdana" font-size="12.5" font-weight="bold" lengthAdjust="spacing" textLength="27.0833" x="436.9792" y="2499.6399">[24]</text><text fill="#222222" font-family="Verdana" font-size="12.5" font-weight="bold" lengthAdjust="spacing" textLength="122.9167" x="489.0625" y="2492.3645">400 Bad Request</text><text fill="#222222" font-family="Verdana" font-size="12.5" lengthAdjust="spacing" textLength="198.9583" x="489.0625" y="2506.9153">(e.g., malformed UUID for OTP)</text><polygon fill="#2196F3" points="420.3125,2582.7148,409.8958,2586.8815,420.3125,2591.0482,416.1458,2586.8815" style="stroke:#2196F3;stroke-width:1.0416666666666667;"/><line style="stroke:#2196F3;stroke-width:3.125;stroke-dasharray:2.0,2.0;" x1="414.0625" x2="834.8958" y1="2586.8815" y2="2586.8815"/><text fill="#222222" font-family="Verdana" font-size="12.5" font-weight="bold" lengthAdjust="spacing" textLength="27.0833" x="436.9792" y="2564.1581">[25]</text><text fill="#222222" font-family="Verdana" font-size="12.5" font-weight="bold" lengthAdjust="spacing" textLength="130.2083" x="489.0625" y="2556.8827">401 Unauthorized</text><text fill="#222222" font-family="Verdana" font-size="12.5" lengthAdjust="spacing" textLength="251.0417" x="489.0625" y="2571.4335">(e.g., Invalid or expired security token)</text><path d="M311.4583,2609.7982 L501.0417,2609.7982 L501.0417,2636.849 L490.625,2647.2656 L307.2917,2647.2656 L307.2917,2613.9648 A4.1667,4.1667 0 0 1 311.4583,2609.7982 " fill="#FFFFFF" style="stroke:#666666;stroke-width:1.0416666666666667;"/><rect fill="none" height="150.944" rx="4.1667" ry="4.1667" style="stroke:#2196F3;stroke-width:1.0416666666666667;" width="1157.8125" x="307.2917" y="2609.7982"/><text fill="#9C27B0" font-family="Verdana" font-size="12.5" font-weight="bold" lengthAdjust="spacing" textLength="126.0417" x="333.3333" y="2632.8593">Server-Side Error</text><line style="stroke:#2196F3;stroke-width:3.125;" x1="846.3542" x2="890.1042" y1="2688.8997" y2="2688.8997"/><line style="stroke:#2196F3;stroke-width:3.125;" x1="890.1042" x2="890.1042" y1="2688.8997" y2="2702.4414"/><line style="stroke:#2196F3;stroke-width:3.125;" x1="847.3958" x2="890.1042" y1="2702.4414" y2="2702.4414"/><polygon fill="#2196F3" points="857.8125,2698.2747,847.3958,2702.4414,857.8125,2706.6081,853.6458,2702.4414" style="stroke:#2196F3;stroke-width:1.0416666666666667;"/><text fill="#222222" font-family="Verdana" font-size="12.5" font-weight="bold" lengthAdjust="spacing" textLength="27.0833" x="864.0625" y="2673.4517">[26]</text><text fill="#222222" font-family="Verdana" font-size="12.5" lengthAdjust="spacing" textLength="236.4583" x="916.1458" y="2673.4517">An unexpected internal error occurs</text><path d="M1175,2658.724 L1175,2695.1823 A4.1667,4.1667 0 0 0 1179.1667,2699.349 L1436.4583,2699.349 A4.1667,4.1667 0 0 0 1440.625,2695.1823 L1440.625,2664.974 L1430.2083,2654.5573 L1179.1667,2654.5573 A4.1667,4.1667 0 0 0 1175,2658.724 " fill="url(#gs8jio4q2ophh2)" filter="url(#fs8jio4q2ophh)" style="stroke:#9C27B0;stroke-width:1.0416666666666667;"/><path d="M1430.2083,2654.5573 L1430.2083,2662.8906 A2.0833,2.0833 0 0 0 1432.2917,2664.974 L1440.625,2664.974 L1430.2083,2654.5573 " fill="url(#gs8jio4q2ophh2)" style="stroke:#9C27B0;stroke-width:1.0416666666666667;"/><text fill="#FFFFFF" font-family="Verdana" font-size="12.5" lengthAdjust="spacing" textLength="222.9167" x="1191.6667" y="2681.7851">e.g., Database connection failure.</text><polygon fill="#2196F3" points="420.3125,2748.2422,409.8958,2752.4089,420.3125,2756.5755,416.1458,2752.4089" style="stroke:#2196F3;stroke-width:1.0416666666666667;"/><line style="stroke:#2196F3;stroke-width:3.125;stroke-dasharray:2.0,2.0;" x1="414.0625" x2="834.8958" y1="2752.4089" y2="2752.4089"/><text fill="#222222" font-family="Verdana" font-size="12.5" font-weight="bold" lengthAdjust="spacing" textLength="27.0833" x="436.9792" y="2736.9609">[27]</text><text fill="#222222" font-family="Verdana" font-size="12.5" font-weight="bold" lengthAdjust="spacing" textLength="180.2083" x="489.0625" y="2736.9609">500 Internal Server Error</text><!--SRC=[hLTjRzis4FwkNt5BWJKH4iTjrY_6Li29LynOMnknqs5eYvYMJZONcjGeAcbMzB_lZfHioN5UDfHVB8lalJptt8kUmrW9xIxUlOM150ihLf0P2-VJCOp5BLgOYYiqr_JG7m_XHhebd6CXbKJjuBrnCfE9SDBew3bCfLFOWmjDBp7rCjQt9_XtYJh1MWiT_u2se8izEEbqErrwCS0YiJ9t_kLqAGj8AvEAfRafm2qHN2qmjoR1eZW4gHDLfb8lG82jJIDfhQKRbi8AawNGibW5VomwAx40eLCICJW5PHOUX4n8LPB8JXJzGBfN22lXq4eHHOvTzHxs4oUlWrn2g0VZqMGAnsBzjZYkJJx-Qbp-BOfeZuJlnV5xl25SxBKaMCRMNCiKRHplWIY0jYRZA1VMoKJc520-tr1LNQjEzoSReIELtYUKjaXeAfoOYmBvyA1whWuCJicwqXbThkO4yTxFyzSVkv_teiYR0qUlILCFufXzZEE7lFoazpdqu4CbDE0NMJYEKI3Lvk91L3qZUn5Hd12iN2mTc8pV0AaRvMZzuHufdTMAlAGP7UY3PY37a0Ybc2L476V8dwAaa2L6EsiKYslOGTSsDlZ8UuRSUeuPCa1geKXc9yAmXr7KdzG8V11AfcpoEREwSF0ZGPwKLhfRc9ehrB2_G0Upefp_XOcR7H2ioi6pN2XSMAJzE9wK2VCNpWZ-tYPFpimgL-We8b74n0rA1wSzqfKYhlpBDMGKCFvFd3sgJ3j7LreDCnOu8e4ZbyzWdq4GKXSmosH1C9sP5CaglfjYKzgMpWaAconzCZ0m7l8dMh0-tz3kkJccZCtC4vGFDfjFLhw-u_CnkTBcHc6wmFHXTNprp29lC9TcWLjWVFZMxbSqss_4bKLiOoQkMr8UCvchG02ge9if584OMQdKxNrMFuTV_lUg18JYauHYkxkamrkpaCdtKRYmfiplqqFPkgjiRT3bfOp9uGISN56j_jYwJvIpjv-ZPi4FyV0LhrcnhbySDrj1SPms2DCIiCOyLCtcLliS9_Ry9Clc9r3bT0HRoujO1_nbjmkZts6_vKAJgmTt13GeSDSSNdCYxrNhBIegyS-o3Bjas9lGoHunx5ThYUdxs5bq3gcPhz2KxX1UVVdo7msYaXdjUevQc6LPagOlsqHWEoa5ncXNGXDDgWneTF7jxj1UVQM88grcBvp3LUuAtyqnxTovGoHVS6VY3AywlizuasLAQgm73JhIsVOoD8PxgR5L4u81hPbf9-6g4h7RwQrDNdzGtq7EeLdGS5btoCic43FgX4g5XByZuWYCIY-B_5AcE_PohawNeNDS9jGwTfpnQUd4AdySeqRjgtZfOu1jrUsgjqqd_btNNHBc1nHEz9VT5rKbJ-Fua_uD1HMI7ipUcW13hpsrVAL2lHchXkctKAuzvWep3tcOnMeBfiqXz8Q6faszxhGEXPfEimZbDGyZ9f5iLPWvD-sa4xM0YaBUAextBIf5T-EuWga7GttDemUCQF0aYWOLn2XuOqgTxfePQ6XuT6Q8Ov_vF5snOBA34e3a7TAub4kBz43AX29OqriQbtaEURYZDYFo4qNaGjDOkQIvwXyEorCWpaCF2AuIYBBod0nP4kYLCUihSnwgoeBoknsWH6Xsn-TmdVpRM1ihz0ARC4z2VuTtz8qWNBByJi1MOmEa1WkFiXTEWFeXikftJqAKAhgnSvccg1-7yqzJWg0aOusRC7318C32k4pMRSWxT9xN2zGyTjD9heQ2liMecLZktTjzUZUigR1Nn1MUtudjDdINeeOop0DdVXWucf2KQZzg5i-sqrqu5MazSdDoLvrg9HHPI8o4YulXm5jB_Xmy86cRa6jHmmtBAkf3KG_sZWVxWxMhte6cBumAseOlKRiFC27wH59Daea595fg2Zf_Pw1ll2OXJHi0DdM_NLAzeVM76t_Uw53Kw-RLYUwjljj8l29CXxKHmVvWUaMgXf- -u3QusP_y2m00]--></g></svg>