<?xml version="1.0" encoding="us-ascii" standalone="no"?><svg xmlns="http://www.w3.org/2000/svg" xmlns:xlink="http://www.w3.org/1999/xlink" contentStyleType="text/css" height="2573.9583px" preserveAspectRatio="none" style="width:1293px;height:2573px;" version="1.1" viewBox="0 0 1293 2573" width="1293.75px" zoomAndPan="magnify"><defs><linearGradient id="gt23skfi5e0jc0" x1="50%" x2="50%" y1="0%" y2="100%"><stop offset="0%" stop-color="#FFFFFF"/><stop offset="100%" stop-color="#FFFFFF"/></linearGradient><filter height="300%" id="ft23skfi5e0jc" width="300%" x="-1" y="-1"><feGaussianBlur result="blurOut" stdDeviation="2.0833333333333335"/><feColorMatrix in="blurOut" result="blurOut2" type="matrix" values="0 0 0 0 0 0 0 0 0 0 0 0 0 0 0 0 0 0 .4 0"/><feOffset dx="4.166666666666667" dy="4.166666666666667" in="blurOut2" result="blurOut3"/><feBlend in="SourceGraphic" in2="blurOut3" mode="normal"/></filter><linearGradient id="gt23skfi5e0jc1" x1="50%" x2="50%" y1="0%" y2="100%"><stop offset="0%" stop-color="#4DABF5"/><stop offset="100%" stop-color="#2196F3"/></linearGradient><linearGradient id="gt23skfi5e0jc2" x1="50%" x2="50%" y1="0%" y2="100%"><stop offset="0%" stop-color="#B052C0"/><stop offset="100%" stop-color="#9C27B0"/></linearGradient></defs><g><rect fill="url(#gt23skfi5e0jc0)" height="57.5846" id="_title" rx="4.1667" ry="4.1667" style="stroke:#CCCCCC;stroke-width:1.0416666666666667;" width="478.125" x="409.1146" y="20.8333"/><text fill="#2196F3" font-family="Verdana" font-size="20.8333" font-weight="bold" lengthAdjust="spacing" textLength="444.7917" x="425.7813" y="56.838">RTP Update Flow (INVALID / EXPIRED)</text><rect fill="#FFFFFF" filter="url(#ft23skfi5e0jc)" height="2185.319" style="stroke:#CCCCCC;stroke-width:1.0416666666666667;" width="10.4167" x="571.875" y="259.0169"/><rect fill="#FFFFFF" filter="url(#ft23skfi5e0jc)" height="114.4857" style="stroke:#CCCCCC;stroke-width:1.0416666666666667;" width="10.4167" x="857.2917" y="313.6719"/><rect fill="#FFFFFF" filter="url(#ft23skfi5e0jc)" height="114.4857" style="stroke:#CCCCCC;stroke-width:1.0416666666666667;" width="10.4167" x="990.625" y="852.8646"/><rect fill="#FFFFFF" filter="url(#ft23skfi5e0jc)" height="49.9674" style="stroke:#CCCCCC;stroke-width:1.0416666666666667;" width="10.4167" x="990.625" y="1456.4453"/><rect fill="#FFFFFF" filter="url(#ft23skfi5e0jc)" height="49.9674" style="stroke:#CCCCCC;stroke-width:1.0416666666666667;" width="10.4167" x="990.625" y="1757.2917"/><rect fill="#FFFFFF" filter="url(#ft23skfi5e0jc)" height="49.9674" style="stroke:#CCCCCC;stroke-width:1.0416666666666667;" width="10.4167" x="990.625" y="2058.138"/><rect fill="#FFFFFF" filter="url(#ft23skfi5e0jc)" height="945.2148" style="stroke:#CCCCCC;stroke-width:1.0416666666666667;" width="10.4167" x="1130.2083" y="1228.4831"/><rect fill="url(#gt23skfi5e0jc0)" filter="url(#ft23skfi5e0jc)" height="2107.7474" rx="4.1667" ry="4.1667" style="stroke:#2196F3;stroke-width:1.0416666666666667;" width="1175.5208" x="101.0417" y="329.2969"/><path d="M101.0417,623.8607 L1276.5625,623.8607 L1276.5625,2432.8776 A4.1667,4.1667 0 0 1 1272.3958,2437.0443 L105.2083,2437.0443 A4.1667,4.1667 0 0 1 101.0417,2432.8776 L101.0417,623.8607 " fill="url(#gt23skfi5e0jc0)" style="stroke:none;stroke-width:1.0416666666666667;"/><rect fill="url(#gt23skfi5e0jc0)" filter="url(#ft23skfi5e0jc)" height="1561.263" rx="4.1667" ry="4.1667" style="stroke:#2196F3;stroke-width:1.0416666666666667;" width="1154.6875" x="111.4583" y="868.4896"/><rect fill="url(#gt23skfi5e0jc0)" filter="url(#ft23skfi5e0jc)" height="1155.4362" rx="4.1667" ry="4.1667" style="stroke:#2196F3;stroke-width:1.0416666666666667;" width="1133.8542" x="121.875" y="1129.6224"/><rect fill="url(#gt23skfi5e0jc0)" filter="url(#ft23skfi5e0jc)" height="922.2982" rx="4.1667" ry="4.1667" style="stroke:#2196F3;stroke-width:1.0416666666666667;" width="1113.0208" x="132.2917" y="1244.1081"/><path d="M132.2917,1564.7135 L1245.3125,1564.7135 L1245.3125,1861.3932 A4.1667,4.1667 0 0 1 1241.1458,1865.5599 L136.4583,1865.5599 A4.1667,4.1667 0 0 1 132.2917,1861.3932 L132.2917,1564.7135 " fill="url(#gt23skfi5e0jc0)" style="stroke:none;stroke-width:1.0416666666666667;"/><path d="M132.2917,1865.5599 L1245.3125,1865.5599 L1245.3125,2162.2396 A4.1667,4.1667 0 0 1 1241.1458,2166.4063 L136.4583,2166.4063 A4.1667,4.1667 0 0 1 132.2917,2162.2396 L132.2917,1865.5599 " fill="url(#gt23skfi5e0jc0)" style="stroke:none;stroke-width:1.0416666666666667;"/><path d="M121.875,2173.6979 L1255.7292,2173.6979 L1255.7292,2280.8919 A4.1667,4.1667 0 0 1 1251.5625,2285.0586 L126.0417,2285.0586 A4.1667,4.1667 0 0 1 121.875,2280.8919 L121.875,2173.6979 " fill="url(#gt23skfi5e0jc0)" style="stroke:none;stroke-width:1.0416666666666667;"/><path d="M111.4583,2292.3503 L1266.1458,2292.3503 L1266.1458,2425.5859 A4.1667,4.1667 0 0 1 1261.9792,2429.7526 L115.625,2429.7526 A4.1667,4.1667 0 0 1 111.4583,2425.5859 L111.4583,2292.3503 " fill="url(#gt23skfi5e0jc0)" style="stroke:none;stroke-width:1.0416666666666667;"/><line style="stroke:#CCCCCC;stroke-width:1.0416666666666667;stroke-dasharray:5.0,5.0;" x1="251.0417" x2="251.0417" y1="187.7279" y2="2454.7526"/><line style="stroke:#CCCCCC;stroke-width:1.0416666666666667;stroke-dasharray:5.0,5.0;" x1="576.5625" x2="576.5625" y1="187.7279" y2="2454.7526"/><line style="stroke:#CCCCCC;stroke-width:1.0416666666666667;stroke-dasharray:5.0,5.0;" x1="861.9792" x2="861.9792" y1="187.7279" y2="2454.7526"/><line style="stroke:#CCCCCC;stroke-width:1.0416666666666667;stroke-dasharray:5.0,5.0;" x1="995.3125" x2="995.3125" y1="187.7279" y2="2454.7526"/><line style="stroke:#CCCCCC;stroke-width:1.0416666666666667;stroke-dasharray:5.0,5.0;" x1="1134.8958" x2="1134.8958" y1="187.7279" y2="2454.7526"/><rect fill="url(#gt23skfi5e0jc1)" filter="url(#ft23skfi5e0jc)" height="49.9674" rx="4.1667" ry="4.1667" style="stroke:#2196F3;stroke-width:1.0416666666666667;" width="130.2083" x="184.375" y="133.5938"/><text fill="#FFFFFF" font-family="Verdana" font-size="12.5" lengthAdjust="spacing" textLength="94.7917" x="202.0833" y="162.9049">MS-CONSUMER</text><rect fill="url(#gt23skfi5e0jc1)" filter="url(#ft23skfi5e0jc)" height="49.9674" rx="4.1667" ry="4.1667" style="stroke:#2196F3;stroke-width:1.0416666666666667;" width="130.2083" x="184.375" y="2453.7109"/><text fill="#FFFFFF" font-family="Verdana" font-size="12.5" lengthAdjust="spacing" textLength="94.7917" x="202.0833" y="2483.0221">MS-CONSUMER</text><rect fill="url(#gt23skfi5e0jc1)" filter="url(#ft23skfi5e0jc)" height="49.9674" rx="4.1667" ry="4.1667" style="stroke:#2196F3;stroke-width:1.0416666666666667;" width="110.4167" x="520.3125" y="133.5938"/><text fill="#FFFFFF" font-family="Verdana" font-size="12.5" lengthAdjust="spacing" textLength="75" x="538.0208" y="162.9049">MS-SENDER</text><rect fill="url(#gt23skfi5e0jc1)" filter="url(#ft23skfi5e0jc)" height="49.9674" rx="4.1667" ry="4.1667" style="stroke:#2196F3;stroke-width:1.0416666666666667;" width="110.4167" x="520.3125" y="2453.7109"/><text fill="#FFFFFF" font-family="Verdana" font-size="12.5" lengthAdjust="spacing" textLength="75" x="538.0208" y="2483.0221">MS-SENDER</text><text fill="#222222" font-family="Verdana" font-size="12.5" lengthAdjust="spacing" textLength="35.4167" x="841.6667" y="159.8124">Redis</text><text fill="#222222" font-family="Verdana" font-size="12.5" lengthAdjust="spacing" textLength="159.375" x="779.6875" y="174.3632">(Idempotency Key Store)</text><path d="M843.75,100.293 C843.75,89.8763 862.5,89.8763 862.5,89.8763 C862.5,89.8763 881.25,89.8763 881.25,100.293 L881.25,127.3763 C881.25,137.793 862.5,137.793 862.5,137.793 C862.5,137.793 843.75,137.793 843.75,127.3763 L843.75,100.293 " fill="url(#gt23skfi5e0jc1)" filter="url(#ft23skfi5e0jc)" style="stroke:#2196F3;stroke-width:1.5625;"/><path d="M843.75,100.293 C843.75,110.7096 862.5,110.7096 862.5,110.7096 C862.5,110.7096 881.25,110.7096 881.25,100.293 " fill="none" style="stroke:#2196F3;stroke-width:1.5625;"/><text fill="#222222" font-family="Verdana" font-size="12.5" lengthAdjust="spacing" textLength="35.4167" x="841.6667" y="2475.7304">Redis</text><text fill="#222222" font-family="Verdana" font-size="12.5" lengthAdjust="spacing" textLength="159.375" x="779.6875" y="2490.2812">(Idempotency Key Store)</text><path d="M843.75,2514.0625 C843.75,2503.6458 862.5,2503.6458 862.5,2503.6458 C862.5,2503.6458 881.25,2503.6458 881.25,2514.0625 L881.25,2541.1458 C881.25,2551.5625 862.5,2551.5625 862.5,2551.5625 C862.5,2551.5625 843.75,2551.5625 843.75,2541.1458 L843.75,2514.0625 " fill="url(#gt23skfi5e0jc1)" filter="url(#ft23skfi5e0jc)" style="stroke:#2196F3;stroke-width:1.5625;"/><path d="M843.75,2514.0625 C843.75,2524.4792 862.5,2524.4792 862.5,2524.4792 C862.5,2524.4792 881.25,2524.4792 881.25,2514.0625 " fill="none" style="stroke:#2196F3;stroke-width:1.5625;"/><text fill="#222222" font-family="Verdana" font-size="12.5" lengthAdjust="spacing" textLength="32.2917" x="976.5625" y="174.3632">SRTP</text><path d="M977.0833,114.8438 C977.0833,104.4271 995.8333,104.4271 995.8333,104.4271 C995.8333,104.4271 1014.5833,104.4271 1014.5833,114.8438 L1014.5833,141.9271 C1014.5833,152.3438 995.8333,152.3438 995.8333,152.3438 C995.8333,152.3438 977.0833,152.3438 977.0833,141.9271 L977.0833,114.8438 " fill="url(#gt23skfi5e0jc1)" filter="url(#ft23skfi5e0jc)" style="stroke:#2196F3;stroke-width:1.5625;"/><path d="M977.0833,114.8438 C977.0833,125.2604 995.8333,125.2604 995.8333,125.2604 C995.8333,125.2604 1014.5833,125.2604 1014.5833,114.8438 " fill="none" style="stroke:#2196F3;stroke-width:1.5625;"/><text fill="#222222" font-family="Verdana" font-size="12.5" lengthAdjust="spacing" textLength="32.2917" x="976.5625" y="2475.7304">SRTP</text><path d="M977.0833,2499.5117 C977.0833,2489.0951 995.8333,2489.0951 995.8333,2489.0951 C995.8333,2489.0951 1014.5833,2489.0951 1014.5833,2499.5117 L1014.5833,2526.5951 C1014.5833,2537.0117 995.8333,2537.0117 995.8333,2537.0117 C995.8333,2537.0117 977.0833,2537.0117 977.0833,2526.5951 L977.0833,2499.5117 " fill="url(#gt23skfi5e0jc1)" filter="url(#ft23skfi5e0jc)" style="stroke:#2196F3;stroke-width:1.5625;"/><path d="M977.0833,2499.5117 C977.0833,2509.9284 995.8333,2509.9284 995.8333,2509.9284 C995.8333,2509.9284 1014.5833,2509.9284 1014.5833,2499.5117 " fill="none" style="stroke:#2196F3;stroke-width:1.5625;"/><rect fill="url(#gt23skfi5e0jc1)" filter="url(#ft23skfi5e0jc)" height="49.9674" rx="4.1667" ry="4.1667" style="stroke:#2196F3;stroke-width:1.0416666666666667;" width="112.5" x="1077.6042" y="133.5938"/><text fill="#FFFFFF" font-family="Verdana" font-size="12.5" lengthAdjust="spacing" textLength="77.0833" x="1095.3125" y="162.9049">SP Debitore</text><rect fill="url(#gt23skfi5e0jc1)" filter="url(#ft23skfi5e0jc)" height="49.9674" rx="4.1667" ry="4.1667" style="stroke:#2196F3;stroke-width:1.0416666666666667;" width="112.5" x="1077.6042" y="2453.7109"/><text fill="#FFFFFF" font-family="Verdana" font-size="12.5" lengthAdjust="spacing" textLength="77.0833" x="1095.3125" y="2483.0221">SP Debitore</text><rect fill="#FFFFFF" filter="url(#ft23skfi5e0jc)" height="2185.319" style="stroke:#CCCCCC;stroke-width:1.0416666666666667;" width="10.4167" x="571.875" y="259.0169"/><rect fill="#FFFFFF" filter="url(#ft23skfi5e0jc)" height="114.4857" style="stroke:#CCCCCC;stroke-width:1.0416666666666667;" width="10.4167" x="857.2917" y="313.6719"/><rect fill="#FFFFFF" filter="url(#ft23skfi5e0jc)" height="114.4857" style="stroke:#CCCCCC;stroke-width:1.0416666666666667;" width="10.4167" x="990.625" y="852.8646"/><rect fill="#FFFFFF" filter="url(#ft23skfi5e0jc)" height="49.9674" style="stroke:#CCCCCC;stroke-width:1.0416666666666667;" width="10.4167" x="990.625" y="1456.4453"/><rect fill="#FFFFFF" filter="url(#ft23skfi5e0jc)" height="49.9674" style="stroke:#CCCCCC;stroke-width:1.0416666666666667;" width="10.4167" x="990.625" y="1757.2917"/><rect fill="#FFFFFF" filter="url(#ft23skfi5e0jc)" height="49.9674" style="stroke:#CCCCCC;stroke-width:1.0416666666666667;" width="10.4167" x="990.625" y="2058.138"/><rect fill="#FFFFFF" filter="url(#ft23skfi5e0jc)" height="945.2148" style="stroke:#CCCCCC;stroke-width:1.0416666666666667;" width="10.4167" x="1130.2083" y="1228.4831"/><polygon fill="#2196F3" points="559.375,254.8503,569.7917,259.0169,559.375,263.1836,563.5417,259.0169" style="stroke:#2196F3;stroke-width:1.0416666666666667;"/><line style="stroke:#2196F3;stroke-width:3.125;" x1="251.0417" x2="565.625" y1="259.0169" y2="259.0169"/><text fill="#222222" font-family="Verdana" font-size="12.5" font-weight="bold" lengthAdjust="spacing" textLength="8.3333" x="268.75" y="236.2935">1</text><text fill="#222222" font-family="Verdana" font-size="12.5" lengthAdjust="spacing" textLength="179.1667" x="302.0833" y="229.0181">Forward GDP UPDATE event</text><text fill="#222222" font-family="Verdana" font-size="12.5" lengthAdjust="spacing" textLength="246.875" x="302.0833" y="243.5689">Headers: Idempotency-Key, RequestId</text><path d="M15.625,207.5195 L15.625,258.5612 A4.1667,4.1667 0 0 0 19.7917,262.7279 L238.5417,262.7279 A4.1667,4.1667 0 0 0 242.7083,258.5612 L242.7083,213.7695 L232.2917,203.3529 L19.7917,203.3529 A4.1667,4.1667 0 0 0 15.625,207.5195 " fill="url(#gt23skfi5e0jc2)" filter="url(#ft23skfi5e0jc)" style="stroke:#9C27B0;stroke-width:1.0416666666666667;"/><path d="M232.2917,203.3529 L232.2917,211.6862 A2.0833,2.0833 0 0 0 234.375,213.7695 L242.7083,213.7695 L232.2917,203.3529 " fill="url(#gt23skfi5e0jc2)" style="stroke:#9C27B0;stroke-width:1.0416666666666667;"/><text fill="#FFFFFF" font-family="Verdana" font-size="12.5" lengthAdjust="spacing" textLength="134.375" x="32.2917" y="230.5806">Operation = UPDATE</text><text fill="#FFFFFF" font-family="Verdana" font-size="12.5" lengthAdjust="spacing" textLength="184.375" x="32.2917" y="245.1314">Status = INVALID or EXPIRED</text><polygon fill="#2196F3" points="844.7917,309.5052,855.2083,313.6719,844.7917,317.8385,848.9583,313.6719" style="stroke:#2196F3;stroke-width:1.0416666666666667;"/><line style="stroke:#2196F3;stroke-width:3.125;" x1="582.2917" x2="851.0417" y1="313.6719" y2="313.6719"/><text fill="#222222" font-family="Verdana" font-size="12.5" font-weight="bold" lengthAdjust="spacing" textLength="8.3333" x="600" y="298.2239">2</text><text fill="#222222" font-family="Verdana" font-size="12.5" lengthAdjust="spacing" textLength="153.125" x="633.3333" y="298.2239">Check Idempotency-Key</text><path d="M105.2083,329.2969 L188.5417,329.2969 L188.5417,356.3477 L178.125,366.7643 L101.0417,366.7643 L101.0417,333.4635 A4.1667,4.1667 0 0 1 105.2083,329.2969 " fill="#FFFFFF" style="stroke:#666666;stroke-width:1.0416666666666667;"/><rect fill="none" height="2107.7474" rx="4.1667" ry="4.1667" style="stroke:#2196F3;stroke-width:1.0416666666666667;" width="1175.5208" x="101.0417" y="329.2969"/><text fill="#9C27B0" font-family="Verdana" font-size="12.5" font-weight="bold" lengthAdjust="spacing" textLength="19.7917" x="127.0833" y="352.358">alt</text><text fill="#222222" font-family="Verdana" font-size="12.5" font-weight="bold" lengthAdjust="spacing" textLength="260.4167" x="214.5833" y="353.3997">[Idempotency-Key already present]</text><polygon fill="#2196F3" points="593.75,423.9909,583.3333,428.1576,593.75,432.3242,589.5833,428.1576" style="stroke:#2196F3;stroke-width:1.0416666666666667;"/><line style="stroke:#2196F3;stroke-width:3.125;stroke-dasharray:2.0,2.0;" x1="587.5" x2="861.4583" y1="428.1576" y2="428.1576"/><text fill="#222222" font-family="Verdana" font-size="12.5" font-weight="bold" lengthAdjust="spacing" textLength="8.3333" x="610.4167" y="412.7096">3</text><text fill="#222222" font-family="Verdana" font-size="12.5" lengthAdjust="spacing" textLength="63.5417" x="643.75" y="412.7096">Key found</text><line style="stroke:#2196F3;stroke-width:3.125;" x1="582.2917" x2="626.0417" y1="478.125" y2="478.125"/><line style="stroke:#2196F3;stroke-width:3.125;" x1="626.0417" x2="626.0417" y1="478.125" y2="491.6667"/><line style="stroke:#2196F3;stroke-width:3.125;" x1="583.3333" x2="626.0417" y1="491.6667" y2="491.6667"/><polygon fill="#2196F3" points="593.75,487.5,583.3333,491.6667,593.75,495.8333,589.5833,491.6667" style="stroke:#2196F3;stroke-width:1.0416666666666667;"/><text fill="#222222" font-family="Verdana" font-size="12.5" font-weight="bold" lengthAdjust="spacing" textLength="8.3333" x="600" y="462.677">4</text><text fill="#222222" font-family="Verdana" font-size="12.5" lengthAdjust="spacing" textLength="185.4167" x="633.3333" y="462.677">Discard duplicated message</text><path d="M587.5,509.375 L587.5,560.4167 A4.1667,4.1667 0 0 0 591.6667,564.5833 L809.375,564.5833 A4.1667,4.1667 0 0 0 813.5417,560.4167 L813.5417,515.625 L803.125,505.2083 L591.6667,505.2083 A4.1667,4.1667 0 0 0 587.5,509.375 " fill="url(#gt23skfi5e0jc2)" filter="url(#ft23skfi5e0jc)" style="stroke:#9C27B0;stroke-width:1.0416666666666667;"/><path d="M803.125,505.2083 L803.125,513.5417 A2.0833,2.0833 0 0 0 805.2083,515.625 L813.5417,515.625 L803.125,505.2083 " fill="url(#gt23skfi5e0jc2)" style="stroke:#9C27B0;stroke-width:1.0416666666666667;"/><text fill="#FFFFFF" font-family="Verdana" font-size="12.5" lengthAdjust="spacing" textLength="183.3333" x="604.1667" y="532.4361">Message already processed</text><text fill="#FFFFFF" font-family="Verdana" font-size="12.5" lengthAdjust="spacing" textLength="157.2917" x="604.1667" y="546.9869">or already in processing</text><polygon fill="#2196F3" points="262.5,611.3607,252.0833,615.5273,262.5,619.694,258.3333,615.5273" style="stroke:#2196F3;stroke-width:1.0416666666666667;"/><line style="stroke:#2196F3;stroke-width:3.125;stroke-dasharray:2.0,2.0;" x1="256.25" x2="570.8333" y1="615.5273" y2="615.5273"/><text fill="#222222" font-family="Verdana" font-size="12.5" font-weight="bold" lengthAdjust="spacing" textLength="8.3333" x="279.1667" y="600.0793">5</text><text fill="#222222" font-family="Verdana" font-size="12.5" lengthAdjust="spacing" textLength="77.0833" x="312.5" y="600.0793">409 Conflict</text><line style="stroke:#2196F3;stroke-width:1.0416666666666667;stroke-dasharray:2.0,2.0;" x1="101.0417" x2="1276.5625" y1="624.9023" y2="624.9023"/><text fill="#222222" font-family="Verdana" font-size="12.5" font-weight="bold" lengthAdjust="spacing" textLength="229.1667" x="116.6667" y="646.9218">[Idempotency-Key not present]</text><polygon fill="#2196F3" points="593.75,698.7956,583.3333,702.9622,593.75,707.1289,589.5833,702.9622" style="stroke:#2196F3;stroke-width:1.0416666666666667;"/><line style="stroke:#2196F3;stroke-width:3.125;stroke-dasharray:2.0,2.0;" x1="587.5" x2="861.4583" y1="702.9622" y2="702.9622"/><text fill="#222222" font-family="Verdana" font-size="12.5" font-weight="bold" lengthAdjust="spacing" textLength="8.3333" x="610.4167" y="687.5142">6</text><text fill="#222222" font-family="Verdana" font-size="12.5" lengthAdjust="spacing" textLength="89.5833" x="643.75" y="687.5142">Key not found</text><polygon fill="#2196F3" points="850,748.763,860.4167,752.9297,850,757.0964,854.1667,752.9297" style="stroke:#2196F3;stroke-width:1.0416666666666667;"/><line style="stroke:#2196F3;stroke-width:3.125;" x1="582.2917" x2="856.25" y1="752.9297" y2="752.9297"/><text fill="#222222" font-family="Verdana" font-size="12.5" font-weight="bold" lengthAdjust="spacing" textLength="8.3333" x="600" y="737.4817">7</text><text fill="#222222" font-family="Verdana" font-size="12.5" lengthAdjust="spacing" textLength="144.7917" x="633.3333" y="737.4817">Save Idempotency-Key</text><polygon fill="#2196F3" points="593.75,798.7305,583.3333,802.8971,593.75,807.0638,589.5833,802.8971" style="stroke:#2196F3;stroke-width:1.0416666666666667;"/><line style="stroke:#2196F3;stroke-width:3.125;stroke-dasharray:2.0,2.0;" x1="587.5" x2="861.4583" y1="802.8971" y2="802.8971"/><text fill="#222222" font-family="Verdana" font-size="12.5" font-weight="bold" lengthAdjust="spacing" textLength="8.3333" x="610.4167" y="787.4491">8</text><text fill="#222222" font-family="Verdana" font-size="12.5" lengthAdjust="spacing" textLength="64.5833" x="643.75" y="787.4491">Key saved</text><polygon fill="#2196F3" points="978.125,848.6979,988.5417,852.8646,978.125,857.0313,982.2917,852.8646" style="stroke:#2196F3;stroke-width:1.0416666666666667;"/><line style="stroke:#2196F3;stroke-width:3.125;" x1="582.2917" x2="984.375" y1="852.8646" y2="852.8646"/><text fill="#222222" font-family="Verdana" font-size="12.5" font-weight="bold" lengthAdjust="spacing" textLength="8.3333" x="600" y="837.4166">9</text><text fill="#222222" font-family="Verdana" font-size="12.5" lengthAdjust="spacing" textLength="151.0417" x="633.3333" y="837.4166">findRtpByCompositeKey</text><path d="M115.625,868.4896 L198.9583,868.4896 L198.9583,895.5404 L188.5417,905.957 L111.4583,905.957 L111.4583,872.6563 A4.1667,4.1667 0 0 1 115.625,868.4896 " fill="#FFFFFF" style="stroke:#666666;stroke-width:1.0416666666666667;"/><rect fill="none" height="1561.263" rx="4.1667" ry="4.1667" style="stroke:#2196F3;stroke-width:1.0416666666666667;" width="1154.6875" x="111.4583" y="868.4896"/><text fill="#9C27B0" font-family="Verdana" font-size="12.5" font-weight="bold" lengthAdjust="spacing" textLength="19.7917" x="137.5" y="891.5507">alt</text><text fill="#222222" font-family="Verdana" font-size="12.5" font-weight="bold" lengthAdjust="spacing" textLength="85.4167" x="225" y="892.5924">[RTP exists]</text><polygon fill="#2196F3" points="593.75,963.1836,583.3333,967.3503,593.75,971.5169,589.5833,967.3503" style="stroke:#2196F3;stroke-width:1.0416666666666667;"/><line style="stroke:#2196F3;stroke-width:3.125;stroke-dasharray:2.0,2.0;" x1="587.5" x2="994.7917" y1="967.3503" y2="967.3503"/><text fill="#222222" font-family="Verdana" font-size="12.5" font-weight="bold" lengthAdjust="spacing" textLength="16.6667" x="610.4167" y="951.9023">10</text><text fill="#222222" font-family="Verdana" font-size="12.5" lengthAdjust="spacing" textLength="23.9583" x="652.0833" y="951.9023">RTP</text><path d="M587.5,985.0586 L587.5,1109.0169 A4.1667,4.1667 0 0 0 591.6667,1113.1836 L828.125,1113.1836 A4.1667,4.1667 0 0 0 832.2917,1109.0169 L832.2917,991.3086 L821.875,980.8919 L591.6667,980.8919 A4.1667,4.1667 0 0 0 587.5,985.0586 " fill="url(#gt23skfi5e0jc2)" filter="url(#ft23skfi5e0jc)" style="stroke:#9C27B0;stroke-width:1.0416666666666667;"/><path d="M821.875,980.8919 L821.875,989.2253 A2.0833,2.0833 0 0 0 823.9583,991.3086 L832.2917,991.3086 L821.875,980.8919 " fill="url(#gt23skfi5e0jc2)" style="stroke:#9C27B0;stroke-width:1.0416666666666667;"/><text fill="#FFFFFF" font-family="Verdana" font-size="12.5" lengthAdjust="spacing" textLength="202.0833" x="604.1667" y="1008.1197">Valid statuses for cancellation:</text><text fill="#FFFFFF" font-family="Verdana" font-size="12.5" lengthAdjust="spacing" textLength="66.6667" x="604.1667" y="1022.6705">- CREATED</text><text fill="#FFFFFF" font-family="Verdana" font-size="12.5" lengthAdjust="spacing" textLength="41.6667" x="604.1667" y="1037.2213">- SENT</text><text fill="#FFFFFF" font-family="Verdana" font-size="12.5" lengthAdjust="spacing" textLength="75" x="604.1667" y="1051.7721">- ACCEPTED</text><text fill="#FFFFFF" font-family="Verdana" font-size="12.5" lengthAdjust="spacing" textLength="115.625" x="604.1667" y="1066.3228">- USER_ACCEPTED</text><text fill="#FFFFFF" font-family="Verdana" font-size="12.5" lengthAdjust="spacing" textLength="4.1667" x="604.1667" y="1080.8736">&#160;</text><text fill="#FFFFFF" font-family="Verdana" font-size="12.5" lengthAdjust="spacing" textLength="192.7083" x="604.1667" y="1095.4244">Cancellation request initiated</text><path d="M126.0417,1129.6224 L209.375,1129.6224 L209.375,1156.6732 L198.9583,1167.0898 L121.875,1167.0898 L121.875,1133.7891 A4.1667,4.1667 0 0 1 126.0417,1129.6224 " fill="#FFFFFF" style="stroke:#666666;stroke-width:1.0416666666666667;"/><rect fill="none" height="1155.4362" rx="4.1667" ry="4.1667" style="stroke:#2196F3;stroke-width:1.0416666666666667;" width="1133.8542" x="121.875" y="1129.6224"/><text fill="#9C27B0" font-family="Verdana" font-size="12.5" font-weight="bold" lengthAdjust="spacing" textLength="19.7917" x="147.9167" y="1152.6835">alt</text><text fill="#222222" font-family="Verdana" font-size="12.5" font-weight="bold" lengthAdjust="spacing" textLength="114.5833" x="235.4167" y="1153.7252">[Status is valid]</text><polygon fill="#2196F3" points="1117.7083,1224.3164,1128.125,1228.4831,1117.7083,1232.6497,1121.875,1228.4831" style="stroke:#2196F3;stroke-width:1.0416666666666667;"/><line style="stroke:#2196F3;stroke-width:3.125;" x1="582.2917" x2="1123.9583" y1="1228.4831" y2="1228.4831"/><text fill="#222222" font-family="Verdana" font-size="12.5" font-weight="bold" lengthAdjust="spacing" textLength="16.6667" x="600" y="1213.0351">11</text><text fill="#222222" font-family="Verdana" font-size="12.5" lengthAdjust="spacing" textLength="414.5833" x="641.6667" y="1213.0351">POST /sepa-request-to-pay-requests/{id}/cancellation-requests</text><path d="M136.4583,1244.1081 L219.7917,1244.1081 L219.7917,1271.1589 L209.375,1281.5755 L132.2917,1281.5755 L132.2917,1248.2747 A4.1667,4.1667 0 0 1 136.4583,1244.1081 " fill="#FFFFFF" style="stroke:#666666;stroke-width:1.0416666666666667;"/><rect fill="none" height="922.2982" rx="4.1667" ry="4.1667" style="stroke:#2196F3;stroke-width:1.0416666666666667;" width="1113.0208" x="132.2917" y="1244.1081"/><text fill="#9C27B0" font-family="Verdana" font-size="12.5" font-weight="bold" lengthAdjust="spacing" textLength="19.7917" x="158.3333" y="1267.1692">alt</text><text fill="#222222" font-family="Verdana" font-size="12.5" font-weight="bold" lengthAdjust="spacing" textLength="119.7917" x="245.8333" y="1268.2109">[Async flow EPC]</text><polygon fill="#2196F3" points="593.75,1338.8021,583.3333,1342.9688,593.75,1347.1354,589.5833,1342.9688" style="stroke:#2196F3;stroke-width:1.0416666666666667;"/><line style="stroke:#2196F3;stroke-width:3.125;stroke-dasharray:2.0,2.0;" x1="587.5" x2="1129.1667" y1="1342.9688" y2="1342.9688"/><text fill="#222222" font-family="Verdana" font-size="12.5" font-weight="bold" lengthAdjust="spacing" textLength="16.6667" x="610.4167" y="1327.5208">12</text><text fill="#222222" font-family="Verdana" font-size="12.5" lengthAdjust="spacing" textLength="95.8333" x="652.0833" y="1327.5208">OK empty body</text><line style="stroke:#2196F3;stroke-width:3.125;" x1="582.2917" x2="626.0417" y1="1392.9362" y2="1392.9362"/><line style="stroke:#2196F3;stroke-width:3.125;" x1="626.0417" x2="626.0417" y1="1392.9362" y2="1406.4779"/><line style="stroke:#2196F3;stroke-width:3.125;" x1="583.3333" x2="626.0417" y1="1406.4779" y2="1406.4779"/><polygon fill="#2196F3" points="593.75,1402.3112,583.3333,1406.4779,593.75,1410.6445,589.5833,1406.4779" style="stroke:#2196F3;stroke-width:1.0416666666666667;"/><text fill="#222222" font-family="Verdana" font-size="12.5" font-weight="bold" lengthAdjust="spacing" textLength="16.6667" x="600" y="1377.4882">13</text><text fill="#222222" font-family="Verdana" font-size="12.5" lengthAdjust="spacing" textLength="163.5417" x="641.6667" y="1377.4882">Set RTP status RFC_SENT</text><polygon fill="#2196F3" points="978.125,1452.2786,988.5417,1456.4453,978.125,1460.612,982.2917,1456.4453" style="stroke:#2196F3;stroke-width:1.0416666666666667;"/><line style="stroke:#2196F3;stroke-width:3.125;" x1="582.2917" x2="984.375" y1="1456.4453" y2="1456.4453"/><text fill="#222222" font-family="Verdana" font-size="12.5" font-weight="bold" lengthAdjust="spacing" textLength="16.6667" x="600" y="1440.9973">14</text><text fill="#222222" font-family="Verdana" font-size="12.5" lengthAdjust="spacing" textLength="137.5" x="641.6667" y="1440.9973">Save RTP (RFC_SENT)</text><polygon fill="#2196F3" points="593.75,1502.2461,583.3333,1506.4128,593.75,1510.5794,589.5833,1506.4128" style="stroke:#2196F3;stroke-width:1.0416666666666667;"/><line style="stroke:#2196F3;stroke-width:3.125;stroke-dasharray:2.0,2.0;" x1="587.5" x2="994.7917" y1="1506.4128" y2="1506.4128"/><text fill="#222222" font-family="Verdana" font-size="12.5" font-weight="bold" lengthAdjust="spacing" textLength="16.6667" x="610.4167" y="1490.9648">15</text><text fill="#222222" font-family="Verdana" font-size="12.5" lengthAdjust="spacing" textLength="67.7083" x="652.0833" y="1490.9648">Saved RTP</text><polygon fill="#2196F3" points="262.5,1552.2135,252.0833,1556.3802,262.5,1560.5469,258.3333,1556.3802" style="stroke:#2196F3;stroke-width:1.0416666666666667;"/><line style="stroke:#2196F3;stroke-width:3.125;stroke-dasharray:2.0,2.0;" x1="256.25" x2="570.8333" y1="1556.3802" y2="1556.3802"/><text fill="#222222" font-family="Verdana" font-size="12.5" font-weight="bold" lengthAdjust="spacing" textLength="16.6667" x="279.1667" y="1540.9322">16</text><text fill="#222222" font-family="Verdana" font-size="12.5" lengthAdjust="spacing" textLength="103.125" x="320.8333" y="1540.9322">204 No Content</text><line style="stroke:#2196F3;stroke-width:1.0416666666666667;stroke-dasharray:2.0,2.0;" x1="132.2917" x2="1245.3125" y1="1565.7552" y2="1565.7552"/><text fill="#222222" font-family="Verdana" font-size="12.5" font-weight="bold" lengthAdjust="spacing" textLength="111.4583" x="147.9167" y="1587.7747">[Sync flow EPC]</text><polygon fill="#2196F3" points="593.75,1639.6484,583.3333,1643.8151,593.75,1647.9818,589.5833,1643.8151" style="stroke:#2196F3;stroke-width:1.0416666666666667;"/><line style="stroke:#2196F3;stroke-width:3.125;stroke-dasharray:2.0,2.0;" x1="587.5" x2="1129.1667" y1="1643.8151" y2="1643.8151"/><text fill="#222222" font-family="Verdana" font-size="12.5" font-weight="bold" lengthAdjust="spacing" textLength="16.6667" x="610.4167" y="1628.3671">17</text><text fill="#222222" font-family="Verdana" font-size="12.5" lengthAdjust="spacing" textLength="71.875" x="652.0833" y="1628.3671">OK payload</text><line style="stroke:#2196F3;stroke-width:3.125;" x1="582.2917" x2="626.0417" y1="1693.7826" y2="1693.7826"/><line style="stroke:#2196F3;stroke-width:3.125;" x1="626.0417" x2="626.0417" y1="1693.7826" y2="1707.3242"/><line style="stroke:#2196F3;stroke-width:3.125;" x1="583.3333" x2="626.0417" y1="1707.3242" y2="1707.3242"/><polygon fill="#2196F3" points="593.75,1703.1576,583.3333,1707.3242,593.75,1711.4909,589.5833,1707.3242" style="stroke:#2196F3;stroke-width:1.0416666666666667;"/><text fill="#222222" font-family="Verdana" font-size="12.5" font-weight="bold" lengthAdjust="spacing" textLength="16.6667" x="600" y="1678.3346">18</text><text fill="#222222" font-family="Verdana" font-size="12.5" lengthAdjust="spacing" textLength="172.9167" x="641.6667" y="1678.3346">Set RTP status CANCELLED</text><polygon fill="#2196F3" points="978.125,1753.125,988.5417,1757.2917,978.125,1761.4583,982.2917,1757.2917" style="stroke:#2196F3;stroke-width:1.0416666666666667;"/><line style="stroke:#2196F3;stroke-width:3.125;" x1="582.2917" x2="984.375" y1="1757.2917" y2="1757.2917"/><text fill="#222222" font-family="Verdana" font-size="12.5" font-weight="bold" lengthAdjust="spacing" textLength="16.6667" x="600" y="1741.8437">19</text><text fill="#222222" font-family="Verdana" font-size="12.5" lengthAdjust="spacing" textLength="146.875" x="641.6667" y="1741.8437">Save RTP (CANCELLED)</text><polygon fill="#2196F3" points="593.75,1803.0924,583.3333,1807.2591,593.75,1811.4258,589.5833,1807.2591" style="stroke:#2196F3;stroke-width:1.0416666666666667;"/><line style="stroke:#2196F3;stroke-width:3.125;stroke-dasharray:2.0,2.0;" x1="587.5" x2="994.7917" y1="1807.2591" y2="1807.2591"/><text fill="#222222" font-family="Verdana" font-size="12.5" font-weight="bold" lengthAdjust="spacing" textLength="16.6667" x="610.4167" y="1791.8111">20</text><text fill="#222222" font-family="Verdana" font-size="12.5" lengthAdjust="spacing" textLength="67.7083" x="652.0833" y="1791.8111">Saved RTP</text><polygon fill="#2196F3" points="262.5,1853.0599,252.0833,1857.2266,262.5,1861.3932,258.3333,1857.2266" style="stroke:#2196F3;stroke-width:1.0416666666666667;"/><line style="stroke:#2196F3;stroke-width:3.125;stroke-dasharray:2.0,2.0;" x1="256.25" x2="570.8333" y1="1857.2266" y2="1857.2266"/><text fill="#222222" font-family="Verdana" font-size="12.5" font-weight="bold" lengthAdjust="spacing" textLength="16.6667" x="279.1667" y="1841.7786">21</text><text fill="#222222" font-family="Verdana" font-size="12.5" lengthAdjust="spacing" textLength="45.8333" x="320.8333" y="1841.7786">200 OK</text><line style="stroke:#2196F3;stroke-width:1.0416666666666667;stroke-dasharray:2.0,2.0;" x1="132.2917" x2="1245.3125" y1="1866.6016" y2="1866.6016"/><text fill="#222222" font-family="Verdana" font-size="12.5" font-weight="bold" lengthAdjust="spacing" textLength="162.5" x="147.9167" y="1888.621">[Error Sync Response]</text><polygon fill="#2196F3" points="593.75,1940.4948,583.3333,1944.6615,593.75,1948.8281,589.5833,1944.6615" style="stroke:#2196F3;stroke-width:1.0416666666666667;"/><line style="stroke:#2196F3;stroke-width:3.125;stroke-dasharray:2.0,2.0;" x1="587.5" x2="1129.1667" y1="1944.6615" y2="1944.6615"/><text fill="#222222" font-family="Verdana" font-size="12.5" font-weight="bold" lengthAdjust="spacing" textLength="16.6667" x="610.4167" y="1929.2135">22</text><text fill="#222222" font-family="Verdana" font-size="12.5" lengthAdjust="spacing" textLength="101.0417" x="652.0833" y="1929.2135">Error (4xx / 5xx)</text><line style="stroke:#2196F3;stroke-width:3.125;" x1="582.2917" x2="626.0417" y1="1994.6289" y2="1994.6289"/><line style="stroke:#2196F3;stroke-width:3.125;" x1="626.0417" x2="626.0417" y1="1994.6289" y2="2008.1706"/><line style="stroke:#2196F3;stroke-width:3.125;" x1="583.3333" x2="626.0417" y1="2008.1706" y2="2008.1706"/><polygon fill="#2196F3" points="593.75,2004.0039,583.3333,2008.1706,593.75,2012.3372,589.5833,2008.1706" style="stroke:#2196F3;stroke-width:1.0416666666666667;"/><text fill="#222222" font-family="Verdana" font-size="12.5" font-weight="bold" lengthAdjust="spacing" textLength="16.6667" x="600" y="1979.1809">23</text><text fill="#222222" font-family="Verdana" font-size="12.5" lengthAdjust="spacing" textLength="197.9167" x="641.6667" y="1979.1809">Set RTP status ERROR_CANCEL</text><polygon fill="#2196F3" points="978.125,2053.9714,988.5417,2058.138,978.125,2062.3047,982.2917,2058.138" style="stroke:#2196F3;stroke-width:1.0416666666666667;"/><line style="stroke:#2196F3;stroke-width:3.125;" x1="582.2917" x2="984.375" y1="2058.138" y2="2058.138"/><text fill="#222222" font-family="Verdana" font-size="12.5" font-weight="bold" lengthAdjust="spacing" textLength="16.6667" x="600" y="2042.69">24</text><text fill="#222222" font-family="Verdana" font-size="12.5" lengthAdjust="spacing" textLength="171.875" x="641.6667" y="2042.69">Save RTP (ERROR_CANCEL)</text><polygon fill="#2196F3" points="593.75,2103.9388,583.3333,2108.1055,593.75,2112.2721,589.5833,2108.1055" style="stroke:#2196F3;stroke-width:1.0416666666666667;"/><line style="stroke:#2196F3;stroke-width:3.125;stroke-dasharray:2.0,2.0;" x1="587.5" x2="994.7917" y1="2108.1055" y2="2108.1055"/><text fill="#222222" font-family="Verdana" font-size="12.5" font-weight="bold" lengthAdjust="spacing" textLength="16.6667" x="610.4167" y="2092.6575">25</text><text fill="#222222" font-family="Verdana" font-size="12.5" lengthAdjust="spacing" textLength="67.7083" x="652.0833" y="2092.6575">Saved RTP</text><polygon fill="#2196F3" points="262.5,2153.9063,252.0833,2158.0729,262.5,2162.2396,258.3333,2158.0729" style="stroke:#2196F3;stroke-width:1.0416666666666667;"/><line style="stroke:#2196F3;stroke-width:3.125;stroke-dasharray:2.0,2.0;" x1="256.25" x2="570.8333" y1="2158.0729" y2="2158.0729"/><text fill="#222222" font-family="Verdana" font-size="12.5" font-weight="bold" lengthAdjust="spacing" textLength="16.6667" x="279.1667" y="2142.6249">26</text><text fill="#222222" font-family="Verdana" font-size="12.5" lengthAdjust="spacing" textLength="113.5417" x="320.8333" y="2142.6249">Error propagated</text><line style="stroke:#2196F3;stroke-width:1.0416666666666667;stroke-dasharray:2.0,2.0;" x1="121.875" x2="1255.7292" y1="2174.7396" y2="2174.7396"/><text fill="#222222" font-family="Verdana" font-size="12.5" font-weight="bold" lengthAdjust="spacing" textLength="141.6667" x="137.5" y="2196.759">[Invalid RTP status]</text><polygon fill="#2196F3" points="262.5,2260.5957,252.0833,2264.7624,262.5,2268.929,258.3333,2264.7624" style="stroke:#2196F3;stroke-width:1.0416666666666667;"/><line style="stroke:#2196F3;stroke-width:3.125;stroke-dasharray:2.0,2.0;" x1="256.25" x2="570.8333" y1="2264.7624" y2="2264.7624"/><text fill="#222222" font-family="Verdana" font-size="12.5" font-weight="bold" lengthAdjust="spacing" textLength="16.6667" x="279.1667" y="2249.3144">27</text><text fill="#222222" font-family="Verdana" font-size="12.5" lengthAdjust="spacing" textLength="159.375" x="320.8333" y="2249.3144">Error - Invalid RTP status</text><path d="M587.5,2220.5404 L587.5,2271.582 A4.1667,4.1667 0 0 0 591.6667,2275.7487 L787.5,2275.7487 A4.1667,4.1667 0 0 0 791.6667,2271.582 L791.6667,2226.7904 L781.25,2216.3737 L591.6667,2216.3737 A4.1667,4.1667 0 0 0 587.5,2220.5404 " fill="url(#gt23skfi5e0jc2)" filter="url(#ft23skfi5e0jc)" style="stroke:#9C27B0;stroke-width:1.0416666666666667;"/><path d="M781.25,2216.3737 L781.25,2224.707 A2.0833,2.0833 0 0 0 783.3333,2226.7904 L791.6667,2226.7904 L781.25,2216.3737 " fill="url(#gt23skfi5e0jc2)" style="stroke:#9C27B0;stroke-width:1.0416666666666667;"/><text fill="#FFFFFF" font-family="Verdana" font-size="12.5" lengthAdjust="spacing" textLength="161.4583" x="604.1667" y="2243.6015">RTP already in final state</text><text fill="#FFFFFF" font-family="Verdana" font-size="12.5" lengthAdjust="spacing" textLength="142.7083" x="604.1667" y="2258.1523">(e.g., PAID, REJECTED)</text><line style="stroke:#2196F3;stroke-width:1.0416666666666667;stroke-dasharray:2.0,2.0;" x1="111.4583" x2="1266.1458" y1="2293.3919" y2="2293.3919"/><text fill="#222222" font-family="Verdana" font-size="12.5" font-weight="bold" lengthAdjust="spacing" textLength="113.5417" x="127.0833" y="2315.4114">[RTP not found]</text><polygon fill="#2196F3" points="593.75,2367.2852,583.3333,2371.4518,593.75,2375.6185,589.5833,2371.4518" style="stroke:#2196F3;stroke-width:1.0416666666666667;"/><line style="stroke:#2196F3;stroke-width:3.125;stroke-dasharray:2.0,2.0;" x1="587.5" x2="994.7917" y1="2371.4518" y2="2371.4518"/><text fill="#222222" font-family="Verdana" font-size="12.5" font-weight="bold" lengthAdjust="spacing" textLength="16.6667" x="610.4167" y="2356.0038">28</text><text fill="#222222" font-family="Verdana" font-size="12.5" lengthAdjust="spacing" textLength="64.5833" x="652.0833" y="2356.0038">Not found</text><polygon fill="#2196F3" points="262.5,2417.2526,252.0833,2421.4193,262.5,2425.5859,258.3333,2421.4193" style="stroke:#2196F3;stroke-width:1.0416666666666667;"/><line style="stroke:#2196F3;stroke-width:3.125;stroke-dasharray:2.0,2.0;" x1="256.25" x2="570.8333" y1="2421.4193" y2="2421.4193"/><text fill="#222222" font-family="Verdana" font-size="12.5" font-weight="bold" lengthAdjust="spacing" textLength="16.6667" x="279.1667" y="2405.9713">29</text><text fill="#222222" font-family="Verdana" font-size="12.5" lengthAdjust="spacing" textLength="96.875" x="320.8333" y="2405.9713">404 Not Found</text><!--SRC=[lLPDRziy3BxhLt0zfS2y5aDtM80Do6ntozOcXfqEEmmeL8j9XJcoPobTWXVlVnybVob9k_MqN1A93wc73qafBymzhX7Mt60jEMD6cW8XNIHmKmdQXCkY_0MZwUphv6eQmHd4tv9f6aUdZ5MyDZAN5LS6Jgwp89pFiflhE3q1hg5R7A6oU1QrcEOdesFu7TS89oaAgR-hqLJWkYeDgdm7Nt07cIbhF7K-TFGqyrmoeje4en_xXsK9H7WdhM-3I2B6-CQKQhE-mvgnZYC4xrikOxWiwr-y5l0n8WMIQBA80HzGcU_g4tA1jHw3nouWTYyXnPyRr6OgcA9jA71f6C2ymfeRMIfurqQYpSnmiz6qqmbQrfsY39K06u18vaO-MF5RXLZpRNcw_CSGtcF-uv39uDUen7XX3Z70YveIsK5LewQyY9C3G-29O77BSgC4MGKUH0KOs7GEaTIvLKrigaBcX1MmHgtv2WdkHAdbwjv0kUnI0lfSDn2FKfdJ5Wfd9MKwWrITJQeL6Nkb1Yv4fYld62xEtq9OgYLnCOnXGOroA0Ev_rK2Y-baEAf0nX-EeZuPIHFuKJ7trQGM7iDIAf6QwiCkB2csbWQRo4DJs4wt6rHTEwYubTfefvarxHrkeTRW7Tov_w4m05zv8GLerwseIOKQSgvoB0hNqkCM5a2OnjJPKR-cA8j-CGd3EF6jDrcStlQxxNRe1OQwcIKgkJJIDf833QDXLpRnTf2aXWTBjGtbQPb4OqZcsGBED5OyQEC6fWmglkkM-km_AVu_yrFhJMt8GRUaPsm9JFHEvR2qjsESXAq1B6gl0FClG2rYTd1NYjs0EfgW39jYDf93UXdUUb8UTubhF-imwg2dFNQ_r7s4mzwm8GJuaCCkEJnyRyXUdr_0hBHpPkmGjM0tRDbpfQ5I52KNpzSbdCp2-EggRwa_2TDZ_xqovvJSdY9nNTC8ELrIr5MfD3wfIuCTNMotzDo-sMvFdozFdARpzBP9_1aA-V1_BLAJ9Lth5L_rS-uclHFE3zVDNdENApVpNkBihmS5JtiDrs3Fs6AynuUkP5uufw5g8torUlKIaiaqedy0yUSuN0oTvZrGVKgEkWtiFokFw3hRCp-cwHDlteLplMnTxQdkP3z2SyN_1W00]--></g></svg>