<?xml version="1.0" encoding="us-ascii" standalone="no"?><svg xmlns="http://www.w3.org/2000/svg" xmlns:xlink="http://www.w3.org/1999/xlink" contentStyleType="text/css" height="1165px" preserveAspectRatio="none" style="width:1544px;height:1165px;background:#FFFFFF;" version="1.1" viewBox="0 0 1544 1165" width="1544px" zoomAndPan="magnify"><defs><filter height="300%" id="f1nbmr6fg2rrcc" width="300%" x="-1" y="-1"><feGaussianBlur result="blurOut" stdDeviation="2.0"/><feColorMatrix in="blurOut" result="blurOut2" type="matrix" values="0 0 0 0 0 0 0 0 0 0 0 0 0 0 0 0 0 0 .4 0"/><feOffset dx="4.0" dy="4.0" in="blurOut2" result="blurOut3"/><feBlend in="SourceGraphic" in2="blurOut3" mode="normal"/></filter></defs><g><text fill="#000000" font-family="sans-serif" font-size="14" font-weight="bold" lengthAdjust="spacing" textLength="119" x="583.5" y="27.9951">GDP Message -</text><text fill="#000000" font-family="sans-serif" font-size="14" font-weight="bold" lengthAdjust="spacing" textLength="206" x="707.5" y="27.9951">UPDATE INVALID / EXPIRED</text><text fill="#000000" font-family="sans-serif" font-size="14" font-weight="bold" lengthAdjust="spacing" textLength="37" x="918.5" y="27.9951">Flow</text><rect fill="#FFFFFF" filter="url(#f1nbmr6fg2rrcc)" height="929.3711" style="stroke:#A80036;stroke-width:1.0;" width="10" x="409" y="148.293"/><rect fill="#FFFFFF" filter="url(#f1nbmr6fg2rrcc)" height="887.6719" style="stroke:#A80036;stroke-width:1.0;" width="10" x="700" y="189.9922"/><rect fill="#FFFFFF" filter="url(#f1nbmr6fg2rrcc)" height="53.2656" style="stroke:#A80036;stroke-width:1.0;" width="10" x="1004" y="219.125"/><rect fill="#FFFFFF" filter="url(#f1nbmr6fg2rrcc)" height="28" style="stroke:#A80036;stroke-width:1.0;" width="10" x="1004" y="367.0547"/><rect fill="#FFFFFF" filter="url(#f1nbmr6fg2rrcc)" height="29.1328" style="stroke:#A80036;stroke-width:1.0;" width="10" x="1004" y="589.8516"/><rect fill="#FFFFFF" filter="url(#f1nbmr6fg2rrcc)" height="29.1328" style="stroke:#A80036;stroke-width:1.0;" width="10" x="1004" y="734.1875"/><rect fill="#FFFFFF" filter="url(#f1nbmr6fg2rrcc)" height="29.1328" style="stroke:#A80036;stroke-width:1.0;" width="10" x="1004" y="878.5234"/><rect fill="#FFFFFF" filter="url(#f1nbmr6fg2rrcc)" height="462.3359" style="stroke:#A80036;stroke-width:1.0;" width="10" x="1197" y="460.3203"/><rect fill="#FFFFFF" filter="url(#f1nbmr6fg2rrcc)" height="555.6016" style="stroke:#A80036;stroke-width:1.0;" width="10" x="1294" y="367.0547"/><rect fill="none" filter="url(#f1nbmr6fg2rrcc)" height="836.5391" style="stroke:#000000;stroke-width:2.0;" width="1232" x="298" y="234.125"/><rect fill="none" filter="url(#f1nbmr6fg2rrcc)" height="588.6719" style="stroke:#000000;stroke-width:2.0;" width="1212" x="308" y="417.0547"/><rect fill="none" filter="url(#f1nbmr6fg2rrcc)" height="435.3359" style="stroke:#000000;stroke-width:2.0;" width="619" x="643" y="480.3203"/><line style="stroke:#A80036;stroke-width:1.0;stroke-dasharray:5.0,5.0;" x1="245" x2="245" y1="104.5938" y2="1087.6641"/><line style="stroke:#A80036;stroke-width:1.0;stroke-dasharray:5.0,5.0;" x1="414" x2="414" y1="104.5938" y2="1087.6641"/><line style="stroke:#A80036;stroke-width:1.0;stroke-dasharray:5.0,5.0;" x1="705" x2="705" y1="104.5938" y2="1087.6641"/><line style="stroke:#A80036;stroke-width:1.0;stroke-dasharray:5.0,5.0;" x1="1008.5" x2="1008.5" y1="104.5938" y2="1087.6641"/><line style="stroke:#A80036;stroke-width:1.0;stroke-dasharray:5.0,5.0;" x1="1202" x2="1202" y1="104.5938" y2="1087.6641"/><line style="stroke:#A80036;stroke-width:1.0;stroke-dasharray:5.0,5.0;" x1="1299" x2="1299" y1="104.5938" y2="1087.6641"/><path d="M187,78.2969 L303,78.2969 C308,78.2969 308,91.4453 308,91.4453 C308,91.4453 308,104.5938 303,104.5938 L187,104.5938 C182,104.5938 182,91.4453 182,91.4453 C182,91.4453 182,78.2969 187,78.2969 " fill="#FEFECE" filter="url(#f1nbmr6fg2rrcc)" style="stroke:#A80036;stroke-width:2.0;"/><path d="M303,78.2969 C298,78.2969 298,91.4453 298,91.4453 C298,104.5938 303,104.5938 303,104.5938 " fill="none" style="stroke:#A80036;stroke-width:2.0;"/><text fill="#000000" font-family="sans-serif" font-size="14" lengthAdjust="spacing" textLength="106" x="187" y="96.292">GDP Event Hub</text><path d="M187,1086.6641 L303,1086.6641 C308,1086.6641 308,1099.8125 308,1099.8125 C308,1099.8125 308,1112.9609 303,1112.9609 L187,1112.9609 C182,1112.9609 182,1099.8125 182,1099.8125 C182,1099.8125 182,1086.6641 187,1086.6641 " fill="#FEFECE" filter="url(#f1nbmr6fg2rrcc)" style="stroke:#A80036;stroke-width:2.0;"/><path d="M303,1086.6641 C298,1086.6641 298,1099.8125 298,1099.8125 C298,1112.9609 303,1112.9609 303,1112.9609 " fill="none" style="stroke:#A80036;stroke-width:2.0;"/><text fill="#000000" font-family="sans-serif" font-size="14" lengthAdjust="spacing" textLength="106" x="187" y="1104.6592">GDP Event Hub</text><rect fill="#FEFECE" filter="url(#f1nbmr6fg2rrcc)" height="30.2969" style="stroke:#A80036;stroke-width:1.5;" width="188" x="318" y="69.2969"/><text fill="#000000" font-family="sans-serif" font-size="14" lengthAdjust="spacing" textLength="174" x="325" y="89.292">GDP Message Consumer</text><rect fill="#FEFECE" filter="url(#f1nbmr6fg2rrcc)" height="30.2969" style="stroke:#A80036;stroke-width:1.5;" width="188" x="318" y="1086.6641"/><text fill="#000000" font-family="sans-serif" font-size="14" lengthAdjust="spacing" textLength="174" x="325" y="1106.6592">GDP Message Consumer</text><rect fill="#FEFECE" filter="url(#f1nbmr6fg2rrcc)" height="30.2969" style="stroke:#A80036;stroke-width:1.5;" width="100" x="653" y="69.2969"/><text fill="#000000" font-family="sans-serif" font-size="14" lengthAdjust="spacing" textLength="86" x="660" y="89.292">SP Creditore</text><rect fill="#FEFECE" filter="url(#f1nbmr6fg2rrcc)" height="30.2969" style="stroke:#A80036;stroke-width:1.5;" width="100" x="653" y="1086.6641"/><text fill="#000000" font-family="sans-serif" font-size="14" lengthAdjust="spacing" textLength="86" x="660" y="1106.6592">SP Creditore</text><text fill="#000000" font-family="sans-serif" font-size="14" lengthAdjust="spacing" textLength="37" x="987.5" y="101.292">SRTP</text><path d="M991,52.2969 C991,42.2969 1009,42.2969 1009,42.2969 C1009,42.2969 1027,42.2969 1027,52.2969 L1027,78.2969 C1027,88.2969 1009,88.2969 1009,88.2969 C1009,88.2969 991,88.2969 991,78.2969 L991,52.2969 " fill="#FEFECE" filter="url(#f1nbmr6fg2rrcc)" style="stroke:#A80036;stroke-width:1.5;"/><path d="M991,52.2969 C991,62.2969 1009,62.2969 1009,62.2969 C1009,62.2969 1027,62.2969 1027,52.2969 " fill="none" style="stroke:#A80036;stroke-width:1.5;"/><text fill="#000000" font-family="sans-serif" font-size="14" lengthAdjust="spacing" textLength="37" x="987.5" y="1099.6592">SRTP</text><path d="M991,1112.9609 C991,1102.9609 1009,1102.9609 1009,1102.9609 C1009,1102.9609 1027,1102.9609 1027,1112.9609 L1027,1138.9609 C1027,1148.9609 1009,1148.9609 1009,1148.9609 C1009,1148.9609 991,1148.9609 991,1138.9609 L991,1112.9609 " fill="#FEFECE" filter="url(#f1nbmr6fg2rrcc)" style="stroke:#A80036;stroke-width:1.5;"/><path d="M991,1112.9609 C991,1122.9609 1009,1122.9609 1009,1122.9609 C1009,1122.9609 1027,1122.9609 1027,1112.9609 " fill="none" style="stroke:#A80036;stroke-width:1.5;"/><rect fill="#FEFECE" filter="url(#f1nbmr6fg2rrcc)" height="30.2969" style="stroke:#A80036;stroke-width:1.5;" width="96" x="1152" y="69.2969"/><text fill="#000000" font-family="sans-serif" font-size="14" lengthAdjust="spacing" textLength="82" x="1159" y="89.292">SP Debitore</text><rect fill="#FEFECE" filter="url(#f1nbmr6fg2rrcc)" height="30.2969" style="stroke:#A80036;stroke-width:1.5;" width="96" x="1152" y="1086.6641"/><text fill="#000000" font-family="sans-serif" font-size="14" lengthAdjust="spacing" textLength="82" x="1159" y="1106.6592">SP Debitore</text><rect fill="#FEFECE" filter="url(#f1nbmr6fg2rrcc)" height="30.2969" style="stroke:#A80036;stroke-width:1.5;" width="70" x="1262" y="69.2969"/><text fill="#000000" font-family="sans-serif" font-size="14" lengthAdjust="spacing" textLength="56" x="1269" y="89.292">SPC_DB</text><rect fill="#FEFECE" filter="url(#f1nbmr6fg2rrcc)" height="30.2969" style="stroke:#A80036;stroke-width:1.5;" width="70" x="1262" y="1086.6641"/><text fill="#000000" font-family="sans-serif" font-size="14" lengthAdjust="spacing" textLength="56" x="1269" y="1106.6592">SPC_DB</text><rect fill="#FFFFFF" filter="url(#f1nbmr6fg2rrcc)" height="929.3711" style="stroke:#A80036;stroke-width:1.0;" width="10" x="409" y="148.293"/><rect fill="#FFFFFF" filter="url(#f1nbmr6fg2rrcc)" height="887.6719" style="stroke:#A80036;stroke-width:1.0;" width="10" x="700" y="189.9922"/><rect fill="#FFFFFF" filter="url(#f1nbmr6fg2rrcc)" height="53.2656" style="stroke:#A80036;stroke-width:1.0;" width="10" x="1004" y="219.125"/><rect fill="#FFFFFF" filter="url(#f1nbmr6fg2rrcc)" height="28" style="stroke:#A80036;stroke-width:1.0;" width="10" x="1004" y="367.0547"/><rect fill="#FFFFFF" filter="url(#f1nbmr6fg2rrcc)" height="29.1328" style="stroke:#A80036;stroke-width:1.0;" width="10" x="1004" y="589.8516"/><rect fill="#FFFFFF" filter="url(#f1nbmr6fg2rrcc)" height="29.1328" style="stroke:#A80036;stroke-width:1.0;" width="10" x="1004" y="734.1875"/><rect fill="#FFFFFF" filter="url(#f1nbmr6fg2rrcc)" height="29.1328" style="stroke:#A80036;stroke-width:1.0;" width="10" x="1004" y="878.5234"/><rect fill="#FFFFFF" filter="url(#f1nbmr6fg2rrcc)" height="462.3359" style="stroke:#A80036;stroke-width:1.0;" width="10" x="1197" y="460.3203"/><rect fill="#FFFFFF" filter="url(#f1nbmr6fg2rrcc)" height="555.6016" style="stroke:#A80036;stroke-width:1.0;" width="10" x="1294" y="367.0547"/><polygon fill="#A80036" points="397,144.293,407,148.293,397,152.293,401,148.293" style="stroke:#A80036;stroke-width:1.0;"/><line style="stroke:#A80036;stroke-width:1.0;" x1="245" x2="403" y1="148.293" y2="148.293"/><text fill="#000000" font-family="sans-serif" font-size="13" font-weight="bold" lengthAdjust="spacing" textLength="103" x="252" y="143.2271">GDP Message</text><path d="M5,119.5938 L5,159.5938 L236,159.5938 L236,129.5938 L226,119.5938 L5,119.5938 " fill="#FBFB77" filter="url(#f1nbmr6fg2rrcc)" style="stroke:#A80036;stroke-width:1.0;"/><path d="M226,119.5938 L226,129.5938 L236,129.5938 L226,119.5938 " fill="#FBFB77" style="stroke:#A80036;stroke-width:1.0;"/><text fill="#000000" font-family="sans-serif" font-size="13" font-weight="bold" lengthAdjust="spacing" textLength="152" x="11" y="136.6606">Operation = UPDATE</text><text fill="#000000" font-family="sans-serif" font-size="13" font-weight="bold" lengthAdjust="spacing" textLength="126" x="11" y="151.7935">Status = INVALID</text><text fill="#000000" font-family="sans-serif" font-size="13" lengthAdjust="spacing" textLength="13" x="141" y="151.7935">or</text><text fill="#000000" font-family="sans-serif" font-size="13" font-weight="bold" lengthAdjust="spacing" textLength="63" x="158" y="151.7935">EXPIRED</text><polygon fill="#A80036" points="688,185.9922,698,189.9922,688,193.9922,692,189.9922" style="stroke:#A80036;stroke-width:1.0;"/><line style="stroke:#A80036;stroke-width:1.0;" x1="419" x2="694" y1="189.9922" y2="189.9922"/><text fill="#000000" font-family="sans-serif" font-size="13" font-weight="bold" lengthAdjust="spacing" textLength="262" x="426" y="184.9263">Process UPDATE INVALID / EXPIRED</text><polygon fill="#A80036" points="992,215.125,1002,219.125,992,223.125,996,219.125" style="stroke:#A80036;stroke-width:1.0;"/><line style="stroke:#A80036;stroke-width:1.0;" x1="710" x2="998" y1="219.125" y2="219.125"/><text fill="#000000" font-family="sans-serif" font-size="13" font-weight="bold" lengthAdjust="spacing" textLength="179" x="717" y="214.0591">findRtpByCompositeKey</text><path d="M298,234.125 L362,234.125 L362,241.2578 L352,251.2578 L298,251.2578 L298,234.125 " fill="#EEEEEE" style="stroke:#000000;stroke-width:1.0;"/><rect fill="none" height="836.5391" style="stroke:#000000;stroke-width:2.0;" width="1232" x="298" y="234.125"/><text fill="#000000" font-family="sans-serif" font-size="13" font-weight="bold" lengthAdjust="spacing" textLength="19" x="313" y="247.1919">alt</text><text fill="#000000" font-family="sans-serif" font-size="11" font-weight="bold" lengthAdjust="spacing" textLength="5" x="377" y="246.3354">[</text><text fill="#000000" font-family="sans-serif" font-size="11" font-weight="bold" lengthAdjust="spacing" textLength="66" x="382" y="246.3354">RTP exists</text><text fill="#000000" font-family="sans-serif" font-size="11" font-weight="bold" lengthAdjust="spacing" textLength="5" x="448" y="246.3354">]</text><polygon fill="#A80036" points="721,268.3906,711,272.3906,721,276.3906,717,272.3906" style="stroke:#A80036;stroke-width:1.0;"/><line style="stroke:#A80036;stroke-width:1.0;stroke-dasharray:2.0,2.0;" x1="715" x2="1008" y1="272.3906" y2="272.3906"/><text fill="#000000" font-family="sans-serif" font-size="13" font-weight="bold" lengthAdjust="spacing" textLength="28" x="727" y="267.3247">RTP</text><line style="stroke:#A80036;stroke-width:1.0;" x1="715" x2="757" y1="359.0547" y2="359.0547"/><line style="stroke:#A80036;stroke-width:1.0;" x1="757" x2="757" y1="359.0547" y2="372.0547"/><line style="stroke:#A80036;stroke-width:1.0;" x1="716" x2="757" y1="372.0547" y2="372.0547"/><polygon fill="#A80036" points="726,368.0547,716,372.0547,726,376.0547,722,372.0547" style="stroke:#A80036;stroke-width:1.0;"/><text fill="#000000" font-family="sans-serif" font-size="13" font-weight="bold" lengthAdjust="spacing" textLength="249" x="722" y="353.9888">Check if RTP status is cancellable</text><path d="M978,285.3906 L978,370.3906 L1198,370.3906 L1198,295.3906 L1188,285.3906 L978,285.3906 " fill="#FBFB77" filter="url(#f1nbmr6fg2rrcc)" style="stroke:#A80036;stroke-width:1.0;"/><path d="M1188,285.3906 L1188,295.3906 L1198,295.3906 L1188,285.3906 " fill="#FBFB77" style="stroke:#A80036;stroke-width:1.0;"/><text fill="#000000" font-family="sans-serif" font-size="13" lengthAdjust="spacing" textLength="199" x="984" y="302.4575">&#9989; Valid statuses for cancellation:</text><text fill="#000000" font-family="sans-serif" font-size="13" lengthAdjust="spacing" textLength="68" x="984" y="317.5903">- CREATED</text><text fill="#000000" font-family="sans-serif" font-size="13" lengthAdjust="spacing" textLength="43" x="984" y="332.7231">- SENT</text><text fill="#000000" font-family="sans-serif" font-size="13" lengthAdjust="spacing" textLength="77" x="984" y="347.856">- ACCEPTED</text><text fill="#000000" font-family="sans-serif" font-size="13" lengthAdjust="spacing" textLength="119" x="984" y="362.9888">- USER_ACCEPTED</text><path d="M978,315.6563 L978,340.6563 L1185,340.6563 L1185,325.6563 L1175,315.6563 L978,315.6563 " fill="#FBFB77" filter="url(#f1nbmr6fg2rrcc)" style="stroke:#A80036;stroke-width:1.0;"/><path d="M1175,315.6563 L1175,325.6563 L1185,325.6563 L1175,315.6563 " fill="#FBFB77" style="stroke:#A80036;stroke-width:1.0;"/><text fill="#000000" font-family="sans-serif" font-size="13" lengthAdjust="spacing" textLength="186" x="984" y="332.7231">Cancellation request initiated</text><path d="M308,417.0547 L372,417.0547 L372,424.1875 L362,434.1875 L308,434.1875 L308,417.0547 " fill="#EEEEEE" style="stroke:#000000;stroke-width:1.0;"/><rect fill="none" height="588.6719" style="stroke:#000000;stroke-width:2.0;" width="1212" x="308" y="417.0547"/><text fill="#000000" font-family="sans-serif" font-size="13" font-weight="bold" lengthAdjust="spacing" textLength="19" x="323" y="430.1216">alt</text><text fill="#000000" font-family="sans-serif" font-size="11" font-weight="bold" lengthAdjust="spacing" textLength="5" x="387" y="429.2651">[</text><text fill="#000000" font-family="sans-serif" font-size="11" font-weight="bold" lengthAdjust="spacing" textLength="91" x="392" y="429.2651">Status is valid</text><text fill="#000000" font-family="sans-serif" font-size="11" font-weight="bold" lengthAdjust="spacing" textLength="5" x="483" y="429.2651">]</text><polygon fill="#A80036" points="1185,456.3203,1195,460.3203,1185,464.3203,1189,460.3203" style="stroke:#A80036;stroke-width:1.0;"/><line style="stroke:#A80036;stroke-width:1.0;" x1="710" x2="1191" y1="460.3203" y2="460.3203"/><text fill="#000000" font-family="sans-serif" font-size="13" font-weight="bold" lengthAdjust="spacing" textLength="468" x="717" y="455.2544">POST /sepa-request-to-pay-requests/{id}/cancellation-requests</text><path d="M1212,439.1875 L1212,464.1875 L1506,464.1875 L1506,449.1875 L1496,439.1875 L1212,439.1875 " fill="#FBFB77" filter="url(#f1nbmr6fg2rrcc)" style="stroke:#A80036;stroke-width:1.0;"/><path d="M1496,439.1875 L1496,449.1875 L1506,449.1875 L1496,439.1875 " fill="#FBFB77" style="stroke:#A80036;stroke-width:1.0;"/><text fill="#000000" font-family="sans-serif" font-size="13" lengthAdjust="spacing" textLength="33" x="1218" y="456.2544">Send</text><text fill="#000000" font-family="sans-serif" font-size="13" font-weight="bold" lengthAdjust="spacing" textLength="150" x="1255" y="456.2544">cancellation request</text><text fill="#000000" font-family="sans-serif" font-size="13" lengthAdjust="spacing" textLength="82" x="1409" y="456.2544">to SP Debtor</text><path d="M643,480.3203 L707,480.3203 L707,487.4531 L697,497.4531 L643,497.4531 L643,480.3203 " fill="#EEEEEE" style="stroke:#000000;stroke-width:1.0;"/><rect fill="none" height="435.3359" style="stroke:#000000;stroke-width:2.0;" width="619" x="643" y="480.3203"/><text fill="#000000" font-family="sans-serif" font-size="13" font-weight="bold" lengthAdjust="spacing" textLength="19" x="658" y="493.3872">alt</text><text fill="#000000" font-family="sans-serif" font-size="11" font-weight="bold" lengthAdjust="spacing" textLength="5" x="722" y="492.5308">[</text><text fill="#000000" font-family="sans-serif" font-size="11" font-weight="bold" lengthAdjust="spacing" textLength="98" x="727" y="492.5308">Async flow EPC</text><text fill="#000000" font-family="sans-serif" font-size="11" font-weight="bold" lengthAdjust="spacing" textLength="5" x="825" y="492.5308">]</text><polygon fill="#A80036" points="721,514.5859,711,518.5859,721,522.5859,717,518.5859" style="stroke:#A80036;stroke-width:1.0;"/><line style="stroke:#A80036;stroke-width:1.0;stroke-dasharray:2.0,2.0;" x1="715" x2="1196" y1="518.5859" y2="518.5859"/><text fill="#000000" font-family="sans-serif" font-size="13" font-weight="bold" lengthAdjust="spacing" textLength="115" x="727" y="513.52">OK empty Body</text><line style="stroke:#A80036;stroke-width:1.0;" x1="710" x2="752" y1="547.7188" y2="547.7188"/><line style="stroke:#A80036;stroke-width:1.0;" x1="752" x2="752" y1="547.7188" y2="560.7188"/><line style="stroke:#A80036;stroke-width:1.0;" x1="711" x2="752" y1="560.7188" y2="560.7188"/><polygon fill="#A80036" points="721,556.7188,711,560.7188,721,564.7188,717,560.7188" style="stroke:#A80036;stroke-width:1.0;"/><text fill="#000000" font-family="sans-serif" font-size="13" font-weight="bold" lengthAdjust="spacing" textLength="206" x="717" y="542.6528">Set RTP status to RFC_SENT</text><polygon fill="#A80036" points="992,585.8516,1002,589.8516,992,593.8516,996,589.8516" style="stroke:#A80036;stroke-width:1.0;"/><line style="stroke:#A80036;stroke-width:1.0;" x1="710" x2="998" y1="589.8516" y2="589.8516"/><text fill="#000000" font-family="sans-serif" font-size="13" font-weight="bold" lengthAdjust="spacing" textLength="233" x="717" y="584.7856">Save RTP with RFC_SENT status</text><polygon fill="#A80036" points="721,614.9844,711,618.9844,721,622.9844,717,618.9844" style="stroke:#A80036;stroke-width:1.0;"/><line style="stroke:#A80036;stroke-width:1.0;stroke-dasharray:2.0,2.0;" x1="715" x2="1008" y1="618.9844" y2="618.9844"/><text fill="#000000" font-family="sans-serif" font-size="13" font-weight="bold" lengthAdjust="spacing" textLength="78" x="727" y="613.9185">Saved RTP</text><line style="stroke:#000000;stroke-width:1.0;stroke-dasharray:2.0,2.0;" x1="643" x2="1262" y1="627.9844" y2="627.9844"/><text fill="#000000" font-family="sans-serif" font-size="11" font-weight="bold" lengthAdjust="spacing" textLength="5" x="648" y="638.1948">[</text><text fill="#000000" font-family="sans-serif" font-size="11" font-weight="bold" lengthAdjust="spacing" textLength="91" x="653" y="638.1948">Sync flow EPC</text><text fill="#000000" font-family="sans-serif" font-size="11" font-weight="bold" lengthAdjust="spacing" textLength="5" x="744" y="638.1948">]</text><polygon fill="#A80036" points="721,658.9219,711,662.9219,721,666.9219,717,662.9219" style="stroke:#A80036;stroke-width:1.0;"/><line style="stroke:#A80036;stroke-width:1.0;stroke-dasharray:2.0,2.0;" x1="715" x2="1196" y1="662.9219" y2="662.9219"/><text fill="#000000" font-family="sans-serif" font-size="13" font-weight="bold" lengthAdjust="spacing" textLength="85" x="727" y="657.856">OK payload</text><line style="stroke:#A80036;stroke-width:1.0;" x1="710" x2="752" y1="692.0547" y2="692.0547"/><line style="stroke:#A80036;stroke-width:1.0;" x1="752" x2="752" y1="692.0547" y2="705.0547"/><line style="stroke:#A80036;stroke-width:1.0;" x1="711" x2="752" y1="705.0547" y2="705.0547"/><polygon fill="#A80036" points="721,701.0547,711,705.0547,721,709.0547,717,705.0547" style="stroke:#A80036;stroke-width:1.0;"/><text fill="#000000" font-family="sans-serif" font-size="13" font-weight="bold" lengthAdjust="spacing" textLength="219" x="717" y="686.9888">Set RTP status to CANCELLED</text><polygon fill="#A80036" points="992,730.1875,1002,734.1875,992,738.1875,996,734.1875" style="stroke:#A80036;stroke-width:1.0;"/><line style="stroke:#A80036;stroke-width:1.0;" x1="710" x2="998" y1="734.1875" y2="734.1875"/><text fill="#000000" font-family="sans-serif" font-size="13" font-weight="bold" lengthAdjust="spacing" textLength="246" x="717" y="729.1216">Save RTP with CANCELLED status</text><polygon fill="#A80036" points="721,759.3203,711,763.3203,721,767.3203,717,763.3203" style="stroke:#A80036;stroke-width:1.0;"/><line style="stroke:#A80036;stroke-width:1.0;stroke-dasharray:2.0,2.0;" x1="715" x2="1008" y1="763.3203" y2="763.3203"/><text fill="#000000" font-family="sans-serif" font-size="13" font-weight="bold" lengthAdjust="spacing" textLength="78" x="727" y="758.2544">Saved RTP</text><line style="stroke:#000000;stroke-width:1.0;stroke-dasharray:2.0,2.0;" x1="643" x2="1262" y1="772.3203" y2="772.3203"/><text fill="#000000" font-family="sans-serif" font-size="11" font-weight="bold" lengthAdjust="spacing" textLength="5" x="648" y="782.5308">[</text><text fill="#000000" font-family="sans-serif" font-size="11" font-weight="bold" lengthAdjust="spacing" textLength="131" x="653" y="782.5308">Error Sync Response</text><text fill="#000000" font-family="sans-serif" font-size="11" font-weight="bold" lengthAdjust="spacing" textLength="5" x="784" y="782.5308">]</text><polygon fill="#A80036" points="721,803.2578,711,807.2578,721,811.2578,717,807.2578" style="stroke:#A80036;stroke-width:1.0;"/><line style="stroke:#A80036;stroke-width:1.0;stroke-dasharray:2.0,2.0;" x1="715" x2="1196" y1="807.2578" y2="807.2578"/><text fill="#000000" font-family="sans-serif" font-size="13" font-weight="bold" lengthAdjust="spacing" textLength="225" x="727" y="802.1919">Error response (e.g., 4xx, 5xx)</text><line style="stroke:#A80036;stroke-width:1.0;" x1="710" x2="752" y1="836.3906" y2="836.3906"/><line style="stroke:#A80036;stroke-width:1.0;" x1="752" x2="752" y1="836.3906" y2="849.3906"/><line style="stroke:#A80036;stroke-width:1.0;" x1="711" x2="752" y1="849.3906" y2="849.3906"/><polygon fill="#A80036" points="721,845.3906,711,849.3906,721,853.3906,717,849.3906" style="stroke:#A80036;stroke-width:1.0;"/><text fill="#000000" font-family="sans-serif" font-size="13" font-weight="bold" lengthAdjust="spacing" textLength="248" x="717" y="831.3247">Set RTP status to ERROR_CANCEL</text><polygon fill="#A80036" points="992,874.5234,1002,878.5234,992,882.5234,996,878.5234" style="stroke:#A80036;stroke-width:1.0;"/><line style="stroke:#A80036;stroke-width:1.0;" x1="710" x2="998" y1="878.5234" y2="878.5234"/><text fill="#000000" font-family="sans-serif" font-size="13" font-weight="bold" lengthAdjust="spacing" textLength="275" x="717" y="873.4575">Save RTP with ERROR_CANCEL status</text><polygon fill="#A80036" points="721,903.6563,711,907.6563,721,911.6563,717,907.6563" style="stroke:#A80036;stroke-width:1.0;"/><line style="stroke:#A80036;stroke-width:1.0;stroke-dasharray:2.0,2.0;" x1="715" x2="1008" y1="907.6563" y2="907.6563"/><text fill="#000000" font-family="sans-serif" font-size="13" font-weight="bold" lengthAdjust="spacing" textLength="78" x="727" y="902.5903">Saved RTP</text><polygon fill="#A80036" points="430,939.7891,420,943.7891,430,947.7891,426,943.7891" style="stroke:#A80036;stroke-width:1.0;"/><line style="stroke:#A80036;stroke-width:1.0;stroke-dasharray:2.0,2.0;" x1="424" x2="699" y1="943.7891" y2="943.7891"/><text fill="#000000" font-family="sans-serif" font-size="13" font-weight="bold" lengthAdjust="spacing" textLength="148" x="436" y="938.7231">Outcome processed</text><line style="stroke:#000000;stroke-width:1.0;stroke-dasharray:2.0,2.0;" x1="308" x2="1520" y1="952.7891" y2="952.7891"/><text fill="#000000" font-family="sans-serif" font-size="11" font-weight="bold" lengthAdjust="spacing" textLength="5" x="313" y="962.9995">[</text><text fill="#000000" font-family="sans-serif" font-size="11" font-weight="bold" lengthAdjust="spacing" textLength="220" x="318" y="962.9995">Invalid RTP status for cancellation</text><text fill="#000000" font-family="sans-serif" font-size="11" font-weight="bold" lengthAdjust="spacing" textLength="5" x="538" y="962.9995">]</text><polygon fill="#A80036" points="430,988.7266,420,992.7266,430,996.7266,426,992.7266" style="stroke:#A80036;stroke-width:1.0;"/><line style="stroke:#A80036;stroke-width:1.0;" x1="424" x2="699" y1="992.7266" y2="992.7266"/><text fill="#000000" font-family="sans-serif" font-size="13" font-weight="bold" lengthAdjust="spacing" textLength="183" x="436" y="987.6606">Error - Invalid RTP status</text><path d="M715,971.5938 L715,996.5938 L1063,996.5938 L1063,981.5938 L1053,971.5938 L715,971.5938 " fill="#FBFB77" filter="url(#f1nbmr6fg2rrcc)" style="stroke:#A80036;stroke-width:1.0;"/><path d="M1053,971.5938 L1053,981.5938 L1063,981.5938 L1053,971.5938 " fill="#FBFB77" style="stroke:#A80036;stroke-width:1.0;"/><text fill="#000000" font-family="sans-serif" font-size="13" lengthAdjust="spacing" textLength="327" x="721" y="988.6606">RTP is already in a final state (e.g., PAID, REJECTED)</text><line style="stroke:#000000;stroke-width:1.0;stroke-dasharray:2.0,2.0;" x1="298" x2="1530" y1="1013.7266" y2="1013.7266"/><text fill="#000000" font-family="sans-serif" font-size="11" font-weight="bold" lengthAdjust="spacing" textLength="5" x="303" y="1023.937">[</text><text fill="#000000" font-family="sans-serif" font-size="11" font-weight="bold" lengthAdjust="spacing" textLength="90" x="308" y="1023.937">RTP not found</text><text fill="#000000" font-family="sans-serif" font-size="11" font-weight="bold" lengthAdjust="spacing" textLength="5" x="398" y="1023.937">]</text><polygon fill="#A80036" points="721,1029.5313,711,1033.5313,721,1037.5313,717,1033.5313" style="stroke:#A80036;stroke-width:1.0;"/><line style="stroke:#A80036;stroke-width:1.0;stroke-dasharray:2.0,2.0;" x1="715" x2="1008" y1="1033.5313" y2="1033.5313"/><polygon fill="#A80036" points="430,1058.6641,420,1062.6641,430,1066.6641,426,1062.6641" style="stroke:#A80036;stroke-width:1.0;"/><line style="stroke:#A80036;stroke-width:1.0;stroke-dasharray:2.0,2.0;" x1="424" x2="699" y1="1062.6641" y2="1062.6641"/><text fill="#000000" font-family="sans-serif" font-size="13" font-weight="bold" lengthAdjust="spacing" textLength="156" x="436" y="1057.5981">Error - RTP not found</text><!--SRC=[jLLBRjim4Dtp58Ei6Y6AD-qcG0iuajAwIMDLSeBk35eQ9qHaIHLfnqBHPM_Hq_Ka7L8VCvO3U9EDG0xdyzxZS2IVH0vL8P4feJA4ptu8tr1A_e3WWkFSXVvu5i3azdvyC_5X1C6FS185lkF0LLOyC_PpZMk44nqNR31Ny6MzE04kuRi-O2Mlb4X4oUdan4xk5RbShx0oljtcfNiSWbTXAbHHeN6BGu-bNF45brGoZcPXOwR58DB7XHteCsO0WVkfhtP1_2n8ZiFoGY5ak5GCw6nQOiMLA7Bu28qEvA8FOiNLMfArbON4A2gozzemp5FGoHZZYH8RhdQ4MRVGK8YHHX5MHK8Wu7MrTtcq28m-9foOw_YboDD8bPUrLwpAGWg5rrY_2D8ICPufSgObu5P89GqTVGJk3WjjZJt5lMY0hchZw3rYyWHY2Jg1R2GH4XAU9vXbV96XoMCqhSJ3enOLuD_VFt3FCv6s8IXXIU9rKLhk2-FeWXS5f8RVxkBWTjOknvuNXBkJkpY8vfPj9pv0GpdkqMrqQOFBHdO1dbKVAgIkbWf4BfGW0LBZRj_0tB_Sisc9jEM0R9PmlhdjQJo3aSIIksqbLnLkoUjkAqU_HFfxP6lI7nt07cl2ZfCSe42TgGfedWEzXdqUVWEl4Maiwpo19Rrg24AlhQEn-tPxJAy1LwMguR98Qyl9xemObTqKX22wykRw0WS1RGF7V8Ccv5cenzwxJT073TKUjg_Eb4BNn8TkHDimemb2paSofhl92fuUJTSRtth1pOrvk4VmxTtVd71GLVJO3Eq8PKcJ25-ZtRXMhHUym_E7ypDulzsUmOVjzlHeBO8ecaRpXk9nSjWHRwX8dhB1YmtzeQb_x0RqtlzZkbP9iK8ecmcEkaTOB_SaD_F6LcH_sBKOMq7irCq5k31CSc06w4CQRpohaASrJIxWG7y5dfcG_lh2ySG_WoZu6dWqAqzPAqCBLoUXf8HndQU3dmCxfECXJJhW- -bCgPVIsjiknNy0]--></g></svg>