<?xml version="1.0" encoding="us-ascii" standalone="no"?><svg xmlns="http://www.w3.org/2000/svg" xmlns:xlink="http://www.w3.org/1999/xlink" contentStyleType="text/css" height="1001px" preserveAspectRatio="none" style="width:1544px;height:1001px;background:#FFFFFF;" version="1.1" viewBox="0 0 1544 1001" width="1544px" zoomAndPan="magnify"><defs><filter height="300%" id="fanyxhuy8elrf" width="300%" x="-1" y="-1"><feGaussianBlur result="blurOut" stdDeviation="2.0"/><feColorMatrix in="blurOut" result="blurOut2" type="matrix" values="0 0 0 0 0 0 0 0 0 0 0 0 0 0 0 0 0 0 .4 0"/><feOffset dx="4.0" dy="4.0" in="blurOut2" result="blurOut3"/><feBlend in="SourceGraphic" in2="blurOut3" mode="normal"/></filter></defs><g><text fill="#000000" font-family="sans-serif" font-size="14" font-weight="bold" lengthAdjust="spacing" textLength="119" x="583.5" y="27.9951">GDP Message -</text><text fill="#000000" font-family="sans-serif" font-size="14" font-weight="bold" lengthAdjust="spacing" textLength="206" x="707.5" y="27.9951">UPDATE INVALID / EXPIRED</text><text fill="#000000" font-family="sans-serif" font-size="14" font-weight="bold" lengthAdjust="spacing" textLength="37" x="918.5" y="27.9951">Flow</text><rect fill="#FFFFFF" filter="url(#fanyxhuy8elrf)" height="765.0352" style="stroke:#A80036;stroke-width:1.0;" width="10" x="409" y="148.293"/><rect fill="#FFFFFF" filter="url(#fanyxhuy8elrf)" height="723.3359" style="stroke:#A80036;stroke-width:1.0;" width="10" x="700" y="189.9922"/><rect fill="#FFFFFF" filter="url(#fanyxhuy8elrf)" height="53.2656" style="stroke:#A80036;stroke-width:1.0;" width="10" x="1004" y="219.125"/><rect fill="#FFFFFF" filter="url(#fanyxhuy8elrf)" height="29.1328" style="stroke:#A80036;stroke-width:1.0;" width="10" x="1004" y="559.8516"/><rect fill="#FFFFFF" filter="url(#fanyxhuy8elrf)" height="29.1328" style="stroke:#A80036;stroke-width:1.0;" width="10" x="1004" y="714.1875"/><rect fill="#FFFFFF" filter="url(#fanyxhuy8elrf)" height="328" style="stroke:#A80036;stroke-width:1.0;" width="10" x="1197" y="430.3203"/><rect fill="none" filter="url(#fanyxhuy8elrf)" height="672.2031" style="stroke:#000000;stroke-width:2.0;" width="1232" x="298" y="234.125"/><rect fill="none" filter="url(#fanyxhuy8elrf)" height="454.3359" style="stroke:#000000;stroke-width:2.0;" width="1212" x="308" y="387.0547"/><rect fill="none" filter="url(#fanyxhuy8elrf)" height="301" style="stroke:#000000;stroke-width:2.0;" width="867" x="643" y="450.3203"/><line style="stroke:#A80036;stroke-width:1.0;stroke-dasharray:5.0,5.0;" x1="245" x2="245" y1="104.5938" y2="923.3281"/><line style="stroke:#A80036;stroke-width:1.0;stroke-dasharray:5.0,5.0;" x1="414" x2="414" y1="104.5938" y2="923.3281"/><line style="stroke:#A80036;stroke-width:1.0;stroke-dasharray:5.0,5.0;" x1="705" x2="705" y1="104.5938" y2="923.3281"/><line style="stroke:#A80036;stroke-width:1.0;stroke-dasharray:5.0,5.0;" x1="1008.5" x2="1008.5" y1="104.5938" y2="923.3281"/><line style="stroke:#A80036;stroke-width:1.0;stroke-dasharray:5.0,5.0;" x1="1202" x2="1202" y1="104.5938" y2="923.3281"/><path d="M187,78.2969 L303,78.2969 C308,78.2969 308,91.4453 308,91.4453 C308,91.4453 308,104.5938 303,104.5938 L187,104.5938 C182,104.5938 182,91.4453 182,91.4453 C182,91.4453 182,78.2969 187,78.2969 " fill="#FEFECE" filter="url(#fanyxhuy8elrf)" style="stroke:#A80036;stroke-width:2.0;"/><path d="M303,78.2969 C298,78.2969 298,91.4453 298,91.4453 C298,104.5938 303,104.5938 303,104.5938 " fill="none" style="stroke:#A80036;stroke-width:2.0;"/><text fill="#000000" font-family="sans-serif" font-size="14" lengthAdjust="spacing" textLength="106" x="187" y="96.292">GDP Event Hub</text><path d="M187,922.3281 L303,922.3281 C308,922.3281 308,935.4766 308,935.4766 C308,935.4766 308,948.625 303,948.625 L187,948.625 C182,948.625 182,935.4766 182,935.4766 C182,935.4766 182,922.3281 187,922.3281 " fill="#FEFECE" filter="url(#fanyxhuy8elrf)" style="stroke:#A80036;stroke-width:2.0;"/><path d="M303,922.3281 C298,922.3281 298,935.4766 298,935.4766 C298,948.625 303,948.625 303,948.625 " fill="none" style="stroke:#A80036;stroke-width:2.0;"/><text fill="#000000" font-family="sans-serif" font-size="14" lengthAdjust="spacing" textLength="106" x="187" y="940.3232">GDP Event Hub</text><rect fill="#FEFECE" filter="url(#fanyxhuy8elrf)" height="30.2969" style="stroke:#A80036;stroke-width:1.5;" width="188" x="318" y="69.2969"/><text fill="#000000" font-family="sans-serif" font-size="14" lengthAdjust="spacing" textLength="174" x="325" y="89.292">GDP Message Consumer</text><rect fill="#FEFECE" filter="url(#fanyxhuy8elrf)" height="30.2969" style="stroke:#A80036;stroke-width:1.5;" width="188" x="318" y="922.3281"/><text fill="#000000" font-family="sans-serif" font-size="14" lengthAdjust="spacing" textLength="174" x="325" y="942.3232">GDP Message Consumer</text><rect fill="#FEFECE" filter="url(#fanyxhuy8elrf)" height="30.2969" style="stroke:#A80036;stroke-width:1.5;" width="100" x="653" y="69.2969"/><text fill="#000000" font-family="sans-serif" font-size="14" lengthAdjust="spacing" textLength="86" x="660" y="89.292">SP Creditore</text><rect fill="#FEFECE" filter="url(#fanyxhuy8elrf)" height="30.2969" style="stroke:#A80036;stroke-width:1.5;" width="100" x="653" y="922.3281"/><text fill="#000000" font-family="sans-serif" font-size="14" lengthAdjust="spacing" textLength="86" x="660" y="942.3232">SP Creditore</text><text fill="#000000" font-family="sans-serif" font-size="14" lengthAdjust="spacing" textLength="37" x="987.5" y="101.292">SRTP</text><path d="M991,52.2969 C991,42.2969 1009,42.2969 1009,42.2969 C1009,42.2969 1027,42.2969 1027,52.2969 L1027,78.2969 C1027,88.2969 1009,88.2969 1009,88.2969 C1009,88.2969 991,88.2969 991,78.2969 L991,52.2969 " fill="#FEFECE" filter="url(#fanyxhuy8elrf)" style="stroke:#A80036;stroke-width:1.5;"/><path d="M991,52.2969 C991,62.2969 1009,62.2969 1009,62.2969 C1009,62.2969 1027,62.2969 1027,52.2969 " fill="none" style="stroke:#A80036;stroke-width:1.5;"/><text fill="#000000" font-family="sans-serif" font-size="14" lengthAdjust="spacing" textLength="37" x="987.5" y="935.3232">SRTP</text><path d="M991,948.625 C991,938.625 1009,938.625 1009,938.625 C1009,938.625 1027,938.625 1027,948.625 L1027,974.625 C1027,984.625 1009,984.625 1009,984.625 C1009,984.625 991,984.625 991,974.625 L991,948.625 " fill="#FEFECE" filter="url(#fanyxhuy8elrf)" style="stroke:#A80036;stroke-width:1.5;"/><path d="M991,948.625 C991,958.625 1009,958.625 1009,958.625 C1009,958.625 1027,958.625 1027,948.625 " fill="none" style="stroke:#A80036;stroke-width:1.5;"/><rect fill="#FEFECE" filter="url(#fanyxhuy8elrf)" height="30.2969" style="stroke:#A80036;stroke-width:1.5;" width="96" x="1152" y="69.2969"/><text fill="#000000" font-family="sans-serif" font-size="14" lengthAdjust="spacing" textLength="82" x="1159" y="89.292">SP Debitore</text><rect fill="#FEFECE" filter="url(#fanyxhuy8elrf)" height="30.2969" style="stroke:#A80036;stroke-width:1.5;" width="96" x="1152" y="922.3281"/><text fill="#000000" font-family="sans-serif" font-size="14" lengthAdjust="spacing" textLength="82" x="1159" y="942.3232">SP Debitore</text><rect fill="#FFFFFF" filter="url(#fanyxhuy8elrf)" height="765.0352" style="stroke:#A80036;stroke-width:1.0;" width="10" x="409" y="148.293"/><rect fill="#FFFFFF" filter="url(#fanyxhuy8elrf)" height="723.3359" style="stroke:#A80036;stroke-width:1.0;" width="10" x="700" y="189.9922"/><rect fill="#FFFFFF" filter="url(#fanyxhuy8elrf)" height="53.2656" style="stroke:#A80036;stroke-width:1.0;" width="10" x="1004" y="219.125"/><rect fill="#FFFFFF" filter="url(#fanyxhuy8elrf)" height="29.1328" style="stroke:#A80036;stroke-width:1.0;" width="10" x="1004" y="559.8516"/><rect fill="#FFFFFF" filter="url(#fanyxhuy8elrf)" height="29.1328" style="stroke:#A80036;stroke-width:1.0;" width="10" x="1004" y="714.1875"/><rect fill="#FFFFFF" filter="url(#fanyxhuy8elrf)" height="328" style="stroke:#A80036;stroke-width:1.0;" width="10" x="1197" y="430.3203"/><polygon fill="#A80036" points="397,144.293,407,148.293,397,152.293,401,148.293" style="stroke:#A80036;stroke-width:1.0;"/><line style="stroke:#A80036;stroke-width:1.0;" x1="245" x2="403" y1="148.293" y2="148.293"/><text fill="#000000" font-family="sans-serif" font-size="13" font-weight="bold" lengthAdjust="spacing" textLength="103" x="252" y="143.2271">GDP Message</text><path d="M5,119.5938 L5,159.5938 L236,159.5938 L236,129.5938 L226,119.5938 L5,119.5938 " fill="#FBFB77" filter="url(#fanyxhuy8elrf)" style="stroke:#A80036;stroke-width:1.0;"/><path d="M226,119.5938 L226,129.5938 L236,129.5938 L226,119.5938 " fill="#FBFB77" style="stroke:#A80036;stroke-width:1.0;"/><text fill="#000000" font-family="sans-serif" font-size="13" font-weight="bold" lengthAdjust="spacing" textLength="152" x="11" y="136.6606">Operation = UPDATE</text><text fill="#000000" font-family="sans-serif" font-size="13" font-weight="bold" lengthAdjust="spacing" textLength="126" x="11" y="151.7935">Status = INVALID</text><text fill="#000000" font-family="sans-serif" font-size="13" lengthAdjust="spacing" textLength="13" x="141" y="151.7935">or</text><text fill="#000000" font-family="sans-serif" font-size="13" font-weight="bold" lengthAdjust="spacing" textLength="63" x="158" y="151.7935">EXPIRED</text><polygon fill="#A80036" points="688,185.9922,698,189.9922,688,193.9922,692,189.9922" style="stroke:#A80036;stroke-width:1.0;"/><line style="stroke:#A80036;stroke-width:1.0;" x1="419" x2="694" y1="189.9922" y2="189.9922"/><text fill="#000000" font-family="sans-serif" font-size="13" font-weight="bold" lengthAdjust="spacing" textLength="262" x="426" y="184.9263">Process UPDATE INVALID / EXPIRED</text><polygon fill="#A80036" points="992,215.125,1002,219.125,992,223.125,996,219.125" style="stroke:#A80036;stroke-width:1.0;"/><line style="stroke:#A80036;stroke-width:1.0;" x1="710" x2="998" y1="219.125" y2="219.125"/><text fill="#000000" font-family="sans-serif" font-size="13" font-weight="bold" lengthAdjust="spacing" textLength="179" x="717" y="214.0591">findRtpByCompositeKey</text><path d="M298,234.125 L362,234.125 L362,241.2578 L352,251.2578 L298,251.2578 L298,234.125 " fill="#EEEEEE" style="stroke:#000000;stroke-width:1.0;"/><rect fill="none" height="672.2031" style="stroke:#000000;stroke-width:2.0;" width="1232" x="298" y="234.125"/><text fill="#000000" font-family="sans-serif" font-size="13" font-weight="bold" lengthAdjust="spacing" textLength="19" x="313" y="247.1919">alt</text><text fill="#000000" font-family="sans-serif" font-size="11" font-weight="bold" lengthAdjust="spacing" textLength="5" x="377" y="246.3354">[</text><text fill="#000000" font-family="sans-serif" font-size="11" font-weight="bold" lengthAdjust="spacing" textLength="66" x="382" y="246.3354">RTP exists</text><text fill="#000000" font-family="sans-serif" font-size="11" font-weight="bold" lengthAdjust="spacing" textLength="5" x="448" y="246.3354">]</text><polygon fill="#A80036" points="721,268.3906,711,272.3906,721,276.3906,717,272.3906" style="stroke:#A80036;stroke-width:1.0;"/><line style="stroke:#A80036;stroke-width:1.0;stroke-dasharray:2.0,2.0;" x1="715" x2="1008" y1="272.3906" y2="272.3906"/><text fill="#000000" font-family="sans-serif" font-size="13" font-weight="bold" lengthAdjust="spacing" textLength="28" x="727" y="267.3247">RTP</text><line style="stroke:#A80036;stroke-width:1.0;" x1="710" x2="752" y1="330.2891" y2="330.2891"/><line style="stroke:#A80036;stroke-width:1.0;" x1="752" x2="752" y1="330.2891" y2="343.2891"/><line style="stroke:#A80036;stroke-width:1.0;" x1="711" x2="752" y1="343.2891" y2="343.2891"/><polygon fill="#A80036" points="721,339.2891,711,343.2891,721,347.2891,717,343.2891" style="stroke:#A80036;stroke-width:1.0;"/><text fill="#000000" font-family="sans-serif" font-size="13" font-weight="bold" lengthAdjust="spacing" textLength="249" x="717" y="325.2231">Check if RTP status is cancellable</text><path d="M978,285.3906 L978,370.3906 L1198,370.3906 L1198,295.3906 L1188,285.3906 L978,285.3906 " fill="#FBFB77" filter="url(#fanyxhuy8elrf)" style="stroke:#A80036;stroke-width:1.0;"/><path d="M1188,285.3906 L1188,295.3906 L1198,295.3906 L1188,285.3906 " fill="#FBFB77" style="stroke:#A80036;stroke-width:1.0;"/><text fill="#000000" font-family="sans-serif" font-size="13" lengthAdjust="spacing" textLength="199" x="984" y="302.4575">&#9989; Valid statuses for cancellation:</text><text fill="#000000" font-family="sans-serif" font-size="13" lengthAdjust="spacing" textLength="68" x="984" y="317.5903">- CREATED</text><text fill="#000000" font-family="sans-serif" font-size="13" lengthAdjust="spacing" textLength="43" x="984" y="332.7231">- SENT</text><text fill="#000000" font-family="sans-serif" font-size="13" lengthAdjust="spacing" textLength="77" x="984" y="347.856">- ACCEPTED</text><text fill="#000000" font-family="sans-serif" font-size="13" lengthAdjust="spacing" textLength="119" x="984" y="362.9888">- USER_ACCEPTED</text><path d="M308,387.0547 L372,387.0547 L372,394.1875 L362,404.1875 L308,404.1875 L308,387.0547 " fill="#EEEEEE" style="stroke:#000000;stroke-width:1.0;"/><rect fill="none" height="454.3359" style="stroke:#000000;stroke-width:2.0;" width="1212" x="308" y="387.0547"/><text fill="#000000" font-family="sans-serif" font-size="13" font-weight="bold" lengthAdjust="spacing" textLength="19" x="323" y="400.1216">alt</text><text fill="#000000" font-family="sans-serif" font-size="11" font-weight="bold" lengthAdjust="spacing" textLength="5" x="387" y="399.2651">[</text><text fill="#000000" font-family="sans-serif" font-size="11" font-weight="bold" lengthAdjust="spacing" textLength="91" x="392" y="399.2651">Status is valid</text><text fill="#000000" font-family="sans-serif" font-size="11" font-weight="bold" lengthAdjust="spacing" textLength="5" x="483" y="399.2651">]</text><polygon fill="#A80036" points="1185,426.3203,1195,430.3203,1185,434.3203,1189,430.3203" style="stroke:#A80036;stroke-width:1.0;"/><line style="stroke:#A80036;stroke-width:1.0;" x1="710" x2="1191" y1="430.3203" y2="430.3203"/><text fill="#000000" font-family="sans-serif" font-size="13" font-weight="bold" lengthAdjust="spacing" textLength="468" x="717" y="425.2544">POST /sepa-request-to-pay-requests/{id}/cancellation-requests</text><path d="M1212,409.1875 L1212,434.1875 L1506,434.1875 L1506,419.1875 L1496,409.1875 L1212,409.1875 " fill="#FBFB77" filter="url(#fanyxhuy8elrf)" style="stroke:#A80036;stroke-width:1.0;"/><path d="M1496,409.1875 L1496,419.1875 L1506,419.1875 L1496,409.1875 " fill="#FBFB77" style="stroke:#A80036;stroke-width:1.0;"/><text fill="#000000" font-family="sans-serif" font-size="13" lengthAdjust="spacing" textLength="33" x="1218" y="426.2544">Send</text><text fill="#000000" font-family="sans-serif" font-size="13" font-weight="bold" lengthAdjust="spacing" textLength="150" x="1255" y="426.2544">cancellation request</text><text fill="#000000" font-family="sans-serif" font-size="13" lengthAdjust="spacing" textLength="82" x="1409" y="426.2544">to SP Debtor</text><path d="M643,450.3203 L707,450.3203 L707,457.4531 L697,467.4531 L643,467.4531 L643,450.3203 " fill="#EEEEEE" style="stroke:#000000;stroke-width:1.0;"/><rect fill="none" height="301" style="stroke:#000000;stroke-width:2.0;" width="867" x="643" y="450.3203"/><text fill="#000000" font-family="sans-serif" font-size="13" font-weight="bold" lengthAdjust="spacing" textLength="19" x="658" y="463.3872">alt</text><text fill="#000000" font-family="sans-serif" font-size="11" font-weight="bold" lengthAdjust="spacing" textLength="5" x="722" y="462.5308">[</text><text fill="#000000" font-family="sans-serif" font-size="11" font-weight="bold" lengthAdjust="spacing" textLength="253" x="727" y="462.5308">SP Debtor accepts cancellation request</text><text fill="#000000" font-family="sans-serif" font-size="11" font-weight="bold" lengthAdjust="spacing" textLength="5" x="980" y="462.5308">]</text><polygon fill="#A80036" points="721,484.5859,711,488.5859,721,492.5859,717,488.5859" style="stroke:#A80036;stroke-width:1.0;"/><line style="stroke:#A80036;stroke-width:1.0;stroke-dasharray:2.0,2.0;" x1="715" x2="1196" y1="488.5859" y2="488.5859"/><text fill="#000000" font-family="sans-serif" font-size="13" font-weight="bold" lengthAdjust="spacing" textLength="165" x="727" y="483.52">201 Created / Success</text><line style="stroke:#A80036;stroke-width:1.0;" x1="710" x2="752" y1="517.7188" y2="517.7188"/><line style="stroke:#A80036;stroke-width:1.0;" x1="752" x2="752" y1="517.7188" y2="530.7188"/><line style="stroke:#A80036;stroke-width:1.0;" x1="711" x2="752" y1="530.7188" y2="530.7188"/><polygon fill="#A80036" points="721,526.7188,711,530.7188,721,534.7188,717,530.7188" style="stroke:#A80036;stroke-width:1.0;"/><text fill="#000000" font-family="sans-serif" font-size="13" font-weight="bold" lengthAdjust="spacing" textLength="219" x="717" y="512.6528">Set RTP status to CANCELLED</text><path d="M948,503.0859 L948,528.0859 L1156,528.0859 L1156,513.0859 L1146,503.0859 L948,503.0859 " fill="#FBFB77" filter="url(#fanyxhuy8elrf)" style="stroke:#A80036;stroke-width:1.0;"/><path d="M1146,503.0859 L1146,513.0859 L1156,513.0859 L1146,503.0859 " fill="#FBFB77" style="stroke:#A80036;stroke-width:1.0;"/><text fill="#000000" font-family="sans-serif" font-size="13" lengthAdjust="spacing" textLength="187" x="954" y="520.1528">Cancellation process initiated</text><polygon fill="#A80036" points="992,555.8516,1002,559.8516,992,563.8516,996,559.8516" style="stroke:#A80036;stroke-width:1.0;"/><line style="stroke:#A80036;stroke-width:1.0;" x1="710" x2="998" y1="559.8516" y2="559.8516"/><text fill="#000000" font-family="sans-serif" font-size="13" font-weight="bold" lengthAdjust="spacing" textLength="246" x="717" y="554.7856">Save RTP with CANCELLED status</text><polygon fill="#A80036" points="721,584.9844,711,588.9844,721,592.9844,717,588.9844" style="stroke:#A80036;stroke-width:1.0;"/><line style="stroke:#A80036;stroke-width:1.0;stroke-dasharray:2.0,2.0;" x1="715" x2="1008" y1="588.9844" y2="588.9844"/><text fill="#000000" font-family="sans-serif" font-size="13" font-weight="bold" lengthAdjust="spacing" textLength="78" x="727" y="583.9185">Saved RTP</text><line style="stroke:#000000;stroke-width:1.0;stroke-dasharray:2.0,2.0;" x1="643" x2="1510" y1="597.9844" y2="597.9844"/><text fill="#000000" font-family="sans-serif" font-size="11" font-weight="bold" lengthAdjust="spacing" textLength="5" x="648" y="608.1948">[</text><text fill="#000000" font-family="sans-serif" font-size="11" font-weight="bold" lengthAdjust="spacing" textLength="187" x="653" y="608.1948">SP Debtor rejects or call fails</text><text fill="#000000" font-family="sans-serif" font-size="11" font-weight="bold" lengthAdjust="spacing" textLength="5" x="840" y="608.1948">]</text><polygon fill="#A80036" points="721,633.9219,711,637.9219,721,641.9219,717,637.9219" style="stroke:#A80036;stroke-width:1.0;"/><line style="stroke:#A80036;stroke-width:1.0;stroke-dasharray:2.0,2.0;" x1="715" x2="1196" y1="637.9219" y2="637.9219"/><text fill="#000000" font-family="sans-serif" font-size="13" font-weight="bold" lengthAdjust="spacing" textLength="225" x="727" y="632.856">Error response (e.g., 4xx, 5xx)</text><path d="M1212,616.7891 L1212,641.7891 L1496,641.7891 L1496,626.7891 L1486,616.7891 L1212,616.7891 " fill="#FBFB77" filter="url(#fanyxhuy8elrf)" style="stroke:#A80036;stroke-width:1.0;"/><path d="M1486,616.7891 L1486,626.7891 L1496,626.7891 L1486,616.7891 " fill="#FBFB77" style="stroke:#A80036;stroke-width:1.0;"/><text fill="#000000" font-family="sans-serif" font-size="13" lengthAdjust="spacing" textLength="263" x="1218" y="633.856">Cancellation failed during communication</text><line style="stroke:#A80036;stroke-width:1.0;" x1="710" x2="752" y1="672.0547" y2="672.0547"/><line style="stroke:#A80036;stroke-width:1.0;" x1="752" x2="752" y1="672.0547" y2="685.0547"/><line style="stroke:#A80036;stroke-width:1.0;" x1="711" x2="752" y1="685.0547" y2="685.0547"/><polygon fill="#A80036" points="721,681.0547,711,685.0547,721,689.0547,717,685.0547" style="stroke:#A80036;stroke-width:1.0;"/><text fill="#000000" font-family="sans-serif" font-size="13" font-weight="bold" lengthAdjust="spacing" textLength="248" x="717" y="666.9888">Set RTP status to ERROR_CANCEL</text><polygon fill="#A80036" points="992,710.1875,1002,714.1875,992,718.1875,996,714.1875" style="stroke:#A80036;stroke-width:1.0;"/><line style="stroke:#A80036;stroke-width:1.0;" x1="710" x2="998" y1="714.1875" y2="714.1875"/><text fill="#000000" font-family="sans-serif" font-size="13" font-weight="bold" lengthAdjust="spacing" textLength="275" x="717" y="709.1216">Save RTP with ERROR_CANCEL status</text><polygon fill="#A80036" points="721,739.3203,711,743.3203,721,747.3203,717,743.3203" style="stroke:#A80036;stroke-width:1.0;"/><line style="stroke:#A80036;stroke-width:1.0;stroke-dasharray:2.0,2.0;" x1="715" x2="1008" y1="743.3203" y2="743.3203"/><text fill="#000000" font-family="sans-serif" font-size="13" font-weight="bold" lengthAdjust="spacing" textLength="78" x="727" y="738.2544">Saved RTP</text><polygon fill="#A80036" points="430,775.4531,420,779.4531,430,783.4531,426,779.4531" style="stroke:#A80036;stroke-width:1.0;"/><line style="stroke:#A80036;stroke-width:1.0;stroke-dasharray:2.0,2.0;" x1="424" x2="699" y1="779.4531" y2="779.4531"/><text fill="#000000" font-family="sans-serif" font-size="13" font-weight="bold" lengthAdjust="spacing" textLength="148" x="436" y="774.3872">Outcome processed</text><line style="stroke:#000000;stroke-width:1.0;stroke-dasharray:2.0,2.0;" x1="308" x2="1520" y1="788.4531" y2="788.4531"/><text fill="#000000" font-family="sans-serif" font-size="11" font-weight="bold" lengthAdjust="spacing" textLength="5" x="313" y="798.6636">[</text><text fill="#000000" font-family="sans-serif" font-size="11" font-weight="bold" lengthAdjust="spacing" textLength="220" x="318" y="798.6636">Invalid RTP status for cancellation</text><text fill="#000000" font-family="sans-serif" font-size="11" font-weight="bold" lengthAdjust="spacing" textLength="5" x="538" y="798.6636">]</text><polygon fill="#A80036" points="430,824.3906,420,828.3906,430,832.3906,426,828.3906" style="stroke:#A80036;stroke-width:1.0;"/><line style="stroke:#A80036;stroke-width:1.0;" x1="424" x2="699" y1="828.3906" y2="828.3906"/><text fill="#000000" font-family="sans-serif" font-size="13" font-weight="bold" lengthAdjust="spacing" textLength="183" x="436" y="823.3247">Error - Invalid RTP status</text><path d="M715,807.2578 L715,832.2578 L1063,832.2578 L1063,817.2578 L1053,807.2578 L715,807.2578 " fill="#FBFB77" filter="url(#fanyxhuy8elrf)" style="stroke:#A80036;stroke-width:1.0;"/><path d="M1053,807.2578 L1053,817.2578 L1063,817.2578 L1053,807.2578 " fill="#FBFB77" style="stroke:#A80036;stroke-width:1.0;"/><text fill="#000000" font-family="sans-serif" font-size="13" lengthAdjust="spacing" textLength="327" x="721" y="824.3247">RTP is already in a final state (e.g., PAID, REJECTED)</text><line style="stroke:#000000;stroke-width:1.0;stroke-dasharray:2.0,2.0;" x1="298" x2="1530" y1="849.3906" y2="849.3906"/><text fill="#000000" font-family="sans-serif" font-size="11" font-weight="bold" lengthAdjust="spacing" textLength="5" x="303" y="859.6011">[</text><text fill="#000000" font-family="sans-serif" font-size="11" font-weight="bold" lengthAdjust="spacing" textLength="90" x="308" y="859.6011">RTP not found</text><text fill="#000000" font-family="sans-serif" font-size="11" font-weight="bold" lengthAdjust="spacing" textLength="5" x="398" y="859.6011">]</text><polygon fill="#A80036" points="721,865.1953,711,869.1953,721,873.1953,717,869.1953" style="stroke:#A80036;stroke-width:1.0;"/><line style="stroke:#A80036;stroke-width:1.0;stroke-dasharray:2.0,2.0;" x1="715" x2="1008" y1="869.1953" y2="869.1953"/><polygon fill="#A80036" points="430,894.3281,420,898.3281,430,902.3281,426,898.3281" style="stroke:#A80036;stroke-width:1.0;"/><line style="stroke:#A80036;stroke-width:1.0;stroke-dasharray:2.0,2.0;" x1="424" x2="699" y1="898.3281" y2="898.3281"/><text fill="#000000" font-family="sans-serif" font-size="13" font-weight="bold" lengthAdjust="spacing" textLength="156" x="436" y="893.2622">Error - RTP not found</text><!--SRC=[jLJDRjD04BxlKunwebRT089B9P22RI1G6cEd5RTgOq_IfOvjlEiq4UB8M_1qF0cpwx_DJmKNSeYyEpFVp7pppSfxaKDLI6HAg0pXdH_29vIIBn5SS9phq1_F0fXStOml9pwC8FWIJgB0TnnucnKFZ7shiKOuqN716dC5x-lv2N09dxM1bRnI8X4b9yk93UuLkQnNM1dVxh3h7eVWLPWALLHetEBGOobNVCubfOoZMTXSqyT1f8zpEz1dp1G4xki-smNrPvNaE2ml54A62yM0RDCIAwv4aSChQ7WW5ss85LUrfDkM5YAZgEY-vuPXde86OumdIgov6XfctOSkXJhILOHLaL0Hy3ZR0uucWT6V2QVETVn2v6caoZTRhrYLXHGAF-9s9qXJn7Yco9a-0JT2AcdQqIPmXrheQEvJt8i6wB8sZjuT9lSW5g01P4E9a93mFC4iu_CC3OxXj1BBEqqgmEzVF-66Po9jGr32WiZheZJT5yRH1IyAY0s_FSN1rQpz77jU40wMwpY8RgsxWNo0fkMuhswjKvkwh7PyCuDfF8EHn9Ax5PAgfN9LuPPysntbwBj8VupiIdjJYpZqUW6nBiDnR7TetKalge16fAHH4shDrsVDJLDwvqKU2PPAmd544w9xykrXFd_wJEyGuQQafhXEjCp8kVUs1ngZicT99NhZAo-ul3G2R2Bi3ZsxaBALiCY54ZhVVevMgZ5Veydo8DJTaA1DskVPrLwBjATK3PL2frVzEw9PaaD6huLDP8LVCI4YZUoo31PSPF8n1eEgCY6ofBL5U8Bdo_CpUB7PdC7BpURqxyHeT2ephIkHBo4fLgiw5ucn_UiOWYYQHhSDLuV3Eqgi7V9_k3NKvksORMFe3zkrzzfEQqK4O2SMJ9jksWbDShETTlFxJyFkvjhGpPnSE0GviflQI8y1psWrqYrf5ZZG6yep4z9FEHnF_3E8WW-1Ho_BAMiRRilL80HADTPvUl2KicEC7UEaAtmVpgJQuTMpZnt47m00]--></g></svg>