<?xml version="1.0" encoding="us-ascii" standalone="no"?><svg xmlns="http://www.w3.org/2000/svg" xmlns:xlink="http://www.w3.org/1999/xlink" contentStyleType="text/css" height="1172px" preserveAspectRatio="none" style="width:1452px;height:1172px;background:#FFFFFF;" version="1.1" viewBox="0 0 1452 1172" width="1452px" zoomAndPan="magnify"><defs><filter height="300%" id="fp5v17xpuylz4" width="300%" x="-1" y="-1"><feGaussianBlur result="blurOut" stdDeviation="2.0"/><feColorMatrix in="blurOut" result="blurOut2" type="matrix" values="0 0 0 0 0 0 0 0 0 0 0 0 0 0 0 0 0 0 .4 0"/><feOffset dx="4.0" dy="4.0" in="blurOut2" result="blurOut3"/><feBlend in="SourceGraphic" in2="blurOut3" mode="normal"/></filter></defs><g><text fill="#000000" font-family="sans-serif" font-size="14" font-weight="bold" lengthAdjust="spacing" textLength="111" x="545.5" y="28.5352">GDP Message -</text><text fill="#000000" font-family="sans-serif" font-size="14" font-weight="bold" lengthAdjust="spacing" textLength="201" x="661.5" y="28.5352">UPDATE INVALID / EXPIRED</text><text fill="#000000" font-family="sans-serif" font-size="14" font-weight="bold" lengthAdjust="spacing" textLength="34" x="867.5" y="28.5352">Flow</text><rect fill="#FFFFFF" filter="url(#fp5v17xpuylz4)" height="934.8604" style="stroke:#A80036;stroke-width:1.0;" width="10" x="383" y="148.9424"/><rect fill="#FFFFFF" filter="url(#fp5v17xpuylz4)" height="892.8945" style="stroke:#A80036;stroke-width:1.0;" width="10" x="652" y="190.9082"/><rect fill="#FFFFFF" filter="url(#fp5v17xpuylz4)" height="53.6211" style="stroke:#A80036;stroke-width:1.0;" width="10" x="931" y="220.2188"/><rect fill="#FFFFFF" filter="url(#fp5v17xpuylz4)" height="28" style="stroke:#A80036;stroke-width:1.0;" width="10" x="931" y="340.2715"/><rect fill="#FFFFFF" filter="url(#fp5v17xpuylz4)" height="29.3105" style="stroke:#A80036;stroke-width:1.0;" width="10" x="931" y="593.2559"/><rect fill="#FFFFFF" filter="url(#fp5v17xpuylz4)" height="29.3105" style="stroke:#A80036;stroke-width:1.0;" width="10" x="931" y="738.4531"/><rect fill="#FFFFFF" filter="url(#fp5v17xpuylz4)" height="29.3105" style="stroke:#A80036;stroke-width:1.0;" width="10" x="931" y="883.6504"/><rect fill="#FFFFFF" filter="url(#fp5v17xpuylz4)" height="464.9473" style="stroke:#A80036;stroke-width:1.0;" width="10" x="1125" y="463.0137"/><rect fill="#FFFFFF" filter="url(#fp5v17xpuylz4)" height="587.6895" style="stroke:#A80036;stroke-width:1.0;" width="10" x="1218" y="340.2715"/><rect fill="none" filter="url(#fp5v17xpuylz4)" height="841.584" style="stroke:#000000;stroke-width:2.0;" width="1162" x="276" y="235.2188"/><rect fill="none" filter="url(#fp5v17xpuylz4)" height="592.1445" style="stroke:#000000;stroke-width:2.0;" width="1142" x="286" y="419.3926"/><rect fill="none" filter="url(#fp5v17xpuylz4)" height="437.9473" style="stroke:#000000;stroke-width:2.0;" width="593" x="595.5" y="483.0137"/><line style="stroke:#A80036;stroke-width:1.0;stroke-dasharray:5.0,5.0;" x1="225" x2="225" y1="104.9766" y2="1093.8027"/><line style="stroke:#A80036;stroke-width:1.0;stroke-dasharray:5.0,5.0;" x1="388" x2="388" y1="104.9766" y2="1093.8027"/><line style="stroke:#A80036;stroke-width:1.0;stroke-dasharray:5.0,5.0;" x1="656.5" x2="656.5" y1="104.9766" y2="1093.8027"/><line style="stroke:#A80036;stroke-width:1.0;stroke-dasharray:5.0,5.0;" x1="936" x2="936" y1="104.9766" y2="1093.8027"/><line style="stroke:#A80036;stroke-width:1.0;stroke-dasharray:5.0,5.0;" x1="1129.5" x2="1129.5" y1="104.9766" y2="1093.8027"/><line style="stroke:#A80036;stroke-width:1.0;stroke-dasharray:5.0,5.0;" x1="1222.5" x2="1222.5" y1="104.9766" y2="1093.8027"/><path d="M170,78.4883 L281,78.4883 C286,78.4883 286,91.7324 286,91.7324 C286,91.7324 286,104.9766 281,104.9766 L170,104.9766 C165,104.9766 165,91.7324 165,91.7324 C165,91.7324 165,78.4883 170,78.4883 " fill="#FEFECE" filter="url(#fp5v17xpuylz4)" style="stroke:#A80036;stroke-width:2.0;"/><path d="M281,78.4883 C276,78.4883 276,91.7324 276,91.7324 C276,104.9766 281,104.9766 281,104.9766 " fill="none" style="stroke:#A80036;stroke-width:2.0;"/><text fill="#000000" font-family="sans-serif" font-size="14" lengthAdjust="spacing" textLength="101" x="170" y="97.0234">GDP Event Hub</text><path d="M170,1092.8027 L281,1092.8027 C286,1092.8027 286,1106.0469 286,1106.0469 C286,1106.0469 286,1119.291 281,1119.291 L170,1119.291 C165,1119.291 165,1106.0469 165,1106.0469 C165,1106.0469 165,1092.8027 170,1092.8027 " fill="#FEFECE" filter="url(#fp5v17xpuylz4)" style="stroke:#A80036;stroke-width:2.0;"/><path d="M281,1092.8027 C276,1092.8027 276,1106.0469 276,1106.0469 C276,1119.291 281,1119.291 281,1119.291 " fill="none" style="stroke:#A80036;stroke-width:2.0;"/><text fill="#000000" font-family="sans-serif" font-size="14" lengthAdjust="spacing" textLength="101" x="170" y="1111.3379">GDP Event Hub</text><rect fill="#FEFECE" filter="url(#fp5v17xpuylz4)" height="30.4883" style="stroke:#A80036;stroke-width:1.5;" width="180" x="296" y="69.4883"/><text fill="#000000" font-family="sans-serif" font-size="14" lengthAdjust="spacing" textLength="166" x="303" y="90.0234">GDP Message Consumer</text><rect fill="#FEFECE" filter="url(#fp5v17xpuylz4)" height="30.4883" style="stroke:#A80036;stroke-width:1.5;" width="180" x="296" y="1092.8027"/><text fill="#000000" font-family="sans-serif" font-size="14" lengthAdjust="spacing" textLength="166" x="303" y="1113.3379">GDP Message Consumer</text><rect fill="#FEFECE" filter="url(#fp5v17xpuylz4)" height="30.4883" style="stroke:#A80036;stroke-width:1.5;" width="99" x="605.5" y="69.4883"/><text fill="#000000" font-family="sans-serif" font-size="14" lengthAdjust="spacing" textLength="85" x="612.5" y="90.0234">SP Creditore</text><rect fill="#FEFECE" filter="url(#fp5v17xpuylz4)" height="30.4883" style="stroke:#A80036;stroke-width:1.5;" width="99" x="605.5" y="1092.8027"/><text fill="#000000" font-family="sans-serif" font-size="14" lengthAdjust="spacing" textLength="85" x="612.5" y="1113.3379">SP Creditore</text><text fill="#000000" font-family="sans-serif" font-size="14" lengthAdjust="spacing" textLength="34" x="916" y="102.0234">SRTP</text><path d="M918,52.4883 C918,42.4883 936,42.4883 936,42.4883 C936,42.4883 954,42.4883 954,52.4883 L954,78.4883 C954,88.4883 936,88.4883 936,88.4883 C936,88.4883 918,88.4883 918,78.4883 L918,52.4883 " fill="#FEFECE" filter="url(#fp5v17xpuylz4)" style="stroke:#A80036;stroke-width:1.5;"/><path d="M918,52.4883 C918,62.4883 936,62.4883 936,62.4883 C936,62.4883 954,62.4883 954,52.4883 " fill="none" style="stroke:#A80036;stroke-width:1.5;"/><text fill="#000000" font-family="sans-serif" font-size="14" lengthAdjust="spacing" textLength="34" x="916" y="1106.3379">SRTP</text><path d="M918,1119.291 C918,1109.291 936,1109.291 936,1109.291 C936,1109.291 954,1109.291 954,1119.291 L954,1145.291 C954,1155.291 936,1155.291 936,1155.291 C936,1155.291 918,1155.291 918,1145.291 L918,1119.291 " fill="#FEFECE" filter="url(#fp5v17xpuylz4)" style="stroke:#A80036;stroke-width:1.5;"/><path d="M918,1119.291 C918,1129.291 936,1129.291 936,1129.291 C936,1129.291 954,1129.291 954,1119.291 " fill="none" style="stroke:#A80036;stroke-width:1.5;"/><rect fill="#FEFECE" filter="url(#fp5v17xpuylz4)" height="30.4883" style="stroke:#A80036;stroke-width:1.5;" width="93" x="1081.5" y="69.4883"/><text fill="#000000" font-family="sans-serif" font-size="14" lengthAdjust="spacing" textLength="79" x="1088.5" y="90.0234">SP Debitore</text><rect fill="#FEFECE" filter="url(#fp5v17xpuylz4)" height="30.4883" style="stroke:#A80036;stroke-width:1.5;" width="93" x="1081.5" y="1092.8027"/><text fill="#000000" font-family="sans-serif" font-size="14" lengthAdjust="spacing" textLength="79" x="1088.5" y="1113.3379">SP Debitore</text><rect fill="#FEFECE" filter="url(#fp5v17xpuylz4)" height="30.4883" style="stroke:#A80036;stroke-width:1.5;" width="65" x="1188.5" y="69.4883"/><text fill="#000000" font-family="sans-serif" font-size="14" lengthAdjust="spacing" textLength="51" x="1195.5" y="90.0234">SPC_DB</text><rect fill="#FEFECE" filter="url(#fp5v17xpuylz4)" height="30.4883" style="stroke:#A80036;stroke-width:1.5;" width="65" x="1188.5" y="1092.8027"/><text fill="#000000" font-family="sans-serif" font-size="14" lengthAdjust="spacing" textLength="51" x="1195.5" y="1113.3379">SPC_DB</text><rect fill="#FFFFFF" filter="url(#fp5v17xpuylz4)" height="934.8604" style="stroke:#A80036;stroke-width:1.0;" width="10" x="383" y="148.9424"/><rect fill="#FFFFFF" filter="url(#fp5v17xpuylz4)" height="892.8945" style="stroke:#A80036;stroke-width:1.0;" width="10" x="652" y="190.9082"/><rect fill="#FFFFFF" filter="url(#fp5v17xpuylz4)" height="53.6211" style="stroke:#A80036;stroke-width:1.0;" width="10" x="931" y="220.2188"/><rect fill="#FFFFFF" filter="url(#fp5v17xpuylz4)" height="28" style="stroke:#A80036;stroke-width:1.0;" width="10" x="931" y="340.2715"/><rect fill="#FFFFFF" filter="url(#fp5v17xpuylz4)" height="29.3105" style="stroke:#A80036;stroke-width:1.0;" width="10" x="931" y="593.2559"/><rect fill="#FFFFFF" filter="url(#fp5v17xpuylz4)" height="29.3105" style="stroke:#A80036;stroke-width:1.0;" width="10" x="931" y="738.4531"/><rect fill="#FFFFFF" filter="url(#fp5v17xpuylz4)" height="29.3105" style="stroke:#A80036;stroke-width:1.0;" width="10" x="931" y="883.6504"/><rect fill="#FFFFFF" filter="url(#fp5v17xpuylz4)" height="464.9473" style="stroke:#A80036;stroke-width:1.0;" width="10" x="1125" y="463.0137"/><rect fill="#FFFFFF" filter="url(#fp5v17xpuylz4)" height="587.6895" style="stroke:#A80036;stroke-width:1.0;" width="10" x="1218" y="340.2715"/><polygon fill="#A80036" points="371,144.9424,381,148.9424,371,152.9424,375,148.9424" style="stroke:#A80036;stroke-width:1.0;"/><line style="stroke:#A80036;stroke-width:1.0;" x1="225.5" x2="377" y1="148.9424" y2="148.9424"/><text fill="#000000" font-family="sans-serif" font-size="13" font-weight="bold" lengthAdjust="spacing" textLength="91" x="232.5" y="144.2002">GDP Message</text><path d="M5,119.9766 L5,159.9766 L217,159.9766 L217,129.9766 L207,119.9766 L5,119.9766 " fill="#FBFB77" filter="url(#fp5v17xpuylz4)" style="stroke:#A80036;stroke-width:1.0;"/><path d="M207,119.9766 L207,129.9766 L217,129.9766 L207,119.9766 " fill="#FBFB77" style="stroke:#A80036;stroke-width:1.0;"/><text fill="#000000" font-family="sans-serif" font-size="13" font-weight="bold" lengthAdjust="spacing" textLength="141" x="11" y="137.5449">Operation = UPDATE</text><text fill="#000000" font-family="sans-serif" font-size="13" font-weight="bold" lengthAdjust="spacing" textLength="114" x="11" y="152.8555">Status = INVALID</text><text fill="#000000" font-family="sans-serif" font-size="13" lengthAdjust="spacing" textLength="13" x="129" y="152.8555">or</text><text fill="#000000" font-family="sans-serif" font-size="13" font-weight="bold" lengthAdjust="spacing" textLength="56" x="146" y="152.8555">EXPIRED</text><polygon fill="#A80036" points="640,186.9082,650,190.9082,640,194.9082,644,190.9082" style="stroke:#A80036;stroke-width:1.0;"/><line style="stroke:#A80036;stroke-width:1.0;" x1="393" x2="646" y1="190.9082" y2="190.9082"/><text fill="#000000" font-family="sans-serif" font-size="13" font-weight="bold" lengthAdjust="spacing" textLength="240" x="400" y="186.166">Process UPDATE INVALID / EXPIRED</text><polygon fill="#A80036" points="919,216.2188,929,220.2188,919,224.2188,923,220.2188" style="stroke:#A80036;stroke-width:1.0;"/><line style="stroke:#A80036;stroke-width:1.0;" x1="662" x2="925" y1="220.2188" y2="220.2188"/><text fill="#000000" font-family="sans-serif" font-size="13" font-weight="bold" lengthAdjust="spacing" textLength="232" x="669" y="215.4766">findRtpByOperationDispatcherKey</text><path d="M276,235.2188 L338,235.2188 L338,242.5293 L328,252.5293 L276,252.5293 L276,235.2188 " fill="#EEEEEE" style="stroke:#000000;stroke-width:1.0;"/><rect fill="none" height="841.584" style="stroke:#000000;stroke-width:2.0;" width="1162" x="276" y="235.2188"/><text fill="#000000" font-family="sans-serif" font-size="13" font-weight="bold" lengthAdjust="spacing" textLength="17" x="291" y="248.7871">alt</text><text fill="#000000" font-family="sans-serif" font-size="11" font-weight="bold" lengthAdjust="spacing" textLength="4" x="353" y="247.8535">[</text><text fill="#000000" font-family="sans-serif" font-size="11" font-weight="bold" lengthAdjust="spacing" textLength="59" x="357" y="247.8535">RTP exists</text><text fill="#000000" font-family="sans-serif" font-size="11" font-weight="bold" lengthAdjust="spacing" textLength="4" x="416" y="247.8535">]</text><polygon fill="#A80036" points="673,269.8398,663,273.8398,673,277.8398,669,273.8398" style="stroke:#A80036;stroke-width:1.0;"/><line style="stroke:#A80036;stroke-width:1.0;stroke-dasharray:2.0,2.0;" x1="667" x2="935" y1="273.8398" y2="273.8398"/><text fill="#000000" font-family="sans-serif" font-size="13" font-weight="bold" lengthAdjust="spacing" textLength="26" x="679" y="269.0977">RTP</text><line style="stroke:#A80036;stroke-width:1.0;" x1="667" x2="709" y1="332.2715" y2="332.2715"/><line style="stroke:#A80036;stroke-width:1.0;" x1="709" x2="709" y1="332.2715" y2="345.2715"/><line style="stroke:#A80036;stroke-width:1.0;" x1="668" x2="709" y1="345.2715" y2="345.2715"/><polygon fill="#A80036" points="678,341.2715,668,345.2715,678,349.2715,674,345.2715" style="stroke:#A80036;stroke-width:1.0;"/><text fill="#000000" font-family="sans-serif" font-size="13" font-weight="bold" lengthAdjust="spacing" textLength="224" x="674" y="327.5293">Check if RTP status is cancellable</text><path d="M905,286.8398 L905,372.8398 L1141,372.8398 L1141,296.8398 L1131,286.8398 L905,286.8398 " fill="#FBFB77" filter="url(#fp5v17xpuylz4)" style="stroke:#A80036;stroke-width:1.0;"/><path d="M1131,286.8398 L1131,296.8398 L1141,296.8398 L1131,286.8398 " fill="#FBFB77" style="stroke:#A80036;stroke-width:1.0;"/><text fill="#000000" font-family="sans-serif" font-size="13" lengthAdjust="spacing" textLength="215" x="911" y="304.4082">&#9989; Valid statuses for cancellation:</text><text fill="#000000" font-family="sans-serif" font-size="13" lengthAdjust="spacing" textLength="70" x="911" y="319.7188">- CREATED</text><text fill="#000000" font-family="sans-serif" font-size="13" lengthAdjust="spacing" textLength="44" x="911" y="335.0293">- SENT</text><text fill="#000000" font-family="sans-serif" font-size="13" lengthAdjust="spacing" textLength="78" x="911" y="350.3398">- ACCEPTED</text><text fill="#000000" font-family="sans-serif" font-size="13" lengthAdjust="spacing" textLength="116" x="911" y="365.6504">- USER_ACCEPTED</text><path d="M286,419.3926 L348,419.3926 L348,426.7031 L338,436.7031 L286,436.7031 L286,419.3926 " fill="#EEEEEE" style="stroke:#000000;stroke-width:1.0;"/><rect fill="none" height="592.1445" style="stroke:#000000;stroke-width:2.0;" width="1142" x="286" y="419.3926"/><text fill="#000000" font-family="sans-serif" font-size="13" font-weight="bold" lengthAdjust="spacing" textLength="17" x="301" y="432.9609">alt</text><text fill="#000000" font-family="sans-serif" font-size="11" font-weight="bold" lengthAdjust="spacing" textLength="4" x="363" y="432.0273">[</text><text fill="#000000" font-family="sans-serif" font-size="11" font-weight="bold" lengthAdjust="spacing" textLength="79" x="367" y="432.0273">Status is valid</text><text fill="#000000" font-family="sans-serif" font-size="11" font-weight="bold" lengthAdjust="spacing" textLength="4" x="446" y="432.0273">]</text><polygon fill="#A80036" points="1113,459.0137,1123,463.0137,1113,467.0137,1117,463.0137" style="stroke:#A80036;stroke-width:1.0;"/><line style="stroke:#A80036;stroke-width:1.0;" x1="662" x2="1119" y1="463.0137" y2="463.0137"/><text fill="#000000" font-family="sans-serif" font-size="13" font-weight="bold" lengthAdjust="spacing" textLength="444" x="669" y="458.2715">POST /sepa-request-to-pay-requests/{id}/cancellation-requests</text><path d="M1140,441.7031 L1140,466.7031 L1414,466.7031 L1414,451.7031 L1404,441.7031 L1140,441.7031 " fill="#FBFB77" filter="url(#fp5v17xpuylz4)" style="stroke:#A80036;stroke-width:1.0;"/><path d="M1404,441.7031 L1404,451.7031 L1414,451.7031 L1404,441.7031 " fill="#FBFB77" style="stroke:#A80036;stroke-width:1.0;"/><text fill="#000000" font-family="sans-serif" font-size="13" lengthAdjust="spacing" textLength="30" x="1146" y="459.2715">Send</text><text fill="#000000" font-family="sans-serif" font-size="13" font-weight="bold" lengthAdjust="spacing" textLength="137" x="1180" y="459.2715">cancellation request</text><text fill="#000000" font-family="sans-serif" font-size="13" lengthAdjust="spacing" textLength="78" x="1321" y="459.2715">to SP Debtor</text><path d="M595.5,483.0137 L657.5,483.0137 L657.5,490.3242 L647.5,500.3242 L595.5,500.3242 L595.5,483.0137 " fill="#EEEEEE" style="stroke:#000000;stroke-width:1.0;"/><rect fill="none" height="437.9473" style="stroke:#000000;stroke-width:2.0;" width="593" x="595.5" y="483.0137"/><text fill="#000000" font-family="sans-serif" font-size="13" font-weight="bold" lengthAdjust="spacing" textLength="17" x="610.5" y="496.582">alt</text><text fill="#000000" font-family="sans-serif" font-size="11" font-weight="bold" lengthAdjust="spacing" textLength="4" x="672.5" y="495.6484">[</text><text fill="#000000" font-family="sans-serif" font-size="11" font-weight="bold" lengthAdjust="spacing" textLength="88" x="676.5" y="495.6484">Async flow EPC</text><text fill="#000000" font-family="sans-serif" font-size="11" font-weight="bold" lengthAdjust="spacing" textLength="4" x="764.5" y="495.6484">]</text><polygon fill="#A80036" points="673,517.6348,663,521.6348,673,525.6348,669,521.6348" style="stroke:#A80036;stroke-width:1.0;"/><line style="stroke:#A80036;stroke-width:1.0;stroke-dasharray:2.0,2.0;" x1="667" x2="1124" y1="521.6348" y2="521.6348"/><text fill="#000000" font-family="sans-serif" font-size="13" font-weight="bold" lengthAdjust="spacing" textLength="104" x="679" y="516.8926">OK empty Body</text><line style="stroke:#A80036;stroke-width:1.0;" x1="662" x2="704" y1="550.9453" y2="550.9453"/><line style="stroke:#A80036;stroke-width:1.0;" x1="704" x2="704" y1="550.9453" y2="563.9453"/><line style="stroke:#A80036;stroke-width:1.0;" x1="663" x2="704" y1="563.9453" y2="563.9453"/><polygon fill="#A80036" points="673,559.9453,663,563.9453,673,567.9453,669,563.9453" style="stroke:#A80036;stroke-width:1.0;"/><text fill="#000000" font-family="sans-serif" font-size="13" font-weight="bold" lengthAdjust="spacing" textLength="182" x="669" y="546.2031">Set RTP status to RFC_SENT</text><polygon fill="#A80036" points="919,589.2559,929,593.2559,919,597.2559,923,593.2559" style="stroke:#A80036;stroke-width:1.0;"/><line style="stroke:#A80036;stroke-width:1.0;" x1="662" x2="925" y1="593.2559" y2="593.2559"/><text fill="#000000" font-family="sans-serif" font-size="13" font-weight="bold" lengthAdjust="spacing" textLength="209" x="669" y="588.5137">Save RTP with RFC_SENT status</text><polygon fill="#A80036" points="673,618.5664,663,622.5664,673,626.5664,669,622.5664" style="stroke:#A80036;stroke-width:1.0;"/><line style="stroke:#A80036;stroke-width:1.0;stroke-dasharray:2.0,2.0;" x1="667" x2="935" y1="622.5664" y2="622.5664"/><text fill="#000000" font-family="sans-serif" font-size="13" font-weight="bold" lengthAdjust="spacing" textLength="70" x="679" y="617.8242">Saved RTP</text><line style="stroke:#000000;stroke-width:1.0;stroke-dasharray:2.0,2.0;" x1="595.5" x2="1188.5" y1="631.5664" y2="631.5664"/><text fill="#000000" font-family="sans-serif" font-size="11" font-weight="bold" lengthAdjust="spacing" textLength="4" x="600.5" y="642.2012">[</text><text fill="#000000" font-family="sans-serif" font-size="11" font-weight="bold" lengthAdjust="spacing" textLength="80" x="604.5" y="642.2012">Sync flow EPC</text><text fill="#000000" font-family="sans-serif" font-size="11" font-weight="bold" lengthAdjust="spacing" textLength="4" x="684.5" y="642.2012">]</text><polygon fill="#A80036" points="673,662.832,663,666.832,673,670.832,669,666.832" style="stroke:#A80036;stroke-width:1.0;"/><line style="stroke:#A80036;stroke-width:1.0;stroke-dasharray:2.0,2.0;" x1="667" x2="1124" y1="666.832" y2="666.832"/><text fill="#000000" font-family="sans-serif" font-size="13" font-weight="bold" lengthAdjust="spacing" textLength="78" x="679" y="662.0898">OK payload</text><line style="stroke:#A80036;stroke-width:1.0;" x1="662" x2="704" y1="696.1426" y2="696.1426"/><line style="stroke:#A80036;stroke-width:1.0;" x1="704" x2="704" y1="696.1426" y2="709.1426"/><line style="stroke:#A80036;stroke-width:1.0;" x1="663" x2="704" y1="709.1426" y2="709.1426"/><polygon fill="#A80036" points="673,705.1426,663,709.1426,673,713.1426,669,709.1426" style="stroke:#A80036;stroke-width:1.0;"/><text fill="#000000" font-family="sans-serif" font-size="13" font-weight="bold" lengthAdjust="spacing" textLength="196" x="669" y="691.4004">Set RTP status to CANCELLED</text><polygon fill="#A80036" points="919,734.4531,929,738.4531,919,742.4531,923,738.4531" style="stroke:#A80036;stroke-width:1.0;"/><line style="stroke:#A80036;stroke-width:1.0;" x1="662" x2="925" y1="738.4531" y2="738.4531"/><text fill="#000000" font-family="sans-serif" font-size="13" font-weight="bold" lengthAdjust="spacing" textLength="223" x="669" y="733.7109">Save RTP with CANCELLED status</text><polygon fill="#A80036" points="673,763.7637,663,767.7637,673,771.7637,669,767.7637" style="stroke:#A80036;stroke-width:1.0;"/><line style="stroke:#A80036;stroke-width:1.0;stroke-dasharray:2.0,2.0;" x1="667" x2="935" y1="767.7637" y2="767.7637"/><text fill="#000000" font-family="sans-serif" font-size="13" font-weight="bold" lengthAdjust="spacing" textLength="70" x="679" y="763.0215">Saved RTP</text><line style="stroke:#000000;stroke-width:1.0;stroke-dasharray:2.0,2.0;" x1="595.5" x2="1188.5" y1="776.7637" y2="776.7637"/><text fill="#000000" font-family="sans-serif" font-size="11" font-weight="bold" lengthAdjust="spacing" textLength="4" x="600.5" y="787.3984">[</text><text fill="#000000" font-family="sans-serif" font-size="11" font-weight="bold" lengthAdjust="spacing" textLength="115" x="604.5" y="787.3984">Error Sync Response</text><text fill="#000000" font-family="sans-serif" font-size="11" font-weight="bold" lengthAdjust="spacing" textLength="4" x="719.5" y="787.3984">]</text><polygon fill="#A80036" points="673,808.0293,663,812.0293,673,816.0293,669,812.0293" style="stroke:#A80036;stroke-width:1.0;"/><line style="stroke:#A80036;stroke-width:1.0;stroke-dasharray:2.0,2.0;" x1="667" x2="1124" y1="812.0293" y2="812.0293"/><text fill="#000000" font-family="sans-serif" font-size="13" font-weight="bold" lengthAdjust="spacing" textLength="201" x="679" y="807.2871">Error response (e.g., 4xx, 5xx)</text><line style="stroke:#A80036;stroke-width:1.0;" x1="662" x2="704" y1="841.3398" y2="841.3398"/><line style="stroke:#A80036;stroke-width:1.0;" x1="704" x2="704" y1="841.3398" y2="854.3398"/><line style="stroke:#A80036;stroke-width:1.0;" x1="663" x2="704" y1="854.3398" y2="854.3398"/><polygon fill="#A80036" points="673,850.3398,663,854.3398,673,858.3398,669,854.3398" style="stroke:#A80036;stroke-width:1.0;"/><text fill="#000000" font-family="sans-serif" font-size="13" font-weight="bold" lengthAdjust="spacing" textLength="223" x="669" y="836.5977">Set RTP status to ERROR_CANCEL</text><polygon fill="#A80036" points="919,879.6504,929,883.6504,919,887.6504,923,883.6504" style="stroke:#A80036;stroke-width:1.0;"/><line style="stroke:#A80036;stroke-width:1.0;" x1="662" x2="925" y1="883.6504" y2="883.6504"/><text fill="#000000" font-family="sans-serif" font-size="13" font-weight="bold" lengthAdjust="spacing" textLength="250" x="669" y="878.9082">Save RTP with ERROR_CANCEL status</text><polygon fill="#A80036" points="673,908.9609,663,912.9609,673,916.9609,669,912.9609" style="stroke:#A80036;stroke-width:1.0;"/><line style="stroke:#A80036;stroke-width:1.0;stroke-dasharray:2.0,2.0;" x1="667" x2="935" y1="912.9609" y2="912.9609"/><text fill="#000000" font-family="sans-serif" font-size="13" font-weight="bold" lengthAdjust="spacing" textLength="70" x="679" y="908.2188">Saved RTP</text><polygon fill="#A80036" points="404,945.2715,394,949.2715,404,953.2715,400,949.2715" style="stroke:#A80036;stroke-width:1.0;"/><line style="stroke:#A80036;stroke-width:1.0;stroke-dasharray:2.0,2.0;" x1="398" x2="651" y1="949.2715" y2="949.2715"/><text fill="#000000" font-family="sans-serif" font-size="13" font-weight="bold" lengthAdjust="spacing" textLength="134" x="410" y="944.5293">Outcome processed</text><line style="stroke:#000000;stroke-width:1.0;stroke-dasharray:2.0,2.0;" x1="286" x2="1428" y1="958.2715" y2="958.2715"/><text fill="#000000" font-family="sans-serif" font-size="11" font-weight="bold" lengthAdjust="spacing" textLength="4" x="291" y="968.9063">[</text><text fill="#000000" font-family="sans-serif" font-size="11" font-weight="bold" lengthAdjust="spacing" textLength="195" x="295" y="968.9063">Invalid RTP status for cancellation</text><text fill="#000000" font-family="sans-serif" font-size="11" font-weight="bold" lengthAdjust="spacing" textLength="4" x="490" y="968.9063">]</text><polygon fill="#A80036" points="404,994.5371,394,998.5371,404,1002.5371,400,998.5371" style="stroke:#A80036;stroke-width:1.0;"/><line style="stroke:#A80036;stroke-width:1.0;" x1="398" x2="651" y1="998.5371" y2="998.5371"/><text fill="#000000" font-family="sans-serif" font-size="13" font-weight="bold" lengthAdjust="spacing" textLength="171" x="410" y="993.7949">Error - Invalid RTP status</text><path d="M667,977.2266 L667,1002.2266 L1010,1002.2266 L1010,987.2266 L1000,977.2266 L667,977.2266 " fill="#FBFB77" filter="url(#fp5v17xpuylz4)" style="stroke:#A80036;stroke-width:1.0;"/><path d="M1000,977.2266 L1000,987.2266 L1010,987.2266 L1000,977.2266 " fill="#FBFB77" style="stroke:#A80036;stroke-width:1.0;"/><text fill="#000000" font-family="sans-serif" font-size="13" lengthAdjust="spacing" textLength="322" x="673" y="994.7949">RTP is already in a final state (e.g., PAID, REJECTED)</text><line style="stroke:#000000;stroke-width:1.0;stroke-dasharray:2.0,2.0;" x1="276" x2="1438" y1="1019.5371" y2="1019.5371"/><text fill="#000000" font-family="sans-serif" font-size="11" font-weight="bold" lengthAdjust="spacing" textLength="4" x="281" y="1030.1719">[</text><text fill="#000000" font-family="sans-serif" font-size="11" font-weight="bold" lengthAdjust="spacing" textLength="82" x="285" y="1030.1719">RTP not found</text><text fill="#000000" font-family="sans-serif" font-size="11" font-weight="bold" lengthAdjust="spacing" textLength="4" x="367" y="1030.1719">]</text><polygon fill="#A80036" points="673,1035.4922,663,1039.4922,673,1043.4922,669,1039.4922" style="stroke:#A80036;stroke-width:1.0;"/><line style="stroke:#A80036;stroke-width:1.0;stroke-dasharray:2.0,2.0;" x1="667" x2="935" y1="1039.4922" y2="1039.4922"/><polygon fill="#A80036" points="404,1064.8027,394,1068.8027,404,1072.8027,400,1068.8027" style="stroke:#A80036;stroke-width:1.0;"/><line style="stroke:#A80036;stroke-width:1.0;stroke-dasharray:2.0,2.0;" x1="398" x2="651" y1="1068.8027" y2="1068.8027"/><text fill="#000000" font-family="sans-serif" font-size="13" font-weight="bold" lengthAdjust="spacing" textLength="146" x="410" y="1064.0605">Error - RTP not found</text><!--SRC=[jLLBRjim4Dtp58Ei6Y6AD-qcG0iuajAwIMDLSeBk35eQnqGKIHLfnqBHPM_Hq_Ka7L8VCvO3U9EDGCwFxxqXH_9Hv50L4faIAaFux8Vm3QNa3mWkECvTw8zd0KnkxySt4nz64Fm89r7WEmvSPSKpOp_Nk4OuqNd11dC5NzQB4-0Ilci7AtcbH29AJfuJkxXNv7BzX9M9xJOlm-CGl0fJeOeAJLWSUYpbYY-uf2FZQ1OsPbeCCdrSs8a-OmOGk9_wqow8dmN9SLXUA8GCbue1-QObLbo98eUFqEX08TeHAwxMagojB2H6KP6zruPXde8knXXFbDXmjIFCkeM6GemqYh0g4W81hwkzgwD5OFGnwSHSvoz5daQglAnxoBwG9LV92gjhh5-aQx4OpnIbqH9mAwIIXfXsWRj3HLjZJt4l6w0xlmdqLfWyWbY2BY0RSOI4XES9PXbVP6Zg67KhyR3IyWBy-_i7xdacqZO59In9nYvBixWmWIvuKK2w-Eqk3cvdxNBiUK6uyzp5GJItRBis03IKunxTHXzjS97F4dVkN-xPD6TjEQ23fOHl6ZcDPp2IM7AtGdeQKhcgS4jUTriv-YNItoERPEzgmUnake1OCt0SEnpQSBfqge3cfjD5t-VXD_0QrcDPvmaiwS5247hjEHgxR_TxUWtuLAeQBekqjeBiLiUex2uJWkZAc-kE31BQkndp3PgKPw5MVNHRe4yQgZsyZxfI2jsjFDGHRSECXWC57ycOUfCLF3sQhZU-zOAR6_CcZ-3RXxyvuQ2gwFKOsX7AaeOClaQx2QtQA7Y7vm_dP_1-kps33zljwT5Q154qZUODnUFai3FUK94yPOCN6_f3K__O3UYzNyDqhPBY2Q5iXZFgEy9wkIUv6I2s8llJgyNO2cANRXhWmh38WHcWdJIlU5OXJskW_pK76lWyCobz-yBnn3-3AFWQU3JyJbahGmjN5w6YX76TfuDfpmxfU4YJ3lX-ENFKIsdjRLVYFm00]--></g></svg>