<?xml version="1.0" encoding="us-ascii" standalone="no"?><svg xmlns="http://www.w3.org/2000/svg" xmlns:xlink="http://www.w3.org/1999/xlink" contentStyleType="text/css" height="2078px" preserveAspectRatio="none" style="width:1486px;height:2078px;background:#FFFFFF;" version="1.1" viewBox="0 0 1486 2078" width="1486px" zoomAndPan="magnify"><defs><filter height="300%" id="f1avlhtosmlpys" width="300%" x="-1" y="-1"><feGaussianBlur result="blurOut" stdDeviation="2.0"/><feColorMatrix in="blurOut" result="blurOut2" type="matrix" values="0 0 0 0 0 0 0 0 0 0 0 0 0 0 0 0 0 0 .4 0"/><feOffset dx="4.0" dy="4.0" in="blurOut2" result="blurOut3"/><feBlend in="SourceGraphic" in2="blurOut3" mode="normal"/></filter></defs><g><text fill="#000000" font-family="sans-serif" font-size="14" font-weight="bold" lengthAdjust="spacing" textLength="279" x="601" y="27.9951">GDP Message - UPDATE VALID Flow</text><rect fill="#FFFFFF" filter="url(#f1avlhtosmlpys)" height="1849.6094" style="stroke:#A80036;stroke-width:1.0;" width="10" x="326" y="140.7266"/><rect fill="#FFFFFF" filter="url(#f1avlhtosmlpys)" height="1688.2734" style="stroke:#A80036;stroke-width:1.0;" width="10" x="600" y="241.125"/><rect fill="#FFFFFF" filter="url(#f1avlhtosmlpys)" height="462.3359" style="stroke:#A80036;stroke-width:1.0;" width="10" x="1097" y="481.4531"/><rect fill="#FFFFFF" filter="url(#f1avlhtosmlpys)" height="58.2656" style="stroke:#A80036;stroke-width:1.0;" width="10" x="1097" y="994.0547"/><rect fill="#FFFFFF" filter="url(#f1avlhtosmlpys)" height="58.2656" style="stroke:#A80036;stroke-width:1.0;" width="10" x="1097" y="1543.4609"/><rect fill="#FFFFFF" filter="url(#f1avlhtosmlpys)" height="53.2656" style="stroke:#A80036;stroke-width:1.0;" width="10" x="1185.5" y="394.0547"/><rect fill="#FFFFFF" filter="url(#f1avlhtosmlpys)" height="29.1328" style="stroke:#A80036;stroke-width:1.0;" width="10" x="1185.5" y="610.9844"/><rect fill="#FFFFFF" filter="url(#f1avlhtosmlpys)" height="29.1328" style="stroke:#A80036;stroke-width:1.0;" width="10" x="1185.5" y="755.3203"/><rect fill="#FFFFFF" filter="url(#f1avlhtosmlpys)" height="29.1328" style="stroke:#A80036;stroke-width:1.0;" width="10" x="1185.5" y="899.6563"/><rect fill="#FFFFFF" filter="url(#f1avlhtosmlpys)" height="29.1328" style="stroke:#A80036;stroke-width:1.0;" width="10" x="1185.5" y="1123.5859"/><rect fill="#FFFFFF" filter="url(#f1avlhtosmlpys)" height="29.1328" style="stroke:#A80036;stroke-width:1.0;" width="10" x="1185.5" y="1277.9219"/><rect fill="#FFFFFF" filter="url(#f1avlhtosmlpys)" height="29.1328" style="stroke:#A80036;stroke-width:1.0;" width="10" x="1185.5" y="1480.1953"/><rect fill="#FFFFFF" filter="url(#f1avlhtosmlpys)" height="29.1328" style="stroke:#A80036;stroke-width:1.0;" width="10" x="1185.5" y="1672.9922"/><rect fill="#FFFFFF" filter="url(#f1avlhtosmlpys)" height="29.1328" style="stroke:#A80036;stroke-width:1.0;" width="10" x="1185.5" y="1827.3281"/><rect fill="none" filter="url(#f1avlhtosmlpys)" height="1780.4766" style="stroke:#000000;stroke-width:2.0;" width="1287" x="185" y="202.8594"/><rect fill="none" filter="url(#f1avlhtosmlpys)" height="1566.6094" style="stroke:#000000;stroke-width:2.0;" width="1267" x="195" y="355.7891"/><rect fill="none" filter="url(#f1avlhtosmlpys)" height="1462.4063" style="stroke:#000000;stroke-width:2.0;" width="1247" x="205" y="409.0547"/><rect fill="none" filter="url(#f1avlhtosmlpys)" height="435.3359" style="stroke:#000000;stroke-width:2.0;" width="687.5" x="536" y="501.4531"/><rect fill="none" filter="url(#f1avlhtosmlpys)" height="415.2031" style="stroke:#000000;stroke-width:2.0;" width="1177" x="215" y="950.7891"/><rect fill="none" filter="url(#f1avlhtosmlpys)" height="301" style="stroke:#000000;stroke-width:2.0;" width="846" x="536" y="1014.0547"/><rect fill="none" filter="url(#f1avlhtosmlpys)" height="301" style="stroke:#000000;stroke-width:2.0;" width="846" x="536" y="1563.4609"/><line style="stroke:#A80036;stroke-width:1.0;stroke-dasharray:5.0,5.0;" x1="146" x2="146" y1="104.5938" y2="2000.3359"/><line style="stroke:#A80036;stroke-width:1.0;stroke-dasharray:5.0,5.0;" x1="331" x2="331" y1="104.5938" y2="2000.3359"/><line style="stroke:#A80036;stroke-width:1.0;stroke-dasharray:5.0,5.0;" x1="605" x2="605" y1="104.5938" y2="2000.3359"/><line style="stroke:#A80036;stroke-width:1.0;stroke-dasharray:5.0,5.0;" x1="1101.5" x2="1101.5" y1="104.5938" y2="2000.3359"/><line style="stroke:#A80036;stroke-width:1.0;stroke-dasharray:5.0,5.0;" x1="1190.5" x2="1190.5" y1="104.5938" y2="2000.3359"/><path d="M82,78.2969 L210,78.2969 C215,78.2969 215,91.4453 215,91.4453 C215,91.4453 215,104.5938 210,104.5938 L82,104.5938 C77,104.5938 77,91.4453 77,91.4453 C77,91.4453 77,78.2969 82,78.2969 " fill="#FEFECE" filter="url(#f1avlhtosmlpys)" style="stroke:#A80036;stroke-width:2.0;"/><path d="M210,78.2969 C205,78.2969 205,91.4453 205,91.4453 C205,104.5938 210,104.5938 210,104.5938 " fill="none" style="stroke:#A80036;stroke-width:2.0;"/><text fill="#000000" font-family="sans-serif" font-size="14" font-weight="bold" lengthAdjust="spacing" textLength="118" x="82" y="96.292">GDP Event Hub</text><path d="M82,1999.3359 L210,1999.3359 C215,1999.3359 215,2012.4844 215,2012.4844 C215,2012.4844 215,2025.6328 210,2025.6328 L82,2025.6328 C77,2025.6328 77,2012.4844 77,2012.4844 C77,2012.4844 77,1999.3359 82,1999.3359 " fill="#FEFECE" filter="url(#f1avlhtosmlpys)" style="stroke:#A80036;stroke-width:2.0;"/><path d="M210,1999.3359 C205,1999.3359 205,2012.4844 205,2012.4844 C205,2025.6328 210,2025.6328 210,2025.6328 " fill="none" style="stroke:#A80036;stroke-width:2.0;"/><text fill="#000000" font-family="sans-serif" font-size="14" font-weight="bold" lengthAdjust="spacing" textLength="118" x="82" y="2017.3311">GDP Event Hub</text><rect fill="#FEFECE" filter="url(#f1avlhtosmlpys)" height="30.2969" style="stroke:#A80036;stroke-width:1.5;" width="208" x="225" y="69.2969"/><text fill="#000000" font-family="sans-serif" font-size="14" font-weight="bold" lengthAdjust="spacing" textLength="194" x="232" y="89.292">GDP Message Consumer</text><rect fill="#FEFECE" filter="url(#f1avlhtosmlpys)" height="30.2969" style="stroke:#A80036;stroke-width:1.5;" width="208" x="225" y="1999.3359"/><text fill="#000000" font-family="sans-serif" font-size="14" font-weight="bold" lengthAdjust="spacing" textLength="194" x="232" y="2019.3311">GDP Message Consumer</text><rect fill="#FEFECE" filter="url(#f1avlhtosmlpys)" height="30.2969" style="stroke:#A80036;stroke-width:1.5;" width="114" x="546" y="69.2969"/><text fill="#000000" font-family="sans-serif" font-size="14" font-weight="bold" lengthAdjust="spacing" textLength="100" x="553" y="89.292">SP Creditore</text><rect fill="#FEFECE" filter="url(#f1avlhtosmlpys)" height="30.2969" style="stroke:#A80036;stroke-width:1.5;" width="114" x="546" y="1999.3359"/><text fill="#000000" font-family="sans-serif" font-size="14" font-weight="bold" lengthAdjust="spacing" textLength="100" x="553" y="2019.3311">SP Creditore</text><rect fill="#FEFECE" filter="url(#f1avlhtosmlpys)" height="30.2969" style="stroke:#A80036;stroke-width:1.5;" width="107" x="1046.5" y="69.2969"/><text fill="#000000" font-family="sans-serif" font-size="14" font-weight="bold" lengthAdjust="spacing" textLength="93" x="1053.5" y="89.292">SP Debitore</text><rect fill="#FEFECE" filter="url(#f1avlhtosmlpys)" height="30.2969" style="stroke:#A80036;stroke-width:1.5;" width="107" x="1046.5" y="1999.3359"/><text fill="#000000" font-family="sans-serif" font-size="14" font-weight="bold" lengthAdjust="spacing" textLength="93" x="1053.5" y="2019.3311">SP Debitore</text><text fill="#000000" font-family="sans-serif" font-size="14" font-weight="bold" lengthAdjust="spacing" textLength="40" x="1167.5" y="101.292">SRTP</text><path d="M1172.5,52.2969 C1172.5,42.2969 1190.5,42.2969 1190.5,42.2969 C1190.5,42.2969 1208.5,42.2969 1208.5,52.2969 L1208.5,78.2969 C1208.5,88.2969 1190.5,88.2969 1190.5,88.2969 C1190.5,88.2969 1172.5,88.2969 1172.5,78.2969 L1172.5,52.2969 " fill="#FEFECE" filter="url(#f1avlhtosmlpys)" style="stroke:#A80036;stroke-width:1.5;"/><path d="M1172.5,52.2969 C1172.5,62.2969 1190.5,62.2969 1190.5,62.2969 C1190.5,62.2969 1208.5,62.2969 1208.5,52.2969 " fill="none" style="stroke:#A80036;stroke-width:1.5;"/><text fill="#000000" font-family="sans-serif" font-size="14" font-weight="bold" lengthAdjust="spacing" textLength="40" x="1167.5" y="2012.3311">SRTP</text><path d="M1172.5,2025.6328 C1172.5,2015.6328 1190.5,2015.6328 1190.5,2015.6328 C1190.5,2015.6328 1208.5,2015.6328 1208.5,2025.6328 L1208.5,2051.6328 C1208.5,2061.6328 1190.5,2061.6328 1190.5,2061.6328 C1190.5,2061.6328 1172.5,2061.6328 1172.5,2051.6328 L1172.5,2025.6328 " fill="#FEFECE" filter="url(#f1avlhtosmlpys)" style="stroke:#A80036;stroke-width:1.5;"/><path d="M1172.5,2025.6328 C1172.5,2035.6328 1190.5,2035.6328 1190.5,2035.6328 C1190.5,2035.6328 1208.5,2035.6328 1208.5,2025.6328 " fill="none" style="stroke:#A80036;stroke-width:1.5;"/><rect fill="#FFFFFF" filter="url(#f1avlhtosmlpys)" height="1849.6094" style="stroke:#A80036;stroke-width:1.0;" width="10" x="326" y="140.7266"/><rect fill="#FFFFFF" filter="url(#f1avlhtosmlpys)" height="1688.2734" style="stroke:#A80036;stroke-width:1.0;" width="10" x="600" y="241.125"/><rect fill="#FFFFFF" filter="url(#f1avlhtosmlpys)" height="462.3359" style="stroke:#A80036;stroke-width:1.0;" width="10" x="1097" y="481.4531"/><rect fill="#FFFFFF" filter="url(#f1avlhtosmlpys)" height="58.2656" style="stroke:#A80036;stroke-width:1.0;" width="10" x="1097" y="994.0547"/><rect fill="#FFFFFF" filter="url(#f1avlhtosmlpys)" height="58.2656" style="stroke:#A80036;stroke-width:1.0;" width="10" x="1097" y="1543.4609"/><rect fill="#FFFFFF" filter="url(#f1avlhtosmlpys)" height="53.2656" style="stroke:#A80036;stroke-width:1.0;" width="10" x="1185.5" y="394.0547"/><rect fill="#FFFFFF" filter="url(#f1avlhtosmlpys)" height="29.1328" style="stroke:#A80036;stroke-width:1.0;" width="10" x="1185.5" y="610.9844"/><rect fill="#FFFFFF" filter="url(#f1avlhtosmlpys)" height="29.1328" style="stroke:#A80036;stroke-width:1.0;" width="10" x="1185.5" y="755.3203"/><rect fill="#FFFFFF" filter="url(#f1avlhtosmlpys)" height="29.1328" style="stroke:#A80036;stroke-width:1.0;" width="10" x="1185.5" y="899.6563"/><rect fill="#FFFFFF" filter="url(#f1avlhtosmlpys)" height="29.1328" style="stroke:#A80036;stroke-width:1.0;" width="10" x="1185.5" y="1123.5859"/><rect fill="#FFFFFF" filter="url(#f1avlhtosmlpys)" height="29.1328" style="stroke:#A80036;stroke-width:1.0;" width="10" x="1185.5" y="1277.9219"/><rect fill="#FFFFFF" filter="url(#f1avlhtosmlpys)" height="29.1328" style="stroke:#A80036;stroke-width:1.0;" width="10" x="1185.5" y="1480.1953"/><rect fill="#FFFFFF" filter="url(#f1avlhtosmlpys)" height="29.1328" style="stroke:#A80036;stroke-width:1.0;" width="10" x="1185.5" y="1672.9922"/><rect fill="#FFFFFF" filter="url(#f1avlhtosmlpys)" height="29.1328" style="stroke:#A80036;stroke-width:1.0;" width="10" x="1185.5" y="1827.3281"/><polygon fill="#A80036" points="314,136.7266,324,140.7266,314,144.7266,318,140.7266" style="stroke:#A80036;stroke-width:1.0;"/><line style="stroke:#A80036;stroke-width:1.0;" x1="146" x2="320" y1="140.7266" y2="140.7266"/><text fill="#000000" font-family="sans-serif" font-size="13" font-weight="bold" lengthAdjust="spacing" textLength="103" x="153" y="135.6606">GDP Message</text><path d="M5,119.5938 L5,144.5938 L137,144.5938 L137,129.5938 L127,119.5938 L5,119.5938 " fill="#FBFB77" filter="url(#f1avlhtosmlpys)" style="stroke:#A80036;stroke-width:1.0;"/><path d="M127,119.5938 L127,129.5938 L137,129.5938 L127,119.5938 " fill="#FBFB77" style="stroke:#A80036;stroke-width:1.0;"/><text fill="#000000" font-family="sans-serif" font-size="13" font-weight="bold" lengthAdjust="spacing" textLength="111" x="11" y="136.6606">Status = VALID</text><line style="stroke:#A80036;stroke-width:1.0;" x1="336" x2="378" y1="174.8594" y2="174.8594"/><line style="stroke:#A80036;stroke-width:1.0;" x1="378" x2="378" y1="174.8594" y2="187.8594"/><line style="stroke:#A80036;stroke-width:1.0;" x1="337" x2="378" y1="187.8594" y2="187.8594"/><polygon fill="#A80036" points="347,183.8594,337,187.8594,347,191.8594,343,187.8594" style="stroke:#A80036;stroke-width:1.0;"/><text fill="#000000" font-family="sans-serif" font-size="13" font-weight="bold" lengthAdjust="spacing" textLength="193" x="343" y="169.7935">Check message operation</text><path d="M185,202.8594 L249,202.8594 L249,209.9922 L239,219.9922 L185,219.9922 L185,202.8594 " fill="#EEEEEE" style="stroke:#000000;stroke-width:1.0;"/><rect fill="none" height="1780.4766" style="stroke:#000000;stroke-width:2.0;" width="1287" x="185" y="202.8594"/><text fill="#000000" font-family="sans-serif" font-size="13" font-weight="bold" lengthAdjust="spacing" textLength="19" x="200" y="215.9263">alt</text><text fill="#000000" font-family="sans-serif" font-size="11" font-weight="bold" lengthAdjust="spacing" textLength="5" x="264" y="215.0698">[</text><text fill="#000000" font-family="sans-serif" font-size="11" font-weight="bold" lengthAdjust="spacing" textLength="275" x="269" y="215.0698">Operation == UPDATE and Status == VALID</text><text fill="#000000" font-family="sans-serif" font-size="11" font-weight="bold" lengthAdjust="spacing" textLength="5" x="544" y="215.0698">]</text><polygon fill="#A80036" points="588,237.125,598,241.125,588,245.125,592,241.125" style="stroke:#A80036;stroke-width:1.0;"/><line style="stroke:#A80036;stroke-width:1.0;" x1="336" x2="594" y1="241.125" y2="241.125"/><text fill="#000000" font-family="sans-serif" font-size="13" font-weight="bold" lengthAdjust="spacing" textLength="245" x="343" y="236.0591">Process UPDATE VALID operation</text><line style="stroke:#A80036;stroke-width:1.0;" x1="610" x2="652" y1="299.0234" y2="299.0234"/><line style="stroke:#A80036;stroke-width:1.0;" x1="652" x2="652" y1="299.0234" y2="312.0234"/><line style="stroke:#A80036;stroke-width:1.0;" x1="611" x2="652" y1="312.0234" y2="312.0234"/><polygon fill="#A80036" points="621,308.0234,611,312.0234,621,316.0234,617,312.0234" style="stroke:#A80036;stroke-width:1.0;"/><text fill="#000000" font-family="sans-serif" font-size="13" font-weight="bold" lengthAdjust="spacing" textLength="186" x="617" y="293.9575">Check RTP status is valid</text><path d="M815,254.125 L815,339.125 L984,339.125 L984,264.125 L974,254.125 L815,254.125 " fill="#FBFB77" filter="url(#f1avlhtosmlpys)" style="stroke:#A80036;stroke-width:1.0;"/><path d="M974,254.125 L974,264.125 L984,264.125 L974,254.125 " fill="#FBFB77" style="stroke:#A80036;stroke-width:1.0;"/><text fill="#000000" font-family="sans-serif" font-size="13" font-weight="bold" lengthAdjust="spacing" textLength="148" x="821" y="271.1919">&#9989; Valid RTP statuses:</text><text fill="#000000" font-family="sans-serif" font-size="13" lengthAdjust="spacing" textLength="5" x="821" y="286.3247">-</text><text fill="#000000" font-family="sans-serif" font-size="13" font-weight="bold" lengthAdjust="spacing" textLength="67" x="830" y="286.3247">CREATED</text><text fill="#000000" font-family="sans-serif" font-size="13" lengthAdjust="spacing" textLength="5" x="821" y="301.4575">-</text><text fill="#000000" font-family="sans-serif" font-size="13" font-weight="bold" lengthAdjust="spacing" textLength="37" x="830" y="301.4575">SENT</text><text fill="#000000" font-family="sans-serif" font-size="13" lengthAdjust="spacing" textLength="5" x="821" y="316.5903">-</text><text fill="#000000" font-family="sans-serif" font-size="13" font-weight="bold" lengthAdjust="spacing" textLength="77" x="830" y="316.5903">ACCEPTED</text><text fill="#000000" font-family="sans-serif" font-size="13" lengthAdjust="spacing" textLength="5" x="821" y="331.7231">-</text><text fill="#000000" font-family="sans-serif" font-size="13" font-weight="bold" lengthAdjust="spacing" textLength="122" x="830" y="331.7231">USER_ACCEPTED</text><path d="M195,355.7891 L259,355.7891 L259,362.9219 L249,372.9219 L195,372.9219 L195,355.7891 " fill="#EEEEEE" style="stroke:#000000;stroke-width:1.0;"/><rect fill="none" height="1566.6094" style="stroke:#000000;stroke-width:2.0;" width="1267" x="195" y="355.7891"/><text fill="#000000" font-family="sans-serif" font-size="13" font-weight="bold" lengthAdjust="spacing" textLength="19" x="210" y="368.856">alt</text><text fill="#000000" font-family="sans-serif" font-size="11" font-weight="bold" lengthAdjust="spacing" textLength="5" x="274" y="367.9995">[</text><text fill="#000000" font-family="sans-serif" font-size="11" font-weight="bold" lengthAdjust="spacing" textLength="118" x="279" y="367.9995">RTP status is valid</text><text fill="#000000" font-family="sans-serif" font-size="11" font-weight="bold" lengthAdjust="spacing" textLength="5" x="397" y="367.9995">]</text><polygon fill="#A80036" points="1173.5,390.0547,1183.5,394.0547,1173.5,398.0547,1177.5,394.0547" style="stroke:#A80036;stroke-width:1.0;"/><line style="stroke:#A80036;stroke-width:1.0;" x1="610" x2="1179.5" y1="394.0547" y2="394.0547"/><text fill="#000000" font-family="sans-serif" font-size="13" font-weight="bold" lengthAdjust="spacing" textLength="253" x="617" y="388.9888">findRtpByOperationDispatcherKey</text><path d="M205,409.0547 L269,409.0547 L269,416.1875 L259,426.1875 L205,426.1875 L205,409.0547 " fill="#EEEEEE" style="stroke:#000000;stroke-width:1.0;"/><rect fill="none" height="1462.4063" style="stroke:#000000;stroke-width:2.0;" width="1247" x="205" y="409.0547"/><text fill="#000000" font-family="sans-serif" font-size="13" font-weight="bold" lengthAdjust="spacing" textLength="19" x="220" y="422.1216">alt</text><text fill="#000000" font-family="sans-serif" font-size="11" font-weight="bold" lengthAdjust="spacing" textLength="5" x="284" y="421.2651">[</text><text fill="#000000" font-family="sans-serif" font-size="11" font-weight="bold" lengthAdjust="spacing" textLength="66" x="289" y="421.2651">RTP exists</text><text fill="#000000" font-family="sans-serif" font-size="11" font-weight="bold" lengthAdjust="spacing" textLength="5" x="355" y="421.2651">]</text><polygon fill="#A80036" points="621,443.3203,611,447.3203,621,451.3203,617,447.3203" style="stroke:#A80036;stroke-width:1.0;"/><line style="stroke:#A80036;stroke-width:1.0;stroke-dasharray:2.0,2.0;" x1="615" x2="1189.5" y1="447.3203" y2="447.3203"/><text fill="#000000" font-family="sans-serif" font-size="13" font-weight="bold" lengthAdjust="spacing" textLength="28" x="627" y="442.2544">RTP</text><polygon fill="#A80036" points="1085,477.4531,1095,481.4531,1085,485.4531,1089,481.4531" style="stroke:#A80036;stroke-width:1.0;"/><line style="stroke:#A80036;stroke-width:1.0;" x1="610" x2="1091" y1="481.4531" y2="481.4531"/><text fill="#000000" font-family="sans-serif" font-size="13" font-weight="bold" lengthAdjust="spacing" textLength="468" x="617" y="476.3872">POST /sepa-request-to-pay-requests/{id}/cancellation-requests</text><path d="M1112,460.3203 L1112,485.3203 L1438,485.3203 L1438,470.3203 L1428,460.3203 L1112,460.3203 " fill="#FBFB77" filter="url(#f1avlhtosmlpys)" style="stroke:#A80036;stroke-width:1.0;"/><path d="M1428,460.3203 L1428,470.3203 L1438,470.3203 L1428,460.3203 " fill="#FBFB77" style="stroke:#A80036;stroke-width:1.0;"/><text fill="#000000" font-family="sans-serif" font-size="13" font-weight="bold" lengthAdjust="spacing" textLength="305" x="1118" y="477.3872">Send cancellation request to SP Debitore</text><path d="M536,501.4531 L600,501.4531 L600,508.5859 L590,518.5859 L536,518.5859 L536,501.4531 " fill="#EEEEEE" style="stroke:#000000;stroke-width:1.0;"/><rect fill="none" height="435.3359" style="stroke:#000000;stroke-width:2.0;" width="687.5" x="536" y="501.4531"/><text fill="#000000" font-family="sans-serif" font-size="13" font-weight="bold" lengthAdjust="spacing" textLength="19" x="551" y="514.52">alt</text><text fill="#000000" font-family="sans-serif" font-size="11" font-weight="bold" lengthAdjust="spacing" textLength="5" x="615" y="513.6636">[</text><text fill="#000000" font-family="sans-serif" font-size="11" font-weight="bold" lengthAdjust="spacing" textLength="98" x="620" y="513.6636">Async flow EPC</text><text fill="#000000" font-family="sans-serif" font-size="11" font-weight="bold" lengthAdjust="spacing" textLength="5" x="718" y="513.6636">]</text><polygon fill="#A80036" points="621,535.7188,611,539.7188,621,543.7188,617,539.7188" style="stroke:#A80036;stroke-width:1.0;"/><line style="stroke:#A80036;stroke-width:1.0;stroke-dasharray:2.0,2.0;" x1="615" x2="1096" y1="539.7188" y2="539.7188"/><text fill="#000000" font-family="sans-serif" font-size="13" font-weight="bold" lengthAdjust="spacing" textLength="115" x="627" y="534.6528">OK empty Body</text><line style="stroke:#A80036;stroke-width:1.0;" x1="610" x2="652" y1="568.8516" y2="568.8516"/><line style="stroke:#A80036;stroke-width:1.0;" x1="652" x2="652" y1="568.8516" y2="581.8516"/><line style="stroke:#A80036;stroke-width:1.0;" x1="611" x2="652" y1="581.8516" y2="581.8516"/><polygon fill="#A80036" points="621,577.8516,611,581.8516,621,585.8516,617,581.8516" style="stroke:#A80036;stroke-width:1.0;"/><text fill="#000000" font-family="sans-serif" font-size="13" font-weight="bold" lengthAdjust="spacing" textLength="206" x="617" y="563.7856">Set RTP status to RFC_SENT</text><polygon fill="#A80036" points="1173.5,606.9844,1183.5,610.9844,1173.5,614.9844,1177.5,610.9844" style="stroke:#A80036;stroke-width:1.0;"/><line style="stroke:#A80036;stroke-width:1.0;" x1="610" x2="1179.5" y1="610.9844" y2="610.9844"/><text fill="#000000" font-family="sans-serif" font-size="13" font-weight="bold" lengthAdjust="spacing" textLength="233" x="617" y="605.9185">Save RTP with RFC_SENT status</text><polygon fill="#A80036" points="621,636.1172,611,640.1172,621,644.1172,617,640.1172" style="stroke:#A80036;stroke-width:1.0;"/><line style="stroke:#A80036;stroke-width:1.0;stroke-dasharray:2.0,2.0;" x1="615" x2="1189.5" y1="640.1172" y2="640.1172"/><text fill="#000000" font-family="sans-serif" font-size="13" font-weight="bold" lengthAdjust="spacing" textLength="78" x="627" y="635.0513">Saved RTP</text><line style="stroke:#000000;stroke-width:1.0;stroke-dasharray:2.0,2.0;" x1="536" x2="1223.5" y1="649.1172" y2="649.1172"/><text fill="#000000" font-family="sans-serif" font-size="11" font-weight="bold" lengthAdjust="spacing" textLength="5" x="541" y="659.3276">[</text><text fill="#000000" font-family="sans-serif" font-size="11" font-weight="bold" lengthAdjust="spacing" textLength="91" x="546" y="659.3276">Sync flow EPC</text><text fill="#000000" font-family="sans-serif" font-size="11" font-weight="bold" lengthAdjust="spacing" textLength="5" x="637" y="659.3276">]</text><polygon fill="#A80036" points="621,680.0547,611,684.0547,621,688.0547,617,684.0547" style="stroke:#A80036;stroke-width:1.0;"/><line style="stroke:#A80036;stroke-width:1.0;stroke-dasharray:2.0,2.0;" x1="615" x2="1096" y1="684.0547" y2="684.0547"/><text fill="#000000" font-family="sans-serif" font-size="13" font-weight="bold" lengthAdjust="spacing" textLength="85" x="627" y="678.9888">OK payload</text><line style="stroke:#A80036;stroke-width:1.0;" x1="610" x2="652" y1="713.1875" y2="713.1875"/><line style="stroke:#A80036;stroke-width:1.0;" x1="652" x2="652" y1="713.1875" y2="726.1875"/><line style="stroke:#A80036;stroke-width:1.0;" x1="611" x2="652" y1="726.1875" y2="726.1875"/><polygon fill="#A80036" points="621,722.1875,611,726.1875,621,730.1875,617,726.1875" style="stroke:#A80036;stroke-width:1.0;"/><text fill="#000000" font-family="sans-serif" font-size="13" font-weight="bold" lengthAdjust="spacing" textLength="219" x="617" y="708.1216">Set RTP status to CANCELLED</text><polygon fill="#A80036" points="1173.5,751.3203,1183.5,755.3203,1173.5,759.3203,1177.5,755.3203" style="stroke:#A80036;stroke-width:1.0;"/><line style="stroke:#A80036;stroke-width:1.0;" x1="610" x2="1179.5" y1="755.3203" y2="755.3203"/><text fill="#000000" font-family="sans-serif" font-size="13" font-weight="bold" lengthAdjust="spacing" textLength="246" x="617" y="750.2544">Save RTP with CANCELLED status</text><polygon fill="#A80036" points="621,780.4531,611,784.4531,621,788.4531,617,784.4531" style="stroke:#A80036;stroke-width:1.0;"/><line style="stroke:#A80036;stroke-width:1.0;stroke-dasharray:2.0,2.0;" x1="615" x2="1189.5" y1="784.4531" y2="784.4531"/><text fill="#000000" font-family="sans-serif" font-size="13" font-weight="bold" lengthAdjust="spacing" textLength="78" x="627" y="779.3872">Saved RTP</text><line style="stroke:#000000;stroke-width:1.0;stroke-dasharray:2.0,2.0;" x1="536" x2="1223.5" y1="793.4531" y2="793.4531"/><text fill="#000000" font-family="sans-serif" font-size="11" font-weight="bold" lengthAdjust="spacing" textLength="5" x="541" y="803.6636">[</text><text fill="#000000" font-family="sans-serif" font-size="11" font-weight="bold" lengthAdjust="spacing" textLength="131" x="546" y="803.6636">Error Sync Response</text><text fill="#000000" font-family="sans-serif" font-size="11" font-weight="bold" lengthAdjust="spacing" textLength="5" x="677" y="803.6636">]</text><polygon fill="#A80036" points="621,824.3906,611,828.3906,621,832.3906,617,828.3906" style="stroke:#A80036;stroke-width:1.0;"/><line style="stroke:#A80036;stroke-width:1.0;stroke-dasharray:2.0,2.0;" x1="615" x2="1096" y1="828.3906" y2="828.3906"/><text fill="#000000" font-family="sans-serif" font-size="13" font-weight="bold" lengthAdjust="spacing" textLength="109" x="627" y="823.3247">Error response</text><line style="stroke:#A80036;stroke-width:1.0;" x1="610" x2="652" y1="857.5234" y2="857.5234"/><line style="stroke:#A80036;stroke-width:1.0;" x1="652" x2="652" y1="857.5234" y2="870.5234"/><line style="stroke:#A80036;stroke-width:1.0;" x1="611" x2="652" y1="870.5234" y2="870.5234"/><polygon fill="#A80036" points="621,866.5234,611,870.5234,621,874.5234,617,870.5234" style="stroke:#A80036;stroke-width:1.0;"/><text fill="#000000" font-family="sans-serif" font-size="13" font-weight="bold" lengthAdjust="spacing" textLength="248" x="617" y="852.4575">Set RTP status to ERROR_CANCEL</text><polygon fill="#A80036" points="1173.5,895.6563,1183.5,899.6563,1173.5,903.6563,1177.5,899.6563" style="stroke:#A80036;stroke-width:1.0;"/><line style="stroke:#A80036;stroke-width:1.0;" x1="610" x2="1179.5" y1="899.6563" y2="899.6563"/><text fill="#000000" font-family="sans-serif" font-size="13" font-weight="bold" lengthAdjust="spacing" textLength="275" x="617" y="894.5903">Save RTP with ERROR_CANCEL status</text><polygon fill="#A80036" points="621,924.7891,611,928.7891,621,932.7891,617,928.7891" style="stroke:#A80036;stroke-width:1.0;"/><line style="stroke:#A80036;stroke-width:1.0;stroke-dasharray:2.0,2.0;" x1="615" x2="1189.5" y1="928.7891" y2="928.7891"/><text fill="#000000" font-family="sans-serif" font-size="13" font-weight="bold" lengthAdjust="spacing" textLength="78" x="627" y="923.7231">Saved RTP</text><path d="M215,950.7891 L279,950.7891 L279,957.9219 L269,967.9219 L215,967.9219 L215,950.7891 " fill="#EEEEEE" style="stroke:#000000;stroke-width:1.0;"/><rect fill="none" height="415.2031" style="stroke:#000000;stroke-width:2.0;" width="1177" x="215" y="950.7891"/><text fill="#000000" font-family="sans-serif" font-size="13" font-weight="bold" lengthAdjust="spacing" textLength="19" x="230" y="963.856">alt</text><text fill="#000000" font-family="sans-serif" font-size="11" font-weight="bold" lengthAdjust="spacing" textLength="5" x="294" y="962.9995">[</text><text fill="#000000" font-family="sans-serif" font-size="11" font-weight="bold" lengthAdjust="spacing" textLength="317" x="299" y="962.9995">RTP status is CANCELLED or CANCELLED with RFC</text><text fill="#000000" font-family="sans-serif" font-size="11" font-weight="bold" lengthAdjust="spacing" textLength="5" x="616" y="962.9995">]</text><polygon fill="#A80036" points="1085,990.0547,1095,994.0547,1085,998.0547,1089,994.0547" style="stroke:#A80036;stroke-width:1.0;"/><line style="stroke:#A80036;stroke-width:1.0;" x1="610" x2="1091" y1="994.0547" y2="994.0547"/><text fill="#000000" font-family="sans-serif" font-size="13" font-weight="bold" lengthAdjust="spacing" textLength="198" x="617" y="988.9888">POST /sepa-request-to-pay</text><path d="M1112,972.9219 L1112,997.9219 L1316,997.9219 L1316,982.9219 L1306,972.9219 L1112,972.9219 " fill="#FBFB77" filter="url(#f1avlhtosmlpys)" style="stroke:#A80036;stroke-width:1.0;"/><path d="M1306,972.9219 L1306,982.9219 L1316,982.9219 L1306,972.9219 " fill="#FBFB77" style="stroke:#A80036;stroke-width:1.0;"/><text fill="#000000" font-family="sans-serif" font-size="13" font-weight="bold" lengthAdjust="spacing" textLength="183" x="1118" y="989.9888">Send RTP to SP Debitore</text><path d="M536,1014.0547 L600,1014.0547 L600,1021.1875 L590,1031.1875 L536,1031.1875 L536,1014.0547 " fill="#EEEEEE" style="stroke:#000000;stroke-width:1.0;"/><rect fill="none" height="301" style="stroke:#000000;stroke-width:2.0;" width="846" x="536" y="1014.0547"/><text fill="#000000" font-family="sans-serif" font-size="13" font-weight="bold" lengthAdjust="spacing" textLength="19" x="551" y="1027.1216">alt</text><text fill="#000000" font-family="sans-serif" font-size="11" font-weight="bold" lengthAdjust="spacing" textLength="5" x="615" y="1026.2651">[</text><text fill="#000000" font-family="sans-serif" font-size="11" font-weight="bold" lengthAdjust="spacing" textLength="121" x="620" y="1026.2651">SP Debitor accepts</text><text fill="#000000" font-family="sans-serif" font-size="11" font-weight="bold" lengthAdjust="spacing" textLength="5" x="741" y="1026.2651">]</text><polygon fill="#A80036" points="621,1048.3203,611,1052.3203,621,1056.3203,617,1052.3203" style="stroke:#A80036;stroke-width:1.0;"/><line style="stroke:#A80036;stroke-width:1.0;stroke-dasharray:2.0,2.0;" x1="615" x2="1101" y1="1052.3203" y2="1052.3203"/><text fill="#000000" font-family="sans-serif" font-size="13" font-weight="bold" lengthAdjust="spacing" textLength="72" x="627" y="1047.2544">Response</text><line style="stroke:#A80036;stroke-width:1.0;" x1="610" x2="652" y1="1081.4531" y2="1081.4531"/><line style="stroke:#A80036;stroke-width:1.0;" x1="652" x2="652" y1="1081.4531" y2="1094.4531"/><line style="stroke:#A80036;stroke-width:1.0;" x1="611" x2="652" y1="1094.4531" y2="1094.4531"/><polygon fill="#A80036" points="621,1090.4531,611,1094.4531,621,1098.4531,617,1094.4531" style="stroke:#A80036;stroke-width:1.0;"/><text fill="#000000" font-family="sans-serif" font-size="13" font-weight="bold" lengthAdjust="spacing" textLength="170" x="617" y="1076.3872">Set RTP status to SENT</text><polygon fill="#A80036" points="1173.5,1119.5859,1183.5,1123.5859,1173.5,1127.5859,1177.5,1123.5859" style="stroke:#A80036;stroke-width:1.0;"/><line style="stroke:#A80036;stroke-width:1.0;" x1="610" x2="1179.5" y1="1123.5859" y2="1123.5859"/><text fill="#000000" font-family="sans-serif" font-size="13" font-weight="bold" lengthAdjust="spacing" textLength="197" x="617" y="1118.52">Save RTP with SENT status</text><polygon fill="#A80036" points="621,1148.7188,611,1152.7188,621,1156.7188,617,1152.7188" style="stroke:#A80036;stroke-width:1.0;"/><line style="stroke:#A80036;stroke-width:1.0;stroke-dasharray:2.0,2.0;" x1="615" x2="1189.5" y1="1152.7188" y2="1152.7188"/><text fill="#000000" font-family="sans-serif" font-size="13" font-weight="bold" lengthAdjust="spacing" textLength="78" x="627" y="1147.6528">Saved RTP</text><line style="stroke:#000000;stroke-width:1.0;stroke-dasharray:2.0,2.0;" x1="536" x2="1382" y1="1161.7188" y2="1161.7188"/><text fill="#000000" font-family="sans-serif" font-size="11" font-weight="bold" lengthAdjust="spacing" textLength="5" x="541" y="1171.9292">[</text><text fill="#000000" font-family="sans-serif" font-size="11" font-weight="bold" lengthAdjust="spacing" textLength="115" x="546" y="1171.9292">SP Debitor rejects</text><text fill="#000000" font-family="sans-serif" font-size="11" font-weight="bold" lengthAdjust="spacing" textLength="5" x="661" y="1171.9292">]</text><polygon fill="#A80036" points="621,1197.6563,611,1201.6563,621,1205.6563,617,1201.6563" style="stroke:#A80036;stroke-width:1.0;"/><line style="stroke:#A80036;stroke-width:1.0;stroke-dasharray:2.0,2.0;" x1="615" x2="1101" y1="1201.6563" y2="1201.6563"/><text fill="#000000" font-family="sans-serif" font-size="13" font-weight="bold" lengthAdjust="spacing" textLength="109" x="627" y="1196.5903">Error response</text><path d="M1107,1180.5234 L1107,1205.5234 L1363,1205.5234 L1363,1190.5234 L1353,1180.5234 L1107,1180.5234 " fill="#FBFB77" filter="url(#f1avlhtosmlpys)" style="stroke:#A80036;stroke-width:1.0;"/><path d="M1353,1180.5234 L1353,1190.5234 L1363,1190.5234 L1353,1180.5234 " fill="#FBFB77" style="stroke:#A80036;stroke-width:1.0;"/><text fill="#000000" font-family="sans-serif" font-size="13" font-weight="bold" lengthAdjust="spacing" textLength="235" x="1113" y="1197.5903">Based on SP Debitore response</text><line style="stroke:#A80036;stroke-width:1.0;" x1="610" x2="652" y1="1235.7891" y2="1235.7891"/><line style="stroke:#A80036;stroke-width:1.0;" x1="652" x2="652" y1="1235.7891" y2="1248.7891"/><line style="stroke:#A80036;stroke-width:1.0;" x1="611" x2="652" y1="1248.7891" y2="1248.7891"/><polygon fill="#A80036" points="621,1244.7891,611,1248.7891,621,1252.7891,617,1248.7891" style="stroke:#A80036;stroke-width:1.0;"/><text fill="#000000" font-family="sans-serif" font-size="13" font-weight="bold" lengthAdjust="spacing" textLength="203" x="617" y="1230.7231">Set RTP status to REJECTED</text><polygon fill="#A80036" points="1173.5,1273.9219,1183.5,1277.9219,1173.5,1281.9219,1177.5,1277.9219" style="stroke:#A80036;stroke-width:1.0;"/><line style="stroke:#A80036;stroke-width:1.0;" x1="610" x2="1179.5" y1="1277.9219" y2="1277.9219"/><text fill="#000000" font-family="sans-serif" font-size="13" font-weight="bold" lengthAdjust="spacing" textLength="230" x="617" y="1272.856">Save RTP with REJECTED status</text><polygon fill="#A80036" points="621,1303.0547,611,1307.0547,621,1311.0547,617,1307.0547" style="stroke:#A80036;stroke-width:1.0;"/><line style="stroke:#A80036;stroke-width:1.0;stroke-dasharray:2.0,2.0;" x1="615" x2="1189.5" y1="1307.0547" y2="1307.0547"/><text fill="#000000" font-family="sans-serif" font-size="13" font-weight="bold" lengthAdjust="spacing" textLength="78" x="627" y="1301.9888">Saved RTP</text><line style="stroke:#000000;stroke-width:1.0;stroke-dasharray:2.0,2.0;" x1="215" x2="1392" y1="1323.0547" y2="1323.0547"/><text fill="#000000" font-family="sans-serif" font-size="11" font-weight="bold" lengthAdjust="spacing" textLength="5" x="220" y="1333.2651">[</text><text fill="#000000" font-family="sans-serif" font-size="11" font-weight="bold" lengthAdjust="spacing" textLength="303" x="225" y="1333.2651">Cancellation not possible or already final state</text><text fill="#000000" font-family="sans-serif" font-size="11" font-weight="bold" lengthAdjust="spacing" textLength="5" x="528" y="1333.2651">]</text><polygon fill="#A80036" points="347,1353.9922,337,1357.9922,347,1361.9922,343,1357.9922" style="stroke:#A80036;stroke-width:1.0;"/><line style="stroke:#A80036;stroke-width:1.0;" x1="341" x2="599" y1="1357.9922" y2="1357.9922"/><text fill="#000000" font-family="sans-serif" font-size="13" font-weight="bold" lengthAdjust="spacing" textLength="165" x="353" y="1352.9263">Skip to next operation</text><polygon fill="#A80036" points="347,1390.125,337,1394.125,347,1398.125,343,1394.125" style="stroke:#A80036;stroke-width:1.0;"/><line style="stroke:#A80036;stroke-width:1.0;stroke-dasharray:2.0,2.0;" x1="341" x2="599" y1="1394.125" y2="1394.125"/><text fill="#000000" font-family="sans-serif" font-size="13" font-weight="bold" lengthAdjust="spacing" textLength="97" x="353" y="1389.0591">Updated RTP</text><line style="stroke:#000000;stroke-width:1.0;stroke-dasharray:2.0,2.0;" x1="205" x2="1452" y1="1403.125" y2="1403.125"/><text fill="#000000" font-family="sans-serif" font-size="11" font-weight="bold" lengthAdjust="spacing" textLength="5" x="210" y="1413.3354">[</text><text fill="#000000" font-family="sans-serif" font-size="11" font-weight="bold" lengthAdjust="spacing" textLength="90" x="215" y="1413.3354">RTP not found</text><text fill="#000000" font-family="sans-serif" font-size="11" font-weight="bold" lengthAdjust="spacing" textLength="5" x="305" y="1413.3354">]</text><line style="stroke:#A80036;stroke-width:1.0;" x1="610" x2="652" y1="1438.0625" y2="1438.0625"/><line style="stroke:#A80036;stroke-width:1.0;" x1="652" x2="652" y1="1438.0625" y2="1451.0625"/><line style="stroke:#A80036;stroke-width:1.0;" x1="611" x2="652" y1="1451.0625" y2="1451.0625"/><polygon fill="#A80036" points="621,1447.0625,611,1451.0625,621,1455.0625,617,1451.0625" style="stroke:#A80036;stroke-width:1.0;"/><text fill="#000000" font-family="sans-serif" font-size="13" font-weight="bold" lengthAdjust="spacing" textLength="223" x="617" y="1432.9966">Create RTP in status CREATED</text><polygon fill="#A80036" points="1173.5,1476.1953,1183.5,1480.1953,1173.5,1484.1953,1177.5,1480.1953" style="stroke:#A80036;stroke-width:1.0;"/><line style="stroke:#A80036;stroke-width:1.0;" x1="610" x2="1179.5" y1="1480.1953" y2="1480.1953"/><text fill="#000000" font-family="sans-serif" font-size="13" font-weight="bold" lengthAdjust="spacing" textLength="227" x="617" y="1475.1294">Save RTP with CREATED status</text><polygon fill="#A80036" points="621,1505.3281,611,1509.3281,621,1513.3281,617,1509.3281" style="stroke:#A80036;stroke-width:1.0;"/><line style="stroke:#A80036;stroke-width:1.0;stroke-dasharray:2.0,2.0;" x1="615" x2="1189.5" y1="1509.3281" y2="1509.3281"/><text fill="#000000" font-family="sans-serif" font-size="13" font-weight="bold" lengthAdjust="spacing" textLength="78" x="627" y="1504.2622">Saved RTP</text><polygon fill="#A80036" points="1085,1539.4609,1095,1543.4609,1085,1547.4609,1089,1543.4609" style="stroke:#A80036;stroke-width:1.0;"/><line style="stroke:#A80036;stroke-width:1.0;" x1="610" x2="1091" y1="1543.4609" y2="1543.4609"/><text fill="#000000" font-family="sans-serif" font-size="13" font-weight="bold" lengthAdjust="spacing" textLength="198" x="617" y="1538.395">POST /sepa-request-to-pay</text><path d="M1112,1522.3281 L1112,1547.3281 L1316,1547.3281 L1316,1532.3281 L1306,1522.3281 L1112,1522.3281 " fill="#FBFB77" filter="url(#f1avlhtosmlpys)" style="stroke:#A80036;stroke-width:1.0;"/><path d="M1306,1522.3281 L1306,1532.3281 L1316,1532.3281 L1306,1522.3281 " fill="#FBFB77" style="stroke:#A80036;stroke-width:1.0;"/><text fill="#000000" font-family="sans-serif" font-size="13" font-weight="bold" lengthAdjust="spacing" textLength="183" x="1118" y="1539.395">Send RTP to SP Debitore</text><path d="M536,1563.4609 L600,1563.4609 L600,1570.5938 L590,1580.5938 L536,1580.5938 L536,1563.4609 " fill="#EEEEEE" style="stroke:#000000;stroke-width:1.0;"/><rect fill="none" height="301" style="stroke:#000000;stroke-width:2.0;" width="846" x="536" y="1563.4609"/><text fill="#000000" font-family="sans-serif" font-size="13" font-weight="bold" lengthAdjust="spacing" textLength="19" x="551" y="1576.5278">alt</text><text fill="#000000" font-family="sans-serif" font-size="11" font-weight="bold" lengthAdjust="spacing" textLength="5" x="615" y="1575.6714">[</text><text fill="#000000" font-family="sans-serif" font-size="11" font-weight="bold" lengthAdjust="spacing" textLength="101" x="620" y="1575.6714">Debitor accepts</text><text fill="#000000" font-family="sans-serif" font-size="11" font-weight="bold" lengthAdjust="spacing" textLength="5" x="721" y="1575.6714">]</text><polygon fill="#A80036" points="621,1597.7266,611,1601.7266,621,1605.7266,617,1601.7266" style="stroke:#A80036;stroke-width:1.0;"/><line style="stroke:#A80036;stroke-width:1.0;stroke-dasharray:2.0,2.0;" x1="615" x2="1101" y1="1601.7266" y2="1601.7266"/><text fill="#000000" font-family="sans-serif" font-size="13" font-weight="bold" lengthAdjust="spacing" textLength="72" x="627" y="1596.6606">Response</text><line style="stroke:#A80036;stroke-width:1.0;" x1="610" x2="652" y1="1630.8594" y2="1630.8594"/><line style="stroke:#A80036;stroke-width:1.0;" x1="652" x2="652" y1="1630.8594" y2="1643.8594"/><line style="stroke:#A80036;stroke-width:1.0;" x1="611" x2="652" y1="1643.8594" y2="1643.8594"/><polygon fill="#A80036" points="621,1639.8594,611,1643.8594,621,1647.8594,617,1643.8594" style="stroke:#A80036;stroke-width:1.0;"/><text fill="#000000" font-family="sans-serif" font-size="13" font-weight="bold" lengthAdjust="spacing" textLength="170" x="617" y="1625.7935">Set RTP status to SENT</text><polygon fill="#A80036" points="1173.5,1668.9922,1183.5,1672.9922,1173.5,1676.9922,1177.5,1672.9922" style="stroke:#A80036;stroke-width:1.0;"/><line style="stroke:#A80036;stroke-width:1.0;" x1="610" x2="1179.5" y1="1672.9922" y2="1672.9922"/><text fill="#000000" font-family="sans-serif" font-size="13" font-weight="bold" lengthAdjust="spacing" textLength="197" x="617" y="1667.9263">Save RTP with SENT status</text><polygon fill="#A80036" points="621,1698.125,611,1702.125,621,1706.125,617,1702.125" style="stroke:#A80036;stroke-width:1.0;"/><line style="stroke:#A80036;stroke-width:1.0;stroke-dasharray:2.0,2.0;" x1="615" x2="1189.5" y1="1702.125" y2="1702.125"/><text fill="#000000" font-family="sans-serif" font-size="13" font-weight="bold" lengthAdjust="spacing" textLength="78" x="627" y="1697.0591">Saved RTP</text><line style="stroke:#000000;stroke-width:1.0;stroke-dasharray:2.0,2.0;" x1="536" x2="1382" y1="1711.125" y2="1711.125"/><text fill="#000000" font-family="sans-serif" font-size="11" font-weight="bold" lengthAdjust="spacing" textLength="5" x="541" y="1721.3354">[</text><text fill="#000000" font-family="sans-serif" font-size="11" font-weight="bold" lengthAdjust="spacing" textLength="95" x="546" y="1721.3354">Debitor rejects</text><text fill="#000000" font-family="sans-serif" font-size="11" font-weight="bold" lengthAdjust="spacing" textLength="5" x="641" y="1721.3354">]</text><polygon fill="#A80036" points="621,1747.0625,611,1751.0625,621,1755.0625,617,1751.0625" style="stroke:#A80036;stroke-width:1.0;"/><line style="stroke:#A80036;stroke-width:1.0;stroke-dasharray:2.0,2.0;" x1="615" x2="1101" y1="1751.0625" y2="1751.0625"/><text fill="#000000" font-family="sans-serif" font-size="13" font-weight="bold" lengthAdjust="spacing" textLength="109" x="627" y="1745.9966">Error response</text><path d="M1107,1729.9297 L1107,1754.9297 L1363,1754.9297 L1363,1739.9297 L1353,1729.9297 L1107,1729.9297 " fill="#FBFB77" filter="url(#f1avlhtosmlpys)" style="stroke:#A80036;stroke-width:1.0;"/><path d="M1353,1729.9297 L1353,1739.9297 L1363,1739.9297 L1353,1729.9297 " fill="#FBFB77" style="stroke:#A80036;stroke-width:1.0;"/><text fill="#000000" font-family="sans-serif" font-size="13" font-weight="bold" lengthAdjust="spacing" textLength="235" x="1113" y="1746.9966">Based on SP Debitore response</text><line style="stroke:#A80036;stroke-width:1.0;" x1="610" x2="652" y1="1785.1953" y2="1785.1953"/><line style="stroke:#A80036;stroke-width:1.0;" x1="652" x2="652" y1="1785.1953" y2="1798.1953"/><line style="stroke:#A80036;stroke-width:1.0;" x1="611" x2="652" y1="1798.1953" y2="1798.1953"/><polygon fill="#A80036" points="621,1794.1953,611,1798.1953,621,1802.1953,617,1798.1953" style="stroke:#A80036;stroke-width:1.0;"/><text fill="#000000" font-family="sans-serif" font-size="13" font-weight="bold" lengthAdjust="spacing" textLength="203" x="617" y="1780.1294">Set RTP status to REJECTED</text><polygon fill="#A80036" points="1173.5,1823.3281,1183.5,1827.3281,1173.5,1831.3281,1177.5,1827.3281" style="stroke:#A80036;stroke-width:1.0;"/><line style="stroke:#A80036;stroke-width:1.0;" x1="610" x2="1179.5" y1="1827.3281" y2="1827.3281"/><text fill="#000000" font-family="sans-serif" font-size="13" font-weight="bold" lengthAdjust="spacing" textLength="230" x="617" y="1822.2622">Save RTP with REJECTED status</text><polygon fill="#A80036" points="621,1852.4609,611,1856.4609,621,1860.4609,617,1856.4609" style="stroke:#A80036;stroke-width:1.0;"/><line style="stroke:#A80036;stroke-width:1.0;stroke-dasharray:2.0,2.0;" x1="615" x2="1189.5" y1="1856.4609" y2="1856.4609"/><text fill="#000000" font-family="sans-serif" font-size="13" font-weight="bold" lengthAdjust="spacing" textLength="78" x="627" y="1851.395">Saved RTP</text><line style="stroke:#000000;stroke-width:1.0;stroke-dasharray:2.0,2.0;" x1="195" x2="1462" y1="1879.4609" y2="1879.4609"/><text fill="#000000" font-family="sans-serif" font-size="11" font-weight="bold" lengthAdjust="spacing" textLength="5" x="200" y="1889.6714">[</text><text fill="#000000" font-family="sans-serif" font-size="11" font-weight="bold" lengthAdjust="spacing" textLength="115" x="205" y="1889.6714">RTP status invalid</text><text fill="#000000" font-family="sans-serif" font-size="11" font-weight="bold" lengthAdjust="spacing" textLength="5" x="320" y="1889.6714">]</text><polygon fill="#A80036" points="347,1910.3984,337,1914.3984,347,1918.3984,343,1914.3984" style="stroke:#A80036;stroke-width:1.0;"/><line style="stroke:#A80036;stroke-width:1.0;stroke-dasharray:2.0,2.0;" x1="341" x2="599" y1="1914.3984" y2="1914.3984"/><text fill="#000000" font-family="sans-serif" font-size="13" font-weight="bold" lengthAdjust="spacing" textLength="183" x="353" y="1909.3325">Error - Invalid RTP status</text><line style="stroke:#000000;stroke-width:1.0;stroke-dasharray:2.0,2.0;" x1="185" x2="1472" y1="1930.3984" y2="1930.3984"/><text fill="#000000" font-family="sans-serif" font-size="11" font-weight="bold" lengthAdjust="spacing" textLength="5" x="190" y="1940.6089">[</text><text fill="#000000" font-family="sans-serif" font-size="11" font-weight="bold" lengthAdjust="spacing" textLength="125" x="195" y="1940.6089">Different Operation</text><text fill="#000000" font-family="sans-serif" font-size="11" font-weight="bold" lengthAdjust="spacing" textLength="5" x="320" y="1940.6089">]</text><polygon fill="#A80036" points="593,1966.3359,603,1970.3359,593,1974.3359,597,1970.3359" style="stroke:#A80036;stroke-width:1.0;"/><line style="stroke:#A80036;stroke-width:1.0;" x1="336" x2="599" y1="1970.3359" y2="1970.3359"/><text fill="#000000" font-family="sans-serif" font-size="13" font-weight="bold" lengthAdjust="spacing" textLength="101" x="343" y="1965.27">Not triggered</text><path d="M610,1949.2031 L610,1974.2031 L861,1974.2031 L861,1959.2031 L851,1949.2031 L610,1949.2031 " fill="#FBFB77" filter="url(#f1avlhtosmlpys)" style="stroke:#A80036;stroke-width:1.0;"/><path d="M851,1949.2031 L851,1959.2031 L861,1959.2031 L851,1949.2031 " fill="#FBFB77" style="stroke:#A80036;stroke-width:1.0;"/><text fill="#000000" font-family="sans-serif" font-size="13" font-weight="bold" lengthAdjust="spacing" textLength="230" x="616" y="1966.27">Operation is not UPDATE VALID</text><!--SRC=[lLVDKjim4BxxANOuPYR3dHaw4spJKYX9RUYL4VO6L8pjIWgGwVJOj-ZJzKcwaYrRDZO9cKbFYQpz_NRtaoGVU0wYaEWfhZA4oUHZi80lA2MxGvZ2zIAONONmRNPn5i1fLZnF9fxtOuKhX8DADdp2NC6drUraSW1CmbUzwPLCA9xmaj7UGTUeN-HozOYYbhVBlagy05zWobKXi1QD5_w0L82tNQ70IvbYjqoQ6EFeQc6twA_dcG1X-g7nVDJDcZBC2uMGuLBfhLWnjP9mN86WysU9uazCjQbuza_Vh7-FoGCyrfaN9GgcU94R8vaYWRdz1CV75coMfs2Tjbu1N2S4XRQ_44L2nhjbSjq0DC5gz6XDFuw1Aa321MJbaKjuOXbFZQx1GV2xUqKB8F6_Vtx3DxtjgA0yCi90xK86ev0Y2PmlSNXvvIndlXykkXBNSHZTTBuZGQ2Twu0heCP2R1CY2PtHakTffCgJTGDjm6N9L7AFuXpNjLABYka9ywdnWozSAbbBWX61QOkPQQXwByMU9QjZKGvCcURn5HnABDbK84sFL5DLJ4ksjajv-9EdlmuJbYUOPIRgPglnrLR3jAN6o5M0MW5K0PsngDMTHWXic5NECxdE4rZIT4Euy1i5dKNW9Zu_1tmirHfEYdJT4NDRAaRbDXH54vtwDquN31GjPazeb9wvkc_aQnEEMXVinbYlGDgQwL17ir-ewYjcKdDUl7N-LBEiOEaxalTdbtvuST4q_CRi6uLzfj_DFnIY461GY52Mn3CuZa8bB8RataOYZA9vT5EbjoqOhiv_Q8SyzGO6kpylNIvgwqMmj0lRoKC0lKqAZiR0o6ld8nC-FECswbQ3n18ibOlagoeFzC4OADlKlXx_0Ot1iWzF_rZ1jolvw12qDD0Y9F0x9cyZD3e7ht1gDxhrFA4hIWh4t4unNOFlm3SAFuT-TNfkYx5LsJ_E3SpjUDM8- -xvHU10MKZ9R-aYghiq4yZIDT29pZ8JvG3RkBUj-86N6emSNrJl5jHpRvHxsjSbNHkRR3mdIfsq3cvPhF9q_EWVgXHTORM0ja0NxRfUxHt9s-OygAJxPHg2U7DvDWMz9JEzZvV6cNISa3RJqHWPlPUATY2YVPt3u-opBVUCCC-ElBCBw-p8EViuofsXToRPdjpvgqT4Zn0gaATmLaawkTitYjS3d1vOjf9ykKIXNyRp3WyDlE4kYLaKrUQEvFlFhgFE4v4k6vg6tCSUoPiCdJ2iYty0]--></g></svg>