<?xml version="1.0" encoding="us-ascii" standalone="no"?><svg xmlns="http://www.w3.org/2000/svg" xmlns:xlink="http://www.w3.org/1999/xlink" contentStyleType="text/css" height="3121.875px" preserveAspectRatio="none" style="width:1534px;height:3121px;" version="1.1" viewBox="0 0 1534 3121" width="1534.375px" zoomAndPan="magnify"><defs><linearGradient id="g11uhc4z4gzigk0" x1="50%" x2="50%" y1="0%" y2="100%"><stop offset="0%" stop-color="#FFFFFF"/><stop offset="100%" stop-color="#FFFFFF"/></linearGradient><filter height="300%" id="f11uhc4z4gzigk" width="300%" x="-1" y="-1"><feGaussianBlur result="blurOut" stdDeviation="2.0833333333333335"/><feColorMatrix in="blurOut" result="blurOut2" type="matrix" values="0 0 0 0 0 0 0 0 0 0 0 0 0 0 0 0 0 0 .4 0"/><feOffset dx="4.166666666666667" dy="4.166666666666667" in="blurOut2" result="blurOut3"/><feBlend in="SourceGraphic" in2="blurOut3" mode="normal"/></filter><linearGradient id="g11uhc4z4gzigk1" x1="50%" x2="50%" y1="0%" y2="100%"><stop offset="0%" stop-color="#4DABF5"/><stop offset="100%" stop-color="#2196F3"/></linearGradient><linearGradient id="g11uhc4z4gzigk2" x1="50%" x2="50%" y1="0%" y2="100%"><stop offset="0%" stop-color="#B052C0"/><stop offset="100%" stop-color="#9C27B0"/></linearGradient></defs><g><rect fill="url(#g11uhc4z4gzigk0)" height="57.5846" id="_title" rx="4.1667" ry="4.1667" style="stroke:#CCCCCC;stroke-width:1.0416666666666667;" width="316.6667" x="609.8958" y="20.8333"/><text fill="#2196F3" font-family="Verdana" font-size="20.8333" font-weight="bold" lengthAdjust="spacing" textLength="283.3333" x="626.5625" y="56.838">RTP Update Flow (PAID)</text><rect fill="#FFFFFF" filter="url(#f11uhc4z4gzigk)" height="2732.9102" style="stroke:#CCCCCC;stroke-width:1.0416666666666667;" width="10.4167" x="521.875" y="259.0169"/><rect fill="#FFFFFF" filter="url(#f11uhc4z4gzigk)" height="114.4857" style="stroke:#CCCCCC;stroke-width:1.0416666666666667;" width="10.4167" x="817.7083" y="313.6719"/><rect fill="#FFFFFF" filter="url(#f11uhc4z4gzigk)" height="114.4857" style="stroke:#CCCCCC;stroke-width:1.0416666666666667;" width="10.4167" x="951.0417" y="980.8919"/><rect fill="#FFFFFF" filter="url(#f11uhc4z4gzigk)" height="49.9674" style="stroke:#CCCCCC;stroke-width:1.0416666666666667;" width="10.4167" x="951.0417" y="1555.3711"/><rect fill="#FFFFFF" filter="url(#f11uhc4z4gzigk)" height="49.9674" style="stroke:#CCCCCC;stroke-width:1.0416666666666667;" width="10.4167" x="951.0417" y="2044.5964"/><rect fill="#FFFFFF" filter="url(#f11uhc4z4gzigk)" height="49.9674" style="stroke:#CCCCCC;stroke-width:1.0416666666666667;" width="10.4167" x="951.0417" y="2404.7852"/><rect fill="#FFFFFF" filter="url(#f11uhc4z4gzigk)" height="49.9674" style="stroke:#CCCCCC;stroke-width:1.0416666666666667;" width="10.4167" x="1056.25" y="1390.918"/><rect fill="#FFFFFF" filter="url(#f11uhc4z4gzigk)" height="777.6042" style="stroke:#CCCCCC;stroke-width:1.0416666666666667;" width="10.4167" x="1231.25" y="1742.7409"/><rect fill="url(#g11uhc4z4gzigk0)" filter="url(#f11uhc4z4gzigk)" height="2655.3385" rx="4.1667" ry="4.1667" style="stroke:#2196F3;stroke-width:1.0416666666666667;" width="1486.4583" x="30.2083" y="329.2969"/><path d="M30.2083,623.8607 L1516.6667,623.8607 L1516.6667,2980.4688 A4.1667,4.1667 0 0 1 1512.5,2984.6354 L34.375,2984.6354 A4.1667,4.1667 0 0 1 30.2083,2980.4688 L30.2083,623.8607 " fill="url(#g11uhc4z4gzigk0)" style="stroke:none;stroke-width:1.0416666666666667;"/><rect fill="url(#g11uhc4z4gzigk0)" filter="url(#f11uhc4z4gzigk)" height="2095.3125" rx="4.1667" ry="4.1667" style="stroke:#2196F3;stroke-width:1.0416666666666667;" width="1465.625" x="40.625" y="882.0313"/><rect fill="url(#g11uhc4z4gzigk0)" filter="url(#f11uhc4z4gzigk)" height="1763.2487" rx="4.1667" ry="4.1667" style="stroke:#2196F3;stroke-width:1.0416666666666667;" width="1444.7917" x="51.0417" y="996.5169"/><rect fill="url(#g11uhc4z4gzigk0)" filter="url(#f11uhc4z4gzigk)" height="1323.0143" rx="4.1667" ry="4.1667" style="stroke:#2196F3;stroke-width:1.0416666666666667;" width="1423.9583" x="61.4583" y="1292.0573"/><rect fill="url(#g11uhc4z4gzigk0)" filter="url(#f11uhc4z4gzigk)" height="1063.8346" rx="4.1667" ry="4.1667" style="stroke:#2196F3;stroke-width:1.0416666666666667;" width="1403.125" x="71.875" y="1456.5104"/><path d="M71.875,1663.6393 L1475,1663.6393 L1475,2516.1784 A4.1667,4.1667 0 0 1 1470.8333,2520.3451 L76.0417,2520.3451 A4.1667,4.1667 0 0 1 71.875,2516.1784 L71.875,1663.6393 " fill="url(#g11uhc4z4gzigk0)" style="stroke:none;stroke-width:1.0416666666666667;"/><rect fill="url(#g11uhc4z4gzigk0)" filter="url(#f11uhc4z4gzigk)" height="680.7943" rx="4.1667" ry="4.1667" style="stroke:#2196F3;stroke-width:1.0416666666666667;" width="1264.0625" x="82.2917" y="1832.2591"/><path d="M82.2917,2152.8646 L1346.3542,2152.8646 L1346.3542,2508.8867 A4.1667,4.1667 0 0 1 1342.1875,2513.0534 L86.4583,2513.0534 A4.1667,4.1667 0 0 1 82.2917,2508.8867 L82.2917,2152.8646 " fill="url(#g11uhc4z4gzigk0)" style="stroke:none;stroke-width:1.0416666666666667;"/><path d="M61.4583,2527.6367 L1485.4167,2527.6367 L1485.4167,2610.9049 A4.1667,4.1667 0 0 1 1481.25,2615.0716 L65.625,2615.0716 A4.1667,4.1667 0 0 1 61.4583,2610.9049 L61.4583,2527.6367 " fill="url(#g11uhc4z4gzigk0)" style="stroke:none;stroke-width:1.0416666666666667;"/><path d="M51.0417,2622.3633 L1495.8333,2622.3633 L1495.8333,2755.599 A4.1667,4.1667 0 0 1 1491.6667,2759.7656 L55.2083,2759.7656 A4.1667,4.1667 0 0 1 51.0417,2755.599 L51.0417,2622.3633 " fill="url(#g11uhc4z4gzigk0)" style="stroke:none;stroke-width:1.0416666666666667;"/><path d="M40.625,2767.0573 L1506.25,2767.0573 L1506.25,2973.1771 A4.1667,4.1667 0 0 1 1502.0833,2977.3438 L44.7917,2977.3438 A4.1667,4.1667 0 0 1 40.625,2973.1771 L40.625,2767.0573 " fill="url(#g11uhc4z4gzigk0)" style="stroke:none;stroke-width:1.0416666666666667;"/><line style="stroke:#CCCCCC;stroke-width:1.0416666666666667;stroke-dasharray:5.0,5.0;" x1="201.0417" x2="201.0417" y1="187.7279" y2="3002.3438"/><line style="stroke:#CCCCCC;stroke-width:1.0416666666666667;stroke-dasharray:5.0,5.0;" x1="526.5625" x2="526.5625" y1="187.7279" y2="3002.3438"/><line style="stroke:#CCCCCC;stroke-width:1.0416666666666667;stroke-dasharray:5.0,5.0;" x1="822.3958" x2="822.3958" y1="187.7279" y2="3002.3438"/><line style="stroke:#CCCCCC;stroke-width:1.0416666666666667;stroke-dasharray:5.0,5.0;" x1="955.7292" x2="955.7292" y1="187.7279" y2="3002.3438"/><line style="stroke:#CCCCCC;stroke-width:1.0416666666666667;stroke-dasharray:5.0,5.0;" x1="1060.9375" x2="1060.9375" y1="187.7279" y2="3002.3438"/><line style="stroke:#CCCCCC;stroke-width:1.0416666666666667;stroke-dasharray:5.0,5.0;" x1="1235.9375" x2="1235.9375" y1="187.7279" y2="3002.3438"/><rect fill="url(#g11uhc4z4gzigk1)" filter="url(#f11uhc4z4gzigk)" height="49.9674" rx="4.1667" ry="4.1667" style="stroke:#2196F3;stroke-width:1.0416666666666667;" width="130.2083" x="134.375" y="133.5938"/><text fill="#FFFFFF" font-family="Verdana" font-size="12.5" lengthAdjust="spacing" textLength="94.7917" x="152.0833" y="162.9049">MS-CONSUMER</text><rect fill="url(#g11uhc4z4gzigk1)" filter="url(#f11uhc4z4gzigk)" height="49.9674" rx="4.1667" ry="4.1667" style="stroke:#2196F3;stroke-width:1.0416666666666667;" width="130.2083" x="134.375" y="3001.3021"/><text fill="#FFFFFF" font-family="Verdana" font-size="12.5" lengthAdjust="spacing" textLength="94.7917" x="152.0833" y="3030.6132">MS-CONSUMER</text><rect fill="url(#g11uhc4z4gzigk1)" filter="url(#f11uhc4z4gzigk)" height="49.9674" rx="4.1667" ry="4.1667" style="stroke:#2196F3;stroke-width:1.0416666666666667;" width="110.4167" x="470.3125" y="133.5938"/><text fill="#FFFFFF" font-family="Verdana" font-size="12.5" lengthAdjust="spacing" textLength="75" x="488.0208" y="162.9049">MS-SENDER</text><rect fill="url(#g11uhc4z4gzigk1)" filter="url(#f11uhc4z4gzigk)" height="49.9674" rx="4.1667" ry="4.1667" style="stroke:#2196F3;stroke-width:1.0416666666666667;" width="110.4167" x="470.3125" y="3001.3021"/><text fill="#FFFFFF" font-family="Verdana" font-size="12.5" lengthAdjust="spacing" textLength="75" x="488.0208" y="3030.6132">MS-SENDER</text><text fill="#222222" font-family="Verdana" font-size="12.5" lengthAdjust="spacing" textLength="35.4167" x="802.0833" y="159.8124">Redis</text><text fill="#222222" font-family="Verdana" font-size="12.5" lengthAdjust="spacing" textLength="159.375" x="740.1042" y="174.3632">(Idempotency Key Store)</text><path d="M804.1667,100.293 C804.1667,89.8763 822.9167,89.8763 822.9167,89.8763 C822.9167,89.8763 841.6667,89.8763 841.6667,100.293 L841.6667,127.3763 C841.6667,137.793 822.9167,137.793 822.9167,137.793 C822.9167,137.793 804.1667,137.793 804.1667,127.3763 L804.1667,100.293 " fill="url(#g11uhc4z4gzigk1)" filter="url(#f11uhc4z4gzigk)" style="stroke:#2196F3;stroke-width:1.5625;"/><path d="M804.1667,100.293 C804.1667,110.7096 822.9167,110.7096 822.9167,110.7096 C822.9167,110.7096 841.6667,110.7096 841.6667,100.293 " fill="none" style="stroke:#2196F3;stroke-width:1.5625;"/><text fill="#222222" font-family="Verdana" font-size="12.5" lengthAdjust="spacing" textLength="35.4167" x="802.0833" y="3023.3215">Redis</text><text fill="#222222" font-family="Verdana" font-size="12.5" lengthAdjust="spacing" textLength="159.375" x="740.1042" y="3037.8723">(Idempotency Key Store)</text><path d="M804.1667,3061.6536 C804.1667,3051.237 822.9167,3051.237 822.9167,3051.237 C822.9167,3051.237 841.6667,3051.237 841.6667,3061.6536 L841.6667,3088.737 C841.6667,3099.1536 822.9167,3099.1536 822.9167,3099.1536 C822.9167,3099.1536 804.1667,3099.1536 804.1667,3088.737 L804.1667,3061.6536 " fill="url(#g11uhc4z4gzigk1)" filter="url(#f11uhc4z4gzigk)" style="stroke:#2196F3;stroke-width:1.5625;"/><path d="M804.1667,3061.6536 C804.1667,3072.0703 822.9167,3072.0703 822.9167,3072.0703 C822.9167,3072.0703 841.6667,3072.0703 841.6667,3061.6536 " fill="none" style="stroke:#2196F3;stroke-width:1.5625;"/><text fill="#222222" font-family="Verdana" font-size="12.5" lengthAdjust="spacing" textLength="32.2917" x="936.9792" y="174.3632">SRTP</text><path d="M937.5,114.8438 C937.5,104.4271 956.25,104.4271 956.25,104.4271 C956.25,104.4271 975,104.4271 975,114.8438 L975,141.9271 C975,152.3438 956.25,152.3438 956.25,152.3438 C956.25,152.3438 937.5,152.3438 937.5,141.9271 L937.5,114.8438 " fill="url(#g11uhc4z4gzigk1)" filter="url(#f11uhc4z4gzigk)" style="stroke:#2196F3;stroke-width:1.5625;"/><path d="M937.5,114.8438 C937.5,125.2604 956.25,125.2604 956.25,125.2604 C956.25,125.2604 975,125.2604 975,114.8438 " fill="none" style="stroke:#2196F3;stroke-width:1.5625;"/><text fill="#222222" font-family="Verdana" font-size="12.5" lengthAdjust="spacing" textLength="32.2917" x="936.9792" y="3023.3215">SRTP</text><path d="M937.5,3047.1029 C937.5,3036.6862 956.25,3036.6862 956.25,3036.6862 C956.25,3036.6862 975,3036.6862 975,3047.1029 L975,3074.1862 C975,3084.6029 956.25,3084.6029 956.25,3084.6029 C956.25,3084.6029 937.5,3084.6029 937.5,3074.1862 L937.5,3047.1029 " fill="url(#g11uhc4z4gzigk1)" filter="url(#f11uhc4z4gzigk)" style="stroke:#2196F3;stroke-width:1.5625;"/><path d="M937.5,3047.1029 C937.5,3057.5195 956.25,3057.5195 956.25,3057.5195 C956.25,3057.5195 975,3057.5195 975,3047.1029 " fill="none" style="stroke:#2196F3;stroke-width:1.5625;"/><text fill="#222222" font-family="Verdana" font-size="12.5" lengthAdjust="spacing" textLength="103.125" x="1006.7708" y="174.3632">Service Registry</text><path d="M1042.7083,114.8438 C1042.7083,104.4271 1061.4583,104.4271 1061.4583,104.4271 C1061.4583,104.4271 1080.2083,104.4271 1080.2083,114.8438 L1080.2083,141.9271 C1080.2083,152.3438 1061.4583,152.3438 1061.4583,152.3438 C1061.4583,152.3438 1042.7083,152.3438 1042.7083,141.9271 L1042.7083,114.8438 " fill="url(#g11uhc4z4gzigk1)" filter="url(#f11uhc4z4gzigk)" style="stroke:#2196F3;stroke-width:1.5625;"/><path d="M1042.7083,114.8438 C1042.7083,125.2604 1061.4583,125.2604 1061.4583,125.2604 C1061.4583,125.2604 1080.2083,125.2604 1080.2083,114.8438 " fill="none" style="stroke:#2196F3;stroke-width:1.5625;"/><text fill="#222222" font-family="Verdana" font-size="12.5" lengthAdjust="spacing" textLength="103.125" x="1006.7708" y="3023.3215">Service Registry</text><path d="M1042.7083,3047.1029 C1042.7083,3036.6862 1061.4583,3036.6862 1061.4583,3036.6862 C1061.4583,3036.6862 1080.2083,3036.6862 1080.2083,3047.1029 L1080.2083,3074.1862 C1080.2083,3084.6029 1061.4583,3084.6029 1061.4583,3084.6029 C1061.4583,3084.6029 1042.7083,3084.6029 1042.7083,3074.1862 L1042.7083,3047.1029 " fill="url(#g11uhc4z4gzigk1)" filter="url(#f11uhc4z4gzigk)" style="stroke:#2196F3;stroke-width:1.5625;"/><path d="M1042.7083,3047.1029 C1042.7083,3057.5195 1061.4583,3057.5195 1061.4583,3057.5195 C1061.4583,3057.5195 1080.2083,3057.5195 1080.2083,3047.1029 " fill="none" style="stroke:#2196F3;stroke-width:1.5625;"/><rect fill="url(#g11uhc4z4gzigk1)" filter="url(#f11uhc4z4gzigk)" height="49.9674" rx="4.1667" ry="4.1667" style="stroke:#2196F3;stroke-width:1.0416666666666667;" width="112.5" x="1178.6458" y="133.5938"/><text fill="#FFFFFF" font-family="Verdana" font-size="12.5" lengthAdjust="spacing" textLength="77.0833" x="1196.3542" y="162.9049">SP Debitore</text><rect fill="url(#g11uhc4z4gzigk1)" filter="url(#f11uhc4z4gzigk)" height="49.9674" rx="4.1667" ry="4.1667" style="stroke:#2196F3;stroke-width:1.0416666666666667;" width="112.5" x="1178.6458" y="3001.3021"/><text fill="#FFFFFF" font-family="Verdana" font-size="12.5" lengthAdjust="spacing" textLength="77.0833" x="1196.3542" y="3030.6132">SP Debitore</text><rect fill="#FFFFFF" filter="url(#f11uhc4z4gzigk)" height="2732.9102" style="stroke:#CCCCCC;stroke-width:1.0416666666666667;" width="10.4167" x="521.875" y="259.0169"/><rect fill="#FFFFFF" filter="url(#f11uhc4z4gzigk)" height="114.4857" style="stroke:#CCCCCC;stroke-width:1.0416666666666667;" width="10.4167" x="817.7083" y="313.6719"/><rect fill="#FFFFFF" filter="url(#f11uhc4z4gzigk)" height="114.4857" style="stroke:#CCCCCC;stroke-width:1.0416666666666667;" width="10.4167" x="951.0417" y="980.8919"/><rect fill="#FFFFFF" filter="url(#f11uhc4z4gzigk)" height="49.9674" style="stroke:#CCCCCC;stroke-width:1.0416666666666667;" width="10.4167" x="951.0417" y="1555.3711"/><rect fill="#FFFFFF" filter="url(#f11uhc4z4gzigk)" height="49.9674" style="stroke:#CCCCCC;stroke-width:1.0416666666666667;" width="10.4167" x="951.0417" y="2044.5964"/><rect fill="#FFFFFF" filter="url(#f11uhc4z4gzigk)" height="49.9674" style="stroke:#CCCCCC;stroke-width:1.0416666666666667;" width="10.4167" x="951.0417" y="2404.7852"/><rect fill="#FFFFFF" filter="url(#f11uhc4z4gzigk)" height="49.9674" style="stroke:#CCCCCC;stroke-width:1.0416666666666667;" width="10.4167" x="1056.25" y="1390.918"/><rect fill="#FFFFFF" filter="url(#f11uhc4z4gzigk)" height="777.6042" style="stroke:#CCCCCC;stroke-width:1.0416666666666667;" width="10.4167" x="1231.25" y="1742.7409"/><polygon fill="#2196F3" points="509.375,254.8503,519.7917,259.0169,509.375,263.1836,513.5417,259.0169" style="stroke:#2196F3;stroke-width:1.0416666666666667;"/><line style="stroke:#2196F3;stroke-width:3.125;" x1="201.0417" x2="515.625" y1="259.0169" y2="259.0169"/><text fill="#222222" font-family="Verdana" font-size="12.5" font-weight="bold" lengthAdjust="spacing" textLength="8.3333" x="218.75" y="236.2935">1</text><text fill="#222222" font-family="Verdana" font-size="12.5" lengthAdjust="spacing" textLength="179.1667" x="252.0833" y="229.0181">Forward GDP UPDATE event</text><text fill="#222222" font-family="Verdana" font-size="12.5" lengthAdjust="spacing" textLength="246.875" x="252.0833" y="243.5689">Headers: Idempotency-Key, RequestId</text><path d="M15.625,207.5195 L15.625,258.5612 A4.1667,4.1667 0 0 0 19.7917,262.7279 L188.5417,262.7279 A4.1667,4.1667 0 0 0 192.7083,258.5612 L192.7083,213.7695 L182.2917,203.3529 L19.7917,203.3529 A4.1667,4.1667 0 0 0 15.625,207.5195 " fill="url(#g11uhc4z4gzigk2)" filter="url(#f11uhc4z4gzigk)" style="stroke:#9C27B0;stroke-width:1.0416666666666667;"/><path d="M182.2917,203.3529 L182.2917,211.6862 A2.0833,2.0833 0 0 0 184.375,213.7695 L192.7083,213.7695 L182.2917,203.3529 " fill="url(#g11uhc4z4gzigk2)" style="stroke:#9C27B0;stroke-width:1.0416666666666667;"/><text fill="#FFFFFF" font-family="Verdana" font-size="12.5" lengthAdjust="spacing" textLength="134.375" x="32.2917" y="230.5806">Operation = UPDATE</text><text fill="#FFFFFF" font-family="Verdana" font-size="12.5" lengthAdjust="spacing" textLength="90.625" x="32.2917" y="245.1314">Status = PAID</text><polygon fill="#2196F3" points="805.2083,309.5052,815.625,313.6719,805.2083,317.8385,809.375,313.6719" style="stroke:#2196F3;stroke-width:1.0416666666666667;"/><line style="stroke:#2196F3;stroke-width:3.125;" x1="532.2917" x2="811.4583" y1="313.6719" y2="313.6719"/><text fill="#222222" font-family="Verdana" font-size="12.5" font-weight="bold" lengthAdjust="spacing" textLength="8.3333" x="550" y="298.2239">2</text><text fill="#222222" font-family="Verdana" font-size="12.5" lengthAdjust="spacing" textLength="153.125" x="583.3333" y="298.2239">Check Idempotency-Key</text><path d="M34.375,329.2969 L117.7083,329.2969 L117.7083,356.3477 L107.2917,366.7643 L30.2083,366.7643 L30.2083,333.4635 A4.1667,4.1667 0 0 1 34.375,329.2969 " fill="#FFFFFF" style="stroke:#666666;stroke-width:1.0416666666666667;"/><rect fill="none" height="2655.3385" rx="4.1667" ry="4.1667" style="stroke:#2196F3;stroke-width:1.0416666666666667;" width="1486.4583" x="30.2083" y="329.2969"/><text fill="#9C27B0" font-family="Verdana" font-size="12.5" font-weight="bold" lengthAdjust="spacing" textLength="19.7917" x="56.25" y="352.358">alt</text><text fill="#222222" font-family="Verdana" font-size="12.5" font-weight="bold" lengthAdjust="spacing" textLength="260.4167" x="143.75" y="353.3997">[Idempotency-Key already present]</text><polygon fill="#2196F3" points="543.75,423.9909,533.3333,428.1576,543.75,432.3242,539.5833,428.1576" style="stroke:#2196F3;stroke-width:1.0416666666666667;"/><line style="stroke:#2196F3;stroke-width:3.125;stroke-dasharray:2.0,2.0;" x1="537.5" x2="821.875" y1="428.1576" y2="428.1576"/><text fill="#222222" font-family="Verdana" font-size="12.5" font-weight="bold" lengthAdjust="spacing" textLength="8.3333" x="560.4167" y="412.7096">3</text><text fill="#222222" font-family="Verdana" font-size="12.5" lengthAdjust="spacing" textLength="63.5417" x="593.75" y="412.7096">Key found</text><line style="stroke:#2196F3;stroke-width:3.125;" x1="532.2917" x2="576.0417" y1="478.125" y2="478.125"/><line style="stroke:#2196F3;stroke-width:3.125;" x1="576.0417" x2="576.0417" y1="478.125" y2="491.6667"/><line style="stroke:#2196F3;stroke-width:3.125;" x1="533.3333" x2="576.0417" y1="491.6667" y2="491.6667"/><polygon fill="#2196F3" points="543.75,487.5,533.3333,491.6667,543.75,495.8333,539.5833,491.6667" style="stroke:#2196F3;stroke-width:1.0416666666666667;"/><text fill="#222222" font-family="Verdana" font-size="12.5" font-weight="bold" lengthAdjust="spacing" textLength="8.3333" x="550" y="462.677">4</text><text fill="#222222" font-family="Verdana" font-size="12.5" lengthAdjust="spacing" textLength="185.4167" x="583.3333" y="462.677">Discard duplicated message</text><path d="M537.5,509.375 L537.5,560.4167 A4.1667,4.1667 0 0 0 541.6667,564.5833 L759.375,564.5833 A4.1667,4.1667 0 0 0 763.5417,560.4167 L763.5417,515.625 L753.125,505.2083 L541.6667,505.2083 A4.1667,4.1667 0 0 0 537.5,509.375 " fill="url(#g11uhc4z4gzigk2)" filter="url(#f11uhc4z4gzigk)" style="stroke:#9C27B0;stroke-width:1.0416666666666667;"/><path d="M753.125,505.2083 L753.125,513.5417 A2.0833,2.0833 0 0 0 755.2083,515.625 L763.5417,515.625 L753.125,505.2083 " fill="url(#g11uhc4z4gzigk2)" style="stroke:#9C27B0;stroke-width:1.0416666666666667;"/><text fill="#FFFFFF" font-family="Verdana" font-size="12.5" lengthAdjust="spacing" textLength="183.3333" x="554.1667" y="532.4361">Message already processed</text><text fill="#FFFFFF" font-family="Verdana" font-size="12.5" lengthAdjust="spacing" textLength="157.2917" x="554.1667" y="546.9869">or already in processing</text><polygon fill="#2196F3" points="212.5,611.3607,202.0833,615.5273,212.5,619.694,208.3333,615.5273" style="stroke:#2196F3;stroke-width:1.0416666666666667;"/><line style="stroke:#2196F3;stroke-width:3.125;stroke-dasharray:2.0,2.0;" x1="206.25" x2="520.8333" y1="615.5273" y2="615.5273"/><text fill="#222222" font-family="Verdana" font-size="12.5" font-weight="bold" lengthAdjust="spacing" textLength="8.3333" x="229.1667" y="600.0793">5</text><text fill="#222222" font-family="Verdana" font-size="12.5" lengthAdjust="spacing" textLength="77.0833" x="262.5" y="600.0793">409 Conflict</text><line style="stroke:#2196F3;stroke-width:1.0416666666666667;stroke-dasharray:2.0,2.0;" x1="30.2083" x2="1516.6667" y1="624.9023" y2="624.9023"/><text fill="#222222" font-family="Verdana" font-size="12.5" font-weight="bold" lengthAdjust="spacing" textLength="229.1667" x="45.8333" y="646.9218">[Idempotency-Key not present]</text><polygon fill="#2196F3" points="543.75,698.7956,533.3333,702.9622,543.75,707.1289,539.5833,702.9622" style="stroke:#2196F3;stroke-width:1.0416666666666667;"/><line style="stroke:#2196F3;stroke-width:3.125;stroke-dasharray:2.0,2.0;" x1="537.5" x2="821.875" y1="702.9622" y2="702.9622"/><text fill="#222222" font-family="Verdana" font-size="12.5" font-weight="bold" lengthAdjust="spacing" textLength="8.3333" x="560.4167" y="687.5142">6</text><text fill="#222222" font-family="Verdana" font-size="12.5" lengthAdjust="spacing" textLength="89.5833" x="593.75" y="687.5142">Key not found</text><polygon fill="#2196F3" points="810.4167,748.763,820.8333,752.9297,810.4167,757.0964,814.5833,752.9297" style="stroke:#2196F3;stroke-width:1.0416666666666667;"/><line style="stroke:#2196F3;stroke-width:3.125;" x1="532.2917" x2="816.6667" y1="752.9297" y2="752.9297"/><text fill="#222222" font-family="Verdana" font-size="12.5" font-weight="bold" lengthAdjust="spacing" textLength="8.3333" x="550" y="737.4817">7</text><text fill="#222222" font-family="Verdana" font-size="12.5" lengthAdjust="spacing" textLength="144.7917" x="583.3333" y="737.4817">Save Idempotency-Key</text><polygon fill="#2196F3" points="543.75,798.7305,533.3333,802.8971,543.75,807.0638,539.5833,802.8971" style="stroke:#2196F3;stroke-width:1.0416666666666667;"/><line style="stroke:#2196F3;stroke-width:3.125;stroke-dasharray:2.0,2.0;" x1="537.5" x2="821.875" y1="802.8971" y2="802.8971"/><text fill="#222222" font-family="Verdana" font-size="12.5" font-weight="bold" lengthAdjust="spacing" textLength="8.3333" x="560.4167" y="787.4491">8</text><text fill="#222222" font-family="Verdana" font-size="12.5" lengthAdjust="spacing" textLength="64.5833" x="593.75" y="787.4491">Key saved</text><line style="stroke:#2196F3;stroke-width:3.125;" x1="532.2917" x2="576.0417" y1="852.8646" y2="852.8646"/><line style="stroke:#2196F3;stroke-width:3.125;" x1="576.0417" x2="576.0417" y1="852.8646" y2="866.4063"/><line style="stroke:#2196F3;stroke-width:3.125;" x1="533.3333" x2="576.0417" y1="866.4063" y2="866.4063"/><polygon fill="#2196F3" points="543.75,862.2396,533.3333,866.4063,543.75,870.5729,539.5833,866.4063" style="stroke:#2196F3;stroke-width:1.0416666666666667;"/><text fill="#222222" font-family="Verdana" font-size="12.5" font-weight="bold" lengthAdjust="spacing" textLength="8.3333" x="550" y="837.4166">9</text><text fill="#222222" font-family="Verdana" font-size="12.5" lengthAdjust="spacing" textLength="170.8333" x="583.3333" y="837.4166">Check message operation</text><path d="M44.7917,882.0313 L128.125,882.0313 L128.125,909.082 L117.7083,919.4987 L40.625,919.4987 L40.625,886.1979 A4.1667,4.1667 0 0 1 44.7917,882.0313 " fill="#FFFFFF" style="stroke:#666666;stroke-width:1.0416666666666667;"/><rect fill="none" height="2095.3125" rx="4.1667" ry="4.1667" style="stroke:#2196F3;stroke-width:1.0416666666666667;" width="1465.625" x="40.625" y="882.0313"/><text fill="#9C27B0" font-family="Verdana" font-size="12.5" font-weight="bold" lengthAdjust="spacing" textLength="19.7917" x="66.6667" y="905.0924">alt</text><text fill="#222222" font-family="Verdana" font-size="12.5" font-weight="bold" lengthAdjust="spacing" textLength="318.75" x="154.1667" y="906.134">[Operation == UPDATE and Status == PAID]</text><polygon fill="#2196F3" points="938.5417,976.7253,948.9583,980.8919,938.5417,985.0586,942.7083,980.8919" style="stroke:#2196F3;stroke-width:1.0416666666666667;"/><line style="stroke:#2196F3;stroke-width:3.125;" x1="532.2917" x2="944.7917" y1="980.8919" y2="980.8919"/><text fill="#222222" font-family="Verdana" font-size="12.5" font-weight="bold" lengthAdjust="spacing" textLength="16.6667" x="550" y="965.4439">10</text><text fill="#222222" font-family="Verdana" font-size="12.5" lengthAdjust="spacing" textLength="151.0417" x="591.6667" y="965.4439">findRtpByCompositeKey</text><path d="M55.2083,996.5169 L138.5417,996.5169 L138.5417,1023.5677 L128.125,1033.9844 L51.0417,1033.9844 L51.0417,1000.6836 A4.1667,4.1667 0 0 1 55.2083,996.5169 " fill="#FFFFFF" style="stroke:#666666;stroke-width:1.0416666666666667;"/><rect fill="none" height="1763.2487" rx="4.1667" ry="4.1667" style="stroke:#2196F3;stroke-width:1.0416666666666667;" width="1444.7917" x="51.0417" y="996.5169"/><text fill="#9C27B0" font-family="Verdana" font-size="12.5" font-weight="bold" lengthAdjust="spacing" textLength="19.7917" x="77.0833" y="1019.578">alt</text><text fill="#222222" font-family="Verdana" font-size="12.5" font-weight="bold" lengthAdjust="spacing" textLength="85.4167" x="164.5833" y="1020.6197">[RTP exists]</text><polygon fill="#2196F3" points="543.75,1091.2109,533.3333,1095.3776,543.75,1099.5443,539.5833,1095.3776" style="stroke:#2196F3;stroke-width:1.0416666666666667;"/><line style="stroke:#2196F3;stroke-width:3.125;stroke-dasharray:2.0,2.0;" x1="537.5" x2="955.2083" y1="1095.3776" y2="1095.3776"/><text fill="#222222" font-family="Verdana" font-size="12.5" font-weight="bold" lengthAdjust="spacing" textLength="16.6667" x="560.4167" y="1079.9296">11</text><text fill="#222222" font-family="Verdana" font-size="12.5" lengthAdjust="spacing" textLength="23.9583" x="602.0833" y="1079.9296">RTP</text><line style="stroke:#2196F3;stroke-width:3.125;" x1="532.2917" x2="576.0417" y1="1145.3451" y2="1145.3451"/><line style="stroke:#2196F3;stroke-width:3.125;" x1="576.0417" x2="576.0417" y1="1145.3451" y2="1158.8867"/><line style="stroke:#2196F3;stroke-width:3.125;" x1="533.3333" x2="576.0417" y1="1158.8867" y2="1158.8867"/><polygon fill="#2196F3" points="543.75,1154.7201,533.3333,1158.8867,543.75,1163.0534,539.5833,1158.8867" style="stroke:#2196F3;stroke-width:1.0416666666666667;"/><text fill="#222222" font-family="Verdana" font-size="12.5" font-weight="bold" lengthAdjust="spacing" textLength="16.6667" x="550" y="1129.8971">12</text><text fill="#222222" font-family="Verdana" font-size="12.5" lengthAdjust="spacing" textLength="161.4583" x="591.6667" y="1129.8971">Check RTP status is valid</text><path d="M537.5,1176.5951 L537.5,1271.3867 A4.1667,4.1667 0 0 0 541.6667,1275.5534 L701.0417,1275.5534 A4.1667,4.1667 0 0 0 705.2083,1271.3867 L705.2083,1182.8451 L694.7917,1172.4284 L541.6667,1172.4284 A4.1667,4.1667 0 0 0 537.5,1176.5951 " fill="url(#g11uhc4z4gzigk2)" filter="url(#f11uhc4z4gzigk)" style="stroke:#9C27B0;stroke-width:1.0416666666666667;"/><path d="M694.7917,1172.4284 L694.7917,1180.7617 A2.0833,2.0833 0 0 0 696.875,1182.8451 L705.2083,1182.8451 L694.7917,1172.4284 " fill="url(#g11uhc4z4gzigk2)" style="stroke:#9C27B0;stroke-width:1.0416666666666667;"/><text fill="#FFFFFF" font-family="Verdana" font-size="12.5" lengthAdjust="spacing" textLength="125" x="554.1667" y="1199.6562">Valid RTP statuses:</text><text fill="#FFFFFF" font-family="Verdana" font-size="12.5" lengthAdjust="spacing" textLength="66.6667" x="554.1667" y="1214.2069">- CREATED</text><text fill="#FFFFFF" font-family="Verdana" font-size="12.5" lengthAdjust="spacing" textLength="41.6667" x="554.1667" y="1228.7577">- SENT</text><text fill="#FFFFFF" font-family="Verdana" font-size="12.5" lengthAdjust="spacing" textLength="75" x="554.1667" y="1243.3085">- ACCEPTED</text><text fill="#FFFFFF" font-family="Verdana" font-size="12.5" lengthAdjust="spacing" textLength="115.625" x="554.1667" y="1257.8593">- USER_ACCEPTED</text><path d="M65.625,1292.0573 L148.9583,1292.0573 L148.9583,1319.1081 L138.5417,1329.5247 L61.4583,1329.5247 L61.4583,1296.224 A4.1667,4.1667 0 0 1 65.625,1292.0573 " fill="#FFFFFF" style="stroke:#666666;stroke-width:1.0416666666666667;"/><rect fill="none" height="1323.0143" rx="4.1667" ry="4.1667" style="stroke:#2196F3;stroke-width:1.0416666666666667;" width="1423.9583" x="61.4583" y="1292.0573"/><text fill="#9C27B0" font-family="Verdana" font-size="12.5" font-weight="bold" lengthAdjust="spacing" textLength="19.7917" x="87.5" y="1315.1184">alt</text><text fill="#222222" font-family="Verdana" font-size="12.5" font-weight="bold" lengthAdjust="spacing" textLength="114.5833" x="175" y="1316.1601">[Status is valid]</text><polygon fill="#2196F3" points="1043.75,1386.7513,1054.1667,1390.918,1043.75,1395.0846,1047.9167,1390.918" style="stroke:#2196F3;stroke-width:1.0416666666666667;"/><line style="stroke:#2196F3;stroke-width:3.125;" x1="532.2917" x2="1050" y1="1390.918" y2="1390.918"/><text fill="#222222" font-family="Verdana" font-size="12.5" font-weight="bold" lengthAdjust="spacing" textLength="16.6667" x="550" y="1375.47">13</text><text fill="#222222" font-family="Verdana" font-size="12.5" lengthAdjust="spacing" textLength="250" x="591.6667" y="1375.47">Get Service Providers by PSP Tax Code</text><polygon fill="#2196F3" points="543.75,1436.7188,533.3333,1440.8854,543.75,1445.0521,539.5833,1440.8854" style="stroke:#2196F3;stroke-width:1.0416666666666667;"/><line style="stroke:#2196F3;stroke-width:3.125;stroke-dasharray:2.0,2.0;" x1="537.5" x2="1060.4167" y1="1440.8854" y2="1440.8854"/><text fill="#222222" font-family="Verdana" font-size="12.5" font-weight="bold" lengthAdjust="spacing" textLength="16.6667" x="560.4167" y="1425.4374">14</text><text fill="#222222" font-family="Verdana" font-size="12.5" lengthAdjust="spacing" textLength="104.1667" x="602.0833" y="1425.4374">Service Provider</text><path d="M76.0417,1456.5104 L159.375,1456.5104 L159.375,1483.5612 L148.9583,1493.9779 L71.875,1493.9779 L71.875,1460.6771 A4.1667,4.1667 0 0 1 76.0417,1456.5104 " fill="#FFFFFF" style="stroke:#666666;stroke-width:1.0416666666666667;"/><rect fill="none" height="1063.8346" rx="4.1667" ry="4.1667" style="stroke:#2196F3;stroke-width:1.0416666666666667;" width="1403.125" x="71.875" y="1456.5104"/><text fill="#9C27B0" font-family="Verdana" font-size="12.5" font-weight="bold" lengthAdjust="spacing" textLength="19.7917" x="97.9167" y="1479.5715">alt</text><text fill="#222222" font-family="Verdana" font-size="12.5" font-weight="bold" lengthAdjust="spacing" textLength="333.3333" x="185.4167" y="1480.6132">[PSP BIC matches RTP.serviceProviderDebtor]</text><polygon fill="#2196F3" points="938.5417,1551.2044,948.9583,1555.3711,938.5417,1559.5378,942.7083,1555.3711" style="stroke:#2196F3;stroke-width:1.0416666666666667;"/><line style="stroke:#2196F3;stroke-width:3.125;" x1="532.2917" x2="944.7917" y1="1555.3711" y2="1555.3711"/><text fill="#222222" font-family="Verdana" font-size="12.5" font-weight="bold" lengthAdjust="spacing" textLength="16.6667" x="550" y="1539.9231">15</text><text fill="#222222" font-family="Verdana" font-size="12.5" lengthAdjust="spacing" textLength="103.125" x="591.6667" y="1539.9231">Save RTP (PAID)</text><polygon fill="#2196F3" points="543.75,1601.1719,533.3333,1605.3385,543.75,1609.5052,539.5833,1605.3385" style="stroke:#2196F3;stroke-width:1.0416666666666667;"/><line style="stroke:#2196F3;stroke-width:3.125;stroke-dasharray:2.0,2.0;" x1="537.5" x2="955.2083" y1="1605.3385" y2="1605.3385"/><text fill="#222222" font-family="Verdana" font-size="12.5" font-weight="bold" lengthAdjust="spacing" textLength="16.6667" x="560.4167" y="1589.8905">16</text><text fill="#222222" font-family="Verdana" font-size="12.5" lengthAdjust="spacing" textLength="67.7083" x="602.0833" y="1589.8905">Saved RTP</text><polygon fill="#2196F3" points="212.5,1651.1393,202.0833,1655.306,212.5,1659.4727,208.3333,1655.306" style="stroke:#2196F3;stroke-width:1.0416666666666667;"/><line style="stroke:#2196F3;stroke-width:3.125;stroke-dasharray:2.0,2.0;" x1="206.25" x2="520.8333" y1="1655.306" y2="1655.306"/><text fill="#222222" font-family="Verdana" font-size="12.5" font-weight="bold" lengthAdjust="spacing" textLength="16.6667" x="229.1667" y="1639.858">17</text><text fill="#222222" font-family="Verdana" font-size="12.5" lengthAdjust="spacing" textLength="45.8333" x="270.8333" y="1639.858">200 OK</text><line style="stroke:#2196F3;stroke-width:1.0416666666666667;stroke-dasharray:2.0,2.0;" x1="71.875" x2="1475" y1="1664.681" y2="1664.681"/><text fill="#222222" font-family="Verdana" font-size="12.5" font-weight="bold" lengthAdjust="spacing" textLength="390.625" x="87.5" y="1686.7004">[PSP BIC does NOT match RTP.serviceProviderDebtor]</text><polygon fill="#2196F3" points="1218.75,1738.5742,1229.1667,1742.7409,1218.75,1746.9076,1222.9167,1742.7409" style="stroke:#2196F3;stroke-width:1.0416666666666667;"/><line style="stroke:#2196F3;stroke-width:3.125;" x1="532.2917" x2="1225" y1="1742.7409" y2="1742.7409"/><text fill="#222222" font-family="Verdana" font-size="12.5" font-weight="bold" lengthAdjust="spacing" textLength="16.6667" x="550" y="1727.2929">18</text><text fill="#222222" font-family="Verdana" font-size="12.5" lengthAdjust="spacing" textLength="414.5833" x="591.6667" y="1727.2929">POST /sepa-request-to-pay-requests/{id}/cancellation-requests</text><path d="M1246.875,1760.4492 L1246.875,1811.4909 A4.1667,4.1667 0 0 0 1251.0417,1815.6576 L1457.2917,1815.6576 A4.1667,4.1667 0 0 0 1461.4583,1811.4909 L1461.4583,1766.6992 L1451.0417,1756.2826 L1251.0417,1756.2826 A4.1667,4.1667 0 0 0 1246.875,1760.4492 " fill="url(#g11uhc4z4gzigk2)" filter="url(#f11uhc4z4gzigk)" style="stroke:#9C27B0;stroke-width:1.0416666666666667;"/><path d="M1451.0417,1756.2826 L1451.0417,1764.6159 A2.0833,2.0833 0 0 0 1453.125,1766.6992 L1461.4583,1766.6992 L1451.0417,1756.2826 " fill="url(#g11uhc4z4gzigk2)" style="stroke:#9C27B0;stroke-width:1.0416666666666667;"/><text fill="#FFFFFF" font-family="Verdana" font-size="12.5" lengthAdjust="spacing" textLength="171.875" x="1263.5417" y="1783.5103">Send cancellation request</text><text fill="#FFFFFF" font-family="Verdana" font-size="12.5" lengthAdjust="spacing" textLength="83.3333" x="1263.5417" y="1798.0611">to SP Debtor</text><path d="M86.4583,1832.2591 L169.7917,1832.2591 L169.7917,1859.3099 L159.375,1869.7266 L82.2917,1869.7266 L82.2917,1836.4258 A4.1667,4.1667 0 0 1 86.4583,1832.2591 " fill="#FFFFFF" style="stroke:#666666;stroke-width:1.0416666666666667;"/><rect fill="none" height="680.7943" rx="4.1667" ry="4.1667" style="stroke:#2196F3;stroke-width:1.0416666666666667;" width="1264.0625" x="82.2917" y="1832.2591"/><text fill="#9C27B0" font-family="Verdana" font-size="12.5" font-weight="bold" lengthAdjust="spacing" textLength="19.7917" x="108.3333" y="1855.3202">alt</text><text fill="#222222" font-family="Verdana" font-size="12.5" font-weight="bold" lengthAdjust="spacing" textLength="145.8333" x="195.8333" y="1856.3619">[SP Debtor accepts]</text><polygon fill="#2196F3" points="543.75,1926.9531,533.3333,1931.1198,543.75,1935.2865,539.5833,1931.1198" style="stroke:#2196F3;stroke-width:1.0416666666666667;"/><line style="stroke:#2196F3;stroke-width:3.125;stroke-dasharray:2.0,2.0;" x1="537.5" x2="1230.2083" y1="1931.1198" y2="1931.1198"/><text fill="#222222" font-family="Verdana" font-size="12.5" font-weight="bold" lengthAdjust="spacing" textLength="16.6667" x="560.4167" y="1915.6718">19</text><text fill="#222222" font-family="Verdana" font-size="12.5" lengthAdjust="spacing" textLength="81.25" x="602.0833" y="1915.6718">201 Created</text><line style="stroke:#2196F3;stroke-width:3.125;" x1="532.2917" x2="576.0417" y1="1981.0872" y2="1981.0872"/><line style="stroke:#2196F3;stroke-width:3.125;" x1="576.0417" x2="576.0417" y1="1981.0872" y2="1994.6289"/><line style="stroke:#2196F3;stroke-width:3.125;" x1="533.3333" x2="576.0417" y1="1994.6289" y2="1994.6289"/><polygon fill="#2196F3" points="543.75,1990.4622,533.3333,1994.6289,543.75,1998.7956,539.5833,1994.6289" style="stroke:#2196F3;stroke-width:1.0416666666666667;"/><text fill="#222222" font-family="Verdana" font-size="12.5" font-weight="bold" lengthAdjust="spacing" textLength="16.6667" x="550" y="1965.6392">20</text><text fill="#222222" font-family="Verdana" font-size="12.5" lengthAdjust="spacing" textLength="208.3333" x="591.6667" y="1965.6392">Set RTP status CANCELLED_PAID</text><polygon fill="#2196F3" points="938.5417,2040.4297,948.9583,2044.5964,938.5417,2048.763,942.7083,2044.5964" style="stroke:#2196F3;stroke-width:1.0416666666666667;"/><line style="stroke:#2196F3;stroke-width:3.125;" x1="532.2917" x2="944.7917" y1="2044.5964" y2="2044.5964"/><text fill="#222222" font-family="Verdana" font-size="12.5" font-weight="bold" lengthAdjust="spacing" textLength="16.6667" x="550" y="2029.1484">21</text><text fill="#222222" font-family="Verdana" font-size="12.5" lengthAdjust="spacing" textLength="182.2917" x="591.6667" y="2029.1484">Save RTP (CANCELLED_PAID)</text><polygon fill="#2196F3" points="543.75,2090.3971,533.3333,2094.5638,543.75,2098.7305,539.5833,2094.5638" style="stroke:#2196F3;stroke-width:1.0416666666666667;"/><line style="stroke:#2196F3;stroke-width:3.125;stroke-dasharray:2.0,2.0;" x1="537.5" x2="955.2083" y1="2094.5638" y2="2094.5638"/><text fill="#222222" font-family="Verdana" font-size="12.5" font-weight="bold" lengthAdjust="spacing" textLength="16.6667" x="560.4167" y="2079.1158">22</text><text fill="#222222" font-family="Verdana" font-size="12.5" lengthAdjust="spacing" textLength="67.7083" x="602.0833" y="2079.1158">Saved RTP</text><polygon fill="#2196F3" points="212.5,2140.3646,202.0833,2144.5313,212.5,2148.6979,208.3333,2144.5313" style="stroke:#2196F3;stroke-width:1.0416666666666667;"/><line style="stroke:#2196F3;stroke-width:3.125;stroke-dasharray:2.0,2.0;" x1="206.25" x2="520.8333" y1="2144.5313" y2="2144.5313"/><text fill="#222222" font-family="Verdana" font-size="12.5" font-weight="bold" lengthAdjust="spacing" textLength="16.6667" x="229.1667" y="2129.0833">23</text><text fill="#222222" font-family="Verdana" font-size="12.5" lengthAdjust="spacing" textLength="45.8333" x="270.8333" y="2129.0833">200 OK</text><line style="stroke:#2196F3;stroke-width:1.0416666666666667;stroke-dasharray:2.0,2.0;" x1="82.2917" x2="1346.3542" y1="2153.9063" y2="2153.9063"/><text fill="#222222" font-family="Verdana" font-size="12.5" font-weight="bold" lengthAdjust="spacing" textLength="139.5833" x="97.9167" y="2175.9257">[SP Debtor rejects]</text><polygon fill="#2196F3" points="543.75,2227.7995,533.3333,2231.9661,543.75,2236.1328,539.5833,2231.9661" style="stroke:#2196F3;stroke-width:1.0416666666666667;"/><line style="stroke:#2196F3;stroke-width:3.125;stroke-dasharray:2.0,2.0;" x1="537.5" x2="1230.2083" y1="2231.9661" y2="2231.9661"/><text fill="#222222" font-family="Verdana" font-size="12.5" font-weight="bold" lengthAdjust="spacing" textLength="16.6667" x="560.4167" y="2216.5181">24</text><text fill="#222222" font-family="Verdana" font-size="12.5" lengthAdjust="spacing" textLength="97.9167" x="602.0833" y="2216.5181">Error response</text><path d="M537.5,2249.6745 L537.5,2286.1328 A4.1667,4.1667 0 0 0 541.6667,2290.2995 L772.9167,2290.2995 A4.1667,4.1667 0 0 0 777.0833,2286.1328 L777.0833,2255.9245 L766.6667,2245.5078 L541.6667,2245.5078 A4.1667,4.1667 0 0 0 537.5,2249.6745 " fill="url(#g11uhc4z4gzigk2)" filter="url(#f11uhc4z4gzigk)" style="stroke:#9C27B0;stroke-width:1.0416666666666667;"/><path d="M766.6667,2245.5078 L766.6667,2253.8411 A2.0833,2.0833 0 0 0 768.75,2255.9245 L777.0833,2255.9245 L766.6667,2245.5078 " fill="url(#g11uhc4z4gzigk2)" style="stroke:#9C27B0;stroke-width:1.0416666666666667;"/><text fill="#FFFFFF" font-family="Verdana" font-size="12.5" lengthAdjust="spacing" textLength="196.875" x="554.1667" y="2272.7356">Based on SP Debtor response</text><line style="stroke:#2196F3;stroke-width:3.125;" x1="532.2917" x2="576.0417" y1="2341.276" y2="2341.276"/><line style="stroke:#2196F3;stroke-width:3.125;" x1="576.0417" x2="576.0417" y1="2341.276" y2="2354.8177"/><line style="stroke:#2196F3;stroke-width:3.125;" x1="533.3333" x2="576.0417" y1="2354.8177" y2="2354.8177"/><polygon fill="#2196F3" points="543.75,2350.651,533.3333,2354.8177,543.75,2358.9844,539.5833,2354.8177" style="stroke:#2196F3;stroke-width:1.0416666666666667;"/><text fill="#222222" font-family="Verdana" font-size="12.5" font-weight="bold" lengthAdjust="spacing" textLength="16.6667" x="550" y="2325.828">25</text><text fill="#222222" font-family="Verdana" font-size="12.5" lengthAdjust="spacing" textLength="197.9167" x="591.6667" y="2325.828">Set RTP status ERROR_CANCEL</text><polygon fill="#2196F3" points="938.5417,2400.6185,948.9583,2404.7852,938.5417,2408.9518,942.7083,2404.7852" style="stroke:#2196F3;stroke-width:1.0416666666666667;"/><line style="stroke:#2196F3;stroke-width:3.125;" x1="532.2917" x2="944.7917" y1="2404.7852" y2="2404.7852"/><text fill="#222222" font-family="Verdana" font-size="12.5" font-weight="bold" lengthAdjust="spacing" textLength="16.6667" x="550" y="2389.3372">26</text><text fill="#222222" font-family="Verdana" font-size="12.5" lengthAdjust="spacing" textLength="171.875" x="591.6667" y="2389.3372">Save RTP (ERROR_CANCEL)</text><polygon fill="#2196F3" points="543.75,2450.5859,533.3333,2454.7526,543.75,2458.9193,539.5833,2454.7526" style="stroke:#2196F3;stroke-width:1.0416666666666667;"/><line style="stroke:#2196F3;stroke-width:3.125;stroke-dasharray:2.0,2.0;" x1="537.5" x2="955.2083" y1="2454.7526" y2="2454.7526"/><text fill="#222222" font-family="Verdana" font-size="12.5" font-weight="bold" lengthAdjust="spacing" textLength="16.6667" x="560.4167" y="2439.3046">27</text><text fill="#222222" font-family="Verdana" font-size="12.5" lengthAdjust="spacing" textLength="67.7083" x="602.0833" y="2439.3046">Saved RTP</text><polygon fill="#2196F3" points="212.5,2500.5534,202.0833,2504.7201,212.5,2508.8867,208.3333,2504.7201" style="stroke:#2196F3;stroke-width:1.0416666666666667;"/><line style="stroke:#2196F3;stroke-width:3.125;stroke-dasharray:2.0,2.0;" x1="206.25" x2="520.8333" y1="2504.7201" y2="2504.7201"/><text fill="#222222" font-family="Verdana" font-size="12.5" font-weight="bold" lengthAdjust="spacing" textLength="16.6667" x="229.1667" y="2489.2721">28</text><text fill="#222222" font-family="Verdana" font-size="12.5" lengthAdjust="spacing" textLength="113.5417" x="270.8333" y="2489.2721">Error propagated</text><line style="stroke:#2196F3;stroke-width:1.0416666666666667;stroke-dasharray:2.0,2.0;" x1="61.4583" x2="1485.4167" y1="2528.6784" y2="2528.6784"/><text fill="#222222" font-family="Verdana" font-size="12.5" font-weight="bold" lengthAdjust="spacing" textLength="141.6667" x="77.0833" y="2550.6978">[Invalid RTP status]</text><polygon fill="#2196F3" points="212.5,2602.5716,202.0833,2606.7383,212.5,2610.9049,208.3333,2606.7383" style="stroke:#2196F3;stroke-width:1.0416666666666667;"/><line style="stroke:#2196F3;stroke-width:3.125;stroke-dasharray:2.0,2.0;" x1="206.25" x2="520.8333" y1="2606.7383" y2="2606.7383"/><text fill="#222222" font-family="Verdana" font-size="12.5" font-weight="bold" lengthAdjust="spacing" textLength="16.6667" x="229.1667" y="2591.2903">29</text><text fill="#222222" font-family="Verdana" font-size="12.5" lengthAdjust="spacing" textLength="159.375" x="270.8333" y="2591.2903">Error - Invalid RTP status</text><line style="stroke:#2196F3;stroke-width:1.0416666666666667;stroke-dasharray:2.0,2.0;" x1="51.0417" x2="1495.8333" y1="2623.4049" y2="2623.4049"/><text fill="#222222" font-family="Verdana" font-size="12.5" font-weight="bold" lengthAdjust="spacing" textLength="113.5417" x="66.6667" y="2645.4244">[RTP not found]</text><polygon fill="#2196F3" points="543.75,2697.2982,533.3333,2701.4648,543.75,2705.6315,539.5833,2701.4648" style="stroke:#2196F3;stroke-width:1.0416666666666667;"/><line style="stroke:#2196F3;stroke-width:3.125;stroke-dasharray:2.0,2.0;" x1="537.5" x2="955.2083" y1="2701.4648" y2="2701.4648"/><text fill="#222222" font-family="Verdana" font-size="12.5" font-weight="bold" lengthAdjust="spacing" textLength="16.6667" x="560.4167" y="2686.0168">30</text><text fill="#222222" font-family="Verdana" font-size="12.5" lengthAdjust="spacing" textLength="64.5833" x="602.0833" y="2686.0168">Not found</text><polygon fill="#2196F3" points="212.5,2747.2656,202.0833,2751.4323,212.5,2755.599,208.3333,2751.4323" style="stroke:#2196F3;stroke-width:1.0416666666666667;"/><line style="stroke:#2196F3;stroke-width:3.125;stroke-dasharray:2.0,2.0;" x1="206.25" x2="520.8333" y1="2751.4323" y2="2751.4323"/><text fill="#222222" font-family="Verdana" font-size="12.5" font-weight="bold" lengthAdjust="spacing" textLength="16.6667" x="229.1667" y="2735.9843">31</text><text fill="#222222" font-family="Verdana" font-size="12.5" lengthAdjust="spacing" textLength="96.875" x="270.8333" y="2735.9843">404 Not Found</text><line style="stroke:#2196F3;stroke-width:1.0416666666666667;stroke-dasharray:2.0,2.0;" x1="40.625" x2="1506.25" y1="2768.099" y2="2768.099"/><text fill="#222222" font-family="Verdana" font-size="12.5" font-weight="bold" lengthAdjust="spacing" textLength="153.125" x="56.25" y="2790.1184">[Different operation]</text><line style="stroke:#2196F3;stroke-width:3.125;" x1="532.2917" x2="576.0417" y1="2846.1589" y2="2846.1589"/><line style="stroke:#2196F3;stroke-width:3.125;" x1="576.0417" x2="576.0417" y1="2846.1589" y2="2859.7005"/><line style="stroke:#2196F3;stroke-width:3.125;" x1="533.3333" x2="576.0417" y1="2859.7005" y2="2859.7005"/><polygon fill="#2196F3" points="543.75,2855.5339,533.3333,2859.7005,543.75,2863.8672,539.5833,2859.7005" style="stroke:#2196F3;stroke-width:1.0416666666666667;"/><text fill="#222222" font-family="Verdana" font-size="12.5" font-weight="bold" lengthAdjust="spacing" textLength="16.6667" x="550" y="2830.7109">32</text><text fill="#222222" font-family="Verdana" font-size="12.5" lengthAdjust="spacing" textLength="90.625" x="591.6667" y="2830.7109">Skip message</text><path d="M537.5,2877.4089 L537.5,2913.8672 A4.1667,4.1667 0 0 0 541.6667,2918.0339 L769.7917,2918.0339 A4.1667,4.1667 0 0 0 773.9583,2913.8672 L773.9583,2883.6589 L763.5417,2873.2422 L541.6667,2873.2422 A4.1667,4.1667 0 0 0 537.5,2877.4089 " fill="url(#g11uhc4z4gzigk2)" filter="url(#f11uhc4z4gzigk)" style="stroke:#9C27B0;stroke-width:1.0416666666666667;"/><path d="M763.5417,2873.2422 L763.5417,2881.5755 A2.0833,2.0833 0 0 0 765.625,2883.6589 L773.9583,2883.6589 L763.5417,2873.2422 " fill="url(#g11uhc4z4gzigk2)" style="stroke:#9C27B0;stroke-width:1.0416666666666667;"/><text fill="#FFFFFF" font-family="Verdana" font-size="12.5" lengthAdjust="spacing" textLength="193.75" x="554.1667" y="2900.47">Operation is not UPDATE PAID</text><polygon fill="#2196F3" points="212.5,2964.8438,202.0833,2969.0104,212.5,2973.1771,208.3333,2969.0104" style="stroke:#2196F3;stroke-width:1.0416666666666667;"/><line style="stroke:#2196F3;stroke-width:3.125;stroke-dasharray:2.0,2.0;" x1="206.25" x2="520.8333" y1="2969.0104" y2="2969.0104"/><text fill="#222222" font-family="Verdana" font-size="12.5" font-weight="bold" lengthAdjust="spacing" textLength="16.6667" x="229.1667" y="2953.5624">33</text><text fill="#222222" font-family="Verdana" font-size="12.5" lengthAdjust="spacing" textLength="62.5" x="270.8333" y="2953.5624">No action</text><!--SRC=[nLR1Rjiu4BthAsPpQe3r9YrwgO5T896KrcXZ2vApfm818uuTRcL99MctncB_VOUYA56odNXFguijyitmpUFZYB_ePzmWR9X6ALWGQA4BX7IPm4FDQH3kYke7l4bkPj5b4DHCQf6BcfKQBkwpIRYOPm_tSNe1J85xEK1byJngCVPlG9dP4rC85oboeRwMRsOSDtMbiSpty1dtaEbAucKJayRHBFD2Cc9daz4VVnpbJkH47jT2QRctmUtBa5IMG8HFmgnXCoLH4B2jhihjvWbb4BXQOF97otaATvNymII7Zn69aqGtonXmXwN-Mdv2nb6gANXLJAYANsdvxrjKUiQ3aeQXm9KE01OrIgP5LSBlRIOQp3JJMqKZHki0ImucX6ZbMkpCJhJQ1VRNC6kKcKBuZFctyTfzdDKlO8KUOu0LagZlePQeg19YqO1XufLjSAjgMtAQvJZE2j3JSH6HKBaHYc_hGkG4vh11fTWQ2Txe8CNwMKErSZK1FVSMud6gSXf2tinMifiGfPiJvPecUwbwCiJ6RU4Ktbz_WB0gLqH61m4MP9Qn41J_gWW6uuGus8ECxGwodioa27o-d7PxMmMXSjunOBEddfcScu2H9CvFhQ6CY5vkEZfJM8cIfxg-tOSLyLP2esLDYJlJcJDcXsWjqnVm9nqerGn1Cpqepy3jb5TSd-HqVIQHifI5WXqh16yZJZh6F7yQe1UCQjhDJI1COv8ZyaOeVEczteHXd0mH3rcSFex6VOivBRAZP0VMQ7lF53uYuTlsbCXg9qoxWASz9DI9bkmdsPDZbw4tXMjURiOD32GV9-xGlhrSfduHAi6iVZiBJVVFdr4P6NzJDfjBHcsIkcGNTUYXnlX6__ORqIE7s-zb67l6fE0m18tTSqXWSCJVNL_3udDVNNF8NNcyejhcYwMjyxzMcKHJI1RP4guKrcmYRKUVw6fIixrxLLT_2_xFLSxA78kYEOxTb9TsPEKaykPeKMCpFmMqAGOeNO7zV0qPTnOzjW7cy-QD6_Uw58JAiHwm11CmsA5trsyXfEwhaGzn1uSvG-qVvV1c7iPVliJHOzU4NZVICEXo47NA5MVQwYLZdMcjrbozW1B_mlmL0MCf6wIggrBX0FfYUxFFBTrlE90V_4MFf3hYWJFsA4xJHVfeHJzpX_oG_tj_hBHq8wZPUcHGqYCuqLEye-UXxDsWt8q-Ai4P12Qduxe5clHcshzA7DLcFW8SL-N4RUTz4txNXRVhDwj7OhL2ITSSxo9nmYNVHEtTsruqQdy7eS-XAQwzXtI7Vk3CexJdLUETXeuXt93sosw2_WK0]--></g></svg>