<svg xmlns="http://www.w3.org/2000/svg" xmlns:xlink="http://www.w3.org/1999/xlink" contentStyleType="text/css" data-diagram-type="SEQUENCE" height="1571px" preserveAspectRatio="none" style="width:1498px;height:1571px;background:#FFFFFF;" version="1.1" viewBox="0 0 1498 1571" width="1498px" zoomAndPan="magnify"><title>GDP Message - **UPDATE PAID** Flow</title><defs><filter height="300%" id="f149lxdvencpby" width="300%" x="-1" y="-1"><feGaussianBlur result="blurOut" stdDeviation="2"/><feColorMatrix in="blurOut" result="blurOut2" type="matrix" values="0 0 0 0 0 0 0 0 0 0 0 0 0 0 0 0 0 0 .4 0"/><feOffset dx="4" dy="4" in="blurOut2" result="blurOut3"/><feBlend in="SourceGraphic" in2="blurOut3" mode="normal"/></filter></defs><g><text fill="#000000" font-family="sans-serif" font-size="14" font-weight="bold" lengthAdjust="spacing" textLength="110.708" x="621.3552" y="28.5352">GDP Message -</text><text fill="#000000" font-family="sans-serif" font-size="14" font-weight="bold" lengthAdjust="spacing" textLength="97.624" x="736.6775" y="28.5352">UPDATE PAID</text><text fill="#000000" font-family="sans-serif" font-size="14" font-weight="bold" lengthAdjust="spacing" textLength="33.6123" x="838.9158" y="28.5352">Flow</text><g><title>GDP Message Consumer</title><rect fill="#FFFFFF" filter="url(#f149lxdvencpby)" height="1309.1523" style="stroke:#A80036;stroke-width:1;" width="10" x="284.0439" y="157.7754"/></g><g><title>Redis</title><rect fill="#FFFFFF" filter="url(#f149lxdvencpby)" height="53.6211" style="stroke:#A80036;stroke-width:1;" width="10" x="506.6265" y="192.0859"/></g><g><title>SP Creditore</title><rect fill="#FFFFFF" filter="url(#f149lxdvencpby)" height="896.5156" style="stroke:#A80036;stroke-width:1;" width="10" x="652.4287" y="499.1465"/></g><g><title>SRTP</title><rect fill="#FFFFFF" filter="url(#f149lxdvencpby)" height="53.6211" style="stroke:#A80036;stroke-width:1;" width="10" x="943.3394" y="528.457"/></g><g><title>SRTP</title><rect fill="#FFFFFF" filter="url(#f149lxdvencpby)" height="29.3105" style="stroke:#A80036;stroke-width:1;" width="10" x="943.3394" y="819.1836"/></g><g><title>SRTP</title><rect fill="#FFFFFF" filter="url(#f149lxdvencpby)" height="29.3105" style="stroke:#A80036;stroke-width:1;" width="10" x="943.3394" y="1028.002"/></g><g><title>SRTP</title><rect fill="#FFFFFF" filter="url(#f149lxdvencpby)" height="29.3105" style="stroke:#A80036;stroke-width:1;" width="10" x="943.3394" y="1183.1992"/></g><g><title>Service Registry</title><rect fill="#FFFFFF" filter="url(#f149lxdvencpby)" height="29.3105" style="stroke:#A80036;stroke-width:1;" width="10" x="1029.1343" y="736.252"/></g><g><title>SP Debitore</title><rect fill="#FFFFFF" filter="url(#f149lxdvencpby)" height="329.75" style="stroke:#A80036;stroke-width:1;" width="10" x="1143.5459" y="897.7598"/></g><rect fill="none" filter="url(#f149lxdvencpby)" height="1252.8418" style="stroke:#000000;stroke-width:2;" width="1327.3354" x="157.5479" y="207.0859"/><rect fill="none" filter="url(#f149lxdvencpby)" height="992.4023" style="stroke:#000000;stroke-width:2;" width="1307.3354" x="167.5479" y="460.5254"/><rect fill="none" filter="url(#f149lxdvencpby)" height="845.2051" style="stroke:#000000;stroke-width:2;" width="1287.3354" x="177.5479" y="543.457"/><rect fill="none" filter="url(#f149lxdvencpby)" height="610.4551" style="stroke:#000000;stroke-width:2;" width="1267.3354" x="187.5479" y="697.6309"/><rect fill="none" filter="url(#f149lxdvencpby)" height="446.9473" style="stroke:#000000;stroke-width:2;" width="858.0273" x="586.856" y="780.5625"/><rect fill="none" filter="url(#f149lxdvencpby)" height="302.75" style="stroke:#000000;stroke-width:2;" width="784.4727" x="596.856" y="917.7598"/><g><title>GDP Event Hub</title><rect fill="#000000" fill-opacity="0.00000" height="1355.4629" width="8" x="122.7739" y="121.4648"/><line style="stroke:#A80036;stroke-width:1;stroke-dasharray:5,5;" x1="126" x2="126" y1="121.4648" y2="1476.9277"/></g><g><title>GDP Message Consumer</title><rect fill="#000000" fill-opacity="0.00000" height="1355.4629" width="8" x="285.0439" y="121.4648"/><line style="stroke:#A80036;stroke-width:1;stroke-dasharray:5,5;" x1="288.5479" x2="288.5479" y1="121.4648" y2="1476.9277"/></g><g><title>Redis</title><rect fill="#000000" fill-opacity="0.00000" height="1355.4629" width="8" x="507.6265" y="121.4648"/><line style="stroke:#A80036;stroke-width:1;stroke-dasharray:5,5;" x1="511.397" x2="511.397" y1="121.4648" y2="1476.9277"/></g><g><title>SP Creditore</title><rect fill="#000000" fill-opacity="0.00000" height="1355.4629" width="8" x="653.4287" y="121.4648"/><line style="stroke:#A80036;stroke-width:1;stroke-dasharray:5,5;" x1="656.856" x2="656.856" y1="121.4648" y2="1476.9277"/></g><g><title>SRTP</title><rect fill="#000000" fill-opacity="0.00000" height="1355.4629" width="8" x="944.3394" y="121.4648"/><line style="stroke:#A80036;stroke-width:1;stroke-dasharray:5,5;" x1="947.8477" x2="947.8477" y1="121.4648" y2="1476.9277"/></g><g><title>Service Registry</title><rect fill="#000000" fill-opacity="0.00000" height="1355.4629" width="8" x="1030.1343" y="121.4648"/><line style="stroke:#A80036;stroke-width:1;stroke-dasharray:5,5;" x1="1033.8311" x2="1033.8311" y1="121.4648" y2="1476.9277"/></g><g><title>SP Debitore</title><rect fill="#000000" fill-opacity="0.00000" height="1355.4629" width="8" x="1144.5459" y="121.4648"/><line style="stroke:#A80036;stroke-width:1;stroke-dasharray:5,5;" x1="1148.4375" x2="1148.4375" y1="121.4648" y2="1476.9277"/></g><g class="participant participant-head" data-participant="Queue"><path d="M71,94.9766 L182.5479,94.9766 C187.5479,94.9766 187.5479,108.2207 187.5479,108.2207 C187.5479,108.2207 187.5479,121.4648 182.5479,121.4648 L71,121.4648 C66,121.4648 66,108.2207 66,108.2207 C66,108.2207 66,94.9766 71,94.9766" fill="#FEFECE" filter="url(#f149lxdvencpby)" style="stroke:#A80036;stroke-width:2;"/><path d="M182.5479,94.9766 C177.5479,94.9766 177.5479,108.2207 177.5479,108.2207 C177.5479,121.4648 182.5479,121.4648 182.5479,121.4648" fill="none" style="stroke:#A80036;stroke-width:2;"/><text fill="#000000" font-family="sans-serif" font-size="14" lengthAdjust="spacing" textLength="101.5479" x="71" y="113.5117">GDP Event Hub</text></g><g class="participant participant-tail" data-participant="Queue"><path d="M71,1475.9277 L182.5479,1475.9277 C187.5479,1475.9277 187.5479,1489.1719 187.5479,1489.1719 C187.5479,1489.1719 187.5479,1502.416 182.5479,1502.416 L71,1502.416 C66,1502.416 66,1489.1719 66,1489.1719 C66,1489.1719 66,1475.9277 71,1475.9277" fill="#FEFECE" filter="url(#f149lxdvencpby)" style="stroke:#A80036;stroke-width:2;"/><path d="M182.5479,1475.9277 C177.5479,1475.9277 177.5479,1489.1719 177.5479,1489.1719 C177.5479,1502.416 182.5479,1502.416 182.5479,1502.416" fill="none" style="stroke:#A80036;stroke-width:2;"/><text fill="#000000" font-family="sans-serif" font-size="14" lengthAdjust="spacing" textLength="101.5479" x="71" y="1494.4629">GDP Event Hub</text></g><g class="participant participant-head" data-participant="Consumer"><rect fill="#FEFECE" filter="url(#f149lxdvencpby)" height="30.4883" style="stroke:#A80036;stroke-width:1.5;" width="178.9922" x="197.5479" y="85.9766"/><text fill="#000000" font-family="sans-serif" font-size="14" lengthAdjust="spacing" textLength="164.9922" x="204.5479" y="106.5117">GDP Message Consumer</text></g><g class="participant participant-tail" data-participant="Consumer"><rect fill="#FEFECE" filter="url(#f149lxdvencpby)" height="30.4883" style="stroke:#A80036;stroke-width:1.5;" width="178.9922" x="197.5479" y="1475.9277"/><text fill="#000000" font-family="sans-serif" font-size="14" lengthAdjust="spacing" textLength="164.9922" x="204.5479" y="1496.4629">GDP Message Consumer</text></g><g class="participant participant-head" data-participant="REDIS"><text fill="#000000" font-family="sans-serif" font-size="14" lengthAdjust="spacing" textLength="36.6475" x="490.3027" y="102.0234">Redis</text><text fill="#000000" font-family="sans-serif" font-size="14" lengthAdjust="spacing" textLength="164.459" x="426.397" y="118.5117">(Idempotency Key Store)</text><path d="M493.6265,52.4883 C493.6265,42.4883 511.6265,42.4883 511.6265,42.4883 C511.6265,42.4883 529.6265,42.4883 529.6265,52.4883 L529.6265,78.4883 C529.6265,88.4883 511.6265,88.4883 511.6265,88.4883 C511.6265,88.4883 493.6265,88.4883 493.6265,78.4883 L493.6265,52.4883" fill="#FEFECE" filter="url(#f149lxdvencpby)" style="stroke:#A80036;stroke-width:1;"/><path d="M493.6265,52.4883 C493.6265,62.4883 511.6265,62.4883 511.6265,62.4883 C511.6265,62.4883 529.6265,62.4883 529.6265,52.4883" fill="none" style="stroke:#A80036;stroke-width:1;"/></g><g class="participant participant-tail" data-participant="REDIS"><text fill="#000000" font-family="sans-serif" font-size="14" lengthAdjust="spacing" textLength="36.6475" x="490.3027" y="1489.4629">Redis</text><text fill="#000000" font-family="sans-serif" font-size="14" lengthAdjust="spacing" textLength="164.459" x="426.397" y="1505.9512">(Idempotency Key Store)</text><path d="M493.6265,1518.9043 C493.6265,1508.9043 511.6265,1508.9043 511.6265,1508.9043 C511.6265,1508.9043 529.6265,1508.9043 529.6265,1518.9043 L529.6265,1544.9043 C529.6265,1554.9043 511.6265,1554.9043 511.6265,1554.9043 C511.6265,1554.9043 493.6265,1554.9043 493.6265,1544.9043 L493.6265,1518.9043" fill="#FEFECE" filter="url(#f149lxdvencpby)" style="stroke:#A80036;stroke-width:1;"/><path d="M493.6265,1518.9043 C493.6265,1528.9043 511.6265,1528.9043 511.6265,1528.9043 C511.6265,1528.9043 529.6265,1528.9043 529.6265,1518.9043" fill="none" style="stroke:#A80036;stroke-width:1;"/></g><g class="participant participant-head" data-participant="SPC"><rect fill="#FEFECE" filter="url(#f149lxdvencpby)" height="30.4883" style="stroke:#A80036;stroke-width:1.5;" width="97.1455" x="606.856" y="85.9766"/><text fill="#000000" font-family="sans-serif" font-size="14" lengthAdjust="spacing" textLength="83.1455" x="613.856" y="106.5117">SP Creditore</text></g><g class="participant participant-tail" data-participant="SPC"><rect fill="#FEFECE" filter="url(#f149lxdvencpby)" height="30.4883" style="stroke:#A80036;stroke-width:1.5;" width="97.1455" x="606.856" y="1475.9277"/><text fill="#000000" font-family="sans-serif" font-size="14" lengthAdjust="spacing" textLength="83.1455" x="613.856" y="1496.4629">SP Creditore</text></g><g class="participant participant-head" data-participant="SRTP"><text fill="#000000" font-family="sans-serif" font-size="14" lengthAdjust="spacing" textLength="32.9834" x="928.8477" y="118.5117">SRTP</text><path d="M930.3394,68.9766 C930.3394,58.9766 948.3394,58.9766 948.3394,58.9766 C948.3394,58.9766 966.3394,58.9766 966.3394,68.9766 L966.3394,94.9766 C966.3394,104.9766 948.3394,104.9766 948.3394,104.9766 C948.3394,104.9766 930.3394,104.9766 930.3394,94.9766 L930.3394,68.9766" fill="#FEFECE" filter="url(#f149lxdvencpby)" style="stroke:#A80036;stroke-width:1;"/><path d="M930.3394,68.9766 C930.3394,78.9766 948.3394,78.9766 948.3394,78.9766 C948.3394,78.9766 966.3394,78.9766 966.3394,68.9766" fill="none" style="stroke:#A80036;stroke-width:1;"/></g><g class="participant participant-tail" data-participant="SRTP"><text fill="#000000" font-family="sans-serif" font-size="14" lengthAdjust="spacing" textLength="32.9834" x="928.8477" y="1489.4629">SRTP</text><path d="M930.3394,1502.416 C930.3394,1492.416 948.3394,1492.416 948.3394,1492.416 C948.3394,1492.416 966.3394,1492.416 966.3394,1502.416 L966.3394,1528.416 C966.3394,1538.416 948.3394,1538.416 948.3394,1538.416 C948.3394,1538.416 930.3394,1538.416 930.3394,1528.416 L930.3394,1502.416" fill="#FEFECE" filter="url(#f149lxdvencpby)" style="stroke:#A80036;stroke-width:1;"/><path d="M930.3394,1502.416 C930.3394,1512.416 948.3394,1512.416 948.3394,1512.416 C948.3394,1512.416 966.3394,1512.416 966.3394,1502.416" fill="none" style="stroke:#A80036;stroke-width:1;"/></g><g class="participant participant-head" data-participant="Registry"><text fill="#000000" font-family="sans-serif" font-size="14" lengthAdjust="spacing" textLength="106.6064" x="977.8311" y="118.5117">Service Registry</text><path d="M1016.1343,68.9766 C1016.1343,58.9766 1034.1343,58.9766 1034.1343,58.9766 C1034.1343,58.9766 1052.1343,58.9766 1052.1343,68.9766 L1052.1343,94.9766 C1052.1343,104.9766 1034.1343,104.9766 1034.1343,104.9766 C1034.1343,104.9766 1016.1343,104.9766 1016.1343,94.9766 L1016.1343,68.9766" fill="#FEFECE" filter="url(#f149lxdvencpby)" style="stroke:#A80036;stroke-width:1;"/><path d="M1016.1343,68.9766 C1016.1343,78.9766 1034.1343,78.9766 1034.1343,78.9766 C1034.1343,78.9766 1052.1343,78.9766 1052.1343,68.9766" fill="none" style="stroke:#A80036;stroke-width:1;"/></g><g class="participant participant-tail" data-participant="Registry"><text fill="#000000" font-family="sans-serif" font-size="14" lengthAdjust="spacing" textLength="106.6064" x="977.8311" y="1489.4629">Service Registry</text><path d="M1016.1343,1502.416 C1016.1343,1492.416 1034.1343,1492.416 1034.1343,1492.416 C1034.1343,1492.416 1052.1343,1492.416 1052.1343,1502.416 L1052.1343,1528.416 C1052.1343,1538.416 1034.1343,1538.416 1034.1343,1538.416 C1034.1343,1538.416 1016.1343,1538.416 1016.1343,1528.416 L1016.1343,1502.416" fill="#FEFECE" filter="url(#f149lxdvencpby)" style="stroke:#A80036;stroke-width:1;"/><path d="M1016.1343,1502.416 C1016.1343,1512.416 1034.1343,1512.416 1034.1343,1512.416 C1034.1343,1512.416 1052.1343,1512.416 1052.1343,1502.416" fill="none" style="stroke:#A80036;stroke-width:1;"/></g><g class="participant participant-head" data-participant="SPD"><rect fill="#FEFECE" filter="url(#f149lxdvencpby)" height="30.4883" style="stroke:#A80036;stroke-width:1.5;" width="92.2168" x="1100.4375" y="85.9766"/><text fill="#000000" font-family="sans-serif" font-size="14" lengthAdjust="spacing" textLength="78.2168" x="1107.4375" y="106.5117">SP Debitore</text></g><g class="participant participant-tail" data-participant="SPD"><rect fill="#FEFECE" filter="url(#f149lxdvencpby)" height="30.4883" style="stroke:#A80036;stroke-width:1.5;" width="92.2168" x="1100.4375" y="1475.9277"/><text fill="#000000" font-family="sans-serif" font-size="14" lengthAdjust="spacing" textLength="78.2168" x="1107.4375" y="1496.4629">SP Debitore</text></g><g><title>GDP Message Consumer</title><rect fill="#FFFFFF" filter="url(#f149lxdvencpby)" height="1309.1523" style="stroke:#A80036;stroke-width:1;" width="10" x="284.0439" y="157.7754"/></g><g><title>Redis</title><rect fill="#FFFFFF" filter="url(#f149lxdvencpby)" height="53.6211" style="stroke:#A80036;stroke-width:1;" width="10" x="506.6265" y="192.0859"/></g><g><title>SP Creditore</title><rect fill="#FFFFFF" filter="url(#f149lxdvencpby)" height="896.5156" style="stroke:#A80036;stroke-width:1;" width="10" x="652.4287" y="499.1465"/></g><g><title>SRTP</title><rect fill="#FFFFFF" filter="url(#f149lxdvencpby)" height="53.6211" style="stroke:#A80036;stroke-width:1;" width="10" x="943.3394" y="528.457"/></g><g><title>SRTP</title><rect fill="#FFFFFF" filter="url(#f149lxdvencpby)" height="29.3105" style="stroke:#A80036;stroke-width:1;" width="10" x="943.3394" y="819.1836"/></g><g><title>SRTP</title><rect fill="#FFFFFF" filter="url(#f149lxdvencpby)" height="29.3105" style="stroke:#A80036;stroke-width:1;" width="10" x="943.3394" y="1028.002"/></g><g><title>SRTP</title><rect fill="#FFFFFF" filter="url(#f149lxdvencpby)" height="29.3105" style="stroke:#A80036;stroke-width:1;" width="10" x="943.3394" y="1183.1992"/></g><g><title>Service Registry</title><rect fill="#FFFFFF" filter="url(#f149lxdvencpby)" height="29.3105" style="stroke:#A80036;stroke-width:1;" width="10" x="1029.1343" y="736.252"/></g><g><title>SP Debitore</title><rect fill="#FFFFFF" filter="url(#f149lxdvencpby)" height="329.75" style="stroke:#A80036;stroke-width:1;" width="10" x="1143.5459" y="897.7598"/></g><g class="message" data-participant-1="Queue" data-participant-2="Consumer"><polygon fill="#A80036" points="272.0439,153.7754,282.0439,157.7754,272.0439,161.7754,276.0439,157.7754" style="stroke:#A80036;stroke-width:1;"/><line style="stroke:#A80036;stroke-width:1;" x1="126.7739" x2="278.0439" y1="157.7754" y2="157.7754"/><text fill="#000000" font-family="sans-serif" font-size="13" font-weight="bold" lengthAdjust="spacing" textLength="90.2129" x="133.7739" y="153.0332">GDP Message</text></g><path d="M5,136.4648 L5,161.4648 L118,161.4648 L118,146.4648 L108,136.4648 L5,136.4648" fill="#FBFB77" filter="url(#f149lxdvencpby)" style="stroke:#A80036;stroke-width:1;"/><path d="M108,136.4648 L108,146.4648 L118,146.4648 L108,136.4648" fill="#FBFB77" style="stroke:#A80036;stroke-width:1;"/><text fill="#000000" font-family="sans-serif" font-size="13" font-weight="bold" lengthAdjust="spacing" textLength="92.5679" x="11" y="154.0332">Status = PAID</text><g class="message" data-participant-1="Consumer" data-participant-2="REDIS"><polygon fill="#A80036" points="494.6265,188.0859,504.6265,192.0859,494.6265,196.0859,498.6265,192.0859" style="stroke:#A80036;stroke-width:1;"/><line style="stroke:#A80036;stroke-width:1;" x1="294.0439" x2="500.6265" y1="192.0859" y2="192.0859"/><text fill="#000000" font-family="sans-serif" font-size="13" font-weight="bold" lengthAdjust="spacing" textLength="163.5601" x="301.0439" y="187.3438">Check Idempotency-Key</text></g><path d="M157.5479,207.0859 L219.6865,207.0859 L219.6865,214.3965 L209.6865,224.3965 L157.5479,224.3965 L157.5479,207.0859" fill="#EEEEEE" style="stroke:#000000;stroke-width:1;"/><rect fill="none" height="1252.8418" style="stroke:#000000;stroke-width:2;" width="1327.3354" x="157.5479" y="207.0859"/><text fill="#000000" font-family="sans-serif" font-size="13" font-weight="bold" lengthAdjust="spacing" textLength="17.1387" x="172.5479" y="220.6543">alt</text><text fill="#000000" font-family="sans-serif" font-size="11" font-weight="bold" lengthAdjust="spacing" textLength="4.0767" x="234.6865" y="219.7207">[</text><text fill="#000000" font-family="sans-serif" font-size="11" font-weight="bold" lengthAdjust="spacing" textLength="192.4409" x="238.7632" y="219.7207">Idempotency-Key already present</text><text fill="#000000" font-family="sans-serif" font-size="11" font-weight="bold" lengthAdjust="spacing" textLength="4.0767" x="431.2041" y="219.7207">]</text><g class="message" data-participant-1="REDIS" data-participant-2="Consumer"><polygon fill="#A80036" points="305.0439,241.707,295.0439,245.707,305.0439,249.707,301.0439,245.707" style="stroke:#A80036;stroke-width:1;"/><line style="stroke:#A80036;stroke-width:1;stroke-dasharray:2,2;" x1="299.0439" x2="510.6265" y1="245.707" y2="245.707"/><text fill="#000000" font-family="sans-serif" font-size="13" font-weight="bold" lengthAdjust="spacing" textLength="68.0913" x="311.0439" y="240.9648">Key found</text></g><g class="message" data-participant-1="Consumer" data-participant-2="Consumer"><line style="stroke:#A80036;stroke-width:1;" x1="294.0439" x2="336.0439" y1="281.1729" y2="281.1729"/><line style="stroke:#A80036;stroke-width:1;" x1="336.0439" x2="336.0439" y1="281.1729" y2="294.1729"/><line style="stroke:#A80036;stroke-width:1;" x1="295.0439" x2="336.0439" y1="294.1729" y2="294.1729"/><polygon fill="#A80036" points="305.0439,290.1729,295.0439,294.1729,305.0439,298.1729,301.0439,294.1729" style="stroke:#A80036;stroke-width:1;"/><text fill="#000000" font-family="sans-serif" font-size="13" font-weight="bold" lengthAdjust="spacing" textLength="188.5825" x="301.0439" y="276.4307">Discard duplicated message</text></g><path d="M511.5825,258.707 L511.5825,298.707 L704.5825,298.707 L704.5825,268.707 L694.5825,258.707 L511.5825,258.707" fill="#FBFB77" filter="url(#f149lxdvencpby)" style="stroke:#A80036;stroke-width:1;"/><path d="M694.5825,258.707 L694.5825,268.707 L704.5825,268.707 L694.5825,258.707" fill="#FBFB77" style="stroke:#A80036;stroke-width:1;"/><text fill="#000000" font-family="sans-serif" font-size="13" lengthAdjust="spacing" textLength="172.1675" x="517.5825" y="276.2754">Message already processed</text><text fill="#000000" font-family="sans-serif" font-size="13" lengthAdjust="spacing" textLength="151.6963" x="517.5825" y="291.5859">or already in processing</text><line style="stroke:#000000;stroke-width:1;stroke-dasharray:2,2;" x1="157.5479" x2="1484.8833" y1="309.3281" y2="309.3281"/><text fill="#000000" font-family="sans-serif" font-size="11" font-weight="bold" lengthAdjust="spacing" textLength="4.0767" x="162.5479" y="319.9629">[</text><text fill="#000000" font-family="sans-serif" font-size="11" font-weight="bold" lengthAdjust="spacing" textLength="169.4902" x="166.6245" y="319.9629">Idempotency-Key not present</text><text fill="#000000" font-family="sans-serif" font-size="11" font-weight="bold" lengthAdjust="spacing" textLength="4.0767" x="336.1147" y="319.9629">]</text><g class="message" data-participant-1="REDIS" data-participant-2="Consumer"><polygon fill="#A80036" points="305.0439,340.5938,295.0439,344.5938,305.0439,348.5938,301.0439,344.5938" style="stroke:#A80036;stroke-width:1;"/><line style="stroke:#A80036;stroke-width:1;stroke-dasharray:2,2;" x1="299.0439" x2="510.6265" y1="344.5938" y2="344.5938"/><text fill="#000000" font-family="sans-serif" font-size="13" font-weight="bold" lengthAdjust="spacing" textLength="94.4849" x="311.0439" y="339.8516">Key not found</text></g><g class="message" data-participant-1="Consumer" data-participant-2="REDIS"><polygon fill="#A80036" points="499.6265,369.9043,509.6265,373.9043,499.6265,377.9043,503.6265,373.9043" style="stroke:#A80036;stroke-width:1;"/><line style="stroke:#A80036;stroke-width:1;" x1="294.0439" x2="505.6265" y1="373.9043" y2="373.9043"/><text fill="#000000" font-family="sans-serif" font-size="13" font-weight="bold" lengthAdjust="spacing" textLength="153.3975" x="301.0439" y="369.1621">Save Idempotency-Key</text></g><g class="message" data-participant-1="REDIS" data-participant-2="Consumer"><polygon fill="#A80036" points="305.0439,399.2148,295.0439,403.2148,305.0439,407.2148,301.0439,403.2148" style="stroke:#A80036;stroke-width:1;"/><line style="stroke:#A80036;stroke-width:1;stroke-dasharray:2,2;" x1="299.0439" x2="510.6265" y1="403.2148" y2="403.2148"/><text fill="#000000" font-family="sans-serif" font-size="13" font-weight="bold" lengthAdjust="spacing" textLength="67.647" x="311.0439" y="398.4727">Key saved</text></g><g class="message" data-participant-1="Consumer" data-participant-2="Consumer"><line style="stroke:#A80036;stroke-width:1;" x1="294.0439" x2="336.0439" y1="432.5254" y2="432.5254"/><line style="stroke:#A80036;stroke-width:1;" x1="336.0439" x2="336.0439" y1="432.5254" y2="445.5254"/><line style="stroke:#A80036;stroke-width:1;" x1="295.0439" x2="336.0439" y1="445.5254" y2="445.5254"/><polygon fill="#A80036" points="305.0439,441.5254,295.0439,445.5254,305.0439,449.5254,301.0439,445.5254" style="stroke:#A80036;stroke-width:1;"/><text fill="#000000" font-family="sans-serif" font-size="13" font-weight="bold" lengthAdjust="spacing" textLength="172.3135" x="301.0439" y="427.7832">Check message operation</text></g><path d="M167.5479,460.5254 L229.6865,460.5254 L229.6865,467.8359 L219.6865,477.8359 L167.5479,477.8359 L167.5479,460.5254" fill="#EEEEEE" style="stroke:#000000;stroke-width:1;"/><rect fill="none" height="992.4023" style="stroke:#000000;stroke-width:2;" width="1307.3354" x="167.5479" y="460.5254"/><text fill="#000000" font-family="sans-serif" font-size="13" font-weight="bold" lengthAdjust="spacing" textLength="17.1387" x="182.5479" y="474.0938">alt</text><text fill="#000000" font-family="sans-serif" font-size="11" font-weight="bold" lengthAdjust="spacing" textLength="4.0767" x="244.6865" y="473.1602">[</text><text fill="#000000" font-family="sans-serif" font-size="11" font-weight="bold" lengthAdjust="spacing" textLength="127.1553" x="248.7632" y="473.1602">Operation == UPDATE</text><text fill="#000000" font-family="sans-serif" font-size="11" font-weight="bold" lengthAdjust="spacing" textLength="20.9795" x="379.5439" y="473.1602">and</text><text fill="#000000" font-family="sans-serif" font-size="11" font-weight="bold" lengthAdjust="spacing" textLength="87.0762" x="404.1489" y="473.1602">Status == PAID</text><text fill="#000000" font-family="sans-serif" font-size="11" font-weight="bold" lengthAdjust="spacing" textLength="4.0767" x="491.2251" y="473.1602">]</text><g class="message" data-participant-1="Consumer" data-participant-2="SPC"><polygon fill="#A80036" points="640.4287,495.1465,650.4287,499.1465,640.4287,503.1465,644.4287,499.1465" style="stroke:#A80036;stroke-width:1;"/><line style="stroke:#A80036;stroke-width:1;" x1="294.0439" x2="646.4287" y1="499.1465" y2="499.1465"/><text fill="#000000" font-family="sans-serif" font-size="13" font-weight="bold" lengthAdjust="spacing" textLength="215.0649" x="301.0439" y="494.4043">Process UPDATE PAID operation</text></g><g class="message" data-participant-1="SPC" data-participant-2="SRTP"><polygon fill="#A80036" points="931.3394,524.457,941.3394,528.457,931.3394,532.457,935.3394,528.457" style="stroke:#A80036;stroke-width:1;"/><line style="stroke:#A80036;stroke-width:1;" x1="662.4287" x2="937.3394" y1="528.457" y2="528.457"/><text fill="#000000" font-family="sans-serif" font-size="13" font-weight="bold" lengthAdjust="spacing" textLength="161.3638" x="669.4287" y="523.7148">findRtpByCompositeKey</text></g><path d="M177.5479,543.457 L239.6865,543.457 L239.6865,550.7676 L229.6865,560.7676 L177.5479,560.7676 L177.5479,543.457" fill="#EEEEEE" style="stroke:#000000;stroke-width:1;"/><rect fill="none" height="845.2051" style="stroke:#000000;stroke-width:2;" width="1287.3354" x="177.5479" y="543.457"/><text fill="#000000" font-family="sans-serif" font-size="13" font-weight="bold" lengthAdjust="spacing" textLength="17.1387" x="192.5479" y="557.0254">alt</text><text fill="#000000" font-family="sans-serif" font-size="11" font-weight="bold" lengthAdjust="spacing" textLength="4.0767" x="254.6865" y="556.0918">[</text><text fill="#000000" font-family="sans-serif" font-size="11" font-weight="bold" lengthAdjust="spacing" textLength="58.9692" x="258.7632" y="556.0918">RTP exists</text><text fill="#000000" font-family="sans-serif" font-size="11" font-weight="bold" lengthAdjust="spacing" textLength="4.0767" x="317.7324" y="556.0918">]</text><g class="message" data-participant-1="SRTP" data-participant-2="SPC"><polygon fill="#A80036" points="673.4287,578.0781,663.4287,582.0781,673.4287,586.0781,669.4287,582.0781" style="stroke:#A80036;stroke-width:1;"/><line style="stroke:#A80036;stroke-width:1;stroke-dasharray:2,2;" x1="667.4287" x2="947.3394" y1="582.0781" y2="582.0781"/><text fill="#000000" font-family="sans-serif" font-size="13" font-weight="bold" lengthAdjust="spacing" textLength="25.9111" x="679.4287" y="577.3359">RTP</text></g><g class="message" data-participant-1="SPC" data-participant-2="SPC"><line style="stroke:#A80036;stroke-width:1;" x1="662.4287" x2="704.4287" y1="640.5098" y2="640.5098"/><line style="stroke:#A80036;stroke-width:1;" x1="704.4287" x2="704.4287" y1="640.5098" y2="653.5098"/><line style="stroke:#A80036;stroke-width:1;" x1="663.4287" x2="704.4287" y1="653.5098" y2="653.5098"/><polygon fill="#A80036" points="673.4287,649.5098,663.4287,653.5098,673.4287,657.5098,669.4287,653.5098" style="stroke:#A80036;stroke-width:1;"/><text fill="#000000" font-family="sans-serif" font-size="13" font-weight="bold" lengthAdjust="spacing" textLength="169.0317" x="669.4287" y="635.7676">Check RTP status is valid</text></g><path d="M860.0317,595.0781 L860.0317,681.0781 L1021.0317,681.0781 L1021.0317,605.0781 L1011.0317,595.0781 L860.0317,595.0781" fill="#FBFB77" filter="url(#f149lxdvencpby)" style="stroke:#A80036;stroke-width:1;"/><path d="M1011.0317,595.0781 L1011.0317,605.0781 L1021.0317,605.0781 L1011.0317,595.0781" fill="#FBFB77" style="stroke:#A80036;stroke-width:1;"/><text fill="#000000" font-family="sans-serif" font-size="13" lengthAdjust="spacing" textLength="140.5508" x="866.0317" y="612.6465">&#9989; Valid RTP statuses:</text><text fill="#000000" font-family="sans-serif" font-size="13" lengthAdjust="spacing" textLength="69.8687" x="866.0317" y="627.957">- CREATED</text><text fill="#000000" font-family="sans-serif" font-size="13" lengthAdjust="spacing" textLength="43.5068" x="866.0317" y="643.2676">- SENT</text><text fill="#000000" font-family="sans-serif" font-size="13" lengthAdjust="spacing" textLength="77.8286" x="866.0317" y="658.5781">- ACCEPTED</text><text fill="#000000" font-family="sans-serif" font-size="13" lengthAdjust="spacing" textLength="115.6035" x="866.0317" y="673.8887">- USER_ACCEPTED</text><path d="M187.5479,697.6309 L249.6865,697.6309 L249.6865,704.9414 L239.6865,714.9414 L187.5479,714.9414 L187.5479,697.6309" fill="#EEEEEE" style="stroke:#000000;stroke-width:1;"/><rect fill="none" height="610.4551" style="stroke:#000000;stroke-width:2;" width="1267.3354" x="187.5479" y="697.6309"/><text fill="#000000" font-family="sans-serif" font-size="13" font-weight="bold" lengthAdjust="spacing" textLength="17.1387" x="202.5479" y="711.1992">alt</text><text fill="#000000" font-family="sans-serif" font-size="11" font-weight="bold" lengthAdjust="spacing" textLength="4.0767" x="264.6865" y="710.2656">[</text><text fill="#000000" font-family="sans-serif" font-size="11" font-weight="bold" lengthAdjust="spacing" textLength="79.5942" x="268.7632" y="710.2656">Status is valid</text><text fill="#000000" font-family="sans-serif" font-size="11" font-weight="bold" lengthAdjust="spacing" textLength="4.0767" x="348.3574" y="710.2656">]</text><g class="message" data-participant-1="SPC" data-participant-2="Registry"><polygon fill="#A80036" points="1017.1343,732.252,1027.1343,736.252,1017.1343,740.252,1021.1343,736.252" style="stroke:#A80036;stroke-width:1;"/><line style="stroke:#A80036;stroke-width:1;" x1="662.4287" x2="1023.1343" y1="736.252" y2="736.252"/><text fill="#000000" font-family="sans-serif" font-size="13" font-weight="bold" lengthAdjust="spacing" textLength="256.9849" x="669.4287" y="731.5098">Get Service Providers by PSP Tax Code</text></g><g class="message" data-participant-1="Registry" data-participant-2="SPC"><polygon fill="#A80036" points="673.4287,761.5625,663.4287,765.5625,673.4287,769.5625,669.4287,765.5625" style="stroke:#A80036;stroke-width:1;"/><line style="stroke:#A80036;stroke-width:1;stroke-dasharray:2,2;" x1="667.4287" x2="1033.1343" y1="765.5625" y2="765.5625"/><text fill="#000000" font-family="sans-serif" font-size="13" font-weight="bold" lengthAdjust="spacing" textLength="107.98" x="679.4287" y="760.8203">Service Provider</text></g><path d="M586.856,780.5625 L648.9946,780.5625 L648.9946,787.873 L638.9946,797.873 L586.856,797.873 L586.856,780.5625" fill="#EEEEEE" style="stroke:#000000;stroke-width:1;"/><rect fill="none" height="446.9473" style="stroke:#000000;stroke-width:2;" width="858.0273" x="586.856" y="780.5625"/><text fill="#000000" font-family="sans-serif" font-size="13" font-weight="bold" lengthAdjust="spacing" textLength="17.1387" x="601.856" y="794.1309">alt</text><text fill="#000000" font-family="sans-serif" font-size="11" font-weight="bold" lengthAdjust="spacing" textLength="4.0767" x="663.9946" y="793.1973">[</text><text fill="#000000" font-family="sans-serif" font-size="11" font-weight="bold" lengthAdjust="spacing" textLength="92.7749" x="668.0713" y="793.1973">PSP BIC matches</text><text fill="#000000" font-family="sans-serif" font-size="11" font-weight="bold" lengthAdjust="spacing" textLength="155.3374" x="764.4717" y="793.1973">RTP.serviceProviderDebtor]</text><g class="message" data-participant-1="SPC" data-participant-2="SRTP"><polygon fill="#A80036" points="931.3394,815.1836,941.3394,819.1836,931.3394,823.1836,935.3394,819.1836" style="stroke:#A80036;stroke-width:1;"/><line style="stroke:#A80036;stroke-width:1;" x1="662.4287" x2="937.3394" y1="819.1836" y2="819.1836"/><text fill="#000000" font-family="sans-serif" font-size="13" font-weight="bold" lengthAdjust="spacing" textLength="176.2808" x="669.4287" y="814.4414">Save RTP with PAID status</text></g><g class="message" data-participant-1="SRTP" data-participant-2="SPC"><polygon fill="#A80036" points="673.4287,844.4941,663.4287,848.4941,673.4287,852.4941,669.4287,848.4941" style="stroke:#A80036;stroke-width:1;"/><line style="stroke:#A80036;stroke-width:1;stroke-dasharray:2,2;" x1="667.4287" x2="947.3394" y1="848.4941" y2="848.4941"/><text fill="#000000" font-family="sans-serif" font-size="13" font-weight="bold" lengthAdjust="spacing" textLength="69.2085" x="679.4287" y="843.752">Saved RTP</text></g><line style="stroke:#000000;stroke-width:1;stroke-dasharray:2,2;" x1="586.856" x2="1444.8833" y1="857.4941" y2="857.4941"/><text fill="#000000" font-family="sans-serif" font-size="11" font-weight="bold" lengthAdjust="spacing" textLength="4.0767" x="591.856" y="868.1289">[</text><text fill="#000000" font-family="sans-serif" font-size="11" font-weight="bold" lengthAdjust="spacing" textLength="139.439" x="595.9326" y="868.1289">PSP BIC does NOT match</text><text fill="#000000" font-family="sans-serif" font-size="11" font-weight="bold" lengthAdjust="spacing" textLength="155.3374" x="738.9971" y="868.1289">RTP.serviceProviderDebtor]</text><g class="message" data-participant-1="SPC" data-participant-2="SPD"><polygon fill="#A80036" points="1131.5459,893.7598,1141.5459,897.7598,1131.5459,901.7598,1135.5459,897.7598" style="stroke:#A80036;stroke-width:1;"/><line style="stroke:#A80036;stroke-width:1;" x1="662.4287" x2="1137.5459" y1="897.7598" y2="897.7598"/><text fill="#000000" font-family="sans-serif" font-size="13" font-weight="bold" lengthAdjust="spacing" textLength="441.543" x="669.4287" y="893.0176">POST /sepa-request-to-pay-requests/{id}/cancellation-requests</text></g><path d="M1158,876.4492 L1158,901.4492 L1435,901.4492 L1435,886.4492 L1425,876.4492 L1158,876.4492" fill="#FBFB77" filter="url(#f149lxdvencpby)" style="stroke:#A80036;stroke-width:1;"/><path d="M1425,876.4492 L1425,886.4492 L1435,886.4492 L1425,876.4492" fill="#FBFB77" style="stroke:#A80036;stroke-width:1;"/><text fill="#000000" font-family="sans-serif" font-size="13" lengthAdjust="spacing" textLength="30.4941" x="1164" y="894.0176">Send</text><text fill="#000000" font-family="sans-serif" font-size="13" font-weight="bold" lengthAdjust="spacing" textLength="135.2686" x="1198.6074" y="894.0176">cancellation request</text><text fill="#000000" font-family="sans-serif" font-size="13" lengthAdjust="spacing" textLength="82.3481" x="1337.9893" y="894.0176">to SP Debitor</text><path d="M596.856,917.7598 L658.9946,917.7598 L658.9946,925.0703 L648.9946,935.0703 L596.856,935.0703 L596.856,917.7598" fill="#EEEEEE" style="stroke:#000000;stroke-width:1;"/><rect fill="none" height="302.75" style="stroke:#000000;stroke-width:2;" width="784.4727" x="596.856" y="917.7598"/><text fill="#000000" font-family="sans-serif" font-size="13" font-weight="bold" lengthAdjust="spacing" textLength="17.1387" x="611.856" y="931.3281">alt</text><text fill="#000000" font-family="sans-serif" font-size="11" font-weight="bold" lengthAdjust="spacing" textLength="4.0767" x="673.9946" y="930.3945">[</text><text fill="#000000" font-family="sans-serif" font-size="11" font-weight="bold" lengthAdjust="spacing" textLength="101.8091" x="678.0713" y="930.3945">SP Debtor accepts</text><text fill="#000000" font-family="sans-serif" font-size="11" font-weight="bold" lengthAdjust="spacing" textLength="4.0767" x="779.8804" y="930.3945">]</text><g class="message" data-participant-1="SPD" data-participant-2="SPC"><polygon fill="#A80036" points="673.4287,952.3809,663.4287,956.3809,673.4287,960.3809,669.4287,956.3809" style="stroke:#A80036;stroke-width:1;"/><line style="stroke:#A80036;stroke-width:1;stroke-dasharray:2,2;" x1="667.4287" x2="1142.5459" y1="956.3809" y2="956.3809"/><text fill="#000000" font-family="sans-serif" font-size="13" font-weight="bold" lengthAdjust="spacing" textLength="81.9419" x="679.4287" y="951.6387">201 Created</text></g><g class="message" data-participant-1="SPC" data-participant-2="SPC"><line style="stroke:#A80036;stroke-width:1;" x1="662.4287" x2="704.4287" y1="985.6914" y2="985.6914"/><line style="stroke:#A80036;stroke-width:1;" x1="704.4287" x2="704.4287" y1="985.6914" y2="998.6914"/><line style="stroke:#A80036;stroke-width:1;" x1="663.4287" x2="704.4287" y1="998.6914" y2="998.6914"/><polygon fill="#A80036" points="673.4287,994.6914,663.4287,998.6914,673.4287,1002.6914,669.4287,998.6914" style="stroke:#A80036;stroke-width:1;"/><text fill="#000000" font-family="sans-serif" font-size="13" font-weight="bold" lengthAdjust="spacing" textLength="236.1455" x="669.4287" y="980.9492">Set RTP status to CANCELLED_PAID</text></g><g class="message" data-participant-1="SPC" data-participant-2="SRTP"><polygon fill="#A80036" points="931.3394,1024.002,941.3394,1028.002,931.3394,1032.002,935.3394,1028.002" style="stroke:#A80036;stroke-width:1;"/><line style="stroke:#A80036;stroke-width:1;" x1="662.4287" x2="937.3394" y1="1028.002" y2="1028.002"/><text fill="#000000" font-family="sans-serif" font-size="13" font-weight="bold" lengthAdjust="spacing" textLength="261.9106" x="669.4287" y="1023.2598">Save RTP with CANCELLED_PAID status</text></g><g class="message" data-participant-1="SRTP" data-participant-2="SPC"><polygon fill="#A80036" points="673.4287,1053.3125,663.4287,1057.3125,673.4287,1061.3125,669.4287,1057.3125" style="stroke:#A80036;stroke-width:1;"/><line style="stroke:#A80036;stroke-width:1;stroke-dasharray:2,2;" x1="667.4287" x2="947.3394" y1="1057.3125" y2="1057.3125"/><text fill="#000000" font-family="sans-serif" font-size="13" font-weight="bold" lengthAdjust="spacing" textLength="69.2085" x="679.4287" y="1052.5703">Saved RTP</text></g><line style="stroke:#000000;stroke-width:1;stroke-dasharray:2,2;" x1="596.856" x2="1381.3286" y1="1066.3125" y2="1066.3125"/><text fill="#000000" font-family="sans-serif" font-size="11" font-weight="bold" lengthAdjust="spacing" textLength="4.0767" x="601.856" y="1076.9473">[</text><text fill="#000000" font-family="sans-serif" font-size="11" font-weight="bold" lengthAdjust="spacing" textLength="97.3081" x="605.9326" y="1076.9473">SP Debtor rejects</text><text fill="#000000" font-family="sans-serif" font-size="11" font-weight="bold" lengthAdjust="spacing" textLength="4.0767" x="703.2407" y="1076.9473">]</text><g class="message" data-participant-1="SPD" data-participant-2="SPC"><polygon fill="#A80036" points="673.4287,1102.5781,663.4287,1106.5781,673.4287,1110.5781,669.4287,1106.5781" style="stroke:#A80036;stroke-width:1;"/><line style="stroke:#A80036;stroke-width:1;stroke-dasharray:2,2;" x1="667.4287" x2="1142.5459" y1="1106.5781" y2="1106.5781"/><text fill="#000000" font-family="sans-serif" font-size="13" font-weight="bold" lengthAdjust="spacing" textLength="99.4233" x="679.4287" y="1101.8359">Error response</text></g><path d="M1158,1085.2676 L1158,1110.2676 L1366,1110.2676 L1366,1095.2676 L1356,1085.2676 L1158,1085.2676" fill="#FBFB77" filter="url(#f149lxdvencpby)" style="stroke:#A80036;stroke-width:1;"/><path d="M1356,1085.2676 L1356,1095.2676 L1366,1095.2676 L1356,1085.2676" fill="#FBFB77" style="stroke:#A80036;stroke-width:1;"/><text fill="#000000" font-family="sans-serif" font-size="13" lengthAdjust="spacing" textLength="187.7827" x="1164" y="1102.8359">Based on SP Debitor response</text><g class="message" data-participant-1="SPC" data-participant-2="SPC"><line style="stroke:#A80036;stroke-width:1;" x1="662.4287" x2="704.4287" y1="1140.8887" y2="1140.8887"/><line style="stroke:#A80036;stroke-width:1;" x1="704.4287" x2="704.4287" y1="1140.8887" y2="1153.8887"/><line style="stroke:#A80036;stroke-width:1;" x1="663.4287" x2="704.4287" y1="1153.8887" y2="1153.8887"/><polygon fill="#A80036" points="673.4287,1149.8887,663.4287,1153.8887,673.4287,1157.8887,669.4287,1153.8887" style="stroke:#A80036;stroke-width:1;"/><text fill="#000000" font-family="sans-serif" font-size="13" font-weight="bold" lengthAdjust="spacing" textLength="223.7231" x="669.4287" y="1136.1465">Set RTP status to ERROR_CANCEL</text></g><g class="message" data-participant-1="SPC" data-participant-2="SRTP"><polygon fill="#A80036" points="931.3394,1179.1992,941.3394,1183.1992,931.3394,1187.1992,935.3394,1183.1992" style="stroke:#A80036;stroke-width:1;"/><line style="stroke:#A80036;stroke-width:1;" x1="662.4287" x2="937.3394" y1="1183.1992" y2="1183.1992"/><text fill="#000000" font-family="sans-serif" font-size="13" font-weight="bold" lengthAdjust="spacing" textLength="249.4883" x="669.4287" y="1178.457">Save RTP with ERROR_CANCEL status</text></g><g class="message" data-participant-1="SRTP" data-participant-2="SPC"><polygon fill="#A80036" points="673.4287,1208.5098,663.4287,1212.5098,673.4287,1216.5098,669.4287,1212.5098" style="stroke:#A80036;stroke-width:1;"/><line style="stroke:#A80036;stroke-width:1;stroke-dasharray:2,2;" x1="667.4287" x2="947.3394" y1="1212.5098" y2="1212.5098"/><text fill="#000000" font-family="sans-serif" font-size="13" font-weight="bold" lengthAdjust="spacing" textLength="69.2085" x="679.4287" y="1207.7676">Saved RTP</text></g><g class="message" data-participant-1="SPC" data-participant-2="Consumer"><polygon fill="#A80036" points="305.0439,1251.8203,295.0439,1255.8203,305.0439,1259.8203,301.0439,1255.8203" style="stroke:#A80036;stroke-width:1;"/><line style="stroke:#A80036;stroke-width:1;stroke-dasharray:2,2;" x1="299.0439" x2="651.4287" y1="1255.8203" y2="1255.8203"/><text fill="#000000" font-family="sans-serif" font-size="13" font-weight="bold" lengthAdjust="spacing" textLength="86.1377" x="311.0439" y="1251.0781">Updated RTP</text></g><line style="stroke:#000000;stroke-width:1;stroke-dasharray:2,2;" x1="187.5479" x2="1454.8833" y1="1264.8203" y2="1264.8203"/><text fill="#000000" font-family="sans-serif" font-size="11" font-weight="bold" lengthAdjust="spacing" textLength="4.0767" x="192.5479" y="1275.4551">[</text><text fill="#000000" font-family="sans-serif" font-size="11" font-weight="bold" lengthAdjust="spacing" textLength="102.5288" x="196.6245" y="1275.4551">Invalid RTP status</text><text fill="#000000" font-family="sans-serif" font-size="11" font-weight="bold" lengthAdjust="spacing" textLength="4.0767" x="299.1533" y="1275.4551">]</text><g class="message" data-participant-1="SPC" data-participant-2="Consumer"><polygon fill="#A80036" points="305.0439,1296.0859,295.0439,1300.0859,305.0439,1304.0859,301.0439,1300.0859" style="stroke:#A80036;stroke-width:1;"/><line style="stroke:#A80036;stroke-width:1;stroke-dasharray:2,2;" x1="299.0439" x2="651.4287" y1="1300.0859" y2="1300.0859"/><text fill="#000000" font-family="sans-serif" font-size="13" font-weight="bold" lengthAdjust="spacing" textLength="171.8818" x="311.0439" y="1295.3438">Error - Invalid RTP status</text></g><line style="stroke:#000000;stroke-width:1;stroke-dasharray:2,2;" x1="177.5479" x2="1464.8833" y1="1316.0859" y2="1316.0859"/><text fill="#000000" font-family="sans-serif" font-size="11" font-weight="bold" lengthAdjust="spacing" textLength="4.0767" x="182.5479" y="1326.7207">[</text><text fill="#000000" font-family="sans-serif" font-size="11" font-weight="bold" lengthAdjust="spacing" textLength="81.2056" x="186.6245" y="1326.7207">RTP not found</text><text fill="#000000" font-family="sans-serif" font-size="11" font-weight="bold" lengthAdjust="spacing" textLength="4.0767" x="267.8301" y="1326.7207">]</text><g class="message" data-participant-1="SRTP" data-participant-2="SPC"><polygon fill="#A80036" points="673.4287,1347.3516,663.4287,1351.3516,673.4287,1355.3516,669.4287,1351.3516" style="stroke:#A80036;stroke-width:1;"/><line style="stroke:#A80036;stroke-width:1;stroke-dasharray:2,2;" x1="667.4287" x2="947.3394" y1="1351.3516" y2="1351.3516"/><text fill="#000000" font-family="sans-serif" font-size="13" font-weight="bold" lengthAdjust="spacing" textLength="67.228" x="679.4287" y="1346.6094">Not found</text></g><g class="message" data-participant-1="SPC" data-participant-2="Consumer"><polygon fill="#A80036" points="305.0439,1376.6621,295.0439,1380.6621,305.0439,1384.6621,301.0439,1380.6621" style="stroke:#A80036;stroke-width:1;"/><line style="stroke:#A80036;stroke-width:1;stroke-dasharray:2,2;" x1="299.0439" x2="651.4287" y1="1380.6621" y2="1380.6621"/><text fill="#000000" font-family="sans-serif" font-size="13" font-weight="bold" lengthAdjust="spacing" textLength="146.6816" x="311.0439" y="1375.9199">Error - RTP not found</text></g><line style="stroke:#000000;stroke-width:1;stroke-dasharray:2,2;" x1="167.5479" x2="1474.8833" y1="1396.6621" y2="1396.6621"/><text fill="#000000" font-family="sans-serif" font-size="11" font-weight="bold" lengthAdjust="spacing" textLength="4.0767" x="172.5479" y="1407.2969">[</text><text fill="#000000" font-family="sans-serif" font-size="11" font-weight="bold" lengthAdjust="spacing" textLength="111.1602" x="176.6245" y="1407.2969">Different Operation</text><text fill="#000000" font-family="sans-serif" font-size="11" font-weight="bold" lengthAdjust="spacing" textLength="4.0767" x="287.7847" y="1407.2969">]</text><g class="message" data-participant-1="Consumer" data-participant-2="Consumer"><line style="stroke:#A80036;stroke-width:1;" x1="294.0439" x2="336.0439" y1="1431.9277" y2="1431.9277"/><line style="stroke:#A80036;stroke-width:1;" x1="336.0439" x2="336.0439" y1="1431.9277" y2="1444.9277"/><line style="stroke:#A80036;stroke-width:1;" x1="295.0439" x2="336.0439" y1="1444.9277" y2="1444.9277"/><polygon fill="#A80036" points="305.0439,1440.9277,295.0439,1444.9277,305.0439,1448.9277,301.0439,1444.9277" style="stroke:#A80036;stroke-width:1;"/><text fill="#000000" font-family="sans-serif" font-size="13" font-weight="bold" lengthAdjust="spacing" textLength="91.5396" x="301.0439" y="1427.1855">Skip message</text></g><path d="M414.5396,1417.1172 L414.5396,1442.1172 L631.5396,1442.1172 L631.5396,1427.1172 L621.5396,1417.1172 L414.5396,1417.1172" fill="#FBFB77" filter="url(#f149lxdvencpby)" style="stroke:#A80036;stroke-width:1;"/><path d="M621.5396,1417.1172 L621.5396,1427.1172 L631.5396,1427.1172 L621.5396,1417.1172" fill="#FBFB77" style="stroke:#A80036;stroke-width:1;"/><text fill="#000000" font-family="sans-serif" font-size="13" lengthAdjust="spacing" textLength="102.2227" x="420.5396" y="1434.6855">Operation is not</text><text fill="#000000" font-family="sans-serif" font-size="13" font-weight="bold" lengthAdjust="spacing" textLength="90.6509" x="526.8755" y="1434.6855">UPDATE PAID</text><!--SRC=[lLVDRkCs4BxpAGOvjGQywVOO80KIITqrkerLoUcfGC28uuID8gaaxLrZqMFVea_N9zaXgHzAbjFDPNqIoVdzvfiXhPza1QhMo8mq9SAxE8LVKMl-WB24nU8sZQys2QHNgtYnW9_B-YDZV-rmXt1cHPCzLWRUx-xFW6lupHwmXYiZ2zbmEZaBxKLrfNVFg9nijs226txFDHdCK4ZzH_NTIk1pKnkiYWFyWWV8JQtmUwUL9V4g7tl8KuWKQLeX9vEdKM0qppQftwQFS1_LNXO86Jv8RTJ1csyNHnvYl0yTn8ovN67vKv_81Q4LPBjOi8foW1AtnXxbXfkTXiiMIiPuOUIUcm4MnhelQzPbQXMZHooU8C1aIPYGWLxVOy9uQKXw8WUyLCZ50Hg5caf5Uk0LO3c9tKflwrqbd8p0gNs0CBnGCvQwu4g0s3MbB4X5m7CF0e23GSc7HqCBwDamH5ONj8N2dTQgFo1YjcUoUg13h8IpnHYMLC7ZNEdmA_EqaaEkix3dV8ypgBzaLPFAwz7pzMq1Wxf1nOsiAqiH05_KTRS9bvVWEvAQaHCU0wzwObaKGr_K3jPDwg64eA57pgnQ7xHj8RT37yu6zOurifMLo4npVOXgmaLBWnqgeR9jDB_begSbu2VgAzrAWXDn4BR1qR8_2x0RB0sHU0KFchMYVVvImvwNKlHc9gopl__-_GT-jqA18kgB_dm9KPOGE76maoStcs1v5KL9EfQupPFiRh8_KDMlFH3vYL3xvBhnuqO96kXc5DLkBmKg3VS7I6aSRVWdgh70mCH0k6w6TIVTHWZur79WAEHkPshmuXAn8Lol8dZcfdX4Agi5z8tsDZkJD39fOlQQHrno3MOByL6QHyz7Nv8WbYch0cCJ1bbhhguZxHDSeWBv2T8b8chKSBFU-8nUcKyQk_vQvniurzZmfKAw8RLPcdhPy4EtrEUVfVZxlE1LWMNfsgu_6WKzCFU26E2QF5I2LecYD3KCTzCiQFQc2lOz3PsAiPEsAB2PUBTvnI6oF_xmrbwmTgmV2OOjcHDXWuQasAAhcoZvy269xxexRqvxbWvZrJbYdAR6rvBZ1Nhq11cmKlWd5l-7LQAK4zKD3M2So8PrlQOtY00gvb2_Nesz2kGaozRPdSVhLH27YjyAu03VIh0JZPeEqtKavRAPN9wtZN3l3U-QZMgtglQJOJ-Tk1DZldfBU46n3wZrOKN6ZuavU6wE9EQ1UIceEKzzD2FutDNTnXVBxHQLVQEl9tVzgUT8_YIRqVDjJDpXAKBNc8rdyXV1lzEOYoo8glFm1G00]--></g></svg>