<?xml version="1.0" encoding="us-ascii" standalone="no"?><svg xmlns="http://www.w3.org/2000/svg" xmlns:xlink="http://www.w3.org/1999/xlink" contentStyleType="text/css" height="1236px" preserveAspectRatio="none" style="width:1544px;height:1236px;background:#FFFFFF;" version="1.1" viewBox="0 0 1544 1236" width="1544px" zoomAndPan="magnify"><defs><filter height="300%" id="f1mnbg7eyi3gvy" width="300%" x="-1" y="-1"><feGaussianBlur result="blurOut" stdDeviation="2.0"/><feColorMatrix in="blurOut" result="blurOut2" type="matrix" values="0 0 0 0 0 0 0 0 0 0 0 0 0 0 0 0 0 0 .4 0"/><feOffset dx="4.0" dy="4.0" in="blurOut2" result="blurOut3"/><feBlend in="SourceGraphic" in2="blurOut3" mode="normal"/></filter></defs><g><text fill="#000000" font-family="sans-serif" font-size="14" font-weight="bold" lengthAdjust="spacing" textLength="119" x="583.5" y="27.9951">GDP Message -</text><text fill="#000000" font-family="sans-serif" font-size="14" font-weight="bold" lengthAdjust="spacing" textLength="206" x="707.5" y="27.9951">UPDATE INVALID / EXPIRED</text><text fill="#000000" font-family="sans-serif" font-size="14" font-weight="bold" lengthAdjust="spacing" textLength="37" x="918.5" y="27.9951">Flow</text><rect fill="#FFFFFF" filter="url(#f1mnbg7eyi3gvy)" height="999.7695" style="stroke:#A80036;stroke-width:1.0;" width="10" x="409" y="148.293"/><rect fill="#FFFFFF" filter="url(#f1mnbg7eyi3gvy)" height="958.0703" style="stroke:#A80036;stroke-width:1.0;" width="10" x="700" y="189.9922"/><rect fill="#FFFFFF" filter="url(#f1mnbg7eyi3gvy)" height="53.2656" style="stroke:#A80036;stroke-width:1.0;" width="10" x="1004" y="219.125"/><rect fill="#FFFFFF" filter="url(#f1mnbg7eyi3gvy)" height="29.1328" style="stroke:#A80036;stroke-width:1.0;" width="10" x="1004" y="467.4531"/><rect fill="#FFFFFF" filter="url(#f1mnbg7eyi3gvy)" height="29.1328" style="stroke:#A80036;stroke-width:1.0;" width="10" x="1004" y="660.25"/><rect fill="#FFFFFF" filter="url(#f1mnbg7eyi3gvy)" height="29.1328" style="stroke:#A80036;stroke-width:1.0;" width="10" x="1004" y="804.5859"/><rect fill="#FFFFFF" filter="url(#f1mnbg7eyi3gvy)" height="29.1328" style="stroke:#A80036;stroke-width:1.0;" width="10" x="1004" y="948.9219"/><rect fill="#FFFFFF" filter="url(#f1mnbg7eyi3gvy)" height="462.3359" style="stroke:#A80036;stroke-width:1.0;" width="10" x="1197" y="530.7188"/><rect fill="#FFFFFF" filter="url(#f1mnbg7eyi3gvy)" height="559.7344" style="stroke:#A80036;stroke-width:1.0;" width="10" x="1294" y="433.3203"/><rect fill="none" filter="url(#f1mnbg7eyi3gvy)" height="906.9375" style="stroke:#000000;stroke-width:2.0;" width="1232" x="298" y="234.125"/><rect fill="none" filter="url(#f1mnbg7eyi3gvy)" height="689.0703" style="stroke:#000000;stroke-width:2.0;" width="1212" x="308" y="387.0547"/><rect fill="none" filter="url(#f1mnbg7eyi3gvy)" height="435.3359" style="stroke:#000000;stroke-width:2.0;" width="619" x="643" y="550.7188"/><line style="stroke:#A80036;stroke-width:1.0;stroke-dasharray:5.0,5.0;" x1="245" x2="245" y1="104.5938" y2="1158.0625"/><line style="stroke:#A80036;stroke-width:1.0;stroke-dasharray:5.0,5.0;" x1="414" x2="414" y1="104.5938" y2="1158.0625"/><line style="stroke:#A80036;stroke-width:1.0;stroke-dasharray:5.0,5.0;" x1="705" x2="705" y1="104.5938" y2="1158.0625"/><line style="stroke:#A80036;stroke-width:1.0;stroke-dasharray:5.0,5.0;" x1="1008.5" x2="1008.5" y1="104.5938" y2="1158.0625"/><line style="stroke:#A80036;stroke-width:1.0;stroke-dasharray:5.0,5.0;" x1="1202" x2="1202" y1="104.5938" y2="1158.0625"/><line style="stroke:#A80036;stroke-width:1.0;stroke-dasharray:5.0,5.0;" x1="1299" x2="1299" y1="104.5938" y2="1158.0625"/><path d="M187,78.2969 L303,78.2969 C308,78.2969 308,91.4453 308,91.4453 C308,91.4453 308,104.5938 303,104.5938 L187,104.5938 C182,104.5938 182,91.4453 182,91.4453 C182,91.4453 182,78.2969 187,78.2969 " fill="#FEFECE" filter="url(#f1mnbg7eyi3gvy)" style="stroke:#A80036;stroke-width:2.0;"/><path d="M303,78.2969 C298,78.2969 298,91.4453 298,91.4453 C298,104.5938 303,104.5938 303,104.5938 " fill="none" style="stroke:#A80036;stroke-width:2.0;"/><text fill="#000000" font-family="sans-serif" font-size="14" lengthAdjust="spacing" textLength="106" x="187" y="96.292">GDP Event Hub</text><path d="M187,1157.0625 L303,1157.0625 C308,1157.0625 308,1170.2109 308,1170.2109 C308,1170.2109 308,1183.3594 303,1183.3594 L187,1183.3594 C182,1183.3594 182,1170.2109 182,1170.2109 C182,1170.2109 182,1157.0625 187,1157.0625 " fill="#FEFECE" filter="url(#f1mnbg7eyi3gvy)" style="stroke:#A80036;stroke-width:2.0;"/><path d="M303,1157.0625 C298,1157.0625 298,1170.2109 298,1170.2109 C298,1183.3594 303,1183.3594 303,1183.3594 " fill="none" style="stroke:#A80036;stroke-width:2.0;"/><text fill="#000000" font-family="sans-serif" font-size="14" lengthAdjust="spacing" textLength="106" x="187" y="1175.0576">GDP Event Hub</text><rect fill="#FEFECE" filter="url(#f1mnbg7eyi3gvy)" height="30.2969" style="stroke:#A80036;stroke-width:1.5;" width="188" x="318" y="69.2969"/><text fill="#000000" font-family="sans-serif" font-size="14" lengthAdjust="spacing" textLength="174" x="325" y="89.292">GDP Message Consumer</text><rect fill="#FEFECE" filter="url(#f1mnbg7eyi3gvy)" height="30.2969" style="stroke:#A80036;stroke-width:1.5;" width="188" x="318" y="1157.0625"/><text fill="#000000" font-family="sans-serif" font-size="14" lengthAdjust="spacing" textLength="174" x="325" y="1177.0576">GDP Message Consumer</text><rect fill="#FEFECE" filter="url(#f1mnbg7eyi3gvy)" height="30.2969" style="stroke:#A80036;stroke-width:1.5;" width="100" x="653" y="69.2969"/><text fill="#000000" font-family="sans-serif" font-size="14" lengthAdjust="spacing" textLength="86" x="660" y="89.292">SP Creditore</text><rect fill="#FEFECE" filter="url(#f1mnbg7eyi3gvy)" height="30.2969" style="stroke:#A80036;stroke-width:1.5;" width="100" x="653" y="1157.0625"/><text fill="#000000" font-family="sans-serif" font-size="14" lengthAdjust="spacing" textLength="86" x="660" y="1177.0576">SP Creditore</text><text fill="#000000" font-family="sans-serif" font-size="14" lengthAdjust="spacing" textLength="37" x="987.5" y="101.292">SRTP</text><path d="M991,52.2969 C991,42.2969 1009,42.2969 1009,42.2969 C1009,42.2969 1027,42.2969 1027,52.2969 L1027,78.2969 C1027,88.2969 1009,88.2969 1009,88.2969 C1009,88.2969 991,88.2969 991,78.2969 L991,52.2969 " fill="#FEFECE" filter="url(#f1mnbg7eyi3gvy)" style="stroke:#A80036;stroke-width:1.5;"/><path d="M991,52.2969 C991,62.2969 1009,62.2969 1009,62.2969 C1009,62.2969 1027,62.2969 1027,52.2969 " fill="none" style="stroke:#A80036;stroke-width:1.5;"/><text fill="#000000" font-family="sans-serif" font-size="14" lengthAdjust="spacing" textLength="37" x="987.5" y="1170.0576">SRTP</text><path d="M991,1183.3594 C991,1173.3594 1009,1173.3594 1009,1173.3594 C1009,1173.3594 1027,1173.3594 1027,1183.3594 L1027,1209.3594 C1027,1219.3594 1009,1219.3594 1009,1219.3594 C1009,1219.3594 991,1219.3594 991,1209.3594 L991,1183.3594 " fill="#FEFECE" filter="url(#f1mnbg7eyi3gvy)" style="stroke:#A80036;stroke-width:1.5;"/><path d="M991,1183.3594 C991,1193.3594 1009,1193.3594 1009,1193.3594 C1009,1193.3594 1027,1193.3594 1027,1183.3594 " fill="none" style="stroke:#A80036;stroke-width:1.5;"/><rect fill="#FEFECE" filter="url(#f1mnbg7eyi3gvy)" height="30.2969" style="stroke:#A80036;stroke-width:1.5;" width="96" x="1152" y="69.2969"/><text fill="#000000" font-family="sans-serif" font-size="14" lengthAdjust="spacing" textLength="82" x="1159" y="89.292">SP Debitore</text><rect fill="#FEFECE" filter="url(#f1mnbg7eyi3gvy)" height="30.2969" style="stroke:#A80036;stroke-width:1.5;" width="96" x="1152" y="1157.0625"/><text fill="#000000" font-family="sans-serif" font-size="14" lengthAdjust="spacing" textLength="82" x="1159" y="1177.0576">SP Debitore</text><rect fill="#FEFECE" filter="url(#f1mnbg7eyi3gvy)" height="30.2969" style="stroke:#A80036;stroke-width:1.5;" width="70" x="1262" y="69.2969"/><text fill="#000000" font-family="sans-serif" font-size="14" lengthAdjust="spacing" textLength="56" x="1269" y="89.292">SPC_DB</text><rect fill="#FEFECE" filter="url(#f1mnbg7eyi3gvy)" height="30.2969" style="stroke:#A80036;stroke-width:1.5;" width="70" x="1262" y="1157.0625"/><text fill="#000000" font-family="sans-serif" font-size="14" lengthAdjust="spacing" textLength="56" x="1269" y="1177.0576">SPC_DB</text><rect fill="#FFFFFF" filter="url(#f1mnbg7eyi3gvy)" height="999.7695" style="stroke:#A80036;stroke-width:1.0;" width="10" x="409" y="148.293"/><rect fill="#FFFFFF" filter="url(#f1mnbg7eyi3gvy)" height="958.0703" style="stroke:#A80036;stroke-width:1.0;" width="10" x="700" y="189.9922"/><rect fill="#FFFFFF" filter="url(#f1mnbg7eyi3gvy)" height="53.2656" style="stroke:#A80036;stroke-width:1.0;" width="10" x="1004" y="219.125"/><rect fill="#FFFFFF" filter="url(#f1mnbg7eyi3gvy)" height="29.1328" style="stroke:#A80036;stroke-width:1.0;" width="10" x="1004" y="467.4531"/><rect fill="#FFFFFF" filter="url(#f1mnbg7eyi3gvy)" height="29.1328" style="stroke:#A80036;stroke-width:1.0;" width="10" x="1004" y="660.25"/><rect fill="#FFFFFF" filter="url(#f1mnbg7eyi3gvy)" height="29.1328" style="stroke:#A80036;stroke-width:1.0;" width="10" x="1004" y="804.5859"/><rect fill="#FFFFFF" filter="url(#f1mnbg7eyi3gvy)" height="29.1328" style="stroke:#A80036;stroke-width:1.0;" width="10" x="1004" y="948.9219"/><rect fill="#FFFFFF" filter="url(#f1mnbg7eyi3gvy)" height="462.3359" style="stroke:#A80036;stroke-width:1.0;" width="10" x="1197" y="530.7188"/><rect fill="#FFFFFF" filter="url(#f1mnbg7eyi3gvy)" height="559.7344" style="stroke:#A80036;stroke-width:1.0;" width="10" x="1294" y="433.3203"/><polygon fill="#A80036" points="397,144.293,407,148.293,397,152.293,401,148.293" style="stroke:#A80036;stroke-width:1.0;"/><line style="stroke:#A80036;stroke-width:1.0;" x1="245" x2="403" y1="148.293" y2="148.293"/><text fill="#000000" font-family="sans-serif" font-size="13" font-weight="bold" lengthAdjust="spacing" textLength="103" x="252" y="143.2271">GDP Message</text><path d="M5,119.5938 L5,159.5938 L236,159.5938 L236,129.5938 L226,119.5938 L5,119.5938 " fill="#FBFB77" filter="url(#f1mnbg7eyi3gvy)" style="stroke:#A80036;stroke-width:1.0;"/><path d="M226,119.5938 L226,129.5938 L236,129.5938 L226,119.5938 " fill="#FBFB77" style="stroke:#A80036;stroke-width:1.0;"/><text fill="#000000" font-family="sans-serif" font-size="13" font-weight="bold" lengthAdjust="spacing" textLength="152" x="11" y="136.6606">Operation = UPDATE</text><text fill="#000000" font-family="sans-serif" font-size="13" font-weight="bold" lengthAdjust="spacing" textLength="126" x="11" y="151.7935">Status = INVALID</text><text fill="#000000" font-family="sans-serif" font-size="13" lengthAdjust="spacing" textLength="13" x="141" y="151.7935">or</text><text fill="#000000" font-family="sans-serif" font-size="13" font-weight="bold" lengthAdjust="spacing" textLength="63" x="158" y="151.7935">EXPIRED</text><polygon fill="#A80036" points="688,185.9922,698,189.9922,688,193.9922,692,189.9922" style="stroke:#A80036;stroke-width:1.0;"/><line style="stroke:#A80036;stroke-width:1.0;" x1="419" x2="694" y1="189.9922" y2="189.9922"/><text fill="#000000" font-family="sans-serif" font-size="13" font-weight="bold" lengthAdjust="spacing" textLength="262" x="426" y="184.9263">Process UPDATE INVALID / EXPIRED</text><polygon fill="#A80036" points="992,215.125,1002,219.125,992,223.125,996,219.125" style="stroke:#A80036;stroke-width:1.0;"/><line style="stroke:#A80036;stroke-width:1.0;" x1="710" x2="998" y1="219.125" y2="219.125"/><text fill="#000000" font-family="sans-serif" font-size="13" font-weight="bold" lengthAdjust="spacing" textLength="179" x="717" y="214.0591">findRtpByCompositeKey</text><path d="M298,234.125 L362,234.125 L362,241.2578 L352,251.2578 L298,251.2578 L298,234.125 " fill="#EEEEEE" style="stroke:#000000;stroke-width:1.0;"/><rect fill="none" height="906.9375" style="stroke:#000000;stroke-width:2.0;" width="1232" x="298" y="234.125"/><text fill="#000000" font-family="sans-serif" font-size="13" font-weight="bold" lengthAdjust="spacing" textLength="19" x="313" y="247.1919">alt</text><text fill="#000000" font-family="sans-serif" font-size="11" font-weight="bold" lengthAdjust="spacing" textLength="5" x="377" y="246.3354">[</text><text fill="#000000" font-family="sans-serif" font-size="11" font-weight="bold" lengthAdjust="spacing" textLength="66" x="382" y="246.3354">RTP exists</text><text fill="#000000" font-family="sans-serif" font-size="11" font-weight="bold" lengthAdjust="spacing" textLength="5" x="448" y="246.3354">]</text><polygon fill="#A80036" points="721,268.3906,711,272.3906,721,276.3906,717,272.3906" style="stroke:#A80036;stroke-width:1.0;"/><line style="stroke:#A80036;stroke-width:1.0;stroke-dasharray:2.0,2.0;" x1="715" x2="1008" y1="272.3906" y2="272.3906"/><text fill="#000000" font-family="sans-serif" font-size="13" font-weight="bold" lengthAdjust="spacing" textLength="28" x="727" y="267.3247">RTP</text><line style="stroke:#A80036;stroke-width:1.0;" x1="710" x2="752" y1="330.2891" y2="330.2891"/><line style="stroke:#A80036;stroke-width:1.0;" x1="752" x2="752" y1="330.2891" y2="343.2891"/><line style="stroke:#A80036;stroke-width:1.0;" x1="711" x2="752" y1="343.2891" y2="343.2891"/><polygon fill="#A80036" points="721,339.2891,711,343.2891,721,347.2891,717,343.2891" style="stroke:#A80036;stroke-width:1.0;"/><text fill="#000000" font-family="sans-serif" font-size="13" font-weight="bold" lengthAdjust="spacing" textLength="249" x="717" y="325.2231">Check if RTP status is cancellable</text><path d="M978,285.3906 L978,370.3906 L1198,370.3906 L1198,295.3906 L1188,285.3906 L978,285.3906 " fill="#FBFB77" filter="url(#f1mnbg7eyi3gvy)" style="stroke:#A80036;stroke-width:1.0;"/><path d="M1188,285.3906 L1188,295.3906 L1198,295.3906 L1188,285.3906 " fill="#FBFB77" style="stroke:#A80036;stroke-width:1.0;"/><text fill="#000000" font-family="sans-serif" font-size="13" lengthAdjust="spacing" textLength="199" x="984" y="302.4575">&#9989; Valid statuses for cancellation:</text><text fill="#000000" font-family="sans-serif" font-size="13" lengthAdjust="spacing" textLength="68" x="984" y="317.5903">- CREATED</text><text fill="#000000" font-family="sans-serif" font-size="13" lengthAdjust="spacing" textLength="43" x="984" y="332.7231">- SENT</text><text fill="#000000" font-family="sans-serif" font-size="13" lengthAdjust="spacing" textLength="77" x="984" y="347.856">- ACCEPTED</text><text fill="#000000" font-family="sans-serif" font-size="13" lengthAdjust="spacing" textLength="119" x="984" y="362.9888">- USER_ACCEPTED</text><path d="M308,387.0547 L372,387.0547 L372,394.1875 L362,404.1875 L308,404.1875 L308,387.0547 " fill="#EEEEEE" style="stroke:#000000;stroke-width:1.0;"/><rect fill="none" height="689.0703" style="stroke:#000000;stroke-width:2.0;" width="1212" x="308" y="387.0547"/><text fill="#000000" font-family="sans-serif" font-size="13" font-weight="bold" lengthAdjust="spacing" textLength="19" x="323" y="400.1216">alt</text><text fill="#000000" font-family="sans-serif" font-size="11" font-weight="bold" lengthAdjust="spacing" textLength="5" x="387" y="399.2651">[</text><text fill="#000000" font-family="sans-serif" font-size="11" font-weight="bold" lengthAdjust="spacing" textLength="91" x="392" y="399.2651">Status is valid</text><text fill="#000000" font-family="sans-serif" font-size="11" font-weight="bold" lengthAdjust="spacing" textLength="5" x="483" y="399.2651">]</text><line style="stroke:#A80036;stroke-width:1.0;" x1="710" x2="757" y1="420.3203" y2="420.3203"/><line style="stroke:#A80036;stroke-width:1.0;" x1="757" x2="757" y1="420.3203" y2="433.3203"/><line style="stroke:#A80036;stroke-width:1.0;" x1="716" x2="757" y1="433.3203" y2="433.3203"/><polygon fill="#A80036" points="726,429.3203,716,433.3203,726,437.3203,722,433.3203" style="stroke:#A80036;stroke-width:1.0;"/><text fill="#000000" font-family="sans-serif" font-size="13" font-weight="bold" lengthAdjust="spacing" textLength="263" x="722" y="415.2544">Set RTP status to RFC_SENT (initial)</text><path d="M992,410.6875 L992,435.6875 L1199,435.6875 L1199,420.6875 L1189,410.6875 L992,410.6875 " fill="#FBFB77" filter="url(#f1mnbg7eyi3gvy)" style="stroke:#A80036;stroke-width:1.0;"/><path d="M1189,410.6875 L1189,420.6875 L1199,420.6875 L1189,410.6875 " fill="#FBFB77" style="stroke:#A80036;stroke-width:1.0;"/><text fill="#000000" font-family="sans-serif" font-size="13" lengthAdjust="spacing" textLength="186" x="998" y="427.7544">Cancellation request initiated</text><polygon fill="#A80036" points="992,463.4531,1002,467.4531,992,471.4531,996,467.4531" style="stroke:#A80036;stroke-width:1.0;"/><line style="stroke:#A80036;stroke-width:1.0;" x1="710" x2="998" y1="467.4531" y2="467.4531"/><text fill="#000000" font-family="sans-serif" font-size="13" font-weight="bold" lengthAdjust="spacing" textLength="233" x="717" y="462.3872">Save RTP with RFC_SENT status</text><polygon fill="#A80036" points="721,492.5859,711,496.5859,721,500.5859,717,496.5859" style="stroke:#A80036;stroke-width:1.0;"/><line style="stroke:#A80036;stroke-width:1.0;stroke-dasharray:2.0,2.0;" x1="715" x2="1008" y1="496.5859" y2="496.5859"/><text fill="#000000" font-family="sans-serif" font-size="13" font-weight="bold" lengthAdjust="spacing" textLength="78" x="727" y="491.52">Saved RTP</text><polygon fill="#A80036" points="1185,526.7188,1195,530.7188,1185,534.7188,1189,530.7188" style="stroke:#A80036;stroke-width:1.0;"/><line style="stroke:#A80036;stroke-width:1.0;" x1="710" x2="1191" y1="530.7188" y2="530.7188"/><text fill="#000000" font-family="sans-serif" font-size="13" font-weight="bold" lengthAdjust="spacing" textLength="468" x="717" y="525.6528">POST /sepa-request-to-pay-requests/{id}/cancellation-requests</text><path d="M1212,509.5859 L1212,534.5859 L1506,534.5859 L1506,519.5859 L1496,509.5859 L1212,509.5859 " fill="#FBFB77" filter="url(#f1mnbg7eyi3gvy)" style="stroke:#A80036;stroke-width:1.0;"/><path d="M1496,509.5859 L1496,519.5859 L1506,519.5859 L1496,509.5859 " fill="#FBFB77" style="stroke:#A80036;stroke-width:1.0;"/><text fill="#000000" font-family="sans-serif" font-size="13" lengthAdjust="spacing" textLength="33" x="1218" y="526.6528">Send</text><text fill="#000000" font-family="sans-serif" font-size="13" font-weight="bold" lengthAdjust="spacing" textLength="150" x="1255" y="526.6528">cancellation request</text><text fill="#000000" font-family="sans-serif" font-size="13" lengthAdjust="spacing" textLength="82" x="1409" y="526.6528">to SP Debtor</text><path d="M643,550.7188 L707,550.7188 L707,557.8516 L697,567.8516 L643,567.8516 L643,550.7188 " fill="#EEEEEE" style="stroke:#000000;stroke-width:1.0;"/><rect fill="none" height="435.3359" style="stroke:#000000;stroke-width:2.0;" width="619" x="643" y="550.7188"/><text fill="#000000" font-family="sans-serif" font-size="13" font-weight="bold" lengthAdjust="spacing" textLength="19" x="658" y="563.7856">alt</text><text fill="#000000" font-family="sans-serif" font-size="11" font-weight="bold" lengthAdjust="spacing" textLength="5" x="722" y="562.9292">[</text><text fill="#000000" font-family="sans-serif" font-size="11" font-weight="bold" lengthAdjust="spacing" textLength="98" x="727" y="562.9292">Async flow EPC</text><text fill="#000000" font-family="sans-serif" font-size="11" font-weight="bold" lengthAdjust="spacing" textLength="5" x="825" y="562.9292">]</text><polygon fill="#A80036" points="721,584.9844,711,588.9844,721,592.9844,717,588.9844" style="stroke:#A80036;stroke-width:1.0;"/><line style="stroke:#A80036;stroke-width:1.0;stroke-dasharray:2.0,2.0;" x1="715" x2="1196" y1="588.9844" y2="588.9844"/><text fill="#000000" font-family="sans-serif" font-size="13" font-weight="bold" lengthAdjust="spacing" textLength="115" x="727" y="583.9185">OK empty Body</text><line style="stroke:#A80036;stroke-width:1.0;" x1="710" x2="752" y1="618.1172" y2="618.1172"/><line style="stroke:#A80036;stroke-width:1.0;" x1="752" x2="752" y1="618.1172" y2="631.1172"/><line style="stroke:#A80036;stroke-width:1.0;" x1="711" x2="752" y1="631.1172" y2="631.1172"/><polygon fill="#A80036" points="721,627.1172,711,631.1172,721,635.1172,717,631.1172" style="stroke:#A80036;stroke-width:1.0;"/><text fill="#000000" font-family="sans-serif" font-size="13" font-weight="bold" lengthAdjust="spacing" textLength="206" x="717" y="613.0513">Set RTP status to RFC_SENT</text><polygon fill="#A80036" points="992,656.25,1002,660.25,992,664.25,996,660.25" style="stroke:#A80036;stroke-width:1.0;"/><line style="stroke:#A80036;stroke-width:1.0;" x1="710" x2="998" y1="660.25" y2="660.25"/><text fill="#000000" font-family="sans-serif" font-size="13" font-weight="bold" lengthAdjust="spacing" textLength="233" x="717" y="655.1841">Save RTP with RFC_SENT status</text><polygon fill="#A80036" points="721,685.3828,711,689.3828,721,693.3828,717,689.3828" style="stroke:#A80036;stroke-width:1.0;"/><line style="stroke:#A80036;stroke-width:1.0;stroke-dasharray:2.0,2.0;" x1="715" x2="1008" y1="689.3828" y2="689.3828"/><text fill="#000000" font-family="sans-serif" font-size="13" font-weight="bold" lengthAdjust="spacing" textLength="78" x="727" y="684.3169">Saved RTP</text><line style="stroke:#000000;stroke-width:1.0;stroke-dasharray:2.0,2.0;" x1="643" x2="1262" y1="698.3828" y2="698.3828"/><text fill="#000000" font-family="sans-serif" font-size="11" font-weight="bold" lengthAdjust="spacing" textLength="5" x="648" y="708.5933">[</text><text fill="#000000" font-family="sans-serif" font-size="11" font-weight="bold" lengthAdjust="spacing" textLength="91" x="653" y="708.5933">Sync flow EPC</text><text fill="#000000" font-family="sans-serif" font-size="11" font-weight="bold" lengthAdjust="spacing" textLength="5" x="744" y="708.5933">]</text><polygon fill="#A80036" points="721,729.3203,711,733.3203,721,737.3203,717,733.3203" style="stroke:#A80036;stroke-width:1.0;"/><line style="stroke:#A80036;stroke-width:1.0;stroke-dasharray:2.0,2.0;" x1="715" x2="1196" y1="733.3203" y2="733.3203"/><text fill="#000000" font-family="sans-serif" font-size="13" font-weight="bold" lengthAdjust="spacing" textLength="85" x="727" y="728.2544">OK payload</text><line style="stroke:#A80036;stroke-width:1.0;" x1="710" x2="752" y1="762.4531" y2="762.4531"/><line style="stroke:#A80036;stroke-width:1.0;" x1="752" x2="752" y1="762.4531" y2="775.4531"/><line style="stroke:#A80036;stroke-width:1.0;" x1="711" x2="752" y1="775.4531" y2="775.4531"/><polygon fill="#A80036" points="721,771.4531,711,775.4531,721,779.4531,717,775.4531" style="stroke:#A80036;stroke-width:1.0;"/><text fill="#000000" font-family="sans-serif" font-size="13" font-weight="bold" lengthAdjust="spacing" textLength="219" x="717" y="757.3872">Set RTP status to CANCELLED</text><polygon fill="#A80036" points="992,800.5859,1002,804.5859,992,808.5859,996,804.5859" style="stroke:#A80036;stroke-width:1.0;"/><line style="stroke:#A80036;stroke-width:1.0;" x1="710" x2="998" y1="804.5859" y2="804.5859"/><text fill="#000000" font-family="sans-serif" font-size="13" font-weight="bold" lengthAdjust="spacing" textLength="246" x="717" y="799.52">Save RTP with CANCELLED status</text><polygon fill="#A80036" points="721,829.7188,711,833.7188,721,837.7188,717,833.7188" style="stroke:#A80036;stroke-width:1.0;"/><line style="stroke:#A80036;stroke-width:1.0;stroke-dasharray:2.0,2.0;" x1="715" x2="1008" y1="833.7188" y2="833.7188"/><text fill="#000000" font-family="sans-serif" font-size="13" font-weight="bold" lengthAdjust="spacing" textLength="78" x="727" y="828.6528">Saved RTP</text><line style="stroke:#000000;stroke-width:1.0;stroke-dasharray:2.0,2.0;" x1="643" x2="1262" y1="842.7188" y2="842.7188"/><text fill="#000000" font-family="sans-serif" font-size="11" font-weight="bold" lengthAdjust="spacing" textLength="5" x="648" y="852.9292">[</text><text fill="#000000" font-family="sans-serif" font-size="11" font-weight="bold" lengthAdjust="spacing" textLength="131" x="653" y="852.9292">Error Sync Response</text><text fill="#000000" font-family="sans-serif" font-size="11" font-weight="bold" lengthAdjust="spacing" textLength="5" x="784" y="852.9292">]</text><polygon fill="#A80036" points="721,873.6563,711,877.6563,721,881.6563,717,877.6563" style="stroke:#A80036;stroke-width:1.0;"/><line style="stroke:#A80036;stroke-width:1.0;stroke-dasharray:2.0,2.0;" x1="715" x2="1196" y1="877.6563" y2="877.6563"/><text fill="#000000" font-family="sans-serif" font-size="13" font-weight="bold" lengthAdjust="spacing" textLength="225" x="727" y="872.5903">Error response (e.g., 4xx, 5xx)</text><line style="stroke:#A80036;stroke-width:1.0;" x1="710" x2="752" y1="906.7891" y2="906.7891"/><line style="stroke:#A80036;stroke-width:1.0;" x1="752" x2="752" y1="906.7891" y2="919.7891"/><line style="stroke:#A80036;stroke-width:1.0;" x1="711" x2="752" y1="919.7891" y2="919.7891"/><polygon fill="#A80036" points="721,915.7891,711,919.7891,721,923.7891,717,919.7891" style="stroke:#A80036;stroke-width:1.0;"/><text fill="#000000" font-family="sans-serif" font-size="13" font-weight="bold" lengthAdjust="spacing" textLength="248" x="717" y="901.7231">Set RTP status to ERROR_CANCEL</text><polygon fill="#A80036" points="992,944.9219,1002,948.9219,992,952.9219,996,948.9219" style="stroke:#A80036;stroke-width:1.0;"/><line style="stroke:#A80036;stroke-width:1.0;" x1="710" x2="998" y1="948.9219" y2="948.9219"/><text fill="#000000" font-family="sans-serif" font-size="13" font-weight="bold" lengthAdjust="spacing" textLength="275" x="717" y="943.856">Save RTP with ERROR_CANCEL status</text><polygon fill="#A80036" points="721,974.0547,711,978.0547,721,982.0547,717,978.0547" style="stroke:#A80036;stroke-width:1.0;"/><line style="stroke:#A80036;stroke-width:1.0;stroke-dasharray:2.0,2.0;" x1="715" x2="1008" y1="978.0547" y2="978.0547"/><text fill="#000000" font-family="sans-serif" font-size="13" font-weight="bold" lengthAdjust="spacing" textLength="78" x="727" y="972.9888">Saved RTP</text><polygon fill="#A80036" points="430,1010.1875,420,1014.1875,430,1018.1875,426,1014.1875" style="stroke:#A80036;stroke-width:1.0;"/><line style="stroke:#A80036;stroke-width:1.0;stroke-dasharray:2.0,2.0;" x1="424" x2="699" y1="1014.1875" y2="1014.1875"/><text fill="#000000" font-family="sans-serif" font-size="13" font-weight="bold" lengthAdjust="spacing" textLength="148" x="436" y="1009.1216">Outcome processed</text><line style="stroke:#000000;stroke-width:1.0;stroke-dasharray:2.0,2.0;" x1="308" x2="1520" y1="1023.1875" y2="1023.1875"/><text fill="#000000" font-family="sans-serif" font-size="11" font-weight="bold" lengthAdjust="spacing" textLength="5" x="313" y="1033.3979">[</text><text fill="#000000" font-family="sans-serif" font-size="11" font-weight="bold" lengthAdjust="spacing" textLength="220" x="318" y="1033.3979">Invalid RTP status for cancellation</text><text fill="#000000" font-family="sans-serif" font-size="11" font-weight="bold" lengthAdjust="spacing" textLength="5" x="538" y="1033.3979">]</text><polygon fill="#A80036" points="430,1059.125,420,1063.125,430,1067.125,426,1063.125" style="stroke:#A80036;stroke-width:1.0;"/><line style="stroke:#A80036;stroke-width:1.0;" x1="424" x2="699" y1="1063.125" y2="1063.125"/><text fill="#000000" font-family="sans-serif" font-size="13" font-weight="bold" lengthAdjust="spacing" textLength="183" x="436" y="1058.0591">Error - Invalid RTP status</text><path d="M715,1041.9922 L715,1066.9922 L1063,1066.9922 L1063,1051.9922 L1053,1041.9922 L715,1041.9922 " fill="#FBFB77" filter="url(#f1mnbg7eyi3gvy)" style="stroke:#A80036;stroke-width:1.0;"/><path d="M1053,1041.9922 L1053,1051.9922 L1063,1051.9922 L1053,1041.9922 " fill="#FBFB77" style="stroke:#A80036;stroke-width:1.0;"/><text fill="#000000" font-family="sans-serif" font-size="13" lengthAdjust="spacing" textLength="327" x="721" y="1059.0591">RTP is already in a final state (e.g., PAID, REJECTED)</text><line style="stroke:#000000;stroke-width:1.0;stroke-dasharray:2.0,2.0;" x1="298" x2="1530" y1="1084.125" y2="1084.125"/><text fill="#000000" font-family="sans-serif" font-size="11" font-weight="bold" lengthAdjust="spacing" textLength="5" x="303" y="1094.3354">[</text><text fill="#000000" font-family="sans-serif" font-size="11" font-weight="bold" lengthAdjust="spacing" textLength="90" x="308" y="1094.3354">RTP not found</text><text fill="#000000" font-family="sans-serif" font-size="11" font-weight="bold" lengthAdjust="spacing" textLength="5" x="398" y="1094.3354">]</text><polygon fill="#A80036" points="721,1099.9297,711,1103.9297,721,1107.9297,717,1103.9297" style="stroke:#A80036;stroke-width:1.0;"/><line style="stroke:#A80036;stroke-width:1.0;stroke-dasharray:2.0,2.0;" x1="715" x2="1008" y1="1103.9297" y2="1103.9297"/><polygon fill="#A80036" points="430,1129.0625,420,1133.0625,430,1137.0625,426,1133.0625" style="stroke:#A80036;stroke-width:1.0;"/><line style="stroke:#A80036;stroke-width:1.0;stroke-dasharray:2.0,2.0;" x1="424" x2="699" y1="1133.0625" y2="1133.0625"/><text fill="#000000" font-family="sans-serif" font-size="13" font-weight="bold" lengthAdjust="spacing" textLength="156" x="436" y="1127.9966">Error - RTP not found</text><!--SRC=[jLLBRjim4Dtp58Ei4Y6AD-qcG0iuajAwIMDLSeBk35eQ9qHaKHLfnqRHPM_Hq_Ka7LAIJN-2kejk396Sp_kOG_KiIgYbGgQ5BX0-X35yHgNu8u8FddSVX_rH18ExX_xj88GUH5_ZGHA5dWVNXNnXxDiSvmWd9YzQOAdXutno0bp15tF0AbvhaOcAqyc9MpoGfPhFiBQntM8xF8qXg34NMjPemz8uO3dNVC8LjKoJKTniqyTUPeWJDp5ap082__swsoNnSo1v7YkbHYXmgXdGsR32cciXItW7ZGuKOWvIpVLSqMuh2uaXQzfVQyEmpC4KOundMYoutX1ctOU1GemCYhYM6O60rzNUr34YCFgnwSJSv4z5cIUwkbe5SbP99JJUu6ehoKZ4UA4fc3u1bq9fPUcO8_0tM6XfztFSoGRekZQ1mHDcpo2cO0geHXAX8EDbXaN19mNQEbRJMZm-6L41Vl_w2G-y47cRWWgc95wNPUI-j84-14b4QeJjAetkHkrdFmYYU7DodqR9sDdRY0_GK4xNw1QcjSMrIoT5xJBH4fBhO6owmgaeXHQyE6iJDvGk8N20Gurq7PI69bvZRiDTwyRXrLRlri2KBz1sVn7wQTEumT9stRR35jcnpbJ9eJFme8KEwz3-yuRf27eAA-wtu7qj_OglkgNgVHVvZvxhp_heW1of4T_piWEgq2qXKPkhIJTpLvgmWTSOrbUhCeCfJHY8ug3jOx27Bj_X3U2iqYkualdA2JhErhs4V_3Ya1j_zsFV4RE71Kqp2ZwICNbJI9uVJJVetmNHxQqT8aVmNOV_Ty9HNTF5jxGJL1LDHNoDTXDQjr5mYXUF5-VmPhayXxVBvTdHMaH9Cap63SNZv70p_gCYPSxsRcmSxczjpu-TjsmurvcS8LJDQuBcFyBMSWzAE_jSHNO7x_PST4it1lYmN-J03327D6fvKIFFLpGCWGEzKBomAMlxuluWF8Sa-XG5DBVFM2j32zSKeQA4SLxcUmyLEwJZ8KqwuBlbRAjjQTrbL-8F]--></g></svg>