<svg xmlns="http://www.w3.org/2000/svg" xmlns:xlink="http://www.w3.org/1999/xlink" contentStyleType="text/css" data-diagram-type="SEQUENCE" height="1447px" preserveAspectRatio="none" style="width:1560px;height:1447px;background:#FFFFFF;" version="1.1" viewBox="0 0 1560 1447" width="1560px" zoomAndPan="magnify"><title>GDP Message - **UPDATE INVALID / EXPIRED** Flow</title><defs><filter height="300%" id="f1fexoxxtnpsja" width="300%" x="-1" y="-1"><feGaussianBlur result="blurOut" stdDeviation="2"/><feColorMatrix in="blurOut" result="blurOut2" type="matrix" values="0 0 0 0 0 0 0 0 0 0 0 0 0 0 0 0 0 0 .4 0"/><feOffset dx="4" dy="4" in="blurOut2" result="blurOut3"/><feBlend in="SourceGraphic" in2="blurOut3" mode="normal"/></filter></defs><g><text fill="#000000" font-family="sans-serif" font-size="14" font-weight="bold" lengthAdjust="spacing" textLength="110.708" x="601.176" y="28.5352">GDP Message -</text><text fill="#000000" font-family="sans-serif" font-size="14" font-weight="bold" lengthAdjust="spacing" textLength="199.6504" x="716.4983" y="28.5352">UPDATE INVALID / EXPIRED</text><text fill="#000000" font-family="sans-serif" font-size="14" font-weight="bold" lengthAdjust="spacing" textLength="33.6123" x="920.7629" y="28.5352">Flow</text><g><title>GDP Message Consumer</title><rect fill="#FFFFFF" filter="url(#f1fexoxxtnpsja)" height="1176.9209" style="stroke:#A80036;stroke-width:1;" width="10" x="385.0439" y="165.4307"/></g><g><title>Redis</title><rect fill="#FFFFFF" filter="url(#f1fexoxxtnpsja)" height="53.6211" style="stroke:#A80036;stroke-width:1;" width="10" x="607.6265" y="207.3965"/></g><g><title>SP Creditore</title><rect fill="#FFFFFF" filter="url(#f1fexoxxtnpsja)" height="887.5156" style="stroke:#A80036;stroke-width:1;" width="10" x="753.4287" y="447.8359"/></g><g><title>SRTP</title><rect fill="#FFFFFF" filter="url(#f1fexoxxtnpsja)" height="108.5527" style="stroke:#A80036;stroke-width:1;" width="10" x="1031.917" y="477.1465"/></g><g><title>SRTP</title><rect fill="#FFFFFF" filter="url(#f1fexoxxtnpsja)" height="29.3105" style="stroke:#A80036;stroke-width:1;" width="10" x="1031.917" y="829.4941"/></g><g><title>SRTP</title><rect fill="#FFFFFF" filter="url(#f1fexoxxtnpsja)" height="29.3105" style="stroke:#A80036;stroke-width:1;" width="10" x="1031.917" y="974.6914"/></g><g><title>SRTP</title><rect fill="#FFFFFF" filter="url(#f1fexoxxtnpsja)" height="29.3105" style="stroke:#A80036;stroke-width:1;" width="10" x="1031.917" y="1119.8887"/></g><g><title>SP Debitore</title><rect fill="#FFFFFF" filter="url(#f1fexoxxtnpsja)" height="464.9473" style="stroke:#A80036;stroke-width:1;" width="10" x="1223.9717" y="699.252"/></g><rect fill="none" filter="url(#f1fexoxxtnpsja)" height="1112.9551" style="stroke:#000000;stroke-width:2;" width="1278.0034" x="268.5479" y="222.3965"/><rect fill="none" filter="url(#f1fexoxxtnpsja)" height="836.2051" style="stroke:#000000;stroke-width:2;" width="1258.0034" x="278.5479" y="492.1465"/><rect fill="none" filter="url(#f1fexoxxtnpsja)" height="592.1445" style="stroke:#000000;stroke-width:2;" width="1238.0034" x="288.5479" y="655.6309"/><rect fill="none" filter="url(#f1fexoxxtnpsja)" height="437.9473" style="stroke:#000000;stroke-width:2;" width="589.2241" x="697.856" y="719.252"/><g><title>GDP Event Hub</title><rect fill="#000000" fill-opacity="0.00000" height="1230.8867" width="8" x="223.7739" y="121.4648"/><line style="stroke:#A80036;stroke-width:1;stroke-dasharray:5,5;" x1="227" x2="227" y1="121.4648" y2="1352.3516"/></g><g><title>GDP Message Consumer</title><rect fill="#000000" fill-opacity="0.00000" height="1230.8867" width="8" x="386.0439" y="121.4648"/><line style="stroke:#A80036;stroke-width:1;stroke-dasharray:5,5;" x1="389.5479" x2="389.5479" y1="121.4648" y2="1352.3516"/></g><g><title>Redis</title><rect fill="#000000" fill-opacity="0.00000" height="1230.8867" width="8" x="608.6265" y="121.4648"/><line style="stroke:#A80036;stroke-width:1;stroke-dasharray:5,5;" x1="612.397" x2="612.397" y1="121.4648" y2="1352.3516"/></g><g><title>SP Creditore</title><rect fill="#000000" fill-opacity="0.00000" height="1230.8867" width="8" x="754.4287" y="121.4648"/><line style="stroke:#A80036;stroke-width:1;stroke-dasharray:5,5;" x1="757.856" x2="757.856" y1="121.4648" y2="1352.3516"/></g><g><title>SRTP</title><rect fill="#000000" fill-opacity="0.00000" height="1230.8867" width="8" x="1032.917" y="121.4648"/><line style="stroke:#A80036;stroke-width:1;stroke-dasharray:5,5;" x1="1036.4253" x2="1036.4253" y1="121.4648" y2="1352.3516"/></g><g><title>SP Debitore</title><rect fill="#000000" fill-opacity="0.00000" height="1230.8867" width="8" x="1224.9717" y="121.4648"/><line style="stroke:#A80036;stroke-width:1;stroke-dasharray:5,5;" x1="1228.8633" x2="1228.8633" y1="121.4648" y2="1352.3516"/></g><g class="participant participant-head" data-participant="Queue"><path d="M172,94.9766 L283.5479,94.9766 C288.5479,94.9766 288.5479,108.2207 288.5479,108.2207 C288.5479,108.2207 288.5479,121.4648 283.5479,121.4648 L172,121.4648 C167,121.4648 167,108.2207 167,108.2207 C167,108.2207 167,94.9766 172,94.9766" fill="#FEFECE" filter="url(#f1fexoxxtnpsja)" style="stroke:#A80036;stroke-width:2;"/><path d="M283.5479,94.9766 C278.5479,94.9766 278.5479,108.2207 278.5479,108.2207 C278.5479,121.4648 283.5479,121.4648 283.5479,121.4648" fill="none" style="stroke:#A80036;stroke-width:2;"/><text fill="#000000" font-family="sans-serif" font-size="14" lengthAdjust="spacing" textLength="101.5479" x="172" y="113.5117">GDP Event Hub</text></g><g class="participant participant-tail" data-participant="Queue"><path d="M172,1351.3516 L283.5479,1351.3516 C288.5479,1351.3516 288.5479,1364.5957 288.5479,1364.5957 C288.5479,1364.5957 288.5479,1377.8398 283.5479,1377.8398 L172,1377.8398 C167,1377.8398 167,1364.5957 167,1364.5957 C167,1364.5957 167,1351.3516 172,1351.3516" fill="#FEFECE" filter="url(#f1fexoxxtnpsja)" style="stroke:#A80036;stroke-width:2;"/><path d="M283.5479,1351.3516 C278.5479,1351.3516 278.5479,1364.5957 278.5479,1364.5957 C278.5479,1377.8398 283.5479,1377.8398 283.5479,1377.8398" fill="none" style="stroke:#A80036;stroke-width:2;"/><text fill="#000000" font-family="sans-serif" font-size="14" lengthAdjust="spacing" textLength="101.5479" x="172" y="1369.8867">GDP Event Hub</text></g><g class="participant participant-head" data-participant="Consumer"><rect fill="#FEFECE" filter="url(#f1fexoxxtnpsja)" height="30.4883" style="stroke:#A80036;stroke-width:1.5;" width="178.9922" x="298.5479" y="85.9766"/><text fill="#000000" font-family="sans-serif" font-size="14" lengthAdjust="spacing" textLength="164.9922" x="305.5479" y="106.5117">GDP Message Consumer</text></g><g class="participant participant-tail" data-participant="Consumer"><rect fill="#FEFECE" filter="url(#f1fexoxxtnpsja)" height="30.4883" style="stroke:#A80036;stroke-width:1.5;" width="178.9922" x="298.5479" y="1351.3516"/><text fill="#000000" font-family="sans-serif" font-size="14" lengthAdjust="spacing" textLength="164.9922" x="305.5479" y="1371.8867">GDP Message Consumer</text></g><g class="participant participant-head" data-participant="REDIS"><text fill="#000000" font-family="sans-serif" font-size="14" lengthAdjust="spacing" textLength="36.6475" x="591.3027" y="102.0234">Redis</text><text fill="#000000" font-family="sans-serif" font-size="14" lengthAdjust="spacing" textLength="164.459" x="527.397" y="118.5117">(Idempotency Key Store)</text><path d="M594.6265,52.4883 C594.6265,42.4883 612.6265,42.4883 612.6265,42.4883 C612.6265,42.4883 630.6265,42.4883 630.6265,52.4883 L630.6265,78.4883 C630.6265,88.4883 612.6265,88.4883 612.6265,88.4883 C612.6265,88.4883 594.6265,88.4883 594.6265,78.4883 L594.6265,52.4883" fill="#FEFECE" filter="url(#f1fexoxxtnpsja)" style="stroke:#A80036;stroke-width:1;"/><path d="M594.6265,52.4883 C594.6265,62.4883 612.6265,62.4883 612.6265,62.4883 C612.6265,62.4883 630.6265,62.4883 630.6265,52.4883" fill="none" style="stroke:#A80036;stroke-width:1;"/></g><g class="participant participant-tail" data-participant="REDIS"><text fill="#000000" font-family="sans-serif" font-size="14" lengthAdjust="spacing" textLength="36.6475" x="591.3027" y="1364.8867">Redis</text><text fill="#000000" font-family="sans-serif" font-size="14" lengthAdjust="spacing" textLength="164.459" x="527.397" y="1381.375">(Idempotency Key Store)</text><path d="M594.6265,1394.3281 C594.6265,1384.3281 612.6265,1384.3281 612.6265,1384.3281 C612.6265,1384.3281 630.6265,1384.3281 630.6265,1394.3281 L630.6265,1420.3281 C630.6265,1430.3281 612.6265,1430.3281 612.6265,1430.3281 C612.6265,1430.3281 594.6265,1430.3281 594.6265,1420.3281 L594.6265,1394.3281" fill="#FEFECE" filter="url(#f1fexoxxtnpsja)" style="stroke:#A80036;stroke-width:1;"/><path d="M594.6265,1394.3281 C594.6265,1404.3281 612.6265,1404.3281 612.6265,1404.3281 C612.6265,1404.3281 630.6265,1404.3281 630.6265,1394.3281" fill="none" style="stroke:#A80036;stroke-width:1;"/></g><g class="participant participant-head" data-participant="SPC"><rect fill="#FEFECE" filter="url(#f1fexoxxtnpsja)" height="30.4883" style="stroke:#A80036;stroke-width:1.5;" width="97.1455" x="707.856" y="85.9766"/><text fill="#000000" font-family="sans-serif" font-size="14" lengthAdjust="spacing" textLength="83.1455" x="714.856" y="106.5117">SP Creditore</text></g><g class="participant participant-tail" data-participant="SPC"><rect fill="#FEFECE" filter="url(#f1fexoxxtnpsja)" height="30.4883" style="stroke:#A80036;stroke-width:1.5;" width="97.1455" x="707.856" y="1351.3516"/><text fill="#000000" font-family="sans-serif" font-size="14" lengthAdjust="spacing" textLength="83.1455" x="714.856" y="1371.8867">SP Creditore</text></g><g class="participant participant-head" data-participant="SRTP"><text fill="#000000" font-family="sans-serif" font-size="14" lengthAdjust="spacing" textLength="32.9834" x="1017.4253" y="118.5117">SRTP</text><path d="M1018.917,68.9766 C1018.917,58.9766 1036.917,58.9766 1036.917,58.9766 C1036.917,58.9766 1054.917,58.9766 1054.917,68.9766 L1054.917,94.9766 C1054.917,104.9766 1036.917,104.9766 1036.917,104.9766 C1036.917,104.9766 1018.917,104.9766 1018.917,94.9766 L1018.917,68.9766" fill="#FEFECE" filter="url(#f1fexoxxtnpsja)" style="stroke:#A80036;stroke-width:1;"/><path d="M1018.917,68.9766 C1018.917,78.9766 1036.917,78.9766 1036.917,78.9766 C1036.917,78.9766 1054.917,78.9766 1054.917,68.9766" fill="none" style="stroke:#A80036;stroke-width:1;"/></g><g class="participant participant-tail" data-participant="SRTP"><text fill="#000000" font-family="sans-serif" font-size="14" lengthAdjust="spacing" textLength="32.9834" x="1017.4253" y="1364.8867">SRTP</text><path d="M1018.917,1377.8398 C1018.917,1367.8398 1036.917,1367.8398 1036.917,1367.8398 C1036.917,1367.8398 1054.917,1367.8398 1054.917,1377.8398 L1054.917,1403.8398 C1054.917,1413.8398 1036.917,1413.8398 1036.917,1413.8398 C1036.917,1413.8398 1018.917,1413.8398 1018.917,1403.8398 L1018.917,1377.8398" fill="#FEFECE" filter="url(#f1fexoxxtnpsja)" style="stroke:#A80036;stroke-width:1;"/><path d="M1018.917,1377.8398 C1018.917,1387.8398 1036.917,1387.8398 1036.917,1387.8398 C1036.917,1387.8398 1054.917,1387.8398 1054.917,1377.8398" fill="none" style="stroke:#A80036;stroke-width:1;"/></g><g class="participant participant-head" data-participant="SPD"><rect fill="#FEFECE" filter="url(#f1fexoxxtnpsja)" height="30.4883" style="stroke:#A80036;stroke-width:1.5;" width="92.2168" x="1180.8633" y="85.9766"/><text fill="#000000" font-family="sans-serif" font-size="14" lengthAdjust="spacing" textLength="78.2168" x="1187.8633" y="106.5117">SP Debitore</text></g><g class="participant participant-tail" data-participant="SPD"><rect fill="#FEFECE" filter="url(#f1fexoxxtnpsja)" height="30.4883" style="stroke:#A80036;stroke-width:1.5;" width="92.2168" x="1180.8633" y="1351.3516"/><text fill="#000000" font-family="sans-serif" font-size="14" lengthAdjust="spacing" textLength="78.2168" x="1187.8633" y="1371.8867">SP Debitore</text></g><g><title>GDP Message Consumer</title><rect fill="#FFFFFF" filter="url(#f1fexoxxtnpsja)" height="1176.9209" style="stroke:#A80036;stroke-width:1;" width="10" x="385.0439" y="165.4307"/></g><g><title>Redis</title><rect fill="#FFFFFF" filter="url(#f1fexoxxtnpsja)" height="53.6211" style="stroke:#A80036;stroke-width:1;" width="10" x="607.6265" y="207.3965"/></g><g><title>SP Creditore</title><rect fill="#FFFFFF" filter="url(#f1fexoxxtnpsja)" height="887.5156" style="stroke:#A80036;stroke-width:1;" width="10" x="753.4287" y="447.8359"/></g><g><title>SRTP</title><rect fill="#FFFFFF" filter="url(#f1fexoxxtnpsja)" height="108.5527" style="stroke:#A80036;stroke-width:1;" width="10" x="1031.917" y="477.1465"/></g><g><title>SRTP</title><rect fill="#FFFFFF" filter="url(#f1fexoxxtnpsja)" height="29.3105" style="stroke:#A80036;stroke-width:1;" width="10" x="1031.917" y="829.4941"/></g><g><title>SRTP</title><rect fill="#FFFFFF" filter="url(#f1fexoxxtnpsja)" height="29.3105" style="stroke:#A80036;stroke-width:1;" width="10" x="1031.917" y="974.6914"/></g><g><title>SRTP</title><rect fill="#FFFFFF" filter="url(#f1fexoxxtnpsja)" height="29.3105" style="stroke:#A80036;stroke-width:1;" width="10" x="1031.917" y="1119.8887"/></g><g><title>SP Debitore</title><rect fill="#FFFFFF" filter="url(#f1fexoxxtnpsja)" height="464.9473" style="stroke:#A80036;stroke-width:1;" width="10" x="1223.9717" y="699.252"/></g><g class="message" data-participant-1="Queue" data-participant-2="Consumer"><polygon fill="#A80036" points="373.0439,161.4307,383.0439,165.4307,373.0439,169.4307,377.0439,165.4307" style="stroke:#A80036;stroke-width:1;"/><line style="stroke:#A80036;stroke-width:1;" x1="227.7739" x2="379.0439" y1="165.4307" y2="165.4307"/><text fill="#000000" font-family="sans-serif" font-size="13" font-weight="bold" lengthAdjust="spacing" textLength="90.2129" x="234.7739" y="160.6885">GDP Message</text></g><path d="M5,136.4648 L5,176.4648 L218,176.4648 L218,146.4648 L208,136.4648 L5,136.4648" fill="#FBFB77" filter="url(#f1fexoxxtnpsja)" style="stroke:#A80036;stroke-width:1;"/><path d="M208,136.4648 L208,146.4648 L218,146.4648 L208,136.4648" fill="#FBFB77" style="stroke:#A80036;stroke-width:1;"/><text fill="#000000" font-family="sans-serif" font-size="13" font-weight="bold" lengthAdjust="spacing" textLength="139.9341" x="11" y="154.0332">Operation = UPDATE</text><text fill="#000000" font-family="sans-serif" font-size="13" font-weight="bold" lengthAdjust="spacing" textLength="115.54" x="11" y="169.3438">Status = INVALID</text><text fill="#000000" font-family="sans-serif" font-size="13" lengthAdjust="spacing" textLength="13.3047" x="130.6533" y="169.3438">or</text><text fill="#000000" font-family="sans-serif" font-size="13" font-weight="bold" lengthAdjust="spacing" textLength="55.8467" x="148.0713" y="169.3438">EXPIRED</text><g class="message" data-participant-1="Consumer" data-participant-2="REDIS"><polygon fill="#A80036" points="595.6265,203.3965,605.6265,207.3965,595.6265,211.3965,599.6265,207.3965" style="stroke:#A80036;stroke-width:1;"/><line style="stroke:#A80036;stroke-width:1;" x1="395.0439" x2="601.6265" y1="207.3965" y2="207.3965"/><text fill="#000000" font-family="sans-serif" font-size="13" font-weight="bold" lengthAdjust="spacing" textLength="163.5601" x="402.0439" y="202.6543">Check Idempotency-Key</text></g><path d="M268.5479,222.3965 L330.6865,222.3965 L330.6865,229.707 L320.6865,239.707 L268.5479,239.707 L268.5479,222.3965" fill="#EEEEEE" style="stroke:#000000;stroke-width:1;"/><rect fill="none" height="1112.9551" style="stroke:#000000;stroke-width:2;" width="1278.0034" x="268.5479" y="222.3965"/><text fill="#000000" font-family="sans-serif" font-size="13" font-weight="bold" lengthAdjust="spacing" textLength="17.1387" x="283.5479" y="235.9648">alt</text><text fill="#000000" font-family="sans-serif" font-size="11" font-weight="bold" lengthAdjust="spacing" textLength="4.0767" x="345.6865" y="235.0313">[</text><text fill="#000000" font-family="sans-serif" font-size="11" font-weight="bold" lengthAdjust="spacing" textLength="192.4409" x="349.7632" y="235.0313">Idempotency-Key already present</text><text fill="#000000" font-family="sans-serif" font-size="11" font-weight="bold" lengthAdjust="spacing" textLength="4.0767" x="542.2041" y="235.0313">]</text><g class="message" data-participant-1="REDIS" data-participant-2="Consumer"><polygon fill="#A80036" points="406.0439,257.0176,396.0439,261.0176,406.0439,265.0176,402.0439,261.0176" style="stroke:#A80036;stroke-width:1;"/><line style="stroke:#A80036;stroke-width:1;stroke-dasharray:2,2;" x1="400.0439" x2="611.6265" y1="261.0176" y2="261.0176"/><text fill="#000000" font-family="sans-serif" font-size="13" font-weight="bold" lengthAdjust="spacing" textLength="68.0913" x="412.0439" y="256.2754">Key found</text></g><g class="message" data-participant-1="Consumer" data-participant-2="Consumer"><line style="stroke:#A80036;stroke-width:1;" x1="395.0439" x2="437.0439" y1="296.4834" y2="296.4834"/><line style="stroke:#A80036;stroke-width:1;" x1="437.0439" x2="437.0439" y1="296.4834" y2="309.4834"/><line style="stroke:#A80036;stroke-width:1;" x1="396.0439" x2="437.0439" y1="309.4834" y2="309.4834"/><polygon fill="#A80036" points="406.0439,305.4834,396.0439,309.4834,406.0439,313.4834,402.0439,309.4834" style="stroke:#A80036;stroke-width:1;"/><text fill="#000000" font-family="sans-serif" font-size="13" font-weight="bold" lengthAdjust="spacing" textLength="188.5825" x="402.0439" y="291.7412">Discard duplicated message</text></g><path d="M612.5825,274.0176 L612.5825,314.0176 L805.5825,314.0176 L805.5825,284.0176 L795.5825,274.0176 L612.5825,274.0176" fill="#FBFB77" filter="url(#f1fexoxxtnpsja)" style="stroke:#A80036;stroke-width:1;"/><path d="M795.5825,274.0176 L795.5825,284.0176 L805.5825,284.0176 L795.5825,274.0176" fill="#FBFB77" style="stroke:#A80036;stroke-width:1;"/><text fill="#000000" font-family="sans-serif" font-size="13" lengthAdjust="spacing" textLength="172.1675" x="618.5825" y="291.5859">Message already processed</text><text fill="#000000" font-family="sans-serif" font-size="13" lengthAdjust="spacing" textLength="151.6963" x="618.5825" y="306.8965">or already in processing</text><line style="stroke:#000000;stroke-width:1;stroke-dasharray:2,2;" x1="268.5479" x2="1546.5513" y1="324.6387" y2="324.6387"/><text fill="#000000" font-family="sans-serif" font-size="11" font-weight="bold" lengthAdjust="spacing" textLength="4.0767" x="273.5479" y="335.2734">[</text><text fill="#000000" font-family="sans-serif" font-size="11" font-weight="bold" lengthAdjust="spacing" textLength="169.4902" x="277.6245" y="335.2734">Idempotency-Key not present</text><text fill="#000000" font-family="sans-serif" font-size="11" font-weight="bold" lengthAdjust="spacing" textLength="4.0767" x="447.1147" y="335.2734">]</text><g class="message" data-participant-1="REDIS" data-participant-2="Consumer"><polygon fill="#A80036" points="406.0439,355.9043,396.0439,359.9043,406.0439,363.9043,402.0439,359.9043" style="stroke:#A80036;stroke-width:1;"/><line style="stroke:#A80036;stroke-width:1;stroke-dasharray:2,2;" x1="400.0439" x2="611.6265" y1="359.9043" y2="359.9043"/><text fill="#000000" font-family="sans-serif" font-size="13" font-weight="bold" lengthAdjust="spacing" textLength="94.4849" x="412.0439" y="355.1621">Key not found</text></g><g class="message" data-participant-1="Consumer" data-participant-2="REDIS"><polygon fill="#A80036" points="600.6265,385.2148,610.6265,389.2148,600.6265,393.2148,604.6265,389.2148" style="stroke:#A80036;stroke-width:1;"/><line style="stroke:#A80036;stroke-width:1;" x1="395.0439" x2="606.6265" y1="389.2148" y2="389.2148"/><text fill="#000000" font-family="sans-serif" font-size="13" font-weight="bold" lengthAdjust="spacing" textLength="153.3975" x="402.0439" y="384.4727">Save Idempotency-Key</text></g><g class="message" data-participant-1="REDIS" data-participant-2="Consumer"><polygon fill="#A80036" points="406.0439,414.5254,396.0439,418.5254,406.0439,422.5254,402.0439,418.5254" style="stroke:#A80036;stroke-width:1;"/><line style="stroke:#A80036;stroke-width:1;stroke-dasharray:2,2;" x1="400.0439" x2="611.6265" y1="418.5254" y2="418.5254"/><text fill="#000000" font-family="sans-serif" font-size="13" font-weight="bold" lengthAdjust="spacing" textLength="67.647" x="412.0439" y="413.7832">Key saved</text></g><g class="message" data-participant-1="Consumer" data-participant-2="SPC"><polygon fill="#A80036" points="741.4287,443.8359,751.4287,447.8359,741.4287,451.8359,745.4287,447.8359" style="stroke:#A80036;stroke-width:1;"/><line style="stroke:#A80036;stroke-width:1;" x1="395.0439" x2="747.4287" y1="447.8359" y2="447.8359"/><text fill="#000000" font-family="sans-serif" font-size="13" font-weight="bold" lengthAdjust="spacing" textLength="241.0967" x="402.0439" y="443.0938">Process UPDATE INVALID / EXPIRED</text></g><g class="message" data-participant-1="SPC" data-participant-2="SRTP"><polygon fill="#A80036" points="1019.917,473.1465,1029.917,477.1465,1019.917,481.1465,1023.917,477.1465" style="stroke:#A80036;stroke-width:1;"/><line style="stroke:#A80036;stroke-width:1;" x1="763.4287" x2="1025.917" y1="477.1465" y2="477.1465"/><text fill="#000000" font-family="sans-serif" font-size="13" font-weight="bold" lengthAdjust="spacing" textLength="161.3638" x="770.4287" y="472.4043">findRtpByCompositeKey</text></g><path d="M278.5479,492.1465 L340.6865,492.1465 L340.6865,499.457 L330.6865,509.457 L278.5479,509.457 L278.5479,492.1465" fill="#EEEEEE" style="stroke:#000000;stroke-width:1;"/><rect fill="none" height="836.2051" style="stroke:#000000;stroke-width:2;" width="1258.0034" x="278.5479" y="492.1465"/><text fill="#000000" font-family="sans-serif" font-size="13" font-weight="bold" lengthAdjust="spacing" textLength="17.1387" x="293.5479" y="505.7148">alt</text><text fill="#000000" font-family="sans-serif" font-size="11" font-weight="bold" lengthAdjust="spacing" textLength="4.0767" x="355.6865" y="504.7813">[</text><text fill="#000000" font-family="sans-serif" font-size="11" font-weight="bold" lengthAdjust="spacing" textLength="58.9692" x="359.7632" y="504.7813">RTP exists</text><text fill="#000000" font-family="sans-serif" font-size="11" font-weight="bold" lengthAdjust="spacing" textLength="4.0767" x="418.7324" y="504.7813">]</text><g class="message" data-participant-1="SRTP" data-participant-2="SPC"><polygon fill="#A80036" points="774.4287,581.6992,764.4287,585.6992,774.4287,589.6992,770.4287,585.6992" style="stroke:#A80036;stroke-width:1;"/><line style="stroke:#A80036;stroke-width:1;stroke-dasharray:2,2;" x1="768.4287" x2="1035.917" y1="585.6992" y2="585.6992"/><text fill="#000000" font-family="sans-serif" font-size="13" font-weight="bold" lengthAdjust="spacing" textLength="25.9111" x="780.4287" y="580.957">RTP</text></g><path d="M1046,514.457 L1046,639.457 L1260,639.457 L1260,524.457 L1250,514.457 L1046,514.457" fill="#FBFB77" filter="url(#f1fexoxxtnpsja)" style="stroke:#A80036;stroke-width:1;"/><path d="M1250,514.457 L1250,524.457 L1260,524.457 L1250,514.457" fill="#FBFB77" style="stroke:#A80036;stroke-width:1;"/><text fill="#000000" font-family="sans-serif" font-size="13" lengthAdjust="spacing" textLength="193.1846" x="1052" y="532.0254">Valid statuses for cancellation:</text><text fill="#000000" font-family="sans-serif" font-size="13" lengthAdjust="spacing" textLength="69.8687" x="1052" y="547.3359">- CREATED</text><text fill="#000000" font-family="sans-serif" font-size="13" lengthAdjust="spacing" textLength="43.5068" x="1052" y="562.6465">- SENT</text><text fill="#000000" font-family="sans-serif" font-size="13" lengthAdjust="spacing" textLength="77.8286" x="1052" y="577.957">- ACCEPTED</text><text fill="#000000" font-family="sans-serif" font-size="13" lengthAdjust="spacing" textLength="115.6035" x="1052" y="593.2676">- USER_ACCEPTED</text><text fill="#000000" font-family="sans-serif" font-size="13" lengthAdjust="spacing" textLength="4.1133" x="1052" y="608.5781">&#160;</text><line style="stroke:#A80036;stroke-width:1;" x1="1047" x2="1259.1846" y1="611.3203" y2="611.3203"/><text fill="#000000" font-family="sans-serif" font-size="13" lengthAdjust="spacing" textLength="184.9517" x="1052" y="627.8887">Cancellation request initiated</text><path d="M288.5479,655.6309 L350.6865,655.6309 L350.6865,662.9414 L340.6865,672.9414 L288.5479,672.9414 L288.5479,655.6309" fill="#EEEEEE" style="stroke:#000000;stroke-width:1;"/><rect fill="none" height="592.1445" style="stroke:#000000;stroke-width:2;" width="1238.0034" x="288.5479" y="655.6309"/><text fill="#000000" font-family="sans-serif" font-size="13" font-weight="bold" lengthAdjust="spacing" textLength="17.1387" x="303.5479" y="669.1992">alt</text><text fill="#000000" font-family="sans-serif" font-size="11" font-weight="bold" lengthAdjust="spacing" textLength="4.0767" x="365.6865" y="668.2656">[</text><text fill="#000000" font-family="sans-serif" font-size="11" font-weight="bold" lengthAdjust="spacing" textLength="79.5942" x="369.7632" y="668.2656">Status is valid</text><text fill="#000000" font-family="sans-serif" font-size="11" font-weight="bold" lengthAdjust="spacing" textLength="4.0767" x="449.3574" y="668.2656">]</text><g class="message" data-participant-1="SPC" data-participant-2="SPD"><polygon fill="#A80036" points="1211.9717,695.252,1221.9717,699.252,1211.9717,703.252,1215.9717,699.252" style="stroke:#A80036;stroke-width:1;"/><line style="stroke:#A80036;stroke-width:1;" x1="763.4287" x2="1217.9717" y1="699.252" y2="699.252"/><text fill="#000000" font-family="sans-serif" font-size="13" font-weight="bold" lengthAdjust="spacing" textLength="441.543" x="770.4287" y="694.5098">POST /sepa-request-to-pay-requests/{id}/cancellation-requests</text></g><path d="M1238,677.9414 L1238,702.9414 L1511,702.9414 L1511,687.9414 L1501,677.9414 L1238,677.9414" fill="#FBFB77" filter="url(#f1fexoxxtnpsja)" style="stroke:#A80036;stroke-width:1;"/><path d="M1501,677.9414 L1501,687.9414 L1511,687.9414 L1501,677.9414" fill="#FBFB77" style="stroke:#A80036;stroke-width:1;"/><text fill="#000000" font-family="sans-serif" font-size="13" lengthAdjust="spacing" textLength="30.4941" x="1244" y="695.5098">Send</text><text fill="#000000" font-family="sans-serif" font-size="13" font-weight="bold" lengthAdjust="spacing" textLength="135.2686" x="1278.6074" y="695.5098">cancellation request</text><text fill="#000000" font-family="sans-serif" font-size="13" lengthAdjust="spacing" textLength="78.5903" x="1417.9893" y="695.5098">to SP Debtor</text><path d="M697.856,719.252 L759.9946,719.252 L759.9946,726.5625 L749.9946,736.5625 L697.856,736.5625 L697.856,719.252" fill="#EEEEEE" style="stroke:#000000;stroke-width:1;"/><rect fill="none" height="437.9473" style="stroke:#000000;stroke-width:2;" width="589.2241" x="697.856" y="719.252"/><text fill="#000000" font-family="sans-serif" font-size="13" font-weight="bold" lengthAdjust="spacing" textLength="17.1387" x="712.856" y="732.8203">alt</text><text fill="#000000" font-family="sans-serif" font-size="11" font-weight="bold" lengthAdjust="spacing" textLength="4.0767" x="774.9946" y="731.8867">[</text><text fill="#000000" font-family="sans-serif" font-size="11" font-weight="bold" lengthAdjust="spacing" textLength="86.9043" x="779.0713" y="731.8867">Async flow EPC</text><text fill="#000000" font-family="sans-serif" font-size="11" font-weight="bold" lengthAdjust="spacing" textLength="4.0767" x="865.9756" y="731.8867">]</text><g class="message" data-participant-1="SPD" data-participant-2="SPC"><polygon fill="#A80036" points="774.4287,753.873,764.4287,757.873,774.4287,761.873,770.4287,757.873" style="stroke:#A80036;stroke-width:1;"/><line style="stroke:#A80036;stroke-width:1;stroke-dasharray:2,2;" x1="768.4287" x2="1222.9717" y1="757.873" y2="757.873"/><text fill="#000000" font-family="sans-serif" font-size="13" font-weight="bold" lengthAdjust="spacing" textLength="102.8701" x="780.4287" y="753.1309">OK empty Body</text></g><g class="message" data-participant-1="SPC" data-participant-2="SPC"><line style="stroke:#A80036;stroke-width:1;" x1="763.4287" x2="805.4287" y1="787.1836" y2="787.1836"/><line style="stroke:#A80036;stroke-width:1;" x1="805.4287" x2="805.4287" y1="787.1836" y2="800.1836"/><line style="stroke:#A80036;stroke-width:1;" x1="764.4287" x2="805.4287" y1="800.1836" y2="800.1836"/><polygon fill="#A80036" points="774.4287,796.1836,764.4287,800.1836,774.4287,804.1836,770.4287,800.1836" style="stroke:#A80036;stroke-width:1;"/><text fill="#000000" font-family="sans-serif" font-size="13" font-weight="bold" lengthAdjust="spacing" textLength="184.7422" x="770.4287" y="782.4414">Set RTP status to RFC_SENT</text></g><g class="message" data-participant-1="SPC" data-participant-2="SRTP"><polygon fill="#A80036" points="1019.917,825.4941,1029.917,829.4941,1019.917,833.4941,1023.917,829.4941" style="stroke:#A80036;stroke-width:1;"/><line style="stroke:#A80036;stroke-width:1;" x1="763.4287" x2="1025.917" y1="829.4941" y2="829.4941"/><text fill="#000000" font-family="sans-serif" font-size="13" font-weight="bold" lengthAdjust="spacing" textLength="210.5073" x="770.4287" y="824.752">Save RTP with RFC_SENT status</text></g><g class="message" data-participant-1="SRTP" data-participant-2="SPC"><polygon fill="#A80036" points="774.4287,854.8047,764.4287,858.8047,774.4287,862.8047,770.4287,858.8047" style="stroke:#A80036;stroke-width:1;"/><line style="stroke:#A80036;stroke-width:1;stroke-dasharray:2,2;" x1="768.4287" x2="1035.917" y1="858.8047" y2="858.8047"/><text fill="#000000" font-family="sans-serif" font-size="13" font-weight="bold" lengthAdjust="spacing" textLength="69.2085" x="780.4287" y="854.0625">Saved RTP</text></g><line style="stroke:#000000;stroke-width:1;stroke-dasharray:2,2;" x1="697.856" x2="1287.0801" y1="867.8047" y2="867.8047"/><text fill="#000000" font-family="sans-serif" font-size="11" font-weight="bold" lengthAdjust="spacing" textLength="4.0767" x="702.856" y="878.4395">[</text><text fill="#000000" font-family="sans-serif" font-size="11" font-weight="bold" lengthAdjust="spacing" textLength="78.8691" x="706.9326" y="878.4395">Sync flow EPC</text><text fill="#000000" font-family="sans-serif" font-size="11" font-weight="bold" lengthAdjust="spacing" textLength="4.0767" x="785.8018" y="878.4395">]</text><g class="message" data-participant-1="SPD" data-participant-2="SPC"><polygon fill="#A80036" points="774.4287,899.0703,764.4287,903.0703,774.4287,907.0703,770.4287,903.0703" style="stroke:#A80036;stroke-width:1;"/><line style="stroke:#A80036;stroke-width:1;stroke-dasharray:2,2;" x1="768.4287" x2="1222.9717" y1="903.0703" y2="903.0703"/><text fill="#000000" font-family="sans-serif" font-size="13" font-weight="bold" lengthAdjust="spacing" textLength="76.8384" x="780.4287" y="898.3281">OK payload</text></g><g class="message" data-participant-1="SPC" data-participant-2="SPC"><line style="stroke:#A80036;stroke-width:1;" x1="763.4287" x2="805.4287" y1="932.3809" y2="932.3809"/><line style="stroke:#A80036;stroke-width:1;" x1="805.4287" x2="805.4287" y1="932.3809" y2="945.3809"/><line style="stroke:#A80036;stroke-width:1;" x1="764.4287" x2="805.4287" y1="945.3809" y2="945.3809"/><polygon fill="#A80036" points="774.4287,941.3809,764.4287,945.3809,774.4287,949.3809,770.4287,945.3809" style="stroke:#A80036;stroke-width:1;"/><text fill="#000000" font-family="sans-serif" font-size="13" font-weight="bold" lengthAdjust="spacing" textLength="197.4819" x="770.4287" y="927.6387">Set RTP status to CANCELLED</text></g><g class="message" data-participant-1="SPC" data-participant-2="SRTP"><polygon fill="#A80036" points="1019.917,970.6914,1029.917,974.6914,1019.917,978.6914,1023.917,974.6914" style="stroke:#A80036;stroke-width:1;"/><line style="stroke:#A80036;stroke-width:1;" x1="763.4287" x2="1025.917" y1="974.6914" y2="974.6914"/><text fill="#000000" font-family="sans-serif" font-size="13" font-weight="bold" lengthAdjust="spacing" textLength="223.2471" x="770.4287" y="969.9492">Save RTP with CANCELLED status</text></g><g class="message" data-participant-1="SRTP" data-participant-2="SPC"><polygon fill="#A80036" points="774.4287,1000.002,764.4287,1004.002,774.4287,1008.002,770.4287,1004.002" style="stroke:#A80036;stroke-width:1;"/><line style="stroke:#A80036;stroke-width:1;stroke-dasharray:2,2;" x1="768.4287" x2="1035.917" y1="1004.002" y2="1004.002"/><text fill="#000000" font-family="sans-serif" font-size="13" font-weight="bold" lengthAdjust="spacing" textLength="69.2085" x="780.4287" y="999.2598">Saved RTP</text></g><line style="stroke:#000000;stroke-width:1;stroke-dasharray:2,2;" x1="697.856" x2="1287.0801" y1="1013.002" y2="1013.002"/><text fill="#000000" font-family="sans-serif" font-size="11" font-weight="bold" lengthAdjust="spacing" textLength="4.0767" x="702.856" y="1023.6367">[</text><text fill="#000000" font-family="sans-serif" font-size="11" font-weight="bold" lengthAdjust="spacing" textLength="116.1177" x="706.9326" y="1023.6367">Error Sync Response</text><text fill="#000000" font-family="sans-serif" font-size="11" font-weight="bold" lengthAdjust="spacing" textLength="4.0767" x="823.0503" y="1023.6367">]</text><g class="message" data-participant-1="SPD" data-participant-2="SPC"><polygon fill="#A80036" points="774.4287,1044.2676,764.4287,1048.2676,774.4287,1052.2676,770.4287,1048.2676" style="stroke:#A80036;stroke-width:1;"/><line style="stroke:#A80036;stroke-width:1;stroke-dasharray:2,2;" x1="768.4287" x2="1222.9717" y1="1048.2676" y2="1048.2676"/><text fill="#000000" font-family="sans-serif" font-size="13" font-weight="bold" lengthAdjust="spacing" textLength="198.8276" x="780.4287" y="1043.5254">Error response (e.g., 4xx, 5xx)</text></g><g class="message" data-participant-1="SPC" data-participant-2="SPC"><line style="stroke:#A80036;stroke-width:1;" x1="763.4287" x2="805.4287" y1="1077.5781" y2="1077.5781"/><line style="stroke:#A80036;stroke-width:1;" x1="805.4287" x2="805.4287" y1="1077.5781" y2="1090.5781"/><line style="stroke:#A80036;stroke-width:1;" x1="764.4287" x2="805.4287" y1="1090.5781" y2="1090.5781"/><polygon fill="#A80036" points="774.4287,1086.5781,764.4287,1090.5781,774.4287,1094.5781,770.4287,1090.5781" style="stroke:#A80036;stroke-width:1;"/><text fill="#000000" font-family="sans-serif" font-size="13" font-weight="bold" lengthAdjust="spacing" textLength="223.7231" x="770.4287" y="1072.8359">Set RTP status to ERROR_CANCEL</text></g><g class="message" data-participant-1="SPC" data-participant-2="SRTP"><polygon fill="#A80036" points="1019.917,1115.8887,1029.917,1119.8887,1019.917,1123.8887,1023.917,1119.8887" style="stroke:#A80036;stroke-width:1;"/><line style="stroke:#A80036;stroke-width:1;" x1="763.4287" x2="1025.917" y1="1119.8887" y2="1119.8887"/><text fill="#000000" font-family="sans-serif" font-size="13" font-weight="bold" lengthAdjust="spacing" textLength="249.4883" x="770.4287" y="1115.1465">Save RTP with ERROR_CANCEL status</text></g><g class="message" data-participant-1="SRTP" data-participant-2="SPC"><polygon fill="#A80036" points="774.4287,1145.1992,764.4287,1149.1992,774.4287,1153.1992,770.4287,1149.1992" style="stroke:#A80036;stroke-width:1;"/><line style="stroke:#A80036;stroke-width:1;stroke-dasharray:2,2;" x1="768.4287" x2="1035.917" y1="1149.1992" y2="1149.1992"/><text fill="#000000" font-family="sans-serif" font-size="13" font-weight="bold" lengthAdjust="spacing" textLength="69.2085" x="780.4287" y="1144.457">Saved RTP</text></g><g class="message" data-participant-1="SPC" data-participant-2="Consumer"><polygon fill="#A80036" points="406.0439,1181.5098,396.0439,1185.5098,406.0439,1189.5098,402.0439,1185.5098" style="stroke:#A80036;stroke-width:1;"/><line style="stroke:#A80036;stroke-width:1;stroke-dasharray:2,2;" x1="400.0439" x2="752.4287" y1="1185.5098" y2="1185.5098"/><text fill="#000000" font-family="sans-serif" font-size="13" font-weight="bold" lengthAdjust="spacing" textLength="132.5327" x="412.0439" y="1180.7676">Outcome processed</text></g><line style="stroke:#000000;stroke-width:1;stroke-dasharray:2,2;" x1="288.5479" x2="1526.5513" y1="1194.5098" y2="1194.5098"/><text fill="#000000" font-family="sans-serif" font-size="11" font-weight="bold" lengthAdjust="spacing" textLength="4.0767" x="293.5479" y="1205.1445">[</text><text fill="#000000" font-family="sans-serif" font-size="11" font-weight="bold" lengthAdjust="spacing" textLength="194.1167" x="297.6245" y="1205.1445">Invalid RTP status for cancellation</text><text fill="#000000" font-family="sans-serif" font-size="11" font-weight="bold" lengthAdjust="spacing" textLength="4.0767" x="491.7412" y="1205.1445">]</text><g class="message" data-participant-1="SPC" data-participant-2="Consumer"><polygon fill="#A80036" points="406.0439,1230.7754,396.0439,1234.7754,406.0439,1238.7754,402.0439,1234.7754" style="stroke:#A80036;stroke-width:1;"/><line style="stroke:#A80036;stroke-width:1;stroke-dasharray:2,2;" x1="400.0439" x2="752.4287" y1="1234.7754" y2="1234.7754"/><text fill="#000000" font-family="sans-serif" font-size="13" font-weight="bold" lengthAdjust="spacing" textLength="171.8818" x="412.0439" y="1230.0332">Error - Invalid RTP status</text></g><path d="M768,1213.4648 L768,1238.4648 L1113,1238.4648 L1113,1223.4648 L1103,1213.4648 L768,1213.4648" fill="#FBFB77" filter="url(#f1fexoxxtnpsja)" style="stroke:#A80036;stroke-width:1;"/><path d="M1103,1213.4648 L1103,1223.4648 L1113,1223.4648 L1103,1213.4648" fill="#FBFB77" style="stroke:#A80036;stroke-width:1;"/><text fill="#000000" font-family="sans-serif" font-size="13" lengthAdjust="spacing" textLength="324.251" x="774" y="1231.0332">RTP is already in a final state (e.g., PAID, REJECTED)</text><line style="stroke:#000000;stroke-width:1;stroke-dasharray:2,2;" x1="278.5479" x2="1536.5513" y1="1255.7754" y2="1255.7754"/><text fill="#000000" font-family="sans-serif" font-size="11" font-weight="bold" lengthAdjust="spacing" textLength="4.0767" x="283.5479" y="1266.4102">[</text><text fill="#000000" font-family="sans-serif" font-size="11" font-weight="bold" lengthAdjust="spacing" textLength="81.2056" x="287.6245" y="1266.4102">RTP not found</text><text fill="#000000" font-family="sans-serif" font-size="11" font-weight="bold" lengthAdjust="spacing" textLength="4.0767" x="368.8301" y="1266.4102">]</text><g class="message" data-participant-1="SRTP" data-participant-2="SPC"><polygon fill="#A80036" points="774.4287,1287.041,764.4287,1291.041,774.4287,1295.041,770.4287,1291.041" style="stroke:#A80036;stroke-width:1;"/><line style="stroke:#A80036;stroke-width:1;stroke-dasharray:2,2;" x1="768.4287" x2="1035.917" y1="1291.041" y2="1291.041"/><text fill="#000000" font-family="sans-serif" font-size="13" font-weight="bold" lengthAdjust="spacing" textLength="67.228" x="780.4287" y="1286.2988">Not found</text></g><g class="message" data-participant-1="SPC" data-participant-2="Consumer"><polygon fill="#A80036" points="406.0439,1316.3516,396.0439,1320.3516,406.0439,1324.3516,402.0439,1320.3516" style="stroke:#A80036;stroke-width:1;"/><line style="stroke:#A80036;stroke-width:1;stroke-dasharray:2,2;" x1="400.0439" x2="752.4287" y1="1320.3516" y2="1320.3516"/><text fill="#000000" font-family="sans-serif" font-size="13" font-weight="bold" lengthAdjust="spacing" textLength="146.6816" x="412.0439" y="1315.6094">Error - RTP not found</text></g><!--SRC=[lLLDRzGm4BtxLunwegk6Nk1I2QGbIM6XT4DI40UaoesdhKMQXDXRTeNuxumTn_5cjwWzm6dNy_4yxyruehxB6hf68TDILmXlamm-ebBy1Y62sUnpbimlKbYSVvcVBH8uXlHhjiZJP3Q3qwhvoTYF5QuG3anUUe-rXdUhgmFW2ZuP1sjvfsKfMqwUWn0yRcgrkiFEnWu79hZcLrmHO8v2gc_riuN0kxRHM9SR-80RA7JJuQ7DeZ8MnVODHGPnHvacoCOKMHo05lb5rflfpqvcWbTXOiAOvG3HQr_W2KaIi9ZDM4srGONNcW7vbYrsNCkcXbVGIqSXnb5ehbUAh4v9qg_foExbP5WBC62CyLBBUwv7ZHWR_fbQB6rJI7oBvNS818f884Bo-Rr0Z5UQeYTnmAiEkTX0sw6YljawRG944y8c-hfPrSB629pW0uJLXOc9L2Nl18XLMycICWJSUU70ieLEtjmQxS1FnbXOKv89XVMIMeE39jRvP7r3pb4vhAZBkrJ9-KYQ9dAakbVrWj_Z7j7_XgeevG7n9hVGk9gahAS73xy-olD8PiRfJ3yMWaRRO5pBMkIwVRE96ofLIOr3eMEYUGN6O0U43e1hgRIoKM3Tbe-hYexE4z0OC7RQ2V25LrA0ifEFYdJjeEHrYLLbdyY92uiWpbEYcVXpaPvV-CCyZjCiz7ukqlpIMmTp5Bb_SN05T4ZxIMaQ6Qcb6K0RD0wCEVNitGEL2kvDsOxeg6gMsCOiYmiuLjZoo457kebQlXcEwlYN5B-FGvxUvJ57fKwWCCNCPkMUgcb7w0RwnKHxoIK7RVViUmfpjQbBkAQr36aM-ziCXoJiu_83qFJg3Rnfn6OhB0vci40DPW3w_fbAyjFuqhHcJugREVisJD9FgMzzl8C8qhQdnuDDvisW2HYdxi79euxs3xzuj03KighXuWdiu_bvd9wTkSVt2Fe-uV_nJxkE7fbL8KVLqcB1XrNeWpiN1y_m-Stp8tYnNX_1o_Nwy0dIf7c-p2zxlezL9ypvbm8vVMenI1K6P4duoYURUxdIPNE7utU8Rc61s8lQRefGY-cAszuY4_nU_mXsSVOk2kEcxHHy13dGZkULJVBzo-QBv8W-Bk_JcDRZ8GlOkxeDqFPtRbVPyub_dwf_uxHxXwjXI_sOMMjW6x3-0000]--></g></svg>