<?xml version="1.0" encoding="us-ascii" standalone="no"?><svg xmlns="http://www.w3.org/2000/svg" xmlns:xlink="http://www.w3.org/1999/xlink" contentStyleType="text/css" height="3076.0417px" preserveAspectRatio="none" style="width:1355px;height:3076px;" version="1.1" viewBox="0 0 1355 3076" width="1355.2083px" zoomAndPan="magnify"><defs><linearGradient id="gxts65p0s3bab0" x1="50%" x2="50%" y1="0%" y2="100%"><stop offset="0%" stop-color="#FFFFFF"/><stop offset="100%" stop-color="#FFFFFF"/></linearGradient><filter height="300%" id="fxts65p0s3bab" width="300%" x="-1" y="-1"><feGaussianBlur result="blurOut" stdDeviation="2.0833333333333335"/><feColorMatrix in="blurOut" result="blurOut2" type="matrix" values="0 0 0 0 0 0 0 0 0 0 0 0 0 0 0 0 0 0 .4 0"/><feOffset dx="4.166666666666667" dy="4.166666666666667" in="blurOut2" result="blurOut3"/><feBlend in="SourceGraphic" in2="blurOut3" mode="normal"/></filter><linearGradient id="gxts65p0s3bab1" x1="50%" x2="50%" y1="0%" y2="100%"><stop offset="0%" stop-color="#4DABF5"/><stop offset="100%" stop-color="#2196F3"/></linearGradient><linearGradient id="gxts65p0s3bab2" x1="50%" x2="50%" y1="0%" y2="100%"><stop offset="0%" stop-color="#B052C0"/><stop offset="100%" stop-color="#9C27B0"/></linearGradient></defs><g><rect fill="url(#gxts65p0s3bab0)" height="57.5846" id="_title" rx="4.1667" ry="4.1667" style="stroke:#CCCCCC;stroke-width:1.0416666666666667;" width="478.125" x="439.8438" y="20.8333"/><text fill="#2196F3" font-family="Verdana" font-size="20.8333" font-weight="bold" lengthAdjust="spacing" textLength="444.7917" x="456.5104" y="56.838">RTP Update Flow (INVALID / EXPIRED)</text><rect fill="#FFFFFF" filter="url(#fxts65p0s3bab)" height="2687.0443" style="stroke:#CCCCCC;stroke-width:1.0416666666666667;" width="10.4167" x="571.875" y="259.0169"/><rect fill="#FFFFFF" filter="url(#fxts65p0s3bab)" height="114.4857" style="stroke:#CCCCCC;stroke-width:1.0416666666666667;" width="10.4167" x="908.3333" y="313.6719"/><rect fill="#FFFFFF" filter="url(#fxts65p0s3bab)" height="114.4857" style="stroke:#CCCCCC;stroke-width:1.0416666666666667;" width="10.4167" x="1041.6667" y="1347.2982"/><rect fill="#FFFFFF" filter="url(#fxts65p0s3bab)" height="49.9674" style="stroke:#CCCCCC;stroke-width:1.0416666666666667;" width="10.4167" x="1041.6667" y="1950.8789"/><rect fill="#FFFFFF" filter="url(#fxts65p0s3bab)" height="49.9674" style="stroke:#CCCCCC;stroke-width:1.0416666666666667;" width="10.4167" x="1041.6667" y="2251.7253"/><rect fill="#FFFFFF" filter="url(#fxts65p0s3bab)" height="49.9674" style="stroke:#CCCCCC;stroke-width:1.0416666666666667;" width="10.4167" x="1041.6667" y="2552.5716"/><rect fill="#FFFFFF" filter="url(#fxts65p0s3bab)" height="945.2148" style="stroke:#CCCCCC;stroke-width:1.0416666666666667;" width="10.4167" x="1181.25" y="1722.9167"/><rect fill="url(#gxts65p0s3bab0)" filter="url(#fxts65p0s3bab)" height="2609.4727" rx="4.1667" ry="4.1667" style="stroke:#2196F3;stroke-width:1.0416666666666667;" width="1247.3958" x="90.625" y="329.2969"/><path d="M90.625,623.8607 L1338.0208,623.8607 L1338.0208,2934.6029 A4.1667,4.1667 0 0 1 1333.8542,2938.7695 L94.7917,2938.7695 A4.1667,4.1667 0 0 1 90.625,2934.6029 L90.625,623.8607 " fill="url(#gxts65p0s3bab0)" style="stroke:none;stroke-width:1.0416666666666667;"/><rect fill="url(#gxts65p0s3bab0)" filter="url(#fxts65p0s3bab)" height="1922.4284" rx="4.1667" ry="4.1667" style="stroke:#2196F3;stroke-width:1.0416666666666667;" width="1226.5625" x="101.0417" y="1009.0495"/><path d="M101.0417,1204.6875 L1327.6042,1204.6875 L1327.6042,2927.3112 A4.1667,4.1667 0 0 1 1323.4375,2931.4779 L105.2083,2931.4779 A4.1667,4.1667 0 0 1 101.0417,2927.3112 L101.0417,1204.6875 " fill="url(#gxts65p0s3bab0)" style="stroke:none;stroke-width:1.0416666666666667;"/><rect fill="url(#gxts65p0s3bab0)" filter="url(#fxts65p0s3bab)" height="1561.263" rx="4.1667" ry="4.1667" style="stroke:#2196F3;stroke-width:1.0416666666666667;" width="1205.7292" x="111.4583" y="1362.9232"/><rect fill="url(#gxts65p0s3bab0)" filter="url(#fxts65p0s3bab)" height="1155.4362" rx="4.1667" ry="4.1667" style="stroke:#2196F3;stroke-width:1.0416666666666667;" width="1184.8958" x="121.875" y="1624.056"/><rect fill="url(#gxts65p0s3bab0)" filter="url(#fxts65p0s3bab)" height="922.2982" rx="4.1667" ry="4.1667" style="stroke:#2196F3;stroke-width:1.0416666666666667;" width="1164.0625" x="132.2917" y="1738.5417"/><path d="M132.2917,2059.1471 L1296.3542,2059.1471 L1296.3542,2355.8268 A4.1667,4.1667 0 0 1 1292.1875,2359.9935 L136.4583,2359.9935 A4.1667,4.1667 0 0 1 132.2917,2355.8268 L132.2917,2059.1471 " fill="url(#gxts65p0s3bab0)" style="stroke:none;stroke-width:1.0416666666666667;"/><path d="M132.2917,2359.9935 L1296.3542,2359.9935 L1296.3542,2656.6732 A4.1667,4.1667 0 0 1 1292.1875,2660.8398 L136.4583,2660.8398 A4.1667,4.1667 0 0 1 132.2917,2656.6732 L132.2917,2359.9935 " fill="url(#gxts65p0s3bab0)" style="stroke:none;stroke-width:1.0416666666666667;"/><path d="M121.875,2668.1315 L1306.7708,2668.1315 L1306.7708,2775.3255 A4.1667,4.1667 0 0 1 1302.6042,2779.4922 L126.0417,2779.4922 A4.1667,4.1667 0 0 1 121.875,2775.3255 L121.875,2668.1315 " fill="url(#gxts65p0s3bab0)" style="stroke:none;stroke-width:1.0416666666666667;"/><path d="M111.4583,2786.7839 L1317.1875,2786.7839 L1317.1875,2920.0195 A4.1667,4.1667 0 0 1 1313.0208,2924.1862 L115.625,2924.1862 A4.1667,4.1667 0 0 1 111.4583,2920.0195 L111.4583,2786.7839 " fill="url(#gxts65p0s3bab0)" style="stroke:none;stroke-width:1.0416666666666667;"/><line style="stroke:#CCCCCC;stroke-width:1.0416666666666667;stroke-dasharray:5.0,5.0;" x1="251.0417" x2="251.0417" y1="187.7279" y2="2956.4779"/><line style="stroke:#CCCCCC;stroke-width:1.0416666666666667;stroke-dasharray:5.0,5.0;" x1="576.5625" x2="576.5625" y1="187.7279" y2="2956.4779"/><line style="stroke:#CCCCCC;stroke-width:1.0416666666666667;stroke-dasharray:5.0,5.0;" x1="913.0208" x2="913.0208" y1="187.7279" y2="2956.4779"/><line style="stroke:#CCCCCC;stroke-width:1.0416666666666667;stroke-dasharray:5.0,5.0;" x1="1046.3542" x2="1046.3542" y1="187.7279" y2="2956.4779"/><line style="stroke:#CCCCCC;stroke-width:1.0416666666666667;stroke-dasharray:5.0,5.0;" x1="1185.9375" x2="1185.9375" y1="187.7279" y2="2956.4779"/><rect fill="url(#gxts65p0s3bab1)" filter="url(#fxts65p0s3bab)" height="49.9674" rx="4.1667" ry="4.1667" style="stroke:#2196F3;stroke-width:1.0416666666666667;" width="130.2083" x="184.375" y="133.5938"/><text fill="#FFFFFF" font-family="Verdana" font-size="12.5" lengthAdjust="spacing" textLength="94.7917" x="202.0833" y="162.9049">MS-CONSUMER</text><rect fill="url(#gxts65p0s3bab1)" filter="url(#fxts65p0s3bab)" height="49.9674" rx="4.1667" ry="4.1667" style="stroke:#2196F3;stroke-width:1.0416666666666667;" width="130.2083" x="184.375" y="2955.4362"/><text fill="#FFFFFF" font-family="Verdana" font-size="12.5" lengthAdjust="spacing" textLength="94.7917" x="202.0833" y="2984.7473">MS-CONSUMER</text><rect fill="url(#gxts65p0s3bab1)" filter="url(#fxts65p0s3bab)" height="49.9674" rx="4.1667" ry="4.1667" style="stroke:#2196F3;stroke-width:1.0416666666666667;" width="110.4167" x="520.3125" y="133.5938"/><text fill="#FFFFFF" font-family="Verdana" font-size="12.5" lengthAdjust="spacing" textLength="75" x="538.0208" y="162.9049">MS-SENDER</text><rect fill="url(#gxts65p0s3bab1)" filter="url(#fxts65p0s3bab)" height="49.9674" rx="4.1667" ry="4.1667" style="stroke:#2196F3;stroke-width:1.0416666666666667;" width="110.4167" x="520.3125" y="2955.4362"/><text fill="#FFFFFF" font-family="Verdana" font-size="12.5" lengthAdjust="spacing" textLength="75" x="538.0208" y="2984.7473">MS-SENDER</text><text fill="#222222" font-family="Verdana" font-size="12.5" lengthAdjust="spacing" textLength="35.4167" x="892.7083" y="159.8124">Redis</text><text fill="#222222" font-family="Verdana" font-size="12.5" lengthAdjust="spacing" textLength="159.375" x="830.7292" y="174.3632">(Idempotency Key Store)</text><path d="M894.7917,100.293 C894.7917,89.8763 913.5417,89.8763 913.5417,89.8763 C913.5417,89.8763 932.2917,89.8763 932.2917,100.293 L932.2917,127.3763 C932.2917,137.793 913.5417,137.793 913.5417,137.793 C913.5417,137.793 894.7917,137.793 894.7917,127.3763 L894.7917,100.293 " fill="url(#gxts65p0s3bab1)" filter="url(#fxts65p0s3bab)" style="stroke:#2196F3;stroke-width:1.5625;"/><path d="M894.7917,100.293 C894.7917,110.7096 913.5417,110.7096 913.5417,110.7096 C913.5417,110.7096 932.2917,110.7096 932.2917,100.293 " fill="none" style="stroke:#2196F3;stroke-width:1.5625;"/><text fill="#222222" font-family="Verdana" font-size="12.5" lengthAdjust="spacing" textLength="35.4167" x="892.7083" y="2977.4556">Redis</text><text fill="#222222" font-family="Verdana" font-size="12.5" lengthAdjust="spacing" textLength="159.375" x="830.7292" y="2992.0064">(Idempotency Key Store)</text><path d="M894.7917,3015.7878 C894.7917,3005.3711 913.5417,3005.3711 913.5417,3005.3711 C913.5417,3005.3711 932.2917,3005.3711 932.2917,3015.7878 L932.2917,3042.8711 C932.2917,3053.2878 913.5417,3053.2878 913.5417,3053.2878 C913.5417,3053.2878 894.7917,3053.2878 894.7917,3042.8711 L894.7917,3015.7878 " fill="url(#gxts65p0s3bab1)" filter="url(#fxts65p0s3bab)" style="stroke:#2196F3;stroke-width:1.5625;"/><path d="M894.7917,3015.7878 C894.7917,3026.2044 913.5417,3026.2044 913.5417,3026.2044 C913.5417,3026.2044 932.2917,3026.2044 932.2917,3015.7878 " fill="none" style="stroke:#2196F3;stroke-width:1.5625;"/><text fill="#222222" font-family="Verdana" font-size="12.5" lengthAdjust="spacing" textLength="32.2917" x="1027.6042" y="174.3632">SRTP</text><path d="M1028.125,114.8438 C1028.125,104.4271 1046.875,104.4271 1046.875,104.4271 C1046.875,104.4271 1065.625,104.4271 1065.625,114.8438 L1065.625,141.9271 C1065.625,152.3438 1046.875,152.3438 1046.875,152.3438 C1046.875,152.3438 1028.125,152.3438 1028.125,141.9271 L1028.125,114.8438 " fill="url(#gxts65p0s3bab1)" filter="url(#fxts65p0s3bab)" style="stroke:#2196F3;stroke-width:1.5625;"/><path d="M1028.125,114.8438 C1028.125,125.2604 1046.875,125.2604 1046.875,125.2604 C1046.875,125.2604 1065.625,125.2604 1065.625,114.8438 " fill="none" style="stroke:#2196F3;stroke-width:1.5625;"/><text fill="#222222" font-family="Verdana" font-size="12.5" lengthAdjust="spacing" textLength="32.2917" x="1027.6042" y="2977.4556">SRTP</text><path d="M1028.125,3001.237 C1028.125,2990.8203 1046.875,2990.8203 1046.875,2990.8203 C1046.875,2990.8203 1065.625,2990.8203 1065.625,3001.237 L1065.625,3028.3203 C1065.625,3038.737 1046.875,3038.737 1046.875,3038.737 C1046.875,3038.737 1028.125,3038.737 1028.125,3028.3203 L1028.125,3001.237 " fill="url(#gxts65p0s3bab1)" filter="url(#fxts65p0s3bab)" style="stroke:#2196F3;stroke-width:1.5625;"/><path d="M1028.125,3001.237 C1028.125,3011.6536 1046.875,3011.6536 1046.875,3011.6536 C1046.875,3011.6536 1065.625,3011.6536 1065.625,3001.237 " fill="none" style="stroke:#2196F3;stroke-width:1.5625;"/><rect fill="url(#gxts65p0s3bab1)" filter="url(#fxts65p0s3bab)" height="49.9674" rx="4.1667" ry="4.1667" style="stroke:#2196F3;stroke-width:1.0416666666666667;" width="112.5" x="1128.6458" y="133.5938"/><text fill="#FFFFFF" font-family="Verdana" font-size="12.5" lengthAdjust="spacing" textLength="77.0833" x="1146.3542" y="162.9049">SP Debitore</text><rect fill="url(#gxts65p0s3bab1)" filter="url(#fxts65p0s3bab)" height="49.9674" rx="4.1667" ry="4.1667" style="stroke:#2196F3;stroke-width:1.0416666666666667;" width="112.5" x="1128.6458" y="2955.4362"/><text fill="#FFFFFF" font-family="Verdana" font-size="12.5" lengthAdjust="spacing" textLength="77.0833" x="1146.3542" y="2984.7473">SP Debitore</text><rect fill="#FFFFFF" filter="url(#fxts65p0s3bab)" height="2687.0443" style="stroke:#CCCCCC;stroke-width:1.0416666666666667;" width="10.4167" x="571.875" y="259.0169"/><rect fill="#FFFFFF" filter="url(#fxts65p0s3bab)" height="114.4857" style="stroke:#CCCCCC;stroke-width:1.0416666666666667;" width="10.4167" x="908.3333" y="313.6719"/><rect fill="#FFFFFF" filter="url(#fxts65p0s3bab)" height="114.4857" style="stroke:#CCCCCC;stroke-width:1.0416666666666667;" width="10.4167" x="1041.6667" y="1347.2982"/><rect fill="#FFFFFF" filter="url(#fxts65p0s3bab)" height="49.9674" style="stroke:#CCCCCC;stroke-width:1.0416666666666667;" width="10.4167" x="1041.6667" y="1950.8789"/><rect fill="#FFFFFF" filter="url(#fxts65p0s3bab)" height="49.9674" style="stroke:#CCCCCC;stroke-width:1.0416666666666667;" width="10.4167" x="1041.6667" y="2251.7253"/><rect fill="#FFFFFF" filter="url(#fxts65p0s3bab)" height="49.9674" style="stroke:#CCCCCC;stroke-width:1.0416666666666667;" width="10.4167" x="1041.6667" y="2552.5716"/><rect fill="#FFFFFF" filter="url(#fxts65p0s3bab)" height="945.2148" style="stroke:#CCCCCC;stroke-width:1.0416666666666667;" width="10.4167" x="1181.25" y="1722.9167"/><polygon fill="#2196F3" points="559.375,254.8503,569.7917,259.0169,559.375,263.1836,563.5417,259.0169" style="stroke:#2196F3;stroke-width:1.0416666666666667;"/><line style="stroke:#2196F3;stroke-width:3.125;" x1="251.0417" x2="565.625" y1="259.0169" y2="259.0169"/><text fill="#222222" font-family="Verdana" font-size="12.5" font-weight="bold" lengthAdjust="spacing" textLength="8.3333" x="268.75" y="236.2935">1</text><text fill="#222222" font-family="Verdana" font-size="12.5" lengthAdjust="spacing" textLength="179.1667" x="302.0833" y="229.0181">Forward GDP UPDATE event</text><text fill="#222222" font-family="Verdana" font-size="12.5" lengthAdjust="spacing" textLength="246.875" x="302.0833" y="243.5689">Headers: Idempotency-Key, RequestId</text><path d="M15.625,207.5195 L15.625,258.5612 A4.1667,4.1667 0 0 0 19.7917,262.7279 L238.5417,262.7279 A4.1667,4.1667 0 0 0 242.7083,258.5612 L242.7083,213.7695 L232.2917,203.3529 L19.7917,203.3529 A4.1667,4.1667 0 0 0 15.625,207.5195 " fill="url(#gxts65p0s3bab2)" filter="url(#fxts65p0s3bab)" style="stroke:#9C27B0;stroke-width:1.0416666666666667;"/><path d="M232.2917,203.3529 L232.2917,211.6862 A2.0833,2.0833 0 0 0 234.375,213.7695 L242.7083,213.7695 L232.2917,203.3529 " fill="url(#gxts65p0s3bab2)" style="stroke:#9C27B0;stroke-width:1.0416666666666667;"/><text fill="#FFFFFF" font-family="Verdana" font-size="12.5" lengthAdjust="spacing" textLength="134.375" x="32.2917" y="230.5806">Operation = UPDATE</text><text fill="#FFFFFF" font-family="Verdana" font-size="12.5" lengthAdjust="spacing" textLength="184.375" x="32.2917" y="245.1314">Status = INVALID or EXPIRED</text><polygon fill="#2196F3" points="895.8333,309.5052,906.25,313.6719,895.8333,317.8385,900,313.6719" style="stroke:#2196F3;stroke-width:1.0416666666666667;"/><line style="stroke:#2196F3;stroke-width:3.125;" x1="582.2917" x2="902.0833" y1="313.6719" y2="313.6719"/><text fill="#222222" font-family="Verdana" font-size="12.5" font-weight="bold" lengthAdjust="spacing" textLength="8.3333" x="600" y="298.2239">2</text><text fill="#222222" font-family="Verdana" font-size="12.5" lengthAdjust="spacing" textLength="153.125" x="633.3333" y="298.2239">Check Idempotency-Key</text><path d="M94.7917,329.2969 L178.125,329.2969 L178.125,356.3477 L167.7083,366.7643 L90.625,366.7643 L90.625,333.4635 A4.1667,4.1667 0 0 1 94.7917,329.2969 " fill="#FFFFFF" style="stroke:#666666;stroke-width:1.0416666666666667;"/><rect fill="none" height="2609.4727" rx="4.1667" ry="4.1667" style="stroke:#2196F3;stroke-width:1.0416666666666667;" width="1247.3958" x="90.625" y="329.2969"/><text fill="#9C27B0" font-family="Verdana" font-size="12.5" font-weight="bold" lengthAdjust="spacing" textLength="19.7917" x="116.6667" y="352.358">alt</text><text fill="#222222" font-family="Verdana" font-size="12.5" font-weight="bold" lengthAdjust="spacing" textLength="260.4167" x="204.1667" y="353.3997">[Idempotency-Key already present]</text><polygon fill="#2196F3" points="593.75,423.9909,583.3333,428.1576,593.75,432.3242,589.5833,428.1576" style="stroke:#2196F3;stroke-width:1.0416666666666667;"/><line style="stroke:#2196F3;stroke-width:3.125;stroke-dasharray:2.0,2.0;" x1="587.5" x2="912.5" y1="428.1576" y2="428.1576"/><text fill="#222222" font-family="Verdana" font-size="12.5" font-weight="bold" lengthAdjust="spacing" textLength="8.3333" x="610.4167" y="412.7096">3</text><text fill="#222222" font-family="Verdana" font-size="12.5" lengthAdjust="spacing" textLength="63.5417" x="643.75" y="412.7096">Key found</text><line style="stroke:#2196F3;stroke-width:3.125;" x1="582.2917" x2="626.0417" y1="478.125" y2="478.125"/><line style="stroke:#2196F3;stroke-width:3.125;" x1="626.0417" x2="626.0417" y1="478.125" y2="491.6667"/><line style="stroke:#2196F3;stroke-width:3.125;" x1="583.3333" x2="626.0417" y1="491.6667" y2="491.6667"/><polygon fill="#2196F3" points="593.75,487.5,583.3333,491.6667,593.75,495.8333,589.5833,491.6667" style="stroke:#2196F3;stroke-width:1.0416666666666667;"/><text fill="#222222" font-family="Verdana" font-size="12.5" font-weight="bold" lengthAdjust="spacing" textLength="8.3333" x="600" y="462.677">4</text><text fill="#222222" font-family="Verdana" font-size="12.5" lengthAdjust="spacing" textLength="185.4167" x="633.3333" y="462.677">Discard duplicated message</text><path d="M587.5,509.375 L587.5,560.4167 A4.1667,4.1667 0 0 0 591.6667,564.5833 L809.375,564.5833 A4.1667,4.1667 0 0 0 813.5417,560.4167 L813.5417,515.625 L803.125,505.2083 L591.6667,505.2083 A4.1667,4.1667 0 0 0 587.5,509.375 " fill="url(#gxts65p0s3bab2)" filter="url(#fxts65p0s3bab)" style="stroke:#9C27B0;stroke-width:1.0416666666666667;"/><path d="M803.125,505.2083 L803.125,513.5417 A2.0833,2.0833 0 0 0 805.2083,515.625 L813.5417,515.625 L803.125,505.2083 " fill="url(#gxts65p0s3bab2)" style="stroke:#9C27B0;stroke-width:1.0416666666666667;"/><text fill="#FFFFFF" font-family="Verdana" font-size="12.5" lengthAdjust="spacing" textLength="183.3333" x="604.1667" y="532.4361">Message already processed</text><text fill="#FFFFFF" font-family="Verdana" font-size="12.5" lengthAdjust="spacing" textLength="157.2917" x="604.1667" y="546.9869">or already in processing</text><polygon fill="#2196F3" points="262.5,611.3607,252.0833,615.5273,262.5,619.694,258.3333,615.5273" style="stroke:#2196F3;stroke-width:1.0416666666666667;"/><line style="stroke:#2196F3;stroke-width:3.125;stroke-dasharray:2.0,2.0;" x1="256.25" x2="570.8333" y1="615.5273" y2="615.5273"/><text fill="#222222" font-family="Verdana" font-size="12.5" font-weight="bold" lengthAdjust="spacing" textLength="8.3333" x="279.1667" y="600.0793">5</text><text fill="#222222" font-family="Verdana" font-size="12.5" lengthAdjust="spacing" textLength="77.0833" x="312.5" y="600.0793">409 Conflict</text><line style="stroke:#2196F3;stroke-width:1.0416666666666667;stroke-dasharray:2.0,2.0;" x1="90.625" x2="1338.0208" y1="624.9023" y2="624.9023"/><text fill="#222222" font-family="Verdana" font-size="12.5" font-weight="bold" lengthAdjust="spacing" textLength="229.1667" x="106.25" y="646.9218">[Idempotency-Key not present]</text><polygon fill="#2196F3" points="593.75,698.7956,583.3333,702.9622,593.75,707.1289,589.5833,702.9622" style="stroke:#2196F3;stroke-width:1.0416666666666667;"/><line style="stroke:#2196F3;stroke-width:3.125;stroke-dasharray:2.0,2.0;" x1="587.5" x2="912.5" y1="702.9622" y2="702.9622"/><text fill="#222222" font-family="Verdana" font-size="12.5" font-weight="bold" lengthAdjust="spacing" textLength="8.3333" x="610.4167" y="687.5142">6</text><text fill="#222222" font-family="Verdana" font-size="12.5" lengthAdjust="spacing" textLength="89.5833" x="643.75" y="687.5142">Key not found</text><polygon fill="#2196F3" points="901.0417,748.763,911.4583,752.9297,901.0417,757.0964,905.2083,752.9297" style="stroke:#2196F3;stroke-width:1.0416666666666667;"/><line style="stroke:#2196F3;stroke-width:3.125;" x1="582.2917" x2="907.2917" y1="752.9297" y2="752.9297"/><text fill="#222222" font-family="Verdana" font-size="12.5" font-weight="bold" lengthAdjust="spacing" textLength="8.3333" x="600" y="737.4817">7</text><text fill="#222222" font-family="Verdana" font-size="12.5" lengthAdjust="spacing" textLength="144.7917" x="633.3333" y="737.4817">Save Idempotency-Key</text><polygon fill="#2196F3" points="593.75,798.7305,583.3333,802.8971,593.75,807.0638,589.5833,802.8971" style="stroke:#2196F3;stroke-width:1.0416666666666667;"/><line style="stroke:#2196F3;stroke-width:3.125;stroke-dasharray:2.0,2.0;" x1="587.5" x2="912.5" y1="802.8971" y2="802.8971"/><text fill="#222222" font-family="Verdana" font-size="12.5" font-weight="bold" lengthAdjust="spacing" textLength="8.3333" x="610.4167" y="787.4491">8</text><text fill="#222222" font-family="Verdana" font-size="12.5" lengthAdjust="spacing" textLength="64.5833" x="643.75" y="787.4491">Key saved</text><line style="stroke:#2196F3;stroke-width:3.125;" x1="582.2917" x2="626.0417" y1="852.8646" y2="852.8646"/><line style="stroke:#2196F3;stroke-width:3.125;" x1="626.0417" x2="626.0417" y1="852.8646" y2="866.4063"/><line style="stroke:#2196F3;stroke-width:3.125;" x1="583.3333" x2="626.0417" y1="866.4063" y2="866.4063"/><polygon fill="#2196F3" points="593.75,862.2396,583.3333,866.4063,593.75,870.5729,589.5833,866.4063" style="stroke:#2196F3;stroke-width:1.0416666666666667;"/><text fill="#222222" font-family="Verdana" font-size="12.5" font-weight="bold" lengthAdjust="spacing" textLength="8.3333" x="600" y="837.4166">9</text><text fill="#222222" font-family="Verdana" font-size="12.5" lengthAdjust="spacing" textLength="114.5833" x="633.3333" y="837.4166">validate message</text><line style="stroke:#2196F3;stroke-width:3.125;" x1="582.2917" x2="626.0417" y1="916.3737" y2="916.3737"/><line style="stroke:#2196F3;stroke-width:3.125;" x1="626.0417" x2="626.0417" y1="916.3737" y2="929.9154"/><line style="stroke:#2196F3;stroke-width:3.125;" x1="583.3333" x2="626.0417" y1="929.9154" y2="929.9154"/><polygon fill="#2196F3" points="593.75,925.7487,583.3333,929.9154,593.75,934.082,589.5833,929.9154" style="stroke:#2196F3;stroke-width:1.0416666666666667;"/><text fill="#222222" font-family="Verdana" font-size="12.5" font-weight="bold" lengthAdjust="spacing" textLength="16.6667" x="600" y="900.9257">10</text><text fill="#222222" font-family="Verdana" font-size="12.5" lengthAdjust="spacing" textLength="198.9583" x="641.6667" y="900.9257">validate operation == UPDATE</text><line style="stroke:#2196F3;stroke-width:3.125;" x1="582.2917" x2="626.0417" y1="979.8828" y2="979.8828"/><line style="stroke:#2196F3;stroke-width:3.125;" x1="626.0417" x2="626.0417" y1="979.8828" y2="993.4245"/><line style="stroke:#2196F3;stroke-width:3.125;" x1="583.3333" x2="626.0417" y1="993.4245" y2="993.4245"/><polygon fill="#2196F3" points="593.75,989.2578,583.3333,993.4245,593.75,997.5911,589.5833,993.4245" style="stroke:#2196F3;stroke-width:1.0416666666666667;"/><text fill="#222222" font-family="Verdana" font-size="12.5" font-weight="bold" lengthAdjust="spacing" textLength="16.6667" x="600" y="964.4348">11</text><text fill="#222222" font-family="Verdana" font-size="12.5" lengthAdjust="spacing" textLength="248.9583" x="641.6667" y="964.4348">validate status == INVALID or EXPIRED</text><path d="M105.2083,1009.0495 L188.5417,1009.0495 L188.5417,1036.1003 L178.125,1046.5169 L101.0417,1046.5169 L101.0417,1013.2161 A4.1667,4.1667 0 0 1 105.2083,1009.0495 " fill="#FFFFFF" style="stroke:#666666;stroke-width:1.0416666666666667;"/><rect fill="none" height="1922.4284" rx="4.1667" ry="4.1667" style="stroke:#2196F3;stroke-width:1.0416666666666667;" width="1226.5625" x="101.0417" y="1009.0495"/><text fill="#9C27B0" font-family="Verdana" font-size="12.5" font-weight="bold" lengthAdjust="spacing" textLength="19.7917" x="127.0833" y="1032.1106">alt</text><text fill="#222222" font-family="Verdana" font-size="12.5" font-weight="bold" lengthAdjust="spacing" textLength="256.25" x="214.5833" y="1033.1523">[Message status is not supported]</text><path d="M587.5,1075.651 L587.5,1141.276 A4.1667,4.1667 0 0 0 591.6667,1145.4427 L777.0833,1145.4427 A4.1667,4.1667 0 0 0 781.25,1141.276 L781.25,1081.901 L770.8333,1071.4844 L591.6667,1071.4844 A4.1667,4.1667 0 0 0 587.5,1075.651 " fill="url(#gxts65p0s3bab2)" filter="url(#fxts65p0s3bab)" style="stroke:#9C27B0;stroke-width:1.0416666666666667;"/><path d="M770.8333,1071.4844 L770.8333,1079.8177 A2.0833,2.0833 0 0 0 772.9167,1081.901 L781.25,1081.901 L770.8333,1071.4844 " fill="url(#gxts65p0s3bab2)" style="stroke:#9C27B0;stroke-width:1.0416666666666667;"/><text fill="#FFFFFF" font-family="Verdana" font-size="12.5" lengthAdjust="spacing" textLength="151.0417" x="604.1667" y="1098.7122">Unsupported statuses:</text><text fill="#FFFFFF" font-family="Verdana" font-size="12.5" lengthAdjust="spacing" textLength="107.2917" x="604.1667" y="1113.2629">- PARTIALLY_PAID</text><text fill="#FFFFFF" font-family="Verdana" font-size="12.5" lengthAdjust="spacing" textLength="79.1667" x="604.1667" y="1127.8137">- PUBLISHED</text><polygon fill="#2196F3" points="262.5,1192.1875,252.0833,1196.3542,262.5,1200.5208,258.3333,1196.3542" style="stroke:#2196F3;stroke-width:1.0416666666666667;"/><line style="stroke:#2196F3;stroke-width:3.125;stroke-dasharray:2.0,2.0;" x1="256.25" x2="570.8333" y1="1196.3542" y2="1196.3542"/><text fill="#222222" font-family="Verdana" font-size="12.5" font-weight="bold" lengthAdjust="spacing" textLength="16.6667" x="279.1667" y="1180.9062">12</text><text fill="#222222" font-family="Verdana" font-size="12.5" lengthAdjust="spacing" textLength="112.5" x="320.8333" y="1180.9062">400 Bad Request</text><line style="stroke:#2196F3;stroke-width:1.0416666666666667;stroke-dasharray:2.0,2.0;" x1="101.0417" x2="1327.6042" y1="1205.7292" y2="1205.7292"/><text fill="#222222" font-family="Verdana" font-size="12.5" font-weight="bold" lengthAdjust="spacing" textLength="227.0833" x="116.6667" y="1227.7486">[Message status is supported]</text><line style="stroke:#2196F3;stroke-width:3.125;" x1="582.2917" x2="626.0417" y1="1283.7891" y2="1283.7891"/><line style="stroke:#2196F3;stroke-width:3.125;" x1="626.0417" x2="626.0417" y1="1283.7891" y2="1297.3307"/><line style="stroke:#2196F3;stroke-width:3.125;" x1="583.3333" x2="626.0417" y1="1297.3307" y2="1297.3307"/><polygon fill="#2196F3" points="593.75,1293.1641,583.3333,1297.3307,593.75,1301.4974,589.5833,1297.3307" style="stroke:#2196F3;stroke-width:1.0416666666666667;"/><text fill="#222222" font-family="Verdana" font-size="12.5" font-weight="bold" lengthAdjust="spacing" textLength="16.6667" x="600" y="1268.3411">13</text><text fill="#222222" font-family="Verdana" font-size="12.5" lengthAdjust="spacing" textLength="137.5" x="641.6667" y="1268.3411">map message to RTP</text><polygon fill="#2196F3" points="1029.1667,1343.1315,1039.5833,1347.2982,1029.1667,1351.4648,1033.3333,1347.2982" style="stroke:#2196F3;stroke-width:1.0416666666666667;"/><line style="stroke:#2196F3;stroke-width:3.125;" x1="582.2917" x2="1035.4167" y1="1347.2982" y2="1347.2982"/><text fill="#222222" font-family="Verdana" font-size="12.5" font-weight="bold" lengthAdjust="spacing" textLength="16.6667" x="600" y="1331.8502">14</text><text fill="#222222" font-family="Verdana" font-size="12.5" lengthAdjust="spacing" textLength="151.0417" x="641.6667" y="1331.8502">findRtpByCompositeKey</text><path d="M115.625,1362.9232 L198.9583,1362.9232 L198.9583,1389.974 L188.5417,1400.3906 L111.4583,1400.3906 L111.4583,1367.0898 A4.1667,4.1667 0 0 1 115.625,1362.9232 " fill="#FFFFFF" style="stroke:#666666;stroke-width:1.0416666666666667;"/><rect fill="none" height="1561.263" rx="4.1667" ry="4.1667" style="stroke:#2196F3;stroke-width:1.0416666666666667;" width="1205.7292" x="111.4583" y="1362.9232"/><text fill="#9C27B0" font-family="Verdana" font-size="12.5" font-weight="bold" lengthAdjust="spacing" textLength="19.7917" x="137.5" y="1385.9843">alt</text><text fill="#222222" font-family="Verdana" font-size="12.5" font-weight="bold" lengthAdjust="spacing" textLength="85.4167" x="225" y="1387.026">[RTP exists]</text><polygon fill="#2196F3" points="593.75,1457.6172,583.3333,1461.7839,593.75,1465.9505,589.5833,1461.7839" style="stroke:#2196F3;stroke-width:1.0416666666666667;"/><line style="stroke:#2196F3;stroke-width:3.125;stroke-dasharray:2.0,2.0;" x1="587.5" x2="1045.8333" y1="1461.7839" y2="1461.7839"/><text fill="#222222" font-family="Verdana" font-size="12.5" font-weight="bold" lengthAdjust="spacing" textLength="16.6667" x="610.4167" y="1446.3359">15</text><text fill="#222222" font-family="Verdana" font-size="12.5" lengthAdjust="spacing" textLength="65.625" x="652.0833" y="1446.3359">RTP found</text><path d="M587.5,1479.4922 L587.5,1603.4505 A4.1667,4.1667 0 0 0 591.6667,1607.6172 L828.125,1607.6172 A4.1667,4.1667 0 0 0 832.2917,1603.4505 L832.2917,1485.7422 L821.875,1475.3255 L591.6667,1475.3255 A4.1667,4.1667 0 0 0 587.5,1479.4922 " fill="url(#gxts65p0s3bab2)" filter="url(#fxts65p0s3bab)" style="stroke:#9C27B0;stroke-width:1.0416666666666667;"/><path d="M821.875,1475.3255 L821.875,1483.6589 A2.0833,2.0833 0 0 0 823.9583,1485.7422 L832.2917,1485.7422 L821.875,1475.3255 " fill="url(#gxts65p0s3bab2)" style="stroke:#9C27B0;stroke-width:1.0416666666666667;"/><text fill="#FFFFFF" font-family="Verdana" font-size="12.5" lengthAdjust="spacing" textLength="202.0833" x="604.1667" y="1502.5533">Valid statuses for cancellation:</text><text fill="#FFFFFF" font-family="Verdana" font-size="12.5" lengthAdjust="spacing" textLength="66.6667" x="604.1667" y="1517.1041">- CREATED</text><text fill="#FFFFFF" font-family="Verdana" font-size="12.5" lengthAdjust="spacing" textLength="41.6667" x="604.1667" y="1531.6549">- SENT</text><text fill="#FFFFFF" font-family="Verdana" font-size="12.5" lengthAdjust="spacing" textLength="75" x="604.1667" y="1546.2056">- ACCEPTED</text><text fill="#FFFFFF" font-family="Verdana" font-size="12.5" lengthAdjust="spacing" textLength="115.625" x="604.1667" y="1560.7564">- USER_ACCEPTED</text><text fill="#FFFFFF" font-family="Verdana" font-size="12.5" lengthAdjust="spacing" textLength="4.1667" x="604.1667" y="1575.3072">&#160;</text><text fill="#FFFFFF" font-family="Verdana" font-size="12.5" lengthAdjust="spacing" textLength="192.7083" x="604.1667" y="1589.858">Cancellation request initiated</text><path d="M126.0417,1624.056 L209.375,1624.056 L209.375,1651.1068 L198.9583,1661.5234 L121.875,1661.5234 L121.875,1628.2227 A4.1667,4.1667 0 0 1 126.0417,1624.056 " fill="#FFFFFF" style="stroke:#666666;stroke-width:1.0416666666666667;"/><rect fill="none" height="1155.4362" rx="4.1667" ry="4.1667" style="stroke:#2196F3;stroke-width:1.0416666666666667;" width="1184.8958" x="121.875" y="1624.056"/><text fill="#9C27B0" font-family="Verdana" font-size="12.5" font-weight="bold" lengthAdjust="spacing" textLength="19.7917" x="147.9167" y="1647.1171">alt</text><text fill="#222222" font-family="Verdana" font-size="12.5" font-weight="bold" lengthAdjust="spacing" textLength="114.5833" x="235.4167" y="1648.1588">[Status is valid]</text><polygon fill="#2196F3" points="1168.75,1718.75,1179.1667,1722.9167,1168.75,1727.0833,1172.9167,1722.9167" style="stroke:#2196F3;stroke-width:1.0416666666666667;"/><line style="stroke:#2196F3;stroke-width:3.125;" x1="582.2917" x2="1175" y1="1722.9167" y2="1722.9167"/><text fill="#222222" font-family="Verdana" font-size="12.5" font-weight="bold" lengthAdjust="spacing" textLength="16.6667" x="600" y="1707.4687">16</text><text fill="#222222" font-family="Verdana" font-size="12.5" lengthAdjust="spacing" textLength="414.5833" x="641.6667" y="1707.4687">POST /sepa-request-to-pay-requests/{id}/cancellation-requests</text><path d="M136.4583,1738.5417 L219.7917,1738.5417 L219.7917,1765.5924 L209.375,1776.0091 L132.2917,1776.0091 L132.2917,1742.7083 A4.1667,4.1667 0 0 1 136.4583,1738.5417 " fill="#FFFFFF" style="stroke:#666666;stroke-width:1.0416666666666667;"/><rect fill="none" height="922.2982" rx="4.1667" ry="4.1667" style="stroke:#2196F3;stroke-width:1.0416666666666667;" width="1164.0625" x="132.2917" y="1738.5417"/><text fill="#9C27B0" font-family="Verdana" font-size="12.5" font-weight="bold" lengthAdjust="spacing" textLength="19.7917" x="158.3333" y="1761.6028">alt</text><text fill="#222222" font-family="Verdana" font-size="12.5" font-weight="bold" lengthAdjust="spacing" textLength="119.7917" x="245.8333" y="1762.6444">[Async flow EPC]</text><polygon fill="#2196F3" points="593.75,1833.2357,583.3333,1837.4023,593.75,1841.569,589.5833,1837.4023" style="stroke:#2196F3;stroke-width:1.0416666666666667;"/><line style="stroke:#2196F3;stroke-width:3.125;stroke-dasharray:2.0,2.0;" x1="587.5" x2="1180.2083" y1="1837.4023" y2="1837.4023"/><text fill="#222222" font-family="Verdana" font-size="12.5" font-weight="bold" lengthAdjust="spacing" textLength="16.6667" x="610.4167" y="1821.9543">17</text><text fill="#222222" font-family="Verdana" font-size="12.5" lengthAdjust="spacing" textLength="95.8333" x="652.0833" y="1821.9543">OK empty body</text><line style="stroke:#2196F3;stroke-width:3.125;" x1="582.2917" x2="626.0417" y1="1887.3698" y2="1887.3698"/><line style="stroke:#2196F3;stroke-width:3.125;" x1="626.0417" x2="626.0417" y1="1887.3698" y2="1900.9115"/><line style="stroke:#2196F3;stroke-width:3.125;" x1="583.3333" x2="626.0417" y1="1900.9115" y2="1900.9115"/><polygon fill="#2196F3" points="593.75,1896.7448,583.3333,1900.9115,593.75,1905.0781,589.5833,1900.9115" style="stroke:#2196F3;stroke-width:1.0416666666666667;"/><text fill="#222222" font-family="Verdana" font-size="12.5" font-weight="bold" lengthAdjust="spacing" textLength="16.6667" x="600" y="1871.9218">18</text><text fill="#222222" font-family="Verdana" font-size="12.5" lengthAdjust="spacing" textLength="163.5417" x="641.6667" y="1871.9218">Set RTP status RFC_SENT</text><polygon fill="#2196F3" points="1029.1667,1946.7122,1039.5833,1950.8789,1029.1667,1955.0456,1033.3333,1950.8789" style="stroke:#2196F3;stroke-width:1.0416666666666667;"/><line style="stroke:#2196F3;stroke-width:3.125;" x1="582.2917" x2="1035.4167" y1="1950.8789" y2="1950.8789"/><text fill="#222222" font-family="Verdana" font-size="12.5" font-weight="bold" lengthAdjust="spacing" textLength="16.6667" x="600" y="1935.4309">19</text><text fill="#222222" font-family="Verdana" font-size="12.5" lengthAdjust="spacing" textLength="137.5" x="641.6667" y="1935.4309">Save RTP (RFC_SENT)</text><polygon fill="#2196F3" points="593.75,1996.6797,583.3333,2000.8464,593.75,2005.013,589.5833,2000.8464" style="stroke:#2196F3;stroke-width:1.0416666666666667;"/><line style="stroke:#2196F3;stroke-width:3.125;stroke-dasharray:2.0,2.0;" x1="587.5" x2="1045.8333" y1="2000.8464" y2="2000.8464"/><text fill="#222222" font-family="Verdana" font-size="12.5" font-weight="bold" lengthAdjust="spacing" textLength="16.6667" x="610.4167" y="1985.3984">20</text><text fill="#222222" font-family="Verdana" font-size="12.5" lengthAdjust="spacing" textLength="67.7083" x="652.0833" y="1985.3984">Saved RTP</text><polygon fill="#2196F3" points="262.5,2046.6471,252.0833,2050.8138,262.5,2054.9805,258.3333,2050.8138" style="stroke:#2196F3;stroke-width:1.0416666666666667;"/><line style="stroke:#2196F3;stroke-width:3.125;stroke-dasharray:2.0,2.0;" x1="256.25" x2="570.8333" y1="2050.8138" y2="2050.8138"/><text fill="#222222" font-family="Verdana" font-size="12.5" font-weight="bold" lengthAdjust="spacing" textLength="16.6667" x="279.1667" y="2035.3658">21</text><text fill="#222222" font-family="Verdana" font-size="12.5" lengthAdjust="spacing" textLength="103.125" x="320.8333" y="2035.3658">204 No Content</text><line style="stroke:#2196F3;stroke-width:1.0416666666666667;stroke-dasharray:2.0,2.0;" x1="132.2917" x2="1296.3542" y1="2060.1888" y2="2060.1888"/><text fill="#222222" font-family="Verdana" font-size="12.5" font-weight="bold" lengthAdjust="spacing" textLength="111.4583" x="147.9167" y="2082.2083">[Sync flow EPC]</text><polygon fill="#2196F3" points="593.75,2134.082,583.3333,2138.2487,593.75,2142.4154,589.5833,2138.2487" style="stroke:#2196F3;stroke-width:1.0416666666666667;"/><line style="stroke:#2196F3;stroke-width:3.125;stroke-dasharray:2.0,2.0;" x1="587.5" x2="1180.2083" y1="2138.2487" y2="2138.2487"/><text fill="#222222" font-family="Verdana" font-size="12.5" font-weight="bold" lengthAdjust="spacing" textLength="16.6667" x="610.4167" y="2122.8007">22</text><text fill="#222222" font-family="Verdana" font-size="12.5" lengthAdjust="spacing" textLength="71.875" x="652.0833" y="2122.8007">OK payload</text><line style="stroke:#2196F3;stroke-width:3.125;" x1="582.2917" x2="626.0417" y1="2188.2161" y2="2188.2161"/><line style="stroke:#2196F3;stroke-width:3.125;" x1="626.0417" x2="626.0417" y1="2188.2161" y2="2201.7578"/><line style="stroke:#2196F3;stroke-width:3.125;" x1="583.3333" x2="626.0417" y1="2201.7578" y2="2201.7578"/><polygon fill="#2196F3" points="593.75,2197.5911,583.3333,2201.7578,593.75,2205.9245,589.5833,2201.7578" style="stroke:#2196F3;stroke-width:1.0416666666666667;"/><text fill="#222222" font-family="Verdana" font-size="12.5" font-weight="bold" lengthAdjust="spacing" textLength="16.6667" x="600" y="2172.7681">23</text><text fill="#222222" font-family="Verdana" font-size="12.5" lengthAdjust="spacing" textLength="172.9167" x="641.6667" y="2172.7681">Set RTP status CANCELLED</text><polygon fill="#2196F3" points="1029.1667,2247.5586,1039.5833,2251.7253,1029.1667,2255.8919,1033.3333,2251.7253" style="stroke:#2196F3;stroke-width:1.0416666666666667;"/><line style="stroke:#2196F3;stroke-width:3.125;" x1="582.2917" x2="1035.4167" y1="2251.7253" y2="2251.7253"/><text fill="#222222" font-family="Verdana" font-size="12.5" font-weight="bold" lengthAdjust="spacing" textLength="16.6667" x="600" y="2236.2773">24</text><text fill="#222222" font-family="Verdana" font-size="12.5" lengthAdjust="spacing" textLength="146.875" x="641.6667" y="2236.2773">Save RTP (CANCELLED)</text><polygon fill="#2196F3" points="593.75,2297.526,583.3333,2301.6927,593.75,2305.8594,589.5833,2301.6927" style="stroke:#2196F3;stroke-width:1.0416666666666667;"/><line style="stroke:#2196F3;stroke-width:3.125;stroke-dasharray:2.0,2.0;" x1="587.5" x2="1045.8333" y1="2301.6927" y2="2301.6927"/><text fill="#222222" font-family="Verdana" font-size="12.5" font-weight="bold" lengthAdjust="spacing" textLength="16.6667" x="610.4167" y="2286.2447">25</text><text fill="#222222" font-family="Verdana" font-size="12.5" lengthAdjust="spacing" textLength="67.7083" x="652.0833" y="2286.2447">Saved RTP</text><polygon fill="#2196F3" points="262.5,2347.4935,252.0833,2351.6602,262.5,2355.8268,258.3333,2351.6602" style="stroke:#2196F3;stroke-width:1.0416666666666667;"/><line style="stroke:#2196F3;stroke-width:3.125;stroke-dasharray:2.0,2.0;" x1="256.25" x2="570.8333" y1="2351.6602" y2="2351.6602"/><text fill="#222222" font-family="Verdana" font-size="12.5" font-weight="bold" lengthAdjust="spacing" textLength="16.6667" x="279.1667" y="2336.2122">26</text><text fill="#222222" font-family="Verdana" font-size="12.5" lengthAdjust="spacing" textLength="45.8333" x="320.8333" y="2336.2122">200 OK</text><line style="stroke:#2196F3;stroke-width:1.0416666666666667;stroke-dasharray:2.0,2.0;" x1="132.2917" x2="1296.3542" y1="2361.0352" y2="2361.0352"/><text fill="#222222" font-family="Verdana" font-size="12.5" font-weight="bold" lengthAdjust="spacing" textLength="162.5" x="147.9167" y="2383.0546">[Error Sync Response]</text><polygon fill="#2196F3" points="593.75,2434.9284,583.3333,2439.0951,593.75,2443.2617,589.5833,2439.0951" style="stroke:#2196F3;stroke-width:1.0416666666666667;"/><line style="stroke:#2196F3;stroke-width:3.125;stroke-dasharray:2.0,2.0;" x1="587.5" x2="1180.2083" y1="2439.0951" y2="2439.0951"/><text fill="#222222" font-family="Verdana" font-size="12.5" font-weight="bold" lengthAdjust="spacing" textLength="16.6667" x="610.4167" y="2423.6471">27</text><text fill="#222222" font-family="Verdana" font-size="12.5" lengthAdjust="spacing" textLength="101.0417" x="652.0833" y="2423.6471">Error (4xx / 5xx)</text><line style="stroke:#2196F3;stroke-width:3.125;" x1="582.2917" x2="626.0417" y1="2489.0625" y2="2489.0625"/><line style="stroke:#2196F3;stroke-width:3.125;" x1="626.0417" x2="626.0417" y1="2489.0625" y2="2502.6042"/><line style="stroke:#2196F3;stroke-width:3.125;" x1="583.3333" x2="626.0417" y1="2502.6042" y2="2502.6042"/><polygon fill="#2196F3" points="593.75,2498.4375,583.3333,2502.6042,593.75,2506.7708,589.5833,2502.6042" style="stroke:#2196F3;stroke-width:1.0416666666666667;"/><text fill="#222222" font-family="Verdana" font-size="12.5" font-weight="bold" lengthAdjust="spacing" textLength="16.6667" x="600" y="2473.6145">28</text><text fill="#222222" font-family="Verdana" font-size="12.5" lengthAdjust="spacing" textLength="197.9167" x="641.6667" y="2473.6145">Set RTP status ERROR_CANCEL</text><polygon fill="#2196F3" points="1029.1667,2548.4049,1039.5833,2552.5716,1029.1667,2556.7383,1033.3333,2552.5716" style="stroke:#2196F3;stroke-width:1.0416666666666667;"/><line style="stroke:#2196F3;stroke-width:3.125;" x1="582.2917" x2="1035.4167" y1="2552.5716" y2="2552.5716"/><text fill="#222222" font-family="Verdana" font-size="12.5" font-weight="bold" lengthAdjust="spacing" textLength="16.6667" x="600" y="2537.1236">29</text><text fill="#222222" font-family="Verdana" font-size="12.5" lengthAdjust="spacing" textLength="171.875" x="641.6667" y="2537.1236">Save RTP (ERROR_CANCEL)</text><polygon fill="#2196F3" points="593.75,2598.3724,583.3333,2602.5391,593.75,2606.7057,589.5833,2602.5391" style="stroke:#2196F3;stroke-width:1.0416666666666667;"/><line style="stroke:#2196F3;stroke-width:3.125;stroke-dasharray:2.0,2.0;" x1="587.5" x2="1045.8333" y1="2602.5391" y2="2602.5391"/><text fill="#222222" font-family="Verdana" font-size="12.5" font-weight="bold" lengthAdjust="spacing" textLength="16.6667" x="610.4167" y="2587.0911">30</text><text fill="#222222" font-family="Verdana" font-size="12.5" lengthAdjust="spacing" textLength="67.7083" x="652.0833" y="2587.0911">Saved RTP</text><polygon fill="#2196F3" points="262.5,2648.3398,252.0833,2652.5065,262.5,2656.6732,258.3333,2652.5065" style="stroke:#2196F3;stroke-width:1.0416666666666667;"/><line style="stroke:#2196F3;stroke-width:3.125;stroke-dasharray:2.0,2.0;" x1="256.25" x2="570.8333" y1="2652.5065" y2="2652.5065"/><text fill="#222222" font-family="Verdana" font-size="12.5" font-weight="bold" lengthAdjust="spacing" textLength="16.6667" x="279.1667" y="2637.0585">31</text><text fill="#222222" font-family="Verdana" font-size="12.5" lengthAdjust="spacing" textLength="113.5417" x="320.8333" y="2637.0585">Error propagated</text><line style="stroke:#2196F3;stroke-width:1.0416666666666667;stroke-dasharray:2.0,2.0;" x1="121.875" x2="1306.7708" y1="2669.1732" y2="2669.1732"/><text fill="#222222" font-family="Verdana" font-size="12.5" font-weight="bold" lengthAdjust="spacing" textLength="141.6667" x="137.5" y="2691.1926">[Invalid RTP status]</text><polygon fill="#2196F3" points="262.5,2755.0293,252.0833,2759.196,262.5,2763.3626,258.3333,2759.196" style="stroke:#2196F3;stroke-width:1.0416666666666667;"/><line style="stroke:#2196F3;stroke-width:3.125;stroke-dasharray:2.0,2.0;" x1="256.25" x2="570.8333" y1="2759.196" y2="2759.196"/><text fill="#222222" font-family="Verdana" font-size="12.5" font-weight="bold" lengthAdjust="spacing" textLength="16.6667" x="279.1667" y="2743.748">32</text><text fill="#222222" font-family="Verdana" font-size="12.5" lengthAdjust="spacing" textLength="167.7083" x="320.8333" y="2743.748">422 Unprocessable Entity</text><path d="M587.5,2714.974 L587.5,2766.0156 A4.1667,4.1667 0 0 0 591.6667,2770.1823 L787.5,2770.1823 A4.1667,4.1667 0 0 0 791.6667,2766.0156 L791.6667,2721.224 L781.25,2710.8073 L591.6667,2710.8073 A4.1667,4.1667 0 0 0 587.5,2714.974 " fill="url(#gxts65p0s3bab2)" filter="url(#fxts65p0s3bab)" style="stroke:#9C27B0;stroke-width:1.0416666666666667;"/><path d="M781.25,2710.8073 L781.25,2719.1406 A2.0833,2.0833 0 0 0 783.3333,2721.224 L791.6667,2721.224 L781.25,2710.8073 " fill="url(#gxts65p0s3bab2)" style="stroke:#9C27B0;stroke-width:1.0416666666666667;"/><text fill="#FFFFFF" font-family="Verdana" font-size="12.5" lengthAdjust="spacing" textLength="161.4583" x="604.1667" y="2738.0351">RTP already in final state</text><text fill="#FFFFFF" font-family="Verdana" font-size="12.5" lengthAdjust="spacing" textLength="142.7083" x="604.1667" y="2752.5859">(e.g., PAID, REJECTED)</text><line style="stroke:#2196F3;stroke-width:1.0416666666666667;stroke-dasharray:2.0,2.0;" x1="111.4583" x2="1317.1875" y1="2787.8255" y2="2787.8255"/><text fill="#222222" font-family="Verdana" font-size="12.5" font-weight="bold" lengthAdjust="spacing" textLength="113.5417" x="127.0833" y="2809.845">[RTP not found]</text><polygon fill="#2196F3" points="593.75,2861.7188,583.3333,2865.8854,593.75,2870.0521,589.5833,2865.8854" style="stroke:#2196F3;stroke-width:1.0416666666666667;"/><line style="stroke:#2196F3;stroke-width:3.125;stroke-dasharray:2.0,2.0;" x1="587.5" x2="1045.8333" y1="2865.8854" y2="2865.8854"/><text fill="#222222" font-family="Verdana" font-size="12.5" font-weight="bold" lengthAdjust="spacing" textLength="16.6667" x="610.4167" y="2850.4374">33</text><text fill="#222222" font-family="Verdana" font-size="12.5" lengthAdjust="spacing" textLength="64.5833" x="652.0833" y="2850.4374">Not found</text><polygon fill="#2196F3" points="262.5,2911.6862,252.0833,2915.8529,262.5,2920.0195,258.3333,2915.8529" style="stroke:#2196F3;stroke-width:1.0416666666666667;"/><line style="stroke:#2196F3;stroke-width:3.125;stroke-dasharray:2.0,2.0;" x1="256.25" x2="570.8333" y1="2915.8529" y2="2915.8529"/><text fill="#222222" font-family="Verdana" font-size="12.5" font-weight="bold" lengthAdjust="spacing" textLength="16.6667" x="279.1667" y="2900.4049">34</text><text fill="#222222" font-family="Verdana" font-size="12.5" lengthAdjust="spacing" textLength="96.875" x="320.8333" y="2900.4049">404 Not Found</text><!--SRC=[nPRVZ-8s4CVVyrTCzucLZjlLYZuKgPNO9DkZnqAKmAcLJbePCh1MWvt6PWzqwl_UiVFBuLVldeu7mFPtnkFFZ7_yf5znYx1b6WlEF4zpdI74ymWMUKgTy9J9Bz0RJp-D9kC0xY3yCnh7ON3hUJahD5_nd0aDDyz9tvzDayLp6Dy0Kr0tJbH9E0qgJVdNesdOaYc4cnXJhZwBtZZ5RIurYjK1Fk814YqBlBKsDFKuSKmI2hLqHd-waoKH1BZanhPKH87diPsMOhTTOk5vTOpG_wsAPGXFilZ2YXH-3uX058pc8U0R2lrPV42MOg66u4JNf-ZUGOp_x53fSUe9weOCrze3cELOCCsbW5yhJzIPQAPtYdfgeBAeYNeeKZ0EACYLvcy6VaN8AtzDd7RzG_1VSVNtSIIjNKd9Ova-rW3B2bh80V825QsBOh9Yw3iGZ6ujToAbqHIFl0AqqTG60LShGotTvHbVaJQ5BIh5DaXo2wNWcrSDSbql2UZpN4gSaEIAkZ2reqIc7k2Y7kDYGuCDgJOM2gPEvn06zx-0ByMQOj6UXnaLoZ46ClzV14PJOpZ9GCBUJhnUzAH8V1RcMPflBEDsxxKChuXaMsTkeLqsK5KDdYr2CZLLKwUcqd9bOQXTdij2Lmcwc5U0XMYabGjKmsgi3z4edez7aybVBz5e7BJTYyV9EFaGbZrEZYzc-HuUMLflFnEwJVLfxDsuJz5iMLwp1YtDwUSTAwbl26ikqbZdZmTVKjeLrrWcdPWrExOnDXZDEOfxhhIgLcc6EzLXsdMDcOzJ8Qshgwm1FfdCDfp9NG4h9bQOPROkXesm3tuSKdq4JW_vcZlDaU-7KLUnICBufUbl1dnd2YZA7D1EvPgpchIJnQfje2HDNcn9DWuTsb4mX6YMpE5EOSxwbVU-blsS7UgckllAqt_ltAKsGutJbcRan6x26Ac3MC7QN6zXv3T3O9IT5Cq-0kroVO2bJ0-kxgIE4YnJNbLU_EI_TF2ULfGzHOn9hnRVEkfkAJXUZgl8k4cXApgkfDCWEhlfuNu0KscEJMtEn4PkjrJoxQWeGPbawVTmyaTJFvnCdAAx1gfH_pXIzxJG8q9XKT2sivnYLBaK2gzmAjMzmNvFBwgVz_lRxy4Lnl4iVYanV1Cnr-17GIjNJBTupZRE-M1FY1QbwxJTh-K5BknfuO3mhauuU7YWQwXwDh0bFMf3GO_RTWEtHweJk_7kl3hem6UPdSxDPW_VRzw_0tDvqUCl_2FqvsurTcukPu5s6MO2zrrnblVqI72UzOLBSM3DdnfpjB_csqRY-YglaVy0]--></g></svg>