<svg xmlns="http://www.w3.org/2000/svg" xmlns:xlink="http://www.w3.org/1999/xlink" contentStyleType="text/css" data-diagram-type="SEQUENCE" height="1252px" preserveAspectRatio="none" style="width:1458px;height:1252px;background:#FFFFFF;" version="1.1" viewBox="0 0 1458 1252" width="1458px" zoomAndPan="magnify"><title>GDP Message - **UPDATE PAID** Flow</title><defs><filter height="300%" id="fis9bvpthpyw1" width="300%" x="-1" y="-1"><feGaussianBlur result="blurOut" stdDeviation="2"/><feColorMatrix in="blurOut" result="blurOut2" type="matrix" values="0 0 0 0 0 0 0 0 0 0 0 0 0 0 0 0 0 0 .4 0"/><feOffset dx="4" dy="4" in="blurOut2" result="blurOut3"/><feBlend in="SourceGraphic" in2="blurOut3" mode="normal"/></filter></defs><g><text fill="#000000" font-family="sans-serif" font-size="14" font-weight="bold" lengthAdjust="spacing" textLength="117.9883" x="591.1809" y="27.9951">GDP Message -</text><text fill="#000000" font-family="sans-serif" font-size="14" font-weight="bold" lengthAdjust="spacing" textLength="105.998" x="714.0432" y="27.9951">UPDATE PAID</text><text fill="#000000" font-family="sans-serif" font-size="14" font-weight="bold" lengthAdjust="spacing" textLength="36.9141" x="824.9153" y="27.9951">Flow</text><g><title>GDP Message Consumer</title><rect fill="#FFFFFF" filter="url(#fis9bvpthpyw1)" height="1023.1406" style="stroke:#A80036;stroke-width:1;" width="10" x="301.2246" y="140.7266"/></g><g><title>SP Creditore</title><rect fill="#FFFFFF" filter="url(#fis9bvpthpyw1)" height="923.7422" style="stroke:#A80036;stroke-width:1;" width="10" x="565.6655" y="241.125"/></g><g><title>SRTP</title><rect fill="#FFFFFF" filter="url(#fis9bvpthpyw1)" height="53.2656" style="stroke:#A80036;stroke-width:1;" width="10" x="881.3257" y="270.2578"/></g><g><title>SRTP</title><rect fill="#FFFFFF" filter="url(#fis9bvpthpyw1)" height="29.1328" style="stroke:#A80036;stroke-width:1;" width="10" x="881.3257" y="558.8516"/></g><g><title>SRTP</title><rect fill="#FFFFFF" filter="url(#fis9bvpthpyw1)" height="29.1328" style="stroke:#A80036;stroke-width:1;" width="10" x="881.3257" y="766.4531"/></g><g><title>SRTP</title><rect fill="#FFFFFF" filter="url(#fis9bvpthpyw1)" height="29.1328" style="stroke:#A80036;stroke-width:1;" width="10" x="881.3257" y="920.7891"/></g><g><title>Service Registry</title><rect fill="#FFFFFF" filter="url(#fis9bvpthpyw1)" height="29.1328" style="stroke:#A80036;stroke-width:1;" width="10" x="972.1963" y="476.4531"/></g><g><title>SP Debitore</title><rect fill="#FFFFFF" filter="url(#fis9bvpthpyw1)" height="527.9453" style="stroke:#A80036;stroke-width:1;" width="10" x="1092.4492" y="636.9219"/></g><rect fill="none" filter="url(#fis9bvpthpyw1)" height="954.0078" style="stroke:#000000;stroke-width:2;" width="1262.645" x="181.3652" y="202.8594"/><rect fill="none" filter="url(#fis9bvpthpyw1)" height="810.6719" style="stroke:#000000;stroke-width:2;" width="1242.645" x="191.3652" y="285.2578"/><rect fill="none" filter="url(#fis9bvpthpyw1)" height="606.8047" style="stroke:#000000;stroke-width:2;" width="1222.645" x="201.3652" y="438.1875"/><rect fill="none" filter="url(#fis9bvpthpyw1)" height="444.3359" style="stroke:#000000;stroke-width:2;" width="915.9067" x="498.1035" y="520.5859"/><rect fill="none" filter="url(#fis9bvpthpyw1)" height="301" style="stroke:#000000;stroke-width:2;" width="830.666" x="508.1035" y="656.9219"/><g><title>GDP Event Hub</title><rect fill="#000000" fill-opacity="0.00000" height="1069.2734" width="8" x="133.6826" y="104.5938"/><line style="stroke:#A80036;stroke-width:1;stroke-dasharray:5.0,5.0;" x1="137" x2="137" y1="104.5938" y2="1173.8672"/></g><g><title>GDP Message Consumer</title><rect fill="#000000" fill-opacity="0.00000" height="1069.2734" width="8" x="302.2246" y="104.5938"/><line style="stroke:#A80036;stroke-width:1;stroke-dasharray:5.0,5.0;" x1="305.3652" x2="305.3652" y1="104.5938" y2="1173.8672"/></g><g><title>SP Creditore</title><rect fill="#000000" fill-opacity="0.00000" height="1069.2734" width="8" x="566.6655" y="104.5938"/><line style="stroke:#A80036;stroke-width:1;stroke-dasharray:5.0,5.0;" x1="570.1035" x2="570.1035" y1="104.5938" y2="1173.8672"/></g><g><title>SRTP</title><rect fill="#000000" fill-opacity="0.00000" height="1069.2734" width="8" x="882.3257" y="104.5938"/><line style="stroke:#A80036;stroke-width:1;stroke-dasharray:5.0,5.0;" x1="885.5215" x2="885.5215" y1="104.5938" y2="1173.8672"/></g><g><title>Service Registry</title><rect fill="#000000" fill-opacity="0.00000" height="1069.2734" width="8" x="973.1963" y="104.5938"/><line style="stroke:#A80036;stroke-width:1;stroke-dasharray:5.0,5.0;" x1="977.1299" x2="977.1299" y1="104.5938" y2="1173.8672"/></g><g><title>SP Debitore</title><rect fill="#000000" fill-opacity="0.00000" height="1069.2734" width="8" x="1093.4492" y="104.5938"/><line style="stroke:#A80036;stroke-width:1;stroke-dasharray:5.0,5.0;" x1="1097.2627" x2="1097.2627" y1="104.5938" y2="1173.8672"/></g><g class="participant participant-head" data-participant="Queue"><path d="M79,78.2969 L196.3652,78.2969 C201.3652,78.2969 201.3652,91.4453 201.3652,91.4453 C201.3652,91.4453 201.3652,104.5938 196.3652,104.5938 L79,104.5938 C74,104.5938 74,91.4453 74,91.4453 C74,91.4453 74,78.2969 79,78.2969" fill="#FEFECE" filter="url(#fis9bvpthpyw1)" style="stroke:#A80036;stroke-width:2;"/><path d="M196.3652,78.2969 C191.3652,78.2969 191.3652,91.4453 191.3652,91.4453 C191.3652,104.5938 196.3652,104.5938 196.3652,104.5938" fill="none" style="stroke:#A80036;stroke-width:2;"/><text fill="#000000" font-family="sans-serif" font-size="14" lengthAdjust="spacing" textLength="107.3652" x="79" y="96.292">GDP Event Hub</text></g><g class="participant participant-tail" data-participant="Queue"><path d="M79,1172.8672 L196.3652,1172.8672 C201.3652,1172.8672 201.3652,1186.0156 201.3652,1186.0156 C201.3652,1186.0156 201.3652,1199.1641 196.3652,1199.1641 L79,1199.1641 C74,1199.1641 74,1186.0156 74,1186.0156 C74,1186.0156 74,1172.8672 79,1172.8672" fill="#FEFECE" filter="url(#fis9bvpthpyw1)" style="stroke:#A80036;stroke-width:2;"/><path d="M196.3652,1172.8672 C191.3652,1172.8672 191.3652,1186.0156 191.3652,1186.0156 C191.3652,1199.1641 196.3652,1199.1641 196.3652,1199.1641" fill="none" style="stroke:#A80036;stroke-width:2;"/><text fill="#000000" font-family="sans-serif" font-size="14" lengthAdjust="spacing" textLength="107.3652" x="79" y="1190.8623">GDP Event Hub</text></g><g class="participant participant-head" data-participant="Consumer"><rect fill="#FEFECE" filter="url(#fis9bvpthpyw1)" height="30.2969" style="stroke:#A80036;stroke-width:1.5;" width="185.7188" x="211.3652" y="69.2969"/><text fill="#000000" font-family="sans-serif" font-size="14" lengthAdjust="spacing" textLength="171.7188" x="218.3652" y="89.292">GDP Message Consumer</text></g><g class="participant participant-tail" data-participant="Consumer"><rect fill="#FEFECE" filter="url(#fis9bvpthpyw1)" height="30.2969" style="stroke:#A80036;stroke-width:1.5;" width="185.7188" x="211.3652" y="1172.8672"/><text fill="#000000" font-family="sans-serif" font-size="14" lengthAdjust="spacing" textLength="171.7188" x="218.3652" y="1192.8623">GDP Message Consumer</text></g><g class="participant participant-head" data-participant="SPC"><rect fill="#FEFECE" filter="url(#fis9bvpthpyw1)" height="30.2969" style="stroke:#A80036;stroke-width:1.5;" width="101.124" x="518.1035" y="69.2969"/><text fill="#000000" font-family="sans-serif" font-size="14" lengthAdjust="spacing" textLength="87.124" x="525.1035" y="89.292">SP Creditore</text></g><g class="participant participant-tail" data-participant="SPC"><rect fill="#FEFECE" filter="url(#fis9bvpthpyw1)" height="30.2969" style="stroke:#A80036;stroke-width:1.5;" width="101.124" x="518.1035" y="1172.8672"/><text fill="#000000" font-family="sans-serif" font-size="14" lengthAdjust="spacing" textLength="87.124" x="525.1035" y="1192.8623">SP Creditore</text></g><g class="participant participant-head" data-participant="SRTP"><text fill="#000000" font-family="sans-serif" font-size="14" lengthAdjust="spacing" textLength="35.6084" x="865.5215" y="101.292">SRTP</text><path d="M868.3257,52.2969 C868.3257,42.2969 886.3257,42.2969 886.3257,42.2969 C886.3257,42.2969 904.3257,42.2969 904.3257,52.2969 L904.3257,78.2969 C904.3257,88.2969 886.3257,88.2969 886.3257,88.2969 C886.3257,88.2969 868.3257,88.2969 868.3257,78.2969 L868.3257,52.2969" fill="#FEFECE" filter="url(#fis9bvpthpyw1)" style="stroke:#A80036;stroke-width:1.5;"/><path d="M868.3257,52.2969 C868.3257,62.2969 886.3257,62.2969 886.3257,62.2969 C886.3257,62.2969 904.3257,62.2969 904.3257,52.2969" fill="none" style="stroke:#A80036;stroke-width:1.5;"/></g><g class="participant participant-tail" data-participant="SRTP"><text fill="#000000" font-family="sans-serif" font-size="14" lengthAdjust="spacing" textLength="35.6084" x="865.5215" y="1185.8623">SRTP</text><path d="M868.3257,1199.1641 C868.3257,1189.1641 886.3257,1189.1641 886.3257,1189.1641 C886.3257,1189.1641 904.3257,1189.1641 904.3257,1199.1641 L904.3257,1225.1641 C904.3257,1235.1641 886.3257,1235.1641 886.3257,1235.1641 C886.3257,1235.1641 868.3257,1235.1641 868.3257,1225.1641 L868.3257,1199.1641" fill="#FEFECE" filter="url(#fis9bvpthpyw1)" style="stroke:#A80036;stroke-width:1.5;"/><path d="M868.3257,1199.1641 C868.3257,1209.1641 886.3257,1209.1641 886.3257,1209.1641 C886.3257,1209.1641 904.3257,1209.1641 904.3257,1199.1641" fill="none" style="stroke:#A80036;stroke-width:1.5;"/></g><g class="participant participant-head" data-participant="Registry"><text fill="#000000" font-family="sans-serif" font-size="14" lengthAdjust="spacing" textLength="114.1328" x="917.1299" y="101.292">Service Registry</text><path d="M959.1963,52.2969 C959.1963,42.2969 977.1963,42.2969 977.1963,42.2969 C977.1963,42.2969 995.1963,42.2969 995.1963,52.2969 L995.1963,78.2969 C995.1963,88.2969 977.1963,88.2969 977.1963,88.2969 C977.1963,88.2969 959.1963,88.2969 959.1963,78.2969 L959.1963,52.2969" fill="#FEFECE" filter="url(#fis9bvpthpyw1)" style="stroke:#A80036;stroke-width:1.5;"/><path d="M959.1963,52.2969 C959.1963,62.2969 977.1963,62.2969 977.1963,62.2969 C977.1963,62.2969 995.1963,62.2969 995.1963,52.2969" fill="none" style="stroke:#A80036;stroke-width:1.5;"/></g><g class="participant participant-tail" data-participant="Registry"><text fill="#000000" font-family="sans-serif" font-size="14" lengthAdjust="spacing" textLength="114.1328" x="917.1299" y="1185.8623">Service Registry</text><path d="M959.1963,1199.1641 C959.1963,1189.1641 977.1963,1189.1641 977.1963,1189.1641 C977.1963,1189.1641 995.1963,1189.1641 995.1963,1199.1641 L995.1963,1225.1641 C995.1963,1235.1641 977.1963,1235.1641 977.1963,1235.1641 C977.1963,1235.1641 959.1963,1235.1641 959.1963,1225.1641 L959.1963,1199.1641" fill="#FEFECE" filter="url(#fis9bvpthpyw1)" style="stroke:#A80036;stroke-width:1.5;"/><path d="M959.1963,1199.1641 C959.1963,1209.1641 977.1963,1209.1641 977.1963,1209.1641 C977.1963,1209.1641 995.1963,1209.1641 995.1963,1199.1641" fill="none" style="stroke:#A80036;stroke-width:1.5;"/></g><g class="participant participant-head" data-participant="SPD"><rect fill="#FEFECE" filter="url(#fis9bvpthpyw1)" height="30.2969" style="stroke:#A80036;stroke-width:1.5;" width="96.373" x="1047.2627" y="69.2969"/><text fill="#000000" font-family="sans-serif" font-size="14" lengthAdjust="spacing" textLength="82.373" x="1054.2627" y="89.292">SP Debitore</text></g><g class="participant participant-tail" data-participant="SPD"><rect fill="#FEFECE" filter="url(#fis9bvpthpyw1)" height="30.2969" style="stroke:#A80036;stroke-width:1.5;" width="96.373" x="1047.2627" y="1172.8672"/><text fill="#000000" font-family="sans-serif" font-size="14" lengthAdjust="spacing" textLength="82.373" x="1054.2627" y="1192.8623">SP Debitore</text></g><g><title>GDP Message Consumer</title><rect fill="#FFFFFF" filter="url(#fis9bvpthpyw1)" height="1023.1406" style="stroke:#A80036;stroke-width:1;" width="10" x="301.2246" y="140.7266"/></g><g><title>SP Creditore</title><rect fill="#FFFFFF" filter="url(#fis9bvpthpyw1)" height="923.7422" style="stroke:#A80036;stroke-width:1;" width="10" x="565.6655" y="241.125"/></g><g><title>SRTP</title><rect fill="#FFFFFF" filter="url(#fis9bvpthpyw1)" height="53.2656" style="stroke:#A80036;stroke-width:1;" width="10" x="881.3257" y="270.2578"/></g><g><title>SRTP</title><rect fill="#FFFFFF" filter="url(#fis9bvpthpyw1)" height="29.1328" style="stroke:#A80036;stroke-width:1;" width="10" x="881.3257" y="558.8516"/></g><g><title>SRTP</title><rect fill="#FFFFFF" filter="url(#fis9bvpthpyw1)" height="29.1328" style="stroke:#A80036;stroke-width:1;" width="10" x="881.3257" y="766.4531"/></g><g><title>SRTP</title><rect fill="#FFFFFF" filter="url(#fis9bvpthpyw1)" height="29.1328" style="stroke:#A80036;stroke-width:1;" width="10" x="881.3257" y="920.7891"/></g><g><title>Service Registry</title><rect fill="#FFFFFF" filter="url(#fis9bvpthpyw1)" height="29.1328" style="stroke:#A80036;stroke-width:1;" width="10" x="972.1963" y="476.4531"/></g><g><title>SP Debitore</title><rect fill="#FFFFFF" filter="url(#fis9bvpthpyw1)" height="527.9453" style="stroke:#A80036;stroke-width:1;" width="10" x="1092.4492" y="636.9219"/></g><g class="message" data-participant-1="Queue" data-participant-2="Consumer"><polygon fill="#A80036" points="289.2246,136.7266,299.2246,140.7266,289.2246,144.7266,293.2246,140.7266" style="stroke:#A80036;stroke-width:1;"/><line style="stroke:#A80036;stroke-width:1;" x1="137.6826" x2="295.2246" y1="140.7266" y2="140.7266"/><text fill="#000000" font-family="sans-serif" font-size="13" font-weight="bold" lengthAdjust="spacing" textLength="99.6392" x="144.6826" y="135.6606">GDP Message</text></g><path d="M5,119.5938 L5,144.5938 L128,144.5938 L128,129.5938 L118,119.5938 L5,119.5938" fill="#FBFB77" filter="url(#fis9bvpthpyw1)" style="stroke:#A80036;stroke-width:1;"/><path d="M118,119.5938 L118,129.5938 L128,129.5938 L118,119.5938" fill="#FBFB77" style="stroke:#A80036;stroke-width:1;"/><text fill="#000000" font-family="sans-serif" font-size="13" font-weight="bold" lengthAdjust="spacing" textLength="102.7178" x="11" y="136.6606">Status = PAID</text><g class="message" data-participant-1="Consumer" data-participant-2="Consumer"><line style="stroke:#A80036;stroke-width:1;" x1="311.2246" x2="353.2246" y1="174.8594" y2="174.8594"/><line style="stroke:#A80036;stroke-width:1;" x1="353.2246" x2="353.2246" y1="174.8594" y2="187.8594"/><line style="stroke:#A80036;stroke-width:1;" x1="312.2246" x2="353.2246" y1="187.8594" y2="187.8594"/><polygon fill="#A80036" points="322.2246,183.8594,312.2246,187.8594,322.2246,191.8594,318.2246,187.8594" style="stroke:#A80036;stroke-width:1;"/><text fill="#000000" font-family="sans-serif" font-size="13" font-weight="bold" lengthAdjust="spacing" textLength="188.8428" x="318.2246" y="169.7935">Check message operation</text></g><path d="M181.3652,202.8594 L245.8081,202.8594 L245.8081,209.9922 L235.8081,219.9922 L181.3652,219.9922 L181.3652,202.8594" fill="#EEEEEE" style="stroke:#000000;stroke-width:1;"/><rect fill="none" height="954.0078" style="stroke:#000000;stroke-width:2;" width="1262.645" x="181.3652" y="202.8594"/><text fill="#000000" font-family="sans-serif" font-size="13" font-weight="bold" lengthAdjust="spacing" textLength="19.4429" x="196.3652" y="215.9263">alt</text><text fill="#000000" font-family="sans-serif" font-size="11" font-weight="bold" lengthAdjust="spacing" textLength="5.0273" x="260.8081" y="215.0698">[</text><text fill="#000000" font-family="sans-serif" font-size="11" font-weight="bold" lengthAdjust="spacing" textLength="137.6987" x="265.8354" y="215.0698">Operation == UPDATE</text><text fill="#000000" font-family="sans-serif" font-size="11" font-weight="bold" lengthAdjust="spacing" textLength="23.1279" x="407.3638" y="215.0698">and</text><text fill="#000000" font-family="sans-serif" font-size="11" font-weight="bold" lengthAdjust="spacing" textLength="96.1318" x="434.3213" y="215.0698">Status == PAID</text><text fill="#000000" font-family="sans-serif" font-size="11" font-weight="bold" lengthAdjust="spacing" textLength="5.0273" x="530.4531" y="215.0698">]</text><g class="message" data-participant-1="Consumer" data-participant-2="SPC"><polygon fill="#A80036" points="553.6655,237.125,563.6655,241.125,553.6655,245.125,557.6655,241.125" style="stroke:#A80036;stroke-width:1;"/><line style="stroke:#A80036;stroke-width:1;" x1="311.2246" x2="559.6655" y1="241.125" y2="241.125"/><text fill="#000000" font-family="sans-serif" font-size="13" font-weight="bold" lengthAdjust="spacing" textLength="235.4409" x="318.2246" y="236.0591">Process UPDATE PAID operation</text></g><g class="message" data-participant-1="SPC" data-participant-2="SRTP"><polygon fill="#A80036" points="869.3257,266.2578,879.3257,270.2578,869.3257,274.2578,873.3257,270.2578" style="stroke:#A80036;stroke-width:1;"/><line style="stroke:#A80036;stroke-width:1;" x1="575.6655" x2="875.3257" y1="270.2578" y2="270.2578"/><text fill="#000000" font-family="sans-serif" font-size="13" font-weight="bold" lengthAdjust="spacing" textLength="177.4297" x="582.6655" y="265.1919">findRtpByCompositeKey</text></g><path d="M191.3652,285.2578 L255.8081,285.2578 L255.8081,292.3906 L245.8081,302.3906 L191.3652,302.3906 L191.3652,285.2578" fill="#EEEEEE" style="stroke:#000000;stroke-width:1;"/><rect fill="none" height="810.6719" style="stroke:#000000;stroke-width:2;" width="1242.645" x="191.3652" y="285.2578"/><text fill="#000000" font-family="sans-serif" font-size="13" font-weight="bold" lengthAdjust="spacing" textLength="19.4429" x="206.3652" y="298.3247">alt</text><text fill="#000000" font-family="sans-serif" font-size="11" font-weight="bold" lengthAdjust="spacing" textLength="5.0273" x="270.8081" y="297.4683">[</text><text fill="#000000" font-family="sans-serif" font-size="11" font-weight="bold" lengthAdjust="spacing" textLength="64.5444" x="275.8354" y="297.4683">RTP exists</text><text fill="#000000" font-family="sans-serif" font-size="11" font-weight="bold" lengthAdjust="spacing" textLength="5.0273" x="340.3799" y="297.4683">]</text><g class="message" data-participant-1="SRTP" data-participant-2="SPC"><polygon fill="#A80036" points="586.6655,319.5234,576.6655,323.5234,586.6655,327.5234,582.6655,323.5234" style="stroke:#A80036;stroke-width:1;"/><line style="stroke:#A80036;stroke-width:1;stroke-dasharray:2.0,2.0;" x1="580.6655" x2="885.3257" y1="323.5234" y2="323.5234"/><text fill="#000000" font-family="sans-serif" font-size="13" font-weight="bold" lengthAdjust="spacing" textLength="28.4058" x="592.6655" y="318.4575">RTP</text></g><g class="message" data-participant-1="SPC" data-participant-2="SPC"><line style="stroke:#A80036;stroke-width:1;" x1="575.6655" x2="617.6655" y1="381.4219" y2="381.4219"/><line style="stroke:#A80036;stroke-width:1;" x1="617.6655" x2="617.6655" y1="381.4219" y2="394.4219"/><line style="stroke:#A80036;stroke-width:1;" x1="576.6655" x2="617.6655" y1="394.4219" y2="394.4219"/><polygon fill="#A80036" points="586.6655,390.4219,576.6655,394.4219,586.6655,398.4219,582.6655,394.4219" style="stroke:#A80036;stroke-width:1;"/><text fill="#000000" font-family="sans-serif" font-size="13" font-weight="bold" lengthAdjust="spacing" textLength="184.063" x="582.6655" y="376.356">Check RTP status is valid</text></g><path d="M788.063,336.5234 L788.063,421.5234 L945.063,421.5234 L945.063,346.5234 L935.063,336.5234 L788.063,336.5234" fill="#FBFB77" filter="url(#fis9bvpthpyw1)" style="stroke:#A80036;stroke-width:1;"/><path d="M935.063,336.5234 L935.063,346.5234 L945.063,346.5234 L935.063,336.5234" fill="#FBFB77" style="stroke:#A80036;stroke-width:1;"/><text fill="#000000" font-family="sans-serif" font-size="13" lengthAdjust="spacing" textLength="136.4429" x="794.063" y="353.5903">✅ Valid RTP statuses:</text><text fill="#000000" font-family="sans-serif" font-size="13" lengthAdjust="spacing" textLength="70.2051" x="794.063" y="368.7231">- CREATED</text><text fill="#000000" font-family="sans-serif" font-size="13" lengthAdjust="spacing" textLength="42.9546" x="794.063" y="383.856">- SENT</text><text fill="#000000" font-family="sans-serif" font-size="13" lengthAdjust="spacing" textLength="78.0889" x="794.063" y="398.9888">- ACCEPTED</text><text fill="#000000" font-family="sans-serif" font-size="13" lengthAdjust="spacing" textLength="119.6025" x="794.063" y="414.1216">- USER_ACCEPTED</text><path d="M201.3652,438.1875 L265.8081,438.1875 L265.8081,445.3203 L255.8081,455.3203 L201.3652,455.3203 L201.3652,438.1875" fill="#EEEEEE" style="stroke:#000000;stroke-width:1;"/><rect fill="none" height="606.8047" style="stroke:#000000;stroke-width:2;" width="1222.645" x="201.3652" y="438.1875"/><text fill="#000000" font-family="sans-serif" font-size="13" font-weight="bold" lengthAdjust="spacing" textLength="19.4429" x="216.3652" y="451.2544">alt</text><text fill="#000000" font-family="sans-serif" font-size="11" font-weight="bold" lengthAdjust="spacing" textLength="5.0273" x="280.8081" y="450.3979">[</text><text fill="#000000" font-family="sans-serif" font-size="11" font-weight="bold" lengthAdjust="spacing" textLength="88.2256" x="285.8354" y="450.3979">Status is valid</text><text fill="#000000" font-family="sans-serif" font-size="11" font-weight="bold" lengthAdjust="spacing" textLength="5.0273" x="374.061" y="450.3979">]</text><g class="message" data-participant-1="SPC" data-participant-2="Registry"><polygon fill="#A80036" points="960.1963,472.4531,970.1963,476.4531,960.1963,480.4531,964.1963,476.4531" style="stroke:#A80036;stroke-width:1;"/><line style="stroke:#A80036;stroke-width:1;" x1="575.6655" x2="966.1963" y1="476.4531" y2="476.4531"/><text fill="#000000" font-family="sans-serif" font-size="13" font-weight="bold" lengthAdjust="spacing" textLength="285.7905" x="582.6655" y="471.3872">Get Service Providers by PSP Tax Code</text></g><g class="message" data-participant-1="Registry" data-participant-2="SPC"><polygon fill="#A80036" points="586.6655,501.5859,576.6655,505.5859,586.6655,509.5859,582.6655,505.5859" style="stroke:#A80036;stroke-width:1;"/><line style="stroke:#A80036;stroke-width:1;stroke-dasharray:2.0,2.0;" x1="580.6655" x2="976.1963" y1="505.5859" y2="505.5859"/><text fill="#000000" font-family="sans-serif" font-size="13" font-weight="bold" lengthAdjust="spacing" textLength="120.9038" x="592.6655" y="500.52">Service Provider</text></g><path d="M498.1035,520.5859 L562.5464,520.5859 L562.5464,527.7188 L552.5464,537.7188 L498.1035,537.7188 L498.1035,520.5859" fill="#EEEEEE" style="stroke:#000000;stroke-width:1;"/><rect fill="none" height="444.3359" style="stroke:#000000;stroke-width:2;" width="915.9067" x="498.1035" y="520.5859"/><text fill="#000000" font-family="sans-serif" font-size="13" font-weight="bold" lengthAdjust="spacing" textLength="19.4429" x="513.1035" y="533.6528">alt</text><text fill="#000000" font-family="sans-serif" font-size="11" font-weight="bold" lengthAdjust="spacing" textLength="5.0273" x="577.5464" y="532.7964">[</text><text fill="#000000" font-family="sans-serif" font-size="11" font-weight="bold" lengthAdjust="spacing" textLength="104.7578" x="582.5737" y="532.7964">PSP BIC matches</text><text fill="#000000" font-family="sans-serif" font-size="11" font-weight="bold" lengthAdjust="spacing" textLength="173.0459" x="691.1611" y="532.7964">RTP.serviceProviderDebtor]</text><g class="message" data-participant-1="SPC" data-participant-2="SRTP"><polygon fill="#A80036" points="869.3257,554.8516,879.3257,558.8516,869.3257,562.8516,873.3257,558.8516" style="stroke:#A80036;stroke-width:1;"/><line style="stroke:#A80036;stroke-width:1;" x1="575.6655" x2="875.3257" y1="558.8516" y2="558.8516"/><text fill="#000000" font-family="sans-serif" font-size="13" font-weight="bold" lengthAdjust="spacing" textLength="195.019" x="582.6655" y="553.7856">Save RTP with PAID status</text></g><g class="message" data-participant-1="SRTP" data-participant-2="SPC"><polygon fill="#A80036" points="586.6655,583.9844,576.6655,587.9844,586.6655,591.9844,582.6655,587.9844" style="stroke:#A80036;stroke-width:1;"/><line style="stroke:#A80036;stroke-width:1;stroke-dasharray:2.0,2.0;" x1="580.6655" x2="885.3257" y1="587.9844" y2="587.9844"/><text fill="#000000" font-family="sans-serif" font-size="13" font-weight="bold" lengthAdjust="spacing" textLength="77.6636" x="592.6655" y="582.9185">Saved RTP</text></g><line style="stroke:#000000;stroke-width:1;stroke-dasharray:2.0,2.0;" x1="498.1035" x2="1414.0103" y1="596.9844" y2="596.9844"/><text fill="#000000" font-family="sans-serif" font-size="11" font-weight="bold" lengthAdjust="spacing" textLength="5.0273" x="503.1035" y="607.1948">[</text><text fill="#000000" font-family="sans-serif" font-size="11" font-weight="bold" lengthAdjust="spacing" textLength="153.9087" x="508.1309" y="607.1948">PSP BIC does NOT match</text><text fill="#000000" font-family="sans-serif" font-size="11" font-weight="bold" lengthAdjust="spacing" textLength="173.0459" x="665.8691" y="607.1948">RTP.serviceProviderDebtor]</text><g class="message" data-participant-1="SPC" data-participant-2="SPD"><polygon fill="#A80036" points="1080.4492,632.9219,1090.4492,636.9219,1080.4492,640.9219,1084.4492,636.9219" style="stroke:#A80036;stroke-width:1;"/><line style="stroke:#A80036;stroke-width:1;" x1="575.6655" x2="1086.4492" y1="636.9219" y2="636.9219"/><text fill="#000000" font-family="sans-serif" font-size="13" font-weight="bold" lengthAdjust="spacing" textLength="467.105" x="582.6655" y="631.856">POST /sepa-request-to-pay-requests/{id}/cancellation-requests</text></g><path d="M1107,615.7891 L1107,640.7891 L1404,640.7891 L1404,625.7891 L1394,615.7891 L1107,615.7891" fill="#FBFB77" filter="url(#fis9bvpthpyw1)" style="stroke:#A80036;stroke-width:1;"/><path d="M1394,615.7891 L1394,625.7891 L1404,625.7891 L1394,615.7891" fill="#FBFB77" style="stroke:#A80036;stroke-width:1;"/><text fill="#000000" font-family="sans-serif" font-size="13" lengthAdjust="spacing" textLength="32.7412" x="1113" y="632.856">Send</text><text fill="#000000" font-family="sans-serif" font-size="13" font-weight="bold" lengthAdjust="spacing" textLength="149.8809" x="1149.8735" y="632.856">cancellation request</text><text fill="#000000" font-family="sans-serif" font-size="13" lengthAdjust="spacing" textLength="85.6743" x="1303.8867" y="632.856">to SP Debitor</text><path d="M508.1035,656.9219 L572.5464,656.9219 L572.5464,664.0547 L562.5464,674.0547 L508.1035,674.0547 L508.1035,656.9219" fill="#EEEEEE" style="stroke:#000000;stroke-width:1;"/><rect fill="none" height="301" style="stroke:#000000;stroke-width:2;" width="830.666" x="508.1035" y="656.9219"/><text fill="#000000" font-family="sans-serif" font-size="13" font-weight="bold" lengthAdjust="spacing" textLength="19.4429" x="523.1035" y="669.9888">alt</text><text fill="#000000" font-family="sans-serif" font-size="11" font-weight="bold" lengthAdjust="spacing" textLength="5.0273" x="587.5464" y="669.1323">[</text><text fill="#000000" font-family="sans-serif" font-size="11" font-weight="bold" lengthAdjust="spacing" textLength="113.9531" x="592.5737" y="669.1323">SP Debtor accepts</text><text fill="#000000" font-family="sans-serif" font-size="11" font-weight="bold" lengthAdjust="spacing" textLength="5.0273" x="706.5269" y="669.1323">]</text><g class="message" data-participant-1="SPD" data-participant-2="SPC"><polygon fill="#A80036" points="586.6655,691.1875,576.6655,695.1875,586.6655,699.1875,582.6655,695.1875" style="stroke:#A80036;stroke-width:1;"/><line style="stroke:#A80036;stroke-width:1;stroke-dasharray:2.0,2.0;" x1="580.6655" x2="1091.4492" y1="695.1875" y2="695.1875"/><text fill="#000000" font-family="sans-serif" font-size="13" font-weight="bold" lengthAdjust="spacing" textLength="89.54" x="592.6655" y="690.1216">201 Created</text></g><g class="message" data-participant-1="SPC" data-participant-2="SPC"><line style="stroke:#A80036;stroke-width:1;" x1="575.6655" x2="617.6655" y1="724.3203" y2="724.3203"/><line style="stroke:#A80036;stroke-width:1;" x1="617.6655" x2="617.6655" y1="724.3203" y2="737.3203"/><line style="stroke:#A80036;stroke-width:1;" x1="576.6655" x2="617.6655" y1="737.3203" y2="737.3203"/><polygon fill="#A80036" points="586.6655,733.3203,576.6655,737.3203,586.6655,741.3203,582.6655,737.3203" style="stroke:#A80036;stroke-width:1;"/><text fill="#000000" font-family="sans-serif" font-size="13" font-weight="bold" lengthAdjust="spacing" textLength="258.8384" x="582.6655" y="719.2544">Set RTP status to CANCELLED_PAID</text></g><g class="message" data-participant-1="SPC" data-participant-2="SRTP"><polygon fill="#A80036" points="869.3257,762.4531,879.3257,766.4531,869.3257,770.4531,873.3257,766.4531" style="stroke:#A80036;stroke-width:1;"/><line style="stroke:#A80036;stroke-width:1;" x1="575.6655" x2="875.3257" y1="766.4531" y2="766.4531"/><text fill="#000000" font-family="sans-serif" font-size="13" font-weight="bold" lengthAdjust="spacing" textLength="286.6602" x="582.6655" y="761.3872">Save RTP with CANCELLED_PAID status</text></g><g class="message" data-participant-1="SRTP" data-participant-2="SPC"><polygon fill="#A80036" points="586.6655,791.5859,576.6655,795.5859,586.6655,799.5859,582.6655,795.5859" style="stroke:#A80036;stroke-width:1;"/><line style="stroke:#A80036;stroke-width:1;stroke-dasharray:2.0,2.0;" x1="580.6655" x2="885.3257" y1="795.5859" y2="795.5859"/><text fill="#000000" font-family="sans-serif" font-size="13" font-weight="bold" lengthAdjust="spacing" textLength="77.6636" x="592.6655" y="790.52">Saved RTP</text></g><line style="stroke:#000000;stroke-width:1;stroke-dasharray:2.0,2.0;" x1="508.1035" x2="1338.7695" y1="804.5859" y2="804.5859"/><text fill="#000000" font-family="sans-serif" font-size="11" font-weight="bold" lengthAdjust="spacing" textLength="5.0273" x="513.1035" y="814.7964">[</text><text fill="#000000" font-family="sans-serif" font-size="11" font-weight="bold" lengthAdjust="spacing" textLength="108.7915" x="518.1309" y="814.7964">SP Debtor rejects</text><text fill="#000000" font-family="sans-serif" font-size="11" font-weight="bold" lengthAdjust="spacing" textLength="5.0273" x="626.9224" y="814.7964">]</text><g class="message" data-participant-1="SPD" data-participant-2="SPC"><polygon fill="#A80036" points="586.6655,840.5234,576.6655,844.5234,586.6655,848.5234,582.6655,844.5234" style="stroke:#A80036;stroke-width:1;"/><line style="stroke:#A80036;stroke-width:1;stroke-dasharray:2.0,2.0;" x1="580.6655" x2="1091.4492" y1="844.5234" y2="844.5234"/><text fill="#000000" font-family="sans-serif" font-size="13" font-weight="bold" lengthAdjust="spacing" textLength="108.583" x="592.6655" y="839.4575">Error response</text></g><path d="M1107,823.3906 L1107,848.3906 L1324,848.3906 L1324,833.3906 L1314,823.3906 L1107,823.3906" fill="#FBFB77" filter="url(#fis9bvpthpyw1)" style="stroke:#A80036;stroke-width:1;"/><path d="M1314,823.3906 L1314,833.3906 L1324,833.3906 L1314,823.3906" fill="#FBFB77" style="stroke:#A80036;stroke-width:1;"/><text fill="#000000" font-family="sans-serif" font-size="13" lengthAdjust="spacing" textLength="196.3203" x="1113" y="840.4575">Based on SP Debitor response</text><g class="message" data-participant-1="SPC" data-participant-2="SPC"><line style="stroke:#A80036;stroke-width:1;" x1="575.6655" x2="617.6655" y1="878.6563" y2="878.6563"/><line style="stroke:#A80036;stroke-width:1;" x1="617.6655" x2="617.6655" y1="878.6563" y2="891.6563"/><line style="stroke:#A80036;stroke-width:1;" x1="576.6655" x2="617.6655" y1="891.6563" y2="891.6563"/><polygon fill="#A80036" points="586.6655,887.6563,576.6655,891.6563,586.6655,895.6563,582.6655,891.6563" style="stroke:#A80036;stroke-width:1;"/><text fill="#000000" font-family="sans-serif" font-size="13" font-weight="bold" lengthAdjust="spacing" textLength="245.6289" x="582.6655" y="873.5903">Set RTP status to ERROR_CANCEL</text></g><g class="message" data-participant-1="SPC" data-participant-2="SRTP"><polygon fill="#A80036" points="869.3257,916.7891,879.3257,920.7891,869.3257,924.7891,873.3257,920.7891" style="stroke:#A80036;stroke-width:1;"/><line style="stroke:#A80036;stroke-width:1;" x1="575.6655" x2="875.3257" y1="920.7891" y2="920.7891"/><text fill="#000000" font-family="sans-serif" font-size="13" font-weight="bold" lengthAdjust="spacing" textLength="273.4507" x="582.6655" y="915.7231">Save RTP with ERROR_CANCEL status</text></g><g class="message" data-participant-1="SRTP" data-participant-2="SPC"><polygon fill="#A80036" points="586.6655,945.9219,576.6655,949.9219,586.6655,953.9219,582.6655,949.9219" style="stroke:#A80036;stroke-width:1;"/><line style="stroke:#A80036;stroke-width:1;stroke-dasharray:2.0,2.0;" x1="580.6655" x2="885.3257" y1="949.9219" y2="949.9219"/><text fill="#000000" font-family="sans-serif" font-size="13" font-weight="bold" lengthAdjust="spacing" textLength="77.6636" x="592.6655" y="944.856">Saved RTP</text></g><g class="message" data-participant-1="SPC" data-participant-2="Consumer"><polygon fill="#A80036" points="322.2246,989.0547,312.2246,993.0547,322.2246,997.0547,318.2246,993.0547" style="stroke:#A80036;stroke-width:1;"/><line style="stroke:#A80036;stroke-width:1;stroke-dasharray:2.0,2.0;" x1="316.2246" x2="564.6655" y1="993.0547" y2="993.0547"/><text fill="#000000" font-family="sans-serif" font-size="13" font-weight="bold" lengthAdjust="spacing" textLength="95.2085" x="328.2246" y="987.9888">Updated RTP</text></g><line style="stroke:#000000;stroke-width:1;stroke-dasharray:2.0,2.0;" x1="201.3652" x2="1424.0103" y1="1002.0547" y2="1002.0547"/><text fill="#000000" font-family="sans-serif" font-size="11" font-weight="bold" lengthAdjust="spacing" textLength="5.0273" x="206.3652" y="1012.2651">[</text><text fill="#000000" font-family="sans-serif" font-size="11" font-weight="bold" lengthAdjust="spacing" textLength="112.4922" x="211.3926" y="1012.2651">Invalid RTP status</text><text fill="#000000" font-family="sans-serif" font-size="11" font-weight="bold" lengthAdjust="spacing" textLength="5.0273" x="323.8848" y="1012.2651">]</text><g class="message" data-participant-1="SPC" data-participant-2="Consumer"><polygon fill="#A80036" points="322.2246,1032.9922,312.2246,1036.9922,322.2246,1040.9922,318.2246,1036.9922" style="stroke:#A80036;stroke-width:1;"/><line style="stroke:#A80036;stroke-width:1;stroke-dasharray:2.0,2.0;" x1="316.2246" x2="564.6655" y1="1036.9922" y2="1036.9922"/><text fill="#000000" font-family="sans-serif" font-size="13" font-weight="bold" lengthAdjust="spacing" textLength="184.4375" x="328.2246" y="1031.9263">Error - Invalid RTP status</text></g><line style="stroke:#000000;stroke-width:1;stroke-dasharray:2.0,2.0;" x1="191.3652" x2="1434.0103" y1="1052.9922" y2="1052.9922"/><text fill="#000000" font-family="sans-serif" font-size="11" font-weight="bold" lengthAdjust="spacing" textLength="5.0273" x="196.3652" y="1063.2026">[</text><text fill="#000000" font-family="sans-serif" font-size="11" font-weight="bold" lengthAdjust="spacing" textLength="88.2202" x="201.3926" y="1063.2026">RTP not found</text><text fill="#000000" font-family="sans-serif" font-size="11" font-weight="bold" lengthAdjust="spacing" textLength="5.0273" x="289.6128" y="1063.2026">]</text><g class="message" data-participant-1="SPC" data-participant-2="Consumer"><polygon fill="#A80036" points="322.2246,1083.9297,312.2246,1087.9297,322.2246,1091.9297,318.2246,1087.9297" style="stroke:#A80036;stroke-width:1;"/><line style="stroke:#A80036;stroke-width:1;stroke-dasharray:2.0,2.0;" x1="316.2246" x2="564.6655" y1="1087.9297" y2="1087.9297"/><text fill="#000000" font-family="sans-serif" font-size="13" font-weight="bold" lengthAdjust="spacing" textLength="155.7524" x="328.2246" y="1082.8638">Error - RTP not found</text></g><line style="stroke:#000000;stroke-width:1;stroke-dasharray:2.0,2.0;" x1="181.3652" x2="1444.0103" y1="1103.9297" y2="1103.9297"/><text fill="#000000" font-family="sans-serif" font-size="11" font-weight="bold" lengthAdjust="spacing" textLength="5.0273" x="186.3652" y="1114.1401">[</text><text fill="#000000" font-family="sans-serif" font-size="11" font-weight="bold" lengthAdjust="spacing" textLength="121.6875" x="191.3926" y="1114.1401">Different Operation</text><text fill="#000000" font-family="sans-serif" font-size="11" font-weight="bold" lengthAdjust="spacing" textLength="5.0273" x="313.0801" y="1114.1401">]</text><g class="message" data-participant-1="SPC" data-participant-2="Consumer"><polygon fill="#A80036" points="322.2246,1139.8672,312.2246,1143.8672,322.2246,1147.8672,318.2246,1143.8672" style="stroke:#A80036;stroke-width:1;"/><line style="stroke:#A80036;stroke-width:1;stroke-dasharray:2.0,2.0;" x1="316.2246" x2="564.6655" y1="1143.8672" y2="1143.8672"/><text fill="#000000" font-family="sans-serif" font-size="13" font-weight="bold" lengthAdjust="spacing" textLength="99.5947" x="328.2246" y="1138.8013">Not triggered</text></g><path d="M580,1122.7344 L580,1147.7344 L808,1147.7344 L808,1132.7344 L798,1122.7344 L580,1122.7344" fill="#FBFB77" filter="url(#fis9bvpthpyw1)" style="stroke:#A80036;stroke-width:1;"/><path d="M798,1122.7344 L798,1132.7344 L808,1132.7344 L798,1122.7344" fill="#FBFB77" style="stroke:#A80036;stroke-width:1;"/><text fill="#000000" font-family="sans-serif" font-size="13" lengthAdjust="spacing" textLength="104.6348" x="586" y="1139.8013">Operation is not</text><text fill="#000000" font-family="sans-serif" font-size="13" font-weight="bold" lengthAdjust="spacing" textLength="98.4268" x="694.7671" y="1139.8013">UPDATE PAID</text><!--SRC=[jLR1Rjim3BtxAuWU0tZTTYpG0QdjRSMwnBFJNGl5PXAjZkr9IjfWs75_iQ_RbuoIRLbsqc8zx1HB91-fnoSgyfwN82g9dkAgGFWGnl0PfMHh11ycaziud2uYYAVNuMG2xulgmVE-xt27SAPTepsM2ZxkbcV097pH1gzcGl6CrumiPovUK9LojqLXVBl5q3sD8H2OSrK9D6vf77WvKsp99ALCaqNSRDE7kuzYppE41DTSAd4mFjtYA4E8IpT1w7ccSF3VsQekwEXEwPE9LrOAeS2LqgPKCRMJSDdoudaiKtpFL7z6h_iOemORpEvXsr9IrIYOubL98AnGP9ztEt1v2GtxH3mhSoUjpGlWfY6kT8POL1d1WzEwGHu0MwrcbzRqO-A9L0smucMUgFhg45JRkf9SuISyZ08r_th3r4mBm4SYMnelC6Rm-v9esLfoFCBeypVE3KCQGJRdvHBshE1v2s4w8VXweymIuC_lN_1LEpX1A2zQgmz14X4HeLsdqMnX5zCWY6BNUfj6oTrW5ubydRGfjZboUh8qUvHEUqP7gA0JAFLcptCK4fO7Y4cB2_P8FSpH0bXwh7oR_MxfqZf6jI0EonQcmpVbwzHNrm5icSesI6tJrBsI3Lu7H_U4haaRTwIIbEtH4Fx0rQPHMKEzhMAi5miqKeT6Chrp8a_gX5fHq7Nloyyhb32RBvfplEWKSMZkoZnTmBd4cla2QQv9vQlAhzcXMyhp7pp_UPwnCiEYC5V8cfnoUqrUKA_DPNL3e0sX2bK5_GWwGPGUHtQtaPfn9s_ooh0UvDNd2Lqktxv-eoSeGMbD3lpSEvQI9fqRHaK5qraGtTn4uLqtquvZJtP-67YiWQTKy6ywU589LWizFGA_OVOyFP4Gnb7MD3TnuEcsy8fUbHoeRtshRD1BI8sIP9xSDGozW58txFyJQlaiSw__SkVPw0cxhNEjhnROStfnNUv7StWu64T0JJTyU3AiBQH5rsRg4gogNTbDtETWZ_qDNeiMyjKAXVxxCXyyZgSGPuIYI1jh2cYGNBNqJpOz1phXw6-JPz8wj7VGVm40]--></g></svg>