<?xml version="1.0" encoding="us-ascii" standalone="no"?><svg xmlns="http://www.w3.org/2000/svg" xmlns:xlink="http://www.w3.org/1999/xlink" contentStyleType="text/css" height="1562px" preserveAspectRatio="none" style="width:1587px;height:1562px;background:#FFFFFF;" version="1.1" viewBox="0 0 1587 1562" width="1587px" zoomAndPan="magnify"><defs><filter height="300%" id="f149lxdvencpby" width="300%" x="-1" y="-1"><feGaussianBlur result="blurOut" stdDeviation="2.0"/><feColorMatrix in="blurOut" result="blurOut2" type="matrix" values="0 0 0 0 0 0 0 0 0 0 0 0 0 0 0 0 0 0 .4 0"/><feOffset dx="4.0" dy="4.0" in="blurOut2" result="blurOut3"/><feBlend in="SourceGraphic" in2="blurOut3" mode="normal"/></filter></defs><g><text fill="#000000" font-family="sans-serif" font-size="14" font-weight="bold" lengthAdjust="spacing" textLength="119" x="656.75" y="27.9951">GDP Message -</text><text fill="#000000" font-family="sans-serif" font-size="14" font-weight="bold" lengthAdjust="spacing" textLength="103" x="780.75" y="27.9951">UPDATE PAID</text><text fill="#000000" font-family="sans-serif" font-size="14" font-weight="bold" lengthAdjust="spacing" textLength="37" x="888.75" y="27.9951">Flow</text><rect fill="#FFFFFF" filter="url(#f149lxdvencpby)" height="1301.1406" style="stroke:#A80036;stroke-width:1.0;" width="10" x="302" y="157.0234"/><rect fill="#FFFFFF" filter="url(#f149lxdvencpby)" height="53.2656" style="stroke:#A80036;stroke-width:1.0;" width="10" x="538" y="191.1563"/><rect fill="#FFFFFF" filter="url(#f149lxdvencpby)" height="890.9375" style="stroke:#A80036;stroke-width:1.0;" width="10" x="688" y="496.2891"/><rect fill="#FFFFFF" filter="url(#f149lxdvencpby)" height="53.2656" style="stroke:#A80036;stroke-width:1.0;" width="10" x="1005" y="525.4219"/><rect fill="#FFFFFF" filter="url(#f149lxdvencpby)" height="29.1328" style="stroke:#A80036;stroke-width:1.0;" width="10" x="1005" y="814.0156"/><rect fill="#FFFFFF" filter="url(#f149lxdvencpby)" height="29.1328" style="stroke:#A80036;stroke-width:1.0;" width="10" x="1005" y="1021.6172"/><rect fill="#FFFFFF" filter="url(#f149lxdvencpby)" height="29.1328" style="stroke:#A80036;stroke-width:1.0;" width="10" x="1005" y="1175.9531"/><rect fill="#FFFFFF" filter="url(#f149lxdvencpby)" height="29.1328" style="stroke:#A80036;stroke-width:1.0;" width="10" x="1094.5" y="731.6172"/><rect fill="#FFFFFF" filter="url(#f149lxdvencpby)" height="328" style="stroke:#A80036;stroke-width:1.0;" width="10" x="1212.5" y="892.0859"/><rect fill="none" filter="url(#f149lxdvencpby)" height="1245.0078" style="stroke:#000000;stroke-width:2.0;" width="1402.5" x="171" y="206.1563"/><rect fill="none" filter="url(#f149lxdvencpby)" height="986.1406" style="stroke:#000000;stroke-width:2.0;" width="1382.5" x="181" y="458.0234"/><rect fill="none" filter="url(#f149lxdvencpby)" height="839.8047" style="stroke:#000000;stroke-width:2.0;" width="1362.5" x="191" y="540.4219"/><rect fill="none" filter="url(#f149lxdvencpby)" height="606.8047" style="stroke:#000000;stroke-width:2.0;" width="1342.5" x="201" y="693.3516"/><rect fill="none" filter="url(#f149lxdvencpby)" height="444.3359" style="stroke:#000000;stroke-width:2.0;" width="912.5" x="621" y="775.75"/><rect fill="none" filter="url(#f149lxdvencpby)" height="301" style="stroke:#000000;stroke-width:2.0;" width="826.5" x="631" y="912.0859"/><line style="stroke:#A80036;stroke-width:1.0;stroke-dasharray:5.0,5.0;" x1="138" x2="138" y1="120.8906" y2="1468.1641"/><line style="stroke:#A80036;stroke-width:1.0;stroke-dasharray:5.0,5.0;" x1="307" x2="307" y1="120.8906" y2="1468.1641"/><line style="stroke:#A80036;stroke-width:1.0;stroke-dasharray:5.0,5.0;" x1="543" x2="543" y1="120.8906" y2="1468.1641"/><line style="stroke:#A80036;stroke-width:1.0;stroke-dasharray:5.0,5.0;" x1="693" x2="693" y1="120.8906" y2="1468.1641"/><line style="stroke:#A80036;stroke-width:1.0;stroke-dasharray:5.0,5.0;" x1="1009.5" x2="1009.5" y1="120.8906" y2="1468.1641"/><line style="stroke:#A80036;stroke-width:1.0;stroke-dasharray:5.0,5.0;" x1="1099.5" x2="1099.5" y1="120.8906" y2="1468.1641"/><line style="stroke:#A80036;stroke-width:1.0;stroke-dasharray:5.0,5.0;" x1="1217.5" x2="1217.5" y1="120.8906" y2="1468.1641"/><path d="M80,94.5938 L196,94.5938 C201,94.5938 201,107.7422 201,107.7422 C201,107.7422 201,120.8906 196,120.8906 L80,120.8906 C75,120.8906 75,107.7422 75,107.7422 C75,107.7422 75,94.5938 80,94.5938 " fill="#FEFECE" filter="url(#f149lxdvencpby)" style="stroke:#A80036;stroke-width:2.0;"/><path d="M196,94.5938 C191,94.5938 191,107.7422 191,107.7422 C191,120.8906 196,120.8906 196,120.8906 " fill="none" style="stroke:#A80036;stroke-width:2.0;"/><text fill="#000000" font-family="sans-serif" font-size="14" lengthAdjust="spacing" textLength="106" x="80" y="112.5889">GDP Event Hub</text><path d="M80,1467.1641 L196,1467.1641 C201,1467.1641 201,1480.3125 201,1480.3125 C201,1480.3125 201,1493.4609 196,1493.4609 L80,1493.4609 C75,1493.4609 75,1480.3125 75,1480.3125 C75,1480.3125 75,1467.1641 80,1467.1641 " fill="#FEFECE" filter="url(#f149lxdvencpby)" style="stroke:#A80036;stroke-width:2.0;"/><path d="M196,1467.1641 C191,1467.1641 191,1480.3125 191,1480.3125 C191,1493.4609 196,1493.4609 196,1493.4609 " fill="none" style="stroke:#A80036;stroke-width:2.0;"/><text fill="#000000" font-family="sans-serif" font-size="14" lengthAdjust="spacing" textLength="106" x="80" y="1485.1592">GDP Event Hub</text><rect fill="#FEFECE" filter="url(#f149lxdvencpby)" height="30.2969" style="stroke:#A80036;stroke-width:1.5;" width="188" x="211" y="85.5938"/><text fill="#000000" font-family="sans-serif" font-size="14" lengthAdjust="spacing" textLength="174" x="218" y="105.5889">GDP Message Consumer</text><rect fill="#FEFECE" filter="url(#f149lxdvencpby)" height="30.2969" style="stroke:#A80036;stroke-width:1.5;" width="188" x="211" y="1467.1641"/><text fill="#000000" font-family="sans-serif" font-size="14" lengthAdjust="spacing" textLength="174" x="218" y="1487.1592">GDP Message Consumer</text><text fill="#000000" font-family="sans-serif" font-size="14" lengthAdjust="spacing" textLength="39" x="520.5" y="101.292">Redis</text><text fill="#000000" font-family="sans-serif" font-size="14" lengthAdjust="spacing" textLength="170" x="455" y="117.5889">(Idempotency Key Store)</text><path d="M525,52.2969 C525,42.2969 543,42.2969 543,42.2969 C543,42.2969 561,42.2969 561,52.2969 L561,78.2969 C561,88.2969 543,88.2969 543,88.2969 C543,88.2969 525,88.2969 525,78.2969 L525,52.2969 " fill="#FEFECE" filter="url(#f149lxdvencpby)" style="stroke:#A80036;stroke-width:1.5;"/><path d="M525,52.2969 C525,62.2969 543,62.2969 543,62.2969 C543,62.2969 561,62.2969 561,52.2969 " fill="none" style="stroke:#A80036;stroke-width:1.5;"/><text fill="#000000" font-family="sans-serif" font-size="14" lengthAdjust="spacing" textLength="39" x="520.5" y="1480.1592">Redis</text><text fill="#000000" font-family="sans-serif" font-size="14" lengthAdjust="spacing" textLength="170" x="455" y="1496.4561">(Idempotency Key Store)</text><path d="M525,1509.7578 C525,1499.7578 543,1499.7578 543,1499.7578 C543,1499.7578 561,1499.7578 561,1509.7578 L561,1535.7578 C561,1545.7578 543,1545.7578 543,1545.7578 C543,1545.7578 525,1545.7578 525,1535.7578 L525,1509.7578 " fill="#FEFECE" filter="url(#f149lxdvencpby)" style="stroke:#A80036;stroke-width:1.5;"/><path d="M525,1509.7578 C525,1519.7578 543,1519.7578 543,1519.7578 C543,1519.7578 561,1519.7578 561,1509.7578 " fill="none" style="stroke:#A80036;stroke-width:1.5;"/><rect fill="#FEFECE" filter="url(#f149lxdvencpby)" height="30.2969" style="stroke:#A80036;stroke-width:1.5;" width="100" x="641" y="85.5938"/><text fill="#000000" font-family="sans-serif" font-size="14" lengthAdjust="spacing" textLength="86" x="648" y="105.5889">SP Creditore</text><rect fill="#FEFECE" filter="url(#f149lxdvencpby)" height="30.2969" style="stroke:#A80036;stroke-width:1.5;" width="100" x="641" y="1467.1641"/><text fill="#000000" font-family="sans-serif" font-size="14" lengthAdjust="spacing" textLength="86" x="648" y="1487.1592">SP Creditore</text><text fill="#000000" font-family="sans-serif" font-size="14" lengthAdjust="spacing" textLength="37" x="988.5" y="117.5889">SRTP</text><path d="M992,68.5938 C992,58.5938 1010,58.5938 1010,58.5938 C1010,58.5938 1028,58.5938 1028,68.5938 L1028,94.5938 C1028,104.5938 1010,104.5938 1010,104.5938 C1010,104.5938 992,104.5938 992,94.5938 L992,68.5938 " fill="#FEFECE" filter="url(#f149lxdvencpby)" style="stroke:#A80036;stroke-width:1.5;"/><path d="M992,68.5938 C992,78.5938 1010,78.5938 1010,78.5938 C1010,78.5938 1028,78.5938 1028,68.5938 " fill="none" style="stroke:#A80036;stroke-width:1.5;"/><text fill="#000000" font-family="sans-serif" font-size="14" lengthAdjust="spacing" textLength="37" x="988.5" y="1480.1592">SRTP</text><path d="M992,1493.4609 C992,1483.4609 1010,1483.4609 1010,1483.4609 C1010,1483.4609 1028,1483.4609 1028,1493.4609 L1028,1519.4609 C1028,1529.4609 1010,1529.4609 1010,1529.4609 C1010,1529.4609 992,1529.4609 992,1519.4609 L992,1493.4609 " fill="#FEFECE" filter="url(#f149lxdvencpby)" style="stroke:#A80036;stroke-width:1.5;"/><path d="M992,1493.4609 C992,1503.4609 1010,1503.4609 1010,1503.4609 C1010,1503.4609 1028,1503.4609 1028,1493.4609 " fill="none" style="stroke:#A80036;stroke-width:1.5;"/><text fill="#000000" font-family="sans-serif" font-size="14" lengthAdjust="spacing" textLength="110" x="1041.5" y="117.5889">Service Registry</text><path d="M1081.5,68.5938 C1081.5,58.5938 1099.5,58.5938 1099.5,58.5938 C1099.5,58.5938 1117.5,58.5938 1117.5,68.5938 L1117.5,94.5938 C1117.5,104.5938 1099.5,104.5938 1099.5,104.5938 C1099.5,104.5938 1081.5,104.5938 1081.5,94.5938 L1081.5,68.5938 " fill="#FEFECE" filter="url(#f149lxdvencpby)" style="stroke:#A80036;stroke-width:1.5;"/><path d="M1081.5,68.5938 C1081.5,78.5938 1099.5,78.5938 1099.5,78.5938 C1099.5,78.5938 1117.5,78.5938 1117.5,68.5938 " fill="none" style="stroke:#A80036;stroke-width:1.5;"/><text fill="#000000" font-family="sans-serif" font-size="14" lengthAdjust="spacing" textLength="110" x="1041.5" y="1480.1592">Service Registry</text><path d="M1081.5,1493.4609 C1081.5,1483.4609 1099.5,1483.4609 1099.5,1483.4609 C1099.5,1483.4609 1117.5,1483.4609 1117.5,1493.4609 L1117.5,1519.4609 C1117.5,1529.4609 1099.5,1529.4609 1099.5,1529.4609 C1099.5,1529.4609 1081.5,1529.4609 1081.5,1519.4609 L1081.5,1493.4609 " fill="#FEFECE" filter="url(#f149lxdvencpby)" style="stroke:#A80036;stroke-width:1.5;"/><path d="M1081.5,1493.4609 C1081.5,1503.4609 1099.5,1503.4609 1099.5,1503.4609 C1099.5,1503.4609 1117.5,1503.4609 1117.5,1493.4609 " fill="none" style="stroke:#A80036;stroke-width:1.5;"/><rect fill="#FEFECE" filter="url(#f149lxdvencpby)" height="30.2969" style="stroke:#A80036;stroke-width:1.5;" width="96" x="1167.5" y="85.5938"/><text fill="#000000" font-family="sans-serif" font-size="14" lengthAdjust="spacing" textLength="82" x="1174.5" y="105.5889">SP Debitore</text><rect fill="#FEFECE" filter="url(#f149lxdvencpby)" height="30.2969" style="stroke:#A80036;stroke-width:1.5;" width="96" x="1167.5" y="1467.1641"/><text fill="#000000" font-family="sans-serif" font-size="14" lengthAdjust="spacing" textLength="82" x="1174.5" y="1487.1592">SP Debitore</text><rect fill="#FFFFFF" filter="url(#f149lxdvencpby)" height="1301.1406" style="stroke:#A80036;stroke-width:1.0;" width="10" x="302" y="157.0234"/><rect fill="#FFFFFF" filter="url(#f149lxdvencpby)" height="53.2656" style="stroke:#A80036;stroke-width:1.0;" width="10" x="538" y="191.1563"/><rect fill="#FFFFFF" filter="url(#f149lxdvencpby)" height="890.9375" style="stroke:#A80036;stroke-width:1.0;" width="10" x="688" y="496.2891"/><rect fill="#FFFFFF" filter="url(#f149lxdvencpby)" height="53.2656" style="stroke:#A80036;stroke-width:1.0;" width="10" x="1005" y="525.4219"/><rect fill="#FFFFFF" filter="url(#f149lxdvencpby)" height="29.1328" style="stroke:#A80036;stroke-width:1.0;" width="10" x="1005" y="814.0156"/><rect fill="#FFFFFF" filter="url(#f149lxdvencpby)" height="29.1328" style="stroke:#A80036;stroke-width:1.0;" width="10" x="1005" y="1021.6172"/><rect fill="#FFFFFF" filter="url(#f149lxdvencpby)" height="29.1328" style="stroke:#A80036;stroke-width:1.0;" width="10" x="1005" y="1175.9531"/><rect fill="#FFFFFF" filter="url(#f149lxdvencpby)" height="29.1328" style="stroke:#A80036;stroke-width:1.0;" width="10" x="1094.5" y="731.6172"/><rect fill="#FFFFFF" filter="url(#f149lxdvencpby)" height="328" style="stroke:#A80036;stroke-width:1.0;" width="10" x="1212.5" y="892.0859"/><polygon fill="#A80036" points="290,153.0234,300,157.0234,290,161.0234,294,157.0234" style="stroke:#A80036;stroke-width:1.0;"/><line style="stroke:#A80036;stroke-width:1.0;" x1="138" x2="296" y1="157.0234" y2="157.0234"/><text fill="#000000" font-family="sans-serif" font-size="13" font-weight="bold" lengthAdjust="spacing" textLength="103" x="145" y="151.9575">GDP Message</text><path d="M5,135.8906 L5,160.8906 L129,160.8906 L129,145.8906 L119,135.8906 L5,135.8906 " fill="#FBFB77" filter="url(#f149lxdvencpby)" style="stroke:#A80036;stroke-width:1.0;"/><path d="M119,135.8906 L119,145.8906 L129,145.8906 L119,135.8906 " fill="#FBFB77" style="stroke:#A80036;stroke-width:1.0;"/><text fill="#000000" font-family="sans-serif" font-size="13" font-weight="bold" lengthAdjust="spacing" textLength="103" x="11" y="152.9575">Status = PAID</text><polygon fill="#A80036" points="526,187.1563,536,191.1563,526,195.1563,530,191.1563" style="stroke:#A80036;stroke-width:1.0;"/><line style="stroke:#A80036;stroke-width:1.0;" x1="312" x2="532" y1="191.1563" y2="191.1563"/><text fill="#000000" font-family="sans-serif" font-size="13" font-weight="bold" lengthAdjust="spacing" textLength="178" x="319" y="186.0903">Check Idempotency-Key</text><path d="M171,206.1563 L235,206.1563 L235,213.2891 L225,223.2891 L171,223.2891 L171,206.1563 " fill="#EEEEEE" style="stroke:#000000;stroke-width:1.0;"/><rect fill="none" height="1245.0078" style="stroke:#000000;stroke-width:2.0;" width="1402.5" x="171" y="206.1563"/><text fill="#000000" font-family="sans-serif" font-size="13" font-weight="bold" lengthAdjust="spacing" textLength="19" x="186" y="219.2231">alt</text><text fill="#000000" font-family="sans-serif" font-size="11" font-weight="bold" lengthAdjust="spacing" textLength="5" x="250" y="218.3667">[</text><text fill="#000000" font-family="sans-serif" font-size="11" font-weight="bold" lengthAdjust="spacing" textLength="216" x="255" y="218.3667">Idempotency-Key already present</text><text fill="#000000" font-family="sans-serif" font-size="11" font-weight="bold" lengthAdjust="spacing" textLength="5" x="471" y="218.3667">]</text><polygon fill="#A80036" points="323,240.4219,313,244.4219,323,248.4219,319,244.4219" style="stroke:#A80036;stroke-width:1.0;"/><line style="stroke:#A80036;stroke-width:1.0;stroke-dasharray:2.0,2.0;" x1="317" x2="542" y1="244.4219" y2="244.4219"/><text fill="#000000" font-family="sans-serif" font-size="13" font-weight="bold" lengthAdjust="spacing" textLength="75" x="329" y="239.356">Key found</text><line style="stroke:#A80036;stroke-width:1.0;" x1="312" x2="354" y1="279.6211" y2="279.6211"/><line style="stroke:#A80036;stroke-width:1.0;" x1="354" x2="354" y1="279.6211" y2="292.6211"/><line style="stroke:#A80036;stroke-width:1.0;" x1="313" x2="354" y1="292.6211" y2="292.6211"/><polygon fill="#A80036" points="323,288.6211,313,292.6211,323,296.6211,319,292.6211" style="stroke:#A80036;stroke-width:1.0;"/><text fill="#000000" font-family="sans-serif" font-size="13" font-weight="bold" lengthAdjust="spacing" textLength="212" x="319" y="274.5552">Discard duplicated message</text><path d="M543,257.4219 L543,297.4219 L742,297.4219 L742,267.4219 L732,257.4219 L543,257.4219 " fill="#FBFB77" filter="url(#f149lxdvencpby)" style="stroke:#A80036;stroke-width:1.0;"/><path d="M732,257.4219 L732,267.4219 L742,267.4219 L732,257.4219 " fill="#FBFB77" style="stroke:#A80036;stroke-width:1.0;"/><text fill="#000000" font-family="sans-serif" font-size="13" lengthAdjust="spacing" textLength="178" x="549" y="274.4888">Message already processed</text><text fill="#000000" font-family="sans-serif" font-size="13" lengthAdjust="spacing" textLength="152" x="549" y="289.6216">or already in processing</text><line style="stroke:#000000;stroke-width:1.0;stroke-dasharray:2.0,2.0;" x1="171" x2="1573.5" y1="307.6875" y2="307.6875"/><text fill="#000000" font-family="sans-serif" font-size="11" font-weight="bold" lengthAdjust="spacing" textLength="5" x="176" y="317.8979">[</text><text fill="#000000" font-family="sans-serif" font-size="11" font-weight="bold" lengthAdjust="spacing" textLength="189" x="181" y="317.8979">Idempotency-Key not present</text><text fill="#000000" font-family="sans-serif" font-size="11" font-weight="bold" lengthAdjust="spacing" textLength="5" x="370" y="317.8979">]</text><polygon fill="#A80036" points="323,338.625,313,342.625,323,346.625,319,342.625" style="stroke:#A80036;stroke-width:1.0;"/><line style="stroke:#A80036;stroke-width:1.0;stroke-dasharray:2.0,2.0;" x1="317" x2="542" y1="342.625" y2="342.625"/><text fill="#000000" font-family="sans-serif" font-size="13" font-weight="bold" lengthAdjust="spacing" textLength="104" x="329" y="337.5591">Key not found</text><polygon fill="#A80036" points="531,367.7578,541,371.7578,531,375.7578,535,371.7578" style="stroke:#A80036;stroke-width:1.0;"/><line style="stroke:#A80036;stroke-width:1.0;" x1="312" x2="537" y1="371.7578" y2="371.7578"/><text fill="#000000" font-family="sans-serif" font-size="13" font-weight="bold" lengthAdjust="spacing" textLength="168" x="319" y="366.6919">Save Idempotency-Key</text><polygon fill="#A80036" points="323,396.8906,313,400.8906,323,404.8906,319,400.8906" style="stroke:#A80036;stroke-width:1.0;"/><line style="stroke:#A80036;stroke-width:1.0;stroke-dasharray:2.0,2.0;" x1="317" x2="542" y1="400.8906" y2="400.8906"/><text fill="#000000" font-family="sans-serif" font-size="13" font-weight="bold" lengthAdjust="spacing" textLength="76" x="329" y="395.8247">Key saved</text><line style="stroke:#A80036;stroke-width:1.0;" x1="312" x2="354" y1="430.0234" y2="430.0234"/><line style="stroke:#A80036;stroke-width:1.0;" x1="354" x2="354" y1="430.0234" y2="443.0234"/><line style="stroke:#A80036;stroke-width:1.0;" x1="313" x2="354" y1="443.0234" y2="443.0234"/><polygon fill="#A80036" points="323,439.0234,313,443.0234,323,447.0234,319,443.0234" style="stroke:#A80036;stroke-width:1.0;"/><text fill="#000000" font-family="sans-serif" font-size="13" font-weight="bold" lengthAdjust="spacing" textLength="193" x="319" y="424.9575">Check message operation</text><path d="M181,458.0234 L245,458.0234 L245,465.1563 L235,475.1563 L181,475.1563 L181,458.0234 " fill="#EEEEEE" style="stroke:#000000;stroke-width:1.0;"/><rect fill="none" height="986.1406" style="stroke:#000000;stroke-width:2.0;" width="1382.5" x="181" y="458.0234"/><text fill="#000000" font-family="sans-serif" font-size="13" font-weight="bold" lengthAdjust="spacing" textLength="19" x="196" y="471.0903">alt</text><text fill="#000000" font-family="sans-serif" font-size="11" font-weight="bold" lengthAdjust="spacing" textLength="5" x="260" y="470.2339">[</text><text fill="#000000" font-family="sans-serif" font-size="11" font-weight="bold" lengthAdjust="spacing" textLength="140" x="265" y="470.2339">Operation == UPDATE</text><text fill="#000000" font-family="sans-serif" font-size="11" font-weight="bold" lengthAdjust="spacing" textLength="24" x="409" y="470.2339">and</text><text fill="#000000" font-family="sans-serif" font-size="11" font-weight="bold" lengthAdjust="spacing" textLength="96" x="437" y="470.2339">Status == PAID</text><text fill="#000000" font-family="sans-serif" font-size="11" font-weight="bold" lengthAdjust="spacing" textLength="5" x="533" y="470.2339">]</text><polygon fill="#A80036" points="676,492.2891,686,496.2891,676,500.2891,680,496.2891" style="stroke:#A80036;stroke-width:1.0;"/><line style="stroke:#A80036;stroke-width:1.0;" x1="312" x2="682" y1="496.2891" y2="496.2891"/><text fill="#000000" font-family="sans-serif" font-size="13" font-weight="bold" lengthAdjust="spacing" textLength="237" x="319" y="491.2231">Process UPDATE PAID operation</text><polygon fill="#A80036" points="993,521.4219,1003,525.4219,993,529.4219,997,525.4219" style="stroke:#A80036;stroke-width:1.0;"/><line style="stroke:#A80036;stroke-width:1.0;" x1="698" x2="999" y1="525.4219" y2="525.4219"/><text fill="#000000" font-family="sans-serif" font-size="13" font-weight="bold" lengthAdjust="spacing" textLength="179" x="705" y="520.356">findRtpByCompositeKey</text><path d="M191,540.4219 L255,540.4219 L255,547.5547 L245,557.5547 L191,557.5547 L191,540.4219 " fill="#EEEEEE" style="stroke:#000000;stroke-width:1.0;"/><rect fill="none" height="839.8047" style="stroke:#000000;stroke-width:2.0;" width="1362.5" x="191" y="540.4219"/><text fill="#000000" font-family="sans-serif" font-size="13" font-weight="bold" lengthAdjust="spacing" textLength="19" x="206" y="553.4888">alt</text><text fill="#000000" font-family="sans-serif" font-size="11" font-weight="bold" lengthAdjust="spacing" textLength="5" x="270" y="552.6323">[</text><text fill="#000000" font-family="sans-serif" font-size="11" font-weight="bold" lengthAdjust="spacing" textLength="66" x="275" y="552.6323">RTP exists</text><text fill="#000000" font-family="sans-serif" font-size="11" font-weight="bold" lengthAdjust="spacing" textLength="5" x="341" y="552.6323">]</text><polygon fill="#A80036" points="709,574.6875,699,578.6875,709,582.6875,705,578.6875" style="stroke:#A80036;stroke-width:1.0;"/><line style="stroke:#A80036;stroke-width:1.0;stroke-dasharray:2.0,2.0;" x1="703" x2="1009" y1="578.6875" y2="578.6875"/><text fill="#000000" font-family="sans-serif" font-size="13" font-weight="bold" lengthAdjust="spacing" textLength="28" x="715" y="573.6216">RTP</text><line style="stroke:#A80036;stroke-width:1.0;" x1="698" x2="740" y1="636.5859" y2="636.5859"/><line style="stroke:#A80036;stroke-width:1.0;" x1="740" x2="740" y1="636.5859" y2="649.5859"/><line style="stroke:#A80036;stroke-width:1.0;" x1="699" x2="740" y1="649.5859" y2="649.5859"/><polygon fill="#A80036" points="709,645.5859,699,649.5859,709,653.5859,705,649.5859" style="stroke:#A80036;stroke-width:1.0;"/><text fill="#000000" font-family="sans-serif" font-size="13" font-weight="bold" lengthAdjust="spacing" textLength="186" x="705" y="631.52">Check RTP status is valid</text><path d="M903,591.6875 L903,676.6875 L1049,676.6875 L1049,601.6875 L1039,591.6875 L903,591.6875 " fill="#FBFB77" filter="url(#f149lxdvencpby)" style="stroke:#A80036;stroke-width:1.0;"/><path d="M1039,591.6875 L1039,601.6875 L1049,601.6875 L1039,591.6875 " fill="#FBFB77" style="stroke:#A80036;stroke-width:1.0;"/><text fill="#000000" font-family="sans-serif" font-size="13" lengthAdjust="spacing" textLength="125" x="909" y="608.7544">&#9989; Valid RTP statuses:</text><text fill="#000000" font-family="sans-serif" font-size="13" lengthAdjust="spacing" textLength="68" x="909" y="623.8872">- CREATED</text><text fill="#000000" font-family="sans-serif" font-size="13" lengthAdjust="spacing" textLength="43" x="909" y="639.02">- SENT</text><text fill="#000000" font-family="sans-serif" font-size="13" lengthAdjust="spacing" textLength="77" x="909" y="654.1528">- ACCEPTED</text><text fill="#000000" font-family="sans-serif" font-size="13" lengthAdjust="spacing" textLength="119" x="909" y="669.2856">- USER_ACCEPTED</text><path d="M201,693.3516 L265,693.3516 L265,700.4844 L255,710.4844 L201,710.4844 L201,693.3516 " fill="#EEEEEE" style="stroke:#000000;stroke-width:1.0;"/><rect fill="none" height="606.8047" style="stroke:#000000;stroke-width:2.0;" width="1342.5" x="201" y="693.3516"/><text fill="#000000" font-family="sans-serif" font-size="13" font-weight="bold" lengthAdjust="spacing" textLength="19" x="216" y="706.4185">alt</text><text fill="#000000" font-family="sans-serif" font-size="11" font-weight="bold" lengthAdjust="spacing" textLength="5" x="280" y="705.562">[</text><text fill="#000000" font-family="sans-serif" font-size="11" font-weight="bold" lengthAdjust="spacing" textLength="91" x="285" y="705.562">Status is valid</text><text fill="#000000" font-family="sans-serif" font-size="11" font-weight="bold" lengthAdjust="spacing" textLength="5" x="376" y="705.562">]</text><polygon fill="#A80036" points="1082.5,727.6172,1092.5,731.6172,1082.5,735.6172,1086.5,731.6172" style="stroke:#A80036;stroke-width:1.0;"/><line style="stroke:#A80036;stroke-width:1.0;" x1="698" x2="1088.5" y1="731.6172" y2="731.6172"/><text fill="#000000" font-family="sans-serif" font-size="13" font-weight="bold" lengthAdjust="spacing" textLength="289" x="705" y="726.5513">Get Service Providers by PSP Tax Code</text><polygon fill="#A80036" points="709,756.75,699,760.75,709,764.75,705,760.75" style="stroke:#A80036;stroke-width:1.0;"/><line style="stroke:#A80036;stroke-width:1.0;stroke-dasharray:2.0,2.0;" x1="703" x2="1098.5" y1="760.75" y2="760.75"/><text fill="#000000" font-family="sans-serif" font-size="13" font-weight="bold" lengthAdjust="spacing" textLength="120" x="715" y="755.6841">Service Provider</text><path d="M621,775.75 L685,775.75 L685,782.8828 L675,792.8828 L621,792.8828 L621,775.75 " fill="#EEEEEE" style="stroke:#000000;stroke-width:1.0;"/><rect fill="none" height="444.3359" style="stroke:#000000;stroke-width:2.0;" width="912.5" x="621" y="775.75"/><text fill="#000000" font-family="sans-serif" font-size="13" font-weight="bold" lengthAdjust="spacing" textLength="19" x="636" y="788.8169">alt</text><text fill="#000000" font-family="sans-serif" font-size="11" font-weight="bold" lengthAdjust="spacing" textLength="5" x="700" y="787.9604">[</text><text fill="#000000" font-family="sans-serif" font-size="11" font-weight="bold" lengthAdjust="spacing" textLength="108" x="705" y="787.9604">PSP BIC matches</text><text fill="#000000" font-family="sans-serif" font-size="11" font-weight="bold" lengthAdjust="spacing" textLength="175" x="817" y="787.9604">RTP.serviceProviderDebtor]</text><polygon fill="#A80036" points="993,810.0156,1003,814.0156,993,818.0156,997,814.0156" style="stroke:#A80036;stroke-width:1.0;"/><line style="stroke:#A80036;stroke-width:1.0;" x1="698" x2="999" y1="814.0156" y2="814.0156"/><text fill="#000000" font-family="sans-serif" font-size="13" font-weight="bold" lengthAdjust="spacing" textLength="195" x="705" y="808.9497">Save RTP with PAID status</text><polygon fill="#A80036" points="709,839.1484,699,843.1484,709,847.1484,705,843.1484" style="stroke:#A80036;stroke-width:1.0;"/><line style="stroke:#A80036;stroke-width:1.0;stroke-dasharray:2.0,2.0;" x1="703" x2="1009" y1="843.1484" y2="843.1484"/><text fill="#000000" font-family="sans-serif" font-size="13" font-weight="bold" lengthAdjust="spacing" textLength="78" x="715" y="838.0825">Saved RTP</text><line style="stroke:#000000;stroke-width:1.0;stroke-dasharray:2.0,2.0;" x1="621" x2="1533.5" y1="852.1484" y2="852.1484"/><text fill="#000000" font-family="sans-serif" font-size="11" font-weight="bold" lengthAdjust="spacing" textLength="5" x="626" y="862.3589">[</text><text fill="#000000" font-family="sans-serif" font-size="11" font-weight="bold" lengthAdjust="spacing" textLength="159" x="631" y="862.3589">PSP BIC does NOT match</text><text fill="#000000" font-family="sans-serif" font-size="11" font-weight="bold" lengthAdjust="spacing" textLength="175" x="794" y="862.3589">RTP.serviceProviderDebtor]</text><polygon fill="#A80036" points="1200.5,888.0859,1210.5,892.0859,1200.5,896.0859,1204.5,892.0859" style="stroke:#A80036;stroke-width:1.0;"/><line style="stroke:#A80036;stroke-width:1.0;" x1="698" x2="1206.5" y1="892.0859" y2="892.0859"/><text fill="#000000" font-family="sans-serif" font-size="13" font-weight="bold" lengthAdjust="spacing" textLength="468" x="705" y="887.02">POST /sepa-request-to-pay-requests/{id}/cancellation-requests</text><path d="M1227,870.9531 L1227,895.9531 L1524,895.9531 L1524,880.9531 L1514,870.9531 L1227,870.9531 " fill="#FBFB77" filter="url(#f149lxdvencpby)" style="stroke:#A80036;stroke-width:1.0;"/><path d="M1514,870.9531 L1514,880.9531 L1524,880.9531 L1514,870.9531 " fill="#FBFB77" style="stroke:#A80036;stroke-width:1.0;"/><text fill="#000000" font-family="sans-serif" font-size="13" lengthAdjust="spacing" textLength="33" x="1233" y="888.02">Send</text><text fill="#000000" font-family="sans-serif" font-size="13" font-weight="bold" lengthAdjust="spacing" textLength="150" x="1270" y="888.02">cancellation request</text><text fill="#000000" font-family="sans-serif" font-size="13" lengthAdjust="spacing" textLength="85" x="1424" y="888.02">to SP Debitor</text><path d="M631,912.0859 L695,912.0859 L695,919.2188 L685,929.2188 L631,929.2188 L631,912.0859 " fill="#EEEEEE" style="stroke:#000000;stroke-width:1.0;"/><rect fill="none" height="301" style="stroke:#000000;stroke-width:2.0;" width="826.5" x="631" y="912.0859"/><text fill="#000000" font-family="sans-serif" font-size="13" font-weight="bold" lengthAdjust="spacing" textLength="19" x="646" y="925.1528">alt</text><text fill="#000000" font-family="sans-serif" font-size="11" font-weight="bold" lengthAdjust="spacing" textLength="5" x="710" y="924.2964">[</text><text fill="#000000" font-family="sans-serif" font-size="11" font-weight="bold" lengthAdjust="spacing" textLength="117" x="715" y="924.2964">SP Debtor accepts</text><text fill="#000000" font-family="sans-serif" font-size="11" font-weight="bold" lengthAdjust="spacing" textLength="5" x="832" y="924.2964">]</text><polygon fill="#A80036" points="709,946.3516,699,950.3516,709,954.3516,705,950.3516" style="stroke:#A80036;stroke-width:1.0;"/><line style="stroke:#A80036;stroke-width:1.0;stroke-dasharray:2.0,2.0;" x1="703" x2="1211.5" y1="950.3516" y2="950.3516"/><text fill="#000000" font-family="sans-serif" font-size="13" font-weight="bold" lengthAdjust="spacing" textLength="91" x="715" y="945.2856">201 Created</text><line style="stroke:#A80036;stroke-width:1.0;" x1="698" x2="740" y1="979.4844" y2="979.4844"/><line style="stroke:#A80036;stroke-width:1.0;" x1="740" x2="740" y1="979.4844" y2="992.4844"/><line style="stroke:#A80036;stroke-width:1.0;" x1="699" x2="740" y1="992.4844" y2="992.4844"/><polygon fill="#A80036" points="709,988.4844,699,992.4844,709,996.4844,705,992.4844" style="stroke:#A80036;stroke-width:1.0;"/><text fill="#000000" font-family="sans-serif" font-size="13" font-weight="bold" lengthAdjust="spacing" textLength="261" x="705" y="974.4185">Set RTP status to CANCELLED_PAID</text><polygon fill="#A80036" points="993,1017.6172,1003,1021.6172,993,1025.6172,997,1021.6172" style="stroke:#A80036;stroke-width:1.0;"/><line style="stroke:#A80036;stroke-width:1.0;" x1="698" x2="999" y1="1021.6172" y2="1021.6172"/><text fill="#000000" font-family="sans-serif" font-size="13" font-weight="bold" lengthAdjust="spacing" textLength="288" x="705" y="1016.5513">Save RTP with CANCELLED_PAID status</text><polygon fill="#A80036" points="709,1046.75,699,1050.75,709,1054.75,705,1050.75" style="stroke:#A80036;stroke-width:1.0;"/><line style="stroke:#A80036;stroke-width:1.0;stroke-dasharray:2.0,2.0;" x1="703" x2="1009" y1="1050.75" y2="1050.75"/><text fill="#000000" font-family="sans-serif" font-size="13" font-weight="bold" lengthAdjust="spacing" textLength="78" x="715" y="1045.6841">Saved RTP</text><line style="stroke:#000000;stroke-width:1.0;stroke-dasharray:2.0,2.0;" x1="631" x2="1457.5" y1="1059.75" y2="1059.75"/><text fill="#000000" font-family="sans-serif" font-size="11" font-weight="bold" lengthAdjust="spacing" textLength="5" x="636" y="1069.9604">[</text><text fill="#000000" font-family="sans-serif" font-size="11" font-weight="bold" lengthAdjust="spacing" textLength="111" x="641" y="1069.9604">SP Debtor rejects</text><text fill="#000000" font-family="sans-serif" font-size="11" font-weight="bold" lengthAdjust="spacing" textLength="5" x="752" y="1069.9604">]</text><polygon fill="#A80036" points="709,1095.6875,699,1099.6875,709,1103.6875,705,1099.6875" style="stroke:#A80036;stroke-width:1.0;"/><line style="stroke:#A80036;stroke-width:1.0;stroke-dasharray:2.0,2.0;" x1="703" x2="1211.5" y1="1099.6875" y2="1099.6875"/><text fill="#000000" font-family="sans-serif" font-size="13" font-weight="bold" lengthAdjust="spacing" textLength="109" x="715" y="1094.6216">Error response</text><path d="M1227,1078.5547 L1227,1103.5547 L1443,1103.5547 L1443,1088.5547 L1433,1078.5547 L1227,1078.5547 " fill="#FBFB77" filter="url(#f149lxdvencpby)" style="stroke:#A80036;stroke-width:1.0;"/><path d="M1433,1078.5547 L1433,1088.5547 L1443,1088.5547 L1433,1078.5547 " fill="#FBFB77" style="stroke:#A80036;stroke-width:1.0;"/><text fill="#000000" font-family="sans-serif" font-size="13" lengthAdjust="spacing" textLength="195" x="1233" y="1095.6216">Based on SP Debitor response</text><line style="stroke:#A80036;stroke-width:1.0;" x1="698" x2="740" y1="1133.8203" y2="1133.8203"/><line style="stroke:#A80036;stroke-width:1.0;" x1="740" x2="740" y1="1133.8203" y2="1146.8203"/><line style="stroke:#A80036;stroke-width:1.0;" x1="699" x2="740" y1="1146.8203" y2="1146.8203"/><polygon fill="#A80036" points="709,1142.8203,699,1146.8203,709,1150.8203,705,1146.8203" style="stroke:#A80036;stroke-width:1.0;"/><text fill="#000000" font-family="sans-serif" font-size="13" font-weight="bold" lengthAdjust="spacing" textLength="248" x="705" y="1128.7544">Set RTP status to ERROR_CANCEL</text><polygon fill="#A80036" points="993,1171.9531,1003,1175.9531,993,1179.9531,997,1175.9531" style="stroke:#A80036;stroke-width:1.0;"/><line style="stroke:#A80036;stroke-width:1.0;" x1="698" x2="999" y1="1175.9531" y2="1175.9531"/><text fill="#000000" font-family="sans-serif" font-size="13" font-weight="bold" lengthAdjust="spacing" textLength="275" x="705" y="1170.8872">Save RTP with ERROR_CANCEL status</text><polygon fill="#A80036" points="709,1201.0859,699,1205.0859,709,1209.0859,705,1205.0859" style="stroke:#A80036;stroke-width:1.0;"/><line style="stroke:#A80036;stroke-width:1.0;stroke-dasharray:2.0,2.0;" x1="703" x2="1009" y1="1205.0859" y2="1205.0859"/><text fill="#000000" font-family="sans-serif" font-size="13" font-weight="bold" lengthAdjust="spacing" textLength="78" x="715" y="1200.02">Saved RTP</text><polygon fill="#A80036" points="323,1244.2188,313,1248.2188,323,1252.2188,319,1248.2188" style="stroke:#A80036;stroke-width:1.0;"/><line style="stroke:#A80036;stroke-width:1.0;stroke-dasharray:2.0,2.0;" x1="317" x2="687" y1="1248.2188" y2="1248.2188"/><text fill="#000000" font-family="sans-serif" font-size="13" font-weight="bold" lengthAdjust="spacing" textLength="97" x="329" y="1243.1528">Updated RTP</text><line style="stroke:#000000;stroke-width:1.0;stroke-dasharray:2.0,2.0;" x1="201" x2="1543.5" y1="1257.2188" y2="1257.2188"/><text fill="#000000" font-family="sans-serif" font-size="11" font-weight="bold" lengthAdjust="spacing" textLength="5" x="206" y="1267.4292">[</text><text fill="#000000" font-family="sans-serif" font-size="11" font-weight="bold" lengthAdjust="spacing" textLength="115" x="211" y="1267.4292">Invalid RTP status</text><text fill="#000000" font-family="sans-serif" font-size="11" font-weight="bold" lengthAdjust="spacing" textLength="5" x="326" y="1267.4292">]</text><polygon fill="#A80036" points="323,1288.1563,313,1292.1563,323,1296.1563,319,1292.1563" style="stroke:#A80036;stroke-width:1.0;"/><line style="stroke:#A80036;stroke-width:1.0;stroke-dasharray:2.0,2.0;" x1="317" x2="687" y1="1292.1563" y2="1292.1563"/><text fill="#000000" font-family="sans-serif" font-size="13" font-weight="bold" lengthAdjust="spacing" textLength="183" x="329" y="1287.0903">Error - Invalid RTP status</text><line style="stroke:#000000;stroke-width:1.0;stroke-dasharray:2.0,2.0;" x1="191" x2="1553.5" y1="1308.1563" y2="1308.1563"/><text fill="#000000" font-family="sans-serif" font-size="11" font-weight="bold" lengthAdjust="spacing" textLength="5" x="196" y="1318.3667">[</text><text fill="#000000" font-family="sans-serif" font-size="11" font-weight="bold" lengthAdjust="spacing" textLength="90" x="201" y="1318.3667">RTP not found</text><text fill="#000000" font-family="sans-serif" font-size="11" font-weight="bold" lengthAdjust="spacing" textLength="5" x="291" y="1318.3667">]</text><polygon fill="#A80036" points="709,1339.0938,699,1343.0938,709,1347.0938,705,1343.0938" style="stroke:#A80036;stroke-width:1.0;"/><line style="stroke:#A80036;stroke-width:1.0;stroke-dasharray:2.0,2.0;" x1="703" x2="1009" y1="1343.0938" y2="1343.0938"/><text fill="#000000" font-family="sans-serif" font-size="13" font-weight="bold" lengthAdjust="spacing" textLength="74" x="715" y="1338.0278">Not found</text><polygon fill="#A80036" points="323,1368.2266,313,1372.2266,323,1376.2266,319,1372.2266" style="stroke:#A80036;stroke-width:1.0;"/><line style="stroke:#A80036;stroke-width:1.0;stroke-dasharray:2.0,2.0;" x1="317" x2="687" y1="1372.2266" y2="1372.2266"/><text fill="#000000" font-family="sans-serif" font-size="13" font-weight="bold" lengthAdjust="spacing" textLength="156" x="329" y="1367.1606">Error - RTP not found</text><line style="stroke:#000000;stroke-width:1.0;stroke-dasharray:2.0,2.0;" x1="181" x2="1563.5" y1="1388.2266" y2="1388.2266"/><text fill="#000000" font-family="sans-serif" font-size="11" font-weight="bold" lengthAdjust="spacing" textLength="5" x="186" y="1398.437">[</text><text fill="#000000" font-family="sans-serif" font-size="11" font-weight="bold" lengthAdjust="spacing" textLength="125" x="191" y="1398.437">Different Operation</text><text fill="#000000" font-family="sans-serif" font-size="11" font-weight="bold" lengthAdjust="spacing" textLength="5" x="316" y="1398.437">]</text><line style="stroke:#A80036;stroke-width:1.0;" x1="312" x2="354" y1="1423.1641" y2="1423.1641"/><line style="stroke:#A80036;stroke-width:1.0;" x1="354" x2="354" y1="1423.1641" y2="1436.1641"/><line style="stroke:#A80036;stroke-width:1.0;" x1="313" x2="354" y1="1436.1641" y2="1436.1641"/><polygon fill="#A80036" points="323,1432.1641,313,1436.1641,323,1440.1641,319,1436.1641" style="stroke:#A80036;stroke-width:1.0;"/><text fill="#000000" font-family="sans-serif" font-size="13" font-weight="bold" lengthAdjust="spacing" textLength="104" x="319" y="1418.0981">Skip message</text><path d="M435,1408.5313 L435,1433.5313 L660,1433.5313 L660,1418.5313 L650,1408.5313 L435,1408.5313 " fill="#FBFB77" filter="url(#f149lxdvencpby)" style="stroke:#A80036;stroke-width:1.0;"/><path d="M650,1408.5313 L650,1418.5313 L660,1418.5313 L650,1408.5313 " fill="#FBFB77" style="stroke:#A80036;stroke-width:1.0;"/><text fill="#000000" font-family="sans-serif" font-size="13" lengthAdjust="spacing" textLength="102" x="441" y="1425.5981">Operation is not</text><text fill="#000000" font-family="sans-serif" font-size="13" font-weight="bold" lengthAdjust="spacing" textLength="98" x="547" y="1425.5981">UPDATE PAID</text><!--SRC=[lLVDRkCs4BxpAGOvjGQywVOO80KIITqrkerLoUcfGC28uuID8gaaxLrZqMFVea_N9zaXgHzAbjFDPNqIoVdzvfiXhPza1QhMo8mq9SAxE8LVKMl-WB24nU8sZQys2QHNgtYnW9_B-YDZV-rmXt1cHPCzLWRUx-xFW6lupHwmXYiZ2zbmEZaBxKLrfNVFg9nijs226txFDHdCK4ZzH_NTIk1pKnkiYWFyWWV8JQtmUwUL9V4g7tl8KuWKQLeX9vEdKM0qppQftwQFS1_LNXO86Jv8RTJ1csyNHnvYl0yTn8ovN67vKv_81Q4LPBjOi8foW1AtnXxbXfkTXiiMIiPuOUIUcm4MnhelQzPbQXMZHooU8C1aIPYGWLxVOy9uQKXw8WUyLCZ50Hg5caf5Uk0LO3c9tKflwrqbd8p0gNs0CBnGCvQwu4g0s3MbB4X5m7CF0e23GSc7HqCBwDamH5ONj8N2dTQgFo1YjcUoUg13h8IpnHYMLC7ZNEdmA_EqaaEkix3dV8ypgBzaLPFAwz7pzMq1Wxf1nOsiAqiH05_KTRS9bvVWEvAQaHCU0wzwObaKGr_K3jPDwg64eA57pgnQ7xHj8RT37yu6zOurifMLo4npVOXgmaLBWnqgeR9jDB_begSbu2VgAzrAWXDn4BR1qR8_2x0RB0sHU0KFchMYVVvImvwNKlHc9gopl__-_GT-jqA18kgB_dm9KPOGE76maoStcs1v5KL9EfQupPFiRh8_KDMlFH3vYL3xvBhnuqO96kXc5DLkBmKg3VS7I6aSRVWdgh70mCH0k6w6TIVTHWZur79WAEHkPshmuXAn8Lol8dZcfdX4Agi5z8tsDZkJD39fOlQQHrno3MOByL6QHyz7Nv8WbYch0cCJ1bbhhguZxHDSeWBv2T8b8chKSBFU-8nUcKyQk_vQvniurzZmfKAw8RLPcdhPy4EtrEUVfVZxlE1LWMNfsgu_6WKzCFU26E2QF5I2LecYD3KCTzCiQFQc2lOz3PsAiPEsAB2PUBTvnI6oF_xmrbwmTgmV2OOjcHDXWuQasAAhcoZvy269xxexRqvxbWvZrJbYdAR6rvBZ1Nhq11cmKlWd5l-7LQAK4zKD3M2So8PrlQOtY00gvb2_Nesz2kGaozRPdSVhLH27YjyAu03VIh0JZPeEqtKavRAPN9wtZN3l3U-QZMgtglQJOJ-Tk1DZldfBU46n3wZrOKN6ZuavU6wE9EQ1UIceEKzzD2FutDNTnXVBxHQLVQEl9tVzgUT8_YIRqVDjJDpXAKBNc8rdyXV1lzEOYoo8glFm1G00]--></g></svg>