<?xml version="1.0" encoding="us-ascii" standalone="no"?><svg xmlns="http://www.w3.org/2000/svg" xmlns:xlink="http://www.w3.org/1999/xlink" contentStyleType="text/css" height="1252px" preserveAspectRatio="none" style="width:1457px;height:1252px;background:#FFFFFF;" version="1.1" viewBox="0 0 1457 1252" width="1457px" zoomAndPan="magnify"><defs><filter height="300%" id="fis9bvpthpyw1" width="300%" x="-1" y="-1"><feGaussianBlur result="blurOut" stdDeviation="2.0"/><feColorMatrix in="blurOut" result="blurOut2" type="matrix" values="0 0 0 0 0 0 0 0 0 0 0 0 0 0 0 0 0 0 .4 0"/><feOffset dx="4.0" dy="4.0" in="blurOut2" result="blurOut3"/><feBlend in="SourceGraphic" in2="blurOut3" mode="normal"/></filter></defs><g><text fill="#000000" font-family="sans-serif" font-size="14" font-weight="bold" lengthAdjust="spacing" textLength="119" x="591.75" y="27.9951">GDP Message -</text><text fill="#000000" font-family="sans-serif" font-size="14" font-weight="bold" lengthAdjust="spacing" textLength="103" x="715.75" y="27.9951">UPDATE PAID</text><text fill="#000000" font-family="sans-serif" font-size="14" font-weight="bold" lengthAdjust="spacing" textLength="37" x="823.75" y="27.9951">Flow</text><rect fill="#FFFFFF" filter="url(#fis9bvpthpyw1)" height="1023.1406" style="stroke:#A80036;stroke-width:1.0;" width="10" x="302" y="140.7266"/><rect fill="#FFFFFF" filter="url(#fis9bvpthpyw1)" height="923.7422" style="stroke:#A80036;stroke-width:1.0;" width="10" x="568" y="241.125"/><rect fill="#FFFFFF" filter="url(#fis9bvpthpyw1)" height="53.2656" style="stroke:#A80036;stroke-width:1.0;" width="10" x="885" y="270.2578"/><rect fill="#FFFFFF" filter="url(#fis9bvpthpyw1)" height="29.1328" style="stroke:#A80036;stroke-width:1.0;" width="10" x="885" y="558.8516"/><rect fill="#FFFFFF" filter="url(#fis9bvpthpyw1)" height="29.1328" style="stroke:#A80036;stroke-width:1.0;" width="10" x="885" y="766.4531"/><rect fill="#FFFFFF" filter="url(#fis9bvpthpyw1)" height="29.1328" style="stroke:#A80036;stroke-width:1.0;" width="10" x="885" y="920.7891"/><rect fill="#FFFFFF" filter="url(#fis9bvpthpyw1)" height="29.1328" style="stroke:#A80036;stroke-width:1.0;" width="10" x="974.5" y="476.4531"/><rect fill="#FFFFFF" filter="url(#fis9bvpthpyw1)" height="527.9453" style="stroke:#A80036;stroke-width:1.0;" width="10" x="1092.5" y="636.9219"/><rect fill="none" filter="url(#fis9bvpthpyw1)" height="954.0078" style="stroke:#000000;stroke-width:2.0;" width="1262.5" x="181" y="202.8594"/><rect fill="none" filter="url(#fis9bvpthpyw1)" height="810.6719" style="stroke:#000000;stroke-width:2.0;" width="1242.5" x="191" y="285.2578"/><rect fill="none" filter="url(#fis9bvpthpyw1)" height="606.8047" style="stroke:#000000;stroke-width:2.0;" width="1222.5" x="201" y="438.1875"/><rect fill="none" filter="url(#fis9bvpthpyw1)" height="444.3359" style="stroke:#000000;stroke-width:2.0;" width="912.5" x="501" y="520.5859"/><rect fill="none" filter="url(#fis9bvpthpyw1)" height="301" style="stroke:#000000;stroke-width:2.0;" width="826.5" x="511" y="656.9219"/><line style="stroke:#A80036;stroke-width:1.0;stroke-dasharray:5.0,5.0;" x1="138" x2="138" y1="104.5938" y2="1173.8672"/><line style="stroke:#A80036;stroke-width:1.0;stroke-dasharray:5.0,5.0;" x1="307" x2="307" y1="104.5938" y2="1173.8672"/><line style="stroke:#A80036;stroke-width:1.0;stroke-dasharray:5.0,5.0;" x1="573" x2="573" y1="104.5938" y2="1173.8672"/><line style="stroke:#A80036;stroke-width:1.0;stroke-dasharray:5.0,5.0;" x1="889.5" x2="889.5" y1="104.5938" y2="1173.8672"/><line style="stroke:#A80036;stroke-width:1.0;stroke-dasharray:5.0,5.0;" x1="979.5" x2="979.5" y1="104.5938" y2="1173.8672"/><line style="stroke:#A80036;stroke-width:1.0;stroke-dasharray:5.0,5.0;" x1="1097.5" x2="1097.5" y1="104.5938" y2="1173.8672"/><path d="M80,78.2969 L196,78.2969 C201,78.2969 201,91.4453 201,91.4453 C201,91.4453 201,104.5938 196,104.5938 L80,104.5938 C75,104.5938 75,91.4453 75,91.4453 C75,91.4453 75,78.2969 80,78.2969 " fill="#FEFECE" filter="url(#fis9bvpthpyw1)" style="stroke:#A80036;stroke-width:2.0;"/><path d="M196,78.2969 C191,78.2969 191,91.4453 191,91.4453 C191,104.5938 196,104.5938 196,104.5938 " fill="none" style="stroke:#A80036;stroke-width:2.0;"/><text fill="#000000" font-family="sans-serif" font-size="14" lengthAdjust="spacing" textLength="106" x="80" y="96.292">GDP Event Hub</text><path d="M80,1172.8672 L196,1172.8672 C201,1172.8672 201,1186.0156 201,1186.0156 C201,1186.0156 201,1199.1641 196,1199.1641 L80,1199.1641 C75,1199.1641 75,1186.0156 75,1186.0156 C75,1186.0156 75,1172.8672 80,1172.8672 " fill="#FEFECE" filter="url(#fis9bvpthpyw1)" style="stroke:#A80036;stroke-width:2.0;"/><path d="M196,1172.8672 C191,1172.8672 191,1186.0156 191,1186.0156 C191,1199.1641 196,1199.1641 196,1199.1641 " fill="none" style="stroke:#A80036;stroke-width:2.0;"/><text fill="#000000" font-family="sans-serif" font-size="14" lengthAdjust="spacing" textLength="106" x="80" y="1190.8623">GDP Event Hub</text><rect fill="#FEFECE" filter="url(#fis9bvpthpyw1)" height="30.2969" style="stroke:#A80036;stroke-width:1.5;" width="188" x="211" y="69.2969"/><text fill="#000000" font-family="sans-serif" font-size="14" lengthAdjust="spacing" textLength="174" x="218" y="89.292">GDP Message Consumer</text><rect fill="#FEFECE" filter="url(#fis9bvpthpyw1)" height="30.2969" style="stroke:#A80036;stroke-width:1.5;" width="188" x="211" y="1172.8672"/><text fill="#000000" font-family="sans-serif" font-size="14" lengthAdjust="spacing" textLength="174" x="218" y="1192.8623">GDP Message Consumer</text><rect fill="#FEFECE" filter="url(#fis9bvpthpyw1)" height="30.2969" style="stroke:#A80036;stroke-width:1.5;" width="100" x="521" y="69.2969"/><text fill="#000000" font-family="sans-serif" font-size="14" lengthAdjust="spacing" textLength="86" x="528" y="89.292">SP Creditore</text><rect fill="#FEFECE" filter="url(#fis9bvpthpyw1)" height="30.2969" style="stroke:#A80036;stroke-width:1.5;" width="100" x="521" y="1172.8672"/><text fill="#000000" font-family="sans-serif" font-size="14" lengthAdjust="spacing" textLength="86" x="528" y="1192.8623">SP Creditore</text><text fill="#000000" font-family="sans-serif" font-size="14" lengthAdjust="spacing" textLength="37" x="868.5" y="101.292">SRTP</text><path d="M872,52.2969 C872,42.2969 890,42.2969 890,42.2969 C890,42.2969 908,42.2969 908,52.2969 L908,78.2969 C908,88.2969 890,88.2969 890,88.2969 C890,88.2969 872,88.2969 872,78.2969 L872,52.2969 " fill="#FEFECE" filter="url(#fis9bvpthpyw1)" style="stroke:#A80036;stroke-width:1.5;"/><path d="M872,52.2969 C872,62.2969 890,62.2969 890,62.2969 C890,62.2969 908,62.2969 908,52.2969 " fill="none" style="stroke:#A80036;stroke-width:1.5;"/><text fill="#000000" font-family="sans-serif" font-size="14" lengthAdjust="spacing" textLength="37" x="868.5" y="1185.8623">SRTP</text><path d="M872,1199.1641 C872,1189.1641 890,1189.1641 890,1189.1641 C890,1189.1641 908,1189.1641 908,1199.1641 L908,1225.1641 C908,1235.1641 890,1235.1641 890,1235.1641 C890,1235.1641 872,1235.1641 872,1225.1641 L872,1199.1641 " fill="#FEFECE" filter="url(#fis9bvpthpyw1)" style="stroke:#A80036;stroke-width:1.5;"/><path d="M872,1199.1641 C872,1209.1641 890,1209.1641 890,1209.1641 C890,1209.1641 908,1209.1641 908,1199.1641 " fill="none" style="stroke:#A80036;stroke-width:1.5;"/><text fill="#000000" font-family="sans-serif" font-size="14" lengthAdjust="spacing" textLength="110" x="921.5" y="101.292">Service Registry</text><path d="M961.5,52.2969 C961.5,42.2969 979.5,42.2969 979.5,42.2969 C979.5,42.2969 997.5,42.2969 997.5,52.2969 L997.5,78.2969 C997.5,88.2969 979.5,88.2969 979.5,88.2969 C979.5,88.2969 961.5,88.2969 961.5,78.2969 L961.5,52.2969 " fill="#FEFECE" filter="url(#fis9bvpthpyw1)" style="stroke:#A80036;stroke-width:1.5;"/><path d="M961.5,52.2969 C961.5,62.2969 979.5,62.2969 979.5,62.2969 C979.5,62.2969 997.5,62.2969 997.5,52.2969 " fill="none" style="stroke:#A80036;stroke-width:1.5;"/><text fill="#000000" font-family="sans-serif" font-size="14" lengthAdjust="spacing" textLength="110" x="921.5" y="1185.8623">Service Registry</text><path d="M961.5,1199.1641 C961.5,1189.1641 979.5,1189.1641 979.5,1189.1641 C979.5,1189.1641 997.5,1189.1641 997.5,1199.1641 L997.5,1225.1641 C997.5,1235.1641 979.5,1235.1641 979.5,1235.1641 C979.5,1235.1641 961.5,1235.1641 961.5,1225.1641 L961.5,1199.1641 " fill="#FEFECE" filter="url(#fis9bvpthpyw1)" style="stroke:#A80036;stroke-width:1.5;"/><path d="M961.5,1199.1641 C961.5,1209.1641 979.5,1209.1641 979.5,1209.1641 C979.5,1209.1641 997.5,1209.1641 997.5,1199.1641 " fill="none" style="stroke:#A80036;stroke-width:1.5;"/><rect fill="#FEFECE" filter="url(#fis9bvpthpyw1)" height="30.2969" style="stroke:#A80036;stroke-width:1.5;" width="96" x="1047.5" y="69.2969"/><text fill="#000000" font-family="sans-serif" font-size="14" lengthAdjust="spacing" textLength="82" x="1054.5" y="89.292">SP Debitore</text><rect fill="#FEFECE" filter="url(#fis9bvpthpyw1)" height="30.2969" style="stroke:#A80036;stroke-width:1.5;" width="96" x="1047.5" y="1172.8672"/><text fill="#000000" font-family="sans-serif" font-size="14" lengthAdjust="spacing" textLength="82" x="1054.5" y="1192.8623">SP Debitore</text><rect fill="#FFFFFF" filter="url(#fis9bvpthpyw1)" height="1023.1406" style="stroke:#A80036;stroke-width:1.0;" width="10" x="302" y="140.7266"/><rect fill="#FFFFFF" filter="url(#fis9bvpthpyw1)" height="923.7422" style="stroke:#A80036;stroke-width:1.0;" width="10" x="568" y="241.125"/><rect fill="#FFFFFF" filter="url(#fis9bvpthpyw1)" height="53.2656" style="stroke:#A80036;stroke-width:1.0;" width="10" x="885" y="270.2578"/><rect fill="#FFFFFF" filter="url(#fis9bvpthpyw1)" height="29.1328" style="stroke:#A80036;stroke-width:1.0;" width="10" x="885" y="558.8516"/><rect fill="#FFFFFF" filter="url(#fis9bvpthpyw1)" height="29.1328" style="stroke:#A80036;stroke-width:1.0;" width="10" x="885" y="766.4531"/><rect fill="#FFFFFF" filter="url(#fis9bvpthpyw1)" height="29.1328" style="stroke:#A80036;stroke-width:1.0;" width="10" x="885" y="920.7891"/><rect fill="#FFFFFF" filter="url(#fis9bvpthpyw1)" height="29.1328" style="stroke:#A80036;stroke-width:1.0;" width="10" x="974.5" y="476.4531"/><rect fill="#FFFFFF" filter="url(#fis9bvpthpyw1)" height="527.9453" style="stroke:#A80036;stroke-width:1.0;" width="10" x="1092.5" y="636.9219"/><polygon fill="#A80036" points="290,136.7266,300,140.7266,290,144.7266,294,140.7266" style="stroke:#A80036;stroke-width:1.0;"/><line style="stroke:#A80036;stroke-width:1.0;" x1="138" x2="296" y1="140.7266" y2="140.7266"/><text fill="#000000" font-family="sans-serif" font-size="13" font-weight="bold" lengthAdjust="spacing" textLength="103" x="145" y="135.6606">GDP Message</text><path d="M5,119.5938 L5,144.5938 L129,144.5938 L129,129.5938 L119,119.5938 L5,119.5938 " fill="#FBFB77" filter="url(#fis9bvpthpyw1)" style="stroke:#A80036;stroke-width:1.0;"/><path d="M119,119.5938 L119,129.5938 L129,129.5938 L119,119.5938 " fill="#FBFB77" style="stroke:#A80036;stroke-width:1.0;"/><text fill="#000000" font-family="sans-serif" font-size="13" font-weight="bold" lengthAdjust="spacing" textLength="103" x="11" y="136.6606">Status = PAID</text><line style="stroke:#A80036;stroke-width:1.0;" x1="312" x2="354" y1="174.8594" y2="174.8594"/><line style="stroke:#A80036;stroke-width:1.0;" x1="354" x2="354" y1="174.8594" y2="187.8594"/><line style="stroke:#A80036;stroke-width:1.0;" x1="313" x2="354" y1="187.8594" y2="187.8594"/><polygon fill="#A80036" points="323,183.8594,313,187.8594,323,191.8594,319,187.8594" style="stroke:#A80036;stroke-width:1.0;"/><text fill="#000000" font-family="sans-serif" font-size="13" font-weight="bold" lengthAdjust="spacing" textLength="193" x="319" y="169.7935">Check message operation</text><path d="M181,202.8594 L245,202.8594 L245,209.9922 L235,219.9922 L181,219.9922 L181,202.8594 " fill="#EEEEEE" style="stroke:#000000;stroke-width:1.0;"/><rect fill="none" height="954.0078" style="stroke:#000000;stroke-width:2.0;" width="1262.5" x="181" y="202.8594"/><text fill="#000000" font-family="sans-serif" font-size="13" font-weight="bold" lengthAdjust="spacing" textLength="19" x="196" y="215.9263">alt</text><text fill="#000000" font-family="sans-serif" font-size="11" font-weight="bold" lengthAdjust="spacing" textLength="5" x="260" y="215.0698">[</text><text fill="#000000" font-family="sans-serif" font-size="11" font-weight="bold" lengthAdjust="spacing" textLength="140" x="265" y="215.0698">Operation == UPDATE</text><text fill="#000000" font-family="sans-serif" font-size="11" font-weight="bold" lengthAdjust="spacing" textLength="24" x="409" y="215.0698">and</text><text fill="#000000" font-family="sans-serif" font-size="11" font-weight="bold" lengthAdjust="spacing" textLength="96" x="437" y="215.0698">Status == PAID</text><text fill="#000000" font-family="sans-serif" font-size="11" font-weight="bold" lengthAdjust="spacing" textLength="5" x="533" y="215.0698">]</text><polygon fill="#A80036" points="556,237.125,566,241.125,556,245.125,560,241.125" style="stroke:#A80036;stroke-width:1.0;"/><line style="stroke:#A80036;stroke-width:1.0;" x1="312" x2="562" y1="241.125" y2="241.125"/><text fill="#000000" font-family="sans-serif" font-size="13" font-weight="bold" lengthAdjust="spacing" textLength="237" x="319" y="236.0591">Process UPDATE PAID operation</text><polygon fill="#A80036" points="873,266.2578,883,270.2578,873,274.2578,877,270.2578" style="stroke:#A80036;stroke-width:1.0;"/><line style="stroke:#A80036;stroke-width:1.0;" x1="578" x2="879" y1="270.2578" y2="270.2578"/><text fill="#000000" font-family="sans-serif" font-size="13" font-weight="bold" lengthAdjust="spacing" textLength="179" x="585" y="265.1919">findRtpByCompositeKey</text><path d="M191,285.2578 L255,285.2578 L255,292.3906 L245,302.3906 L191,302.3906 L191,285.2578 " fill="#EEEEEE" style="stroke:#000000;stroke-width:1.0;"/><rect fill="none" height="810.6719" style="stroke:#000000;stroke-width:2.0;" width="1242.5" x="191" y="285.2578"/><text fill="#000000" font-family="sans-serif" font-size="13" font-weight="bold" lengthAdjust="spacing" textLength="19" x="206" y="298.3247">alt</text><text fill="#000000" font-family="sans-serif" font-size="11" font-weight="bold" lengthAdjust="spacing" textLength="5" x="270" y="297.4683">[</text><text fill="#000000" font-family="sans-serif" font-size="11" font-weight="bold" lengthAdjust="spacing" textLength="66" x="275" y="297.4683">RTP exists</text><text fill="#000000" font-family="sans-serif" font-size="11" font-weight="bold" lengthAdjust="spacing" textLength="5" x="341" y="297.4683">]</text><polygon fill="#A80036" points="589,319.5234,579,323.5234,589,327.5234,585,323.5234" style="stroke:#A80036;stroke-width:1.0;"/><line style="stroke:#A80036;stroke-width:1.0;stroke-dasharray:2.0,2.0;" x1="583" x2="889" y1="323.5234" y2="323.5234"/><text fill="#000000" font-family="sans-serif" font-size="13" font-weight="bold" lengthAdjust="spacing" textLength="28" x="595" y="318.4575">RTP</text><line style="stroke:#A80036;stroke-width:1.0;" x1="578" x2="620" y1="381.4219" y2="381.4219"/><line style="stroke:#A80036;stroke-width:1.0;" x1="620" x2="620" y1="381.4219" y2="394.4219"/><line style="stroke:#A80036;stroke-width:1.0;" x1="579" x2="620" y1="394.4219" y2="394.4219"/><polygon fill="#A80036" points="589,390.4219,579,394.4219,589,398.4219,585,394.4219" style="stroke:#A80036;stroke-width:1.0;"/><text fill="#000000" font-family="sans-serif" font-size="13" font-weight="bold" lengthAdjust="spacing" textLength="186" x="585" y="376.356">Check RTP status is valid</text><path d="M783,336.5234 L783,421.5234 L929,421.5234 L929,346.5234 L919,336.5234 L783,336.5234 " fill="#FBFB77" filter="url(#fis9bvpthpyw1)" style="stroke:#A80036;stroke-width:1.0;"/><path d="M919,336.5234 L919,346.5234 L929,346.5234 L919,336.5234 " fill="#FBFB77" style="stroke:#A80036;stroke-width:1.0;"/><text fill="#000000" font-family="sans-serif" font-size="13" lengthAdjust="spacing" textLength="125" x="789" y="353.5903">&#9989; Valid RTP statuses:</text><text fill="#000000" font-family="sans-serif" font-size="13" lengthAdjust="spacing" textLength="68" x="789" y="368.7231">- CREATED</text><text fill="#000000" font-family="sans-serif" font-size="13" lengthAdjust="spacing" textLength="43" x="789" y="383.856">- SENT</text><text fill="#000000" font-family="sans-serif" font-size="13" lengthAdjust="spacing" textLength="77" x="789" y="398.9888">- ACCEPTED</text><text fill="#000000" font-family="sans-serif" font-size="13" lengthAdjust="spacing" textLength="119" x="789" y="414.1216">- USER_ACCEPTED</text><path d="M201,438.1875 L265,438.1875 L265,445.3203 L255,455.3203 L201,455.3203 L201,438.1875 " fill="#EEEEEE" style="stroke:#000000;stroke-width:1.0;"/><rect fill="none" height="606.8047" style="stroke:#000000;stroke-width:2.0;" width="1222.5" x="201" y="438.1875"/><text fill="#000000" font-family="sans-serif" font-size="13" font-weight="bold" lengthAdjust="spacing" textLength="19" x="216" y="451.2544">alt</text><text fill="#000000" font-family="sans-serif" font-size="11" font-weight="bold" lengthAdjust="spacing" textLength="5" x="280" y="450.3979">[</text><text fill="#000000" font-family="sans-serif" font-size="11" font-weight="bold" lengthAdjust="spacing" textLength="91" x="285" y="450.3979">Status is valid</text><text fill="#000000" font-family="sans-serif" font-size="11" font-weight="bold" lengthAdjust="spacing" textLength="5" x="376" y="450.3979">]</text><polygon fill="#A80036" points="962.5,472.4531,972.5,476.4531,962.5,480.4531,966.5,476.4531" style="stroke:#A80036;stroke-width:1.0;"/><line style="stroke:#A80036;stroke-width:1.0;" x1="578" x2="968.5" y1="476.4531" y2="476.4531"/><text fill="#000000" font-family="sans-serif" font-size="13" font-weight="bold" lengthAdjust="spacing" textLength="289" x="585" y="471.3872">Get Service Providers by PSP Tax Code</text><polygon fill="#A80036" points="589,501.5859,579,505.5859,589,509.5859,585,505.5859" style="stroke:#A80036;stroke-width:1.0;"/><line style="stroke:#A80036;stroke-width:1.0;stroke-dasharray:2.0,2.0;" x1="583" x2="978.5" y1="505.5859" y2="505.5859"/><text fill="#000000" font-family="sans-serif" font-size="13" font-weight="bold" lengthAdjust="spacing" textLength="120" x="595" y="500.52">Service Provider</text><path d="M501,520.5859 L565,520.5859 L565,527.7188 L555,537.7188 L501,537.7188 L501,520.5859 " fill="#EEEEEE" style="stroke:#000000;stroke-width:1.0;"/><rect fill="none" height="444.3359" style="stroke:#000000;stroke-width:2.0;" width="912.5" x="501" y="520.5859"/><text fill="#000000" font-family="sans-serif" font-size="13" font-weight="bold" lengthAdjust="spacing" textLength="19" x="516" y="533.6528">alt</text><text fill="#000000" font-family="sans-serif" font-size="11" font-weight="bold" lengthAdjust="spacing" textLength="5" x="580" y="532.7964">[</text><text fill="#000000" font-family="sans-serif" font-size="11" font-weight="bold" lengthAdjust="spacing" textLength="108" x="585" y="532.7964">PSP BIC matches</text><text fill="#000000" font-family="sans-serif" font-size="11" font-weight="bold" lengthAdjust="spacing" textLength="175" x="697" y="532.7964">RTP.serviceProviderDebtor]</text><polygon fill="#A80036" points="873,554.8516,883,558.8516,873,562.8516,877,558.8516" style="stroke:#A80036;stroke-width:1.0;"/><line style="stroke:#A80036;stroke-width:1.0;" x1="578" x2="879" y1="558.8516" y2="558.8516"/><text fill="#000000" font-family="sans-serif" font-size="13" font-weight="bold" lengthAdjust="spacing" textLength="195" x="585" y="553.7856">Save RTP with PAID status</text><polygon fill="#A80036" points="589,583.9844,579,587.9844,589,591.9844,585,587.9844" style="stroke:#A80036;stroke-width:1.0;"/><line style="stroke:#A80036;stroke-width:1.0;stroke-dasharray:2.0,2.0;" x1="583" x2="889" y1="587.9844" y2="587.9844"/><text fill="#000000" font-family="sans-serif" font-size="13" font-weight="bold" lengthAdjust="spacing" textLength="78" x="595" y="582.9185">Saved RTP</text><line style="stroke:#000000;stroke-width:1.0;stroke-dasharray:2.0,2.0;" x1="501" x2="1413.5" y1="596.9844" y2="596.9844"/><text fill="#000000" font-family="sans-serif" font-size="11" font-weight="bold" lengthAdjust="spacing" textLength="5" x="506" y="607.1948">[</text><text fill="#000000" font-family="sans-serif" font-size="11" font-weight="bold" lengthAdjust="spacing" textLength="159" x="511" y="607.1948">PSP BIC does NOT match</text><text fill="#000000" font-family="sans-serif" font-size="11" font-weight="bold" lengthAdjust="spacing" textLength="175" x="674" y="607.1948">RTP.serviceProviderDebtor]</text><polygon fill="#A80036" points="1080.5,632.9219,1090.5,636.9219,1080.5,640.9219,1084.5,636.9219" style="stroke:#A80036;stroke-width:1.0;"/><line style="stroke:#A80036;stroke-width:1.0;" x1="578" x2="1086.5" y1="636.9219" y2="636.9219"/><text fill="#000000" font-family="sans-serif" font-size="13" font-weight="bold" lengthAdjust="spacing" textLength="468" x="585" y="631.856">POST /sepa-request-to-pay-requests/{id}/cancellation-requests</text><path d="M1107,615.7891 L1107,640.7891 L1404,640.7891 L1404,625.7891 L1394,615.7891 L1107,615.7891 " fill="#FBFB77" filter="url(#fis9bvpthpyw1)" style="stroke:#A80036;stroke-width:1.0;"/><path d="M1394,615.7891 L1394,625.7891 L1404,625.7891 L1394,615.7891 " fill="#FBFB77" style="stroke:#A80036;stroke-width:1.0;"/><text fill="#000000" font-family="sans-serif" font-size="13" lengthAdjust="spacing" textLength="33" x="1113" y="632.856">Send</text><text fill="#000000" font-family="sans-serif" font-size="13" font-weight="bold" lengthAdjust="spacing" textLength="150" x="1150" y="632.856">cancellation request</text><text fill="#000000" font-family="sans-serif" font-size="13" lengthAdjust="spacing" textLength="85" x="1304" y="632.856">to SP Debitor</text><path d="M511,656.9219 L575,656.9219 L575,664.0547 L565,674.0547 L511,674.0547 L511,656.9219 " fill="#EEEEEE" style="stroke:#000000;stroke-width:1.0;"/><rect fill="none" height="301" style="stroke:#000000;stroke-width:2.0;" width="826.5" x="511" y="656.9219"/><text fill="#000000" font-family="sans-serif" font-size="13" font-weight="bold" lengthAdjust="spacing" textLength="19" x="526" y="669.9888">alt</text><text fill="#000000" font-family="sans-serif" font-size="11" font-weight="bold" lengthAdjust="spacing" textLength="5" x="590" y="669.1323">[</text><text fill="#000000" font-family="sans-serif" font-size="11" font-weight="bold" lengthAdjust="spacing" textLength="117" x="595" y="669.1323">SP Debtor accepts</text><text fill="#000000" font-family="sans-serif" font-size="11" font-weight="bold" lengthAdjust="spacing" textLength="5" x="712" y="669.1323">]</text><polygon fill="#A80036" points="589,691.1875,579,695.1875,589,699.1875,585,695.1875" style="stroke:#A80036;stroke-width:1.0;"/><line style="stroke:#A80036;stroke-width:1.0;stroke-dasharray:2.0,2.0;" x1="583" x2="1091.5" y1="695.1875" y2="695.1875"/><text fill="#000000" font-family="sans-serif" font-size="13" font-weight="bold" lengthAdjust="spacing" textLength="91" x="595" y="690.1216">201 Created</text><line style="stroke:#A80036;stroke-width:1.0;" x1="578" x2="620" y1="724.3203" y2="724.3203"/><line style="stroke:#A80036;stroke-width:1.0;" x1="620" x2="620" y1="724.3203" y2="737.3203"/><line style="stroke:#A80036;stroke-width:1.0;" x1="579" x2="620" y1="737.3203" y2="737.3203"/><polygon fill="#A80036" points="589,733.3203,579,737.3203,589,741.3203,585,737.3203" style="stroke:#A80036;stroke-width:1.0;"/><text fill="#000000" font-family="sans-serif" font-size="13" font-weight="bold" lengthAdjust="spacing" textLength="261" x="585" y="719.2544">Set RTP status to CANCELLED_PAID</text><polygon fill="#A80036" points="873,762.4531,883,766.4531,873,770.4531,877,766.4531" style="stroke:#A80036;stroke-width:1.0;"/><line style="stroke:#A80036;stroke-width:1.0;" x1="578" x2="879" y1="766.4531" y2="766.4531"/><text fill="#000000" font-family="sans-serif" font-size="13" font-weight="bold" lengthAdjust="spacing" textLength="288" x="585" y="761.3872">Save RTP with CANCELLED_PAID status</text><polygon fill="#A80036" points="589,791.5859,579,795.5859,589,799.5859,585,795.5859" style="stroke:#A80036;stroke-width:1.0;"/><line style="stroke:#A80036;stroke-width:1.0;stroke-dasharray:2.0,2.0;" x1="583" x2="889" y1="795.5859" y2="795.5859"/><text fill="#000000" font-family="sans-serif" font-size="13" font-weight="bold" lengthAdjust="spacing" textLength="78" x="595" y="790.52">Saved RTP</text><line style="stroke:#000000;stroke-width:1.0;stroke-dasharray:2.0,2.0;" x1="511" x2="1337.5" y1="804.5859" y2="804.5859"/><text fill="#000000" font-family="sans-serif" font-size="11" font-weight="bold" lengthAdjust="spacing" textLength="5" x="516" y="814.7964">[</text><text fill="#000000" font-family="sans-serif" font-size="11" font-weight="bold" lengthAdjust="spacing" textLength="111" x="521" y="814.7964">SP Debtor rejects</text><text fill="#000000" font-family="sans-serif" font-size="11" font-weight="bold" lengthAdjust="spacing" textLength="5" x="632" y="814.7964">]</text><polygon fill="#A80036" points="589,840.5234,579,844.5234,589,848.5234,585,844.5234" style="stroke:#A80036;stroke-width:1.0;"/><line style="stroke:#A80036;stroke-width:1.0;stroke-dasharray:2.0,2.0;" x1="583" x2="1091.5" y1="844.5234" y2="844.5234"/><text fill="#000000" font-family="sans-serif" font-size="13" font-weight="bold" lengthAdjust="spacing" textLength="109" x="595" y="839.4575">Error response</text><path d="M1107,823.3906 L1107,848.3906 L1323,848.3906 L1323,833.3906 L1313,823.3906 L1107,823.3906 " fill="#FBFB77" filter="url(#fis9bvpthpyw1)" style="stroke:#A80036;stroke-width:1.0;"/><path d="M1313,823.3906 L1313,833.3906 L1323,833.3906 L1313,823.3906 " fill="#FBFB77" style="stroke:#A80036;stroke-width:1.0;"/><text fill="#000000" font-family="sans-serif" font-size="13" lengthAdjust="spacing" textLength="195" x="1113" y="840.4575">Based on SP Debitor response</text><line style="stroke:#A80036;stroke-width:1.0;" x1="578" x2="620" y1="878.6563" y2="878.6563"/><line style="stroke:#A80036;stroke-width:1.0;" x1="620" x2="620" y1="878.6563" y2="891.6563"/><line style="stroke:#A80036;stroke-width:1.0;" x1="579" x2="620" y1="891.6563" y2="891.6563"/><polygon fill="#A80036" points="589,887.6563,579,891.6563,589,895.6563,585,891.6563" style="stroke:#A80036;stroke-width:1.0;"/><text fill="#000000" font-family="sans-serif" font-size="13" font-weight="bold" lengthAdjust="spacing" textLength="248" x="585" y="873.5903">Set RTP status to ERROR_CANCEL</text><polygon fill="#A80036" points="873,916.7891,883,920.7891,873,924.7891,877,920.7891" style="stroke:#A80036;stroke-width:1.0;"/><line style="stroke:#A80036;stroke-width:1.0;" x1="578" x2="879" y1="920.7891" y2="920.7891"/><text fill="#000000" font-family="sans-serif" font-size="13" font-weight="bold" lengthAdjust="spacing" textLength="275" x="585" y="915.7231">Save RTP with ERROR_CANCEL status</text><polygon fill="#A80036" points="589,945.9219,579,949.9219,589,953.9219,585,949.9219" style="stroke:#A80036;stroke-width:1.0;"/><line style="stroke:#A80036;stroke-width:1.0;stroke-dasharray:2.0,2.0;" x1="583" x2="889" y1="949.9219" y2="949.9219"/><text fill="#000000" font-family="sans-serif" font-size="13" font-weight="bold" lengthAdjust="spacing" textLength="78" x="595" y="944.856">Saved RTP</text><polygon fill="#A80036" points="323,989.0547,313,993.0547,323,997.0547,319,993.0547" style="stroke:#A80036;stroke-width:1.0;"/><line style="stroke:#A80036;stroke-width:1.0;stroke-dasharray:2.0,2.0;" x1="317" x2="567" y1="993.0547" y2="993.0547"/><text fill="#000000" font-family="sans-serif" font-size="13" font-weight="bold" lengthAdjust="spacing" textLength="97" x="329" y="987.9888">Updated RTP</text><line style="stroke:#000000;stroke-width:1.0;stroke-dasharray:2.0,2.0;" x1="201" x2="1423.5" y1="1002.0547" y2="1002.0547"/><text fill="#000000" font-family="sans-serif" font-size="11" font-weight="bold" lengthAdjust="spacing" textLength="5" x="206" y="1012.2651">[</text><text fill="#000000" font-family="sans-serif" font-size="11" font-weight="bold" lengthAdjust="spacing" textLength="115" x="211" y="1012.2651">Invalid RTP status</text><text fill="#000000" font-family="sans-serif" font-size="11" font-weight="bold" lengthAdjust="spacing" textLength="5" x="326" y="1012.2651">]</text><polygon fill="#A80036" points="323,1032.9922,313,1036.9922,323,1040.9922,319,1036.9922" style="stroke:#A80036;stroke-width:1.0;"/><line style="stroke:#A80036;stroke-width:1.0;stroke-dasharray:2.0,2.0;" x1="317" x2="567" y1="1036.9922" y2="1036.9922"/><text fill="#000000" font-family="sans-serif" font-size="13" font-weight="bold" lengthAdjust="spacing" textLength="183" x="329" y="1031.9263">Error - Invalid RTP status</text><line style="stroke:#000000;stroke-width:1.0;stroke-dasharray:2.0,2.0;" x1="191" x2="1433.5" y1="1052.9922" y2="1052.9922"/><text fill="#000000" font-family="sans-serif" font-size="11" font-weight="bold" lengthAdjust="spacing" textLength="5" x="196" y="1063.2026">[</text><text fill="#000000" font-family="sans-serif" font-size="11" font-weight="bold" lengthAdjust="spacing" textLength="90" x="201" y="1063.2026">RTP not found</text><text fill="#000000" font-family="sans-serif" font-size="11" font-weight="bold" lengthAdjust="spacing" textLength="5" x="291" y="1063.2026">]</text><polygon fill="#A80036" points="323,1083.9297,313,1087.9297,323,1091.9297,319,1087.9297" style="stroke:#A80036;stroke-width:1.0;"/><line style="stroke:#A80036;stroke-width:1.0;stroke-dasharray:2.0,2.0;" x1="317" x2="567" y1="1087.9297" y2="1087.9297"/><text fill="#000000" font-family="sans-serif" font-size="13" font-weight="bold" lengthAdjust="spacing" textLength="156" x="329" y="1082.8638">Error - RTP not found</text><line style="stroke:#000000;stroke-width:1.0;stroke-dasharray:2.0,2.0;" x1="181" x2="1443.5" y1="1103.9297" y2="1103.9297"/><text fill="#000000" font-family="sans-serif" font-size="11" font-weight="bold" lengthAdjust="spacing" textLength="5" x="186" y="1114.1401">[</text><text fill="#000000" font-family="sans-serif" font-size="11" font-weight="bold" lengthAdjust="spacing" textLength="125" x="191" y="1114.1401">Different Operation</text><text fill="#000000" font-family="sans-serif" font-size="11" font-weight="bold" lengthAdjust="spacing" textLength="5" x="316" y="1114.1401">]</text><polygon fill="#A80036" points="323,1139.8672,313,1143.8672,323,1147.8672,319,1143.8672" style="stroke:#A80036;stroke-width:1.0;"/><line style="stroke:#A80036;stroke-width:1.0;stroke-dasharray:2.0,2.0;" x1="317" x2="567" y1="1143.8672" y2="1143.8672"/><text fill="#000000" font-family="sans-serif" font-size="13" font-weight="bold" lengthAdjust="spacing" textLength="101" x="329" y="1138.8013">Not triggered</text><path d="M583,1122.7344 L583,1147.7344 L808,1147.7344 L808,1132.7344 L798,1122.7344 L583,1122.7344 " fill="#FBFB77" filter="url(#fis9bvpthpyw1)" style="stroke:#A80036;stroke-width:1.0;"/><path d="M798,1122.7344 L798,1132.7344 L808,1132.7344 L798,1122.7344 " fill="#FBFB77" style="stroke:#A80036;stroke-width:1.0;"/><text fill="#000000" font-family="sans-serif" font-size="13" lengthAdjust="spacing" textLength="102" x="589" y="1139.8013">Operation is not</text><text fill="#000000" font-family="sans-serif" font-size="13" font-weight="bold" lengthAdjust="spacing" textLength="98" x="695" y="1139.8013">UPDATE PAID</text><!--SRC=[jLR1Rjim3BtxAuWU0tZTTYpG0QdjRSMwnBFJNGl5PXAjZkr9IjfWs75_iQ_RbuoIRLbsqc8zx1HB91-fnoSgyfwN82g9dkAgGFWGnl0PfMHh11ycaziud2uYYAVNuMG2xulgmVE-xt27SAPTepsM2ZxkbcV097pH1gzcGl6CrumiPovUK9LojqLXVBl5q3sD8H2OSrK9D6vf77WvKsp99ALCaqNSRDE7kuzYppE41DTSAd4mFjtYA4E8IpT1w7ccSF3VsQekwEXEwPE9LrOAeS2LqgPKCRMJSDdoudaiKtpFL7z6h_iOemORpEvXsr9IrIYOubL98AnGP9ztEt1v2GtxH3mhSoUjpGlWfY6kT8POL1d1WzEwGHu0MwrcbzRqO-A9L0smucMUgFhg45JRkf9SuISyZ08r_th3r4mBm4SYMnelC6Rm-v9esLfoFCBeypVE3KCQGJRdvHBshE1v2s4w8VXweymIuC_lN_1LEpX1A2zQgmz14X4HeLsdqMnX5zCWY6BNUfj6oTrW5ubydRGfjZboUh8qUvHEUqP7gA0JAFLcptCK4fO7Y4cB2_P8FSpH0bXwh7oR_MxfqZf6jI0EonQcmpVbwzHNrm5icSesI6tJrBsI3Lu7H_U4haaRTwIIbEtH4Fx0rQPHMKEzhMAi5miqKeT6Chrp8a_gX5fHq7Nloyyhb32RBvfplEWKSMZkoZnTmBd4cla2QQv9vQlAhzcXMyhp7pp_UPwnCiEYC5V8cfnoUqrUKA_DPNL3e0sX2bK5_GWwGPGUHtQtaPfn9s_ooh0UvDNd2Lqktxv-eoSeGMbD3lpSEvQI9fqRHaK5qraGtTn4uLqtquvZJtP-67YiWQTKy6ywU589LWizFGA_OVOyFP4Gnb7MD3TnuEcsy8fUbHoeRtshRD1BI8sIP9xSDGozW58txFyJQlaiSw__SkVPw0cxhNEjhnROStfnNUv7StWu64T0JJTyU3AiBQH5rsRg4gogNTbDtETWZ_qDNeiMyjKAXVxxCXyyZgSGPuIYI1jh2cYGNBNqJpOz1phXw6-JPz8wj7VGVm40]--></g></svg>