<?xml version="1.0" encoding="us-ascii" standalone="no"?><svg xmlns="http://www.w3.org/2000/svg" xmlns:xlink="http://www.w3.org/1999/xlink" contentStyleType="text/css" height="1438px" preserveAspectRatio="none" style="width:1649px;height:1438px;background:#FFFFFF;" version="1.1" viewBox="0 0 1649 1438" width="1649px" zoomAndPan="magnify"><defs><filter height="300%" id="f1fexoxxtnpsja" width="300%" x="-1" y="-1"><feGaussianBlur result="blurOut" stdDeviation="2.0"/><feColorMatrix in="blurOut" result="blurOut2" type="matrix" values="0 0 0 0 0 0 0 0 0 0 0 0 0 0 0 0 0 0 .4 0"/><feOffset dx="4.0" dy="4.0" in="blurOut2" result="blurOut3"/><feBlend in="SourceGraphic" in2="blurOut3" mode="normal"/></filter></defs><g><text fill="#000000" font-family="sans-serif" font-size="14" font-weight="bold" lengthAdjust="spacing" textLength="119" x="636" y="27.9951">GDP Message -</text><text fill="#000000" font-family="sans-serif" font-size="14" font-weight="bold" lengthAdjust="spacing" textLength="206" x="760" y="27.9951">UPDATE INVALID / EXPIRED</text><text fill="#000000" font-family="sans-serif" font-size="14" font-weight="bold" lengthAdjust="spacing" textLength="37" x="971" y="27.9951">Flow</text><rect fill="#FFFFFF" filter="url(#f1fexoxxtnpsja)" height="1169.5039" style="stroke:#A80036;stroke-width:1.0;" width="10" x="409" y="164.5898"/><rect fill="#FFFFFF" filter="url(#f1fexoxxtnpsja)" height="53.2656" style="stroke:#A80036;stroke-width:1.0;" width="10" x="645" y="206.2891"/><rect fill="#FFFFFF" filter="url(#f1fexoxxtnpsja)" height="881.9375" style="stroke:#A80036;stroke-width:1.0;" width="10" x="795" y="445.1563"/><rect fill="#FFFFFF" filter="url(#f1fexoxxtnpsja)" height="107.6641" style="stroke:#A80036;stroke-width:1.0;" width="10" x="1099" y="474.2891"/><rect fill="#FFFFFF" filter="url(#f1fexoxxtnpsja)" height="29.1328" style="stroke:#A80036;stroke-width:1.0;" width="10" x="1099" y="824.1484"/><rect fill="#FFFFFF" filter="url(#f1fexoxxtnpsja)" height="29.1328" style="stroke:#A80036;stroke-width:1.0;" width="10" x="1099" y="968.4844"/><rect fill="#FFFFFF" filter="url(#f1fexoxxtnpsja)" height="29.1328" style="stroke:#A80036;stroke-width:1.0;" width="10" x="1099" y="1112.8203"/><rect fill="#FFFFFF" filter="url(#f1fexoxxtnpsja)" height="462.3359" style="stroke:#A80036;stroke-width:1.0;" width="10" x="1292" y="694.6172"/><rect fill="none" filter="url(#f1fexoxxtnpsja)" height="1105.8047" style="stroke:#000000;stroke-width:2.0;" width="1347" x="288" y="221.2891"/><rect fill="none" filter="url(#f1fexoxxtnpsja)" height="830.8047" style="stroke:#000000;stroke-width:2.0;" width="1327" x="298" y="489.2891"/><rect fill="none" filter="url(#f1fexoxxtnpsja)" height="588.6719" style="stroke:#000000;stroke-width:2.0;" width="1307" x="308" y="651.3516"/><rect fill="none" filter="url(#f1fexoxxtnpsja)" height="435.3359" style="stroke:#000000;stroke-width:2.0;" width="619" x="738" y="714.6172"/><line style="stroke:#A80036;stroke-width:1.0;stroke-dasharray:5.0,5.0;" x1="245" x2="245" y1="120.8906" y2="1344.0938"/><line style="stroke:#A80036;stroke-width:1.0;stroke-dasharray:5.0,5.0;" x1="414" x2="414" y1="120.8906" y2="1344.0938"/><line style="stroke:#A80036;stroke-width:1.0;stroke-dasharray:5.0,5.0;" x1="650" x2="650" y1="120.8906" y2="1344.0938"/><line style="stroke:#A80036;stroke-width:1.0;stroke-dasharray:5.0,5.0;" x1="800" x2="800" y1="120.8906" y2="1344.0938"/><line style="stroke:#A80036;stroke-width:1.0;stroke-dasharray:5.0,5.0;" x1="1103.5" x2="1103.5" y1="120.8906" y2="1344.0938"/><line style="stroke:#A80036;stroke-width:1.0;stroke-dasharray:5.0,5.0;" x1="1297" x2="1297" y1="120.8906" y2="1344.0938"/><path d="M187,94.5938 L303,94.5938 C308,94.5938 308,107.7422 308,107.7422 C308,107.7422 308,120.8906 303,120.8906 L187,120.8906 C182,120.8906 182,107.7422 182,107.7422 C182,107.7422 182,94.5938 187,94.5938 " fill="#FEFECE" filter="url(#f1fexoxxtnpsja)" style="stroke:#A80036;stroke-width:2.0;"/><path d="M303,94.5938 C298,94.5938 298,107.7422 298,107.7422 C298,120.8906 303,120.8906 303,120.8906 " fill="none" style="stroke:#A80036;stroke-width:2.0;"/><text fill="#000000" font-family="sans-serif" font-size="14" lengthAdjust="spacing" textLength="106" x="187" y="112.5889">GDP Event Hub</text><path d="M187,1343.0938 L303,1343.0938 C308,1343.0938 308,1356.2422 308,1356.2422 C308,1356.2422 308,1369.3906 303,1369.3906 L187,1369.3906 C182,1369.3906 182,1356.2422 182,1356.2422 C182,1356.2422 182,1343.0938 187,1343.0938 " fill="#FEFECE" filter="url(#f1fexoxxtnpsja)" style="stroke:#A80036;stroke-width:2.0;"/><path d="M303,1343.0938 C298,1343.0938 298,1356.2422 298,1356.2422 C298,1369.3906 303,1369.3906 303,1369.3906 " fill="none" style="stroke:#A80036;stroke-width:2.0;"/><text fill="#000000" font-family="sans-serif" font-size="14" lengthAdjust="spacing" textLength="106" x="187" y="1361.0889">GDP Event Hub</text><rect fill="#FEFECE" filter="url(#f1fexoxxtnpsja)" height="30.2969" style="stroke:#A80036;stroke-width:1.5;" width="188" x="318" y="85.5938"/><text fill="#000000" font-family="sans-serif" font-size="14" lengthAdjust="spacing" textLength="174" x="325" y="105.5889">GDP Message Consumer</text><rect fill="#FEFECE" filter="url(#f1fexoxxtnpsja)" height="30.2969" style="stroke:#A80036;stroke-width:1.5;" width="188" x="318" y="1343.0938"/><text fill="#000000" font-family="sans-serif" font-size="14" lengthAdjust="spacing" textLength="174" x="325" y="1363.0889">GDP Message Consumer</text><text fill="#000000" font-family="sans-serif" font-size="14" lengthAdjust="spacing" textLength="39" x="627.5" y="101.292">Redis</text><text fill="#000000" font-family="sans-serif" font-size="14" lengthAdjust="spacing" textLength="170" x="562" y="117.5889">(Idempotency Key Store)</text><path d="M632,52.2969 C632,42.2969 650,42.2969 650,42.2969 C650,42.2969 668,42.2969 668,52.2969 L668,78.2969 C668,88.2969 650,88.2969 650,88.2969 C650,88.2969 632,88.2969 632,78.2969 L632,52.2969 " fill="#FEFECE" filter="url(#f1fexoxxtnpsja)" style="stroke:#A80036;stroke-width:1.5;"/><path d="M632,52.2969 C632,62.2969 650,62.2969 650,62.2969 C650,62.2969 668,62.2969 668,52.2969 " fill="none" style="stroke:#A80036;stroke-width:1.5;"/><text fill="#000000" font-family="sans-serif" font-size="14" lengthAdjust="spacing" textLength="39" x="627.5" y="1356.0889">Redis</text><text fill="#000000" font-family="sans-serif" font-size="14" lengthAdjust="spacing" textLength="170" x="562" y="1372.3857">(Idempotency Key Store)</text><path d="M632,1385.6875 C632,1375.6875 650,1375.6875 650,1375.6875 C650,1375.6875 668,1375.6875 668,1385.6875 L668,1411.6875 C668,1421.6875 650,1421.6875 650,1421.6875 C650,1421.6875 632,1421.6875 632,1411.6875 L632,1385.6875 " fill="#FEFECE" filter="url(#f1fexoxxtnpsja)" style="stroke:#A80036;stroke-width:1.5;"/><path d="M632,1385.6875 C632,1395.6875 650,1395.6875 650,1395.6875 C650,1395.6875 668,1395.6875 668,1385.6875 " fill="none" style="stroke:#A80036;stroke-width:1.5;"/><rect fill="#FEFECE" filter="url(#f1fexoxxtnpsja)" height="30.2969" style="stroke:#A80036;stroke-width:1.5;" width="100" x="748" y="85.5938"/><text fill="#000000" font-family="sans-serif" font-size="14" lengthAdjust="spacing" textLength="86" x="755" y="105.5889">SP Creditore</text><rect fill="#FEFECE" filter="url(#f1fexoxxtnpsja)" height="30.2969" style="stroke:#A80036;stroke-width:1.5;" width="100" x="748" y="1343.0938"/><text fill="#000000" font-family="sans-serif" font-size="14" lengthAdjust="spacing" textLength="86" x="755" y="1363.0889">SP Creditore</text><text fill="#000000" font-family="sans-serif" font-size="14" lengthAdjust="spacing" textLength="37" x="1082.5" y="117.5889">SRTP</text><path d="M1086,68.5938 C1086,58.5938 1104,58.5938 1104,58.5938 C1104,58.5938 1122,58.5938 1122,68.5938 L1122,94.5938 C1122,104.5938 1104,104.5938 1104,104.5938 C1104,104.5938 1086,104.5938 1086,94.5938 L1086,68.5938 " fill="#FEFECE" filter="url(#f1fexoxxtnpsja)" style="stroke:#A80036;stroke-width:1.5;"/><path d="M1086,68.5938 C1086,78.5938 1104,78.5938 1104,78.5938 C1104,78.5938 1122,78.5938 1122,68.5938 " fill="none" style="stroke:#A80036;stroke-width:1.5;"/><text fill="#000000" font-family="sans-serif" font-size="14" lengthAdjust="spacing" textLength="37" x="1082.5" y="1356.0889">SRTP</text><path d="M1086,1369.3906 C1086,1359.3906 1104,1359.3906 1104,1359.3906 C1104,1359.3906 1122,1359.3906 1122,1369.3906 L1122,1395.3906 C1122,1405.3906 1104,1405.3906 1104,1405.3906 C1104,1405.3906 1086,1405.3906 1086,1395.3906 L1086,1369.3906 " fill="#FEFECE" filter="url(#f1fexoxxtnpsja)" style="stroke:#A80036;stroke-width:1.5;"/><path d="M1086,1369.3906 C1086,1379.3906 1104,1379.3906 1104,1379.3906 C1104,1379.3906 1122,1379.3906 1122,1369.3906 " fill="none" style="stroke:#A80036;stroke-width:1.5;"/><rect fill="#FEFECE" filter="url(#f1fexoxxtnpsja)" height="30.2969" style="stroke:#A80036;stroke-width:1.5;" width="96" x="1247" y="85.5938"/><text fill="#000000" font-family="sans-serif" font-size="14" lengthAdjust="spacing" textLength="82" x="1254" y="105.5889">SP Debitore</text><rect fill="#FEFECE" filter="url(#f1fexoxxtnpsja)" height="30.2969" style="stroke:#A80036;stroke-width:1.5;" width="96" x="1247" y="1343.0938"/><text fill="#000000" font-family="sans-serif" font-size="14" lengthAdjust="spacing" textLength="82" x="1254" y="1363.0889">SP Debitore</text><rect fill="#FFFFFF" filter="url(#f1fexoxxtnpsja)" height="1169.5039" style="stroke:#A80036;stroke-width:1.0;" width="10" x="409" y="164.5898"/><rect fill="#FFFFFF" filter="url(#f1fexoxxtnpsja)" height="53.2656" style="stroke:#A80036;stroke-width:1.0;" width="10" x="645" y="206.2891"/><rect fill="#FFFFFF" filter="url(#f1fexoxxtnpsja)" height="881.9375" style="stroke:#A80036;stroke-width:1.0;" width="10" x="795" y="445.1563"/><rect fill="#FFFFFF" filter="url(#f1fexoxxtnpsja)" height="107.6641" style="stroke:#A80036;stroke-width:1.0;" width="10" x="1099" y="474.2891"/><rect fill="#FFFFFF" filter="url(#f1fexoxxtnpsja)" height="29.1328" style="stroke:#A80036;stroke-width:1.0;" width="10" x="1099" y="824.1484"/><rect fill="#FFFFFF" filter="url(#f1fexoxxtnpsja)" height="29.1328" style="stroke:#A80036;stroke-width:1.0;" width="10" x="1099" y="968.4844"/><rect fill="#FFFFFF" filter="url(#f1fexoxxtnpsja)" height="29.1328" style="stroke:#A80036;stroke-width:1.0;" width="10" x="1099" y="1112.8203"/><rect fill="#FFFFFF" filter="url(#f1fexoxxtnpsja)" height="462.3359" style="stroke:#A80036;stroke-width:1.0;" width="10" x="1292" y="694.6172"/><polygon fill="#A80036" points="397,160.5898,407,164.5898,397,168.5898,401,164.5898" style="stroke:#A80036;stroke-width:1.0;"/><line style="stroke:#A80036;stroke-width:1.0;" x1="245" x2="403" y1="164.5898" y2="164.5898"/><text fill="#000000" font-family="sans-serif" font-size="13" font-weight="bold" lengthAdjust="spacing" textLength="103" x="252" y="159.5239">GDP Message</text><path d="M5,135.8906 L5,175.8906 L236,175.8906 L236,145.8906 L226,135.8906 L5,135.8906 " fill="#FBFB77" filter="url(#f1fexoxxtnpsja)" style="stroke:#A80036;stroke-width:1.0;"/><path d="M226,135.8906 L226,145.8906 L236,145.8906 L226,135.8906 " fill="#FBFB77" style="stroke:#A80036;stroke-width:1.0;"/><text fill="#000000" font-family="sans-serif" font-size="13" font-weight="bold" lengthAdjust="spacing" textLength="152" x="11" y="152.9575">Operation = UPDATE</text><text fill="#000000" font-family="sans-serif" font-size="13" font-weight="bold" lengthAdjust="spacing" textLength="126" x="11" y="168.0903">Status = INVALID</text><text fill="#000000" font-family="sans-serif" font-size="13" lengthAdjust="spacing" textLength="13" x="141" y="168.0903">or</text><text fill="#000000" font-family="sans-serif" font-size="13" font-weight="bold" lengthAdjust="spacing" textLength="63" x="158" y="168.0903">EXPIRED</text><polygon fill="#A80036" points="633,202.2891,643,206.2891,633,210.2891,637,206.2891" style="stroke:#A80036;stroke-width:1.0;"/><line style="stroke:#A80036;stroke-width:1.0;" x1="419" x2="639" y1="206.2891" y2="206.2891"/><text fill="#000000" font-family="sans-serif" font-size="13" font-weight="bold" lengthAdjust="spacing" textLength="178" x="426" y="201.2231">Check Idempotency-Key</text><path d="M288,221.2891 L352,221.2891 L352,228.4219 L342,238.4219 L288,238.4219 L288,221.2891 " fill="#EEEEEE" style="stroke:#000000;stroke-width:1.0;"/><rect fill="none" height="1105.8047" style="stroke:#000000;stroke-width:2.0;" width="1347" x="288" y="221.2891"/><text fill="#000000" font-family="sans-serif" font-size="13" font-weight="bold" lengthAdjust="spacing" textLength="19" x="303" y="234.356">alt</text><text fill="#000000" font-family="sans-serif" font-size="11" font-weight="bold" lengthAdjust="spacing" textLength="5" x="367" y="233.4995">[</text><text fill="#000000" font-family="sans-serif" font-size="11" font-weight="bold" lengthAdjust="spacing" textLength="216" x="372" y="233.4995">Idempotency-Key already present</text><text fill="#000000" font-family="sans-serif" font-size="11" font-weight="bold" lengthAdjust="spacing" textLength="5" x="588" y="233.4995">]</text><polygon fill="#A80036" points="430,255.5547,420,259.5547,430,263.5547,426,259.5547" style="stroke:#A80036;stroke-width:1.0;"/><line style="stroke:#A80036;stroke-width:1.0;stroke-dasharray:2.0,2.0;" x1="424" x2="649" y1="259.5547" y2="259.5547"/><text fill="#000000" font-family="sans-serif" font-size="13" font-weight="bold" lengthAdjust="spacing" textLength="75" x="436" y="254.4888">Key found</text><line style="stroke:#A80036;stroke-width:1.0;" x1="419" x2="461" y1="294.7539" y2="294.7539"/><line style="stroke:#A80036;stroke-width:1.0;" x1="461" x2="461" y1="294.7539" y2="307.7539"/><line style="stroke:#A80036;stroke-width:1.0;" x1="420" x2="461" y1="307.7539" y2="307.7539"/><polygon fill="#A80036" points="430,303.7539,420,307.7539,430,311.7539,426,307.7539" style="stroke:#A80036;stroke-width:1.0;"/><text fill="#000000" font-family="sans-serif" font-size="13" font-weight="bold" lengthAdjust="spacing" textLength="212" x="426" y="289.688">Discard duplicated message</text><path d="M650,272.5547 L650,312.5547 L849,312.5547 L849,282.5547 L839,272.5547 L650,272.5547 " fill="#FBFB77" filter="url(#f1fexoxxtnpsja)" style="stroke:#A80036;stroke-width:1.0;"/><path d="M839,272.5547 L839,282.5547 L849,282.5547 L839,272.5547 " fill="#FBFB77" style="stroke:#A80036;stroke-width:1.0;"/><text fill="#000000" font-family="sans-serif" font-size="13" lengthAdjust="spacing" textLength="178" x="656" y="289.6216">Message already processed</text><text fill="#000000" font-family="sans-serif" font-size="13" lengthAdjust="spacing" textLength="152" x="656" y="304.7544">or already in processing</text><line style="stroke:#000000;stroke-width:1.0;stroke-dasharray:2.0,2.0;" x1="288" x2="1635" y1="322.8203" y2="322.8203"/><text fill="#000000" font-family="sans-serif" font-size="11" font-weight="bold" lengthAdjust="spacing" textLength="5" x="293" y="333.0308">[</text><text fill="#000000" font-family="sans-serif" font-size="11" font-weight="bold" lengthAdjust="spacing" textLength="189" x="298" y="333.0308">Idempotency-Key not present</text><text fill="#000000" font-family="sans-serif" font-size="11" font-weight="bold" lengthAdjust="spacing" textLength="5" x="487" y="333.0308">]</text><polygon fill="#A80036" points="430,353.7578,420,357.7578,430,361.7578,426,357.7578" style="stroke:#A80036;stroke-width:1.0;"/><line style="stroke:#A80036;stroke-width:1.0;stroke-dasharray:2.0,2.0;" x1="424" x2="649" y1="357.7578" y2="357.7578"/><text fill="#000000" font-family="sans-serif" font-size="13" font-weight="bold" lengthAdjust="spacing" textLength="104" x="436" y="352.6919">Key not found</text><polygon fill="#A80036" points="638,382.8906,648,386.8906,638,390.8906,642,386.8906" style="stroke:#A80036;stroke-width:1.0;"/><line style="stroke:#A80036;stroke-width:1.0;" x1="419" x2="644" y1="386.8906" y2="386.8906"/><text fill="#000000" font-family="sans-serif" font-size="13" font-weight="bold" lengthAdjust="spacing" textLength="168" x="426" y="381.8247">Save Idempotency-Key</text><polygon fill="#A80036" points="430,412.0234,420,416.0234,430,420.0234,426,416.0234" style="stroke:#A80036;stroke-width:1.0;"/><line style="stroke:#A80036;stroke-width:1.0;stroke-dasharray:2.0,2.0;" x1="424" x2="649" y1="416.0234" y2="416.0234"/><text fill="#000000" font-family="sans-serif" font-size="13" font-weight="bold" lengthAdjust="spacing" textLength="76" x="436" y="410.9575">Key saved</text><polygon fill="#A80036" points="783,441.1563,793,445.1563,783,449.1563,787,445.1563" style="stroke:#A80036;stroke-width:1.0;"/><line style="stroke:#A80036;stroke-width:1.0;" x1="419" x2="789" y1="445.1563" y2="445.1563"/><text fill="#000000" font-family="sans-serif" font-size="13" font-weight="bold" lengthAdjust="spacing" textLength="262" x="426" y="440.0903">Process UPDATE INVALID / EXPIRED</text><polygon fill="#A80036" points="1087,470.2891,1097,474.2891,1087,478.2891,1091,474.2891" style="stroke:#A80036;stroke-width:1.0;"/><line style="stroke:#A80036;stroke-width:1.0;" x1="805" x2="1093" y1="474.2891" y2="474.2891"/><text fill="#000000" font-family="sans-serif" font-size="13" font-weight="bold" lengthAdjust="spacing" textLength="179" x="812" y="469.2231">findRtpByCompositeKey</text><path d="M298,489.2891 L362,489.2891 L362,496.4219 L352,506.4219 L298,506.4219 L298,489.2891 " fill="#EEEEEE" style="stroke:#000000;stroke-width:1.0;"/><rect fill="none" height="830.8047" style="stroke:#000000;stroke-width:2.0;" width="1327" x="298" y="489.2891"/><text fill="#000000" font-family="sans-serif" font-size="13" font-weight="bold" lengthAdjust="spacing" textLength="19" x="313" y="502.356">alt</text><text fill="#000000" font-family="sans-serif" font-size="11" font-weight="bold" lengthAdjust="spacing" textLength="5" x="377" y="501.4995">[</text><text fill="#000000" font-family="sans-serif" font-size="11" font-weight="bold" lengthAdjust="spacing" textLength="66" x="382" y="501.4995">RTP exists</text><text fill="#000000" font-family="sans-serif" font-size="11" font-weight="bold" lengthAdjust="spacing" textLength="5" x="448" y="501.4995">]</text><polygon fill="#A80036" points="816,577.9531,806,581.9531,816,585.9531,812,581.9531" style="stroke:#A80036;stroke-width:1.0;"/><line style="stroke:#A80036;stroke-width:1.0;stroke-dasharray:2.0,2.0;" x1="810" x2="1103" y1="581.9531" y2="581.9531"/><text fill="#000000" font-family="sans-serif" font-size="13" font-weight="bold" lengthAdjust="spacing" textLength="28" x="822" y="576.8872">RTP</text><path d="M1114,511.4219 L1114,634.4219 L1330,634.4219 L1330,521.4219 L1320,511.4219 L1114,511.4219 " fill="#FBFB77" filter="url(#f1fexoxxtnpsja)" style="stroke:#A80036;stroke-width:1.0;"/><path d="M1320,511.4219 L1320,521.4219 L1330,521.4219 L1320,511.4219 " fill="#FBFB77" style="stroke:#A80036;stroke-width:1.0;"/><text fill="#000000" font-family="sans-serif" font-size="13" lengthAdjust="spacing" textLength="195" x="1120" y="528.4888">Valid statuses for cancellation:</text><text fill="#000000" font-family="sans-serif" font-size="13" lengthAdjust="spacing" textLength="68" x="1120" y="543.6216">- CREATED</text><text fill="#000000" font-family="sans-serif" font-size="13" lengthAdjust="spacing" textLength="43" x="1120" y="558.7544">- SENT</text><text fill="#000000" font-family="sans-serif" font-size="13" lengthAdjust="spacing" textLength="77" x="1120" y="573.8872">- ACCEPTED</text><text fill="#000000" font-family="sans-serif" font-size="13" lengthAdjust="spacing" textLength="119" x="1120" y="589.02">- USER_ACCEPTED</text><text fill="#000000" font-family="sans-serif" font-size="13" lengthAdjust="spacing" textLength="4" x="1120" y="604.1528">&#160;</text><line style="stroke:#A80036;stroke-width:1.0;" x1="1115" x2="1329" y1="607.2188" y2="607.2188"/><text fill="#000000" font-family="sans-serif" font-size="13" lengthAdjust="spacing" textLength="186" x="1120" y="623.2856">Cancellation request initiated</text><path d="M308,651.3516 L372,651.3516 L372,658.4844 L362,668.4844 L308,668.4844 L308,651.3516 " fill="#EEEEEE" style="stroke:#000000;stroke-width:1.0;"/><rect fill="none" height="588.6719" style="stroke:#000000;stroke-width:2.0;" width="1307" x="308" y="651.3516"/><text fill="#000000" font-family="sans-serif" font-size="13" font-weight="bold" lengthAdjust="spacing" textLength="19" x="323" y="664.4185">alt</text><text fill="#000000" font-family="sans-serif" font-size="11" font-weight="bold" lengthAdjust="spacing" textLength="5" x="387" y="663.562">[</text><text fill="#000000" font-family="sans-serif" font-size="11" font-weight="bold" lengthAdjust="spacing" textLength="91" x="392" y="663.562">Status is valid</text><text fill="#000000" font-family="sans-serif" font-size="11" font-weight="bold" lengthAdjust="spacing" textLength="5" x="483" y="663.562">]</text><polygon fill="#A80036" points="1280,690.6172,1290,694.6172,1280,698.6172,1284,694.6172" style="stroke:#A80036;stroke-width:1.0;"/><line style="stroke:#A80036;stroke-width:1.0;" x1="805" x2="1286" y1="694.6172" y2="694.6172"/><text fill="#000000" font-family="sans-serif" font-size="13" font-weight="bold" lengthAdjust="spacing" textLength="468" x="812" y="689.5513">POST /sepa-request-to-pay-requests/{id}/cancellation-requests</text><path d="M1307,673.4844 L1307,698.4844 L1601,698.4844 L1601,683.4844 L1591,673.4844 L1307,673.4844 " fill="#FBFB77" filter="url(#f1fexoxxtnpsja)" style="stroke:#A80036;stroke-width:1.0;"/><path d="M1591,673.4844 L1591,683.4844 L1601,683.4844 L1591,673.4844 " fill="#FBFB77" style="stroke:#A80036;stroke-width:1.0;"/><text fill="#000000" font-family="sans-serif" font-size="13" lengthAdjust="spacing" textLength="33" x="1313" y="690.5513">Send</text><text fill="#000000" font-family="sans-serif" font-size="13" font-weight="bold" lengthAdjust="spacing" textLength="150" x="1350" y="690.5513">cancellation request</text><text fill="#000000" font-family="sans-serif" font-size="13" lengthAdjust="spacing" textLength="82" x="1504" y="690.5513">to SP Debtor</text><path d="M738,714.6172 L802,714.6172 L802,721.75 L792,731.75 L738,731.75 L738,714.6172 " fill="#EEEEEE" style="stroke:#000000;stroke-width:1.0;"/><rect fill="none" height="435.3359" style="stroke:#000000;stroke-width:2.0;" width="619" x="738" y="714.6172"/><text fill="#000000" font-family="sans-serif" font-size="13" font-weight="bold" lengthAdjust="spacing" textLength="19" x="753" y="727.6841">alt</text><text fill="#000000" font-family="sans-serif" font-size="11" font-weight="bold" lengthAdjust="spacing" textLength="5" x="817" y="726.8276">[</text><text fill="#000000" font-family="sans-serif" font-size="11" font-weight="bold" lengthAdjust="spacing" textLength="98" x="822" y="726.8276">Async flow EPC</text><text fill="#000000" font-family="sans-serif" font-size="11" font-weight="bold" lengthAdjust="spacing" textLength="5" x="920" y="726.8276">]</text><polygon fill="#A80036" points="816,748.8828,806,752.8828,816,756.8828,812,752.8828" style="stroke:#A80036;stroke-width:1.0;"/><line style="stroke:#A80036;stroke-width:1.0;stroke-dasharray:2.0,2.0;" x1="810" x2="1291" y1="752.8828" y2="752.8828"/><text fill="#000000" font-family="sans-serif" font-size="13" font-weight="bold" lengthAdjust="spacing" textLength="115" x="822" y="747.8169">OK empty Body</text><line style="stroke:#A80036;stroke-width:1.0;" x1="805" x2="847" y1="782.0156" y2="782.0156"/><line style="stroke:#A80036;stroke-width:1.0;" x1="847" x2="847" y1="782.0156" y2="795.0156"/><line style="stroke:#A80036;stroke-width:1.0;" x1="806" x2="847" y1="795.0156" y2="795.0156"/><polygon fill="#A80036" points="816,791.0156,806,795.0156,816,799.0156,812,795.0156" style="stroke:#A80036;stroke-width:1.0;"/><text fill="#000000" font-family="sans-serif" font-size="13" font-weight="bold" lengthAdjust="spacing" textLength="206" x="812" y="776.9497">Set RTP status to RFC_SENT</text><polygon fill="#A80036" points="1087,820.1484,1097,824.1484,1087,828.1484,1091,824.1484" style="stroke:#A80036;stroke-width:1.0;"/><line style="stroke:#A80036;stroke-width:1.0;" x1="805" x2="1093" y1="824.1484" y2="824.1484"/><text fill="#000000" font-family="sans-serif" font-size="13" font-weight="bold" lengthAdjust="spacing" textLength="233" x="812" y="819.0825">Save RTP with RFC_SENT status</text><polygon fill="#A80036" points="816,849.2813,806,853.2813,816,857.2813,812,853.2813" style="stroke:#A80036;stroke-width:1.0;"/><line style="stroke:#A80036;stroke-width:1.0;stroke-dasharray:2.0,2.0;" x1="810" x2="1103" y1="853.2813" y2="853.2813"/><text fill="#000000" font-family="sans-serif" font-size="13" font-weight="bold" lengthAdjust="spacing" textLength="78" x="822" y="848.2153">Saved RTP</text><line style="stroke:#000000;stroke-width:1.0;stroke-dasharray:2.0,2.0;" x1="738" x2="1357" y1="862.2813" y2="862.2813"/><text fill="#000000" font-family="sans-serif" font-size="11" font-weight="bold" lengthAdjust="spacing" textLength="5" x="743" y="872.4917">[</text><text fill="#000000" font-family="sans-serif" font-size="11" font-weight="bold" lengthAdjust="spacing" textLength="91" x="748" y="872.4917">Sync flow EPC</text><text fill="#000000" font-family="sans-serif" font-size="11" font-weight="bold" lengthAdjust="spacing" textLength="5" x="839" y="872.4917">]</text><polygon fill="#A80036" points="816,893.2188,806,897.2188,816,901.2188,812,897.2188" style="stroke:#A80036;stroke-width:1.0;"/><line style="stroke:#A80036;stroke-width:1.0;stroke-dasharray:2.0,2.0;" x1="810" x2="1291" y1="897.2188" y2="897.2188"/><text fill="#000000" font-family="sans-serif" font-size="13" font-weight="bold" lengthAdjust="spacing" textLength="85" x="822" y="892.1528">OK payload</text><line style="stroke:#A80036;stroke-width:1.0;" x1="805" x2="847" y1="926.3516" y2="926.3516"/><line style="stroke:#A80036;stroke-width:1.0;" x1="847" x2="847" y1="926.3516" y2="939.3516"/><line style="stroke:#A80036;stroke-width:1.0;" x1="806" x2="847" y1="939.3516" y2="939.3516"/><polygon fill="#A80036" points="816,935.3516,806,939.3516,816,943.3516,812,939.3516" style="stroke:#A80036;stroke-width:1.0;"/><text fill="#000000" font-family="sans-serif" font-size="13" font-weight="bold" lengthAdjust="spacing" textLength="219" x="812" y="921.2856">Set RTP status to CANCELLED</text><polygon fill="#A80036" points="1087,964.4844,1097,968.4844,1087,972.4844,1091,968.4844" style="stroke:#A80036;stroke-width:1.0;"/><line style="stroke:#A80036;stroke-width:1.0;" x1="805" x2="1093" y1="968.4844" y2="968.4844"/><text fill="#000000" font-family="sans-serif" font-size="13" font-weight="bold" lengthAdjust="spacing" textLength="246" x="812" y="963.4185">Save RTP with CANCELLED status</text><polygon fill="#A80036" points="816,993.6172,806,997.6172,816,1001.6172,812,997.6172" style="stroke:#A80036;stroke-width:1.0;"/><line style="stroke:#A80036;stroke-width:1.0;stroke-dasharray:2.0,2.0;" x1="810" x2="1103" y1="997.6172" y2="997.6172"/><text fill="#000000" font-family="sans-serif" font-size="13" font-weight="bold" lengthAdjust="spacing" textLength="78" x="822" y="992.5513">Saved RTP</text><line style="stroke:#000000;stroke-width:1.0;stroke-dasharray:2.0,2.0;" x1="738" x2="1357" y1="1006.6172" y2="1006.6172"/><text fill="#000000" font-family="sans-serif" font-size="11" font-weight="bold" lengthAdjust="spacing" textLength="5" x="743" y="1016.8276">[</text><text fill="#000000" font-family="sans-serif" font-size="11" font-weight="bold" lengthAdjust="spacing" textLength="131" x="748" y="1016.8276">Error Sync Response</text><text fill="#000000" font-family="sans-serif" font-size="11" font-weight="bold" lengthAdjust="spacing" textLength="5" x="879" y="1016.8276">]</text><polygon fill="#A80036" points="816,1037.5547,806,1041.5547,816,1045.5547,812,1041.5547" style="stroke:#A80036;stroke-width:1.0;"/><line style="stroke:#A80036;stroke-width:1.0;stroke-dasharray:2.0,2.0;" x1="810" x2="1291" y1="1041.5547" y2="1041.5547"/><text fill="#000000" font-family="sans-serif" font-size="13" font-weight="bold" lengthAdjust="spacing" textLength="225" x="822" y="1036.4888">Error response (e.g., 4xx, 5xx)</text><line style="stroke:#A80036;stroke-width:1.0;" x1="805" x2="847" y1="1070.6875" y2="1070.6875"/><line style="stroke:#A80036;stroke-width:1.0;" x1="847" x2="847" y1="1070.6875" y2="1083.6875"/><line style="stroke:#A80036;stroke-width:1.0;" x1="806" x2="847" y1="1083.6875" y2="1083.6875"/><polygon fill="#A80036" points="816,1079.6875,806,1083.6875,816,1087.6875,812,1083.6875" style="stroke:#A80036;stroke-width:1.0;"/><text fill="#000000" font-family="sans-serif" font-size="13" font-weight="bold" lengthAdjust="spacing" textLength="248" x="812" y="1065.6216">Set RTP status to ERROR_CANCEL</text><polygon fill="#A80036" points="1087,1108.8203,1097,1112.8203,1087,1116.8203,1091,1112.8203" style="stroke:#A80036;stroke-width:1.0;"/><line style="stroke:#A80036;stroke-width:1.0;" x1="805" x2="1093" y1="1112.8203" y2="1112.8203"/><text fill="#000000" font-family="sans-serif" font-size="13" font-weight="bold" lengthAdjust="spacing" textLength="275" x="812" y="1107.7544">Save RTP with ERROR_CANCEL status</text><polygon fill="#A80036" points="816,1137.9531,806,1141.9531,816,1145.9531,812,1141.9531" style="stroke:#A80036;stroke-width:1.0;"/><line style="stroke:#A80036;stroke-width:1.0;stroke-dasharray:2.0,2.0;" x1="810" x2="1103" y1="1141.9531" y2="1141.9531"/><text fill="#000000" font-family="sans-serif" font-size="13" font-weight="bold" lengthAdjust="spacing" textLength="78" x="822" y="1136.8872">Saved RTP</text><polygon fill="#A80036" points="430,1174.0859,420,1178.0859,430,1182.0859,426,1178.0859" style="stroke:#A80036;stroke-width:1.0;"/><line style="stroke:#A80036;stroke-width:1.0;stroke-dasharray:2.0,2.0;" x1="424" x2="794" y1="1178.0859" y2="1178.0859"/><text fill="#000000" font-family="sans-serif" font-size="13" font-weight="bold" lengthAdjust="spacing" textLength="148" x="436" y="1173.02">Outcome processed</text><line style="stroke:#000000;stroke-width:1.0;stroke-dasharray:2.0,2.0;" x1="308" x2="1615" y1="1187.0859" y2="1187.0859"/><text fill="#000000" font-family="sans-serif" font-size="11" font-weight="bold" lengthAdjust="spacing" textLength="5" x="313" y="1197.2964">[</text><text fill="#000000" font-family="sans-serif" font-size="11" font-weight="bold" lengthAdjust="spacing" textLength="220" x="318" y="1197.2964">Invalid RTP status for cancellation</text><text fill="#000000" font-family="sans-serif" font-size="11" font-weight="bold" lengthAdjust="spacing" textLength="5" x="538" y="1197.2964">]</text><polygon fill="#A80036" points="430,1223.0234,420,1227.0234,430,1231.0234,426,1227.0234" style="stroke:#A80036;stroke-width:1.0;"/><line style="stroke:#A80036;stroke-width:1.0;stroke-dasharray:2.0,2.0;" x1="424" x2="794" y1="1227.0234" y2="1227.0234"/><text fill="#000000" font-family="sans-serif" font-size="13" font-weight="bold" lengthAdjust="spacing" textLength="183" x="436" y="1221.9575">Error - Invalid RTP status</text><path d="M810,1205.8906 L810,1230.8906 L1158,1230.8906 L1158,1215.8906 L1148,1205.8906 L810,1205.8906 " fill="#FBFB77" filter="url(#f1fexoxxtnpsja)" style="stroke:#A80036;stroke-width:1.0;"/><path d="M1148,1205.8906 L1148,1215.8906 L1158,1215.8906 L1148,1205.8906 " fill="#FBFB77" style="stroke:#A80036;stroke-width:1.0;"/><text fill="#000000" font-family="sans-serif" font-size="13" lengthAdjust="spacing" textLength="327" x="816" y="1222.9575">RTP is already in a final state (e.g., PAID, REJECTED)</text><line style="stroke:#000000;stroke-width:1.0;stroke-dasharray:2.0,2.0;" x1="298" x2="1625" y1="1248.0234" y2="1248.0234"/><text fill="#000000" font-family="sans-serif" font-size="11" font-weight="bold" lengthAdjust="spacing" textLength="5" x="303" y="1258.2339">[</text><text fill="#000000" font-family="sans-serif" font-size="11" font-weight="bold" lengthAdjust="spacing" textLength="90" x="308" y="1258.2339">RTP not found</text><text fill="#000000" font-family="sans-serif" font-size="11" font-weight="bold" lengthAdjust="spacing" textLength="5" x="398" y="1258.2339">]</text><polygon fill="#A80036" points="816,1278.9609,806,1282.9609,816,1286.9609,812,1282.9609" style="stroke:#A80036;stroke-width:1.0;"/><line style="stroke:#A80036;stroke-width:1.0;stroke-dasharray:2.0,2.0;" x1="810" x2="1103" y1="1282.9609" y2="1282.9609"/><text fill="#000000" font-family="sans-serif" font-size="13" font-weight="bold" lengthAdjust="spacing" textLength="74" x="822" y="1277.895">Not found</text><polygon fill="#A80036" points="430,1308.0938,420,1312.0938,430,1316.0938,426,1312.0938" style="stroke:#A80036;stroke-width:1.0;"/><line style="stroke:#A80036;stroke-width:1.0;stroke-dasharray:2.0,2.0;" x1="424" x2="794" y1="1312.0938" y2="1312.0938"/><text fill="#000000" font-family="sans-serif" font-size="13" font-weight="bold" lengthAdjust="spacing" textLength="156" x="436" y="1307.0278">Error - RTP not found</text><!--SRC=[lLLDRzGm4BtxLunwegk6Nk1I2QGbIM6XT4DI40UaoesdhKMQXDXRTeNuxumTn_5cjwWzm6dNy_4yxyruehxB6hf68TDILmXlamm-ebBy1Y62sUnpbimlKbYSVvcVBH8uXlHhjiZJP3Q3qwhvoTYF5QuG3anUUe-rXdUhgmFW2ZuP1sjvfsKfMqwUWn0yRcgrkiFEnWu79hZcLrmHO8v2gc_riuN0kxRHM9SR-80RA7JJuQ7DeZ8MnVODHGPnHvacoCOKMHo05lb5rflfpqvcWbTXOiAOvG3HQr_W2KaIi9ZDM4srGONNcW7vbYrsNCkcXbVGIqSXnb5ehbUAh4v9qg_foExbP5WBC62CyLBBUwv7ZHWR_fbQB6rJI7oBvNS818f884Bo-Rr0Z5UQeYTnmAiEkTX0sw6YljawRG944y8c-hfPrSB629pW0uJLXOc9L2Nl18XLMycICWJSUU70ieLEtjmQxS1FnbXOKv89XVMIMeE39jRvP7r3pb4vhAZBkrJ9-KYQ9dAakbVrWj_Z7j7_XgeevG7n9hVGk9gahAS73xy-olD8PiRfJ3yMWaRRO5pBMkIwVRE96ofLIOr3eMEYUGN6O0U43e1hgRIoKM3Tbe-hYexE4z0OC7RQ2V25LrA0ifEFYdJjeEHrYLLbdyY92uiWpbEYcVXpaPvV-CCyZjCiz7ukqlpIMmTp5Bb_SN05T4ZxIMaQ6Qcb6K0RD0wCEVNitGEL2kvDsOxeg6gMsCOiYmiuLjZoo457kebQlXcEwlYN5B-FGvxUvJ57fKwWCCNCPkMUgcb7w0RwnKHxoIK7RVViUmfpjQbBkAQr36aM-ziCXoJiu_83qFJg3Rnfn6OhB0vci40DPW3w_fbAyjFuqhHcJugREVisJD9FgMzzl8C8qhQdnuDDvisW2HYdxi79euxs3xzuj03KighXuWdiu_bvd9wTkSVt2Fe-uV_nJxkE7fbL8KVLqcB1XrNeWpiN1y_m-Stp8tYnNX_1o_Nwy0dIf7c-p2zxlezL9ypvbm8vVMenI1K6P4duoYURUxdIPNE7utU8Rc61s8lQRefGY-cAszuY4_nU_mXsSVOk2kEcxHHy13dGZkULJVBzo-QBv8W-Bk_JcDRZ8GlOkxeDqFPtRbVPyub_dwf_uxHxXwjXI_sOMMjW6x3-0000]--></g></svg>